G04 #@! TF.GenerationSoftware,KiCad,Pcbnew,(5.1.7)-1*
G04 #@! TF.CreationDate,2021-05-15T19:47:12-05:00*
G04 #@! TF.ProjectId,PortableAmpTDA,506f7274-6162-46c6-9541-6d705444412e,rev?*
G04 #@! TF.SameCoordinates,Original*
G04 #@! TF.FileFunction,Copper,L2,Bot*
G04 #@! TF.FilePolarity,Positive*
%FSLAX46Y46*%
G04 Gerber Fmt 4.6, Leading zero omitted, Abs format (unit mm)*
G04 Created by KiCad (PCBNEW (5.1.7)-1) date 2021-05-15 19:47:12*
%MOMM*%
%LPD*%
G01*
G04 APERTURE LIST*
G04 #@! TA.AperFunction,ComponentPad*
%ADD10R,1.600000X1.600000*%
G04 #@! TD*
G04 #@! TA.AperFunction,ComponentPad*
%ADD11C,1.600000*%
G04 #@! TD*
G04 #@! TA.AperFunction,ComponentPad*
%ADD12R,2.000000X2.000000*%
G04 #@! TD*
G04 #@! TA.AperFunction,ComponentPad*
%ADD13O,2.000000X2.000000*%
G04 #@! TD*
G04 #@! TA.AperFunction,ComponentPad*
%ADD14R,2.200000X2.200000*%
G04 #@! TD*
G04 #@! TA.AperFunction,ComponentPad*
%ADD15O,2.200000X2.200000*%
G04 #@! TD*
G04 #@! TA.AperFunction,ComponentPad*
%ADD16R,1.800000X1.800000*%
G04 #@! TD*
G04 #@! TA.AperFunction,ComponentPad*
%ADD17C,1.800000*%
G04 #@! TD*
G04 #@! TA.AperFunction,ComponentPad*
%ADD18O,1.700000X1.700000*%
G04 #@! TD*
G04 #@! TA.AperFunction,ComponentPad*
%ADD19R,1.700000X1.700000*%
G04 #@! TD*
G04 #@! TA.AperFunction,ComponentPad*
%ADD20O,1.600000X1.600000*%
G04 #@! TD*
G04 #@! TA.AperFunction,ComponentPad*
%ADD21O,1.800000X1.800000*%
G04 #@! TD*
G04 #@! TA.AperFunction,Conductor*
%ADD22C,0.500000*%
G04 #@! TD*
G04 #@! TA.AperFunction,Conductor*
%ADD23C,0.254000*%
G04 #@! TD*
G04 #@! TA.AperFunction,Conductor*
%ADD24C,0.100000*%
G04 #@! TD*
G04 APERTURE END LIST*
D10*
G04 #@! TO.P,C1,1*
G04 #@! TO.N,+9V*
X135382000Y-69342000D03*
D11*
G04 #@! TO.P,C1,2*
G04 #@! TO.N,GND*
X135382000Y-66842000D03*
G04 #@! TD*
G04 #@! TO.P,C2,1*
G04 #@! TO.N,+9V*
X153905000Y-80010000D03*
G04 #@! TO.P,C2,2*
G04 #@! TO.N,GND*
X153905000Y-75010000D03*
G04 #@! TD*
D12*
G04 #@! TO.P,C3,1*
G04 #@! TO.N,/pin6*
X148844000Y-84582000D03*
D13*
G04 #@! TO.P,C3,2*
G04 #@! TO.N,GND*
X148844000Y-69582000D03*
G04 #@! TD*
D11*
G04 #@! TO.P,C4,2*
G04 #@! TO.N,Net-(C4-Pad2)*
X153905000Y-67136000D03*
G04 #@! TO.P,C4,1*
G04 #@! TO.N,/pin4*
X153905000Y-72136000D03*
G04 #@! TD*
D14*
G04 #@! TO.P,D1,1*
G04 #@! TO.N,+9V*
X143510000Y-84074000D03*
D15*
G04 #@! TO.P,D1,2*
G04 #@! TO.N,GND*
X133350000Y-84074000D03*
G04 #@! TD*
D16*
G04 #@! TO.P,D2,1*
G04 #@! TO.N,GND*
X164592000Y-60706000D03*
D17*
G04 #@! TO.P,D2,2*
G04 #@! TO.N,Net-(D2-Pad2)*
X164592000Y-63246000D03*
G04 #@! TD*
D18*
G04 #@! TO.P,J1,2*
G04 #@! TO.N,Net-(J1-Pad2)*
X155194000Y-62000000D03*
D19*
G04 #@! TO.P,J1,1*
G04 #@! TO.N,Net-(J1-Pad1)*
X157734000Y-62000000D03*
G04 #@! TD*
G04 #@! TO.P,J2,1*
G04 #@! TO.N,GND*
X165000000Y-68190000D03*
D18*
G04 #@! TO.P,J2,2*
X165000000Y-70730000D03*
G04 #@! TO.P,J2,3*
G04 #@! TO.N,/Input*
X165000000Y-73270000D03*
G04 #@! TO.P,J2,4*
G04 #@! TO.N,/9V_In*
X165000000Y-75810000D03*
G04 #@! TD*
D11*
G04 #@! TO.P,R1,1*
G04 #@! TO.N,+9V*
X133604000Y-73660000D03*
D20*
G04 #@! TO.P,R1,2*
G04 #@! TO.N,Net-(D2-Pad2)*
X143764000Y-73660000D03*
G04 #@! TD*
G04 #@! TO.P,R2,2*
G04 #@! TO.N,/pin6*
X143764000Y-80264000D03*
D11*
G04 #@! TO.P,R2,1*
G04 #@! TO.N,+9V*
X133604000Y-80264000D03*
G04 #@! TD*
G04 #@! TO.P,R3,1*
G04 #@! TO.N,/pin6*
X143764000Y-76962000D03*
D20*
G04 #@! TO.P,R3,2*
G04 #@! TO.N,GND*
X133604000Y-76962000D03*
G04 #@! TD*
D19*
G04 #@! TO.P,RV1,1*
G04 #@! TO.N,GND*
X145034000Y-61976000D03*
D18*
G04 #@! TO.P,RV1,2*
G04 #@! TO.N,Net-(C4-Pad2)*
X147574000Y-61976000D03*
G04 #@! TO.P,RV1,3*
G04 #@! TO.N,/Input*
X150114000Y-61976000D03*
G04 #@! TD*
D19*
G04 #@! TO.P,SW1,1*
G04 #@! TO.N,/9V_In*
X155194000Y-83312000D03*
D18*
G04 #@! TO.P,SW1,2*
G04 #@! TO.N,+9V*
X157734000Y-83312000D03*
G04 #@! TD*
D16*
G04 #@! TO.P,U1,1*
G04 #@! TO.N,Net-(J1-Pad1)*
X130302000Y-84328000D03*
D21*
G04 #@! TO.P,U1,2*
G04 #@! TO.N,Net-(J1-Pad2)*
X125222000Y-83058000D03*
G04 #@! TO.P,U1,3*
G04 #@! TO.N,+9V*
X130302000Y-81788000D03*
G04 #@! TO.P,U1,4*
G04 #@! TO.N,/pin4*
X125222000Y-80518000D03*
G04 #@! TO.P,U1,5*
G04 #@! TO.N,N/C*
X130302000Y-79248000D03*
G04 #@! TO.P,U1,6*
G04 #@! TO.N,/pin6*
X125222000Y-77978000D03*
G04 #@! TO.P,U1,7*
X130302000Y-76708000D03*
G04 #@! TO.P,U1,8*
G04 #@! TO.N,GND*
X125222000Y-75438000D03*
G04 #@! TO.P,U1,9*
X130302000Y-74168000D03*
G04 #@! TO.P,U1,10*
G04 #@! TO.N,N/C*
X125222000Y-72898000D03*
G04 #@! TO.P,U1,11*
X130302000Y-71628000D03*
G04 #@! TO.P,U1,12*
X125222000Y-70358000D03*
G04 #@! TO.P,U1,13*
G04 #@! TO.N,+9V*
X130302000Y-69088000D03*
G04 #@! TO.P,U1,14*
G04 #@! TO.N,N/C*
X125222000Y-67818000D03*
G04 #@! TO.P,U1,15*
X130302000Y-66548000D03*
G04 #@! TD*
D22*
G04 #@! TO.N,+9V*
X132353999Y-74910001D02*
X132353999Y-79013999D01*
X132353999Y-79013999D02*
X133604000Y-80264000D01*
X133604000Y-73660000D02*
X132353999Y-74910001D01*
G04 #@! TO.N,/pin4*
X126572001Y-79167999D02*
X125222000Y-80518000D01*
X130950001Y-65197999D02*
X129653999Y-65197999D01*
X129653999Y-65197999D02*
X126572001Y-68279997D01*
X131652001Y-68022003D02*
X131652001Y-65899999D01*
X135765998Y-72136000D02*
X131652001Y-68022003D01*
X126572001Y-68279997D02*
X126572001Y-79167999D01*
X131652001Y-65899999D02*
X130950001Y-65197999D01*
X153905000Y-72136000D02*
X135765998Y-72136000D01*
G04 #@! TO.N,Net-(D2-Pad2)*
X164592000Y-66173002D02*
X164592000Y-63246000D01*
X154505001Y-76260001D02*
X164592000Y-66173002D01*
X146364001Y-76260001D02*
X154505001Y-76260001D01*
X143764000Y-73660000D02*
X146364001Y-76260001D01*
G04 #@! TD*
D23*
G04 #@! TO.N,GND*
X165745857Y-57854686D02*
X166468144Y-58052281D01*
X167144017Y-58374656D01*
X167752127Y-58811626D01*
X168273247Y-59349380D01*
X168690897Y-59970909D01*
X168991887Y-60656583D01*
X169168146Y-61390752D01*
X169215000Y-62028786D01*
X169215001Y-81965031D01*
X169145314Y-82745857D01*
X168947718Y-83468148D01*
X168625345Y-84144017D01*
X168188371Y-84752130D01*
X167650620Y-85273247D01*
X167029091Y-85690897D01*
X166343414Y-85991888D01*
X165609248Y-86168146D01*
X164971214Y-86215000D01*
X149895499Y-86215000D01*
X149968482Y-86207812D01*
X150088180Y-86171502D01*
X150198494Y-86112537D01*
X150295185Y-86033185D01*
X150374537Y-85936494D01*
X150433502Y-85826180D01*
X150469812Y-85706482D01*
X150482072Y-85582000D01*
X150482072Y-83582000D01*
X150469812Y-83457518D01*
X150433502Y-83337820D01*
X150374537Y-83227506D01*
X150295185Y-83130815D01*
X150198494Y-83051463D01*
X150088180Y-82992498D01*
X149968482Y-82956188D01*
X149844000Y-82943928D01*
X147844000Y-82943928D01*
X147719518Y-82956188D01*
X147599820Y-82992498D01*
X147489506Y-83051463D01*
X147392815Y-83130815D01*
X147313463Y-83227506D01*
X147254498Y-83337820D01*
X147218188Y-83457518D01*
X147205928Y-83582000D01*
X147205928Y-85582000D01*
X147218188Y-85706482D01*
X147254498Y-85826180D01*
X147313463Y-85936494D01*
X147392815Y-86033185D01*
X147489506Y-86112537D01*
X147599820Y-86171502D01*
X147719518Y-86207812D01*
X147792501Y-86215000D01*
X122034958Y-86215000D01*
X121254143Y-86145314D01*
X120531852Y-85947718D01*
X119855983Y-85625345D01*
X119247870Y-85188371D01*
X118726753Y-84650620D01*
X118309103Y-84029091D01*
X118008112Y-83343414D01*
X117831854Y-82609248D01*
X117785000Y-81971214D01*
X117785000Y-67666816D01*
X123687000Y-67666816D01*
X123687000Y-67969184D01*
X123745989Y-68265743D01*
X123861701Y-68545095D01*
X124029688Y-68796505D01*
X124243495Y-69010312D01*
X124359763Y-69088000D01*
X124243495Y-69165688D01*
X124029688Y-69379495D01*
X123861701Y-69630905D01*
X123745989Y-69910257D01*
X123687000Y-70206816D01*
X123687000Y-70509184D01*
X123745989Y-70805743D01*
X123861701Y-71085095D01*
X124029688Y-71336505D01*
X124243495Y-71550312D01*
X124359763Y-71628000D01*
X124243495Y-71705688D01*
X124029688Y-71919495D01*
X123861701Y-72170905D01*
X123745989Y-72450257D01*
X123687000Y-72746816D01*
X123687000Y-73049184D01*
X123745989Y-73345743D01*
X123861701Y-73625095D01*
X124029688Y-73876505D01*
X124243495Y-74090312D01*
X124364802Y-74171367D01*
X124184884Y-74306351D01*
X123984038Y-74530427D01*
X123830766Y-74789380D01*
X123730959Y-75073259D01*
X123851008Y-75311000D01*
X125095000Y-75311000D01*
X125095000Y-75291000D01*
X125349000Y-75291000D01*
X125349000Y-75311000D01*
X125369000Y-75311000D01*
X125369000Y-75565000D01*
X125349000Y-75565000D01*
X125349000Y-75585000D01*
X125095000Y-75585000D01*
X125095000Y-75565000D01*
X123851008Y-75565000D01*
X123730959Y-75802741D01*
X123830766Y-76086620D01*
X123984038Y-76345573D01*
X124184884Y-76569649D01*
X124364802Y-76704633D01*
X124243495Y-76785688D01*
X124029688Y-76999495D01*
X123861701Y-77250905D01*
X123745989Y-77530257D01*
X123687000Y-77826816D01*
X123687000Y-78129184D01*
X123745989Y-78425743D01*
X123861701Y-78705095D01*
X124029688Y-78956505D01*
X124243495Y-79170312D01*
X124359763Y-79248000D01*
X124243495Y-79325688D01*
X124029688Y-79539495D01*
X123861701Y-79790905D01*
X123745989Y-80070257D01*
X123687000Y-80366816D01*
X123687000Y-80669184D01*
X123745989Y-80965743D01*
X123861701Y-81245095D01*
X124029688Y-81496505D01*
X124243495Y-81710312D01*
X124359763Y-81788000D01*
X124243495Y-81865688D01*
X124029688Y-82079495D01*
X123861701Y-82330905D01*
X123745989Y-82610257D01*
X123687000Y-82906816D01*
X123687000Y-83209184D01*
X123745989Y-83505743D01*
X123861701Y-83785095D01*
X124029688Y-84036505D01*
X124243495Y-84250312D01*
X124494905Y-84418299D01*
X124774257Y-84534011D01*
X125070816Y-84593000D01*
X125373184Y-84593000D01*
X125669743Y-84534011D01*
X125949095Y-84418299D01*
X126200505Y-84250312D01*
X126414312Y-84036505D01*
X126582299Y-83785095D01*
X126698011Y-83505743D01*
X126713474Y-83428000D01*
X128763928Y-83428000D01*
X128763928Y-85228000D01*
X128776188Y-85352482D01*
X128812498Y-85472180D01*
X128871463Y-85582494D01*
X128950815Y-85679185D01*
X129047506Y-85758537D01*
X129157820Y-85817502D01*
X129277518Y-85853812D01*
X129402000Y-85866072D01*
X131202000Y-85866072D01*
X131326482Y-85853812D01*
X131446180Y-85817502D01*
X131556494Y-85758537D01*
X131653185Y-85679185D01*
X131732537Y-85582494D01*
X131791502Y-85472180D01*
X131827812Y-85352482D01*
X131840072Y-85228000D01*
X131840072Y-84916321D01*
X131875469Y-84988329D01*
X132082178Y-85258427D01*
X132337609Y-85483008D01*
X132631946Y-85653442D01*
X132953877Y-85763179D01*
X133223000Y-85645600D01*
X133223000Y-84201000D01*
X133477000Y-84201000D01*
X133477000Y-85645600D01*
X133746123Y-85763179D01*
X134068054Y-85653442D01*
X134362391Y-85483008D01*
X134617822Y-85258427D01*
X134824531Y-84988329D01*
X134974575Y-84683094D01*
X135039175Y-84470122D01*
X134921125Y-84201000D01*
X133477000Y-84201000D01*
X133223000Y-84201000D01*
X133203000Y-84201000D01*
X133203000Y-83947000D01*
X133223000Y-83947000D01*
X133223000Y-82502400D01*
X133477000Y-82502400D01*
X133477000Y-83947000D01*
X134921125Y-83947000D01*
X135039175Y-83677878D01*
X134974575Y-83464906D01*
X134824531Y-83159671D01*
X134682435Y-82974000D01*
X141771928Y-82974000D01*
X141771928Y-85174000D01*
X141784188Y-85298482D01*
X141820498Y-85418180D01*
X141879463Y-85528494D01*
X141958815Y-85625185D01*
X142055506Y-85704537D01*
X142165820Y-85763502D01*
X142285518Y-85799812D01*
X142410000Y-85812072D01*
X144610000Y-85812072D01*
X144734482Y-85799812D01*
X144854180Y-85763502D01*
X144964494Y-85704537D01*
X145061185Y-85625185D01*
X145140537Y-85528494D01*
X145199502Y-85418180D01*
X145235812Y-85298482D01*
X145248072Y-85174000D01*
X145248072Y-82974000D01*
X145235812Y-82849518D01*
X145199502Y-82729820D01*
X145140537Y-82619506D01*
X145061185Y-82522815D01*
X144987082Y-82462000D01*
X153705928Y-82462000D01*
X153705928Y-84162000D01*
X153718188Y-84286482D01*
X153754498Y-84406180D01*
X153813463Y-84516494D01*
X153892815Y-84613185D01*
X153989506Y-84692537D01*
X154099820Y-84751502D01*
X154219518Y-84787812D01*
X154344000Y-84800072D01*
X156044000Y-84800072D01*
X156168482Y-84787812D01*
X156288180Y-84751502D01*
X156398494Y-84692537D01*
X156495185Y-84613185D01*
X156574537Y-84516494D01*
X156633502Y-84406180D01*
X156655513Y-84333620D01*
X156787368Y-84465475D01*
X157030589Y-84627990D01*
X157300842Y-84739932D01*
X157587740Y-84797000D01*
X157880260Y-84797000D01*
X158167158Y-84739932D01*
X158437411Y-84627990D01*
X158680632Y-84465475D01*
X158887475Y-84258632D01*
X159049990Y-84015411D01*
X159161932Y-83745158D01*
X159219000Y-83458260D01*
X159219000Y-83165740D01*
X159161932Y-82878842D01*
X159049990Y-82608589D01*
X158887475Y-82365368D01*
X158680632Y-82158525D01*
X158437411Y-81996010D01*
X158167158Y-81884068D01*
X157880260Y-81827000D01*
X157587740Y-81827000D01*
X157300842Y-81884068D01*
X157030589Y-81996010D01*
X156787368Y-82158525D01*
X156655513Y-82290380D01*
X156633502Y-82217820D01*
X156574537Y-82107506D01*
X156495185Y-82010815D01*
X156398494Y-81931463D01*
X156288180Y-81872498D01*
X156168482Y-81836188D01*
X156044000Y-81823928D01*
X154344000Y-81823928D01*
X154219518Y-81836188D01*
X154099820Y-81872498D01*
X153989506Y-81931463D01*
X153892815Y-82010815D01*
X153813463Y-82107506D01*
X153754498Y-82217820D01*
X153718188Y-82337518D01*
X153705928Y-82462000D01*
X144987082Y-82462000D01*
X144964494Y-82443463D01*
X144854180Y-82384498D01*
X144734482Y-82348188D01*
X144610000Y-82335928D01*
X142410000Y-82335928D01*
X142285518Y-82348188D01*
X142165820Y-82384498D01*
X142055506Y-82443463D01*
X141958815Y-82522815D01*
X141879463Y-82619506D01*
X141820498Y-82729820D01*
X141784188Y-82849518D01*
X141771928Y-82974000D01*
X134682435Y-82974000D01*
X134617822Y-82889573D01*
X134362391Y-82664992D01*
X134068054Y-82494558D01*
X133746123Y-82384821D01*
X133477000Y-82502400D01*
X133223000Y-82502400D01*
X132953877Y-82384821D01*
X132631946Y-82494558D01*
X132337609Y-82664992D01*
X132082178Y-82889573D01*
X131875469Y-83159671D01*
X131819015Y-83274517D01*
X131791502Y-83183820D01*
X131732537Y-83073506D01*
X131653185Y-82976815D01*
X131556494Y-82897463D01*
X131446180Y-82838498D01*
X131427873Y-82832944D01*
X131494312Y-82766505D01*
X131662299Y-82515095D01*
X131778011Y-82235743D01*
X131837000Y-81939184D01*
X131837000Y-81636816D01*
X131778011Y-81340257D01*
X131662299Y-81060905D01*
X131494312Y-80809495D01*
X131280505Y-80595688D01*
X131164237Y-80518000D01*
X131280505Y-80440312D01*
X131494312Y-80226505D01*
X131662299Y-79975095D01*
X131778011Y-79695743D01*
X131779032Y-79690610D01*
X132175983Y-80087561D01*
X132169000Y-80122665D01*
X132169000Y-80405335D01*
X132224147Y-80682574D01*
X132332320Y-80943727D01*
X132489363Y-81178759D01*
X132689241Y-81378637D01*
X132924273Y-81535680D01*
X133185426Y-81643853D01*
X133462665Y-81699000D01*
X133745335Y-81699000D01*
X134022574Y-81643853D01*
X134283727Y-81535680D01*
X134518759Y-81378637D01*
X134718637Y-81178759D01*
X134875680Y-80943727D01*
X134983853Y-80682574D01*
X135039000Y-80405335D01*
X135039000Y-80122665D01*
X142329000Y-80122665D01*
X142329000Y-80405335D01*
X142384147Y-80682574D01*
X142492320Y-80943727D01*
X142649363Y-81178759D01*
X142849241Y-81378637D01*
X143084273Y-81535680D01*
X143345426Y-81643853D01*
X143622665Y-81699000D01*
X143905335Y-81699000D01*
X144182574Y-81643853D01*
X144443727Y-81535680D01*
X144678759Y-81378637D01*
X144878637Y-81178759D01*
X145035680Y-80943727D01*
X145143853Y-80682574D01*
X145199000Y-80405335D01*
X145199000Y-80122665D01*
X145148476Y-79868665D01*
X152470000Y-79868665D01*
X152470000Y-80151335D01*
X152525147Y-80428574D01*
X152633320Y-80689727D01*
X152790363Y-80924759D01*
X152990241Y-81124637D01*
X153225273Y-81281680D01*
X153486426Y-81389853D01*
X153763665Y-81445000D01*
X154046335Y-81445000D01*
X154323574Y-81389853D01*
X154584727Y-81281680D01*
X154819759Y-81124637D01*
X155019637Y-80924759D01*
X155176680Y-80689727D01*
X155284853Y-80428574D01*
X155340000Y-80151335D01*
X155340000Y-79868665D01*
X155284853Y-79591426D01*
X155176680Y-79330273D01*
X155019637Y-79095241D01*
X154819759Y-78895363D01*
X154584727Y-78738320D01*
X154323574Y-78630147D01*
X154046335Y-78575000D01*
X153763665Y-78575000D01*
X153486426Y-78630147D01*
X153225273Y-78738320D01*
X152990241Y-78895363D01*
X152790363Y-79095241D01*
X152633320Y-79330273D01*
X152525147Y-79591426D01*
X152470000Y-79868665D01*
X145148476Y-79868665D01*
X145143853Y-79845426D01*
X145035680Y-79584273D01*
X144878637Y-79349241D01*
X144678759Y-79149363D01*
X144443727Y-78992320D01*
X144182574Y-78884147D01*
X143905335Y-78829000D01*
X143622665Y-78829000D01*
X143345426Y-78884147D01*
X143084273Y-78992320D01*
X142849241Y-79149363D01*
X142649363Y-79349241D01*
X142492320Y-79584273D01*
X142384147Y-79845426D01*
X142329000Y-80122665D01*
X135039000Y-80122665D01*
X134983853Y-79845426D01*
X134875680Y-79584273D01*
X134718637Y-79349241D01*
X134518759Y-79149363D01*
X134283727Y-78992320D01*
X134022574Y-78884147D01*
X133745335Y-78829000D01*
X133462665Y-78829000D01*
X133427561Y-78835983D01*
X133238999Y-78647421D01*
X133238999Y-78348193D01*
X133254960Y-78353909D01*
X133477000Y-78232624D01*
X133477000Y-77089000D01*
X133731000Y-77089000D01*
X133731000Y-78232624D01*
X133953040Y-78353909D01*
X134217881Y-78259070D01*
X134459131Y-78114385D01*
X134667519Y-77925414D01*
X134835037Y-77699420D01*
X134955246Y-77445087D01*
X134995904Y-77311039D01*
X134873915Y-77089000D01*
X133731000Y-77089000D01*
X133477000Y-77089000D01*
X133457000Y-77089000D01*
X133457000Y-76835000D01*
X133477000Y-76835000D01*
X133477000Y-75691376D01*
X133731000Y-75691376D01*
X133731000Y-76835000D01*
X134873915Y-76835000D01*
X134881790Y-76820665D01*
X142329000Y-76820665D01*
X142329000Y-77103335D01*
X142384147Y-77380574D01*
X142492320Y-77641727D01*
X142649363Y-77876759D01*
X142849241Y-78076637D01*
X143084273Y-78233680D01*
X143345426Y-78341853D01*
X143622665Y-78397000D01*
X143905335Y-78397000D01*
X144182574Y-78341853D01*
X144443727Y-78233680D01*
X144678759Y-78076637D01*
X144878637Y-77876759D01*
X145035680Y-77641727D01*
X145143853Y-77380574D01*
X145199000Y-77103335D01*
X145199000Y-76820665D01*
X145143853Y-76543426D01*
X145035680Y-76282273D01*
X144878637Y-76047241D01*
X144678759Y-75847363D01*
X144443727Y-75690320D01*
X144182574Y-75582147D01*
X143905335Y-75527000D01*
X143622665Y-75527000D01*
X143345426Y-75582147D01*
X143084273Y-75690320D01*
X142849241Y-75847363D01*
X142649363Y-76047241D01*
X142492320Y-76282273D01*
X142384147Y-76543426D01*
X142329000Y-76820665D01*
X134881790Y-76820665D01*
X134995904Y-76612961D01*
X134955246Y-76478913D01*
X134835037Y-76224580D01*
X134667519Y-75998586D01*
X134459131Y-75809615D01*
X134217881Y-75664930D01*
X133953040Y-75570091D01*
X133731000Y-75691376D01*
X133477000Y-75691376D01*
X133254960Y-75570091D01*
X133238999Y-75575807D01*
X133238999Y-75276579D01*
X133427561Y-75088017D01*
X133462665Y-75095000D01*
X133745335Y-75095000D01*
X134022574Y-75039853D01*
X134283727Y-74931680D01*
X134518759Y-74774637D01*
X134718637Y-74574759D01*
X134875680Y-74339727D01*
X134983853Y-74078574D01*
X135039000Y-73801335D01*
X135039000Y-73518665D01*
X134983853Y-73241426D01*
X134875680Y-72980273D01*
X134718637Y-72745241D01*
X134518759Y-72545363D01*
X134283727Y-72388320D01*
X134022574Y-72280147D01*
X133745335Y-72225000D01*
X133462665Y-72225000D01*
X133185426Y-72280147D01*
X132924273Y-72388320D01*
X132689241Y-72545363D01*
X132489363Y-72745241D01*
X132332320Y-72980273D01*
X132224147Y-73241426D01*
X132169000Y-73518665D01*
X132169000Y-73801335D01*
X132175983Y-73836439D01*
X131758955Y-74253467D01*
X131725182Y-74281184D01*
X131688553Y-74325816D01*
X131672992Y-74295000D01*
X130429000Y-74295000D01*
X130429000Y-74315000D01*
X130175000Y-74315000D01*
X130175000Y-74295000D01*
X128931008Y-74295000D01*
X128810959Y-74532741D01*
X128910766Y-74816620D01*
X129064038Y-75075573D01*
X129264884Y-75299649D01*
X129444802Y-75434633D01*
X129323495Y-75515688D01*
X129109688Y-75729495D01*
X128941701Y-75980905D01*
X128825989Y-76260257D01*
X128767000Y-76556816D01*
X128767000Y-76859184D01*
X128825989Y-77155743D01*
X128941701Y-77435095D01*
X129109688Y-77686505D01*
X129323495Y-77900312D01*
X129439763Y-77978000D01*
X129323495Y-78055688D01*
X129109688Y-78269495D01*
X128941701Y-78520905D01*
X128825989Y-78800257D01*
X128767000Y-79096816D01*
X128767000Y-79399184D01*
X128825989Y-79695743D01*
X128941701Y-79975095D01*
X129109688Y-80226505D01*
X129323495Y-80440312D01*
X129439763Y-80518000D01*
X129323495Y-80595688D01*
X129109688Y-80809495D01*
X128941701Y-81060905D01*
X128825989Y-81340257D01*
X128767000Y-81636816D01*
X128767000Y-81939184D01*
X128825989Y-82235743D01*
X128941701Y-82515095D01*
X129109688Y-82766505D01*
X129176127Y-82832944D01*
X129157820Y-82838498D01*
X129047506Y-82897463D01*
X128950815Y-82976815D01*
X128871463Y-83073506D01*
X128812498Y-83183820D01*
X128776188Y-83303518D01*
X128763928Y-83428000D01*
X126713474Y-83428000D01*
X126757000Y-83209184D01*
X126757000Y-82906816D01*
X126698011Y-82610257D01*
X126582299Y-82330905D01*
X126414312Y-82079495D01*
X126200505Y-81865688D01*
X126084237Y-81788000D01*
X126200505Y-81710312D01*
X126414312Y-81496505D01*
X126582299Y-81245095D01*
X126698011Y-80965743D01*
X126757000Y-80669184D01*
X126757000Y-80366816D01*
X126735060Y-80256518D01*
X127167050Y-79824529D01*
X127200818Y-79796816D01*
X127311412Y-79662058D01*
X127393590Y-79508312D01*
X127444196Y-79341489D01*
X127457001Y-79211476D01*
X127457001Y-79211468D01*
X127461282Y-79167999D01*
X127457001Y-79124530D01*
X127457001Y-68646575D01*
X128908540Y-67195037D01*
X128941701Y-67275095D01*
X129109688Y-67526505D01*
X129323495Y-67740312D01*
X129439763Y-67818000D01*
X129323495Y-67895688D01*
X129109688Y-68109495D01*
X128941701Y-68360905D01*
X128825989Y-68640257D01*
X128767000Y-68936816D01*
X128767000Y-69239184D01*
X128825989Y-69535743D01*
X128941701Y-69815095D01*
X129109688Y-70066505D01*
X129323495Y-70280312D01*
X129439763Y-70358000D01*
X129323495Y-70435688D01*
X129109688Y-70649495D01*
X128941701Y-70900905D01*
X128825989Y-71180257D01*
X128767000Y-71476816D01*
X128767000Y-71779184D01*
X128825989Y-72075743D01*
X128941701Y-72355095D01*
X129109688Y-72606505D01*
X129323495Y-72820312D01*
X129444802Y-72901367D01*
X129264884Y-73036351D01*
X129064038Y-73260427D01*
X128910766Y-73519380D01*
X128810959Y-73803259D01*
X128931008Y-74041000D01*
X130175000Y-74041000D01*
X130175000Y-74021000D01*
X130429000Y-74021000D01*
X130429000Y-74041000D01*
X131672992Y-74041000D01*
X131793041Y-73803259D01*
X131693234Y-73519380D01*
X131539962Y-73260427D01*
X131339116Y-73036351D01*
X131159198Y-72901367D01*
X131280505Y-72820312D01*
X131494312Y-72606505D01*
X131662299Y-72355095D01*
X131778011Y-72075743D01*
X131837000Y-71779184D01*
X131837000Y-71476816D01*
X131778011Y-71180257D01*
X131662299Y-70900905D01*
X131494312Y-70649495D01*
X131280505Y-70435688D01*
X131164237Y-70358000D01*
X131280505Y-70280312D01*
X131494312Y-70066505D01*
X131662299Y-69815095D01*
X131778011Y-69535743D01*
X131800600Y-69422180D01*
X135109468Y-72731049D01*
X135137181Y-72764817D01*
X135170949Y-72792530D01*
X135170951Y-72792532D01*
X135199214Y-72815727D01*
X135271939Y-72875411D01*
X135425685Y-72957589D01*
X135592508Y-73008195D01*
X135722521Y-73021000D01*
X135722531Y-73021000D01*
X135765997Y-73025281D01*
X135809463Y-73021000D01*
X142475450Y-73021000D01*
X142384147Y-73241426D01*
X142329000Y-73518665D01*
X142329000Y-73801335D01*
X142384147Y-74078574D01*
X142492320Y-74339727D01*
X142649363Y-74574759D01*
X142849241Y-74774637D01*
X143084273Y-74931680D01*
X143345426Y-75039853D01*
X143622665Y-75095000D01*
X143905335Y-75095000D01*
X143940439Y-75088017D01*
X145707471Y-76855050D01*
X145735184Y-76888818D01*
X145768952Y-76916531D01*
X145768954Y-76916533D01*
X145869942Y-76999412D01*
X146023687Y-77081590D01*
X146170053Y-77125990D01*
X146190511Y-77132196D01*
X146320524Y-77145001D01*
X146320532Y-77145001D01*
X146364001Y-77149282D01*
X146407470Y-77145001D01*
X154461532Y-77145001D01*
X154505001Y-77149282D01*
X154548470Y-77145001D01*
X154548478Y-77145001D01*
X154678491Y-77132196D01*
X154845314Y-77081590D01*
X154999060Y-76999412D01*
X155133818Y-76888818D01*
X155161535Y-76855045D01*
X158892840Y-73123740D01*
X163515000Y-73123740D01*
X163515000Y-73416260D01*
X163572068Y-73703158D01*
X163684010Y-73973411D01*
X163846525Y-74216632D01*
X164053368Y-74423475D01*
X164227760Y-74540000D01*
X164053368Y-74656525D01*
X163846525Y-74863368D01*
X163684010Y-75106589D01*
X163572068Y-75376842D01*
X163515000Y-75663740D01*
X163515000Y-75956260D01*
X163572068Y-76243158D01*
X163684010Y-76513411D01*
X163846525Y-76756632D01*
X164053368Y-76963475D01*
X164296589Y-77125990D01*
X164566842Y-77237932D01*
X164853740Y-77295000D01*
X165146260Y-77295000D01*
X165433158Y-77237932D01*
X165703411Y-77125990D01*
X165946632Y-76963475D01*
X166153475Y-76756632D01*
X166315990Y-76513411D01*
X166427932Y-76243158D01*
X166485000Y-75956260D01*
X166485000Y-75663740D01*
X166427932Y-75376842D01*
X166315990Y-75106589D01*
X166153475Y-74863368D01*
X165946632Y-74656525D01*
X165772240Y-74540000D01*
X165946632Y-74423475D01*
X166153475Y-74216632D01*
X166315990Y-73973411D01*
X166427932Y-73703158D01*
X166485000Y-73416260D01*
X166485000Y-73123740D01*
X166427932Y-72836842D01*
X166315990Y-72566589D01*
X166153475Y-72323368D01*
X165946632Y-72116525D01*
X165764466Y-71994805D01*
X165881355Y-71925178D01*
X166097588Y-71730269D01*
X166271641Y-71496920D01*
X166396825Y-71234099D01*
X166441476Y-71086890D01*
X166320155Y-70857000D01*
X165127000Y-70857000D01*
X165127000Y-70877000D01*
X164873000Y-70877000D01*
X164873000Y-70857000D01*
X163679845Y-70857000D01*
X163558524Y-71086890D01*
X163603175Y-71234099D01*
X163728359Y-71496920D01*
X163902412Y-71730269D01*
X164118645Y-71925178D01*
X164235534Y-71994805D01*
X164053368Y-72116525D01*
X163846525Y-72323368D01*
X163684010Y-72566589D01*
X163572068Y-72836842D01*
X163515000Y-73123740D01*
X158892840Y-73123740D01*
X163514859Y-68501722D01*
X163511928Y-69040000D01*
X163524188Y-69164482D01*
X163560498Y-69284180D01*
X163619463Y-69394494D01*
X163698815Y-69491185D01*
X163795506Y-69570537D01*
X163905820Y-69629502D01*
X163986466Y-69653966D01*
X163902412Y-69729731D01*
X163728359Y-69963080D01*
X163603175Y-70225901D01*
X163558524Y-70373110D01*
X163679845Y-70603000D01*
X164873000Y-70603000D01*
X164873000Y-68317000D01*
X165127000Y-68317000D01*
X165127000Y-70603000D01*
X166320155Y-70603000D01*
X166441476Y-70373110D01*
X166396825Y-70225901D01*
X166271641Y-69963080D01*
X166097588Y-69729731D01*
X166013534Y-69653966D01*
X166094180Y-69629502D01*
X166204494Y-69570537D01*
X166301185Y-69491185D01*
X166380537Y-69394494D01*
X166439502Y-69284180D01*
X166475812Y-69164482D01*
X166488072Y-69040000D01*
X166485000Y-68475750D01*
X166326250Y-68317000D01*
X165127000Y-68317000D01*
X164873000Y-68317000D01*
X164853000Y-68317000D01*
X164853000Y-68063000D01*
X164873000Y-68063000D01*
X164873000Y-68043000D01*
X165127000Y-68043000D01*
X165127000Y-68063000D01*
X166326250Y-68063000D01*
X166485000Y-67904250D01*
X166488072Y-67340000D01*
X166475812Y-67215518D01*
X166439502Y-67095820D01*
X166380537Y-66985506D01*
X166301185Y-66888815D01*
X166204494Y-66809463D01*
X166094180Y-66750498D01*
X165974482Y-66714188D01*
X165850000Y-66701928D01*
X165300340Y-66704921D01*
X165331411Y-66667061D01*
X165353525Y-66625688D01*
X165413589Y-66513315D01*
X165464195Y-66346492D01*
X165477000Y-66216479D01*
X165477000Y-66216471D01*
X165481281Y-66173002D01*
X165477000Y-66129533D01*
X165477000Y-64500790D01*
X165570505Y-64438312D01*
X165784312Y-64224505D01*
X165952299Y-63973095D01*
X166068011Y-63693743D01*
X166127000Y-63397184D01*
X166127000Y-63094816D01*
X166068011Y-62798257D01*
X165952299Y-62518905D01*
X165784312Y-62267495D01*
X165717873Y-62201056D01*
X165736180Y-62195502D01*
X165846494Y-62136537D01*
X165943185Y-62057185D01*
X166022537Y-61960494D01*
X166081502Y-61850180D01*
X166117812Y-61730482D01*
X166130072Y-61606000D01*
X166127000Y-60991750D01*
X165968250Y-60833000D01*
X164719000Y-60833000D01*
X164719000Y-60853000D01*
X164465000Y-60853000D01*
X164465000Y-60833000D01*
X163215750Y-60833000D01*
X163057000Y-60991750D01*
X163053928Y-61606000D01*
X163066188Y-61730482D01*
X163102498Y-61850180D01*
X163161463Y-61960494D01*
X163240815Y-62057185D01*
X163337506Y-62136537D01*
X163447820Y-62195502D01*
X163466127Y-62201056D01*
X163399688Y-62267495D01*
X163231701Y-62518905D01*
X163115989Y-62798257D01*
X163057000Y-63094816D01*
X163057000Y-63397184D01*
X163115989Y-63693743D01*
X163231701Y-63973095D01*
X163399688Y-64224505D01*
X163613495Y-64438312D01*
X163707001Y-64500791D01*
X163707000Y-65806423D01*
X155177641Y-74335782D01*
X155141671Y-74268486D01*
X154897702Y-74196903D01*
X154084605Y-75010000D01*
X154098748Y-75024143D01*
X153919143Y-75203748D01*
X153905000Y-75189605D01*
X153890858Y-75203748D01*
X153711253Y-75024143D01*
X153725395Y-75010000D01*
X152912298Y-74196903D01*
X152668329Y-74268486D01*
X152547429Y-74523996D01*
X152478700Y-74798184D01*
X152464783Y-75080512D01*
X152506213Y-75360130D01*
X152511531Y-75375001D01*
X146730580Y-75375001D01*
X145192017Y-73836439D01*
X145199000Y-73801335D01*
X145199000Y-73518665D01*
X145143853Y-73241426D01*
X145052550Y-73021000D01*
X152770479Y-73021000D01*
X152790363Y-73050759D01*
X152990241Y-73250637D01*
X153225273Y-73407680D01*
X153486426Y-73515853D01*
X153763665Y-73571000D01*
X153826274Y-73571000D01*
X153554870Y-73611213D01*
X153288708Y-73706397D01*
X153163486Y-73773329D01*
X153091903Y-74017298D01*
X153905000Y-74830395D01*
X154718097Y-74017298D01*
X154646514Y-73773329D01*
X154391004Y-73652429D01*
X154116816Y-73583700D01*
X153859177Y-73571000D01*
X154046335Y-73571000D01*
X154323574Y-73515853D01*
X154584727Y-73407680D01*
X154819759Y-73250637D01*
X155019637Y-73050759D01*
X155176680Y-72815727D01*
X155284853Y-72554574D01*
X155340000Y-72277335D01*
X155340000Y-71994665D01*
X155284853Y-71717426D01*
X155176680Y-71456273D01*
X155019637Y-71221241D01*
X154819759Y-71021363D01*
X154584727Y-70864320D01*
X154323574Y-70756147D01*
X154046335Y-70701000D01*
X153763665Y-70701000D01*
X153486426Y-70756147D01*
X153225273Y-70864320D01*
X152990241Y-71021363D01*
X152790363Y-71221241D01*
X152770479Y-71251000D01*
X136132577Y-71251000D01*
X135661649Y-70780072D01*
X136182000Y-70780072D01*
X136306482Y-70767812D01*
X136426180Y-70731502D01*
X136536494Y-70672537D01*
X136633185Y-70593185D01*
X136712537Y-70496494D01*
X136771502Y-70386180D01*
X136807812Y-70266482D01*
X136820072Y-70142000D01*
X136820072Y-69962435D01*
X147253871Y-69962435D01*
X147358644Y-70265344D01*
X147520499Y-70541992D01*
X147733215Y-70781748D01*
X147988618Y-70975399D01*
X148276893Y-71115502D01*
X148463566Y-71172124D01*
X148717000Y-71052777D01*
X148717000Y-69709000D01*
X148971000Y-69709000D01*
X148971000Y-71052777D01*
X149224434Y-71172124D01*
X149411107Y-71115502D01*
X149699382Y-70975399D01*
X149954785Y-70781748D01*
X150167501Y-70541992D01*
X150329356Y-70265344D01*
X150434129Y-69962435D01*
X150315315Y-69709000D01*
X148971000Y-69709000D01*
X148717000Y-69709000D01*
X147372685Y-69709000D01*
X147253871Y-69962435D01*
X136820072Y-69962435D01*
X136820072Y-69201565D01*
X147253871Y-69201565D01*
X147372685Y-69455000D01*
X148717000Y-69455000D01*
X148717000Y-68111223D01*
X148971000Y-68111223D01*
X148971000Y-69455000D01*
X150315315Y-69455000D01*
X150434129Y-69201565D01*
X150329356Y-68898656D01*
X150167501Y-68622008D01*
X149954785Y-68382252D01*
X149699382Y-68188601D01*
X149411107Y-68048498D01*
X149224434Y-67991876D01*
X148971000Y-68111223D01*
X148717000Y-68111223D01*
X148463566Y-67991876D01*
X148276893Y-68048498D01*
X147988618Y-68188601D01*
X147733215Y-68382252D01*
X147520499Y-68622008D01*
X147358644Y-68898656D01*
X147253871Y-69201565D01*
X136820072Y-69201565D01*
X136820072Y-68542000D01*
X136807812Y-68417518D01*
X136771502Y-68297820D01*
X136712537Y-68187506D01*
X136633185Y-68090815D01*
X136536494Y-68011463D01*
X136426180Y-67952498D01*
X136306482Y-67916188D01*
X136182000Y-67903928D01*
X136174785Y-67903928D01*
X136195097Y-67834702D01*
X135382000Y-67021605D01*
X134568903Y-67834702D01*
X134589215Y-67903928D01*
X134582000Y-67903928D01*
X134457518Y-67916188D01*
X134337820Y-67952498D01*
X134227506Y-68011463D01*
X134130815Y-68090815D01*
X134051463Y-68187506D01*
X133992498Y-68297820D01*
X133956188Y-68417518D01*
X133943928Y-68542000D01*
X133943928Y-69062352D01*
X132537001Y-67655425D01*
X132537001Y-66912512D01*
X133941783Y-66912512D01*
X133983213Y-67192130D01*
X134078397Y-67458292D01*
X134145329Y-67583514D01*
X134389298Y-67655097D01*
X135202395Y-66842000D01*
X135561605Y-66842000D01*
X136374702Y-67655097D01*
X136618671Y-67583514D01*
X136739571Y-67328004D01*
X136808300Y-67053816D01*
X136811215Y-66994665D01*
X152470000Y-66994665D01*
X152470000Y-67277335D01*
X152525147Y-67554574D01*
X152633320Y-67815727D01*
X152790363Y-68050759D01*
X152990241Y-68250637D01*
X153225273Y-68407680D01*
X153486426Y-68515853D01*
X153763665Y-68571000D01*
X154046335Y-68571000D01*
X154323574Y-68515853D01*
X154584727Y-68407680D01*
X154819759Y-68250637D01*
X155019637Y-68050759D01*
X155176680Y-67815727D01*
X155284853Y-67554574D01*
X155340000Y-67277335D01*
X155340000Y-66994665D01*
X155284853Y-66717426D01*
X155176680Y-66456273D01*
X155019637Y-66221241D01*
X154819759Y-66021363D01*
X154584727Y-65864320D01*
X154323574Y-65756147D01*
X154046335Y-65701000D01*
X153763665Y-65701000D01*
X153486426Y-65756147D01*
X153225273Y-65864320D01*
X152990241Y-66021363D01*
X152790363Y-66221241D01*
X152633320Y-66456273D01*
X152525147Y-66717426D01*
X152470000Y-66994665D01*
X136811215Y-66994665D01*
X136822217Y-66771488D01*
X136780787Y-66491870D01*
X136685603Y-66225708D01*
X136618671Y-66100486D01*
X136374702Y-66028903D01*
X135561605Y-66842000D01*
X135202395Y-66842000D01*
X134389298Y-66028903D01*
X134145329Y-66100486D01*
X134024429Y-66355996D01*
X133955700Y-66630184D01*
X133941783Y-66912512D01*
X132537001Y-66912512D01*
X132537001Y-65943468D01*
X132541282Y-65899999D01*
X132537001Y-65856530D01*
X132537001Y-65856522D01*
X132536290Y-65849298D01*
X134568903Y-65849298D01*
X135382000Y-66662395D01*
X136195097Y-65849298D01*
X136123514Y-65605329D01*
X135868004Y-65484429D01*
X135593816Y-65415700D01*
X135311488Y-65401783D01*
X135031870Y-65443213D01*
X134765708Y-65538397D01*
X134640486Y-65605329D01*
X134568903Y-65849298D01*
X132536290Y-65849298D01*
X132524196Y-65726509D01*
X132473590Y-65559686D01*
X132391412Y-65405940D01*
X132388000Y-65401783D01*
X132308533Y-65304952D01*
X132308531Y-65304950D01*
X132280818Y-65271182D01*
X132247050Y-65243469D01*
X131606535Y-64602955D01*
X131578818Y-64569182D01*
X131444060Y-64458588D01*
X131290314Y-64376410D01*
X131123491Y-64325804D01*
X130993478Y-64312999D01*
X130993470Y-64312999D01*
X130950001Y-64308718D01*
X130906532Y-64312999D01*
X129697464Y-64312999D01*
X129653998Y-64308718D01*
X129610532Y-64312999D01*
X129610522Y-64312999D01*
X129480509Y-64325804D01*
X129313686Y-64376410D01*
X129159940Y-64458588D01*
X129159938Y-64458589D01*
X129159939Y-64458589D01*
X129058952Y-64541467D01*
X129058950Y-64541469D01*
X129025182Y-64569182D01*
X128997469Y-64602950D01*
X126553146Y-67047274D01*
X126414312Y-66839495D01*
X126200505Y-66625688D01*
X125949095Y-66457701D01*
X125669743Y-66341989D01*
X125373184Y-66283000D01*
X125070816Y-66283000D01*
X124774257Y-66341989D01*
X124494905Y-66457701D01*
X124243495Y-66625688D01*
X124029688Y-66839495D01*
X123861701Y-67090905D01*
X123745989Y-67370257D01*
X123687000Y-67666816D01*
X117785000Y-67666816D01*
X117785000Y-62826000D01*
X143545928Y-62826000D01*
X143558188Y-62950482D01*
X143594498Y-63070180D01*
X143653463Y-63180494D01*
X143732815Y-63277185D01*
X143829506Y-63356537D01*
X143939820Y-63415502D01*
X144059518Y-63451812D01*
X144184000Y-63464072D01*
X144748250Y-63461000D01*
X144907000Y-63302250D01*
X144907000Y-62103000D01*
X143707750Y-62103000D01*
X143549000Y-62261750D01*
X143545928Y-62826000D01*
X117785000Y-62826000D01*
X117785000Y-62034958D01*
X117854686Y-61254143D01*
X117889741Y-61126000D01*
X143545928Y-61126000D01*
X143549000Y-61690250D01*
X143707750Y-61849000D01*
X144907000Y-61849000D01*
X144907000Y-60649750D01*
X145161000Y-60649750D01*
X145161000Y-61849000D01*
X145181000Y-61849000D01*
X145181000Y-62103000D01*
X145161000Y-62103000D01*
X145161000Y-63302250D01*
X145319750Y-63461000D01*
X145884000Y-63464072D01*
X146008482Y-63451812D01*
X146128180Y-63415502D01*
X146238494Y-63356537D01*
X146335185Y-63277185D01*
X146414537Y-63180494D01*
X146473502Y-63070180D01*
X146495513Y-62997620D01*
X146627368Y-63129475D01*
X146870589Y-63291990D01*
X147140842Y-63403932D01*
X147427740Y-63461000D01*
X147720260Y-63461000D01*
X148007158Y-63403932D01*
X148277411Y-63291990D01*
X148520632Y-63129475D01*
X148727475Y-62922632D01*
X148844000Y-62748240D01*
X148960525Y-62922632D01*
X149167368Y-63129475D01*
X149410589Y-63291990D01*
X149680842Y-63403932D01*
X149967740Y-63461000D01*
X150260260Y-63461000D01*
X150547158Y-63403932D01*
X150817411Y-63291990D01*
X151060632Y-63129475D01*
X151267475Y-62922632D01*
X151429990Y-62679411D01*
X151541932Y-62409158D01*
X151599000Y-62122260D01*
X151599000Y-61853740D01*
X153709000Y-61853740D01*
X153709000Y-62146260D01*
X153766068Y-62433158D01*
X153878010Y-62703411D01*
X154040525Y-62946632D01*
X154247368Y-63153475D01*
X154490589Y-63315990D01*
X154760842Y-63427932D01*
X155047740Y-63485000D01*
X155340260Y-63485000D01*
X155627158Y-63427932D01*
X155897411Y-63315990D01*
X156140632Y-63153475D01*
X156272487Y-63021620D01*
X156294498Y-63094180D01*
X156353463Y-63204494D01*
X156432815Y-63301185D01*
X156529506Y-63380537D01*
X156639820Y-63439502D01*
X156759518Y-63475812D01*
X156884000Y-63488072D01*
X158584000Y-63488072D01*
X158708482Y-63475812D01*
X158828180Y-63439502D01*
X158938494Y-63380537D01*
X159035185Y-63301185D01*
X159114537Y-63204494D01*
X159173502Y-63094180D01*
X159209812Y-62974482D01*
X159222072Y-62850000D01*
X159222072Y-61150000D01*
X159209812Y-61025518D01*
X159173502Y-60905820D01*
X159114537Y-60795506D01*
X159035185Y-60698815D01*
X158938494Y-60619463D01*
X158828180Y-60560498D01*
X158708482Y-60524188D01*
X158584000Y-60511928D01*
X156884000Y-60511928D01*
X156759518Y-60524188D01*
X156639820Y-60560498D01*
X156529506Y-60619463D01*
X156432815Y-60698815D01*
X156353463Y-60795506D01*
X156294498Y-60905820D01*
X156272487Y-60978380D01*
X156140632Y-60846525D01*
X155897411Y-60684010D01*
X155627158Y-60572068D01*
X155340260Y-60515000D01*
X155047740Y-60515000D01*
X154760842Y-60572068D01*
X154490589Y-60684010D01*
X154247368Y-60846525D01*
X154040525Y-61053368D01*
X153878010Y-61296589D01*
X153766068Y-61566842D01*
X153709000Y-61853740D01*
X151599000Y-61853740D01*
X151599000Y-61829740D01*
X151541932Y-61542842D01*
X151429990Y-61272589D01*
X151267475Y-61029368D01*
X151060632Y-60822525D01*
X150817411Y-60660010D01*
X150547158Y-60548068D01*
X150260260Y-60491000D01*
X149967740Y-60491000D01*
X149680842Y-60548068D01*
X149410589Y-60660010D01*
X149167368Y-60822525D01*
X148960525Y-61029368D01*
X148844000Y-61203760D01*
X148727475Y-61029368D01*
X148520632Y-60822525D01*
X148277411Y-60660010D01*
X148007158Y-60548068D01*
X147720260Y-60491000D01*
X147427740Y-60491000D01*
X147140842Y-60548068D01*
X146870589Y-60660010D01*
X146627368Y-60822525D01*
X146495513Y-60954380D01*
X146473502Y-60881820D01*
X146414537Y-60771506D01*
X146335185Y-60674815D01*
X146238494Y-60595463D01*
X146128180Y-60536498D01*
X146008482Y-60500188D01*
X145884000Y-60487928D01*
X145319750Y-60491000D01*
X145161000Y-60649750D01*
X144907000Y-60649750D01*
X144748250Y-60491000D01*
X144184000Y-60487928D01*
X144059518Y-60500188D01*
X143939820Y-60536498D01*
X143829506Y-60595463D01*
X143732815Y-60674815D01*
X143653463Y-60771506D01*
X143594498Y-60881820D01*
X143558188Y-61001518D01*
X143545928Y-61126000D01*
X117889741Y-61126000D01*
X118052281Y-60531856D01*
X118374656Y-59855983D01*
X118410572Y-59806000D01*
X163053928Y-59806000D01*
X163057000Y-60420250D01*
X163215750Y-60579000D01*
X164465000Y-60579000D01*
X164465000Y-59329750D01*
X164719000Y-59329750D01*
X164719000Y-60579000D01*
X165968250Y-60579000D01*
X166127000Y-60420250D01*
X166130072Y-59806000D01*
X166117812Y-59681518D01*
X166081502Y-59561820D01*
X166022537Y-59451506D01*
X165943185Y-59354815D01*
X165846494Y-59275463D01*
X165736180Y-59216498D01*
X165616482Y-59180188D01*
X165492000Y-59167928D01*
X164877750Y-59171000D01*
X164719000Y-59329750D01*
X164465000Y-59329750D01*
X164306250Y-59171000D01*
X163692000Y-59167928D01*
X163567518Y-59180188D01*
X163447820Y-59216498D01*
X163337506Y-59275463D01*
X163240815Y-59354815D01*
X163161463Y-59451506D01*
X163102498Y-59561820D01*
X163066188Y-59681518D01*
X163053928Y-59806000D01*
X118410572Y-59806000D01*
X118811626Y-59247873D01*
X119349380Y-58726753D01*
X119970909Y-58309103D01*
X120656583Y-58008113D01*
X121390752Y-57831854D01*
X122028786Y-57785000D01*
X164965042Y-57785000D01*
X165745857Y-57854686D01*
G04 #@! TA.AperFunction,Conductor*
D24*
G36*
X165745857Y-57854686D02*
G01*
X166468144Y-58052281D01*
X167144017Y-58374656D01*
X167752127Y-58811626D01*
X168273247Y-59349380D01*
X168690897Y-59970909D01*
X168991887Y-60656583D01*
X169168146Y-61390752D01*
X169215000Y-62028786D01*
X169215001Y-81965031D01*
X169145314Y-82745857D01*
X168947718Y-83468148D01*
X168625345Y-84144017D01*
X168188371Y-84752130D01*
X167650620Y-85273247D01*
X167029091Y-85690897D01*
X166343414Y-85991888D01*
X165609248Y-86168146D01*
X164971214Y-86215000D01*
X149895499Y-86215000D01*
X149968482Y-86207812D01*
X150088180Y-86171502D01*
X150198494Y-86112537D01*
X150295185Y-86033185D01*
X150374537Y-85936494D01*
X150433502Y-85826180D01*
X150469812Y-85706482D01*
X150482072Y-85582000D01*
X150482072Y-83582000D01*
X150469812Y-83457518D01*
X150433502Y-83337820D01*
X150374537Y-83227506D01*
X150295185Y-83130815D01*
X150198494Y-83051463D01*
X150088180Y-82992498D01*
X149968482Y-82956188D01*
X149844000Y-82943928D01*
X147844000Y-82943928D01*
X147719518Y-82956188D01*
X147599820Y-82992498D01*
X147489506Y-83051463D01*
X147392815Y-83130815D01*
X147313463Y-83227506D01*
X147254498Y-83337820D01*
X147218188Y-83457518D01*
X147205928Y-83582000D01*
X147205928Y-85582000D01*
X147218188Y-85706482D01*
X147254498Y-85826180D01*
X147313463Y-85936494D01*
X147392815Y-86033185D01*
X147489506Y-86112537D01*
X147599820Y-86171502D01*
X147719518Y-86207812D01*
X147792501Y-86215000D01*
X122034958Y-86215000D01*
X121254143Y-86145314D01*
X120531852Y-85947718D01*
X119855983Y-85625345D01*
X119247870Y-85188371D01*
X118726753Y-84650620D01*
X118309103Y-84029091D01*
X118008112Y-83343414D01*
X117831854Y-82609248D01*
X117785000Y-81971214D01*
X117785000Y-67666816D01*
X123687000Y-67666816D01*
X123687000Y-67969184D01*
X123745989Y-68265743D01*
X123861701Y-68545095D01*
X124029688Y-68796505D01*
X124243495Y-69010312D01*
X124359763Y-69088000D01*
X124243495Y-69165688D01*
X124029688Y-69379495D01*
X123861701Y-69630905D01*
X123745989Y-69910257D01*
X123687000Y-70206816D01*
X123687000Y-70509184D01*
X123745989Y-70805743D01*
X123861701Y-71085095D01*
X124029688Y-71336505D01*
X124243495Y-71550312D01*
X124359763Y-71628000D01*
X124243495Y-71705688D01*
X124029688Y-71919495D01*
X123861701Y-72170905D01*
X123745989Y-72450257D01*
X123687000Y-72746816D01*
X123687000Y-73049184D01*
X123745989Y-73345743D01*
X123861701Y-73625095D01*
X124029688Y-73876505D01*
X124243495Y-74090312D01*
X124364802Y-74171367D01*
X124184884Y-74306351D01*
X123984038Y-74530427D01*
X123830766Y-74789380D01*
X123730959Y-75073259D01*
X123851008Y-75311000D01*
X125095000Y-75311000D01*
X125095000Y-75291000D01*
X125349000Y-75291000D01*
X125349000Y-75311000D01*
X125369000Y-75311000D01*
X125369000Y-75565000D01*
X125349000Y-75565000D01*
X125349000Y-75585000D01*
X125095000Y-75585000D01*
X125095000Y-75565000D01*
X123851008Y-75565000D01*
X123730959Y-75802741D01*
X123830766Y-76086620D01*
X123984038Y-76345573D01*
X124184884Y-76569649D01*
X124364802Y-76704633D01*
X124243495Y-76785688D01*
X124029688Y-76999495D01*
X123861701Y-77250905D01*
X123745989Y-77530257D01*
X123687000Y-77826816D01*
X123687000Y-78129184D01*
X123745989Y-78425743D01*
X123861701Y-78705095D01*
X124029688Y-78956505D01*
X124243495Y-79170312D01*
X124359763Y-79248000D01*
X124243495Y-79325688D01*
X124029688Y-79539495D01*
X123861701Y-79790905D01*
X123745989Y-80070257D01*
X123687000Y-80366816D01*
X123687000Y-80669184D01*
X123745989Y-80965743D01*
X123861701Y-81245095D01*
X124029688Y-81496505D01*
X124243495Y-81710312D01*
X124359763Y-81788000D01*
X124243495Y-81865688D01*
X124029688Y-82079495D01*
X123861701Y-82330905D01*
X123745989Y-82610257D01*
X123687000Y-82906816D01*
X123687000Y-83209184D01*
X123745989Y-83505743D01*
X123861701Y-83785095D01*
X124029688Y-84036505D01*
X124243495Y-84250312D01*
X124494905Y-84418299D01*
X124774257Y-84534011D01*
X125070816Y-84593000D01*
X125373184Y-84593000D01*
X125669743Y-84534011D01*
X125949095Y-84418299D01*
X126200505Y-84250312D01*
X126414312Y-84036505D01*
X126582299Y-83785095D01*
X126698011Y-83505743D01*
X126713474Y-83428000D01*
X128763928Y-83428000D01*
X128763928Y-85228000D01*
X128776188Y-85352482D01*
X128812498Y-85472180D01*
X128871463Y-85582494D01*
X128950815Y-85679185D01*
X129047506Y-85758537D01*
X129157820Y-85817502D01*
X129277518Y-85853812D01*
X129402000Y-85866072D01*
X131202000Y-85866072D01*
X131326482Y-85853812D01*
X131446180Y-85817502D01*
X131556494Y-85758537D01*
X131653185Y-85679185D01*
X131732537Y-85582494D01*
X131791502Y-85472180D01*
X131827812Y-85352482D01*
X131840072Y-85228000D01*
X131840072Y-84916321D01*
X131875469Y-84988329D01*
X132082178Y-85258427D01*
X132337609Y-85483008D01*
X132631946Y-85653442D01*
X132953877Y-85763179D01*
X133223000Y-85645600D01*
X133223000Y-84201000D01*
X133477000Y-84201000D01*
X133477000Y-85645600D01*
X133746123Y-85763179D01*
X134068054Y-85653442D01*
X134362391Y-85483008D01*
X134617822Y-85258427D01*
X134824531Y-84988329D01*
X134974575Y-84683094D01*
X135039175Y-84470122D01*
X134921125Y-84201000D01*
X133477000Y-84201000D01*
X133223000Y-84201000D01*
X133203000Y-84201000D01*
X133203000Y-83947000D01*
X133223000Y-83947000D01*
X133223000Y-82502400D01*
X133477000Y-82502400D01*
X133477000Y-83947000D01*
X134921125Y-83947000D01*
X135039175Y-83677878D01*
X134974575Y-83464906D01*
X134824531Y-83159671D01*
X134682435Y-82974000D01*
X141771928Y-82974000D01*
X141771928Y-85174000D01*
X141784188Y-85298482D01*
X141820498Y-85418180D01*
X141879463Y-85528494D01*
X141958815Y-85625185D01*
X142055506Y-85704537D01*
X142165820Y-85763502D01*
X142285518Y-85799812D01*
X142410000Y-85812072D01*
X144610000Y-85812072D01*
X144734482Y-85799812D01*
X144854180Y-85763502D01*
X144964494Y-85704537D01*
X145061185Y-85625185D01*
X145140537Y-85528494D01*
X145199502Y-85418180D01*
X145235812Y-85298482D01*
X145248072Y-85174000D01*
X145248072Y-82974000D01*
X145235812Y-82849518D01*
X145199502Y-82729820D01*
X145140537Y-82619506D01*
X145061185Y-82522815D01*
X144987082Y-82462000D01*
X153705928Y-82462000D01*
X153705928Y-84162000D01*
X153718188Y-84286482D01*
X153754498Y-84406180D01*
X153813463Y-84516494D01*
X153892815Y-84613185D01*
X153989506Y-84692537D01*
X154099820Y-84751502D01*
X154219518Y-84787812D01*
X154344000Y-84800072D01*
X156044000Y-84800072D01*
X156168482Y-84787812D01*
X156288180Y-84751502D01*
X156398494Y-84692537D01*
X156495185Y-84613185D01*
X156574537Y-84516494D01*
X156633502Y-84406180D01*
X156655513Y-84333620D01*
X156787368Y-84465475D01*
X157030589Y-84627990D01*
X157300842Y-84739932D01*
X157587740Y-84797000D01*
X157880260Y-84797000D01*
X158167158Y-84739932D01*
X158437411Y-84627990D01*
X158680632Y-84465475D01*
X158887475Y-84258632D01*
X159049990Y-84015411D01*
X159161932Y-83745158D01*
X159219000Y-83458260D01*
X159219000Y-83165740D01*
X159161932Y-82878842D01*
X159049990Y-82608589D01*
X158887475Y-82365368D01*
X158680632Y-82158525D01*
X158437411Y-81996010D01*
X158167158Y-81884068D01*
X157880260Y-81827000D01*
X157587740Y-81827000D01*
X157300842Y-81884068D01*
X157030589Y-81996010D01*
X156787368Y-82158525D01*
X156655513Y-82290380D01*
X156633502Y-82217820D01*
X156574537Y-82107506D01*
X156495185Y-82010815D01*
X156398494Y-81931463D01*
X156288180Y-81872498D01*
X156168482Y-81836188D01*
X156044000Y-81823928D01*
X154344000Y-81823928D01*
X154219518Y-81836188D01*
X154099820Y-81872498D01*
X153989506Y-81931463D01*
X153892815Y-82010815D01*
X153813463Y-82107506D01*
X153754498Y-82217820D01*
X153718188Y-82337518D01*
X153705928Y-82462000D01*
X144987082Y-82462000D01*
X144964494Y-82443463D01*
X144854180Y-82384498D01*
X144734482Y-82348188D01*
X144610000Y-82335928D01*
X142410000Y-82335928D01*
X142285518Y-82348188D01*
X142165820Y-82384498D01*
X142055506Y-82443463D01*
X141958815Y-82522815D01*
X141879463Y-82619506D01*
X141820498Y-82729820D01*
X141784188Y-82849518D01*
X141771928Y-82974000D01*
X134682435Y-82974000D01*
X134617822Y-82889573D01*
X134362391Y-82664992D01*
X134068054Y-82494558D01*
X133746123Y-82384821D01*
X133477000Y-82502400D01*
X133223000Y-82502400D01*
X132953877Y-82384821D01*
X132631946Y-82494558D01*
X132337609Y-82664992D01*
X132082178Y-82889573D01*
X131875469Y-83159671D01*
X131819015Y-83274517D01*
X131791502Y-83183820D01*
X131732537Y-83073506D01*
X131653185Y-82976815D01*
X131556494Y-82897463D01*
X131446180Y-82838498D01*
X131427873Y-82832944D01*
X131494312Y-82766505D01*
X131662299Y-82515095D01*
X131778011Y-82235743D01*
X131837000Y-81939184D01*
X131837000Y-81636816D01*
X131778011Y-81340257D01*
X131662299Y-81060905D01*
X131494312Y-80809495D01*
X131280505Y-80595688D01*
X131164237Y-80518000D01*
X131280505Y-80440312D01*
X131494312Y-80226505D01*
X131662299Y-79975095D01*
X131778011Y-79695743D01*
X131779032Y-79690610D01*
X132175983Y-80087561D01*
X132169000Y-80122665D01*
X132169000Y-80405335D01*
X132224147Y-80682574D01*
X132332320Y-80943727D01*
X132489363Y-81178759D01*
X132689241Y-81378637D01*
X132924273Y-81535680D01*
X133185426Y-81643853D01*
X133462665Y-81699000D01*
X133745335Y-81699000D01*
X134022574Y-81643853D01*
X134283727Y-81535680D01*
X134518759Y-81378637D01*
X134718637Y-81178759D01*
X134875680Y-80943727D01*
X134983853Y-80682574D01*
X135039000Y-80405335D01*
X135039000Y-80122665D01*
X142329000Y-80122665D01*
X142329000Y-80405335D01*
X142384147Y-80682574D01*
X142492320Y-80943727D01*
X142649363Y-81178759D01*
X142849241Y-81378637D01*
X143084273Y-81535680D01*
X143345426Y-81643853D01*
X143622665Y-81699000D01*
X143905335Y-81699000D01*
X144182574Y-81643853D01*
X144443727Y-81535680D01*
X144678759Y-81378637D01*
X144878637Y-81178759D01*
X145035680Y-80943727D01*
X145143853Y-80682574D01*
X145199000Y-80405335D01*
X145199000Y-80122665D01*
X145148476Y-79868665D01*
X152470000Y-79868665D01*
X152470000Y-80151335D01*
X152525147Y-80428574D01*
X152633320Y-80689727D01*
X152790363Y-80924759D01*
X152990241Y-81124637D01*
X153225273Y-81281680D01*
X153486426Y-81389853D01*
X153763665Y-81445000D01*
X154046335Y-81445000D01*
X154323574Y-81389853D01*
X154584727Y-81281680D01*
X154819759Y-81124637D01*
X155019637Y-80924759D01*
X155176680Y-80689727D01*
X155284853Y-80428574D01*
X155340000Y-80151335D01*
X155340000Y-79868665D01*
X155284853Y-79591426D01*
X155176680Y-79330273D01*
X155019637Y-79095241D01*
X154819759Y-78895363D01*
X154584727Y-78738320D01*
X154323574Y-78630147D01*
X154046335Y-78575000D01*
X153763665Y-78575000D01*
X153486426Y-78630147D01*
X153225273Y-78738320D01*
X152990241Y-78895363D01*
X152790363Y-79095241D01*
X152633320Y-79330273D01*
X152525147Y-79591426D01*
X152470000Y-79868665D01*
X145148476Y-79868665D01*
X145143853Y-79845426D01*
X145035680Y-79584273D01*
X144878637Y-79349241D01*
X144678759Y-79149363D01*
X144443727Y-78992320D01*
X144182574Y-78884147D01*
X143905335Y-78829000D01*
X143622665Y-78829000D01*
X143345426Y-78884147D01*
X143084273Y-78992320D01*
X142849241Y-79149363D01*
X142649363Y-79349241D01*
X142492320Y-79584273D01*
X142384147Y-79845426D01*
X142329000Y-80122665D01*
X135039000Y-80122665D01*
X134983853Y-79845426D01*
X134875680Y-79584273D01*
X134718637Y-79349241D01*
X134518759Y-79149363D01*
X134283727Y-78992320D01*
X134022574Y-78884147D01*
X133745335Y-78829000D01*
X133462665Y-78829000D01*
X133427561Y-78835983D01*
X133238999Y-78647421D01*
X133238999Y-78348193D01*
X133254960Y-78353909D01*
X133477000Y-78232624D01*
X133477000Y-77089000D01*
X133731000Y-77089000D01*
X133731000Y-78232624D01*
X133953040Y-78353909D01*
X134217881Y-78259070D01*
X134459131Y-78114385D01*
X134667519Y-77925414D01*
X134835037Y-77699420D01*
X134955246Y-77445087D01*
X134995904Y-77311039D01*
X134873915Y-77089000D01*
X133731000Y-77089000D01*
X133477000Y-77089000D01*
X133457000Y-77089000D01*
X133457000Y-76835000D01*
X133477000Y-76835000D01*
X133477000Y-75691376D01*
X133731000Y-75691376D01*
X133731000Y-76835000D01*
X134873915Y-76835000D01*
X134881790Y-76820665D01*
X142329000Y-76820665D01*
X142329000Y-77103335D01*
X142384147Y-77380574D01*
X142492320Y-77641727D01*
X142649363Y-77876759D01*
X142849241Y-78076637D01*
X143084273Y-78233680D01*
X143345426Y-78341853D01*
X143622665Y-78397000D01*
X143905335Y-78397000D01*
X144182574Y-78341853D01*
X144443727Y-78233680D01*
X144678759Y-78076637D01*
X144878637Y-77876759D01*
X145035680Y-77641727D01*
X145143853Y-77380574D01*
X145199000Y-77103335D01*
X145199000Y-76820665D01*
X145143853Y-76543426D01*
X145035680Y-76282273D01*
X144878637Y-76047241D01*
X144678759Y-75847363D01*
X144443727Y-75690320D01*
X144182574Y-75582147D01*
X143905335Y-75527000D01*
X143622665Y-75527000D01*
X143345426Y-75582147D01*
X143084273Y-75690320D01*
X142849241Y-75847363D01*
X142649363Y-76047241D01*
X142492320Y-76282273D01*
X142384147Y-76543426D01*
X142329000Y-76820665D01*
X134881790Y-76820665D01*
X134995904Y-76612961D01*
X134955246Y-76478913D01*
X134835037Y-76224580D01*
X134667519Y-75998586D01*
X134459131Y-75809615D01*
X134217881Y-75664930D01*
X133953040Y-75570091D01*
X133731000Y-75691376D01*
X133477000Y-75691376D01*
X133254960Y-75570091D01*
X133238999Y-75575807D01*
X133238999Y-75276579D01*
X133427561Y-75088017D01*
X133462665Y-75095000D01*
X133745335Y-75095000D01*
X134022574Y-75039853D01*
X134283727Y-74931680D01*
X134518759Y-74774637D01*
X134718637Y-74574759D01*
X134875680Y-74339727D01*
X134983853Y-74078574D01*
X135039000Y-73801335D01*
X135039000Y-73518665D01*
X134983853Y-73241426D01*
X134875680Y-72980273D01*
X134718637Y-72745241D01*
X134518759Y-72545363D01*
X134283727Y-72388320D01*
X134022574Y-72280147D01*
X133745335Y-72225000D01*
X133462665Y-72225000D01*
X133185426Y-72280147D01*
X132924273Y-72388320D01*
X132689241Y-72545363D01*
X132489363Y-72745241D01*
X132332320Y-72980273D01*
X132224147Y-73241426D01*
X132169000Y-73518665D01*
X132169000Y-73801335D01*
X132175983Y-73836439D01*
X131758955Y-74253467D01*
X131725182Y-74281184D01*
X131688553Y-74325816D01*
X131672992Y-74295000D01*
X130429000Y-74295000D01*
X130429000Y-74315000D01*
X130175000Y-74315000D01*
X130175000Y-74295000D01*
X128931008Y-74295000D01*
X128810959Y-74532741D01*
X128910766Y-74816620D01*
X129064038Y-75075573D01*
X129264884Y-75299649D01*
X129444802Y-75434633D01*
X129323495Y-75515688D01*
X129109688Y-75729495D01*
X128941701Y-75980905D01*
X128825989Y-76260257D01*
X128767000Y-76556816D01*
X128767000Y-76859184D01*
X128825989Y-77155743D01*
X128941701Y-77435095D01*
X129109688Y-77686505D01*
X129323495Y-77900312D01*
X129439763Y-77978000D01*
X129323495Y-78055688D01*
X129109688Y-78269495D01*
X128941701Y-78520905D01*
X128825989Y-78800257D01*
X128767000Y-79096816D01*
X128767000Y-79399184D01*
X128825989Y-79695743D01*
X128941701Y-79975095D01*
X129109688Y-80226505D01*
X129323495Y-80440312D01*
X129439763Y-80518000D01*
X129323495Y-80595688D01*
X129109688Y-80809495D01*
X128941701Y-81060905D01*
X128825989Y-81340257D01*
X128767000Y-81636816D01*
X128767000Y-81939184D01*
X128825989Y-82235743D01*
X128941701Y-82515095D01*
X129109688Y-82766505D01*
X129176127Y-82832944D01*
X129157820Y-82838498D01*
X129047506Y-82897463D01*
X128950815Y-82976815D01*
X128871463Y-83073506D01*
X128812498Y-83183820D01*
X128776188Y-83303518D01*
X128763928Y-83428000D01*
X126713474Y-83428000D01*
X126757000Y-83209184D01*
X126757000Y-82906816D01*
X126698011Y-82610257D01*
X126582299Y-82330905D01*
X126414312Y-82079495D01*
X126200505Y-81865688D01*
X126084237Y-81788000D01*
X126200505Y-81710312D01*
X126414312Y-81496505D01*
X126582299Y-81245095D01*
X126698011Y-80965743D01*
X126757000Y-80669184D01*
X126757000Y-80366816D01*
X126735060Y-80256518D01*
X127167050Y-79824529D01*
X127200818Y-79796816D01*
X127311412Y-79662058D01*
X127393590Y-79508312D01*
X127444196Y-79341489D01*
X127457001Y-79211476D01*
X127457001Y-79211468D01*
X127461282Y-79167999D01*
X127457001Y-79124530D01*
X127457001Y-68646575D01*
X128908540Y-67195037D01*
X128941701Y-67275095D01*
X129109688Y-67526505D01*
X129323495Y-67740312D01*
X129439763Y-67818000D01*
X129323495Y-67895688D01*
X129109688Y-68109495D01*
X128941701Y-68360905D01*
X128825989Y-68640257D01*
X128767000Y-68936816D01*
X128767000Y-69239184D01*
X128825989Y-69535743D01*
X128941701Y-69815095D01*
X129109688Y-70066505D01*
X129323495Y-70280312D01*
X129439763Y-70358000D01*
X129323495Y-70435688D01*
X129109688Y-70649495D01*
X128941701Y-70900905D01*
X128825989Y-71180257D01*
X128767000Y-71476816D01*
X128767000Y-71779184D01*
X128825989Y-72075743D01*
X128941701Y-72355095D01*
X129109688Y-72606505D01*
X129323495Y-72820312D01*
X129444802Y-72901367D01*
X129264884Y-73036351D01*
X129064038Y-73260427D01*
X128910766Y-73519380D01*
X128810959Y-73803259D01*
X128931008Y-74041000D01*
X130175000Y-74041000D01*
X130175000Y-74021000D01*
X130429000Y-74021000D01*
X130429000Y-74041000D01*
X131672992Y-74041000D01*
X131793041Y-73803259D01*
X131693234Y-73519380D01*
X131539962Y-73260427D01*
X131339116Y-73036351D01*
X131159198Y-72901367D01*
X131280505Y-72820312D01*
X131494312Y-72606505D01*
X131662299Y-72355095D01*
X131778011Y-72075743D01*
X131837000Y-71779184D01*
X131837000Y-71476816D01*
X131778011Y-71180257D01*
X131662299Y-70900905D01*
X131494312Y-70649495D01*
X131280505Y-70435688D01*
X131164237Y-70358000D01*
X131280505Y-70280312D01*
X131494312Y-70066505D01*
X131662299Y-69815095D01*
X131778011Y-69535743D01*
X131800600Y-69422180D01*
X135109468Y-72731049D01*
X135137181Y-72764817D01*
X135170949Y-72792530D01*
X135170951Y-72792532D01*
X135199214Y-72815727D01*
X135271939Y-72875411D01*
X135425685Y-72957589D01*
X135592508Y-73008195D01*
X135722521Y-73021000D01*
X135722531Y-73021000D01*
X135765997Y-73025281D01*
X135809463Y-73021000D01*
X142475450Y-73021000D01*
X142384147Y-73241426D01*
X142329000Y-73518665D01*
X142329000Y-73801335D01*
X142384147Y-74078574D01*
X142492320Y-74339727D01*
X142649363Y-74574759D01*
X142849241Y-74774637D01*
X143084273Y-74931680D01*
X143345426Y-75039853D01*
X143622665Y-75095000D01*
X143905335Y-75095000D01*
X143940439Y-75088017D01*
X145707471Y-76855050D01*
X145735184Y-76888818D01*
X145768952Y-76916531D01*
X145768954Y-76916533D01*
X145869942Y-76999412D01*
X146023687Y-77081590D01*
X146170053Y-77125990D01*
X146190511Y-77132196D01*
X146320524Y-77145001D01*
X146320532Y-77145001D01*
X146364001Y-77149282D01*
X146407470Y-77145001D01*
X154461532Y-77145001D01*
X154505001Y-77149282D01*
X154548470Y-77145001D01*
X154548478Y-77145001D01*
X154678491Y-77132196D01*
X154845314Y-77081590D01*
X154999060Y-76999412D01*
X155133818Y-76888818D01*
X155161535Y-76855045D01*
X158892840Y-73123740D01*
X163515000Y-73123740D01*
X163515000Y-73416260D01*
X163572068Y-73703158D01*
X163684010Y-73973411D01*
X163846525Y-74216632D01*
X164053368Y-74423475D01*
X164227760Y-74540000D01*
X164053368Y-74656525D01*
X163846525Y-74863368D01*
X163684010Y-75106589D01*
X163572068Y-75376842D01*
X163515000Y-75663740D01*
X163515000Y-75956260D01*
X163572068Y-76243158D01*
X163684010Y-76513411D01*
X163846525Y-76756632D01*
X164053368Y-76963475D01*
X164296589Y-77125990D01*
X164566842Y-77237932D01*
X164853740Y-77295000D01*
X165146260Y-77295000D01*
X165433158Y-77237932D01*
X165703411Y-77125990D01*
X165946632Y-76963475D01*
X166153475Y-76756632D01*
X166315990Y-76513411D01*
X166427932Y-76243158D01*
X166485000Y-75956260D01*
X166485000Y-75663740D01*
X166427932Y-75376842D01*
X166315990Y-75106589D01*
X166153475Y-74863368D01*
X165946632Y-74656525D01*
X165772240Y-74540000D01*
X165946632Y-74423475D01*
X166153475Y-74216632D01*
X166315990Y-73973411D01*
X166427932Y-73703158D01*
X166485000Y-73416260D01*
X166485000Y-73123740D01*
X166427932Y-72836842D01*
X166315990Y-72566589D01*
X166153475Y-72323368D01*
X165946632Y-72116525D01*
X165764466Y-71994805D01*
X165881355Y-71925178D01*
X166097588Y-71730269D01*
X166271641Y-71496920D01*
X166396825Y-71234099D01*
X166441476Y-71086890D01*
X166320155Y-70857000D01*
X165127000Y-70857000D01*
X165127000Y-70877000D01*
X164873000Y-70877000D01*
X164873000Y-70857000D01*
X163679845Y-70857000D01*
X163558524Y-71086890D01*
X163603175Y-71234099D01*
X163728359Y-71496920D01*
X163902412Y-71730269D01*
X164118645Y-71925178D01*
X164235534Y-71994805D01*
X164053368Y-72116525D01*
X163846525Y-72323368D01*
X163684010Y-72566589D01*
X163572068Y-72836842D01*
X163515000Y-73123740D01*
X158892840Y-73123740D01*
X163514859Y-68501722D01*
X163511928Y-69040000D01*
X163524188Y-69164482D01*
X163560498Y-69284180D01*
X163619463Y-69394494D01*
X163698815Y-69491185D01*
X163795506Y-69570537D01*
X163905820Y-69629502D01*
X163986466Y-69653966D01*
X163902412Y-69729731D01*
X163728359Y-69963080D01*
X163603175Y-70225901D01*
X163558524Y-70373110D01*
X163679845Y-70603000D01*
X164873000Y-70603000D01*
X164873000Y-68317000D01*
X165127000Y-68317000D01*
X165127000Y-70603000D01*
X166320155Y-70603000D01*
X166441476Y-70373110D01*
X166396825Y-70225901D01*
X166271641Y-69963080D01*
X166097588Y-69729731D01*
X166013534Y-69653966D01*
X166094180Y-69629502D01*
X166204494Y-69570537D01*
X166301185Y-69491185D01*
X166380537Y-69394494D01*
X166439502Y-69284180D01*
X166475812Y-69164482D01*
X166488072Y-69040000D01*
X166485000Y-68475750D01*
X166326250Y-68317000D01*
X165127000Y-68317000D01*
X164873000Y-68317000D01*
X164853000Y-68317000D01*
X164853000Y-68063000D01*
X164873000Y-68063000D01*
X164873000Y-68043000D01*
X165127000Y-68043000D01*
X165127000Y-68063000D01*
X166326250Y-68063000D01*
X166485000Y-67904250D01*
X166488072Y-67340000D01*
X166475812Y-67215518D01*
X166439502Y-67095820D01*
X166380537Y-66985506D01*
X166301185Y-66888815D01*
X166204494Y-66809463D01*
X166094180Y-66750498D01*
X165974482Y-66714188D01*
X165850000Y-66701928D01*
X165300340Y-66704921D01*
X165331411Y-66667061D01*
X165353525Y-66625688D01*
X165413589Y-66513315D01*
X165464195Y-66346492D01*
X165477000Y-66216479D01*
X165477000Y-66216471D01*
X165481281Y-66173002D01*
X165477000Y-66129533D01*
X165477000Y-64500790D01*
X165570505Y-64438312D01*
X165784312Y-64224505D01*
X165952299Y-63973095D01*
X166068011Y-63693743D01*
X166127000Y-63397184D01*
X166127000Y-63094816D01*
X166068011Y-62798257D01*
X165952299Y-62518905D01*
X165784312Y-62267495D01*
X165717873Y-62201056D01*
X165736180Y-62195502D01*
X165846494Y-62136537D01*
X165943185Y-62057185D01*
X166022537Y-61960494D01*
X166081502Y-61850180D01*
X166117812Y-61730482D01*
X166130072Y-61606000D01*
X166127000Y-60991750D01*
X165968250Y-60833000D01*
X164719000Y-60833000D01*
X164719000Y-60853000D01*
X164465000Y-60853000D01*
X164465000Y-60833000D01*
X163215750Y-60833000D01*
X163057000Y-60991750D01*
X163053928Y-61606000D01*
X163066188Y-61730482D01*
X163102498Y-61850180D01*
X163161463Y-61960494D01*
X163240815Y-62057185D01*
X163337506Y-62136537D01*
X163447820Y-62195502D01*
X163466127Y-62201056D01*
X163399688Y-62267495D01*
X163231701Y-62518905D01*
X163115989Y-62798257D01*
X163057000Y-63094816D01*
X163057000Y-63397184D01*
X163115989Y-63693743D01*
X163231701Y-63973095D01*
X163399688Y-64224505D01*
X163613495Y-64438312D01*
X163707001Y-64500791D01*
X163707000Y-65806423D01*
X155177641Y-74335782D01*
X155141671Y-74268486D01*
X154897702Y-74196903D01*
X154084605Y-75010000D01*
X154098748Y-75024143D01*
X153919143Y-75203748D01*
X153905000Y-75189605D01*
X153890858Y-75203748D01*
X153711253Y-75024143D01*
X153725395Y-75010000D01*
X152912298Y-74196903D01*
X152668329Y-74268486D01*
X152547429Y-74523996D01*
X152478700Y-74798184D01*
X152464783Y-75080512D01*
X152506213Y-75360130D01*
X152511531Y-75375001D01*
X146730580Y-75375001D01*
X145192017Y-73836439D01*
X145199000Y-73801335D01*
X145199000Y-73518665D01*
X145143853Y-73241426D01*
X145052550Y-73021000D01*
X152770479Y-73021000D01*
X152790363Y-73050759D01*
X152990241Y-73250637D01*
X153225273Y-73407680D01*
X153486426Y-73515853D01*
X153763665Y-73571000D01*
X153826274Y-73571000D01*
X153554870Y-73611213D01*
X153288708Y-73706397D01*
X153163486Y-73773329D01*
X153091903Y-74017298D01*
X153905000Y-74830395D01*
X154718097Y-74017298D01*
X154646514Y-73773329D01*
X154391004Y-73652429D01*
X154116816Y-73583700D01*
X153859177Y-73571000D01*
X154046335Y-73571000D01*
X154323574Y-73515853D01*
X154584727Y-73407680D01*
X154819759Y-73250637D01*
X155019637Y-73050759D01*
X155176680Y-72815727D01*
X155284853Y-72554574D01*
X155340000Y-72277335D01*
X155340000Y-71994665D01*
X155284853Y-71717426D01*
X155176680Y-71456273D01*
X155019637Y-71221241D01*
X154819759Y-71021363D01*
X154584727Y-70864320D01*
X154323574Y-70756147D01*
X154046335Y-70701000D01*
X153763665Y-70701000D01*
X153486426Y-70756147D01*
X153225273Y-70864320D01*
X152990241Y-71021363D01*
X152790363Y-71221241D01*
X152770479Y-71251000D01*
X136132577Y-71251000D01*
X135661649Y-70780072D01*
X136182000Y-70780072D01*
X136306482Y-70767812D01*
X136426180Y-70731502D01*
X136536494Y-70672537D01*
X136633185Y-70593185D01*
X136712537Y-70496494D01*
X136771502Y-70386180D01*
X136807812Y-70266482D01*
X136820072Y-70142000D01*
X136820072Y-69962435D01*
X147253871Y-69962435D01*
X147358644Y-70265344D01*
X147520499Y-70541992D01*
X147733215Y-70781748D01*
X147988618Y-70975399D01*
X148276893Y-71115502D01*
X148463566Y-71172124D01*
X148717000Y-71052777D01*
X148717000Y-69709000D01*
X148971000Y-69709000D01*
X148971000Y-71052777D01*
X149224434Y-71172124D01*
X149411107Y-71115502D01*
X149699382Y-70975399D01*
X149954785Y-70781748D01*
X150167501Y-70541992D01*
X150329356Y-70265344D01*
X150434129Y-69962435D01*
X150315315Y-69709000D01*
X148971000Y-69709000D01*
X148717000Y-69709000D01*
X147372685Y-69709000D01*
X147253871Y-69962435D01*
X136820072Y-69962435D01*
X136820072Y-69201565D01*
X147253871Y-69201565D01*
X147372685Y-69455000D01*
X148717000Y-69455000D01*
X148717000Y-68111223D01*
X148971000Y-68111223D01*
X148971000Y-69455000D01*
X150315315Y-69455000D01*
X150434129Y-69201565D01*
X150329356Y-68898656D01*
X150167501Y-68622008D01*
X149954785Y-68382252D01*
X149699382Y-68188601D01*
X149411107Y-68048498D01*
X149224434Y-67991876D01*
X148971000Y-68111223D01*
X148717000Y-68111223D01*
X148463566Y-67991876D01*
X148276893Y-68048498D01*
X147988618Y-68188601D01*
X147733215Y-68382252D01*
X147520499Y-68622008D01*
X147358644Y-68898656D01*
X147253871Y-69201565D01*
X136820072Y-69201565D01*
X136820072Y-68542000D01*
X136807812Y-68417518D01*
X136771502Y-68297820D01*
X136712537Y-68187506D01*
X136633185Y-68090815D01*
X136536494Y-68011463D01*
X136426180Y-67952498D01*
X136306482Y-67916188D01*
X136182000Y-67903928D01*
X136174785Y-67903928D01*
X136195097Y-67834702D01*
X135382000Y-67021605D01*
X134568903Y-67834702D01*
X134589215Y-67903928D01*
X134582000Y-67903928D01*
X134457518Y-67916188D01*
X134337820Y-67952498D01*
X134227506Y-68011463D01*
X134130815Y-68090815D01*
X134051463Y-68187506D01*
X133992498Y-68297820D01*
X133956188Y-68417518D01*
X133943928Y-68542000D01*
X133943928Y-69062352D01*
X132537001Y-67655425D01*
X132537001Y-66912512D01*
X133941783Y-66912512D01*
X133983213Y-67192130D01*
X134078397Y-67458292D01*
X134145329Y-67583514D01*
X134389298Y-67655097D01*
X135202395Y-66842000D01*
X135561605Y-66842000D01*
X136374702Y-67655097D01*
X136618671Y-67583514D01*
X136739571Y-67328004D01*
X136808300Y-67053816D01*
X136811215Y-66994665D01*
X152470000Y-66994665D01*
X152470000Y-67277335D01*
X152525147Y-67554574D01*
X152633320Y-67815727D01*
X152790363Y-68050759D01*
X152990241Y-68250637D01*
X153225273Y-68407680D01*
X153486426Y-68515853D01*
X153763665Y-68571000D01*
X154046335Y-68571000D01*
X154323574Y-68515853D01*
X154584727Y-68407680D01*
X154819759Y-68250637D01*
X155019637Y-68050759D01*
X155176680Y-67815727D01*
X155284853Y-67554574D01*
X155340000Y-67277335D01*
X155340000Y-66994665D01*
X155284853Y-66717426D01*
X155176680Y-66456273D01*
X155019637Y-66221241D01*
X154819759Y-66021363D01*
X154584727Y-65864320D01*
X154323574Y-65756147D01*
X154046335Y-65701000D01*
X153763665Y-65701000D01*
X153486426Y-65756147D01*
X153225273Y-65864320D01*
X152990241Y-66021363D01*
X152790363Y-66221241D01*
X152633320Y-66456273D01*
X152525147Y-66717426D01*
X152470000Y-66994665D01*
X136811215Y-66994665D01*
X136822217Y-66771488D01*
X136780787Y-66491870D01*
X136685603Y-66225708D01*
X136618671Y-66100486D01*
X136374702Y-66028903D01*
X135561605Y-66842000D01*
X135202395Y-66842000D01*
X134389298Y-66028903D01*
X134145329Y-66100486D01*
X134024429Y-66355996D01*
X133955700Y-66630184D01*
X133941783Y-66912512D01*
X132537001Y-66912512D01*
X132537001Y-65943468D01*
X132541282Y-65899999D01*
X132537001Y-65856530D01*
X132537001Y-65856522D01*
X132536290Y-65849298D01*
X134568903Y-65849298D01*
X135382000Y-66662395D01*
X136195097Y-65849298D01*
X136123514Y-65605329D01*
X135868004Y-65484429D01*
X135593816Y-65415700D01*
X135311488Y-65401783D01*
X135031870Y-65443213D01*
X134765708Y-65538397D01*
X134640486Y-65605329D01*
X134568903Y-65849298D01*
X132536290Y-65849298D01*
X132524196Y-65726509D01*
X132473590Y-65559686D01*
X132391412Y-65405940D01*
X132388000Y-65401783D01*
X132308533Y-65304952D01*
X132308531Y-65304950D01*
X132280818Y-65271182D01*
X132247050Y-65243469D01*
X131606535Y-64602955D01*
X131578818Y-64569182D01*
X131444060Y-64458588D01*
X131290314Y-64376410D01*
X131123491Y-64325804D01*
X130993478Y-64312999D01*
X130993470Y-64312999D01*
X130950001Y-64308718D01*
X130906532Y-64312999D01*
X129697464Y-64312999D01*
X129653998Y-64308718D01*
X129610532Y-64312999D01*
X129610522Y-64312999D01*
X129480509Y-64325804D01*
X129313686Y-64376410D01*
X129159940Y-64458588D01*
X129159938Y-64458589D01*
X129159939Y-64458589D01*
X129058952Y-64541467D01*
X129058950Y-64541469D01*
X129025182Y-64569182D01*
X128997469Y-64602950D01*
X126553146Y-67047274D01*
X126414312Y-66839495D01*
X126200505Y-66625688D01*
X125949095Y-66457701D01*
X125669743Y-66341989D01*
X125373184Y-66283000D01*
X125070816Y-66283000D01*
X124774257Y-66341989D01*
X124494905Y-66457701D01*
X124243495Y-66625688D01*
X124029688Y-66839495D01*
X123861701Y-67090905D01*
X123745989Y-67370257D01*
X123687000Y-67666816D01*
X117785000Y-67666816D01*
X117785000Y-62826000D01*
X143545928Y-62826000D01*
X143558188Y-62950482D01*
X143594498Y-63070180D01*
X143653463Y-63180494D01*
X143732815Y-63277185D01*
X143829506Y-63356537D01*
X143939820Y-63415502D01*
X144059518Y-63451812D01*
X144184000Y-63464072D01*
X144748250Y-63461000D01*
X144907000Y-63302250D01*
X144907000Y-62103000D01*
X143707750Y-62103000D01*
X143549000Y-62261750D01*
X143545928Y-62826000D01*
X117785000Y-62826000D01*
X117785000Y-62034958D01*
X117854686Y-61254143D01*
X117889741Y-61126000D01*
X143545928Y-61126000D01*
X143549000Y-61690250D01*
X143707750Y-61849000D01*
X144907000Y-61849000D01*
X144907000Y-60649750D01*
X145161000Y-60649750D01*
X145161000Y-61849000D01*
X145181000Y-61849000D01*
X145181000Y-62103000D01*
X145161000Y-62103000D01*
X145161000Y-63302250D01*
X145319750Y-63461000D01*
X145884000Y-63464072D01*
X146008482Y-63451812D01*
X146128180Y-63415502D01*
X146238494Y-63356537D01*
X146335185Y-63277185D01*
X146414537Y-63180494D01*
X146473502Y-63070180D01*
X146495513Y-62997620D01*
X146627368Y-63129475D01*
X146870589Y-63291990D01*
X147140842Y-63403932D01*
X147427740Y-63461000D01*
X147720260Y-63461000D01*
X148007158Y-63403932D01*
X148277411Y-63291990D01*
X148520632Y-63129475D01*
X148727475Y-62922632D01*
X148844000Y-62748240D01*
X148960525Y-62922632D01*
X149167368Y-63129475D01*
X149410589Y-63291990D01*
X149680842Y-63403932D01*
X149967740Y-63461000D01*
X150260260Y-63461000D01*
X150547158Y-63403932D01*
X150817411Y-63291990D01*
X151060632Y-63129475D01*
X151267475Y-62922632D01*
X151429990Y-62679411D01*
X151541932Y-62409158D01*
X151599000Y-62122260D01*
X151599000Y-61853740D01*
X153709000Y-61853740D01*
X153709000Y-62146260D01*
X153766068Y-62433158D01*
X153878010Y-62703411D01*
X154040525Y-62946632D01*
X154247368Y-63153475D01*
X154490589Y-63315990D01*
X154760842Y-63427932D01*
X155047740Y-63485000D01*
X155340260Y-63485000D01*
X155627158Y-63427932D01*
X155897411Y-63315990D01*
X156140632Y-63153475D01*
X156272487Y-63021620D01*
X156294498Y-63094180D01*
X156353463Y-63204494D01*
X156432815Y-63301185D01*
X156529506Y-63380537D01*
X156639820Y-63439502D01*
X156759518Y-63475812D01*
X156884000Y-63488072D01*
X158584000Y-63488072D01*
X158708482Y-63475812D01*
X158828180Y-63439502D01*
X158938494Y-63380537D01*
X159035185Y-63301185D01*
X159114537Y-63204494D01*
X159173502Y-63094180D01*
X159209812Y-62974482D01*
X159222072Y-62850000D01*
X159222072Y-61150000D01*
X159209812Y-61025518D01*
X159173502Y-60905820D01*
X159114537Y-60795506D01*
X159035185Y-60698815D01*
X158938494Y-60619463D01*
X158828180Y-60560498D01*
X158708482Y-60524188D01*
X158584000Y-60511928D01*
X156884000Y-60511928D01*
X156759518Y-60524188D01*
X156639820Y-60560498D01*
X156529506Y-60619463D01*
X156432815Y-60698815D01*
X156353463Y-60795506D01*
X156294498Y-60905820D01*
X156272487Y-60978380D01*
X156140632Y-60846525D01*
X155897411Y-60684010D01*
X155627158Y-60572068D01*
X155340260Y-60515000D01*
X155047740Y-60515000D01*
X154760842Y-60572068D01*
X154490589Y-60684010D01*
X154247368Y-60846525D01*
X154040525Y-61053368D01*
X153878010Y-61296589D01*
X153766068Y-61566842D01*
X153709000Y-61853740D01*
X151599000Y-61853740D01*
X151599000Y-61829740D01*
X151541932Y-61542842D01*
X151429990Y-61272589D01*
X151267475Y-61029368D01*
X151060632Y-60822525D01*
X150817411Y-60660010D01*
X150547158Y-60548068D01*
X150260260Y-60491000D01*
X149967740Y-60491000D01*
X149680842Y-60548068D01*
X149410589Y-60660010D01*
X149167368Y-60822525D01*
X148960525Y-61029368D01*
X148844000Y-61203760D01*
X148727475Y-61029368D01*
X148520632Y-60822525D01*
X148277411Y-60660010D01*
X148007158Y-60548068D01*
X147720260Y-60491000D01*
X147427740Y-60491000D01*
X147140842Y-60548068D01*
X146870589Y-60660010D01*
X146627368Y-60822525D01*
X146495513Y-60954380D01*
X146473502Y-60881820D01*
X146414537Y-60771506D01*
X146335185Y-60674815D01*
X146238494Y-60595463D01*
X146128180Y-60536498D01*
X146008482Y-60500188D01*
X145884000Y-60487928D01*
X145319750Y-60491000D01*
X145161000Y-60649750D01*
X144907000Y-60649750D01*
X144748250Y-60491000D01*
X144184000Y-60487928D01*
X144059518Y-60500188D01*
X143939820Y-60536498D01*
X143829506Y-60595463D01*
X143732815Y-60674815D01*
X143653463Y-60771506D01*
X143594498Y-60881820D01*
X143558188Y-61001518D01*
X143545928Y-61126000D01*
X117889741Y-61126000D01*
X118052281Y-60531856D01*
X118374656Y-59855983D01*
X118410572Y-59806000D01*
X163053928Y-59806000D01*
X163057000Y-60420250D01*
X163215750Y-60579000D01*
X164465000Y-60579000D01*
X164465000Y-59329750D01*
X164719000Y-59329750D01*
X164719000Y-60579000D01*
X165968250Y-60579000D01*
X166127000Y-60420250D01*
X166130072Y-59806000D01*
X166117812Y-59681518D01*
X166081502Y-59561820D01*
X166022537Y-59451506D01*
X165943185Y-59354815D01*
X165846494Y-59275463D01*
X165736180Y-59216498D01*
X165616482Y-59180188D01*
X165492000Y-59167928D01*
X164877750Y-59171000D01*
X164719000Y-59329750D01*
X164465000Y-59329750D01*
X164306250Y-59171000D01*
X163692000Y-59167928D01*
X163567518Y-59180188D01*
X163447820Y-59216498D01*
X163337506Y-59275463D01*
X163240815Y-59354815D01*
X163161463Y-59451506D01*
X163102498Y-59561820D01*
X163066188Y-59681518D01*
X163053928Y-59806000D01*
X118410572Y-59806000D01*
X118811626Y-59247873D01*
X119349380Y-58726753D01*
X119970909Y-58309103D01*
X120656583Y-58008113D01*
X121390752Y-57831854D01*
X122028786Y-57785000D01*
X164965042Y-57785000D01*
X165745857Y-57854686D01*
G37*
G04 #@! TD.AperFunction*
G04 #@! TD*
M02*
