%TF.GenerationSoftware,KiCad,Pcbnew,(5.1.6)-1*%
%TF.CreationDate,2020-10-27T15:42:11-05:00*%
%TF.ProjectId,MuffPi3PDT,4d756666-5069-4335-9044-542e6b696361,rev?*%
%TF.SameCoordinates,Original*%
%TF.FileFunction,Soldermask,Top*%
%TF.FilePolarity,Negative*%
%FSLAX46Y46*%
G04 Gerber Fmt 4.6, Leading zero omitted, Abs format (unit mm)*
G04 Created by KiCad (PCBNEW (5.1.6)-1) date 2020-10-27 15:42:11*
%MOMM*%
%LPD*%
G01*
G04 APERTURE LIST*
%ADD10C,1.600000*%
%ADD11O,1.600000X1.600000*%
%ADD12R,1.350000X1.350000*%
%ADD13O,1.350000X1.350000*%
%ADD14R,1.600000X1.600000*%
%ADD15R,1.800000X1.800000*%
%ADD16C,1.800000*%
%ADD17O,1.050000X1.500000*%
%ADD18R,1.050000X1.500000*%
%ADD19R,1.500000X1.050000*%
%ADD20O,1.500000X1.050000*%
%ADD21C,2.743200*%
G04 APERTURE END LIST*
D10*
%TO.C,R20*%
X120015000Y-88900000D03*
D11*
X109855000Y-88900000D03*
%TD*%
D12*
%TO.C,BT1*%
X106680000Y-81915000D03*
D13*
X106680000Y-83915000D03*
%TD*%
D10*
%TO.C,C1*%
X106680000Y-77470000D03*
X106680000Y-72470000D03*
%TD*%
%TO.C,C2*%
X109808000Y-82423000D03*
X114808000Y-82423000D03*
%TD*%
%TO.C,C3*%
X127635000Y-73025000D03*
X122635000Y-73025000D03*
%TD*%
%TO.C,C4*%
X135255000Y-73025000D03*
X130255000Y-73025000D03*
%TD*%
%TO.C,C5*%
X148844000Y-75772000D03*
X148844000Y-80772000D03*
%TD*%
%TO.C,C6*%
X140335000Y-82550000D03*
X135335000Y-82550000D03*
%TD*%
%TO.C,C7*%
X140335000Y-94060000D03*
X140335000Y-99060000D03*
%TD*%
%TO.C,C8*%
X149225000Y-83820000D03*
X149225000Y-88820000D03*
%TD*%
%TO.C,C9*%
X132715000Y-100330000D03*
X137715000Y-100330000D03*
%TD*%
%TO.C,C10*%
X130095000Y-98425000D03*
X125095000Y-98425000D03*
%TD*%
%TO.C,C11*%
X114935000Y-98425000D03*
X109935000Y-98425000D03*
%TD*%
%TO.C,C12*%
X142795000Y-73025000D03*
X137795000Y-73025000D03*
%TD*%
%TO.C,C13*%
X122475000Y-98425000D03*
X117475000Y-98425000D03*
%TD*%
D11*
%TO.C,D1*%
X142875000Y-88900000D03*
D14*
X135255000Y-88900000D03*
%TD*%
%TO.C,D2*%
X142875000Y-91440000D03*
D11*
X135255000Y-91440000D03*
%TD*%
%TO.C,D3*%
X151765000Y-91440000D03*
D14*
X151765000Y-99060000D03*
%TD*%
%TO.C,D4*%
X149225000Y-91440000D03*
D11*
X149225000Y-99060000D03*
%TD*%
D15*
%TO.C,D5*%
X116205000Y-102235000D03*
D16*
X118745000Y-102235000D03*
%TD*%
D12*
%TO.C,J1*%
X106680000Y-88265000D03*
D13*
X106680000Y-90265000D03*
X106680000Y-92265000D03*
%TD*%
D12*
%TO.C,J2*%
X152400000Y-86995000D03*
D13*
X152400000Y-84995000D03*
%TD*%
D17*
%TO.C,Q1*%
X107315000Y-69215000D03*
X108585000Y-69215000D03*
D18*
X106045000Y-69215000D03*
%TD*%
%TO.C,Q2*%
X147955000Y-71755000D03*
D17*
X145415000Y-71755000D03*
X146685000Y-71755000D03*
%TD*%
D19*
%TO.C,Q3*%
X135890000Y-94615000D03*
D20*
X135890000Y-97155000D03*
X135890000Y-95885000D03*
%TD*%
D17*
%TO.C,Q4*%
X123190000Y-102235000D03*
X121920000Y-102235000D03*
D18*
X124460000Y-102235000D03*
%TD*%
D11*
%TO.C,R1*%
X120015000Y-73025000D03*
D10*
X109855000Y-73025000D03*
%TD*%
D11*
%TO.C,R2*%
X109855000Y-79375000D03*
D10*
X120015000Y-79375000D03*
%TD*%
D11*
%TO.C,R3*%
X120015000Y-76200000D03*
D10*
X109855000Y-76200000D03*
%TD*%
D11*
%TO.C,R4*%
X132715000Y-76200000D03*
D10*
X122555000Y-76200000D03*
%TD*%
%TO.C,R5*%
X121920000Y-66675000D03*
D11*
X111760000Y-66675000D03*
%TD*%
D10*
%TO.C,R6*%
X111760000Y-69850000D03*
D11*
X121920000Y-69850000D03*
%TD*%
D10*
%TO.C,R7*%
X135255000Y-76200000D03*
D11*
X145415000Y-76200000D03*
%TD*%
%TO.C,R8*%
X135255000Y-79375000D03*
D10*
X145415000Y-79375000D03*
%TD*%
D11*
%TO.C,R9*%
X145415000Y-85725000D03*
D10*
X135255000Y-85725000D03*
%TD*%
%TO.C,R10*%
X132715000Y-79375000D03*
D11*
X122555000Y-79375000D03*
%TD*%
D10*
%TO.C,R11*%
X152146000Y-71120000D03*
D11*
X152146000Y-81280000D03*
%TD*%
D10*
%TO.C,R12*%
X146050000Y-99060000D03*
D11*
X146050000Y-88900000D03*
%TD*%
%TO.C,R13*%
X122555000Y-95250000D03*
D10*
X132715000Y-95250000D03*
%TD*%
D11*
%TO.C,R14*%
X127000000Y-103505000D03*
D10*
X137160000Y-103505000D03*
%TD*%
D11*
%TO.C,R15*%
X122555000Y-92075000D03*
D10*
X132715000Y-92075000D03*
%TD*%
%TO.C,R16*%
X132715000Y-82550000D03*
D11*
X122555000Y-82550000D03*
%TD*%
%TO.C,R17*%
X109855000Y-85725000D03*
D10*
X120015000Y-85725000D03*
%TD*%
%TO.C,R18*%
X109855000Y-92075000D03*
D11*
X120015000Y-92075000D03*
%TD*%
%TO.C,R19*%
X122555000Y-85725000D03*
D10*
X132715000Y-85725000D03*
%TD*%
%TO.C,R21*%
X132715000Y-88900000D03*
D11*
X122555000Y-88900000D03*
%TD*%
D10*
%TO.C,R22*%
X140335000Y-102235000D03*
D11*
X150495000Y-102235000D03*
%TD*%
D10*
%TO.C,R23*%
X109855000Y-95250000D03*
D11*
X120015000Y-95250000D03*
%TD*%
D13*
%TO.C,SUST1*%
X124905000Y-66675000D03*
X126905000Y-66675000D03*
D12*
X128905000Y-66675000D03*
%TD*%
D13*
%TO.C,TONE1*%
X136080000Y-66675000D03*
X134080000Y-66675000D03*
D12*
X132080000Y-66675000D03*
%TD*%
%TO.C,VOL1*%
X143510000Y-66675000D03*
D13*
X141510000Y-66675000D03*
X139510000Y-66675000D03*
%TD*%
D21*
%TO.C,S1*%
X123225560Y-109501940D03*
X123225560Y-114300000D03*
X123225560Y-119098060D03*
X128524000Y-109501940D03*
X128524000Y-114300000D03*
X128524000Y-119098060D03*
X133822440Y-109501940D03*
X133822440Y-114300000D03*
X133822440Y-119098060D03*
%TD*%
M02*
