G04 #@! TF.GenerationSoftware,KiCad,Pcbnew,(5.1.7)-1*
G04 #@! TF.CreationDate,2021-05-14T15:16:38-05:00*
G04 #@! TF.ProjectId,ConsoleSocket,436f6e73-6f6c-4655-936f-636b65742e6b,rev?*
G04 #@! TF.SameCoordinates,Original*
G04 #@! TF.FileFunction,Copper,L1,Top*
G04 #@! TF.FilePolarity,Positive*
%FSLAX46Y46*%
G04 Gerber Fmt 4.6, Leading zero omitted, Abs format (unit mm)*
G04 Created by KiCad (PCBNEW (5.1.7)-1) date 2021-05-14 15:16:38*
%MOMM*%
%LPD*%
G01*
G04 APERTURE LIST*
G04 #@! TA.AperFunction,ComponentPad*
%ADD10R,1.700000X1.700000*%
G04 #@! TD*
G04 #@! TA.AperFunction,ComponentPad*
%ADD11O,1.700000X1.700000*%
G04 #@! TD*
G04 #@! TA.AperFunction,ComponentPad*
%ADD12C,5.400000*%
G04 #@! TD*
G04 #@! TA.AperFunction,Conductor*
%ADD13C,0.500000*%
G04 #@! TD*
G04 APERTURE END LIST*
D10*
G04 #@! TO.P,J3,1*
G04 #@! TO.N,GND*
X106750000Y-36830000D03*
D11*
G04 #@! TO.P,J3,2*
X106750000Y-41910000D03*
G04 #@! TO.P,J3,3*
X109290000Y-36830000D03*
G04 #@! TO.P,J3,4*
X109290000Y-41910000D03*
G04 #@! TO.P,J3,5*
G04 #@! TO.N,/Input*
X111830000Y-36830000D03*
G04 #@! TO.P,J3,6*
X111830000Y-41910000D03*
G04 #@! TO.P,J3,7*
G04 #@! TO.N,/Output*
X114370000Y-36830000D03*
G04 #@! TO.P,J3,8*
X114370000Y-41910000D03*
G04 #@! TO.P,J3,9*
G04 #@! TO.N,+9V*
X116910000Y-36830000D03*
G04 #@! TO.P,J3,10*
X116910000Y-41910000D03*
G04 #@! TO.P,J3,11*
G04 #@! TO.N,/LEDPower*
X119450000Y-36830000D03*
G04 #@! TO.P,J3,12*
X119450000Y-41910000D03*
G04 #@! TO.P,J3,13*
G04 #@! TO.N,N/C*
X121990000Y-36830000D03*
G04 #@! TO.P,J3,14*
X121990000Y-41910000D03*
G04 #@! TO.P,J3,15*
X124530000Y-36830000D03*
G04 #@! TO.P,J3,16*
X124530000Y-41910000D03*
G04 #@! TO.P,J3,17*
X127070000Y-36830000D03*
G04 #@! TO.P,J3,18*
X127070000Y-41910000D03*
G04 #@! TO.P,J3,19*
X129610000Y-36830000D03*
G04 #@! TO.P,J3,20*
X129610000Y-41910000D03*
G04 #@! TO.P,J3,21*
X132150000Y-36830000D03*
G04 #@! TO.P,J3,22*
X132150000Y-41910000D03*
G04 #@! TO.P,J3,23*
X134690000Y-36830000D03*
G04 #@! TO.P,J3,24*
X134690000Y-41910000D03*
G04 #@! TO.P,J3,25*
X137230000Y-36830000D03*
G04 #@! TO.P,J3,26*
X137230000Y-41910000D03*
G04 #@! TO.P,J3,27*
X139770000Y-36830000D03*
G04 #@! TO.P,J3,28*
X139770000Y-41910000D03*
G04 #@! TO.P,J3,29*
X142310000Y-36830000D03*
G04 #@! TO.P,J3,30*
X142310000Y-41910000D03*
G04 #@! TO.P,J3,31*
X144850000Y-36830000D03*
G04 #@! TO.P,J3,32*
X144850000Y-41910000D03*
G04 #@! TO.P,J3,33*
X147390000Y-36830000D03*
G04 #@! TO.P,J3,34*
X147390000Y-41910000D03*
G04 #@! TO.P,J3,35*
X149930000Y-36830000D03*
G04 #@! TO.P,J3,36*
X149930000Y-41910000D03*
G04 #@! TO.P,J3,37*
X152470000Y-36830000D03*
G04 #@! TO.P,J3,38*
X152470000Y-41910000D03*
G04 #@! TO.P,J3,39*
G04 #@! TO.N,/LEDPower*
X155010000Y-36830000D03*
G04 #@! TO.P,J3,40*
X155010000Y-41910000D03*
G04 #@! TO.P,J3,41*
G04 #@! TO.N,+9V*
X157550000Y-36830000D03*
G04 #@! TO.P,J3,42*
X157550000Y-41910000D03*
G04 #@! TO.P,J3,43*
G04 #@! TO.N,/Output*
X160090000Y-36830000D03*
G04 #@! TO.P,J3,44*
X160090000Y-41910000D03*
G04 #@! TO.P,J3,45*
G04 #@! TO.N,/Input*
X162630000Y-36830000D03*
G04 #@! TO.P,J3,46*
X162630000Y-41910000D03*
G04 #@! TO.P,J3,47*
G04 #@! TO.N,GND*
X165170000Y-36830000D03*
G04 #@! TO.P,J3,48*
X165170000Y-41910000D03*
G04 #@! TO.P,J3,49*
X167710000Y-36830000D03*
G04 #@! TO.P,J3,50*
X167710000Y-41910000D03*
G04 #@! TD*
D10*
G04 #@! TO.P,J1,1*
G04 #@! TO.N,GND*
X132080000Y-45720000D03*
D11*
G04 #@! TO.P,J1,2*
G04 #@! TO.N,/Input*
X134620000Y-45720000D03*
G04 #@! TO.P,J1,3*
G04 #@! TO.N,/Output*
X137160000Y-45720000D03*
G04 #@! TO.P,J1,4*
G04 #@! TO.N,+9V*
X139700000Y-45720000D03*
G04 #@! TO.P,J1,5*
G04 #@! TO.N,/LEDPower*
X142240000Y-45720000D03*
G04 #@! TD*
D12*
G04 #@! TO.P,H1,1*
G04 #@! TO.N,GND*
X96000000Y-39370000D03*
G04 #@! TD*
G04 #@! TO.P,H2,1*
G04 #@! TO.N,GND*
X178320000Y-39370000D03*
G04 #@! TD*
D13*
G04 #@! TO.N,+9V*
X157550000Y-41910000D02*
X157550000Y-36830000D01*
X116910000Y-36830000D02*
X116910000Y-41910000D01*
X118825999Y-35529999D02*
X156249999Y-35529999D01*
X156249999Y-35529999D02*
X157550000Y-36830000D01*
X117525998Y-36830000D02*
X118825999Y-35529999D01*
X116910000Y-36830000D02*
X117525998Y-36830000D01*
X156934002Y-41910000D02*
X157550000Y-41910000D01*
X155040001Y-44419999D02*
X157550000Y-41910000D01*
X141000001Y-44419999D02*
X155040001Y-44419999D01*
X139700000Y-45720000D02*
X141000001Y-44419999D01*
G04 #@! TO.N,/LEDPower*
X155010000Y-41910000D02*
X155010000Y-36830000D01*
X119450000Y-36830000D02*
X119450000Y-41910000D01*
X119450000Y-36830000D02*
X120065998Y-36830000D01*
X120750001Y-38130001D02*
X119450000Y-36830000D01*
X153709999Y-38130001D02*
X120750001Y-38130001D01*
X155010000Y-36830000D02*
X153709999Y-38130001D01*
G04 #@! TO.N,GND*
X165170000Y-41910000D02*
X165170000Y-36830000D01*
X167710000Y-36830000D02*
X167710000Y-41910000D01*
X165170000Y-41910000D02*
X167710000Y-41910000D01*
X165170000Y-36830000D02*
X167710000Y-36830000D01*
X106750000Y-36830000D02*
X106750000Y-41910000D01*
X109290000Y-41910000D02*
X109290000Y-36830000D01*
X109290000Y-36830000D02*
X106750000Y-36830000D01*
X106750000Y-41910000D02*
X109290000Y-41910000D01*
G04 #@! TO.N,/Input*
X162014002Y-41910000D02*
X162630000Y-41910000D01*
X162630000Y-41910000D02*
X162630000Y-36830000D01*
X111830000Y-41910000D02*
X111830000Y-36830000D01*
X159929979Y-34129979D02*
X162630000Y-36830000D01*
X114530021Y-34129979D02*
X159929979Y-34129979D01*
X111830000Y-36830000D02*
X114530021Y-34129979D01*
X114339999Y-44419999D02*
X111830000Y-41910000D01*
X133319999Y-44419999D02*
X114339999Y-44419999D01*
X134620000Y-45720000D02*
X133319999Y-44419999D01*
G04 #@! TO.N,/Output*
X160090000Y-41910000D02*
X160090000Y-36830000D01*
X114370000Y-36830000D02*
X114370000Y-41910000D01*
X158089989Y-34829989D02*
X160090000Y-36830000D01*
X116370011Y-34829989D02*
X158089989Y-34829989D01*
X114370000Y-36830000D02*
X116370011Y-34829989D01*
X134650001Y-43210001D02*
X137160000Y-45720000D01*
X115670001Y-43210001D02*
X134650001Y-43210001D01*
X114370000Y-41910000D02*
X115670001Y-43210001D01*
G04 #@! TD*
M02*
