G04 #@! TF.GenerationSoftware,KiCad,Pcbnew,(5.1.7)-1*
G04 #@! TF.CreationDate,2021-08-29T20:02:24-05:00*
G04 #@! TF.ProjectId,ConsolePedalShakeSMT,436f6e73-6f6c-4655-9065-64616c536861,rev?*
G04 #@! TF.SameCoordinates,Original*
G04 #@! TF.FileFunction,Copper,L1,Top*
G04 #@! TF.FilePolarity,Positive*
%FSLAX46Y46*%
G04 Gerber Fmt 4.6, Leading zero omitted, Abs format (unit mm)*
G04 Created by KiCad (PCBNEW (5.1.7)-1) date 2021-08-29 20:02:24*
%MOMM*%
%LPD*%
G01*
G04 APERTURE LIST*
G04 #@! TA.AperFunction,ComponentPad*
%ADD10C,1.500000*%
G04 #@! TD*
G04 #@! TA.AperFunction,ComponentPad*
%ADD11R,1.800000X1.800000*%
G04 #@! TD*
G04 #@! TA.AperFunction,ComponentPad*
%ADD12C,1.800000*%
G04 #@! TD*
G04 #@! TA.AperFunction,ConnectorPad*
%ADD13R,1.500000X7.000000*%
G04 #@! TD*
G04 #@! TA.AperFunction,ComponentPad*
%ADD14C,5.000000*%
G04 #@! TD*
G04 #@! TA.AperFunction,ComponentPad*
%ADD15C,1.600000*%
G04 #@! TD*
G04 #@! TA.AperFunction,ComponentPad*
%ADD16O,1.600000X1.600000*%
G04 #@! TD*
G04 #@! TA.AperFunction,ComponentPad*
%ADD17R,1.050000X1.500000*%
G04 #@! TD*
G04 #@! TA.AperFunction,ComponentPad*
%ADD18O,1.050000X1.500000*%
G04 #@! TD*
G04 #@! TA.AperFunction,WasherPad*
%ADD19C,4.000000*%
G04 #@! TD*
G04 #@! TA.AperFunction,SMDPad,CuDef*
%ADD20R,1.600000X2.200000*%
G04 #@! TD*
G04 #@! TA.AperFunction,SMDPad,CuDef*
%ADD21R,0.900000X1.200000*%
G04 #@! TD*
G04 #@! TA.AperFunction,ViaPad*
%ADD22C,0.800000*%
G04 #@! TD*
G04 #@! TA.AperFunction,Conductor*
%ADD23C,0.500000*%
G04 #@! TD*
G04 #@! TA.AperFunction,Conductor*
%ADD24C,0.254000*%
G04 #@! TD*
G04 #@! TA.AperFunction,Conductor*
%ADD25C,0.100000*%
G04 #@! TD*
G04 APERTURE END LIST*
D10*
G04 #@! TO.P,SW1,3*
G04 #@! TO.N,Net-(R13-Pad1)*
X135255000Y-85725000D03*
G04 #@! TO.P,SW1,1*
G04 #@! TO.N,Net-(C7-Pad2)*
X130175000Y-85725000D03*
G04 #@! TO.P,SW1,2*
G04 #@! TO.N,Net-(C8-Pad2)*
X132715000Y-85725000D03*
G04 #@! TD*
D11*
G04 #@! TO.P,D1,1*
G04 #@! TO.N,Net-(D1-Pad1)*
X115250000Y-95000000D03*
D12*
G04 #@! TO.P,D1,2*
G04 #@! TO.N,/LEDPower*
X115250000Y-97540000D03*
G04 #@! TD*
G04 #@! TO.P,D2,2*
G04 #@! TO.N,/LEDPower*
X150250000Y-97540000D03*
D11*
G04 #@! TO.P,D2,1*
G04 #@! TO.N,Net-(D1-Pad1)*
X150250000Y-95000000D03*
G04 #@! TD*
D13*
G04 #@! TO.P,J1,1*
G04 #@! TO.N,GND*
X102715000Y-126000000D03*
G04 #@! TO.P,J1,2*
X105215000Y-126000000D03*
G04 #@! TO.P,J1,3*
G04 #@! TO.N,/Input*
X107715000Y-126000000D03*
G04 #@! TO.P,J1,4*
G04 #@! TO.N,/Output*
X110215000Y-126000000D03*
G04 #@! TO.P,J1,5*
G04 #@! TO.N,+9V*
X112715000Y-126000000D03*
G04 #@! TO.P,J1,6*
G04 #@! TO.N,/LEDPower*
X115215000Y-126000000D03*
G04 #@! TO.P,J1,7*
G04 #@! TO.N,N/C*
X117715000Y-126000000D03*
G04 #@! TO.P,J1,8*
X120215000Y-126000000D03*
G04 #@! TO.P,J1,9*
X122715000Y-126000000D03*
G04 #@! TO.P,J1,10*
X125215000Y-126000000D03*
G04 #@! TO.P,J1,11*
X127715000Y-126000000D03*
G04 #@! TO.P,J1,12*
X130215000Y-126000000D03*
G04 #@! TO.P,J1,13*
X132715000Y-126000000D03*
G04 #@! TO.P,J1,14*
X135215000Y-126000000D03*
G04 #@! TO.P,J1,15*
X137715000Y-126000000D03*
G04 #@! TO.P,J1,16*
X140215000Y-126000000D03*
G04 #@! TO.P,J1,17*
X142715000Y-126000000D03*
G04 #@! TO.P,J1,18*
X145215000Y-126000000D03*
G04 #@! TO.P,J1,19*
X147715000Y-126000000D03*
G04 #@! TO.P,J1,20*
G04 #@! TO.N,/LEDPower*
X150215000Y-126000000D03*
G04 #@! TO.P,J1,21*
G04 #@! TO.N,+9V*
X152715000Y-126000000D03*
G04 #@! TO.P,J1,22*
G04 #@! TO.N,/Output*
X155215000Y-126000000D03*
G04 #@! TO.P,J1,23*
G04 #@! TO.N,/Input*
X157715000Y-126000000D03*
G04 #@! TO.P,J1,24*
G04 #@! TO.N,GND*
X160215000Y-126000000D03*
G04 #@! TO.P,J1,25*
X162715000Y-126000000D03*
G04 #@! TD*
D14*
G04 #@! TO.P,H1,1*
G04 #@! TO.N,GND*
X85350000Y-122600000D03*
G04 #@! TD*
G04 #@! TO.P,H2,1*
G04 #@! TO.N,GND*
X180150000Y-122600000D03*
G04 #@! TD*
D15*
G04 #@! TO.P,R20,1*
G04 #@! TO.N,GND*
X127635000Y-76835000D03*
D16*
G04 #@! TO.P,R20,2*
G04 #@! TO.N,Net-(D1-Pad1)*
X137795000Y-76835000D03*
G04 #@! TD*
D11*
G04 #@! TO.P,D3,1*
G04 #@! TO.N,GND*
X132750000Y-95000000D03*
D12*
G04 #@! TO.P,D3,2*
G04 #@! TO.N,Net-(D3-Pad2)*
X132750000Y-97540000D03*
G04 #@! TD*
D17*
G04 #@! TO.P,Q1,1*
G04 #@! TO.N,Net-(Q1-Pad1)*
X125095000Y-106680000D03*
D18*
G04 #@! TO.P,Q1,3*
G04 #@! TO.N,Net-(C4-Pad1)*
X122555000Y-106680000D03*
G04 #@! TO.P,Q1,2*
G04 #@! TO.N,Net-(C2-Pad1)*
X123825000Y-106680000D03*
G04 #@! TD*
D17*
G04 #@! TO.P,Q2,1*
G04 #@! TO.N,GND*
X104775000Y-104140000D03*
D18*
G04 #@! TO.P,Q2,3*
G04 #@! TO.N,Net-(C2-Pad2)*
X107315000Y-104140000D03*
G04 #@! TO.P,Q2,2*
G04 #@! TO.N,Net-(C5-Pad1)*
X106045000Y-104140000D03*
G04 #@! TD*
G04 #@! TO.P,Q3,2*
G04 #@! TO.N,Net-(C10-Pad1)*
X141605000Y-106680000D03*
G04 #@! TO.P,Q3,3*
G04 #@! TO.N,+9V*
X140335000Y-106680000D03*
D17*
G04 #@! TO.P,Q3,1*
G04 #@! TO.N,Net-(Q3-Pad1)*
X142875000Y-106680000D03*
G04 #@! TD*
D18*
G04 #@! TO.P,Q4,2*
G04 #@! TO.N,Net-(Q3-Pad1)*
X160020000Y-103505000D03*
G04 #@! TO.P,Q4,3*
G04 #@! TO.N,Net-(C5-Pad2)*
X161290000Y-103505000D03*
D17*
G04 #@! TO.P,Q4,1*
G04 #@! TO.N,GND*
X158750000Y-103505000D03*
G04 #@! TD*
D15*
G04 #@! TO.P,R19,1*
G04 #@! TO.N,Net-(D3-Pad2)*
X127635000Y-73025000D03*
D16*
G04 #@! TO.P,R19,2*
G04 #@! TO.N,Net-(C5-Pad2)*
X137795000Y-73025000D03*
G04 #@! TD*
D19*
G04 #@! TO.P,RV1,*
G04 #@! TO.N,*
X119650000Y-80500000D03*
X110850000Y-80500000D03*
D12*
G04 #@! TO.P,RV1,1*
G04 #@! TO.N,Net-(R9-Pad2)*
X117750000Y-87500000D03*
G04 #@! TO.P,RV1,2*
G04 #@! TO.N,Net-(C5-Pad1)*
X115250000Y-87500000D03*
G04 #@! TO.P,RV1,3*
X112750000Y-87500000D03*
G04 #@! TD*
G04 #@! TO.P,RV2,3*
G04 #@! TO.N,Net-(C10-Pad1)*
X147750000Y-87500000D03*
G04 #@! TO.P,RV2,2*
X150250000Y-87500000D03*
G04 #@! TO.P,RV2,1*
G04 #@! TO.N,Net-(R16-Pad1)*
X152750000Y-87500000D03*
D19*
G04 #@! TO.P,RV2,*
G04 #@! TO.N,*
X145850000Y-80500000D03*
X154650000Y-80500000D03*
G04 #@! TD*
G04 #@! TO.P,C1,2*
G04 #@! TO.N,GND*
G04 #@! TA.AperFunction,SMDPad,CuDef*
G36*
G01*
X133265000Y-104360000D02*
X132165000Y-104360000D01*
G75*
G02*
X131915000Y-104110000I0J250000D01*
G01*
X131915000Y-101110000D01*
G75*
G02*
X132165000Y-100860000I250000J0D01*
G01*
X133265000Y-100860000D01*
G75*
G02*
X133515000Y-101110000I0J-250000D01*
G01*
X133515000Y-104110000D01*
G75*
G02*
X133265000Y-104360000I-250000J0D01*
G01*
G37*
G04 #@! TD.AperFunction*
G04 #@! TO.P,C1,1*
G04 #@! TO.N,+9V*
G04 #@! TA.AperFunction,SMDPad,CuDef*
G36*
G01*
X133265000Y-109960000D02*
X132165000Y-109960000D01*
G75*
G02*
X131915000Y-109710000I0J250000D01*
G01*
X131915000Y-106710000D01*
G75*
G02*
X132165000Y-106460000I250000J0D01*
G01*
X133265000Y-106460000D01*
G75*
G02*
X133515000Y-106710000I0J-250000D01*
G01*
X133515000Y-109710000D01*
G75*
G02*
X133265000Y-109960000I-250000J0D01*
G01*
G37*
G04 #@! TD.AperFunction*
G04 #@! TD*
D20*
G04 #@! TO.P,C2,2*
G04 #@! TO.N,Net-(C2-Pad2)*
X106045000Y-97385000D03*
G04 #@! TO.P,C2,1*
G04 #@! TO.N,Net-(C2-Pad1)*
X106045000Y-94385000D03*
G04 #@! TD*
G04 #@! TO.P,C3,2*
G04 #@! TO.N,GND*
G04 #@! TA.AperFunction,SMDPad,CuDef*
G36*
G01*
X160570000Y-92295000D02*
X159470000Y-92295000D01*
G75*
G02*
X159220000Y-92045000I0J250000D01*
G01*
X159220000Y-89045000D01*
G75*
G02*
X159470000Y-88795000I250000J0D01*
G01*
X160570000Y-88795000D01*
G75*
G02*
X160820000Y-89045000I0J-250000D01*
G01*
X160820000Y-92045000D01*
G75*
G02*
X160570000Y-92295000I-250000J0D01*
G01*
G37*
G04 #@! TD.AperFunction*
G04 #@! TO.P,C3,1*
G04 #@! TO.N,Net-(C3-Pad1)*
G04 #@! TA.AperFunction,SMDPad,CuDef*
G36*
G01*
X160570000Y-97895000D02*
X159470000Y-97895000D01*
G75*
G02*
X159220000Y-97645000I0J250000D01*
G01*
X159220000Y-94645000D01*
G75*
G02*
X159470000Y-94395000I250000J0D01*
G01*
X160570000Y-94395000D01*
G75*
G02*
X160820000Y-94645000I0J-250000D01*
G01*
X160820000Y-97645000D01*
G75*
G02*
X160570000Y-97895000I-250000J0D01*
G01*
G37*
G04 #@! TD.AperFunction*
G04 #@! TD*
G04 #@! TO.P,C4,1*
G04 #@! TO.N,Net-(C4-Pad1)*
X115570000Y-103910000D03*
G04 #@! TO.P,C4,2*
G04 #@! TO.N,/Output*
X115570000Y-106910000D03*
G04 #@! TD*
G04 #@! TO.P,C5,1*
G04 #@! TO.N,Net-(C5-Pad1)*
G04 #@! TA.AperFunction,SMDPad,CuDef*
G36*
G01*
X99855000Y-101420000D02*
X100805000Y-101420000D01*
G75*
G02*
X101055000Y-101670000I0J-250000D01*
G01*
X101055000Y-102170000D01*
G75*
G02*
X100805000Y-102420000I-250000J0D01*
G01*
X99855000Y-102420000D01*
G75*
G02*
X99605000Y-102170000I0J250000D01*
G01*
X99605000Y-101670000D01*
G75*
G02*
X99855000Y-101420000I250000J0D01*
G01*
G37*
G04 #@! TD.AperFunction*
G04 #@! TO.P,C5,2*
G04 #@! TO.N,Net-(C5-Pad2)*
G04 #@! TA.AperFunction,SMDPad,CuDef*
G36*
G01*
X99855000Y-103320000D02*
X100805000Y-103320000D01*
G75*
G02*
X101055000Y-103570000I0J-250000D01*
G01*
X101055000Y-104070000D01*
G75*
G02*
X100805000Y-104320000I-250000J0D01*
G01*
X99855000Y-104320000D01*
G75*
G02*
X99605000Y-104070000I0J250000D01*
G01*
X99605000Y-103570000D01*
G75*
G02*
X99855000Y-103320000I250000J0D01*
G01*
G37*
G04 #@! TD.AperFunction*
G04 #@! TD*
G04 #@! TO.P,C6,1*
G04 #@! TO.N,Net-(C5-Pad2)*
G04 #@! TA.AperFunction,SMDPad,CuDef*
G36*
G01*
X149700000Y-101075000D02*
X150800000Y-101075000D01*
G75*
G02*
X151050000Y-101325000I0J-250000D01*
G01*
X151050000Y-103825000D01*
G75*
G02*
X150800000Y-104075000I-250000J0D01*
G01*
X149700000Y-104075000D01*
G75*
G02*
X149450000Y-103825000I0J250000D01*
G01*
X149450000Y-101325000D01*
G75*
G02*
X149700000Y-101075000I250000J0D01*
G01*
G37*
G04 #@! TD.AperFunction*
G04 #@! TO.P,C6,2*
G04 #@! TO.N,Net-(C6-Pad2)*
G04 #@! TA.AperFunction,SMDPad,CuDef*
G36*
G01*
X149700000Y-105475000D02*
X150800000Y-105475000D01*
G75*
G02*
X151050000Y-105725000I0J-250000D01*
G01*
X151050000Y-108225000D01*
G75*
G02*
X150800000Y-108475000I-250000J0D01*
G01*
X149700000Y-108475000D01*
G75*
G02*
X149450000Y-108225000I0J250000D01*
G01*
X149450000Y-105725000D01*
G75*
G02*
X149700000Y-105475000I250000J0D01*
G01*
G37*
G04 #@! TD.AperFunction*
G04 #@! TD*
G04 #@! TO.P,C7,1*
G04 #@! TO.N,Net-(C6-Pad2)*
X141605000Y-94845000D03*
G04 #@! TO.P,C7,2*
G04 #@! TO.N,Net-(C7-Pad2)*
X141605000Y-91845000D03*
G04 #@! TD*
G04 #@! TO.P,C8,1*
G04 #@! TO.N,Net-(C6-Pad2)*
G04 #@! TA.AperFunction,SMDPad,CuDef*
G36*
G01*
X102785000Y-82655000D02*
X101685000Y-82655000D01*
G75*
G02*
X101435000Y-82405000I0J250000D01*
G01*
X101435000Y-79405000D01*
G75*
G02*
X101685000Y-79155000I250000J0D01*
G01*
X102785000Y-79155000D01*
G75*
G02*
X103035000Y-79405000I0J-250000D01*
G01*
X103035000Y-82405000D01*
G75*
G02*
X102785000Y-82655000I-250000J0D01*
G01*
G37*
G04 #@! TD.AperFunction*
G04 #@! TO.P,C8,2*
G04 #@! TO.N,Net-(C8-Pad2)*
G04 #@! TA.AperFunction,SMDPad,CuDef*
G36*
G01*
X102785000Y-77055000D02*
X101685000Y-77055000D01*
G75*
G02*
X101435000Y-76805000I0J250000D01*
G01*
X101435000Y-73805000D01*
G75*
G02*
X101685000Y-73555000I250000J0D01*
G01*
X102785000Y-73555000D01*
G75*
G02*
X103035000Y-73805000I0J-250000D01*
G01*
X103035000Y-76805000D01*
G75*
G02*
X102785000Y-77055000I-250000J0D01*
G01*
G37*
G04 #@! TD.AperFunction*
G04 #@! TD*
G04 #@! TO.P,C9,2*
G04 #@! TO.N,Net-(C8-Pad2)*
G04 #@! TA.AperFunction,SMDPad,CuDef*
G36*
G01*
X124375000Y-92645000D02*
X123275000Y-92645000D01*
G75*
G02*
X123025000Y-92395000I0J250000D01*
G01*
X123025000Y-89895000D01*
G75*
G02*
X123275000Y-89645000I250000J0D01*
G01*
X124375000Y-89645000D01*
G75*
G02*
X124625000Y-89895000I0J-250000D01*
G01*
X124625000Y-92395000D01*
G75*
G02*
X124375000Y-92645000I-250000J0D01*
G01*
G37*
G04 #@! TD.AperFunction*
G04 #@! TO.P,C9,1*
G04 #@! TO.N,Net-(C10-Pad2)*
G04 #@! TA.AperFunction,SMDPad,CuDef*
G36*
G01*
X124375000Y-97045000D02*
X123275000Y-97045000D01*
G75*
G02*
X123025000Y-96795000I0J250000D01*
G01*
X123025000Y-94295000D01*
G75*
G02*
X123275000Y-94045000I250000J0D01*
G01*
X124375000Y-94045000D01*
G75*
G02*
X124625000Y-94295000I0J-250000D01*
G01*
X124625000Y-96795000D01*
G75*
G02*
X124375000Y-97045000I-250000J0D01*
G01*
G37*
G04 #@! TD.AperFunction*
G04 #@! TD*
G04 #@! TO.P,C10,1*
G04 #@! TO.N,Net-(C10-Pad1)*
G04 #@! TA.AperFunction,SMDPad,CuDef*
G36*
G01*
X163745000Y-82655000D02*
X162645000Y-82655000D01*
G75*
G02*
X162395000Y-82405000I0J250000D01*
G01*
X162395000Y-79405000D01*
G75*
G02*
X162645000Y-79155000I250000J0D01*
G01*
X163745000Y-79155000D01*
G75*
G02*
X163995000Y-79405000I0J-250000D01*
G01*
X163995000Y-82405000D01*
G75*
G02*
X163745000Y-82655000I-250000J0D01*
G01*
G37*
G04 #@! TD.AperFunction*
G04 #@! TO.P,C10,2*
G04 #@! TO.N,Net-(C10-Pad2)*
G04 #@! TA.AperFunction,SMDPad,CuDef*
G36*
G01*
X163745000Y-77055000D02*
X162645000Y-77055000D01*
G75*
G02*
X162395000Y-76805000I0J250000D01*
G01*
X162395000Y-73805000D01*
G75*
G02*
X162645000Y-73555000I250000J0D01*
G01*
X163745000Y-73555000D01*
G75*
G02*
X163995000Y-73805000I0J-250000D01*
G01*
X163995000Y-76805000D01*
G75*
G02*
X163745000Y-77055000I-250000J0D01*
G01*
G37*
G04 #@! TD.AperFunction*
G04 #@! TD*
D21*
G04 #@! TO.P,D4,1*
G04 #@! TO.N,+9V*
X134365000Y-91440000D03*
G04 #@! TO.P,D4,2*
G04 #@! TO.N,GND*
X131065000Y-91440000D03*
G04 #@! TD*
G04 #@! TO.P,R1,2*
G04 #@! TO.N,/Input*
G04 #@! TA.AperFunction,SMDPad,CuDef*
G36*
G01*
X103689999Y-110255000D02*
X104590001Y-110255000D01*
G75*
G02*
X104840000Y-110504999I0J-249999D01*
G01*
X104840000Y-111030001D01*
G75*
G02*
X104590001Y-111280000I-249999J0D01*
G01*
X103689999Y-111280000D01*
G75*
G02*
X103440000Y-111030001I0J249999D01*
G01*
X103440000Y-110504999D01*
G75*
G02*
X103689999Y-110255000I249999J0D01*
G01*
G37*
G04 #@! TD.AperFunction*
G04 #@! TO.P,R1,1*
G04 #@! TO.N,GND*
G04 #@! TA.AperFunction,SMDPad,CuDef*
G36*
G01*
X103689999Y-108430000D02*
X104590001Y-108430000D01*
G75*
G02*
X104840000Y-108679999I0J-249999D01*
G01*
X104840000Y-109205001D01*
G75*
G02*
X104590001Y-109455000I-249999J0D01*
G01*
X103689999Y-109455000D01*
G75*
G02*
X103440000Y-109205001I0J249999D01*
G01*
X103440000Y-108679999D01*
G75*
G02*
X103689999Y-108430000I249999J0D01*
G01*
G37*
G04 #@! TD.AperFunction*
G04 #@! TD*
G04 #@! TO.P,R2,1*
G04 #@! TO.N,/Input*
G04 #@! TA.AperFunction,SMDPad,CuDef*
G36*
G01*
X108400001Y-111280000D02*
X107499999Y-111280000D01*
G75*
G02*
X107250000Y-111030001I0J249999D01*
G01*
X107250000Y-110504999D01*
G75*
G02*
X107499999Y-110255000I249999J0D01*
G01*
X108400001Y-110255000D01*
G75*
G02*
X108650000Y-110504999I0J-249999D01*
G01*
X108650000Y-111030001D01*
G75*
G02*
X108400001Y-111280000I-249999J0D01*
G01*
G37*
G04 #@! TD.AperFunction*
G04 #@! TO.P,R2,2*
G04 #@! TO.N,Net-(C2-Pad2)*
G04 #@! TA.AperFunction,SMDPad,CuDef*
G36*
G01*
X108400001Y-109455000D02*
X107499999Y-109455000D01*
G75*
G02*
X107250000Y-109205001I0J249999D01*
G01*
X107250000Y-108679999D01*
G75*
G02*
X107499999Y-108430000I249999J0D01*
G01*
X108400001Y-108430000D01*
G75*
G02*
X108650000Y-108679999I0J-249999D01*
G01*
X108650000Y-109205001D01*
G75*
G02*
X108400001Y-109455000I-249999J0D01*
G01*
G37*
G04 #@! TD.AperFunction*
G04 #@! TD*
G04 #@! TO.P,R3,1*
G04 #@! TO.N,Net-(C2-Pad2)*
G04 #@! TA.AperFunction,SMDPad,CuDef*
G36*
G01*
X99879999Y-94460000D02*
X100780001Y-94460000D01*
G75*
G02*
X101030000Y-94709999I0J-249999D01*
G01*
X101030000Y-95235001D01*
G75*
G02*
X100780001Y-95485000I-249999J0D01*
G01*
X99879999Y-95485000D01*
G75*
G02*
X99630000Y-95235001I0J249999D01*
G01*
X99630000Y-94709999D01*
G75*
G02*
X99879999Y-94460000I249999J0D01*
G01*
G37*
G04 #@! TD.AperFunction*
G04 #@! TO.P,R3,2*
G04 #@! TO.N,GND*
G04 #@! TA.AperFunction,SMDPad,CuDef*
G36*
G01*
X99879999Y-96285000D02*
X100780001Y-96285000D01*
G75*
G02*
X101030000Y-96534999I0J-249999D01*
G01*
X101030000Y-97060001D01*
G75*
G02*
X100780001Y-97310000I-249999J0D01*
G01*
X99879999Y-97310000D01*
G75*
G02*
X99630000Y-97060001I0J249999D01*
G01*
X99630000Y-96534999D01*
G75*
G02*
X99879999Y-96285000I249999J0D01*
G01*
G37*
G04 #@! TD.AperFunction*
G04 #@! TD*
G04 #@! TO.P,R4,2*
G04 #@! TO.N,Net-(C4-Pad1)*
G04 #@! TA.AperFunction,SMDPad,CuDef*
G36*
G01*
X121469999Y-102000000D02*
X122370001Y-102000000D01*
G75*
G02*
X122620000Y-102249999I0J-249999D01*
G01*
X122620000Y-102775001D01*
G75*
G02*
X122370001Y-103025000I-249999J0D01*
G01*
X121469999Y-103025000D01*
G75*
G02*
X121220000Y-102775001I0J249999D01*
G01*
X121220000Y-102249999D01*
G75*
G02*
X121469999Y-102000000I249999J0D01*
G01*
G37*
G04 #@! TD.AperFunction*
G04 #@! TO.P,R4,1*
G04 #@! TO.N,Net-(C2-Pad1)*
G04 #@! TA.AperFunction,SMDPad,CuDef*
G36*
G01*
X121469999Y-100175000D02*
X122370001Y-100175000D01*
G75*
G02*
X122620000Y-100424999I0J-249999D01*
G01*
X122620000Y-100950001D01*
G75*
G02*
X122370001Y-101200000I-249999J0D01*
G01*
X121469999Y-101200000D01*
G75*
G02*
X121220000Y-100950001I0J249999D01*
G01*
X121220000Y-100424999D01*
G75*
G02*
X121469999Y-100175000I249999J0D01*
G01*
G37*
G04 #@! TD.AperFunction*
G04 #@! TD*
G04 #@! TO.P,R5,1*
G04 #@! TO.N,Net-(C3-Pad1)*
G04 #@! TA.AperFunction,SMDPad,CuDef*
G36*
G01*
X143059999Y-100175000D02*
X143960001Y-100175000D01*
G75*
G02*
X144210000Y-100424999I0J-249999D01*
G01*
X144210000Y-100950001D01*
G75*
G02*
X143960001Y-101200000I-249999J0D01*
G01*
X143059999Y-101200000D01*
G75*
G02*
X142810000Y-100950001I0J249999D01*
G01*
X142810000Y-100424999D01*
G75*
G02*
X143059999Y-100175000I249999J0D01*
G01*
G37*
G04 #@! TD.AperFunction*
G04 #@! TO.P,R5,2*
G04 #@! TO.N,Net-(C4-Pad1)*
G04 #@! TA.AperFunction,SMDPad,CuDef*
G36*
G01*
X143059999Y-102000000D02*
X143960001Y-102000000D01*
G75*
G02*
X144210000Y-102249999I0J-249999D01*
G01*
X144210000Y-102775001D01*
G75*
G02*
X143960001Y-103025000I-249999J0D01*
G01*
X143059999Y-103025000D01*
G75*
G02*
X142810000Y-102775001I0J249999D01*
G01*
X142810000Y-102249999D01*
G75*
G02*
X143059999Y-102000000I249999J0D01*
G01*
G37*
G04 #@! TD.AperFunction*
G04 #@! TD*
G04 #@! TO.P,R6,2*
G04 #@! TO.N,Net-(C3-Pad1)*
G04 #@! TA.AperFunction,SMDPad,CuDef*
G36*
G01*
X140150001Y-101200000D02*
X139249999Y-101200000D01*
G75*
G02*
X139000000Y-100950001I0J249999D01*
G01*
X139000000Y-100424999D01*
G75*
G02*
X139249999Y-100175000I249999J0D01*
G01*
X140150001Y-100175000D01*
G75*
G02*
X140400000Y-100424999I0J-249999D01*
G01*
X140400000Y-100950001D01*
G75*
G02*
X140150001Y-101200000I-249999J0D01*
G01*
G37*
G04 #@! TD.AperFunction*
G04 #@! TO.P,R6,1*
G04 #@! TO.N,+9V*
G04 #@! TA.AperFunction,SMDPad,CuDef*
G36*
G01*
X140150001Y-103025000D02*
X139249999Y-103025000D01*
G75*
G02*
X139000000Y-102775001I0J249999D01*
G01*
X139000000Y-102249999D01*
G75*
G02*
X139249999Y-102000000I249999J0D01*
G01*
X140150001Y-102000000D01*
G75*
G02*
X140400000Y-102249999I0J-249999D01*
G01*
X140400000Y-102775001D01*
G75*
G02*
X140150001Y-103025000I-249999J0D01*
G01*
G37*
G04 #@! TD.AperFunction*
G04 #@! TD*
G04 #@! TO.P,R7,1*
G04 #@! TO.N,Net-(Q1-Pad1)*
G04 #@! TA.AperFunction,SMDPad,CuDef*
G36*
G01*
X126180001Y-103025000D02*
X125279999Y-103025000D01*
G75*
G02*
X125030000Y-102775001I0J249999D01*
G01*
X125030000Y-102249999D01*
G75*
G02*
X125279999Y-102000000I249999J0D01*
G01*
X126180001Y-102000000D01*
G75*
G02*
X126430000Y-102249999I0J-249999D01*
G01*
X126430000Y-102775001D01*
G75*
G02*
X126180001Y-103025000I-249999J0D01*
G01*
G37*
G04 #@! TD.AperFunction*
G04 #@! TO.P,R7,2*
G04 #@! TO.N,GND*
G04 #@! TA.AperFunction,SMDPad,CuDef*
G36*
G01*
X126180001Y-101200000D02*
X125279999Y-101200000D01*
G75*
G02*
X125030000Y-100950001I0J249999D01*
G01*
X125030000Y-100424999D01*
G75*
G02*
X125279999Y-100175000I249999J0D01*
G01*
X126180001Y-100175000D01*
G75*
G02*
X126430000Y-100424999I0J-249999D01*
G01*
X126430000Y-100950001D01*
G75*
G02*
X126180001Y-101200000I-249999J0D01*
G01*
G37*
G04 #@! TD.AperFunction*
G04 #@! TD*
G04 #@! TO.P,R8,2*
G04 #@! TO.N,GND*
G04 #@! TA.AperFunction,SMDPad,CuDef*
G36*
G01*
X162375001Y-109455000D02*
X161474999Y-109455000D01*
G75*
G02*
X161225000Y-109205001I0J249999D01*
G01*
X161225000Y-108679999D01*
G75*
G02*
X161474999Y-108430000I249999J0D01*
G01*
X162375001Y-108430000D01*
G75*
G02*
X162625000Y-108679999I0J-249999D01*
G01*
X162625000Y-109205001D01*
G75*
G02*
X162375001Y-109455000I-249999J0D01*
G01*
G37*
G04 #@! TD.AperFunction*
G04 #@! TO.P,R8,1*
G04 #@! TO.N,/Output*
G04 #@! TA.AperFunction,SMDPad,CuDef*
G36*
G01*
X162375001Y-111280000D02*
X161474999Y-111280000D01*
G75*
G02*
X161225000Y-111030001I0J249999D01*
G01*
X161225000Y-110504999D01*
G75*
G02*
X161474999Y-110255000I249999J0D01*
G01*
X162375001Y-110255000D01*
G75*
G02*
X162625000Y-110504999I0J-249999D01*
G01*
X162625000Y-111030001D01*
G75*
G02*
X162375001Y-111280000I-249999J0D01*
G01*
G37*
G04 #@! TD.AperFunction*
G04 #@! TD*
G04 #@! TO.P,R9,1*
G04 #@! TO.N,GND*
G04 #@! TA.AperFunction,SMDPad,CuDef*
G36*
G01*
X124910001Y-87150000D02*
X124009999Y-87150000D01*
G75*
G02*
X123760000Y-86900001I0J249999D01*
G01*
X123760000Y-86374999D01*
G75*
G02*
X124009999Y-86125000I249999J0D01*
G01*
X124910001Y-86125000D01*
G75*
G02*
X125160000Y-86374999I0J-249999D01*
G01*
X125160000Y-86900001D01*
G75*
G02*
X124910001Y-87150000I-249999J0D01*
G01*
G37*
G04 #@! TD.AperFunction*
G04 #@! TO.P,R9,2*
G04 #@! TO.N,Net-(R9-Pad2)*
G04 #@! TA.AperFunction,SMDPad,CuDef*
G36*
G01*
X124910001Y-85325000D02*
X124009999Y-85325000D01*
G75*
G02*
X123760000Y-85075001I0J249999D01*
G01*
X123760000Y-84549999D01*
G75*
G02*
X124009999Y-84300000I249999J0D01*
G01*
X124910001Y-84300000D01*
G75*
G02*
X125160000Y-84549999I0J-249999D01*
G01*
X125160000Y-85075001D01*
G75*
G02*
X124910001Y-85325000I-249999J0D01*
G01*
G37*
G04 #@! TD.AperFunction*
G04 #@! TD*
G04 #@! TO.P,R10,2*
G04 #@! TO.N,+9V*
G04 #@! TA.AperFunction,SMDPad,CuDef*
G36*
G01*
X133115000Y-82365001D02*
X133115000Y-81464999D01*
G75*
G02*
X133364999Y-81215000I249999J0D01*
G01*
X133890001Y-81215000D01*
G75*
G02*
X134140000Y-81464999I0J-249999D01*
G01*
X134140000Y-82365001D01*
G75*
G02*
X133890001Y-82615000I-249999J0D01*
G01*
X133364999Y-82615000D01*
G75*
G02*
X133115000Y-82365001I0J249999D01*
G01*
G37*
G04 #@! TD.AperFunction*
G04 #@! TO.P,R10,1*
G04 #@! TO.N,Net-(C5-Pad1)*
G04 #@! TA.AperFunction,SMDPad,CuDef*
G36*
G01*
X131290000Y-82365001D02*
X131290000Y-81464999D01*
G75*
G02*
X131539999Y-81215000I249999J0D01*
G01*
X132065001Y-81215000D01*
G75*
G02*
X132315000Y-81464999I0J-249999D01*
G01*
X132315000Y-82365001D01*
G75*
G02*
X132065001Y-82615000I-249999J0D01*
G01*
X131539999Y-82615000D01*
G75*
G02*
X131290000Y-82365001I0J249999D01*
G01*
G37*
G04 #@! TD.AperFunction*
G04 #@! TD*
G04 #@! TO.P,R11,2*
G04 #@! TO.N,Net-(C6-Pad2)*
G04 #@! TA.AperFunction,SMDPad,CuDef*
G36*
G01*
X127870000Y-81464999D02*
X127870000Y-82365001D01*
G75*
G02*
X127620001Y-82615000I-249999J0D01*
G01*
X127094999Y-82615000D01*
G75*
G02*
X126845000Y-82365001I0J249999D01*
G01*
X126845000Y-81464999D01*
G75*
G02*
X127094999Y-81215000I249999J0D01*
G01*
X127620001Y-81215000D01*
G75*
G02*
X127870000Y-81464999I0J-249999D01*
G01*
G37*
G04 #@! TD.AperFunction*
G04 #@! TO.P,R11,1*
G04 #@! TO.N,Net-(C5-Pad1)*
G04 #@! TA.AperFunction,SMDPad,CuDef*
G36*
G01*
X129695000Y-81464999D02*
X129695000Y-82365001D01*
G75*
G02*
X129445001Y-82615000I-249999J0D01*
G01*
X128919999Y-82615000D01*
G75*
G02*
X128670000Y-82365001I0J249999D01*
G01*
X128670000Y-81464999D01*
G75*
G02*
X128919999Y-81215000I249999J0D01*
G01*
X129445001Y-81215000D01*
G75*
G02*
X129695000Y-81464999I0J-249999D01*
G01*
G37*
G04 #@! TD.AperFunction*
G04 #@! TD*
G04 #@! TO.P,R12,1*
G04 #@! TO.N,Net-(C6-Pad2)*
G04 #@! TA.AperFunction,SMDPad,CuDef*
G36*
G01*
X101784999Y-85570000D02*
X102685001Y-85570000D01*
G75*
G02*
X102935000Y-85819999I0J-249999D01*
G01*
X102935000Y-86345001D01*
G75*
G02*
X102685001Y-86595000I-249999J0D01*
G01*
X101784999Y-86595000D01*
G75*
G02*
X101535000Y-86345001I0J249999D01*
G01*
X101535000Y-85819999D01*
G75*
G02*
X101784999Y-85570000I249999J0D01*
G01*
G37*
G04 #@! TD.AperFunction*
G04 #@! TO.P,R12,2*
G04 #@! TO.N,GND*
G04 #@! TA.AperFunction,SMDPad,CuDef*
G36*
G01*
X101784999Y-87395000D02*
X102685001Y-87395000D01*
G75*
G02*
X102935000Y-87644999I0J-249999D01*
G01*
X102935000Y-88170001D01*
G75*
G02*
X102685001Y-88420000I-249999J0D01*
G01*
X101784999Y-88420000D01*
G75*
G02*
X101535000Y-88170001I0J249999D01*
G01*
X101535000Y-87644999D01*
G75*
G02*
X101784999Y-87395000I249999J0D01*
G01*
G37*
G04 #@! TD.AperFunction*
G04 #@! TD*
G04 #@! TO.P,R13,2*
G04 #@! TO.N,GND*
G04 #@! TA.AperFunction,SMDPad,CuDef*
G36*
G01*
X140519999Y-86125000D02*
X141420001Y-86125000D01*
G75*
G02*
X141670000Y-86374999I0J-249999D01*
G01*
X141670000Y-86900001D01*
G75*
G02*
X141420001Y-87150000I-249999J0D01*
G01*
X140519999Y-87150000D01*
G75*
G02*
X140270000Y-86900001I0J249999D01*
G01*
X140270000Y-86374999D01*
G75*
G02*
X140519999Y-86125000I249999J0D01*
G01*
G37*
G04 #@! TD.AperFunction*
G04 #@! TO.P,R13,1*
G04 #@! TO.N,Net-(R13-Pad1)*
G04 #@! TA.AperFunction,SMDPad,CuDef*
G36*
G01*
X140519999Y-84300000D02*
X141420001Y-84300000D01*
G75*
G02*
X141670000Y-84549999I0J-249999D01*
G01*
X141670000Y-85075001D01*
G75*
G02*
X141420001Y-85325000I-249999J0D01*
G01*
X140519999Y-85325000D01*
G75*
G02*
X140270000Y-85075001I0J249999D01*
G01*
X140270000Y-84549999D01*
G75*
G02*
X140519999Y-84300000I249999J0D01*
G01*
G37*
G04 #@! TD.AperFunction*
G04 #@! TD*
G04 #@! TO.P,R14,1*
G04 #@! TO.N,Net-(C8-Pad2)*
G04 #@! TA.AperFunction,SMDPad,CuDef*
G36*
G01*
X135735000Y-82365001D02*
X135735000Y-81464999D01*
G75*
G02*
X135984999Y-81215000I249999J0D01*
G01*
X136510001Y-81215000D01*
G75*
G02*
X136760000Y-81464999I0J-249999D01*
G01*
X136760000Y-82365001D01*
G75*
G02*
X136510001Y-82615000I-249999J0D01*
G01*
X135984999Y-82615000D01*
G75*
G02*
X135735000Y-82365001I0J249999D01*
G01*
G37*
G04 #@! TD.AperFunction*
G04 #@! TO.P,R14,2*
G04 #@! TO.N,GND*
G04 #@! TA.AperFunction,SMDPad,CuDef*
G36*
G01*
X137560000Y-82365001D02*
X137560000Y-81464999D01*
G75*
G02*
X137809999Y-81215000I249999J0D01*
G01*
X138335001Y-81215000D01*
G75*
G02*
X138585000Y-81464999I0J-249999D01*
G01*
X138585000Y-82365001D01*
G75*
G02*
X138335001Y-82615000I-249999J0D01*
G01*
X137809999Y-82615000D01*
G75*
G02*
X137560000Y-82365001I0J249999D01*
G01*
G37*
G04 #@! TD.AperFunction*
G04 #@! TD*
G04 #@! TO.P,R15,2*
G04 #@! TO.N,GND*
G04 #@! TA.AperFunction,SMDPad,CuDef*
G36*
G01*
X165284999Y-102635000D02*
X166185001Y-102635000D01*
G75*
G02*
X166435000Y-102884999I0J-249999D01*
G01*
X166435000Y-103410001D01*
G75*
G02*
X166185001Y-103660000I-249999J0D01*
G01*
X165284999Y-103660000D01*
G75*
G02*
X165035000Y-103410001I0J249999D01*
G01*
X165035000Y-102884999D01*
G75*
G02*
X165284999Y-102635000I249999J0D01*
G01*
G37*
G04 #@! TD.AperFunction*
G04 #@! TO.P,R15,1*
G04 #@! TO.N,Net-(C10-Pad2)*
G04 #@! TA.AperFunction,SMDPad,CuDef*
G36*
G01*
X165284999Y-100810000D02*
X166185001Y-100810000D01*
G75*
G02*
X166435000Y-101059999I0J-249999D01*
G01*
X166435000Y-101585001D01*
G75*
G02*
X166185001Y-101835000I-249999J0D01*
G01*
X165284999Y-101835000D01*
G75*
G02*
X165035000Y-101585001I0J249999D01*
G01*
X165035000Y-101059999D01*
G75*
G02*
X165284999Y-100810000I249999J0D01*
G01*
G37*
G04 #@! TD.AperFunction*
G04 #@! TD*
G04 #@! TO.P,R16,1*
G04 #@! TO.N,Net-(R16-Pad1)*
G04 #@! TA.AperFunction,SMDPad,CuDef*
G36*
G01*
X165284999Y-108430000D02*
X166185001Y-108430000D01*
G75*
G02*
X166435000Y-108679999I0J-249999D01*
G01*
X166435000Y-109205001D01*
G75*
G02*
X166185001Y-109455000I-249999J0D01*
G01*
X165284999Y-109455000D01*
G75*
G02*
X165035000Y-109205001I0J249999D01*
G01*
X165035000Y-108679999D01*
G75*
G02*
X165284999Y-108430000I249999J0D01*
G01*
G37*
G04 #@! TD.AperFunction*
G04 #@! TO.P,R16,2*
G04 #@! TO.N,Net-(C5-Pad2)*
G04 #@! TA.AperFunction,SMDPad,CuDef*
G36*
G01*
X165284999Y-110255000D02*
X166185001Y-110255000D01*
G75*
G02*
X166435000Y-110504999I0J-249999D01*
G01*
X166435000Y-111030001D01*
G75*
G02*
X166185001Y-111280000I-249999J0D01*
G01*
X165284999Y-111280000D01*
G75*
G02*
X165035000Y-111030001I0J249999D01*
G01*
X165035000Y-110504999D01*
G75*
G02*
X165284999Y-110255000I249999J0D01*
G01*
G37*
G04 #@! TD.AperFunction*
G04 #@! TD*
G04 #@! TO.P,R17,1*
G04 #@! TO.N,GND*
G04 #@! TA.AperFunction,SMDPad,CuDef*
G36*
G01*
X158565001Y-111280000D02*
X157664999Y-111280000D01*
G75*
G02*
X157415000Y-111030001I0J249999D01*
G01*
X157415000Y-110504999D01*
G75*
G02*
X157664999Y-110255000I249999J0D01*
G01*
X158565001Y-110255000D01*
G75*
G02*
X158815000Y-110504999I0J-249999D01*
G01*
X158815000Y-111030001D01*
G75*
G02*
X158565001Y-111280000I-249999J0D01*
G01*
G37*
G04 #@! TD.AperFunction*
G04 #@! TO.P,R17,2*
G04 #@! TO.N,Net-(Q3-Pad1)*
G04 #@! TA.AperFunction,SMDPad,CuDef*
G36*
G01*
X158565001Y-109455000D02*
X157664999Y-109455000D01*
G75*
G02*
X157415000Y-109205001I0J249999D01*
G01*
X157415000Y-108679999D01*
G75*
G02*
X157664999Y-108430000I249999J0D01*
G01*
X158565001Y-108430000D01*
G75*
G02*
X158815000Y-108679999I0J-249999D01*
G01*
X158815000Y-109205001D01*
G75*
G02*
X158565001Y-109455000I-249999J0D01*
G01*
G37*
G04 #@! TD.AperFunction*
G04 #@! TD*
G04 #@! TO.P,R18,2*
G04 #@! TO.N,+9V*
G04 #@! TA.AperFunction,SMDPad,CuDef*
G36*
G01*
X99879999Y-110255000D02*
X100780001Y-110255000D01*
G75*
G02*
X101030000Y-110504999I0J-249999D01*
G01*
X101030000Y-111030001D01*
G75*
G02*
X100780001Y-111280000I-249999J0D01*
G01*
X99879999Y-111280000D01*
G75*
G02*
X99630000Y-111030001I0J249999D01*
G01*
X99630000Y-110504999D01*
G75*
G02*
X99879999Y-110255000I249999J0D01*
G01*
G37*
G04 #@! TD.AperFunction*
G04 #@! TO.P,R18,1*
G04 #@! TO.N,Net-(C5-Pad2)*
G04 #@! TA.AperFunction,SMDPad,CuDef*
G36*
G01*
X99879999Y-108430000D02*
X100780001Y-108430000D01*
G75*
G02*
X101030000Y-108679999I0J-249999D01*
G01*
X101030000Y-109205001D01*
G75*
G02*
X100780001Y-109455000I-249999J0D01*
G01*
X99879999Y-109455000D01*
G75*
G02*
X99630000Y-109205001I0J249999D01*
G01*
X99630000Y-108679999D01*
G75*
G02*
X99879999Y-108430000I249999J0D01*
G01*
G37*
G04 #@! TD.AperFunction*
G04 #@! TD*
D22*
G04 #@! TO.N,GND*
X105250000Y-120979000D03*
X160250000Y-120988000D03*
X102750000Y-121038000D03*
X162750000Y-120967000D03*
X103632000Y-99060000D03*
X125984000Y-88392000D03*
X132588000Y-92456000D03*
X138176000Y-88392000D03*
X140716000Y-81788000D03*
X144780000Y-84328000D03*
X155448000Y-104648000D03*
X161544000Y-106680000D03*
X139700000Y-112268000D03*
X126492000Y-111252000D03*
X129032000Y-101092000D03*
G04 #@! TO.N,/LEDPower*
X115250000Y-121454000D03*
X150250000Y-121073000D03*
X150368000Y-115316000D03*
X121920000Y-114300000D03*
G04 #@! TO.N,/Input*
X107750000Y-121066000D03*
X157750000Y-121066000D03*
G04 #@! TO.N,/Output*
X110250000Y-121195000D03*
X155250000Y-121068000D03*
G04 #@! TO.N,+9V*
X112750000Y-121235000D03*
X152750000Y-121108000D03*
X117475000Y-114935000D03*
X99695000Y-113665000D03*
G04 #@! TO.N,Net-(D1-Pad1)*
X146304000Y-94996000D03*
G04 #@! TO.N,Net-(C7-Pad2)*
X144272000Y-91440000D03*
G04 #@! TO.N,Net-(C8-Pad2)*
X126365000Y-90805000D03*
G04 #@! TO.N,Net-(C4-Pad1)*
X143510000Y-104140000D03*
G04 #@! TO.N,Net-(C5-Pad1)*
X100330000Y-99695000D03*
G04 #@! TO.N,Net-(C10-Pad2)*
X162560000Y-101092000D03*
X123444000Y-99568000D03*
G04 #@! TO.N,Net-(D3-Pad2)*
X128016000Y-84836000D03*
G04 #@! TO.N,Net-(R16-Pad1)*
X165735000Y-106680000D03*
G04 #@! TD*
D23*
G04 #@! TO.N,GND*
X105250000Y-126000000D02*
X105250000Y-120979000D01*
X160250000Y-126000000D02*
X160250000Y-120988000D01*
X102750000Y-126000000D02*
X102750000Y-121038000D01*
X162750000Y-126000000D02*
X162750000Y-120967000D01*
G04 #@! TO.N,/LEDPower*
X115250000Y-126000000D02*
X115250000Y-121454000D01*
X150250000Y-126000000D02*
X150250000Y-121073000D01*
X150250000Y-115434000D02*
X150368000Y-115316000D01*
X150250000Y-121073000D02*
X150250000Y-115434000D01*
X121920000Y-114784000D02*
X121920000Y-114300000D01*
X115250000Y-121454000D02*
X121920000Y-114784000D01*
G04 #@! TO.N,/Input*
X107750000Y-126000000D02*
X107750000Y-121066000D01*
X157750000Y-126000000D02*
X157750000Y-121066000D01*
X157734000Y-121050000D02*
X157750000Y-121066000D01*
X104140000Y-110767500D02*
X107950000Y-110767500D01*
X107950000Y-120866000D02*
X107750000Y-121066000D01*
X107950000Y-110767500D02*
X107950000Y-120866000D01*
G04 #@! TO.N,/Output*
X110250000Y-126000000D02*
X110250000Y-121195000D01*
X155250000Y-126000000D02*
X155250000Y-121068000D01*
X110250000Y-121045000D02*
X110250000Y-121195000D01*
X161925000Y-114393000D02*
X155250000Y-121068000D01*
X161925000Y-110767500D02*
X161925000Y-114393000D01*
X115570000Y-115875000D02*
X110250000Y-121195000D01*
X115570000Y-106910000D02*
X115570000Y-115875000D01*
G04 #@! TO.N,+9V*
X112750000Y-126000000D02*
X112750000Y-121235000D01*
X152750000Y-126000000D02*
X152750000Y-121108000D01*
X131514999Y-88589999D02*
X134365000Y-91440000D01*
X131514999Y-84027501D02*
X131514999Y-88589999D01*
X133627500Y-81915000D02*
X131514999Y-84027501D01*
X138805000Y-108210000D02*
X140335000Y-106680000D01*
X132715000Y-108210000D02*
X138805000Y-108210000D01*
X139700000Y-106045000D02*
X140335000Y-106680000D01*
X139700000Y-102512500D02*
X139700000Y-106045000D01*
X117475000Y-116510000D02*
X117475000Y-114935000D01*
X112750000Y-121235000D02*
X117475000Y-116510000D01*
X99695000Y-111402500D02*
X100330000Y-110767500D01*
X99695000Y-113665000D02*
X99695000Y-111402500D01*
X124200000Y-108210000D02*
X117475000Y-114935000D01*
X132715000Y-108210000D02*
X124200000Y-108210000D01*
X139700000Y-102512500D02*
X136652000Y-99464500D01*
X136652000Y-93727000D02*
X134365000Y-91440000D01*
X136652000Y-99464500D02*
X136652000Y-93727000D01*
G04 #@! TO.N,Net-(D1-Pad1)*
X129594998Y-76835000D02*
X137795000Y-76835000D01*
X125164978Y-72404980D02*
X129594998Y-76835000D01*
X101105091Y-72404980D02*
X125164978Y-72404980D01*
X100284980Y-73225091D02*
X101105091Y-72404980D01*
X100284980Y-87659946D02*
X100284980Y-73225091D01*
X105460033Y-92834999D02*
X100284980Y-87659946D01*
X113084999Y-92834999D02*
X105460033Y-92834999D01*
X115250000Y-95000000D02*
X113084999Y-92834999D01*
X146308000Y-95000000D02*
X146304000Y-94996000D01*
X150250000Y-95000000D02*
X146308000Y-95000000D01*
G04 #@! TO.N,Net-(C7-Pad2)*
X143867000Y-91845000D02*
X144272000Y-91440000D01*
X141605000Y-91845000D02*
X143867000Y-91845000D01*
G04 #@! TO.N,Net-(C8-Pad2)*
X136247500Y-82192500D02*
X136247500Y-81915000D01*
X132715000Y-85725000D02*
X136247500Y-82192500D01*
X103485010Y-76555010D02*
X102235000Y-75305000D01*
X103485010Y-80233012D02*
X103485010Y-76555010D01*
X114396998Y-91145000D02*
X103485010Y-80233012D01*
X123825000Y-91145000D02*
X114396998Y-91145000D01*
X126025000Y-91145000D02*
X126365000Y-90805000D01*
X123825000Y-91145000D02*
X126025000Y-91145000D01*
G04 #@! TO.N,Net-(C2-Pad1)*
X123530010Y-102297510D02*
X121920000Y-100687500D01*
X123530010Y-106385010D02*
X123530010Y-102297510D01*
X123825000Y-106680000D02*
X123530010Y-106385010D01*
X110096998Y-94385000D02*
X106045000Y-94385000D01*
X116399498Y-100687500D02*
X110096998Y-94385000D01*
X121920000Y-100687500D02*
X116399498Y-100687500D01*
G04 #@! TO.N,Net-(C2-Pad2)*
X102742500Y-97385000D02*
X100330000Y-94972500D01*
X106045000Y-97385000D02*
X102742500Y-97385000D01*
X107950000Y-104775000D02*
X107315000Y-104140000D01*
X107950000Y-108942500D02*
X107950000Y-104775000D01*
X107315000Y-98655000D02*
X106045000Y-97385000D01*
X107315000Y-104140000D02*
X107315000Y-98655000D01*
G04 #@! TO.N,Net-(C3-Pad1)*
X139700000Y-100687500D02*
X143510000Y-100687500D01*
X145307499Y-98890001D02*
X143510000Y-100687500D01*
X157274999Y-98890001D02*
X145307499Y-98890001D01*
X160020000Y-96145000D02*
X157274999Y-98890001D01*
G04 #@! TO.N,Net-(C4-Pad1)*
X120522500Y-103910000D02*
X121920000Y-102512500D01*
X115570000Y-103910000D02*
X120522500Y-103910000D01*
X122555000Y-103147500D02*
X121920000Y-102512500D01*
X122555000Y-106680000D02*
X122555000Y-103147500D01*
X143510000Y-102512500D02*
X143510000Y-104140000D01*
G04 #@! TO.N,Net-(C5-Pad1)*
X131802500Y-81915000D02*
X129182500Y-81915000D01*
X115250000Y-87500000D02*
X112750000Y-87500000D01*
X106045000Y-103324998D02*
X106045000Y-104140000D01*
X104640002Y-101920000D02*
X106045000Y-103324998D01*
X100330000Y-101920000D02*
X104640002Y-101920000D01*
X100330000Y-101920000D02*
X100330000Y-99695000D01*
X119684990Y-83065010D02*
X115250000Y-87500000D01*
X128032490Y-83065010D02*
X119684990Y-83065010D01*
X129182500Y-81915000D02*
X128032490Y-83065010D01*
G04 #@! TO.N,Net-(C5-Pad2)*
X163075010Y-108107510D02*
X165735000Y-110767500D01*
X163075010Y-105290010D02*
X163075010Y-108107510D01*
X161290000Y-103505000D02*
X163075010Y-105290010D01*
X161290000Y-102255000D02*
X161290000Y-103505000D01*
X160810000Y-101775000D02*
X161290000Y-102255000D01*
X151050000Y-101775000D02*
X160810000Y-101775000D01*
X150250000Y-102575000D02*
X151050000Y-101775000D01*
X100330000Y-108942500D02*
X100330000Y-103820000D01*
X136474970Y-71704970D02*
X137795000Y-73025000D01*
X100815138Y-71704970D02*
X136474970Y-71704970D01*
X99154990Y-73365118D02*
X100815138Y-71704970D01*
X99154990Y-102644990D02*
X99154990Y-73365118D01*
X100330000Y-103820000D02*
X99154990Y-102644990D01*
X148300001Y-79323999D02*
X142001002Y-73025000D01*
X148300001Y-81676001D02*
X148300001Y-79323999D01*
X146399999Y-83576003D02*
X148300001Y-81676001D01*
X146399999Y-88148001D02*
X146399999Y-83576003D01*
X142001002Y-73025000D02*
X137795000Y-73025000D01*
X147101999Y-88850001D02*
X146399999Y-88148001D01*
X153398001Y-88850001D02*
X147101999Y-88850001D01*
X160859956Y-88344990D02*
X153903012Y-88344990D01*
X153903012Y-88344990D02*
X153398001Y-88850001D01*
X161970020Y-89455054D02*
X160859956Y-88344990D01*
X161970020Y-100423978D02*
X161970020Y-89455054D01*
X161290000Y-101103998D02*
X161970020Y-100423978D01*
X161290000Y-103505000D02*
X161290000Y-101103998D01*
G04 #@! TO.N,Net-(C6-Pad2)*
X102235000Y-80905000D02*
X102235000Y-86082500D01*
X118547490Y-73104990D02*
X127357500Y-81915000D01*
X101395044Y-73104990D02*
X118547490Y-73104990D01*
X100984990Y-73515044D02*
X101395044Y-73104990D01*
X100984990Y-79654990D02*
X100984990Y-73515044D01*
X102235000Y-80905000D02*
X100984990Y-79654990D01*
X142800001Y-93649999D02*
X141605000Y-94845000D01*
X160564965Y-93649999D02*
X142800001Y-93649999D01*
X161270010Y-94355044D02*
X160564965Y-93649999D01*
X161270010Y-97934956D02*
X161270010Y-94355044D01*
X150445023Y-99590011D02*
X159614955Y-99590011D01*
X159614955Y-99590011D02*
X161270010Y-97934956D01*
X148999990Y-101035044D02*
X150445023Y-99590011D01*
X148999990Y-105724990D02*
X148999990Y-101035044D01*
X150250000Y-106975000D02*
X148999990Y-105724990D01*
X140354999Y-93594999D02*
X140354999Y-90277001D01*
X141605000Y-94845000D02*
X140354999Y-93594999D01*
X140354999Y-90277001D02*
X143256000Y-87376000D01*
X143256000Y-87376000D02*
X143256000Y-80772000D01*
X143256000Y-80772000D02*
X141224000Y-78740000D01*
X130532500Y-78740000D02*
X127357500Y-81915000D01*
X141224000Y-78740000D02*
X130532500Y-78740000D01*
G04 #@! TO.N,Net-(C10-Pad2)*
X165735000Y-77845000D02*
X165735000Y-101322500D01*
X163195000Y-75305000D02*
X165735000Y-77845000D01*
X162790500Y-101322500D02*
X162560000Y-101092000D01*
X165735000Y-101322500D02*
X162790500Y-101322500D01*
X123444000Y-95926000D02*
X123825000Y-95545000D01*
X123444000Y-99568000D02*
X123444000Y-95926000D01*
G04 #@! TO.N,Net-(C10-Pad1)*
X147750000Y-87500000D02*
X150250000Y-87500000D01*
X154799999Y-82950001D02*
X150250000Y-87500000D01*
X161149999Y-82950001D02*
X154799999Y-82950001D01*
X163195000Y-80905000D02*
X161149999Y-82950001D01*
G04 #@! TO.N,Net-(D3-Pad2)*
X132750000Y-97540000D02*
X128016000Y-92806000D01*
X128016000Y-92806000D02*
X128016000Y-84836000D01*
G04 #@! TO.N,Net-(Q1-Pad1)*
X125095000Y-103147500D02*
X125730000Y-102512500D01*
X125095000Y-106680000D02*
X125095000Y-103147500D01*
G04 #@! TO.N,Net-(Q3-Pad1)*
X160020000Y-107037500D02*
X160020000Y-103505000D01*
X158115000Y-108942500D02*
X160020000Y-107037500D01*
X145137500Y-108942500D02*
X142875000Y-106680000D01*
X158115000Y-108942500D02*
X145137500Y-108942500D01*
G04 #@! TO.N,Net-(R9-Pad2)*
X121772500Y-87500000D02*
X124460000Y-84812500D01*
X117750000Y-87500000D02*
X121772500Y-87500000D01*
G04 #@! TO.N,Net-(R13-Pad1)*
X140057500Y-85725000D02*
X140970000Y-84812500D01*
X135255000Y-85725000D02*
X140057500Y-85725000D01*
G04 #@! TO.N,Net-(R16-Pad1)*
X165735000Y-108942500D02*
X165735000Y-106680000D01*
G04 #@! TD*
D24*
G04 #@! TO.N,GND*
X181323001Y-90823000D02*
X179433252Y-90823000D01*
X179400000Y-90819725D01*
X179366748Y-90823000D01*
X179267285Y-90832796D01*
X179139670Y-90871508D01*
X179022059Y-90934372D01*
X178918973Y-91018973D01*
X178834372Y-91122059D01*
X178771508Y-91239670D01*
X178732796Y-91367285D01*
X178719725Y-91500000D01*
X178723001Y-91533262D01*
X178723000Y-92966747D01*
X178719725Y-93000000D01*
X178732796Y-93132715D01*
X178771508Y-93260330D01*
X178834372Y-93377941D01*
X178918973Y-93481027D01*
X178991906Y-93540882D01*
X179022059Y-93565628D01*
X179139670Y-93628492D01*
X179267285Y-93667204D01*
X179400000Y-93680275D01*
X179433252Y-93677000D01*
X181323000Y-93677000D01*
X181323001Y-98966738D01*
X181319725Y-99000000D01*
X181332796Y-99132715D01*
X181371508Y-99260330D01*
X181434372Y-99377941D01*
X181518973Y-99481027D01*
X181622059Y-99565628D01*
X181739670Y-99628492D01*
X181823001Y-99653770D01*
X181823000Y-125323000D01*
X177177000Y-125323000D01*
X177177000Y-119533252D01*
X177180275Y-119500000D01*
X177167204Y-119367285D01*
X177128492Y-119239670D01*
X177065628Y-119122059D01*
X176981027Y-119018973D01*
X176877941Y-118934372D01*
X176760330Y-118871508D01*
X176632715Y-118832796D01*
X176533252Y-118823000D01*
X176500000Y-118819725D01*
X176466748Y-118823000D01*
X165033252Y-118823000D01*
X165000000Y-118819725D01*
X164966748Y-118823000D01*
X164867285Y-118832796D01*
X164739670Y-118871508D01*
X164622059Y-118934372D01*
X164518973Y-119018973D01*
X164434372Y-119122059D01*
X164371508Y-119239670D01*
X164332796Y-119367285D01*
X164319725Y-119500000D01*
X164323001Y-119533262D01*
X164323001Y-121793000D01*
X158627000Y-121793000D01*
X158627000Y-121602027D01*
X158660115Y-121552467D01*
X158737533Y-121365565D01*
X158777000Y-121167151D01*
X158777000Y-120964849D01*
X158737533Y-120766435D01*
X158660115Y-120579533D01*
X158547723Y-120411326D01*
X158404674Y-120268277D01*
X158236467Y-120155885D01*
X158049565Y-120078467D01*
X157851151Y-120039000D01*
X157648849Y-120039000D01*
X157487089Y-120071176D01*
X162514668Y-115043597D01*
X162548133Y-115016133D01*
X162657727Y-114882592D01*
X162739162Y-114730237D01*
X162760066Y-114661326D01*
X162789310Y-114564923D01*
X162806243Y-114393000D01*
X162802000Y-114349921D01*
X162802000Y-111794819D01*
X162863921Y-111761721D01*
X162997278Y-111652278D01*
X163106721Y-111518921D01*
X163188045Y-111366775D01*
X163238123Y-111201687D01*
X163255033Y-111030001D01*
X163255033Y-110504999D01*
X163238123Y-110333313D01*
X163188045Y-110168225D01*
X163106721Y-110016079D01*
X163040540Y-109935438D01*
X163076185Y-109906185D01*
X163155537Y-109809494D01*
X163214502Y-109699180D01*
X163250812Y-109579482D01*
X163255824Y-109528590D01*
X164404967Y-110677733D01*
X164404967Y-111030001D01*
X164421877Y-111201687D01*
X164471955Y-111366775D01*
X164553279Y-111518921D01*
X164662722Y-111652278D01*
X164796079Y-111761721D01*
X164948225Y-111843045D01*
X165113313Y-111893123D01*
X165284999Y-111910033D01*
X166185001Y-111910033D01*
X166356687Y-111893123D01*
X166521775Y-111843045D01*
X166673921Y-111761721D01*
X166807278Y-111652278D01*
X166916721Y-111518921D01*
X166998045Y-111366775D01*
X167048123Y-111201687D01*
X167065033Y-111030001D01*
X167065033Y-110504999D01*
X167048123Y-110333313D01*
X166998045Y-110168225D01*
X166916721Y-110016079D01*
X166807278Y-109882722D01*
X166773499Y-109855000D01*
X166807278Y-109827278D01*
X166916721Y-109693921D01*
X166998045Y-109541775D01*
X167048123Y-109376687D01*
X167065033Y-109205001D01*
X167065033Y-108679999D01*
X167048123Y-108508313D01*
X166998045Y-108343225D01*
X166916721Y-108191079D01*
X166807278Y-108057722D01*
X166673921Y-107948279D01*
X166612000Y-107915181D01*
X166612000Y-107216027D01*
X166645115Y-107166467D01*
X166722533Y-106979565D01*
X166762000Y-106781151D01*
X166762000Y-106578849D01*
X166722533Y-106380435D01*
X166645115Y-106193533D01*
X166532723Y-106025326D01*
X166389674Y-105882277D01*
X166221467Y-105769885D01*
X166034565Y-105692467D01*
X165836151Y-105653000D01*
X165633849Y-105653000D01*
X165435435Y-105692467D01*
X165248533Y-105769885D01*
X165080326Y-105882277D01*
X164937277Y-106025326D01*
X164824885Y-106193533D01*
X164747467Y-106380435D01*
X164708000Y-106578849D01*
X164708000Y-106781151D01*
X164747467Y-106979565D01*
X164824885Y-107166467D01*
X164858001Y-107216028D01*
X164858000Y-107915181D01*
X164796079Y-107948279D01*
X164662722Y-108057722D01*
X164553279Y-108191079D01*
X164499485Y-108291720D01*
X163952010Y-107744245D01*
X163952010Y-105333079D01*
X163956252Y-105290009D01*
X163952010Y-105246940D01*
X163952010Y-105246931D01*
X163939320Y-105118088D01*
X163889172Y-104952773D01*
X163807737Y-104800418D01*
X163698143Y-104666877D01*
X163664679Y-104639414D01*
X162685265Y-103660000D01*
X164396928Y-103660000D01*
X164409188Y-103784482D01*
X164445498Y-103904180D01*
X164504463Y-104014494D01*
X164583815Y-104111185D01*
X164680506Y-104190537D01*
X164790820Y-104249502D01*
X164910518Y-104285812D01*
X165035000Y-104298072D01*
X165449250Y-104295000D01*
X165608000Y-104136250D01*
X165608000Y-103274500D01*
X165862000Y-103274500D01*
X165862000Y-104136250D01*
X166020750Y-104295000D01*
X166435000Y-104298072D01*
X166559482Y-104285812D01*
X166679180Y-104249502D01*
X166789494Y-104190537D01*
X166886185Y-104111185D01*
X166965537Y-104014494D01*
X167024502Y-103904180D01*
X167060812Y-103784482D01*
X167073072Y-103660000D01*
X167070000Y-103433250D01*
X166911250Y-103274500D01*
X165862000Y-103274500D01*
X165608000Y-103274500D01*
X164558750Y-103274500D01*
X164400000Y-103433250D01*
X164396928Y-103660000D01*
X162685265Y-103660000D01*
X162442000Y-103416735D01*
X162442000Y-103223405D01*
X162425332Y-103054169D01*
X162359459Y-102837016D01*
X162252488Y-102636886D01*
X162167000Y-102532720D01*
X162167000Y-102298079D01*
X162171243Y-102255000D01*
X162167000Y-102211920D01*
X162167000Y-102040831D01*
X162260435Y-102079533D01*
X162397323Y-102106762D01*
X162453263Y-102136662D01*
X162618578Y-102186810D01*
X162747421Y-102199500D01*
X162747430Y-102199500D01*
X162790499Y-102203742D01*
X162833569Y-102199500D01*
X164570943Y-102199500D01*
X164504463Y-102280506D01*
X164445498Y-102390820D01*
X164409188Y-102510518D01*
X164396928Y-102635000D01*
X164400000Y-102861750D01*
X164558750Y-103020500D01*
X165608000Y-103020500D01*
X165608000Y-103000500D01*
X165862000Y-103000500D01*
X165862000Y-103020500D01*
X166911250Y-103020500D01*
X167070000Y-102861750D01*
X167073072Y-102635000D01*
X167060812Y-102510518D01*
X167024502Y-102390820D01*
X166965537Y-102280506D01*
X166886185Y-102183815D01*
X166850540Y-102154562D01*
X166916721Y-102073921D01*
X166998045Y-101921775D01*
X167048123Y-101756687D01*
X167065033Y-101585001D01*
X167065033Y-101059999D01*
X167048123Y-100888313D01*
X166998045Y-100723225D01*
X166916721Y-100571079D01*
X166807278Y-100437722D01*
X166673921Y-100328279D01*
X166612000Y-100295181D01*
X166612000Y-77888069D01*
X166616242Y-77844999D01*
X166612000Y-77801930D01*
X166612000Y-77801921D01*
X166599310Y-77673078D01*
X166549162Y-77507763D01*
X166467727Y-77355408D01*
X166358133Y-77221867D01*
X166324669Y-77194404D01*
X164625033Y-75494768D01*
X164625033Y-73805000D01*
X164608123Y-73633314D01*
X164558044Y-73468226D01*
X164476721Y-73316080D01*
X164367277Y-73182723D01*
X164233920Y-73073279D01*
X164081774Y-72991956D01*
X163916686Y-72941877D01*
X163745000Y-72924967D01*
X162645000Y-72924967D01*
X162473314Y-72941877D01*
X162308226Y-72991956D01*
X162156080Y-73073279D01*
X162022723Y-73182723D01*
X161913279Y-73316080D01*
X161831956Y-73468226D01*
X161781877Y-73633314D01*
X161764967Y-73805000D01*
X161764967Y-76805000D01*
X161781877Y-76976686D01*
X161831956Y-77141774D01*
X161913279Y-77293920D01*
X162022723Y-77427277D01*
X162156080Y-77536721D01*
X162308226Y-77618044D01*
X162473314Y-77668123D01*
X162645000Y-77685033D01*
X163745000Y-77685033D01*
X163916686Y-77668123D01*
X164081774Y-77618044D01*
X164202989Y-77553254D01*
X164858000Y-78208265D01*
X164858001Y-100295181D01*
X164796079Y-100328279D01*
X164662722Y-100437722D01*
X164656339Y-100445500D01*
X163363185Y-100445500D01*
X163357723Y-100437326D01*
X163214674Y-100294277D01*
X163046467Y-100181885D01*
X162859565Y-100104467D01*
X162847020Y-100101972D01*
X162847020Y-89498133D01*
X162851263Y-89455054D01*
X162834330Y-89283131D01*
X162784182Y-89117817D01*
X162762748Y-89077717D01*
X162702747Y-88965462D01*
X162593153Y-88831921D01*
X162559688Y-88804457D01*
X161510553Y-87755322D01*
X161483089Y-87721857D01*
X161349548Y-87612263D01*
X161197193Y-87530828D01*
X161031878Y-87480680D01*
X160903035Y-87467990D01*
X160859956Y-87463747D01*
X160816877Y-87467990D01*
X154277000Y-87467990D01*
X154277000Y-87349604D01*
X154218319Y-87054590D01*
X154103210Y-86776694D01*
X153936099Y-86526594D01*
X153723406Y-86313901D01*
X153473306Y-86146790D01*
X153195410Y-86031681D01*
X152997875Y-85992390D01*
X155163264Y-83827001D01*
X161106920Y-83827001D01*
X161149999Y-83831244D01*
X161193078Y-83827001D01*
X161281634Y-83818279D01*
X161321921Y-83814311D01*
X161376561Y-83797736D01*
X161487236Y-83764163D01*
X161639591Y-83682728D01*
X161773132Y-83573134D01*
X161800596Y-83539669D01*
X162187011Y-83153254D01*
X162308226Y-83218044D01*
X162473314Y-83268123D01*
X162645000Y-83285033D01*
X163745000Y-83285033D01*
X163916686Y-83268123D01*
X164081774Y-83218044D01*
X164233920Y-83136721D01*
X164367277Y-83027277D01*
X164476721Y-82893920D01*
X164558044Y-82741774D01*
X164608123Y-82576686D01*
X164625033Y-82405000D01*
X164625033Y-79405000D01*
X164608123Y-79233314D01*
X164558044Y-79068226D01*
X164476721Y-78916080D01*
X164367277Y-78782723D01*
X164233920Y-78673279D01*
X164081774Y-78591956D01*
X163916686Y-78541877D01*
X163745000Y-78524967D01*
X162645000Y-78524967D01*
X162473314Y-78541877D01*
X162308226Y-78591956D01*
X162156080Y-78673279D01*
X162022723Y-78782723D01*
X161913279Y-78916080D01*
X161831956Y-79068226D01*
X161781877Y-79233314D01*
X161764967Y-79405000D01*
X161764967Y-81094768D01*
X160786734Y-82073001D01*
X156758420Y-82073001D01*
X156978017Y-81744351D01*
X157176046Y-81266268D01*
X157277000Y-80758737D01*
X157277000Y-80241263D01*
X157176046Y-79733732D01*
X156978017Y-79255649D01*
X156690524Y-78825385D01*
X156324615Y-78459476D01*
X155894351Y-78171983D01*
X155416268Y-77973954D01*
X154908737Y-77873000D01*
X154391263Y-77873000D01*
X153883732Y-77973954D01*
X153405649Y-78171983D01*
X152975385Y-78459476D01*
X152609476Y-78825385D01*
X152321983Y-79255649D01*
X152123954Y-79733732D01*
X152023000Y-80241263D01*
X152023000Y-80758737D01*
X152123954Y-81266268D01*
X152321983Y-81744351D01*
X152609476Y-82174615D01*
X152975385Y-82540524D01*
X153405649Y-82828017D01*
X153600859Y-82908876D01*
X150514115Y-85995620D01*
X150400396Y-85973000D01*
X150099604Y-85973000D01*
X149804590Y-86031681D01*
X149526694Y-86146790D01*
X149276594Y-86313901D01*
X149063901Y-86526594D01*
X149000000Y-86622229D01*
X148936099Y-86526594D01*
X148723406Y-86313901D01*
X148473306Y-86146790D01*
X148195410Y-86031681D01*
X147900396Y-85973000D01*
X147599604Y-85973000D01*
X147304590Y-86031681D01*
X147276999Y-86043110D01*
X147276999Y-83939268D01*
X148889670Y-82326597D01*
X148923134Y-82299134D01*
X149032728Y-82165593D01*
X149114163Y-82013238D01*
X149157031Y-81871922D01*
X149164311Y-81847924D01*
X149181244Y-81676001D01*
X149177001Y-81632922D01*
X149177001Y-79367078D01*
X149181244Y-79323999D01*
X149164311Y-79152076D01*
X149114163Y-78986762D01*
X149032727Y-78834406D01*
X148950595Y-78734327D01*
X148950593Y-78734325D01*
X148923134Y-78700866D01*
X148889675Y-78673407D01*
X142651599Y-72435332D01*
X142624135Y-72401867D01*
X142490594Y-72292273D01*
X142338239Y-72210838D01*
X142172924Y-72160690D01*
X142044081Y-72148000D01*
X142001002Y-72143757D01*
X141957923Y-72148000D01*
X138925247Y-72148000D01*
X138903424Y-72115340D01*
X138704660Y-71916576D01*
X138470938Y-71760409D01*
X138211241Y-71652838D01*
X137935547Y-71598000D01*
X137654453Y-71598000D01*
X137615928Y-71605663D01*
X137125567Y-71115302D01*
X137098103Y-71081837D01*
X136964562Y-70972243D01*
X136812207Y-70890808D01*
X136646892Y-70840660D01*
X136518049Y-70827970D01*
X136474970Y-70823727D01*
X136431891Y-70827970D01*
X100858217Y-70827970D01*
X100815138Y-70823727D01*
X100643215Y-70840660D01*
X100477901Y-70890808D01*
X100325546Y-70972243D01*
X100192005Y-71081837D01*
X100164546Y-71115296D01*
X98565317Y-72714526D01*
X98531858Y-72741985D01*
X98504399Y-72775444D01*
X98504396Y-72775447D01*
X98422264Y-72875526D01*
X98340828Y-73027882D01*
X98290680Y-73193196D01*
X98273747Y-73365118D01*
X98277991Y-73408208D01*
X98277990Y-102601910D01*
X98273747Y-102644990D01*
X98290680Y-102816912D01*
X98327642Y-102938757D01*
X98340828Y-102982226D01*
X98422263Y-103134581D01*
X98531857Y-103268123D01*
X98565321Y-103295586D01*
X98974967Y-103705232D01*
X98974967Y-104070000D01*
X98991877Y-104241686D01*
X99041956Y-104406774D01*
X99123279Y-104558920D01*
X99232723Y-104692277D01*
X99366080Y-104801721D01*
X99453001Y-104848181D01*
X99453000Y-107915181D01*
X99391079Y-107948279D01*
X99257722Y-108057722D01*
X99148279Y-108191079D01*
X99066955Y-108343225D01*
X99016877Y-108508313D01*
X98999967Y-108679999D01*
X98999967Y-109205001D01*
X99016877Y-109376687D01*
X99066955Y-109541775D01*
X99148279Y-109693921D01*
X99257722Y-109827278D01*
X99291501Y-109855000D01*
X99257722Y-109882722D01*
X99148279Y-110016079D01*
X99066955Y-110168225D01*
X99016877Y-110333313D01*
X98999967Y-110504999D01*
X98999967Y-110866979D01*
X98962274Y-110912908D01*
X98880838Y-111065264D01*
X98830690Y-111230578D01*
X98813757Y-111402500D01*
X98818001Y-111445589D01*
X98818000Y-113128972D01*
X98784885Y-113178533D01*
X98707467Y-113365435D01*
X98668000Y-113563849D01*
X98668000Y-113766151D01*
X98707467Y-113964565D01*
X98784885Y-114151467D01*
X98897277Y-114319674D01*
X99040326Y-114462723D01*
X99208533Y-114575115D01*
X99395435Y-114652533D01*
X99593849Y-114692000D01*
X99796151Y-114692000D01*
X99994565Y-114652533D01*
X100181467Y-114575115D01*
X100349674Y-114462723D01*
X100492723Y-114319674D01*
X100605115Y-114151467D01*
X100682533Y-113964565D01*
X100722000Y-113766151D01*
X100722000Y-113563849D01*
X100682533Y-113365435D01*
X100605115Y-113178533D01*
X100572000Y-113128973D01*
X100572000Y-111910033D01*
X100780001Y-111910033D01*
X100951687Y-111893123D01*
X101116775Y-111843045D01*
X101268921Y-111761721D01*
X101402278Y-111652278D01*
X101511721Y-111518921D01*
X101593045Y-111366775D01*
X101643123Y-111201687D01*
X101660033Y-111030001D01*
X101660033Y-110504999D01*
X101643123Y-110333313D01*
X101593045Y-110168225D01*
X101511721Y-110016079D01*
X101402278Y-109882722D01*
X101368499Y-109855000D01*
X101402278Y-109827278D01*
X101511721Y-109693921D01*
X101593045Y-109541775D01*
X101643123Y-109376687D01*
X101660033Y-109205001D01*
X101660033Y-108679999D01*
X101643123Y-108508313D01*
X101619368Y-108430000D01*
X102801928Y-108430000D01*
X102805000Y-108656750D01*
X102963750Y-108815500D01*
X104013000Y-108815500D01*
X104013000Y-107953750D01*
X104267000Y-107953750D01*
X104267000Y-108815500D01*
X105316250Y-108815500D01*
X105475000Y-108656750D01*
X105478072Y-108430000D01*
X105465812Y-108305518D01*
X105429502Y-108185820D01*
X105370537Y-108075506D01*
X105291185Y-107978815D01*
X105194494Y-107899463D01*
X105084180Y-107840498D01*
X104964482Y-107804188D01*
X104840000Y-107791928D01*
X104425750Y-107795000D01*
X104267000Y-107953750D01*
X104013000Y-107953750D01*
X103854250Y-107795000D01*
X103440000Y-107791928D01*
X103315518Y-107804188D01*
X103195820Y-107840498D01*
X103085506Y-107899463D01*
X102988815Y-107978815D01*
X102909463Y-108075506D01*
X102850498Y-108185820D01*
X102814188Y-108305518D01*
X102801928Y-108430000D01*
X101619368Y-108430000D01*
X101593045Y-108343225D01*
X101511721Y-108191079D01*
X101402278Y-108057722D01*
X101268921Y-107948279D01*
X101207000Y-107915181D01*
X101207000Y-104890000D01*
X103611928Y-104890000D01*
X103624188Y-105014482D01*
X103660498Y-105134180D01*
X103719463Y-105244494D01*
X103798815Y-105341185D01*
X103895506Y-105420537D01*
X104005820Y-105479502D01*
X104125518Y-105515812D01*
X104250000Y-105528072D01*
X104489250Y-105525000D01*
X104648000Y-105366250D01*
X104648000Y-104267000D01*
X103773750Y-104267000D01*
X103615000Y-104425750D01*
X103611928Y-104890000D01*
X101207000Y-104890000D01*
X101207000Y-104848180D01*
X101293920Y-104801721D01*
X101427277Y-104692277D01*
X101536721Y-104558920D01*
X101618044Y-104406774D01*
X101668123Y-104241686D01*
X101685033Y-104070000D01*
X101685033Y-103570000D01*
X101668123Y-103398314D01*
X101618044Y-103233226D01*
X101536721Y-103081080D01*
X101427277Y-102947723D01*
X101332572Y-102870000D01*
X101421522Y-102797000D01*
X104017351Y-102797000D01*
X104005820Y-102800498D01*
X103895506Y-102859463D01*
X103798815Y-102938815D01*
X103719463Y-103035506D01*
X103660498Y-103145820D01*
X103624188Y-103265518D01*
X103611928Y-103390000D01*
X103615000Y-103854250D01*
X103773750Y-104013000D01*
X104648000Y-104013000D01*
X104648000Y-103993000D01*
X104893000Y-103993000D01*
X104893000Y-104421595D01*
X104902000Y-104512975D01*
X104902000Y-105366250D01*
X105060750Y-105525000D01*
X105300000Y-105528072D01*
X105424482Y-105515812D01*
X105544180Y-105479502D01*
X105618879Y-105439574D01*
X105819170Y-105500332D01*
X106045000Y-105522574D01*
X106270831Y-105500332D01*
X106487984Y-105434459D01*
X106680001Y-105331825D01*
X106872017Y-105434459D01*
X107073001Y-105495427D01*
X107073000Y-107915181D01*
X107011079Y-107948279D01*
X106877722Y-108057722D01*
X106768279Y-108191079D01*
X106686955Y-108343225D01*
X106636877Y-108508313D01*
X106619967Y-108679999D01*
X106619967Y-109205001D01*
X106636877Y-109376687D01*
X106686955Y-109541775D01*
X106768279Y-109693921D01*
X106877722Y-109827278D01*
X106911501Y-109855000D01*
X106877722Y-109882722D01*
X106871339Y-109890500D01*
X105304057Y-109890500D01*
X105370537Y-109809494D01*
X105429502Y-109699180D01*
X105465812Y-109579482D01*
X105478072Y-109455000D01*
X105475000Y-109228250D01*
X105316250Y-109069500D01*
X104267000Y-109069500D01*
X104267000Y-109089500D01*
X104013000Y-109089500D01*
X104013000Y-109069500D01*
X102963750Y-109069500D01*
X102805000Y-109228250D01*
X102801928Y-109455000D01*
X102814188Y-109579482D01*
X102850498Y-109699180D01*
X102909463Y-109809494D01*
X102988815Y-109906185D01*
X103024460Y-109935438D01*
X102958279Y-110016079D01*
X102876955Y-110168225D01*
X102826877Y-110333313D01*
X102809967Y-110504999D01*
X102809967Y-111030001D01*
X102826877Y-111201687D01*
X102876955Y-111366775D01*
X102958279Y-111518921D01*
X103067722Y-111652278D01*
X103201079Y-111761721D01*
X103353225Y-111843045D01*
X103518313Y-111893123D01*
X103689999Y-111910033D01*
X104590001Y-111910033D01*
X104761687Y-111893123D01*
X104926775Y-111843045D01*
X105078921Y-111761721D01*
X105212278Y-111652278D01*
X105218661Y-111644500D01*
X106871339Y-111644500D01*
X106877722Y-111652278D01*
X107011079Y-111761721D01*
X107073000Y-111794819D01*
X107073001Y-120290602D01*
X106952277Y-120411326D01*
X106839885Y-120579533D01*
X106762467Y-120766435D01*
X106723000Y-120964849D01*
X106723000Y-121167151D01*
X106762467Y-121365565D01*
X106839885Y-121552467D01*
X106873001Y-121602029D01*
X106873001Y-121793000D01*
X101177000Y-121793000D01*
X101177000Y-119533252D01*
X101180275Y-119500000D01*
X101167204Y-119367285D01*
X101128492Y-119239670D01*
X101065628Y-119122059D01*
X100981027Y-119018973D01*
X100877941Y-118934372D01*
X100760330Y-118871508D01*
X100632715Y-118832796D01*
X100533252Y-118823000D01*
X100500000Y-118819725D01*
X100466748Y-118823000D01*
X89033252Y-118823000D01*
X89000000Y-118819725D01*
X88966748Y-118823000D01*
X88867285Y-118832796D01*
X88739670Y-118871508D01*
X88622059Y-118934372D01*
X88518973Y-119018973D01*
X88434372Y-119122059D01*
X88371508Y-119239670D01*
X88332796Y-119367285D01*
X88319725Y-119500000D01*
X88323000Y-119533252D01*
X88323001Y-125323000D01*
X83177000Y-125323000D01*
X83177000Y-98177000D01*
X83466748Y-98177000D01*
X83500000Y-98180275D01*
X83533252Y-98177000D01*
X83632715Y-98167204D01*
X83760330Y-98128492D01*
X83877941Y-98065628D01*
X83981027Y-97981027D01*
X84065628Y-97877941D01*
X84128492Y-97760330D01*
X84167204Y-97632715D01*
X84180275Y-97500000D01*
X84177000Y-97466748D01*
X84177000Y-95177000D01*
X85966748Y-95177000D01*
X86000000Y-95180275D01*
X86033252Y-95177000D01*
X86132715Y-95167204D01*
X86260330Y-95128492D01*
X86377941Y-95065628D01*
X86481027Y-94981027D01*
X86565628Y-94877941D01*
X86628492Y-94760330D01*
X86667204Y-94632715D01*
X86680275Y-94500000D01*
X86677000Y-94466748D01*
X86677000Y-93033251D01*
X86680275Y-93000000D01*
X86667204Y-92867285D01*
X86628492Y-92739670D01*
X86565628Y-92622059D01*
X86481027Y-92518973D01*
X86377941Y-92434372D01*
X86260330Y-92371508D01*
X86132715Y-92332796D01*
X86033252Y-92323000D01*
X86000000Y-92319725D01*
X85966748Y-92323000D01*
X83177000Y-92323000D01*
X83177000Y-73177000D01*
X83266748Y-73177000D01*
X83300000Y-73180275D01*
X83333252Y-73177000D01*
X83432715Y-73167204D01*
X83560330Y-73128492D01*
X83677941Y-73065628D01*
X83781027Y-72981027D01*
X83865628Y-72877941D01*
X83928492Y-72760330D01*
X83967204Y-72632715D01*
X83980275Y-72500000D01*
X83977000Y-72466748D01*
X83977000Y-70677000D01*
X181323000Y-70677000D01*
X181323001Y-90823000D01*
G04 #@! TA.AperFunction,Conductor*
D25*
G36*
X181323001Y-90823000D02*
G01*
X179433252Y-90823000D01*
X179400000Y-90819725D01*
X179366748Y-90823000D01*
X179267285Y-90832796D01*
X179139670Y-90871508D01*
X179022059Y-90934372D01*
X178918973Y-91018973D01*
X178834372Y-91122059D01*
X178771508Y-91239670D01*
X178732796Y-91367285D01*
X178719725Y-91500000D01*
X178723001Y-91533262D01*
X178723000Y-92966747D01*
X178719725Y-93000000D01*
X178732796Y-93132715D01*
X178771508Y-93260330D01*
X178834372Y-93377941D01*
X178918973Y-93481027D01*
X178991906Y-93540882D01*
X179022059Y-93565628D01*
X179139670Y-93628492D01*
X179267285Y-93667204D01*
X179400000Y-93680275D01*
X179433252Y-93677000D01*
X181323000Y-93677000D01*
X181323001Y-98966738D01*
X181319725Y-99000000D01*
X181332796Y-99132715D01*
X181371508Y-99260330D01*
X181434372Y-99377941D01*
X181518973Y-99481027D01*
X181622059Y-99565628D01*
X181739670Y-99628492D01*
X181823001Y-99653770D01*
X181823000Y-125323000D01*
X177177000Y-125323000D01*
X177177000Y-119533252D01*
X177180275Y-119500000D01*
X177167204Y-119367285D01*
X177128492Y-119239670D01*
X177065628Y-119122059D01*
X176981027Y-119018973D01*
X176877941Y-118934372D01*
X176760330Y-118871508D01*
X176632715Y-118832796D01*
X176533252Y-118823000D01*
X176500000Y-118819725D01*
X176466748Y-118823000D01*
X165033252Y-118823000D01*
X165000000Y-118819725D01*
X164966748Y-118823000D01*
X164867285Y-118832796D01*
X164739670Y-118871508D01*
X164622059Y-118934372D01*
X164518973Y-119018973D01*
X164434372Y-119122059D01*
X164371508Y-119239670D01*
X164332796Y-119367285D01*
X164319725Y-119500000D01*
X164323001Y-119533262D01*
X164323001Y-121793000D01*
X158627000Y-121793000D01*
X158627000Y-121602027D01*
X158660115Y-121552467D01*
X158737533Y-121365565D01*
X158777000Y-121167151D01*
X158777000Y-120964849D01*
X158737533Y-120766435D01*
X158660115Y-120579533D01*
X158547723Y-120411326D01*
X158404674Y-120268277D01*
X158236467Y-120155885D01*
X158049565Y-120078467D01*
X157851151Y-120039000D01*
X157648849Y-120039000D01*
X157487089Y-120071176D01*
X162514668Y-115043597D01*
X162548133Y-115016133D01*
X162657727Y-114882592D01*
X162739162Y-114730237D01*
X162760066Y-114661326D01*
X162789310Y-114564923D01*
X162806243Y-114393000D01*
X162802000Y-114349921D01*
X162802000Y-111794819D01*
X162863921Y-111761721D01*
X162997278Y-111652278D01*
X163106721Y-111518921D01*
X163188045Y-111366775D01*
X163238123Y-111201687D01*
X163255033Y-111030001D01*
X163255033Y-110504999D01*
X163238123Y-110333313D01*
X163188045Y-110168225D01*
X163106721Y-110016079D01*
X163040540Y-109935438D01*
X163076185Y-109906185D01*
X163155537Y-109809494D01*
X163214502Y-109699180D01*
X163250812Y-109579482D01*
X163255824Y-109528590D01*
X164404967Y-110677733D01*
X164404967Y-111030001D01*
X164421877Y-111201687D01*
X164471955Y-111366775D01*
X164553279Y-111518921D01*
X164662722Y-111652278D01*
X164796079Y-111761721D01*
X164948225Y-111843045D01*
X165113313Y-111893123D01*
X165284999Y-111910033D01*
X166185001Y-111910033D01*
X166356687Y-111893123D01*
X166521775Y-111843045D01*
X166673921Y-111761721D01*
X166807278Y-111652278D01*
X166916721Y-111518921D01*
X166998045Y-111366775D01*
X167048123Y-111201687D01*
X167065033Y-111030001D01*
X167065033Y-110504999D01*
X167048123Y-110333313D01*
X166998045Y-110168225D01*
X166916721Y-110016079D01*
X166807278Y-109882722D01*
X166773499Y-109855000D01*
X166807278Y-109827278D01*
X166916721Y-109693921D01*
X166998045Y-109541775D01*
X167048123Y-109376687D01*
X167065033Y-109205001D01*
X167065033Y-108679999D01*
X167048123Y-108508313D01*
X166998045Y-108343225D01*
X166916721Y-108191079D01*
X166807278Y-108057722D01*
X166673921Y-107948279D01*
X166612000Y-107915181D01*
X166612000Y-107216027D01*
X166645115Y-107166467D01*
X166722533Y-106979565D01*
X166762000Y-106781151D01*
X166762000Y-106578849D01*
X166722533Y-106380435D01*
X166645115Y-106193533D01*
X166532723Y-106025326D01*
X166389674Y-105882277D01*
X166221467Y-105769885D01*
X166034565Y-105692467D01*
X165836151Y-105653000D01*
X165633849Y-105653000D01*
X165435435Y-105692467D01*
X165248533Y-105769885D01*
X165080326Y-105882277D01*
X164937277Y-106025326D01*
X164824885Y-106193533D01*
X164747467Y-106380435D01*
X164708000Y-106578849D01*
X164708000Y-106781151D01*
X164747467Y-106979565D01*
X164824885Y-107166467D01*
X164858001Y-107216028D01*
X164858000Y-107915181D01*
X164796079Y-107948279D01*
X164662722Y-108057722D01*
X164553279Y-108191079D01*
X164499485Y-108291720D01*
X163952010Y-107744245D01*
X163952010Y-105333079D01*
X163956252Y-105290009D01*
X163952010Y-105246940D01*
X163952010Y-105246931D01*
X163939320Y-105118088D01*
X163889172Y-104952773D01*
X163807737Y-104800418D01*
X163698143Y-104666877D01*
X163664679Y-104639414D01*
X162685265Y-103660000D01*
X164396928Y-103660000D01*
X164409188Y-103784482D01*
X164445498Y-103904180D01*
X164504463Y-104014494D01*
X164583815Y-104111185D01*
X164680506Y-104190537D01*
X164790820Y-104249502D01*
X164910518Y-104285812D01*
X165035000Y-104298072D01*
X165449250Y-104295000D01*
X165608000Y-104136250D01*
X165608000Y-103274500D01*
X165862000Y-103274500D01*
X165862000Y-104136250D01*
X166020750Y-104295000D01*
X166435000Y-104298072D01*
X166559482Y-104285812D01*
X166679180Y-104249502D01*
X166789494Y-104190537D01*
X166886185Y-104111185D01*
X166965537Y-104014494D01*
X167024502Y-103904180D01*
X167060812Y-103784482D01*
X167073072Y-103660000D01*
X167070000Y-103433250D01*
X166911250Y-103274500D01*
X165862000Y-103274500D01*
X165608000Y-103274500D01*
X164558750Y-103274500D01*
X164400000Y-103433250D01*
X164396928Y-103660000D01*
X162685265Y-103660000D01*
X162442000Y-103416735D01*
X162442000Y-103223405D01*
X162425332Y-103054169D01*
X162359459Y-102837016D01*
X162252488Y-102636886D01*
X162167000Y-102532720D01*
X162167000Y-102298079D01*
X162171243Y-102255000D01*
X162167000Y-102211920D01*
X162167000Y-102040831D01*
X162260435Y-102079533D01*
X162397323Y-102106762D01*
X162453263Y-102136662D01*
X162618578Y-102186810D01*
X162747421Y-102199500D01*
X162747430Y-102199500D01*
X162790499Y-102203742D01*
X162833569Y-102199500D01*
X164570943Y-102199500D01*
X164504463Y-102280506D01*
X164445498Y-102390820D01*
X164409188Y-102510518D01*
X164396928Y-102635000D01*
X164400000Y-102861750D01*
X164558750Y-103020500D01*
X165608000Y-103020500D01*
X165608000Y-103000500D01*
X165862000Y-103000500D01*
X165862000Y-103020500D01*
X166911250Y-103020500D01*
X167070000Y-102861750D01*
X167073072Y-102635000D01*
X167060812Y-102510518D01*
X167024502Y-102390820D01*
X166965537Y-102280506D01*
X166886185Y-102183815D01*
X166850540Y-102154562D01*
X166916721Y-102073921D01*
X166998045Y-101921775D01*
X167048123Y-101756687D01*
X167065033Y-101585001D01*
X167065033Y-101059999D01*
X167048123Y-100888313D01*
X166998045Y-100723225D01*
X166916721Y-100571079D01*
X166807278Y-100437722D01*
X166673921Y-100328279D01*
X166612000Y-100295181D01*
X166612000Y-77888069D01*
X166616242Y-77844999D01*
X166612000Y-77801930D01*
X166612000Y-77801921D01*
X166599310Y-77673078D01*
X166549162Y-77507763D01*
X166467727Y-77355408D01*
X166358133Y-77221867D01*
X166324669Y-77194404D01*
X164625033Y-75494768D01*
X164625033Y-73805000D01*
X164608123Y-73633314D01*
X164558044Y-73468226D01*
X164476721Y-73316080D01*
X164367277Y-73182723D01*
X164233920Y-73073279D01*
X164081774Y-72991956D01*
X163916686Y-72941877D01*
X163745000Y-72924967D01*
X162645000Y-72924967D01*
X162473314Y-72941877D01*
X162308226Y-72991956D01*
X162156080Y-73073279D01*
X162022723Y-73182723D01*
X161913279Y-73316080D01*
X161831956Y-73468226D01*
X161781877Y-73633314D01*
X161764967Y-73805000D01*
X161764967Y-76805000D01*
X161781877Y-76976686D01*
X161831956Y-77141774D01*
X161913279Y-77293920D01*
X162022723Y-77427277D01*
X162156080Y-77536721D01*
X162308226Y-77618044D01*
X162473314Y-77668123D01*
X162645000Y-77685033D01*
X163745000Y-77685033D01*
X163916686Y-77668123D01*
X164081774Y-77618044D01*
X164202989Y-77553254D01*
X164858000Y-78208265D01*
X164858001Y-100295181D01*
X164796079Y-100328279D01*
X164662722Y-100437722D01*
X164656339Y-100445500D01*
X163363185Y-100445500D01*
X163357723Y-100437326D01*
X163214674Y-100294277D01*
X163046467Y-100181885D01*
X162859565Y-100104467D01*
X162847020Y-100101972D01*
X162847020Y-89498133D01*
X162851263Y-89455054D01*
X162834330Y-89283131D01*
X162784182Y-89117817D01*
X162762748Y-89077717D01*
X162702747Y-88965462D01*
X162593153Y-88831921D01*
X162559688Y-88804457D01*
X161510553Y-87755322D01*
X161483089Y-87721857D01*
X161349548Y-87612263D01*
X161197193Y-87530828D01*
X161031878Y-87480680D01*
X160903035Y-87467990D01*
X160859956Y-87463747D01*
X160816877Y-87467990D01*
X154277000Y-87467990D01*
X154277000Y-87349604D01*
X154218319Y-87054590D01*
X154103210Y-86776694D01*
X153936099Y-86526594D01*
X153723406Y-86313901D01*
X153473306Y-86146790D01*
X153195410Y-86031681D01*
X152997875Y-85992390D01*
X155163264Y-83827001D01*
X161106920Y-83827001D01*
X161149999Y-83831244D01*
X161193078Y-83827001D01*
X161281634Y-83818279D01*
X161321921Y-83814311D01*
X161376561Y-83797736D01*
X161487236Y-83764163D01*
X161639591Y-83682728D01*
X161773132Y-83573134D01*
X161800596Y-83539669D01*
X162187011Y-83153254D01*
X162308226Y-83218044D01*
X162473314Y-83268123D01*
X162645000Y-83285033D01*
X163745000Y-83285033D01*
X163916686Y-83268123D01*
X164081774Y-83218044D01*
X164233920Y-83136721D01*
X164367277Y-83027277D01*
X164476721Y-82893920D01*
X164558044Y-82741774D01*
X164608123Y-82576686D01*
X164625033Y-82405000D01*
X164625033Y-79405000D01*
X164608123Y-79233314D01*
X164558044Y-79068226D01*
X164476721Y-78916080D01*
X164367277Y-78782723D01*
X164233920Y-78673279D01*
X164081774Y-78591956D01*
X163916686Y-78541877D01*
X163745000Y-78524967D01*
X162645000Y-78524967D01*
X162473314Y-78541877D01*
X162308226Y-78591956D01*
X162156080Y-78673279D01*
X162022723Y-78782723D01*
X161913279Y-78916080D01*
X161831956Y-79068226D01*
X161781877Y-79233314D01*
X161764967Y-79405000D01*
X161764967Y-81094768D01*
X160786734Y-82073001D01*
X156758420Y-82073001D01*
X156978017Y-81744351D01*
X157176046Y-81266268D01*
X157277000Y-80758737D01*
X157277000Y-80241263D01*
X157176046Y-79733732D01*
X156978017Y-79255649D01*
X156690524Y-78825385D01*
X156324615Y-78459476D01*
X155894351Y-78171983D01*
X155416268Y-77973954D01*
X154908737Y-77873000D01*
X154391263Y-77873000D01*
X153883732Y-77973954D01*
X153405649Y-78171983D01*
X152975385Y-78459476D01*
X152609476Y-78825385D01*
X152321983Y-79255649D01*
X152123954Y-79733732D01*
X152023000Y-80241263D01*
X152023000Y-80758737D01*
X152123954Y-81266268D01*
X152321983Y-81744351D01*
X152609476Y-82174615D01*
X152975385Y-82540524D01*
X153405649Y-82828017D01*
X153600859Y-82908876D01*
X150514115Y-85995620D01*
X150400396Y-85973000D01*
X150099604Y-85973000D01*
X149804590Y-86031681D01*
X149526694Y-86146790D01*
X149276594Y-86313901D01*
X149063901Y-86526594D01*
X149000000Y-86622229D01*
X148936099Y-86526594D01*
X148723406Y-86313901D01*
X148473306Y-86146790D01*
X148195410Y-86031681D01*
X147900396Y-85973000D01*
X147599604Y-85973000D01*
X147304590Y-86031681D01*
X147276999Y-86043110D01*
X147276999Y-83939268D01*
X148889670Y-82326597D01*
X148923134Y-82299134D01*
X149032728Y-82165593D01*
X149114163Y-82013238D01*
X149157031Y-81871922D01*
X149164311Y-81847924D01*
X149181244Y-81676001D01*
X149177001Y-81632922D01*
X149177001Y-79367078D01*
X149181244Y-79323999D01*
X149164311Y-79152076D01*
X149114163Y-78986762D01*
X149032727Y-78834406D01*
X148950595Y-78734327D01*
X148950593Y-78734325D01*
X148923134Y-78700866D01*
X148889675Y-78673407D01*
X142651599Y-72435332D01*
X142624135Y-72401867D01*
X142490594Y-72292273D01*
X142338239Y-72210838D01*
X142172924Y-72160690D01*
X142044081Y-72148000D01*
X142001002Y-72143757D01*
X141957923Y-72148000D01*
X138925247Y-72148000D01*
X138903424Y-72115340D01*
X138704660Y-71916576D01*
X138470938Y-71760409D01*
X138211241Y-71652838D01*
X137935547Y-71598000D01*
X137654453Y-71598000D01*
X137615928Y-71605663D01*
X137125567Y-71115302D01*
X137098103Y-71081837D01*
X136964562Y-70972243D01*
X136812207Y-70890808D01*
X136646892Y-70840660D01*
X136518049Y-70827970D01*
X136474970Y-70823727D01*
X136431891Y-70827970D01*
X100858217Y-70827970D01*
X100815138Y-70823727D01*
X100643215Y-70840660D01*
X100477901Y-70890808D01*
X100325546Y-70972243D01*
X100192005Y-71081837D01*
X100164546Y-71115296D01*
X98565317Y-72714526D01*
X98531858Y-72741985D01*
X98504399Y-72775444D01*
X98504396Y-72775447D01*
X98422264Y-72875526D01*
X98340828Y-73027882D01*
X98290680Y-73193196D01*
X98273747Y-73365118D01*
X98277991Y-73408208D01*
X98277990Y-102601910D01*
X98273747Y-102644990D01*
X98290680Y-102816912D01*
X98327642Y-102938757D01*
X98340828Y-102982226D01*
X98422263Y-103134581D01*
X98531857Y-103268123D01*
X98565321Y-103295586D01*
X98974967Y-103705232D01*
X98974967Y-104070000D01*
X98991877Y-104241686D01*
X99041956Y-104406774D01*
X99123279Y-104558920D01*
X99232723Y-104692277D01*
X99366080Y-104801721D01*
X99453001Y-104848181D01*
X99453000Y-107915181D01*
X99391079Y-107948279D01*
X99257722Y-108057722D01*
X99148279Y-108191079D01*
X99066955Y-108343225D01*
X99016877Y-108508313D01*
X98999967Y-108679999D01*
X98999967Y-109205001D01*
X99016877Y-109376687D01*
X99066955Y-109541775D01*
X99148279Y-109693921D01*
X99257722Y-109827278D01*
X99291501Y-109855000D01*
X99257722Y-109882722D01*
X99148279Y-110016079D01*
X99066955Y-110168225D01*
X99016877Y-110333313D01*
X98999967Y-110504999D01*
X98999967Y-110866979D01*
X98962274Y-110912908D01*
X98880838Y-111065264D01*
X98830690Y-111230578D01*
X98813757Y-111402500D01*
X98818001Y-111445589D01*
X98818000Y-113128972D01*
X98784885Y-113178533D01*
X98707467Y-113365435D01*
X98668000Y-113563849D01*
X98668000Y-113766151D01*
X98707467Y-113964565D01*
X98784885Y-114151467D01*
X98897277Y-114319674D01*
X99040326Y-114462723D01*
X99208533Y-114575115D01*
X99395435Y-114652533D01*
X99593849Y-114692000D01*
X99796151Y-114692000D01*
X99994565Y-114652533D01*
X100181467Y-114575115D01*
X100349674Y-114462723D01*
X100492723Y-114319674D01*
X100605115Y-114151467D01*
X100682533Y-113964565D01*
X100722000Y-113766151D01*
X100722000Y-113563849D01*
X100682533Y-113365435D01*
X100605115Y-113178533D01*
X100572000Y-113128973D01*
X100572000Y-111910033D01*
X100780001Y-111910033D01*
X100951687Y-111893123D01*
X101116775Y-111843045D01*
X101268921Y-111761721D01*
X101402278Y-111652278D01*
X101511721Y-111518921D01*
X101593045Y-111366775D01*
X101643123Y-111201687D01*
X101660033Y-111030001D01*
X101660033Y-110504999D01*
X101643123Y-110333313D01*
X101593045Y-110168225D01*
X101511721Y-110016079D01*
X101402278Y-109882722D01*
X101368499Y-109855000D01*
X101402278Y-109827278D01*
X101511721Y-109693921D01*
X101593045Y-109541775D01*
X101643123Y-109376687D01*
X101660033Y-109205001D01*
X101660033Y-108679999D01*
X101643123Y-108508313D01*
X101619368Y-108430000D01*
X102801928Y-108430000D01*
X102805000Y-108656750D01*
X102963750Y-108815500D01*
X104013000Y-108815500D01*
X104013000Y-107953750D01*
X104267000Y-107953750D01*
X104267000Y-108815500D01*
X105316250Y-108815500D01*
X105475000Y-108656750D01*
X105478072Y-108430000D01*
X105465812Y-108305518D01*
X105429502Y-108185820D01*
X105370537Y-108075506D01*
X105291185Y-107978815D01*
X105194494Y-107899463D01*
X105084180Y-107840498D01*
X104964482Y-107804188D01*
X104840000Y-107791928D01*
X104425750Y-107795000D01*
X104267000Y-107953750D01*
X104013000Y-107953750D01*
X103854250Y-107795000D01*
X103440000Y-107791928D01*
X103315518Y-107804188D01*
X103195820Y-107840498D01*
X103085506Y-107899463D01*
X102988815Y-107978815D01*
X102909463Y-108075506D01*
X102850498Y-108185820D01*
X102814188Y-108305518D01*
X102801928Y-108430000D01*
X101619368Y-108430000D01*
X101593045Y-108343225D01*
X101511721Y-108191079D01*
X101402278Y-108057722D01*
X101268921Y-107948279D01*
X101207000Y-107915181D01*
X101207000Y-104890000D01*
X103611928Y-104890000D01*
X103624188Y-105014482D01*
X103660498Y-105134180D01*
X103719463Y-105244494D01*
X103798815Y-105341185D01*
X103895506Y-105420537D01*
X104005820Y-105479502D01*
X104125518Y-105515812D01*
X104250000Y-105528072D01*
X104489250Y-105525000D01*
X104648000Y-105366250D01*
X104648000Y-104267000D01*
X103773750Y-104267000D01*
X103615000Y-104425750D01*
X103611928Y-104890000D01*
X101207000Y-104890000D01*
X101207000Y-104848180D01*
X101293920Y-104801721D01*
X101427277Y-104692277D01*
X101536721Y-104558920D01*
X101618044Y-104406774D01*
X101668123Y-104241686D01*
X101685033Y-104070000D01*
X101685033Y-103570000D01*
X101668123Y-103398314D01*
X101618044Y-103233226D01*
X101536721Y-103081080D01*
X101427277Y-102947723D01*
X101332572Y-102870000D01*
X101421522Y-102797000D01*
X104017351Y-102797000D01*
X104005820Y-102800498D01*
X103895506Y-102859463D01*
X103798815Y-102938815D01*
X103719463Y-103035506D01*
X103660498Y-103145820D01*
X103624188Y-103265518D01*
X103611928Y-103390000D01*
X103615000Y-103854250D01*
X103773750Y-104013000D01*
X104648000Y-104013000D01*
X104648000Y-103993000D01*
X104893000Y-103993000D01*
X104893000Y-104421595D01*
X104902000Y-104512975D01*
X104902000Y-105366250D01*
X105060750Y-105525000D01*
X105300000Y-105528072D01*
X105424482Y-105515812D01*
X105544180Y-105479502D01*
X105618879Y-105439574D01*
X105819170Y-105500332D01*
X106045000Y-105522574D01*
X106270831Y-105500332D01*
X106487984Y-105434459D01*
X106680001Y-105331825D01*
X106872017Y-105434459D01*
X107073001Y-105495427D01*
X107073000Y-107915181D01*
X107011079Y-107948279D01*
X106877722Y-108057722D01*
X106768279Y-108191079D01*
X106686955Y-108343225D01*
X106636877Y-108508313D01*
X106619967Y-108679999D01*
X106619967Y-109205001D01*
X106636877Y-109376687D01*
X106686955Y-109541775D01*
X106768279Y-109693921D01*
X106877722Y-109827278D01*
X106911501Y-109855000D01*
X106877722Y-109882722D01*
X106871339Y-109890500D01*
X105304057Y-109890500D01*
X105370537Y-109809494D01*
X105429502Y-109699180D01*
X105465812Y-109579482D01*
X105478072Y-109455000D01*
X105475000Y-109228250D01*
X105316250Y-109069500D01*
X104267000Y-109069500D01*
X104267000Y-109089500D01*
X104013000Y-109089500D01*
X104013000Y-109069500D01*
X102963750Y-109069500D01*
X102805000Y-109228250D01*
X102801928Y-109455000D01*
X102814188Y-109579482D01*
X102850498Y-109699180D01*
X102909463Y-109809494D01*
X102988815Y-109906185D01*
X103024460Y-109935438D01*
X102958279Y-110016079D01*
X102876955Y-110168225D01*
X102826877Y-110333313D01*
X102809967Y-110504999D01*
X102809967Y-111030001D01*
X102826877Y-111201687D01*
X102876955Y-111366775D01*
X102958279Y-111518921D01*
X103067722Y-111652278D01*
X103201079Y-111761721D01*
X103353225Y-111843045D01*
X103518313Y-111893123D01*
X103689999Y-111910033D01*
X104590001Y-111910033D01*
X104761687Y-111893123D01*
X104926775Y-111843045D01*
X105078921Y-111761721D01*
X105212278Y-111652278D01*
X105218661Y-111644500D01*
X106871339Y-111644500D01*
X106877722Y-111652278D01*
X107011079Y-111761721D01*
X107073000Y-111794819D01*
X107073001Y-120290602D01*
X106952277Y-120411326D01*
X106839885Y-120579533D01*
X106762467Y-120766435D01*
X106723000Y-120964849D01*
X106723000Y-121167151D01*
X106762467Y-121365565D01*
X106839885Y-121552467D01*
X106873001Y-121602029D01*
X106873001Y-121793000D01*
X101177000Y-121793000D01*
X101177000Y-119533252D01*
X101180275Y-119500000D01*
X101167204Y-119367285D01*
X101128492Y-119239670D01*
X101065628Y-119122059D01*
X100981027Y-119018973D01*
X100877941Y-118934372D01*
X100760330Y-118871508D01*
X100632715Y-118832796D01*
X100533252Y-118823000D01*
X100500000Y-118819725D01*
X100466748Y-118823000D01*
X89033252Y-118823000D01*
X89000000Y-118819725D01*
X88966748Y-118823000D01*
X88867285Y-118832796D01*
X88739670Y-118871508D01*
X88622059Y-118934372D01*
X88518973Y-119018973D01*
X88434372Y-119122059D01*
X88371508Y-119239670D01*
X88332796Y-119367285D01*
X88319725Y-119500000D01*
X88323000Y-119533252D01*
X88323001Y-125323000D01*
X83177000Y-125323000D01*
X83177000Y-98177000D01*
X83466748Y-98177000D01*
X83500000Y-98180275D01*
X83533252Y-98177000D01*
X83632715Y-98167204D01*
X83760330Y-98128492D01*
X83877941Y-98065628D01*
X83981027Y-97981027D01*
X84065628Y-97877941D01*
X84128492Y-97760330D01*
X84167204Y-97632715D01*
X84180275Y-97500000D01*
X84177000Y-97466748D01*
X84177000Y-95177000D01*
X85966748Y-95177000D01*
X86000000Y-95180275D01*
X86033252Y-95177000D01*
X86132715Y-95167204D01*
X86260330Y-95128492D01*
X86377941Y-95065628D01*
X86481027Y-94981027D01*
X86565628Y-94877941D01*
X86628492Y-94760330D01*
X86667204Y-94632715D01*
X86680275Y-94500000D01*
X86677000Y-94466748D01*
X86677000Y-93033251D01*
X86680275Y-93000000D01*
X86667204Y-92867285D01*
X86628492Y-92739670D01*
X86565628Y-92622059D01*
X86481027Y-92518973D01*
X86377941Y-92434372D01*
X86260330Y-92371508D01*
X86132715Y-92332796D01*
X86033252Y-92323000D01*
X86000000Y-92319725D01*
X85966748Y-92323000D01*
X83177000Y-92323000D01*
X83177000Y-73177000D01*
X83266748Y-73177000D01*
X83300000Y-73180275D01*
X83333252Y-73177000D01*
X83432715Y-73167204D01*
X83560330Y-73128492D01*
X83677941Y-73065628D01*
X83781027Y-72981027D01*
X83865628Y-72877941D01*
X83928492Y-72760330D01*
X83967204Y-72632715D01*
X83980275Y-72500000D01*
X83977000Y-72466748D01*
X83977000Y-70677000D01*
X181323000Y-70677000D01*
X181323001Y-90823000D01*
G37*
G04 #@! TD.AperFunction*
D24*
X161064170Y-104865332D02*
X161290000Y-104887574D01*
X161419550Y-104874815D01*
X162198010Y-105653275D01*
X162198011Y-107807739D01*
X162052000Y-107953750D01*
X162052000Y-108815500D01*
X162072000Y-108815500D01*
X162072000Y-109069500D01*
X162052000Y-109069500D01*
X162052000Y-109089500D01*
X161798000Y-109089500D01*
X161798000Y-109069500D01*
X160748750Y-109069500D01*
X160590000Y-109228250D01*
X160586928Y-109455000D01*
X160599188Y-109579482D01*
X160635498Y-109699180D01*
X160694463Y-109809494D01*
X160773815Y-109906185D01*
X160809460Y-109935438D01*
X160743279Y-110016079D01*
X160661955Y-110168225D01*
X160611877Y-110333313D01*
X160594967Y-110504999D01*
X160594967Y-111030001D01*
X160611877Y-111201687D01*
X160661955Y-111366775D01*
X160743279Y-111518921D01*
X160852722Y-111652278D01*
X160986079Y-111761721D01*
X161048000Y-111794819D01*
X161048001Y-114029734D01*
X155008897Y-120068838D01*
X154950435Y-120080467D01*
X154763533Y-120157885D01*
X154595326Y-120270277D01*
X154452277Y-120413326D01*
X154339885Y-120581533D01*
X154262467Y-120768435D01*
X154223000Y-120966849D01*
X154223000Y-121169151D01*
X154262467Y-121367565D01*
X154339885Y-121554467D01*
X154373001Y-121604029D01*
X154373001Y-121793000D01*
X153627000Y-121793000D01*
X153627000Y-121644027D01*
X153660115Y-121594467D01*
X153737533Y-121407565D01*
X153777000Y-121209151D01*
X153777000Y-121006849D01*
X153737533Y-120808435D01*
X153660115Y-120621533D01*
X153547723Y-120453326D01*
X153404674Y-120310277D01*
X153236467Y-120197885D01*
X153049565Y-120120467D01*
X152851151Y-120081000D01*
X152648849Y-120081000D01*
X152450435Y-120120467D01*
X152263533Y-120197885D01*
X152095326Y-120310277D01*
X151952277Y-120453326D01*
X151839885Y-120621533D01*
X151762467Y-120808435D01*
X151723000Y-121006849D01*
X151723000Y-121209151D01*
X151762467Y-121407565D01*
X151839885Y-121594467D01*
X151873001Y-121644029D01*
X151873001Y-121793000D01*
X151127000Y-121793000D01*
X151127000Y-121609027D01*
X151160115Y-121559467D01*
X151237533Y-121372565D01*
X151277000Y-121174151D01*
X151277000Y-120971849D01*
X151237533Y-120773435D01*
X151160115Y-120586533D01*
X151127000Y-120536973D01*
X151127000Y-116009397D01*
X151165723Y-115970674D01*
X151278115Y-115802467D01*
X151355533Y-115615565D01*
X151395000Y-115417151D01*
X151395000Y-115214849D01*
X151355533Y-115016435D01*
X151278115Y-114829533D01*
X151165723Y-114661326D01*
X151022674Y-114518277D01*
X150854467Y-114405885D01*
X150667565Y-114328467D01*
X150469151Y-114289000D01*
X150266849Y-114289000D01*
X150068435Y-114328467D01*
X149881533Y-114405885D01*
X149713326Y-114518277D01*
X149570277Y-114661326D01*
X149457885Y-114829533D01*
X149380467Y-115016435D01*
X149341000Y-115214849D01*
X149341000Y-115417151D01*
X149373001Y-115578031D01*
X149373000Y-120536973D01*
X149339885Y-120586533D01*
X149262467Y-120773435D01*
X149223000Y-120971849D01*
X149223000Y-121174151D01*
X149262467Y-121372565D01*
X149339885Y-121559467D01*
X149373001Y-121609029D01*
X149373001Y-121793000D01*
X116221198Y-121793000D01*
X116237533Y-121753565D01*
X116249162Y-121695103D01*
X122509669Y-115434596D01*
X122543133Y-115407133D01*
X122652727Y-115273592D01*
X122734162Y-115121237D01*
X122784310Y-114955922D01*
X122795966Y-114837574D01*
X122830115Y-114786467D01*
X122907533Y-114599565D01*
X122947000Y-114401151D01*
X122947000Y-114198849D01*
X122907533Y-114000435D01*
X122830115Y-113813533D01*
X122717723Y-113645326D01*
X122574674Y-113502277D01*
X122406467Y-113389885D01*
X122219565Y-113312467D01*
X122021151Y-113273000D01*
X121818849Y-113273000D01*
X121620435Y-113312467D01*
X121433533Y-113389885D01*
X121265326Y-113502277D01*
X121122277Y-113645326D01*
X121009885Y-113813533D01*
X120932467Y-114000435D01*
X120893000Y-114198849D01*
X120893000Y-114401151D01*
X120921136Y-114542599D01*
X115008897Y-120454838D01*
X114950435Y-120466467D01*
X114763533Y-120543885D01*
X114595326Y-120656277D01*
X114452277Y-120799326D01*
X114339885Y-120967533D01*
X114262467Y-121154435D01*
X114223000Y-121352849D01*
X114223000Y-121555151D01*
X114262467Y-121753565D01*
X114278802Y-121793000D01*
X113627000Y-121793000D01*
X113627000Y-121771027D01*
X113660115Y-121721467D01*
X113737533Y-121534565D01*
X113749162Y-121476103D01*
X118064675Y-117160591D01*
X118098133Y-117133133D01*
X118207727Y-116999592D01*
X118289162Y-116847237D01*
X118339310Y-116681922D01*
X118352000Y-116553079D01*
X118352000Y-116553078D01*
X118356243Y-116510001D01*
X118352000Y-116466924D01*
X118352000Y-115471027D01*
X118385115Y-115421467D01*
X118462533Y-115234565D01*
X118474162Y-115176103D01*
X122370265Y-111280000D01*
X156776928Y-111280000D01*
X156789188Y-111404482D01*
X156825498Y-111524180D01*
X156884463Y-111634494D01*
X156963815Y-111731185D01*
X157060506Y-111810537D01*
X157170820Y-111869502D01*
X157290518Y-111905812D01*
X157415000Y-111918072D01*
X157829250Y-111915000D01*
X157988000Y-111756250D01*
X157988000Y-110894500D01*
X158242000Y-110894500D01*
X158242000Y-111756250D01*
X158400750Y-111915000D01*
X158815000Y-111918072D01*
X158939482Y-111905812D01*
X159059180Y-111869502D01*
X159169494Y-111810537D01*
X159266185Y-111731185D01*
X159345537Y-111634494D01*
X159404502Y-111524180D01*
X159440812Y-111404482D01*
X159453072Y-111280000D01*
X159450000Y-111053250D01*
X159291250Y-110894500D01*
X158242000Y-110894500D01*
X157988000Y-110894500D01*
X156938750Y-110894500D01*
X156780000Y-111053250D01*
X156776928Y-111280000D01*
X122370265Y-111280000D01*
X124563265Y-109087000D01*
X131284967Y-109087000D01*
X131284967Y-109710000D01*
X131301877Y-109881686D01*
X131351956Y-110046774D01*
X131433279Y-110198920D01*
X131542723Y-110332277D01*
X131676080Y-110441721D01*
X131828226Y-110523044D01*
X131993314Y-110573123D01*
X132165000Y-110590033D01*
X133265000Y-110590033D01*
X133436686Y-110573123D01*
X133601774Y-110523044D01*
X133753920Y-110441721D01*
X133887277Y-110332277D01*
X133996721Y-110198920D01*
X134078044Y-110046774D01*
X134128123Y-109881686D01*
X134145033Y-109710000D01*
X134145033Y-109087000D01*
X138761921Y-109087000D01*
X138805000Y-109091243D01*
X138848079Y-109087000D01*
X138976922Y-109074310D01*
X139142237Y-109024162D01*
X139294592Y-108942727D01*
X139428133Y-108833133D01*
X139455597Y-108799668D01*
X140205451Y-108049815D01*
X140335000Y-108062574D01*
X140560830Y-108040332D01*
X140777983Y-107974459D01*
X140969999Y-107871825D01*
X141162016Y-107974459D01*
X141379169Y-108040332D01*
X141605000Y-108062574D01*
X141830830Y-108040332D01*
X142041948Y-107976290D01*
X142108897Y-108012075D01*
X142227087Y-108047927D01*
X142350000Y-108060033D01*
X143014768Y-108060033D01*
X144486903Y-109532168D01*
X144514367Y-109565633D01*
X144647908Y-109675227D01*
X144800263Y-109756662D01*
X144965578Y-109806810D01*
X145094421Y-109819500D01*
X145094422Y-109819500D01*
X145137499Y-109823743D01*
X145180576Y-109819500D01*
X156950943Y-109819500D01*
X156884463Y-109900506D01*
X156825498Y-110010820D01*
X156789188Y-110130518D01*
X156776928Y-110255000D01*
X156780000Y-110481750D01*
X156938750Y-110640500D01*
X157988000Y-110640500D01*
X157988000Y-110620500D01*
X158242000Y-110620500D01*
X158242000Y-110640500D01*
X159291250Y-110640500D01*
X159450000Y-110481750D01*
X159453072Y-110255000D01*
X159440812Y-110130518D01*
X159404502Y-110010820D01*
X159345537Y-109900506D01*
X159266185Y-109803815D01*
X159230540Y-109774562D01*
X159296721Y-109693921D01*
X159378045Y-109541775D01*
X159428123Y-109376687D01*
X159445033Y-109205001D01*
X159445033Y-108852732D01*
X159867765Y-108430000D01*
X160586928Y-108430000D01*
X160590000Y-108656750D01*
X160748750Y-108815500D01*
X161798000Y-108815500D01*
X161798000Y-107953750D01*
X161639250Y-107795000D01*
X161225000Y-107791928D01*
X161100518Y-107804188D01*
X160980820Y-107840498D01*
X160870506Y-107899463D01*
X160773815Y-107978815D01*
X160694463Y-108075506D01*
X160635498Y-108185820D01*
X160599188Y-108305518D01*
X160586928Y-108430000D01*
X159867765Y-108430000D01*
X160609675Y-107688091D01*
X160643133Y-107660633D01*
X160701006Y-107590115D01*
X160735475Y-107548114D01*
X160752727Y-107527092D01*
X160834162Y-107374737D01*
X160834162Y-107374736D01*
X160884310Y-107209423D01*
X160901243Y-107037500D01*
X160897000Y-106994421D01*
X160897000Y-104814621D01*
X161064170Y-104865332D01*
G04 #@! TA.AperFunction,Conductor*
D25*
G36*
X161064170Y-104865332D02*
G01*
X161290000Y-104887574D01*
X161419550Y-104874815D01*
X162198010Y-105653275D01*
X162198011Y-107807739D01*
X162052000Y-107953750D01*
X162052000Y-108815500D01*
X162072000Y-108815500D01*
X162072000Y-109069500D01*
X162052000Y-109069500D01*
X162052000Y-109089500D01*
X161798000Y-109089500D01*
X161798000Y-109069500D01*
X160748750Y-109069500D01*
X160590000Y-109228250D01*
X160586928Y-109455000D01*
X160599188Y-109579482D01*
X160635498Y-109699180D01*
X160694463Y-109809494D01*
X160773815Y-109906185D01*
X160809460Y-109935438D01*
X160743279Y-110016079D01*
X160661955Y-110168225D01*
X160611877Y-110333313D01*
X160594967Y-110504999D01*
X160594967Y-111030001D01*
X160611877Y-111201687D01*
X160661955Y-111366775D01*
X160743279Y-111518921D01*
X160852722Y-111652278D01*
X160986079Y-111761721D01*
X161048000Y-111794819D01*
X161048001Y-114029734D01*
X155008897Y-120068838D01*
X154950435Y-120080467D01*
X154763533Y-120157885D01*
X154595326Y-120270277D01*
X154452277Y-120413326D01*
X154339885Y-120581533D01*
X154262467Y-120768435D01*
X154223000Y-120966849D01*
X154223000Y-121169151D01*
X154262467Y-121367565D01*
X154339885Y-121554467D01*
X154373001Y-121604029D01*
X154373001Y-121793000D01*
X153627000Y-121793000D01*
X153627000Y-121644027D01*
X153660115Y-121594467D01*
X153737533Y-121407565D01*
X153777000Y-121209151D01*
X153777000Y-121006849D01*
X153737533Y-120808435D01*
X153660115Y-120621533D01*
X153547723Y-120453326D01*
X153404674Y-120310277D01*
X153236467Y-120197885D01*
X153049565Y-120120467D01*
X152851151Y-120081000D01*
X152648849Y-120081000D01*
X152450435Y-120120467D01*
X152263533Y-120197885D01*
X152095326Y-120310277D01*
X151952277Y-120453326D01*
X151839885Y-120621533D01*
X151762467Y-120808435D01*
X151723000Y-121006849D01*
X151723000Y-121209151D01*
X151762467Y-121407565D01*
X151839885Y-121594467D01*
X151873001Y-121644029D01*
X151873001Y-121793000D01*
X151127000Y-121793000D01*
X151127000Y-121609027D01*
X151160115Y-121559467D01*
X151237533Y-121372565D01*
X151277000Y-121174151D01*
X151277000Y-120971849D01*
X151237533Y-120773435D01*
X151160115Y-120586533D01*
X151127000Y-120536973D01*
X151127000Y-116009397D01*
X151165723Y-115970674D01*
X151278115Y-115802467D01*
X151355533Y-115615565D01*
X151395000Y-115417151D01*
X151395000Y-115214849D01*
X151355533Y-115016435D01*
X151278115Y-114829533D01*
X151165723Y-114661326D01*
X151022674Y-114518277D01*
X150854467Y-114405885D01*
X150667565Y-114328467D01*
X150469151Y-114289000D01*
X150266849Y-114289000D01*
X150068435Y-114328467D01*
X149881533Y-114405885D01*
X149713326Y-114518277D01*
X149570277Y-114661326D01*
X149457885Y-114829533D01*
X149380467Y-115016435D01*
X149341000Y-115214849D01*
X149341000Y-115417151D01*
X149373001Y-115578031D01*
X149373000Y-120536973D01*
X149339885Y-120586533D01*
X149262467Y-120773435D01*
X149223000Y-120971849D01*
X149223000Y-121174151D01*
X149262467Y-121372565D01*
X149339885Y-121559467D01*
X149373001Y-121609029D01*
X149373001Y-121793000D01*
X116221198Y-121793000D01*
X116237533Y-121753565D01*
X116249162Y-121695103D01*
X122509669Y-115434596D01*
X122543133Y-115407133D01*
X122652727Y-115273592D01*
X122734162Y-115121237D01*
X122784310Y-114955922D01*
X122795966Y-114837574D01*
X122830115Y-114786467D01*
X122907533Y-114599565D01*
X122947000Y-114401151D01*
X122947000Y-114198849D01*
X122907533Y-114000435D01*
X122830115Y-113813533D01*
X122717723Y-113645326D01*
X122574674Y-113502277D01*
X122406467Y-113389885D01*
X122219565Y-113312467D01*
X122021151Y-113273000D01*
X121818849Y-113273000D01*
X121620435Y-113312467D01*
X121433533Y-113389885D01*
X121265326Y-113502277D01*
X121122277Y-113645326D01*
X121009885Y-113813533D01*
X120932467Y-114000435D01*
X120893000Y-114198849D01*
X120893000Y-114401151D01*
X120921136Y-114542599D01*
X115008897Y-120454838D01*
X114950435Y-120466467D01*
X114763533Y-120543885D01*
X114595326Y-120656277D01*
X114452277Y-120799326D01*
X114339885Y-120967533D01*
X114262467Y-121154435D01*
X114223000Y-121352849D01*
X114223000Y-121555151D01*
X114262467Y-121753565D01*
X114278802Y-121793000D01*
X113627000Y-121793000D01*
X113627000Y-121771027D01*
X113660115Y-121721467D01*
X113737533Y-121534565D01*
X113749162Y-121476103D01*
X118064675Y-117160591D01*
X118098133Y-117133133D01*
X118207727Y-116999592D01*
X118289162Y-116847237D01*
X118339310Y-116681922D01*
X118352000Y-116553079D01*
X118352000Y-116553078D01*
X118356243Y-116510001D01*
X118352000Y-116466924D01*
X118352000Y-115471027D01*
X118385115Y-115421467D01*
X118462533Y-115234565D01*
X118474162Y-115176103D01*
X122370265Y-111280000D01*
X156776928Y-111280000D01*
X156789188Y-111404482D01*
X156825498Y-111524180D01*
X156884463Y-111634494D01*
X156963815Y-111731185D01*
X157060506Y-111810537D01*
X157170820Y-111869502D01*
X157290518Y-111905812D01*
X157415000Y-111918072D01*
X157829250Y-111915000D01*
X157988000Y-111756250D01*
X157988000Y-110894500D01*
X158242000Y-110894500D01*
X158242000Y-111756250D01*
X158400750Y-111915000D01*
X158815000Y-111918072D01*
X158939482Y-111905812D01*
X159059180Y-111869502D01*
X159169494Y-111810537D01*
X159266185Y-111731185D01*
X159345537Y-111634494D01*
X159404502Y-111524180D01*
X159440812Y-111404482D01*
X159453072Y-111280000D01*
X159450000Y-111053250D01*
X159291250Y-110894500D01*
X158242000Y-110894500D01*
X157988000Y-110894500D01*
X156938750Y-110894500D01*
X156780000Y-111053250D01*
X156776928Y-111280000D01*
X122370265Y-111280000D01*
X124563265Y-109087000D01*
X131284967Y-109087000D01*
X131284967Y-109710000D01*
X131301877Y-109881686D01*
X131351956Y-110046774D01*
X131433279Y-110198920D01*
X131542723Y-110332277D01*
X131676080Y-110441721D01*
X131828226Y-110523044D01*
X131993314Y-110573123D01*
X132165000Y-110590033D01*
X133265000Y-110590033D01*
X133436686Y-110573123D01*
X133601774Y-110523044D01*
X133753920Y-110441721D01*
X133887277Y-110332277D01*
X133996721Y-110198920D01*
X134078044Y-110046774D01*
X134128123Y-109881686D01*
X134145033Y-109710000D01*
X134145033Y-109087000D01*
X138761921Y-109087000D01*
X138805000Y-109091243D01*
X138848079Y-109087000D01*
X138976922Y-109074310D01*
X139142237Y-109024162D01*
X139294592Y-108942727D01*
X139428133Y-108833133D01*
X139455597Y-108799668D01*
X140205451Y-108049815D01*
X140335000Y-108062574D01*
X140560830Y-108040332D01*
X140777983Y-107974459D01*
X140969999Y-107871825D01*
X141162016Y-107974459D01*
X141379169Y-108040332D01*
X141605000Y-108062574D01*
X141830830Y-108040332D01*
X142041948Y-107976290D01*
X142108897Y-108012075D01*
X142227087Y-108047927D01*
X142350000Y-108060033D01*
X143014768Y-108060033D01*
X144486903Y-109532168D01*
X144514367Y-109565633D01*
X144647908Y-109675227D01*
X144800263Y-109756662D01*
X144965578Y-109806810D01*
X145094421Y-109819500D01*
X145094422Y-109819500D01*
X145137499Y-109823743D01*
X145180576Y-109819500D01*
X156950943Y-109819500D01*
X156884463Y-109900506D01*
X156825498Y-110010820D01*
X156789188Y-110130518D01*
X156776928Y-110255000D01*
X156780000Y-110481750D01*
X156938750Y-110640500D01*
X157988000Y-110640500D01*
X157988000Y-110620500D01*
X158242000Y-110620500D01*
X158242000Y-110640500D01*
X159291250Y-110640500D01*
X159450000Y-110481750D01*
X159453072Y-110255000D01*
X159440812Y-110130518D01*
X159404502Y-110010820D01*
X159345537Y-109900506D01*
X159266185Y-109803815D01*
X159230540Y-109774562D01*
X159296721Y-109693921D01*
X159378045Y-109541775D01*
X159428123Y-109376687D01*
X159445033Y-109205001D01*
X159445033Y-108852732D01*
X159867765Y-108430000D01*
X160586928Y-108430000D01*
X160590000Y-108656750D01*
X160748750Y-108815500D01*
X161798000Y-108815500D01*
X161798000Y-107953750D01*
X161639250Y-107795000D01*
X161225000Y-107791928D01*
X161100518Y-107804188D01*
X160980820Y-107840498D01*
X160870506Y-107899463D01*
X160773815Y-107978815D01*
X160694463Y-108075506D01*
X160635498Y-108185820D01*
X160599188Y-108305518D01*
X160586928Y-108430000D01*
X159867765Y-108430000D01*
X160609675Y-107688091D01*
X160643133Y-107660633D01*
X160701006Y-107590115D01*
X160735475Y-107548114D01*
X160752727Y-107527092D01*
X160834162Y-107374737D01*
X160834162Y-107374736D01*
X160884310Y-107209423D01*
X160901243Y-107037500D01*
X160897000Y-106994421D01*
X160897000Y-104814621D01*
X161064170Y-104865332D01*
G37*
G04 #@! TD.AperFunction*
D24*
X157586928Y-102755000D02*
X157590000Y-103219250D01*
X157748750Y-103378000D01*
X158623000Y-103378000D01*
X158623000Y-103358000D01*
X158868000Y-103358000D01*
X158868000Y-103786595D01*
X158877000Y-103877975D01*
X158877000Y-104731250D01*
X159035750Y-104890000D01*
X159143001Y-104891377D01*
X159143000Y-106674234D01*
X158017268Y-107799967D01*
X157664999Y-107799967D01*
X157493313Y-107816877D01*
X157328225Y-107866955D01*
X157176079Y-107948279D01*
X157042722Y-108057722D01*
X157036339Y-108065500D01*
X151680033Y-108065500D01*
X151680033Y-105725000D01*
X151663123Y-105553314D01*
X151613044Y-105388226D01*
X151531721Y-105236080D01*
X151422277Y-105102723D01*
X151288920Y-104993279D01*
X151136774Y-104911956D01*
X150971686Y-104861877D01*
X150800000Y-104844967D01*
X149876990Y-104844967D01*
X149876990Y-104705033D01*
X150800000Y-104705033D01*
X150971686Y-104688123D01*
X151136774Y-104638044D01*
X151288920Y-104556721D01*
X151422277Y-104447277D01*
X151531721Y-104313920D01*
X151563214Y-104255000D01*
X157586928Y-104255000D01*
X157599188Y-104379482D01*
X157635498Y-104499180D01*
X157694463Y-104609494D01*
X157773815Y-104706185D01*
X157870506Y-104785537D01*
X157980820Y-104844502D01*
X158100518Y-104880812D01*
X158225000Y-104893072D01*
X158464250Y-104890000D01*
X158623000Y-104731250D01*
X158623000Y-103632000D01*
X157748750Y-103632000D01*
X157590000Y-103790750D01*
X157586928Y-104255000D01*
X151563214Y-104255000D01*
X151613044Y-104161774D01*
X151663123Y-103996686D01*
X151680033Y-103825000D01*
X151680033Y-102652000D01*
X157597072Y-102652000D01*
X157586928Y-102755000D01*
G04 #@! TA.AperFunction,Conductor*
D25*
G36*
X157586928Y-102755000D02*
G01*
X157590000Y-103219250D01*
X157748750Y-103378000D01*
X158623000Y-103378000D01*
X158623000Y-103358000D01*
X158868000Y-103358000D01*
X158868000Y-103786595D01*
X158877000Y-103877975D01*
X158877000Y-104731250D01*
X159035750Y-104890000D01*
X159143001Y-104891377D01*
X159143000Y-106674234D01*
X158017268Y-107799967D01*
X157664999Y-107799967D01*
X157493313Y-107816877D01*
X157328225Y-107866955D01*
X157176079Y-107948279D01*
X157042722Y-108057722D01*
X157036339Y-108065500D01*
X151680033Y-108065500D01*
X151680033Y-105725000D01*
X151663123Y-105553314D01*
X151613044Y-105388226D01*
X151531721Y-105236080D01*
X151422277Y-105102723D01*
X151288920Y-104993279D01*
X151136774Y-104911956D01*
X150971686Y-104861877D01*
X150800000Y-104844967D01*
X149876990Y-104844967D01*
X149876990Y-104705033D01*
X150800000Y-104705033D01*
X150971686Y-104688123D01*
X151136774Y-104638044D01*
X151288920Y-104556721D01*
X151422277Y-104447277D01*
X151531721Y-104313920D01*
X151563214Y-104255000D01*
X157586928Y-104255000D01*
X157599188Y-104379482D01*
X157635498Y-104499180D01*
X157694463Y-104609494D01*
X157773815Y-104706185D01*
X157870506Y-104785537D01*
X157980820Y-104844502D01*
X158100518Y-104880812D01*
X158225000Y-104893072D01*
X158464250Y-104890000D01*
X158623000Y-104731250D01*
X158623000Y-103632000D01*
X157748750Y-103632000D01*
X157590000Y-103790750D01*
X157586928Y-104255000D01*
X151563214Y-104255000D01*
X151613044Y-104161774D01*
X151663123Y-103996686D01*
X151680033Y-103825000D01*
X151680033Y-102652000D01*
X157597072Y-102652000D01*
X157586928Y-102755000D01*
G37*
G04 #@! TD.AperFunction*
D24*
X113746401Y-91734668D02*
X113773865Y-91768133D01*
X113907406Y-91877727D01*
X114059761Y-91959162D01*
X114225076Y-92009310D01*
X114353919Y-92022000D01*
X114353928Y-92022000D01*
X114396997Y-92026242D01*
X114440067Y-92022000D01*
X122394967Y-92022000D01*
X122394967Y-92395000D01*
X122411877Y-92566686D01*
X122461956Y-92731774D01*
X122543279Y-92883920D01*
X122652723Y-93017277D01*
X122786080Y-93126721D01*
X122938226Y-93208044D01*
X123103314Y-93258123D01*
X123275000Y-93275033D01*
X124375000Y-93275033D01*
X124546686Y-93258123D01*
X124711774Y-93208044D01*
X124863920Y-93126721D01*
X124997277Y-93017277D01*
X125106721Y-92883920D01*
X125188044Y-92731774D01*
X125238123Y-92566686D01*
X125255033Y-92395000D01*
X125255033Y-92022000D01*
X125981921Y-92022000D01*
X126025000Y-92026243D01*
X126068079Y-92022000D01*
X126079888Y-92020837D01*
X126196922Y-92009310D01*
X126290158Y-91981027D01*
X126362237Y-91959162D01*
X126514592Y-91877727D01*
X126603633Y-91804653D01*
X126664565Y-91792533D01*
X126851467Y-91715115D01*
X127019674Y-91602723D01*
X127139000Y-91483397D01*
X127139000Y-92762920D01*
X127134757Y-92806000D01*
X127151690Y-92977922D01*
X127171704Y-93043897D01*
X127201838Y-93143236D01*
X127283273Y-93295591D01*
X127392867Y-93429133D01*
X127426332Y-93456597D01*
X131245620Y-97275885D01*
X131223000Y-97389604D01*
X131223000Y-97690396D01*
X131281681Y-97985410D01*
X131396790Y-98263306D01*
X131563901Y-98513406D01*
X131776594Y-98726099D01*
X132026694Y-98893210D01*
X132304590Y-99008319D01*
X132599604Y-99067000D01*
X132900396Y-99067000D01*
X133195410Y-99008319D01*
X133473306Y-98893210D01*
X133723406Y-98726099D01*
X133936099Y-98513406D01*
X134103210Y-98263306D01*
X134218319Y-97985410D01*
X134277000Y-97690396D01*
X134277000Y-97389604D01*
X134218319Y-97094590D01*
X134103210Y-96816694D01*
X133936099Y-96566594D01*
X133867193Y-96497688D01*
X133894180Y-96489502D01*
X134004494Y-96430537D01*
X134101185Y-96351185D01*
X134180537Y-96254494D01*
X134239502Y-96144180D01*
X134275812Y-96024482D01*
X134288072Y-95900000D01*
X134285000Y-95285750D01*
X134126250Y-95127000D01*
X132877000Y-95127000D01*
X132877000Y-95147000D01*
X132623000Y-95147000D01*
X132623000Y-95127000D01*
X132603000Y-95127000D01*
X132603000Y-94873000D01*
X132623000Y-94873000D01*
X132623000Y-93623750D01*
X132877000Y-93623750D01*
X132877000Y-94873000D01*
X134126250Y-94873000D01*
X134285000Y-94714250D01*
X134288072Y-94100000D01*
X134275812Y-93975518D01*
X134239502Y-93855820D01*
X134180537Y-93745506D01*
X134101185Y-93648815D01*
X134004494Y-93569463D01*
X133894180Y-93510498D01*
X133774482Y-93474188D01*
X133650000Y-93461928D01*
X133035750Y-93465000D01*
X132877000Y-93623750D01*
X132623000Y-93623750D01*
X132464250Y-93465000D01*
X131850000Y-93461928D01*
X131725518Y-93474188D01*
X131605820Y-93510498D01*
X131495506Y-93569463D01*
X131398815Y-93648815D01*
X131319463Y-93745506D01*
X131260498Y-93855820D01*
X131224188Y-93975518D01*
X131211928Y-94100000D01*
X131215000Y-94714250D01*
X131373748Y-94872998D01*
X131323264Y-94872998D01*
X128893000Y-92442735D01*
X128893000Y-92040000D01*
X129976928Y-92040000D01*
X129989188Y-92164482D01*
X130025498Y-92284180D01*
X130084463Y-92394494D01*
X130163815Y-92491185D01*
X130260506Y-92570537D01*
X130370820Y-92629502D01*
X130490518Y-92665812D01*
X130615000Y-92678072D01*
X130779250Y-92675000D01*
X130938000Y-92516250D01*
X130938000Y-91567000D01*
X131192000Y-91567000D01*
X131192000Y-92516250D01*
X131350750Y-92675000D01*
X131515000Y-92678072D01*
X131639482Y-92665812D01*
X131759180Y-92629502D01*
X131869494Y-92570537D01*
X131966185Y-92491185D01*
X132045537Y-92394494D01*
X132104502Y-92284180D01*
X132140812Y-92164482D01*
X132153072Y-92040000D01*
X132150000Y-91725750D01*
X131991250Y-91567000D01*
X131192000Y-91567000D01*
X130938000Y-91567000D01*
X130138750Y-91567000D01*
X129980000Y-91725750D01*
X129976928Y-92040000D01*
X128893000Y-92040000D01*
X128893000Y-90840000D01*
X129976928Y-90840000D01*
X129980000Y-91154250D01*
X130138750Y-91313000D01*
X130938000Y-91313000D01*
X130938000Y-90363750D01*
X131192000Y-90363750D01*
X131192000Y-91313000D01*
X131991250Y-91313000D01*
X132150000Y-91154250D01*
X132153072Y-90840000D01*
X132140812Y-90715518D01*
X132104502Y-90595820D01*
X132045537Y-90485506D01*
X131966185Y-90388815D01*
X131869494Y-90309463D01*
X131759180Y-90250498D01*
X131639482Y-90214188D01*
X131515000Y-90201928D01*
X131350750Y-90205000D01*
X131192000Y-90363750D01*
X130938000Y-90363750D01*
X130779250Y-90205000D01*
X130615000Y-90201928D01*
X130490518Y-90214188D01*
X130370820Y-90250498D01*
X130260506Y-90309463D01*
X130163815Y-90388815D01*
X130084463Y-90485506D01*
X130025498Y-90595820D01*
X129989188Y-90715518D01*
X129976928Y-90840000D01*
X128893000Y-90840000D01*
X128893000Y-86228253D01*
X128954718Y-86377254D01*
X129105414Y-86602787D01*
X129297213Y-86794586D01*
X129522746Y-86945282D01*
X129773344Y-87049083D01*
X130039377Y-87102000D01*
X130310623Y-87102000D01*
X130576656Y-87049083D01*
X130638000Y-87023674D01*
X130638000Y-88546910D01*
X130633756Y-88589999D01*
X130650689Y-88761921D01*
X130700837Y-88927235D01*
X130782273Y-89079591D01*
X130864405Y-89179670D01*
X130864408Y-89179673D01*
X130891867Y-89213132D01*
X130925326Y-89240591D01*
X133284967Y-91600233D01*
X133284967Y-92040000D01*
X133297073Y-92162913D01*
X133332925Y-92281103D01*
X133391147Y-92390028D01*
X133469499Y-92485501D01*
X133564972Y-92563853D01*
X133673897Y-92622075D01*
X133792087Y-92657927D01*
X133915000Y-92670033D01*
X134354768Y-92670033D01*
X135775001Y-94090266D01*
X135775000Y-99421420D01*
X135770757Y-99464500D01*
X135787690Y-99636422D01*
X135819087Y-99739922D01*
X135837838Y-99801736D01*
X135919273Y-99954091D01*
X136028867Y-100087633D01*
X136062332Y-100115097D01*
X138369967Y-102422733D01*
X138369967Y-102775001D01*
X138386877Y-102946687D01*
X138436955Y-103111775D01*
X138518279Y-103263921D01*
X138627722Y-103397278D01*
X138761079Y-103506721D01*
X138823000Y-103539819D01*
X138823001Y-106001911D01*
X138818757Y-106045000D01*
X138835690Y-106216922D01*
X138885838Y-106382236D01*
X138967274Y-106534592D01*
X139049406Y-106634671D01*
X139049409Y-106634674D01*
X139076868Y-106668133D01*
X139093199Y-106681535D01*
X138441735Y-107333000D01*
X134145033Y-107333000D01*
X134145033Y-106710000D01*
X134128123Y-106538314D01*
X134078044Y-106373226D01*
X133996721Y-106221080D01*
X133887277Y-106087723D01*
X133753920Y-105978279D01*
X133601774Y-105896956D01*
X133436686Y-105846877D01*
X133265000Y-105829967D01*
X132165000Y-105829967D01*
X131993314Y-105846877D01*
X131828226Y-105896956D01*
X131676080Y-105978279D01*
X131542723Y-106087723D01*
X131433279Y-106221080D01*
X131351956Y-106373226D01*
X131301877Y-106538314D01*
X131284967Y-106710000D01*
X131284967Y-107333000D01*
X126250033Y-107333000D01*
X126250033Y-105930000D01*
X126237927Y-105807087D01*
X126202075Y-105688897D01*
X126143853Y-105579972D01*
X126065501Y-105484499D01*
X125972000Y-105407765D01*
X125972000Y-104360000D01*
X131276928Y-104360000D01*
X131289188Y-104484482D01*
X131325498Y-104604180D01*
X131384463Y-104714494D01*
X131463815Y-104811185D01*
X131560506Y-104890537D01*
X131670820Y-104949502D01*
X131790518Y-104985812D01*
X131915000Y-104998072D01*
X132429250Y-104995000D01*
X132588000Y-104836250D01*
X132588000Y-102737000D01*
X132842000Y-102737000D01*
X132842000Y-104836250D01*
X133000750Y-104995000D01*
X133515000Y-104998072D01*
X133639482Y-104985812D01*
X133759180Y-104949502D01*
X133869494Y-104890537D01*
X133966185Y-104811185D01*
X134045537Y-104714494D01*
X134104502Y-104604180D01*
X134140812Y-104484482D01*
X134153072Y-104360000D01*
X134150000Y-102895750D01*
X133991250Y-102737000D01*
X132842000Y-102737000D01*
X132588000Y-102737000D01*
X131438750Y-102737000D01*
X131280000Y-102895750D01*
X131276928Y-104360000D01*
X125972000Y-104360000D01*
X125972000Y-103655033D01*
X126180001Y-103655033D01*
X126351687Y-103638123D01*
X126516775Y-103588045D01*
X126668921Y-103506721D01*
X126802278Y-103397278D01*
X126911721Y-103263921D01*
X126993045Y-103111775D01*
X127043123Y-102946687D01*
X127060033Y-102775001D01*
X127060033Y-102249999D01*
X127043123Y-102078313D01*
X126993045Y-101913225D01*
X126911721Y-101761079D01*
X126845540Y-101680438D01*
X126881185Y-101651185D01*
X126960537Y-101554494D01*
X127019502Y-101444180D01*
X127055812Y-101324482D01*
X127068072Y-101200000D01*
X127065000Y-100973250D01*
X126951750Y-100860000D01*
X131276928Y-100860000D01*
X131280000Y-102324250D01*
X131438750Y-102483000D01*
X132588000Y-102483000D01*
X132588000Y-100383750D01*
X132842000Y-100383750D01*
X132842000Y-102483000D01*
X133991250Y-102483000D01*
X134150000Y-102324250D01*
X134153072Y-100860000D01*
X134140812Y-100735518D01*
X134104502Y-100615820D01*
X134045537Y-100505506D01*
X133966185Y-100408815D01*
X133869494Y-100329463D01*
X133759180Y-100270498D01*
X133639482Y-100234188D01*
X133515000Y-100221928D01*
X133000750Y-100225000D01*
X132842000Y-100383750D01*
X132588000Y-100383750D01*
X132429250Y-100225000D01*
X131915000Y-100221928D01*
X131790518Y-100234188D01*
X131670820Y-100270498D01*
X131560506Y-100329463D01*
X131463815Y-100408815D01*
X131384463Y-100505506D01*
X131325498Y-100615820D01*
X131289188Y-100735518D01*
X131276928Y-100860000D01*
X126951750Y-100860000D01*
X126906250Y-100814500D01*
X125857000Y-100814500D01*
X125857000Y-100834500D01*
X125603000Y-100834500D01*
X125603000Y-100814500D01*
X124553750Y-100814500D01*
X124395000Y-100973250D01*
X124391928Y-101200000D01*
X124404188Y-101324482D01*
X124440498Y-101444180D01*
X124499463Y-101554494D01*
X124578815Y-101651185D01*
X124614460Y-101680438D01*
X124548279Y-101761079D01*
X124466955Y-101913225D01*
X124416877Y-102078313D01*
X124403270Y-102216461D01*
X124394320Y-102125587D01*
X124344172Y-101960273D01*
X124324157Y-101922828D01*
X124262737Y-101807918D01*
X124213628Y-101748078D01*
X124180604Y-101707838D01*
X124180602Y-101707836D01*
X124153143Y-101674377D01*
X124119684Y-101646918D01*
X123250033Y-100777268D01*
X123250033Y-100576538D01*
X123342849Y-100595000D01*
X123545151Y-100595000D01*
X123743565Y-100555533D01*
X123930467Y-100478115D01*
X124098674Y-100365723D01*
X124241723Y-100222674D01*
X124273577Y-100175000D01*
X124391928Y-100175000D01*
X124395000Y-100401750D01*
X124553750Y-100560500D01*
X125603000Y-100560500D01*
X125603000Y-99698750D01*
X125857000Y-99698750D01*
X125857000Y-100560500D01*
X126906250Y-100560500D01*
X127065000Y-100401750D01*
X127068072Y-100175000D01*
X127055812Y-100050518D01*
X127019502Y-99930820D01*
X126960537Y-99820506D01*
X126881185Y-99723815D01*
X126784494Y-99644463D01*
X126674180Y-99585498D01*
X126554482Y-99549188D01*
X126430000Y-99536928D01*
X126015750Y-99540000D01*
X125857000Y-99698750D01*
X125603000Y-99698750D01*
X125444250Y-99540000D01*
X125030000Y-99536928D01*
X124905518Y-99549188D01*
X124785820Y-99585498D01*
X124675506Y-99644463D01*
X124578815Y-99723815D01*
X124499463Y-99820506D01*
X124440498Y-99930820D01*
X124404188Y-100050518D01*
X124391928Y-100175000D01*
X124273577Y-100175000D01*
X124354115Y-100054467D01*
X124431533Y-99867565D01*
X124471000Y-99669151D01*
X124471000Y-99466849D01*
X124431533Y-99268435D01*
X124354115Y-99081533D01*
X124321000Y-99031973D01*
X124321000Y-97675033D01*
X124375000Y-97675033D01*
X124546686Y-97658123D01*
X124711774Y-97608044D01*
X124863920Y-97526721D01*
X124997277Y-97417277D01*
X125106721Y-97283920D01*
X125188044Y-97131774D01*
X125238123Y-96966686D01*
X125255033Y-96795000D01*
X125255033Y-94295000D01*
X125238123Y-94123314D01*
X125188044Y-93958226D01*
X125106721Y-93806080D01*
X124997277Y-93672723D01*
X124863920Y-93563279D01*
X124711774Y-93481956D01*
X124546686Y-93431877D01*
X124375000Y-93414967D01*
X123275000Y-93414967D01*
X123103314Y-93431877D01*
X122938226Y-93481956D01*
X122786080Y-93563279D01*
X122652723Y-93672723D01*
X122543279Y-93806080D01*
X122461956Y-93958226D01*
X122411877Y-94123314D01*
X122394967Y-94295000D01*
X122394967Y-96795000D01*
X122411877Y-96966686D01*
X122461956Y-97131774D01*
X122543279Y-97283920D01*
X122567001Y-97312825D01*
X122567000Y-99031973D01*
X122533885Y-99081533D01*
X122456467Y-99268435D01*
X122417000Y-99466849D01*
X122417000Y-99549596D01*
X122370001Y-99544967D01*
X121469999Y-99544967D01*
X121298313Y-99561877D01*
X121133225Y-99611955D01*
X120981079Y-99693279D01*
X120847722Y-99802722D01*
X120841339Y-99810500D01*
X116762764Y-99810500D01*
X115882915Y-98930651D01*
X115973306Y-98893210D01*
X116223406Y-98726099D01*
X116436099Y-98513406D01*
X116603210Y-98263306D01*
X116718319Y-97985410D01*
X116777000Y-97690396D01*
X116777000Y-97389604D01*
X116718319Y-97094590D01*
X116603210Y-96816694D01*
X116436099Y-96566594D01*
X116360779Y-96491274D01*
X116391103Y-96482075D01*
X116500028Y-96423853D01*
X116595501Y-96345501D01*
X116673853Y-96250028D01*
X116732075Y-96141103D01*
X116767927Y-96022913D01*
X116780033Y-95900000D01*
X116780033Y-94100000D01*
X116767927Y-93977087D01*
X116732075Y-93858897D01*
X116673853Y-93749972D01*
X116595501Y-93654499D01*
X116500028Y-93576147D01*
X116391103Y-93517925D01*
X116272913Y-93482073D01*
X116150000Y-93469967D01*
X114960233Y-93469967D01*
X113735596Y-92245331D01*
X113708132Y-92211866D01*
X113574591Y-92102272D01*
X113422236Y-92020837D01*
X113256921Y-91970689D01*
X113084999Y-91953756D01*
X113041920Y-91957999D01*
X105823299Y-91957999D01*
X102923285Y-89057985D01*
X102935000Y-89058072D01*
X103059482Y-89045812D01*
X103179180Y-89009502D01*
X103289494Y-88950537D01*
X103386185Y-88871185D01*
X103465537Y-88774494D01*
X103524502Y-88664180D01*
X103560812Y-88544482D01*
X103573072Y-88420000D01*
X103570000Y-88193250D01*
X103411250Y-88034500D01*
X102362000Y-88034500D01*
X102362000Y-88054500D01*
X102108000Y-88054500D01*
X102108000Y-88034500D01*
X102088000Y-88034500D01*
X102088000Y-87780500D01*
X102108000Y-87780500D01*
X102108000Y-87760500D01*
X102362000Y-87760500D01*
X102362000Y-87780500D01*
X103411250Y-87780500D01*
X103570000Y-87621750D01*
X103573072Y-87395000D01*
X103560812Y-87270518D01*
X103524502Y-87150820D01*
X103465537Y-87040506D01*
X103386185Y-86943815D01*
X103350540Y-86914562D01*
X103416721Y-86833921D01*
X103498045Y-86681775D01*
X103548123Y-86516687D01*
X103565033Y-86345001D01*
X103565033Y-85819999D01*
X103548123Y-85648313D01*
X103498045Y-85483225D01*
X103416721Y-85331079D01*
X103307278Y-85197722D01*
X103173921Y-85088279D01*
X103112000Y-85055181D01*
X103112000Y-83221009D01*
X103121774Y-83218044D01*
X103273920Y-83136721D01*
X103407277Y-83027277D01*
X103516721Y-82893920D01*
X103598044Y-82741774D01*
X103648123Y-82576686D01*
X103665033Y-82405000D01*
X103665033Y-81653300D01*
X113746401Y-91734668D01*
G04 #@! TA.AperFunction,Conductor*
D25*
G36*
X113746401Y-91734668D02*
G01*
X113773865Y-91768133D01*
X113907406Y-91877727D01*
X114059761Y-91959162D01*
X114225076Y-92009310D01*
X114353919Y-92022000D01*
X114353928Y-92022000D01*
X114396997Y-92026242D01*
X114440067Y-92022000D01*
X122394967Y-92022000D01*
X122394967Y-92395000D01*
X122411877Y-92566686D01*
X122461956Y-92731774D01*
X122543279Y-92883920D01*
X122652723Y-93017277D01*
X122786080Y-93126721D01*
X122938226Y-93208044D01*
X123103314Y-93258123D01*
X123275000Y-93275033D01*
X124375000Y-93275033D01*
X124546686Y-93258123D01*
X124711774Y-93208044D01*
X124863920Y-93126721D01*
X124997277Y-93017277D01*
X125106721Y-92883920D01*
X125188044Y-92731774D01*
X125238123Y-92566686D01*
X125255033Y-92395000D01*
X125255033Y-92022000D01*
X125981921Y-92022000D01*
X126025000Y-92026243D01*
X126068079Y-92022000D01*
X126079888Y-92020837D01*
X126196922Y-92009310D01*
X126290158Y-91981027D01*
X126362237Y-91959162D01*
X126514592Y-91877727D01*
X126603633Y-91804653D01*
X126664565Y-91792533D01*
X126851467Y-91715115D01*
X127019674Y-91602723D01*
X127139000Y-91483397D01*
X127139000Y-92762920D01*
X127134757Y-92806000D01*
X127151690Y-92977922D01*
X127171704Y-93043897D01*
X127201838Y-93143236D01*
X127283273Y-93295591D01*
X127392867Y-93429133D01*
X127426332Y-93456597D01*
X131245620Y-97275885D01*
X131223000Y-97389604D01*
X131223000Y-97690396D01*
X131281681Y-97985410D01*
X131396790Y-98263306D01*
X131563901Y-98513406D01*
X131776594Y-98726099D01*
X132026694Y-98893210D01*
X132304590Y-99008319D01*
X132599604Y-99067000D01*
X132900396Y-99067000D01*
X133195410Y-99008319D01*
X133473306Y-98893210D01*
X133723406Y-98726099D01*
X133936099Y-98513406D01*
X134103210Y-98263306D01*
X134218319Y-97985410D01*
X134277000Y-97690396D01*
X134277000Y-97389604D01*
X134218319Y-97094590D01*
X134103210Y-96816694D01*
X133936099Y-96566594D01*
X133867193Y-96497688D01*
X133894180Y-96489502D01*
X134004494Y-96430537D01*
X134101185Y-96351185D01*
X134180537Y-96254494D01*
X134239502Y-96144180D01*
X134275812Y-96024482D01*
X134288072Y-95900000D01*
X134285000Y-95285750D01*
X134126250Y-95127000D01*
X132877000Y-95127000D01*
X132877000Y-95147000D01*
X132623000Y-95147000D01*
X132623000Y-95127000D01*
X132603000Y-95127000D01*
X132603000Y-94873000D01*
X132623000Y-94873000D01*
X132623000Y-93623750D01*
X132877000Y-93623750D01*
X132877000Y-94873000D01*
X134126250Y-94873000D01*
X134285000Y-94714250D01*
X134288072Y-94100000D01*
X134275812Y-93975518D01*
X134239502Y-93855820D01*
X134180537Y-93745506D01*
X134101185Y-93648815D01*
X134004494Y-93569463D01*
X133894180Y-93510498D01*
X133774482Y-93474188D01*
X133650000Y-93461928D01*
X133035750Y-93465000D01*
X132877000Y-93623750D01*
X132623000Y-93623750D01*
X132464250Y-93465000D01*
X131850000Y-93461928D01*
X131725518Y-93474188D01*
X131605820Y-93510498D01*
X131495506Y-93569463D01*
X131398815Y-93648815D01*
X131319463Y-93745506D01*
X131260498Y-93855820D01*
X131224188Y-93975518D01*
X131211928Y-94100000D01*
X131215000Y-94714250D01*
X131373748Y-94872998D01*
X131323264Y-94872998D01*
X128893000Y-92442735D01*
X128893000Y-92040000D01*
X129976928Y-92040000D01*
X129989188Y-92164482D01*
X130025498Y-92284180D01*
X130084463Y-92394494D01*
X130163815Y-92491185D01*
X130260506Y-92570537D01*
X130370820Y-92629502D01*
X130490518Y-92665812D01*
X130615000Y-92678072D01*
X130779250Y-92675000D01*
X130938000Y-92516250D01*
X130938000Y-91567000D01*
X131192000Y-91567000D01*
X131192000Y-92516250D01*
X131350750Y-92675000D01*
X131515000Y-92678072D01*
X131639482Y-92665812D01*
X131759180Y-92629502D01*
X131869494Y-92570537D01*
X131966185Y-92491185D01*
X132045537Y-92394494D01*
X132104502Y-92284180D01*
X132140812Y-92164482D01*
X132153072Y-92040000D01*
X132150000Y-91725750D01*
X131991250Y-91567000D01*
X131192000Y-91567000D01*
X130938000Y-91567000D01*
X130138750Y-91567000D01*
X129980000Y-91725750D01*
X129976928Y-92040000D01*
X128893000Y-92040000D01*
X128893000Y-90840000D01*
X129976928Y-90840000D01*
X129980000Y-91154250D01*
X130138750Y-91313000D01*
X130938000Y-91313000D01*
X130938000Y-90363750D01*
X131192000Y-90363750D01*
X131192000Y-91313000D01*
X131991250Y-91313000D01*
X132150000Y-91154250D01*
X132153072Y-90840000D01*
X132140812Y-90715518D01*
X132104502Y-90595820D01*
X132045537Y-90485506D01*
X131966185Y-90388815D01*
X131869494Y-90309463D01*
X131759180Y-90250498D01*
X131639482Y-90214188D01*
X131515000Y-90201928D01*
X131350750Y-90205000D01*
X131192000Y-90363750D01*
X130938000Y-90363750D01*
X130779250Y-90205000D01*
X130615000Y-90201928D01*
X130490518Y-90214188D01*
X130370820Y-90250498D01*
X130260506Y-90309463D01*
X130163815Y-90388815D01*
X130084463Y-90485506D01*
X130025498Y-90595820D01*
X129989188Y-90715518D01*
X129976928Y-90840000D01*
X128893000Y-90840000D01*
X128893000Y-86228253D01*
X128954718Y-86377254D01*
X129105414Y-86602787D01*
X129297213Y-86794586D01*
X129522746Y-86945282D01*
X129773344Y-87049083D01*
X130039377Y-87102000D01*
X130310623Y-87102000D01*
X130576656Y-87049083D01*
X130638000Y-87023674D01*
X130638000Y-88546910D01*
X130633756Y-88589999D01*
X130650689Y-88761921D01*
X130700837Y-88927235D01*
X130782273Y-89079591D01*
X130864405Y-89179670D01*
X130864408Y-89179673D01*
X130891867Y-89213132D01*
X130925326Y-89240591D01*
X133284967Y-91600233D01*
X133284967Y-92040000D01*
X133297073Y-92162913D01*
X133332925Y-92281103D01*
X133391147Y-92390028D01*
X133469499Y-92485501D01*
X133564972Y-92563853D01*
X133673897Y-92622075D01*
X133792087Y-92657927D01*
X133915000Y-92670033D01*
X134354768Y-92670033D01*
X135775001Y-94090266D01*
X135775000Y-99421420D01*
X135770757Y-99464500D01*
X135787690Y-99636422D01*
X135819087Y-99739922D01*
X135837838Y-99801736D01*
X135919273Y-99954091D01*
X136028867Y-100087633D01*
X136062332Y-100115097D01*
X138369967Y-102422733D01*
X138369967Y-102775001D01*
X138386877Y-102946687D01*
X138436955Y-103111775D01*
X138518279Y-103263921D01*
X138627722Y-103397278D01*
X138761079Y-103506721D01*
X138823000Y-103539819D01*
X138823001Y-106001911D01*
X138818757Y-106045000D01*
X138835690Y-106216922D01*
X138885838Y-106382236D01*
X138967274Y-106534592D01*
X139049406Y-106634671D01*
X139049409Y-106634674D01*
X139076868Y-106668133D01*
X139093199Y-106681535D01*
X138441735Y-107333000D01*
X134145033Y-107333000D01*
X134145033Y-106710000D01*
X134128123Y-106538314D01*
X134078044Y-106373226D01*
X133996721Y-106221080D01*
X133887277Y-106087723D01*
X133753920Y-105978279D01*
X133601774Y-105896956D01*
X133436686Y-105846877D01*
X133265000Y-105829967D01*
X132165000Y-105829967D01*
X131993314Y-105846877D01*
X131828226Y-105896956D01*
X131676080Y-105978279D01*
X131542723Y-106087723D01*
X131433279Y-106221080D01*
X131351956Y-106373226D01*
X131301877Y-106538314D01*
X131284967Y-106710000D01*
X131284967Y-107333000D01*
X126250033Y-107333000D01*
X126250033Y-105930000D01*
X126237927Y-105807087D01*
X126202075Y-105688897D01*
X126143853Y-105579972D01*
X126065501Y-105484499D01*
X125972000Y-105407765D01*
X125972000Y-104360000D01*
X131276928Y-104360000D01*
X131289188Y-104484482D01*
X131325498Y-104604180D01*
X131384463Y-104714494D01*
X131463815Y-104811185D01*
X131560506Y-104890537D01*
X131670820Y-104949502D01*
X131790518Y-104985812D01*
X131915000Y-104998072D01*
X132429250Y-104995000D01*
X132588000Y-104836250D01*
X132588000Y-102737000D01*
X132842000Y-102737000D01*
X132842000Y-104836250D01*
X133000750Y-104995000D01*
X133515000Y-104998072D01*
X133639482Y-104985812D01*
X133759180Y-104949502D01*
X133869494Y-104890537D01*
X133966185Y-104811185D01*
X134045537Y-104714494D01*
X134104502Y-104604180D01*
X134140812Y-104484482D01*
X134153072Y-104360000D01*
X134150000Y-102895750D01*
X133991250Y-102737000D01*
X132842000Y-102737000D01*
X132588000Y-102737000D01*
X131438750Y-102737000D01*
X131280000Y-102895750D01*
X131276928Y-104360000D01*
X125972000Y-104360000D01*
X125972000Y-103655033D01*
X126180001Y-103655033D01*
X126351687Y-103638123D01*
X126516775Y-103588045D01*
X126668921Y-103506721D01*
X126802278Y-103397278D01*
X126911721Y-103263921D01*
X126993045Y-103111775D01*
X127043123Y-102946687D01*
X127060033Y-102775001D01*
X127060033Y-102249999D01*
X127043123Y-102078313D01*
X126993045Y-101913225D01*
X126911721Y-101761079D01*
X126845540Y-101680438D01*
X126881185Y-101651185D01*
X126960537Y-101554494D01*
X127019502Y-101444180D01*
X127055812Y-101324482D01*
X127068072Y-101200000D01*
X127065000Y-100973250D01*
X126951750Y-100860000D01*
X131276928Y-100860000D01*
X131280000Y-102324250D01*
X131438750Y-102483000D01*
X132588000Y-102483000D01*
X132588000Y-100383750D01*
X132842000Y-100383750D01*
X132842000Y-102483000D01*
X133991250Y-102483000D01*
X134150000Y-102324250D01*
X134153072Y-100860000D01*
X134140812Y-100735518D01*
X134104502Y-100615820D01*
X134045537Y-100505506D01*
X133966185Y-100408815D01*
X133869494Y-100329463D01*
X133759180Y-100270498D01*
X133639482Y-100234188D01*
X133515000Y-100221928D01*
X133000750Y-100225000D01*
X132842000Y-100383750D01*
X132588000Y-100383750D01*
X132429250Y-100225000D01*
X131915000Y-100221928D01*
X131790518Y-100234188D01*
X131670820Y-100270498D01*
X131560506Y-100329463D01*
X131463815Y-100408815D01*
X131384463Y-100505506D01*
X131325498Y-100615820D01*
X131289188Y-100735518D01*
X131276928Y-100860000D01*
X126951750Y-100860000D01*
X126906250Y-100814500D01*
X125857000Y-100814500D01*
X125857000Y-100834500D01*
X125603000Y-100834500D01*
X125603000Y-100814500D01*
X124553750Y-100814500D01*
X124395000Y-100973250D01*
X124391928Y-101200000D01*
X124404188Y-101324482D01*
X124440498Y-101444180D01*
X124499463Y-101554494D01*
X124578815Y-101651185D01*
X124614460Y-101680438D01*
X124548279Y-101761079D01*
X124466955Y-101913225D01*
X124416877Y-102078313D01*
X124403270Y-102216461D01*
X124394320Y-102125587D01*
X124344172Y-101960273D01*
X124324157Y-101922828D01*
X124262737Y-101807918D01*
X124213628Y-101748078D01*
X124180604Y-101707838D01*
X124180602Y-101707836D01*
X124153143Y-101674377D01*
X124119684Y-101646918D01*
X123250033Y-100777268D01*
X123250033Y-100576538D01*
X123342849Y-100595000D01*
X123545151Y-100595000D01*
X123743565Y-100555533D01*
X123930467Y-100478115D01*
X124098674Y-100365723D01*
X124241723Y-100222674D01*
X124273577Y-100175000D01*
X124391928Y-100175000D01*
X124395000Y-100401750D01*
X124553750Y-100560500D01*
X125603000Y-100560500D01*
X125603000Y-99698750D01*
X125857000Y-99698750D01*
X125857000Y-100560500D01*
X126906250Y-100560500D01*
X127065000Y-100401750D01*
X127068072Y-100175000D01*
X127055812Y-100050518D01*
X127019502Y-99930820D01*
X126960537Y-99820506D01*
X126881185Y-99723815D01*
X126784494Y-99644463D01*
X126674180Y-99585498D01*
X126554482Y-99549188D01*
X126430000Y-99536928D01*
X126015750Y-99540000D01*
X125857000Y-99698750D01*
X125603000Y-99698750D01*
X125444250Y-99540000D01*
X125030000Y-99536928D01*
X124905518Y-99549188D01*
X124785820Y-99585498D01*
X124675506Y-99644463D01*
X124578815Y-99723815D01*
X124499463Y-99820506D01*
X124440498Y-99930820D01*
X124404188Y-100050518D01*
X124391928Y-100175000D01*
X124273577Y-100175000D01*
X124354115Y-100054467D01*
X124431533Y-99867565D01*
X124471000Y-99669151D01*
X124471000Y-99466849D01*
X124431533Y-99268435D01*
X124354115Y-99081533D01*
X124321000Y-99031973D01*
X124321000Y-97675033D01*
X124375000Y-97675033D01*
X124546686Y-97658123D01*
X124711774Y-97608044D01*
X124863920Y-97526721D01*
X124997277Y-97417277D01*
X125106721Y-97283920D01*
X125188044Y-97131774D01*
X125238123Y-96966686D01*
X125255033Y-96795000D01*
X125255033Y-94295000D01*
X125238123Y-94123314D01*
X125188044Y-93958226D01*
X125106721Y-93806080D01*
X124997277Y-93672723D01*
X124863920Y-93563279D01*
X124711774Y-93481956D01*
X124546686Y-93431877D01*
X124375000Y-93414967D01*
X123275000Y-93414967D01*
X123103314Y-93431877D01*
X122938226Y-93481956D01*
X122786080Y-93563279D01*
X122652723Y-93672723D01*
X122543279Y-93806080D01*
X122461956Y-93958226D01*
X122411877Y-94123314D01*
X122394967Y-94295000D01*
X122394967Y-96795000D01*
X122411877Y-96966686D01*
X122461956Y-97131774D01*
X122543279Y-97283920D01*
X122567001Y-97312825D01*
X122567000Y-99031973D01*
X122533885Y-99081533D01*
X122456467Y-99268435D01*
X122417000Y-99466849D01*
X122417000Y-99549596D01*
X122370001Y-99544967D01*
X121469999Y-99544967D01*
X121298313Y-99561877D01*
X121133225Y-99611955D01*
X120981079Y-99693279D01*
X120847722Y-99802722D01*
X120841339Y-99810500D01*
X116762764Y-99810500D01*
X115882915Y-98930651D01*
X115973306Y-98893210D01*
X116223406Y-98726099D01*
X116436099Y-98513406D01*
X116603210Y-98263306D01*
X116718319Y-97985410D01*
X116777000Y-97690396D01*
X116777000Y-97389604D01*
X116718319Y-97094590D01*
X116603210Y-96816694D01*
X116436099Y-96566594D01*
X116360779Y-96491274D01*
X116391103Y-96482075D01*
X116500028Y-96423853D01*
X116595501Y-96345501D01*
X116673853Y-96250028D01*
X116732075Y-96141103D01*
X116767927Y-96022913D01*
X116780033Y-95900000D01*
X116780033Y-94100000D01*
X116767927Y-93977087D01*
X116732075Y-93858897D01*
X116673853Y-93749972D01*
X116595501Y-93654499D01*
X116500028Y-93576147D01*
X116391103Y-93517925D01*
X116272913Y-93482073D01*
X116150000Y-93469967D01*
X114960233Y-93469967D01*
X113735596Y-92245331D01*
X113708132Y-92211866D01*
X113574591Y-92102272D01*
X113422236Y-92020837D01*
X113256921Y-91970689D01*
X113084999Y-91953756D01*
X113041920Y-91957999D01*
X105823299Y-91957999D01*
X102923285Y-89057985D01*
X102935000Y-89058072D01*
X103059482Y-89045812D01*
X103179180Y-89009502D01*
X103289494Y-88950537D01*
X103386185Y-88871185D01*
X103465537Y-88774494D01*
X103524502Y-88664180D01*
X103560812Y-88544482D01*
X103573072Y-88420000D01*
X103570000Y-88193250D01*
X103411250Y-88034500D01*
X102362000Y-88034500D01*
X102362000Y-88054500D01*
X102108000Y-88054500D01*
X102108000Y-88034500D01*
X102088000Y-88034500D01*
X102088000Y-87780500D01*
X102108000Y-87780500D01*
X102108000Y-87760500D01*
X102362000Y-87760500D01*
X102362000Y-87780500D01*
X103411250Y-87780500D01*
X103570000Y-87621750D01*
X103573072Y-87395000D01*
X103560812Y-87270518D01*
X103524502Y-87150820D01*
X103465537Y-87040506D01*
X103386185Y-86943815D01*
X103350540Y-86914562D01*
X103416721Y-86833921D01*
X103498045Y-86681775D01*
X103548123Y-86516687D01*
X103565033Y-86345001D01*
X103565033Y-85819999D01*
X103548123Y-85648313D01*
X103498045Y-85483225D01*
X103416721Y-85331079D01*
X103307278Y-85197722D01*
X103173921Y-85088279D01*
X103112000Y-85055181D01*
X103112000Y-83221009D01*
X103121774Y-83218044D01*
X103273920Y-83136721D01*
X103407277Y-83027277D01*
X103516721Y-82893920D01*
X103598044Y-82741774D01*
X103648123Y-82576686D01*
X103665033Y-82405000D01*
X103665033Y-81653300D01*
X113746401Y-91734668D01*
G37*
G04 #@! TD.AperFunction*
D24*
X100457000Y-96670500D02*
X100477000Y-96670500D01*
X100477000Y-96924500D01*
X100457000Y-96924500D01*
X100457000Y-97786250D01*
X100615750Y-97945000D01*
X101030000Y-97948072D01*
X101154482Y-97935812D01*
X101274180Y-97899502D01*
X101384494Y-97840537D01*
X101481185Y-97761185D01*
X101560537Y-97664494D01*
X101619502Y-97554180D01*
X101631584Y-97514349D01*
X102091903Y-97974668D01*
X102119367Y-98008133D01*
X102252908Y-98117727D01*
X102405263Y-98199162D01*
X102570578Y-98249310D01*
X102699421Y-98262000D01*
X102699430Y-98262000D01*
X102742499Y-98266242D01*
X102785569Y-98262000D01*
X104614967Y-98262000D01*
X104614967Y-98485000D01*
X104627073Y-98607913D01*
X104662925Y-98726103D01*
X104721147Y-98835028D01*
X104799499Y-98930501D01*
X104894972Y-99008853D01*
X105003897Y-99067075D01*
X105122087Y-99102927D01*
X105245000Y-99115033D01*
X106438001Y-99115033D01*
X106438000Y-102477733D01*
X105290599Y-101330332D01*
X105263135Y-101296867D01*
X105129594Y-101187273D01*
X104977239Y-101105838D01*
X104811924Y-101055690D01*
X104731034Y-101047723D01*
X104640002Y-101038757D01*
X104596923Y-101043000D01*
X101421522Y-101043000D01*
X101293920Y-100938279D01*
X101207000Y-100891820D01*
X101207000Y-100231027D01*
X101240115Y-100181467D01*
X101317533Y-99994565D01*
X101357000Y-99796151D01*
X101357000Y-99593849D01*
X101317533Y-99395435D01*
X101240115Y-99208533D01*
X101127723Y-99040326D01*
X100984674Y-98897277D01*
X100816467Y-98784885D01*
X100629565Y-98707467D01*
X100431151Y-98668000D01*
X100228849Y-98668000D01*
X100031990Y-98707158D01*
X100031990Y-97945091D01*
X100044250Y-97945000D01*
X100203000Y-97786250D01*
X100203000Y-96924500D01*
X100183000Y-96924500D01*
X100183000Y-96670500D01*
X100203000Y-96670500D01*
X100203000Y-96650500D01*
X100457000Y-96650500D01*
X100457000Y-96670500D01*
G04 #@! TA.AperFunction,Conductor*
D25*
G36*
X100457000Y-96670500D02*
G01*
X100477000Y-96670500D01*
X100477000Y-96924500D01*
X100457000Y-96924500D01*
X100457000Y-97786250D01*
X100615750Y-97945000D01*
X101030000Y-97948072D01*
X101154482Y-97935812D01*
X101274180Y-97899502D01*
X101384494Y-97840537D01*
X101481185Y-97761185D01*
X101560537Y-97664494D01*
X101619502Y-97554180D01*
X101631584Y-97514349D01*
X102091903Y-97974668D01*
X102119367Y-98008133D01*
X102252908Y-98117727D01*
X102405263Y-98199162D01*
X102570578Y-98249310D01*
X102699421Y-98262000D01*
X102699430Y-98262000D01*
X102742499Y-98266242D01*
X102785569Y-98262000D01*
X104614967Y-98262000D01*
X104614967Y-98485000D01*
X104627073Y-98607913D01*
X104662925Y-98726103D01*
X104721147Y-98835028D01*
X104799499Y-98930501D01*
X104894972Y-99008853D01*
X105003897Y-99067075D01*
X105122087Y-99102927D01*
X105245000Y-99115033D01*
X106438001Y-99115033D01*
X106438000Y-102477733D01*
X105290599Y-101330332D01*
X105263135Y-101296867D01*
X105129594Y-101187273D01*
X104977239Y-101105838D01*
X104811924Y-101055690D01*
X104731034Y-101047723D01*
X104640002Y-101038757D01*
X104596923Y-101043000D01*
X101421522Y-101043000D01*
X101293920Y-100938279D01*
X101207000Y-100891820D01*
X101207000Y-100231027D01*
X101240115Y-100181467D01*
X101317533Y-99994565D01*
X101357000Y-99796151D01*
X101357000Y-99593849D01*
X101317533Y-99395435D01*
X101240115Y-99208533D01*
X101127723Y-99040326D01*
X100984674Y-98897277D01*
X100816467Y-98784885D01*
X100629565Y-98707467D01*
X100431151Y-98668000D01*
X100228849Y-98668000D01*
X100031990Y-98707158D01*
X100031990Y-97945091D01*
X100044250Y-97945000D01*
X100203000Y-97786250D01*
X100203000Y-96924500D01*
X100183000Y-96924500D01*
X100183000Y-96670500D01*
X100203000Y-96670500D01*
X100203000Y-96650500D01*
X100457000Y-96650500D01*
X100457000Y-96670500D01*
G37*
G04 #@! TD.AperFunction*
D24*
X142379001Y-81135267D02*
X142379000Y-87012734D01*
X142307185Y-87084549D01*
X142305000Y-86923250D01*
X142146250Y-86764500D01*
X141097000Y-86764500D01*
X141097000Y-87626250D01*
X141255750Y-87785000D01*
X141604151Y-87787584D01*
X139765326Y-89626409D01*
X139731867Y-89653868D01*
X139704408Y-89687327D01*
X139704405Y-89687330D01*
X139622273Y-89787409D01*
X139540837Y-89939765D01*
X139490689Y-90105079D01*
X139473756Y-90277001D01*
X139478000Y-90320090D01*
X139477999Y-93551919D01*
X139473756Y-93594999D01*
X139490689Y-93766921D01*
X139529666Y-93895408D01*
X139540837Y-93932235D01*
X139622272Y-94084590D01*
X139731866Y-94218132D01*
X139765331Y-94245596D01*
X140174967Y-94655232D01*
X140174967Y-95945000D01*
X140187073Y-96067913D01*
X140222925Y-96186103D01*
X140281147Y-96295028D01*
X140359499Y-96390501D01*
X140454972Y-96468853D01*
X140563897Y-96527075D01*
X140682087Y-96562927D01*
X140805000Y-96575033D01*
X142405000Y-96575033D01*
X142527913Y-96562927D01*
X142646103Y-96527075D01*
X142755028Y-96468853D01*
X142850501Y-96390501D01*
X142928853Y-96295028D01*
X142987075Y-96186103D01*
X143022927Y-96067913D01*
X143035033Y-95945000D01*
X143035033Y-94655232D01*
X143163266Y-94526999D01*
X145386650Y-94526999D01*
X145316467Y-94696435D01*
X145277000Y-94894849D01*
X145277000Y-95097151D01*
X145316467Y-95295565D01*
X145393885Y-95482467D01*
X145506277Y-95650674D01*
X145649326Y-95793723D01*
X145817533Y-95906115D01*
X146004435Y-95983533D01*
X146202849Y-96023000D01*
X146405151Y-96023000D01*
X146603565Y-95983533D01*
X146790467Y-95906115D01*
X146834041Y-95877000D01*
X148719967Y-95877000D01*
X148719967Y-95900000D01*
X148732073Y-96022913D01*
X148767925Y-96141103D01*
X148826147Y-96250028D01*
X148904499Y-96345501D01*
X148999972Y-96423853D01*
X149108897Y-96482075D01*
X149139221Y-96491274D01*
X149063901Y-96566594D01*
X148896790Y-96816694D01*
X148781681Y-97094590D01*
X148723000Y-97389604D01*
X148723000Y-97690396D01*
X148781681Y-97985410D01*
X148793110Y-98013001D01*
X145350568Y-98013001D01*
X145307498Y-98008759D01*
X145264429Y-98013001D01*
X145264420Y-98013001D01*
X145135577Y-98025691D01*
X144970262Y-98075839D01*
X144817907Y-98157274D01*
X144684366Y-98266868D01*
X144656905Y-98300330D01*
X143412268Y-99544967D01*
X143059999Y-99544967D01*
X142888313Y-99561877D01*
X142723225Y-99611955D01*
X142571079Y-99693279D01*
X142437722Y-99802722D01*
X142431339Y-99810500D01*
X140778661Y-99810500D01*
X140772278Y-99802722D01*
X140638921Y-99693279D01*
X140486775Y-99611955D01*
X140321687Y-99561877D01*
X140150001Y-99544967D01*
X139249999Y-99544967D01*
X139078313Y-99561877D01*
X138913225Y-99611955D01*
X138761079Y-99693279D01*
X138627722Y-99802722D01*
X138518279Y-99936079D01*
X138464485Y-100036720D01*
X137529000Y-99101235D01*
X137529000Y-93770069D01*
X137533242Y-93726999D01*
X137529000Y-93683930D01*
X137529000Y-93683921D01*
X137516310Y-93555078D01*
X137466162Y-93389763D01*
X137384727Y-93237408D01*
X137275133Y-93103867D01*
X137241668Y-93076403D01*
X135445033Y-91279768D01*
X135445033Y-90840000D01*
X135432927Y-90717087D01*
X135397075Y-90598897D01*
X135338853Y-90489972D01*
X135260501Y-90394499D01*
X135165028Y-90316147D01*
X135056103Y-90257925D01*
X134937913Y-90222073D01*
X134815000Y-90209967D01*
X134375233Y-90209967D01*
X132391999Y-88226734D01*
X132391999Y-87150000D01*
X139631928Y-87150000D01*
X139644188Y-87274482D01*
X139680498Y-87394180D01*
X139739463Y-87504494D01*
X139818815Y-87601185D01*
X139915506Y-87680537D01*
X140025820Y-87739502D01*
X140145518Y-87775812D01*
X140270000Y-87788072D01*
X140684250Y-87785000D01*
X140843000Y-87626250D01*
X140843000Y-86764500D01*
X139793750Y-86764500D01*
X139635000Y-86923250D01*
X139631928Y-87150000D01*
X132391999Y-87150000D01*
X132391999Y-87064728D01*
X132579377Y-87102000D01*
X132850623Y-87102000D01*
X133116656Y-87049083D01*
X133367254Y-86945282D01*
X133592787Y-86794586D01*
X133784586Y-86602787D01*
X133935282Y-86377254D01*
X133985000Y-86257224D01*
X134034718Y-86377254D01*
X134185414Y-86602787D01*
X134377213Y-86794586D01*
X134602746Y-86945282D01*
X134853344Y-87049083D01*
X135119377Y-87102000D01*
X135390623Y-87102000D01*
X135656656Y-87049083D01*
X135907254Y-86945282D01*
X136132787Y-86794586D01*
X136324586Y-86602787D01*
X136325112Y-86602000D01*
X140014421Y-86602000D01*
X140057500Y-86606243D01*
X140100579Y-86602000D01*
X140229422Y-86589310D01*
X140394737Y-86539162D01*
X140448360Y-86510500D01*
X140843000Y-86510500D01*
X140843000Y-86490500D01*
X141097000Y-86490500D01*
X141097000Y-86510500D01*
X142146250Y-86510500D01*
X142305000Y-86351750D01*
X142308072Y-86125000D01*
X142295812Y-86000518D01*
X142259502Y-85880820D01*
X142200537Y-85770506D01*
X142121185Y-85673815D01*
X142085540Y-85644562D01*
X142151721Y-85563921D01*
X142233045Y-85411775D01*
X142283123Y-85246687D01*
X142300033Y-85075001D01*
X142300033Y-84549999D01*
X142283123Y-84378313D01*
X142233045Y-84213225D01*
X142151721Y-84061079D01*
X142042278Y-83927722D01*
X141908921Y-83818279D01*
X141756775Y-83736955D01*
X141591687Y-83686877D01*
X141420001Y-83669967D01*
X140519999Y-83669967D01*
X140348313Y-83686877D01*
X140183225Y-83736955D01*
X140031079Y-83818279D01*
X139897722Y-83927722D01*
X139788279Y-84061079D01*
X139706955Y-84213225D01*
X139656877Y-84378313D01*
X139639967Y-84549999D01*
X139639967Y-84848000D01*
X136325112Y-84848000D01*
X136324586Y-84847213D01*
X136132787Y-84655414D01*
X135907254Y-84504718D01*
X135656656Y-84400917D01*
X135390623Y-84348000D01*
X135332265Y-84348000D01*
X136435232Y-83245033D01*
X136510001Y-83245033D01*
X136681687Y-83228123D01*
X136846775Y-83178045D01*
X136998921Y-83096721D01*
X137079562Y-83030540D01*
X137108815Y-83066185D01*
X137205506Y-83145537D01*
X137315820Y-83204502D01*
X137435518Y-83240812D01*
X137560000Y-83253072D01*
X137786750Y-83250000D01*
X137945500Y-83091250D01*
X137945500Y-82042000D01*
X138199500Y-82042000D01*
X138199500Y-83091250D01*
X138358250Y-83250000D01*
X138585000Y-83253072D01*
X138709482Y-83240812D01*
X138829180Y-83204502D01*
X138939494Y-83145537D01*
X139036185Y-83066185D01*
X139115537Y-82969494D01*
X139174502Y-82859180D01*
X139210812Y-82739482D01*
X139223072Y-82615000D01*
X139220000Y-82200750D01*
X139061250Y-82042000D01*
X138199500Y-82042000D01*
X137945500Y-82042000D01*
X137925500Y-82042000D01*
X137925500Y-81788000D01*
X137945500Y-81788000D01*
X137945500Y-80738750D01*
X138199500Y-80738750D01*
X138199500Y-81788000D01*
X139061250Y-81788000D01*
X139220000Y-81629250D01*
X139223072Y-81215000D01*
X139210812Y-81090518D01*
X139174502Y-80970820D01*
X139115537Y-80860506D01*
X139036185Y-80763815D01*
X138939494Y-80684463D01*
X138829180Y-80625498D01*
X138709482Y-80589188D01*
X138585000Y-80576928D01*
X138358250Y-80580000D01*
X138199500Y-80738750D01*
X137945500Y-80738750D01*
X137786750Y-80580000D01*
X137560000Y-80576928D01*
X137435518Y-80589188D01*
X137315820Y-80625498D01*
X137205506Y-80684463D01*
X137108815Y-80763815D01*
X137079562Y-80799460D01*
X136998921Y-80733279D01*
X136846775Y-80651955D01*
X136681687Y-80601877D01*
X136510001Y-80584967D01*
X135984999Y-80584967D01*
X135813313Y-80601877D01*
X135648225Y-80651955D01*
X135496079Y-80733279D01*
X135362722Y-80842722D01*
X135253279Y-80976079D01*
X135171955Y-81128225D01*
X135121877Y-81293313D01*
X135104967Y-81464999D01*
X135104967Y-82094768D01*
X134762964Y-82436771D01*
X134770033Y-82365001D01*
X134770033Y-81464999D01*
X134753123Y-81293313D01*
X134703045Y-81128225D01*
X134621721Y-80976079D01*
X134512278Y-80842722D01*
X134378921Y-80733279D01*
X134226775Y-80651955D01*
X134061687Y-80601877D01*
X133890001Y-80584967D01*
X133364999Y-80584967D01*
X133193313Y-80601877D01*
X133028225Y-80651955D01*
X132876079Y-80733279D01*
X132742722Y-80842722D01*
X132715000Y-80876501D01*
X132687278Y-80842722D01*
X132553921Y-80733279D01*
X132401775Y-80651955D01*
X132236687Y-80601877D01*
X132065001Y-80584967D01*
X131539999Y-80584967D01*
X131368313Y-80601877D01*
X131203225Y-80651955D01*
X131051079Y-80733279D01*
X130917722Y-80842722D01*
X130808279Y-80976079D01*
X130775181Y-81038000D01*
X130209819Y-81038000D01*
X130176721Y-80976079D01*
X130067278Y-80842722D01*
X129933921Y-80733279D01*
X129833280Y-80679485D01*
X130895766Y-79617000D01*
X140860735Y-79617000D01*
X142379001Y-81135267D01*
G04 #@! TA.AperFunction,Conductor*
D25*
G36*
X142379001Y-81135267D02*
G01*
X142379000Y-87012734D01*
X142307185Y-87084549D01*
X142305000Y-86923250D01*
X142146250Y-86764500D01*
X141097000Y-86764500D01*
X141097000Y-87626250D01*
X141255750Y-87785000D01*
X141604151Y-87787584D01*
X139765326Y-89626409D01*
X139731867Y-89653868D01*
X139704408Y-89687327D01*
X139704405Y-89687330D01*
X139622273Y-89787409D01*
X139540837Y-89939765D01*
X139490689Y-90105079D01*
X139473756Y-90277001D01*
X139478000Y-90320090D01*
X139477999Y-93551919D01*
X139473756Y-93594999D01*
X139490689Y-93766921D01*
X139529666Y-93895408D01*
X139540837Y-93932235D01*
X139622272Y-94084590D01*
X139731866Y-94218132D01*
X139765331Y-94245596D01*
X140174967Y-94655232D01*
X140174967Y-95945000D01*
X140187073Y-96067913D01*
X140222925Y-96186103D01*
X140281147Y-96295028D01*
X140359499Y-96390501D01*
X140454972Y-96468853D01*
X140563897Y-96527075D01*
X140682087Y-96562927D01*
X140805000Y-96575033D01*
X142405000Y-96575033D01*
X142527913Y-96562927D01*
X142646103Y-96527075D01*
X142755028Y-96468853D01*
X142850501Y-96390501D01*
X142928853Y-96295028D01*
X142987075Y-96186103D01*
X143022927Y-96067913D01*
X143035033Y-95945000D01*
X143035033Y-94655232D01*
X143163266Y-94526999D01*
X145386650Y-94526999D01*
X145316467Y-94696435D01*
X145277000Y-94894849D01*
X145277000Y-95097151D01*
X145316467Y-95295565D01*
X145393885Y-95482467D01*
X145506277Y-95650674D01*
X145649326Y-95793723D01*
X145817533Y-95906115D01*
X146004435Y-95983533D01*
X146202849Y-96023000D01*
X146405151Y-96023000D01*
X146603565Y-95983533D01*
X146790467Y-95906115D01*
X146834041Y-95877000D01*
X148719967Y-95877000D01*
X148719967Y-95900000D01*
X148732073Y-96022913D01*
X148767925Y-96141103D01*
X148826147Y-96250028D01*
X148904499Y-96345501D01*
X148999972Y-96423853D01*
X149108897Y-96482075D01*
X149139221Y-96491274D01*
X149063901Y-96566594D01*
X148896790Y-96816694D01*
X148781681Y-97094590D01*
X148723000Y-97389604D01*
X148723000Y-97690396D01*
X148781681Y-97985410D01*
X148793110Y-98013001D01*
X145350568Y-98013001D01*
X145307498Y-98008759D01*
X145264429Y-98013001D01*
X145264420Y-98013001D01*
X145135577Y-98025691D01*
X144970262Y-98075839D01*
X144817907Y-98157274D01*
X144684366Y-98266868D01*
X144656905Y-98300330D01*
X143412268Y-99544967D01*
X143059999Y-99544967D01*
X142888313Y-99561877D01*
X142723225Y-99611955D01*
X142571079Y-99693279D01*
X142437722Y-99802722D01*
X142431339Y-99810500D01*
X140778661Y-99810500D01*
X140772278Y-99802722D01*
X140638921Y-99693279D01*
X140486775Y-99611955D01*
X140321687Y-99561877D01*
X140150001Y-99544967D01*
X139249999Y-99544967D01*
X139078313Y-99561877D01*
X138913225Y-99611955D01*
X138761079Y-99693279D01*
X138627722Y-99802722D01*
X138518279Y-99936079D01*
X138464485Y-100036720D01*
X137529000Y-99101235D01*
X137529000Y-93770069D01*
X137533242Y-93726999D01*
X137529000Y-93683930D01*
X137529000Y-93683921D01*
X137516310Y-93555078D01*
X137466162Y-93389763D01*
X137384727Y-93237408D01*
X137275133Y-93103867D01*
X137241668Y-93076403D01*
X135445033Y-91279768D01*
X135445033Y-90840000D01*
X135432927Y-90717087D01*
X135397075Y-90598897D01*
X135338853Y-90489972D01*
X135260501Y-90394499D01*
X135165028Y-90316147D01*
X135056103Y-90257925D01*
X134937913Y-90222073D01*
X134815000Y-90209967D01*
X134375233Y-90209967D01*
X132391999Y-88226734D01*
X132391999Y-87150000D01*
X139631928Y-87150000D01*
X139644188Y-87274482D01*
X139680498Y-87394180D01*
X139739463Y-87504494D01*
X139818815Y-87601185D01*
X139915506Y-87680537D01*
X140025820Y-87739502D01*
X140145518Y-87775812D01*
X140270000Y-87788072D01*
X140684250Y-87785000D01*
X140843000Y-87626250D01*
X140843000Y-86764500D01*
X139793750Y-86764500D01*
X139635000Y-86923250D01*
X139631928Y-87150000D01*
X132391999Y-87150000D01*
X132391999Y-87064728D01*
X132579377Y-87102000D01*
X132850623Y-87102000D01*
X133116656Y-87049083D01*
X133367254Y-86945282D01*
X133592787Y-86794586D01*
X133784586Y-86602787D01*
X133935282Y-86377254D01*
X133985000Y-86257224D01*
X134034718Y-86377254D01*
X134185414Y-86602787D01*
X134377213Y-86794586D01*
X134602746Y-86945282D01*
X134853344Y-87049083D01*
X135119377Y-87102000D01*
X135390623Y-87102000D01*
X135656656Y-87049083D01*
X135907254Y-86945282D01*
X136132787Y-86794586D01*
X136324586Y-86602787D01*
X136325112Y-86602000D01*
X140014421Y-86602000D01*
X140057500Y-86606243D01*
X140100579Y-86602000D01*
X140229422Y-86589310D01*
X140394737Y-86539162D01*
X140448360Y-86510500D01*
X140843000Y-86510500D01*
X140843000Y-86490500D01*
X141097000Y-86490500D01*
X141097000Y-86510500D01*
X142146250Y-86510500D01*
X142305000Y-86351750D01*
X142308072Y-86125000D01*
X142295812Y-86000518D01*
X142259502Y-85880820D01*
X142200537Y-85770506D01*
X142121185Y-85673815D01*
X142085540Y-85644562D01*
X142151721Y-85563921D01*
X142233045Y-85411775D01*
X142283123Y-85246687D01*
X142300033Y-85075001D01*
X142300033Y-84549999D01*
X142283123Y-84378313D01*
X142233045Y-84213225D01*
X142151721Y-84061079D01*
X142042278Y-83927722D01*
X141908921Y-83818279D01*
X141756775Y-83736955D01*
X141591687Y-83686877D01*
X141420001Y-83669967D01*
X140519999Y-83669967D01*
X140348313Y-83686877D01*
X140183225Y-83736955D01*
X140031079Y-83818279D01*
X139897722Y-83927722D01*
X139788279Y-84061079D01*
X139706955Y-84213225D01*
X139656877Y-84378313D01*
X139639967Y-84549999D01*
X139639967Y-84848000D01*
X136325112Y-84848000D01*
X136324586Y-84847213D01*
X136132787Y-84655414D01*
X135907254Y-84504718D01*
X135656656Y-84400917D01*
X135390623Y-84348000D01*
X135332265Y-84348000D01*
X136435232Y-83245033D01*
X136510001Y-83245033D01*
X136681687Y-83228123D01*
X136846775Y-83178045D01*
X136998921Y-83096721D01*
X137079562Y-83030540D01*
X137108815Y-83066185D01*
X137205506Y-83145537D01*
X137315820Y-83204502D01*
X137435518Y-83240812D01*
X137560000Y-83253072D01*
X137786750Y-83250000D01*
X137945500Y-83091250D01*
X137945500Y-82042000D01*
X138199500Y-82042000D01*
X138199500Y-83091250D01*
X138358250Y-83250000D01*
X138585000Y-83253072D01*
X138709482Y-83240812D01*
X138829180Y-83204502D01*
X138939494Y-83145537D01*
X139036185Y-83066185D01*
X139115537Y-82969494D01*
X139174502Y-82859180D01*
X139210812Y-82739482D01*
X139223072Y-82615000D01*
X139220000Y-82200750D01*
X139061250Y-82042000D01*
X138199500Y-82042000D01*
X137945500Y-82042000D01*
X137925500Y-82042000D01*
X137925500Y-81788000D01*
X137945500Y-81788000D01*
X137945500Y-80738750D01*
X138199500Y-80738750D01*
X138199500Y-81788000D01*
X139061250Y-81788000D01*
X139220000Y-81629250D01*
X139223072Y-81215000D01*
X139210812Y-81090518D01*
X139174502Y-80970820D01*
X139115537Y-80860506D01*
X139036185Y-80763815D01*
X138939494Y-80684463D01*
X138829180Y-80625498D01*
X138709482Y-80589188D01*
X138585000Y-80576928D01*
X138358250Y-80580000D01*
X138199500Y-80738750D01*
X137945500Y-80738750D01*
X137786750Y-80580000D01*
X137560000Y-80576928D01*
X137435518Y-80589188D01*
X137315820Y-80625498D01*
X137205506Y-80684463D01*
X137108815Y-80763815D01*
X137079562Y-80799460D01*
X136998921Y-80733279D01*
X136846775Y-80651955D01*
X136681687Y-80601877D01*
X136510001Y-80584967D01*
X135984999Y-80584967D01*
X135813313Y-80601877D01*
X135648225Y-80651955D01*
X135496079Y-80733279D01*
X135362722Y-80842722D01*
X135253279Y-80976079D01*
X135171955Y-81128225D01*
X135121877Y-81293313D01*
X135104967Y-81464999D01*
X135104967Y-82094768D01*
X134762964Y-82436771D01*
X134770033Y-82365001D01*
X134770033Y-81464999D01*
X134753123Y-81293313D01*
X134703045Y-81128225D01*
X134621721Y-80976079D01*
X134512278Y-80842722D01*
X134378921Y-80733279D01*
X134226775Y-80651955D01*
X134061687Y-80601877D01*
X133890001Y-80584967D01*
X133364999Y-80584967D01*
X133193313Y-80601877D01*
X133028225Y-80651955D01*
X132876079Y-80733279D01*
X132742722Y-80842722D01*
X132715000Y-80876501D01*
X132687278Y-80842722D01*
X132553921Y-80733279D01*
X132401775Y-80651955D01*
X132236687Y-80601877D01*
X132065001Y-80584967D01*
X131539999Y-80584967D01*
X131368313Y-80601877D01*
X131203225Y-80651955D01*
X131051079Y-80733279D01*
X130917722Y-80842722D01*
X130808279Y-80976079D01*
X130775181Y-81038000D01*
X130209819Y-81038000D01*
X130176721Y-80976079D01*
X130067278Y-80842722D01*
X129933921Y-80733279D01*
X129833280Y-80679485D01*
X130895766Y-79617000D01*
X140860735Y-79617000D01*
X142379001Y-81135267D01*
G37*
G04 #@! TD.AperFunction*
D24*
X144175385Y-82540524D02*
X144605649Y-82828017D01*
X145083732Y-83026046D01*
X145591263Y-83127000D01*
X145645578Y-83127000D01*
X145585837Y-83238767D01*
X145535689Y-83404081D01*
X145518756Y-83576003D01*
X145523000Y-83619092D01*
X145522999Y-88104921D01*
X145518756Y-88148001D01*
X145535689Y-88319923D01*
X145557758Y-88392673D01*
X145585837Y-88485237D01*
X145667272Y-88637592D01*
X145776866Y-88771134D01*
X145810330Y-88798597D01*
X146451406Y-89439674D01*
X146478866Y-89473134D01*
X146512325Y-89500593D01*
X146512327Y-89500595D01*
X146577426Y-89554020D01*
X146612407Y-89582728D01*
X146695190Y-89626976D01*
X146764762Y-89664163D01*
X146930076Y-89714311D01*
X147101999Y-89731244D01*
X147145078Y-89727001D01*
X153354922Y-89727001D01*
X153398001Y-89731244D01*
X153441080Y-89727001D01*
X153569923Y-89714311D01*
X153735238Y-89664163D01*
X153887593Y-89582728D01*
X154021134Y-89473134D01*
X154048598Y-89439669D01*
X154266277Y-89221990D01*
X158582824Y-89221990D01*
X158585000Y-90259250D01*
X158743750Y-90418000D01*
X159893000Y-90418000D01*
X159893000Y-90398000D01*
X160147000Y-90398000D01*
X160147000Y-90418000D01*
X160167000Y-90418000D01*
X160167000Y-90672000D01*
X160147000Y-90672000D01*
X160147000Y-90692000D01*
X159893000Y-90692000D01*
X159893000Y-90672000D01*
X158743750Y-90672000D01*
X158585000Y-90830750D01*
X158581928Y-92295000D01*
X158594188Y-92419482D01*
X158630498Y-92539180D01*
X158689463Y-92649494D01*
X158768815Y-92746185D01*
X158801488Y-92772999D01*
X143035033Y-92772999D01*
X143035033Y-92722000D01*
X143823921Y-92722000D01*
X143867000Y-92726243D01*
X143910079Y-92722000D01*
X144038922Y-92709310D01*
X144204237Y-92659162D01*
X144356592Y-92577727D01*
X144490133Y-92468133D01*
X144514066Y-92438970D01*
X144571565Y-92427533D01*
X144758467Y-92350115D01*
X144926674Y-92237723D01*
X145069723Y-92094674D01*
X145182115Y-91926467D01*
X145259533Y-91739565D01*
X145299000Y-91541151D01*
X145299000Y-91338849D01*
X145259533Y-91140435D01*
X145182115Y-90953533D01*
X145069723Y-90785326D01*
X144926674Y-90642277D01*
X144758467Y-90529885D01*
X144571565Y-90452467D01*
X144373151Y-90413000D01*
X144170849Y-90413000D01*
X143972435Y-90452467D01*
X143785533Y-90529885D01*
X143617326Y-90642277D01*
X143474277Y-90785326D01*
X143361885Y-90953533D01*
X143355893Y-90968000D01*
X143035033Y-90968000D01*
X143035033Y-90745000D01*
X143022927Y-90622087D01*
X142987075Y-90503897D01*
X142928853Y-90394972D01*
X142850501Y-90299499D01*
X142755028Y-90221147D01*
X142646103Y-90162925D01*
X142527913Y-90127073D01*
X142405000Y-90114967D01*
X141757298Y-90114967D01*
X143845675Y-88026591D01*
X143879133Y-87999133D01*
X143928151Y-87939405D01*
X143988726Y-87865593D01*
X143988728Y-87865591D01*
X144070162Y-87713237D01*
X144075877Y-87694396D01*
X144120310Y-87547923D01*
X144137243Y-87376000D01*
X144133000Y-87332921D01*
X144133000Y-82498139D01*
X144175385Y-82540524D01*
G04 #@! TA.AperFunction,Conductor*
D25*
G36*
X144175385Y-82540524D02*
G01*
X144605649Y-82828017D01*
X145083732Y-83026046D01*
X145591263Y-83127000D01*
X145645578Y-83127000D01*
X145585837Y-83238767D01*
X145535689Y-83404081D01*
X145518756Y-83576003D01*
X145523000Y-83619092D01*
X145522999Y-88104921D01*
X145518756Y-88148001D01*
X145535689Y-88319923D01*
X145557758Y-88392673D01*
X145585837Y-88485237D01*
X145667272Y-88637592D01*
X145776866Y-88771134D01*
X145810330Y-88798597D01*
X146451406Y-89439674D01*
X146478866Y-89473134D01*
X146512325Y-89500593D01*
X146512327Y-89500595D01*
X146577426Y-89554020D01*
X146612407Y-89582728D01*
X146695190Y-89626976D01*
X146764762Y-89664163D01*
X146930076Y-89714311D01*
X147101999Y-89731244D01*
X147145078Y-89727001D01*
X153354922Y-89727001D01*
X153398001Y-89731244D01*
X153441080Y-89727001D01*
X153569923Y-89714311D01*
X153735238Y-89664163D01*
X153887593Y-89582728D01*
X154021134Y-89473134D01*
X154048598Y-89439669D01*
X154266277Y-89221990D01*
X158582824Y-89221990D01*
X158585000Y-90259250D01*
X158743750Y-90418000D01*
X159893000Y-90418000D01*
X159893000Y-90398000D01*
X160147000Y-90398000D01*
X160147000Y-90418000D01*
X160167000Y-90418000D01*
X160167000Y-90672000D01*
X160147000Y-90672000D01*
X160147000Y-90692000D01*
X159893000Y-90692000D01*
X159893000Y-90672000D01*
X158743750Y-90672000D01*
X158585000Y-90830750D01*
X158581928Y-92295000D01*
X158594188Y-92419482D01*
X158630498Y-92539180D01*
X158689463Y-92649494D01*
X158768815Y-92746185D01*
X158801488Y-92772999D01*
X143035033Y-92772999D01*
X143035033Y-92722000D01*
X143823921Y-92722000D01*
X143867000Y-92726243D01*
X143910079Y-92722000D01*
X144038922Y-92709310D01*
X144204237Y-92659162D01*
X144356592Y-92577727D01*
X144490133Y-92468133D01*
X144514066Y-92438970D01*
X144571565Y-92427533D01*
X144758467Y-92350115D01*
X144926674Y-92237723D01*
X145069723Y-92094674D01*
X145182115Y-91926467D01*
X145259533Y-91739565D01*
X145299000Y-91541151D01*
X145299000Y-91338849D01*
X145259533Y-91140435D01*
X145182115Y-90953533D01*
X145069723Y-90785326D01*
X144926674Y-90642277D01*
X144758467Y-90529885D01*
X144571565Y-90452467D01*
X144373151Y-90413000D01*
X144170849Y-90413000D01*
X143972435Y-90452467D01*
X143785533Y-90529885D01*
X143617326Y-90642277D01*
X143474277Y-90785326D01*
X143361885Y-90953533D01*
X143355893Y-90968000D01*
X143035033Y-90968000D01*
X143035033Y-90745000D01*
X143022927Y-90622087D01*
X142987075Y-90503897D01*
X142928853Y-90394972D01*
X142850501Y-90299499D01*
X142755028Y-90221147D01*
X142646103Y-90162925D01*
X142527913Y-90127073D01*
X142405000Y-90114967D01*
X141757298Y-90114967D01*
X143845675Y-88026591D01*
X143879133Y-87999133D01*
X143928151Y-87939405D01*
X143988726Y-87865593D01*
X143988728Y-87865591D01*
X144070162Y-87713237D01*
X144075877Y-87694396D01*
X144120310Y-87547923D01*
X144137243Y-87376000D01*
X144133000Y-87332921D01*
X144133000Y-82498139D01*
X144175385Y-82540524D01*
G37*
G04 #@! TD.AperFunction*
D24*
X127361326Y-84038277D02*
X127218277Y-84181326D01*
X127105885Y-84349533D01*
X127028467Y-84536435D01*
X126989000Y-84734849D01*
X126989000Y-84937151D01*
X127028467Y-85135565D01*
X127105885Y-85322467D01*
X127139001Y-85372029D01*
X127139000Y-90126603D01*
X127019674Y-90007277D01*
X126851467Y-89894885D01*
X126664565Y-89817467D01*
X126466151Y-89778000D01*
X126263849Y-89778000D01*
X126065435Y-89817467D01*
X125878533Y-89894885D01*
X125710326Y-90007277D01*
X125567277Y-90150326D01*
X125488650Y-90268000D01*
X125255033Y-90268000D01*
X125255033Y-89895000D01*
X125238123Y-89723314D01*
X125188044Y-89558226D01*
X125106721Y-89406080D01*
X124997277Y-89272723D01*
X124863920Y-89163279D01*
X124711774Y-89081956D01*
X124546686Y-89031877D01*
X124375000Y-89014967D01*
X123275000Y-89014967D01*
X123103314Y-89031877D01*
X122938226Y-89081956D01*
X122786080Y-89163279D01*
X122652723Y-89272723D01*
X122543279Y-89406080D01*
X122461956Y-89558226D01*
X122411877Y-89723314D01*
X122394967Y-89895000D01*
X122394967Y-90268000D01*
X114760263Y-90268000D01*
X113382915Y-88890652D01*
X113473306Y-88853210D01*
X113723406Y-88686099D01*
X113936099Y-88473406D01*
X114000000Y-88377771D01*
X114063901Y-88473406D01*
X114276594Y-88686099D01*
X114526694Y-88853210D01*
X114804590Y-88968319D01*
X115099604Y-89027000D01*
X115400396Y-89027000D01*
X115695410Y-88968319D01*
X115973306Y-88853210D01*
X116223406Y-88686099D01*
X116436099Y-88473406D01*
X116500000Y-88377771D01*
X116563901Y-88473406D01*
X116776594Y-88686099D01*
X117026694Y-88853210D01*
X117304590Y-88968319D01*
X117599604Y-89027000D01*
X117900396Y-89027000D01*
X118195410Y-88968319D01*
X118473306Y-88853210D01*
X118723406Y-88686099D01*
X118936099Y-88473406D01*
X119000515Y-88377000D01*
X121729421Y-88377000D01*
X121772500Y-88381243D01*
X121815579Y-88377000D01*
X121944422Y-88364310D01*
X122109737Y-88314162D01*
X122262092Y-88232727D01*
X122395633Y-88123133D01*
X122423097Y-88089668D01*
X123158416Y-87354350D01*
X123170498Y-87394180D01*
X123229463Y-87504494D01*
X123308815Y-87601185D01*
X123405506Y-87680537D01*
X123515820Y-87739502D01*
X123635518Y-87775812D01*
X123760000Y-87788072D01*
X124174250Y-87785000D01*
X124333000Y-87626250D01*
X124333000Y-86764500D01*
X124587000Y-86764500D01*
X124587000Y-87626250D01*
X124745750Y-87785000D01*
X125160000Y-87788072D01*
X125284482Y-87775812D01*
X125404180Y-87739502D01*
X125514494Y-87680537D01*
X125611185Y-87601185D01*
X125690537Y-87504494D01*
X125749502Y-87394180D01*
X125785812Y-87274482D01*
X125798072Y-87150000D01*
X125795000Y-86923250D01*
X125636250Y-86764500D01*
X124587000Y-86764500D01*
X124333000Y-86764500D01*
X124313000Y-86764500D01*
X124313000Y-86510500D01*
X124333000Y-86510500D01*
X124333000Y-86490500D01*
X124587000Y-86490500D01*
X124587000Y-86510500D01*
X125636250Y-86510500D01*
X125795000Y-86351750D01*
X125798072Y-86125000D01*
X125785812Y-86000518D01*
X125749502Y-85880820D01*
X125690537Y-85770506D01*
X125611185Y-85673815D01*
X125575540Y-85644562D01*
X125641721Y-85563921D01*
X125723045Y-85411775D01*
X125773123Y-85246687D01*
X125790033Y-85075001D01*
X125790033Y-84549999D01*
X125773123Y-84378313D01*
X125723045Y-84213225D01*
X125641721Y-84061079D01*
X125544004Y-83942010D01*
X127505400Y-83942010D01*
X127361326Y-84038277D01*
G04 #@! TA.AperFunction,Conductor*
D25*
G36*
X127361326Y-84038277D02*
G01*
X127218277Y-84181326D01*
X127105885Y-84349533D01*
X127028467Y-84536435D01*
X126989000Y-84734849D01*
X126989000Y-84937151D01*
X127028467Y-85135565D01*
X127105885Y-85322467D01*
X127139001Y-85372029D01*
X127139000Y-90126603D01*
X127019674Y-90007277D01*
X126851467Y-89894885D01*
X126664565Y-89817467D01*
X126466151Y-89778000D01*
X126263849Y-89778000D01*
X126065435Y-89817467D01*
X125878533Y-89894885D01*
X125710326Y-90007277D01*
X125567277Y-90150326D01*
X125488650Y-90268000D01*
X125255033Y-90268000D01*
X125255033Y-89895000D01*
X125238123Y-89723314D01*
X125188044Y-89558226D01*
X125106721Y-89406080D01*
X124997277Y-89272723D01*
X124863920Y-89163279D01*
X124711774Y-89081956D01*
X124546686Y-89031877D01*
X124375000Y-89014967D01*
X123275000Y-89014967D01*
X123103314Y-89031877D01*
X122938226Y-89081956D01*
X122786080Y-89163279D01*
X122652723Y-89272723D01*
X122543279Y-89406080D01*
X122461956Y-89558226D01*
X122411877Y-89723314D01*
X122394967Y-89895000D01*
X122394967Y-90268000D01*
X114760263Y-90268000D01*
X113382915Y-88890652D01*
X113473306Y-88853210D01*
X113723406Y-88686099D01*
X113936099Y-88473406D01*
X114000000Y-88377771D01*
X114063901Y-88473406D01*
X114276594Y-88686099D01*
X114526694Y-88853210D01*
X114804590Y-88968319D01*
X115099604Y-89027000D01*
X115400396Y-89027000D01*
X115695410Y-88968319D01*
X115973306Y-88853210D01*
X116223406Y-88686099D01*
X116436099Y-88473406D01*
X116500000Y-88377771D01*
X116563901Y-88473406D01*
X116776594Y-88686099D01*
X117026694Y-88853210D01*
X117304590Y-88968319D01*
X117599604Y-89027000D01*
X117900396Y-89027000D01*
X118195410Y-88968319D01*
X118473306Y-88853210D01*
X118723406Y-88686099D01*
X118936099Y-88473406D01*
X119000515Y-88377000D01*
X121729421Y-88377000D01*
X121772500Y-88381243D01*
X121815579Y-88377000D01*
X121944422Y-88364310D01*
X122109737Y-88314162D01*
X122262092Y-88232727D01*
X122395633Y-88123133D01*
X122423097Y-88089668D01*
X123158416Y-87354350D01*
X123170498Y-87394180D01*
X123229463Y-87504494D01*
X123308815Y-87601185D01*
X123405506Y-87680537D01*
X123515820Y-87739502D01*
X123635518Y-87775812D01*
X123760000Y-87788072D01*
X124174250Y-87785000D01*
X124333000Y-87626250D01*
X124333000Y-86764500D01*
X124587000Y-86764500D01*
X124587000Y-87626250D01*
X124745750Y-87785000D01*
X125160000Y-87788072D01*
X125284482Y-87775812D01*
X125404180Y-87739502D01*
X125514494Y-87680537D01*
X125611185Y-87601185D01*
X125690537Y-87504494D01*
X125749502Y-87394180D01*
X125785812Y-87274482D01*
X125798072Y-87150000D01*
X125795000Y-86923250D01*
X125636250Y-86764500D01*
X124587000Y-86764500D01*
X124333000Y-86764500D01*
X124313000Y-86764500D01*
X124313000Y-86510500D01*
X124333000Y-86510500D01*
X124333000Y-86490500D01*
X124587000Y-86490500D01*
X124587000Y-86510500D01*
X125636250Y-86510500D01*
X125795000Y-86351750D01*
X125798072Y-86125000D01*
X125785812Y-86000518D01*
X125749502Y-85880820D01*
X125690537Y-85770506D01*
X125611185Y-85673815D01*
X125575540Y-85644562D01*
X125641721Y-85563921D01*
X125723045Y-85411775D01*
X125773123Y-85246687D01*
X125790033Y-85075001D01*
X125790033Y-84549999D01*
X125773123Y-84378313D01*
X125723045Y-84213225D01*
X125641721Y-84061079D01*
X125544004Y-83942010D01*
X127505400Y-83942010D01*
X127361326Y-84038277D01*
G37*
G04 #@! TD.AperFunction*
D24*
X127042590Y-75522857D02*
X127018708Y-75531397D01*
X126893486Y-75598329D01*
X126821903Y-75842298D01*
X127635000Y-76655395D01*
X127649143Y-76641253D01*
X127828748Y-76820858D01*
X127814605Y-76835000D01*
X128627702Y-77648097D01*
X128871671Y-77576514D01*
X128943803Y-77424070D01*
X128944401Y-77424668D01*
X128971865Y-77458133D01*
X129105406Y-77567727D01*
X129257761Y-77649162D01*
X129423076Y-77699310D01*
X129551919Y-77712000D01*
X129551928Y-77712000D01*
X129594997Y-77716242D01*
X129638067Y-77712000D01*
X136664753Y-77712000D01*
X136686576Y-77744660D01*
X136804916Y-77863000D01*
X130575579Y-77863000D01*
X130532499Y-77858757D01*
X130360577Y-77875690D01*
X130322101Y-77887362D01*
X130195263Y-77925838D01*
X130042908Y-78007273D01*
X130042906Y-78007274D01*
X130042907Y-78007274D01*
X129964439Y-78071671D01*
X129909367Y-78116867D01*
X129881908Y-78150326D01*
X127447268Y-80584967D01*
X127267732Y-80584967D01*
X124510467Y-77827702D01*
X126821903Y-77827702D01*
X126893486Y-78071671D01*
X127148996Y-78192571D01*
X127423184Y-78261300D01*
X127705512Y-78275217D01*
X127985130Y-78233787D01*
X128251292Y-78138603D01*
X128376514Y-78071671D01*
X128448097Y-77827702D01*
X127635000Y-77014605D01*
X126821903Y-77827702D01*
X124510467Y-77827702D01*
X123588277Y-76905512D01*
X126194783Y-76905512D01*
X126236213Y-77185130D01*
X126331397Y-77451292D01*
X126398329Y-77576514D01*
X126642298Y-77648097D01*
X127455395Y-76835000D01*
X126642298Y-76021903D01*
X126398329Y-76093486D01*
X126277429Y-76348996D01*
X126208700Y-76623184D01*
X126194783Y-76905512D01*
X123588277Y-76905512D01*
X119964745Y-73281980D01*
X124801713Y-73281980D01*
X127042590Y-75522857D01*
G04 #@! TA.AperFunction,Conductor*
D25*
G36*
X127042590Y-75522857D02*
G01*
X127018708Y-75531397D01*
X126893486Y-75598329D01*
X126821903Y-75842298D01*
X127635000Y-76655395D01*
X127649143Y-76641253D01*
X127828748Y-76820858D01*
X127814605Y-76835000D01*
X128627702Y-77648097D01*
X128871671Y-77576514D01*
X128943803Y-77424070D01*
X128944401Y-77424668D01*
X128971865Y-77458133D01*
X129105406Y-77567727D01*
X129257761Y-77649162D01*
X129423076Y-77699310D01*
X129551919Y-77712000D01*
X129551928Y-77712000D01*
X129594997Y-77716242D01*
X129638067Y-77712000D01*
X136664753Y-77712000D01*
X136686576Y-77744660D01*
X136804916Y-77863000D01*
X130575579Y-77863000D01*
X130532499Y-77858757D01*
X130360577Y-77875690D01*
X130322101Y-77887362D01*
X130195263Y-77925838D01*
X130042908Y-78007273D01*
X130042906Y-78007274D01*
X130042907Y-78007274D01*
X129964439Y-78071671D01*
X129909367Y-78116867D01*
X129881908Y-78150326D01*
X127447268Y-80584967D01*
X127267732Y-80584967D01*
X124510467Y-77827702D01*
X126821903Y-77827702D01*
X126893486Y-78071671D01*
X127148996Y-78192571D01*
X127423184Y-78261300D01*
X127705512Y-78275217D01*
X127985130Y-78233787D01*
X128251292Y-78138603D01*
X128376514Y-78071671D01*
X128448097Y-77827702D01*
X127635000Y-77014605D01*
X126821903Y-77827702D01*
X124510467Y-77827702D01*
X123588277Y-76905512D01*
X126194783Y-76905512D01*
X126236213Y-77185130D01*
X126331397Y-77451292D01*
X126398329Y-77576514D01*
X126642298Y-77648097D01*
X127455395Y-76835000D01*
X126642298Y-76021903D01*
X126398329Y-76093486D01*
X126277429Y-76348996D01*
X126208700Y-76623184D01*
X126194783Y-76905512D01*
X123588277Y-76905512D01*
X119964745Y-73281980D01*
X124801713Y-73281980D01*
X127042590Y-75522857D01*
G37*
G04 #@! TD.AperFunction*
G04 #@! TD*
M02*
