G04 #@! TF.GenerationSoftware,KiCad,Pcbnew,(5.1.7)-1*
G04 #@! TF.CreationDate,2021-08-29T20:02:24-05:00*
G04 #@! TF.ProjectId,ConsolePedalShakeSMT,436f6e73-6f6c-4655-9065-64616c536861,rev?*
G04 #@! TF.SameCoordinates,Original*
G04 #@! TF.FileFunction,Legend,Top*
G04 #@! TF.FilePolarity,Positive*
%FSLAX46Y46*%
G04 Gerber Fmt 4.6, Leading zero omitted, Abs format (unit mm)*
G04 Created by KiCad (PCBNEW (5.1.7)-1) date 2021-08-29 20:02:24*
%MOMM*%
%LPD*%
G01*
G04 APERTURE LIST*
%ADD10C,0.150000*%
%ADD11C,0.300000*%
%ADD12C,0.250000*%
%ADD13C,0.100000*%
%ADD14C,0.200000*%
%ADD15C,0.120000*%
G04 APERTURE END LIST*
D10*
X135509047Y-91511428D02*
X136270952Y-91511428D01*
X129159047Y-91511428D02*
X129920952Y-91511428D01*
X129540000Y-91892380D02*
X129540000Y-91130476D01*
D11*
X148678571Y-90062857D02*
X148178571Y-90062857D01*
X148178571Y-90848571D02*
X148178571Y-89348571D01*
X148892857Y-89348571D01*
X149464285Y-90848571D02*
X149464285Y-89848571D01*
X149464285Y-90134285D02*
X149535714Y-89991428D01*
X149607142Y-89920000D01*
X149750000Y-89848571D01*
X149892857Y-89848571D01*
X150964285Y-90777142D02*
X150821428Y-90848571D01*
X150535714Y-90848571D01*
X150392857Y-90777142D01*
X150321428Y-90634285D01*
X150321428Y-90062857D01*
X150392857Y-89920000D01*
X150535714Y-89848571D01*
X150821428Y-89848571D01*
X150964285Y-89920000D01*
X151035714Y-90062857D01*
X151035714Y-90205714D01*
X150321428Y-90348571D01*
X152321428Y-89848571D02*
X152321428Y-91348571D01*
X152321428Y-90777142D02*
X152178571Y-90848571D01*
X151892857Y-90848571D01*
X151750000Y-90777142D01*
X151678571Y-90705714D01*
X151607142Y-90562857D01*
X151607142Y-90134285D01*
X151678571Y-89991428D01*
X151750000Y-89920000D01*
X151892857Y-89848571D01*
X152178571Y-89848571D01*
X152321428Y-89920000D01*
X113214285Y-90420000D02*
X113928571Y-90420000D01*
X113071428Y-90848571D02*
X113571428Y-89348571D01*
X114071428Y-90848571D01*
X114571428Y-90848571D02*
X114571428Y-89848571D01*
X114571428Y-89991428D02*
X114642857Y-89920000D01*
X114785714Y-89848571D01*
X115000000Y-89848571D01*
X115142857Y-89920000D01*
X115214285Y-90062857D01*
X115214285Y-90848571D01*
X115214285Y-90062857D02*
X115285714Y-89920000D01*
X115428571Y-89848571D01*
X115642857Y-89848571D01*
X115785714Y-89920000D01*
X115857142Y-90062857D01*
X115857142Y-90848571D01*
X116571428Y-89848571D02*
X116571428Y-91348571D01*
X116571428Y-89920000D02*
X116714285Y-89848571D01*
X117000000Y-89848571D01*
X117142857Y-89920000D01*
X117214285Y-89991428D01*
X117285714Y-90134285D01*
X117285714Y-90562857D01*
X117214285Y-90705714D01*
X117142857Y-90777142D01*
X117000000Y-90848571D01*
X116714285Y-90848571D01*
X116571428Y-90777142D01*
D10*
X111158857Y-83835142D02*
X111158857Y-84478000D01*
X111116000Y-84606571D01*
X111030285Y-84692285D01*
X110901714Y-84735142D01*
X110816000Y-84735142D01*
X112016000Y-84735142D02*
X111587428Y-84735142D01*
X111587428Y-83835142D01*
X112830285Y-84649428D02*
X112787428Y-84692285D01*
X112658857Y-84735142D01*
X112573142Y-84735142D01*
X112444571Y-84692285D01*
X112358857Y-84606571D01*
X112316000Y-84520857D01*
X112273142Y-84349428D01*
X112273142Y-84220857D01*
X112316000Y-84049428D01*
X112358857Y-83963714D01*
X112444571Y-83878000D01*
X112573142Y-83835142D01*
X112658857Y-83835142D01*
X112787428Y-83878000D01*
X112830285Y-83920857D01*
X113473142Y-83835142D02*
X113473142Y-84478000D01*
X113430285Y-84606571D01*
X113344571Y-84692285D01*
X113216000Y-84735142D01*
X113130285Y-84735142D01*
X114330285Y-84735142D02*
X113901714Y-84735142D01*
X113901714Y-83835142D01*
X115144571Y-84649428D02*
X115101714Y-84692285D01*
X114973142Y-84735142D01*
X114887428Y-84735142D01*
X114758857Y-84692285D01*
X114673142Y-84606571D01*
X114630285Y-84520857D01*
X114587428Y-84349428D01*
X114587428Y-84220857D01*
X114630285Y-84049428D01*
X114673142Y-83963714D01*
X114758857Y-83878000D01*
X114887428Y-83835142D01*
X114973142Y-83835142D01*
X115101714Y-83878000D01*
X115144571Y-83920857D01*
X115787428Y-83835142D02*
X115787428Y-84478000D01*
X115744571Y-84606571D01*
X115658857Y-84692285D01*
X115530285Y-84735142D01*
X115444571Y-84735142D01*
X116644571Y-84735142D02*
X116216000Y-84735142D01*
X116216000Y-83835142D01*
X117458857Y-84649428D02*
X117416000Y-84692285D01*
X117287428Y-84735142D01*
X117201714Y-84735142D01*
X117073142Y-84692285D01*
X116987428Y-84606571D01*
X116944571Y-84520857D01*
X116901714Y-84349428D01*
X116901714Y-84220857D01*
X116944571Y-84049428D01*
X116987428Y-83963714D01*
X117073142Y-83878000D01*
X117201714Y-83835142D01*
X117287428Y-83835142D01*
X117416000Y-83878000D01*
X117458857Y-83920857D01*
X118101714Y-83835142D02*
X118101714Y-84478000D01*
X118058857Y-84606571D01*
X117973142Y-84692285D01*
X117844571Y-84735142D01*
X117758857Y-84735142D01*
X118958857Y-84735142D02*
X118530285Y-84735142D01*
X118530285Y-83835142D01*
X119773142Y-84649428D02*
X119730285Y-84692285D01*
X119601714Y-84735142D01*
X119516000Y-84735142D01*
X119387428Y-84692285D01*
X119301714Y-84606571D01*
X119258857Y-84520857D01*
X119216000Y-84349428D01*
X119216000Y-84220857D01*
X119258857Y-84049428D01*
X119301714Y-83963714D01*
X119387428Y-83878000D01*
X119516000Y-83835142D01*
X119601714Y-83835142D01*
X119730285Y-83878000D01*
X119773142Y-83920857D01*
D12*
X116179285Y-121820714D02*
X116107857Y-121892142D01*
X115893571Y-121963571D01*
X115750714Y-121963571D01*
X115536428Y-121892142D01*
X115393571Y-121749285D01*
X115322142Y-121606428D01*
X115250714Y-121320714D01*
X115250714Y-121106428D01*
X115322142Y-120820714D01*
X115393571Y-120677857D01*
X115536428Y-120535000D01*
X115750714Y-120463571D01*
X115893571Y-120463571D01*
X116107857Y-120535000D01*
X116179285Y-120606428D01*
X117036428Y-121963571D02*
X116893571Y-121892142D01*
X116822142Y-121820714D01*
X116750714Y-121677857D01*
X116750714Y-121249285D01*
X116822142Y-121106428D01*
X116893571Y-121035000D01*
X117036428Y-120963571D01*
X117250714Y-120963571D01*
X117393571Y-121035000D01*
X117465000Y-121106428D01*
X117536428Y-121249285D01*
X117536428Y-121677857D01*
X117465000Y-121820714D01*
X117393571Y-121892142D01*
X117250714Y-121963571D01*
X117036428Y-121963571D01*
X118179285Y-120963571D02*
X118179285Y-121963571D01*
X118179285Y-121106428D02*
X118250714Y-121035000D01*
X118393571Y-120963571D01*
X118607857Y-120963571D01*
X118750714Y-121035000D01*
X118822142Y-121177857D01*
X118822142Y-121963571D01*
X119465000Y-121892142D02*
X119607857Y-121963571D01*
X119893571Y-121963571D01*
X120036428Y-121892142D01*
X120107857Y-121749285D01*
X120107857Y-121677857D01*
X120036428Y-121535000D01*
X119893571Y-121463571D01*
X119679285Y-121463571D01*
X119536428Y-121392142D01*
X119465000Y-121249285D01*
X119465000Y-121177857D01*
X119536428Y-121035000D01*
X119679285Y-120963571D01*
X119893571Y-120963571D01*
X120036428Y-121035000D01*
X120965000Y-121963571D02*
X120822142Y-121892142D01*
X120750714Y-121820714D01*
X120679285Y-121677857D01*
X120679285Y-121249285D01*
X120750714Y-121106428D01*
X120822142Y-121035000D01*
X120965000Y-120963571D01*
X121179285Y-120963571D01*
X121322142Y-121035000D01*
X121393571Y-121106428D01*
X121465000Y-121249285D01*
X121465000Y-121677857D01*
X121393571Y-121820714D01*
X121322142Y-121892142D01*
X121179285Y-121963571D01*
X120965000Y-121963571D01*
X122322142Y-121963571D02*
X122179285Y-121892142D01*
X122107857Y-121749285D01*
X122107857Y-120463571D01*
X123465000Y-121892142D02*
X123322142Y-121963571D01*
X123036428Y-121963571D01*
X122893571Y-121892142D01*
X122822142Y-121749285D01*
X122822142Y-121177857D01*
X122893571Y-121035000D01*
X123036428Y-120963571D01*
X123322142Y-120963571D01*
X123465000Y-121035000D01*
X123536428Y-121177857D01*
X123536428Y-121320714D01*
X122822142Y-121463571D01*
X125322142Y-121963571D02*
X125322142Y-120463571D01*
X125893571Y-120463571D01*
X126036428Y-120535000D01*
X126107857Y-120606428D01*
X126179285Y-120749285D01*
X126179285Y-120963571D01*
X126107857Y-121106428D01*
X126036428Y-121177857D01*
X125893571Y-121249285D01*
X125322142Y-121249285D01*
X127393571Y-121892142D02*
X127250714Y-121963571D01*
X126965000Y-121963571D01*
X126822142Y-121892142D01*
X126750714Y-121749285D01*
X126750714Y-121177857D01*
X126822142Y-121035000D01*
X126965000Y-120963571D01*
X127250714Y-120963571D01*
X127393571Y-121035000D01*
X127465000Y-121177857D01*
X127465000Y-121320714D01*
X126750714Y-121463571D01*
X128750714Y-121963571D02*
X128750714Y-120463571D01*
X128750714Y-121892142D02*
X128607857Y-121963571D01*
X128322142Y-121963571D01*
X128179285Y-121892142D01*
X128107857Y-121820714D01*
X128036428Y-121677857D01*
X128036428Y-121249285D01*
X128107857Y-121106428D01*
X128179285Y-121035000D01*
X128322142Y-120963571D01*
X128607857Y-120963571D01*
X128750714Y-121035000D01*
X130107857Y-121963571D02*
X130107857Y-121177857D01*
X130036428Y-121035000D01*
X129893571Y-120963571D01*
X129607857Y-120963571D01*
X129465000Y-121035000D01*
X130107857Y-121892142D02*
X129965000Y-121963571D01*
X129607857Y-121963571D01*
X129465000Y-121892142D01*
X129393571Y-121749285D01*
X129393571Y-121606428D01*
X129465000Y-121463571D01*
X129607857Y-121392142D01*
X129965000Y-121392142D01*
X130107857Y-121320714D01*
X131036428Y-121963571D02*
X130893571Y-121892142D01*
X130822142Y-121749285D01*
X130822142Y-120463571D01*
X132679285Y-121892142D02*
X132893571Y-121963571D01*
X133250714Y-121963571D01*
X133393571Y-121892142D01*
X133465000Y-121820714D01*
X133536428Y-121677857D01*
X133536428Y-121535000D01*
X133465000Y-121392142D01*
X133393571Y-121320714D01*
X133250714Y-121249285D01*
X132965000Y-121177857D01*
X132822142Y-121106428D01*
X132750714Y-121035000D01*
X132679285Y-120892142D01*
X132679285Y-120749285D01*
X132750714Y-120606428D01*
X132822142Y-120535000D01*
X132965000Y-120463571D01*
X133322142Y-120463571D01*
X133536428Y-120535000D01*
X134179285Y-121963571D02*
X134179285Y-120463571D01*
X134822142Y-121963571D02*
X134822142Y-121177857D01*
X134750714Y-121035000D01*
X134607857Y-120963571D01*
X134393571Y-120963571D01*
X134250714Y-121035000D01*
X134179285Y-121106428D01*
X136179285Y-121963571D02*
X136179285Y-121177857D01*
X136107857Y-121035000D01*
X135965000Y-120963571D01*
X135679285Y-120963571D01*
X135536428Y-121035000D01*
X136179285Y-121892142D02*
X136036428Y-121963571D01*
X135679285Y-121963571D01*
X135536428Y-121892142D01*
X135465000Y-121749285D01*
X135465000Y-121606428D01*
X135536428Y-121463571D01*
X135679285Y-121392142D01*
X136036428Y-121392142D01*
X136179285Y-121320714D01*
X136893571Y-121963571D02*
X136893571Y-120463571D01*
X137036428Y-121392142D02*
X137465000Y-121963571D01*
X137465000Y-120963571D02*
X136893571Y-121535000D01*
X138679285Y-121892142D02*
X138536428Y-121963571D01*
X138250714Y-121963571D01*
X138107857Y-121892142D01*
X138036428Y-121749285D01*
X138036428Y-121177857D01*
X138107857Y-121035000D01*
X138250714Y-120963571D01*
X138536428Y-120963571D01*
X138679285Y-121035000D01*
X138750714Y-121177857D01*
X138750714Y-121320714D01*
X138036428Y-121463571D01*
X140465000Y-121892142D02*
X140679285Y-121963571D01*
X141036428Y-121963571D01*
X141179285Y-121892142D01*
X141250714Y-121820714D01*
X141322142Y-121677857D01*
X141322142Y-121535000D01*
X141250714Y-121392142D01*
X141179285Y-121320714D01*
X141036428Y-121249285D01*
X140750714Y-121177857D01*
X140607857Y-121106428D01*
X140536428Y-121035000D01*
X140465000Y-120892142D01*
X140465000Y-120749285D01*
X140536428Y-120606428D01*
X140607857Y-120535000D01*
X140750714Y-120463571D01*
X141107857Y-120463571D01*
X141322142Y-120535000D01*
X141965000Y-121963571D02*
X141965000Y-120463571D01*
X142465000Y-121535000D01*
X142965000Y-120463571D01*
X142965000Y-121963571D01*
X143465000Y-120463571D02*
X144322142Y-120463571D01*
X143893571Y-121963571D02*
X143893571Y-120463571D01*
X145750714Y-120463571D02*
X146250714Y-121963571D01*
X146750714Y-120463571D01*
X148036428Y-121963571D02*
X147179285Y-121963571D01*
X147607857Y-121963571D02*
X147607857Y-120463571D01*
X147465000Y-120677857D01*
X147322142Y-120820714D01*
X147179285Y-120892142D01*
X148679285Y-121820714D02*
X148750714Y-121892142D01*
X148679285Y-121963571D01*
X148607857Y-121892142D01*
X148679285Y-121820714D01*
X148679285Y-121963571D01*
X149679285Y-120463571D02*
X149822142Y-120463571D01*
X149965000Y-120535000D01*
X150036428Y-120606428D01*
X150107857Y-120749285D01*
X150179285Y-121035000D01*
X150179285Y-121392142D01*
X150107857Y-121677857D01*
X150036428Y-121820714D01*
X149965000Y-121892142D01*
X149822142Y-121963571D01*
X149679285Y-121963571D01*
X149536428Y-121892142D01*
X149465000Y-121820714D01*
X149393571Y-121677857D01*
X149322142Y-121392142D01*
X149322142Y-121035000D01*
X149393571Y-120749285D01*
X149465000Y-120606428D01*
X149536428Y-120535000D01*
X149679285Y-120463571D01*
X119000714Y-113103761D02*
X120143571Y-113103761D01*
X119572142Y-115103761D02*
X119572142Y-113103761D01*
X120810238Y-115103761D02*
X120810238Y-113103761D01*
X121667380Y-115103761D02*
X121667380Y-114056142D01*
X121572142Y-113865666D01*
X121381666Y-113770428D01*
X121095952Y-113770428D01*
X120905476Y-113865666D01*
X120810238Y-113960904D01*
X122905476Y-115103761D02*
X122715000Y-115008523D01*
X122619761Y-114913285D01*
X122524523Y-114722809D01*
X122524523Y-114151380D01*
X122619761Y-113960904D01*
X122715000Y-113865666D01*
X122905476Y-113770428D01*
X123191190Y-113770428D01*
X123381666Y-113865666D01*
X123476904Y-113960904D01*
X123572142Y-114151380D01*
X123572142Y-114722809D01*
X123476904Y-114913285D01*
X123381666Y-115008523D01*
X123191190Y-115103761D01*
X122905476Y-115103761D01*
X124429285Y-115103761D02*
X124429285Y-113770428D01*
X124429285Y-113960904D02*
X124524523Y-113865666D01*
X124715000Y-113770428D01*
X125000714Y-113770428D01*
X125191190Y-113865666D01*
X125286428Y-114056142D01*
X125286428Y-115103761D01*
X125286428Y-114056142D02*
X125381666Y-113865666D01*
X125572142Y-113770428D01*
X125857857Y-113770428D01*
X126048333Y-113865666D01*
X126143571Y-114056142D01*
X126143571Y-115103761D01*
X127953095Y-115103761D02*
X127953095Y-114056142D01*
X127857857Y-113865666D01*
X127667380Y-113770428D01*
X127286428Y-113770428D01*
X127095952Y-113865666D01*
X127953095Y-115008523D02*
X127762619Y-115103761D01*
X127286428Y-115103761D01*
X127095952Y-115008523D01*
X127000714Y-114818047D01*
X127000714Y-114627571D01*
X127095952Y-114437095D01*
X127286428Y-114341857D01*
X127762619Y-114341857D01*
X127953095Y-114246619D01*
X128810238Y-115008523D02*
X129000714Y-115103761D01*
X129381666Y-115103761D01*
X129572142Y-115008523D01*
X129667380Y-114818047D01*
X129667380Y-114722809D01*
X129572142Y-114532333D01*
X129381666Y-114437095D01*
X129095952Y-114437095D01*
X128905476Y-114341857D01*
X128810238Y-114151380D01*
X128810238Y-114056142D01*
X128905476Y-113865666D01*
X129095952Y-113770428D01*
X129381666Y-113770428D01*
X129572142Y-113865666D01*
X132048333Y-115103761D02*
X132048333Y-113103761D01*
X132715000Y-114532333D01*
X133381666Y-113103761D01*
X133381666Y-115103761D01*
X135191190Y-115008523D02*
X135000714Y-115103761D01*
X134619761Y-115103761D01*
X134429285Y-115008523D01*
X134334047Y-114913285D01*
X134238809Y-114722809D01*
X134238809Y-114151380D01*
X134334047Y-113960904D01*
X134429285Y-113865666D01*
X134619761Y-113770428D01*
X135000714Y-113770428D01*
X135191190Y-113865666D01*
X136048333Y-115103761D02*
X136048333Y-113103761D01*
X136524523Y-113103761D01*
X136810238Y-113199000D01*
X137000714Y-113389476D01*
X137095952Y-113579952D01*
X137191190Y-113960904D01*
X137191190Y-114246619D01*
X137095952Y-114627571D01*
X137000714Y-114818047D01*
X136810238Y-115008523D01*
X136524523Y-115103761D01*
X136048333Y-115103761D01*
X138334047Y-115103761D02*
X138143571Y-115008523D01*
X138048333Y-114913285D01*
X137953095Y-114722809D01*
X137953095Y-114151380D01*
X138048333Y-113960904D01*
X138143571Y-113865666D01*
X138334047Y-113770428D01*
X138619761Y-113770428D01*
X138810238Y-113865666D01*
X138905476Y-113960904D01*
X139000714Y-114151380D01*
X139000714Y-114722809D01*
X138905476Y-114913285D01*
X138810238Y-115008523D01*
X138619761Y-115103761D01*
X138334047Y-115103761D01*
X139857857Y-113770428D02*
X139857857Y-115103761D01*
X139857857Y-113960904D02*
X139953095Y-113865666D01*
X140143571Y-113770428D01*
X140429285Y-113770428D01*
X140619761Y-113865666D01*
X140715000Y-114056142D01*
X140715000Y-115103761D01*
X142524523Y-115103761D02*
X142524523Y-114056142D01*
X142429285Y-113865666D01*
X142238809Y-113770428D01*
X141857857Y-113770428D01*
X141667380Y-113865666D01*
X142524523Y-115008523D02*
X142334047Y-115103761D01*
X141857857Y-115103761D01*
X141667380Y-115008523D01*
X141572142Y-114818047D01*
X141572142Y-114627571D01*
X141667380Y-114437095D01*
X141857857Y-114341857D01*
X142334047Y-114341857D01*
X142524523Y-114246619D01*
X144334047Y-113770428D02*
X144334047Y-115389476D01*
X144238809Y-115579952D01*
X144143571Y-115675190D01*
X143953095Y-115770428D01*
X143667380Y-115770428D01*
X143476904Y-115675190D01*
X144334047Y-115008523D02*
X144143571Y-115103761D01*
X143762619Y-115103761D01*
X143572142Y-115008523D01*
X143476904Y-114913285D01*
X143381666Y-114722809D01*
X143381666Y-114151380D01*
X143476904Y-113960904D01*
X143572142Y-113865666D01*
X143762619Y-113770428D01*
X144143571Y-113770428D01*
X144334047Y-113865666D01*
X145286428Y-115103761D02*
X145286428Y-113103761D01*
X146143571Y-115103761D02*
X146143571Y-114056142D01*
X146048333Y-113865666D01*
X145857857Y-113770428D01*
X145572142Y-113770428D01*
X145381666Y-113865666D01*
X145286428Y-113960904D01*
X119810238Y-118258523D02*
X119619761Y-118353761D01*
X119238809Y-118353761D01*
X119048333Y-118258523D01*
X118953095Y-118163285D01*
X118857857Y-117972809D01*
X118857857Y-117401380D01*
X118953095Y-117210904D01*
X119048333Y-117115666D01*
X119238809Y-117020428D01*
X119619761Y-117020428D01*
X119810238Y-117115666D01*
X120953095Y-118353761D02*
X120762619Y-118258523D01*
X120667380Y-118163285D01*
X120572142Y-117972809D01*
X120572142Y-117401380D01*
X120667380Y-117210904D01*
X120762619Y-117115666D01*
X120953095Y-117020428D01*
X121238809Y-117020428D01*
X121429285Y-117115666D01*
X121524523Y-117210904D01*
X121619761Y-117401380D01*
X121619761Y-117972809D01*
X121524523Y-118163285D01*
X121429285Y-118258523D01*
X121238809Y-118353761D01*
X120953095Y-118353761D01*
X122476904Y-117020428D02*
X122476904Y-118353761D01*
X122476904Y-117210904D02*
X122572142Y-117115666D01*
X122762619Y-117020428D01*
X123048333Y-117020428D01*
X123238809Y-117115666D01*
X123334047Y-117306142D01*
X123334047Y-118353761D01*
X124191190Y-118258523D02*
X124381666Y-118353761D01*
X124762619Y-118353761D01*
X124953095Y-118258523D01*
X125048333Y-118068047D01*
X125048333Y-117972809D01*
X124953095Y-117782333D01*
X124762619Y-117687095D01*
X124476904Y-117687095D01*
X124286428Y-117591857D01*
X124191190Y-117401380D01*
X124191190Y-117306142D01*
X124286428Y-117115666D01*
X124476904Y-117020428D01*
X124762619Y-117020428D01*
X124953095Y-117115666D01*
X126191190Y-118353761D02*
X126000714Y-118258523D01*
X125905476Y-118163285D01*
X125810238Y-117972809D01*
X125810238Y-117401380D01*
X125905476Y-117210904D01*
X126000714Y-117115666D01*
X126191190Y-117020428D01*
X126476904Y-117020428D01*
X126667380Y-117115666D01*
X126762619Y-117210904D01*
X126857857Y-117401380D01*
X126857857Y-117972809D01*
X126762619Y-118163285D01*
X126667380Y-118258523D01*
X126476904Y-118353761D01*
X126191190Y-118353761D01*
X128000714Y-118353761D02*
X127810238Y-118258523D01*
X127715000Y-118068047D01*
X127715000Y-116353761D01*
X129524523Y-118258523D02*
X129334047Y-118353761D01*
X128953095Y-118353761D01*
X128762619Y-118258523D01*
X128667380Y-118068047D01*
X128667380Y-117306142D01*
X128762619Y-117115666D01*
X128953095Y-117020428D01*
X129334047Y-117020428D01*
X129524523Y-117115666D01*
X129619761Y-117306142D01*
X129619761Y-117496619D01*
X128667380Y-117687095D01*
X130476904Y-117020428D02*
X130476904Y-119020428D01*
X130476904Y-117115666D02*
X130667380Y-117020428D01*
X131048333Y-117020428D01*
X131238809Y-117115666D01*
X131334047Y-117210904D01*
X131429285Y-117401380D01*
X131429285Y-117972809D01*
X131334047Y-118163285D01*
X131238809Y-118258523D01*
X131048333Y-118353761D01*
X130667380Y-118353761D01*
X130476904Y-118258523D01*
X133048333Y-118258523D02*
X132857857Y-118353761D01*
X132476904Y-118353761D01*
X132286428Y-118258523D01*
X132191190Y-118068047D01*
X132191190Y-117306142D01*
X132286428Y-117115666D01*
X132476904Y-117020428D01*
X132857857Y-117020428D01*
X133048333Y-117115666D01*
X133143571Y-117306142D01*
X133143571Y-117496619D01*
X132191190Y-117687095D01*
X134857857Y-118353761D02*
X134857857Y-116353761D01*
X134857857Y-118258523D02*
X134667380Y-118353761D01*
X134286428Y-118353761D01*
X134095952Y-118258523D01*
X134000714Y-118163285D01*
X133905476Y-117972809D01*
X133905476Y-117401380D01*
X134000714Y-117210904D01*
X134095952Y-117115666D01*
X134286428Y-117020428D01*
X134667380Y-117020428D01*
X134857857Y-117115666D01*
X136667380Y-118353761D02*
X136667380Y-117306142D01*
X136572142Y-117115666D01*
X136381666Y-117020428D01*
X136000714Y-117020428D01*
X135810238Y-117115666D01*
X136667380Y-118258523D02*
X136476904Y-118353761D01*
X136000714Y-118353761D01*
X135810238Y-118258523D01*
X135715000Y-118068047D01*
X135715000Y-117877571D01*
X135810238Y-117687095D01*
X136000714Y-117591857D01*
X136476904Y-117591857D01*
X136667380Y-117496619D01*
X137905476Y-118353761D02*
X137715000Y-118258523D01*
X137619761Y-118068047D01*
X137619761Y-116353761D01*
X138572142Y-118258523D02*
X138762619Y-118353761D01*
X139143571Y-118353761D01*
X139334047Y-118258523D01*
X139429285Y-118068047D01*
X139429285Y-117972809D01*
X139334047Y-117782333D01*
X139143571Y-117687095D01*
X138857857Y-117687095D01*
X138667380Y-117591857D01*
X138572142Y-117401380D01*
X138572142Y-117306142D01*
X138667380Y-117115666D01*
X138857857Y-117020428D01*
X139143571Y-117020428D01*
X139334047Y-117115666D01*
X140286428Y-118163285D02*
X140381666Y-118258523D01*
X140286428Y-118353761D01*
X140191190Y-118258523D01*
X140286428Y-118163285D01*
X140286428Y-118353761D01*
X142095952Y-118258523D02*
X141905476Y-118353761D01*
X141524523Y-118353761D01*
X141334047Y-118258523D01*
X141238809Y-118163285D01*
X141143571Y-117972809D01*
X141143571Y-117401380D01*
X141238809Y-117210904D01*
X141334047Y-117115666D01*
X141524523Y-117020428D01*
X141905476Y-117020428D01*
X142095952Y-117115666D01*
X143238809Y-118353761D02*
X143048333Y-118258523D01*
X142953095Y-118163285D01*
X142857857Y-117972809D01*
X142857857Y-117401380D01*
X142953095Y-117210904D01*
X143048333Y-117115666D01*
X143238809Y-117020428D01*
X143524523Y-117020428D01*
X143715000Y-117115666D01*
X143810238Y-117210904D01*
X143905476Y-117401380D01*
X143905476Y-117972809D01*
X143810238Y-118163285D01*
X143715000Y-118258523D01*
X143524523Y-118353761D01*
X143238809Y-118353761D01*
X144762619Y-118353761D02*
X144762619Y-117020428D01*
X144762619Y-117210904D02*
X144857857Y-117115666D01*
X145048333Y-117020428D01*
X145334047Y-117020428D01*
X145524523Y-117115666D01*
X145619761Y-117306142D01*
X145619761Y-118353761D01*
X145619761Y-117306142D02*
X145715000Y-117115666D01*
X145905476Y-117020428D01*
X146191190Y-117020428D01*
X146381666Y-117115666D01*
X146476904Y-117306142D01*
X146476904Y-118353761D01*
D13*
G04 #@! TO.C,SW1*
X132715000Y-87525000D02*
G75*
G02*
X132715000Y-87425000I0J50000D01*
G01*
X132715000Y-87425000D02*
G75*
G02*
X132715000Y-87525000I0J-50000D01*
G01*
X132715000Y-87425000D02*
X132715000Y-87425000D01*
X132715000Y-87525000D02*
X132715000Y-87525000D01*
D14*
X127715000Y-86975000D02*
X127715000Y-84475000D01*
X137715000Y-86975000D02*
X127715000Y-86975000D01*
X137715000Y-84475000D02*
X137715000Y-86975000D01*
X127715000Y-84475000D02*
X137715000Y-84475000D01*
D15*
G04 #@! TO.C,D1*
X117750000Y-96270000D02*
G75*
G03*
X117750000Y-96270000I-2500000J0D01*
G01*
X116795000Y-93710000D02*
X113705000Y-93710000D01*
X115249538Y-99260000D02*
G75*
G03*
X116794830Y-93710000I462J2990000D01*
G01*
X115250462Y-99260000D02*
G75*
G02*
X113705170Y-93710000I-462J2990000D01*
G01*
G04 #@! TO.C,D2*
X151795000Y-93710000D02*
X148705000Y-93710000D01*
X152750000Y-96270000D02*
G75*
G03*
X152750000Y-96270000I-2500000J0D01*
G01*
X150250462Y-99260000D02*
G75*
G02*
X148705170Y-93710000I-462J2990000D01*
G01*
X150249538Y-99260000D02*
G75*
G03*
X151794830Y-93710000I462J2990000D01*
G01*
G04 #@! TO.C,R20*
X129445000Y-75465000D02*
X129445000Y-78205000D01*
X129445000Y-78205000D02*
X135985000Y-78205000D01*
X135985000Y-78205000D02*
X135985000Y-75465000D01*
X135985000Y-75465000D02*
X129445000Y-75465000D01*
X128675000Y-76835000D02*
X129445000Y-76835000D01*
X136755000Y-76835000D02*
X135985000Y-76835000D01*
G04 #@! TO.C,D3*
X134295000Y-93710000D02*
X131205000Y-93710000D01*
X135250000Y-96270000D02*
G75*
G03*
X135250000Y-96270000I-2500000J0D01*
G01*
X132749538Y-99260000D02*
G75*
G03*
X134294830Y-93710000I462J2990000D01*
G01*
X132750462Y-99260000D02*
G75*
G02*
X131205170Y-93710000I-462J2990000D01*
G01*
G04 #@! TO.C,Q1*
X125625000Y-104830000D02*
X122025000Y-104830000D01*
X121986522Y-104841522D02*
G75*
G03*
X123825000Y-109280000I1838478J-1838478D01*
G01*
X125663478Y-104841522D02*
G75*
G02*
X123825000Y-109280000I-1838478J-1838478D01*
G01*
G04 #@! TO.C,Q2*
X104245000Y-105990000D02*
X107845000Y-105990000D01*
X107883478Y-105978478D02*
G75*
G03*
X106045000Y-101540000I-1838478J1838478D01*
G01*
X104206522Y-105978478D02*
G75*
G02*
X106045000Y-101540000I1838478J1838478D01*
G01*
G04 #@! TO.C,Q3*
X143405000Y-104830000D02*
X139805000Y-104830000D01*
X143443478Y-104841522D02*
G75*
G02*
X141605000Y-109280000I-1838478J-1838478D01*
G01*
X139766522Y-104841522D02*
G75*
G03*
X141605000Y-109280000I1838478J-1838478D01*
G01*
G04 #@! TO.C,Q4*
X158220000Y-105355000D02*
X161820000Y-105355000D01*
X158181522Y-105343478D02*
G75*
G02*
X160020000Y-100905000I1838478J1838478D01*
G01*
X161858478Y-105343478D02*
G75*
G03*
X160020000Y-100905000I-1838478J1838478D01*
G01*
G04 #@! TO.C,R19*
X136755000Y-73025000D02*
X135985000Y-73025000D01*
X128675000Y-73025000D02*
X129445000Y-73025000D01*
X135985000Y-71655000D02*
X129445000Y-71655000D01*
X135985000Y-74395000D02*
X135985000Y-71655000D01*
X129445000Y-74395000D02*
X135985000Y-74395000D01*
X129445000Y-71655000D02*
X129445000Y-74395000D01*
G04 #@! TO.C,RV1*
X110280000Y-86620000D02*
X110280000Y-82755000D01*
X110280000Y-78245000D02*
X110280000Y-74380000D01*
X120220000Y-86620000D02*
X120220000Y-82755000D01*
X120220000Y-78245000D02*
X120220000Y-74380000D01*
X110280000Y-86620000D02*
X111879000Y-86620000D01*
X113621000Y-86620000D02*
X114380000Y-86620000D01*
X116121000Y-86620000D02*
X116880000Y-86620000D01*
X118620000Y-86620000D02*
X120220000Y-86620000D01*
X110280000Y-74380000D02*
X120220000Y-74380000D01*
G04 #@! TO.C,RV2*
X145280000Y-74380000D02*
X155220000Y-74380000D01*
X153620000Y-86620000D02*
X155220000Y-86620000D01*
X151121000Y-86620000D02*
X151880000Y-86620000D01*
X148621000Y-86620000D02*
X149380000Y-86620000D01*
X145280000Y-86620000D02*
X146879000Y-86620000D01*
X155220000Y-78245000D02*
X155220000Y-74380000D01*
X155220000Y-86620000D02*
X155220000Y-82755000D01*
X145280000Y-78245000D02*
X145280000Y-74380000D01*
X145280000Y-86620000D02*
X145280000Y-82755000D01*
G04 #@! TO.C,C1*
X136125000Y-102000000D02*
X133775000Y-102000000D01*
X129305000Y-102000000D02*
X131655000Y-102000000D01*
X129305000Y-107755563D02*
X129305000Y-102000000D01*
X136125000Y-107755563D02*
X136125000Y-102000000D01*
X135060563Y-108820000D02*
X133775000Y-108820000D01*
X130369437Y-108820000D02*
X131655000Y-108820000D01*
X130369437Y-108820000D02*
X129305000Y-107755563D01*
X135060563Y-108820000D02*
X136125000Y-107755563D01*
X130867500Y-109847500D02*
X130867500Y-109060000D01*
X130473750Y-109453750D02*
X131261250Y-109453750D01*
G04 #@! TO.C,C2*
X104285000Y-97645000D02*
X104985000Y-97645000D01*
X107805000Y-97645000D02*
X107105000Y-97645000D01*
X107805000Y-95014437D02*
X107805000Y-97645000D01*
X104285000Y-95014437D02*
X104285000Y-97645000D01*
X107105000Y-94314437D02*
X107805000Y-95014437D01*
X104985000Y-94314437D02*
X104285000Y-95014437D01*
X107480000Y-93510000D02*
X107480000Y-93885000D01*
X107667500Y-93697500D02*
X107292500Y-93697500D01*
G04 #@! TO.C,C3*
X163430000Y-89935000D02*
X161080000Y-89935000D01*
X156610000Y-89935000D02*
X158960000Y-89935000D01*
X156610000Y-95690563D02*
X156610000Y-89935000D01*
X163430000Y-95690563D02*
X163430000Y-89935000D01*
X162365563Y-96755000D02*
X161080000Y-96755000D01*
X157674437Y-96755000D02*
X158960000Y-96755000D01*
X157674437Y-96755000D02*
X156610000Y-95690563D01*
X162365563Y-96755000D02*
X163430000Y-95690563D01*
X158172500Y-97782500D02*
X158172500Y-96995000D01*
X157778750Y-97388750D02*
X158566250Y-97388750D01*
G04 #@! TO.C,C4*
X117192500Y-103222500D02*
X116817500Y-103222500D01*
X117005000Y-103035000D02*
X117005000Y-103410000D01*
X114510000Y-103839437D02*
X113810000Y-104539437D01*
X116630000Y-103839437D02*
X117330000Y-104539437D01*
X113810000Y-104539437D02*
X113810000Y-107170000D01*
X117330000Y-104539437D02*
X117330000Y-107170000D01*
X117330000Y-107170000D02*
X116630000Y-107170000D01*
X113810000Y-107170000D02*
X114510000Y-107170000D01*
G04 #@! TO.C,C5*
X99595000Y-102608748D02*
X99595000Y-103131252D01*
X101065000Y-102608748D02*
X101065000Y-103131252D01*
G04 #@! TO.C,C6*
X152247500Y-101462500D02*
X151622500Y-101462500D01*
X151935000Y-101150000D02*
X151935000Y-101775000D01*
X148554437Y-102015000D02*
X147490000Y-103079437D01*
X151945563Y-102015000D02*
X153010000Y-103079437D01*
X151945563Y-102015000D02*
X151310000Y-102015000D01*
X148554437Y-102015000D02*
X149190000Y-102015000D01*
X147490000Y-103079437D02*
X147490000Y-107535000D01*
X153010000Y-103079437D02*
X153010000Y-107535000D01*
X153010000Y-107535000D02*
X151310000Y-107535000D01*
X147490000Y-107535000D02*
X149190000Y-107535000D01*
G04 #@! TO.C,C7*
X139982500Y-95532500D02*
X140357500Y-95532500D01*
X140170000Y-95720000D02*
X140170000Y-95345000D01*
X142665000Y-94915563D02*
X143365000Y-94215563D01*
X140545000Y-94915563D02*
X139845000Y-94215563D01*
X143365000Y-94215563D02*
X143365000Y-91585000D01*
X139845000Y-94215563D02*
X139845000Y-91585000D01*
X139845000Y-91585000D02*
X140545000Y-91585000D01*
X143365000Y-91585000D02*
X142665000Y-91585000D01*
G04 #@! TO.C,C8*
X99993750Y-82148750D02*
X100781250Y-82148750D01*
X100387500Y-82542500D02*
X100387500Y-81755000D01*
X104580563Y-81515000D02*
X105645000Y-80450563D01*
X99889437Y-81515000D02*
X98825000Y-80450563D01*
X99889437Y-81515000D02*
X101175000Y-81515000D01*
X104580563Y-81515000D02*
X103295000Y-81515000D01*
X105645000Y-80450563D02*
X105645000Y-74695000D01*
X98825000Y-80450563D02*
X98825000Y-74695000D01*
X98825000Y-74695000D02*
X101175000Y-74695000D01*
X105645000Y-74695000D02*
X103295000Y-74695000D01*
G04 #@! TO.C,C9*
X126585000Y-90585000D02*
X124885000Y-90585000D01*
X121065000Y-90585000D02*
X122765000Y-90585000D01*
X121065000Y-95040563D02*
X121065000Y-90585000D01*
X126585000Y-95040563D02*
X126585000Y-90585000D01*
X125520563Y-96105000D02*
X124885000Y-96105000D01*
X122129437Y-96105000D02*
X122765000Y-96105000D01*
X122129437Y-96105000D02*
X121065000Y-95040563D01*
X125520563Y-96105000D02*
X126585000Y-95040563D01*
X122140000Y-96970000D02*
X122140000Y-96345000D01*
X121827500Y-96657500D02*
X122452500Y-96657500D01*
G04 #@! TO.C,C10*
X160953750Y-82148750D02*
X161741250Y-82148750D01*
X161347500Y-82542500D02*
X161347500Y-81755000D01*
X165540563Y-81515000D02*
X166605000Y-80450563D01*
X160849437Y-81515000D02*
X159785000Y-80450563D01*
X160849437Y-81515000D02*
X162135000Y-81515000D01*
X165540563Y-81515000D02*
X164255000Y-81515000D01*
X166605000Y-80450563D02*
X166605000Y-74695000D01*
X159785000Y-80450563D02*
X159785000Y-74695000D01*
X159785000Y-74695000D02*
X162135000Y-74695000D01*
X166605000Y-74695000D02*
X164255000Y-74695000D01*
G04 #@! TO.C,D4*
X134965000Y-92440000D02*
X131065000Y-92440000D01*
X134965000Y-90440000D02*
X131065000Y-90440000D01*
X134965000Y-92440000D02*
X134965000Y-90440000D01*
G04 #@! TO.C,R1*
X104875000Y-109627936D02*
X104875000Y-110082064D01*
X103405000Y-109627936D02*
X103405000Y-110082064D01*
G04 #@! TO.C,R2*
X108685000Y-110082064D02*
X108685000Y-109627936D01*
X107215000Y-110082064D02*
X107215000Y-109627936D01*
G04 #@! TO.C,R3*
X99595000Y-95657936D02*
X99595000Y-96112064D01*
X101065000Y-95657936D02*
X101065000Y-96112064D01*
G04 #@! TO.C,R4*
X122655000Y-101372936D02*
X122655000Y-101827064D01*
X121185000Y-101372936D02*
X121185000Y-101827064D01*
G04 #@! TO.C,R5*
X142775000Y-101372936D02*
X142775000Y-101827064D01*
X144245000Y-101372936D02*
X144245000Y-101827064D01*
G04 #@! TO.C,R6*
X138965000Y-101827064D02*
X138965000Y-101372936D01*
X140435000Y-101827064D02*
X140435000Y-101372936D01*
G04 #@! TO.C,R7*
X126465000Y-101827064D02*
X126465000Y-101372936D01*
X124995000Y-101827064D02*
X124995000Y-101372936D01*
G04 #@! TO.C,R8*
X161190000Y-110082064D02*
X161190000Y-109627936D01*
X162660000Y-110082064D02*
X162660000Y-109627936D01*
G04 #@! TO.C,R9*
X125195000Y-85952064D02*
X125195000Y-85497936D01*
X123725000Y-85952064D02*
X123725000Y-85497936D01*
G04 #@! TO.C,R10*
X132487936Y-81180000D02*
X132942064Y-81180000D01*
X132487936Y-82650000D02*
X132942064Y-82650000D01*
G04 #@! TO.C,R11*
X128497064Y-82650000D02*
X128042936Y-82650000D01*
X128497064Y-81180000D02*
X128042936Y-81180000D01*
G04 #@! TO.C,R12*
X101500000Y-86767936D02*
X101500000Y-87222064D01*
X102970000Y-86767936D02*
X102970000Y-87222064D01*
G04 #@! TO.C,R13*
X141705000Y-85497936D02*
X141705000Y-85952064D01*
X140235000Y-85497936D02*
X140235000Y-85952064D01*
G04 #@! TO.C,R14*
X136932936Y-82650000D02*
X137387064Y-82650000D01*
X136932936Y-81180000D02*
X137387064Y-81180000D01*
G04 #@! TO.C,R15*
X166470000Y-102007936D02*
X166470000Y-102462064D01*
X165000000Y-102007936D02*
X165000000Y-102462064D01*
G04 #@! TO.C,R16*
X165000000Y-109627936D02*
X165000000Y-110082064D01*
X166470000Y-109627936D02*
X166470000Y-110082064D01*
G04 #@! TO.C,R17*
X158850000Y-110082064D02*
X158850000Y-109627936D01*
X157380000Y-110082064D02*
X157380000Y-109627936D01*
G04 #@! TO.C,R18*
X101065000Y-109627936D02*
X101065000Y-110082064D01*
X99595000Y-109627936D02*
X99595000Y-110082064D01*
G04 #@! TO.C,R20*
D10*
X132072142Y-77287380D02*
X131738809Y-76811190D01*
X131500714Y-77287380D02*
X131500714Y-76287380D01*
X131881666Y-76287380D01*
X131976904Y-76335000D01*
X132024523Y-76382619D01*
X132072142Y-76477857D01*
X132072142Y-76620714D01*
X132024523Y-76715952D01*
X131976904Y-76763571D01*
X131881666Y-76811190D01*
X131500714Y-76811190D01*
X132453095Y-76382619D02*
X132500714Y-76335000D01*
X132595952Y-76287380D01*
X132834047Y-76287380D01*
X132929285Y-76335000D01*
X132976904Y-76382619D01*
X133024523Y-76477857D01*
X133024523Y-76573095D01*
X132976904Y-76715952D01*
X132405476Y-77287380D01*
X133024523Y-77287380D01*
X133643571Y-76287380D02*
X133738809Y-76287380D01*
X133834047Y-76335000D01*
X133881666Y-76382619D01*
X133929285Y-76477857D01*
X133976904Y-76668333D01*
X133976904Y-76906428D01*
X133929285Y-77096904D01*
X133881666Y-77192142D01*
X133834047Y-77239761D01*
X133738809Y-77287380D01*
X133643571Y-77287380D01*
X133548333Y-77239761D01*
X133500714Y-77192142D01*
X133453095Y-77096904D01*
X133405476Y-76906428D01*
X133405476Y-76668333D01*
X133453095Y-76477857D01*
X133500714Y-76382619D01*
X133548333Y-76335000D01*
X133643571Y-76287380D01*
G04 #@! TO.C,Q1*
X123729761Y-110787619D02*
X123634523Y-110740000D01*
X123539285Y-110644761D01*
X123396428Y-110501904D01*
X123301190Y-110454285D01*
X123205952Y-110454285D01*
X123253571Y-110692380D02*
X123158333Y-110644761D01*
X123063095Y-110549523D01*
X123015476Y-110359047D01*
X123015476Y-110025714D01*
X123063095Y-109835238D01*
X123158333Y-109740000D01*
X123253571Y-109692380D01*
X123444047Y-109692380D01*
X123539285Y-109740000D01*
X123634523Y-109835238D01*
X123682142Y-110025714D01*
X123682142Y-110359047D01*
X123634523Y-110549523D01*
X123539285Y-110644761D01*
X123444047Y-110692380D01*
X123253571Y-110692380D01*
X124634523Y-110692380D02*
X124063095Y-110692380D01*
X124348809Y-110692380D02*
X124348809Y-109692380D01*
X124253571Y-109835238D01*
X124158333Y-109930476D01*
X124063095Y-109978095D01*
G04 #@! TO.C,Q2*
X105949761Y-101127619D02*
X105854523Y-101080000D01*
X105759285Y-100984761D01*
X105616428Y-100841904D01*
X105521190Y-100794285D01*
X105425952Y-100794285D01*
X105473571Y-101032380D02*
X105378333Y-100984761D01*
X105283095Y-100889523D01*
X105235476Y-100699047D01*
X105235476Y-100365714D01*
X105283095Y-100175238D01*
X105378333Y-100080000D01*
X105473571Y-100032380D01*
X105664047Y-100032380D01*
X105759285Y-100080000D01*
X105854523Y-100175238D01*
X105902142Y-100365714D01*
X105902142Y-100699047D01*
X105854523Y-100889523D01*
X105759285Y-100984761D01*
X105664047Y-101032380D01*
X105473571Y-101032380D01*
X106283095Y-100127619D02*
X106330714Y-100080000D01*
X106425952Y-100032380D01*
X106664047Y-100032380D01*
X106759285Y-100080000D01*
X106806904Y-100127619D01*
X106854523Y-100222857D01*
X106854523Y-100318095D01*
X106806904Y-100460952D01*
X106235476Y-101032380D01*
X106854523Y-101032380D01*
G04 #@! TO.C,Q3*
X141509761Y-110787619D02*
X141414523Y-110740000D01*
X141319285Y-110644761D01*
X141176428Y-110501904D01*
X141081190Y-110454285D01*
X140985952Y-110454285D01*
X141033571Y-110692380D02*
X140938333Y-110644761D01*
X140843095Y-110549523D01*
X140795476Y-110359047D01*
X140795476Y-110025714D01*
X140843095Y-109835238D01*
X140938333Y-109740000D01*
X141033571Y-109692380D01*
X141224047Y-109692380D01*
X141319285Y-109740000D01*
X141414523Y-109835238D01*
X141462142Y-110025714D01*
X141462142Y-110359047D01*
X141414523Y-110549523D01*
X141319285Y-110644761D01*
X141224047Y-110692380D01*
X141033571Y-110692380D01*
X141795476Y-109692380D02*
X142414523Y-109692380D01*
X142081190Y-110073333D01*
X142224047Y-110073333D01*
X142319285Y-110120952D01*
X142366904Y-110168571D01*
X142414523Y-110263809D01*
X142414523Y-110501904D01*
X142366904Y-110597142D01*
X142319285Y-110644761D01*
X142224047Y-110692380D01*
X141938333Y-110692380D01*
X141843095Y-110644761D01*
X141795476Y-110597142D01*
G04 #@! TO.C,Q4*
X159924761Y-100492619D02*
X159829523Y-100445000D01*
X159734285Y-100349761D01*
X159591428Y-100206904D01*
X159496190Y-100159285D01*
X159400952Y-100159285D01*
X159448571Y-100397380D02*
X159353333Y-100349761D01*
X159258095Y-100254523D01*
X159210476Y-100064047D01*
X159210476Y-99730714D01*
X159258095Y-99540238D01*
X159353333Y-99445000D01*
X159448571Y-99397380D01*
X159639047Y-99397380D01*
X159734285Y-99445000D01*
X159829523Y-99540238D01*
X159877142Y-99730714D01*
X159877142Y-100064047D01*
X159829523Y-100254523D01*
X159734285Y-100349761D01*
X159639047Y-100397380D01*
X159448571Y-100397380D01*
X160734285Y-99730714D02*
X160734285Y-100397380D01*
X160496190Y-99349761D02*
X160258095Y-100064047D01*
X160877142Y-100064047D01*
G04 #@! TO.C,R19*
X132072142Y-73477380D02*
X131738809Y-73001190D01*
X131500714Y-73477380D02*
X131500714Y-72477380D01*
X131881666Y-72477380D01*
X131976904Y-72525000D01*
X132024523Y-72572619D01*
X132072142Y-72667857D01*
X132072142Y-72810714D01*
X132024523Y-72905952D01*
X131976904Y-72953571D01*
X131881666Y-73001190D01*
X131500714Y-73001190D01*
X133024523Y-73477380D02*
X132453095Y-73477380D01*
X132738809Y-73477380D02*
X132738809Y-72477380D01*
X132643571Y-72620238D01*
X132548333Y-72715476D01*
X132453095Y-72763095D01*
X133500714Y-73477380D02*
X133691190Y-73477380D01*
X133786428Y-73429761D01*
X133834047Y-73382142D01*
X133929285Y-73239285D01*
X133976904Y-73048809D01*
X133976904Y-72667857D01*
X133929285Y-72572619D01*
X133881666Y-72525000D01*
X133786428Y-72477380D01*
X133595952Y-72477380D01*
X133500714Y-72525000D01*
X133453095Y-72572619D01*
X133405476Y-72667857D01*
X133405476Y-72905952D01*
X133453095Y-73001190D01*
X133500714Y-73048809D01*
X133595952Y-73096428D01*
X133786428Y-73096428D01*
X133881666Y-73048809D01*
X133929285Y-73001190D01*
X133976904Y-72905952D01*
G04 #@! TO.C,RV1*
X114654761Y-80952380D02*
X114321428Y-80476190D01*
X114083333Y-80952380D02*
X114083333Y-79952380D01*
X114464285Y-79952380D01*
X114559523Y-80000000D01*
X114607142Y-80047619D01*
X114654761Y-80142857D01*
X114654761Y-80285714D01*
X114607142Y-80380952D01*
X114559523Y-80428571D01*
X114464285Y-80476190D01*
X114083333Y-80476190D01*
X114940476Y-79952380D02*
X115273809Y-80952380D01*
X115607142Y-79952380D01*
X116464285Y-80952380D02*
X115892857Y-80952380D01*
X116178571Y-80952380D02*
X116178571Y-79952380D01*
X116083333Y-80095238D01*
X115988095Y-80190476D01*
X115892857Y-80238095D01*
G04 #@! TO.C,RV2*
X149654761Y-80952380D02*
X149321428Y-80476190D01*
X149083333Y-80952380D02*
X149083333Y-79952380D01*
X149464285Y-79952380D01*
X149559523Y-80000000D01*
X149607142Y-80047619D01*
X149654761Y-80142857D01*
X149654761Y-80285714D01*
X149607142Y-80380952D01*
X149559523Y-80428571D01*
X149464285Y-80476190D01*
X149083333Y-80476190D01*
X149940476Y-79952380D02*
X150273809Y-80952380D01*
X150607142Y-79952380D01*
X150892857Y-80047619D02*
X150940476Y-80000000D01*
X151035714Y-79952380D01*
X151273809Y-79952380D01*
X151369047Y-80000000D01*
X151416666Y-80047619D01*
X151464285Y-80142857D01*
X151464285Y-80238095D01*
X151416666Y-80380952D01*
X150845238Y-80952380D01*
X151464285Y-80952380D01*
G04 #@! TO.C,C1*
X135088333Y-110212142D02*
X135040714Y-110259761D01*
X134897857Y-110307380D01*
X134802619Y-110307380D01*
X134659761Y-110259761D01*
X134564523Y-110164523D01*
X134516904Y-110069285D01*
X134469285Y-109878809D01*
X134469285Y-109735952D01*
X134516904Y-109545476D01*
X134564523Y-109450238D01*
X134659761Y-109355000D01*
X134802619Y-109307380D01*
X134897857Y-109307380D01*
X135040714Y-109355000D01*
X135088333Y-109402619D01*
X136040714Y-110307380D02*
X135469285Y-110307380D01*
X135755000Y-110307380D02*
X135755000Y-109307380D01*
X135659761Y-109450238D01*
X135564523Y-109545476D01*
X135469285Y-109593095D01*
G04 #@! TO.C,C2*
X108037333Y-98909142D02*
X107989714Y-98956761D01*
X107846857Y-99004380D01*
X107751619Y-99004380D01*
X107608761Y-98956761D01*
X107513523Y-98861523D01*
X107465904Y-98766285D01*
X107418285Y-98575809D01*
X107418285Y-98432952D01*
X107465904Y-98242476D01*
X107513523Y-98147238D01*
X107608761Y-98052000D01*
X107751619Y-98004380D01*
X107846857Y-98004380D01*
X107989714Y-98052000D01*
X108037333Y-98099619D01*
X108418285Y-98099619D02*
X108465904Y-98052000D01*
X108561142Y-98004380D01*
X108799238Y-98004380D01*
X108894476Y-98052000D01*
X108942095Y-98099619D01*
X108989714Y-98194857D01*
X108989714Y-98290095D01*
X108942095Y-98432952D01*
X108370666Y-99004380D01*
X108989714Y-99004380D01*
G04 #@! TO.C,C3*
X162393333Y-98401142D02*
X162345714Y-98448761D01*
X162202857Y-98496380D01*
X162107619Y-98496380D01*
X161964761Y-98448761D01*
X161869523Y-98353523D01*
X161821904Y-98258285D01*
X161774285Y-98067809D01*
X161774285Y-97924952D01*
X161821904Y-97734476D01*
X161869523Y-97639238D01*
X161964761Y-97544000D01*
X162107619Y-97496380D01*
X162202857Y-97496380D01*
X162345714Y-97544000D01*
X162393333Y-97591619D01*
X162726666Y-97496380D02*
X163345714Y-97496380D01*
X163012380Y-97877333D01*
X163155238Y-97877333D01*
X163250476Y-97924952D01*
X163298095Y-97972571D01*
X163345714Y-98067809D01*
X163345714Y-98305904D01*
X163298095Y-98401142D01*
X163250476Y-98448761D01*
X163155238Y-98496380D01*
X162869523Y-98496380D01*
X162774285Y-98448761D01*
X162726666Y-98401142D01*
G04 #@! TO.C,C4*
X117689333Y-108561142D02*
X117641714Y-108608761D01*
X117498857Y-108656380D01*
X117403619Y-108656380D01*
X117260761Y-108608761D01*
X117165523Y-108513523D01*
X117117904Y-108418285D01*
X117070285Y-108227809D01*
X117070285Y-108084952D01*
X117117904Y-107894476D01*
X117165523Y-107799238D01*
X117260761Y-107704000D01*
X117403619Y-107656380D01*
X117498857Y-107656380D01*
X117641714Y-107704000D01*
X117689333Y-107751619D01*
X118546476Y-107989714D02*
X118546476Y-108656380D01*
X118308380Y-107608761D02*
X118070285Y-108323047D01*
X118689333Y-108323047D01*
G04 #@! TO.C,C5*
X100163333Y-100687142D02*
X100115714Y-100734761D01*
X99972857Y-100782380D01*
X99877619Y-100782380D01*
X99734761Y-100734761D01*
X99639523Y-100639523D01*
X99591904Y-100544285D01*
X99544285Y-100353809D01*
X99544285Y-100210952D01*
X99591904Y-100020476D01*
X99639523Y-99925238D01*
X99734761Y-99830000D01*
X99877619Y-99782380D01*
X99972857Y-99782380D01*
X100115714Y-99830000D01*
X100163333Y-99877619D01*
X101068095Y-99782380D02*
X100591904Y-99782380D01*
X100544285Y-100258571D01*
X100591904Y-100210952D01*
X100687142Y-100163333D01*
X100925238Y-100163333D01*
X101020476Y-100210952D01*
X101068095Y-100258571D01*
X101115714Y-100353809D01*
X101115714Y-100591904D01*
X101068095Y-100687142D01*
X101020476Y-100734761D01*
X100925238Y-100782380D01*
X100687142Y-100782380D01*
X100591904Y-100734761D01*
X100544285Y-100687142D01*
G04 #@! TO.C,C6*
X152741333Y-109069142D02*
X152693714Y-109116761D01*
X152550857Y-109164380D01*
X152455619Y-109164380D01*
X152312761Y-109116761D01*
X152217523Y-109021523D01*
X152169904Y-108926285D01*
X152122285Y-108735809D01*
X152122285Y-108592952D01*
X152169904Y-108402476D01*
X152217523Y-108307238D01*
X152312761Y-108212000D01*
X152455619Y-108164380D01*
X152550857Y-108164380D01*
X152693714Y-108212000D01*
X152741333Y-108259619D01*
X153598476Y-108164380D02*
X153408000Y-108164380D01*
X153312761Y-108212000D01*
X153265142Y-108259619D01*
X153169904Y-108402476D01*
X153122285Y-108592952D01*
X153122285Y-108973904D01*
X153169904Y-109069142D01*
X153217523Y-109116761D01*
X153312761Y-109164380D01*
X153503238Y-109164380D01*
X153598476Y-109116761D01*
X153646095Y-109069142D01*
X153693714Y-108973904D01*
X153693714Y-108735809D01*
X153646095Y-108640571D01*
X153598476Y-108592952D01*
X153503238Y-108545333D01*
X153312761Y-108545333D01*
X153217523Y-108592952D01*
X153169904Y-108640571D01*
X153122285Y-108735809D01*
G04 #@! TO.C,C7*
X143978333Y-96242142D02*
X143930714Y-96289761D01*
X143787857Y-96337380D01*
X143692619Y-96337380D01*
X143549761Y-96289761D01*
X143454523Y-96194523D01*
X143406904Y-96099285D01*
X143359285Y-95908809D01*
X143359285Y-95765952D01*
X143406904Y-95575476D01*
X143454523Y-95480238D01*
X143549761Y-95385000D01*
X143692619Y-95337380D01*
X143787857Y-95337380D01*
X143930714Y-95385000D01*
X143978333Y-95432619D01*
X144311666Y-95337380D02*
X144978333Y-95337380D01*
X144549761Y-96337380D01*
G04 #@! TO.C,C8*
X104608333Y-82907142D02*
X104560714Y-82954761D01*
X104417857Y-83002380D01*
X104322619Y-83002380D01*
X104179761Y-82954761D01*
X104084523Y-82859523D01*
X104036904Y-82764285D01*
X103989285Y-82573809D01*
X103989285Y-82430952D01*
X104036904Y-82240476D01*
X104084523Y-82145238D01*
X104179761Y-82050000D01*
X104322619Y-82002380D01*
X104417857Y-82002380D01*
X104560714Y-82050000D01*
X104608333Y-82097619D01*
X105179761Y-82430952D02*
X105084523Y-82383333D01*
X105036904Y-82335714D01*
X104989285Y-82240476D01*
X104989285Y-82192857D01*
X105036904Y-82097619D01*
X105084523Y-82050000D01*
X105179761Y-82002380D01*
X105370238Y-82002380D01*
X105465476Y-82050000D01*
X105513095Y-82097619D01*
X105560714Y-82192857D01*
X105560714Y-82240476D01*
X105513095Y-82335714D01*
X105465476Y-82383333D01*
X105370238Y-82430952D01*
X105179761Y-82430952D01*
X105084523Y-82478571D01*
X105036904Y-82526190D01*
X104989285Y-82621428D01*
X104989285Y-82811904D01*
X105036904Y-82907142D01*
X105084523Y-82954761D01*
X105179761Y-83002380D01*
X105370238Y-83002380D01*
X105465476Y-82954761D01*
X105513095Y-82907142D01*
X105560714Y-82811904D01*
X105560714Y-82621428D01*
X105513095Y-82526190D01*
X105465476Y-82478571D01*
X105370238Y-82430952D01*
G04 #@! TO.C,C9*
X126833333Y-96877142D02*
X126785714Y-96924761D01*
X126642857Y-96972380D01*
X126547619Y-96972380D01*
X126404761Y-96924761D01*
X126309523Y-96829523D01*
X126261904Y-96734285D01*
X126214285Y-96543809D01*
X126214285Y-96400952D01*
X126261904Y-96210476D01*
X126309523Y-96115238D01*
X126404761Y-96020000D01*
X126547619Y-95972380D01*
X126642857Y-95972380D01*
X126785714Y-96020000D01*
X126833333Y-96067619D01*
X127309523Y-96972380D02*
X127500000Y-96972380D01*
X127595238Y-96924761D01*
X127642857Y-96877142D01*
X127738095Y-96734285D01*
X127785714Y-96543809D01*
X127785714Y-96162857D01*
X127738095Y-96067619D01*
X127690476Y-96020000D01*
X127595238Y-95972380D01*
X127404761Y-95972380D01*
X127309523Y-96020000D01*
X127261904Y-96067619D01*
X127214285Y-96162857D01*
X127214285Y-96400952D01*
X127261904Y-96496190D01*
X127309523Y-96543809D01*
X127404761Y-96591428D01*
X127595238Y-96591428D01*
X127690476Y-96543809D01*
X127738095Y-96496190D01*
X127785714Y-96400952D01*
G04 #@! TO.C,C10*
X165727142Y-82907142D02*
X165679523Y-82954761D01*
X165536666Y-83002380D01*
X165441428Y-83002380D01*
X165298571Y-82954761D01*
X165203333Y-82859523D01*
X165155714Y-82764285D01*
X165108095Y-82573809D01*
X165108095Y-82430952D01*
X165155714Y-82240476D01*
X165203333Y-82145238D01*
X165298571Y-82050000D01*
X165441428Y-82002380D01*
X165536666Y-82002380D01*
X165679523Y-82050000D01*
X165727142Y-82097619D01*
X166679523Y-83002380D02*
X166108095Y-83002380D01*
X166393809Y-83002380D02*
X166393809Y-82002380D01*
X166298571Y-82145238D01*
X166203333Y-82240476D01*
X166108095Y-82288095D01*
X167298571Y-82002380D02*
X167393809Y-82002380D01*
X167489047Y-82050000D01*
X167536666Y-82097619D01*
X167584285Y-82192857D01*
X167631904Y-82383333D01*
X167631904Y-82621428D01*
X167584285Y-82811904D01*
X167536666Y-82907142D01*
X167489047Y-82954761D01*
X167393809Y-83002380D01*
X167298571Y-83002380D01*
X167203333Y-82954761D01*
X167155714Y-82907142D01*
X167108095Y-82811904D01*
X167060476Y-82621428D01*
X167060476Y-82383333D01*
X167108095Y-82192857D01*
X167155714Y-82097619D01*
X167203333Y-82050000D01*
X167298571Y-82002380D01*
G04 #@! TO.C,D4*
X131976904Y-89987380D02*
X131976904Y-88987380D01*
X132215000Y-88987380D01*
X132357857Y-89035000D01*
X132453095Y-89130238D01*
X132500714Y-89225476D01*
X132548333Y-89415952D01*
X132548333Y-89558809D01*
X132500714Y-89749285D01*
X132453095Y-89844523D01*
X132357857Y-89939761D01*
X132215000Y-89987380D01*
X131976904Y-89987380D01*
X133405476Y-89320714D02*
X133405476Y-89987380D01*
X133167380Y-88939761D02*
X132929285Y-89654047D01*
X133548333Y-89654047D01*
G04 #@! TO.C,R1*
X103973333Y-107767380D02*
X103640000Y-107291190D01*
X103401904Y-107767380D02*
X103401904Y-106767380D01*
X103782857Y-106767380D01*
X103878095Y-106815000D01*
X103925714Y-106862619D01*
X103973333Y-106957857D01*
X103973333Y-107100714D01*
X103925714Y-107195952D01*
X103878095Y-107243571D01*
X103782857Y-107291190D01*
X103401904Y-107291190D01*
X104925714Y-107767380D02*
X104354285Y-107767380D01*
X104640000Y-107767380D02*
X104640000Y-106767380D01*
X104544761Y-106910238D01*
X104449523Y-107005476D01*
X104354285Y-107053095D01*
G04 #@! TO.C,R2*
X107783333Y-107767380D02*
X107450000Y-107291190D01*
X107211904Y-107767380D02*
X107211904Y-106767380D01*
X107592857Y-106767380D01*
X107688095Y-106815000D01*
X107735714Y-106862619D01*
X107783333Y-106957857D01*
X107783333Y-107100714D01*
X107735714Y-107195952D01*
X107688095Y-107243571D01*
X107592857Y-107291190D01*
X107211904Y-107291190D01*
X108164285Y-106862619D02*
X108211904Y-106815000D01*
X108307142Y-106767380D01*
X108545238Y-106767380D01*
X108640476Y-106815000D01*
X108688095Y-106862619D01*
X108735714Y-106957857D01*
X108735714Y-107053095D01*
X108688095Y-107195952D01*
X108116666Y-107767380D01*
X108735714Y-107767380D01*
G04 #@! TO.C,R3*
X100163333Y-93797380D02*
X99830000Y-93321190D01*
X99591904Y-93797380D02*
X99591904Y-92797380D01*
X99972857Y-92797380D01*
X100068095Y-92845000D01*
X100115714Y-92892619D01*
X100163333Y-92987857D01*
X100163333Y-93130714D01*
X100115714Y-93225952D01*
X100068095Y-93273571D01*
X99972857Y-93321190D01*
X99591904Y-93321190D01*
X100496666Y-92797380D02*
X101115714Y-92797380D01*
X100782380Y-93178333D01*
X100925238Y-93178333D01*
X101020476Y-93225952D01*
X101068095Y-93273571D01*
X101115714Y-93368809D01*
X101115714Y-93606904D01*
X101068095Y-93702142D01*
X101020476Y-93749761D01*
X100925238Y-93797380D01*
X100639523Y-93797380D01*
X100544285Y-93749761D01*
X100496666Y-93702142D01*
G04 #@! TO.C,R4*
X121753333Y-99512380D02*
X121420000Y-99036190D01*
X121181904Y-99512380D02*
X121181904Y-98512380D01*
X121562857Y-98512380D01*
X121658095Y-98560000D01*
X121705714Y-98607619D01*
X121753333Y-98702857D01*
X121753333Y-98845714D01*
X121705714Y-98940952D01*
X121658095Y-98988571D01*
X121562857Y-99036190D01*
X121181904Y-99036190D01*
X122610476Y-98845714D02*
X122610476Y-99512380D01*
X122372380Y-98464761D02*
X122134285Y-99179047D01*
X122753333Y-99179047D01*
G04 #@! TO.C,R5*
X143343333Y-99512380D02*
X143010000Y-99036190D01*
X142771904Y-99512380D02*
X142771904Y-98512380D01*
X143152857Y-98512380D01*
X143248095Y-98560000D01*
X143295714Y-98607619D01*
X143343333Y-98702857D01*
X143343333Y-98845714D01*
X143295714Y-98940952D01*
X143248095Y-98988571D01*
X143152857Y-99036190D01*
X142771904Y-99036190D01*
X144248095Y-98512380D02*
X143771904Y-98512380D01*
X143724285Y-98988571D01*
X143771904Y-98940952D01*
X143867142Y-98893333D01*
X144105238Y-98893333D01*
X144200476Y-98940952D01*
X144248095Y-98988571D01*
X144295714Y-99083809D01*
X144295714Y-99321904D01*
X144248095Y-99417142D01*
X144200476Y-99464761D01*
X144105238Y-99512380D01*
X143867142Y-99512380D01*
X143771904Y-99464761D01*
X143724285Y-99417142D01*
G04 #@! TO.C,R6*
X139533333Y-99512380D02*
X139200000Y-99036190D01*
X138961904Y-99512380D02*
X138961904Y-98512380D01*
X139342857Y-98512380D01*
X139438095Y-98560000D01*
X139485714Y-98607619D01*
X139533333Y-98702857D01*
X139533333Y-98845714D01*
X139485714Y-98940952D01*
X139438095Y-98988571D01*
X139342857Y-99036190D01*
X138961904Y-99036190D01*
X140390476Y-98512380D02*
X140200000Y-98512380D01*
X140104761Y-98560000D01*
X140057142Y-98607619D01*
X139961904Y-98750476D01*
X139914285Y-98940952D01*
X139914285Y-99321904D01*
X139961904Y-99417142D01*
X140009523Y-99464761D01*
X140104761Y-99512380D01*
X140295238Y-99512380D01*
X140390476Y-99464761D01*
X140438095Y-99417142D01*
X140485714Y-99321904D01*
X140485714Y-99083809D01*
X140438095Y-98988571D01*
X140390476Y-98940952D01*
X140295238Y-98893333D01*
X140104761Y-98893333D01*
X140009523Y-98940952D01*
X139961904Y-98988571D01*
X139914285Y-99083809D01*
G04 #@! TO.C,R7*
X125563333Y-99512380D02*
X125230000Y-99036190D01*
X124991904Y-99512380D02*
X124991904Y-98512380D01*
X125372857Y-98512380D01*
X125468095Y-98560000D01*
X125515714Y-98607619D01*
X125563333Y-98702857D01*
X125563333Y-98845714D01*
X125515714Y-98940952D01*
X125468095Y-98988571D01*
X125372857Y-99036190D01*
X124991904Y-99036190D01*
X125896666Y-98512380D02*
X126563333Y-98512380D01*
X126134761Y-99512380D01*
G04 #@! TO.C,R8*
X161758333Y-107767380D02*
X161425000Y-107291190D01*
X161186904Y-107767380D02*
X161186904Y-106767380D01*
X161567857Y-106767380D01*
X161663095Y-106815000D01*
X161710714Y-106862619D01*
X161758333Y-106957857D01*
X161758333Y-107100714D01*
X161710714Y-107195952D01*
X161663095Y-107243571D01*
X161567857Y-107291190D01*
X161186904Y-107291190D01*
X162329761Y-107195952D02*
X162234523Y-107148333D01*
X162186904Y-107100714D01*
X162139285Y-107005476D01*
X162139285Y-106957857D01*
X162186904Y-106862619D01*
X162234523Y-106815000D01*
X162329761Y-106767380D01*
X162520238Y-106767380D01*
X162615476Y-106815000D01*
X162663095Y-106862619D01*
X162710714Y-106957857D01*
X162710714Y-107005476D01*
X162663095Y-107100714D01*
X162615476Y-107148333D01*
X162520238Y-107195952D01*
X162329761Y-107195952D01*
X162234523Y-107243571D01*
X162186904Y-107291190D01*
X162139285Y-107386428D01*
X162139285Y-107576904D01*
X162186904Y-107672142D01*
X162234523Y-107719761D01*
X162329761Y-107767380D01*
X162520238Y-107767380D01*
X162615476Y-107719761D01*
X162663095Y-107672142D01*
X162710714Y-107576904D01*
X162710714Y-107386428D01*
X162663095Y-107291190D01*
X162615476Y-107243571D01*
X162520238Y-107195952D01*
G04 #@! TO.C,R9*
X124293333Y-83637380D02*
X123960000Y-83161190D01*
X123721904Y-83637380D02*
X123721904Y-82637380D01*
X124102857Y-82637380D01*
X124198095Y-82685000D01*
X124245714Y-82732619D01*
X124293333Y-82827857D01*
X124293333Y-82970714D01*
X124245714Y-83065952D01*
X124198095Y-83113571D01*
X124102857Y-83161190D01*
X123721904Y-83161190D01*
X124769523Y-83637380D02*
X124960000Y-83637380D01*
X125055238Y-83589761D01*
X125102857Y-83542142D01*
X125198095Y-83399285D01*
X125245714Y-83208809D01*
X125245714Y-82827857D01*
X125198095Y-82732619D01*
X125150476Y-82685000D01*
X125055238Y-82637380D01*
X124864761Y-82637380D01*
X124769523Y-82685000D01*
X124721904Y-82732619D01*
X124674285Y-82827857D01*
X124674285Y-83065952D01*
X124721904Y-83161190D01*
X124769523Y-83208809D01*
X124864761Y-83256428D01*
X125055238Y-83256428D01*
X125150476Y-83208809D01*
X125198095Y-83161190D01*
X125245714Y-83065952D01*
G04 #@! TO.C,R10*
X132072142Y-80717380D02*
X131738809Y-80241190D01*
X131500714Y-80717380D02*
X131500714Y-79717380D01*
X131881666Y-79717380D01*
X131976904Y-79765000D01*
X132024523Y-79812619D01*
X132072142Y-79907857D01*
X132072142Y-80050714D01*
X132024523Y-80145952D01*
X131976904Y-80193571D01*
X131881666Y-80241190D01*
X131500714Y-80241190D01*
X133024523Y-80717380D02*
X132453095Y-80717380D01*
X132738809Y-80717380D02*
X132738809Y-79717380D01*
X132643571Y-79860238D01*
X132548333Y-79955476D01*
X132453095Y-80003095D01*
X133643571Y-79717380D02*
X133738809Y-79717380D01*
X133834047Y-79765000D01*
X133881666Y-79812619D01*
X133929285Y-79907857D01*
X133976904Y-80098333D01*
X133976904Y-80336428D01*
X133929285Y-80526904D01*
X133881666Y-80622142D01*
X133834047Y-80669761D01*
X133738809Y-80717380D01*
X133643571Y-80717380D01*
X133548333Y-80669761D01*
X133500714Y-80622142D01*
X133453095Y-80526904D01*
X133405476Y-80336428D01*
X133405476Y-80098333D01*
X133453095Y-79907857D01*
X133500714Y-79812619D01*
X133548333Y-79765000D01*
X133643571Y-79717380D01*
G04 #@! TO.C,R11*
X127627142Y-80717380D02*
X127293809Y-80241190D01*
X127055714Y-80717380D02*
X127055714Y-79717380D01*
X127436666Y-79717380D01*
X127531904Y-79765000D01*
X127579523Y-79812619D01*
X127627142Y-79907857D01*
X127627142Y-80050714D01*
X127579523Y-80145952D01*
X127531904Y-80193571D01*
X127436666Y-80241190D01*
X127055714Y-80241190D01*
X128579523Y-80717380D02*
X128008095Y-80717380D01*
X128293809Y-80717380D02*
X128293809Y-79717380D01*
X128198571Y-79860238D01*
X128103333Y-79955476D01*
X128008095Y-80003095D01*
X129531904Y-80717380D02*
X128960476Y-80717380D01*
X129246190Y-80717380D02*
X129246190Y-79717380D01*
X129150952Y-79860238D01*
X129055714Y-79955476D01*
X128960476Y-80003095D01*
G04 #@! TO.C,R12*
X101592142Y-84907380D02*
X101258809Y-84431190D01*
X101020714Y-84907380D02*
X101020714Y-83907380D01*
X101401666Y-83907380D01*
X101496904Y-83955000D01*
X101544523Y-84002619D01*
X101592142Y-84097857D01*
X101592142Y-84240714D01*
X101544523Y-84335952D01*
X101496904Y-84383571D01*
X101401666Y-84431190D01*
X101020714Y-84431190D01*
X102544523Y-84907380D02*
X101973095Y-84907380D01*
X102258809Y-84907380D02*
X102258809Y-83907380D01*
X102163571Y-84050238D01*
X102068333Y-84145476D01*
X101973095Y-84193095D01*
X102925476Y-84002619D02*
X102973095Y-83955000D01*
X103068333Y-83907380D01*
X103306428Y-83907380D01*
X103401666Y-83955000D01*
X103449285Y-84002619D01*
X103496904Y-84097857D01*
X103496904Y-84193095D01*
X103449285Y-84335952D01*
X102877857Y-84907380D01*
X103496904Y-84907380D01*
G04 #@! TO.C,R13*
X140327142Y-83637380D02*
X139993809Y-83161190D01*
X139755714Y-83637380D02*
X139755714Y-82637380D01*
X140136666Y-82637380D01*
X140231904Y-82685000D01*
X140279523Y-82732619D01*
X140327142Y-82827857D01*
X140327142Y-82970714D01*
X140279523Y-83065952D01*
X140231904Y-83113571D01*
X140136666Y-83161190D01*
X139755714Y-83161190D01*
X141279523Y-83637380D02*
X140708095Y-83637380D01*
X140993809Y-83637380D02*
X140993809Y-82637380D01*
X140898571Y-82780238D01*
X140803333Y-82875476D01*
X140708095Y-82923095D01*
X141612857Y-82637380D02*
X142231904Y-82637380D01*
X141898571Y-83018333D01*
X142041428Y-83018333D01*
X142136666Y-83065952D01*
X142184285Y-83113571D01*
X142231904Y-83208809D01*
X142231904Y-83446904D01*
X142184285Y-83542142D01*
X142136666Y-83589761D01*
X142041428Y-83637380D01*
X141755714Y-83637380D01*
X141660476Y-83589761D01*
X141612857Y-83542142D01*
G04 #@! TO.C,R14*
X136517142Y-80717380D02*
X136183809Y-80241190D01*
X135945714Y-80717380D02*
X135945714Y-79717380D01*
X136326666Y-79717380D01*
X136421904Y-79765000D01*
X136469523Y-79812619D01*
X136517142Y-79907857D01*
X136517142Y-80050714D01*
X136469523Y-80145952D01*
X136421904Y-80193571D01*
X136326666Y-80241190D01*
X135945714Y-80241190D01*
X137469523Y-80717380D02*
X136898095Y-80717380D01*
X137183809Y-80717380D02*
X137183809Y-79717380D01*
X137088571Y-79860238D01*
X136993333Y-79955476D01*
X136898095Y-80003095D01*
X138326666Y-80050714D02*
X138326666Y-80717380D01*
X138088571Y-79669761D02*
X137850476Y-80384047D01*
X138469523Y-80384047D01*
G04 #@! TO.C,R15*
X165092142Y-100147380D02*
X164758809Y-99671190D01*
X164520714Y-100147380D02*
X164520714Y-99147380D01*
X164901666Y-99147380D01*
X164996904Y-99195000D01*
X165044523Y-99242619D01*
X165092142Y-99337857D01*
X165092142Y-99480714D01*
X165044523Y-99575952D01*
X164996904Y-99623571D01*
X164901666Y-99671190D01*
X164520714Y-99671190D01*
X166044523Y-100147380D02*
X165473095Y-100147380D01*
X165758809Y-100147380D02*
X165758809Y-99147380D01*
X165663571Y-99290238D01*
X165568333Y-99385476D01*
X165473095Y-99433095D01*
X166949285Y-99147380D02*
X166473095Y-99147380D01*
X166425476Y-99623571D01*
X166473095Y-99575952D01*
X166568333Y-99528333D01*
X166806428Y-99528333D01*
X166901666Y-99575952D01*
X166949285Y-99623571D01*
X166996904Y-99718809D01*
X166996904Y-99956904D01*
X166949285Y-100052142D01*
X166901666Y-100099761D01*
X166806428Y-100147380D01*
X166568333Y-100147380D01*
X166473095Y-100099761D01*
X166425476Y-100052142D01*
G04 #@! TO.C,R16*
X165092142Y-107767380D02*
X164758809Y-107291190D01*
X164520714Y-107767380D02*
X164520714Y-106767380D01*
X164901666Y-106767380D01*
X164996904Y-106815000D01*
X165044523Y-106862619D01*
X165092142Y-106957857D01*
X165092142Y-107100714D01*
X165044523Y-107195952D01*
X164996904Y-107243571D01*
X164901666Y-107291190D01*
X164520714Y-107291190D01*
X166044523Y-107767380D02*
X165473095Y-107767380D01*
X165758809Y-107767380D02*
X165758809Y-106767380D01*
X165663571Y-106910238D01*
X165568333Y-107005476D01*
X165473095Y-107053095D01*
X166901666Y-106767380D02*
X166711190Y-106767380D01*
X166615952Y-106815000D01*
X166568333Y-106862619D01*
X166473095Y-107005476D01*
X166425476Y-107195952D01*
X166425476Y-107576904D01*
X166473095Y-107672142D01*
X166520714Y-107719761D01*
X166615952Y-107767380D01*
X166806428Y-107767380D01*
X166901666Y-107719761D01*
X166949285Y-107672142D01*
X166996904Y-107576904D01*
X166996904Y-107338809D01*
X166949285Y-107243571D01*
X166901666Y-107195952D01*
X166806428Y-107148333D01*
X166615952Y-107148333D01*
X166520714Y-107195952D01*
X166473095Y-107243571D01*
X166425476Y-107338809D01*
G04 #@! TO.C,R17*
X157472142Y-107767380D02*
X157138809Y-107291190D01*
X156900714Y-107767380D02*
X156900714Y-106767380D01*
X157281666Y-106767380D01*
X157376904Y-106815000D01*
X157424523Y-106862619D01*
X157472142Y-106957857D01*
X157472142Y-107100714D01*
X157424523Y-107195952D01*
X157376904Y-107243571D01*
X157281666Y-107291190D01*
X156900714Y-107291190D01*
X158424523Y-107767380D02*
X157853095Y-107767380D01*
X158138809Y-107767380D02*
X158138809Y-106767380D01*
X158043571Y-106910238D01*
X157948333Y-107005476D01*
X157853095Y-107053095D01*
X158757857Y-106767380D02*
X159424523Y-106767380D01*
X158995952Y-107767380D01*
G04 #@! TO.C,R18*
X99687142Y-107767380D02*
X99353809Y-107291190D01*
X99115714Y-107767380D02*
X99115714Y-106767380D01*
X99496666Y-106767380D01*
X99591904Y-106815000D01*
X99639523Y-106862619D01*
X99687142Y-106957857D01*
X99687142Y-107100714D01*
X99639523Y-107195952D01*
X99591904Y-107243571D01*
X99496666Y-107291190D01*
X99115714Y-107291190D01*
X100639523Y-107767380D02*
X100068095Y-107767380D01*
X100353809Y-107767380D02*
X100353809Y-106767380D01*
X100258571Y-106910238D01*
X100163333Y-107005476D01*
X100068095Y-107053095D01*
X101210952Y-107195952D02*
X101115714Y-107148333D01*
X101068095Y-107100714D01*
X101020476Y-107005476D01*
X101020476Y-106957857D01*
X101068095Y-106862619D01*
X101115714Y-106815000D01*
X101210952Y-106767380D01*
X101401428Y-106767380D01*
X101496666Y-106815000D01*
X101544285Y-106862619D01*
X101591904Y-106957857D01*
X101591904Y-107005476D01*
X101544285Y-107100714D01*
X101496666Y-107148333D01*
X101401428Y-107195952D01*
X101210952Y-107195952D01*
X101115714Y-107243571D01*
X101068095Y-107291190D01*
X101020476Y-107386428D01*
X101020476Y-107576904D01*
X101068095Y-107672142D01*
X101115714Y-107719761D01*
X101210952Y-107767380D01*
X101401428Y-107767380D01*
X101496666Y-107719761D01*
X101544285Y-107672142D01*
X101591904Y-107576904D01*
X101591904Y-107386428D01*
X101544285Y-107291190D01*
X101496666Y-107243571D01*
X101401428Y-107195952D01*
G04 #@! TD*
M02*
