G04 #@! TF.GenerationSoftware,KiCad,Pcbnew,(5.1.6)-1*
G04 #@! TF.CreationDate,2021-04-21T11:19:52-05:00*
G04 #@! TF.ProjectId,PortableAmpSlim,506f7274-6162-46c6-9541-6d70536c696d,rev?*
G04 #@! TF.SameCoordinates,Original*
G04 #@! TF.FileFunction,Legend,Top*
G04 #@! TF.FilePolarity,Positive*
%FSLAX46Y46*%
G04 Gerber Fmt 4.6, Leading zero omitted, Abs format (unit mm)*
G04 Created by KiCad (PCBNEW (5.1.6)-1) date 2021-04-21 11:19:52*
%MOMM*%
%LPD*%
G01*
G04 APERTURE LIST*
%ADD10C,0.150000*%
%ADD11C,0.300000*%
%ADD12C,0.120000*%
G04 APERTURE END LIST*
D10*
X144287142Y-77182142D02*
X144930000Y-77182142D01*
X145058571Y-77225000D01*
X145144285Y-77310714D01*
X145187142Y-77439285D01*
X145187142Y-77525000D01*
X145187142Y-76325000D02*
X145187142Y-76753571D01*
X144287142Y-76753571D01*
X145101428Y-75510714D02*
X145144285Y-75553571D01*
X145187142Y-75682142D01*
X145187142Y-75767857D01*
X145144285Y-75896428D01*
X145058571Y-75982142D01*
X144972857Y-76025000D01*
X144801428Y-76067857D01*
X144672857Y-76067857D01*
X144501428Y-76025000D01*
X144415714Y-75982142D01*
X144330000Y-75896428D01*
X144287142Y-75767857D01*
X144287142Y-75682142D01*
X144330000Y-75553571D01*
X144372857Y-75510714D01*
X144287142Y-74867857D02*
X144930000Y-74867857D01*
X145058571Y-74910714D01*
X145144285Y-74996428D01*
X145187142Y-75125000D01*
X145187142Y-75210714D01*
X145187142Y-74010714D02*
X145187142Y-74439285D01*
X144287142Y-74439285D01*
X145101428Y-73196428D02*
X145144285Y-73239285D01*
X145187142Y-73367857D01*
X145187142Y-73453571D01*
X145144285Y-73582142D01*
X145058571Y-73667857D01*
X144972857Y-73710714D01*
X144801428Y-73753571D01*
X144672857Y-73753571D01*
X144501428Y-73710714D01*
X144415714Y-73667857D01*
X144330000Y-73582142D01*
X144287142Y-73453571D01*
X144287142Y-73367857D01*
X144330000Y-73239285D01*
X144372857Y-73196428D01*
X144287142Y-72553571D02*
X144930000Y-72553571D01*
X145058571Y-72596428D01*
X145144285Y-72682142D01*
X145187142Y-72810714D01*
X145187142Y-72896428D01*
X145187142Y-71696428D02*
X145187142Y-72125000D01*
X144287142Y-72125000D01*
X145101428Y-70882142D02*
X145144285Y-70925000D01*
X145187142Y-71053571D01*
X145187142Y-71139285D01*
X145144285Y-71267857D01*
X145058571Y-71353571D01*
X144972857Y-71396428D01*
X144801428Y-71439285D01*
X144672857Y-71439285D01*
X144501428Y-71396428D01*
X144415714Y-71353571D01*
X144330000Y-71267857D01*
X144287142Y-71139285D01*
X144287142Y-71053571D01*
X144330000Y-70925000D01*
X144372857Y-70882142D01*
X144287142Y-70239285D02*
X144930000Y-70239285D01*
X145058571Y-70282142D01*
X145144285Y-70367857D01*
X145187142Y-70496428D01*
X145187142Y-70582142D01*
X145187142Y-69382142D02*
X145187142Y-69810714D01*
X144287142Y-69810714D01*
X145101428Y-68567857D02*
X145144285Y-68610714D01*
X145187142Y-68739285D01*
X145187142Y-68825000D01*
X145144285Y-68953571D01*
X145058571Y-69039285D01*
X144972857Y-69082142D01*
X144801428Y-69125000D01*
X144672857Y-69125000D01*
X144501428Y-69082142D01*
X144415714Y-69039285D01*
X144330000Y-68953571D01*
X144287142Y-68825000D01*
X144287142Y-68739285D01*
X144330000Y-68610714D01*
X144372857Y-68567857D01*
X109728857Y-79844380D02*
X110300285Y-79844380D01*
X110014571Y-80844380D02*
X110014571Y-79844380D01*
X110633619Y-80844380D02*
X110633619Y-79844380D01*
X111062190Y-80844380D02*
X111062190Y-80320571D01*
X111014571Y-80225333D01*
X110919333Y-80177714D01*
X110776476Y-80177714D01*
X110681238Y-80225333D01*
X110633619Y-80272952D01*
X111681238Y-80844380D02*
X111586000Y-80796761D01*
X111538380Y-80749142D01*
X111490761Y-80653904D01*
X111490761Y-80368190D01*
X111538380Y-80272952D01*
X111586000Y-80225333D01*
X111681238Y-80177714D01*
X111824095Y-80177714D01*
X111919333Y-80225333D01*
X111966952Y-80272952D01*
X112014571Y-80368190D01*
X112014571Y-80653904D01*
X111966952Y-80749142D01*
X111919333Y-80796761D01*
X111824095Y-80844380D01*
X111681238Y-80844380D01*
X112443142Y-80844380D02*
X112443142Y-80177714D01*
X112443142Y-80272952D02*
X112490761Y-80225333D01*
X112586000Y-80177714D01*
X112728857Y-80177714D01*
X112824095Y-80225333D01*
X112871714Y-80320571D01*
X112871714Y-80844380D01*
X112871714Y-80320571D02*
X112919333Y-80225333D01*
X113014571Y-80177714D01*
X113157428Y-80177714D01*
X113252666Y-80225333D01*
X113300285Y-80320571D01*
X113300285Y-80844380D01*
X114205047Y-80844380D02*
X114205047Y-80320571D01*
X114157428Y-80225333D01*
X114062190Y-80177714D01*
X113871714Y-80177714D01*
X113776476Y-80225333D01*
X114205047Y-80796761D02*
X114109809Y-80844380D01*
X113871714Y-80844380D01*
X113776476Y-80796761D01*
X113728857Y-80701523D01*
X113728857Y-80606285D01*
X113776476Y-80511047D01*
X113871714Y-80463428D01*
X114109809Y-80463428D01*
X114205047Y-80415809D01*
X114633619Y-80796761D02*
X114728857Y-80844380D01*
X114919333Y-80844380D01*
X115014571Y-80796761D01*
X115062190Y-80701523D01*
X115062190Y-80653904D01*
X115014571Y-80558666D01*
X114919333Y-80511047D01*
X114776476Y-80511047D01*
X114681238Y-80463428D01*
X114633619Y-80368190D01*
X114633619Y-80320571D01*
X114681238Y-80225333D01*
X114776476Y-80177714D01*
X114919333Y-80177714D01*
X115014571Y-80225333D01*
X116252666Y-80844380D02*
X116252666Y-79844380D01*
X116586000Y-80558666D01*
X116919333Y-79844380D01*
X116919333Y-80844380D01*
X117824095Y-80796761D02*
X117728857Y-80844380D01*
X117538380Y-80844380D01*
X117443142Y-80796761D01*
X117395523Y-80749142D01*
X117347904Y-80653904D01*
X117347904Y-80368190D01*
X117395523Y-80272952D01*
X117443142Y-80225333D01*
X117538380Y-80177714D01*
X117728857Y-80177714D01*
X117824095Y-80225333D01*
X118252666Y-80844380D02*
X118252666Y-79844380D01*
X118490761Y-79844380D01*
X118633619Y-79892000D01*
X118728857Y-79987238D01*
X118776476Y-80082476D01*
X118824095Y-80272952D01*
X118824095Y-80415809D01*
X118776476Y-80606285D01*
X118728857Y-80701523D01*
X118633619Y-80796761D01*
X118490761Y-80844380D01*
X118252666Y-80844380D01*
X119395523Y-80844380D02*
X119300285Y-80796761D01*
X119252666Y-80749142D01*
X119205047Y-80653904D01*
X119205047Y-80368190D01*
X119252666Y-80272952D01*
X119300285Y-80225333D01*
X119395523Y-80177714D01*
X119538380Y-80177714D01*
X119633619Y-80225333D01*
X119681238Y-80272952D01*
X119728857Y-80368190D01*
X119728857Y-80653904D01*
X119681238Y-80749142D01*
X119633619Y-80796761D01*
X119538380Y-80844380D01*
X119395523Y-80844380D01*
X120157428Y-80177714D02*
X120157428Y-80844380D01*
X120157428Y-80272952D02*
X120205047Y-80225333D01*
X120300285Y-80177714D01*
X120443142Y-80177714D01*
X120538380Y-80225333D01*
X120586000Y-80320571D01*
X120586000Y-80844380D01*
X121490761Y-80844380D02*
X121490761Y-80320571D01*
X121443142Y-80225333D01*
X121347904Y-80177714D01*
X121157428Y-80177714D01*
X121062190Y-80225333D01*
X121490761Y-80796761D02*
X121395523Y-80844380D01*
X121157428Y-80844380D01*
X121062190Y-80796761D01*
X121014571Y-80701523D01*
X121014571Y-80606285D01*
X121062190Y-80511047D01*
X121157428Y-80463428D01*
X121395523Y-80463428D01*
X121490761Y-80415809D01*
X122395523Y-80177714D02*
X122395523Y-80987238D01*
X122347904Y-81082476D01*
X122300285Y-81130095D01*
X122205047Y-81177714D01*
X122062190Y-81177714D01*
X121966952Y-81130095D01*
X122395523Y-80796761D02*
X122300285Y-80844380D01*
X122109809Y-80844380D01*
X122014571Y-80796761D01*
X121966952Y-80749142D01*
X121919333Y-80653904D01*
X121919333Y-80368190D01*
X121966952Y-80272952D01*
X122014571Y-80225333D01*
X122109809Y-80177714D01*
X122300285Y-80177714D01*
X122395523Y-80225333D01*
X122871714Y-80844380D02*
X122871714Y-79844380D01*
X123300285Y-80844380D02*
X123300285Y-80320571D01*
X123252666Y-80225333D01*
X123157428Y-80177714D01*
X123014571Y-80177714D01*
X122919333Y-80225333D01*
X122871714Y-80272952D01*
X107681238Y-82446761D02*
X107824095Y-82494380D01*
X108062190Y-82494380D01*
X108157428Y-82446761D01*
X108205047Y-82399142D01*
X108252666Y-82303904D01*
X108252666Y-82208666D01*
X108205047Y-82113428D01*
X108157428Y-82065809D01*
X108062190Y-82018190D01*
X107871714Y-81970571D01*
X107776476Y-81922952D01*
X107728857Y-81875333D01*
X107681238Y-81780095D01*
X107681238Y-81684857D01*
X107728857Y-81589619D01*
X107776476Y-81542000D01*
X107871714Y-81494380D01*
X108109809Y-81494380D01*
X108252666Y-81542000D01*
X108824095Y-82494380D02*
X108728857Y-82446761D01*
X108681238Y-82351523D01*
X108681238Y-81494380D01*
X109205047Y-82494380D02*
X109205047Y-81827714D01*
X109205047Y-81494380D02*
X109157428Y-81542000D01*
X109205047Y-81589619D01*
X109252666Y-81542000D01*
X109205047Y-81494380D01*
X109205047Y-81589619D01*
X109681238Y-82494380D02*
X109681238Y-81827714D01*
X109681238Y-81922952D02*
X109728857Y-81875333D01*
X109824095Y-81827714D01*
X109966952Y-81827714D01*
X110062190Y-81875333D01*
X110109809Y-81970571D01*
X110109809Y-82494380D01*
X110109809Y-81970571D02*
X110157428Y-81875333D01*
X110252666Y-81827714D01*
X110395523Y-81827714D01*
X110490761Y-81875333D01*
X110538380Y-81970571D01*
X110538380Y-82494380D01*
X111776476Y-82494380D02*
X111776476Y-81494380D01*
X112157428Y-81494380D01*
X112252666Y-81542000D01*
X112300285Y-81589619D01*
X112347904Y-81684857D01*
X112347904Y-81827714D01*
X112300285Y-81922952D01*
X112252666Y-81970571D01*
X112157428Y-82018190D01*
X111776476Y-82018190D01*
X112919333Y-82494380D02*
X112824095Y-82446761D01*
X112776476Y-82399142D01*
X112728857Y-82303904D01*
X112728857Y-82018190D01*
X112776476Y-81922952D01*
X112824095Y-81875333D01*
X112919333Y-81827714D01*
X113062190Y-81827714D01*
X113157428Y-81875333D01*
X113205047Y-81922952D01*
X113252666Y-82018190D01*
X113252666Y-82303904D01*
X113205047Y-82399142D01*
X113157428Y-82446761D01*
X113062190Y-82494380D01*
X112919333Y-82494380D01*
X113681238Y-82494380D02*
X113681238Y-81827714D01*
X113681238Y-82018190D02*
X113728857Y-81922952D01*
X113776476Y-81875333D01*
X113871714Y-81827714D01*
X113966952Y-81827714D01*
X114157428Y-81827714D02*
X114538380Y-81827714D01*
X114300285Y-81494380D02*
X114300285Y-82351523D01*
X114347904Y-82446761D01*
X114443142Y-82494380D01*
X114538380Y-82494380D01*
X115300285Y-82494380D02*
X115300285Y-81970571D01*
X115252666Y-81875333D01*
X115157428Y-81827714D01*
X114966952Y-81827714D01*
X114871714Y-81875333D01*
X115300285Y-82446761D02*
X115205047Y-82494380D01*
X114966952Y-82494380D01*
X114871714Y-82446761D01*
X114824095Y-82351523D01*
X114824095Y-82256285D01*
X114871714Y-82161047D01*
X114966952Y-82113428D01*
X115205047Y-82113428D01*
X115300285Y-82065809D01*
X115776476Y-82494380D02*
X115776476Y-81494380D01*
X115776476Y-81875333D02*
X115871714Y-81827714D01*
X116062190Y-81827714D01*
X116157428Y-81875333D01*
X116205047Y-81922952D01*
X116252666Y-82018190D01*
X116252666Y-82303904D01*
X116205047Y-82399142D01*
X116157428Y-82446761D01*
X116062190Y-82494380D01*
X115871714Y-82494380D01*
X115776476Y-82446761D01*
X116824095Y-82494380D02*
X116728857Y-82446761D01*
X116681238Y-82351523D01*
X116681238Y-81494380D01*
X117586000Y-82446761D02*
X117490761Y-82494380D01*
X117300285Y-82494380D01*
X117205047Y-82446761D01*
X117157428Y-82351523D01*
X117157428Y-81970571D01*
X117205047Y-81875333D01*
X117300285Y-81827714D01*
X117490761Y-81827714D01*
X117586000Y-81875333D01*
X117633619Y-81970571D01*
X117633619Y-82065809D01*
X117157428Y-82161047D01*
X118776476Y-82208666D02*
X119252666Y-82208666D01*
X118681238Y-82494380D02*
X119014571Y-81494380D01*
X119347904Y-82494380D01*
X119681238Y-82494380D02*
X119681238Y-81827714D01*
X119681238Y-81922952D02*
X119728857Y-81875333D01*
X119824095Y-81827714D01*
X119966952Y-81827714D01*
X120062190Y-81875333D01*
X120109809Y-81970571D01*
X120109809Y-82494380D01*
X120109809Y-81970571D02*
X120157428Y-81875333D01*
X120252666Y-81827714D01*
X120395523Y-81827714D01*
X120490761Y-81875333D01*
X120538380Y-81970571D01*
X120538380Y-82494380D01*
X121014571Y-81827714D02*
X121014571Y-82827714D01*
X121014571Y-81875333D02*
X121109809Y-81827714D01*
X121300285Y-81827714D01*
X121395523Y-81875333D01*
X121443142Y-81922952D01*
X121490761Y-82018190D01*
X121490761Y-82303904D01*
X121443142Y-82399142D01*
X121395523Y-82446761D01*
X121300285Y-82494380D01*
X121109809Y-82494380D01*
X121014571Y-82446761D01*
X122538380Y-81494380D02*
X122871714Y-82494380D01*
X123205047Y-81494380D01*
X124062190Y-82494380D02*
X123490761Y-82494380D01*
X123776476Y-82494380D02*
X123776476Y-81494380D01*
X123681238Y-81637238D01*
X123586000Y-81732476D01*
X123490761Y-81780095D01*
X124490761Y-82399142D02*
X124538380Y-82446761D01*
X124490761Y-82494380D01*
X124443142Y-82446761D01*
X124490761Y-82399142D01*
X124490761Y-82494380D01*
X125157428Y-81494380D02*
X125252666Y-81494380D01*
X125347904Y-81542000D01*
X125395523Y-81589619D01*
X125443142Y-81684857D01*
X125490761Y-81875333D01*
X125490761Y-82113428D01*
X125443142Y-82303904D01*
X125395523Y-82399142D01*
X125347904Y-82446761D01*
X125252666Y-82494380D01*
X125157428Y-82494380D01*
X125062190Y-82446761D01*
X125014571Y-82399142D01*
X124966952Y-82303904D01*
X124919333Y-82113428D01*
X124919333Y-81875333D01*
X124966952Y-81684857D01*
X125014571Y-81589619D01*
X125062190Y-81542000D01*
X125157428Y-81494380D01*
X109586000Y-84144380D02*
X109586000Y-83477714D01*
X109586000Y-83572952D02*
X109633619Y-83525333D01*
X109728857Y-83477714D01*
X109871714Y-83477714D01*
X109966952Y-83525333D01*
X110014571Y-83620571D01*
X110014571Y-84144380D01*
X110014571Y-83620571D02*
X110062190Y-83525333D01*
X110157428Y-83477714D01*
X110300285Y-83477714D01*
X110395523Y-83525333D01*
X110443142Y-83620571D01*
X110443142Y-84144380D01*
X111347904Y-84096761D02*
X111252666Y-84144380D01*
X111062190Y-84144380D01*
X110966952Y-84096761D01*
X110919333Y-84049142D01*
X110871714Y-83953904D01*
X110871714Y-83668190D01*
X110919333Y-83572952D01*
X110966952Y-83525333D01*
X111062190Y-83477714D01*
X111252666Y-83477714D01*
X111347904Y-83525333D01*
X112205047Y-84144380D02*
X112205047Y-83144380D01*
X112205047Y-84096761D02*
X112109809Y-84144380D01*
X111919333Y-84144380D01*
X111824095Y-84096761D01*
X111776476Y-84049142D01*
X111728857Y-83953904D01*
X111728857Y-83668190D01*
X111776476Y-83572952D01*
X111824095Y-83525333D01*
X111919333Y-83477714D01*
X112109809Y-83477714D01*
X112205047Y-83525333D01*
X112824095Y-84144380D02*
X112728857Y-84096761D01*
X112681238Y-84049142D01*
X112633619Y-83953904D01*
X112633619Y-83668190D01*
X112681238Y-83572952D01*
X112728857Y-83525333D01*
X112824095Y-83477714D01*
X112966952Y-83477714D01*
X113062190Y-83525333D01*
X113109809Y-83572952D01*
X113157428Y-83668190D01*
X113157428Y-83953904D01*
X113109809Y-84049142D01*
X113062190Y-84096761D01*
X112966952Y-84144380D01*
X112824095Y-84144380D01*
X113586000Y-83477714D02*
X113586000Y-84144380D01*
X113586000Y-83572952D02*
X113633619Y-83525333D01*
X113728857Y-83477714D01*
X113871714Y-83477714D01*
X113966952Y-83525333D01*
X114014571Y-83620571D01*
X114014571Y-84144380D01*
X114919333Y-84144380D02*
X114919333Y-83620571D01*
X114871714Y-83525333D01*
X114776476Y-83477714D01*
X114586000Y-83477714D01*
X114490761Y-83525333D01*
X114919333Y-84096761D02*
X114824095Y-84144380D01*
X114586000Y-84144380D01*
X114490761Y-84096761D01*
X114443142Y-84001523D01*
X114443142Y-83906285D01*
X114490761Y-83811047D01*
X114586000Y-83763428D01*
X114824095Y-83763428D01*
X114919333Y-83715809D01*
X115824095Y-83477714D02*
X115824095Y-84287238D01*
X115776476Y-84382476D01*
X115728857Y-84430095D01*
X115633619Y-84477714D01*
X115490761Y-84477714D01*
X115395523Y-84430095D01*
X115824095Y-84096761D02*
X115728857Y-84144380D01*
X115538380Y-84144380D01*
X115443142Y-84096761D01*
X115395523Y-84049142D01*
X115347904Y-83953904D01*
X115347904Y-83668190D01*
X115395523Y-83572952D01*
X115443142Y-83525333D01*
X115538380Y-83477714D01*
X115728857Y-83477714D01*
X115824095Y-83525333D01*
X116300285Y-84144380D02*
X116300285Y-83144380D01*
X116728857Y-84144380D02*
X116728857Y-83620571D01*
X116681238Y-83525333D01*
X116586000Y-83477714D01*
X116443142Y-83477714D01*
X116347904Y-83525333D01*
X116300285Y-83572952D01*
X117633619Y-84096761D02*
X117538380Y-84144380D01*
X117347904Y-84144380D01*
X117252666Y-84096761D01*
X117205047Y-84049142D01*
X117157428Y-83953904D01*
X117157428Y-83668190D01*
X117205047Y-83572952D01*
X117252666Y-83525333D01*
X117347904Y-83477714D01*
X117538380Y-83477714D01*
X117633619Y-83525333D01*
X118205047Y-84144380D02*
X118109809Y-84096761D01*
X118062190Y-84049142D01*
X118014571Y-83953904D01*
X118014571Y-83668190D01*
X118062190Y-83572952D01*
X118109809Y-83525333D01*
X118205047Y-83477714D01*
X118347904Y-83477714D01*
X118443142Y-83525333D01*
X118490761Y-83572952D01*
X118538380Y-83668190D01*
X118538380Y-83953904D01*
X118490761Y-84049142D01*
X118443142Y-84096761D01*
X118347904Y-84144380D01*
X118205047Y-84144380D01*
X118966952Y-84144380D02*
X118966952Y-83477714D01*
X118966952Y-83668190D02*
X119014571Y-83572952D01*
X119062190Y-83525333D01*
X119157428Y-83477714D01*
X119252666Y-83477714D01*
X119586000Y-83477714D02*
X119586000Y-84477714D01*
X119586000Y-83525333D02*
X119681238Y-83477714D01*
X119871714Y-83477714D01*
X119966952Y-83525333D01*
X120014571Y-83572952D01*
X120062190Y-83668190D01*
X120062190Y-83953904D01*
X120014571Y-84049142D01*
X119966952Y-84096761D01*
X119871714Y-84144380D01*
X119681238Y-84144380D01*
X119586000Y-84096761D01*
X120490761Y-84049142D02*
X120538380Y-84096761D01*
X120490761Y-84144380D01*
X120443142Y-84096761D01*
X120490761Y-84049142D01*
X120490761Y-84144380D01*
X121395523Y-84096761D02*
X121300285Y-84144380D01*
X121109809Y-84144380D01*
X121014571Y-84096761D01*
X120966952Y-84049142D01*
X120919333Y-83953904D01*
X120919333Y-83668190D01*
X120966952Y-83572952D01*
X121014571Y-83525333D01*
X121109809Y-83477714D01*
X121300285Y-83477714D01*
X121395523Y-83525333D01*
X121966952Y-84144380D02*
X121871714Y-84096761D01*
X121824095Y-84049142D01*
X121776476Y-83953904D01*
X121776476Y-83668190D01*
X121824095Y-83572952D01*
X121871714Y-83525333D01*
X121966952Y-83477714D01*
X122109809Y-83477714D01*
X122205047Y-83525333D01*
X122252666Y-83572952D01*
X122300285Y-83668190D01*
X122300285Y-83953904D01*
X122252666Y-84049142D01*
X122205047Y-84096761D01*
X122109809Y-84144380D01*
X121966952Y-84144380D01*
X122728857Y-84144380D02*
X122728857Y-83477714D01*
X122728857Y-83572952D02*
X122776476Y-83525333D01*
X122871714Y-83477714D01*
X123014571Y-83477714D01*
X123109809Y-83525333D01*
X123157428Y-83620571D01*
X123157428Y-84144380D01*
X123157428Y-83620571D02*
X123205047Y-83525333D01*
X123300285Y-83477714D01*
X123443142Y-83477714D01*
X123538380Y-83525333D01*
X123586000Y-83620571D01*
X123586000Y-84144380D01*
X167630952Y-76262380D02*
X167821428Y-76262380D01*
X167916666Y-76214761D01*
X167964285Y-76167142D01*
X168059523Y-76024285D01*
X168107142Y-75833809D01*
X168107142Y-75452857D01*
X168059523Y-75357619D01*
X168011904Y-75310000D01*
X167916666Y-75262380D01*
X167726190Y-75262380D01*
X167630952Y-75310000D01*
X167583333Y-75357619D01*
X167535714Y-75452857D01*
X167535714Y-75690952D01*
X167583333Y-75786190D01*
X167630952Y-75833809D01*
X167726190Y-75881428D01*
X167916666Y-75881428D01*
X168011904Y-75833809D01*
X168059523Y-75786190D01*
X168107142Y-75690952D01*
X168392857Y-75262380D02*
X168726190Y-76262380D01*
X169059523Y-75262380D01*
X167726190Y-73722380D02*
X167726190Y-72722380D01*
X168202380Y-73722380D02*
X168202380Y-72722380D01*
X168773809Y-73722380D01*
X168773809Y-72722380D01*
X167488095Y-70230000D02*
X167392857Y-70182380D01*
X167250000Y-70182380D01*
X167107142Y-70230000D01*
X167011904Y-70325238D01*
X166964285Y-70420476D01*
X166916666Y-70610952D01*
X166916666Y-70753809D01*
X166964285Y-70944285D01*
X167011904Y-71039523D01*
X167107142Y-71134761D01*
X167250000Y-71182380D01*
X167345238Y-71182380D01*
X167488095Y-71134761D01*
X167535714Y-71087142D01*
X167535714Y-70753809D01*
X167345238Y-70753809D01*
X167964285Y-71182380D02*
X167964285Y-70182380D01*
X168535714Y-71182380D01*
X168535714Y-70182380D01*
X169011904Y-71182380D02*
X169011904Y-70182380D01*
X169250000Y-70182380D01*
X169392857Y-70230000D01*
X169488095Y-70325238D01*
X169535714Y-70420476D01*
X169583333Y-70610952D01*
X169583333Y-70753809D01*
X169535714Y-70944285D01*
X169488095Y-71039523D01*
X169392857Y-71134761D01*
X169250000Y-71182380D01*
X169011904Y-71182380D01*
X167488095Y-67572000D02*
X167392857Y-67524380D01*
X167250000Y-67524380D01*
X167107142Y-67572000D01*
X167011904Y-67667238D01*
X166964285Y-67762476D01*
X166916666Y-67952952D01*
X166916666Y-68095809D01*
X166964285Y-68286285D01*
X167011904Y-68381523D01*
X167107142Y-68476761D01*
X167250000Y-68524380D01*
X167345238Y-68524380D01*
X167488095Y-68476761D01*
X167535714Y-68429142D01*
X167535714Y-68095809D01*
X167345238Y-68095809D01*
X167964285Y-68524380D02*
X167964285Y-67524380D01*
X168535714Y-68524380D01*
X168535714Y-67524380D01*
X169011904Y-68524380D02*
X169011904Y-67524380D01*
X169250000Y-67524380D01*
X169392857Y-67572000D01*
X169488095Y-67667238D01*
X169535714Y-67762476D01*
X169583333Y-67952952D01*
X169583333Y-68095809D01*
X169535714Y-68286285D01*
X169488095Y-68381523D01*
X169392857Y-68476761D01*
X169250000Y-68524380D01*
X169011904Y-68524380D01*
X153059238Y-86304380D02*
X153059238Y-85304380D01*
X153440190Y-85304380D01*
X153535428Y-85352000D01*
X153583047Y-85399619D01*
X153630666Y-85494857D01*
X153630666Y-85637714D01*
X153583047Y-85732952D01*
X153535428Y-85780571D01*
X153440190Y-85828190D01*
X153059238Y-85828190D01*
X154202095Y-86304380D02*
X154106857Y-86256761D01*
X154059238Y-86209142D01*
X154011619Y-86113904D01*
X154011619Y-85828190D01*
X154059238Y-85732952D01*
X154106857Y-85685333D01*
X154202095Y-85637714D01*
X154344952Y-85637714D01*
X154440190Y-85685333D01*
X154487809Y-85732952D01*
X154535428Y-85828190D01*
X154535428Y-86113904D01*
X154487809Y-86209142D01*
X154440190Y-86256761D01*
X154344952Y-86304380D01*
X154202095Y-86304380D01*
X154868761Y-85637714D02*
X155059238Y-86304380D01*
X155249714Y-85828190D01*
X155440190Y-86304380D01*
X155630666Y-85637714D01*
X156392571Y-86256761D02*
X156297333Y-86304380D01*
X156106857Y-86304380D01*
X156011619Y-86256761D01*
X155964000Y-86161523D01*
X155964000Y-85780571D01*
X156011619Y-85685333D01*
X156106857Y-85637714D01*
X156297333Y-85637714D01*
X156392571Y-85685333D01*
X156440190Y-85780571D01*
X156440190Y-85875809D01*
X155964000Y-85971047D01*
X156868761Y-86304380D02*
X156868761Y-85637714D01*
X156868761Y-85828190D02*
X156916380Y-85732952D01*
X156964000Y-85685333D01*
X157059238Y-85637714D01*
X157154476Y-85637714D01*
X158202095Y-86256761D02*
X158344952Y-86304380D01*
X158583047Y-86304380D01*
X158678285Y-86256761D01*
X158725904Y-86209142D01*
X158773523Y-86113904D01*
X158773523Y-86018666D01*
X158725904Y-85923428D01*
X158678285Y-85875809D01*
X158583047Y-85828190D01*
X158392571Y-85780571D01*
X158297333Y-85732952D01*
X158249714Y-85685333D01*
X158202095Y-85590095D01*
X158202095Y-85494857D01*
X158249714Y-85399619D01*
X158297333Y-85352000D01*
X158392571Y-85304380D01*
X158630666Y-85304380D01*
X158773523Y-85352000D01*
X159106857Y-85304380D02*
X159344952Y-86304380D01*
X159535428Y-85590095D01*
X159725904Y-86304380D01*
X159964000Y-85304380D01*
D11*
X157162571Y-64607142D02*
X158305428Y-64607142D01*
X154622571Y-64607142D02*
X155765428Y-64607142D01*
X155194000Y-65178571D02*
X155194000Y-64035714D01*
D10*
X144978761Y-58380380D02*
X145312095Y-59380380D01*
X145645428Y-58380380D01*
X146121619Y-59380380D02*
X146026380Y-59332761D01*
X145978761Y-59285142D01*
X145931142Y-59189904D01*
X145931142Y-58904190D01*
X145978761Y-58808952D01*
X146026380Y-58761333D01*
X146121619Y-58713714D01*
X146264476Y-58713714D01*
X146359714Y-58761333D01*
X146407333Y-58808952D01*
X146454952Y-58904190D01*
X146454952Y-59189904D01*
X146407333Y-59285142D01*
X146359714Y-59332761D01*
X146264476Y-59380380D01*
X146121619Y-59380380D01*
X147026380Y-59380380D02*
X146931142Y-59332761D01*
X146883523Y-59237523D01*
X146883523Y-58380380D01*
X147835904Y-58713714D02*
X147835904Y-59380380D01*
X147407333Y-58713714D02*
X147407333Y-59237523D01*
X147454952Y-59332761D01*
X147550190Y-59380380D01*
X147693047Y-59380380D01*
X147788285Y-59332761D01*
X147835904Y-59285142D01*
X148312095Y-59380380D02*
X148312095Y-58713714D01*
X148312095Y-58808952D02*
X148359714Y-58761333D01*
X148454952Y-58713714D01*
X148597809Y-58713714D01*
X148693047Y-58761333D01*
X148740666Y-58856571D01*
X148740666Y-59380380D01*
X148740666Y-58856571D02*
X148788285Y-58761333D01*
X148883523Y-58713714D01*
X149026380Y-58713714D01*
X149121619Y-58761333D01*
X149169238Y-58856571D01*
X149169238Y-59380380D01*
X150026380Y-59332761D02*
X149931142Y-59380380D01*
X149740666Y-59380380D01*
X149645428Y-59332761D01*
X149597809Y-59237523D01*
X149597809Y-58856571D01*
X149645428Y-58761333D01*
X149740666Y-58713714D01*
X149931142Y-58713714D01*
X150026380Y-58761333D01*
X150074000Y-58856571D01*
X150074000Y-58951809D01*
X149597809Y-59047047D01*
X156345047Y-66302000D02*
X156249809Y-66254380D01*
X156106952Y-66254380D01*
X155964095Y-66302000D01*
X155868857Y-66397238D01*
X155821238Y-66492476D01*
X155773619Y-66682952D01*
X155773619Y-66825809D01*
X155821238Y-67016285D01*
X155868857Y-67111523D01*
X155964095Y-67206761D01*
X156106952Y-67254380D01*
X156202190Y-67254380D01*
X156345047Y-67206761D01*
X156392666Y-67159142D01*
X156392666Y-66825809D01*
X156202190Y-66825809D01*
X157249809Y-67254380D02*
X157249809Y-66730571D01*
X157202190Y-66635333D01*
X157106952Y-66587714D01*
X156916476Y-66587714D01*
X156821238Y-66635333D01*
X157249809Y-67206761D02*
X157154571Y-67254380D01*
X156916476Y-67254380D01*
X156821238Y-67206761D01*
X156773619Y-67111523D01*
X156773619Y-67016285D01*
X156821238Y-66921047D01*
X156916476Y-66873428D01*
X157154571Y-66873428D01*
X157249809Y-66825809D01*
X157726000Y-67254380D02*
X157726000Y-66587714D01*
X157726000Y-66254380D02*
X157678380Y-66302000D01*
X157726000Y-66349619D01*
X157773619Y-66302000D01*
X157726000Y-66254380D01*
X157726000Y-66349619D01*
X158202190Y-66587714D02*
X158202190Y-67254380D01*
X158202190Y-66682952D02*
X158249809Y-66635333D01*
X158345047Y-66587714D01*
X158487904Y-66587714D01*
X158583142Y-66635333D01*
X158630761Y-66730571D01*
X158630761Y-67254380D01*
X154440190Y-58380380D02*
X154630666Y-58380380D01*
X154725904Y-58428000D01*
X154821142Y-58523238D01*
X154868761Y-58713714D01*
X154868761Y-59047047D01*
X154821142Y-59237523D01*
X154725904Y-59332761D01*
X154630666Y-59380380D01*
X154440190Y-59380380D01*
X154344952Y-59332761D01*
X154249714Y-59237523D01*
X154202095Y-59047047D01*
X154202095Y-58713714D01*
X154249714Y-58523238D01*
X154344952Y-58428000D01*
X154440190Y-58380380D01*
X155725904Y-58713714D02*
X155725904Y-59380380D01*
X155297333Y-58713714D02*
X155297333Y-59237523D01*
X155344952Y-59332761D01*
X155440190Y-59380380D01*
X155583047Y-59380380D01*
X155678285Y-59332761D01*
X155725904Y-59285142D01*
X156059238Y-58713714D02*
X156440190Y-58713714D01*
X156202095Y-58380380D02*
X156202095Y-59237523D01*
X156249714Y-59332761D01*
X156344952Y-59380380D01*
X156440190Y-59380380D01*
X156773523Y-58713714D02*
X156773523Y-59713714D01*
X156773523Y-58761333D02*
X156868761Y-58713714D01*
X157059238Y-58713714D01*
X157154476Y-58761333D01*
X157202095Y-58808952D01*
X157249714Y-58904190D01*
X157249714Y-59189904D01*
X157202095Y-59285142D01*
X157154476Y-59332761D01*
X157059238Y-59380380D01*
X156868761Y-59380380D01*
X156773523Y-59332761D01*
X158106857Y-58713714D02*
X158106857Y-59380380D01*
X157678285Y-58713714D02*
X157678285Y-59237523D01*
X157725904Y-59332761D01*
X157821142Y-59380380D01*
X157964000Y-59380380D01*
X158059238Y-59332761D01*
X158106857Y-59285142D01*
X158440190Y-58713714D02*
X158821142Y-58713714D01*
X158583047Y-58380380D02*
X158583047Y-59237523D01*
X158630666Y-59332761D01*
X158725904Y-59380380D01*
X158821142Y-59380380D01*
D12*
G04 #@! TO.C,C1*
X115090000Y-64770000D02*
G75*
G03*
X115090000Y-64770000I-4120000J0D01*
G01*
X110970000Y-60690000D02*
X110970000Y-68850000D01*
X111010000Y-60690000D02*
X111010000Y-68850000D01*
X111050000Y-60690000D02*
X111050000Y-68850000D01*
X111090000Y-60691000D02*
X111090000Y-68849000D01*
X111130000Y-60693000D02*
X111130000Y-68847000D01*
X111170000Y-60694000D02*
X111170000Y-68846000D01*
X111210000Y-60696000D02*
X111210000Y-68844000D01*
X111250000Y-60699000D02*
X111250000Y-68841000D01*
X111290000Y-60702000D02*
X111290000Y-68838000D01*
X111330000Y-60705000D02*
X111330000Y-68835000D01*
X111370000Y-60709000D02*
X111370000Y-68831000D01*
X111410000Y-60713000D02*
X111410000Y-68827000D01*
X111450000Y-60718000D02*
X111450000Y-68822000D01*
X111490000Y-60722000D02*
X111490000Y-68818000D01*
X111530000Y-60728000D02*
X111530000Y-68812000D01*
X111570000Y-60733000D02*
X111570000Y-68807000D01*
X111610000Y-60740000D02*
X111610000Y-68800000D01*
X111650000Y-60746000D02*
X111650000Y-68794000D01*
X111691000Y-60753000D02*
X111691000Y-63730000D01*
X111691000Y-65810000D02*
X111691000Y-68787000D01*
X111731000Y-60760000D02*
X111731000Y-63730000D01*
X111731000Y-65810000D02*
X111731000Y-68780000D01*
X111771000Y-60768000D02*
X111771000Y-63730000D01*
X111771000Y-65810000D02*
X111771000Y-68772000D01*
X111811000Y-60776000D02*
X111811000Y-63730000D01*
X111811000Y-65810000D02*
X111811000Y-68764000D01*
X111851000Y-60785000D02*
X111851000Y-63730000D01*
X111851000Y-65810000D02*
X111851000Y-68755000D01*
X111891000Y-60794000D02*
X111891000Y-63730000D01*
X111891000Y-65810000D02*
X111891000Y-68746000D01*
X111931000Y-60803000D02*
X111931000Y-63730000D01*
X111931000Y-65810000D02*
X111931000Y-68737000D01*
X111971000Y-60813000D02*
X111971000Y-63730000D01*
X111971000Y-65810000D02*
X111971000Y-68727000D01*
X112011000Y-60823000D02*
X112011000Y-63730000D01*
X112011000Y-65810000D02*
X112011000Y-68717000D01*
X112051000Y-60834000D02*
X112051000Y-63730000D01*
X112051000Y-65810000D02*
X112051000Y-68706000D01*
X112091000Y-60845000D02*
X112091000Y-63730000D01*
X112091000Y-65810000D02*
X112091000Y-68695000D01*
X112131000Y-60856000D02*
X112131000Y-63730000D01*
X112131000Y-65810000D02*
X112131000Y-68684000D01*
X112171000Y-60868000D02*
X112171000Y-63730000D01*
X112171000Y-65810000D02*
X112171000Y-68672000D01*
X112211000Y-60881000D02*
X112211000Y-63730000D01*
X112211000Y-65810000D02*
X112211000Y-68659000D01*
X112251000Y-60893000D02*
X112251000Y-63730000D01*
X112251000Y-65810000D02*
X112251000Y-68647000D01*
X112291000Y-60907000D02*
X112291000Y-63730000D01*
X112291000Y-65810000D02*
X112291000Y-68633000D01*
X112331000Y-60920000D02*
X112331000Y-63730000D01*
X112331000Y-65810000D02*
X112331000Y-68620000D01*
X112371000Y-60935000D02*
X112371000Y-63730000D01*
X112371000Y-65810000D02*
X112371000Y-68605000D01*
X112411000Y-60949000D02*
X112411000Y-63730000D01*
X112411000Y-65810000D02*
X112411000Y-68591000D01*
X112451000Y-60965000D02*
X112451000Y-63730000D01*
X112451000Y-65810000D02*
X112451000Y-68575000D01*
X112491000Y-60980000D02*
X112491000Y-63730000D01*
X112491000Y-65810000D02*
X112491000Y-68560000D01*
X112531000Y-60996000D02*
X112531000Y-63730000D01*
X112531000Y-65810000D02*
X112531000Y-68544000D01*
X112571000Y-61013000D02*
X112571000Y-63730000D01*
X112571000Y-65810000D02*
X112571000Y-68527000D01*
X112611000Y-61030000D02*
X112611000Y-63730000D01*
X112611000Y-65810000D02*
X112611000Y-68510000D01*
X112651000Y-61048000D02*
X112651000Y-63730000D01*
X112651000Y-65810000D02*
X112651000Y-68492000D01*
X112691000Y-61066000D02*
X112691000Y-63730000D01*
X112691000Y-65810000D02*
X112691000Y-68474000D01*
X112731000Y-61084000D02*
X112731000Y-63730000D01*
X112731000Y-65810000D02*
X112731000Y-68456000D01*
X112771000Y-61104000D02*
X112771000Y-63730000D01*
X112771000Y-65810000D02*
X112771000Y-68436000D01*
X112811000Y-61123000D02*
X112811000Y-63730000D01*
X112811000Y-65810000D02*
X112811000Y-68417000D01*
X112851000Y-61143000D02*
X112851000Y-63730000D01*
X112851000Y-65810000D02*
X112851000Y-68397000D01*
X112891000Y-61164000D02*
X112891000Y-63730000D01*
X112891000Y-65810000D02*
X112891000Y-68376000D01*
X112931000Y-61186000D02*
X112931000Y-63730000D01*
X112931000Y-65810000D02*
X112931000Y-68354000D01*
X112971000Y-61208000D02*
X112971000Y-63730000D01*
X112971000Y-65810000D02*
X112971000Y-68332000D01*
X113011000Y-61230000D02*
X113011000Y-63730000D01*
X113011000Y-65810000D02*
X113011000Y-68310000D01*
X113051000Y-61253000D02*
X113051000Y-63730000D01*
X113051000Y-65810000D02*
X113051000Y-68287000D01*
X113091000Y-61277000D02*
X113091000Y-63730000D01*
X113091000Y-65810000D02*
X113091000Y-68263000D01*
X113131000Y-61301000D02*
X113131000Y-63730000D01*
X113131000Y-65810000D02*
X113131000Y-68239000D01*
X113171000Y-61326000D02*
X113171000Y-63730000D01*
X113171000Y-65810000D02*
X113171000Y-68214000D01*
X113211000Y-61352000D02*
X113211000Y-63730000D01*
X113211000Y-65810000D02*
X113211000Y-68188000D01*
X113251000Y-61378000D02*
X113251000Y-63730000D01*
X113251000Y-65810000D02*
X113251000Y-68162000D01*
X113291000Y-61405000D02*
X113291000Y-63730000D01*
X113291000Y-65810000D02*
X113291000Y-68135000D01*
X113331000Y-61432000D02*
X113331000Y-63730000D01*
X113331000Y-65810000D02*
X113331000Y-68108000D01*
X113371000Y-61461000D02*
X113371000Y-63730000D01*
X113371000Y-65810000D02*
X113371000Y-68079000D01*
X113411000Y-61490000D02*
X113411000Y-63730000D01*
X113411000Y-65810000D02*
X113411000Y-68050000D01*
X113451000Y-61520000D02*
X113451000Y-63730000D01*
X113451000Y-65810000D02*
X113451000Y-68020000D01*
X113491000Y-61550000D02*
X113491000Y-63730000D01*
X113491000Y-65810000D02*
X113491000Y-67990000D01*
X113531000Y-61581000D02*
X113531000Y-63730000D01*
X113531000Y-65810000D02*
X113531000Y-67959000D01*
X113571000Y-61614000D02*
X113571000Y-63730000D01*
X113571000Y-65810000D02*
X113571000Y-67926000D01*
X113611000Y-61646000D02*
X113611000Y-63730000D01*
X113611000Y-65810000D02*
X113611000Y-67894000D01*
X113651000Y-61680000D02*
X113651000Y-63730000D01*
X113651000Y-65810000D02*
X113651000Y-67860000D01*
X113691000Y-61715000D02*
X113691000Y-63730000D01*
X113691000Y-65810000D02*
X113691000Y-67825000D01*
X113731000Y-61751000D02*
X113731000Y-63730000D01*
X113731000Y-65810000D02*
X113731000Y-67789000D01*
X113771000Y-61787000D02*
X113771000Y-67753000D01*
X113811000Y-61825000D02*
X113811000Y-67715000D01*
X113851000Y-61863000D02*
X113851000Y-67677000D01*
X113891000Y-61903000D02*
X113891000Y-67637000D01*
X113931000Y-61944000D02*
X113931000Y-67596000D01*
X113971000Y-61986000D02*
X113971000Y-67554000D01*
X114011000Y-62029000D02*
X114011000Y-67511000D01*
X114051000Y-62073000D02*
X114051000Y-67467000D01*
X114091000Y-62119000D02*
X114091000Y-67421000D01*
X114131000Y-62166000D02*
X114131000Y-67374000D01*
X114171000Y-62214000D02*
X114171000Y-67326000D01*
X114211000Y-62265000D02*
X114211000Y-67275000D01*
X114251000Y-62316000D02*
X114251000Y-67224000D01*
X114291000Y-62370000D02*
X114291000Y-67170000D01*
X114331000Y-62425000D02*
X114331000Y-67115000D01*
X114371000Y-62483000D02*
X114371000Y-67057000D01*
X114411000Y-62542000D02*
X114411000Y-66998000D01*
X114451000Y-62604000D02*
X114451000Y-66936000D01*
X114491000Y-62668000D02*
X114491000Y-66872000D01*
X114531000Y-62736000D02*
X114531000Y-66804000D01*
X114571000Y-62806000D02*
X114571000Y-66734000D01*
X114611000Y-62880000D02*
X114611000Y-66660000D01*
X114651000Y-62957000D02*
X114651000Y-66583000D01*
X114691000Y-63039000D02*
X114691000Y-66501000D01*
X114731000Y-63125000D02*
X114731000Y-66415000D01*
X114771000Y-63218000D02*
X114771000Y-66322000D01*
X114811000Y-63317000D02*
X114811000Y-66223000D01*
X114851000Y-63424000D02*
X114851000Y-66116000D01*
X114891000Y-63541000D02*
X114891000Y-65999000D01*
X114931000Y-63672000D02*
X114931000Y-65868000D01*
X114971000Y-63822000D02*
X114971000Y-65718000D01*
X115011000Y-64002000D02*
X115011000Y-65538000D01*
X115051000Y-64237000D02*
X115051000Y-65303000D01*
X106560302Y-62455000D02*
X107360302Y-62455000D01*
X106960302Y-62055000D02*
X106960302Y-62855000D01*
G04 #@! TO.C,C2*
X116462000Y-68680000D02*
X116462000Y-60190000D01*
X123902000Y-68680000D02*
X123902000Y-60190000D01*
X123902000Y-60190000D02*
X116462000Y-60190000D01*
X123902000Y-68680000D02*
X116462000Y-68680000D01*
G04 #@! TO.C,C3*
X123902000Y-78078000D02*
X116462000Y-78078000D01*
X123902000Y-69588000D02*
X116462000Y-69588000D01*
X123902000Y-78078000D02*
X123902000Y-69588000D01*
X116462000Y-78078000D02*
X116462000Y-69588000D01*
G04 #@! TO.C,C4*
X132030000Y-68680000D02*
X124590000Y-68680000D01*
X132030000Y-60190000D02*
X124590000Y-60190000D01*
X132030000Y-68680000D02*
X132030000Y-60190000D01*
X124590000Y-68680000D02*
X124590000Y-60190000D01*
G04 #@! TO.C,C5*
X132718000Y-68680000D02*
X132718000Y-60190000D01*
X140158000Y-68680000D02*
X140158000Y-60190000D01*
X140158000Y-60190000D02*
X132718000Y-60190000D01*
X140158000Y-68680000D02*
X132718000Y-68680000D01*
G04 #@! TO.C,D1*
X131392000Y-79556000D02*
X131392000Y-82496000D01*
X131392000Y-82496000D02*
X136832000Y-82496000D01*
X136832000Y-82496000D02*
X136832000Y-79556000D01*
X136832000Y-79556000D02*
X131392000Y-79556000D01*
X130372000Y-81026000D02*
X131392000Y-81026000D01*
X137852000Y-81026000D02*
X136832000Y-81026000D01*
X132292000Y-79556000D02*
X132292000Y-82496000D01*
X132412000Y-79556000D02*
X132412000Y-82496000D01*
X132172000Y-79556000D02*
X132172000Y-82496000D01*
G04 #@! TO.C,J1*
X163670000Y-69460000D02*
X166330000Y-69460000D01*
X163670000Y-69460000D02*
X163670000Y-77140000D01*
X163670000Y-77140000D02*
X166330000Y-77140000D01*
X166330000Y-69460000D02*
X166330000Y-77140000D01*
X166330000Y-66860000D02*
X166330000Y-68190000D01*
X165000000Y-66860000D02*
X166330000Y-66860000D01*
G04 #@! TO.C,J2*
X156464000Y-60670000D02*
X156464000Y-63330000D01*
X156464000Y-60670000D02*
X153864000Y-60670000D01*
X153864000Y-60670000D02*
X153864000Y-63330000D01*
X156464000Y-63330000D02*
X153864000Y-63330000D01*
X159064000Y-63330000D02*
X157734000Y-63330000D01*
X159064000Y-62000000D02*
X159064000Y-63330000D01*
G04 #@! TO.C,Q1*
X147816000Y-79072000D02*
X143966000Y-79072000D01*
X143927389Y-79081878D02*
G75*
G03*
X147816000Y-79072000I1948611J-1690122D01*
G01*
G04 #@! TO.C,R1*
X130072000Y-77724000D02*
X130842000Y-77724000D01*
X138152000Y-77724000D02*
X137382000Y-77724000D01*
X130842000Y-79094000D02*
X137382000Y-79094000D01*
X130842000Y-76354000D02*
X130842000Y-79094000D01*
X137382000Y-76354000D02*
X130842000Y-76354000D01*
X137382000Y-79094000D02*
X137382000Y-76354000D01*
G04 #@! TO.C,R2*
X137382000Y-75792000D02*
X137382000Y-73052000D01*
X137382000Y-73052000D02*
X130842000Y-73052000D01*
X130842000Y-73052000D02*
X130842000Y-75792000D01*
X130842000Y-75792000D02*
X137382000Y-75792000D01*
X138152000Y-74422000D02*
X137382000Y-74422000D01*
X130072000Y-74422000D02*
X130842000Y-74422000D01*
G04 #@! TO.C,R3*
X137382000Y-72490000D02*
X137382000Y-69750000D01*
X137382000Y-69750000D02*
X130842000Y-69750000D01*
X130842000Y-69750000D02*
X130842000Y-72490000D01*
X130842000Y-72490000D02*
X137382000Y-72490000D01*
X138152000Y-71120000D02*
X137382000Y-71120000D01*
X130072000Y-71120000D02*
X130842000Y-71120000D01*
G04 #@! TO.C,RV1*
X143704000Y-63306000D02*
X143704000Y-61976000D01*
X145034000Y-63306000D02*
X143704000Y-63306000D01*
X146304000Y-63306000D02*
X146304000Y-60646000D01*
X146304000Y-60646000D02*
X151444000Y-60646000D01*
X146304000Y-63306000D02*
X151444000Y-63306000D01*
X151444000Y-63306000D02*
X151444000Y-60646000D01*
G04 #@! TO.C,SW1*
X159064000Y-84642000D02*
X159064000Y-81982000D01*
X156464000Y-84642000D02*
X159064000Y-84642000D01*
X156464000Y-81982000D02*
X159064000Y-81982000D01*
X156464000Y-84642000D02*
X156464000Y-81982000D01*
X155194000Y-84642000D02*
X153864000Y-84642000D01*
X153864000Y-84642000D02*
X153864000Y-83312000D01*
G04 #@! TO.C,U1*
X145304000Y-67758000D02*
X143654000Y-67758000D01*
X143654000Y-67758000D02*
X143654000Y-78038000D01*
X143654000Y-78038000D02*
X148954000Y-78038000D01*
X148954000Y-78038000D02*
X148954000Y-67758000D01*
X148954000Y-67758000D02*
X147304000Y-67758000D01*
X147304000Y-67758000D02*
G75*
G02*
X145304000Y-67758000I-1000000J0D01*
G01*
G04 #@! TO.C,RV2*
X162111000Y-67874000D02*
X162111000Y-77644000D01*
X152341000Y-67874000D02*
X152341000Y-77644000D01*
X162111000Y-67874000D02*
X152341000Y-67874000D01*
X162111000Y-77644000D02*
X152341000Y-77644000D01*
G04 #@! TO.C,C1*
D10*
X110803333Y-59877142D02*
X110755714Y-59924761D01*
X110612857Y-59972380D01*
X110517619Y-59972380D01*
X110374761Y-59924761D01*
X110279523Y-59829523D01*
X110231904Y-59734285D01*
X110184285Y-59543809D01*
X110184285Y-59400952D01*
X110231904Y-59210476D01*
X110279523Y-59115238D01*
X110374761Y-59020000D01*
X110517619Y-58972380D01*
X110612857Y-58972380D01*
X110755714Y-59020000D01*
X110803333Y-59067619D01*
X111755714Y-59972380D02*
X111184285Y-59972380D01*
X111470000Y-59972380D02*
X111470000Y-58972380D01*
X111374761Y-59115238D01*
X111279523Y-59210476D01*
X111184285Y-59258095D01*
G04 #@! TO.C,C2*
X120015333Y-65127142D02*
X119967714Y-65174761D01*
X119824857Y-65222380D01*
X119729619Y-65222380D01*
X119586761Y-65174761D01*
X119491523Y-65079523D01*
X119443904Y-64984285D01*
X119396285Y-64793809D01*
X119396285Y-64650952D01*
X119443904Y-64460476D01*
X119491523Y-64365238D01*
X119586761Y-64270000D01*
X119729619Y-64222380D01*
X119824857Y-64222380D01*
X119967714Y-64270000D01*
X120015333Y-64317619D01*
X120396285Y-64317619D02*
X120443904Y-64270000D01*
X120539142Y-64222380D01*
X120777238Y-64222380D01*
X120872476Y-64270000D01*
X120920095Y-64317619D01*
X120967714Y-64412857D01*
X120967714Y-64508095D01*
X120920095Y-64650952D01*
X120348666Y-65222380D01*
X120967714Y-65222380D01*
G04 #@! TO.C,C3*
X120015333Y-74525142D02*
X119967714Y-74572761D01*
X119824857Y-74620380D01*
X119729619Y-74620380D01*
X119586761Y-74572761D01*
X119491523Y-74477523D01*
X119443904Y-74382285D01*
X119396285Y-74191809D01*
X119396285Y-74048952D01*
X119443904Y-73858476D01*
X119491523Y-73763238D01*
X119586761Y-73668000D01*
X119729619Y-73620380D01*
X119824857Y-73620380D01*
X119967714Y-73668000D01*
X120015333Y-73715619D01*
X120348666Y-73620380D02*
X120967714Y-73620380D01*
X120634380Y-74001333D01*
X120777238Y-74001333D01*
X120872476Y-74048952D01*
X120920095Y-74096571D01*
X120967714Y-74191809D01*
X120967714Y-74429904D01*
X120920095Y-74525142D01*
X120872476Y-74572761D01*
X120777238Y-74620380D01*
X120491523Y-74620380D01*
X120396285Y-74572761D01*
X120348666Y-74525142D01*
G04 #@! TO.C,C4*
X128143333Y-65127142D02*
X128095714Y-65174761D01*
X127952857Y-65222380D01*
X127857619Y-65222380D01*
X127714761Y-65174761D01*
X127619523Y-65079523D01*
X127571904Y-64984285D01*
X127524285Y-64793809D01*
X127524285Y-64650952D01*
X127571904Y-64460476D01*
X127619523Y-64365238D01*
X127714761Y-64270000D01*
X127857619Y-64222380D01*
X127952857Y-64222380D01*
X128095714Y-64270000D01*
X128143333Y-64317619D01*
X129000476Y-64555714D02*
X129000476Y-65222380D01*
X128762380Y-64174761D02*
X128524285Y-64889047D01*
X129143333Y-64889047D01*
G04 #@! TO.C,C5*
X136271333Y-65127142D02*
X136223714Y-65174761D01*
X136080857Y-65222380D01*
X135985619Y-65222380D01*
X135842761Y-65174761D01*
X135747523Y-65079523D01*
X135699904Y-64984285D01*
X135652285Y-64793809D01*
X135652285Y-64650952D01*
X135699904Y-64460476D01*
X135747523Y-64365238D01*
X135842761Y-64270000D01*
X135985619Y-64222380D01*
X136080857Y-64222380D01*
X136223714Y-64270000D01*
X136271333Y-64317619D01*
X137176095Y-64222380D02*
X136699904Y-64222380D01*
X136652285Y-64698571D01*
X136699904Y-64650952D01*
X136795142Y-64603333D01*
X137033238Y-64603333D01*
X137128476Y-64650952D01*
X137176095Y-64698571D01*
X137223714Y-64793809D01*
X137223714Y-65031904D01*
X137176095Y-65127142D01*
X137128476Y-65174761D01*
X137033238Y-65222380D01*
X136795142Y-65222380D01*
X136699904Y-65174761D01*
X136652285Y-65127142D01*
G04 #@! TO.C,D1*
X133373904Y-81478380D02*
X133373904Y-80478380D01*
X133612000Y-80478380D01*
X133754857Y-80526000D01*
X133850095Y-80621238D01*
X133897714Y-80716476D01*
X133945333Y-80906952D01*
X133945333Y-81049809D01*
X133897714Y-81240285D01*
X133850095Y-81335523D01*
X133754857Y-81430761D01*
X133612000Y-81478380D01*
X133373904Y-81478380D01*
X134897714Y-81478380D02*
X134326285Y-81478380D01*
X134612000Y-81478380D02*
X134612000Y-80478380D01*
X134516761Y-80621238D01*
X134421523Y-80716476D01*
X134326285Y-80764095D01*
G04 #@! TO.C,R1*
X133945333Y-78095381D02*
X133612000Y-77619191D01*
X133373904Y-78095381D02*
X133373904Y-77095381D01*
X133754857Y-77095381D01*
X133850095Y-77143001D01*
X133897714Y-77190620D01*
X133945333Y-77285858D01*
X133945333Y-77428715D01*
X133897714Y-77523953D01*
X133850095Y-77571572D01*
X133754857Y-77619191D01*
X133373904Y-77619191D01*
X134897714Y-78095381D02*
X134326285Y-78095381D01*
X134612000Y-78095381D02*
X134612000Y-77095381D01*
X134516761Y-77238239D01*
X134421523Y-77333477D01*
X134326285Y-77381096D01*
G04 #@! TO.C,R2*
X133944334Y-74875381D02*
X133611001Y-74399191D01*
X133372905Y-74875381D02*
X133372905Y-73875381D01*
X133753858Y-73875381D01*
X133849096Y-73923001D01*
X133896715Y-73970620D01*
X133944334Y-74065858D01*
X133944334Y-74208715D01*
X133896715Y-74303953D01*
X133849096Y-74351572D01*
X133753858Y-74399191D01*
X133372905Y-74399191D01*
X134325286Y-73970620D02*
X134372905Y-73923001D01*
X134468143Y-73875381D01*
X134706239Y-73875381D01*
X134801477Y-73923001D01*
X134849096Y-73970620D01*
X134896715Y-74065858D01*
X134896715Y-74161096D01*
X134849096Y-74303953D01*
X134277667Y-74875381D01*
X134896715Y-74875381D01*
G04 #@! TO.C,R3*
X133945333Y-71572380D02*
X133612000Y-71096190D01*
X133373904Y-71572380D02*
X133373904Y-70572380D01*
X133754857Y-70572380D01*
X133850095Y-70620000D01*
X133897714Y-70667619D01*
X133945333Y-70762857D01*
X133945333Y-70905714D01*
X133897714Y-71000952D01*
X133850095Y-71048571D01*
X133754857Y-71096190D01*
X133373904Y-71096190D01*
X134278666Y-70572380D02*
X134897714Y-70572380D01*
X134564380Y-70953333D01*
X134707238Y-70953333D01*
X134802476Y-71000952D01*
X134850095Y-71048571D01*
X134897714Y-71143809D01*
X134897714Y-71381904D01*
X134850095Y-71477142D01*
X134802476Y-71524761D01*
X134707238Y-71572380D01*
X134421523Y-71572380D01*
X134326285Y-71524761D01*
X134278666Y-71477142D01*
G04 #@! TO.C,RV2*
X156630761Y-72842380D02*
X156297428Y-72366190D01*
X156059333Y-72842380D02*
X156059333Y-71842380D01*
X156440285Y-71842380D01*
X156535523Y-71890000D01*
X156583142Y-71937619D01*
X156630761Y-72032857D01*
X156630761Y-72175714D01*
X156583142Y-72270952D01*
X156535523Y-72318571D01*
X156440285Y-72366190D01*
X156059333Y-72366190D01*
X156916476Y-71842380D02*
X157249809Y-72842380D01*
X157583142Y-71842380D01*
X157868857Y-71937619D02*
X157916476Y-71890000D01*
X158011714Y-71842380D01*
X158249809Y-71842380D01*
X158345047Y-71890000D01*
X158392666Y-71937619D01*
X158440285Y-72032857D01*
X158440285Y-72128095D01*
X158392666Y-72270952D01*
X157821238Y-72842380D01*
X158440285Y-72842380D01*
G04 #@! TD*
M02*
