G04 #@! TF.GenerationSoftware,KiCad,Pcbnew,(5.1.7)-1*
G04 #@! TF.CreationDate,2022-01-01T11:30:43-06:00*
G04 #@! TF.ProjectId,FmTransmitterCartridge,466d5472-616e-4736-9d69-747465724361,rev?*
G04 #@! TF.SameCoordinates,Original*
G04 #@! TF.FileFunction,Soldermask,Bot*
G04 #@! TF.FilePolarity,Negative*
%FSLAX46Y46*%
G04 Gerber Fmt 4.6, Leading zero omitted, Abs format (unit mm)*
G04 Created by KiCad (PCBNEW (5.1.7)-1) date 2022-01-01 11:30:43*
%MOMM*%
%LPD*%
G01*
G04 APERTURE LIST*
%ADD10C,1.600000*%
%ADD11O,1.600000X1.600000*%
%ADD12R,1.800000X1.800000*%
%ADD13C,1.800000*%
%ADD14C,5.000000*%
%ADD15R,1.500000X7.000000*%
%ADD16C,1.300000*%
%ADD17R,1.600000X1.600000*%
%ADD18C,1.440000*%
%ADD19R,1.700000X1.700000*%
%ADD20O,1.700000X1.700000*%
%ADD21O,1.050000X1.500000*%
%ADD22R,1.050000X1.500000*%
%ADD23C,0.254000*%
%ADD24C,0.100000*%
G04 APERTURE END LIST*
D10*
G04 #@! TO.C,C8*
X154578000Y-91250000D03*
X154578000Y-86250000D03*
G04 #@! TD*
G04 #@! TO.C,R11*
X110250000Y-101346000D03*
D11*
X110250000Y-91186000D03*
G04 #@! TD*
D12*
G04 #@! TO.C,D4*
X115250000Y-95000000D03*
D13*
X115250000Y-97540000D03*
G04 #@! TD*
G04 #@! TO.C,D5*
X150250000Y-97540000D03*
D12*
X150250000Y-95000000D03*
G04 #@! TD*
D14*
G04 #@! TO.C,H1*
X85350000Y-122600000D03*
G04 #@! TD*
G04 #@! TO.C,H2*
X180150000Y-122600000D03*
G04 #@! TD*
D15*
G04 #@! TO.C,J2*
X163230000Y-126000000D03*
X160690000Y-126000000D03*
X158150000Y-126000000D03*
X155610000Y-126000000D03*
X153070000Y-126000000D03*
X150530000Y-126000000D03*
X147990000Y-126000000D03*
X145450000Y-126000000D03*
X142910000Y-126000000D03*
X140370000Y-126000000D03*
X137830000Y-126000000D03*
X135290000Y-126000000D03*
X132750000Y-126000000D03*
X130210000Y-126000000D03*
X127670000Y-126000000D03*
X125130000Y-126000000D03*
X122590000Y-126000000D03*
X120050000Y-126000000D03*
X117510000Y-126000000D03*
X114970000Y-126000000D03*
X112430000Y-126000000D03*
X109890000Y-126000000D03*
X107350000Y-126000000D03*
X104810000Y-126000000D03*
X102270000Y-126000000D03*
G04 #@! TD*
D10*
G04 #@! TO.C,C4*
X177800000Y-84347000D03*
X172800000Y-84347000D03*
G04 #@! TD*
G04 #@! TO.C,C5*
X154578000Y-76501000D03*
X154578000Y-71501000D03*
G04 #@! TD*
D13*
G04 #@! TO.C,D1*
X115250000Y-82540000D03*
D12*
X115250000Y-80000000D03*
G04 #@! TD*
G04 #@! TO.C,D2*
X150250000Y-80000000D03*
D13*
X150250000Y-82540000D03*
G04 #@! TD*
D11*
G04 #@! TO.C,R4*
X110250000Y-78740000D03*
D10*
X110250000Y-88900000D03*
G04 #@! TD*
G04 #@! TO.C,R5*
X144907000Y-84963000D03*
D11*
X144907000Y-74803000D03*
G04 #@! TD*
D10*
G04 #@! TO.C,R12*
X144907000Y-88265000D03*
D11*
X144907000Y-98425000D03*
G04 #@! TD*
D10*
G04 #@! TO.C,C1*
X110363000Y-114192000D03*
X105363000Y-114192000D03*
G04 #@! TD*
D16*
G04 #@! TO.C,SW1*
X102500000Y-78770000D03*
X100500000Y-78770000D03*
X98500000Y-78770000D03*
X102500000Y-83770000D03*
X100500000Y-83770000D03*
X98500000Y-83770000D03*
G04 #@! TD*
G04 #@! TO.C,SW2*
X163000000Y-83770000D03*
X165000000Y-83770000D03*
X167000000Y-83770000D03*
X163000000Y-78770000D03*
X165000000Y-78770000D03*
X167000000Y-78770000D03*
G04 #@! TD*
D17*
G04 #@! TO.C,U1*
X145100000Y-109087000D03*
D11*
X178120000Y-101467000D03*
X147640000Y-109087000D03*
X175580000Y-101467000D03*
X150180000Y-109087000D03*
X173040000Y-101467000D03*
X152720000Y-109087000D03*
X170500000Y-101467000D03*
X155260000Y-109087000D03*
X167960000Y-101467000D03*
X157800000Y-109087000D03*
X165420000Y-101467000D03*
X160340000Y-109087000D03*
X162880000Y-101467000D03*
X162880000Y-109087000D03*
X160340000Y-101467000D03*
X165420000Y-109087000D03*
X157800000Y-101467000D03*
X167960000Y-109087000D03*
X155260000Y-101467000D03*
X170500000Y-109087000D03*
X152720000Y-101467000D03*
X173040000Y-109087000D03*
X150180000Y-101467000D03*
X175580000Y-109087000D03*
X147640000Y-101467000D03*
X178120000Y-109087000D03*
X145100000Y-101467000D03*
G04 #@! TD*
D17*
G04 #@! TO.C,C2*
X92710000Y-82804000D03*
D10*
X90710000Y-82804000D03*
G04 #@! TD*
G04 #@! TO.C,C3*
X102235000Y-104629000D03*
X97235000Y-104629000D03*
G04 #@! TD*
G04 #@! TO.C,C6*
X97235000Y-114192000D03*
X102235000Y-114192000D03*
G04 #@! TD*
G04 #@! TO.C,C7*
X93472000Y-114192000D03*
X88472000Y-114192000D03*
G04 #@! TD*
G04 #@! TO.C,C9*
X115250000Y-74390000D03*
D17*
X115250000Y-72390000D03*
G04 #@! TD*
D11*
G04 #@! TO.C,R1*
X120650000Y-88265000D03*
D10*
X120650000Y-98425000D03*
G04 #@! TD*
D11*
G04 #@! TO.C,R2*
X88900000Y-101346000D03*
D10*
X88900000Y-91186000D03*
G04 #@! TD*
G04 #@! TO.C,R3*
X106807000Y-91186000D03*
D11*
X106807000Y-101346000D03*
G04 #@! TD*
G04 #@! TO.C,R6*
X103378000Y-91186000D03*
D10*
X103378000Y-101346000D03*
G04 #@! TD*
D11*
G04 #@! TO.C,R7*
X106807000Y-87630000D03*
D10*
X96647000Y-87630000D03*
G04 #@! TD*
G04 #@! TO.C,R8*
X120650000Y-84963000D03*
D11*
X120650000Y-74803000D03*
G04 #@! TD*
D10*
G04 #@! TO.C,R9*
X157988000Y-74803000D03*
D11*
X157988000Y-84963000D03*
G04 #@! TD*
D10*
G04 #@! TO.C,R10*
X157988000Y-87249000D03*
D11*
X157988000Y-97409000D03*
G04 #@! TD*
D18*
G04 #@! TO.C,RV1*
X119761000Y-103886000D03*
X117221000Y-108966000D03*
X114681000Y-103886000D03*
G04 #@! TD*
D19*
G04 #@! TO.C,U2*
X140208000Y-79629000D03*
D20*
X140208000Y-82169000D03*
X140208000Y-84709000D03*
X140208000Y-87249000D03*
X140208000Y-89789000D03*
X140208000Y-92329000D03*
X140208000Y-94869000D03*
X140208000Y-97409000D03*
X140208000Y-99949000D03*
X140208000Y-102489000D03*
X140208000Y-105029000D03*
G04 #@! TD*
D17*
G04 #@! TO.C,U3*
X92075000Y-92964000D03*
D11*
X99695000Y-100584000D03*
X92075000Y-95504000D03*
X99695000Y-98044000D03*
X92075000Y-98044000D03*
X99695000Y-95504000D03*
X92075000Y-100584000D03*
X99695000Y-92964000D03*
G04 #@! TD*
D21*
G04 #@! TO.C,U4*
X165000000Y-74422000D03*
X166270000Y-74422000D03*
D22*
X163730000Y-74422000D03*
G04 #@! TD*
D10*
G04 #@! TO.C,C10*
X163303000Y-94996000D03*
X163303000Y-89996000D03*
G04 #@! TD*
D23*
X165480000Y-129000000D02*
X164480000Y-130000000D01*
X101020000Y-130000000D01*
X100203000Y-129183000D01*
X100203000Y-123063000D01*
X165480000Y-123063000D01*
X165480000Y-129000000D01*
D24*
G36*
X165480000Y-129000000D02*
G01*
X164480000Y-130000000D01*
X101020000Y-130000000D01*
X100203000Y-129183000D01*
X100203000Y-123063000D01*
X165480000Y-123063000D01*
X165480000Y-129000000D01*
G37*
D23*
X89000000Y-126000000D02*
X82500000Y-126000000D01*
X82500000Y-119507000D01*
X89000000Y-119507000D01*
X89000000Y-126000000D01*
D24*
G36*
X89000000Y-126000000D02*
G01*
X82500000Y-126000000D01*
X82500000Y-119507000D01*
X89000000Y-119507000D01*
X89000000Y-126000000D01*
G37*
D23*
X182499000Y-126000000D02*
X176500000Y-126000000D01*
X176500000Y-119507000D01*
X182499000Y-119507000D01*
X182499000Y-126000000D01*
D24*
G36*
X182499000Y-126000000D02*
G01*
X176500000Y-126000000D01*
X176500000Y-119507000D01*
X182499000Y-119507000D01*
X182499000Y-126000000D01*
G37*
M02*
