M48
; DRILL file {KiCad (5.1.7)-1} date 01/01/22 11:30:45
; FORMAT={-:-/ absolute / inch / decimal}
; #@! TF.CreationDate,2022-01-01T11:30:45-06:00
; #@! TF.GenerationSoftware,Kicad,Pcbnew,(5.1.7)-1
; #@! TF.FileFunction,Plated,1,2,PTH
FMAT,2
INCH
T1C0.0157
T2C0.0295
T3C0.0315
T4C0.0354
T5C0.0394
T6C0.0984
%
G90
G05
T1
X3.83Y-3.97
X4.0Y-3.71
X4.02Y-4.375
X4.04Y-4.76
X4.14Y-4.76
X4.24Y-4.76
X4.335Y-3.405
X4.34Y-4.76
X4.44Y-4.76
X4.46Y-3.61
X4.54Y-4.76
X4.65Y-3.835
X5.605Y-4.07
X5.615Y-3.405
X5.69Y-4.38
X5.725Y-4.2
X5.795Y-3.03
X5.855Y-2.94
X5.92Y-4.76
X6.02Y-4.76
X6.12Y-4.76
X6.22Y-4.76
X6.32Y-4.76
X6.42Y-4.76
X6.665Y-3.74
X6.95Y-3.455
T2
X6.4461Y-2.93
X6.4961Y-2.93
X6.5461Y-2.93
T3
X3.8281Y-4.4957
X4.025Y-4.4957
X3.8281Y-4.1193
X4.025Y-4.1193
X4.3406Y-3.59
X4.3406Y-3.99
X4.1481Y-4.4957
X4.345Y-4.4957
X4.75Y-2.945
X4.75Y-3.345
X6.8031Y-3.3207
X7.0Y-3.3207
X3.5713Y-3.26
X3.65Y-3.26
X3.805Y-3.45
X4.205Y-3.45
X3.4831Y-4.4957
X3.68Y-4.4957
X4.3406Y-3.1
X4.3406Y-3.5
X5.705Y-2.945
X5.705Y-3.345
X5.7126Y-3.9948
X5.7126Y-4.2948
X5.8126Y-3.9948
X5.8126Y-4.2948
X5.9126Y-3.9948
X5.9126Y-4.2948
X6.0126Y-3.9948
X6.0126Y-4.2948
X6.1126Y-3.9948
X6.1126Y-4.2948
X6.2126Y-3.9948
X6.2126Y-4.2948
X6.3126Y-3.9948
X6.3126Y-4.2948
X6.4126Y-3.9948
X6.4126Y-4.2948
X6.5126Y-3.9948
X6.5126Y-4.2948
X6.6126Y-3.9948
X6.6126Y-4.2948
X6.7126Y-3.9948
X6.7126Y-4.2948
X6.8126Y-3.9948
X6.8126Y-4.2948
X6.9126Y-3.9948
X6.9126Y-4.2948
X7.0126Y-3.9948
X7.0126Y-4.2948
X4.75Y-3.475
X4.75Y-3.875
X5.705Y-3.475
X5.705Y-3.875
X6.4293Y-3.5431
X6.4293Y-3.74
X6.4173Y-3.1012
X6.4173Y-3.298
X6.4961Y-3.1012
X6.4961Y-3.298
X6.5748Y-3.1012
X6.5748Y-3.298
X4.205Y-3.59
X4.205Y-3.99
X4.07Y-3.59
X4.07Y-3.99
X6.0857Y-3.3957
X6.0857Y-3.5925
X6.22Y-3.435
X6.22Y-3.835
X3.5Y-3.59
X3.5Y-3.99
X4.5374Y-2.85
X4.5374Y-2.9287
X6.0857Y-2.815
X6.0857Y-3.0119
X4.515Y-4.09
X4.615Y-4.29
X4.715Y-4.09
X3.625Y-3.66
X3.625Y-3.76
X3.625Y-3.86
X3.625Y-3.96
X3.925Y-3.66
X3.925Y-3.76
X3.925Y-3.86
X3.925Y-3.96
X6.22Y-2.945
X6.22Y-3.345
X3.878Y-3.1012
X3.878Y-3.298
X3.9567Y-3.1012
X3.9567Y-3.298
X4.0354Y-3.1012
X4.0354Y-3.298
T4
X4.5374Y-3.1496
X4.5374Y-3.2496
X5.9154Y-3.7402
X5.9154Y-3.8402
X4.5374Y-3.7402
X4.5374Y-3.8402
X5.9154Y-3.1496
X5.9154Y-3.2496
T5
X5.52Y-3.135
X5.52Y-3.235
X5.52Y-3.335
X5.52Y-3.435
X5.52Y-3.535
X5.52Y-3.635
X5.52Y-3.735
X5.52Y-3.835
X5.52Y-3.935
X5.52Y-4.035
X5.52Y-4.135
T6
X7.0925Y-4.8268
X3.3602Y-4.8268
T0
M30
