M48
; DRILL file {KiCad (5.1.7)-1} date 12/12/20 13:46:09
; FORMAT={-:-/ absolute / inch / decimal}
; #@! TF.CreationDate,2020-12-12T13:46:09-06:00
; #@! TF.GenerationSoftware,Kicad,Pcbnew,(5.1.7)-1
; #@! TF.FileFunction,Plated,1,2,PTH
FMAT,2
INCH
T1C0.0315
T2C0.0354
T3C0.0394
T4C0.0472
%
G90
G05
T1
X5.2Y-3.0
X5.6Y-3.0
T2
X5.4Y-3.15
X5.4Y-3.25
T3
X4.775Y-3.0
X4.775Y-3.1
X4.775Y-3.2
X4.775Y-2.675
X4.775Y-2.775
X4.2Y-1.5
X4.2Y-1.6
X4.3Y-1.5
X4.3Y-1.6
X4.4Y-1.5
X4.4Y-1.6
X4.5Y-1.5
X4.5Y-1.6
X4.6Y-1.5
X4.6Y-1.6
X4.7Y-1.5
X4.7Y-1.6
X4.8Y-1.5
X4.8Y-1.6
X4.9Y-1.5
X4.9Y-1.6
X5.0Y-1.5
X5.0Y-1.6
X5.1Y-1.5
X5.1Y-1.6
X5.2Y-1.5
X5.2Y-1.6
X5.3Y-1.5
X5.3Y-1.6
X5.4Y-1.5
X5.4Y-1.6
X5.5Y-1.5
X5.5Y-1.6
X5.6Y-1.5
X5.6Y-1.6
X5.7Y-1.5
X5.7Y-1.6
X5.8Y-1.5
X5.8Y-1.6
X5.9Y-1.5
X5.9Y-1.6
X6.0Y-1.5
X6.0Y-1.6
X6.1Y-1.5
X6.1Y-1.6
X6.2Y-1.5
X6.2Y-1.6
X6.3Y-1.5
X6.3Y-1.6
X6.4Y-1.5
X6.4Y-1.6
X6.5Y-1.5
X6.5Y-1.6
X6.6Y-1.5
X6.6Y-1.6
X6.025Y-3.1
X6.025Y-3.2
T4
X5.1914Y-3.5111
X5.1914Y-3.7
X5.1914Y-3.8889
X5.4Y-3.5111
X5.4Y-3.7
X5.4Y-3.8889
X5.6086Y-3.5111
X5.6086Y-3.7
X5.6086Y-3.8889
T0
M30
