%TF.GenerationSoftware,KiCad,Pcbnew,(5.1.10)-1*%
%TF.CreationDate,2021-08-19T15:13:46-05:00*%
%TF.ProjectId,ConsolePedalSide,436f6e73-6f6c-4655-9065-64616c536964,rev?*%
%TF.SameCoordinates,Original*%
%TF.FileFunction,Copper,L2,Bot*%
%TF.FilePolarity,Positive*%
%FSLAX46Y46*%
G04 Gerber Fmt 4.6, Leading zero omitted, Abs format (unit mm)*
G04 Created by KiCad (PCBNEW (5.1.10)-1) date 2021-08-19 15:13:46*
%MOMM*%
%LPD*%
G01*
G04 APERTURE LIST*
%TA.AperFunction,ComponentPad*%
%ADD10O,1.700000X1.700000*%
%TD*%
%TA.AperFunction,ComponentPad*%
%ADD11R,1.700000X1.700000*%
%TD*%
%TA.AperFunction,ComponentPad*%
%ADD12R,1.800000X1.800000*%
%TD*%
%TA.AperFunction,ComponentPad*%
%ADD13C,1.800000*%
%TD*%
%TA.AperFunction,ComponentPad*%
%ADD14R,2.200000X2.200000*%
%TD*%
%TA.AperFunction,ComponentPad*%
%ADD15O,2.200000X2.200000*%
%TD*%
%TA.AperFunction,ComponentPad*%
%ADD16C,5.000000*%
%TD*%
%TA.AperFunction,ComponentPad*%
%ADD17C,1.600000*%
%TD*%
%TA.AperFunction,ComponentPad*%
%ADD18O,1.600000X1.600000*%
%TD*%
%TA.AperFunction,ComponentPad*%
%ADD19C,2.540000*%
%TD*%
%TA.AperFunction,Conductor*%
%ADD20C,0.500000*%
%TD*%
%TA.AperFunction,Conductor*%
%ADD21C,0.254000*%
%TD*%
%TA.AperFunction,Conductor*%
%ADD22C,0.100000*%
%TD*%
G04 APERTURE END LIST*
D10*
%TO.P,BT1,2*%
%TO.N,Net-(BT1-Pad2)*%
X132278181Y-99314000D03*
D11*
%TO.P,BT1,1*%
%TO.N,Net-(BT1-Pad1)*%
X134818181Y-99314000D03*
%TD*%
D12*
%TO.P,D1,1*%
%TO.N,Net-(D1-Pad1)*%
X118364000Y-105791000D03*
D13*
%TO.P,D1,2*%
%TO.N,/SlotALED*%
X115824000Y-105791000D03*
%TD*%
D14*
%TO.P,D2,1*%
%TO.N,+9V*%
X128270000Y-105791000D03*
D15*
%TO.P,D2,2*%
%TO.N,Net-(BT1-Pad1)*%
X138430000Y-105791000D03*
%TD*%
D13*
%TO.P,D3,2*%
%TO.N,/SlotBLED*%
X151257000Y-105791000D03*
D12*
%TO.P,D3,1*%
%TO.N,Net-(D3-Pad1)*%
X148717000Y-105791000D03*
%TD*%
D16*
%TO.P,H1,1*%
%TO.N,GND*%
X91059000Y-99314000D03*
%TD*%
%TO.P,H2,1*%
%TO.N,GND*%
X176037362Y-99314000D03*
%TD*%
%TO.P,H3,1*%
%TO.N,GND*%
X91059000Y-122864882D03*
%TD*%
%TO.P,H4,1*%
%TO.N,GND*%
X176037362Y-122864882D03*
%TD*%
D11*
%TO.P,J1,1*%
%TO.N,GND*%
X91694000Y-108458000D03*
D10*
%TO.P,J1,2*%
%TO.N,Net-(BT1-Pad2)*%
X91694000Y-110998000D03*
%TO.P,J1,3*%
%TO.N,Net-(J1-Pad3)*%
X91694000Y-113538000D03*
%TD*%
D11*
%TO.P,J2,1*%
%TO.N,Net-(J2-Pad1)*%
X175387000Y-109819441D03*
D10*
%TO.P,J2,2*%
%TO.N,GND*%
X175387000Y-112359441D03*
%TD*%
D11*
%TO.P,J3,1*%
%TO.N,/SlotALED*%
X108628181Y-100584000D03*
D10*
%TO.P,J3,2*%
%TO.N,+9V*%
X106088181Y-100584000D03*
%TO.P,J3,3*%
%TO.N,/SlotAOutput*%
X103548181Y-100584000D03*
%TO.P,J3,4*%
%TO.N,/SlotAInput*%
X101008181Y-100584000D03*
%TO.P,J3,5*%
%TO.N,GND*%
X98468181Y-100584000D03*
%TD*%
%TO.P,J4,5*%
%TO.N,GND*%
X158115000Y-100584000D03*
%TO.P,J4,4*%
%TO.N,/SlotBInput*%
X160655000Y-100584000D03*
%TO.P,J4,3*%
%TO.N,/SlotBOutput*%
X163195000Y-100584000D03*
%TO.P,J4,2*%
%TO.N,+9V*%
X165735000Y-100584000D03*
D11*
%TO.P,J4,1*%
%TO.N,/SlotBLED*%
X168275000Y-100584000D03*
%TD*%
D17*
%TO.P,R1,1*%
%TO.N,Net-(D1-Pad1)*%
X117094000Y-110236000D03*
D18*
%TO.P,R1,2*%
%TO.N,GND*%
X117094000Y-120396000D03*
%TD*%
%TO.P,R2,2*%
%TO.N,GND*%
X149987000Y-120396000D03*
D17*
%TO.P,R2,1*%
%TO.N,Net-(D3-Pad1)*%
X149987000Y-110236000D03*
%TD*%
D19*
%TO.P,S1,P$1*%
%TO.N,Net-(S1-PadP$1)*%
X98249741Y-106291381D03*
%TO.P,S1,P$2*%
%TO.N,Net-(J1-Pad3)*%
X98249741Y-111089441D03*
%TO.P,S1,P$3*%
%TO.N,/SlotAInput*%
X98249741Y-115887501D03*
%TO.P,S1,P$4*%
%TO.N,Net-(S1-PadP$1)*%
X103548181Y-106291381D03*
%TO.P,S1,P$5*%
%TO.N,Net-(S1-PadP$5)*%
X103548181Y-111089441D03*
%TO.P,S1,P$6*%
%TO.N,/SlotAOutput*%
X103548181Y-115887501D03*
%TO.P,S1,P$7*%
%TO.N,N/C*%
X108846621Y-106291381D03*
%TO.P,S1,P$8*%
%TO.N,+9V*%
X108846621Y-111089441D03*
%TO.P,S1,P$9*%
%TO.N,/SlotALED*%
X108846621Y-115887501D03*
%TD*%
%TO.P,S2,P$9*%
%TO.N,/SlotBLED*%
X168846621Y-115887501D03*
%TO.P,S2,P$8*%
%TO.N,+9V*%
X168846621Y-111089441D03*
%TO.P,S2,P$7*%
%TO.N,N/C*%
X168846621Y-106291381D03*
%TO.P,S2,P$6*%
%TO.N,/SlotBOutput*%
X163548181Y-115887501D03*
%TO.P,S2,P$5*%
%TO.N,Net-(J2-Pad1)*%
X163548181Y-111089441D03*
%TO.P,S2,P$4*%
%TO.N,Net-(S2-PadP$1)*%
X163548181Y-106291381D03*
%TO.P,S2,P$3*%
%TO.N,/SlotBInput*%
X158249741Y-115887501D03*
%TO.P,S2,P$2*%
%TO.N,Net-(S1-PadP$5)*%
X158249741Y-111089441D03*
%TO.P,S2,P$1*%
%TO.N,Net-(S2-PadP$1)*%
X158249741Y-106291381D03*
%TD*%
D20*
%TO.N,+9V*%
X125075001Y-108985999D02*
X128270000Y-105791000D01*
X110950063Y-108985999D02*
X125075001Y-108985999D01*
X108846621Y-111089441D02*
X110950063Y-108985999D01*
%TO.N,/SlotBLED*%
X151257000Y-105517998D02*
X151257000Y-105791000D01*
X166974999Y-99283999D02*
X157490999Y-99283999D01*
X157490999Y-99283999D02*
X151257000Y-105517998D01*
X168275000Y-100584000D02*
X166974999Y-99283999D01*
%TO.N,/SlotBOutput*%
X161828180Y-114167500D02*
X163548181Y-115887501D01*
X161828180Y-101950820D02*
X161828180Y-114167500D01*
X163195000Y-100584000D02*
X161828180Y-101950820D01*
%TD*%
D21*
%TO.N,GND*%
X176661095Y-96163922D02*
X177261070Y-96345065D01*
X177814431Y-96639293D01*
X178300107Y-97035400D01*
X178699598Y-97518301D01*
X178997681Y-98069594D01*
X179183009Y-98668291D01*
X179252363Y-99328152D01*
X179252362Y-122826485D01*
X179187440Y-123488615D01*
X179006297Y-124088588D01*
X178712068Y-124641953D01*
X178315958Y-125127631D01*
X177833061Y-125527117D01*
X177281764Y-125825203D01*
X176683070Y-126010529D01*
X176023221Y-126079882D01*
X91097397Y-126079882D01*
X90435267Y-126014960D01*
X89835294Y-125833817D01*
X89281929Y-125539588D01*
X88796251Y-125143478D01*
X88733836Y-125068030D01*
X89035457Y-125068030D01*
X89311627Y-125486000D01*
X89856557Y-125776531D01*
X90447696Y-125955169D01*
X91062328Y-126015050D01*
X91676831Y-125953872D01*
X92267592Y-125773985D01*
X92806373Y-125486000D01*
X93082543Y-125068030D01*
X174013819Y-125068030D01*
X174289989Y-125486000D01*
X174834919Y-125776531D01*
X175426058Y-125955169D01*
X176040690Y-126015050D01*
X176655193Y-125953872D01*
X177245954Y-125773985D01*
X177784735Y-125486000D01*
X178060905Y-125068030D01*
X176037362Y-123044487D01*
X174013819Y-125068030D01*
X93082543Y-125068030D01*
X91059000Y-123044487D01*
X89035457Y-125068030D01*
X88733836Y-125068030D01*
X88396765Y-124660581D01*
X88098679Y-124109284D01*
X87913353Y-123510590D01*
X87845837Y-122868210D01*
X87908832Y-122868210D01*
X87970010Y-123482713D01*
X88149897Y-124073474D01*
X88437882Y-124612255D01*
X88855852Y-124888425D01*
X90879395Y-122864882D01*
X91238605Y-122864882D01*
X93262148Y-124888425D01*
X93680118Y-124612255D01*
X93970649Y-124067325D01*
X94149287Y-123476186D01*
X94208519Y-122868210D01*
X172887194Y-122868210D01*
X172948372Y-123482713D01*
X173128259Y-124073474D01*
X173416244Y-124612255D01*
X173834214Y-124888425D01*
X175857757Y-122864882D01*
X176216967Y-122864882D01*
X178240510Y-124888425D01*
X178658480Y-124612255D01*
X178949011Y-124067325D01*
X179127649Y-123476186D01*
X179187530Y-122861554D01*
X179126352Y-122247051D01*
X178946465Y-121656290D01*
X178658480Y-121117509D01*
X178240510Y-120841339D01*
X176216967Y-122864882D01*
X175857757Y-122864882D01*
X173834214Y-120841339D01*
X173416244Y-121117509D01*
X173125713Y-121662439D01*
X172947075Y-122253578D01*
X172887194Y-122868210D01*
X94208519Y-122868210D01*
X94209168Y-122861554D01*
X94147990Y-122247051D01*
X93968103Y-121656290D01*
X93680118Y-121117509D01*
X93262148Y-120841339D01*
X91238605Y-122864882D01*
X90879395Y-122864882D01*
X88855852Y-120841339D01*
X88437882Y-121117509D01*
X88147351Y-121662439D01*
X87968713Y-122253578D01*
X87908832Y-122868210D01*
X87845837Y-122868210D01*
X87844000Y-122850741D01*
X87844000Y-120661734D01*
X89035457Y-120661734D01*
X91059000Y-122685277D01*
X92999237Y-120745040D01*
X115702091Y-120745040D01*
X115796930Y-121009881D01*
X115941615Y-121251131D01*
X116130586Y-121459519D01*
X116356580Y-121627037D01*
X116610913Y-121747246D01*
X116744961Y-121787904D01*
X116967000Y-121665915D01*
X116967000Y-120523000D01*
X117221000Y-120523000D01*
X117221000Y-121665915D01*
X117443039Y-121787904D01*
X117577087Y-121747246D01*
X117831420Y-121627037D01*
X118057414Y-121459519D01*
X118246385Y-121251131D01*
X118391070Y-121009881D01*
X118485909Y-120745040D01*
X148595091Y-120745040D01*
X148689930Y-121009881D01*
X148834615Y-121251131D01*
X149023586Y-121459519D01*
X149249580Y-121627037D01*
X149503913Y-121747246D01*
X149637961Y-121787904D01*
X149860000Y-121665915D01*
X149860000Y-120523000D01*
X150114000Y-120523000D01*
X150114000Y-121665915D01*
X150336039Y-121787904D01*
X150470087Y-121747246D01*
X150724420Y-121627037D01*
X150950414Y-121459519D01*
X151139385Y-121251131D01*
X151284070Y-121009881D01*
X151378909Y-120745040D01*
X151333405Y-120661734D01*
X174013819Y-120661734D01*
X176037362Y-122685277D01*
X178060905Y-120661734D01*
X177784735Y-120243764D01*
X177239805Y-119953233D01*
X176648666Y-119774595D01*
X176034034Y-119714714D01*
X175419531Y-119775892D01*
X174828770Y-119955779D01*
X174289989Y-120243764D01*
X174013819Y-120661734D01*
X151333405Y-120661734D01*
X151257624Y-120523000D01*
X150114000Y-120523000D01*
X149860000Y-120523000D01*
X148716376Y-120523000D01*
X148595091Y-120745040D01*
X118485909Y-120745040D01*
X118364624Y-120523000D01*
X117221000Y-120523000D01*
X116967000Y-120523000D01*
X115823376Y-120523000D01*
X115702091Y-120745040D01*
X92999237Y-120745040D01*
X93082543Y-120661734D01*
X92806373Y-120243764D01*
X92437241Y-120046960D01*
X115702091Y-120046960D01*
X115823376Y-120269000D01*
X116967000Y-120269000D01*
X116967000Y-119126085D01*
X117221000Y-119126085D01*
X117221000Y-120269000D01*
X118364624Y-120269000D01*
X118485909Y-120046960D01*
X148595091Y-120046960D01*
X148716376Y-120269000D01*
X149860000Y-120269000D01*
X149860000Y-119126085D01*
X150114000Y-119126085D01*
X150114000Y-120269000D01*
X151257624Y-120269000D01*
X151378909Y-120046960D01*
X151284070Y-119782119D01*
X151139385Y-119540869D01*
X150950414Y-119332481D01*
X150724420Y-119164963D01*
X150470087Y-119044754D01*
X150336039Y-119004096D01*
X150114000Y-119126085D01*
X149860000Y-119126085D01*
X149637961Y-119004096D01*
X149503913Y-119044754D01*
X149249580Y-119164963D01*
X149023586Y-119332481D01*
X148834615Y-119540869D01*
X148689930Y-119782119D01*
X148595091Y-120046960D01*
X118485909Y-120046960D01*
X118391070Y-119782119D01*
X118246385Y-119540869D01*
X118057414Y-119332481D01*
X117831420Y-119164963D01*
X117577087Y-119044754D01*
X117443039Y-119004096D01*
X117221000Y-119126085D01*
X116967000Y-119126085D01*
X116744961Y-119004096D01*
X116610913Y-119044754D01*
X116356580Y-119164963D01*
X116130586Y-119332481D01*
X115941615Y-119540869D01*
X115796930Y-119782119D01*
X115702091Y-120046960D01*
X92437241Y-120046960D01*
X92261443Y-119953233D01*
X91670304Y-119774595D01*
X91055672Y-119714714D01*
X90441169Y-119775892D01*
X89850408Y-119955779D01*
X89311627Y-120243764D01*
X89035457Y-120661734D01*
X87844000Y-120661734D01*
X87844000Y-115699875D01*
X96344741Y-115699875D01*
X96344741Y-116075127D01*
X96417950Y-116443169D01*
X96561552Y-116789857D01*
X96770031Y-117101867D01*
X97035375Y-117367211D01*
X97347385Y-117575690D01*
X97694073Y-117719292D01*
X98062115Y-117792501D01*
X98437367Y-117792501D01*
X98805409Y-117719292D01*
X99152097Y-117575690D01*
X99464107Y-117367211D01*
X99729451Y-117101867D01*
X99937930Y-116789857D01*
X100081532Y-116443169D01*
X100154741Y-116075127D01*
X100154741Y-115699875D01*
X101643181Y-115699875D01*
X101643181Y-116075127D01*
X101716390Y-116443169D01*
X101859992Y-116789857D01*
X102068471Y-117101867D01*
X102333815Y-117367211D01*
X102645825Y-117575690D01*
X102992513Y-117719292D01*
X103360555Y-117792501D01*
X103735807Y-117792501D01*
X104103849Y-117719292D01*
X104450537Y-117575690D01*
X104762547Y-117367211D01*
X105027891Y-117101867D01*
X105236370Y-116789857D01*
X105379972Y-116443169D01*
X105453181Y-116075127D01*
X105453181Y-115699875D01*
X106941621Y-115699875D01*
X106941621Y-116075127D01*
X107014830Y-116443169D01*
X107158432Y-116789857D01*
X107366911Y-117101867D01*
X107632255Y-117367211D01*
X107944265Y-117575690D01*
X108290953Y-117719292D01*
X108658995Y-117792501D01*
X109034247Y-117792501D01*
X109402289Y-117719292D01*
X109748977Y-117575690D01*
X110060987Y-117367211D01*
X110326331Y-117101867D01*
X110534810Y-116789857D01*
X110678412Y-116443169D01*
X110751621Y-116075127D01*
X110751621Y-115699875D01*
X156344741Y-115699875D01*
X156344741Y-116075127D01*
X156417950Y-116443169D01*
X156561552Y-116789857D01*
X156770031Y-117101867D01*
X157035375Y-117367211D01*
X157347385Y-117575690D01*
X157694073Y-117719292D01*
X158062115Y-117792501D01*
X158437367Y-117792501D01*
X158805409Y-117719292D01*
X159152097Y-117575690D01*
X159464107Y-117367211D01*
X159729451Y-117101867D01*
X159937930Y-116789857D01*
X160081532Y-116443169D01*
X160154741Y-116075127D01*
X160154741Y-115699875D01*
X160081532Y-115331833D01*
X159937930Y-114985145D01*
X159729451Y-114673135D01*
X159464107Y-114407791D01*
X159152097Y-114199312D01*
X158805409Y-114055710D01*
X158437367Y-113982501D01*
X158062115Y-113982501D01*
X157694073Y-114055710D01*
X157347385Y-114199312D01*
X157035375Y-114407791D01*
X156770031Y-114673135D01*
X156561552Y-114985145D01*
X156417950Y-115331833D01*
X156344741Y-115699875D01*
X110751621Y-115699875D01*
X110678412Y-115331833D01*
X110534810Y-114985145D01*
X110326331Y-114673135D01*
X110060987Y-114407791D01*
X109748977Y-114199312D01*
X109402289Y-114055710D01*
X109034247Y-113982501D01*
X108658995Y-113982501D01*
X108290953Y-114055710D01*
X107944265Y-114199312D01*
X107632255Y-114407791D01*
X107366911Y-114673135D01*
X107158432Y-114985145D01*
X107014830Y-115331833D01*
X106941621Y-115699875D01*
X105453181Y-115699875D01*
X105379972Y-115331833D01*
X105236370Y-114985145D01*
X105027891Y-114673135D01*
X104762547Y-114407791D01*
X104450537Y-114199312D01*
X104103849Y-114055710D01*
X103735807Y-113982501D01*
X103360555Y-113982501D01*
X102992513Y-114055710D01*
X102645825Y-114199312D01*
X102333815Y-114407791D01*
X102068471Y-114673135D01*
X101859992Y-114985145D01*
X101716390Y-115331833D01*
X101643181Y-115699875D01*
X100154741Y-115699875D01*
X100081532Y-115331833D01*
X99937930Y-114985145D01*
X99729451Y-114673135D01*
X99464107Y-114407791D01*
X99152097Y-114199312D01*
X98805409Y-114055710D01*
X98437367Y-113982501D01*
X98062115Y-113982501D01*
X97694073Y-114055710D01*
X97347385Y-114199312D01*
X97035375Y-114407791D01*
X96770031Y-114673135D01*
X96561552Y-114985145D01*
X96417950Y-115331833D01*
X96344741Y-115699875D01*
X87844000Y-115699875D01*
X87844000Y-109308000D01*
X90205928Y-109308000D01*
X90218188Y-109432482D01*
X90254498Y-109552180D01*
X90313463Y-109662494D01*
X90392815Y-109759185D01*
X90489506Y-109838537D01*
X90599820Y-109897502D01*
X90672380Y-109919513D01*
X90540525Y-110051368D01*
X90378010Y-110294589D01*
X90266068Y-110564842D01*
X90209000Y-110851740D01*
X90209000Y-111144260D01*
X90266068Y-111431158D01*
X90378010Y-111701411D01*
X90540525Y-111944632D01*
X90747368Y-112151475D01*
X90921760Y-112268000D01*
X90747368Y-112384525D01*
X90540525Y-112591368D01*
X90378010Y-112834589D01*
X90266068Y-113104842D01*
X90209000Y-113391740D01*
X90209000Y-113684260D01*
X90266068Y-113971158D01*
X90378010Y-114241411D01*
X90540525Y-114484632D01*
X90747368Y-114691475D01*
X90990589Y-114853990D01*
X91260842Y-114965932D01*
X91547740Y-115023000D01*
X91840260Y-115023000D01*
X92127158Y-114965932D01*
X92397411Y-114853990D01*
X92640632Y-114691475D01*
X92847475Y-114484632D01*
X93009990Y-114241411D01*
X93121932Y-113971158D01*
X93179000Y-113684260D01*
X93179000Y-113391740D01*
X93121932Y-113104842D01*
X93009990Y-112834589D01*
X92847475Y-112591368D01*
X92640632Y-112384525D01*
X92466240Y-112268000D01*
X92640632Y-112151475D01*
X92847475Y-111944632D01*
X93009990Y-111701411D01*
X93121932Y-111431158D01*
X93179000Y-111144260D01*
X93179000Y-110901815D01*
X96344741Y-110901815D01*
X96344741Y-111277067D01*
X96417950Y-111645109D01*
X96561552Y-111991797D01*
X96770031Y-112303807D01*
X97035375Y-112569151D01*
X97347385Y-112777630D01*
X97694073Y-112921232D01*
X98062115Y-112994441D01*
X98437367Y-112994441D01*
X98805409Y-112921232D01*
X99152097Y-112777630D01*
X99464107Y-112569151D01*
X99729451Y-112303807D01*
X99937930Y-111991797D01*
X100081532Y-111645109D01*
X100154741Y-111277067D01*
X100154741Y-110901815D01*
X101643181Y-110901815D01*
X101643181Y-111277067D01*
X101716390Y-111645109D01*
X101859992Y-111991797D01*
X102068471Y-112303807D01*
X102333815Y-112569151D01*
X102645825Y-112777630D01*
X102992513Y-112921232D01*
X103360555Y-112994441D01*
X103735807Y-112994441D01*
X104103849Y-112921232D01*
X104450537Y-112777630D01*
X104762547Y-112569151D01*
X105027891Y-112303807D01*
X105236370Y-111991797D01*
X105379972Y-111645109D01*
X105453181Y-111277067D01*
X105453181Y-110901815D01*
X106941621Y-110901815D01*
X106941621Y-111277067D01*
X107014830Y-111645109D01*
X107158432Y-111991797D01*
X107366911Y-112303807D01*
X107632255Y-112569151D01*
X107944265Y-112777630D01*
X108290953Y-112921232D01*
X108658995Y-112994441D01*
X109034247Y-112994441D01*
X109402289Y-112921232D01*
X109748977Y-112777630D01*
X110060987Y-112569151D01*
X110326331Y-112303807D01*
X110534810Y-111991797D01*
X110678412Y-111645109D01*
X110751621Y-111277067D01*
X110751621Y-110901815D01*
X110678412Y-110533773D01*
X110671223Y-110516417D01*
X111316642Y-109870999D01*
X115703491Y-109870999D01*
X115659000Y-110094665D01*
X115659000Y-110377335D01*
X115714147Y-110654574D01*
X115822320Y-110915727D01*
X115979363Y-111150759D01*
X116179241Y-111350637D01*
X116414273Y-111507680D01*
X116675426Y-111615853D01*
X116952665Y-111671000D01*
X117235335Y-111671000D01*
X117512574Y-111615853D01*
X117773727Y-111507680D01*
X118008759Y-111350637D01*
X118208637Y-111150759D01*
X118365680Y-110915727D01*
X118473853Y-110654574D01*
X118529000Y-110377335D01*
X118529000Y-110094665D01*
X148552000Y-110094665D01*
X148552000Y-110377335D01*
X148607147Y-110654574D01*
X148715320Y-110915727D01*
X148872363Y-111150759D01*
X149072241Y-111350637D01*
X149307273Y-111507680D01*
X149568426Y-111615853D01*
X149845665Y-111671000D01*
X150128335Y-111671000D01*
X150405574Y-111615853D01*
X150666727Y-111507680D01*
X150901759Y-111350637D01*
X151101637Y-111150759D01*
X151258680Y-110915727D01*
X151264442Y-110901815D01*
X156344741Y-110901815D01*
X156344741Y-111277067D01*
X156417950Y-111645109D01*
X156561552Y-111991797D01*
X156770031Y-112303807D01*
X157035375Y-112569151D01*
X157347385Y-112777630D01*
X157694073Y-112921232D01*
X158062115Y-112994441D01*
X158437367Y-112994441D01*
X158805409Y-112921232D01*
X159152097Y-112777630D01*
X159464107Y-112569151D01*
X159729451Y-112303807D01*
X159937930Y-111991797D01*
X160081532Y-111645109D01*
X160154741Y-111277067D01*
X160154741Y-110901815D01*
X160081532Y-110533773D01*
X159937930Y-110187085D01*
X159729451Y-109875075D01*
X159464107Y-109609731D01*
X159152097Y-109401252D01*
X158805409Y-109257650D01*
X158437367Y-109184441D01*
X158062115Y-109184441D01*
X157694073Y-109257650D01*
X157347385Y-109401252D01*
X157035375Y-109609731D01*
X156770031Y-109875075D01*
X156561552Y-110187085D01*
X156417950Y-110533773D01*
X156344741Y-110901815D01*
X151264442Y-110901815D01*
X151366853Y-110654574D01*
X151422000Y-110377335D01*
X151422000Y-110094665D01*
X151366853Y-109817426D01*
X151258680Y-109556273D01*
X151101637Y-109321241D01*
X150901759Y-109121363D01*
X150666727Y-108964320D01*
X150405574Y-108856147D01*
X150128335Y-108801000D01*
X149845665Y-108801000D01*
X149568426Y-108856147D01*
X149307273Y-108964320D01*
X149072241Y-109121363D01*
X148872363Y-109321241D01*
X148715320Y-109556273D01*
X148607147Y-109817426D01*
X148552000Y-110094665D01*
X118529000Y-110094665D01*
X118484509Y-109870999D01*
X125031532Y-109870999D01*
X125075001Y-109875280D01*
X125118470Y-109870999D01*
X125118478Y-109870999D01*
X125248491Y-109858194D01*
X125415314Y-109807588D01*
X125569060Y-109725410D01*
X125703818Y-109614816D01*
X125731535Y-109581043D01*
X127783507Y-107529072D01*
X129370000Y-107529072D01*
X129494482Y-107516812D01*
X129614180Y-107480502D01*
X129724494Y-107421537D01*
X129821185Y-107342185D01*
X129900537Y-107245494D01*
X129959502Y-107135180D01*
X129995812Y-107015482D01*
X130008072Y-106891000D01*
X130008072Y-105620117D01*
X136695000Y-105620117D01*
X136695000Y-105961883D01*
X136761675Y-106297081D01*
X136892463Y-106612831D01*
X137082337Y-106896998D01*
X137324002Y-107138663D01*
X137608169Y-107328537D01*
X137923919Y-107459325D01*
X138259117Y-107526000D01*
X138600883Y-107526000D01*
X138936081Y-107459325D01*
X139251831Y-107328537D01*
X139535998Y-107138663D01*
X139777663Y-106896998D01*
X139967537Y-106612831D01*
X140098325Y-106297081D01*
X140165000Y-105961883D01*
X140165000Y-105620117D01*
X140098325Y-105284919D01*
X139967537Y-104969169D01*
X139915307Y-104891000D01*
X147178928Y-104891000D01*
X147178928Y-106691000D01*
X147191188Y-106815482D01*
X147227498Y-106935180D01*
X147286463Y-107045494D01*
X147365815Y-107142185D01*
X147462506Y-107221537D01*
X147572820Y-107280502D01*
X147692518Y-107316812D01*
X147817000Y-107329072D01*
X149617000Y-107329072D01*
X149741482Y-107316812D01*
X149861180Y-107280502D01*
X149971494Y-107221537D01*
X150068185Y-107142185D01*
X150147537Y-107045494D01*
X150206502Y-106935180D01*
X150212056Y-106916873D01*
X150278495Y-106983312D01*
X150529905Y-107151299D01*
X150809257Y-107267011D01*
X151105816Y-107326000D01*
X151408184Y-107326000D01*
X151704743Y-107267011D01*
X151984095Y-107151299D01*
X152235505Y-106983312D01*
X152449312Y-106769505D01*
X152617299Y-106518095D01*
X152733011Y-106238743D01*
X152759861Y-106103755D01*
X156344741Y-106103755D01*
X156344741Y-106479007D01*
X156417950Y-106847049D01*
X156561552Y-107193737D01*
X156770031Y-107505747D01*
X157035375Y-107771091D01*
X157347385Y-107979570D01*
X157694073Y-108123172D01*
X158062115Y-108196381D01*
X158437367Y-108196381D01*
X158805409Y-108123172D01*
X159152097Y-107979570D01*
X159464107Y-107771091D01*
X159729451Y-107505747D01*
X159937930Y-107193737D01*
X160081532Y-106847049D01*
X160154741Y-106479007D01*
X160154741Y-106103755D01*
X160081532Y-105735713D01*
X159937930Y-105389025D01*
X159729451Y-105077015D01*
X159464107Y-104811671D01*
X159152097Y-104603192D01*
X158805409Y-104459590D01*
X158437367Y-104386381D01*
X158062115Y-104386381D01*
X157694073Y-104459590D01*
X157347385Y-104603192D01*
X157035375Y-104811671D01*
X156770031Y-105077015D01*
X156561552Y-105389025D01*
X156417950Y-105735713D01*
X156344741Y-106103755D01*
X152759861Y-106103755D01*
X152792000Y-105942184D01*
X152792000Y-105639816D01*
X152733011Y-105343257D01*
X152718457Y-105308120D01*
X156785955Y-101240622D01*
X156919822Y-101465355D01*
X157114731Y-101681588D01*
X157348080Y-101855641D01*
X157610901Y-101980825D01*
X157758110Y-102025476D01*
X157988000Y-101904155D01*
X157988000Y-100711000D01*
X157968000Y-100711000D01*
X157968000Y-100457000D01*
X157988000Y-100457000D01*
X157988000Y-100437000D01*
X158242000Y-100437000D01*
X158242000Y-100457000D01*
X158262000Y-100457000D01*
X158262000Y-100711000D01*
X158242000Y-100711000D01*
X158242000Y-101904155D01*
X158471890Y-102025476D01*
X158619099Y-101980825D01*
X158881920Y-101855641D01*
X159115269Y-101681588D01*
X159310178Y-101465355D01*
X159379805Y-101348466D01*
X159501525Y-101530632D01*
X159708368Y-101737475D01*
X159951589Y-101899990D01*
X160221842Y-102011932D01*
X160508740Y-102069000D01*
X160801260Y-102069000D01*
X160943180Y-102040770D01*
X160943181Y-114124021D01*
X160938899Y-114167500D01*
X160955985Y-114340990D01*
X161006592Y-114507813D01*
X161088770Y-114661559D01*
X161171648Y-114762546D01*
X161171651Y-114762549D01*
X161199364Y-114796317D01*
X161233131Y-114824029D01*
X161723579Y-115314477D01*
X161716390Y-115331833D01*
X161643181Y-115699875D01*
X161643181Y-116075127D01*
X161716390Y-116443169D01*
X161859992Y-116789857D01*
X162068471Y-117101867D01*
X162333815Y-117367211D01*
X162645825Y-117575690D01*
X162992513Y-117719292D01*
X163360555Y-117792501D01*
X163735807Y-117792501D01*
X164103849Y-117719292D01*
X164450537Y-117575690D01*
X164762547Y-117367211D01*
X165027891Y-117101867D01*
X165236370Y-116789857D01*
X165379972Y-116443169D01*
X165453181Y-116075127D01*
X165453181Y-115699875D01*
X166941621Y-115699875D01*
X166941621Y-116075127D01*
X167014830Y-116443169D01*
X167158432Y-116789857D01*
X167366911Y-117101867D01*
X167632255Y-117367211D01*
X167944265Y-117575690D01*
X168290953Y-117719292D01*
X168658995Y-117792501D01*
X169034247Y-117792501D01*
X169402289Y-117719292D01*
X169748977Y-117575690D01*
X170060987Y-117367211D01*
X170326331Y-117101867D01*
X170534810Y-116789857D01*
X170678412Y-116443169D01*
X170751621Y-116075127D01*
X170751621Y-115699875D01*
X170678412Y-115331833D01*
X170534810Y-114985145D01*
X170326331Y-114673135D01*
X170060987Y-114407791D01*
X169748977Y-114199312D01*
X169402289Y-114055710D01*
X169034247Y-113982501D01*
X168658995Y-113982501D01*
X168290953Y-114055710D01*
X167944265Y-114199312D01*
X167632255Y-114407791D01*
X167366911Y-114673135D01*
X167158432Y-114985145D01*
X167014830Y-115331833D01*
X166941621Y-115699875D01*
X165453181Y-115699875D01*
X165379972Y-115331833D01*
X165236370Y-114985145D01*
X165027891Y-114673135D01*
X164762547Y-114407791D01*
X164450537Y-114199312D01*
X164103849Y-114055710D01*
X163735807Y-113982501D01*
X163360555Y-113982501D01*
X162992513Y-114055710D01*
X162975157Y-114062899D01*
X162713180Y-113800922D01*
X162713180Y-112805529D01*
X162992513Y-112921232D01*
X163360555Y-112994441D01*
X163735807Y-112994441D01*
X164103849Y-112921232D01*
X164450537Y-112777630D01*
X164762547Y-112569151D01*
X165027891Y-112303807D01*
X165236370Y-111991797D01*
X165379972Y-111645109D01*
X165453181Y-111277067D01*
X165453181Y-110901815D01*
X166941621Y-110901815D01*
X166941621Y-111277067D01*
X167014830Y-111645109D01*
X167158432Y-111991797D01*
X167366911Y-112303807D01*
X167632255Y-112569151D01*
X167944265Y-112777630D01*
X168290953Y-112921232D01*
X168658995Y-112994441D01*
X169034247Y-112994441D01*
X169402289Y-112921232D01*
X169748977Y-112777630D01*
X169840717Y-112716331D01*
X173945524Y-112716331D01*
X173990175Y-112863540D01*
X174115359Y-113126361D01*
X174289412Y-113359710D01*
X174505645Y-113554619D01*
X174755748Y-113703598D01*
X175030109Y-113800922D01*
X175260000Y-113680255D01*
X175260000Y-112486441D01*
X175514000Y-112486441D01*
X175514000Y-113680255D01*
X175743891Y-113800922D01*
X176018252Y-113703598D01*
X176268355Y-113554619D01*
X176484588Y-113359710D01*
X176658641Y-113126361D01*
X176783825Y-112863540D01*
X176828476Y-112716331D01*
X176707155Y-112486441D01*
X175514000Y-112486441D01*
X175260000Y-112486441D01*
X174066845Y-112486441D01*
X173945524Y-112716331D01*
X169840717Y-112716331D01*
X170060987Y-112569151D01*
X170326331Y-112303807D01*
X170534810Y-111991797D01*
X170678412Y-111645109D01*
X170751621Y-111277067D01*
X170751621Y-110901815D01*
X170678412Y-110533773D01*
X170534810Y-110187085D01*
X170326331Y-109875075D01*
X170060987Y-109609731D01*
X169748977Y-109401252D01*
X169402289Y-109257650D01*
X169034247Y-109184441D01*
X168658995Y-109184441D01*
X168290953Y-109257650D01*
X167944265Y-109401252D01*
X167632255Y-109609731D01*
X167366911Y-109875075D01*
X167158432Y-110187085D01*
X167014830Y-110533773D01*
X166941621Y-110901815D01*
X165453181Y-110901815D01*
X165379972Y-110533773D01*
X165236370Y-110187085D01*
X165027891Y-109875075D01*
X164762547Y-109609731D01*
X164450537Y-109401252D01*
X164103849Y-109257650D01*
X163735807Y-109184441D01*
X163360555Y-109184441D01*
X162992513Y-109257650D01*
X162713180Y-109373353D01*
X162713180Y-108969441D01*
X173898928Y-108969441D01*
X173898928Y-110669441D01*
X173911188Y-110793923D01*
X173947498Y-110913621D01*
X174006463Y-111023935D01*
X174085815Y-111120626D01*
X174182506Y-111199978D01*
X174292820Y-111258943D01*
X174373466Y-111283407D01*
X174289412Y-111359172D01*
X174115359Y-111592521D01*
X173990175Y-111855342D01*
X173945524Y-112002551D01*
X174066845Y-112232441D01*
X175260000Y-112232441D01*
X175260000Y-112212441D01*
X175514000Y-112212441D01*
X175514000Y-112232441D01*
X176707155Y-112232441D01*
X176828476Y-112002551D01*
X176783825Y-111855342D01*
X176658641Y-111592521D01*
X176484588Y-111359172D01*
X176400534Y-111283407D01*
X176481180Y-111258943D01*
X176591494Y-111199978D01*
X176688185Y-111120626D01*
X176767537Y-111023935D01*
X176826502Y-110913621D01*
X176862812Y-110793923D01*
X176875072Y-110669441D01*
X176875072Y-108969441D01*
X176862812Y-108844959D01*
X176826502Y-108725261D01*
X176767537Y-108614947D01*
X176688185Y-108518256D01*
X176591494Y-108438904D01*
X176481180Y-108379939D01*
X176361482Y-108343629D01*
X176237000Y-108331369D01*
X174537000Y-108331369D01*
X174412518Y-108343629D01*
X174292820Y-108379939D01*
X174182506Y-108438904D01*
X174085815Y-108518256D01*
X174006463Y-108614947D01*
X173947498Y-108725261D01*
X173911188Y-108844959D01*
X173898928Y-108969441D01*
X162713180Y-108969441D01*
X162713180Y-108007469D01*
X162992513Y-108123172D01*
X163360555Y-108196381D01*
X163735807Y-108196381D01*
X164103849Y-108123172D01*
X164450537Y-107979570D01*
X164762547Y-107771091D01*
X165027891Y-107505747D01*
X165236370Y-107193737D01*
X165379972Y-106847049D01*
X165453181Y-106479007D01*
X165453181Y-106103755D01*
X166941621Y-106103755D01*
X166941621Y-106479007D01*
X167014830Y-106847049D01*
X167158432Y-107193737D01*
X167366911Y-107505747D01*
X167632255Y-107771091D01*
X167944265Y-107979570D01*
X168290953Y-108123172D01*
X168658995Y-108196381D01*
X169034247Y-108196381D01*
X169402289Y-108123172D01*
X169748977Y-107979570D01*
X170060987Y-107771091D01*
X170326331Y-107505747D01*
X170534810Y-107193737D01*
X170678412Y-106847049D01*
X170751621Y-106479007D01*
X170751621Y-106103755D01*
X170678412Y-105735713D01*
X170534810Y-105389025D01*
X170326331Y-105077015D01*
X170060987Y-104811671D01*
X169748977Y-104603192D01*
X169402289Y-104459590D01*
X169034247Y-104386381D01*
X168658995Y-104386381D01*
X168290953Y-104459590D01*
X167944265Y-104603192D01*
X167632255Y-104811671D01*
X167366911Y-105077015D01*
X167158432Y-105389025D01*
X167014830Y-105735713D01*
X166941621Y-106103755D01*
X165453181Y-106103755D01*
X165379972Y-105735713D01*
X165236370Y-105389025D01*
X165027891Y-105077015D01*
X164762547Y-104811671D01*
X164450537Y-104603192D01*
X164103849Y-104459590D01*
X163735807Y-104386381D01*
X163360555Y-104386381D01*
X162992513Y-104459590D01*
X162713180Y-104575293D01*
X162713180Y-102317398D01*
X162976040Y-102054539D01*
X163048740Y-102069000D01*
X163341260Y-102069000D01*
X163628158Y-102011932D01*
X163898411Y-101899990D01*
X164141632Y-101737475D01*
X164348475Y-101530632D01*
X164465000Y-101356240D01*
X164581525Y-101530632D01*
X164788368Y-101737475D01*
X165031589Y-101899990D01*
X165301842Y-102011932D01*
X165588740Y-102069000D01*
X165881260Y-102069000D01*
X166168158Y-102011932D01*
X166438411Y-101899990D01*
X166681632Y-101737475D01*
X166813487Y-101605620D01*
X166835498Y-101678180D01*
X166894463Y-101788494D01*
X166973815Y-101885185D01*
X167070506Y-101964537D01*
X167180820Y-102023502D01*
X167300518Y-102059812D01*
X167425000Y-102072072D01*
X169125000Y-102072072D01*
X169249482Y-102059812D01*
X169369180Y-102023502D01*
X169479494Y-101964537D01*
X169576185Y-101885185D01*
X169655537Y-101788494D01*
X169714502Y-101678180D01*
X169750812Y-101558482D01*
X169754882Y-101517148D01*
X174013819Y-101517148D01*
X174289989Y-101935118D01*
X174834919Y-102225649D01*
X175426058Y-102404287D01*
X176040690Y-102464168D01*
X176655193Y-102402990D01*
X177245954Y-102223103D01*
X177784735Y-101935118D01*
X178060905Y-101517148D01*
X176037362Y-99493605D01*
X174013819Y-101517148D01*
X169754882Y-101517148D01*
X169763072Y-101434000D01*
X169763072Y-99734000D01*
X169750812Y-99609518D01*
X169714502Y-99489820D01*
X169655537Y-99379506D01*
X169604509Y-99317328D01*
X172887194Y-99317328D01*
X172948372Y-99931831D01*
X173128259Y-100522592D01*
X173416244Y-101061373D01*
X173834214Y-101337543D01*
X175857757Y-99314000D01*
X176216967Y-99314000D01*
X178240510Y-101337543D01*
X178658480Y-101061373D01*
X178949011Y-100516443D01*
X179127649Y-99925304D01*
X179187530Y-99310672D01*
X179126352Y-98696169D01*
X178946465Y-98105408D01*
X178658480Y-97566627D01*
X178240510Y-97290457D01*
X176216967Y-99314000D01*
X175857757Y-99314000D01*
X173834214Y-97290457D01*
X173416244Y-97566627D01*
X173125713Y-98111557D01*
X172947075Y-98702696D01*
X172887194Y-99317328D01*
X169604509Y-99317328D01*
X169576185Y-99282815D01*
X169479494Y-99203463D01*
X169369180Y-99144498D01*
X169249482Y-99108188D01*
X169125000Y-99095928D01*
X168038506Y-99095928D01*
X167631533Y-98688955D01*
X167603816Y-98655182D01*
X167469058Y-98544588D01*
X167315312Y-98462410D01*
X167148489Y-98411804D01*
X167018476Y-98398999D01*
X167018468Y-98398999D01*
X166974999Y-98394718D01*
X166931530Y-98398999D01*
X157534468Y-98398999D01*
X157490999Y-98394718D01*
X157447530Y-98398999D01*
X157447522Y-98398999D01*
X157332305Y-98410347D01*
X157317508Y-98411804D01*
X157266902Y-98427156D01*
X157150686Y-98462410D01*
X157107697Y-98485388D01*
X156996940Y-98544588D01*
X156895952Y-98627467D01*
X156895950Y-98627469D01*
X156862182Y-98655182D01*
X156834469Y-98688950D01*
X151267420Y-104256000D01*
X151105816Y-104256000D01*
X150809257Y-104314989D01*
X150529905Y-104430701D01*
X150278495Y-104598688D01*
X150212056Y-104665127D01*
X150206502Y-104646820D01*
X150147537Y-104536506D01*
X150068185Y-104439815D01*
X149971494Y-104360463D01*
X149861180Y-104301498D01*
X149741482Y-104265188D01*
X149617000Y-104252928D01*
X147817000Y-104252928D01*
X147692518Y-104265188D01*
X147572820Y-104301498D01*
X147462506Y-104360463D01*
X147365815Y-104439815D01*
X147286463Y-104536506D01*
X147227498Y-104646820D01*
X147191188Y-104766518D01*
X147178928Y-104891000D01*
X139915307Y-104891000D01*
X139777663Y-104685002D01*
X139535998Y-104443337D01*
X139251831Y-104253463D01*
X138936081Y-104122675D01*
X138600883Y-104056000D01*
X138259117Y-104056000D01*
X137923919Y-104122675D01*
X137608169Y-104253463D01*
X137324002Y-104443337D01*
X137082337Y-104685002D01*
X136892463Y-104969169D01*
X136761675Y-105284919D01*
X136695000Y-105620117D01*
X130008072Y-105620117D01*
X130008072Y-104691000D01*
X129995812Y-104566518D01*
X129959502Y-104446820D01*
X129900537Y-104336506D01*
X129821185Y-104239815D01*
X129724494Y-104160463D01*
X129614180Y-104101498D01*
X129494482Y-104065188D01*
X129370000Y-104052928D01*
X127170000Y-104052928D01*
X127045518Y-104065188D01*
X126925820Y-104101498D01*
X126815506Y-104160463D01*
X126718815Y-104239815D01*
X126639463Y-104336506D01*
X126580498Y-104446820D01*
X126544188Y-104566518D01*
X126531928Y-104691000D01*
X126531928Y-106277493D01*
X124708423Y-108100999D01*
X110993528Y-108100999D01*
X110950062Y-108096718D01*
X110906596Y-108100999D01*
X110906586Y-108100999D01*
X110776573Y-108113804D01*
X110609750Y-108164410D01*
X110456004Y-108246588D01*
X110456002Y-108246589D01*
X110456003Y-108246589D01*
X110355016Y-108329467D01*
X110355014Y-108329469D01*
X110321246Y-108357182D01*
X110293533Y-108390950D01*
X109419645Y-109264839D01*
X109402289Y-109257650D01*
X109034247Y-109184441D01*
X108658995Y-109184441D01*
X108290953Y-109257650D01*
X107944265Y-109401252D01*
X107632255Y-109609731D01*
X107366911Y-109875075D01*
X107158432Y-110187085D01*
X107014830Y-110533773D01*
X106941621Y-110901815D01*
X105453181Y-110901815D01*
X105379972Y-110533773D01*
X105236370Y-110187085D01*
X105027891Y-109875075D01*
X104762547Y-109609731D01*
X104450537Y-109401252D01*
X104103849Y-109257650D01*
X103735807Y-109184441D01*
X103360555Y-109184441D01*
X102992513Y-109257650D01*
X102645825Y-109401252D01*
X102333815Y-109609731D01*
X102068471Y-109875075D01*
X101859992Y-110187085D01*
X101716390Y-110533773D01*
X101643181Y-110901815D01*
X100154741Y-110901815D01*
X100081532Y-110533773D01*
X99937930Y-110187085D01*
X99729451Y-109875075D01*
X99464107Y-109609731D01*
X99152097Y-109401252D01*
X98805409Y-109257650D01*
X98437367Y-109184441D01*
X98062115Y-109184441D01*
X97694073Y-109257650D01*
X97347385Y-109401252D01*
X97035375Y-109609731D01*
X96770031Y-109875075D01*
X96561552Y-110187085D01*
X96417950Y-110533773D01*
X96344741Y-110901815D01*
X93179000Y-110901815D01*
X93179000Y-110851740D01*
X93121932Y-110564842D01*
X93009990Y-110294589D01*
X92847475Y-110051368D01*
X92715620Y-109919513D01*
X92788180Y-109897502D01*
X92898494Y-109838537D01*
X92995185Y-109759185D01*
X93074537Y-109662494D01*
X93133502Y-109552180D01*
X93169812Y-109432482D01*
X93182072Y-109308000D01*
X93179000Y-108743750D01*
X93020250Y-108585000D01*
X91821000Y-108585000D01*
X91821000Y-108605000D01*
X91567000Y-108605000D01*
X91567000Y-108585000D01*
X90367750Y-108585000D01*
X90209000Y-108743750D01*
X90205928Y-109308000D01*
X87844000Y-109308000D01*
X87844000Y-107608000D01*
X90205928Y-107608000D01*
X90209000Y-108172250D01*
X90367750Y-108331000D01*
X91567000Y-108331000D01*
X91567000Y-107131750D01*
X91821000Y-107131750D01*
X91821000Y-108331000D01*
X93020250Y-108331000D01*
X93179000Y-108172250D01*
X93182072Y-107608000D01*
X93169812Y-107483518D01*
X93133502Y-107363820D01*
X93074537Y-107253506D01*
X92995185Y-107156815D01*
X92898494Y-107077463D01*
X92788180Y-107018498D01*
X92668482Y-106982188D01*
X92544000Y-106969928D01*
X91979750Y-106973000D01*
X91821000Y-107131750D01*
X91567000Y-107131750D01*
X91408250Y-106973000D01*
X90844000Y-106969928D01*
X90719518Y-106982188D01*
X90599820Y-107018498D01*
X90489506Y-107077463D01*
X90392815Y-107156815D01*
X90313463Y-107253506D01*
X90254498Y-107363820D01*
X90218188Y-107483518D01*
X90205928Y-107608000D01*
X87844000Y-107608000D01*
X87844000Y-106103755D01*
X96344741Y-106103755D01*
X96344741Y-106479007D01*
X96417950Y-106847049D01*
X96561552Y-107193737D01*
X96770031Y-107505747D01*
X97035375Y-107771091D01*
X97347385Y-107979570D01*
X97694073Y-108123172D01*
X98062115Y-108196381D01*
X98437367Y-108196381D01*
X98805409Y-108123172D01*
X99152097Y-107979570D01*
X99464107Y-107771091D01*
X99729451Y-107505747D01*
X99937930Y-107193737D01*
X100081532Y-106847049D01*
X100154741Y-106479007D01*
X100154741Y-106103755D01*
X101643181Y-106103755D01*
X101643181Y-106479007D01*
X101716390Y-106847049D01*
X101859992Y-107193737D01*
X102068471Y-107505747D01*
X102333815Y-107771091D01*
X102645825Y-107979570D01*
X102992513Y-108123172D01*
X103360555Y-108196381D01*
X103735807Y-108196381D01*
X104103849Y-108123172D01*
X104450537Y-107979570D01*
X104762547Y-107771091D01*
X105027891Y-107505747D01*
X105236370Y-107193737D01*
X105379972Y-106847049D01*
X105453181Y-106479007D01*
X105453181Y-106103755D01*
X106941621Y-106103755D01*
X106941621Y-106479007D01*
X107014830Y-106847049D01*
X107158432Y-107193737D01*
X107366911Y-107505747D01*
X107632255Y-107771091D01*
X107944265Y-107979570D01*
X108290953Y-108123172D01*
X108658995Y-108196381D01*
X109034247Y-108196381D01*
X109402289Y-108123172D01*
X109748977Y-107979570D01*
X110060987Y-107771091D01*
X110326331Y-107505747D01*
X110534810Y-107193737D01*
X110678412Y-106847049D01*
X110751621Y-106479007D01*
X110751621Y-106103755D01*
X110678412Y-105735713D01*
X110638691Y-105639816D01*
X114289000Y-105639816D01*
X114289000Y-105942184D01*
X114347989Y-106238743D01*
X114463701Y-106518095D01*
X114631688Y-106769505D01*
X114845495Y-106983312D01*
X115096905Y-107151299D01*
X115376257Y-107267011D01*
X115672816Y-107326000D01*
X115975184Y-107326000D01*
X116271743Y-107267011D01*
X116551095Y-107151299D01*
X116802505Y-106983312D01*
X116868944Y-106916873D01*
X116874498Y-106935180D01*
X116933463Y-107045494D01*
X117012815Y-107142185D01*
X117109506Y-107221537D01*
X117219820Y-107280502D01*
X117339518Y-107316812D01*
X117464000Y-107329072D01*
X119264000Y-107329072D01*
X119388482Y-107316812D01*
X119508180Y-107280502D01*
X119618494Y-107221537D01*
X119715185Y-107142185D01*
X119794537Y-107045494D01*
X119853502Y-106935180D01*
X119889812Y-106815482D01*
X119902072Y-106691000D01*
X119902072Y-104891000D01*
X119889812Y-104766518D01*
X119853502Y-104646820D01*
X119794537Y-104536506D01*
X119715185Y-104439815D01*
X119618494Y-104360463D01*
X119508180Y-104301498D01*
X119388482Y-104265188D01*
X119264000Y-104252928D01*
X117464000Y-104252928D01*
X117339518Y-104265188D01*
X117219820Y-104301498D01*
X117109506Y-104360463D01*
X117012815Y-104439815D01*
X116933463Y-104536506D01*
X116874498Y-104646820D01*
X116868944Y-104665127D01*
X116802505Y-104598688D01*
X116551095Y-104430701D01*
X116271743Y-104314989D01*
X115975184Y-104256000D01*
X115672816Y-104256000D01*
X115376257Y-104314989D01*
X115096905Y-104430701D01*
X114845495Y-104598688D01*
X114631688Y-104812495D01*
X114463701Y-105063905D01*
X114347989Y-105343257D01*
X114289000Y-105639816D01*
X110638691Y-105639816D01*
X110534810Y-105389025D01*
X110326331Y-105077015D01*
X110060987Y-104811671D01*
X109748977Y-104603192D01*
X109402289Y-104459590D01*
X109034247Y-104386381D01*
X108658995Y-104386381D01*
X108290953Y-104459590D01*
X107944265Y-104603192D01*
X107632255Y-104811671D01*
X107366911Y-105077015D01*
X107158432Y-105389025D01*
X107014830Y-105735713D01*
X106941621Y-106103755D01*
X105453181Y-106103755D01*
X105379972Y-105735713D01*
X105236370Y-105389025D01*
X105027891Y-105077015D01*
X104762547Y-104811671D01*
X104450537Y-104603192D01*
X104103849Y-104459590D01*
X103735807Y-104386381D01*
X103360555Y-104386381D01*
X102992513Y-104459590D01*
X102645825Y-104603192D01*
X102333815Y-104811671D01*
X102068471Y-105077015D01*
X101859992Y-105389025D01*
X101716390Y-105735713D01*
X101643181Y-106103755D01*
X100154741Y-106103755D01*
X100081532Y-105735713D01*
X99937930Y-105389025D01*
X99729451Y-105077015D01*
X99464107Y-104811671D01*
X99152097Y-104603192D01*
X98805409Y-104459590D01*
X98437367Y-104386381D01*
X98062115Y-104386381D01*
X97694073Y-104459590D01*
X97347385Y-104603192D01*
X97035375Y-104811671D01*
X96770031Y-105077015D01*
X96561552Y-105389025D01*
X96417950Y-105735713D01*
X96344741Y-106103755D01*
X87844000Y-106103755D01*
X87844000Y-101517148D01*
X89035457Y-101517148D01*
X89311627Y-101935118D01*
X89856557Y-102225649D01*
X90447696Y-102404287D01*
X91062328Y-102464168D01*
X91676831Y-102402990D01*
X92267592Y-102223103D01*
X92806373Y-101935118D01*
X93082543Y-101517148D01*
X91059000Y-99493605D01*
X89035457Y-101517148D01*
X87844000Y-101517148D01*
X87844000Y-99352397D01*
X87847438Y-99317328D01*
X87908832Y-99317328D01*
X87970010Y-99931831D01*
X88149897Y-100522592D01*
X88437882Y-101061373D01*
X88855852Y-101337543D01*
X90879395Y-99314000D01*
X91238605Y-99314000D01*
X93262148Y-101337543D01*
X93680118Y-101061373D01*
X93744353Y-100940891D01*
X97026700Y-100940891D01*
X97124024Y-101215252D01*
X97273003Y-101465355D01*
X97467912Y-101681588D01*
X97701261Y-101855641D01*
X97964082Y-101980825D01*
X98111291Y-102025476D01*
X98341181Y-101904155D01*
X98341181Y-100711000D01*
X97147367Y-100711000D01*
X97026700Y-100940891D01*
X93744353Y-100940891D01*
X93970649Y-100516443D01*
X94058083Y-100227109D01*
X97026700Y-100227109D01*
X97147367Y-100457000D01*
X98341181Y-100457000D01*
X98341181Y-99263845D01*
X98595181Y-99263845D01*
X98595181Y-100457000D01*
X98615181Y-100457000D01*
X98615181Y-100711000D01*
X98595181Y-100711000D01*
X98595181Y-101904155D01*
X98825071Y-102025476D01*
X98972280Y-101980825D01*
X99235101Y-101855641D01*
X99468450Y-101681588D01*
X99663359Y-101465355D01*
X99732986Y-101348466D01*
X99854706Y-101530632D01*
X100061549Y-101737475D01*
X100304770Y-101899990D01*
X100575023Y-102011932D01*
X100861921Y-102069000D01*
X101154441Y-102069000D01*
X101441339Y-102011932D01*
X101711592Y-101899990D01*
X101954813Y-101737475D01*
X102161656Y-101530632D01*
X102278181Y-101356240D01*
X102394706Y-101530632D01*
X102601549Y-101737475D01*
X102844770Y-101899990D01*
X103115023Y-102011932D01*
X103401921Y-102069000D01*
X103694441Y-102069000D01*
X103981339Y-102011932D01*
X104251592Y-101899990D01*
X104494813Y-101737475D01*
X104701656Y-101530632D01*
X104818181Y-101356240D01*
X104934706Y-101530632D01*
X105141549Y-101737475D01*
X105384770Y-101899990D01*
X105655023Y-102011932D01*
X105941921Y-102069000D01*
X106234441Y-102069000D01*
X106521339Y-102011932D01*
X106791592Y-101899990D01*
X107034813Y-101737475D01*
X107166668Y-101605620D01*
X107188679Y-101678180D01*
X107247644Y-101788494D01*
X107326996Y-101885185D01*
X107423687Y-101964537D01*
X107534001Y-102023502D01*
X107653699Y-102059812D01*
X107778181Y-102072072D01*
X109478181Y-102072072D01*
X109602663Y-102059812D01*
X109722361Y-102023502D01*
X109832675Y-101964537D01*
X109929366Y-101885185D01*
X110008718Y-101788494D01*
X110067683Y-101678180D01*
X110103993Y-101558482D01*
X110116253Y-101434000D01*
X110116253Y-99734000D01*
X110103993Y-99609518D01*
X110067683Y-99489820D01*
X110008718Y-99379506D01*
X109929366Y-99282815D01*
X109832675Y-99203463D01*
X109765844Y-99167740D01*
X130793181Y-99167740D01*
X130793181Y-99460260D01*
X130850249Y-99747158D01*
X130962191Y-100017411D01*
X131124706Y-100260632D01*
X131331549Y-100467475D01*
X131574770Y-100629990D01*
X131845023Y-100741932D01*
X132131921Y-100799000D01*
X132424441Y-100799000D01*
X132711339Y-100741932D01*
X132981592Y-100629990D01*
X133224813Y-100467475D01*
X133356668Y-100335620D01*
X133378679Y-100408180D01*
X133437644Y-100518494D01*
X133516996Y-100615185D01*
X133613687Y-100694537D01*
X133724001Y-100753502D01*
X133843699Y-100789812D01*
X133968181Y-100802072D01*
X135668181Y-100802072D01*
X135792663Y-100789812D01*
X135912361Y-100753502D01*
X136022675Y-100694537D01*
X136119366Y-100615185D01*
X136198718Y-100518494D01*
X136257683Y-100408180D01*
X136293993Y-100288482D01*
X136306253Y-100164000D01*
X136306253Y-98464000D01*
X136293993Y-98339518D01*
X136257683Y-98219820D01*
X136198718Y-98109506D01*
X136119366Y-98012815D01*
X136022675Y-97933463D01*
X135912361Y-97874498D01*
X135792663Y-97838188D01*
X135668181Y-97825928D01*
X133968181Y-97825928D01*
X133843699Y-97838188D01*
X133724001Y-97874498D01*
X133613687Y-97933463D01*
X133516996Y-98012815D01*
X133437644Y-98109506D01*
X133378679Y-98219820D01*
X133356668Y-98292380D01*
X133224813Y-98160525D01*
X132981592Y-97998010D01*
X132711339Y-97886068D01*
X132424441Y-97829000D01*
X132131921Y-97829000D01*
X131845023Y-97886068D01*
X131574770Y-97998010D01*
X131331549Y-98160525D01*
X131124706Y-98367368D01*
X130962191Y-98610589D01*
X130850249Y-98880842D01*
X130793181Y-99167740D01*
X109765844Y-99167740D01*
X109722361Y-99144498D01*
X109602663Y-99108188D01*
X109478181Y-99095928D01*
X107778181Y-99095928D01*
X107653699Y-99108188D01*
X107534001Y-99144498D01*
X107423687Y-99203463D01*
X107326996Y-99282815D01*
X107247644Y-99379506D01*
X107188679Y-99489820D01*
X107166668Y-99562380D01*
X107034813Y-99430525D01*
X106791592Y-99268010D01*
X106521339Y-99156068D01*
X106234441Y-99099000D01*
X105941921Y-99099000D01*
X105655023Y-99156068D01*
X105384770Y-99268010D01*
X105141549Y-99430525D01*
X104934706Y-99637368D01*
X104818181Y-99811760D01*
X104701656Y-99637368D01*
X104494813Y-99430525D01*
X104251592Y-99268010D01*
X103981339Y-99156068D01*
X103694441Y-99099000D01*
X103401921Y-99099000D01*
X103115023Y-99156068D01*
X102844770Y-99268010D01*
X102601549Y-99430525D01*
X102394706Y-99637368D01*
X102278181Y-99811760D01*
X102161656Y-99637368D01*
X101954813Y-99430525D01*
X101711592Y-99268010D01*
X101441339Y-99156068D01*
X101154441Y-99099000D01*
X100861921Y-99099000D01*
X100575023Y-99156068D01*
X100304770Y-99268010D01*
X100061549Y-99430525D01*
X99854706Y-99637368D01*
X99732986Y-99819534D01*
X99663359Y-99702645D01*
X99468450Y-99486412D01*
X99235101Y-99312359D01*
X98972280Y-99187175D01*
X98825071Y-99142524D01*
X98595181Y-99263845D01*
X98341181Y-99263845D01*
X98111291Y-99142524D01*
X97964082Y-99187175D01*
X97701261Y-99312359D01*
X97467912Y-99486412D01*
X97273003Y-99702645D01*
X97124024Y-99952748D01*
X97026700Y-100227109D01*
X94058083Y-100227109D01*
X94149287Y-99925304D01*
X94209168Y-99310672D01*
X94147990Y-98696169D01*
X93968103Y-98105408D01*
X93680118Y-97566627D01*
X93262148Y-97290457D01*
X91238605Y-99314000D01*
X90879395Y-99314000D01*
X88855852Y-97290457D01*
X88437882Y-97566627D01*
X88147351Y-98111557D01*
X87968713Y-98702696D01*
X87908832Y-99317328D01*
X87847438Y-99317328D01*
X87908922Y-98690267D01*
X88090065Y-98090292D01*
X88384293Y-97536931D01*
X88731793Y-97110852D01*
X89035457Y-97110852D01*
X91059000Y-99134395D01*
X93082543Y-97110852D01*
X174013819Y-97110852D01*
X176037362Y-99134395D01*
X178060905Y-97110852D01*
X177784735Y-96692882D01*
X177239805Y-96402351D01*
X176648666Y-96223713D01*
X176034034Y-96163832D01*
X175419531Y-96225010D01*
X174828770Y-96404897D01*
X174289989Y-96692882D01*
X174013819Y-97110852D01*
X93082543Y-97110852D01*
X92806373Y-96692882D01*
X92261443Y-96402351D01*
X91670304Y-96223713D01*
X91055672Y-96163832D01*
X90441169Y-96225010D01*
X89850408Y-96404897D01*
X89311627Y-96692882D01*
X89035457Y-97110852D01*
X88731793Y-97110852D01*
X88780400Y-97051255D01*
X89263301Y-96651764D01*
X89814594Y-96353681D01*
X90413291Y-96168353D01*
X91073142Y-96099000D01*
X175998965Y-96099000D01*
X176661095Y-96163922D01*
%TA.AperFunction,Conductor*%
D22*
G36*
X176661095Y-96163922D02*
G01*
X177261070Y-96345065D01*
X177814431Y-96639293D01*
X178300107Y-97035400D01*
X178699598Y-97518301D01*
X178997681Y-98069594D01*
X179183009Y-98668291D01*
X179252363Y-99328152D01*
X179252362Y-122826485D01*
X179187440Y-123488615D01*
X179006297Y-124088588D01*
X178712068Y-124641953D01*
X178315958Y-125127631D01*
X177833061Y-125527117D01*
X177281764Y-125825203D01*
X176683070Y-126010529D01*
X176023221Y-126079882D01*
X91097397Y-126079882D01*
X90435267Y-126014960D01*
X89835294Y-125833817D01*
X89281929Y-125539588D01*
X88796251Y-125143478D01*
X88733836Y-125068030D01*
X89035457Y-125068030D01*
X89311627Y-125486000D01*
X89856557Y-125776531D01*
X90447696Y-125955169D01*
X91062328Y-126015050D01*
X91676831Y-125953872D01*
X92267592Y-125773985D01*
X92806373Y-125486000D01*
X93082543Y-125068030D01*
X174013819Y-125068030D01*
X174289989Y-125486000D01*
X174834919Y-125776531D01*
X175426058Y-125955169D01*
X176040690Y-126015050D01*
X176655193Y-125953872D01*
X177245954Y-125773985D01*
X177784735Y-125486000D01*
X178060905Y-125068030D01*
X176037362Y-123044487D01*
X174013819Y-125068030D01*
X93082543Y-125068030D01*
X91059000Y-123044487D01*
X89035457Y-125068030D01*
X88733836Y-125068030D01*
X88396765Y-124660581D01*
X88098679Y-124109284D01*
X87913353Y-123510590D01*
X87845837Y-122868210D01*
X87908832Y-122868210D01*
X87970010Y-123482713D01*
X88149897Y-124073474D01*
X88437882Y-124612255D01*
X88855852Y-124888425D01*
X90879395Y-122864882D01*
X91238605Y-122864882D01*
X93262148Y-124888425D01*
X93680118Y-124612255D01*
X93970649Y-124067325D01*
X94149287Y-123476186D01*
X94208519Y-122868210D01*
X172887194Y-122868210D01*
X172948372Y-123482713D01*
X173128259Y-124073474D01*
X173416244Y-124612255D01*
X173834214Y-124888425D01*
X175857757Y-122864882D01*
X176216967Y-122864882D01*
X178240510Y-124888425D01*
X178658480Y-124612255D01*
X178949011Y-124067325D01*
X179127649Y-123476186D01*
X179187530Y-122861554D01*
X179126352Y-122247051D01*
X178946465Y-121656290D01*
X178658480Y-121117509D01*
X178240510Y-120841339D01*
X176216967Y-122864882D01*
X175857757Y-122864882D01*
X173834214Y-120841339D01*
X173416244Y-121117509D01*
X173125713Y-121662439D01*
X172947075Y-122253578D01*
X172887194Y-122868210D01*
X94208519Y-122868210D01*
X94209168Y-122861554D01*
X94147990Y-122247051D01*
X93968103Y-121656290D01*
X93680118Y-121117509D01*
X93262148Y-120841339D01*
X91238605Y-122864882D01*
X90879395Y-122864882D01*
X88855852Y-120841339D01*
X88437882Y-121117509D01*
X88147351Y-121662439D01*
X87968713Y-122253578D01*
X87908832Y-122868210D01*
X87845837Y-122868210D01*
X87844000Y-122850741D01*
X87844000Y-120661734D01*
X89035457Y-120661734D01*
X91059000Y-122685277D01*
X92999237Y-120745040D01*
X115702091Y-120745040D01*
X115796930Y-121009881D01*
X115941615Y-121251131D01*
X116130586Y-121459519D01*
X116356580Y-121627037D01*
X116610913Y-121747246D01*
X116744961Y-121787904D01*
X116967000Y-121665915D01*
X116967000Y-120523000D01*
X117221000Y-120523000D01*
X117221000Y-121665915D01*
X117443039Y-121787904D01*
X117577087Y-121747246D01*
X117831420Y-121627037D01*
X118057414Y-121459519D01*
X118246385Y-121251131D01*
X118391070Y-121009881D01*
X118485909Y-120745040D01*
X148595091Y-120745040D01*
X148689930Y-121009881D01*
X148834615Y-121251131D01*
X149023586Y-121459519D01*
X149249580Y-121627037D01*
X149503913Y-121747246D01*
X149637961Y-121787904D01*
X149860000Y-121665915D01*
X149860000Y-120523000D01*
X150114000Y-120523000D01*
X150114000Y-121665915D01*
X150336039Y-121787904D01*
X150470087Y-121747246D01*
X150724420Y-121627037D01*
X150950414Y-121459519D01*
X151139385Y-121251131D01*
X151284070Y-121009881D01*
X151378909Y-120745040D01*
X151333405Y-120661734D01*
X174013819Y-120661734D01*
X176037362Y-122685277D01*
X178060905Y-120661734D01*
X177784735Y-120243764D01*
X177239805Y-119953233D01*
X176648666Y-119774595D01*
X176034034Y-119714714D01*
X175419531Y-119775892D01*
X174828770Y-119955779D01*
X174289989Y-120243764D01*
X174013819Y-120661734D01*
X151333405Y-120661734D01*
X151257624Y-120523000D01*
X150114000Y-120523000D01*
X149860000Y-120523000D01*
X148716376Y-120523000D01*
X148595091Y-120745040D01*
X118485909Y-120745040D01*
X118364624Y-120523000D01*
X117221000Y-120523000D01*
X116967000Y-120523000D01*
X115823376Y-120523000D01*
X115702091Y-120745040D01*
X92999237Y-120745040D01*
X93082543Y-120661734D01*
X92806373Y-120243764D01*
X92437241Y-120046960D01*
X115702091Y-120046960D01*
X115823376Y-120269000D01*
X116967000Y-120269000D01*
X116967000Y-119126085D01*
X117221000Y-119126085D01*
X117221000Y-120269000D01*
X118364624Y-120269000D01*
X118485909Y-120046960D01*
X148595091Y-120046960D01*
X148716376Y-120269000D01*
X149860000Y-120269000D01*
X149860000Y-119126085D01*
X150114000Y-119126085D01*
X150114000Y-120269000D01*
X151257624Y-120269000D01*
X151378909Y-120046960D01*
X151284070Y-119782119D01*
X151139385Y-119540869D01*
X150950414Y-119332481D01*
X150724420Y-119164963D01*
X150470087Y-119044754D01*
X150336039Y-119004096D01*
X150114000Y-119126085D01*
X149860000Y-119126085D01*
X149637961Y-119004096D01*
X149503913Y-119044754D01*
X149249580Y-119164963D01*
X149023586Y-119332481D01*
X148834615Y-119540869D01*
X148689930Y-119782119D01*
X148595091Y-120046960D01*
X118485909Y-120046960D01*
X118391070Y-119782119D01*
X118246385Y-119540869D01*
X118057414Y-119332481D01*
X117831420Y-119164963D01*
X117577087Y-119044754D01*
X117443039Y-119004096D01*
X117221000Y-119126085D01*
X116967000Y-119126085D01*
X116744961Y-119004096D01*
X116610913Y-119044754D01*
X116356580Y-119164963D01*
X116130586Y-119332481D01*
X115941615Y-119540869D01*
X115796930Y-119782119D01*
X115702091Y-120046960D01*
X92437241Y-120046960D01*
X92261443Y-119953233D01*
X91670304Y-119774595D01*
X91055672Y-119714714D01*
X90441169Y-119775892D01*
X89850408Y-119955779D01*
X89311627Y-120243764D01*
X89035457Y-120661734D01*
X87844000Y-120661734D01*
X87844000Y-115699875D01*
X96344741Y-115699875D01*
X96344741Y-116075127D01*
X96417950Y-116443169D01*
X96561552Y-116789857D01*
X96770031Y-117101867D01*
X97035375Y-117367211D01*
X97347385Y-117575690D01*
X97694073Y-117719292D01*
X98062115Y-117792501D01*
X98437367Y-117792501D01*
X98805409Y-117719292D01*
X99152097Y-117575690D01*
X99464107Y-117367211D01*
X99729451Y-117101867D01*
X99937930Y-116789857D01*
X100081532Y-116443169D01*
X100154741Y-116075127D01*
X100154741Y-115699875D01*
X101643181Y-115699875D01*
X101643181Y-116075127D01*
X101716390Y-116443169D01*
X101859992Y-116789857D01*
X102068471Y-117101867D01*
X102333815Y-117367211D01*
X102645825Y-117575690D01*
X102992513Y-117719292D01*
X103360555Y-117792501D01*
X103735807Y-117792501D01*
X104103849Y-117719292D01*
X104450537Y-117575690D01*
X104762547Y-117367211D01*
X105027891Y-117101867D01*
X105236370Y-116789857D01*
X105379972Y-116443169D01*
X105453181Y-116075127D01*
X105453181Y-115699875D01*
X106941621Y-115699875D01*
X106941621Y-116075127D01*
X107014830Y-116443169D01*
X107158432Y-116789857D01*
X107366911Y-117101867D01*
X107632255Y-117367211D01*
X107944265Y-117575690D01*
X108290953Y-117719292D01*
X108658995Y-117792501D01*
X109034247Y-117792501D01*
X109402289Y-117719292D01*
X109748977Y-117575690D01*
X110060987Y-117367211D01*
X110326331Y-117101867D01*
X110534810Y-116789857D01*
X110678412Y-116443169D01*
X110751621Y-116075127D01*
X110751621Y-115699875D01*
X156344741Y-115699875D01*
X156344741Y-116075127D01*
X156417950Y-116443169D01*
X156561552Y-116789857D01*
X156770031Y-117101867D01*
X157035375Y-117367211D01*
X157347385Y-117575690D01*
X157694073Y-117719292D01*
X158062115Y-117792501D01*
X158437367Y-117792501D01*
X158805409Y-117719292D01*
X159152097Y-117575690D01*
X159464107Y-117367211D01*
X159729451Y-117101867D01*
X159937930Y-116789857D01*
X160081532Y-116443169D01*
X160154741Y-116075127D01*
X160154741Y-115699875D01*
X160081532Y-115331833D01*
X159937930Y-114985145D01*
X159729451Y-114673135D01*
X159464107Y-114407791D01*
X159152097Y-114199312D01*
X158805409Y-114055710D01*
X158437367Y-113982501D01*
X158062115Y-113982501D01*
X157694073Y-114055710D01*
X157347385Y-114199312D01*
X157035375Y-114407791D01*
X156770031Y-114673135D01*
X156561552Y-114985145D01*
X156417950Y-115331833D01*
X156344741Y-115699875D01*
X110751621Y-115699875D01*
X110678412Y-115331833D01*
X110534810Y-114985145D01*
X110326331Y-114673135D01*
X110060987Y-114407791D01*
X109748977Y-114199312D01*
X109402289Y-114055710D01*
X109034247Y-113982501D01*
X108658995Y-113982501D01*
X108290953Y-114055710D01*
X107944265Y-114199312D01*
X107632255Y-114407791D01*
X107366911Y-114673135D01*
X107158432Y-114985145D01*
X107014830Y-115331833D01*
X106941621Y-115699875D01*
X105453181Y-115699875D01*
X105379972Y-115331833D01*
X105236370Y-114985145D01*
X105027891Y-114673135D01*
X104762547Y-114407791D01*
X104450537Y-114199312D01*
X104103849Y-114055710D01*
X103735807Y-113982501D01*
X103360555Y-113982501D01*
X102992513Y-114055710D01*
X102645825Y-114199312D01*
X102333815Y-114407791D01*
X102068471Y-114673135D01*
X101859992Y-114985145D01*
X101716390Y-115331833D01*
X101643181Y-115699875D01*
X100154741Y-115699875D01*
X100081532Y-115331833D01*
X99937930Y-114985145D01*
X99729451Y-114673135D01*
X99464107Y-114407791D01*
X99152097Y-114199312D01*
X98805409Y-114055710D01*
X98437367Y-113982501D01*
X98062115Y-113982501D01*
X97694073Y-114055710D01*
X97347385Y-114199312D01*
X97035375Y-114407791D01*
X96770031Y-114673135D01*
X96561552Y-114985145D01*
X96417950Y-115331833D01*
X96344741Y-115699875D01*
X87844000Y-115699875D01*
X87844000Y-109308000D01*
X90205928Y-109308000D01*
X90218188Y-109432482D01*
X90254498Y-109552180D01*
X90313463Y-109662494D01*
X90392815Y-109759185D01*
X90489506Y-109838537D01*
X90599820Y-109897502D01*
X90672380Y-109919513D01*
X90540525Y-110051368D01*
X90378010Y-110294589D01*
X90266068Y-110564842D01*
X90209000Y-110851740D01*
X90209000Y-111144260D01*
X90266068Y-111431158D01*
X90378010Y-111701411D01*
X90540525Y-111944632D01*
X90747368Y-112151475D01*
X90921760Y-112268000D01*
X90747368Y-112384525D01*
X90540525Y-112591368D01*
X90378010Y-112834589D01*
X90266068Y-113104842D01*
X90209000Y-113391740D01*
X90209000Y-113684260D01*
X90266068Y-113971158D01*
X90378010Y-114241411D01*
X90540525Y-114484632D01*
X90747368Y-114691475D01*
X90990589Y-114853990D01*
X91260842Y-114965932D01*
X91547740Y-115023000D01*
X91840260Y-115023000D01*
X92127158Y-114965932D01*
X92397411Y-114853990D01*
X92640632Y-114691475D01*
X92847475Y-114484632D01*
X93009990Y-114241411D01*
X93121932Y-113971158D01*
X93179000Y-113684260D01*
X93179000Y-113391740D01*
X93121932Y-113104842D01*
X93009990Y-112834589D01*
X92847475Y-112591368D01*
X92640632Y-112384525D01*
X92466240Y-112268000D01*
X92640632Y-112151475D01*
X92847475Y-111944632D01*
X93009990Y-111701411D01*
X93121932Y-111431158D01*
X93179000Y-111144260D01*
X93179000Y-110901815D01*
X96344741Y-110901815D01*
X96344741Y-111277067D01*
X96417950Y-111645109D01*
X96561552Y-111991797D01*
X96770031Y-112303807D01*
X97035375Y-112569151D01*
X97347385Y-112777630D01*
X97694073Y-112921232D01*
X98062115Y-112994441D01*
X98437367Y-112994441D01*
X98805409Y-112921232D01*
X99152097Y-112777630D01*
X99464107Y-112569151D01*
X99729451Y-112303807D01*
X99937930Y-111991797D01*
X100081532Y-111645109D01*
X100154741Y-111277067D01*
X100154741Y-110901815D01*
X101643181Y-110901815D01*
X101643181Y-111277067D01*
X101716390Y-111645109D01*
X101859992Y-111991797D01*
X102068471Y-112303807D01*
X102333815Y-112569151D01*
X102645825Y-112777630D01*
X102992513Y-112921232D01*
X103360555Y-112994441D01*
X103735807Y-112994441D01*
X104103849Y-112921232D01*
X104450537Y-112777630D01*
X104762547Y-112569151D01*
X105027891Y-112303807D01*
X105236370Y-111991797D01*
X105379972Y-111645109D01*
X105453181Y-111277067D01*
X105453181Y-110901815D01*
X106941621Y-110901815D01*
X106941621Y-111277067D01*
X107014830Y-111645109D01*
X107158432Y-111991797D01*
X107366911Y-112303807D01*
X107632255Y-112569151D01*
X107944265Y-112777630D01*
X108290953Y-112921232D01*
X108658995Y-112994441D01*
X109034247Y-112994441D01*
X109402289Y-112921232D01*
X109748977Y-112777630D01*
X110060987Y-112569151D01*
X110326331Y-112303807D01*
X110534810Y-111991797D01*
X110678412Y-111645109D01*
X110751621Y-111277067D01*
X110751621Y-110901815D01*
X110678412Y-110533773D01*
X110671223Y-110516417D01*
X111316642Y-109870999D01*
X115703491Y-109870999D01*
X115659000Y-110094665D01*
X115659000Y-110377335D01*
X115714147Y-110654574D01*
X115822320Y-110915727D01*
X115979363Y-111150759D01*
X116179241Y-111350637D01*
X116414273Y-111507680D01*
X116675426Y-111615853D01*
X116952665Y-111671000D01*
X117235335Y-111671000D01*
X117512574Y-111615853D01*
X117773727Y-111507680D01*
X118008759Y-111350637D01*
X118208637Y-111150759D01*
X118365680Y-110915727D01*
X118473853Y-110654574D01*
X118529000Y-110377335D01*
X118529000Y-110094665D01*
X148552000Y-110094665D01*
X148552000Y-110377335D01*
X148607147Y-110654574D01*
X148715320Y-110915727D01*
X148872363Y-111150759D01*
X149072241Y-111350637D01*
X149307273Y-111507680D01*
X149568426Y-111615853D01*
X149845665Y-111671000D01*
X150128335Y-111671000D01*
X150405574Y-111615853D01*
X150666727Y-111507680D01*
X150901759Y-111350637D01*
X151101637Y-111150759D01*
X151258680Y-110915727D01*
X151264442Y-110901815D01*
X156344741Y-110901815D01*
X156344741Y-111277067D01*
X156417950Y-111645109D01*
X156561552Y-111991797D01*
X156770031Y-112303807D01*
X157035375Y-112569151D01*
X157347385Y-112777630D01*
X157694073Y-112921232D01*
X158062115Y-112994441D01*
X158437367Y-112994441D01*
X158805409Y-112921232D01*
X159152097Y-112777630D01*
X159464107Y-112569151D01*
X159729451Y-112303807D01*
X159937930Y-111991797D01*
X160081532Y-111645109D01*
X160154741Y-111277067D01*
X160154741Y-110901815D01*
X160081532Y-110533773D01*
X159937930Y-110187085D01*
X159729451Y-109875075D01*
X159464107Y-109609731D01*
X159152097Y-109401252D01*
X158805409Y-109257650D01*
X158437367Y-109184441D01*
X158062115Y-109184441D01*
X157694073Y-109257650D01*
X157347385Y-109401252D01*
X157035375Y-109609731D01*
X156770031Y-109875075D01*
X156561552Y-110187085D01*
X156417950Y-110533773D01*
X156344741Y-110901815D01*
X151264442Y-110901815D01*
X151366853Y-110654574D01*
X151422000Y-110377335D01*
X151422000Y-110094665D01*
X151366853Y-109817426D01*
X151258680Y-109556273D01*
X151101637Y-109321241D01*
X150901759Y-109121363D01*
X150666727Y-108964320D01*
X150405574Y-108856147D01*
X150128335Y-108801000D01*
X149845665Y-108801000D01*
X149568426Y-108856147D01*
X149307273Y-108964320D01*
X149072241Y-109121363D01*
X148872363Y-109321241D01*
X148715320Y-109556273D01*
X148607147Y-109817426D01*
X148552000Y-110094665D01*
X118529000Y-110094665D01*
X118484509Y-109870999D01*
X125031532Y-109870999D01*
X125075001Y-109875280D01*
X125118470Y-109870999D01*
X125118478Y-109870999D01*
X125248491Y-109858194D01*
X125415314Y-109807588D01*
X125569060Y-109725410D01*
X125703818Y-109614816D01*
X125731535Y-109581043D01*
X127783507Y-107529072D01*
X129370000Y-107529072D01*
X129494482Y-107516812D01*
X129614180Y-107480502D01*
X129724494Y-107421537D01*
X129821185Y-107342185D01*
X129900537Y-107245494D01*
X129959502Y-107135180D01*
X129995812Y-107015482D01*
X130008072Y-106891000D01*
X130008072Y-105620117D01*
X136695000Y-105620117D01*
X136695000Y-105961883D01*
X136761675Y-106297081D01*
X136892463Y-106612831D01*
X137082337Y-106896998D01*
X137324002Y-107138663D01*
X137608169Y-107328537D01*
X137923919Y-107459325D01*
X138259117Y-107526000D01*
X138600883Y-107526000D01*
X138936081Y-107459325D01*
X139251831Y-107328537D01*
X139535998Y-107138663D01*
X139777663Y-106896998D01*
X139967537Y-106612831D01*
X140098325Y-106297081D01*
X140165000Y-105961883D01*
X140165000Y-105620117D01*
X140098325Y-105284919D01*
X139967537Y-104969169D01*
X139915307Y-104891000D01*
X147178928Y-104891000D01*
X147178928Y-106691000D01*
X147191188Y-106815482D01*
X147227498Y-106935180D01*
X147286463Y-107045494D01*
X147365815Y-107142185D01*
X147462506Y-107221537D01*
X147572820Y-107280502D01*
X147692518Y-107316812D01*
X147817000Y-107329072D01*
X149617000Y-107329072D01*
X149741482Y-107316812D01*
X149861180Y-107280502D01*
X149971494Y-107221537D01*
X150068185Y-107142185D01*
X150147537Y-107045494D01*
X150206502Y-106935180D01*
X150212056Y-106916873D01*
X150278495Y-106983312D01*
X150529905Y-107151299D01*
X150809257Y-107267011D01*
X151105816Y-107326000D01*
X151408184Y-107326000D01*
X151704743Y-107267011D01*
X151984095Y-107151299D01*
X152235505Y-106983312D01*
X152449312Y-106769505D01*
X152617299Y-106518095D01*
X152733011Y-106238743D01*
X152759861Y-106103755D01*
X156344741Y-106103755D01*
X156344741Y-106479007D01*
X156417950Y-106847049D01*
X156561552Y-107193737D01*
X156770031Y-107505747D01*
X157035375Y-107771091D01*
X157347385Y-107979570D01*
X157694073Y-108123172D01*
X158062115Y-108196381D01*
X158437367Y-108196381D01*
X158805409Y-108123172D01*
X159152097Y-107979570D01*
X159464107Y-107771091D01*
X159729451Y-107505747D01*
X159937930Y-107193737D01*
X160081532Y-106847049D01*
X160154741Y-106479007D01*
X160154741Y-106103755D01*
X160081532Y-105735713D01*
X159937930Y-105389025D01*
X159729451Y-105077015D01*
X159464107Y-104811671D01*
X159152097Y-104603192D01*
X158805409Y-104459590D01*
X158437367Y-104386381D01*
X158062115Y-104386381D01*
X157694073Y-104459590D01*
X157347385Y-104603192D01*
X157035375Y-104811671D01*
X156770031Y-105077015D01*
X156561552Y-105389025D01*
X156417950Y-105735713D01*
X156344741Y-106103755D01*
X152759861Y-106103755D01*
X152792000Y-105942184D01*
X152792000Y-105639816D01*
X152733011Y-105343257D01*
X152718457Y-105308120D01*
X156785955Y-101240622D01*
X156919822Y-101465355D01*
X157114731Y-101681588D01*
X157348080Y-101855641D01*
X157610901Y-101980825D01*
X157758110Y-102025476D01*
X157988000Y-101904155D01*
X157988000Y-100711000D01*
X157968000Y-100711000D01*
X157968000Y-100457000D01*
X157988000Y-100457000D01*
X157988000Y-100437000D01*
X158242000Y-100437000D01*
X158242000Y-100457000D01*
X158262000Y-100457000D01*
X158262000Y-100711000D01*
X158242000Y-100711000D01*
X158242000Y-101904155D01*
X158471890Y-102025476D01*
X158619099Y-101980825D01*
X158881920Y-101855641D01*
X159115269Y-101681588D01*
X159310178Y-101465355D01*
X159379805Y-101348466D01*
X159501525Y-101530632D01*
X159708368Y-101737475D01*
X159951589Y-101899990D01*
X160221842Y-102011932D01*
X160508740Y-102069000D01*
X160801260Y-102069000D01*
X160943180Y-102040770D01*
X160943181Y-114124021D01*
X160938899Y-114167500D01*
X160955985Y-114340990D01*
X161006592Y-114507813D01*
X161088770Y-114661559D01*
X161171648Y-114762546D01*
X161171651Y-114762549D01*
X161199364Y-114796317D01*
X161233131Y-114824029D01*
X161723579Y-115314477D01*
X161716390Y-115331833D01*
X161643181Y-115699875D01*
X161643181Y-116075127D01*
X161716390Y-116443169D01*
X161859992Y-116789857D01*
X162068471Y-117101867D01*
X162333815Y-117367211D01*
X162645825Y-117575690D01*
X162992513Y-117719292D01*
X163360555Y-117792501D01*
X163735807Y-117792501D01*
X164103849Y-117719292D01*
X164450537Y-117575690D01*
X164762547Y-117367211D01*
X165027891Y-117101867D01*
X165236370Y-116789857D01*
X165379972Y-116443169D01*
X165453181Y-116075127D01*
X165453181Y-115699875D01*
X166941621Y-115699875D01*
X166941621Y-116075127D01*
X167014830Y-116443169D01*
X167158432Y-116789857D01*
X167366911Y-117101867D01*
X167632255Y-117367211D01*
X167944265Y-117575690D01*
X168290953Y-117719292D01*
X168658995Y-117792501D01*
X169034247Y-117792501D01*
X169402289Y-117719292D01*
X169748977Y-117575690D01*
X170060987Y-117367211D01*
X170326331Y-117101867D01*
X170534810Y-116789857D01*
X170678412Y-116443169D01*
X170751621Y-116075127D01*
X170751621Y-115699875D01*
X170678412Y-115331833D01*
X170534810Y-114985145D01*
X170326331Y-114673135D01*
X170060987Y-114407791D01*
X169748977Y-114199312D01*
X169402289Y-114055710D01*
X169034247Y-113982501D01*
X168658995Y-113982501D01*
X168290953Y-114055710D01*
X167944265Y-114199312D01*
X167632255Y-114407791D01*
X167366911Y-114673135D01*
X167158432Y-114985145D01*
X167014830Y-115331833D01*
X166941621Y-115699875D01*
X165453181Y-115699875D01*
X165379972Y-115331833D01*
X165236370Y-114985145D01*
X165027891Y-114673135D01*
X164762547Y-114407791D01*
X164450537Y-114199312D01*
X164103849Y-114055710D01*
X163735807Y-113982501D01*
X163360555Y-113982501D01*
X162992513Y-114055710D01*
X162975157Y-114062899D01*
X162713180Y-113800922D01*
X162713180Y-112805529D01*
X162992513Y-112921232D01*
X163360555Y-112994441D01*
X163735807Y-112994441D01*
X164103849Y-112921232D01*
X164450537Y-112777630D01*
X164762547Y-112569151D01*
X165027891Y-112303807D01*
X165236370Y-111991797D01*
X165379972Y-111645109D01*
X165453181Y-111277067D01*
X165453181Y-110901815D01*
X166941621Y-110901815D01*
X166941621Y-111277067D01*
X167014830Y-111645109D01*
X167158432Y-111991797D01*
X167366911Y-112303807D01*
X167632255Y-112569151D01*
X167944265Y-112777630D01*
X168290953Y-112921232D01*
X168658995Y-112994441D01*
X169034247Y-112994441D01*
X169402289Y-112921232D01*
X169748977Y-112777630D01*
X169840717Y-112716331D01*
X173945524Y-112716331D01*
X173990175Y-112863540D01*
X174115359Y-113126361D01*
X174289412Y-113359710D01*
X174505645Y-113554619D01*
X174755748Y-113703598D01*
X175030109Y-113800922D01*
X175260000Y-113680255D01*
X175260000Y-112486441D01*
X175514000Y-112486441D01*
X175514000Y-113680255D01*
X175743891Y-113800922D01*
X176018252Y-113703598D01*
X176268355Y-113554619D01*
X176484588Y-113359710D01*
X176658641Y-113126361D01*
X176783825Y-112863540D01*
X176828476Y-112716331D01*
X176707155Y-112486441D01*
X175514000Y-112486441D01*
X175260000Y-112486441D01*
X174066845Y-112486441D01*
X173945524Y-112716331D01*
X169840717Y-112716331D01*
X170060987Y-112569151D01*
X170326331Y-112303807D01*
X170534810Y-111991797D01*
X170678412Y-111645109D01*
X170751621Y-111277067D01*
X170751621Y-110901815D01*
X170678412Y-110533773D01*
X170534810Y-110187085D01*
X170326331Y-109875075D01*
X170060987Y-109609731D01*
X169748977Y-109401252D01*
X169402289Y-109257650D01*
X169034247Y-109184441D01*
X168658995Y-109184441D01*
X168290953Y-109257650D01*
X167944265Y-109401252D01*
X167632255Y-109609731D01*
X167366911Y-109875075D01*
X167158432Y-110187085D01*
X167014830Y-110533773D01*
X166941621Y-110901815D01*
X165453181Y-110901815D01*
X165379972Y-110533773D01*
X165236370Y-110187085D01*
X165027891Y-109875075D01*
X164762547Y-109609731D01*
X164450537Y-109401252D01*
X164103849Y-109257650D01*
X163735807Y-109184441D01*
X163360555Y-109184441D01*
X162992513Y-109257650D01*
X162713180Y-109373353D01*
X162713180Y-108969441D01*
X173898928Y-108969441D01*
X173898928Y-110669441D01*
X173911188Y-110793923D01*
X173947498Y-110913621D01*
X174006463Y-111023935D01*
X174085815Y-111120626D01*
X174182506Y-111199978D01*
X174292820Y-111258943D01*
X174373466Y-111283407D01*
X174289412Y-111359172D01*
X174115359Y-111592521D01*
X173990175Y-111855342D01*
X173945524Y-112002551D01*
X174066845Y-112232441D01*
X175260000Y-112232441D01*
X175260000Y-112212441D01*
X175514000Y-112212441D01*
X175514000Y-112232441D01*
X176707155Y-112232441D01*
X176828476Y-112002551D01*
X176783825Y-111855342D01*
X176658641Y-111592521D01*
X176484588Y-111359172D01*
X176400534Y-111283407D01*
X176481180Y-111258943D01*
X176591494Y-111199978D01*
X176688185Y-111120626D01*
X176767537Y-111023935D01*
X176826502Y-110913621D01*
X176862812Y-110793923D01*
X176875072Y-110669441D01*
X176875072Y-108969441D01*
X176862812Y-108844959D01*
X176826502Y-108725261D01*
X176767537Y-108614947D01*
X176688185Y-108518256D01*
X176591494Y-108438904D01*
X176481180Y-108379939D01*
X176361482Y-108343629D01*
X176237000Y-108331369D01*
X174537000Y-108331369D01*
X174412518Y-108343629D01*
X174292820Y-108379939D01*
X174182506Y-108438904D01*
X174085815Y-108518256D01*
X174006463Y-108614947D01*
X173947498Y-108725261D01*
X173911188Y-108844959D01*
X173898928Y-108969441D01*
X162713180Y-108969441D01*
X162713180Y-108007469D01*
X162992513Y-108123172D01*
X163360555Y-108196381D01*
X163735807Y-108196381D01*
X164103849Y-108123172D01*
X164450537Y-107979570D01*
X164762547Y-107771091D01*
X165027891Y-107505747D01*
X165236370Y-107193737D01*
X165379972Y-106847049D01*
X165453181Y-106479007D01*
X165453181Y-106103755D01*
X166941621Y-106103755D01*
X166941621Y-106479007D01*
X167014830Y-106847049D01*
X167158432Y-107193737D01*
X167366911Y-107505747D01*
X167632255Y-107771091D01*
X167944265Y-107979570D01*
X168290953Y-108123172D01*
X168658995Y-108196381D01*
X169034247Y-108196381D01*
X169402289Y-108123172D01*
X169748977Y-107979570D01*
X170060987Y-107771091D01*
X170326331Y-107505747D01*
X170534810Y-107193737D01*
X170678412Y-106847049D01*
X170751621Y-106479007D01*
X170751621Y-106103755D01*
X170678412Y-105735713D01*
X170534810Y-105389025D01*
X170326331Y-105077015D01*
X170060987Y-104811671D01*
X169748977Y-104603192D01*
X169402289Y-104459590D01*
X169034247Y-104386381D01*
X168658995Y-104386381D01*
X168290953Y-104459590D01*
X167944265Y-104603192D01*
X167632255Y-104811671D01*
X167366911Y-105077015D01*
X167158432Y-105389025D01*
X167014830Y-105735713D01*
X166941621Y-106103755D01*
X165453181Y-106103755D01*
X165379972Y-105735713D01*
X165236370Y-105389025D01*
X165027891Y-105077015D01*
X164762547Y-104811671D01*
X164450537Y-104603192D01*
X164103849Y-104459590D01*
X163735807Y-104386381D01*
X163360555Y-104386381D01*
X162992513Y-104459590D01*
X162713180Y-104575293D01*
X162713180Y-102317398D01*
X162976040Y-102054539D01*
X163048740Y-102069000D01*
X163341260Y-102069000D01*
X163628158Y-102011932D01*
X163898411Y-101899990D01*
X164141632Y-101737475D01*
X164348475Y-101530632D01*
X164465000Y-101356240D01*
X164581525Y-101530632D01*
X164788368Y-101737475D01*
X165031589Y-101899990D01*
X165301842Y-102011932D01*
X165588740Y-102069000D01*
X165881260Y-102069000D01*
X166168158Y-102011932D01*
X166438411Y-101899990D01*
X166681632Y-101737475D01*
X166813487Y-101605620D01*
X166835498Y-101678180D01*
X166894463Y-101788494D01*
X166973815Y-101885185D01*
X167070506Y-101964537D01*
X167180820Y-102023502D01*
X167300518Y-102059812D01*
X167425000Y-102072072D01*
X169125000Y-102072072D01*
X169249482Y-102059812D01*
X169369180Y-102023502D01*
X169479494Y-101964537D01*
X169576185Y-101885185D01*
X169655537Y-101788494D01*
X169714502Y-101678180D01*
X169750812Y-101558482D01*
X169754882Y-101517148D01*
X174013819Y-101517148D01*
X174289989Y-101935118D01*
X174834919Y-102225649D01*
X175426058Y-102404287D01*
X176040690Y-102464168D01*
X176655193Y-102402990D01*
X177245954Y-102223103D01*
X177784735Y-101935118D01*
X178060905Y-101517148D01*
X176037362Y-99493605D01*
X174013819Y-101517148D01*
X169754882Y-101517148D01*
X169763072Y-101434000D01*
X169763072Y-99734000D01*
X169750812Y-99609518D01*
X169714502Y-99489820D01*
X169655537Y-99379506D01*
X169604509Y-99317328D01*
X172887194Y-99317328D01*
X172948372Y-99931831D01*
X173128259Y-100522592D01*
X173416244Y-101061373D01*
X173834214Y-101337543D01*
X175857757Y-99314000D01*
X176216967Y-99314000D01*
X178240510Y-101337543D01*
X178658480Y-101061373D01*
X178949011Y-100516443D01*
X179127649Y-99925304D01*
X179187530Y-99310672D01*
X179126352Y-98696169D01*
X178946465Y-98105408D01*
X178658480Y-97566627D01*
X178240510Y-97290457D01*
X176216967Y-99314000D01*
X175857757Y-99314000D01*
X173834214Y-97290457D01*
X173416244Y-97566627D01*
X173125713Y-98111557D01*
X172947075Y-98702696D01*
X172887194Y-99317328D01*
X169604509Y-99317328D01*
X169576185Y-99282815D01*
X169479494Y-99203463D01*
X169369180Y-99144498D01*
X169249482Y-99108188D01*
X169125000Y-99095928D01*
X168038506Y-99095928D01*
X167631533Y-98688955D01*
X167603816Y-98655182D01*
X167469058Y-98544588D01*
X167315312Y-98462410D01*
X167148489Y-98411804D01*
X167018476Y-98398999D01*
X167018468Y-98398999D01*
X166974999Y-98394718D01*
X166931530Y-98398999D01*
X157534468Y-98398999D01*
X157490999Y-98394718D01*
X157447530Y-98398999D01*
X157447522Y-98398999D01*
X157332305Y-98410347D01*
X157317508Y-98411804D01*
X157266902Y-98427156D01*
X157150686Y-98462410D01*
X157107697Y-98485388D01*
X156996940Y-98544588D01*
X156895952Y-98627467D01*
X156895950Y-98627469D01*
X156862182Y-98655182D01*
X156834469Y-98688950D01*
X151267420Y-104256000D01*
X151105816Y-104256000D01*
X150809257Y-104314989D01*
X150529905Y-104430701D01*
X150278495Y-104598688D01*
X150212056Y-104665127D01*
X150206502Y-104646820D01*
X150147537Y-104536506D01*
X150068185Y-104439815D01*
X149971494Y-104360463D01*
X149861180Y-104301498D01*
X149741482Y-104265188D01*
X149617000Y-104252928D01*
X147817000Y-104252928D01*
X147692518Y-104265188D01*
X147572820Y-104301498D01*
X147462506Y-104360463D01*
X147365815Y-104439815D01*
X147286463Y-104536506D01*
X147227498Y-104646820D01*
X147191188Y-104766518D01*
X147178928Y-104891000D01*
X139915307Y-104891000D01*
X139777663Y-104685002D01*
X139535998Y-104443337D01*
X139251831Y-104253463D01*
X138936081Y-104122675D01*
X138600883Y-104056000D01*
X138259117Y-104056000D01*
X137923919Y-104122675D01*
X137608169Y-104253463D01*
X137324002Y-104443337D01*
X137082337Y-104685002D01*
X136892463Y-104969169D01*
X136761675Y-105284919D01*
X136695000Y-105620117D01*
X130008072Y-105620117D01*
X130008072Y-104691000D01*
X129995812Y-104566518D01*
X129959502Y-104446820D01*
X129900537Y-104336506D01*
X129821185Y-104239815D01*
X129724494Y-104160463D01*
X129614180Y-104101498D01*
X129494482Y-104065188D01*
X129370000Y-104052928D01*
X127170000Y-104052928D01*
X127045518Y-104065188D01*
X126925820Y-104101498D01*
X126815506Y-104160463D01*
X126718815Y-104239815D01*
X126639463Y-104336506D01*
X126580498Y-104446820D01*
X126544188Y-104566518D01*
X126531928Y-104691000D01*
X126531928Y-106277493D01*
X124708423Y-108100999D01*
X110993528Y-108100999D01*
X110950062Y-108096718D01*
X110906596Y-108100999D01*
X110906586Y-108100999D01*
X110776573Y-108113804D01*
X110609750Y-108164410D01*
X110456004Y-108246588D01*
X110456002Y-108246589D01*
X110456003Y-108246589D01*
X110355016Y-108329467D01*
X110355014Y-108329469D01*
X110321246Y-108357182D01*
X110293533Y-108390950D01*
X109419645Y-109264839D01*
X109402289Y-109257650D01*
X109034247Y-109184441D01*
X108658995Y-109184441D01*
X108290953Y-109257650D01*
X107944265Y-109401252D01*
X107632255Y-109609731D01*
X107366911Y-109875075D01*
X107158432Y-110187085D01*
X107014830Y-110533773D01*
X106941621Y-110901815D01*
X105453181Y-110901815D01*
X105379972Y-110533773D01*
X105236370Y-110187085D01*
X105027891Y-109875075D01*
X104762547Y-109609731D01*
X104450537Y-109401252D01*
X104103849Y-109257650D01*
X103735807Y-109184441D01*
X103360555Y-109184441D01*
X102992513Y-109257650D01*
X102645825Y-109401252D01*
X102333815Y-109609731D01*
X102068471Y-109875075D01*
X101859992Y-110187085D01*
X101716390Y-110533773D01*
X101643181Y-110901815D01*
X100154741Y-110901815D01*
X100081532Y-110533773D01*
X99937930Y-110187085D01*
X99729451Y-109875075D01*
X99464107Y-109609731D01*
X99152097Y-109401252D01*
X98805409Y-109257650D01*
X98437367Y-109184441D01*
X98062115Y-109184441D01*
X97694073Y-109257650D01*
X97347385Y-109401252D01*
X97035375Y-109609731D01*
X96770031Y-109875075D01*
X96561552Y-110187085D01*
X96417950Y-110533773D01*
X96344741Y-110901815D01*
X93179000Y-110901815D01*
X93179000Y-110851740D01*
X93121932Y-110564842D01*
X93009990Y-110294589D01*
X92847475Y-110051368D01*
X92715620Y-109919513D01*
X92788180Y-109897502D01*
X92898494Y-109838537D01*
X92995185Y-109759185D01*
X93074537Y-109662494D01*
X93133502Y-109552180D01*
X93169812Y-109432482D01*
X93182072Y-109308000D01*
X93179000Y-108743750D01*
X93020250Y-108585000D01*
X91821000Y-108585000D01*
X91821000Y-108605000D01*
X91567000Y-108605000D01*
X91567000Y-108585000D01*
X90367750Y-108585000D01*
X90209000Y-108743750D01*
X90205928Y-109308000D01*
X87844000Y-109308000D01*
X87844000Y-107608000D01*
X90205928Y-107608000D01*
X90209000Y-108172250D01*
X90367750Y-108331000D01*
X91567000Y-108331000D01*
X91567000Y-107131750D01*
X91821000Y-107131750D01*
X91821000Y-108331000D01*
X93020250Y-108331000D01*
X93179000Y-108172250D01*
X93182072Y-107608000D01*
X93169812Y-107483518D01*
X93133502Y-107363820D01*
X93074537Y-107253506D01*
X92995185Y-107156815D01*
X92898494Y-107077463D01*
X92788180Y-107018498D01*
X92668482Y-106982188D01*
X92544000Y-106969928D01*
X91979750Y-106973000D01*
X91821000Y-107131750D01*
X91567000Y-107131750D01*
X91408250Y-106973000D01*
X90844000Y-106969928D01*
X90719518Y-106982188D01*
X90599820Y-107018498D01*
X90489506Y-107077463D01*
X90392815Y-107156815D01*
X90313463Y-107253506D01*
X90254498Y-107363820D01*
X90218188Y-107483518D01*
X90205928Y-107608000D01*
X87844000Y-107608000D01*
X87844000Y-106103755D01*
X96344741Y-106103755D01*
X96344741Y-106479007D01*
X96417950Y-106847049D01*
X96561552Y-107193737D01*
X96770031Y-107505747D01*
X97035375Y-107771091D01*
X97347385Y-107979570D01*
X97694073Y-108123172D01*
X98062115Y-108196381D01*
X98437367Y-108196381D01*
X98805409Y-108123172D01*
X99152097Y-107979570D01*
X99464107Y-107771091D01*
X99729451Y-107505747D01*
X99937930Y-107193737D01*
X100081532Y-106847049D01*
X100154741Y-106479007D01*
X100154741Y-106103755D01*
X101643181Y-106103755D01*
X101643181Y-106479007D01*
X101716390Y-106847049D01*
X101859992Y-107193737D01*
X102068471Y-107505747D01*
X102333815Y-107771091D01*
X102645825Y-107979570D01*
X102992513Y-108123172D01*
X103360555Y-108196381D01*
X103735807Y-108196381D01*
X104103849Y-108123172D01*
X104450537Y-107979570D01*
X104762547Y-107771091D01*
X105027891Y-107505747D01*
X105236370Y-107193737D01*
X105379972Y-106847049D01*
X105453181Y-106479007D01*
X105453181Y-106103755D01*
X106941621Y-106103755D01*
X106941621Y-106479007D01*
X107014830Y-106847049D01*
X107158432Y-107193737D01*
X107366911Y-107505747D01*
X107632255Y-107771091D01*
X107944265Y-107979570D01*
X108290953Y-108123172D01*
X108658995Y-108196381D01*
X109034247Y-108196381D01*
X109402289Y-108123172D01*
X109748977Y-107979570D01*
X110060987Y-107771091D01*
X110326331Y-107505747D01*
X110534810Y-107193737D01*
X110678412Y-106847049D01*
X110751621Y-106479007D01*
X110751621Y-106103755D01*
X110678412Y-105735713D01*
X110638691Y-105639816D01*
X114289000Y-105639816D01*
X114289000Y-105942184D01*
X114347989Y-106238743D01*
X114463701Y-106518095D01*
X114631688Y-106769505D01*
X114845495Y-106983312D01*
X115096905Y-107151299D01*
X115376257Y-107267011D01*
X115672816Y-107326000D01*
X115975184Y-107326000D01*
X116271743Y-107267011D01*
X116551095Y-107151299D01*
X116802505Y-106983312D01*
X116868944Y-106916873D01*
X116874498Y-106935180D01*
X116933463Y-107045494D01*
X117012815Y-107142185D01*
X117109506Y-107221537D01*
X117219820Y-107280502D01*
X117339518Y-107316812D01*
X117464000Y-107329072D01*
X119264000Y-107329072D01*
X119388482Y-107316812D01*
X119508180Y-107280502D01*
X119618494Y-107221537D01*
X119715185Y-107142185D01*
X119794537Y-107045494D01*
X119853502Y-106935180D01*
X119889812Y-106815482D01*
X119902072Y-106691000D01*
X119902072Y-104891000D01*
X119889812Y-104766518D01*
X119853502Y-104646820D01*
X119794537Y-104536506D01*
X119715185Y-104439815D01*
X119618494Y-104360463D01*
X119508180Y-104301498D01*
X119388482Y-104265188D01*
X119264000Y-104252928D01*
X117464000Y-104252928D01*
X117339518Y-104265188D01*
X117219820Y-104301498D01*
X117109506Y-104360463D01*
X117012815Y-104439815D01*
X116933463Y-104536506D01*
X116874498Y-104646820D01*
X116868944Y-104665127D01*
X116802505Y-104598688D01*
X116551095Y-104430701D01*
X116271743Y-104314989D01*
X115975184Y-104256000D01*
X115672816Y-104256000D01*
X115376257Y-104314989D01*
X115096905Y-104430701D01*
X114845495Y-104598688D01*
X114631688Y-104812495D01*
X114463701Y-105063905D01*
X114347989Y-105343257D01*
X114289000Y-105639816D01*
X110638691Y-105639816D01*
X110534810Y-105389025D01*
X110326331Y-105077015D01*
X110060987Y-104811671D01*
X109748977Y-104603192D01*
X109402289Y-104459590D01*
X109034247Y-104386381D01*
X108658995Y-104386381D01*
X108290953Y-104459590D01*
X107944265Y-104603192D01*
X107632255Y-104811671D01*
X107366911Y-105077015D01*
X107158432Y-105389025D01*
X107014830Y-105735713D01*
X106941621Y-106103755D01*
X105453181Y-106103755D01*
X105379972Y-105735713D01*
X105236370Y-105389025D01*
X105027891Y-105077015D01*
X104762547Y-104811671D01*
X104450537Y-104603192D01*
X104103849Y-104459590D01*
X103735807Y-104386381D01*
X103360555Y-104386381D01*
X102992513Y-104459590D01*
X102645825Y-104603192D01*
X102333815Y-104811671D01*
X102068471Y-105077015D01*
X101859992Y-105389025D01*
X101716390Y-105735713D01*
X101643181Y-106103755D01*
X100154741Y-106103755D01*
X100081532Y-105735713D01*
X99937930Y-105389025D01*
X99729451Y-105077015D01*
X99464107Y-104811671D01*
X99152097Y-104603192D01*
X98805409Y-104459590D01*
X98437367Y-104386381D01*
X98062115Y-104386381D01*
X97694073Y-104459590D01*
X97347385Y-104603192D01*
X97035375Y-104811671D01*
X96770031Y-105077015D01*
X96561552Y-105389025D01*
X96417950Y-105735713D01*
X96344741Y-106103755D01*
X87844000Y-106103755D01*
X87844000Y-101517148D01*
X89035457Y-101517148D01*
X89311627Y-101935118D01*
X89856557Y-102225649D01*
X90447696Y-102404287D01*
X91062328Y-102464168D01*
X91676831Y-102402990D01*
X92267592Y-102223103D01*
X92806373Y-101935118D01*
X93082543Y-101517148D01*
X91059000Y-99493605D01*
X89035457Y-101517148D01*
X87844000Y-101517148D01*
X87844000Y-99352397D01*
X87847438Y-99317328D01*
X87908832Y-99317328D01*
X87970010Y-99931831D01*
X88149897Y-100522592D01*
X88437882Y-101061373D01*
X88855852Y-101337543D01*
X90879395Y-99314000D01*
X91238605Y-99314000D01*
X93262148Y-101337543D01*
X93680118Y-101061373D01*
X93744353Y-100940891D01*
X97026700Y-100940891D01*
X97124024Y-101215252D01*
X97273003Y-101465355D01*
X97467912Y-101681588D01*
X97701261Y-101855641D01*
X97964082Y-101980825D01*
X98111291Y-102025476D01*
X98341181Y-101904155D01*
X98341181Y-100711000D01*
X97147367Y-100711000D01*
X97026700Y-100940891D01*
X93744353Y-100940891D01*
X93970649Y-100516443D01*
X94058083Y-100227109D01*
X97026700Y-100227109D01*
X97147367Y-100457000D01*
X98341181Y-100457000D01*
X98341181Y-99263845D01*
X98595181Y-99263845D01*
X98595181Y-100457000D01*
X98615181Y-100457000D01*
X98615181Y-100711000D01*
X98595181Y-100711000D01*
X98595181Y-101904155D01*
X98825071Y-102025476D01*
X98972280Y-101980825D01*
X99235101Y-101855641D01*
X99468450Y-101681588D01*
X99663359Y-101465355D01*
X99732986Y-101348466D01*
X99854706Y-101530632D01*
X100061549Y-101737475D01*
X100304770Y-101899990D01*
X100575023Y-102011932D01*
X100861921Y-102069000D01*
X101154441Y-102069000D01*
X101441339Y-102011932D01*
X101711592Y-101899990D01*
X101954813Y-101737475D01*
X102161656Y-101530632D01*
X102278181Y-101356240D01*
X102394706Y-101530632D01*
X102601549Y-101737475D01*
X102844770Y-101899990D01*
X103115023Y-102011932D01*
X103401921Y-102069000D01*
X103694441Y-102069000D01*
X103981339Y-102011932D01*
X104251592Y-101899990D01*
X104494813Y-101737475D01*
X104701656Y-101530632D01*
X104818181Y-101356240D01*
X104934706Y-101530632D01*
X105141549Y-101737475D01*
X105384770Y-101899990D01*
X105655023Y-102011932D01*
X105941921Y-102069000D01*
X106234441Y-102069000D01*
X106521339Y-102011932D01*
X106791592Y-101899990D01*
X107034813Y-101737475D01*
X107166668Y-101605620D01*
X107188679Y-101678180D01*
X107247644Y-101788494D01*
X107326996Y-101885185D01*
X107423687Y-101964537D01*
X107534001Y-102023502D01*
X107653699Y-102059812D01*
X107778181Y-102072072D01*
X109478181Y-102072072D01*
X109602663Y-102059812D01*
X109722361Y-102023502D01*
X109832675Y-101964537D01*
X109929366Y-101885185D01*
X110008718Y-101788494D01*
X110067683Y-101678180D01*
X110103993Y-101558482D01*
X110116253Y-101434000D01*
X110116253Y-99734000D01*
X110103993Y-99609518D01*
X110067683Y-99489820D01*
X110008718Y-99379506D01*
X109929366Y-99282815D01*
X109832675Y-99203463D01*
X109765844Y-99167740D01*
X130793181Y-99167740D01*
X130793181Y-99460260D01*
X130850249Y-99747158D01*
X130962191Y-100017411D01*
X131124706Y-100260632D01*
X131331549Y-100467475D01*
X131574770Y-100629990D01*
X131845023Y-100741932D01*
X132131921Y-100799000D01*
X132424441Y-100799000D01*
X132711339Y-100741932D01*
X132981592Y-100629990D01*
X133224813Y-100467475D01*
X133356668Y-100335620D01*
X133378679Y-100408180D01*
X133437644Y-100518494D01*
X133516996Y-100615185D01*
X133613687Y-100694537D01*
X133724001Y-100753502D01*
X133843699Y-100789812D01*
X133968181Y-100802072D01*
X135668181Y-100802072D01*
X135792663Y-100789812D01*
X135912361Y-100753502D01*
X136022675Y-100694537D01*
X136119366Y-100615185D01*
X136198718Y-100518494D01*
X136257683Y-100408180D01*
X136293993Y-100288482D01*
X136306253Y-100164000D01*
X136306253Y-98464000D01*
X136293993Y-98339518D01*
X136257683Y-98219820D01*
X136198718Y-98109506D01*
X136119366Y-98012815D01*
X136022675Y-97933463D01*
X135912361Y-97874498D01*
X135792663Y-97838188D01*
X135668181Y-97825928D01*
X133968181Y-97825928D01*
X133843699Y-97838188D01*
X133724001Y-97874498D01*
X133613687Y-97933463D01*
X133516996Y-98012815D01*
X133437644Y-98109506D01*
X133378679Y-98219820D01*
X133356668Y-98292380D01*
X133224813Y-98160525D01*
X132981592Y-97998010D01*
X132711339Y-97886068D01*
X132424441Y-97829000D01*
X132131921Y-97829000D01*
X131845023Y-97886068D01*
X131574770Y-97998010D01*
X131331549Y-98160525D01*
X131124706Y-98367368D01*
X130962191Y-98610589D01*
X130850249Y-98880842D01*
X130793181Y-99167740D01*
X109765844Y-99167740D01*
X109722361Y-99144498D01*
X109602663Y-99108188D01*
X109478181Y-99095928D01*
X107778181Y-99095928D01*
X107653699Y-99108188D01*
X107534001Y-99144498D01*
X107423687Y-99203463D01*
X107326996Y-99282815D01*
X107247644Y-99379506D01*
X107188679Y-99489820D01*
X107166668Y-99562380D01*
X107034813Y-99430525D01*
X106791592Y-99268010D01*
X106521339Y-99156068D01*
X106234441Y-99099000D01*
X105941921Y-99099000D01*
X105655023Y-99156068D01*
X105384770Y-99268010D01*
X105141549Y-99430525D01*
X104934706Y-99637368D01*
X104818181Y-99811760D01*
X104701656Y-99637368D01*
X104494813Y-99430525D01*
X104251592Y-99268010D01*
X103981339Y-99156068D01*
X103694441Y-99099000D01*
X103401921Y-99099000D01*
X103115023Y-99156068D01*
X102844770Y-99268010D01*
X102601549Y-99430525D01*
X102394706Y-99637368D01*
X102278181Y-99811760D01*
X102161656Y-99637368D01*
X101954813Y-99430525D01*
X101711592Y-99268010D01*
X101441339Y-99156068D01*
X101154441Y-99099000D01*
X100861921Y-99099000D01*
X100575023Y-99156068D01*
X100304770Y-99268010D01*
X100061549Y-99430525D01*
X99854706Y-99637368D01*
X99732986Y-99819534D01*
X99663359Y-99702645D01*
X99468450Y-99486412D01*
X99235101Y-99312359D01*
X98972280Y-99187175D01*
X98825071Y-99142524D01*
X98595181Y-99263845D01*
X98341181Y-99263845D01*
X98111291Y-99142524D01*
X97964082Y-99187175D01*
X97701261Y-99312359D01*
X97467912Y-99486412D01*
X97273003Y-99702645D01*
X97124024Y-99952748D01*
X97026700Y-100227109D01*
X94058083Y-100227109D01*
X94149287Y-99925304D01*
X94209168Y-99310672D01*
X94147990Y-98696169D01*
X93968103Y-98105408D01*
X93680118Y-97566627D01*
X93262148Y-97290457D01*
X91238605Y-99314000D01*
X90879395Y-99314000D01*
X88855852Y-97290457D01*
X88437882Y-97566627D01*
X88147351Y-98111557D01*
X87968713Y-98702696D01*
X87908832Y-99317328D01*
X87847438Y-99317328D01*
X87908922Y-98690267D01*
X88090065Y-98090292D01*
X88384293Y-97536931D01*
X88731793Y-97110852D01*
X89035457Y-97110852D01*
X91059000Y-99134395D01*
X93082543Y-97110852D01*
X174013819Y-97110852D01*
X176037362Y-99134395D01*
X178060905Y-97110852D01*
X177784735Y-96692882D01*
X177239805Y-96402351D01*
X176648666Y-96223713D01*
X176034034Y-96163832D01*
X175419531Y-96225010D01*
X174828770Y-96404897D01*
X174289989Y-96692882D01*
X174013819Y-97110852D01*
X93082543Y-97110852D01*
X92806373Y-96692882D01*
X92261443Y-96402351D01*
X91670304Y-96223713D01*
X91055672Y-96163832D01*
X90441169Y-96225010D01*
X89850408Y-96404897D01*
X89311627Y-96692882D01*
X89035457Y-97110852D01*
X88731793Y-97110852D01*
X88780400Y-97051255D01*
X89263301Y-96651764D01*
X89814594Y-96353681D01*
X90413291Y-96168353D01*
X91073142Y-96099000D01*
X175998965Y-96099000D01*
X176661095Y-96163922D01*
G37*
%TD.AperFunction*%
%TD*%
M02*
