%TF.GenerationSoftware,KiCad,Pcbnew,(5.1.10)-1*%
%TF.CreationDate,2021-08-19T15:13:47-05:00*%
%TF.ProjectId,ConsolePedalSide,436f6e73-6f6c-4655-9065-64616c536964,rev?*%
%TF.SameCoordinates,Original*%
%TF.FileFunction,Soldermask,Bot*%
%TF.FilePolarity,Negative*%
%FSLAX46Y46*%
G04 Gerber Fmt 4.6, Leading zero omitted, Abs format (unit mm)*
G04 Created by KiCad (PCBNEW (5.1.10)-1) date 2021-08-19 15:13:47*
%MOMM*%
%LPD*%
G01*
G04 APERTURE LIST*
%ADD10O,1.700000X1.700000*%
%ADD11R,1.700000X1.700000*%
%ADD12R,1.800000X1.800000*%
%ADD13C,1.800000*%
%ADD14R,2.200000X2.200000*%
%ADD15O,2.200000X2.200000*%
%ADD16C,5.000000*%
%ADD17C,1.600000*%
%ADD18O,1.600000X1.600000*%
%ADD19C,2.743200*%
G04 APERTURE END LIST*
D10*
%TO.C,BT1*%
X132278181Y-99314000D03*
D11*
X134818181Y-99314000D03*
%TD*%
D12*
%TO.C,D1*%
X118364000Y-105791000D03*
D13*
X115824000Y-105791000D03*
%TD*%
D14*
%TO.C,D2*%
X128270000Y-105791000D03*
D15*
X138430000Y-105791000D03*
%TD*%
D13*
%TO.C,D3*%
X151257000Y-105791000D03*
D12*
X148717000Y-105791000D03*
%TD*%
D16*
%TO.C,H1*%
X91059000Y-99314000D03*
%TD*%
%TO.C,H2*%
X176037362Y-99314000D03*
%TD*%
%TO.C,H3*%
X91059000Y-122864882D03*
%TD*%
%TO.C,H4*%
X176037362Y-122864882D03*
%TD*%
D11*
%TO.C,J1*%
X91694000Y-108458000D03*
D10*
X91694000Y-110998000D03*
X91694000Y-113538000D03*
%TD*%
D11*
%TO.C,J2*%
X175387000Y-109819441D03*
D10*
X175387000Y-112359441D03*
%TD*%
D11*
%TO.C,J3*%
X108628181Y-100584000D03*
D10*
X106088181Y-100584000D03*
X103548181Y-100584000D03*
X101008181Y-100584000D03*
X98468181Y-100584000D03*
%TD*%
%TO.C,J4*%
X158115000Y-100584000D03*
X160655000Y-100584000D03*
X163195000Y-100584000D03*
X165735000Y-100584000D03*
D11*
X168275000Y-100584000D03*
%TD*%
D17*
%TO.C,R1*%
X117094000Y-110236000D03*
D18*
X117094000Y-120396000D03*
%TD*%
%TO.C,R2*%
X149987000Y-120396000D03*
D17*
X149987000Y-110236000D03*
%TD*%
D19*
%TO.C,S1*%
X98249741Y-106291381D03*
X98249741Y-111089441D03*
X98249741Y-115887501D03*
X103548181Y-106291381D03*
X103548181Y-111089441D03*
X103548181Y-115887501D03*
X108846621Y-106291381D03*
X108846621Y-111089441D03*
X108846621Y-115887501D03*
%TD*%
%TO.C,S2*%
X168846621Y-115887501D03*
X168846621Y-111089441D03*
X168846621Y-106291381D03*
X163548181Y-115887501D03*
X163548181Y-111089441D03*
X163548181Y-106291381D03*
X158249741Y-115887501D03*
X158249741Y-111089441D03*
X158249741Y-106291381D03*
%TD*%
M02*
