G04 #@! TF.GenerationSoftware,KiCad,Pcbnew,(5.1.7)-1*
G04 #@! TF.CreationDate,2022-04-04T18:23:48-05:00*
G04 #@! TF.ProjectId,ConsolePedalSide,436f6e73-6f6c-4655-9065-64616c536964,rev?*
G04 #@! TF.SameCoordinates,Original*
G04 #@! TF.FileFunction,Copper,L2,Bot*
G04 #@! TF.FilePolarity,Positive*
%FSLAX46Y46*%
G04 Gerber Fmt 4.6, Leading zero omitted, Abs format (unit mm)*
G04 Created by KiCad (PCBNEW (5.1.7)-1) date 2022-04-04 18:23:48*
%MOMM*%
%LPD*%
G01*
G04 APERTURE LIST*
G04 #@! TA.AperFunction,ComponentPad*
%ADD10C,3.500000*%
G04 #@! TD*
G04 #@! TA.AperFunction,ComponentPad*
%ADD11O,1.700000X1.700000*%
G04 #@! TD*
G04 #@! TA.AperFunction,ComponentPad*
%ADD12R,1.700000X1.700000*%
G04 #@! TD*
G04 #@! TA.AperFunction,ComponentPad*
%ADD13C,1.800000*%
G04 #@! TD*
G04 #@! TA.AperFunction,ComponentPad*
%ADD14R,1.800000X1.800000*%
G04 #@! TD*
G04 #@! TA.AperFunction,ComponentPad*
%ADD15O,2.200000X2.200000*%
G04 #@! TD*
G04 #@! TA.AperFunction,ComponentPad*
%ADD16R,2.200000X2.200000*%
G04 #@! TD*
G04 #@! TA.AperFunction,ComponentPad*
%ADD17C,5.000000*%
G04 #@! TD*
G04 #@! TA.AperFunction,ComponentPad*
%ADD18O,1.600000X1.600000*%
G04 #@! TD*
G04 #@! TA.AperFunction,ComponentPad*
%ADD19C,1.600000*%
G04 #@! TD*
G04 #@! TA.AperFunction,ViaPad*
%ADD20C,0.800000*%
G04 #@! TD*
G04 #@! TA.AperFunction,Conductor*
%ADD21C,0.500000*%
G04 #@! TD*
G04 #@! TA.AperFunction,Conductor*
%ADD22C,0.254000*%
G04 #@! TD*
G04 #@! TA.AperFunction,Conductor*
%ADD23C,0.100000*%
G04 #@! TD*
G04 APERTURE END LIST*
D10*
G04 #@! TO.P,S2,P$9*
G04 #@! TO.N,/SlotBLED*
X168846621Y-115887501D03*
G04 #@! TO.P,S2,P$8*
G04 #@! TO.N,+9V*
X168846621Y-111089441D03*
G04 #@! TO.P,S2,P$7*
G04 #@! TO.N,N/C*
X168846621Y-106291381D03*
G04 #@! TO.P,S2,P$6*
G04 #@! TO.N,/SlotBOutput*
X163548181Y-115887501D03*
G04 #@! TO.P,S2,P$5*
G04 #@! TO.N,Net-(J2-Pad1)*
X163548181Y-111089441D03*
G04 #@! TO.P,S2,P$4*
G04 #@! TO.N,Net-(S2-PadP$1)*
X163548181Y-106291381D03*
G04 #@! TO.P,S2,P$3*
G04 #@! TO.N,/SlotBInput*
X158249741Y-115887501D03*
G04 #@! TO.P,S2,P$2*
G04 #@! TO.N,Net-(S1-PadP$5)*
X158249741Y-111089441D03*
G04 #@! TO.P,S2,P$1*
G04 #@! TO.N,Net-(S2-PadP$1)*
X158249741Y-106291381D03*
G04 #@! TD*
G04 #@! TO.P,S1,P$9*
G04 #@! TO.N,/SlotALED*
X108846621Y-115887501D03*
G04 #@! TO.P,S1,P$8*
G04 #@! TO.N,+9V*
X108846621Y-111089441D03*
G04 #@! TO.P,S1,P$7*
G04 #@! TO.N,N/C*
X108846621Y-106291381D03*
G04 #@! TO.P,S1,P$6*
G04 #@! TO.N,/SlotAOutput*
X103548181Y-115887501D03*
G04 #@! TO.P,S1,P$5*
G04 #@! TO.N,Net-(S1-PadP$5)*
X103548181Y-111089441D03*
G04 #@! TO.P,S1,P$4*
G04 #@! TO.N,Net-(S1-PadP$1)*
X103548181Y-106291381D03*
G04 #@! TO.P,S1,P$3*
G04 #@! TO.N,/SlotAInput*
X98249741Y-115887501D03*
G04 #@! TO.P,S1,P$2*
G04 #@! TO.N,Net-(J1-Pad3)*
X98249741Y-111089441D03*
G04 #@! TO.P,S1,P$1*
G04 #@! TO.N,Net-(S1-PadP$1)*
X98249741Y-106291381D03*
G04 #@! TD*
D11*
G04 #@! TO.P,BT1,2*
G04 #@! TO.N,Net-(BT1-Pad2)*
X132278181Y-99314000D03*
D12*
G04 #@! TO.P,BT1,1*
G04 #@! TO.N,Net-(BT1-Pad1)*
X134818181Y-99314000D03*
G04 #@! TD*
D13*
G04 #@! TO.P,D1,2*
G04 #@! TO.N,/SlotALED*
X117094000Y-107061000D03*
D14*
G04 #@! TO.P,D1,1*
G04 #@! TO.N,Net-(D1-Pad1)*
X117094000Y-104521000D03*
G04 #@! TD*
D15*
G04 #@! TO.P,D2,2*
G04 #@! TO.N,Net-(BT1-Pad1)*
X138430000Y-105791000D03*
D16*
G04 #@! TO.P,D2,1*
G04 #@! TO.N,+9V*
X128270000Y-105791000D03*
G04 #@! TD*
D13*
G04 #@! TO.P,D3,2*
G04 #@! TO.N,/SlotBLED*
X149987000Y-107061000D03*
D14*
G04 #@! TO.P,D3,1*
G04 #@! TO.N,Net-(D3-Pad1)*
X149987000Y-104521000D03*
G04 #@! TD*
D17*
G04 #@! TO.P,H1,1*
G04 #@! TO.N,GND*
X91059000Y-99314000D03*
G04 #@! TD*
G04 #@! TO.P,H2,1*
G04 #@! TO.N,GND*
X176037362Y-99314000D03*
G04 #@! TD*
G04 #@! TO.P,H3,1*
G04 #@! TO.N,GND*
X91059000Y-122864882D03*
G04 #@! TD*
G04 #@! TO.P,H4,1*
G04 #@! TO.N,GND*
X176037362Y-122864882D03*
G04 #@! TD*
D11*
G04 #@! TO.P,J1,3*
G04 #@! TO.N,Net-(J1-Pad3)*
X175387000Y-113538000D03*
G04 #@! TO.P,J1,2*
G04 #@! TO.N,Net-(BT1-Pad2)*
X175387000Y-110998000D03*
D12*
G04 #@! TO.P,J1,1*
G04 #@! TO.N,GND*
X175387000Y-108458000D03*
G04 #@! TD*
D11*
G04 #@! TO.P,J2,2*
G04 #@! TO.N,GND*
X91694000Y-112359441D03*
D12*
G04 #@! TO.P,J2,1*
G04 #@! TO.N,Net-(J2-Pad1)*
X91694000Y-109819441D03*
G04 #@! TD*
D11*
G04 #@! TO.P,J3,5*
G04 #@! TO.N,GND*
X98468181Y-100584000D03*
G04 #@! TO.P,J3,4*
G04 #@! TO.N,/SlotAInput*
X101008181Y-100584000D03*
G04 #@! TO.P,J3,3*
G04 #@! TO.N,/SlotAOutput*
X103548181Y-100584000D03*
G04 #@! TO.P,J3,2*
G04 #@! TO.N,+9V*
X106088181Y-100584000D03*
D12*
G04 #@! TO.P,J3,1*
G04 #@! TO.N,/SlotALED*
X108628181Y-100584000D03*
G04 #@! TD*
D11*
G04 #@! TO.P,J4,5*
G04 #@! TO.N,GND*
X158115000Y-100584000D03*
G04 #@! TO.P,J4,4*
G04 #@! TO.N,/SlotBInput*
X160655000Y-100584000D03*
G04 #@! TO.P,J4,3*
G04 #@! TO.N,/SlotBOutput*
X163195000Y-100584000D03*
G04 #@! TO.P,J4,2*
G04 #@! TO.N,+9V*
X165735000Y-100584000D03*
D12*
G04 #@! TO.P,J4,1*
G04 #@! TO.N,/SlotBLED*
X168275000Y-100584000D03*
G04 #@! TD*
D18*
G04 #@! TO.P,R1,2*
G04 #@! TO.N,GND*
X117094000Y-120396000D03*
D19*
G04 #@! TO.P,R1,1*
G04 #@! TO.N,Net-(D1-Pad1)*
X117094000Y-110236000D03*
G04 #@! TD*
D18*
G04 #@! TO.P,R2,2*
G04 #@! TO.N,GND*
X149987000Y-120396000D03*
D19*
G04 #@! TO.P,R2,1*
G04 #@! TO.N,Net-(D3-Pad1)*
X149987000Y-110236000D03*
G04 #@! TD*
D20*
G04 #@! TO.N,Net-(J1-Pad3)*
X150368000Y-114554000D03*
G04 #@! TD*
D21*
G04 #@! TO.N,+9V*
X125075001Y-108985999D02*
X128270000Y-105791000D01*
X110950063Y-108985999D02*
X125075001Y-108985999D01*
X108846621Y-111089441D02*
X110950063Y-108985999D01*
G04 #@! TO.N,/SlotBLED*
X157490999Y-99283999D02*
X166974999Y-99283999D01*
X154907133Y-101867865D02*
X157490999Y-99283999D01*
X154907133Y-102140867D02*
X154907133Y-101867865D01*
X166974999Y-99283999D02*
X168275000Y-100584000D01*
X149987000Y-107061000D02*
X154907133Y-102140867D01*
G04 #@! TO.N,Net-(J1-Pad3)*
X150368000Y-114554000D02*
X151638000Y-114554000D01*
X151638000Y-114554000D02*
X159004000Y-121920000D01*
X159004000Y-121920000D02*
X169672000Y-121920000D01*
X175387000Y-116205000D02*
X175387000Y-113538000D01*
X169672000Y-121920000D02*
X175387000Y-116205000D01*
G04 #@! TO.N,/SlotAInput*
X100701120Y-100584000D02*
X101008181Y-100584000D01*
X96049740Y-105235380D02*
X100701120Y-100584000D01*
X96049740Y-113687500D02*
X96049740Y-105235380D01*
X98249741Y-115887501D02*
X96049740Y-113687500D01*
G04 #@! TO.N,/SlotBOutput*
X161348180Y-113687500D02*
X163548181Y-115887501D01*
X161348180Y-102430820D02*
X161348180Y-113687500D01*
X163195000Y-100584000D02*
X161348180Y-102430820D01*
G04 #@! TD*
D22*
G04 #@! TO.N,GND*
X176661095Y-96163922D02*
X177261070Y-96345065D01*
X177814431Y-96639293D01*
X178300107Y-97035400D01*
X178699598Y-97518301D01*
X178997681Y-98069594D01*
X179183009Y-98668291D01*
X179252363Y-99328152D01*
X179252362Y-122826485D01*
X179187440Y-123488615D01*
X179006297Y-124088588D01*
X178712068Y-124641953D01*
X178315958Y-125127631D01*
X177833061Y-125527117D01*
X177281764Y-125825203D01*
X176683070Y-126010529D01*
X176023221Y-126079882D01*
X91097397Y-126079882D01*
X90435267Y-126014960D01*
X89835294Y-125833817D01*
X89281929Y-125539588D01*
X88796251Y-125143478D01*
X88733836Y-125068030D01*
X89035457Y-125068030D01*
X89311627Y-125486000D01*
X89856557Y-125776531D01*
X90447696Y-125955169D01*
X91062328Y-126015050D01*
X91676831Y-125953872D01*
X92267592Y-125773985D01*
X92806373Y-125486000D01*
X93082543Y-125068030D01*
X174013819Y-125068030D01*
X174289989Y-125486000D01*
X174834919Y-125776531D01*
X175426058Y-125955169D01*
X176040690Y-126015050D01*
X176655193Y-125953872D01*
X177245954Y-125773985D01*
X177784735Y-125486000D01*
X178060905Y-125068030D01*
X176037362Y-123044487D01*
X174013819Y-125068030D01*
X93082543Y-125068030D01*
X91059000Y-123044487D01*
X89035457Y-125068030D01*
X88733836Y-125068030D01*
X88396765Y-124660581D01*
X88098679Y-124109284D01*
X87913353Y-123510590D01*
X87845837Y-122868210D01*
X87908832Y-122868210D01*
X87970010Y-123482713D01*
X88149897Y-124073474D01*
X88437882Y-124612255D01*
X88855852Y-124888425D01*
X90879395Y-122864882D01*
X91238605Y-122864882D01*
X93262148Y-124888425D01*
X93680118Y-124612255D01*
X93970649Y-124067325D01*
X94149287Y-123476186D01*
X94208519Y-122868210D01*
X172887194Y-122868210D01*
X172948372Y-123482713D01*
X173128259Y-124073474D01*
X173416244Y-124612255D01*
X173834214Y-124888425D01*
X175857757Y-122864882D01*
X176216967Y-122864882D01*
X178240510Y-124888425D01*
X178658480Y-124612255D01*
X178949011Y-124067325D01*
X179127649Y-123476186D01*
X179187530Y-122861554D01*
X179126352Y-122247051D01*
X178946465Y-121656290D01*
X178658480Y-121117509D01*
X178240510Y-120841339D01*
X176216967Y-122864882D01*
X175857757Y-122864882D01*
X173834214Y-120841339D01*
X173416244Y-121117509D01*
X173125713Y-121662439D01*
X172947075Y-122253578D01*
X172887194Y-122868210D01*
X94208519Y-122868210D01*
X94209168Y-122861554D01*
X94147990Y-122247051D01*
X93968103Y-121656290D01*
X93680118Y-121117509D01*
X93262148Y-120841339D01*
X91238605Y-122864882D01*
X90879395Y-122864882D01*
X88855852Y-120841339D01*
X88437882Y-121117509D01*
X88147351Y-121662439D01*
X87968713Y-122253578D01*
X87908832Y-122868210D01*
X87845837Y-122868210D01*
X87844000Y-122850741D01*
X87844000Y-120661734D01*
X89035457Y-120661734D01*
X91059000Y-122685277D01*
X92999237Y-120745040D01*
X115702091Y-120745040D01*
X115796930Y-121009881D01*
X115941615Y-121251131D01*
X116130586Y-121459519D01*
X116356580Y-121627037D01*
X116610913Y-121747246D01*
X116744961Y-121787904D01*
X116967000Y-121665915D01*
X116967000Y-120523000D01*
X117221000Y-120523000D01*
X117221000Y-121665915D01*
X117443039Y-121787904D01*
X117577087Y-121747246D01*
X117831420Y-121627037D01*
X118057414Y-121459519D01*
X118246385Y-121251131D01*
X118391070Y-121009881D01*
X118485909Y-120745040D01*
X148595091Y-120745040D01*
X148689930Y-121009881D01*
X148834615Y-121251131D01*
X149023586Y-121459519D01*
X149249580Y-121627037D01*
X149503913Y-121747246D01*
X149637961Y-121787904D01*
X149860000Y-121665915D01*
X149860000Y-120523000D01*
X150114000Y-120523000D01*
X150114000Y-121665915D01*
X150336039Y-121787904D01*
X150470087Y-121747246D01*
X150724420Y-121627037D01*
X150950414Y-121459519D01*
X151139385Y-121251131D01*
X151284070Y-121009881D01*
X151378909Y-120745040D01*
X151257624Y-120523000D01*
X150114000Y-120523000D01*
X149860000Y-120523000D01*
X148716376Y-120523000D01*
X148595091Y-120745040D01*
X118485909Y-120745040D01*
X118364624Y-120523000D01*
X117221000Y-120523000D01*
X116967000Y-120523000D01*
X115823376Y-120523000D01*
X115702091Y-120745040D01*
X92999237Y-120745040D01*
X93082543Y-120661734D01*
X92806373Y-120243764D01*
X92437241Y-120046960D01*
X115702091Y-120046960D01*
X115823376Y-120269000D01*
X116967000Y-120269000D01*
X116967000Y-119126085D01*
X117221000Y-119126085D01*
X117221000Y-120269000D01*
X118364624Y-120269000D01*
X118485909Y-120046960D01*
X148595091Y-120046960D01*
X148716376Y-120269000D01*
X149860000Y-120269000D01*
X149860000Y-119126085D01*
X150114000Y-119126085D01*
X150114000Y-120269000D01*
X151257624Y-120269000D01*
X151378909Y-120046960D01*
X151284070Y-119782119D01*
X151139385Y-119540869D01*
X150950414Y-119332481D01*
X150724420Y-119164963D01*
X150470087Y-119044754D01*
X150336039Y-119004096D01*
X150114000Y-119126085D01*
X149860000Y-119126085D01*
X149637961Y-119004096D01*
X149503913Y-119044754D01*
X149249580Y-119164963D01*
X149023586Y-119332481D01*
X148834615Y-119540869D01*
X148689930Y-119782119D01*
X148595091Y-120046960D01*
X118485909Y-120046960D01*
X118391070Y-119782119D01*
X118246385Y-119540869D01*
X118057414Y-119332481D01*
X117831420Y-119164963D01*
X117577087Y-119044754D01*
X117443039Y-119004096D01*
X117221000Y-119126085D01*
X116967000Y-119126085D01*
X116744961Y-119004096D01*
X116610913Y-119044754D01*
X116356580Y-119164963D01*
X116130586Y-119332481D01*
X115941615Y-119540869D01*
X115796930Y-119782119D01*
X115702091Y-120046960D01*
X92437241Y-120046960D01*
X92261443Y-119953233D01*
X91670304Y-119774595D01*
X91055672Y-119714714D01*
X90441169Y-119775892D01*
X89850408Y-119955779D01*
X89311627Y-120243764D01*
X89035457Y-120661734D01*
X87844000Y-120661734D01*
X87844000Y-112716331D01*
X90252524Y-112716331D01*
X90297175Y-112863540D01*
X90422359Y-113126361D01*
X90596412Y-113359710D01*
X90812645Y-113554619D01*
X91062748Y-113703598D01*
X91337109Y-113800922D01*
X91567000Y-113680255D01*
X91567000Y-112486441D01*
X91821000Y-112486441D01*
X91821000Y-113680255D01*
X92050891Y-113800922D01*
X92325252Y-113703598D01*
X92575355Y-113554619D01*
X92791588Y-113359710D01*
X92965641Y-113126361D01*
X93090825Y-112863540D01*
X93135476Y-112716331D01*
X93014155Y-112486441D01*
X91821000Y-112486441D01*
X91567000Y-112486441D01*
X90373845Y-112486441D01*
X90252524Y-112716331D01*
X87844000Y-112716331D01*
X87844000Y-108969441D01*
X90205928Y-108969441D01*
X90205928Y-110669441D01*
X90218188Y-110793923D01*
X90254498Y-110913621D01*
X90313463Y-111023935D01*
X90392815Y-111120626D01*
X90489506Y-111199978D01*
X90599820Y-111258943D01*
X90680466Y-111283407D01*
X90596412Y-111359172D01*
X90422359Y-111592521D01*
X90297175Y-111855342D01*
X90252524Y-112002551D01*
X90373845Y-112232441D01*
X91567000Y-112232441D01*
X91567000Y-112212441D01*
X91821000Y-112212441D01*
X91821000Y-112232441D01*
X93014155Y-112232441D01*
X93135476Y-112002551D01*
X93090825Y-111855342D01*
X92965641Y-111592521D01*
X92791588Y-111359172D01*
X92707534Y-111283407D01*
X92788180Y-111258943D01*
X92898494Y-111199978D01*
X92995185Y-111120626D01*
X93074537Y-111023935D01*
X93133502Y-110913621D01*
X93169812Y-110793923D01*
X93182072Y-110669441D01*
X93182072Y-108969441D01*
X93169812Y-108844959D01*
X93133502Y-108725261D01*
X93074537Y-108614947D01*
X92995185Y-108518256D01*
X92898494Y-108438904D01*
X92788180Y-108379939D01*
X92668482Y-108343629D01*
X92544000Y-108331369D01*
X90844000Y-108331369D01*
X90719518Y-108343629D01*
X90599820Y-108379939D01*
X90489506Y-108438904D01*
X90392815Y-108518256D01*
X90313463Y-108614947D01*
X90254498Y-108725261D01*
X90218188Y-108844959D01*
X90205928Y-108969441D01*
X87844000Y-108969441D01*
X87844000Y-105235380D01*
X95160459Y-105235380D01*
X95164741Y-105278859D01*
X95164740Y-113644031D01*
X95160459Y-113687500D01*
X95164740Y-113730969D01*
X95164740Y-113730976D01*
X95177545Y-113860989D01*
X95228151Y-114027812D01*
X95310329Y-114181558D01*
X95420923Y-114316317D01*
X95454696Y-114344034D01*
X96057762Y-114947100D01*
X95956395Y-115191822D01*
X95864741Y-115652599D01*
X95864741Y-116122403D01*
X95956395Y-116583180D01*
X96136181Y-117017222D01*
X96397191Y-117407850D01*
X96729392Y-117740051D01*
X97120020Y-118001061D01*
X97554062Y-118180847D01*
X98014839Y-118272501D01*
X98484643Y-118272501D01*
X98945420Y-118180847D01*
X99379462Y-118001061D01*
X99770090Y-117740051D01*
X100102291Y-117407850D01*
X100363301Y-117017222D01*
X100543087Y-116583180D01*
X100634741Y-116122403D01*
X100634741Y-115652599D01*
X101163181Y-115652599D01*
X101163181Y-116122403D01*
X101254835Y-116583180D01*
X101434621Y-117017222D01*
X101695631Y-117407850D01*
X102027832Y-117740051D01*
X102418460Y-118001061D01*
X102852502Y-118180847D01*
X103313279Y-118272501D01*
X103783083Y-118272501D01*
X104243860Y-118180847D01*
X104677902Y-118001061D01*
X105068530Y-117740051D01*
X105400731Y-117407850D01*
X105661741Y-117017222D01*
X105841527Y-116583180D01*
X105933181Y-116122403D01*
X105933181Y-115652599D01*
X106461621Y-115652599D01*
X106461621Y-116122403D01*
X106553275Y-116583180D01*
X106733061Y-117017222D01*
X106994071Y-117407850D01*
X107326272Y-117740051D01*
X107716900Y-118001061D01*
X108150942Y-118180847D01*
X108611719Y-118272501D01*
X109081523Y-118272501D01*
X109542300Y-118180847D01*
X109976342Y-118001061D01*
X110366970Y-117740051D01*
X110699171Y-117407850D01*
X110960181Y-117017222D01*
X111139967Y-116583180D01*
X111231621Y-116122403D01*
X111231621Y-115652599D01*
X111139967Y-115191822D01*
X110960181Y-114757780D01*
X110755906Y-114452061D01*
X149333000Y-114452061D01*
X149333000Y-114655939D01*
X149372774Y-114855898D01*
X149450795Y-115044256D01*
X149564063Y-115213774D01*
X149708226Y-115357937D01*
X149877744Y-115471205D01*
X150066102Y-115549226D01*
X150266061Y-115589000D01*
X150469939Y-115589000D01*
X150669898Y-115549226D01*
X150858256Y-115471205D01*
X150906454Y-115439000D01*
X151271422Y-115439000D01*
X158347470Y-122515049D01*
X158375183Y-122548817D01*
X158408951Y-122576530D01*
X158408953Y-122576532D01*
X158471083Y-122627521D01*
X158509941Y-122659411D01*
X158663687Y-122741589D01*
X158830510Y-122792195D01*
X158960523Y-122805000D01*
X158960533Y-122805000D01*
X159003999Y-122809281D01*
X159047465Y-122805000D01*
X169628531Y-122805000D01*
X169672000Y-122809281D01*
X169715469Y-122805000D01*
X169715477Y-122805000D01*
X169845490Y-122792195D01*
X170012313Y-122741589D01*
X170166059Y-122659411D01*
X170300817Y-122548817D01*
X170328534Y-122515044D01*
X172181844Y-120661734D01*
X174013819Y-120661734D01*
X176037362Y-122685277D01*
X178060905Y-120661734D01*
X177784735Y-120243764D01*
X177239805Y-119953233D01*
X176648666Y-119774595D01*
X176034034Y-119714714D01*
X175419531Y-119775892D01*
X174828770Y-119955779D01*
X174289989Y-120243764D01*
X174013819Y-120661734D01*
X172181844Y-120661734D01*
X175982051Y-116861528D01*
X176015817Y-116833817D01*
X176126411Y-116699059D01*
X176126412Y-116699058D01*
X176208589Y-116545314D01*
X176259195Y-116378490D01*
X176259195Y-116378489D01*
X176272000Y-116248477D01*
X176272000Y-116248469D01*
X176276281Y-116205000D01*
X176272000Y-116161531D01*
X176272000Y-114732656D01*
X176333632Y-114691475D01*
X176540475Y-114484632D01*
X176702990Y-114241411D01*
X176814932Y-113971158D01*
X176872000Y-113684260D01*
X176872000Y-113391740D01*
X176814932Y-113104842D01*
X176702990Y-112834589D01*
X176540475Y-112591368D01*
X176333632Y-112384525D01*
X176159240Y-112268000D01*
X176333632Y-112151475D01*
X176540475Y-111944632D01*
X176702990Y-111701411D01*
X176814932Y-111431158D01*
X176872000Y-111144260D01*
X176872000Y-110851740D01*
X176814932Y-110564842D01*
X176702990Y-110294589D01*
X176540475Y-110051368D01*
X176408620Y-109919513D01*
X176481180Y-109897502D01*
X176591494Y-109838537D01*
X176688185Y-109759185D01*
X176767537Y-109662494D01*
X176826502Y-109552180D01*
X176862812Y-109432482D01*
X176875072Y-109308000D01*
X176872000Y-108743750D01*
X176713250Y-108585000D01*
X175514000Y-108585000D01*
X175514000Y-108605000D01*
X175260000Y-108605000D01*
X175260000Y-108585000D01*
X174060750Y-108585000D01*
X173902000Y-108743750D01*
X173898928Y-109308000D01*
X173911188Y-109432482D01*
X173947498Y-109552180D01*
X174006463Y-109662494D01*
X174085815Y-109759185D01*
X174182506Y-109838537D01*
X174292820Y-109897502D01*
X174365380Y-109919513D01*
X174233525Y-110051368D01*
X174071010Y-110294589D01*
X173959068Y-110564842D01*
X173902000Y-110851740D01*
X173902000Y-111144260D01*
X173959068Y-111431158D01*
X174071010Y-111701411D01*
X174233525Y-111944632D01*
X174440368Y-112151475D01*
X174614760Y-112268000D01*
X174440368Y-112384525D01*
X174233525Y-112591368D01*
X174071010Y-112834589D01*
X173959068Y-113104842D01*
X173902000Y-113391740D01*
X173902000Y-113684260D01*
X173959068Y-113971158D01*
X174071010Y-114241411D01*
X174233525Y-114484632D01*
X174440368Y-114691475D01*
X174502001Y-114732657D01*
X174502000Y-115838421D01*
X169305422Y-121035000D01*
X159370579Y-121035000D01*
X153988178Y-115652599D01*
X155864741Y-115652599D01*
X155864741Y-116122403D01*
X155956395Y-116583180D01*
X156136181Y-117017222D01*
X156397191Y-117407850D01*
X156729392Y-117740051D01*
X157120020Y-118001061D01*
X157554062Y-118180847D01*
X158014839Y-118272501D01*
X158484643Y-118272501D01*
X158945420Y-118180847D01*
X159379462Y-118001061D01*
X159770090Y-117740051D01*
X160102291Y-117407850D01*
X160363301Y-117017222D01*
X160543087Y-116583180D01*
X160634741Y-116122403D01*
X160634741Y-115652599D01*
X160543087Y-115191822D01*
X160363301Y-114757780D01*
X160102291Y-114367152D01*
X159770090Y-114034951D01*
X159379462Y-113773941D01*
X158945420Y-113594155D01*
X158484643Y-113502501D01*
X158014839Y-113502501D01*
X157554062Y-113594155D01*
X157120020Y-113773941D01*
X156729392Y-114034951D01*
X156397191Y-114367152D01*
X156136181Y-114757780D01*
X155956395Y-115191822D01*
X155864741Y-115652599D01*
X153988178Y-115652599D01*
X152294534Y-113958956D01*
X152266817Y-113925183D01*
X152132059Y-113814589D01*
X151978313Y-113732411D01*
X151811490Y-113681805D01*
X151681477Y-113669000D01*
X151681469Y-113669000D01*
X151638000Y-113664719D01*
X151594531Y-113669000D01*
X150906454Y-113669000D01*
X150858256Y-113636795D01*
X150669898Y-113558774D01*
X150469939Y-113519000D01*
X150266061Y-113519000D01*
X150066102Y-113558774D01*
X149877744Y-113636795D01*
X149708226Y-113750063D01*
X149564063Y-113894226D01*
X149450795Y-114063744D01*
X149372774Y-114252102D01*
X149333000Y-114452061D01*
X110755906Y-114452061D01*
X110699171Y-114367152D01*
X110366970Y-114034951D01*
X109976342Y-113773941D01*
X109542300Y-113594155D01*
X109081523Y-113502501D01*
X108611719Y-113502501D01*
X108150942Y-113594155D01*
X107716900Y-113773941D01*
X107326272Y-114034951D01*
X106994071Y-114367152D01*
X106733061Y-114757780D01*
X106553275Y-115191822D01*
X106461621Y-115652599D01*
X105933181Y-115652599D01*
X105841527Y-115191822D01*
X105661741Y-114757780D01*
X105400731Y-114367152D01*
X105068530Y-114034951D01*
X104677902Y-113773941D01*
X104243860Y-113594155D01*
X103783083Y-113502501D01*
X103313279Y-113502501D01*
X102852502Y-113594155D01*
X102418460Y-113773941D01*
X102027832Y-114034951D01*
X101695631Y-114367152D01*
X101434621Y-114757780D01*
X101254835Y-115191822D01*
X101163181Y-115652599D01*
X100634741Y-115652599D01*
X100543087Y-115191822D01*
X100363301Y-114757780D01*
X100102291Y-114367152D01*
X99770090Y-114034951D01*
X99379462Y-113773941D01*
X98945420Y-113594155D01*
X98484643Y-113502501D01*
X98014839Y-113502501D01*
X97554062Y-113594155D01*
X97309340Y-113695522D01*
X96934740Y-113320922D01*
X96934740Y-113079201D01*
X97120020Y-113203001D01*
X97554062Y-113382787D01*
X98014839Y-113474441D01*
X98484643Y-113474441D01*
X98945420Y-113382787D01*
X99379462Y-113203001D01*
X99770090Y-112941991D01*
X100102291Y-112609790D01*
X100363301Y-112219162D01*
X100543087Y-111785120D01*
X100634741Y-111324343D01*
X100634741Y-110854539D01*
X101163181Y-110854539D01*
X101163181Y-111324343D01*
X101254835Y-111785120D01*
X101434621Y-112219162D01*
X101695631Y-112609790D01*
X102027832Y-112941991D01*
X102418460Y-113203001D01*
X102852502Y-113382787D01*
X103313279Y-113474441D01*
X103783083Y-113474441D01*
X104243860Y-113382787D01*
X104677902Y-113203001D01*
X105068530Y-112941991D01*
X105400731Y-112609790D01*
X105661741Y-112219162D01*
X105841527Y-111785120D01*
X105933181Y-111324343D01*
X105933181Y-110854539D01*
X106461621Y-110854539D01*
X106461621Y-111324343D01*
X106553275Y-111785120D01*
X106733061Y-112219162D01*
X106994071Y-112609790D01*
X107326272Y-112941991D01*
X107716900Y-113203001D01*
X108150942Y-113382787D01*
X108611719Y-113474441D01*
X109081523Y-113474441D01*
X109542300Y-113382787D01*
X109976342Y-113203001D01*
X110366970Y-112941991D01*
X110699171Y-112609790D01*
X110960181Y-112219162D01*
X111139967Y-111785120D01*
X111231621Y-111324343D01*
X111231621Y-110854539D01*
X111139967Y-110393762D01*
X111038600Y-110149041D01*
X111316642Y-109870999D01*
X115703491Y-109870999D01*
X115659000Y-110094665D01*
X115659000Y-110377335D01*
X115714147Y-110654574D01*
X115822320Y-110915727D01*
X115979363Y-111150759D01*
X116179241Y-111350637D01*
X116414273Y-111507680D01*
X116675426Y-111615853D01*
X116952665Y-111671000D01*
X117235335Y-111671000D01*
X117512574Y-111615853D01*
X117773727Y-111507680D01*
X118008759Y-111350637D01*
X118208637Y-111150759D01*
X118365680Y-110915727D01*
X118473853Y-110654574D01*
X118529000Y-110377335D01*
X118529000Y-110094665D01*
X148552000Y-110094665D01*
X148552000Y-110377335D01*
X148607147Y-110654574D01*
X148715320Y-110915727D01*
X148872363Y-111150759D01*
X149072241Y-111350637D01*
X149307273Y-111507680D01*
X149568426Y-111615853D01*
X149845665Y-111671000D01*
X150128335Y-111671000D01*
X150405574Y-111615853D01*
X150666727Y-111507680D01*
X150901759Y-111350637D01*
X151101637Y-111150759D01*
X151258680Y-110915727D01*
X151366853Y-110654574D01*
X151422000Y-110377335D01*
X151422000Y-110094665D01*
X151366853Y-109817426D01*
X151258680Y-109556273D01*
X151101637Y-109321241D01*
X150901759Y-109121363D01*
X150666727Y-108964320D01*
X150405574Y-108856147D01*
X150128335Y-108801000D01*
X149845665Y-108801000D01*
X149568426Y-108856147D01*
X149307273Y-108964320D01*
X149072241Y-109121363D01*
X148872363Y-109321241D01*
X148715320Y-109556273D01*
X148607147Y-109817426D01*
X148552000Y-110094665D01*
X118529000Y-110094665D01*
X118484509Y-109870999D01*
X125031532Y-109870999D01*
X125075001Y-109875280D01*
X125118470Y-109870999D01*
X125118478Y-109870999D01*
X125248491Y-109858194D01*
X125415314Y-109807588D01*
X125569060Y-109725410D01*
X125703818Y-109614816D01*
X125731535Y-109581043D01*
X127783507Y-107529072D01*
X129370000Y-107529072D01*
X129494482Y-107516812D01*
X129614180Y-107480502D01*
X129724494Y-107421537D01*
X129821185Y-107342185D01*
X129900537Y-107245494D01*
X129959502Y-107135180D01*
X129995812Y-107015482D01*
X130008072Y-106891000D01*
X130008072Y-105620117D01*
X136695000Y-105620117D01*
X136695000Y-105961883D01*
X136761675Y-106297081D01*
X136892463Y-106612831D01*
X137082337Y-106896998D01*
X137324002Y-107138663D01*
X137608169Y-107328537D01*
X137923919Y-107459325D01*
X138259117Y-107526000D01*
X138600883Y-107526000D01*
X138936081Y-107459325D01*
X139251831Y-107328537D01*
X139535998Y-107138663D01*
X139777663Y-106896998D01*
X139967537Y-106612831D01*
X140098325Y-106297081D01*
X140165000Y-105961883D01*
X140165000Y-105620117D01*
X140098325Y-105284919D01*
X139967537Y-104969169D01*
X139777663Y-104685002D01*
X139535998Y-104443337D01*
X139251831Y-104253463D01*
X138936081Y-104122675D01*
X138600883Y-104056000D01*
X138259117Y-104056000D01*
X137923919Y-104122675D01*
X137608169Y-104253463D01*
X137324002Y-104443337D01*
X137082337Y-104685002D01*
X136892463Y-104969169D01*
X136761675Y-105284919D01*
X136695000Y-105620117D01*
X130008072Y-105620117D01*
X130008072Y-104691000D01*
X129995812Y-104566518D01*
X129959502Y-104446820D01*
X129900537Y-104336506D01*
X129821185Y-104239815D01*
X129724494Y-104160463D01*
X129614180Y-104101498D01*
X129494482Y-104065188D01*
X129370000Y-104052928D01*
X127170000Y-104052928D01*
X127045518Y-104065188D01*
X126925820Y-104101498D01*
X126815506Y-104160463D01*
X126718815Y-104239815D01*
X126639463Y-104336506D01*
X126580498Y-104446820D01*
X126544188Y-104566518D01*
X126531928Y-104691000D01*
X126531928Y-106277493D01*
X124708423Y-108100999D01*
X118224818Y-108100999D01*
X118286312Y-108039505D01*
X118454299Y-107788095D01*
X118570011Y-107508743D01*
X118629000Y-107212184D01*
X118629000Y-106909816D01*
X118570011Y-106613257D01*
X118454299Y-106333905D01*
X118286312Y-106082495D01*
X118219873Y-106016056D01*
X118238180Y-106010502D01*
X118348494Y-105951537D01*
X118445185Y-105872185D01*
X118524537Y-105775494D01*
X118583502Y-105665180D01*
X118619812Y-105545482D01*
X118632072Y-105421000D01*
X118632072Y-103621000D01*
X148448928Y-103621000D01*
X148448928Y-105421000D01*
X148461188Y-105545482D01*
X148497498Y-105665180D01*
X148556463Y-105775494D01*
X148635815Y-105872185D01*
X148732506Y-105951537D01*
X148842820Y-106010502D01*
X148861127Y-106016056D01*
X148794688Y-106082495D01*
X148626701Y-106333905D01*
X148510989Y-106613257D01*
X148452000Y-106909816D01*
X148452000Y-107212184D01*
X148510989Y-107508743D01*
X148626701Y-107788095D01*
X148794688Y-108039505D01*
X149008495Y-108253312D01*
X149259905Y-108421299D01*
X149539257Y-108537011D01*
X149835816Y-108596000D01*
X150138184Y-108596000D01*
X150434743Y-108537011D01*
X150714095Y-108421299D01*
X150965505Y-108253312D01*
X151179312Y-108039505D01*
X151347299Y-107788095D01*
X151463011Y-107508743D01*
X151522000Y-107212184D01*
X151522000Y-106909816D01*
X151500060Y-106799518D01*
X155502184Y-102797395D01*
X155535950Y-102769684D01*
X155601795Y-102689453D01*
X155646544Y-102634926D01*
X155728721Y-102481181D01*
X155728722Y-102481180D01*
X155779328Y-102314357D01*
X155786660Y-102239916D01*
X156785955Y-101240622D01*
X156919822Y-101465355D01*
X157114731Y-101681588D01*
X157348080Y-101855641D01*
X157610901Y-101980825D01*
X157758110Y-102025476D01*
X157988000Y-101904155D01*
X157988000Y-100711000D01*
X157968000Y-100711000D01*
X157968000Y-100457000D01*
X157988000Y-100457000D01*
X157988000Y-100437000D01*
X158242000Y-100437000D01*
X158242000Y-100457000D01*
X158262000Y-100457000D01*
X158262000Y-100711000D01*
X158242000Y-100711000D01*
X158242000Y-101904155D01*
X158471890Y-102025476D01*
X158619099Y-101980825D01*
X158881920Y-101855641D01*
X159115269Y-101681588D01*
X159310178Y-101465355D01*
X159379805Y-101348466D01*
X159501525Y-101530632D01*
X159708368Y-101737475D01*
X159951589Y-101899990D01*
X160221842Y-102011932D01*
X160508740Y-102069000D01*
X160538087Y-102069000D01*
X160526591Y-102090508D01*
X160475985Y-102257331D01*
X160463180Y-102387344D01*
X160463180Y-102387351D01*
X160458899Y-102430820D01*
X160463180Y-102474289D01*
X160463180Y-105402790D01*
X160363301Y-105161660D01*
X160102291Y-104771032D01*
X159770090Y-104438831D01*
X159379462Y-104177821D01*
X158945420Y-103998035D01*
X158484643Y-103906381D01*
X158014839Y-103906381D01*
X157554062Y-103998035D01*
X157120020Y-104177821D01*
X156729392Y-104438831D01*
X156397191Y-104771032D01*
X156136181Y-105161660D01*
X155956395Y-105595702D01*
X155864741Y-106056479D01*
X155864741Y-106526283D01*
X155956395Y-106987060D01*
X156136181Y-107421102D01*
X156397191Y-107811730D01*
X156729392Y-108143931D01*
X157120020Y-108404941D01*
X157554062Y-108584727D01*
X158014839Y-108676381D01*
X158484643Y-108676381D01*
X158945420Y-108584727D01*
X159379462Y-108404941D01*
X159770090Y-108143931D01*
X160102291Y-107811730D01*
X160363301Y-107421102D01*
X160463180Y-107179972D01*
X160463181Y-110200851D01*
X160363301Y-109959720D01*
X160102291Y-109569092D01*
X159770090Y-109236891D01*
X159379462Y-108975881D01*
X158945420Y-108796095D01*
X158484643Y-108704441D01*
X158014839Y-108704441D01*
X157554062Y-108796095D01*
X157120020Y-108975881D01*
X156729392Y-109236891D01*
X156397191Y-109569092D01*
X156136181Y-109959720D01*
X155956395Y-110393762D01*
X155864741Y-110854539D01*
X155864741Y-111324343D01*
X155956395Y-111785120D01*
X156136181Y-112219162D01*
X156397191Y-112609790D01*
X156729392Y-112941991D01*
X157120020Y-113203001D01*
X157554062Y-113382787D01*
X158014839Y-113474441D01*
X158484643Y-113474441D01*
X158945420Y-113382787D01*
X159379462Y-113203001D01*
X159770090Y-112941991D01*
X160102291Y-112609790D01*
X160363301Y-112219162D01*
X160463181Y-111978031D01*
X160463181Y-113644021D01*
X160458899Y-113687500D01*
X160475985Y-113860990D01*
X160526592Y-114027813D01*
X160608770Y-114181559D01*
X160691648Y-114282546D01*
X160691651Y-114282549D01*
X160719364Y-114316317D01*
X160753131Y-114344029D01*
X161356202Y-114947100D01*
X161254835Y-115191822D01*
X161163181Y-115652599D01*
X161163181Y-116122403D01*
X161254835Y-116583180D01*
X161434621Y-117017222D01*
X161695631Y-117407850D01*
X162027832Y-117740051D01*
X162418460Y-118001061D01*
X162852502Y-118180847D01*
X163313279Y-118272501D01*
X163783083Y-118272501D01*
X164243860Y-118180847D01*
X164677902Y-118001061D01*
X165068530Y-117740051D01*
X165400731Y-117407850D01*
X165661741Y-117017222D01*
X165841527Y-116583180D01*
X165933181Y-116122403D01*
X165933181Y-115652599D01*
X166461621Y-115652599D01*
X166461621Y-116122403D01*
X166553275Y-116583180D01*
X166733061Y-117017222D01*
X166994071Y-117407850D01*
X167326272Y-117740051D01*
X167716900Y-118001061D01*
X168150942Y-118180847D01*
X168611719Y-118272501D01*
X169081523Y-118272501D01*
X169542300Y-118180847D01*
X169976342Y-118001061D01*
X170366970Y-117740051D01*
X170699171Y-117407850D01*
X170960181Y-117017222D01*
X171139967Y-116583180D01*
X171231621Y-116122403D01*
X171231621Y-115652599D01*
X171139967Y-115191822D01*
X170960181Y-114757780D01*
X170699171Y-114367152D01*
X170366970Y-114034951D01*
X169976342Y-113773941D01*
X169542300Y-113594155D01*
X169081523Y-113502501D01*
X168611719Y-113502501D01*
X168150942Y-113594155D01*
X167716900Y-113773941D01*
X167326272Y-114034951D01*
X166994071Y-114367152D01*
X166733061Y-114757780D01*
X166553275Y-115191822D01*
X166461621Y-115652599D01*
X165933181Y-115652599D01*
X165841527Y-115191822D01*
X165661741Y-114757780D01*
X165400731Y-114367152D01*
X165068530Y-114034951D01*
X164677902Y-113773941D01*
X164243860Y-113594155D01*
X163783083Y-113502501D01*
X163313279Y-113502501D01*
X162852502Y-113594155D01*
X162607780Y-113695522D01*
X162233180Y-113320922D01*
X162233180Y-113079201D01*
X162418460Y-113203001D01*
X162852502Y-113382787D01*
X163313279Y-113474441D01*
X163783083Y-113474441D01*
X164243860Y-113382787D01*
X164677902Y-113203001D01*
X165068530Y-112941991D01*
X165400731Y-112609790D01*
X165661741Y-112219162D01*
X165841527Y-111785120D01*
X165933181Y-111324343D01*
X165933181Y-110854539D01*
X166461621Y-110854539D01*
X166461621Y-111324343D01*
X166553275Y-111785120D01*
X166733061Y-112219162D01*
X166994071Y-112609790D01*
X167326272Y-112941991D01*
X167716900Y-113203001D01*
X168150942Y-113382787D01*
X168611719Y-113474441D01*
X169081523Y-113474441D01*
X169542300Y-113382787D01*
X169976342Y-113203001D01*
X170366970Y-112941991D01*
X170699171Y-112609790D01*
X170960181Y-112219162D01*
X171139967Y-111785120D01*
X171231621Y-111324343D01*
X171231621Y-110854539D01*
X171139967Y-110393762D01*
X170960181Y-109959720D01*
X170699171Y-109569092D01*
X170366970Y-109236891D01*
X169976342Y-108975881D01*
X169542300Y-108796095D01*
X169081523Y-108704441D01*
X168611719Y-108704441D01*
X168150942Y-108796095D01*
X167716900Y-108975881D01*
X167326272Y-109236891D01*
X166994071Y-109569092D01*
X166733061Y-109959720D01*
X166553275Y-110393762D01*
X166461621Y-110854539D01*
X165933181Y-110854539D01*
X165841527Y-110393762D01*
X165661741Y-109959720D01*
X165400731Y-109569092D01*
X165068530Y-109236891D01*
X164677902Y-108975881D01*
X164243860Y-108796095D01*
X163783083Y-108704441D01*
X163313279Y-108704441D01*
X162852502Y-108796095D01*
X162418460Y-108975881D01*
X162233180Y-109099681D01*
X162233180Y-108281141D01*
X162418460Y-108404941D01*
X162852502Y-108584727D01*
X163313279Y-108676381D01*
X163783083Y-108676381D01*
X164243860Y-108584727D01*
X164677902Y-108404941D01*
X165068530Y-108143931D01*
X165400731Y-107811730D01*
X165661741Y-107421102D01*
X165841527Y-106987060D01*
X165933181Y-106526283D01*
X165933181Y-106056479D01*
X166461621Y-106056479D01*
X166461621Y-106526283D01*
X166553275Y-106987060D01*
X166733061Y-107421102D01*
X166994071Y-107811730D01*
X167326272Y-108143931D01*
X167716900Y-108404941D01*
X168150942Y-108584727D01*
X168611719Y-108676381D01*
X169081523Y-108676381D01*
X169542300Y-108584727D01*
X169976342Y-108404941D01*
X170366970Y-108143931D01*
X170699171Y-107811730D01*
X170835299Y-107608000D01*
X173898928Y-107608000D01*
X173902000Y-108172250D01*
X174060750Y-108331000D01*
X175260000Y-108331000D01*
X175260000Y-107131750D01*
X175514000Y-107131750D01*
X175514000Y-108331000D01*
X176713250Y-108331000D01*
X176872000Y-108172250D01*
X176875072Y-107608000D01*
X176862812Y-107483518D01*
X176826502Y-107363820D01*
X176767537Y-107253506D01*
X176688185Y-107156815D01*
X176591494Y-107077463D01*
X176481180Y-107018498D01*
X176361482Y-106982188D01*
X176237000Y-106969928D01*
X175672750Y-106973000D01*
X175514000Y-107131750D01*
X175260000Y-107131750D01*
X175101250Y-106973000D01*
X174537000Y-106969928D01*
X174412518Y-106982188D01*
X174292820Y-107018498D01*
X174182506Y-107077463D01*
X174085815Y-107156815D01*
X174006463Y-107253506D01*
X173947498Y-107363820D01*
X173911188Y-107483518D01*
X173898928Y-107608000D01*
X170835299Y-107608000D01*
X170960181Y-107421102D01*
X171139967Y-106987060D01*
X171231621Y-106526283D01*
X171231621Y-106056479D01*
X171139967Y-105595702D01*
X170960181Y-105161660D01*
X170699171Y-104771032D01*
X170366970Y-104438831D01*
X169976342Y-104177821D01*
X169542300Y-103998035D01*
X169081523Y-103906381D01*
X168611719Y-103906381D01*
X168150942Y-103998035D01*
X167716900Y-104177821D01*
X167326272Y-104438831D01*
X166994071Y-104771032D01*
X166733061Y-105161660D01*
X166553275Y-105595702D01*
X166461621Y-106056479D01*
X165933181Y-106056479D01*
X165841527Y-105595702D01*
X165661741Y-105161660D01*
X165400731Y-104771032D01*
X165068530Y-104438831D01*
X164677902Y-104177821D01*
X164243860Y-103998035D01*
X163783083Y-103906381D01*
X163313279Y-103906381D01*
X162852502Y-103998035D01*
X162418460Y-104177821D01*
X162233180Y-104301621D01*
X162233180Y-102797398D01*
X162976040Y-102054539D01*
X163048740Y-102069000D01*
X163341260Y-102069000D01*
X163628158Y-102011932D01*
X163898411Y-101899990D01*
X164141632Y-101737475D01*
X164348475Y-101530632D01*
X164465000Y-101356240D01*
X164581525Y-101530632D01*
X164788368Y-101737475D01*
X165031589Y-101899990D01*
X165301842Y-102011932D01*
X165588740Y-102069000D01*
X165881260Y-102069000D01*
X166168158Y-102011932D01*
X166438411Y-101899990D01*
X166681632Y-101737475D01*
X166813487Y-101605620D01*
X166835498Y-101678180D01*
X166894463Y-101788494D01*
X166973815Y-101885185D01*
X167070506Y-101964537D01*
X167180820Y-102023502D01*
X167300518Y-102059812D01*
X167425000Y-102072072D01*
X169125000Y-102072072D01*
X169249482Y-102059812D01*
X169369180Y-102023502D01*
X169479494Y-101964537D01*
X169576185Y-101885185D01*
X169655537Y-101788494D01*
X169714502Y-101678180D01*
X169750812Y-101558482D01*
X169754882Y-101517148D01*
X174013819Y-101517148D01*
X174289989Y-101935118D01*
X174834919Y-102225649D01*
X175426058Y-102404287D01*
X176040690Y-102464168D01*
X176655193Y-102402990D01*
X177245954Y-102223103D01*
X177784735Y-101935118D01*
X178060905Y-101517148D01*
X176037362Y-99493605D01*
X174013819Y-101517148D01*
X169754882Y-101517148D01*
X169763072Y-101434000D01*
X169763072Y-99734000D01*
X169750812Y-99609518D01*
X169714502Y-99489820D01*
X169655537Y-99379506D01*
X169604509Y-99317328D01*
X172887194Y-99317328D01*
X172948372Y-99931831D01*
X173128259Y-100522592D01*
X173416244Y-101061373D01*
X173834214Y-101337543D01*
X175857757Y-99314000D01*
X176216967Y-99314000D01*
X178240510Y-101337543D01*
X178658480Y-101061373D01*
X178949011Y-100516443D01*
X179127649Y-99925304D01*
X179187530Y-99310672D01*
X179126352Y-98696169D01*
X178946465Y-98105408D01*
X178658480Y-97566627D01*
X178240510Y-97290457D01*
X176216967Y-99314000D01*
X175857757Y-99314000D01*
X173834214Y-97290457D01*
X173416244Y-97566627D01*
X173125713Y-98111557D01*
X172947075Y-98702696D01*
X172887194Y-99317328D01*
X169604509Y-99317328D01*
X169576185Y-99282815D01*
X169479494Y-99203463D01*
X169369180Y-99144498D01*
X169249482Y-99108188D01*
X169125000Y-99095928D01*
X168038506Y-99095928D01*
X167631533Y-98688955D01*
X167603816Y-98655182D01*
X167469058Y-98544588D01*
X167315312Y-98462410D01*
X167148489Y-98411804D01*
X167018476Y-98398999D01*
X167018468Y-98398999D01*
X166974999Y-98394718D01*
X166931530Y-98398999D01*
X157534464Y-98398999D01*
X157490998Y-98394718D01*
X157447532Y-98398999D01*
X157447522Y-98398999D01*
X157317509Y-98411804D01*
X157150686Y-98462410D01*
X156996940Y-98544588D01*
X156967451Y-98568789D01*
X156895952Y-98627467D01*
X156895950Y-98627469D01*
X156862182Y-98655182D01*
X156834469Y-98688950D01*
X154312088Y-101211332D01*
X154278316Y-101239048D01*
X154167722Y-101373806D01*
X154085544Y-101527552D01*
X154034938Y-101694375D01*
X154027606Y-101768815D01*
X151525072Y-104271350D01*
X151525072Y-103621000D01*
X151512812Y-103496518D01*
X151476502Y-103376820D01*
X151417537Y-103266506D01*
X151338185Y-103169815D01*
X151241494Y-103090463D01*
X151131180Y-103031498D01*
X151011482Y-102995188D01*
X150887000Y-102982928D01*
X149087000Y-102982928D01*
X148962518Y-102995188D01*
X148842820Y-103031498D01*
X148732506Y-103090463D01*
X148635815Y-103169815D01*
X148556463Y-103266506D01*
X148497498Y-103376820D01*
X148461188Y-103496518D01*
X148448928Y-103621000D01*
X118632072Y-103621000D01*
X118619812Y-103496518D01*
X118583502Y-103376820D01*
X118524537Y-103266506D01*
X118445185Y-103169815D01*
X118348494Y-103090463D01*
X118238180Y-103031498D01*
X118118482Y-102995188D01*
X117994000Y-102982928D01*
X116194000Y-102982928D01*
X116069518Y-102995188D01*
X115949820Y-103031498D01*
X115839506Y-103090463D01*
X115742815Y-103169815D01*
X115663463Y-103266506D01*
X115604498Y-103376820D01*
X115568188Y-103496518D01*
X115555928Y-103621000D01*
X115555928Y-105421000D01*
X115568188Y-105545482D01*
X115604498Y-105665180D01*
X115663463Y-105775494D01*
X115742815Y-105872185D01*
X115839506Y-105951537D01*
X115949820Y-106010502D01*
X115968127Y-106016056D01*
X115901688Y-106082495D01*
X115733701Y-106333905D01*
X115617989Y-106613257D01*
X115559000Y-106909816D01*
X115559000Y-107212184D01*
X115617989Y-107508743D01*
X115733701Y-107788095D01*
X115901688Y-108039505D01*
X115963182Y-108100999D01*
X110993528Y-108100999D01*
X110950062Y-108096718D01*
X110906596Y-108100999D01*
X110906586Y-108100999D01*
X110776573Y-108113804D01*
X110609750Y-108164410D01*
X110456004Y-108246588D01*
X110456002Y-108246589D01*
X110456003Y-108246589D01*
X110355016Y-108329467D01*
X110355014Y-108329469D01*
X110321246Y-108357182D01*
X110293533Y-108390950D01*
X109787021Y-108897462D01*
X109542300Y-108796095D01*
X109081523Y-108704441D01*
X108611719Y-108704441D01*
X108150942Y-108796095D01*
X107716900Y-108975881D01*
X107326272Y-109236891D01*
X106994071Y-109569092D01*
X106733061Y-109959720D01*
X106553275Y-110393762D01*
X106461621Y-110854539D01*
X105933181Y-110854539D01*
X105841527Y-110393762D01*
X105661741Y-109959720D01*
X105400731Y-109569092D01*
X105068530Y-109236891D01*
X104677902Y-108975881D01*
X104243860Y-108796095D01*
X103783083Y-108704441D01*
X103313279Y-108704441D01*
X102852502Y-108796095D01*
X102418460Y-108975881D01*
X102027832Y-109236891D01*
X101695631Y-109569092D01*
X101434621Y-109959720D01*
X101254835Y-110393762D01*
X101163181Y-110854539D01*
X100634741Y-110854539D01*
X100543087Y-110393762D01*
X100363301Y-109959720D01*
X100102291Y-109569092D01*
X99770090Y-109236891D01*
X99379462Y-108975881D01*
X98945420Y-108796095D01*
X98484643Y-108704441D01*
X98014839Y-108704441D01*
X97554062Y-108796095D01*
X97120020Y-108975881D01*
X96934740Y-109099681D01*
X96934740Y-108281141D01*
X97120020Y-108404941D01*
X97554062Y-108584727D01*
X98014839Y-108676381D01*
X98484643Y-108676381D01*
X98945420Y-108584727D01*
X99379462Y-108404941D01*
X99770090Y-108143931D01*
X100102291Y-107811730D01*
X100363301Y-107421102D01*
X100543087Y-106987060D01*
X100634741Y-106526283D01*
X100634741Y-106056479D01*
X101163181Y-106056479D01*
X101163181Y-106526283D01*
X101254835Y-106987060D01*
X101434621Y-107421102D01*
X101695631Y-107811730D01*
X102027832Y-108143931D01*
X102418460Y-108404941D01*
X102852502Y-108584727D01*
X103313279Y-108676381D01*
X103783083Y-108676381D01*
X104243860Y-108584727D01*
X104677902Y-108404941D01*
X105068530Y-108143931D01*
X105400731Y-107811730D01*
X105661741Y-107421102D01*
X105841527Y-106987060D01*
X105933181Y-106526283D01*
X105933181Y-106056479D01*
X106461621Y-106056479D01*
X106461621Y-106526283D01*
X106553275Y-106987060D01*
X106733061Y-107421102D01*
X106994071Y-107811730D01*
X107326272Y-108143931D01*
X107716900Y-108404941D01*
X108150942Y-108584727D01*
X108611719Y-108676381D01*
X109081523Y-108676381D01*
X109542300Y-108584727D01*
X109976342Y-108404941D01*
X110366970Y-108143931D01*
X110699171Y-107811730D01*
X110960181Y-107421102D01*
X111139967Y-106987060D01*
X111231621Y-106526283D01*
X111231621Y-106056479D01*
X111139967Y-105595702D01*
X110960181Y-105161660D01*
X110699171Y-104771032D01*
X110366970Y-104438831D01*
X109976342Y-104177821D01*
X109542300Y-103998035D01*
X109081523Y-103906381D01*
X108611719Y-103906381D01*
X108150942Y-103998035D01*
X107716900Y-104177821D01*
X107326272Y-104438831D01*
X106994071Y-104771032D01*
X106733061Y-105161660D01*
X106553275Y-105595702D01*
X106461621Y-106056479D01*
X105933181Y-106056479D01*
X105841527Y-105595702D01*
X105661741Y-105161660D01*
X105400731Y-104771032D01*
X105068530Y-104438831D01*
X104677902Y-104177821D01*
X104243860Y-103998035D01*
X103783083Y-103906381D01*
X103313279Y-103906381D01*
X102852502Y-103998035D01*
X102418460Y-104177821D01*
X102027832Y-104438831D01*
X101695631Y-104771032D01*
X101434621Y-105161660D01*
X101254835Y-105595702D01*
X101163181Y-106056479D01*
X100634741Y-106056479D01*
X100543087Y-105595702D01*
X100363301Y-105161660D01*
X100102291Y-104771032D01*
X99770090Y-104438831D01*
X99379462Y-104177821D01*
X98945420Y-103998035D01*
X98606149Y-103930550D01*
X100539486Y-101997212D01*
X100575023Y-102011932D01*
X100861921Y-102069000D01*
X101154441Y-102069000D01*
X101441339Y-102011932D01*
X101711592Y-101899990D01*
X101954813Y-101737475D01*
X102161656Y-101530632D01*
X102278181Y-101356240D01*
X102394706Y-101530632D01*
X102601549Y-101737475D01*
X102844770Y-101899990D01*
X103115023Y-102011932D01*
X103401921Y-102069000D01*
X103694441Y-102069000D01*
X103981339Y-102011932D01*
X104251592Y-101899990D01*
X104494813Y-101737475D01*
X104701656Y-101530632D01*
X104818181Y-101356240D01*
X104934706Y-101530632D01*
X105141549Y-101737475D01*
X105384770Y-101899990D01*
X105655023Y-102011932D01*
X105941921Y-102069000D01*
X106234441Y-102069000D01*
X106521339Y-102011932D01*
X106791592Y-101899990D01*
X107034813Y-101737475D01*
X107166668Y-101605620D01*
X107188679Y-101678180D01*
X107247644Y-101788494D01*
X107326996Y-101885185D01*
X107423687Y-101964537D01*
X107534001Y-102023502D01*
X107653699Y-102059812D01*
X107778181Y-102072072D01*
X109478181Y-102072072D01*
X109602663Y-102059812D01*
X109722361Y-102023502D01*
X109832675Y-101964537D01*
X109929366Y-101885185D01*
X110008718Y-101788494D01*
X110067683Y-101678180D01*
X110103993Y-101558482D01*
X110116253Y-101434000D01*
X110116253Y-99734000D01*
X110103993Y-99609518D01*
X110067683Y-99489820D01*
X110008718Y-99379506D01*
X109929366Y-99282815D01*
X109832675Y-99203463D01*
X109765844Y-99167740D01*
X130793181Y-99167740D01*
X130793181Y-99460260D01*
X130850249Y-99747158D01*
X130962191Y-100017411D01*
X131124706Y-100260632D01*
X131331549Y-100467475D01*
X131574770Y-100629990D01*
X131845023Y-100741932D01*
X132131921Y-100799000D01*
X132424441Y-100799000D01*
X132711339Y-100741932D01*
X132981592Y-100629990D01*
X133224813Y-100467475D01*
X133356668Y-100335620D01*
X133378679Y-100408180D01*
X133437644Y-100518494D01*
X133516996Y-100615185D01*
X133613687Y-100694537D01*
X133724001Y-100753502D01*
X133843699Y-100789812D01*
X133968181Y-100802072D01*
X135668181Y-100802072D01*
X135792663Y-100789812D01*
X135912361Y-100753502D01*
X136022675Y-100694537D01*
X136119366Y-100615185D01*
X136198718Y-100518494D01*
X136257683Y-100408180D01*
X136293993Y-100288482D01*
X136306253Y-100164000D01*
X136306253Y-98464000D01*
X136293993Y-98339518D01*
X136257683Y-98219820D01*
X136198718Y-98109506D01*
X136119366Y-98012815D01*
X136022675Y-97933463D01*
X135912361Y-97874498D01*
X135792663Y-97838188D01*
X135668181Y-97825928D01*
X133968181Y-97825928D01*
X133843699Y-97838188D01*
X133724001Y-97874498D01*
X133613687Y-97933463D01*
X133516996Y-98012815D01*
X133437644Y-98109506D01*
X133378679Y-98219820D01*
X133356668Y-98292380D01*
X133224813Y-98160525D01*
X132981592Y-97998010D01*
X132711339Y-97886068D01*
X132424441Y-97829000D01*
X132131921Y-97829000D01*
X131845023Y-97886068D01*
X131574770Y-97998010D01*
X131331549Y-98160525D01*
X131124706Y-98367368D01*
X130962191Y-98610589D01*
X130850249Y-98880842D01*
X130793181Y-99167740D01*
X109765844Y-99167740D01*
X109722361Y-99144498D01*
X109602663Y-99108188D01*
X109478181Y-99095928D01*
X107778181Y-99095928D01*
X107653699Y-99108188D01*
X107534001Y-99144498D01*
X107423687Y-99203463D01*
X107326996Y-99282815D01*
X107247644Y-99379506D01*
X107188679Y-99489820D01*
X107166668Y-99562380D01*
X107034813Y-99430525D01*
X106791592Y-99268010D01*
X106521339Y-99156068D01*
X106234441Y-99099000D01*
X105941921Y-99099000D01*
X105655023Y-99156068D01*
X105384770Y-99268010D01*
X105141549Y-99430525D01*
X104934706Y-99637368D01*
X104818181Y-99811760D01*
X104701656Y-99637368D01*
X104494813Y-99430525D01*
X104251592Y-99268010D01*
X103981339Y-99156068D01*
X103694441Y-99099000D01*
X103401921Y-99099000D01*
X103115023Y-99156068D01*
X102844770Y-99268010D01*
X102601549Y-99430525D01*
X102394706Y-99637368D01*
X102278181Y-99811760D01*
X102161656Y-99637368D01*
X101954813Y-99430525D01*
X101711592Y-99268010D01*
X101441339Y-99156068D01*
X101154441Y-99099000D01*
X100861921Y-99099000D01*
X100575023Y-99156068D01*
X100304770Y-99268010D01*
X100061549Y-99430525D01*
X99854706Y-99637368D01*
X99732986Y-99819534D01*
X99663359Y-99702645D01*
X99468450Y-99486412D01*
X99235101Y-99312359D01*
X98972280Y-99187175D01*
X98825071Y-99142524D01*
X98595181Y-99263845D01*
X98595181Y-100457000D01*
X98615181Y-100457000D01*
X98615181Y-100711000D01*
X98595181Y-100711000D01*
X98595181Y-100731000D01*
X98341181Y-100731000D01*
X98341181Y-100711000D01*
X97147367Y-100711000D01*
X97026700Y-100940891D01*
X97124024Y-101215252D01*
X97273003Y-101465355D01*
X97467912Y-101681588D01*
X97701261Y-101855641D01*
X97964082Y-101980825D01*
X98032089Y-102001453D01*
X95454692Y-104578850D01*
X95420924Y-104606563D01*
X95393211Y-104640331D01*
X95393208Y-104640334D01*
X95310330Y-104741321D01*
X95228152Y-104895067D01*
X95177545Y-105061890D01*
X95160459Y-105235380D01*
X87844000Y-105235380D01*
X87844000Y-101517148D01*
X89035457Y-101517148D01*
X89311627Y-101935118D01*
X89856557Y-102225649D01*
X90447696Y-102404287D01*
X91062328Y-102464168D01*
X91676831Y-102402990D01*
X92267592Y-102223103D01*
X92806373Y-101935118D01*
X93082543Y-101517148D01*
X91059000Y-99493605D01*
X89035457Y-101517148D01*
X87844000Y-101517148D01*
X87844000Y-99352397D01*
X87847438Y-99317328D01*
X87908832Y-99317328D01*
X87970010Y-99931831D01*
X88149897Y-100522592D01*
X88437882Y-101061373D01*
X88855852Y-101337543D01*
X90879395Y-99314000D01*
X91238605Y-99314000D01*
X93262148Y-101337543D01*
X93680118Y-101061373D01*
X93970649Y-100516443D01*
X94058083Y-100227109D01*
X97026700Y-100227109D01*
X97147367Y-100457000D01*
X98341181Y-100457000D01*
X98341181Y-99263845D01*
X98111291Y-99142524D01*
X97964082Y-99187175D01*
X97701261Y-99312359D01*
X97467912Y-99486412D01*
X97273003Y-99702645D01*
X97124024Y-99952748D01*
X97026700Y-100227109D01*
X94058083Y-100227109D01*
X94149287Y-99925304D01*
X94209168Y-99310672D01*
X94147990Y-98696169D01*
X93968103Y-98105408D01*
X93680118Y-97566627D01*
X93262148Y-97290457D01*
X91238605Y-99314000D01*
X90879395Y-99314000D01*
X88855852Y-97290457D01*
X88437882Y-97566627D01*
X88147351Y-98111557D01*
X87968713Y-98702696D01*
X87908832Y-99317328D01*
X87847438Y-99317328D01*
X87908922Y-98690267D01*
X88090065Y-98090292D01*
X88384293Y-97536931D01*
X88731793Y-97110852D01*
X89035457Y-97110852D01*
X91059000Y-99134395D01*
X93082543Y-97110852D01*
X174013819Y-97110852D01*
X176037362Y-99134395D01*
X178060905Y-97110852D01*
X177784735Y-96692882D01*
X177239805Y-96402351D01*
X176648666Y-96223713D01*
X176034034Y-96163832D01*
X175419531Y-96225010D01*
X174828770Y-96404897D01*
X174289989Y-96692882D01*
X174013819Y-97110852D01*
X93082543Y-97110852D01*
X92806373Y-96692882D01*
X92261443Y-96402351D01*
X91670304Y-96223713D01*
X91055672Y-96163832D01*
X90441169Y-96225010D01*
X89850408Y-96404897D01*
X89311627Y-96692882D01*
X89035457Y-97110852D01*
X88731793Y-97110852D01*
X88780400Y-97051255D01*
X89263301Y-96651764D01*
X89814594Y-96353681D01*
X90413291Y-96168353D01*
X91073142Y-96099000D01*
X175998965Y-96099000D01*
X176661095Y-96163922D01*
G04 #@! TA.AperFunction,Conductor*
D23*
G36*
X176661095Y-96163922D02*
G01*
X177261070Y-96345065D01*
X177814431Y-96639293D01*
X178300107Y-97035400D01*
X178699598Y-97518301D01*
X178997681Y-98069594D01*
X179183009Y-98668291D01*
X179252363Y-99328152D01*
X179252362Y-122826485D01*
X179187440Y-123488615D01*
X179006297Y-124088588D01*
X178712068Y-124641953D01*
X178315958Y-125127631D01*
X177833061Y-125527117D01*
X177281764Y-125825203D01*
X176683070Y-126010529D01*
X176023221Y-126079882D01*
X91097397Y-126079882D01*
X90435267Y-126014960D01*
X89835294Y-125833817D01*
X89281929Y-125539588D01*
X88796251Y-125143478D01*
X88733836Y-125068030D01*
X89035457Y-125068030D01*
X89311627Y-125486000D01*
X89856557Y-125776531D01*
X90447696Y-125955169D01*
X91062328Y-126015050D01*
X91676831Y-125953872D01*
X92267592Y-125773985D01*
X92806373Y-125486000D01*
X93082543Y-125068030D01*
X174013819Y-125068030D01*
X174289989Y-125486000D01*
X174834919Y-125776531D01*
X175426058Y-125955169D01*
X176040690Y-126015050D01*
X176655193Y-125953872D01*
X177245954Y-125773985D01*
X177784735Y-125486000D01*
X178060905Y-125068030D01*
X176037362Y-123044487D01*
X174013819Y-125068030D01*
X93082543Y-125068030D01*
X91059000Y-123044487D01*
X89035457Y-125068030D01*
X88733836Y-125068030D01*
X88396765Y-124660581D01*
X88098679Y-124109284D01*
X87913353Y-123510590D01*
X87845837Y-122868210D01*
X87908832Y-122868210D01*
X87970010Y-123482713D01*
X88149897Y-124073474D01*
X88437882Y-124612255D01*
X88855852Y-124888425D01*
X90879395Y-122864882D01*
X91238605Y-122864882D01*
X93262148Y-124888425D01*
X93680118Y-124612255D01*
X93970649Y-124067325D01*
X94149287Y-123476186D01*
X94208519Y-122868210D01*
X172887194Y-122868210D01*
X172948372Y-123482713D01*
X173128259Y-124073474D01*
X173416244Y-124612255D01*
X173834214Y-124888425D01*
X175857757Y-122864882D01*
X176216967Y-122864882D01*
X178240510Y-124888425D01*
X178658480Y-124612255D01*
X178949011Y-124067325D01*
X179127649Y-123476186D01*
X179187530Y-122861554D01*
X179126352Y-122247051D01*
X178946465Y-121656290D01*
X178658480Y-121117509D01*
X178240510Y-120841339D01*
X176216967Y-122864882D01*
X175857757Y-122864882D01*
X173834214Y-120841339D01*
X173416244Y-121117509D01*
X173125713Y-121662439D01*
X172947075Y-122253578D01*
X172887194Y-122868210D01*
X94208519Y-122868210D01*
X94209168Y-122861554D01*
X94147990Y-122247051D01*
X93968103Y-121656290D01*
X93680118Y-121117509D01*
X93262148Y-120841339D01*
X91238605Y-122864882D01*
X90879395Y-122864882D01*
X88855852Y-120841339D01*
X88437882Y-121117509D01*
X88147351Y-121662439D01*
X87968713Y-122253578D01*
X87908832Y-122868210D01*
X87845837Y-122868210D01*
X87844000Y-122850741D01*
X87844000Y-120661734D01*
X89035457Y-120661734D01*
X91059000Y-122685277D01*
X92999237Y-120745040D01*
X115702091Y-120745040D01*
X115796930Y-121009881D01*
X115941615Y-121251131D01*
X116130586Y-121459519D01*
X116356580Y-121627037D01*
X116610913Y-121747246D01*
X116744961Y-121787904D01*
X116967000Y-121665915D01*
X116967000Y-120523000D01*
X117221000Y-120523000D01*
X117221000Y-121665915D01*
X117443039Y-121787904D01*
X117577087Y-121747246D01*
X117831420Y-121627037D01*
X118057414Y-121459519D01*
X118246385Y-121251131D01*
X118391070Y-121009881D01*
X118485909Y-120745040D01*
X148595091Y-120745040D01*
X148689930Y-121009881D01*
X148834615Y-121251131D01*
X149023586Y-121459519D01*
X149249580Y-121627037D01*
X149503913Y-121747246D01*
X149637961Y-121787904D01*
X149860000Y-121665915D01*
X149860000Y-120523000D01*
X150114000Y-120523000D01*
X150114000Y-121665915D01*
X150336039Y-121787904D01*
X150470087Y-121747246D01*
X150724420Y-121627037D01*
X150950414Y-121459519D01*
X151139385Y-121251131D01*
X151284070Y-121009881D01*
X151378909Y-120745040D01*
X151257624Y-120523000D01*
X150114000Y-120523000D01*
X149860000Y-120523000D01*
X148716376Y-120523000D01*
X148595091Y-120745040D01*
X118485909Y-120745040D01*
X118364624Y-120523000D01*
X117221000Y-120523000D01*
X116967000Y-120523000D01*
X115823376Y-120523000D01*
X115702091Y-120745040D01*
X92999237Y-120745040D01*
X93082543Y-120661734D01*
X92806373Y-120243764D01*
X92437241Y-120046960D01*
X115702091Y-120046960D01*
X115823376Y-120269000D01*
X116967000Y-120269000D01*
X116967000Y-119126085D01*
X117221000Y-119126085D01*
X117221000Y-120269000D01*
X118364624Y-120269000D01*
X118485909Y-120046960D01*
X148595091Y-120046960D01*
X148716376Y-120269000D01*
X149860000Y-120269000D01*
X149860000Y-119126085D01*
X150114000Y-119126085D01*
X150114000Y-120269000D01*
X151257624Y-120269000D01*
X151378909Y-120046960D01*
X151284070Y-119782119D01*
X151139385Y-119540869D01*
X150950414Y-119332481D01*
X150724420Y-119164963D01*
X150470087Y-119044754D01*
X150336039Y-119004096D01*
X150114000Y-119126085D01*
X149860000Y-119126085D01*
X149637961Y-119004096D01*
X149503913Y-119044754D01*
X149249580Y-119164963D01*
X149023586Y-119332481D01*
X148834615Y-119540869D01*
X148689930Y-119782119D01*
X148595091Y-120046960D01*
X118485909Y-120046960D01*
X118391070Y-119782119D01*
X118246385Y-119540869D01*
X118057414Y-119332481D01*
X117831420Y-119164963D01*
X117577087Y-119044754D01*
X117443039Y-119004096D01*
X117221000Y-119126085D01*
X116967000Y-119126085D01*
X116744961Y-119004096D01*
X116610913Y-119044754D01*
X116356580Y-119164963D01*
X116130586Y-119332481D01*
X115941615Y-119540869D01*
X115796930Y-119782119D01*
X115702091Y-120046960D01*
X92437241Y-120046960D01*
X92261443Y-119953233D01*
X91670304Y-119774595D01*
X91055672Y-119714714D01*
X90441169Y-119775892D01*
X89850408Y-119955779D01*
X89311627Y-120243764D01*
X89035457Y-120661734D01*
X87844000Y-120661734D01*
X87844000Y-112716331D01*
X90252524Y-112716331D01*
X90297175Y-112863540D01*
X90422359Y-113126361D01*
X90596412Y-113359710D01*
X90812645Y-113554619D01*
X91062748Y-113703598D01*
X91337109Y-113800922D01*
X91567000Y-113680255D01*
X91567000Y-112486441D01*
X91821000Y-112486441D01*
X91821000Y-113680255D01*
X92050891Y-113800922D01*
X92325252Y-113703598D01*
X92575355Y-113554619D01*
X92791588Y-113359710D01*
X92965641Y-113126361D01*
X93090825Y-112863540D01*
X93135476Y-112716331D01*
X93014155Y-112486441D01*
X91821000Y-112486441D01*
X91567000Y-112486441D01*
X90373845Y-112486441D01*
X90252524Y-112716331D01*
X87844000Y-112716331D01*
X87844000Y-108969441D01*
X90205928Y-108969441D01*
X90205928Y-110669441D01*
X90218188Y-110793923D01*
X90254498Y-110913621D01*
X90313463Y-111023935D01*
X90392815Y-111120626D01*
X90489506Y-111199978D01*
X90599820Y-111258943D01*
X90680466Y-111283407D01*
X90596412Y-111359172D01*
X90422359Y-111592521D01*
X90297175Y-111855342D01*
X90252524Y-112002551D01*
X90373845Y-112232441D01*
X91567000Y-112232441D01*
X91567000Y-112212441D01*
X91821000Y-112212441D01*
X91821000Y-112232441D01*
X93014155Y-112232441D01*
X93135476Y-112002551D01*
X93090825Y-111855342D01*
X92965641Y-111592521D01*
X92791588Y-111359172D01*
X92707534Y-111283407D01*
X92788180Y-111258943D01*
X92898494Y-111199978D01*
X92995185Y-111120626D01*
X93074537Y-111023935D01*
X93133502Y-110913621D01*
X93169812Y-110793923D01*
X93182072Y-110669441D01*
X93182072Y-108969441D01*
X93169812Y-108844959D01*
X93133502Y-108725261D01*
X93074537Y-108614947D01*
X92995185Y-108518256D01*
X92898494Y-108438904D01*
X92788180Y-108379939D01*
X92668482Y-108343629D01*
X92544000Y-108331369D01*
X90844000Y-108331369D01*
X90719518Y-108343629D01*
X90599820Y-108379939D01*
X90489506Y-108438904D01*
X90392815Y-108518256D01*
X90313463Y-108614947D01*
X90254498Y-108725261D01*
X90218188Y-108844959D01*
X90205928Y-108969441D01*
X87844000Y-108969441D01*
X87844000Y-105235380D01*
X95160459Y-105235380D01*
X95164741Y-105278859D01*
X95164740Y-113644031D01*
X95160459Y-113687500D01*
X95164740Y-113730969D01*
X95164740Y-113730976D01*
X95177545Y-113860989D01*
X95228151Y-114027812D01*
X95310329Y-114181558D01*
X95420923Y-114316317D01*
X95454696Y-114344034D01*
X96057762Y-114947100D01*
X95956395Y-115191822D01*
X95864741Y-115652599D01*
X95864741Y-116122403D01*
X95956395Y-116583180D01*
X96136181Y-117017222D01*
X96397191Y-117407850D01*
X96729392Y-117740051D01*
X97120020Y-118001061D01*
X97554062Y-118180847D01*
X98014839Y-118272501D01*
X98484643Y-118272501D01*
X98945420Y-118180847D01*
X99379462Y-118001061D01*
X99770090Y-117740051D01*
X100102291Y-117407850D01*
X100363301Y-117017222D01*
X100543087Y-116583180D01*
X100634741Y-116122403D01*
X100634741Y-115652599D01*
X101163181Y-115652599D01*
X101163181Y-116122403D01*
X101254835Y-116583180D01*
X101434621Y-117017222D01*
X101695631Y-117407850D01*
X102027832Y-117740051D01*
X102418460Y-118001061D01*
X102852502Y-118180847D01*
X103313279Y-118272501D01*
X103783083Y-118272501D01*
X104243860Y-118180847D01*
X104677902Y-118001061D01*
X105068530Y-117740051D01*
X105400731Y-117407850D01*
X105661741Y-117017222D01*
X105841527Y-116583180D01*
X105933181Y-116122403D01*
X105933181Y-115652599D01*
X106461621Y-115652599D01*
X106461621Y-116122403D01*
X106553275Y-116583180D01*
X106733061Y-117017222D01*
X106994071Y-117407850D01*
X107326272Y-117740051D01*
X107716900Y-118001061D01*
X108150942Y-118180847D01*
X108611719Y-118272501D01*
X109081523Y-118272501D01*
X109542300Y-118180847D01*
X109976342Y-118001061D01*
X110366970Y-117740051D01*
X110699171Y-117407850D01*
X110960181Y-117017222D01*
X111139967Y-116583180D01*
X111231621Y-116122403D01*
X111231621Y-115652599D01*
X111139967Y-115191822D01*
X110960181Y-114757780D01*
X110755906Y-114452061D01*
X149333000Y-114452061D01*
X149333000Y-114655939D01*
X149372774Y-114855898D01*
X149450795Y-115044256D01*
X149564063Y-115213774D01*
X149708226Y-115357937D01*
X149877744Y-115471205D01*
X150066102Y-115549226D01*
X150266061Y-115589000D01*
X150469939Y-115589000D01*
X150669898Y-115549226D01*
X150858256Y-115471205D01*
X150906454Y-115439000D01*
X151271422Y-115439000D01*
X158347470Y-122515049D01*
X158375183Y-122548817D01*
X158408951Y-122576530D01*
X158408953Y-122576532D01*
X158471083Y-122627521D01*
X158509941Y-122659411D01*
X158663687Y-122741589D01*
X158830510Y-122792195D01*
X158960523Y-122805000D01*
X158960533Y-122805000D01*
X159003999Y-122809281D01*
X159047465Y-122805000D01*
X169628531Y-122805000D01*
X169672000Y-122809281D01*
X169715469Y-122805000D01*
X169715477Y-122805000D01*
X169845490Y-122792195D01*
X170012313Y-122741589D01*
X170166059Y-122659411D01*
X170300817Y-122548817D01*
X170328534Y-122515044D01*
X172181844Y-120661734D01*
X174013819Y-120661734D01*
X176037362Y-122685277D01*
X178060905Y-120661734D01*
X177784735Y-120243764D01*
X177239805Y-119953233D01*
X176648666Y-119774595D01*
X176034034Y-119714714D01*
X175419531Y-119775892D01*
X174828770Y-119955779D01*
X174289989Y-120243764D01*
X174013819Y-120661734D01*
X172181844Y-120661734D01*
X175982051Y-116861528D01*
X176015817Y-116833817D01*
X176126411Y-116699059D01*
X176126412Y-116699058D01*
X176208589Y-116545314D01*
X176259195Y-116378490D01*
X176259195Y-116378489D01*
X176272000Y-116248477D01*
X176272000Y-116248469D01*
X176276281Y-116205000D01*
X176272000Y-116161531D01*
X176272000Y-114732656D01*
X176333632Y-114691475D01*
X176540475Y-114484632D01*
X176702990Y-114241411D01*
X176814932Y-113971158D01*
X176872000Y-113684260D01*
X176872000Y-113391740D01*
X176814932Y-113104842D01*
X176702990Y-112834589D01*
X176540475Y-112591368D01*
X176333632Y-112384525D01*
X176159240Y-112268000D01*
X176333632Y-112151475D01*
X176540475Y-111944632D01*
X176702990Y-111701411D01*
X176814932Y-111431158D01*
X176872000Y-111144260D01*
X176872000Y-110851740D01*
X176814932Y-110564842D01*
X176702990Y-110294589D01*
X176540475Y-110051368D01*
X176408620Y-109919513D01*
X176481180Y-109897502D01*
X176591494Y-109838537D01*
X176688185Y-109759185D01*
X176767537Y-109662494D01*
X176826502Y-109552180D01*
X176862812Y-109432482D01*
X176875072Y-109308000D01*
X176872000Y-108743750D01*
X176713250Y-108585000D01*
X175514000Y-108585000D01*
X175514000Y-108605000D01*
X175260000Y-108605000D01*
X175260000Y-108585000D01*
X174060750Y-108585000D01*
X173902000Y-108743750D01*
X173898928Y-109308000D01*
X173911188Y-109432482D01*
X173947498Y-109552180D01*
X174006463Y-109662494D01*
X174085815Y-109759185D01*
X174182506Y-109838537D01*
X174292820Y-109897502D01*
X174365380Y-109919513D01*
X174233525Y-110051368D01*
X174071010Y-110294589D01*
X173959068Y-110564842D01*
X173902000Y-110851740D01*
X173902000Y-111144260D01*
X173959068Y-111431158D01*
X174071010Y-111701411D01*
X174233525Y-111944632D01*
X174440368Y-112151475D01*
X174614760Y-112268000D01*
X174440368Y-112384525D01*
X174233525Y-112591368D01*
X174071010Y-112834589D01*
X173959068Y-113104842D01*
X173902000Y-113391740D01*
X173902000Y-113684260D01*
X173959068Y-113971158D01*
X174071010Y-114241411D01*
X174233525Y-114484632D01*
X174440368Y-114691475D01*
X174502001Y-114732657D01*
X174502000Y-115838421D01*
X169305422Y-121035000D01*
X159370579Y-121035000D01*
X153988178Y-115652599D01*
X155864741Y-115652599D01*
X155864741Y-116122403D01*
X155956395Y-116583180D01*
X156136181Y-117017222D01*
X156397191Y-117407850D01*
X156729392Y-117740051D01*
X157120020Y-118001061D01*
X157554062Y-118180847D01*
X158014839Y-118272501D01*
X158484643Y-118272501D01*
X158945420Y-118180847D01*
X159379462Y-118001061D01*
X159770090Y-117740051D01*
X160102291Y-117407850D01*
X160363301Y-117017222D01*
X160543087Y-116583180D01*
X160634741Y-116122403D01*
X160634741Y-115652599D01*
X160543087Y-115191822D01*
X160363301Y-114757780D01*
X160102291Y-114367152D01*
X159770090Y-114034951D01*
X159379462Y-113773941D01*
X158945420Y-113594155D01*
X158484643Y-113502501D01*
X158014839Y-113502501D01*
X157554062Y-113594155D01*
X157120020Y-113773941D01*
X156729392Y-114034951D01*
X156397191Y-114367152D01*
X156136181Y-114757780D01*
X155956395Y-115191822D01*
X155864741Y-115652599D01*
X153988178Y-115652599D01*
X152294534Y-113958956D01*
X152266817Y-113925183D01*
X152132059Y-113814589D01*
X151978313Y-113732411D01*
X151811490Y-113681805D01*
X151681477Y-113669000D01*
X151681469Y-113669000D01*
X151638000Y-113664719D01*
X151594531Y-113669000D01*
X150906454Y-113669000D01*
X150858256Y-113636795D01*
X150669898Y-113558774D01*
X150469939Y-113519000D01*
X150266061Y-113519000D01*
X150066102Y-113558774D01*
X149877744Y-113636795D01*
X149708226Y-113750063D01*
X149564063Y-113894226D01*
X149450795Y-114063744D01*
X149372774Y-114252102D01*
X149333000Y-114452061D01*
X110755906Y-114452061D01*
X110699171Y-114367152D01*
X110366970Y-114034951D01*
X109976342Y-113773941D01*
X109542300Y-113594155D01*
X109081523Y-113502501D01*
X108611719Y-113502501D01*
X108150942Y-113594155D01*
X107716900Y-113773941D01*
X107326272Y-114034951D01*
X106994071Y-114367152D01*
X106733061Y-114757780D01*
X106553275Y-115191822D01*
X106461621Y-115652599D01*
X105933181Y-115652599D01*
X105841527Y-115191822D01*
X105661741Y-114757780D01*
X105400731Y-114367152D01*
X105068530Y-114034951D01*
X104677902Y-113773941D01*
X104243860Y-113594155D01*
X103783083Y-113502501D01*
X103313279Y-113502501D01*
X102852502Y-113594155D01*
X102418460Y-113773941D01*
X102027832Y-114034951D01*
X101695631Y-114367152D01*
X101434621Y-114757780D01*
X101254835Y-115191822D01*
X101163181Y-115652599D01*
X100634741Y-115652599D01*
X100543087Y-115191822D01*
X100363301Y-114757780D01*
X100102291Y-114367152D01*
X99770090Y-114034951D01*
X99379462Y-113773941D01*
X98945420Y-113594155D01*
X98484643Y-113502501D01*
X98014839Y-113502501D01*
X97554062Y-113594155D01*
X97309340Y-113695522D01*
X96934740Y-113320922D01*
X96934740Y-113079201D01*
X97120020Y-113203001D01*
X97554062Y-113382787D01*
X98014839Y-113474441D01*
X98484643Y-113474441D01*
X98945420Y-113382787D01*
X99379462Y-113203001D01*
X99770090Y-112941991D01*
X100102291Y-112609790D01*
X100363301Y-112219162D01*
X100543087Y-111785120D01*
X100634741Y-111324343D01*
X100634741Y-110854539D01*
X101163181Y-110854539D01*
X101163181Y-111324343D01*
X101254835Y-111785120D01*
X101434621Y-112219162D01*
X101695631Y-112609790D01*
X102027832Y-112941991D01*
X102418460Y-113203001D01*
X102852502Y-113382787D01*
X103313279Y-113474441D01*
X103783083Y-113474441D01*
X104243860Y-113382787D01*
X104677902Y-113203001D01*
X105068530Y-112941991D01*
X105400731Y-112609790D01*
X105661741Y-112219162D01*
X105841527Y-111785120D01*
X105933181Y-111324343D01*
X105933181Y-110854539D01*
X106461621Y-110854539D01*
X106461621Y-111324343D01*
X106553275Y-111785120D01*
X106733061Y-112219162D01*
X106994071Y-112609790D01*
X107326272Y-112941991D01*
X107716900Y-113203001D01*
X108150942Y-113382787D01*
X108611719Y-113474441D01*
X109081523Y-113474441D01*
X109542300Y-113382787D01*
X109976342Y-113203001D01*
X110366970Y-112941991D01*
X110699171Y-112609790D01*
X110960181Y-112219162D01*
X111139967Y-111785120D01*
X111231621Y-111324343D01*
X111231621Y-110854539D01*
X111139967Y-110393762D01*
X111038600Y-110149041D01*
X111316642Y-109870999D01*
X115703491Y-109870999D01*
X115659000Y-110094665D01*
X115659000Y-110377335D01*
X115714147Y-110654574D01*
X115822320Y-110915727D01*
X115979363Y-111150759D01*
X116179241Y-111350637D01*
X116414273Y-111507680D01*
X116675426Y-111615853D01*
X116952665Y-111671000D01*
X117235335Y-111671000D01*
X117512574Y-111615853D01*
X117773727Y-111507680D01*
X118008759Y-111350637D01*
X118208637Y-111150759D01*
X118365680Y-110915727D01*
X118473853Y-110654574D01*
X118529000Y-110377335D01*
X118529000Y-110094665D01*
X148552000Y-110094665D01*
X148552000Y-110377335D01*
X148607147Y-110654574D01*
X148715320Y-110915727D01*
X148872363Y-111150759D01*
X149072241Y-111350637D01*
X149307273Y-111507680D01*
X149568426Y-111615853D01*
X149845665Y-111671000D01*
X150128335Y-111671000D01*
X150405574Y-111615853D01*
X150666727Y-111507680D01*
X150901759Y-111350637D01*
X151101637Y-111150759D01*
X151258680Y-110915727D01*
X151366853Y-110654574D01*
X151422000Y-110377335D01*
X151422000Y-110094665D01*
X151366853Y-109817426D01*
X151258680Y-109556273D01*
X151101637Y-109321241D01*
X150901759Y-109121363D01*
X150666727Y-108964320D01*
X150405574Y-108856147D01*
X150128335Y-108801000D01*
X149845665Y-108801000D01*
X149568426Y-108856147D01*
X149307273Y-108964320D01*
X149072241Y-109121363D01*
X148872363Y-109321241D01*
X148715320Y-109556273D01*
X148607147Y-109817426D01*
X148552000Y-110094665D01*
X118529000Y-110094665D01*
X118484509Y-109870999D01*
X125031532Y-109870999D01*
X125075001Y-109875280D01*
X125118470Y-109870999D01*
X125118478Y-109870999D01*
X125248491Y-109858194D01*
X125415314Y-109807588D01*
X125569060Y-109725410D01*
X125703818Y-109614816D01*
X125731535Y-109581043D01*
X127783507Y-107529072D01*
X129370000Y-107529072D01*
X129494482Y-107516812D01*
X129614180Y-107480502D01*
X129724494Y-107421537D01*
X129821185Y-107342185D01*
X129900537Y-107245494D01*
X129959502Y-107135180D01*
X129995812Y-107015482D01*
X130008072Y-106891000D01*
X130008072Y-105620117D01*
X136695000Y-105620117D01*
X136695000Y-105961883D01*
X136761675Y-106297081D01*
X136892463Y-106612831D01*
X137082337Y-106896998D01*
X137324002Y-107138663D01*
X137608169Y-107328537D01*
X137923919Y-107459325D01*
X138259117Y-107526000D01*
X138600883Y-107526000D01*
X138936081Y-107459325D01*
X139251831Y-107328537D01*
X139535998Y-107138663D01*
X139777663Y-106896998D01*
X139967537Y-106612831D01*
X140098325Y-106297081D01*
X140165000Y-105961883D01*
X140165000Y-105620117D01*
X140098325Y-105284919D01*
X139967537Y-104969169D01*
X139777663Y-104685002D01*
X139535998Y-104443337D01*
X139251831Y-104253463D01*
X138936081Y-104122675D01*
X138600883Y-104056000D01*
X138259117Y-104056000D01*
X137923919Y-104122675D01*
X137608169Y-104253463D01*
X137324002Y-104443337D01*
X137082337Y-104685002D01*
X136892463Y-104969169D01*
X136761675Y-105284919D01*
X136695000Y-105620117D01*
X130008072Y-105620117D01*
X130008072Y-104691000D01*
X129995812Y-104566518D01*
X129959502Y-104446820D01*
X129900537Y-104336506D01*
X129821185Y-104239815D01*
X129724494Y-104160463D01*
X129614180Y-104101498D01*
X129494482Y-104065188D01*
X129370000Y-104052928D01*
X127170000Y-104052928D01*
X127045518Y-104065188D01*
X126925820Y-104101498D01*
X126815506Y-104160463D01*
X126718815Y-104239815D01*
X126639463Y-104336506D01*
X126580498Y-104446820D01*
X126544188Y-104566518D01*
X126531928Y-104691000D01*
X126531928Y-106277493D01*
X124708423Y-108100999D01*
X118224818Y-108100999D01*
X118286312Y-108039505D01*
X118454299Y-107788095D01*
X118570011Y-107508743D01*
X118629000Y-107212184D01*
X118629000Y-106909816D01*
X118570011Y-106613257D01*
X118454299Y-106333905D01*
X118286312Y-106082495D01*
X118219873Y-106016056D01*
X118238180Y-106010502D01*
X118348494Y-105951537D01*
X118445185Y-105872185D01*
X118524537Y-105775494D01*
X118583502Y-105665180D01*
X118619812Y-105545482D01*
X118632072Y-105421000D01*
X118632072Y-103621000D01*
X148448928Y-103621000D01*
X148448928Y-105421000D01*
X148461188Y-105545482D01*
X148497498Y-105665180D01*
X148556463Y-105775494D01*
X148635815Y-105872185D01*
X148732506Y-105951537D01*
X148842820Y-106010502D01*
X148861127Y-106016056D01*
X148794688Y-106082495D01*
X148626701Y-106333905D01*
X148510989Y-106613257D01*
X148452000Y-106909816D01*
X148452000Y-107212184D01*
X148510989Y-107508743D01*
X148626701Y-107788095D01*
X148794688Y-108039505D01*
X149008495Y-108253312D01*
X149259905Y-108421299D01*
X149539257Y-108537011D01*
X149835816Y-108596000D01*
X150138184Y-108596000D01*
X150434743Y-108537011D01*
X150714095Y-108421299D01*
X150965505Y-108253312D01*
X151179312Y-108039505D01*
X151347299Y-107788095D01*
X151463011Y-107508743D01*
X151522000Y-107212184D01*
X151522000Y-106909816D01*
X151500060Y-106799518D01*
X155502184Y-102797395D01*
X155535950Y-102769684D01*
X155601795Y-102689453D01*
X155646544Y-102634926D01*
X155728721Y-102481181D01*
X155728722Y-102481180D01*
X155779328Y-102314357D01*
X155786660Y-102239916D01*
X156785955Y-101240622D01*
X156919822Y-101465355D01*
X157114731Y-101681588D01*
X157348080Y-101855641D01*
X157610901Y-101980825D01*
X157758110Y-102025476D01*
X157988000Y-101904155D01*
X157988000Y-100711000D01*
X157968000Y-100711000D01*
X157968000Y-100457000D01*
X157988000Y-100457000D01*
X157988000Y-100437000D01*
X158242000Y-100437000D01*
X158242000Y-100457000D01*
X158262000Y-100457000D01*
X158262000Y-100711000D01*
X158242000Y-100711000D01*
X158242000Y-101904155D01*
X158471890Y-102025476D01*
X158619099Y-101980825D01*
X158881920Y-101855641D01*
X159115269Y-101681588D01*
X159310178Y-101465355D01*
X159379805Y-101348466D01*
X159501525Y-101530632D01*
X159708368Y-101737475D01*
X159951589Y-101899990D01*
X160221842Y-102011932D01*
X160508740Y-102069000D01*
X160538087Y-102069000D01*
X160526591Y-102090508D01*
X160475985Y-102257331D01*
X160463180Y-102387344D01*
X160463180Y-102387351D01*
X160458899Y-102430820D01*
X160463180Y-102474289D01*
X160463180Y-105402790D01*
X160363301Y-105161660D01*
X160102291Y-104771032D01*
X159770090Y-104438831D01*
X159379462Y-104177821D01*
X158945420Y-103998035D01*
X158484643Y-103906381D01*
X158014839Y-103906381D01*
X157554062Y-103998035D01*
X157120020Y-104177821D01*
X156729392Y-104438831D01*
X156397191Y-104771032D01*
X156136181Y-105161660D01*
X155956395Y-105595702D01*
X155864741Y-106056479D01*
X155864741Y-106526283D01*
X155956395Y-106987060D01*
X156136181Y-107421102D01*
X156397191Y-107811730D01*
X156729392Y-108143931D01*
X157120020Y-108404941D01*
X157554062Y-108584727D01*
X158014839Y-108676381D01*
X158484643Y-108676381D01*
X158945420Y-108584727D01*
X159379462Y-108404941D01*
X159770090Y-108143931D01*
X160102291Y-107811730D01*
X160363301Y-107421102D01*
X160463180Y-107179972D01*
X160463181Y-110200851D01*
X160363301Y-109959720D01*
X160102291Y-109569092D01*
X159770090Y-109236891D01*
X159379462Y-108975881D01*
X158945420Y-108796095D01*
X158484643Y-108704441D01*
X158014839Y-108704441D01*
X157554062Y-108796095D01*
X157120020Y-108975881D01*
X156729392Y-109236891D01*
X156397191Y-109569092D01*
X156136181Y-109959720D01*
X155956395Y-110393762D01*
X155864741Y-110854539D01*
X155864741Y-111324343D01*
X155956395Y-111785120D01*
X156136181Y-112219162D01*
X156397191Y-112609790D01*
X156729392Y-112941991D01*
X157120020Y-113203001D01*
X157554062Y-113382787D01*
X158014839Y-113474441D01*
X158484643Y-113474441D01*
X158945420Y-113382787D01*
X159379462Y-113203001D01*
X159770090Y-112941991D01*
X160102291Y-112609790D01*
X160363301Y-112219162D01*
X160463181Y-111978031D01*
X160463181Y-113644021D01*
X160458899Y-113687500D01*
X160475985Y-113860990D01*
X160526592Y-114027813D01*
X160608770Y-114181559D01*
X160691648Y-114282546D01*
X160691651Y-114282549D01*
X160719364Y-114316317D01*
X160753131Y-114344029D01*
X161356202Y-114947100D01*
X161254835Y-115191822D01*
X161163181Y-115652599D01*
X161163181Y-116122403D01*
X161254835Y-116583180D01*
X161434621Y-117017222D01*
X161695631Y-117407850D01*
X162027832Y-117740051D01*
X162418460Y-118001061D01*
X162852502Y-118180847D01*
X163313279Y-118272501D01*
X163783083Y-118272501D01*
X164243860Y-118180847D01*
X164677902Y-118001061D01*
X165068530Y-117740051D01*
X165400731Y-117407850D01*
X165661741Y-117017222D01*
X165841527Y-116583180D01*
X165933181Y-116122403D01*
X165933181Y-115652599D01*
X166461621Y-115652599D01*
X166461621Y-116122403D01*
X166553275Y-116583180D01*
X166733061Y-117017222D01*
X166994071Y-117407850D01*
X167326272Y-117740051D01*
X167716900Y-118001061D01*
X168150942Y-118180847D01*
X168611719Y-118272501D01*
X169081523Y-118272501D01*
X169542300Y-118180847D01*
X169976342Y-118001061D01*
X170366970Y-117740051D01*
X170699171Y-117407850D01*
X170960181Y-117017222D01*
X171139967Y-116583180D01*
X171231621Y-116122403D01*
X171231621Y-115652599D01*
X171139967Y-115191822D01*
X170960181Y-114757780D01*
X170699171Y-114367152D01*
X170366970Y-114034951D01*
X169976342Y-113773941D01*
X169542300Y-113594155D01*
X169081523Y-113502501D01*
X168611719Y-113502501D01*
X168150942Y-113594155D01*
X167716900Y-113773941D01*
X167326272Y-114034951D01*
X166994071Y-114367152D01*
X166733061Y-114757780D01*
X166553275Y-115191822D01*
X166461621Y-115652599D01*
X165933181Y-115652599D01*
X165841527Y-115191822D01*
X165661741Y-114757780D01*
X165400731Y-114367152D01*
X165068530Y-114034951D01*
X164677902Y-113773941D01*
X164243860Y-113594155D01*
X163783083Y-113502501D01*
X163313279Y-113502501D01*
X162852502Y-113594155D01*
X162607780Y-113695522D01*
X162233180Y-113320922D01*
X162233180Y-113079201D01*
X162418460Y-113203001D01*
X162852502Y-113382787D01*
X163313279Y-113474441D01*
X163783083Y-113474441D01*
X164243860Y-113382787D01*
X164677902Y-113203001D01*
X165068530Y-112941991D01*
X165400731Y-112609790D01*
X165661741Y-112219162D01*
X165841527Y-111785120D01*
X165933181Y-111324343D01*
X165933181Y-110854539D01*
X166461621Y-110854539D01*
X166461621Y-111324343D01*
X166553275Y-111785120D01*
X166733061Y-112219162D01*
X166994071Y-112609790D01*
X167326272Y-112941991D01*
X167716900Y-113203001D01*
X168150942Y-113382787D01*
X168611719Y-113474441D01*
X169081523Y-113474441D01*
X169542300Y-113382787D01*
X169976342Y-113203001D01*
X170366970Y-112941991D01*
X170699171Y-112609790D01*
X170960181Y-112219162D01*
X171139967Y-111785120D01*
X171231621Y-111324343D01*
X171231621Y-110854539D01*
X171139967Y-110393762D01*
X170960181Y-109959720D01*
X170699171Y-109569092D01*
X170366970Y-109236891D01*
X169976342Y-108975881D01*
X169542300Y-108796095D01*
X169081523Y-108704441D01*
X168611719Y-108704441D01*
X168150942Y-108796095D01*
X167716900Y-108975881D01*
X167326272Y-109236891D01*
X166994071Y-109569092D01*
X166733061Y-109959720D01*
X166553275Y-110393762D01*
X166461621Y-110854539D01*
X165933181Y-110854539D01*
X165841527Y-110393762D01*
X165661741Y-109959720D01*
X165400731Y-109569092D01*
X165068530Y-109236891D01*
X164677902Y-108975881D01*
X164243860Y-108796095D01*
X163783083Y-108704441D01*
X163313279Y-108704441D01*
X162852502Y-108796095D01*
X162418460Y-108975881D01*
X162233180Y-109099681D01*
X162233180Y-108281141D01*
X162418460Y-108404941D01*
X162852502Y-108584727D01*
X163313279Y-108676381D01*
X163783083Y-108676381D01*
X164243860Y-108584727D01*
X164677902Y-108404941D01*
X165068530Y-108143931D01*
X165400731Y-107811730D01*
X165661741Y-107421102D01*
X165841527Y-106987060D01*
X165933181Y-106526283D01*
X165933181Y-106056479D01*
X166461621Y-106056479D01*
X166461621Y-106526283D01*
X166553275Y-106987060D01*
X166733061Y-107421102D01*
X166994071Y-107811730D01*
X167326272Y-108143931D01*
X167716900Y-108404941D01*
X168150942Y-108584727D01*
X168611719Y-108676381D01*
X169081523Y-108676381D01*
X169542300Y-108584727D01*
X169976342Y-108404941D01*
X170366970Y-108143931D01*
X170699171Y-107811730D01*
X170835299Y-107608000D01*
X173898928Y-107608000D01*
X173902000Y-108172250D01*
X174060750Y-108331000D01*
X175260000Y-108331000D01*
X175260000Y-107131750D01*
X175514000Y-107131750D01*
X175514000Y-108331000D01*
X176713250Y-108331000D01*
X176872000Y-108172250D01*
X176875072Y-107608000D01*
X176862812Y-107483518D01*
X176826502Y-107363820D01*
X176767537Y-107253506D01*
X176688185Y-107156815D01*
X176591494Y-107077463D01*
X176481180Y-107018498D01*
X176361482Y-106982188D01*
X176237000Y-106969928D01*
X175672750Y-106973000D01*
X175514000Y-107131750D01*
X175260000Y-107131750D01*
X175101250Y-106973000D01*
X174537000Y-106969928D01*
X174412518Y-106982188D01*
X174292820Y-107018498D01*
X174182506Y-107077463D01*
X174085815Y-107156815D01*
X174006463Y-107253506D01*
X173947498Y-107363820D01*
X173911188Y-107483518D01*
X173898928Y-107608000D01*
X170835299Y-107608000D01*
X170960181Y-107421102D01*
X171139967Y-106987060D01*
X171231621Y-106526283D01*
X171231621Y-106056479D01*
X171139967Y-105595702D01*
X170960181Y-105161660D01*
X170699171Y-104771032D01*
X170366970Y-104438831D01*
X169976342Y-104177821D01*
X169542300Y-103998035D01*
X169081523Y-103906381D01*
X168611719Y-103906381D01*
X168150942Y-103998035D01*
X167716900Y-104177821D01*
X167326272Y-104438831D01*
X166994071Y-104771032D01*
X166733061Y-105161660D01*
X166553275Y-105595702D01*
X166461621Y-106056479D01*
X165933181Y-106056479D01*
X165841527Y-105595702D01*
X165661741Y-105161660D01*
X165400731Y-104771032D01*
X165068530Y-104438831D01*
X164677902Y-104177821D01*
X164243860Y-103998035D01*
X163783083Y-103906381D01*
X163313279Y-103906381D01*
X162852502Y-103998035D01*
X162418460Y-104177821D01*
X162233180Y-104301621D01*
X162233180Y-102797398D01*
X162976040Y-102054539D01*
X163048740Y-102069000D01*
X163341260Y-102069000D01*
X163628158Y-102011932D01*
X163898411Y-101899990D01*
X164141632Y-101737475D01*
X164348475Y-101530632D01*
X164465000Y-101356240D01*
X164581525Y-101530632D01*
X164788368Y-101737475D01*
X165031589Y-101899990D01*
X165301842Y-102011932D01*
X165588740Y-102069000D01*
X165881260Y-102069000D01*
X166168158Y-102011932D01*
X166438411Y-101899990D01*
X166681632Y-101737475D01*
X166813487Y-101605620D01*
X166835498Y-101678180D01*
X166894463Y-101788494D01*
X166973815Y-101885185D01*
X167070506Y-101964537D01*
X167180820Y-102023502D01*
X167300518Y-102059812D01*
X167425000Y-102072072D01*
X169125000Y-102072072D01*
X169249482Y-102059812D01*
X169369180Y-102023502D01*
X169479494Y-101964537D01*
X169576185Y-101885185D01*
X169655537Y-101788494D01*
X169714502Y-101678180D01*
X169750812Y-101558482D01*
X169754882Y-101517148D01*
X174013819Y-101517148D01*
X174289989Y-101935118D01*
X174834919Y-102225649D01*
X175426058Y-102404287D01*
X176040690Y-102464168D01*
X176655193Y-102402990D01*
X177245954Y-102223103D01*
X177784735Y-101935118D01*
X178060905Y-101517148D01*
X176037362Y-99493605D01*
X174013819Y-101517148D01*
X169754882Y-101517148D01*
X169763072Y-101434000D01*
X169763072Y-99734000D01*
X169750812Y-99609518D01*
X169714502Y-99489820D01*
X169655537Y-99379506D01*
X169604509Y-99317328D01*
X172887194Y-99317328D01*
X172948372Y-99931831D01*
X173128259Y-100522592D01*
X173416244Y-101061373D01*
X173834214Y-101337543D01*
X175857757Y-99314000D01*
X176216967Y-99314000D01*
X178240510Y-101337543D01*
X178658480Y-101061373D01*
X178949011Y-100516443D01*
X179127649Y-99925304D01*
X179187530Y-99310672D01*
X179126352Y-98696169D01*
X178946465Y-98105408D01*
X178658480Y-97566627D01*
X178240510Y-97290457D01*
X176216967Y-99314000D01*
X175857757Y-99314000D01*
X173834214Y-97290457D01*
X173416244Y-97566627D01*
X173125713Y-98111557D01*
X172947075Y-98702696D01*
X172887194Y-99317328D01*
X169604509Y-99317328D01*
X169576185Y-99282815D01*
X169479494Y-99203463D01*
X169369180Y-99144498D01*
X169249482Y-99108188D01*
X169125000Y-99095928D01*
X168038506Y-99095928D01*
X167631533Y-98688955D01*
X167603816Y-98655182D01*
X167469058Y-98544588D01*
X167315312Y-98462410D01*
X167148489Y-98411804D01*
X167018476Y-98398999D01*
X167018468Y-98398999D01*
X166974999Y-98394718D01*
X166931530Y-98398999D01*
X157534464Y-98398999D01*
X157490998Y-98394718D01*
X157447532Y-98398999D01*
X157447522Y-98398999D01*
X157317509Y-98411804D01*
X157150686Y-98462410D01*
X156996940Y-98544588D01*
X156967451Y-98568789D01*
X156895952Y-98627467D01*
X156895950Y-98627469D01*
X156862182Y-98655182D01*
X156834469Y-98688950D01*
X154312088Y-101211332D01*
X154278316Y-101239048D01*
X154167722Y-101373806D01*
X154085544Y-101527552D01*
X154034938Y-101694375D01*
X154027606Y-101768815D01*
X151525072Y-104271350D01*
X151525072Y-103621000D01*
X151512812Y-103496518D01*
X151476502Y-103376820D01*
X151417537Y-103266506D01*
X151338185Y-103169815D01*
X151241494Y-103090463D01*
X151131180Y-103031498D01*
X151011482Y-102995188D01*
X150887000Y-102982928D01*
X149087000Y-102982928D01*
X148962518Y-102995188D01*
X148842820Y-103031498D01*
X148732506Y-103090463D01*
X148635815Y-103169815D01*
X148556463Y-103266506D01*
X148497498Y-103376820D01*
X148461188Y-103496518D01*
X148448928Y-103621000D01*
X118632072Y-103621000D01*
X118619812Y-103496518D01*
X118583502Y-103376820D01*
X118524537Y-103266506D01*
X118445185Y-103169815D01*
X118348494Y-103090463D01*
X118238180Y-103031498D01*
X118118482Y-102995188D01*
X117994000Y-102982928D01*
X116194000Y-102982928D01*
X116069518Y-102995188D01*
X115949820Y-103031498D01*
X115839506Y-103090463D01*
X115742815Y-103169815D01*
X115663463Y-103266506D01*
X115604498Y-103376820D01*
X115568188Y-103496518D01*
X115555928Y-103621000D01*
X115555928Y-105421000D01*
X115568188Y-105545482D01*
X115604498Y-105665180D01*
X115663463Y-105775494D01*
X115742815Y-105872185D01*
X115839506Y-105951537D01*
X115949820Y-106010502D01*
X115968127Y-106016056D01*
X115901688Y-106082495D01*
X115733701Y-106333905D01*
X115617989Y-106613257D01*
X115559000Y-106909816D01*
X115559000Y-107212184D01*
X115617989Y-107508743D01*
X115733701Y-107788095D01*
X115901688Y-108039505D01*
X115963182Y-108100999D01*
X110993528Y-108100999D01*
X110950062Y-108096718D01*
X110906596Y-108100999D01*
X110906586Y-108100999D01*
X110776573Y-108113804D01*
X110609750Y-108164410D01*
X110456004Y-108246588D01*
X110456002Y-108246589D01*
X110456003Y-108246589D01*
X110355016Y-108329467D01*
X110355014Y-108329469D01*
X110321246Y-108357182D01*
X110293533Y-108390950D01*
X109787021Y-108897462D01*
X109542300Y-108796095D01*
X109081523Y-108704441D01*
X108611719Y-108704441D01*
X108150942Y-108796095D01*
X107716900Y-108975881D01*
X107326272Y-109236891D01*
X106994071Y-109569092D01*
X106733061Y-109959720D01*
X106553275Y-110393762D01*
X106461621Y-110854539D01*
X105933181Y-110854539D01*
X105841527Y-110393762D01*
X105661741Y-109959720D01*
X105400731Y-109569092D01*
X105068530Y-109236891D01*
X104677902Y-108975881D01*
X104243860Y-108796095D01*
X103783083Y-108704441D01*
X103313279Y-108704441D01*
X102852502Y-108796095D01*
X102418460Y-108975881D01*
X102027832Y-109236891D01*
X101695631Y-109569092D01*
X101434621Y-109959720D01*
X101254835Y-110393762D01*
X101163181Y-110854539D01*
X100634741Y-110854539D01*
X100543087Y-110393762D01*
X100363301Y-109959720D01*
X100102291Y-109569092D01*
X99770090Y-109236891D01*
X99379462Y-108975881D01*
X98945420Y-108796095D01*
X98484643Y-108704441D01*
X98014839Y-108704441D01*
X97554062Y-108796095D01*
X97120020Y-108975881D01*
X96934740Y-109099681D01*
X96934740Y-108281141D01*
X97120020Y-108404941D01*
X97554062Y-108584727D01*
X98014839Y-108676381D01*
X98484643Y-108676381D01*
X98945420Y-108584727D01*
X99379462Y-108404941D01*
X99770090Y-108143931D01*
X100102291Y-107811730D01*
X100363301Y-107421102D01*
X100543087Y-106987060D01*
X100634741Y-106526283D01*
X100634741Y-106056479D01*
X101163181Y-106056479D01*
X101163181Y-106526283D01*
X101254835Y-106987060D01*
X101434621Y-107421102D01*
X101695631Y-107811730D01*
X102027832Y-108143931D01*
X102418460Y-108404941D01*
X102852502Y-108584727D01*
X103313279Y-108676381D01*
X103783083Y-108676381D01*
X104243860Y-108584727D01*
X104677902Y-108404941D01*
X105068530Y-108143931D01*
X105400731Y-107811730D01*
X105661741Y-107421102D01*
X105841527Y-106987060D01*
X105933181Y-106526283D01*
X105933181Y-106056479D01*
X106461621Y-106056479D01*
X106461621Y-106526283D01*
X106553275Y-106987060D01*
X106733061Y-107421102D01*
X106994071Y-107811730D01*
X107326272Y-108143931D01*
X107716900Y-108404941D01*
X108150942Y-108584727D01*
X108611719Y-108676381D01*
X109081523Y-108676381D01*
X109542300Y-108584727D01*
X109976342Y-108404941D01*
X110366970Y-108143931D01*
X110699171Y-107811730D01*
X110960181Y-107421102D01*
X111139967Y-106987060D01*
X111231621Y-106526283D01*
X111231621Y-106056479D01*
X111139967Y-105595702D01*
X110960181Y-105161660D01*
X110699171Y-104771032D01*
X110366970Y-104438831D01*
X109976342Y-104177821D01*
X109542300Y-103998035D01*
X109081523Y-103906381D01*
X108611719Y-103906381D01*
X108150942Y-103998035D01*
X107716900Y-104177821D01*
X107326272Y-104438831D01*
X106994071Y-104771032D01*
X106733061Y-105161660D01*
X106553275Y-105595702D01*
X106461621Y-106056479D01*
X105933181Y-106056479D01*
X105841527Y-105595702D01*
X105661741Y-105161660D01*
X105400731Y-104771032D01*
X105068530Y-104438831D01*
X104677902Y-104177821D01*
X104243860Y-103998035D01*
X103783083Y-103906381D01*
X103313279Y-103906381D01*
X102852502Y-103998035D01*
X102418460Y-104177821D01*
X102027832Y-104438831D01*
X101695631Y-104771032D01*
X101434621Y-105161660D01*
X101254835Y-105595702D01*
X101163181Y-106056479D01*
X100634741Y-106056479D01*
X100543087Y-105595702D01*
X100363301Y-105161660D01*
X100102291Y-104771032D01*
X99770090Y-104438831D01*
X99379462Y-104177821D01*
X98945420Y-103998035D01*
X98606149Y-103930550D01*
X100539486Y-101997212D01*
X100575023Y-102011932D01*
X100861921Y-102069000D01*
X101154441Y-102069000D01*
X101441339Y-102011932D01*
X101711592Y-101899990D01*
X101954813Y-101737475D01*
X102161656Y-101530632D01*
X102278181Y-101356240D01*
X102394706Y-101530632D01*
X102601549Y-101737475D01*
X102844770Y-101899990D01*
X103115023Y-102011932D01*
X103401921Y-102069000D01*
X103694441Y-102069000D01*
X103981339Y-102011932D01*
X104251592Y-101899990D01*
X104494813Y-101737475D01*
X104701656Y-101530632D01*
X104818181Y-101356240D01*
X104934706Y-101530632D01*
X105141549Y-101737475D01*
X105384770Y-101899990D01*
X105655023Y-102011932D01*
X105941921Y-102069000D01*
X106234441Y-102069000D01*
X106521339Y-102011932D01*
X106791592Y-101899990D01*
X107034813Y-101737475D01*
X107166668Y-101605620D01*
X107188679Y-101678180D01*
X107247644Y-101788494D01*
X107326996Y-101885185D01*
X107423687Y-101964537D01*
X107534001Y-102023502D01*
X107653699Y-102059812D01*
X107778181Y-102072072D01*
X109478181Y-102072072D01*
X109602663Y-102059812D01*
X109722361Y-102023502D01*
X109832675Y-101964537D01*
X109929366Y-101885185D01*
X110008718Y-101788494D01*
X110067683Y-101678180D01*
X110103993Y-101558482D01*
X110116253Y-101434000D01*
X110116253Y-99734000D01*
X110103993Y-99609518D01*
X110067683Y-99489820D01*
X110008718Y-99379506D01*
X109929366Y-99282815D01*
X109832675Y-99203463D01*
X109765844Y-99167740D01*
X130793181Y-99167740D01*
X130793181Y-99460260D01*
X130850249Y-99747158D01*
X130962191Y-100017411D01*
X131124706Y-100260632D01*
X131331549Y-100467475D01*
X131574770Y-100629990D01*
X131845023Y-100741932D01*
X132131921Y-100799000D01*
X132424441Y-100799000D01*
X132711339Y-100741932D01*
X132981592Y-100629990D01*
X133224813Y-100467475D01*
X133356668Y-100335620D01*
X133378679Y-100408180D01*
X133437644Y-100518494D01*
X133516996Y-100615185D01*
X133613687Y-100694537D01*
X133724001Y-100753502D01*
X133843699Y-100789812D01*
X133968181Y-100802072D01*
X135668181Y-100802072D01*
X135792663Y-100789812D01*
X135912361Y-100753502D01*
X136022675Y-100694537D01*
X136119366Y-100615185D01*
X136198718Y-100518494D01*
X136257683Y-100408180D01*
X136293993Y-100288482D01*
X136306253Y-100164000D01*
X136306253Y-98464000D01*
X136293993Y-98339518D01*
X136257683Y-98219820D01*
X136198718Y-98109506D01*
X136119366Y-98012815D01*
X136022675Y-97933463D01*
X135912361Y-97874498D01*
X135792663Y-97838188D01*
X135668181Y-97825928D01*
X133968181Y-97825928D01*
X133843699Y-97838188D01*
X133724001Y-97874498D01*
X133613687Y-97933463D01*
X133516996Y-98012815D01*
X133437644Y-98109506D01*
X133378679Y-98219820D01*
X133356668Y-98292380D01*
X133224813Y-98160525D01*
X132981592Y-97998010D01*
X132711339Y-97886068D01*
X132424441Y-97829000D01*
X132131921Y-97829000D01*
X131845023Y-97886068D01*
X131574770Y-97998010D01*
X131331549Y-98160525D01*
X131124706Y-98367368D01*
X130962191Y-98610589D01*
X130850249Y-98880842D01*
X130793181Y-99167740D01*
X109765844Y-99167740D01*
X109722361Y-99144498D01*
X109602663Y-99108188D01*
X109478181Y-99095928D01*
X107778181Y-99095928D01*
X107653699Y-99108188D01*
X107534001Y-99144498D01*
X107423687Y-99203463D01*
X107326996Y-99282815D01*
X107247644Y-99379506D01*
X107188679Y-99489820D01*
X107166668Y-99562380D01*
X107034813Y-99430525D01*
X106791592Y-99268010D01*
X106521339Y-99156068D01*
X106234441Y-99099000D01*
X105941921Y-99099000D01*
X105655023Y-99156068D01*
X105384770Y-99268010D01*
X105141549Y-99430525D01*
X104934706Y-99637368D01*
X104818181Y-99811760D01*
X104701656Y-99637368D01*
X104494813Y-99430525D01*
X104251592Y-99268010D01*
X103981339Y-99156068D01*
X103694441Y-99099000D01*
X103401921Y-99099000D01*
X103115023Y-99156068D01*
X102844770Y-99268010D01*
X102601549Y-99430525D01*
X102394706Y-99637368D01*
X102278181Y-99811760D01*
X102161656Y-99637368D01*
X101954813Y-99430525D01*
X101711592Y-99268010D01*
X101441339Y-99156068D01*
X101154441Y-99099000D01*
X100861921Y-99099000D01*
X100575023Y-99156068D01*
X100304770Y-99268010D01*
X100061549Y-99430525D01*
X99854706Y-99637368D01*
X99732986Y-99819534D01*
X99663359Y-99702645D01*
X99468450Y-99486412D01*
X99235101Y-99312359D01*
X98972280Y-99187175D01*
X98825071Y-99142524D01*
X98595181Y-99263845D01*
X98595181Y-100457000D01*
X98615181Y-100457000D01*
X98615181Y-100711000D01*
X98595181Y-100711000D01*
X98595181Y-100731000D01*
X98341181Y-100731000D01*
X98341181Y-100711000D01*
X97147367Y-100711000D01*
X97026700Y-100940891D01*
X97124024Y-101215252D01*
X97273003Y-101465355D01*
X97467912Y-101681588D01*
X97701261Y-101855641D01*
X97964082Y-101980825D01*
X98032089Y-102001453D01*
X95454692Y-104578850D01*
X95420924Y-104606563D01*
X95393211Y-104640331D01*
X95393208Y-104640334D01*
X95310330Y-104741321D01*
X95228152Y-104895067D01*
X95177545Y-105061890D01*
X95160459Y-105235380D01*
X87844000Y-105235380D01*
X87844000Y-101517148D01*
X89035457Y-101517148D01*
X89311627Y-101935118D01*
X89856557Y-102225649D01*
X90447696Y-102404287D01*
X91062328Y-102464168D01*
X91676831Y-102402990D01*
X92267592Y-102223103D01*
X92806373Y-101935118D01*
X93082543Y-101517148D01*
X91059000Y-99493605D01*
X89035457Y-101517148D01*
X87844000Y-101517148D01*
X87844000Y-99352397D01*
X87847438Y-99317328D01*
X87908832Y-99317328D01*
X87970010Y-99931831D01*
X88149897Y-100522592D01*
X88437882Y-101061373D01*
X88855852Y-101337543D01*
X90879395Y-99314000D01*
X91238605Y-99314000D01*
X93262148Y-101337543D01*
X93680118Y-101061373D01*
X93970649Y-100516443D01*
X94058083Y-100227109D01*
X97026700Y-100227109D01*
X97147367Y-100457000D01*
X98341181Y-100457000D01*
X98341181Y-99263845D01*
X98111291Y-99142524D01*
X97964082Y-99187175D01*
X97701261Y-99312359D01*
X97467912Y-99486412D01*
X97273003Y-99702645D01*
X97124024Y-99952748D01*
X97026700Y-100227109D01*
X94058083Y-100227109D01*
X94149287Y-99925304D01*
X94209168Y-99310672D01*
X94147990Y-98696169D01*
X93968103Y-98105408D01*
X93680118Y-97566627D01*
X93262148Y-97290457D01*
X91238605Y-99314000D01*
X90879395Y-99314000D01*
X88855852Y-97290457D01*
X88437882Y-97566627D01*
X88147351Y-98111557D01*
X87968713Y-98702696D01*
X87908832Y-99317328D01*
X87847438Y-99317328D01*
X87908922Y-98690267D01*
X88090065Y-98090292D01*
X88384293Y-97536931D01*
X88731793Y-97110852D01*
X89035457Y-97110852D01*
X91059000Y-99134395D01*
X93082543Y-97110852D01*
X174013819Y-97110852D01*
X176037362Y-99134395D01*
X178060905Y-97110852D01*
X177784735Y-96692882D01*
X177239805Y-96402351D01*
X176648666Y-96223713D01*
X176034034Y-96163832D01*
X175419531Y-96225010D01*
X174828770Y-96404897D01*
X174289989Y-96692882D01*
X174013819Y-97110852D01*
X93082543Y-97110852D01*
X92806373Y-96692882D01*
X92261443Y-96402351D01*
X91670304Y-96223713D01*
X91055672Y-96163832D01*
X90441169Y-96225010D01*
X89850408Y-96404897D01*
X89311627Y-96692882D01*
X89035457Y-97110852D01*
X88731793Y-97110852D01*
X88780400Y-97051255D01*
X89263301Y-96651764D01*
X89814594Y-96353681D01*
X90413291Y-96168353D01*
X91073142Y-96099000D01*
X175998965Y-96099000D01*
X176661095Y-96163922D01*
G37*
G04 #@! TD.AperFunction*
G04 #@! TD*
M02*
