M48
; DRILL file {KiCad (5.1.7)-1} date 04/04/22 18:58:49
; FORMAT={-:-/ absolute / inch / decimal}
; #@! TF.CreationDate,2022-04-04T18:58:49-05:00
; #@! TF.GenerationSoftware,Kicad,Pcbnew,(5.1.7)-1
; #@! TF.FileFunction,Plated,1,2,PTH
FMAT,2
INCH
T1C0.0157
T2C0.0315
T3C0.0354
T4C0.0394
T5C0.0433
T6C0.0492
T7C0.0787
T8C0.0984
%
G90
G05
T1
X5.92Y-4.51
T2
X4.61Y-4.34
X4.61Y-4.74
X5.905Y-4.34
X5.905Y-4.74
T3
X4.61Y-4.115
X4.61Y-4.215
X5.905Y-4.115
X5.905Y-4.215
T4
X6.225Y-3.96
X6.325Y-3.96
X6.425Y-3.96
X6.525Y-3.96
X6.625Y-3.96
X3.8767Y-3.96
X3.9767Y-3.96
X4.0767Y-3.96
X4.1767Y-3.96
X4.2767Y-3.96
X5.2078Y-3.91
X5.3078Y-3.91
T5
X5.05Y-4.165
X5.45Y-4.165
T6
X3.61Y-4.3236
X3.61Y-4.4236
X6.905Y-4.27
X6.905Y-4.37
X6.905Y-4.47
T7
X6.2303Y-4.1847
X6.2303Y-4.3736
X6.2303Y-4.5625
X6.4389Y-4.1847
X6.4389Y-4.3736
X6.4389Y-4.5625
X6.6475Y-4.1847
X6.6475Y-4.3736
X6.6475Y-4.5625
X3.8681Y-4.1847
X3.8681Y-4.3736
X3.8681Y-4.5625
X4.0767Y-4.1847
X4.0767Y-4.3736
X4.0767Y-4.5625
X4.2853Y-4.1847
X4.2853Y-4.3736
X4.2853Y-4.5625
T8
X3.585Y-4.8372
X6.9306Y-4.8372
X6.9306Y-3.91
X3.585Y-3.91
T0
M30
