G04 #@! TF.GenerationSoftware,KiCad,Pcbnew,(5.1.7)-1*
G04 #@! TF.CreationDate,2021-11-02T16:03:08-05:00*
G04 #@! TF.ProjectId,BadConnection,42616443-6f6e-46e6-9563-74696f6e2e6b,rev?*
G04 #@! TF.SameCoordinates,Original*
G04 #@! TF.FileFunction,Copper,L1,Top*
G04 #@! TF.FilePolarity,Positive*
%FSLAX46Y46*%
G04 Gerber Fmt 4.6, Leading zero omitted, Abs format (unit mm)*
G04 Created by KiCad (PCBNEW (5.1.7)-1) date 2021-11-02 16:03:08*
%MOMM*%
%LPD*%
G01*
G04 APERTURE LIST*
G04 #@! TA.AperFunction,ComponentPad*
%ADD10C,1.600000*%
G04 #@! TD*
G04 #@! TA.AperFunction,ComponentPad*
%ADD11O,1.600000X1.600000*%
G04 #@! TD*
G04 #@! TA.AperFunction,ComponentPad*
%ADD12R,1.800000X1.800000*%
G04 #@! TD*
G04 #@! TA.AperFunction,ComponentPad*
%ADD13C,1.800000*%
G04 #@! TD*
G04 #@! TA.AperFunction,ComponentPad*
%ADD14C,5.000000*%
G04 #@! TD*
G04 #@! TA.AperFunction,ConnectorPad*
%ADD15R,1.500000X7.000000*%
G04 #@! TD*
G04 #@! TA.AperFunction,ComponentPad*
%ADD16R,1.600000X1.600000*%
G04 #@! TD*
G04 #@! TA.AperFunction,ComponentPad*
%ADD17R,1.700000X1.700000*%
G04 #@! TD*
G04 #@! TA.AperFunction,ComponentPad*
%ADD18O,1.700000X1.700000*%
G04 #@! TD*
G04 #@! TA.AperFunction,ComponentPad*
%ADD19C,1.440000*%
G04 #@! TD*
G04 #@! TA.AperFunction,WasherPad*
%ADD20C,4.000000*%
G04 #@! TD*
G04 #@! TA.AperFunction,ViaPad*
%ADD21C,0.800000*%
G04 #@! TD*
G04 #@! TA.AperFunction,Conductor*
%ADD22C,0.500000*%
G04 #@! TD*
G04 #@! TA.AperFunction,Conductor*
%ADD23C,0.254000*%
G04 #@! TD*
G04 #@! TA.AperFunction,Conductor*
%ADD24C,0.100000*%
G04 #@! TD*
G04 APERTURE END LIST*
D10*
G04 #@! TO.P,R15,1*
G04 #@! TO.N,GND*
X120650000Y-104267000D03*
D11*
G04 #@! TO.P,R15,2*
G04 #@! TO.N,Net-(D5-Pad1)*
X120650000Y-94107000D03*
G04 #@! TD*
D12*
G04 #@! TO.P,D5,1*
G04 #@! TO.N,Net-(D5-Pad1)*
X115250000Y-95000000D03*
D13*
G04 #@! TO.P,D5,2*
G04 #@! TO.N,/LEDPower*
X115250000Y-97540000D03*
G04 #@! TD*
G04 #@! TO.P,D6,2*
G04 #@! TO.N,/LEDPower*
X150250000Y-97540000D03*
D12*
G04 #@! TO.P,D6,1*
G04 #@! TO.N,Net-(D6-Pad1)*
X150250000Y-95000000D03*
G04 #@! TD*
D14*
G04 #@! TO.P,H1,1*
G04 #@! TO.N,GND*
X85350000Y-122600000D03*
G04 #@! TD*
G04 #@! TO.P,H2,1*
G04 #@! TO.N,GND*
X180150000Y-122600000D03*
G04 #@! TD*
D15*
G04 #@! TO.P,J1,25*
G04 #@! TO.N,GND*
X163230000Y-126000000D03*
G04 #@! TO.P,J1,24*
X160690000Y-126000000D03*
G04 #@! TO.P,J1,23*
G04 #@! TO.N,/Input*
X158150000Y-126000000D03*
G04 #@! TO.P,J1,22*
G04 #@! TO.N,/Output*
X155610000Y-126000000D03*
G04 #@! TO.P,J1,21*
G04 #@! TO.N,+9V*
X153070000Y-126000000D03*
G04 #@! TO.P,J1,20*
G04 #@! TO.N,/LEDPower*
X150530000Y-126000000D03*
G04 #@! TO.P,J1,19*
G04 #@! TO.N,N/C*
X147990000Y-126000000D03*
G04 #@! TO.P,J1,18*
X145450000Y-126000000D03*
G04 #@! TO.P,J1,17*
X142910000Y-126000000D03*
G04 #@! TO.P,J1,16*
X140370000Y-126000000D03*
G04 #@! TO.P,J1,15*
X137830000Y-126000000D03*
G04 #@! TO.P,J1,14*
X135290000Y-126000000D03*
G04 #@! TO.P,J1,13*
X132750000Y-126000000D03*
G04 #@! TO.P,J1,12*
X130210000Y-126000000D03*
G04 #@! TO.P,J1,11*
X127670000Y-126000000D03*
G04 #@! TO.P,J1,10*
X125130000Y-126000000D03*
G04 #@! TO.P,J1,9*
X122590000Y-126000000D03*
G04 #@! TO.P,J1,8*
X120050000Y-126000000D03*
G04 #@! TO.P,J1,7*
X117510000Y-126000000D03*
G04 #@! TO.P,J1,6*
G04 #@! TO.N,/LEDPower*
X114970000Y-126000000D03*
G04 #@! TO.P,J1,5*
G04 #@! TO.N,+9V*
X112430000Y-126000000D03*
G04 #@! TO.P,J1,4*
G04 #@! TO.N,/Output*
X109890000Y-126000000D03*
G04 #@! TO.P,J1,3*
G04 #@! TO.N,/Input*
X107350000Y-126000000D03*
G04 #@! TO.P,J1,2*
G04 #@! TO.N,GND*
X104810000Y-126000000D03*
G04 #@! TO.P,J1,1*
X102270000Y-126000000D03*
G04 #@! TD*
D10*
G04 #@! TO.P,R16,1*
G04 #@! TO.N,Net-(D6-Pad1)*
X158623000Y-87503000D03*
D11*
G04 #@! TO.P,R16,2*
G04 #@! TO.N,GND*
X158623000Y-77343000D03*
G04 #@! TD*
D10*
G04 #@! TO.P,C1,1*
G04 #@! TO.N,Net-(C1-Pad1)*
X109220000Y-104667000D03*
G04 #@! TO.P,C1,2*
G04 #@! TO.N,/Input*
X104220000Y-104667000D03*
G04 #@! TD*
G04 #@! TO.P,C2,1*
G04 #@! TO.N,GND*
X161417000Y-95485000D03*
G04 #@! TO.P,C2,2*
G04 #@! TO.N,/pin2*
X156417000Y-95485000D03*
G04 #@! TD*
G04 #@! TO.P,C3,2*
G04 #@! TO.N,Net-(C3-Pad2)*
X130191500Y-93999000D03*
G04 #@! TO.P,C3,1*
G04 #@! TO.N,GND*
X135191500Y-93999000D03*
G04 #@! TD*
D16*
G04 #@! TO.P,C4,1*
G04 #@! TO.N,Net-(C4-Pad1)*
X97282000Y-88519000D03*
D10*
G04 #@! TO.P,C4,2*
G04 #@! TO.N,GND*
X94782000Y-88519000D03*
G04 #@! TD*
G04 #@! TO.P,C5,1*
G04 #@! TO.N,/VREF*
X109220000Y-95612000D03*
G04 #@! TO.P,C5,2*
G04 #@! TO.N,Net-(C5-Pad2)*
X104220000Y-95612000D03*
G04 #@! TD*
G04 #@! TO.P,C6,2*
G04 #@! TO.N,Net-(C6-Pad2)*
X156417000Y-104540000D03*
G04 #@! TO.P,C6,1*
G04 #@! TO.N,/Output*
X161417000Y-104540000D03*
G04 #@! TD*
G04 #@! TO.P,C7,2*
G04 #@! TO.N,GND*
X168061000Y-88519000D03*
D16*
G04 #@! TO.P,C7,1*
G04 #@! TO.N,+9V*
X170561000Y-88519000D03*
G04 #@! TD*
D11*
G04 #@! TO.P,D1,2*
G04 #@! TO.N,Net-(D1-Pad2)*
X117221000Y-108712000D03*
D16*
G04 #@! TO.P,D1,1*
G04 #@! TO.N,Net-(D1-Pad1)*
X117221000Y-101092000D03*
G04 #@! TD*
G04 #@! TO.P,D2,1*
G04 #@! TO.N,Net-(D2-Pad1)*
X85217000Y-90297000D03*
D11*
G04 #@! TO.P,D2,2*
G04 #@! TO.N,Net-(C5-Pad2)*
X85217000Y-82677000D03*
G04 #@! TD*
G04 #@! TO.P,D3,2*
G04 #@! TO.N,Net-(D3-Pad2)*
X140843000Y-78359000D03*
D16*
G04 #@! TO.P,D3,1*
G04 #@! TO.N,Net-(D3-Pad1)*
X140843000Y-85979000D03*
G04 #@! TD*
G04 #@! TO.P,D4,1*
G04 #@! TO.N,Net-(D3-Pad2)*
X146431000Y-72644000D03*
D11*
G04 #@! TO.P,D4,2*
G04 #@! TO.N,Net-(D4-Pad2)*
X154051000Y-72644000D03*
G04 #@! TD*
D17*
G04 #@! TO.P,J2,1*
G04 #@! TO.N,/M1*
X131480000Y-71882000D03*
D18*
G04 #@! TO.P,J2,2*
G04 #@! TO.N,/M2*
X134020000Y-71882000D03*
G04 #@! TD*
D10*
G04 #@! TO.P,R1,1*
G04 #@! TO.N,Net-(C1-Pad1)*
X140716000Y-104140000D03*
D11*
G04 #@! TO.P,R1,2*
G04 #@! TO.N,GND*
X140716000Y-93980000D03*
G04 #@! TD*
G04 #@! TO.P,R2,2*
G04 #@! TO.N,Net-(C1-Pad1)*
X144653000Y-104140000D03*
D10*
G04 #@! TO.P,R2,1*
G04 #@! TO.N,+9V*
X144653000Y-93980000D03*
G04 #@! TD*
D11*
G04 #@! TO.P,R3,2*
G04 #@! TO.N,/VREF*
X176403000Y-105664000D03*
D10*
G04 #@! TO.P,R3,1*
G04 #@! TO.N,/pin1*
X176403000Y-95504000D03*
G04 #@! TD*
D11*
G04 #@! TO.P,R4,2*
G04 #@! TO.N,GND*
X114427000Y-107823000D03*
D10*
G04 #@! TO.P,R4,1*
G04 #@! TO.N,/Input*
X104267000Y-107823000D03*
G04 #@! TD*
G04 #@! TO.P,R5,1*
G04 #@! TO.N,Net-(R14-Pad1)*
X124714000Y-104267000D03*
D11*
G04 #@! TO.P,R5,2*
G04 #@! TO.N,Net-(C3-Pad2)*
X124714000Y-94107000D03*
G04 #@! TD*
D10*
G04 #@! TO.P,R6,1*
G04 #@! TO.N,Net-(D1-Pad1)*
X106426000Y-77470000D03*
D11*
G04 #@! TO.P,R6,2*
G04 #@! TO.N,Net-(C4-Pad1)*
X106426000Y-87630000D03*
G04 #@! TD*
D10*
G04 #@! TO.P,R7,1*
G04 #@! TO.N,Net-(C4-Pad1)*
X102489000Y-87630000D03*
D11*
G04 #@! TO.P,R7,2*
G04 #@! TO.N,GND*
X102489000Y-77470000D03*
G04 #@! TD*
D10*
G04 #@! TO.P,R8,1*
G04 #@! TO.N,/pin13*
X90805000Y-74041000D03*
D11*
G04 #@! TO.P,R8,2*
G04 #@! TO.N,/M1*
X100965000Y-74041000D03*
G04 #@! TD*
G04 #@! TO.P,R9,2*
G04 #@! TO.N,/VREF*
X174498000Y-74041000D03*
D10*
G04 #@! TO.P,R9,1*
G04 #@! TO.N,/M2*
X164338000Y-74041000D03*
G04 #@! TD*
D11*
G04 #@! TO.P,R10,2*
G04 #@! TO.N,Net-(C5-Pad2)*
X124841000Y-87376000D03*
D10*
G04 #@! TO.P,R10,1*
G04 #@! TO.N,Net-(D3-Pad2)*
X124841000Y-77216000D03*
G04 #@! TD*
G04 #@! TO.P,R11,1*
G04 #@! TO.N,/Output*
X161417000Y-107823000D03*
D11*
G04 #@! TO.P,R11,2*
G04 #@! TO.N,GND*
X151257000Y-107823000D03*
G04 #@! TD*
D10*
G04 #@! TO.P,R12,1*
G04 #@! TO.N,Net-(R12-Pad1)*
X104267000Y-111252000D03*
D11*
G04 #@! TO.P,R12,2*
G04 #@! TO.N,GND*
X114427000Y-111252000D03*
G04 #@! TD*
G04 #@! TO.P,R13,2*
G04 #@! TO.N,Net-(R12-Pad1)*
X89154000Y-95504000D03*
D10*
G04 #@! TO.P,R13,1*
G04 #@! TO.N,+9V*
X89154000Y-105664000D03*
G04 #@! TD*
D11*
G04 #@! TO.P,R14,2*
G04 #@! TO.N,Net-(D1-Pad2)*
X127508000Y-110109000D03*
D10*
G04 #@! TO.P,R14,1*
G04 #@! TO.N,Net-(R14-Pad1)*
X137668000Y-110109000D03*
G04 #@! TD*
D19*
G04 #@! TO.P,RV1,3*
G04 #@! TO.N,+9V*
X135295000Y-77960000D03*
G04 #@! TO.P,RV1,2*
G04 #@! TO.N,Net-(RV1-Pad2)*
X132755000Y-83040000D03*
G04 #@! TO.P,RV1,1*
G04 #@! TO.N,GND*
X130215000Y-77960000D03*
G04 #@! TD*
D20*
G04 #@! TO.P,RV2,*
G04 #@! TO.N,*
X154650000Y-80500000D03*
X145850000Y-80500000D03*
D13*
G04 #@! TO.P,RV2,1*
G04 #@! TO.N,Net-(D4-Pad2)*
X152750000Y-87500000D03*
G04 #@! TO.P,RV2,2*
G04 #@! TO.N,/pin13*
X150250000Y-87500000D03*
G04 #@! TO.P,RV2,3*
G04 #@! TO.N,Net-(D3-Pad1)*
X147750000Y-87500000D03*
G04 #@! TD*
G04 #@! TO.P,RV3,3*
G04 #@! TO.N,/M2*
X112750000Y-87500000D03*
G04 #@! TO.P,RV3,2*
X115250000Y-87500000D03*
G04 #@! TO.P,RV3,1*
G04 #@! TO.N,/M1*
X117750000Y-87500000D03*
D20*
G04 #@! TO.P,RV3,*
G04 #@! TO.N,*
X110850000Y-80500000D03*
X119650000Y-80500000D03*
G04 #@! TD*
D16*
G04 #@! TO.P,U1,1*
G04 #@! TO.N,/pin1*
X128905000Y-98806000D03*
D11*
G04 #@! TO.P,U1,5*
G04 #@! TO.N,/pin2*
X136525000Y-106426000D03*
G04 #@! TO.P,U1,2*
G04 #@! TO.N,/pin1*
X128905000Y-101346000D03*
G04 #@! TO.P,U1,6*
G04 #@! TO.N,Net-(C6-Pad2)*
X136525000Y-103886000D03*
G04 #@! TO.P,U1,3*
G04 #@! TO.N,Net-(C1-Pad1)*
X128905000Y-103886000D03*
G04 #@! TO.P,U1,7*
G04 #@! TO.N,Net-(C6-Pad2)*
X136525000Y-101346000D03*
G04 #@! TO.P,U1,4*
G04 #@! TO.N,GND*
X128905000Y-106426000D03*
G04 #@! TO.P,U1,8*
G04 #@! TO.N,+9V*
X136525000Y-98806000D03*
G04 #@! TD*
D16*
G04 #@! TO.P,U2,1*
G04 #@! TO.N,Net-(D2-Pad1)*
X92250000Y-96000000D03*
D11*
G04 #@! TO.P,U2,8*
G04 #@! TO.N,/pin13*
X99870000Y-111240000D03*
G04 #@! TO.P,U2,2*
G04 #@! TO.N,Net-(RV1-Pad2)*
X92250000Y-98540000D03*
G04 #@! TO.P,U2,9*
G04 #@! TO.N,Net-(C5-Pad2)*
X99870000Y-108700000D03*
G04 #@! TO.P,U2,3*
G04 #@! TO.N,Net-(C4-Pad1)*
X92250000Y-101080000D03*
G04 #@! TO.P,U2,10*
G04 #@! TO.N,/M2*
X99870000Y-106160000D03*
G04 #@! TO.P,U2,4*
G04 #@! TO.N,+9V*
X92250000Y-103620000D03*
G04 #@! TO.P,U2,11*
G04 #@! TO.N,GND*
X99870000Y-103620000D03*
G04 #@! TO.P,U2,5*
G04 #@! TO.N,/pin1*
X92250000Y-106160000D03*
G04 #@! TO.P,U2,12*
G04 #@! TO.N,Net-(R12-Pad1)*
X99870000Y-101080000D03*
G04 #@! TO.P,U2,6*
G04 #@! TO.N,Net-(R14-Pad1)*
X92250000Y-108700000D03*
G04 #@! TO.P,U2,13*
G04 #@! TO.N,/VREF*
X99870000Y-98540000D03*
G04 #@! TO.P,U2,7*
G04 #@! TO.N,Net-(D1-Pad2)*
X92250000Y-111240000D03*
G04 #@! TO.P,U2,14*
G04 #@! TO.N,/VREF*
X99870000Y-96000000D03*
G04 #@! TD*
G04 #@! TO.P,U3,14*
G04 #@! TO.N,+9V*
X173250000Y-96000000D03*
G04 #@! TO.P,U3,7*
G04 #@! TO.N,GND*
X165630000Y-111240000D03*
G04 #@! TO.P,U3,13*
G04 #@! TO.N,/pin13*
X173250000Y-98540000D03*
G04 #@! TO.P,U3,6*
G04 #@! TO.N,GND*
X165630000Y-108700000D03*
G04 #@! TO.P,U3,12*
G04 #@! TO.N,+9V*
X173250000Y-101080000D03*
G04 #@! TO.P,U3,5*
G04 #@! TO.N,GND*
X165630000Y-106160000D03*
G04 #@! TO.P,U3,11*
G04 #@! TO.N,N/C*
X173250000Y-103620000D03*
G04 #@! TO.P,U3,4*
X165630000Y-103620000D03*
G04 #@! TO.P,U3,10*
X173250000Y-106160000D03*
G04 #@! TO.P,U3,3*
X165630000Y-101080000D03*
G04 #@! TO.P,U3,9*
X173250000Y-108700000D03*
G04 #@! TO.P,U3,2*
G04 #@! TO.N,/pin2*
X165630000Y-98540000D03*
G04 #@! TO.P,U3,8*
G04 #@! TO.N,N/C*
X173250000Y-111240000D03*
D16*
G04 #@! TO.P,U3,1*
G04 #@! TO.N,/pin1*
X165630000Y-96000000D03*
G04 #@! TD*
D21*
G04 #@! TO.N,GND*
X102616000Y-120904000D03*
X105156000Y-120904000D03*
X160528000Y-120904000D03*
X163068000Y-120904000D03*
X102108000Y-99695000D03*
X105537000Y-102616000D03*
X94742000Y-101727000D03*
X95631000Y-109855000D03*
X106680000Y-95504000D03*
G04 #@! TO.N,/LEDPower*
X115316000Y-120904000D03*
X150368000Y-120904000D03*
X112268000Y-107061000D03*
X146050000Y-99441000D03*
G04 #@! TO.N,/Input*
X107696000Y-120904000D03*
X157988000Y-120904000D03*
G04 #@! TO.N,/Output*
X110236000Y-120904000D03*
G04 #@! TO.N,+9V*
X112776000Y-120904000D03*
X152908000Y-120904000D03*
X109220000Y-112395000D03*
X167767000Y-99949000D03*
G04 #@! TO.N,Net-(D1-Pad1)*
X115062000Y-89916000D03*
G04 #@! TO.N,Net-(D1-Pad2)*
X106299000Y-114554000D03*
G04 #@! TO.N,/pin2*
X144780000Y-96139000D03*
G04 #@! TO.N,Net-(C5-Pad2)*
X106680000Y-111506000D03*
G04 #@! TO.N,Net-(C6-Pad2)*
X148844000Y-106426000D03*
G04 #@! TO.N,/Output*
X155448000Y-120904000D03*
G04 #@! TO.N,/M2*
X109601000Y-89662000D03*
G04 #@! TO.N,/pin1*
X149225000Y-102108000D03*
X103251000Y-102870000D03*
G04 #@! TO.N,Net-(R14-Pad1)*
X106299000Y-106045000D03*
G04 #@! TO.N,/pin13*
X97663000Y-103632000D03*
G04 #@! TO.N,Net-(RV1-Pad2)*
X103378000Y-84201000D03*
G04 #@! TD*
D22*
G04 #@! TO.N,GND*
X102270000Y-121250000D02*
X102616000Y-120904000D01*
X102270000Y-126000000D02*
X102270000Y-121250000D01*
X104810000Y-121250000D02*
X105156000Y-120904000D01*
X104810000Y-126000000D02*
X104810000Y-121250000D01*
X160690000Y-121066000D02*
X160528000Y-120904000D01*
X160690000Y-126000000D02*
X160690000Y-121066000D01*
X163230000Y-121066000D02*
X163068000Y-120904000D01*
X163230000Y-126000000D02*
X163230000Y-121066000D01*
G04 #@! TO.N,/LEDPower*
X150530000Y-121066000D02*
X150368000Y-120904000D01*
X150530000Y-126000000D02*
X150530000Y-121066000D01*
X114970000Y-121250000D02*
X115316000Y-120904000D01*
X114970000Y-126000000D02*
X114970000Y-121250000D01*
X115316000Y-120904000D02*
X115316000Y-115316000D01*
X112268000Y-112268000D02*
X112268000Y-107061000D01*
X115316000Y-115316000D02*
X112268000Y-112268000D01*
X150368000Y-120904000D02*
X150368000Y-115316000D01*
X146050000Y-110998000D02*
X146050000Y-99441000D01*
X150368000Y-115316000D02*
X146050000Y-110998000D01*
G04 #@! TO.N,/Input*
X107350000Y-121250000D02*
X107696000Y-120904000D01*
X107350000Y-126000000D02*
X107350000Y-121250000D01*
X158150000Y-121066000D02*
X157988000Y-120904000D01*
X158150000Y-126000000D02*
X158150000Y-121066000D01*
X104267000Y-104714000D02*
X104220000Y-104667000D01*
X104267000Y-107823000D02*
X104267000Y-104714000D01*
X104267000Y-107823000D02*
X107823000Y-111379000D01*
X107823000Y-120777000D02*
X107696000Y-120904000D01*
X107823000Y-111379000D02*
X107823000Y-120777000D01*
G04 #@! TO.N,+9V*
X112430000Y-121250000D02*
X112776000Y-120904000D01*
X112430000Y-126000000D02*
X112430000Y-121250000D01*
X153070000Y-121066000D02*
X152908000Y-120904000D01*
X153070000Y-126000000D02*
X153070000Y-121066000D01*
X91198000Y-103620000D02*
X89154000Y-105664000D01*
X92250000Y-103620000D02*
X91198000Y-103620000D01*
X170561000Y-93311000D02*
X173250000Y-96000000D01*
X170561000Y-88519000D02*
X170561000Y-93311000D01*
X173250000Y-101080000D02*
X175133000Y-99197000D01*
X175133000Y-97883000D02*
X173250000Y-96000000D01*
X175133000Y-99197000D02*
X175133000Y-97883000D01*
X139827000Y-98806000D02*
X144653000Y-93980000D01*
X136525000Y-98806000D02*
X139827000Y-98806000D01*
X152908000Y-120904000D02*
X152908000Y-115316000D01*
X152908000Y-115316000D02*
X147447000Y-109855000D01*
X147447000Y-96774000D02*
X144653000Y-93980000D01*
X147447000Y-109855000D02*
X147447000Y-96774000D01*
X135295000Y-84622000D02*
X135295000Y-77960000D01*
X144653000Y-93980000D02*
X135295000Y-84622000D01*
X112776000Y-115951000D02*
X109220000Y-112395000D01*
X112776000Y-120904000D02*
X112776000Y-115951000D01*
X167608001Y-99790001D02*
X167767000Y-99949000D01*
X150463001Y-99790001D02*
X167608001Y-99790001D01*
X147447000Y-96774000D02*
X150463001Y-99790001D01*
G04 #@! TO.N,Net-(D1-Pad1)*
X113167998Y-89916000D02*
X115062000Y-89916000D01*
X106426000Y-83174002D02*
X113167998Y-89916000D01*
X106426000Y-77470000D02*
X106426000Y-83174002D01*
G04 #@! TO.N,Net-(C4-Pad1)*
X102489000Y-87630000D02*
X106426000Y-87630000D01*
X98171000Y-87630000D02*
X97282000Y-88519000D01*
X102489000Y-87630000D02*
X98171000Y-87630000D01*
X92250000Y-101080000D02*
X94488000Y-98842000D01*
X94488000Y-91313000D02*
X97282000Y-88519000D01*
X94488000Y-98842000D02*
X94488000Y-91313000D01*
G04 #@! TO.N,Net-(D1-Pad2)*
X126111000Y-108712000D02*
X127508000Y-110109000D01*
X117221000Y-108712000D02*
X126111000Y-108712000D01*
X95564000Y-114554000D02*
X106299000Y-114554000D01*
X92250000Y-111240000D02*
X95564000Y-114554000D01*
G04 #@! TO.N,Net-(D3-Pad2)*
X146431000Y-72771000D02*
X146431000Y-72644000D01*
X140843000Y-78359000D02*
X146431000Y-72771000D01*
X140843000Y-78359000D02*
X138938000Y-78359000D01*
X138938000Y-78359000D02*
X136398000Y-75819000D01*
X126238000Y-75819000D02*
X124841000Y-77216000D01*
X136398000Y-75819000D02*
X126238000Y-75819000D01*
G04 #@! TO.N,Net-(D5-Pad1)*
X116143000Y-94107000D02*
X115250000Y-95000000D01*
X120650000Y-94107000D02*
X116143000Y-94107000D01*
G04 #@! TO.N,Net-(C1-Pad1)*
X128905000Y-103886000D02*
X133223000Y-108204000D01*
X133223000Y-108204000D02*
X137922000Y-108204000D01*
X140716000Y-105410000D02*
X140716000Y-104140000D01*
X137922000Y-108204000D02*
X140716000Y-105410000D01*
X140716000Y-104140000D02*
X144653000Y-104140000D01*
X109220000Y-104667000D02*
X116948000Y-104667000D01*
X116948000Y-104667000D02*
X119761000Y-101854000D01*
X126873000Y-101854000D02*
X128905000Y-103886000D01*
X119761000Y-101854000D02*
X126873000Y-101854000D01*
G04 #@! TO.N,/pin2*
X159472000Y-98540000D02*
X156417000Y-95485000D01*
X165630000Y-98540000D02*
X159472000Y-98540000D01*
X136525000Y-106426000D02*
X138684000Y-104267000D01*
X138684000Y-102235000D02*
X144780000Y-96139000D01*
X138684000Y-104267000D02*
X138684000Y-102235000D01*
G04 #@! TO.N,Net-(C3-Pad2)*
X130083500Y-94107000D02*
X130191500Y-93999000D01*
X124714000Y-94107000D02*
X130083500Y-94107000D01*
G04 #@! TO.N,/VREF*
X174498000Y-74041000D02*
X174498000Y-90424000D01*
X174498000Y-90424000D02*
X178435000Y-94361000D01*
X178435000Y-103632000D02*
X176403000Y-105664000D01*
X178435000Y-94361000D02*
X178435000Y-103632000D01*
X99870000Y-98540000D02*
X99870000Y-96000000D01*
X99870000Y-96000000D02*
X102779000Y-93091000D01*
X106699000Y-93091000D02*
X109220000Y-95612000D01*
X102779000Y-93091000D02*
X106699000Y-93091000D01*
G04 #@! TO.N,Net-(C5-Pad2)*
X104220000Y-95612000D02*
X106144000Y-97536000D01*
X106144000Y-97536000D02*
X109601000Y-97536000D01*
X109601000Y-97536000D02*
X115824000Y-91313000D01*
X120904000Y-91313000D02*
X124841000Y-87376000D01*
X85217000Y-82677000D02*
X104267000Y-82677000D01*
X112903000Y-91313000D02*
X116459000Y-91313000D01*
X104267000Y-82677000D02*
X112903000Y-91313000D01*
X116459000Y-91313000D02*
X120904000Y-91313000D01*
X115824000Y-91313000D02*
X116459000Y-91313000D01*
X99870000Y-108700000D02*
X104200000Y-113030000D01*
X105156000Y-113030000D02*
X106680000Y-111506000D01*
X104200000Y-113030000D02*
X105156000Y-113030000D01*
G04 #@! TO.N,Net-(C6-Pad2)*
X136525000Y-103886000D02*
X136525000Y-101346000D01*
X150730000Y-104540000D02*
X148844000Y-106426000D01*
X156417000Y-104540000D02*
X150730000Y-104540000D01*
G04 #@! TO.N,/Output*
X161417000Y-107823000D02*
X161417000Y-104540000D01*
X155610000Y-121066000D02*
X155448000Y-120904000D01*
X155610000Y-126000000D02*
X155610000Y-121066000D01*
X155448000Y-113792000D02*
X161417000Y-107823000D01*
X155448000Y-120904000D02*
X155448000Y-113792000D01*
X109890000Y-121250000D02*
X110236000Y-120904000D01*
X109890000Y-126000000D02*
X109890000Y-121250000D01*
G04 #@! TO.N,Net-(D2-Pad1)*
X92250000Y-96000000D02*
X92250000Y-93647000D01*
X88900000Y-90297000D02*
X85217000Y-90297000D01*
X92250000Y-93647000D02*
X88900000Y-90297000D01*
G04 #@! TO.N,Net-(D3-Pad1)*
X142364000Y-87500000D02*
X140843000Y-85979000D01*
X147750000Y-87500000D02*
X142364000Y-87500000D01*
G04 #@! TO.N,Net-(D4-Pad2)*
X152750000Y-87500000D02*
X152750000Y-83916000D01*
X152750000Y-83916000D02*
X150368000Y-81534000D01*
X150368000Y-76327000D02*
X154051000Y-72644000D01*
X150368000Y-81534000D02*
X150368000Y-76327000D01*
G04 #@! TO.N,Net-(D6-Pad1)*
X151126000Y-95000000D02*
X158623000Y-87503000D01*
X150250000Y-95000000D02*
X151126000Y-95000000D01*
G04 #@! TO.N,/M1*
X117750000Y-87500000D02*
X117750000Y-85238000D01*
X117750000Y-85238000D02*
X115189000Y-82677000D01*
X115189000Y-82677000D02*
X115189000Y-74041000D01*
X118237000Y-70993000D02*
X130591000Y-70993000D01*
X115189000Y-74041000D02*
X118237000Y-70993000D01*
X130591000Y-70993000D02*
X131480000Y-71882000D01*
X100965000Y-74041000D02*
X115189000Y-74041000D01*
G04 #@! TO.N,/M2*
X134020000Y-71882000D02*
X137160000Y-71882000D01*
X137160000Y-71882000D02*
X138176000Y-70866000D01*
X161163000Y-70866000D02*
X164338000Y-74041000D01*
X138176000Y-70866000D02*
X161163000Y-70866000D01*
X115250000Y-87500000D02*
X112750000Y-87500000D01*
X115250000Y-87500000D02*
X116904000Y-89154000D01*
X118094002Y-89154000D02*
X122809000Y-84439002D01*
X116904000Y-89154000D02*
X118094002Y-89154000D01*
X122809000Y-84439002D02*
X122809000Y-74422000D01*
X122809000Y-74422000D02*
X123571000Y-73660000D01*
X132242000Y-73660000D02*
X134020000Y-71882000D01*
X123571000Y-73660000D02*
X132242000Y-73660000D01*
X98619999Y-104909999D02*
X98619999Y-94420001D01*
X99870000Y-106160000D02*
X98619999Y-104909999D01*
X103378000Y-89662000D02*
X109601000Y-89662000D01*
X98619999Y-94420001D02*
X103378000Y-89662000D01*
G04 #@! TO.N,/pin1*
X128905000Y-101346000D02*
X128905000Y-98806000D01*
X171960001Y-102330001D02*
X165630000Y-96000000D01*
X173889999Y-102330001D02*
X171960001Y-102330001D01*
X176403000Y-99817000D02*
X173889999Y-102330001D01*
X176403000Y-95504000D02*
X176403000Y-99817000D01*
X149447001Y-102330001D02*
X149225000Y-102108000D01*
X171960001Y-102330001D02*
X149447001Y-102330001D01*
X128905000Y-101346000D02*
X126873000Y-99314000D01*
X106807000Y-99314000D02*
X103251000Y-102870000D01*
X126873000Y-99314000D02*
X106807000Y-99314000D01*
G04 #@! TO.N,Net-(R14-Pad1)*
X137668000Y-110109000D02*
X130048000Y-110109000D01*
X124714000Y-104775000D02*
X124714000Y-104267000D01*
X130048000Y-110109000D02*
X124714000Y-104775000D01*
X124714000Y-104267000D02*
X123063000Y-105918000D01*
X106426000Y-105918000D02*
X106299000Y-106045000D01*
X123063000Y-105918000D02*
X106426000Y-105918000D01*
G04 #@! TO.N,/pin13*
X152539000Y-89789000D02*
X150250000Y-87500000D01*
X153162000Y-89789000D02*
X152539000Y-89789000D01*
X157988000Y-84963000D02*
X153162000Y-89789000D01*
X159673000Y-84963000D02*
X157988000Y-84963000D01*
X173250000Y-98540000D02*
X159673000Y-84963000D01*
X99870000Y-111240000D02*
X97663000Y-109033000D01*
X97663000Y-109033000D02*
X97663000Y-103632000D01*
G04 #@! TO.N,Net-(R12-Pad1)*
X104267000Y-111252000D02*
X102108000Y-109093000D01*
X102108000Y-103318000D02*
X99870000Y-101080000D01*
X102108000Y-109093000D02*
X102108000Y-103318000D01*
G04 #@! TO.N,Net-(RV1-Pad2)*
X93500001Y-97289999D02*
X93500001Y-89817001D01*
X92250000Y-98540000D02*
X93500001Y-97289999D01*
X93500001Y-89817001D02*
X92202000Y-88519000D01*
X92202000Y-88519000D02*
X92202000Y-87503000D01*
X92202000Y-87503000D02*
X95504000Y-84201000D01*
X95504000Y-84201000D02*
X103378000Y-84201000D01*
G04 #@! TD*
D23*
G04 #@! TO.N,GND*
X114825735Y-73164000D02*
X102095247Y-73164000D01*
X102073424Y-73131340D01*
X101874660Y-72932576D01*
X101640938Y-72776409D01*
X101381241Y-72668838D01*
X101105547Y-72614000D01*
X100824453Y-72614000D01*
X100548759Y-72668838D01*
X100289062Y-72776409D01*
X100055340Y-72932576D01*
X99856576Y-73131340D01*
X99700409Y-73365062D01*
X99592838Y-73624759D01*
X99538000Y-73900453D01*
X99538000Y-74181547D01*
X99592838Y-74457241D01*
X99700409Y-74716938D01*
X99856576Y-74950660D01*
X100055340Y-75149424D01*
X100289062Y-75305591D01*
X100548759Y-75413162D01*
X100824453Y-75468000D01*
X101105547Y-75468000D01*
X101381241Y-75413162D01*
X101640938Y-75305591D01*
X101874660Y-75149424D01*
X102073424Y-74950660D01*
X102095247Y-74918000D01*
X114312001Y-74918000D01*
X114312000Y-82633920D01*
X114307757Y-82677000D01*
X114312000Y-82720078D01*
X114324690Y-82848921D01*
X114374838Y-83014236D01*
X114456273Y-83166591D01*
X114565867Y-83300133D01*
X114599332Y-83327597D01*
X116873001Y-85601267D01*
X116873001Y-86249484D01*
X116776594Y-86313901D01*
X116563901Y-86526594D01*
X116500000Y-86622229D01*
X116436099Y-86526594D01*
X116223406Y-86313901D01*
X115973306Y-86146790D01*
X115695410Y-86031681D01*
X115400396Y-85973000D01*
X115099604Y-85973000D01*
X114804590Y-86031681D01*
X114526694Y-86146790D01*
X114276594Y-86313901D01*
X114063901Y-86526594D01*
X114000000Y-86622229D01*
X113936099Y-86526594D01*
X113723406Y-86313901D01*
X113473306Y-86146790D01*
X113195410Y-86031681D01*
X112900396Y-85973000D01*
X112599604Y-85973000D01*
X112304590Y-86031681D01*
X112026694Y-86146790D01*
X111776594Y-86313901D01*
X111563901Y-86526594D01*
X111396790Y-86776694D01*
X111359349Y-86867085D01*
X107303000Y-82810737D01*
X107303000Y-80241263D01*
X108223000Y-80241263D01*
X108223000Y-80758737D01*
X108323954Y-81266268D01*
X108521983Y-81744351D01*
X108809476Y-82174615D01*
X109175385Y-82540524D01*
X109605649Y-82828017D01*
X110083732Y-83026046D01*
X110591263Y-83127000D01*
X111108737Y-83127000D01*
X111616268Y-83026046D01*
X112094351Y-82828017D01*
X112524615Y-82540524D01*
X112890524Y-82174615D01*
X113178017Y-81744351D01*
X113376046Y-81266268D01*
X113477000Y-80758737D01*
X113477000Y-80241263D01*
X113376046Y-79733732D01*
X113178017Y-79255649D01*
X112890524Y-78825385D01*
X112524615Y-78459476D01*
X112094351Y-78171983D01*
X111616268Y-77973954D01*
X111108737Y-77873000D01*
X110591263Y-77873000D01*
X110083732Y-77973954D01*
X109605649Y-78171983D01*
X109175385Y-78459476D01*
X108809476Y-78825385D01*
X108521983Y-79255649D01*
X108323954Y-79733732D01*
X108223000Y-80241263D01*
X107303000Y-80241263D01*
X107303000Y-78600247D01*
X107335660Y-78578424D01*
X107534424Y-78379660D01*
X107690591Y-78145938D01*
X107798162Y-77886241D01*
X107853000Y-77610547D01*
X107853000Y-77329453D01*
X107798162Y-77053759D01*
X107690591Y-76794062D01*
X107534424Y-76560340D01*
X107335660Y-76361576D01*
X107101938Y-76205409D01*
X106842241Y-76097838D01*
X106566547Y-76043000D01*
X106285453Y-76043000D01*
X106009759Y-76097838D01*
X105750062Y-76205409D01*
X105516340Y-76361576D01*
X105317576Y-76560340D01*
X105161409Y-76794062D01*
X105053838Y-77053759D01*
X104999000Y-77329453D01*
X104999000Y-77610547D01*
X105053838Y-77886241D01*
X105161409Y-78145938D01*
X105317576Y-78379660D01*
X105516340Y-78578424D01*
X105549000Y-78600247D01*
X105549001Y-82718736D01*
X104917597Y-82087332D01*
X104890133Y-82053867D01*
X104756592Y-81944273D01*
X104604237Y-81862838D01*
X104438922Y-81812690D01*
X104310079Y-81800000D01*
X104267000Y-81795757D01*
X104223921Y-81800000D01*
X86347247Y-81800000D01*
X86325424Y-81767340D01*
X86126660Y-81568576D01*
X85892938Y-81412409D01*
X85633241Y-81304838D01*
X85357547Y-81250000D01*
X85076453Y-81250000D01*
X84800759Y-81304838D01*
X84541062Y-81412409D01*
X84307340Y-81568576D01*
X84108576Y-81767340D01*
X83952409Y-82001062D01*
X83844838Y-82260759D01*
X83790000Y-82536453D01*
X83790000Y-82817547D01*
X83844838Y-83093241D01*
X83952409Y-83352938D01*
X84108576Y-83586660D01*
X84307340Y-83785424D01*
X84541062Y-83941591D01*
X84800759Y-84049162D01*
X85076453Y-84104000D01*
X85357547Y-84104000D01*
X85633241Y-84049162D01*
X85892938Y-83941591D01*
X86126660Y-83785424D01*
X86325424Y-83586660D01*
X86347247Y-83554000D01*
X94909949Y-83554000D01*
X94880867Y-83577867D01*
X94853403Y-83611332D01*
X91612329Y-86852406D01*
X91578868Y-86879867D01*
X91551409Y-86913326D01*
X91551406Y-86913329D01*
X91469274Y-87013408D01*
X91387838Y-87165764D01*
X91337690Y-87331078D01*
X91320757Y-87503000D01*
X91325001Y-87546089D01*
X91325000Y-88475920D01*
X91320757Y-88519000D01*
X91337690Y-88690922D01*
X91366229Y-88785000D01*
X91387838Y-88856236D01*
X91469273Y-89008591D01*
X91578867Y-89142133D01*
X91612332Y-89169597D01*
X92623002Y-90180267D01*
X92623002Y-92779737D01*
X89550597Y-89707332D01*
X89523133Y-89673867D01*
X89389592Y-89564273D01*
X89237237Y-89482838D01*
X89071922Y-89432690D01*
X88943079Y-89420000D01*
X88900000Y-89415757D01*
X88856921Y-89420000D01*
X86639449Y-89420000D01*
X86634927Y-89374087D01*
X86599075Y-89255897D01*
X86540853Y-89146972D01*
X86462501Y-89051499D01*
X86367028Y-88973147D01*
X86258103Y-88914925D01*
X86139913Y-88879073D01*
X86017000Y-88866967D01*
X84417000Y-88866967D01*
X84294087Y-88879073D01*
X84175897Y-88914925D01*
X84066972Y-88973147D01*
X83971499Y-89051499D01*
X83893147Y-89146972D01*
X83834925Y-89255897D01*
X83799073Y-89374087D01*
X83786967Y-89497000D01*
X83786967Y-91097000D01*
X83799073Y-91219913D01*
X83834925Y-91338103D01*
X83893147Y-91447028D01*
X83971499Y-91542501D01*
X84066972Y-91620853D01*
X84175897Y-91679075D01*
X84294087Y-91714927D01*
X84417000Y-91727033D01*
X86017000Y-91727033D01*
X86139913Y-91714927D01*
X86258103Y-91679075D01*
X86367028Y-91620853D01*
X86462501Y-91542501D01*
X86540853Y-91447028D01*
X86599075Y-91338103D01*
X86634927Y-91219913D01*
X86639449Y-91174000D01*
X88536735Y-91174000D01*
X91373001Y-94010266D01*
X91373001Y-94577551D01*
X91327087Y-94582073D01*
X91208897Y-94617925D01*
X91099972Y-94676147D01*
X91004499Y-94754499D01*
X90926147Y-94849972D01*
X90867925Y-94958897D01*
X90832073Y-95077087D01*
X90819967Y-95200000D01*
X90819967Y-96800000D01*
X90832073Y-96922913D01*
X90867925Y-97041103D01*
X90926147Y-97150028D01*
X91004499Y-97245501D01*
X91099972Y-97323853D01*
X91208897Y-97382075D01*
X91327087Y-97417927D01*
X91356440Y-97420818D01*
X91340340Y-97431576D01*
X91141576Y-97630340D01*
X90985409Y-97864062D01*
X90877838Y-98123759D01*
X90823000Y-98399453D01*
X90823000Y-98680547D01*
X90877838Y-98956241D01*
X90985409Y-99215938D01*
X91141576Y-99449660D01*
X91340340Y-99648424D01*
X91574062Y-99804591D01*
X91587120Y-99810000D01*
X91574062Y-99815409D01*
X91340340Y-99971576D01*
X91141576Y-100170340D01*
X90985409Y-100404062D01*
X90877838Y-100663759D01*
X90823000Y-100939453D01*
X90823000Y-101220547D01*
X90877838Y-101496241D01*
X90985409Y-101755938D01*
X91141576Y-101989660D01*
X91340340Y-102188424D01*
X91574062Y-102344591D01*
X91587120Y-102350000D01*
X91574062Y-102355409D01*
X91340340Y-102511576D01*
X91141576Y-102710340D01*
X91117276Y-102746708D01*
X91026077Y-102755690D01*
X90860763Y-102805838D01*
X90708408Y-102887273D01*
X90574867Y-102996867D01*
X90547406Y-103030329D01*
X89333072Y-104244663D01*
X89294547Y-104237000D01*
X89013453Y-104237000D01*
X88737759Y-104291838D01*
X88478062Y-104399409D01*
X88244340Y-104555576D01*
X88045576Y-104754340D01*
X87889409Y-104988062D01*
X87781838Y-105247759D01*
X87727000Y-105523453D01*
X87727000Y-105804547D01*
X87781838Y-106080241D01*
X87889409Y-106339938D01*
X88045576Y-106573660D01*
X88244340Y-106772424D01*
X88478062Y-106928591D01*
X88737759Y-107036162D01*
X89013453Y-107091000D01*
X89294547Y-107091000D01*
X89570241Y-107036162D01*
X89829938Y-106928591D01*
X90063660Y-106772424D01*
X90262424Y-106573660D01*
X90418591Y-106339938D01*
X90526162Y-106080241D01*
X90581000Y-105804547D01*
X90581000Y-105523453D01*
X90573337Y-105484928D01*
X91335091Y-104723175D01*
X91340340Y-104728424D01*
X91574062Y-104884591D01*
X91587120Y-104890000D01*
X91574062Y-104895409D01*
X91340340Y-105051576D01*
X91141576Y-105250340D01*
X90985409Y-105484062D01*
X90877838Y-105743759D01*
X90823000Y-106019453D01*
X90823000Y-106300547D01*
X90877838Y-106576241D01*
X90985409Y-106835938D01*
X91141576Y-107069660D01*
X91340340Y-107268424D01*
X91574062Y-107424591D01*
X91587120Y-107430000D01*
X91574062Y-107435409D01*
X91340340Y-107591576D01*
X91141576Y-107790340D01*
X90985409Y-108024062D01*
X90877838Y-108283759D01*
X90823000Y-108559453D01*
X90823000Y-108840547D01*
X90877838Y-109116241D01*
X90985409Y-109375938D01*
X91141576Y-109609660D01*
X91340340Y-109808424D01*
X91574062Y-109964591D01*
X91587120Y-109970000D01*
X91574062Y-109975409D01*
X91340340Y-110131576D01*
X91141576Y-110330340D01*
X90985409Y-110564062D01*
X90877838Y-110823759D01*
X90823000Y-111099453D01*
X90823000Y-111380547D01*
X90877838Y-111656241D01*
X90985409Y-111915938D01*
X91141576Y-112149660D01*
X91340340Y-112348424D01*
X91574062Y-112504591D01*
X91833759Y-112612162D01*
X92109453Y-112667000D01*
X92390547Y-112667000D01*
X92429072Y-112659337D01*
X94913408Y-115143674D01*
X94940867Y-115177133D01*
X95074408Y-115286727D01*
X95151376Y-115327867D01*
X95226763Y-115368162D01*
X95392077Y-115418310D01*
X95564000Y-115435243D01*
X95607079Y-115431000D01*
X105762973Y-115431000D01*
X105812533Y-115464115D01*
X105999435Y-115541533D01*
X106197849Y-115581000D01*
X106400151Y-115581000D01*
X106598565Y-115541533D01*
X106785467Y-115464115D01*
X106946000Y-115356850D01*
X106946001Y-120201602D01*
X106898277Y-120249326D01*
X106785885Y-120417533D01*
X106708467Y-120604435D01*
X106696691Y-120663637D01*
X106617274Y-120760408D01*
X106535838Y-120912764D01*
X106485690Y-121078078D01*
X106468757Y-121250000D01*
X106473001Y-121293089D01*
X106473001Y-121793000D01*
X100697000Y-121793000D01*
X100697000Y-119533252D01*
X100700275Y-119500000D01*
X100687204Y-119367285D01*
X100648492Y-119239670D01*
X100585628Y-119122059D01*
X100501027Y-119018973D01*
X100397941Y-118934372D01*
X100280330Y-118871508D01*
X100152715Y-118832796D01*
X100053252Y-118823000D01*
X100020000Y-118819725D01*
X99986748Y-118823000D01*
X89033252Y-118823000D01*
X89000000Y-118819725D01*
X88966748Y-118823000D01*
X88867285Y-118832796D01*
X88739670Y-118871508D01*
X88622059Y-118934372D01*
X88518973Y-119018973D01*
X88434372Y-119122059D01*
X88371508Y-119239670D01*
X88332796Y-119367285D01*
X88319725Y-119500000D01*
X88323000Y-119533252D01*
X88323001Y-125323000D01*
X83177000Y-125323000D01*
X83177000Y-98177000D01*
X83466748Y-98177000D01*
X83500000Y-98180275D01*
X83533252Y-98177000D01*
X83632715Y-98167204D01*
X83760330Y-98128492D01*
X83877941Y-98065628D01*
X83981027Y-97981027D01*
X84065628Y-97877941D01*
X84128492Y-97760330D01*
X84167204Y-97632715D01*
X84180275Y-97500000D01*
X84177000Y-97466748D01*
X84177000Y-95363453D01*
X87727000Y-95363453D01*
X87727000Y-95644547D01*
X87781838Y-95920241D01*
X87889409Y-96179938D01*
X88045576Y-96413660D01*
X88244340Y-96612424D01*
X88478062Y-96768591D01*
X88737759Y-96876162D01*
X89013453Y-96931000D01*
X89294547Y-96931000D01*
X89570241Y-96876162D01*
X89829938Y-96768591D01*
X90063660Y-96612424D01*
X90262424Y-96413660D01*
X90418591Y-96179938D01*
X90526162Y-95920241D01*
X90581000Y-95644547D01*
X90581000Y-95363453D01*
X90526162Y-95087759D01*
X90418591Y-94828062D01*
X90262424Y-94594340D01*
X90063660Y-94395576D01*
X89829938Y-94239409D01*
X89570241Y-94131838D01*
X89294547Y-94077000D01*
X89013453Y-94077000D01*
X88737759Y-94131838D01*
X88478062Y-94239409D01*
X88244340Y-94395576D01*
X88045576Y-94594340D01*
X87889409Y-94828062D01*
X87781838Y-95087759D01*
X87727000Y-95363453D01*
X84177000Y-95363453D01*
X84177000Y-95177000D01*
X85966748Y-95177000D01*
X86000000Y-95180275D01*
X86033252Y-95177000D01*
X86132715Y-95167204D01*
X86260330Y-95128492D01*
X86377941Y-95065628D01*
X86481027Y-94981027D01*
X86565628Y-94877941D01*
X86628492Y-94760330D01*
X86667204Y-94632715D01*
X86680275Y-94500000D01*
X86677000Y-94466748D01*
X86677000Y-93033251D01*
X86680275Y-93000000D01*
X86667204Y-92867285D01*
X86628492Y-92739670D01*
X86565628Y-92622059D01*
X86481027Y-92518973D01*
X86377941Y-92434372D01*
X86260330Y-92371508D01*
X86132715Y-92332796D01*
X86033252Y-92323000D01*
X86000000Y-92319725D01*
X85966748Y-92323000D01*
X83177000Y-92323000D01*
X83177000Y-77819040D01*
X101097091Y-77819040D01*
X101191930Y-78083881D01*
X101336615Y-78325131D01*
X101525586Y-78533519D01*
X101751580Y-78701037D01*
X102005913Y-78821246D01*
X102139961Y-78861904D01*
X102362000Y-78739915D01*
X102362000Y-77597000D01*
X102616000Y-77597000D01*
X102616000Y-78739915D01*
X102838039Y-78861904D01*
X102972087Y-78821246D01*
X103226420Y-78701037D01*
X103452414Y-78533519D01*
X103641385Y-78325131D01*
X103786070Y-78083881D01*
X103880909Y-77819040D01*
X103759624Y-77597000D01*
X102616000Y-77597000D01*
X102362000Y-77597000D01*
X101218376Y-77597000D01*
X101097091Y-77819040D01*
X83177000Y-77819040D01*
X83177000Y-77120960D01*
X101097091Y-77120960D01*
X101218376Y-77343000D01*
X102362000Y-77343000D01*
X102362000Y-76200085D01*
X102616000Y-76200085D01*
X102616000Y-77343000D01*
X103759624Y-77343000D01*
X103880909Y-77120960D01*
X103786070Y-76856119D01*
X103641385Y-76614869D01*
X103452414Y-76406481D01*
X103226420Y-76238963D01*
X102972087Y-76118754D01*
X102838039Y-76078096D01*
X102616000Y-76200085D01*
X102362000Y-76200085D01*
X102139961Y-76078096D01*
X102005913Y-76118754D01*
X101751580Y-76238963D01*
X101525586Y-76406481D01*
X101336615Y-76614869D01*
X101191930Y-76856119D01*
X101097091Y-77120960D01*
X83177000Y-77120960D01*
X83177000Y-73900453D01*
X89378000Y-73900453D01*
X89378000Y-74181547D01*
X89432838Y-74457241D01*
X89540409Y-74716938D01*
X89696576Y-74950660D01*
X89895340Y-75149424D01*
X90129062Y-75305591D01*
X90388759Y-75413162D01*
X90664453Y-75468000D01*
X90945547Y-75468000D01*
X91221241Y-75413162D01*
X91480938Y-75305591D01*
X91714660Y-75149424D01*
X91913424Y-74950660D01*
X92069591Y-74716938D01*
X92177162Y-74457241D01*
X92232000Y-74181547D01*
X92232000Y-73900453D01*
X92177162Y-73624759D01*
X92069591Y-73365062D01*
X91913424Y-73131340D01*
X91714660Y-72932576D01*
X91480938Y-72776409D01*
X91221241Y-72668838D01*
X90945547Y-72614000D01*
X90664453Y-72614000D01*
X90388759Y-72668838D01*
X90129062Y-72776409D01*
X89895340Y-72932576D01*
X89696576Y-73131340D01*
X89540409Y-73365062D01*
X89432838Y-73624759D01*
X89378000Y-73900453D01*
X83177000Y-73900453D01*
X83177000Y-73177000D01*
X83266748Y-73177000D01*
X83300000Y-73180275D01*
X83333252Y-73177000D01*
X83432715Y-73167204D01*
X83560330Y-73128492D01*
X83677941Y-73065628D01*
X83781027Y-72981027D01*
X83865628Y-72877941D01*
X83928492Y-72760330D01*
X83967204Y-72632715D01*
X83980275Y-72500000D01*
X83977000Y-72466748D01*
X83977000Y-70677000D01*
X117312734Y-70677000D01*
X114825735Y-73164000D01*
G04 #@! TA.AperFunction,Conductor*
D24*
G36*
X114825735Y-73164000D02*
G01*
X102095247Y-73164000D01*
X102073424Y-73131340D01*
X101874660Y-72932576D01*
X101640938Y-72776409D01*
X101381241Y-72668838D01*
X101105547Y-72614000D01*
X100824453Y-72614000D01*
X100548759Y-72668838D01*
X100289062Y-72776409D01*
X100055340Y-72932576D01*
X99856576Y-73131340D01*
X99700409Y-73365062D01*
X99592838Y-73624759D01*
X99538000Y-73900453D01*
X99538000Y-74181547D01*
X99592838Y-74457241D01*
X99700409Y-74716938D01*
X99856576Y-74950660D01*
X100055340Y-75149424D01*
X100289062Y-75305591D01*
X100548759Y-75413162D01*
X100824453Y-75468000D01*
X101105547Y-75468000D01*
X101381241Y-75413162D01*
X101640938Y-75305591D01*
X101874660Y-75149424D01*
X102073424Y-74950660D01*
X102095247Y-74918000D01*
X114312001Y-74918000D01*
X114312000Y-82633920D01*
X114307757Y-82677000D01*
X114312000Y-82720078D01*
X114324690Y-82848921D01*
X114374838Y-83014236D01*
X114456273Y-83166591D01*
X114565867Y-83300133D01*
X114599332Y-83327597D01*
X116873001Y-85601267D01*
X116873001Y-86249484D01*
X116776594Y-86313901D01*
X116563901Y-86526594D01*
X116500000Y-86622229D01*
X116436099Y-86526594D01*
X116223406Y-86313901D01*
X115973306Y-86146790D01*
X115695410Y-86031681D01*
X115400396Y-85973000D01*
X115099604Y-85973000D01*
X114804590Y-86031681D01*
X114526694Y-86146790D01*
X114276594Y-86313901D01*
X114063901Y-86526594D01*
X114000000Y-86622229D01*
X113936099Y-86526594D01*
X113723406Y-86313901D01*
X113473306Y-86146790D01*
X113195410Y-86031681D01*
X112900396Y-85973000D01*
X112599604Y-85973000D01*
X112304590Y-86031681D01*
X112026694Y-86146790D01*
X111776594Y-86313901D01*
X111563901Y-86526594D01*
X111396790Y-86776694D01*
X111359349Y-86867085D01*
X107303000Y-82810737D01*
X107303000Y-80241263D01*
X108223000Y-80241263D01*
X108223000Y-80758737D01*
X108323954Y-81266268D01*
X108521983Y-81744351D01*
X108809476Y-82174615D01*
X109175385Y-82540524D01*
X109605649Y-82828017D01*
X110083732Y-83026046D01*
X110591263Y-83127000D01*
X111108737Y-83127000D01*
X111616268Y-83026046D01*
X112094351Y-82828017D01*
X112524615Y-82540524D01*
X112890524Y-82174615D01*
X113178017Y-81744351D01*
X113376046Y-81266268D01*
X113477000Y-80758737D01*
X113477000Y-80241263D01*
X113376046Y-79733732D01*
X113178017Y-79255649D01*
X112890524Y-78825385D01*
X112524615Y-78459476D01*
X112094351Y-78171983D01*
X111616268Y-77973954D01*
X111108737Y-77873000D01*
X110591263Y-77873000D01*
X110083732Y-77973954D01*
X109605649Y-78171983D01*
X109175385Y-78459476D01*
X108809476Y-78825385D01*
X108521983Y-79255649D01*
X108323954Y-79733732D01*
X108223000Y-80241263D01*
X107303000Y-80241263D01*
X107303000Y-78600247D01*
X107335660Y-78578424D01*
X107534424Y-78379660D01*
X107690591Y-78145938D01*
X107798162Y-77886241D01*
X107853000Y-77610547D01*
X107853000Y-77329453D01*
X107798162Y-77053759D01*
X107690591Y-76794062D01*
X107534424Y-76560340D01*
X107335660Y-76361576D01*
X107101938Y-76205409D01*
X106842241Y-76097838D01*
X106566547Y-76043000D01*
X106285453Y-76043000D01*
X106009759Y-76097838D01*
X105750062Y-76205409D01*
X105516340Y-76361576D01*
X105317576Y-76560340D01*
X105161409Y-76794062D01*
X105053838Y-77053759D01*
X104999000Y-77329453D01*
X104999000Y-77610547D01*
X105053838Y-77886241D01*
X105161409Y-78145938D01*
X105317576Y-78379660D01*
X105516340Y-78578424D01*
X105549000Y-78600247D01*
X105549001Y-82718736D01*
X104917597Y-82087332D01*
X104890133Y-82053867D01*
X104756592Y-81944273D01*
X104604237Y-81862838D01*
X104438922Y-81812690D01*
X104310079Y-81800000D01*
X104267000Y-81795757D01*
X104223921Y-81800000D01*
X86347247Y-81800000D01*
X86325424Y-81767340D01*
X86126660Y-81568576D01*
X85892938Y-81412409D01*
X85633241Y-81304838D01*
X85357547Y-81250000D01*
X85076453Y-81250000D01*
X84800759Y-81304838D01*
X84541062Y-81412409D01*
X84307340Y-81568576D01*
X84108576Y-81767340D01*
X83952409Y-82001062D01*
X83844838Y-82260759D01*
X83790000Y-82536453D01*
X83790000Y-82817547D01*
X83844838Y-83093241D01*
X83952409Y-83352938D01*
X84108576Y-83586660D01*
X84307340Y-83785424D01*
X84541062Y-83941591D01*
X84800759Y-84049162D01*
X85076453Y-84104000D01*
X85357547Y-84104000D01*
X85633241Y-84049162D01*
X85892938Y-83941591D01*
X86126660Y-83785424D01*
X86325424Y-83586660D01*
X86347247Y-83554000D01*
X94909949Y-83554000D01*
X94880867Y-83577867D01*
X94853403Y-83611332D01*
X91612329Y-86852406D01*
X91578868Y-86879867D01*
X91551409Y-86913326D01*
X91551406Y-86913329D01*
X91469274Y-87013408D01*
X91387838Y-87165764D01*
X91337690Y-87331078D01*
X91320757Y-87503000D01*
X91325001Y-87546089D01*
X91325000Y-88475920D01*
X91320757Y-88519000D01*
X91337690Y-88690922D01*
X91366229Y-88785000D01*
X91387838Y-88856236D01*
X91469273Y-89008591D01*
X91578867Y-89142133D01*
X91612332Y-89169597D01*
X92623002Y-90180267D01*
X92623002Y-92779737D01*
X89550597Y-89707332D01*
X89523133Y-89673867D01*
X89389592Y-89564273D01*
X89237237Y-89482838D01*
X89071922Y-89432690D01*
X88943079Y-89420000D01*
X88900000Y-89415757D01*
X88856921Y-89420000D01*
X86639449Y-89420000D01*
X86634927Y-89374087D01*
X86599075Y-89255897D01*
X86540853Y-89146972D01*
X86462501Y-89051499D01*
X86367028Y-88973147D01*
X86258103Y-88914925D01*
X86139913Y-88879073D01*
X86017000Y-88866967D01*
X84417000Y-88866967D01*
X84294087Y-88879073D01*
X84175897Y-88914925D01*
X84066972Y-88973147D01*
X83971499Y-89051499D01*
X83893147Y-89146972D01*
X83834925Y-89255897D01*
X83799073Y-89374087D01*
X83786967Y-89497000D01*
X83786967Y-91097000D01*
X83799073Y-91219913D01*
X83834925Y-91338103D01*
X83893147Y-91447028D01*
X83971499Y-91542501D01*
X84066972Y-91620853D01*
X84175897Y-91679075D01*
X84294087Y-91714927D01*
X84417000Y-91727033D01*
X86017000Y-91727033D01*
X86139913Y-91714927D01*
X86258103Y-91679075D01*
X86367028Y-91620853D01*
X86462501Y-91542501D01*
X86540853Y-91447028D01*
X86599075Y-91338103D01*
X86634927Y-91219913D01*
X86639449Y-91174000D01*
X88536735Y-91174000D01*
X91373001Y-94010266D01*
X91373001Y-94577551D01*
X91327087Y-94582073D01*
X91208897Y-94617925D01*
X91099972Y-94676147D01*
X91004499Y-94754499D01*
X90926147Y-94849972D01*
X90867925Y-94958897D01*
X90832073Y-95077087D01*
X90819967Y-95200000D01*
X90819967Y-96800000D01*
X90832073Y-96922913D01*
X90867925Y-97041103D01*
X90926147Y-97150028D01*
X91004499Y-97245501D01*
X91099972Y-97323853D01*
X91208897Y-97382075D01*
X91327087Y-97417927D01*
X91356440Y-97420818D01*
X91340340Y-97431576D01*
X91141576Y-97630340D01*
X90985409Y-97864062D01*
X90877838Y-98123759D01*
X90823000Y-98399453D01*
X90823000Y-98680547D01*
X90877838Y-98956241D01*
X90985409Y-99215938D01*
X91141576Y-99449660D01*
X91340340Y-99648424D01*
X91574062Y-99804591D01*
X91587120Y-99810000D01*
X91574062Y-99815409D01*
X91340340Y-99971576D01*
X91141576Y-100170340D01*
X90985409Y-100404062D01*
X90877838Y-100663759D01*
X90823000Y-100939453D01*
X90823000Y-101220547D01*
X90877838Y-101496241D01*
X90985409Y-101755938D01*
X91141576Y-101989660D01*
X91340340Y-102188424D01*
X91574062Y-102344591D01*
X91587120Y-102350000D01*
X91574062Y-102355409D01*
X91340340Y-102511576D01*
X91141576Y-102710340D01*
X91117276Y-102746708D01*
X91026077Y-102755690D01*
X90860763Y-102805838D01*
X90708408Y-102887273D01*
X90574867Y-102996867D01*
X90547406Y-103030329D01*
X89333072Y-104244663D01*
X89294547Y-104237000D01*
X89013453Y-104237000D01*
X88737759Y-104291838D01*
X88478062Y-104399409D01*
X88244340Y-104555576D01*
X88045576Y-104754340D01*
X87889409Y-104988062D01*
X87781838Y-105247759D01*
X87727000Y-105523453D01*
X87727000Y-105804547D01*
X87781838Y-106080241D01*
X87889409Y-106339938D01*
X88045576Y-106573660D01*
X88244340Y-106772424D01*
X88478062Y-106928591D01*
X88737759Y-107036162D01*
X89013453Y-107091000D01*
X89294547Y-107091000D01*
X89570241Y-107036162D01*
X89829938Y-106928591D01*
X90063660Y-106772424D01*
X90262424Y-106573660D01*
X90418591Y-106339938D01*
X90526162Y-106080241D01*
X90581000Y-105804547D01*
X90581000Y-105523453D01*
X90573337Y-105484928D01*
X91335091Y-104723175D01*
X91340340Y-104728424D01*
X91574062Y-104884591D01*
X91587120Y-104890000D01*
X91574062Y-104895409D01*
X91340340Y-105051576D01*
X91141576Y-105250340D01*
X90985409Y-105484062D01*
X90877838Y-105743759D01*
X90823000Y-106019453D01*
X90823000Y-106300547D01*
X90877838Y-106576241D01*
X90985409Y-106835938D01*
X91141576Y-107069660D01*
X91340340Y-107268424D01*
X91574062Y-107424591D01*
X91587120Y-107430000D01*
X91574062Y-107435409D01*
X91340340Y-107591576D01*
X91141576Y-107790340D01*
X90985409Y-108024062D01*
X90877838Y-108283759D01*
X90823000Y-108559453D01*
X90823000Y-108840547D01*
X90877838Y-109116241D01*
X90985409Y-109375938D01*
X91141576Y-109609660D01*
X91340340Y-109808424D01*
X91574062Y-109964591D01*
X91587120Y-109970000D01*
X91574062Y-109975409D01*
X91340340Y-110131576D01*
X91141576Y-110330340D01*
X90985409Y-110564062D01*
X90877838Y-110823759D01*
X90823000Y-111099453D01*
X90823000Y-111380547D01*
X90877838Y-111656241D01*
X90985409Y-111915938D01*
X91141576Y-112149660D01*
X91340340Y-112348424D01*
X91574062Y-112504591D01*
X91833759Y-112612162D01*
X92109453Y-112667000D01*
X92390547Y-112667000D01*
X92429072Y-112659337D01*
X94913408Y-115143674D01*
X94940867Y-115177133D01*
X95074408Y-115286727D01*
X95151376Y-115327867D01*
X95226763Y-115368162D01*
X95392077Y-115418310D01*
X95564000Y-115435243D01*
X95607079Y-115431000D01*
X105762973Y-115431000D01*
X105812533Y-115464115D01*
X105999435Y-115541533D01*
X106197849Y-115581000D01*
X106400151Y-115581000D01*
X106598565Y-115541533D01*
X106785467Y-115464115D01*
X106946000Y-115356850D01*
X106946001Y-120201602D01*
X106898277Y-120249326D01*
X106785885Y-120417533D01*
X106708467Y-120604435D01*
X106696691Y-120663637D01*
X106617274Y-120760408D01*
X106535838Y-120912764D01*
X106485690Y-121078078D01*
X106468757Y-121250000D01*
X106473001Y-121293089D01*
X106473001Y-121793000D01*
X100697000Y-121793000D01*
X100697000Y-119533252D01*
X100700275Y-119500000D01*
X100687204Y-119367285D01*
X100648492Y-119239670D01*
X100585628Y-119122059D01*
X100501027Y-119018973D01*
X100397941Y-118934372D01*
X100280330Y-118871508D01*
X100152715Y-118832796D01*
X100053252Y-118823000D01*
X100020000Y-118819725D01*
X99986748Y-118823000D01*
X89033252Y-118823000D01*
X89000000Y-118819725D01*
X88966748Y-118823000D01*
X88867285Y-118832796D01*
X88739670Y-118871508D01*
X88622059Y-118934372D01*
X88518973Y-119018973D01*
X88434372Y-119122059D01*
X88371508Y-119239670D01*
X88332796Y-119367285D01*
X88319725Y-119500000D01*
X88323000Y-119533252D01*
X88323001Y-125323000D01*
X83177000Y-125323000D01*
X83177000Y-98177000D01*
X83466748Y-98177000D01*
X83500000Y-98180275D01*
X83533252Y-98177000D01*
X83632715Y-98167204D01*
X83760330Y-98128492D01*
X83877941Y-98065628D01*
X83981027Y-97981027D01*
X84065628Y-97877941D01*
X84128492Y-97760330D01*
X84167204Y-97632715D01*
X84180275Y-97500000D01*
X84177000Y-97466748D01*
X84177000Y-95363453D01*
X87727000Y-95363453D01*
X87727000Y-95644547D01*
X87781838Y-95920241D01*
X87889409Y-96179938D01*
X88045576Y-96413660D01*
X88244340Y-96612424D01*
X88478062Y-96768591D01*
X88737759Y-96876162D01*
X89013453Y-96931000D01*
X89294547Y-96931000D01*
X89570241Y-96876162D01*
X89829938Y-96768591D01*
X90063660Y-96612424D01*
X90262424Y-96413660D01*
X90418591Y-96179938D01*
X90526162Y-95920241D01*
X90581000Y-95644547D01*
X90581000Y-95363453D01*
X90526162Y-95087759D01*
X90418591Y-94828062D01*
X90262424Y-94594340D01*
X90063660Y-94395576D01*
X89829938Y-94239409D01*
X89570241Y-94131838D01*
X89294547Y-94077000D01*
X89013453Y-94077000D01*
X88737759Y-94131838D01*
X88478062Y-94239409D01*
X88244340Y-94395576D01*
X88045576Y-94594340D01*
X87889409Y-94828062D01*
X87781838Y-95087759D01*
X87727000Y-95363453D01*
X84177000Y-95363453D01*
X84177000Y-95177000D01*
X85966748Y-95177000D01*
X86000000Y-95180275D01*
X86033252Y-95177000D01*
X86132715Y-95167204D01*
X86260330Y-95128492D01*
X86377941Y-95065628D01*
X86481027Y-94981027D01*
X86565628Y-94877941D01*
X86628492Y-94760330D01*
X86667204Y-94632715D01*
X86680275Y-94500000D01*
X86677000Y-94466748D01*
X86677000Y-93033251D01*
X86680275Y-93000000D01*
X86667204Y-92867285D01*
X86628492Y-92739670D01*
X86565628Y-92622059D01*
X86481027Y-92518973D01*
X86377941Y-92434372D01*
X86260330Y-92371508D01*
X86132715Y-92332796D01*
X86033252Y-92323000D01*
X86000000Y-92319725D01*
X85966748Y-92323000D01*
X83177000Y-92323000D01*
X83177000Y-77819040D01*
X101097091Y-77819040D01*
X101191930Y-78083881D01*
X101336615Y-78325131D01*
X101525586Y-78533519D01*
X101751580Y-78701037D01*
X102005913Y-78821246D01*
X102139961Y-78861904D01*
X102362000Y-78739915D01*
X102362000Y-77597000D01*
X102616000Y-77597000D01*
X102616000Y-78739915D01*
X102838039Y-78861904D01*
X102972087Y-78821246D01*
X103226420Y-78701037D01*
X103452414Y-78533519D01*
X103641385Y-78325131D01*
X103786070Y-78083881D01*
X103880909Y-77819040D01*
X103759624Y-77597000D01*
X102616000Y-77597000D01*
X102362000Y-77597000D01*
X101218376Y-77597000D01*
X101097091Y-77819040D01*
X83177000Y-77819040D01*
X83177000Y-77120960D01*
X101097091Y-77120960D01*
X101218376Y-77343000D01*
X102362000Y-77343000D01*
X102362000Y-76200085D01*
X102616000Y-76200085D01*
X102616000Y-77343000D01*
X103759624Y-77343000D01*
X103880909Y-77120960D01*
X103786070Y-76856119D01*
X103641385Y-76614869D01*
X103452414Y-76406481D01*
X103226420Y-76238963D01*
X102972087Y-76118754D01*
X102838039Y-76078096D01*
X102616000Y-76200085D01*
X102362000Y-76200085D01*
X102139961Y-76078096D01*
X102005913Y-76118754D01*
X101751580Y-76238963D01*
X101525586Y-76406481D01*
X101336615Y-76614869D01*
X101191930Y-76856119D01*
X101097091Y-77120960D01*
X83177000Y-77120960D01*
X83177000Y-73900453D01*
X89378000Y-73900453D01*
X89378000Y-74181547D01*
X89432838Y-74457241D01*
X89540409Y-74716938D01*
X89696576Y-74950660D01*
X89895340Y-75149424D01*
X90129062Y-75305591D01*
X90388759Y-75413162D01*
X90664453Y-75468000D01*
X90945547Y-75468000D01*
X91221241Y-75413162D01*
X91480938Y-75305591D01*
X91714660Y-75149424D01*
X91913424Y-74950660D01*
X92069591Y-74716938D01*
X92177162Y-74457241D01*
X92232000Y-74181547D01*
X92232000Y-73900453D01*
X92177162Y-73624759D01*
X92069591Y-73365062D01*
X91913424Y-73131340D01*
X91714660Y-72932576D01*
X91480938Y-72776409D01*
X91221241Y-72668838D01*
X90945547Y-72614000D01*
X90664453Y-72614000D01*
X90388759Y-72668838D01*
X90129062Y-72776409D01*
X89895340Y-72932576D01*
X89696576Y-73131340D01*
X89540409Y-73365062D01*
X89432838Y-73624759D01*
X89378000Y-73900453D01*
X83177000Y-73900453D01*
X83177000Y-73177000D01*
X83266748Y-73177000D01*
X83300000Y-73180275D01*
X83333252Y-73177000D01*
X83432715Y-73167204D01*
X83560330Y-73128492D01*
X83677941Y-73065628D01*
X83781027Y-72981027D01*
X83865628Y-72877941D01*
X83928492Y-72760330D01*
X83967204Y-72632715D01*
X83980275Y-72500000D01*
X83977000Y-72466748D01*
X83977000Y-70677000D01*
X117312734Y-70677000D01*
X114825735Y-73164000D01*
G37*
G04 #@! TD.AperFunction*
D23*
X181323001Y-90823000D02*
X179433252Y-90823000D01*
X179400000Y-90819725D01*
X179362605Y-90823408D01*
X179267285Y-90832796D01*
X179139670Y-90871508D01*
X179022059Y-90934372D01*
X178918973Y-91018973D01*
X178834372Y-91122059D01*
X178771508Y-91239670D01*
X178732796Y-91367285D01*
X178719725Y-91500000D01*
X178723001Y-91533262D01*
X178723000Y-92966747D01*
X178719725Y-93000000D01*
X178732796Y-93132715D01*
X178771508Y-93260330D01*
X178834372Y-93377941D01*
X178918973Y-93481027D01*
X179009951Y-93555691D01*
X179022059Y-93565628D01*
X179139670Y-93628492D01*
X179267285Y-93667204D01*
X179400000Y-93680275D01*
X179433252Y-93677000D01*
X181323000Y-93677000D01*
X181323001Y-98966738D01*
X181319725Y-99000000D01*
X181332796Y-99132715D01*
X181371508Y-99260330D01*
X181434372Y-99377941D01*
X181518973Y-99481027D01*
X181622059Y-99565628D01*
X181739670Y-99628492D01*
X181823001Y-99653770D01*
X181823000Y-125323000D01*
X177177000Y-125323000D01*
X177177000Y-119533252D01*
X177180275Y-119500000D01*
X177167204Y-119367285D01*
X177128492Y-119239670D01*
X177065628Y-119122059D01*
X176981027Y-119018973D01*
X176877941Y-118934372D01*
X176760330Y-118871508D01*
X176632715Y-118832796D01*
X176533252Y-118823000D01*
X176500000Y-118819725D01*
X176466748Y-118823000D01*
X165513252Y-118823000D01*
X165480000Y-118819725D01*
X165446748Y-118823000D01*
X165347285Y-118832796D01*
X165219670Y-118871508D01*
X165102059Y-118934372D01*
X164998973Y-119018973D01*
X164914372Y-119122059D01*
X164851508Y-119239670D01*
X164812796Y-119367285D01*
X164799725Y-119500000D01*
X164803001Y-119533262D01*
X164803001Y-121793000D01*
X159027000Y-121793000D01*
X159027000Y-121109079D01*
X159031243Y-121066000D01*
X159015000Y-120901084D01*
X159015000Y-120802849D01*
X158975533Y-120604435D01*
X158898115Y-120417533D01*
X158785723Y-120249326D01*
X158642674Y-120106277D01*
X158474467Y-119993885D01*
X158287565Y-119916467D01*
X158089151Y-119877000D01*
X157886849Y-119877000D01*
X157688435Y-119916467D01*
X157501533Y-119993885D01*
X157333326Y-120106277D01*
X157190277Y-120249326D01*
X157077885Y-120417533D01*
X157000467Y-120604435D01*
X156961000Y-120802849D01*
X156961000Y-121005151D01*
X157000467Y-121203565D01*
X157077885Y-121390467D01*
X157190277Y-121558674D01*
X157273001Y-121641398D01*
X157273001Y-121793000D01*
X156487000Y-121793000D01*
X156487000Y-121109079D01*
X156491243Y-121066000D01*
X156475000Y-120901084D01*
X156475000Y-120802849D01*
X156435533Y-120604435D01*
X156358115Y-120417533D01*
X156325000Y-120367973D01*
X156325000Y-114155265D01*
X158891226Y-111589039D01*
X164238096Y-111589039D01*
X164278754Y-111723087D01*
X164398963Y-111977420D01*
X164566481Y-112203414D01*
X164774869Y-112392385D01*
X165016119Y-112537070D01*
X165280960Y-112631909D01*
X165503000Y-112510624D01*
X165503000Y-111367000D01*
X165757000Y-111367000D01*
X165757000Y-112510624D01*
X165979040Y-112631909D01*
X166243881Y-112537070D01*
X166485131Y-112392385D01*
X166693519Y-112203414D01*
X166861037Y-111977420D01*
X166981246Y-111723087D01*
X167021904Y-111589039D01*
X166899915Y-111367000D01*
X165757000Y-111367000D01*
X165503000Y-111367000D01*
X164360085Y-111367000D01*
X164238096Y-111589039D01*
X158891226Y-111589039D01*
X161237929Y-109242337D01*
X161276453Y-109250000D01*
X161557547Y-109250000D01*
X161833241Y-109195162D01*
X162092938Y-109087591D01*
X162150635Y-109049039D01*
X164238096Y-109049039D01*
X164278754Y-109183087D01*
X164398963Y-109437420D01*
X164566481Y-109663414D01*
X164774869Y-109852385D01*
X164970982Y-109970000D01*
X164774869Y-110087615D01*
X164566481Y-110276586D01*
X164398963Y-110502580D01*
X164278754Y-110756913D01*
X164238096Y-110890961D01*
X164360085Y-111113000D01*
X165503000Y-111113000D01*
X165503000Y-108827000D01*
X165757000Y-108827000D01*
X165757000Y-111113000D01*
X166899915Y-111113000D01*
X167021904Y-110890961D01*
X166981246Y-110756913D01*
X166861037Y-110502580D01*
X166693519Y-110276586D01*
X166485131Y-110087615D01*
X166289018Y-109970000D01*
X166485131Y-109852385D01*
X166693519Y-109663414D01*
X166861037Y-109437420D01*
X166981246Y-109183087D01*
X167021904Y-109049039D01*
X166899915Y-108827000D01*
X165757000Y-108827000D01*
X165503000Y-108827000D01*
X164360085Y-108827000D01*
X164238096Y-109049039D01*
X162150635Y-109049039D01*
X162326660Y-108931424D01*
X162525424Y-108732660D01*
X162681591Y-108498938D01*
X162789162Y-108239241D01*
X162844000Y-107963547D01*
X162844000Y-107682453D01*
X162789162Y-107406759D01*
X162681591Y-107147062D01*
X162525424Y-106913340D01*
X162326660Y-106714576D01*
X162294000Y-106692753D01*
X162294000Y-106509039D01*
X164238096Y-106509039D01*
X164278754Y-106643087D01*
X164398963Y-106897420D01*
X164566481Y-107123414D01*
X164774869Y-107312385D01*
X164970982Y-107430000D01*
X164774869Y-107547615D01*
X164566481Y-107736586D01*
X164398963Y-107962580D01*
X164278754Y-108216913D01*
X164238096Y-108350961D01*
X164360085Y-108573000D01*
X165503000Y-108573000D01*
X165503000Y-106287000D01*
X165757000Y-106287000D01*
X165757000Y-108573000D01*
X166899915Y-108573000D01*
X167021904Y-108350961D01*
X166981246Y-108216913D01*
X166861037Y-107962580D01*
X166693519Y-107736586D01*
X166485131Y-107547615D01*
X166289018Y-107430000D01*
X166485131Y-107312385D01*
X166693519Y-107123414D01*
X166861037Y-106897420D01*
X166981246Y-106643087D01*
X167021904Y-106509039D01*
X166899915Y-106287000D01*
X165757000Y-106287000D01*
X165503000Y-106287000D01*
X164360085Y-106287000D01*
X164238096Y-106509039D01*
X162294000Y-106509039D01*
X162294000Y-105670247D01*
X162326660Y-105648424D01*
X162525424Y-105449660D01*
X162681591Y-105215938D01*
X162789162Y-104956241D01*
X162844000Y-104680547D01*
X162844000Y-104399453D01*
X162789162Y-104123759D01*
X162681591Y-103864062D01*
X162525424Y-103630340D01*
X162326660Y-103431576D01*
X162092938Y-103275409D01*
X161927788Y-103207001D01*
X164257193Y-103207001D01*
X164203000Y-103479453D01*
X164203000Y-103760547D01*
X164257838Y-104036241D01*
X164365409Y-104295938D01*
X164521576Y-104529660D01*
X164720340Y-104728424D01*
X164954062Y-104884591D01*
X164969404Y-104890946D01*
X164774869Y-105007615D01*
X164566481Y-105196586D01*
X164398963Y-105422580D01*
X164278754Y-105676913D01*
X164238096Y-105810961D01*
X164360085Y-106033000D01*
X165503000Y-106033000D01*
X165503000Y-106013000D01*
X165757000Y-106013000D01*
X165757000Y-106033000D01*
X166899915Y-106033000D01*
X167021904Y-105810961D01*
X166981246Y-105676913D01*
X166861037Y-105422580D01*
X166693519Y-105196586D01*
X166485131Y-105007615D01*
X166290596Y-104890946D01*
X166305938Y-104884591D01*
X166539660Y-104728424D01*
X166738424Y-104529660D01*
X166894591Y-104295938D01*
X167002162Y-104036241D01*
X167057000Y-103760547D01*
X167057000Y-103479453D01*
X167002807Y-103207001D01*
X171877193Y-103207001D01*
X171823000Y-103479453D01*
X171823000Y-103760547D01*
X171877838Y-104036241D01*
X171985409Y-104295938D01*
X172141576Y-104529660D01*
X172340340Y-104728424D01*
X172574062Y-104884591D01*
X172587120Y-104890000D01*
X172574062Y-104895409D01*
X172340340Y-105051576D01*
X172141576Y-105250340D01*
X171985409Y-105484062D01*
X171877838Y-105743759D01*
X171823000Y-106019453D01*
X171823000Y-106300547D01*
X171877838Y-106576241D01*
X171985409Y-106835938D01*
X172141576Y-107069660D01*
X172340340Y-107268424D01*
X172574062Y-107424591D01*
X172587120Y-107430000D01*
X172574062Y-107435409D01*
X172340340Y-107591576D01*
X172141576Y-107790340D01*
X171985409Y-108024062D01*
X171877838Y-108283759D01*
X171823000Y-108559453D01*
X171823000Y-108840547D01*
X171877838Y-109116241D01*
X171985409Y-109375938D01*
X172141576Y-109609660D01*
X172340340Y-109808424D01*
X172574062Y-109964591D01*
X172587120Y-109970000D01*
X172574062Y-109975409D01*
X172340340Y-110131576D01*
X172141576Y-110330340D01*
X171985409Y-110564062D01*
X171877838Y-110823759D01*
X171823000Y-111099453D01*
X171823000Y-111380547D01*
X171877838Y-111656241D01*
X171985409Y-111915938D01*
X172141576Y-112149660D01*
X172340340Y-112348424D01*
X172574062Y-112504591D01*
X172833759Y-112612162D01*
X173109453Y-112667000D01*
X173390547Y-112667000D01*
X173666241Y-112612162D01*
X173925938Y-112504591D01*
X174159660Y-112348424D01*
X174358424Y-112149660D01*
X174514591Y-111915938D01*
X174622162Y-111656241D01*
X174677000Y-111380547D01*
X174677000Y-111099453D01*
X174622162Y-110823759D01*
X174514591Y-110564062D01*
X174358424Y-110330340D01*
X174159660Y-110131576D01*
X173925938Y-109975409D01*
X173912880Y-109970000D01*
X173925938Y-109964591D01*
X174159660Y-109808424D01*
X174358424Y-109609660D01*
X174514591Y-109375938D01*
X174622162Y-109116241D01*
X174677000Y-108840547D01*
X174677000Y-108559453D01*
X174622162Y-108283759D01*
X174514591Y-108024062D01*
X174358424Y-107790340D01*
X174159660Y-107591576D01*
X173925938Y-107435409D01*
X173912880Y-107430000D01*
X173925938Y-107424591D01*
X174159660Y-107268424D01*
X174358424Y-107069660D01*
X174514591Y-106835938D01*
X174622162Y-106576241D01*
X174677000Y-106300547D01*
X174677000Y-106019453D01*
X174622162Y-105743759D01*
X174514591Y-105484062D01*
X174358424Y-105250340D01*
X174159660Y-105051576D01*
X173925938Y-104895409D01*
X173912880Y-104890000D01*
X173925938Y-104884591D01*
X174159660Y-104728424D01*
X174358424Y-104529660D01*
X174514591Y-104295938D01*
X174622162Y-104036241D01*
X174677000Y-103760547D01*
X174677000Y-103479453D01*
X174622162Y-103203759D01*
X174516599Y-102948910D01*
X174540596Y-102919669D01*
X176992674Y-100467592D01*
X177026133Y-100440133D01*
X177135727Y-100306592D01*
X177217162Y-100154237D01*
X177267310Y-99988922D01*
X177280000Y-99860079D01*
X177280000Y-99860078D01*
X177284243Y-99817001D01*
X177280000Y-99773924D01*
X177280000Y-96634247D01*
X177312660Y-96612424D01*
X177511424Y-96413660D01*
X177558000Y-96343953D01*
X177558001Y-103268733D01*
X176582072Y-104244663D01*
X176543547Y-104237000D01*
X176262453Y-104237000D01*
X175986759Y-104291838D01*
X175727062Y-104399409D01*
X175493340Y-104555576D01*
X175294576Y-104754340D01*
X175138409Y-104988062D01*
X175030838Y-105247759D01*
X174976000Y-105523453D01*
X174976000Y-105804547D01*
X175030838Y-106080241D01*
X175138409Y-106339938D01*
X175294576Y-106573660D01*
X175493340Y-106772424D01*
X175727062Y-106928591D01*
X175986759Y-107036162D01*
X176262453Y-107091000D01*
X176543547Y-107091000D01*
X176819241Y-107036162D01*
X177078938Y-106928591D01*
X177312660Y-106772424D01*
X177511424Y-106573660D01*
X177667591Y-106339938D01*
X177775162Y-106080241D01*
X177830000Y-105804547D01*
X177830000Y-105523453D01*
X177822337Y-105484928D01*
X179024674Y-104282592D01*
X179058133Y-104255133D01*
X179167727Y-104121592D01*
X179249162Y-103969237D01*
X179261344Y-103929078D01*
X179299310Y-103803923D01*
X179316243Y-103632000D01*
X179312000Y-103588921D01*
X179312000Y-94404079D01*
X179316243Y-94361000D01*
X179299310Y-94189077D01*
X179249162Y-94023763D01*
X179246602Y-94018973D01*
X179167727Y-93871408D01*
X179106554Y-93796868D01*
X179085594Y-93771328D01*
X179085592Y-93771326D01*
X179058133Y-93737867D01*
X179024675Y-93710409D01*
X175375000Y-90060735D01*
X175375000Y-75171247D01*
X175407660Y-75149424D01*
X175606424Y-74950660D01*
X175762591Y-74716938D01*
X175870162Y-74457241D01*
X175925000Y-74181547D01*
X175925000Y-73900453D01*
X175870162Y-73624759D01*
X175762591Y-73365062D01*
X175606424Y-73131340D01*
X175407660Y-72932576D01*
X175173938Y-72776409D01*
X174914241Y-72668838D01*
X174638547Y-72614000D01*
X174357453Y-72614000D01*
X174081759Y-72668838D01*
X173822062Y-72776409D01*
X173588340Y-72932576D01*
X173389576Y-73131340D01*
X173233409Y-73365062D01*
X173125838Y-73624759D01*
X173071000Y-73900453D01*
X173071000Y-74181547D01*
X173125838Y-74457241D01*
X173233409Y-74716938D01*
X173389576Y-74950660D01*
X173588340Y-75149424D01*
X173621000Y-75171247D01*
X173621001Y-90380910D01*
X173616757Y-90424000D01*
X173633690Y-90595922D01*
X173683838Y-90761236D01*
X173765274Y-90913592D01*
X173847406Y-91013671D01*
X173847409Y-91013674D01*
X173874868Y-91047133D01*
X173908327Y-91074592D01*
X177069046Y-94235311D01*
X176819241Y-94131838D01*
X176543547Y-94077000D01*
X176262453Y-94077000D01*
X175986759Y-94131838D01*
X175727062Y-94239409D01*
X175493340Y-94395576D01*
X175294576Y-94594340D01*
X175138409Y-94828062D01*
X175030838Y-95087759D01*
X174976000Y-95363453D01*
X174976000Y-95644547D01*
X175030838Y-95920241D01*
X175138409Y-96179938D01*
X175294576Y-96413660D01*
X175493340Y-96612424D01*
X175526000Y-96634247D01*
X175526000Y-97035734D01*
X174669337Y-96179072D01*
X174677000Y-96140547D01*
X174677000Y-95859453D01*
X174622162Y-95583759D01*
X174514591Y-95324062D01*
X174358424Y-95090340D01*
X174159660Y-94891576D01*
X173925938Y-94735409D01*
X173666241Y-94627838D01*
X173390547Y-94573000D01*
X173109453Y-94573000D01*
X173070928Y-94580663D01*
X171438000Y-92947735D01*
X171438000Y-89941449D01*
X171483913Y-89936927D01*
X171602103Y-89901075D01*
X171711028Y-89842853D01*
X171806501Y-89764501D01*
X171884853Y-89669028D01*
X171943075Y-89560103D01*
X171978927Y-89441913D01*
X171991033Y-89319000D01*
X171991033Y-87719000D01*
X171978927Y-87596087D01*
X171943075Y-87477897D01*
X171884853Y-87368972D01*
X171806501Y-87273499D01*
X171711028Y-87195147D01*
X171602103Y-87136925D01*
X171483913Y-87101073D01*
X171361000Y-87088967D01*
X169761000Y-87088967D01*
X169638087Y-87101073D01*
X169519897Y-87136925D01*
X169410972Y-87195147D01*
X169315499Y-87273499D01*
X169237147Y-87368972D01*
X169178925Y-87477897D01*
X169143073Y-87596087D01*
X169130967Y-87719000D01*
X169130967Y-87728573D01*
X169053702Y-87705903D01*
X168240605Y-88519000D01*
X169053702Y-89332097D01*
X169130967Y-89309427D01*
X169130967Y-89319000D01*
X169143073Y-89441913D01*
X169178925Y-89560103D01*
X169237147Y-89669028D01*
X169315499Y-89764501D01*
X169410972Y-89842853D01*
X169519897Y-89901075D01*
X169638087Y-89936927D01*
X169684000Y-89941449D01*
X169684001Y-93267911D01*
X169679757Y-93311000D01*
X169696690Y-93482922D01*
X169746838Y-93648236D01*
X169828274Y-93800592D01*
X169910406Y-93900671D01*
X169910409Y-93900674D01*
X169937868Y-93934133D01*
X169971327Y-93961592D01*
X171830663Y-95820928D01*
X171823000Y-95859453D01*
X171823000Y-95872735D01*
X165461967Y-89511702D01*
X167247903Y-89511702D01*
X167319486Y-89755671D01*
X167574996Y-89876571D01*
X167849184Y-89945300D01*
X168131512Y-89959217D01*
X168411130Y-89917787D01*
X168677292Y-89822603D01*
X168802514Y-89755671D01*
X168874097Y-89511702D01*
X168061000Y-88698605D01*
X167247903Y-89511702D01*
X165461967Y-89511702D01*
X164539777Y-88589512D01*
X166620783Y-88589512D01*
X166662213Y-88869130D01*
X166757397Y-89135292D01*
X166824329Y-89260514D01*
X167068298Y-89332097D01*
X167881395Y-88519000D01*
X167068298Y-87705903D01*
X166824329Y-87777486D01*
X166703429Y-88032996D01*
X166634700Y-88307184D01*
X166620783Y-88589512D01*
X164539777Y-88589512D01*
X163476563Y-87526298D01*
X167247903Y-87526298D01*
X168061000Y-88339395D01*
X168874097Y-87526298D01*
X168802514Y-87282329D01*
X168547004Y-87161429D01*
X168272816Y-87092700D01*
X167990488Y-87078783D01*
X167710870Y-87120213D01*
X167444708Y-87215397D01*
X167319486Y-87282329D01*
X167247903Y-87526298D01*
X163476563Y-87526298D01*
X160323597Y-84373332D01*
X160296133Y-84339867D01*
X160162592Y-84230273D01*
X160010237Y-84148838D01*
X159844922Y-84098690D01*
X159673000Y-84081757D01*
X159629921Y-84086000D01*
X158031079Y-84086000D01*
X157988000Y-84081757D01*
X157816077Y-84098690D01*
X157704925Y-84132408D01*
X157650763Y-84148838D01*
X157498408Y-84230273D01*
X157364867Y-84339867D01*
X157337403Y-84373332D01*
X154277000Y-87433735D01*
X154277000Y-87349604D01*
X154218319Y-87054590D01*
X154103210Y-86776694D01*
X153936099Y-86526594D01*
X153723406Y-86313901D01*
X153627000Y-86249485D01*
X153627000Y-83959079D01*
X153631243Y-83916000D01*
X153614310Y-83744077D01*
X153564162Y-83578763D01*
X153528069Y-83511238D01*
X153482727Y-83426408D01*
X153373133Y-83292867D01*
X153339668Y-83265403D01*
X151245000Y-81170735D01*
X151245000Y-80241263D01*
X152023000Y-80241263D01*
X152023000Y-80758737D01*
X152123954Y-81266268D01*
X152321983Y-81744351D01*
X152609476Y-82174615D01*
X152975385Y-82540524D01*
X153405649Y-82828017D01*
X153883732Y-83026046D01*
X154391263Y-83127000D01*
X154908737Y-83127000D01*
X155416268Y-83026046D01*
X155894351Y-82828017D01*
X156324615Y-82540524D01*
X156690524Y-82174615D01*
X156978017Y-81744351D01*
X157176046Y-81266268D01*
X157277000Y-80758737D01*
X157277000Y-80241263D01*
X157176046Y-79733732D01*
X156978017Y-79255649D01*
X156690524Y-78825385D01*
X156324615Y-78459476D01*
X155894351Y-78171983D01*
X155416268Y-77973954D01*
X154908737Y-77873000D01*
X154391263Y-77873000D01*
X153883732Y-77973954D01*
X153405649Y-78171983D01*
X152975385Y-78459476D01*
X152609476Y-78825385D01*
X152321983Y-79255649D01*
X152123954Y-79733732D01*
X152023000Y-80241263D01*
X151245000Y-80241263D01*
X151245000Y-77692040D01*
X157231091Y-77692040D01*
X157325930Y-77956881D01*
X157470615Y-78198131D01*
X157659586Y-78406519D01*
X157885580Y-78574037D01*
X158139913Y-78694246D01*
X158273961Y-78734904D01*
X158496000Y-78612915D01*
X158496000Y-77470000D01*
X158750000Y-77470000D01*
X158750000Y-78612915D01*
X158972039Y-78734904D01*
X159106087Y-78694246D01*
X159360420Y-78574037D01*
X159586414Y-78406519D01*
X159775385Y-78198131D01*
X159920070Y-77956881D01*
X160014909Y-77692040D01*
X159893624Y-77470000D01*
X158750000Y-77470000D01*
X158496000Y-77470000D01*
X157352376Y-77470000D01*
X157231091Y-77692040D01*
X151245000Y-77692040D01*
X151245000Y-76993960D01*
X157231091Y-76993960D01*
X157352376Y-77216000D01*
X158496000Y-77216000D01*
X158496000Y-76073085D01*
X158750000Y-76073085D01*
X158750000Y-77216000D01*
X159893624Y-77216000D01*
X160014909Y-76993960D01*
X159920070Y-76729119D01*
X159775385Y-76487869D01*
X159586414Y-76279481D01*
X159360420Y-76111963D01*
X159106087Y-75991754D01*
X158972039Y-75951096D01*
X158750000Y-76073085D01*
X158496000Y-76073085D01*
X158273961Y-75951096D01*
X158139913Y-75991754D01*
X157885580Y-76111963D01*
X157659586Y-76279481D01*
X157470615Y-76487869D01*
X157325930Y-76729119D01*
X157231091Y-76993960D01*
X151245000Y-76993960D01*
X151245000Y-76690265D01*
X153871928Y-74063337D01*
X153910453Y-74071000D01*
X154191547Y-74071000D01*
X154467241Y-74016162D01*
X154726938Y-73908591D01*
X154960660Y-73752424D01*
X155159424Y-73553660D01*
X155315591Y-73319938D01*
X155423162Y-73060241D01*
X155478000Y-72784547D01*
X155478000Y-72503453D01*
X155423162Y-72227759D01*
X155315591Y-71968062D01*
X155165210Y-71743000D01*
X160799735Y-71743000D01*
X162918663Y-73861929D01*
X162911000Y-73900453D01*
X162911000Y-74181547D01*
X162965838Y-74457241D01*
X163073409Y-74716938D01*
X163229576Y-74950660D01*
X163428340Y-75149424D01*
X163662062Y-75305591D01*
X163921759Y-75413162D01*
X164197453Y-75468000D01*
X164478547Y-75468000D01*
X164754241Y-75413162D01*
X165013938Y-75305591D01*
X165247660Y-75149424D01*
X165446424Y-74950660D01*
X165602591Y-74716938D01*
X165710162Y-74457241D01*
X165765000Y-74181547D01*
X165765000Y-73900453D01*
X165710162Y-73624759D01*
X165602591Y-73365062D01*
X165446424Y-73131340D01*
X165247660Y-72932576D01*
X165013938Y-72776409D01*
X164754241Y-72668838D01*
X164478547Y-72614000D01*
X164197453Y-72614000D01*
X164158929Y-72621663D01*
X162214265Y-70677000D01*
X181323000Y-70677000D01*
X181323001Y-90823000D01*
G04 #@! TA.AperFunction,Conductor*
D24*
G36*
X181323001Y-90823000D02*
G01*
X179433252Y-90823000D01*
X179400000Y-90819725D01*
X179362605Y-90823408D01*
X179267285Y-90832796D01*
X179139670Y-90871508D01*
X179022059Y-90934372D01*
X178918973Y-91018973D01*
X178834372Y-91122059D01*
X178771508Y-91239670D01*
X178732796Y-91367285D01*
X178719725Y-91500000D01*
X178723001Y-91533262D01*
X178723000Y-92966747D01*
X178719725Y-93000000D01*
X178732796Y-93132715D01*
X178771508Y-93260330D01*
X178834372Y-93377941D01*
X178918973Y-93481027D01*
X179009951Y-93555691D01*
X179022059Y-93565628D01*
X179139670Y-93628492D01*
X179267285Y-93667204D01*
X179400000Y-93680275D01*
X179433252Y-93677000D01*
X181323000Y-93677000D01*
X181323001Y-98966738D01*
X181319725Y-99000000D01*
X181332796Y-99132715D01*
X181371508Y-99260330D01*
X181434372Y-99377941D01*
X181518973Y-99481027D01*
X181622059Y-99565628D01*
X181739670Y-99628492D01*
X181823001Y-99653770D01*
X181823000Y-125323000D01*
X177177000Y-125323000D01*
X177177000Y-119533252D01*
X177180275Y-119500000D01*
X177167204Y-119367285D01*
X177128492Y-119239670D01*
X177065628Y-119122059D01*
X176981027Y-119018973D01*
X176877941Y-118934372D01*
X176760330Y-118871508D01*
X176632715Y-118832796D01*
X176533252Y-118823000D01*
X176500000Y-118819725D01*
X176466748Y-118823000D01*
X165513252Y-118823000D01*
X165480000Y-118819725D01*
X165446748Y-118823000D01*
X165347285Y-118832796D01*
X165219670Y-118871508D01*
X165102059Y-118934372D01*
X164998973Y-119018973D01*
X164914372Y-119122059D01*
X164851508Y-119239670D01*
X164812796Y-119367285D01*
X164799725Y-119500000D01*
X164803001Y-119533262D01*
X164803001Y-121793000D01*
X159027000Y-121793000D01*
X159027000Y-121109079D01*
X159031243Y-121066000D01*
X159015000Y-120901084D01*
X159015000Y-120802849D01*
X158975533Y-120604435D01*
X158898115Y-120417533D01*
X158785723Y-120249326D01*
X158642674Y-120106277D01*
X158474467Y-119993885D01*
X158287565Y-119916467D01*
X158089151Y-119877000D01*
X157886849Y-119877000D01*
X157688435Y-119916467D01*
X157501533Y-119993885D01*
X157333326Y-120106277D01*
X157190277Y-120249326D01*
X157077885Y-120417533D01*
X157000467Y-120604435D01*
X156961000Y-120802849D01*
X156961000Y-121005151D01*
X157000467Y-121203565D01*
X157077885Y-121390467D01*
X157190277Y-121558674D01*
X157273001Y-121641398D01*
X157273001Y-121793000D01*
X156487000Y-121793000D01*
X156487000Y-121109079D01*
X156491243Y-121066000D01*
X156475000Y-120901084D01*
X156475000Y-120802849D01*
X156435533Y-120604435D01*
X156358115Y-120417533D01*
X156325000Y-120367973D01*
X156325000Y-114155265D01*
X158891226Y-111589039D01*
X164238096Y-111589039D01*
X164278754Y-111723087D01*
X164398963Y-111977420D01*
X164566481Y-112203414D01*
X164774869Y-112392385D01*
X165016119Y-112537070D01*
X165280960Y-112631909D01*
X165503000Y-112510624D01*
X165503000Y-111367000D01*
X165757000Y-111367000D01*
X165757000Y-112510624D01*
X165979040Y-112631909D01*
X166243881Y-112537070D01*
X166485131Y-112392385D01*
X166693519Y-112203414D01*
X166861037Y-111977420D01*
X166981246Y-111723087D01*
X167021904Y-111589039D01*
X166899915Y-111367000D01*
X165757000Y-111367000D01*
X165503000Y-111367000D01*
X164360085Y-111367000D01*
X164238096Y-111589039D01*
X158891226Y-111589039D01*
X161237929Y-109242337D01*
X161276453Y-109250000D01*
X161557547Y-109250000D01*
X161833241Y-109195162D01*
X162092938Y-109087591D01*
X162150635Y-109049039D01*
X164238096Y-109049039D01*
X164278754Y-109183087D01*
X164398963Y-109437420D01*
X164566481Y-109663414D01*
X164774869Y-109852385D01*
X164970982Y-109970000D01*
X164774869Y-110087615D01*
X164566481Y-110276586D01*
X164398963Y-110502580D01*
X164278754Y-110756913D01*
X164238096Y-110890961D01*
X164360085Y-111113000D01*
X165503000Y-111113000D01*
X165503000Y-108827000D01*
X165757000Y-108827000D01*
X165757000Y-111113000D01*
X166899915Y-111113000D01*
X167021904Y-110890961D01*
X166981246Y-110756913D01*
X166861037Y-110502580D01*
X166693519Y-110276586D01*
X166485131Y-110087615D01*
X166289018Y-109970000D01*
X166485131Y-109852385D01*
X166693519Y-109663414D01*
X166861037Y-109437420D01*
X166981246Y-109183087D01*
X167021904Y-109049039D01*
X166899915Y-108827000D01*
X165757000Y-108827000D01*
X165503000Y-108827000D01*
X164360085Y-108827000D01*
X164238096Y-109049039D01*
X162150635Y-109049039D01*
X162326660Y-108931424D01*
X162525424Y-108732660D01*
X162681591Y-108498938D01*
X162789162Y-108239241D01*
X162844000Y-107963547D01*
X162844000Y-107682453D01*
X162789162Y-107406759D01*
X162681591Y-107147062D01*
X162525424Y-106913340D01*
X162326660Y-106714576D01*
X162294000Y-106692753D01*
X162294000Y-106509039D01*
X164238096Y-106509039D01*
X164278754Y-106643087D01*
X164398963Y-106897420D01*
X164566481Y-107123414D01*
X164774869Y-107312385D01*
X164970982Y-107430000D01*
X164774869Y-107547615D01*
X164566481Y-107736586D01*
X164398963Y-107962580D01*
X164278754Y-108216913D01*
X164238096Y-108350961D01*
X164360085Y-108573000D01*
X165503000Y-108573000D01*
X165503000Y-106287000D01*
X165757000Y-106287000D01*
X165757000Y-108573000D01*
X166899915Y-108573000D01*
X167021904Y-108350961D01*
X166981246Y-108216913D01*
X166861037Y-107962580D01*
X166693519Y-107736586D01*
X166485131Y-107547615D01*
X166289018Y-107430000D01*
X166485131Y-107312385D01*
X166693519Y-107123414D01*
X166861037Y-106897420D01*
X166981246Y-106643087D01*
X167021904Y-106509039D01*
X166899915Y-106287000D01*
X165757000Y-106287000D01*
X165503000Y-106287000D01*
X164360085Y-106287000D01*
X164238096Y-106509039D01*
X162294000Y-106509039D01*
X162294000Y-105670247D01*
X162326660Y-105648424D01*
X162525424Y-105449660D01*
X162681591Y-105215938D01*
X162789162Y-104956241D01*
X162844000Y-104680547D01*
X162844000Y-104399453D01*
X162789162Y-104123759D01*
X162681591Y-103864062D01*
X162525424Y-103630340D01*
X162326660Y-103431576D01*
X162092938Y-103275409D01*
X161927788Y-103207001D01*
X164257193Y-103207001D01*
X164203000Y-103479453D01*
X164203000Y-103760547D01*
X164257838Y-104036241D01*
X164365409Y-104295938D01*
X164521576Y-104529660D01*
X164720340Y-104728424D01*
X164954062Y-104884591D01*
X164969404Y-104890946D01*
X164774869Y-105007615D01*
X164566481Y-105196586D01*
X164398963Y-105422580D01*
X164278754Y-105676913D01*
X164238096Y-105810961D01*
X164360085Y-106033000D01*
X165503000Y-106033000D01*
X165503000Y-106013000D01*
X165757000Y-106013000D01*
X165757000Y-106033000D01*
X166899915Y-106033000D01*
X167021904Y-105810961D01*
X166981246Y-105676913D01*
X166861037Y-105422580D01*
X166693519Y-105196586D01*
X166485131Y-105007615D01*
X166290596Y-104890946D01*
X166305938Y-104884591D01*
X166539660Y-104728424D01*
X166738424Y-104529660D01*
X166894591Y-104295938D01*
X167002162Y-104036241D01*
X167057000Y-103760547D01*
X167057000Y-103479453D01*
X167002807Y-103207001D01*
X171877193Y-103207001D01*
X171823000Y-103479453D01*
X171823000Y-103760547D01*
X171877838Y-104036241D01*
X171985409Y-104295938D01*
X172141576Y-104529660D01*
X172340340Y-104728424D01*
X172574062Y-104884591D01*
X172587120Y-104890000D01*
X172574062Y-104895409D01*
X172340340Y-105051576D01*
X172141576Y-105250340D01*
X171985409Y-105484062D01*
X171877838Y-105743759D01*
X171823000Y-106019453D01*
X171823000Y-106300547D01*
X171877838Y-106576241D01*
X171985409Y-106835938D01*
X172141576Y-107069660D01*
X172340340Y-107268424D01*
X172574062Y-107424591D01*
X172587120Y-107430000D01*
X172574062Y-107435409D01*
X172340340Y-107591576D01*
X172141576Y-107790340D01*
X171985409Y-108024062D01*
X171877838Y-108283759D01*
X171823000Y-108559453D01*
X171823000Y-108840547D01*
X171877838Y-109116241D01*
X171985409Y-109375938D01*
X172141576Y-109609660D01*
X172340340Y-109808424D01*
X172574062Y-109964591D01*
X172587120Y-109970000D01*
X172574062Y-109975409D01*
X172340340Y-110131576D01*
X172141576Y-110330340D01*
X171985409Y-110564062D01*
X171877838Y-110823759D01*
X171823000Y-111099453D01*
X171823000Y-111380547D01*
X171877838Y-111656241D01*
X171985409Y-111915938D01*
X172141576Y-112149660D01*
X172340340Y-112348424D01*
X172574062Y-112504591D01*
X172833759Y-112612162D01*
X173109453Y-112667000D01*
X173390547Y-112667000D01*
X173666241Y-112612162D01*
X173925938Y-112504591D01*
X174159660Y-112348424D01*
X174358424Y-112149660D01*
X174514591Y-111915938D01*
X174622162Y-111656241D01*
X174677000Y-111380547D01*
X174677000Y-111099453D01*
X174622162Y-110823759D01*
X174514591Y-110564062D01*
X174358424Y-110330340D01*
X174159660Y-110131576D01*
X173925938Y-109975409D01*
X173912880Y-109970000D01*
X173925938Y-109964591D01*
X174159660Y-109808424D01*
X174358424Y-109609660D01*
X174514591Y-109375938D01*
X174622162Y-109116241D01*
X174677000Y-108840547D01*
X174677000Y-108559453D01*
X174622162Y-108283759D01*
X174514591Y-108024062D01*
X174358424Y-107790340D01*
X174159660Y-107591576D01*
X173925938Y-107435409D01*
X173912880Y-107430000D01*
X173925938Y-107424591D01*
X174159660Y-107268424D01*
X174358424Y-107069660D01*
X174514591Y-106835938D01*
X174622162Y-106576241D01*
X174677000Y-106300547D01*
X174677000Y-106019453D01*
X174622162Y-105743759D01*
X174514591Y-105484062D01*
X174358424Y-105250340D01*
X174159660Y-105051576D01*
X173925938Y-104895409D01*
X173912880Y-104890000D01*
X173925938Y-104884591D01*
X174159660Y-104728424D01*
X174358424Y-104529660D01*
X174514591Y-104295938D01*
X174622162Y-104036241D01*
X174677000Y-103760547D01*
X174677000Y-103479453D01*
X174622162Y-103203759D01*
X174516599Y-102948910D01*
X174540596Y-102919669D01*
X176992674Y-100467592D01*
X177026133Y-100440133D01*
X177135727Y-100306592D01*
X177217162Y-100154237D01*
X177267310Y-99988922D01*
X177280000Y-99860079D01*
X177280000Y-99860078D01*
X177284243Y-99817001D01*
X177280000Y-99773924D01*
X177280000Y-96634247D01*
X177312660Y-96612424D01*
X177511424Y-96413660D01*
X177558000Y-96343953D01*
X177558001Y-103268733D01*
X176582072Y-104244663D01*
X176543547Y-104237000D01*
X176262453Y-104237000D01*
X175986759Y-104291838D01*
X175727062Y-104399409D01*
X175493340Y-104555576D01*
X175294576Y-104754340D01*
X175138409Y-104988062D01*
X175030838Y-105247759D01*
X174976000Y-105523453D01*
X174976000Y-105804547D01*
X175030838Y-106080241D01*
X175138409Y-106339938D01*
X175294576Y-106573660D01*
X175493340Y-106772424D01*
X175727062Y-106928591D01*
X175986759Y-107036162D01*
X176262453Y-107091000D01*
X176543547Y-107091000D01*
X176819241Y-107036162D01*
X177078938Y-106928591D01*
X177312660Y-106772424D01*
X177511424Y-106573660D01*
X177667591Y-106339938D01*
X177775162Y-106080241D01*
X177830000Y-105804547D01*
X177830000Y-105523453D01*
X177822337Y-105484928D01*
X179024674Y-104282592D01*
X179058133Y-104255133D01*
X179167727Y-104121592D01*
X179249162Y-103969237D01*
X179261344Y-103929078D01*
X179299310Y-103803923D01*
X179316243Y-103632000D01*
X179312000Y-103588921D01*
X179312000Y-94404079D01*
X179316243Y-94361000D01*
X179299310Y-94189077D01*
X179249162Y-94023763D01*
X179246602Y-94018973D01*
X179167727Y-93871408D01*
X179106554Y-93796868D01*
X179085594Y-93771328D01*
X179085592Y-93771326D01*
X179058133Y-93737867D01*
X179024675Y-93710409D01*
X175375000Y-90060735D01*
X175375000Y-75171247D01*
X175407660Y-75149424D01*
X175606424Y-74950660D01*
X175762591Y-74716938D01*
X175870162Y-74457241D01*
X175925000Y-74181547D01*
X175925000Y-73900453D01*
X175870162Y-73624759D01*
X175762591Y-73365062D01*
X175606424Y-73131340D01*
X175407660Y-72932576D01*
X175173938Y-72776409D01*
X174914241Y-72668838D01*
X174638547Y-72614000D01*
X174357453Y-72614000D01*
X174081759Y-72668838D01*
X173822062Y-72776409D01*
X173588340Y-72932576D01*
X173389576Y-73131340D01*
X173233409Y-73365062D01*
X173125838Y-73624759D01*
X173071000Y-73900453D01*
X173071000Y-74181547D01*
X173125838Y-74457241D01*
X173233409Y-74716938D01*
X173389576Y-74950660D01*
X173588340Y-75149424D01*
X173621000Y-75171247D01*
X173621001Y-90380910D01*
X173616757Y-90424000D01*
X173633690Y-90595922D01*
X173683838Y-90761236D01*
X173765274Y-90913592D01*
X173847406Y-91013671D01*
X173847409Y-91013674D01*
X173874868Y-91047133D01*
X173908327Y-91074592D01*
X177069046Y-94235311D01*
X176819241Y-94131838D01*
X176543547Y-94077000D01*
X176262453Y-94077000D01*
X175986759Y-94131838D01*
X175727062Y-94239409D01*
X175493340Y-94395576D01*
X175294576Y-94594340D01*
X175138409Y-94828062D01*
X175030838Y-95087759D01*
X174976000Y-95363453D01*
X174976000Y-95644547D01*
X175030838Y-95920241D01*
X175138409Y-96179938D01*
X175294576Y-96413660D01*
X175493340Y-96612424D01*
X175526000Y-96634247D01*
X175526000Y-97035734D01*
X174669337Y-96179072D01*
X174677000Y-96140547D01*
X174677000Y-95859453D01*
X174622162Y-95583759D01*
X174514591Y-95324062D01*
X174358424Y-95090340D01*
X174159660Y-94891576D01*
X173925938Y-94735409D01*
X173666241Y-94627838D01*
X173390547Y-94573000D01*
X173109453Y-94573000D01*
X173070928Y-94580663D01*
X171438000Y-92947735D01*
X171438000Y-89941449D01*
X171483913Y-89936927D01*
X171602103Y-89901075D01*
X171711028Y-89842853D01*
X171806501Y-89764501D01*
X171884853Y-89669028D01*
X171943075Y-89560103D01*
X171978927Y-89441913D01*
X171991033Y-89319000D01*
X171991033Y-87719000D01*
X171978927Y-87596087D01*
X171943075Y-87477897D01*
X171884853Y-87368972D01*
X171806501Y-87273499D01*
X171711028Y-87195147D01*
X171602103Y-87136925D01*
X171483913Y-87101073D01*
X171361000Y-87088967D01*
X169761000Y-87088967D01*
X169638087Y-87101073D01*
X169519897Y-87136925D01*
X169410972Y-87195147D01*
X169315499Y-87273499D01*
X169237147Y-87368972D01*
X169178925Y-87477897D01*
X169143073Y-87596087D01*
X169130967Y-87719000D01*
X169130967Y-87728573D01*
X169053702Y-87705903D01*
X168240605Y-88519000D01*
X169053702Y-89332097D01*
X169130967Y-89309427D01*
X169130967Y-89319000D01*
X169143073Y-89441913D01*
X169178925Y-89560103D01*
X169237147Y-89669028D01*
X169315499Y-89764501D01*
X169410972Y-89842853D01*
X169519897Y-89901075D01*
X169638087Y-89936927D01*
X169684000Y-89941449D01*
X169684001Y-93267911D01*
X169679757Y-93311000D01*
X169696690Y-93482922D01*
X169746838Y-93648236D01*
X169828274Y-93800592D01*
X169910406Y-93900671D01*
X169910409Y-93900674D01*
X169937868Y-93934133D01*
X169971327Y-93961592D01*
X171830663Y-95820928D01*
X171823000Y-95859453D01*
X171823000Y-95872735D01*
X165461967Y-89511702D01*
X167247903Y-89511702D01*
X167319486Y-89755671D01*
X167574996Y-89876571D01*
X167849184Y-89945300D01*
X168131512Y-89959217D01*
X168411130Y-89917787D01*
X168677292Y-89822603D01*
X168802514Y-89755671D01*
X168874097Y-89511702D01*
X168061000Y-88698605D01*
X167247903Y-89511702D01*
X165461967Y-89511702D01*
X164539777Y-88589512D01*
X166620783Y-88589512D01*
X166662213Y-88869130D01*
X166757397Y-89135292D01*
X166824329Y-89260514D01*
X167068298Y-89332097D01*
X167881395Y-88519000D01*
X167068298Y-87705903D01*
X166824329Y-87777486D01*
X166703429Y-88032996D01*
X166634700Y-88307184D01*
X166620783Y-88589512D01*
X164539777Y-88589512D01*
X163476563Y-87526298D01*
X167247903Y-87526298D01*
X168061000Y-88339395D01*
X168874097Y-87526298D01*
X168802514Y-87282329D01*
X168547004Y-87161429D01*
X168272816Y-87092700D01*
X167990488Y-87078783D01*
X167710870Y-87120213D01*
X167444708Y-87215397D01*
X167319486Y-87282329D01*
X167247903Y-87526298D01*
X163476563Y-87526298D01*
X160323597Y-84373332D01*
X160296133Y-84339867D01*
X160162592Y-84230273D01*
X160010237Y-84148838D01*
X159844922Y-84098690D01*
X159673000Y-84081757D01*
X159629921Y-84086000D01*
X158031079Y-84086000D01*
X157988000Y-84081757D01*
X157816077Y-84098690D01*
X157704925Y-84132408D01*
X157650763Y-84148838D01*
X157498408Y-84230273D01*
X157364867Y-84339867D01*
X157337403Y-84373332D01*
X154277000Y-87433735D01*
X154277000Y-87349604D01*
X154218319Y-87054590D01*
X154103210Y-86776694D01*
X153936099Y-86526594D01*
X153723406Y-86313901D01*
X153627000Y-86249485D01*
X153627000Y-83959079D01*
X153631243Y-83916000D01*
X153614310Y-83744077D01*
X153564162Y-83578763D01*
X153528069Y-83511238D01*
X153482727Y-83426408D01*
X153373133Y-83292867D01*
X153339668Y-83265403D01*
X151245000Y-81170735D01*
X151245000Y-80241263D01*
X152023000Y-80241263D01*
X152023000Y-80758737D01*
X152123954Y-81266268D01*
X152321983Y-81744351D01*
X152609476Y-82174615D01*
X152975385Y-82540524D01*
X153405649Y-82828017D01*
X153883732Y-83026046D01*
X154391263Y-83127000D01*
X154908737Y-83127000D01*
X155416268Y-83026046D01*
X155894351Y-82828017D01*
X156324615Y-82540524D01*
X156690524Y-82174615D01*
X156978017Y-81744351D01*
X157176046Y-81266268D01*
X157277000Y-80758737D01*
X157277000Y-80241263D01*
X157176046Y-79733732D01*
X156978017Y-79255649D01*
X156690524Y-78825385D01*
X156324615Y-78459476D01*
X155894351Y-78171983D01*
X155416268Y-77973954D01*
X154908737Y-77873000D01*
X154391263Y-77873000D01*
X153883732Y-77973954D01*
X153405649Y-78171983D01*
X152975385Y-78459476D01*
X152609476Y-78825385D01*
X152321983Y-79255649D01*
X152123954Y-79733732D01*
X152023000Y-80241263D01*
X151245000Y-80241263D01*
X151245000Y-77692040D01*
X157231091Y-77692040D01*
X157325930Y-77956881D01*
X157470615Y-78198131D01*
X157659586Y-78406519D01*
X157885580Y-78574037D01*
X158139913Y-78694246D01*
X158273961Y-78734904D01*
X158496000Y-78612915D01*
X158496000Y-77470000D01*
X158750000Y-77470000D01*
X158750000Y-78612915D01*
X158972039Y-78734904D01*
X159106087Y-78694246D01*
X159360420Y-78574037D01*
X159586414Y-78406519D01*
X159775385Y-78198131D01*
X159920070Y-77956881D01*
X160014909Y-77692040D01*
X159893624Y-77470000D01*
X158750000Y-77470000D01*
X158496000Y-77470000D01*
X157352376Y-77470000D01*
X157231091Y-77692040D01*
X151245000Y-77692040D01*
X151245000Y-76993960D01*
X157231091Y-76993960D01*
X157352376Y-77216000D01*
X158496000Y-77216000D01*
X158496000Y-76073085D01*
X158750000Y-76073085D01*
X158750000Y-77216000D01*
X159893624Y-77216000D01*
X160014909Y-76993960D01*
X159920070Y-76729119D01*
X159775385Y-76487869D01*
X159586414Y-76279481D01*
X159360420Y-76111963D01*
X159106087Y-75991754D01*
X158972039Y-75951096D01*
X158750000Y-76073085D01*
X158496000Y-76073085D01*
X158273961Y-75951096D01*
X158139913Y-75991754D01*
X157885580Y-76111963D01*
X157659586Y-76279481D01*
X157470615Y-76487869D01*
X157325930Y-76729119D01*
X157231091Y-76993960D01*
X151245000Y-76993960D01*
X151245000Y-76690265D01*
X153871928Y-74063337D01*
X153910453Y-74071000D01*
X154191547Y-74071000D01*
X154467241Y-74016162D01*
X154726938Y-73908591D01*
X154960660Y-73752424D01*
X155159424Y-73553660D01*
X155315591Y-73319938D01*
X155423162Y-73060241D01*
X155478000Y-72784547D01*
X155478000Y-72503453D01*
X155423162Y-72227759D01*
X155315591Y-71968062D01*
X155165210Y-71743000D01*
X160799735Y-71743000D01*
X162918663Y-73861929D01*
X162911000Y-73900453D01*
X162911000Y-74181547D01*
X162965838Y-74457241D01*
X163073409Y-74716938D01*
X163229576Y-74950660D01*
X163428340Y-75149424D01*
X163662062Y-75305591D01*
X163921759Y-75413162D01*
X164197453Y-75468000D01*
X164478547Y-75468000D01*
X164754241Y-75413162D01*
X165013938Y-75305591D01*
X165247660Y-75149424D01*
X165446424Y-74950660D01*
X165602591Y-74716938D01*
X165710162Y-74457241D01*
X165765000Y-74181547D01*
X165765000Y-73900453D01*
X165710162Y-73624759D01*
X165602591Y-73365062D01*
X165446424Y-73131340D01*
X165247660Y-72932576D01*
X165013938Y-72776409D01*
X164754241Y-72668838D01*
X164478547Y-72614000D01*
X164197453Y-72614000D01*
X164158929Y-72621663D01*
X162214265Y-70677000D01*
X181323000Y-70677000D01*
X181323001Y-90823000D01*
G37*
G04 #@! TD.AperFunction*
D23*
X143544576Y-105049660D02*
X143743340Y-105248424D01*
X143977062Y-105404591D01*
X144236759Y-105512162D01*
X144512453Y-105567000D01*
X144793547Y-105567000D01*
X145069241Y-105512162D01*
X145173000Y-105469183D01*
X145173000Y-110954920D01*
X145168757Y-110998000D01*
X145185690Y-111169922D01*
X145196962Y-111207079D01*
X145235838Y-111335236D01*
X145317273Y-111487591D01*
X145426867Y-111621133D01*
X145460332Y-111648597D01*
X149491001Y-115679266D01*
X149491000Y-120367973D01*
X149457885Y-120417533D01*
X149380467Y-120604435D01*
X149341000Y-120802849D01*
X149341000Y-121005151D01*
X149380467Y-121203565D01*
X149457885Y-121390467D01*
X149570277Y-121558674D01*
X149653001Y-121641398D01*
X149653001Y-121793000D01*
X115847000Y-121793000D01*
X115847000Y-121784359D01*
X115970674Y-121701723D01*
X116113723Y-121558674D01*
X116226115Y-121390467D01*
X116303533Y-121203565D01*
X116343000Y-121005151D01*
X116343000Y-120802849D01*
X116303533Y-120604435D01*
X116226115Y-120417533D01*
X116193000Y-120367973D01*
X116193000Y-115359079D01*
X116197243Y-115316000D01*
X116180310Y-115144077D01*
X116130162Y-114978763D01*
X116130161Y-114978762D01*
X116048727Y-114826408D01*
X115939133Y-114692867D01*
X115905674Y-114665408D01*
X113753700Y-112513434D01*
X113813119Y-112549070D01*
X114077960Y-112643909D01*
X114300000Y-112522624D01*
X114300000Y-111379000D01*
X114554000Y-111379000D01*
X114554000Y-112522624D01*
X114776040Y-112643909D01*
X115040881Y-112549070D01*
X115282131Y-112404385D01*
X115490519Y-112215414D01*
X115658037Y-111989420D01*
X115778246Y-111735087D01*
X115818904Y-111601039D01*
X115696915Y-111379000D01*
X114554000Y-111379000D01*
X114300000Y-111379000D01*
X114280000Y-111379000D01*
X114280000Y-111125000D01*
X114300000Y-111125000D01*
X114300000Y-109981376D01*
X114554000Y-109981376D01*
X114554000Y-111125000D01*
X115696915Y-111125000D01*
X115818904Y-110902961D01*
X115778246Y-110768913D01*
X115658037Y-110514580D01*
X115490519Y-110288586D01*
X115282131Y-110099615D01*
X115040881Y-109954930D01*
X114776040Y-109860091D01*
X114554000Y-109981376D01*
X114300000Y-109981376D01*
X114077960Y-109860091D01*
X113813119Y-109954930D01*
X113571869Y-110099615D01*
X113363481Y-110288586D01*
X113195963Y-110514580D01*
X113145000Y-110622405D01*
X113145000Y-108452595D01*
X113195963Y-108560420D01*
X113363481Y-108786414D01*
X113571869Y-108975385D01*
X113813119Y-109120070D01*
X114077960Y-109214909D01*
X114300000Y-109093624D01*
X114300000Y-107950000D01*
X114554000Y-107950000D01*
X114554000Y-109093624D01*
X114776040Y-109214909D01*
X115040881Y-109120070D01*
X115282131Y-108975385D01*
X115490519Y-108786414D01*
X115658037Y-108560420D01*
X115778246Y-108306087D01*
X115818904Y-108172039D01*
X115696915Y-107950000D01*
X114554000Y-107950000D01*
X114300000Y-107950000D01*
X114280000Y-107950000D01*
X114280000Y-107696000D01*
X114300000Y-107696000D01*
X114300000Y-107676000D01*
X114554000Y-107676000D01*
X114554000Y-107696000D01*
X115696915Y-107696000D01*
X115818904Y-107473961D01*
X115778246Y-107339913D01*
X115658037Y-107085580D01*
X115490519Y-106859586D01*
X115419297Y-106795000D01*
X123019921Y-106795000D01*
X123063000Y-106799243D01*
X123106079Y-106795000D01*
X123234922Y-106782310D01*
X123400237Y-106732162D01*
X123552592Y-106650727D01*
X123686133Y-106541133D01*
X123713597Y-106507668D01*
X124460000Y-105761265D01*
X127380735Y-108682000D01*
X127367453Y-108682000D01*
X127328928Y-108689663D01*
X126761597Y-108122332D01*
X126734133Y-108088867D01*
X126600592Y-107979273D01*
X126448237Y-107897838D01*
X126282922Y-107847690D01*
X126154079Y-107835000D01*
X126111000Y-107830757D01*
X126067921Y-107835000D01*
X118351247Y-107835000D01*
X118329424Y-107802340D01*
X118130660Y-107603576D01*
X117896938Y-107447409D01*
X117637241Y-107339838D01*
X117361547Y-107285000D01*
X117080453Y-107285000D01*
X116804759Y-107339838D01*
X116545062Y-107447409D01*
X116311340Y-107603576D01*
X116112576Y-107802340D01*
X115956409Y-108036062D01*
X115848838Y-108295759D01*
X115794000Y-108571453D01*
X115794000Y-108852547D01*
X115848838Y-109128241D01*
X115956409Y-109387938D01*
X116112576Y-109621660D01*
X116311340Y-109820424D01*
X116545062Y-109976591D01*
X116804759Y-110084162D01*
X117080453Y-110139000D01*
X117361547Y-110139000D01*
X117637241Y-110084162D01*
X117896938Y-109976591D01*
X118130660Y-109820424D01*
X118329424Y-109621660D01*
X118351247Y-109589000D01*
X125747735Y-109589000D01*
X126088663Y-109929928D01*
X126081000Y-109968453D01*
X126081000Y-110249547D01*
X126135838Y-110525241D01*
X126243409Y-110784938D01*
X126399576Y-111018660D01*
X126598340Y-111217424D01*
X126832062Y-111373591D01*
X127091759Y-111481162D01*
X127367453Y-111536000D01*
X127648547Y-111536000D01*
X127924241Y-111481162D01*
X128183938Y-111373591D01*
X128417660Y-111217424D01*
X128616424Y-111018660D01*
X128772591Y-110784938D01*
X128880162Y-110525241D01*
X128935000Y-110249547D01*
X128935000Y-110236265D01*
X129397403Y-110698668D01*
X129424867Y-110732133D01*
X129558408Y-110841727D01*
X129710763Y-110923162D01*
X129876078Y-110973310D01*
X130004921Y-110986000D01*
X130004922Y-110986000D01*
X130047999Y-110990243D01*
X130091076Y-110986000D01*
X136537753Y-110986000D01*
X136559576Y-111018660D01*
X136758340Y-111217424D01*
X136992062Y-111373591D01*
X137251759Y-111481162D01*
X137527453Y-111536000D01*
X137808547Y-111536000D01*
X138084241Y-111481162D01*
X138343938Y-111373591D01*
X138577660Y-111217424D01*
X138776424Y-111018660D01*
X138932591Y-110784938D01*
X139040162Y-110525241D01*
X139095000Y-110249547D01*
X139095000Y-109968453D01*
X139040162Y-109692759D01*
X138932591Y-109433062D01*
X138776424Y-109199340D01*
X138577660Y-109000576D01*
X138443236Y-108910757D01*
X138545133Y-108827133D01*
X138572597Y-108793668D01*
X141305669Y-106060596D01*
X141339133Y-106033133D01*
X141448727Y-105899592D01*
X141530162Y-105747237D01*
X141546524Y-105693300D01*
X141580310Y-105581923D01*
X141597243Y-105410000D01*
X141593000Y-105366921D01*
X141593000Y-105270247D01*
X141625660Y-105248424D01*
X141824424Y-105049660D01*
X141846247Y-105017000D01*
X143522753Y-105017000D01*
X143544576Y-105049660D01*
G04 #@! TA.AperFunction,Conductor*
D24*
G36*
X143544576Y-105049660D02*
G01*
X143743340Y-105248424D01*
X143977062Y-105404591D01*
X144236759Y-105512162D01*
X144512453Y-105567000D01*
X144793547Y-105567000D01*
X145069241Y-105512162D01*
X145173000Y-105469183D01*
X145173000Y-110954920D01*
X145168757Y-110998000D01*
X145185690Y-111169922D01*
X145196962Y-111207079D01*
X145235838Y-111335236D01*
X145317273Y-111487591D01*
X145426867Y-111621133D01*
X145460332Y-111648597D01*
X149491001Y-115679266D01*
X149491000Y-120367973D01*
X149457885Y-120417533D01*
X149380467Y-120604435D01*
X149341000Y-120802849D01*
X149341000Y-121005151D01*
X149380467Y-121203565D01*
X149457885Y-121390467D01*
X149570277Y-121558674D01*
X149653001Y-121641398D01*
X149653001Y-121793000D01*
X115847000Y-121793000D01*
X115847000Y-121784359D01*
X115970674Y-121701723D01*
X116113723Y-121558674D01*
X116226115Y-121390467D01*
X116303533Y-121203565D01*
X116343000Y-121005151D01*
X116343000Y-120802849D01*
X116303533Y-120604435D01*
X116226115Y-120417533D01*
X116193000Y-120367973D01*
X116193000Y-115359079D01*
X116197243Y-115316000D01*
X116180310Y-115144077D01*
X116130162Y-114978763D01*
X116130161Y-114978762D01*
X116048727Y-114826408D01*
X115939133Y-114692867D01*
X115905674Y-114665408D01*
X113753700Y-112513434D01*
X113813119Y-112549070D01*
X114077960Y-112643909D01*
X114300000Y-112522624D01*
X114300000Y-111379000D01*
X114554000Y-111379000D01*
X114554000Y-112522624D01*
X114776040Y-112643909D01*
X115040881Y-112549070D01*
X115282131Y-112404385D01*
X115490519Y-112215414D01*
X115658037Y-111989420D01*
X115778246Y-111735087D01*
X115818904Y-111601039D01*
X115696915Y-111379000D01*
X114554000Y-111379000D01*
X114300000Y-111379000D01*
X114280000Y-111379000D01*
X114280000Y-111125000D01*
X114300000Y-111125000D01*
X114300000Y-109981376D01*
X114554000Y-109981376D01*
X114554000Y-111125000D01*
X115696915Y-111125000D01*
X115818904Y-110902961D01*
X115778246Y-110768913D01*
X115658037Y-110514580D01*
X115490519Y-110288586D01*
X115282131Y-110099615D01*
X115040881Y-109954930D01*
X114776040Y-109860091D01*
X114554000Y-109981376D01*
X114300000Y-109981376D01*
X114077960Y-109860091D01*
X113813119Y-109954930D01*
X113571869Y-110099615D01*
X113363481Y-110288586D01*
X113195963Y-110514580D01*
X113145000Y-110622405D01*
X113145000Y-108452595D01*
X113195963Y-108560420D01*
X113363481Y-108786414D01*
X113571869Y-108975385D01*
X113813119Y-109120070D01*
X114077960Y-109214909D01*
X114300000Y-109093624D01*
X114300000Y-107950000D01*
X114554000Y-107950000D01*
X114554000Y-109093624D01*
X114776040Y-109214909D01*
X115040881Y-109120070D01*
X115282131Y-108975385D01*
X115490519Y-108786414D01*
X115658037Y-108560420D01*
X115778246Y-108306087D01*
X115818904Y-108172039D01*
X115696915Y-107950000D01*
X114554000Y-107950000D01*
X114300000Y-107950000D01*
X114280000Y-107950000D01*
X114280000Y-107696000D01*
X114300000Y-107696000D01*
X114300000Y-107676000D01*
X114554000Y-107676000D01*
X114554000Y-107696000D01*
X115696915Y-107696000D01*
X115818904Y-107473961D01*
X115778246Y-107339913D01*
X115658037Y-107085580D01*
X115490519Y-106859586D01*
X115419297Y-106795000D01*
X123019921Y-106795000D01*
X123063000Y-106799243D01*
X123106079Y-106795000D01*
X123234922Y-106782310D01*
X123400237Y-106732162D01*
X123552592Y-106650727D01*
X123686133Y-106541133D01*
X123713597Y-106507668D01*
X124460000Y-105761265D01*
X127380735Y-108682000D01*
X127367453Y-108682000D01*
X127328928Y-108689663D01*
X126761597Y-108122332D01*
X126734133Y-108088867D01*
X126600592Y-107979273D01*
X126448237Y-107897838D01*
X126282922Y-107847690D01*
X126154079Y-107835000D01*
X126111000Y-107830757D01*
X126067921Y-107835000D01*
X118351247Y-107835000D01*
X118329424Y-107802340D01*
X118130660Y-107603576D01*
X117896938Y-107447409D01*
X117637241Y-107339838D01*
X117361547Y-107285000D01*
X117080453Y-107285000D01*
X116804759Y-107339838D01*
X116545062Y-107447409D01*
X116311340Y-107603576D01*
X116112576Y-107802340D01*
X115956409Y-108036062D01*
X115848838Y-108295759D01*
X115794000Y-108571453D01*
X115794000Y-108852547D01*
X115848838Y-109128241D01*
X115956409Y-109387938D01*
X116112576Y-109621660D01*
X116311340Y-109820424D01*
X116545062Y-109976591D01*
X116804759Y-110084162D01*
X117080453Y-110139000D01*
X117361547Y-110139000D01*
X117637241Y-110084162D01*
X117896938Y-109976591D01*
X118130660Y-109820424D01*
X118329424Y-109621660D01*
X118351247Y-109589000D01*
X125747735Y-109589000D01*
X126088663Y-109929928D01*
X126081000Y-109968453D01*
X126081000Y-110249547D01*
X126135838Y-110525241D01*
X126243409Y-110784938D01*
X126399576Y-111018660D01*
X126598340Y-111217424D01*
X126832062Y-111373591D01*
X127091759Y-111481162D01*
X127367453Y-111536000D01*
X127648547Y-111536000D01*
X127924241Y-111481162D01*
X128183938Y-111373591D01*
X128417660Y-111217424D01*
X128616424Y-111018660D01*
X128772591Y-110784938D01*
X128880162Y-110525241D01*
X128935000Y-110249547D01*
X128935000Y-110236265D01*
X129397403Y-110698668D01*
X129424867Y-110732133D01*
X129558408Y-110841727D01*
X129710763Y-110923162D01*
X129876078Y-110973310D01*
X130004921Y-110986000D01*
X130004922Y-110986000D01*
X130047999Y-110990243D01*
X130091076Y-110986000D01*
X136537753Y-110986000D01*
X136559576Y-111018660D01*
X136758340Y-111217424D01*
X136992062Y-111373591D01*
X137251759Y-111481162D01*
X137527453Y-111536000D01*
X137808547Y-111536000D01*
X138084241Y-111481162D01*
X138343938Y-111373591D01*
X138577660Y-111217424D01*
X138776424Y-111018660D01*
X138932591Y-110784938D01*
X139040162Y-110525241D01*
X139095000Y-110249547D01*
X139095000Y-109968453D01*
X139040162Y-109692759D01*
X138932591Y-109433062D01*
X138776424Y-109199340D01*
X138577660Y-109000576D01*
X138443236Y-108910757D01*
X138545133Y-108827133D01*
X138572597Y-108793668D01*
X141305669Y-106060596D01*
X141339133Y-106033133D01*
X141448727Y-105899592D01*
X141530162Y-105747237D01*
X141546524Y-105693300D01*
X141580310Y-105581923D01*
X141597243Y-105410000D01*
X141593000Y-105366921D01*
X141593000Y-105270247D01*
X141625660Y-105248424D01*
X141824424Y-105049660D01*
X141846247Y-105017000D01*
X143522753Y-105017000D01*
X143544576Y-105049660D01*
G37*
G04 #@! TD.AperFunction*
D23*
X160741062Y-103275409D02*
X160507340Y-103431576D01*
X160308576Y-103630340D01*
X160152409Y-103864062D01*
X160044838Y-104123759D01*
X159990000Y-104399453D01*
X159990000Y-104680547D01*
X160044838Y-104956241D01*
X160152409Y-105215938D01*
X160308576Y-105449660D01*
X160507340Y-105648424D01*
X160540001Y-105670247D01*
X160540000Y-106692753D01*
X160507340Y-106714576D01*
X160308576Y-106913340D01*
X160152409Y-107147062D01*
X160044838Y-107406759D01*
X159990000Y-107682453D01*
X159990000Y-107963547D01*
X159997663Y-108002071D01*
X154858327Y-113141408D01*
X154824868Y-113168867D01*
X154797409Y-113202326D01*
X154797406Y-113202329D01*
X154715274Y-113302408D01*
X154633838Y-113454764D01*
X154583690Y-113620078D01*
X154566757Y-113792000D01*
X154571001Y-113835090D01*
X154571000Y-120367973D01*
X154537885Y-120417533D01*
X154460467Y-120604435D01*
X154421000Y-120802849D01*
X154421000Y-121005151D01*
X154460467Y-121203565D01*
X154537885Y-121390467D01*
X154650277Y-121558674D01*
X154733001Y-121641398D01*
X154733001Y-121793000D01*
X153947000Y-121793000D01*
X153947000Y-121109079D01*
X153951243Y-121066000D01*
X153935000Y-120901084D01*
X153935000Y-120802849D01*
X153895533Y-120604435D01*
X153818115Y-120417533D01*
X153785000Y-120367973D01*
X153785000Y-115359069D01*
X153789242Y-115315999D01*
X153785000Y-115272930D01*
X153785000Y-115272921D01*
X153772310Y-115144078D01*
X153722162Y-114978763D01*
X153640727Y-114826408D01*
X153531133Y-114692867D01*
X153497668Y-114665403D01*
X148324000Y-109491735D01*
X148324000Y-108172039D01*
X149865096Y-108172039D01*
X149905754Y-108306087D01*
X150025963Y-108560420D01*
X150193481Y-108786414D01*
X150401869Y-108975385D01*
X150643119Y-109120070D01*
X150907960Y-109214909D01*
X151130000Y-109093624D01*
X151130000Y-107950000D01*
X151384000Y-107950000D01*
X151384000Y-109093624D01*
X151606040Y-109214909D01*
X151870881Y-109120070D01*
X152112131Y-108975385D01*
X152320519Y-108786414D01*
X152488037Y-108560420D01*
X152608246Y-108306087D01*
X152648904Y-108172039D01*
X152526915Y-107950000D01*
X151384000Y-107950000D01*
X151130000Y-107950000D01*
X149987085Y-107950000D01*
X149865096Y-108172039D01*
X148324000Y-108172039D01*
X148324000Y-107473961D01*
X149865096Y-107473961D01*
X149987085Y-107696000D01*
X151130000Y-107696000D01*
X151130000Y-106552376D01*
X151384000Y-106552376D01*
X151384000Y-107696000D01*
X152526915Y-107696000D01*
X152648904Y-107473961D01*
X152608246Y-107339913D01*
X152488037Y-107085580D01*
X152320519Y-106859586D01*
X152112131Y-106670615D01*
X151870881Y-106525930D01*
X151606040Y-106431091D01*
X151384000Y-106552376D01*
X151130000Y-106552376D01*
X150907960Y-106431091D01*
X150643119Y-106525930D01*
X150401869Y-106670615D01*
X150193481Y-106859586D01*
X150025963Y-107085580D01*
X149905754Y-107339913D01*
X149865096Y-107473961D01*
X148324000Y-107473961D01*
X148324000Y-107313709D01*
X148357533Y-107336115D01*
X148544435Y-107413533D01*
X148742849Y-107453000D01*
X148945151Y-107453000D01*
X149143565Y-107413533D01*
X149330467Y-107336115D01*
X149498674Y-107223723D01*
X149641723Y-107080674D01*
X149754115Y-106912467D01*
X149831533Y-106725565D01*
X149843162Y-106667103D01*
X151093266Y-105417000D01*
X155286753Y-105417000D01*
X155308576Y-105449660D01*
X155507340Y-105648424D01*
X155741062Y-105804591D01*
X156000759Y-105912162D01*
X156276453Y-105967000D01*
X156557547Y-105967000D01*
X156833241Y-105912162D01*
X157092938Y-105804591D01*
X157326660Y-105648424D01*
X157525424Y-105449660D01*
X157681591Y-105215938D01*
X157789162Y-104956241D01*
X157844000Y-104680547D01*
X157844000Y-104399453D01*
X157789162Y-104123759D01*
X157681591Y-103864062D01*
X157525424Y-103630340D01*
X157326660Y-103431576D01*
X157092938Y-103275409D01*
X156927788Y-103207001D01*
X160906212Y-103207001D01*
X160741062Y-103275409D01*
G04 #@! TA.AperFunction,Conductor*
D24*
G36*
X160741062Y-103275409D02*
G01*
X160507340Y-103431576D01*
X160308576Y-103630340D01*
X160152409Y-103864062D01*
X160044838Y-104123759D01*
X159990000Y-104399453D01*
X159990000Y-104680547D01*
X160044838Y-104956241D01*
X160152409Y-105215938D01*
X160308576Y-105449660D01*
X160507340Y-105648424D01*
X160540001Y-105670247D01*
X160540000Y-106692753D01*
X160507340Y-106714576D01*
X160308576Y-106913340D01*
X160152409Y-107147062D01*
X160044838Y-107406759D01*
X159990000Y-107682453D01*
X159990000Y-107963547D01*
X159997663Y-108002071D01*
X154858327Y-113141408D01*
X154824868Y-113168867D01*
X154797409Y-113202326D01*
X154797406Y-113202329D01*
X154715274Y-113302408D01*
X154633838Y-113454764D01*
X154583690Y-113620078D01*
X154566757Y-113792000D01*
X154571001Y-113835090D01*
X154571000Y-120367973D01*
X154537885Y-120417533D01*
X154460467Y-120604435D01*
X154421000Y-120802849D01*
X154421000Y-121005151D01*
X154460467Y-121203565D01*
X154537885Y-121390467D01*
X154650277Y-121558674D01*
X154733001Y-121641398D01*
X154733001Y-121793000D01*
X153947000Y-121793000D01*
X153947000Y-121109079D01*
X153951243Y-121066000D01*
X153935000Y-120901084D01*
X153935000Y-120802849D01*
X153895533Y-120604435D01*
X153818115Y-120417533D01*
X153785000Y-120367973D01*
X153785000Y-115359069D01*
X153789242Y-115315999D01*
X153785000Y-115272930D01*
X153785000Y-115272921D01*
X153772310Y-115144078D01*
X153722162Y-114978763D01*
X153640727Y-114826408D01*
X153531133Y-114692867D01*
X153497668Y-114665403D01*
X148324000Y-109491735D01*
X148324000Y-108172039D01*
X149865096Y-108172039D01*
X149905754Y-108306087D01*
X150025963Y-108560420D01*
X150193481Y-108786414D01*
X150401869Y-108975385D01*
X150643119Y-109120070D01*
X150907960Y-109214909D01*
X151130000Y-109093624D01*
X151130000Y-107950000D01*
X151384000Y-107950000D01*
X151384000Y-109093624D01*
X151606040Y-109214909D01*
X151870881Y-109120070D01*
X152112131Y-108975385D01*
X152320519Y-108786414D01*
X152488037Y-108560420D01*
X152608246Y-108306087D01*
X152648904Y-108172039D01*
X152526915Y-107950000D01*
X151384000Y-107950000D01*
X151130000Y-107950000D01*
X149987085Y-107950000D01*
X149865096Y-108172039D01*
X148324000Y-108172039D01*
X148324000Y-107473961D01*
X149865096Y-107473961D01*
X149987085Y-107696000D01*
X151130000Y-107696000D01*
X151130000Y-106552376D01*
X151384000Y-106552376D01*
X151384000Y-107696000D01*
X152526915Y-107696000D01*
X152648904Y-107473961D01*
X152608246Y-107339913D01*
X152488037Y-107085580D01*
X152320519Y-106859586D01*
X152112131Y-106670615D01*
X151870881Y-106525930D01*
X151606040Y-106431091D01*
X151384000Y-106552376D01*
X151130000Y-106552376D01*
X150907960Y-106431091D01*
X150643119Y-106525930D01*
X150401869Y-106670615D01*
X150193481Y-106859586D01*
X150025963Y-107085580D01*
X149905754Y-107339913D01*
X149865096Y-107473961D01*
X148324000Y-107473961D01*
X148324000Y-107313709D01*
X148357533Y-107336115D01*
X148544435Y-107413533D01*
X148742849Y-107453000D01*
X148945151Y-107453000D01*
X149143565Y-107413533D01*
X149330467Y-107336115D01*
X149498674Y-107223723D01*
X149641723Y-107080674D01*
X149754115Y-106912467D01*
X149831533Y-106725565D01*
X149843162Y-106667103D01*
X151093266Y-105417000D01*
X155286753Y-105417000D01*
X155308576Y-105449660D01*
X155507340Y-105648424D01*
X155741062Y-105804591D01*
X156000759Y-105912162D01*
X156276453Y-105967000D01*
X156557547Y-105967000D01*
X156833241Y-105912162D01*
X157092938Y-105804591D01*
X157326660Y-105648424D01*
X157525424Y-105449660D01*
X157681591Y-105215938D01*
X157789162Y-104956241D01*
X157844000Y-104680547D01*
X157844000Y-104399453D01*
X157789162Y-104123759D01*
X157681591Y-103864062D01*
X157525424Y-103630340D01*
X157326660Y-103431576D01*
X157092938Y-103275409D01*
X156927788Y-103207001D01*
X160906212Y-103207001D01*
X160741062Y-103275409D01*
G37*
G04 #@! TD.AperFunction*
D23*
X115790967Y-100292000D02*
X115790967Y-101892000D01*
X115803073Y-102014913D01*
X115838925Y-102133103D01*
X115897147Y-102242028D01*
X115975499Y-102337501D01*
X116070972Y-102415853D01*
X116179897Y-102474075D01*
X116298087Y-102509927D01*
X116421000Y-102522033D01*
X117852701Y-102522033D01*
X116584735Y-103790000D01*
X110350247Y-103790000D01*
X110328424Y-103757340D01*
X110129660Y-103558576D01*
X109895938Y-103402409D01*
X109636241Y-103294838D01*
X109360547Y-103240000D01*
X109079453Y-103240000D01*
X108803759Y-103294838D01*
X108544062Y-103402409D01*
X108310340Y-103558576D01*
X108111576Y-103757340D01*
X107955409Y-103991062D01*
X107847838Y-104250759D01*
X107793000Y-104526453D01*
X107793000Y-104807547D01*
X107839436Y-105041000D01*
X106515780Y-105041000D01*
X106400151Y-105018000D01*
X106197849Y-105018000D01*
X105999435Y-105057467D01*
X105812533Y-105134885D01*
X105644326Y-105247277D01*
X105501277Y-105390326D01*
X105388885Y-105558533D01*
X105311467Y-105745435D01*
X105272000Y-105943849D01*
X105272000Y-106146151D01*
X105311467Y-106344565D01*
X105388885Y-106531467D01*
X105501277Y-106699674D01*
X105644326Y-106842723D01*
X105812533Y-106955115D01*
X105999435Y-107032533D01*
X106197849Y-107072000D01*
X106400151Y-107072000D01*
X106598565Y-107032533D01*
X106785467Y-106955115D01*
X106953674Y-106842723D01*
X107001397Y-106795000D01*
X111273791Y-106795000D01*
X111241000Y-106959849D01*
X111241000Y-107162151D01*
X111280467Y-107360565D01*
X111357885Y-107547467D01*
X111391001Y-107597029D01*
X111391000Y-112224920D01*
X111386757Y-112268000D01*
X111403690Y-112439922D01*
X111453838Y-112605236D01*
X111535273Y-112757591D01*
X111644867Y-112891133D01*
X111678332Y-112918597D01*
X114439001Y-115679267D01*
X114439000Y-120367973D01*
X114405885Y-120417533D01*
X114328467Y-120604435D01*
X114316691Y-120663637D01*
X114237274Y-120760408D01*
X114155838Y-120912764D01*
X114105690Y-121078078D01*
X114088757Y-121250000D01*
X114093001Y-121293089D01*
X114093001Y-121793000D01*
X113307000Y-121793000D01*
X113307000Y-121784359D01*
X113430674Y-121701723D01*
X113573723Y-121558674D01*
X113686115Y-121390467D01*
X113763533Y-121203565D01*
X113803000Y-121005151D01*
X113803000Y-120802849D01*
X113763533Y-120604435D01*
X113686115Y-120417533D01*
X113653000Y-120367973D01*
X113653000Y-115994069D01*
X113657242Y-115950999D01*
X113653000Y-115907930D01*
X113653000Y-115907921D01*
X113640310Y-115779078D01*
X113590162Y-115613763D01*
X113508727Y-115461408D01*
X113399133Y-115327867D01*
X113365668Y-115300403D01*
X110219162Y-112153897D01*
X110207533Y-112095435D01*
X110130115Y-111908533D01*
X110017723Y-111740326D01*
X109874674Y-111597277D01*
X109706467Y-111484885D01*
X109519565Y-111407467D01*
X109321151Y-111368000D01*
X109118849Y-111368000D01*
X108920435Y-111407467D01*
X108733533Y-111484885D01*
X108700000Y-111507291D01*
X108700000Y-111422069D01*
X108704242Y-111378999D01*
X108700000Y-111335930D01*
X108700000Y-111335921D01*
X108687310Y-111207078D01*
X108637162Y-111041763D01*
X108555727Y-110889408D01*
X108446133Y-110755867D01*
X108412669Y-110728404D01*
X105686337Y-108002072D01*
X105694000Y-107963547D01*
X105694000Y-107682453D01*
X105639162Y-107406759D01*
X105531591Y-107147062D01*
X105375424Y-106913340D01*
X105176660Y-106714576D01*
X105144000Y-106692753D01*
X105144000Y-105761084D01*
X105328424Y-105576660D01*
X105484591Y-105342938D01*
X105592162Y-105083241D01*
X105647000Y-104807547D01*
X105647000Y-104526453D01*
X105592162Y-104250759D01*
X105484591Y-103991062D01*
X105328424Y-103757340D01*
X105129660Y-103558576D01*
X104895938Y-103402409D01*
X104636241Y-103294838D01*
X104360547Y-103240000D01*
X104209358Y-103240000D01*
X104238533Y-103169565D01*
X104250162Y-103111103D01*
X107170265Y-100191000D01*
X115800915Y-100191000D01*
X115790967Y-100292000D01*
G04 #@! TA.AperFunction,Conductor*
D24*
G36*
X115790967Y-100292000D02*
G01*
X115790967Y-101892000D01*
X115803073Y-102014913D01*
X115838925Y-102133103D01*
X115897147Y-102242028D01*
X115975499Y-102337501D01*
X116070972Y-102415853D01*
X116179897Y-102474075D01*
X116298087Y-102509927D01*
X116421000Y-102522033D01*
X117852701Y-102522033D01*
X116584735Y-103790000D01*
X110350247Y-103790000D01*
X110328424Y-103757340D01*
X110129660Y-103558576D01*
X109895938Y-103402409D01*
X109636241Y-103294838D01*
X109360547Y-103240000D01*
X109079453Y-103240000D01*
X108803759Y-103294838D01*
X108544062Y-103402409D01*
X108310340Y-103558576D01*
X108111576Y-103757340D01*
X107955409Y-103991062D01*
X107847838Y-104250759D01*
X107793000Y-104526453D01*
X107793000Y-104807547D01*
X107839436Y-105041000D01*
X106515780Y-105041000D01*
X106400151Y-105018000D01*
X106197849Y-105018000D01*
X105999435Y-105057467D01*
X105812533Y-105134885D01*
X105644326Y-105247277D01*
X105501277Y-105390326D01*
X105388885Y-105558533D01*
X105311467Y-105745435D01*
X105272000Y-105943849D01*
X105272000Y-106146151D01*
X105311467Y-106344565D01*
X105388885Y-106531467D01*
X105501277Y-106699674D01*
X105644326Y-106842723D01*
X105812533Y-106955115D01*
X105999435Y-107032533D01*
X106197849Y-107072000D01*
X106400151Y-107072000D01*
X106598565Y-107032533D01*
X106785467Y-106955115D01*
X106953674Y-106842723D01*
X107001397Y-106795000D01*
X111273791Y-106795000D01*
X111241000Y-106959849D01*
X111241000Y-107162151D01*
X111280467Y-107360565D01*
X111357885Y-107547467D01*
X111391001Y-107597029D01*
X111391000Y-112224920D01*
X111386757Y-112268000D01*
X111403690Y-112439922D01*
X111453838Y-112605236D01*
X111535273Y-112757591D01*
X111644867Y-112891133D01*
X111678332Y-112918597D01*
X114439001Y-115679267D01*
X114439000Y-120367973D01*
X114405885Y-120417533D01*
X114328467Y-120604435D01*
X114316691Y-120663637D01*
X114237274Y-120760408D01*
X114155838Y-120912764D01*
X114105690Y-121078078D01*
X114088757Y-121250000D01*
X114093001Y-121293089D01*
X114093001Y-121793000D01*
X113307000Y-121793000D01*
X113307000Y-121784359D01*
X113430674Y-121701723D01*
X113573723Y-121558674D01*
X113686115Y-121390467D01*
X113763533Y-121203565D01*
X113803000Y-121005151D01*
X113803000Y-120802849D01*
X113763533Y-120604435D01*
X113686115Y-120417533D01*
X113653000Y-120367973D01*
X113653000Y-115994069D01*
X113657242Y-115950999D01*
X113653000Y-115907930D01*
X113653000Y-115907921D01*
X113640310Y-115779078D01*
X113590162Y-115613763D01*
X113508727Y-115461408D01*
X113399133Y-115327867D01*
X113365668Y-115300403D01*
X110219162Y-112153897D01*
X110207533Y-112095435D01*
X110130115Y-111908533D01*
X110017723Y-111740326D01*
X109874674Y-111597277D01*
X109706467Y-111484885D01*
X109519565Y-111407467D01*
X109321151Y-111368000D01*
X109118849Y-111368000D01*
X108920435Y-111407467D01*
X108733533Y-111484885D01*
X108700000Y-111507291D01*
X108700000Y-111422069D01*
X108704242Y-111378999D01*
X108700000Y-111335930D01*
X108700000Y-111335921D01*
X108687310Y-111207078D01*
X108637162Y-111041763D01*
X108555727Y-110889408D01*
X108446133Y-110755867D01*
X108412669Y-110728404D01*
X105686337Y-108002072D01*
X105694000Y-107963547D01*
X105694000Y-107682453D01*
X105639162Y-107406759D01*
X105531591Y-107147062D01*
X105375424Y-106913340D01*
X105176660Y-106714576D01*
X105144000Y-106692753D01*
X105144000Y-105761084D01*
X105328424Y-105576660D01*
X105484591Y-105342938D01*
X105592162Y-105083241D01*
X105647000Y-104807547D01*
X105647000Y-104526453D01*
X105592162Y-104250759D01*
X105484591Y-103991062D01*
X105328424Y-103757340D01*
X105129660Y-103558576D01*
X104895938Y-103402409D01*
X104636241Y-103294838D01*
X104360547Y-103240000D01*
X104209358Y-103240000D01*
X104238533Y-103169565D01*
X104250162Y-103111103D01*
X107170265Y-100191000D01*
X115800915Y-100191000D01*
X115790967Y-100292000D01*
G37*
G04 #@! TD.AperFunction*
D23*
X101380576Y-88539660D02*
X101579340Y-88738424D01*
X101813062Y-88894591D01*
X102072759Y-89002162D01*
X102348453Y-89057000D01*
X102629547Y-89057000D01*
X102765794Y-89029899D01*
X102754867Y-89038867D01*
X102727403Y-89072332D01*
X98030326Y-93769409D01*
X97996867Y-93796868D01*
X97969408Y-93830327D01*
X97969405Y-93830330D01*
X97887273Y-93930409D01*
X97805837Y-94082765D01*
X97755689Y-94248079D01*
X97738756Y-94420001D01*
X97743000Y-94463091D01*
X97742999Y-102605000D01*
X97561849Y-102605000D01*
X97363435Y-102644467D01*
X97176533Y-102721885D01*
X97008326Y-102834277D01*
X96865277Y-102977326D01*
X96752885Y-103145533D01*
X96675467Y-103332435D01*
X96636000Y-103530849D01*
X96636000Y-103733151D01*
X96675467Y-103931565D01*
X96752885Y-104118467D01*
X96786001Y-104168029D01*
X96786000Y-108989920D01*
X96781757Y-109033000D01*
X96798690Y-109204922D01*
X96816891Y-109264921D01*
X96848838Y-109370236D01*
X96930273Y-109522591D01*
X97039867Y-109656133D01*
X97073332Y-109683597D01*
X98450663Y-111060928D01*
X98443000Y-111099453D01*
X98443000Y-111380547D01*
X98497838Y-111656241D01*
X98605409Y-111915938D01*
X98761576Y-112149660D01*
X98960340Y-112348424D01*
X99194062Y-112504591D01*
X99453759Y-112612162D01*
X99729453Y-112667000D01*
X100010547Y-112667000D01*
X100286241Y-112612162D01*
X100545938Y-112504591D01*
X100779660Y-112348424D01*
X100978424Y-112149660D01*
X101134591Y-111915938D01*
X101242162Y-111656241D01*
X101297000Y-111380547D01*
X101297000Y-111367265D01*
X103549403Y-113619668D01*
X103576867Y-113653133D01*
X103605949Y-113677000D01*
X95927266Y-113677000D01*
X93669337Y-111419072D01*
X93677000Y-111380547D01*
X93677000Y-111099453D01*
X93622162Y-110823759D01*
X93514591Y-110564062D01*
X93358424Y-110330340D01*
X93159660Y-110131576D01*
X92925938Y-109975409D01*
X92912880Y-109970000D01*
X92925938Y-109964591D01*
X93159660Y-109808424D01*
X93358424Y-109609660D01*
X93514591Y-109375938D01*
X93622162Y-109116241D01*
X93677000Y-108840547D01*
X93677000Y-108559453D01*
X93622162Y-108283759D01*
X93514591Y-108024062D01*
X93358424Y-107790340D01*
X93159660Y-107591576D01*
X92925938Y-107435409D01*
X92912880Y-107430000D01*
X92925938Y-107424591D01*
X93159660Y-107268424D01*
X93358424Y-107069660D01*
X93514591Y-106835938D01*
X93622162Y-106576241D01*
X93677000Y-106300547D01*
X93677000Y-106019453D01*
X93622162Y-105743759D01*
X93514591Y-105484062D01*
X93358424Y-105250340D01*
X93159660Y-105051576D01*
X92925938Y-104895409D01*
X92912880Y-104890000D01*
X92925938Y-104884591D01*
X93159660Y-104728424D01*
X93358424Y-104529660D01*
X93514591Y-104295938D01*
X93622162Y-104036241D01*
X93677000Y-103760547D01*
X93677000Y-103479453D01*
X93622162Y-103203759D01*
X93514591Y-102944062D01*
X93358424Y-102710340D01*
X93159660Y-102511576D01*
X92925938Y-102355409D01*
X92912880Y-102350000D01*
X92925938Y-102344591D01*
X93159660Y-102188424D01*
X93358424Y-101989660D01*
X93514591Y-101755938D01*
X93622162Y-101496241D01*
X93677000Y-101220547D01*
X93677000Y-100939453D01*
X93669337Y-100900928D01*
X95077675Y-99492591D01*
X95111133Y-99465133D01*
X95140678Y-99429133D01*
X95220726Y-99331593D01*
X95220728Y-99331591D01*
X95302162Y-99179237D01*
X95344738Y-99038885D01*
X95352310Y-99013923D01*
X95369243Y-98842000D01*
X95365000Y-98798921D01*
X95365000Y-91676265D01*
X97092232Y-89949033D01*
X98082000Y-89949033D01*
X98204913Y-89936927D01*
X98323103Y-89901075D01*
X98432028Y-89842853D01*
X98527501Y-89764501D01*
X98605853Y-89669028D01*
X98664075Y-89560103D01*
X98699927Y-89441913D01*
X98712033Y-89319000D01*
X98712033Y-88507000D01*
X101358753Y-88507000D01*
X101380576Y-88539660D01*
G04 #@! TA.AperFunction,Conductor*
D24*
G36*
X101380576Y-88539660D02*
G01*
X101579340Y-88738424D01*
X101813062Y-88894591D01*
X102072759Y-89002162D01*
X102348453Y-89057000D01*
X102629547Y-89057000D01*
X102765794Y-89029899D01*
X102754867Y-89038867D01*
X102727403Y-89072332D01*
X98030326Y-93769409D01*
X97996867Y-93796868D01*
X97969408Y-93830327D01*
X97969405Y-93830330D01*
X97887273Y-93930409D01*
X97805837Y-94082765D01*
X97755689Y-94248079D01*
X97738756Y-94420001D01*
X97743000Y-94463091D01*
X97742999Y-102605000D01*
X97561849Y-102605000D01*
X97363435Y-102644467D01*
X97176533Y-102721885D01*
X97008326Y-102834277D01*
X96865277Y-102977326D01*
X96752885Y-103145533D01*
X96675467Y-103332435D01*
X96636000Y-103530849D01*
X96636000Y-103733151D01*
X96675467Y-103931565D01*
X96752885Y-104118467D01*
X96786001Y-104168029D01*
X96786000Y-108989920D01*
X96781757Y-109033000D01*
X96798690Y-109204922D01*
X96816891Y-109264921D01*
X96848838Y-109370236D01*
X96930273Y-109522591D01*
X97039867Y-109656133D01*
X97073332Y-109683597D01*
X98450663Y-111060928D01*
X98443000Y-111099453D01*
X98443000Y-111380547D01*
X98497838Y-111656241D01*
X98605409Y-111915938D01*
X98761576Y-112149660D01*
X98960340Y-112348424D01*
X99194062Y-112504591D01*
X99453759Y-112612162D01*
X99729453Y-112667000D01*
X100010547Y-112667000D01*
X100286241Y-112612162D01*
X100545938Y-112504591D01*
X100779660Y-112348424D01*
X100978424Y-112149660D01*
X101134591Y-111915938D01*
X101242162Y-111656241D01*
X101297000Y-111380547D01*
X101297000Y-111367265D01*
X103549403Y-113619668D01*
X103576867Y-113653133D01*
X103605949Y-113677000D01*
X95927266Y-113677000D01*
X93669337Y-111419072D01*
X93677000Y-111380547D01*
X93677000Y-111099453D01*
X93622162Y-110823759D01*
X93514591Y-110564062D01*
X93358424Y-110330340D01*
X93159660Y-110131576D01*
X92925938Y-109975409D01*
X92912880Y-109970000D01*
X92925938Y-109964591D01*
X93159660Y-109808424D01*
X93358424Y-109609660D01*
X93514591Y-109375938D01*
X93622162Y-109116241D01*
X93677000Y-108840547D01*
X93677000Y-108559453D01*
X93622162Y-108283759D01*
X93514591Y-108024062D01*
X93358424Y-107790340D01*
X93159660Y-107591576D01*
X92925938Y-107435409D01*
X92912880Y-107430000D01*
X92925938Y-107424591D01*
X93159660Y-107268424D01*
X93358424Y-107069660D01*
X93514591Y-106835938D01*
X93622162Y-106576241D01*
X93677000Y-106300547D01*
X93677000Y-106019453D01*
X93622162Y-105743759D01*
X93514591Y-105484062D01*
X93358424Y-105250340D01*
X93159660Y-105051576D01*
X92925938Y-104895409D01*
X92912880Y-104890000D01*
X92925938Y-104884591D01*
X93159660Y-104728424D01*
X93358424Y-104529660D01*
X93514591Y-104295938D01*
X93622162Y-104036241D01*
X93677000Y-103760547D01*
X93677000Y-103479453D01*
X93622162Y-103203759D01*
X93514591Y-102944062D01*
X93358424Y-102710340D01*
X93159660Y-102511576D01*
X92925938Y-102355409D01*
X92912880Y-102350000D01*
X92925938Y-102344591D01*
X93159660Y-102188424D01*
X93358424Y-101989660D01*
X93514591Y-101755938D01*
X93622162Y-101496241D01*
X93677000Y-101220547D01*
X93677000Y-100939453D01*
X93669337Y-100900928D01*
X95077675Y-99492591D01*
X95111133Y-99465133D01*
X95140678Y-99429133D01*
X95220726Y-99331593D01*
X95220728Y-99331591D01*
X95302162Y-99179237D01*
X95344738Y-99038885D01*
X95352310Y-99013923D01*
X95369243Y-98842000D01*
X95365000Y-98798921D01*
X95365000Y-91676265D01*
X97092232Y-89949033D01*
X98082000Y-89949033D01*
X98204913Y-89936927D01*
X98323103Y-89901075D01*
X98432028Y-89842853D01*
X98527501Y-89764501D01*
X98605853Y-89669028D01*
X98664075Y-89560103D01*
X98699927Y-89441913D01*
X98712033Y-89319000D01*
X98712033Y-88507000D01*
X101358753Y-88507000D01*
X101380576Y-88539660D01*
G37*
G04 #@! TD.AperFunction*
D23*
X129626647Y-76732125D02*
X129520932Y-76788632D01*
X129459045Y-77024440D01*
X130215000Y-77780395D01*
X130970955Y-77024440D01*
X130909068Y-76788632D01*
X130710625Y-76696000D01*
X134826684Y-76696000D01*
X134656956Y-76766304D01*
X134436337Y-76913716D01*
X134248716Y-77101337D01*
X134101304Y-77321956D01*
X133999764Y-77567094D01*
X133948000Y-77827332D01*
X133948000Y-78092668D01*
X133999764Y-78352906D01*
X134101304Y-78598044D01*
X134248716Y-78818663D01*
X134418001Y-78987948D01*
X134418000Y-84578920D01*
X134413757Y-84622000D01*
X134430690Y-84793922D01*
X134471543Y-84928594D01*
X134480838Y-84959236D01*
X134562273Y-85111591D01*
X134671867Y-85245133D01*
X134705332Y-85272597D01*
X143233663Y-93800928D01*
X143226000Y-93839453D01*
X143226000Y-94120547D01*
X143233663Y-94159072D01*
X139463735Y-97929000D01*
X137655247Y-97929000D01*
X137633424Y-97896340D01*
X137434660Y-97697576D01*
X137200938Y-97541409D01*
X136941241Y-97433838D01*
X136665547Y-97379000D01*
X136384453Y-97379000D01*
X136108759Y-97433838D01*
X135849062Y-97541409D01*
X135615340Y-97697576D01*
X135416576Y-97896340D01*
X135260409Y-98130062D01*
X135152838Y-98389759D01*
X135098000Y-98665453D01*
X135098000Y-98946547D01*
X135152838Y-99222241D01*
X135260409Y-99481938D01*
X135416576Y-99715660D01*
X135615340Y-99914424D01*
X135849062Y-100070591D01*
X135862120Y-100076000D01*
X135849062Y-100081409D01*
X135615340Y-100237576D01*
X135416576Y-100436340D01*
X135260409Y-100670062D01*
X135152838Y-100929759D01*
X135098000Y-101205453D01*
X135098000Y-101486547D01*
X135152838Y-101762241D01*
X135260409Y-102021938D01*
X135416576Y-102255660D01*
X135615340Y-102454424D01*
X135648001Y-102476247D01*
X135648000Y-102755753D01*
X135615340Y-102777576D01*
X135416576Y-102976340D01*
X135260409Y-103210062D01*
X135152838Y-103469759D01*
X135098000Y-103745453D01*
X135098000Y-104026547D01*
X135152838Y-104302241D01*
X135260409Y-104561938D01*
X135416576Y-104795660D01*
X135615340Y-104994424D01*
X135849062Y-105150591D01*
X135862120Y-105156000D01*
X135849062Y-105161409D01*
X135615340Y-105317576D01*
X135416576Y-105516340D01*
X135260409Y-105750062D01*
X135152838Y-106009759D01*
X135098000Y-106285453D01*
X135098000Y-106566547D01*
X135152838Y-106842241D01*
X135260409Y-107101938D01*
X135410790Y-107327000D01*
X133586265Y-107327000D01*
X130324337Y-104065072D01*
X130332000Y-104026547D01*
X130332000Y-103745453D01*
X130277162Y-103469759D01*
X130169591Y-103210062D01*
X130013424Y-102976340D01*
X129814660Y-102777576D01*
X129580938Y-102621409D01*
X129567880Y-102616000D01*
X129580938Y-102610591D01*
X129814660Y-102454424D01*
X130013424Y-102255660D01*
X130169591Y-102021938D01*
X130277162Y-101762241D01*
X130332000Y-101486547D01*
X130332000Y-101205453D01*
X130277162Y-100929759D01*
X130169591Y-100670062D01*
X130013424Y-100436340D01*
X129814660Y-100237576D01*
X129798560Y-100226818D01*
X129827913Y-100223927D01*
X129946103Y-100188075D01*
X130055028Y-100129853D01*
X130150501Y-100051501D01*
X130228853Y-99956028D01*
X130287075Y-99847103D01*
X130322927Y-99728913D01*
X130335033Y-99606000D01*
X130335033Y-98006000D01*
X130322927Y-97883087D01*
X130287075Y-97764897D01*
X130228853Y-97655972D01*
X130150501Y-97560499D01*
X130055028Y-97482147D01*
X129946103Y-97423925D01*
X129827913Y-97388073D01*
X129705000Y-97375967D01*
X128105000Y-97375967D01*
X127982087Y-97388073D01*
X127863897Y-97423925D01*
X127754972Y-97482147D01*
X127659499Y-97560499D01*
X127581147Y-97655972D01*
X127522925Y-97764897D01*
X127487073Y-97883087D01*
X127474967Y-98006000D01*
X127474967Y-98673497D01*
X127362592Y-98581273D01*
X127210237Y-98499838D01*
X127044922Y-98449690D01*
X126916079Y-98437000D01*
X126873000Y-98432757D01*
X126829921Y-98437000D01*
X116487152Y-98437000D01*
X116603210Y-98263306D01*
X116718319Y-97985410D01*
X116777000Y-97690396D01*
X116777000Y-97389604D01*
X116718319Y-97094590D01*
X116603210Y-96816694D01*
X116436099Y-96566594D01*
X116360779Y-96491274D01*
X116391103Y-96482075D01*
X116500028Y-96423853D01*
X116595501Y-96345501D01*
X116673853Y-96250028D01*
X116732075Y-96141103D01*
X116767927Y-96022913D01*
X116780033Y-95900000D01*
X116780033Y-94984000D01*
X119519753Y-94984000D01*
X119541576Y-95016660D01*
X119740340Y-95215424D01*
X119974062Y-95371591D01*
X120233759Y-95479162D01*
X120509453Y-95534000D01*
X120790547Y-95534000D01*
X121066241Y-95479162D01*
X121325938Y-95371591D01*
X121559660Y-95215424D01*
X121758424Y-95016660D01*
X121914591Y-94782938D01*
X122022162Y-94523241D01*
X122077000Y-94247547D01*
X122077000Y-93966453D01*
X123287000Y-93966453D01*
X123287000Y-94247547D01*
X123341838Y-94523241D01*
X123449409Y-94782938D01*
X123605576Y-95016660D01*
X123804340Y-95215424D01*
X124038062Y-95371591D01*
X124297759Y-95479162D01*
X124573453Y-95534000D01*
X124854547Y-95534000D01*
X125130241Y-95479162D01*
X125389938Y-95371591D01*
X125623660Y-95215424D01*
X125822424Y-95016660D01*
X125844247Y-94984000D01*
X129158416Y-94984000D01*
X129281840Y-95107424D01*
X129515562Y-95263591D01*
X129775259Y-95371162D01*
X130050953Y-95426000D01*
X130332047Y-95426000D01*
X130607741Y-95371162D01*
X130867438Y-95263591D01*
X131101160Y-95107424D01*
X131216882Y-94991702D01*
X134378403Y-94991702D01*
X134449986Y-95235671D01*
X134705496Y-95356571D01*
X134979684Y-95425300D01*
X135262012Y-95439217D01*
X135541630Y-95397787D01*
X135807792Y-95302603D01*
X135933014Y-95235671D01*
X136004597Y-94991702D01*
X135191500Y-94178605D01*
X134378403Y-94991702D01*
X131216882Y-94991702D01*
X131299924Y-94908660D01*
X131456091Y-94674938D01*
X131563662Y-94415241D01*
X131618500Y-94139547D01*
X131618500Y-94069512D01*
X133751283Y-94069512D01*
X133792713Y-94349130D01*
X133887897Y-94615292D01*
X133954829Y-94740514D01*
X134198798Y-94812097D01*
X135011895Y-93999000D01*
X135371105Y-93999000D01*
X136184202Y-94812097D01*
X136428171Y-94740514D01*
X136549071Y-94485004D01*
X136588165Y-94329040D01*
X139324091Y-94329040D01*
X139418930Y-94593881D01*
X139563615Y-94835131D01*
X139752586Y-95043519D01*
X139978580Y-95211037D01*
X140232913Y-95331246D01*
X140366961Y-95371904D01*
X140589000Y-95249915D01*
X140589000Y-94107000D01*
X140843000Y-94107000D01*
X140843000Y-95249915D01*
X141065039Y-95371904D01*
X141199087Y-95331246D01*
X141453420Y-95211037D01*
X141679414Y-95043519D01*
X141868385Y-94835131D01*
X142013070Y-94593881D01*
X142107909Y-94329040D01*
X141986624Y-94107000D01*
X140843000Y-94107000D01*
X140589000Y-94107000D01*
X139445376Y-94107000D01*
X139324091Y-94329040D01*
X136588165Y-94329040D01*
X136617800Y-94210816D01*
X136631717Y-93928488D01*
X136590287Y-93648870D01*
X136583883Y-93630960D01*
X139324091Y-93630960D01*
X139445376Y-93853000D01*
X140589000Y-93853000D01*
X140589000Y-92710085D01*
X140843000Y-92710085D01*
X140843000Y-93853000D01*
X141986624Y-93853000D01*
X142107909Y-93630960D01*
X142013070Y-93366119D01*
X141868385Y-93124869D01*
X141679414Y-92916481D01*
X141453420Y-92748963D01*
X141199087Y-92628754D01*
X141065039Y-92588096D01*
X140843000Y-92710085D01*
X140589000Y-92710085D01*
X140366961Y-92588096D01*
X140232913Y-92628754D01*
X139978580Y-92748963D01*
X139752586Y-92916481D01*
X139563615Y-93124869D01*
X139418930Y-93366119D01*
X139324091Y-93630960D01*
X136583883Y-93630960D01*
X136495103Y-93382708D01*
X136428171Y-93257486D01*
X136184202Y-93185903D01*
X135371105Y-93999000D01*
X135011895Y-93999000D01*
X134198798Y-93185903D01*
X133954829Y-93257486D01*
X133833929Y-93512996D01*
X133765200Y-93787184D01*
X133751283Y-94069512D01*
X131618500Y-94069512D01*
X131618500Y-93858453D01*
X131563662Y-93582759D01*
X131456091Y-93323062D01*
X131299924Y-93089340D01*
X131216882Y-93006298D01*
X134378403Y-93006298D01*
X135191500Y-93819395D01*
X136004597Y-93006298D01*
X135933014Y-92762329D01*
X135677504Y-92641429D01*
X135403316Y-92572700D01*
X135120988Y-92558783D01*
X134841370Y-92600213D01*
X134575208Y-92695397D01*
X134449986Y-92762329D01*
X134378403Y-93006298D01*
X131216882Y-93006298D01*
X131101160Y-92890576D01*
X130867438Y-92734409D01*
X130607741Y-92626838D01*
X130332047Y-92572000D01*
X130050953Y-92572000D01*
X129775259Y-92626838D01*
X129515562Y-92734409D01*
X129281840Y-92890576D01*
X129083076Y-93089340D01*
X128989091Y-93230000D01*
X125844247Y-93230000D01*
X125822424Y-93197340D01*
X125623660Y-92998576D01*
X125389938Y-92842409D01*
X125130241Y-92734838D01*
X124854547Y-92680000D01*
X124573453Y-92680000D01*
X124297759Y-92734838D01*
X124038062Y-92842409D01*
X123804340Y-92998576D01*
X123605576Y-93197340D01*
X123449409Y-93431062D01*
X123341838Y-93690759D01*
X123287000Y-93966453D01*
X122077000Y-93966453D01*
X122022162Y-93690759D01*
X121914591Y-93431062D01*
X121758424Y-93197340D01*
X121559660Y-92998576D01*
X121325938Y-92842409D01*
X121066241Y-92734838D01*
X120790547Y-92680000D01*
X120509453Y-92680000D01*
X120233759Y-92734838D01*
X119974062Y-92842409D01*
X119740340Y-92998576D01*
X119541576Y-93197340D01*
X119519753Y-93230000D01*
X116186079Y-93230000D01*
X116143000Y-93225757D01*
X115971077Y-93242690D01*
X115893332Y-93266274D01*
X115805763Y-93292838D01*
X115653408Y-93374273D01*
X115536804Y-93469967D01*
X114907299Y-93469967D01*
X116187266Y-92190000D01*
X120860921Y-92190000D01*
X120904000Y-92194243D01*
X120947079Y-92190000D01*
X121075922Y-92177310D01*
X121241237Y-92127162D01*
X121393592Y-92045727D01*
X121527133Y-91936133D01*
X121554597Y-91902668D01*
X124661929Y-88795337D01*
X124700453Y-88803000D01*
X124981547Y-88803000D01*
X125257241Y-88748162D01*
X125516938Y-88640591D01*
X125750660Y-88484424D01*
X125949424Y-88285660D01*
X126105591Y-88051938D01*
X126213162Y-87792241D01*
X126268000Y-87516547D01*
X126268000Y-87235453D01*
X126213162Y-86959759D01*
X126105591Y-86700062D01*
X125949424Y-86466340D01*
X125750660Y-86267576D01*
X125516938Y-86111409D01*
X125257241Y-86003838D01*
X124981547Y-85949000D01*
X124700453Y-85949000D01*
X124424759Y-86003838D01*
X124165062Y-86111409D01*
X123931340Y-86267576D01*
X123732576Y-86466340D01*
X123576409Y-86700062D01*
X123468838Y-86959759D01*
X123414000Y-87235453D01*
X123414000Y-87516547D01*
X123421663Y-87555071D01*
X120540735Y-90436000D01*
X115949709Y-90436000D01*
X115972115Y-90402467D01*
X116049533Y-90215565D01*
X116089000Y-90017151D01*
X116089000Y-89814849D01*
X116049533Y-89616435D01*
X115995342Y-89485607D01*
X116253403Y-89743668D01*
X116280867Y-89777133D01*
X116414408Y-89886727D01*
X116566763Y-89968162D01*
X116732078Y-90018310D01*
X116860921Y-90031000D01*
X116860930Y-90031000D01*
X116903999Y-90035242D01*
X116947069Y-90031000D01*
X118050923Y-90031000D01*
X118094002Y-90035243D01*
X118137081Y-90031000D01*
X118265924Y-90018310D01*
X118431239Y-89968162D01*
X118583594Y-89886727D01*
X118717135Y-89777133D01*
X118744599Y-89743668D01*
X123398675Y-85089593D01*
X123432133Y-85062135D01*
X123541727Y-84928594D01*
X123623162Y-84776239D01*
X123673310Y-84610924D01*
X123686000Y-84482081D01*
X123686000Y-84482080D01*
X123690243Y-84439003D01*
X123686000Y-84395926D01*
X123686000Y-82907332D01*
X131408000Y-82907332D01*
X131408000Y-83172668D01*
X131459764Y-83432906D01*
X131561304Y-83678044D01*
X131708716Y-83898663D01*
X131896337Y-84086284D01*
X132116956Y-84233696D01*
X132362094Y-84335236D01*
X132622332Y-84387000D01*
X132887668Y-84387000D01*
X133147906Y-84335236D01*
X133393044Y-84233696D01*
X133613663Y-84086284D01*
X133801284Y-83898663D01*
X133948696Y-83678044D01*
X134050236Y-83432906D01*
X134102000Y-83172668D01*
X134102000Y-82907332D01*
X134050236Y-82647094D01*
X133948696Y-82401956D01*
X133801284Y-82181337D01*
X133613663Y-81993716D01*
X133393044Y-81846304D01*
X133147906Y-81744764D01*
X132887668Y-81693000D01*
X132622332Y-81693000D01*
X132362094Y-81744764D01*
X132116956Y-81846304D01*
X131896337Y-81993716D01*
X131708716Y-82181337D01*
X131561304Y-82401956D01*
X131459764Y-82647094D01*
X131408000Y-82907332D01*
X123686000Y-82907332D01*
X123686000Y-78895560D01*
X129459045Y-78895560D01*
X129520932Y-79131368D01*
X129762790Y-79244266D01*
X130022027Y-79307811D01*
X130288680Y-79319561D01*
X130552501Y-79279063D01*
X130803353Y-79187875D01*
X130909068Y-79131368D01*
X130970955Y-78895560D01*
X130215000Y-78139605D01*
X129459045Y-78895560D01*
X123686000Y-78895560D01*
X123686000Y-78055954D01*
X123732576Y-78125660D01*
X123931340Y-78324424D01*
X124165062Y-78480591D01*
X124424759Y-78588162D01*
X124700453Y-78643000D01*
X124981547Y-78643000D01*
X125257241Y-78588162D01*
X125516938Y-78480591D01*
X125750660Y-78324424D01*
X125949424Y-78125660D01*
X126010882Y-78033680D01*
X128855439Y-78033680D01*
X128895937Y-78297501D01*
X128987125Y-78548353D01*
X129043632Y-78654068D01*
X129279440Y-78715955D01*
X130035395Y-77960000D01*
X130394605Y-77960000D01*
X131150560Y-78715955D01*
X131386368Y-78654068D01*
X131499266Y-78412210D01*
X131562811Y-78152973D01*
X131574561Y-77886320D01*
X131534063Y-77622499D01*
X131442875Y-77371647D01*
X131386368Y-77265932D01*
X131150560Y-77204045D01*
X130394605Y-77960000D01*
X130035395Y-77960000D01*
X129279440Y-77204045D01*
X129043632Y-77265932D01*
X128930734Y-77507790D01*
X128867189Y-77767027D01*
X128855439Y-78033680D01*
X126010882Y-78033680D01*
X126105591Y-77891938D01*
X126213162Y-77632241D01*
X126268000Y-77356547D01*
X126268000Y-77075453D01*
X126260337Y-77036928D01*
X126601265Y-76696000D01*
X129726024Y-76696000D01*
X129626647Y-76732125D01*
G04 #@! TA.AperFunction,Conductor*
D24*
G36*
X129626647Y-76732125D02*
G01*
X129520932Y-76788632D01*
X129459045Y-77024440D01*
X130215000Y-77780395D01*
X130970955Y-77024440D01*
X130909068Y-76788632D01*
X130710625Y-76696000D01*
X134826684Y-76696000D01*
X134656956Y-76766304D01*
X134436337Y-76913716D01*
X134248716Y-77101337D01*
X134101304Y-77321956D01*
X133999764Y-77567094D01*
X133948000Y-77827332D01*
X133948000Y-78092668D01*
X133999764Y-78352906D01*
X134101304Y-78598044D01*
X134248716Y-78818663D01*
X134418001Y-78987948D01*
X134418000Y-84578920D01*
X134413757Y-84622000D01*
X134430690Y-84793922D01*
X134471543Y-84928594D01*
X134480838Y-84959236D01*
X134562273Y-85111591D01*
X134671867Y-85245133D01*
X134705332Y-85272597D01*
X143233663Y-93800928D01*
X143226000Y-93839453D01*
X143226000Y-94120547D01*
X143233663Y-94159072D01*
X139463735Y-97929000D01*
X137655247Y-97929000D01*
X137633424Y-97896340D01*
X137434660Y-97697576D01*
X137200938Y-97541409D01*
X136941241Y-97433838D01*
X136665547Y-97379000D01*
X136384453Y-97379000D01*
X136108759Y-97433838D01*
X135849062Y-97541409D01*
X135615340Y-97697576D01*
X135416576Y-97896340D01*
X135260409Y-98130062D01*
X135152838Y-98389759D01*
X135098000Y-98665453D01*
X135098000Y-98946547D01*
X135152838Y-99222241D01*
X135260409Y-99481938D01*
X135416576Y-99715660D01*
X135615340Y-99914424D01*
X135849062Y-100070591D01*
X135862120Y-100076000D01*
X135849062Y-100081409D01*
X135615340Y-100237576D01*
X135416576Y-100436340D01*
X135260409Y-100670062D01*
X135152838Y-100929759D01*
X135098000Y-101205453D01*
X135098000Y-101486547D01*
X135152838Y-101762241D01*
X135260409Y-102021938D01*
X135416576Y-102255660D01*
X135615340Y-102454424D01*
X135648001Y-102476247D01*
X135648000Y-102755753D01*
X135615340Y-102777576D01*
X135416576Y-102976340D01*
X135260409Y-103210062D01*
X135152838Y-103469759D01*
X135098000Y-103745453D01*
X135098000Y-104026547D01*
X135152838Y-104302241D01*
X135260409Y-104561938D01*
X135416576Y-104795660D01*
X135615340Y-104994424D01*
X135849062Y-105150591D01*
X135862120Y-105156000D01*
X135849062Y-105161409D01*
X135615340Y-105317576D01*
X135416576Y-105516340D01*
X135260409Y-105750062D01*
X135152838Y-106009759D01*
X135098000Y-106285453D01*
X135098000Y-106566547D01*
X135152838Y-106842241D01*
X135260409Y-107101938D01*
X135410790Y-107327000D01*
X133586265Y-107327000D01*
X130324337Y-104065072D01*
X130332000Y-104026547D01*
X130332000Y-103745453D01*
X130277162Y-103469759D01*
X130169591Y-103210062D01*
X130013424Y-102976340D01*
X129814660Y-102777576D01*
X129580938Y-102621409D01*
X129567880Y-102616000D01*
X129580938Y-102610591D01*
X129814660Y-102454424D01*
X130013424Y-102255660D01*
X130169591Y-102021938D01*
X130277162Y-101762241D01*
X130332000Y-101486547D01*
X130332000Y-101205453D01*
X130277162Y-100929759D01*
X130169591Y-100670062D01*
X130013424Y-100436340D01*
X129814660Y-100237576D01*
X129798560Y-100226818D01*
X129827913Y-100223927D01*
X129946103Y-100188075D01*
X130055028Y-100129853D01*
X130150501Y-100051501D01*
X130228853Y-99956028D01*
X130287075Y-99847103D01*
X130322927Y-99728913D01*
X130335033Y-99606000D01*
X130335033Y-98006000D01*
X130322927Y-97883087D01*
X130287075Y-97764897D01*
X130228853Y-97655972D01*
X130150501Y-97560499D01*
X130055028Y-97482147D01*
X129946103Y-97423925D01*
X129827913Y-97388073D01*
X129705000Y-97375967D01*
X128105000Y-97375967D01*
X127982087Y-97388073D01*
X127863897Y-97423925D01*
X127754972Y-97482147D01*
X127659499Y-97560499D01*
X127581147Y-97655972D01*
X127522925Y-97764897D01*
X127487073Y-97883087D01*
X127474967Y-98006000D01*
X127474967Y-98673497D01*
X127362592Y-98581273D01*
X127210237Y-98499838D01*
X127044922Y-98449690D01*
X126916079Y-98437000D01*
X126873000Y-98432757D01*
X126829921Y-98437000D01*
X116487152Y-98437000D01*
X116603210Y-98263306D01*
X116718319Y-97985410D01*
X116777000Y-97690396D01*
X116777000Y-97389604D01*
X116718319Y-97094590D01*
X116603210Y-96816694D01*
X116436099Y-96566594D01*
X116360779Y-96491274D01*
X116391103Y-96482075D01*
X116500028Y-96423853D01*
X116595501Y-96345501D01*
X116673853Y-96250028D01*
X116732075Y-96141103D01*
X116767927Y-96022913D01*
X116780033Y-95900000D01*
X116780033Y-94984000D01*
X119519753Y-94984000D01*
X119541576Y-95016660D01*
X119740340Y-95215424D01*
X119974062Y-95371591D01*
X120233759Y-95479162D01*
X120509453Y-95534000D01*
X120790547Y-95534000D01*
X121066241Y-95479162D01*
X121325938Y-95371591D01*
X121559660Y-95215424D01*
X121758424Y-95016660D01*
X121914591Y-94782938D01*
X122022162Y-94523241D01*
X122077000Y-94247547D01*
X122077000Y-93966453D01*
X123287000Y-93966453D01*
X123287000Y-94247547D01*
X123341838Y-94523241D01*
X123449409Y-94782938D01*
X123605576Y-95016660D01*
X123804340Y-95215424D01*
X124038062Y-95371591D01*
X124297759Y-95479162D01*
X124573453Y-95534000D01*
X124854547Y-95534000D01*
X125130241Y-95479162D01*
X125389938Y-95371591D01*
X125623660Y-95215424D01*
X125822424Y-95016660D01*
X125844247Y-94984000D01*
X129158416Y-94984000D01*
X129281840Y-95107424D01*
X129515562Y-95263591D01*
X129775259Y-95371162D01*
X130050953Y-95426000D01*
X130332047Y-95426000D01*
X130607741Y-95371162D01*
X130867438Y-95263591D01*
X131101160Y-95107424D01*
X131216882Y-94991702D01*
X134378403Y-94991702D01*
X134449986Y-95235671D01*
X134705496Y-95356571D01*
X134979684Y-95425300D01*
X135262012Y-95439217D01*
X135541630Y-95397787D01*
X135807792Y-95302603D01*
X135933014Y-95235671D01*
X136004597Y-94991702D01*
X135191500Y-94178605D01*
X134378403Y-94991702D01*
X131216882Y-94991702D01*
X131299924Y-94908660D01*
X131456091Y-94674938D01*
X131563662Y-94415241D01*
X131618500Y-94139547D01*
X131618500Y-94069512D01*
X133751283Y-94069512D01*
X133792713Y-94349130D01*
X133887897Y-94615292D01*
X133954829Y-94740514D01*
X134198798Y-94812097D01*
X135011895Y-93999000D01*
X135371105Y-93999000D01*
X136184202Y-94812097D01*
X136428171Y-94740514D01*
X136549071Y-94485004D01*
X136588165Y-94329040D01*
X139324091Y-94329040D01*
X139418930Y-94593881D01*
X139563615Y-94835131D01*
X139752586Y-95043519D01*
X139978580Y-95211037D01*
X140232913Y-95331246D01*
X140366961Y-95371904D01*
X140589000Y-95249915D01*
X140589000Y-94107000D01*
X140843000Y-94107000D01*
X140843000Y-95249915D01*
X141065039Y-95371904D01*
X141199087Y-95331246D01*
X141453420Y-95211037D01*
X141679414Y-95043519D01*
X141868385Y-94835131D01*
X142013070Y-94593881D01*
X142107909Y-94329040D01*
X141986624Y-94107000D01*
X140843000Y-94107000D01*
X140589000Y-94107000D01*
X139445376Y-94107000D01*
X139324091Y-94329040D01*
X136588165Y-94329040D01*
X136617800Y-94210816D01*
X136631717Y-93928488D01*
X136590287Y-93648870D01*
X136583883Y-93630960D01*
X139324091Y-93630960D01*
X139445376Y-93853000D01*
X140589000Y-93853000D01*
X140589000Y-92710085D01*
X140843000Y-92710085D01*
X140843000Y-93853000D01*
X141986624Y-93853000D01*
X142107909Y-93630960D01*
X142013070Y-93366119D01*
X141868385Y-93124869D01*
X141679414Y-92916481D01*
X141453420Y-92748963D01*
X141199087Y-92628754D01*
X141065039Y-92588096D01*
X140843000Y-92710085D01*
X140589000Y-92710085D01*
X140366961Y-92588096D01*
X140232913Y-92628754D01*
X139978580Y-92748963D01*
X139752586Y-92916481D01*
X139563615Y-93124869D01*
X139418930Y-93366119D01*
X139324091Y-93630960D01*
X136583883Y-93630960D01*
X136495103Y-93382708D01*
X136428171Y-93257486D01*
X136184202Y-93185903D01*
X135371105Y-93999000D01*
X135011895Y-93999000D01*
X134198798Y-93185903D01*
X133954829Y-93257486D01*
X133833929Y-93512996D01*
X133765200Y-93787184D01*
X133751283Y-94069512D01*
X131618500Y-94069512D01*
X131618500Y-93858453D01*
X131563662Y-93582759D01*
X131456091Y-93323062D01*
X131299924Y-93089340D01*
X131216882Y-93006298D01*
X134378403Y-93006298D01*
X135191500Y-93819395D01*
X136004597Y-93006298D01*
X135933014Y-92762329D01*
X135677504Y-92641429D01*
X135403316Y-92572700D01*
X135120988Y-92558783D01*
X134841370Y-92600213D01*
X134575208Y-92695397D01*
X134449986Y-92762329D01*
X134378403Y-93006298D01*
X131216882Y-93006298D01*
X131101160Y-92890576D01*
X130867438Y-92734409D01*
X130607741Y-92626838D01*
X130332047Y-92572000D01*
X130050953Y-92572000D01*
X129775259Y-92626838D01*
X129515562Y-92734409D01*
X129281840Y-92890576D01*
X129083076Y-93089340D01*
X128989091Y-93230000D01*
X125844247Y-93230000D01*
X125822424Y-93197340D01*
X125623660Y-92998576D01*
X125389938Y-92842409D01*
X125130241Y-92734838D01*
X124854547Y-92680000D01*
X124573453Y-92680000D01*
X124297759Y-92734838D01*
X124038062Y-92842409D01*
X123804340Y-92998576D01*
X123605576Y-93197340D01*
X123449409Y-93431062D01*
X123341838Y-93690759D01*
X123287000Y-93966453D01*
X122077000Y-93966453D01*
X122022162Y-93690759D01*
X121914591Y-93431062D01*
X121758424Y-93197340D01*
X121559660Y-92998576D01*
X121325938Y-92842409D01*
X121066241Y-92734838D01*
X120790547Y-92680000D01*
X120509453Y-92680000D01*
X120233759Y-92734838D01*
X119974062Y-92842409D01*
X119740340Y-92998576D01*
X119541576Y-93197340D01*
X119519753Y-93230000D01*
X116186079Y-93230000D01*
X116143000Y-93225757D01*
X115971077Y-93242690D01*
X115893332Y-93266274D01*
X115805763Y-93292838D01*
X115653408Y-93374273D01*
X115536804Y-93469967D01*
X114907299Y-93469967D01*
X116187266Y-92190000D01*
X120860921Y-92190000D01*
X120904000Y-92194243D01*
X120947079Y-92190000D01*
X121075922Y-92177310D01*
X121241237Y-92127162D01*
X121393592Y-92045727D01*
X121527133Y-91936133D01*
X121554597Y-91902668D01*
X124661929Y-88795337D01*
X124700453Y-88803000D01*
X124981547Y-88803000D01*
X125257241Y-88748162D01*
X125516938Y-88640591D01*
X125750660Y-88484424D01*
X125949424Y-88285660D01*
X126105591Y-88051938D01*
X126213162Y-87792241D01*
X126268000Y-87516547D01*
X126268000Y-87235453D01*
X126213162Y-86959759D01*
X126105591Y-86700062D01*
X125949424Y-86466340D01*
X125750660Y-86267576D01*
X125516938Y-86111409D01*
X125257241Y-86003838D01*
X124981547Y-85949000D01*
X124700453Y-85949000D01*
X124424759Y-86003838D01*
X124165062Y-86111409D01*
X123931340Y-86267576D01*
X123732576Y-86466340D01*
X123576409Y-86700062D01*
X123468838Y-86959759D01*
X123414000Y-87235453D01*
X123414000Y-87516547D01*
X123421663Y-87555071D01*
X120540735Y-90436000D01*
X115949709Y-90436000D01*
X115972115Y-90402467D01*
X116049533Y-90215565D01*
X116089000Y-90017151D01*
X116089000Y-89814849D01*
X116049533Y-89616435D01*
X115995342Y-89485607D01*
X116253403Y-89743668D01*
X116280867Y-89777133D01*
X116414408Y-89886727D01*
X116566763Y-89968162D01*
X116732078Y-90018310D01*
X116860921Y-90031000D01*
X116860930Y-90031000D01*
X116903999Y-90035242D01*
X116947069Y-90031000D01*
X118050923Y-90031000D01*
X118094002Y-90035243D01*
X118137081Y-90031000D01*
X118265924Y-90018310D01*
X118431239Y-89968162D01*
X118583594Y-89886727D01*
X118717135Y-89777133D01*
X118744599Y-89743668D01*
X123398675Y-85089593D01*
X123432133Y-85062135D01*
X123541727Y-84928594D01*
X123623162Y-84776239D01*
X123673310Y-84610924D01*
X123686000Y-84482081D01*
X123686000Y-84482080D01*
X123690243Y-84439003D01*
X123686000Y-84395926D01*
X123686000Y-82907332D01*
X131408000Y-82907332D01*
X131408000Y-83172668D01*
X131459764Y-83432906D01*
X131561304Y-83678044D01*
X131708716Y-83898663D01*
X131896337Y-84086284D01*
X132116956Y-84233696D01*
X132362094Y-84335236D01*
X132622332Y-84387000D01*
X132887668Y-84387000D01*
X133147906Y-84335236D01*
X133393044Y-84233696D01*
X133613663Y-84086284D01*
X133801284Y-83898663D01*
X133948696Y-83678044D01*
X134050236Y-83432906D01*
X134102000Y-83172668D01*
X134102000Y-82907332D01*
X134050236Y-82647094D01*
X133948696Y-82401956D01*
X133801284Y-82181337D01*
X133613663Y-81993716D01*
X133393044Y-81846304D01*
X133147906Y-81744764D01*
X132887668Y-81693000D01*
X132622332Y-81693000D01*
X132362094Y-81744764D01*
X132116956Y-81846304D01*
X131896337Y-81993716D01*
X131708716Y-82181337D01*
X131561304Y-82401956D01*
X131459764Y-82647094D01*
X131408000Y-82907332D01*
X123686000Y-82907332D01*
X123686000Y-78895560D01*
X129459045Y-78895560D01*
X129520932Y-79131368D01*
X129762790Y-79244266D01*
X130022027Y-79307811D01*
X130288680Y-79319561D01*
X130552501Y-79279063D01*
X130803353Y-79187875D01*
X130909068Y-79131368D01*
X130970955Y-78895560D01*
X130215000Y-78139605D01*
X129459045Y-78895560D01*
X123686000Y-78895560D01*
X123686000Y-78055954D01*
X123732576Y-78125660D01*
X123931340Y-78324424D01*
X124165062Y-78480591D01*
X124424759Y-78588162D01*
X124700453Y-78643000D01*
X124981547Y-78643000D01*
X125257241Y-78588162D01*
X125516938Y-78480591D01*
X125750660Y-78324424D01*
X125949424Y-78125660D01*
X126010882Y-78033680D01*
X128855439Y-78033680D01*
X128895937Y-78297501D01*
X128987125Y-78548353D01*
X129043632Y-78654068D01*
X129279440Y-78715955D01*
X130035395Y-77960000D01*
X130394605Y-77960000D01*
X131150560Y-78715955D01*
X131386368Y-78654068D01*
X131499266Y-78412210D01*
X131562811Y-78152973D01*
X131574561Y-77886320D01*
X131534063Y-77622499D01*
X131442875Y-77371647D01*
X131386368Y-77265932D01*
X131150560Y-77204045D01*
X130394605Y-77960000D01*
X130035395Y-77960000D01*
X129279440Y-77204045D01*
X129043632Y-77265932D01*
X128930734Y-77507790D01*
X128867189Y-77767027D01*
X128855439Y-78033680D01*
X126010882Y-78033680D01*
X126105591Y-77891938D01*
X126213162Y-77632241D01*
X126268000Y-77356547D01*
X126268000Y-77075453D01*
X126260337Y-77036928D01*
X126601265Y-76696000D01*
X129726024Y-76696000D01*
X129626647Y-76732125D01*
G37*
G04 #@! TD.AperFunction*
D23*
X129032000Y-106299000D02*
X129052000Y-106299000D01*
X129052000Y-106553000D01*
X129032000Y-106553000D01*
X129032000Y-106573000D01*
X128778000Y-106573000D01*
X128778000Y-106553000D01*
X128758000Y-106553000D01*
X128758000Y-106299000D01*
X128778000Y-106299000D01*
X128778000Y-106279000D01*
X129032000Y-106279000D01*
X129032000Y-106299000D01*
G04 #@! TA.AperFunction,Conductor*
D24*
G36*
X129032000Y-106299000D02*
G01*
X129052000Y-106299000D01*
X129052000Y-106553000D01*
X129032000Y-106553000D01*
X129032000Y-106573000D01*
X128778000Y-106573000D01*
X128778000Y-106553000D01*
X128758000Y-106553000D01*
X128758000Y-106299000D01*
X128778000Y-106299000D01*
X128778000Y-106279000D01*
X129032000Y-106279000D01*
X129032000Y-106299000D01*
G37*
G04 #@! TD.AperFunction*
D23*
X127485663Y-103706928D02*
X127478000Y-103745453D01*
X127478000Y-104026547D01*
X127532838Y-104302241D01*
X127640409Y-104561938D01*
X127796576Y-104795660D01*
X127995340Y-104994424D01*
X128229062Y-105150591D01*
X128244404Y-105156946D01*
X128049869Y-105273615D01*
X127841481Y-105462586D01*
X127673963Y-105688580D01*
X127553754Y-105942913D01*
X127513096Y-106076961D01*
X127635084Y-106298998D01*
X127478263Y-106298998D01*
X126020654Y-104841389D01*
X126086162Y-104683241D01*
X126141000Y-104407547D01*
X126141000Y-104126453D01*
X126086162Y-103850759D01*
X125978591Y-103591062D01*
X125822424Y-103357340D01*
X125623660Y-103158576D01*
X125389938Y-103002409D01*
X125130241Y-102894838D01*
X124854547Y-102840000D01*
X124573453Y-102840000D01*
X124297759Y-102894838D01*
X124038062Y-103002409D01*
X123804340Y-103158576D01*
X123605576Y-103357340D01*
X123449409Y-103591062D01*
X123341838Y-103850759D01*
X123287000Y-104126453D01*
X123287000Y-104407547D01*
X123294663Y-104446072D01*
X122699735Y-105041000D01*
X121775952Y-105041000D01*
X121886671Y-105008514D01*
X122007571Y-104753004D01*
X122076300Y-104478816D01*
X122090217Y-104196488D01*
X122048787Y-103916870D01*
X121953603Y-103650708D01*
X121886671Y-103525486D01*
X121642702Y-103453903D01*
X120829605Y-104267000D01*
X120843748Y-104281143D01*
X120664143Y-104460748D01*
X120650000Y-104446605D01*
X120635858Y-104460748D01*
X120456253Y-104281143D01*
X120470395Y-104267000D01*
X119657298Y-103453903D01*
X119413329Y-103525486D01*
X119292429Y-103780996D01*
X119223700Y-104055184D01*
X119209783Y-104337512D01*
X119251213Y-104617130D01*
X119346397Y-104883292D01*
X119413329Y-105008514D01*
X119524048Y-105041000D01*
X117814265Y-105041000D01*
X119580967Y-103274298D01*
X119836903Y-103274298D01*
X120650000Y-104087395D01*
X121463097Y-103274298D01*
X121391514Y-103030329D01*
X121136004Y-102909429D01*
X120861816Y-102840700D01*
X120579488Y-102826783D01*
X120299870Y-102868213D01*
X120033708Y-102963397D01*
X119908486Y-103030329D01*
X119836903Y-103274298D01*
X119580967Y-103274298D01*
X120124266Y-102731000D01*
X126509735Y-102731000D01*
X127485663Y-103706928D01*
G04 #@! TA.AperFunction,Conductor*
D24*
G36*
X127485663Y-103706928D02*
G01*
X127478000Y-103745453D01*
X127478000Y-104026547D01*
X127532838Y-104302241D01*
X127640409Y-104561938D01*
X127796576Y-104795660D01*
X127995340Y-104994424D01*
X128229062Y-105150591D01*
X128244404Y-105156946D01*
X128049869Y-105273615D01*
X127841481Y-105462586D01*
X127673963Y-105688580D01*
X127553754Y-105942913D01*
X127513096Y-106076961D01*
X127635084Y-106298998D01*
X127478263Y-106298998D01*
X126020654Y-104841389D01*
X126086162Y-104683241D01*
X126141000Y-104407547D01*
X126141000Y-104126453D01*
X126086162Y-103850759D01*
X125978591Y-103591062D01*
X125822424Y-103357340D01*
X125623660Y-103158576D01*
X125389938Y-103002409D01*
X125130241Y-102894838D01*
X124854547Y-102840000D01*
X124573453Y-102840000D01*
X124297759Y-102894838D01*
X124038062Y-103002409D01*
X123804340Y-103158576D01*
X123605576Y-103357340D01*
X123449409Y-103591062D01*
X123341838Y-103850759D01*
X123287000Y-104126453D01*
X123287000Y-104407547D01*
X123294663Y-104446072D01*
X122699735Y-105041000D01*
X121775952Y-105041000D01*
X121886671Y-105008514D01*
X122007571Y-104753004D01*
X122076300Y-104478816D01*
X122090217Y-104196488D01*
X122048787Y-103916870D01*
X121953603Y-103650708D01*
X121886671Y-103525486D01*
X121642702Y-103453903D01*
X120829605Y-104267000D01*
X120843748Y-104281143D01*
X120664143Y-104460748D01*
X120650000Y-104446605D01*
X120635858Y-104460748D01*
X120456253Y-104281143D01*
X120470395Y-104267000D01*
X119657298Y-103453903D01*
X119413329Y-103525486D01*
X119292429Y-103780996D01*
X119223700Y-104055184D01*
X119209783Y-104337512D01*
X119251213Y-104617130D01*
X119346397Y-104883292D01*
X119413329Y-105008514D01*
X119524048Y-105041000D01*
X117814265Y-105041000D01*
X119580967Y-103274298D01*
X119836903Y-103274298D01*
X120650000Y-104087395D01*
X121463097Y-103274298D01*
X121391514Y-103030329D01*
X121136004Y-102909429D01*
X120861816Y-102840700D01*
X120579488Y-102826783D01*
X120299870Y-102868213D01*
X120033708Y-102963397D01*
X119908486Y-103030329D01*
X119836903Y-103274298D01*
X119580967Y-103274298D01*
X120124266Y-102731000D01*
X126509735Y-102731000D01*
X127485663Y-103706928D01*
G37*
G04 #@! TD.AperFunction*
D23*
X99997000Y-103493000D02*
X100017000Y-103493000D01*
X100017000Y-103747000D01*
X99997000Y-103747000D01*
X99997000Y-103767000D01*
X99743000Y-103767000D01*
X99743000Y-103747000D01*
X99723000Y-103747000D01*
X99723000Y-103493000D01*
X99743000Y-103493000D01*
X99743000Y-103473000D01*
X99997000Y-103473000D01*
X99997000Y-103493000D01*
G04 #@! TA.AperFunction,Conductor*
D24*
G36*
X99997000Y-103493000D02*
G01*
X100017000Y-103493000D01*
X100017000Y-103747000D01*
X99997000Y-103747000D01*
X99997000Y-103767000D01*
X99743000Y-103767000D01*
X99743000Y-103747000D01*
X99723000Y-103747000D01*
X99723000Y-103493000D01*
X99743000Y-103493000D01*
X99743000Y-103473000D01*
X99997000Y-103473000D01*
X99997000Y-103493000D01*
G37*
G04 #@! TD.AperFunction*
D23*
X107800663Y-95432928D02*
X107793000Y-95471453D01*
X107793000Y-95752547D01*
X107847838Y-96028241D01*
X107955409Y-96287938D01*
X108111576Y-96521660D01*
X108248916Y-96659000D01*
X106507266Y-96659000D01*
X105639337Y-95791072D01*
X105647000Y-95752547D01*
X105647000Y-95471453D01*
X105592162Y-95195759D01*
X105484591Y-94936062D01*
X105328424Y-94702340D01*
X105129660Y-94503576D01*
X104895938Y-94347409D01*
X104636241Y-94239838D01*
X104360547Y-94185000D01*
X104079453Y-94185000D01*
X103803759Y-94239838D01*
X103544062Y-94347409D01*
X103310340Y-94503576D01*
X103111576Y-94702340D01*
X102955409Y-94936062D01*
X102847838Y-95195759D01*
X102793000Y-95471453D01*
X102793000Y-95752547D01*
X102847838Y-96028241D01*
X102955409Y-96287938D01*
X103111576Y-96521660D01*
X103310340Y-96720424D01*
X103544062Y-96876591D01*
X103803759Y-96984162D01*
X104079453Y-97039000D01*
X104360547Y-97039000D01*
X104399072Y-97031337D01*
X105493408Y-98125674D01*
X105520867Y-98159133D01*
X105554326Y-98186592D01*
X105554328Y-98186594D01*
X105590561Y-98216329D01*
X105654408Y-98268727D01*
X105806763Y-98350162D01*
X105972077Y-98400310D01*
X106144000Y-98417243D01*
X106187079Y-98413000D01*
X109557921Y-98413000D01*
X109601000Y-98417243D01*
X109644079Y-98413000D01*
X109772922Y-98400310D01*
X109938237Y-98350162D01*
X110090592Y-98268727D01*
X110224133Y-98159133D01*
X110251597Y-98125668D01*
X113719967Y-94657299D01*
X113719967Y-95900000D01*
X113732073Y-96022913D01*
X113767925Y-96141103D01*
X113826147Y-96250028D01*
X113904499Y-96345501D01*
X113999972Y-96423853D01*
X114108897Y-96482075D01*
X114139221Y-96491274D01*
X114063901Y-96566594D01*
X113896790Y-96816694D01*
X113781681Y-97094590D01*
X113723000Y-97389604D01*
X113723000Y-97690396D01*
X113781681Y-97985410D01*
X113896790Y-98263306D01*
X114012848Y-98437000D01*
X106850069Y-98437000D01*
X106806999Y-98432758D01*
X106763930Y-98437000D01*
X106763921Y-98437000D01*
X106635078Y-98449690D01*
X106469763Y-98499838D01*
X106317408Y-98581273D01*
X106183867Y-98690867D01*
X106156403Y-98724332D01*
X103009897Y-101870838D01*
X102951435Y-101882467D01*
X102764533Y-101959885D01*
X102596326Y-102072277D01*
X102453277Y-102215326D01*
X102370090Y-102339824D01*
X101289337Y-101259072D01*
X101297000Y-101220547D01*
X101297000Y-100939453D01*
X101242162Y-100663759D01*
X101134591Y-100404062D01*
X100978424Y-100170340D01*
X100779660Y-99971576D01*
X100545938Y-99815409D01*
X100532880Y-99810000D01*
X100545938Y-99804591D01*
X100779660Y-99648424D01*
X100978424Y-99449660D01*
X101134591Y-99215938D01*
X101242162Y-98956241D01*
X101297000Y-98680547D01*
X101297000Y-98399453D01*
X101242162Y-98123759D01*
X101134591Y-97864062D01*
X100978424Y-97630340D01*
X100779660Y-97431576D01*
X100747000Y-97409753D01*
X100747000Y-97130247D01*
X100779660Y-97108424D01*
X100978424Y-96909660D01*
X101134591Y-96675938D01*
X101242162Y-96416241D01*
X101297000Y-96140547D01*
X101297000Y-95859453D01*
X101289337Y-95820928D01*
X103142265Y-93968000D01*
X106335735Y-93968000D01*
X107800663Y-95432928D01*
G04 #@! TA.AperFunction,Conductor*
D24*
G36*
X107800663Y-95432928D02*
G01*
X107793000Y-95471453D01*
X107793000Y-95752547D01*
X107847838Y-96028241D01*
X107955409Y-96287938D01*
X108111576Y-96521660D01*
X108248916Y-96659000D01*
X106507266Y-96659000D01*
X105639337Y-95791072D01*
X105647000Y-95752547D01*
X105647000Y-95471453D01*
X105592162Y-95195759D01*
X105484591Y-94936062D01*
X105328424Y-94702340D01*
X105129660Y-94503576D01*
X104895938Y-94347409D01*
X104636241Y-94239838D01*
X104360547Y-94185000D01*
X104079453Y-94185000D01*
X103803759Y-94239838D01*
X103544062Y-94347409D01*
X103310340Y-94503576D01*
X103111576Y-94702340D01*
X102955409Y-94936062D01*
X102847838Y-95195759D01*
X102793000Y-95471453D01*
X102793000Y-95752547D01*
X102847838Y-96028241D01*
X102955409Y-96287938D01*
X103111576Y-96521660D01*
X103310340Y-96720424D01*
X103544062Y-96876591D01*
X103803759Y-96984162D01*
X104079453Y-97039000D01*
X104360547Y-97039000D01*
X104399072Y-97031337D01*
X105493408Y-98125674D01*
X105520867Y-98159133D01*
X105554326Y-98186592D01*
X105554328Y-98186594D01*
X105590561Y-98216329D01*
X105654408Y-98268727D01*
X105806763Y-98350162D01*
X105972077Y-98400310D01*
X106144000Y-98417243D01*
X106187079Y-98413000D01*
X109557921Y-98413000D01*
X109601000Y-98417243D01*
X109644079Y-98413000D01*
X109772922Y-98400310D01*
X109938237Y-98350162D01*
X110090592Y-98268727D01*
X110224133Y-98159133D01*
X110251597Y-98125668D01*
X113719967Y-94657299D01*
X113719967Y-95900000D01*
X113732073Y-96022913D01*
X113767925Y-96141103D01*
X113826147Y-96250028D01*
X113904499Y-96345501D01*
X113999972Y-96423853D01*
X114108897Y-96482075D01*
X114139221Y-96491274D01*
X114063901Y-96566594D01*
X113896790Y-96816694D01*
X113781681Y-97094590D01*
X113723000Y-97389604D01*
X113723000Y-97690396D01*
X113781681Y-97985410D01*
X113896790Y-98263306D01*
X114012848Y-98437000D01*
X106850069Y-98437000D01*
X106806999Y-98432758D01*
X106763930Y-98437000D01*
X106763921Y-98437000D01*
X106635078Y-98449690D01*
X106469763Y-98499838D01*
X106317408Y-98581273D01*
X106183867Y-98690867D01*
X106156403Y-98724332D01*
X103009897Y-101870838D01*
X102951435Y-101882467D01*
X102764533Y-101959885D01*
X102596326Y-102072277D01*
X102453277Y-102215326D01*
X102370090Y-102339824D01*
X101289337Y-101259072D01*
X101297000Y-101220547D01*
X101297000Y-100939453D01*
X101242162Y-100663759D01*
X101134591Y-100404062D01*
X100978424Y-100170340D01*
X100779660Y-99971576D01*
X100545938Y-99815409D01*
X100532880Y-99810000D01*
X100545938Y-99804591D01*
X100779660Y-99648424D01*
X100978424Y-99449660D01*
X101134591Y-99215938D01*
X101242162Y-98956241D01*
X101297000Y-98680547D01*
X101297000Y-98399453D01*
X101242162Y-98123759D01*
X101134591Y-97864062D01*
X100978424Y-97630340D01*
X100779660Y-97431576D01*
X100747000Y-97409753D01*
X100747000Y-97130247D01*
X100779660Y-97108424D01*
X100978424Y-96909660D01*
X101134591Y-96675938D01*
X101242162Y-96416241D01*
X101297000Y-96140547D01*
X101297000Y-95859453D01*
X101289337Y-95820928D01*
X103142265Y-93968000D01*
X106335735Y-93968000D01*
X107800663Y-95432928D01*
G37*
G04 #@! TD.AperFunction*
D23*
X171830663Y-98360928D02*
X171823000Y-98399453D01*
X171823000Y-98680547D01*
X171877838Y-98956241D01*
X171985409Y-99215938D01*
X172141576Y-99449660D01*
X172340340Y-99648424D01*
X172574062Y-99804591D01*
X172587120Y-99810000D01*
X172574062Y-99815409D01*
X172340340Y-99971576D01*
X172141576Y-100170340D01*
X171985409Y-100404062D01*
X171877838Y-100663759D01*
X171823000Y-100939453D01*
X171823000Y-100952735D01*
X167060033Y-96189768D01*
X167060033Y-95200000D01*
X167047927Y-95077087D01*
X167012075Y-94958897D01*
X166953853Y-94849972D01*
X166875501Y-94754499D01*
X166780028Y-94676147D01*
X166671103Y-94617925D01*
X166552913Y-94582073D01*
X166430000Y-94569967D01*
X164830000Y-94569967D01*
X164707087Y-94582073D01*
X164588897Y-94617925D01*
X164479972Y-94676147D01*
X164384499Y-94754499D01*
X164306147Y-94849972D01*
X164247925Y-94958897D01*
X164212073Y-95077087D01*
X164199967Y-95200000D01*
X164199967Y-96800000D01*
X164212073Y-96922913D01*
X164247925Y-97041103D01*
X164306147Y-97150028D01*
X164384499Y-97245501D01*
X164479972Y-97323853D01*
X164588897Y-97382075D01*
X164707087Y-97417927D01*
X164736440Y-97420818D01*
X164720340Y-97431576D01*
X164521576Y-97630340D01*
X164499753Y-97663000D01*
X159835265Y-97663000D01*
X158649967Y-96477702D01*
X160603903Y-96477702D01*
X160675486Y-96721671D01*
X160930996Y-96842571D01*
X161205184Y-96911300D01*
X161487512Y-96925217D01*
X161767130Y-96883787D01*
X162033292Y-96788603D01*
X162158514Y-96721671D01*
X162230097Y-96477702D01*
X161417000Y-95664605D01*
X160603903Y-96477702D01*
X158649967Y-96477702D01*
X157836337Y-95664072D01*
X157844000Y-95625547D01*
X157844000Y-95555512D01*
X159976783Y-95555512D01*
X160018213Y-95835130D01*
X160113397Y-96101292D01*
X160180329Y-96226514D01*
X160424298Y-96298097D01*
X161237395Y-95485000D01*
X161596605Y-95485000D01*
X162409702Y-96298097D01*
X162653671Y-96226514D01*
X162774571Y-95971004D01*
X162843300Y-95696816D01*
X162857217Y-95414488D01*
X162815787Y-95134870D01*
X162720603Y-94868708D01*
X162653671Y-94743486D01*
X162409702Y-94671903D01*
X161596605Y-95485000D01*
X161237395Y-95485000D01*
X160424298Y-94671903D01*
X160180329Y-94743486D01*
X160059429Y-94998996D01*
X159990700Y-95273184D01*
X159976783Y-95555512D01*
X157844000Y-95555512D01*
X157844000Y-95344453D01*
X157789162Y-95068759D01*
X157681591Y-94809062D01*
X157525424Y-94575340D01*
X157442382Y-94492298D01*
X160603903Y-94492298D01*
X161417000Y-95305395D01*
X162230097Y-94492298D01*
X162158514Y-94248329D01*
X161903004Y-94127429D01*
X161628816Y-94058700D01*
X161346488Y-94044783D01*
X161066870Y-94086213D01*
X160800708Y-94181397D01*
X160675486Y-94248329D01*
X160603903Y-94492298D01*
X157442382Y-94492298D01*
X157326660Y-94376576D01*
X157092938Y-94220409D01*
X156833241Y-94112838D01*
X156557547Y-94058000D01*
X156276453Y-94058000D01*
X156000759Y-94112838D01*
X155741062Y-94220409D01*
X155507340Y-94376576D01*
X155308576Y-94575340D01*
X155152409Y-94809062D01*
X155044838Y-95068759D01*
X154990000Y-95344453D01*
X154990000Y-95625547D01*
X155044838Y-95901241D01*
X155152409Y-96160938D01*
X155308576Y-96394660D01*
X155507340Y-96593424D01*
X155741062Y-96749591D01*
X156000759Y-96857162D01*
X156276453Y-96912000D01*
X156557547Y-96912000D01*
X156596072Y-96904337D01*
X158604736Y-98913001D01*
X150925527Y-98913001D01*
X150973306Y-98893210D01*
X151223406Y-98726099D01*
X151436099Y-98513406D01*
X151603210Y-98263306D01*
X151718319Y-97985410D01*
X151777000Y-97690396D01*
X151777000Y-97389604D01*
X151718319Y-97094590D01*
X151603210Y-96816694D01*
X151436099Y-96566594D01*
X151360779Y-96491274D01*
X151391103Y-96482075D01*
X151500028Y-96423853D01*
X151595501Y-96345501D01*
X151673853Y-96250028D01*
X151732075Y-96141103D01*
X151767927Y-96022913D01*
X151780033Y-95900000D01*
X151780033Y-95586232D01*
X158443929Y-88922337D01*
X158482453Y-88930000D01*
X158763547Y-88930000D01*
X159039241Y-88875162D01*
X159298938Y-88767591D01*
X159532660Y-88611424D01*
X159731424Y-88412660D01*
X159887591Y-88178938D01*
X159995162Y-87919241D01*
X160050000Y-87643547D01*
X160050000Y-87362453D01*
X159995162Y-87086759D01*
X159887591Y-86827062D01*
X159731424Y-86593340D01*
X159532660Y-86394576D01*
X159298938Y-86238409D01*
X159039241Y-86130838D01*
X158763547Y-86076000D01*
X158482453Y-86076000D01*
X158206759Y-86130838D01*
X157956953Y-86234312D01*
X158351265Y-85840000D01*
X159309735Y-85840000D01*
X171830663Y-98360928D01*
G04 #@! TA.AperFunction,Conductor*
D24*
G36*
X171830663Y-98360928D02*
G01*
X171823000Y-98399453D01*
X171823000Y-98680547D01*
X171877838Y-98956241D01*
X171985409Y-99215938D01*
X172141576Y-99449660D01*
X172340340Y-99648424D01*
X172574062Y-99804591D01*
X172587120Y-99810000D01*
X172574062Y-99815409D01*
X172340340Y-99971576D01*
X172141576Y-100170340D01*
X171985409Y-100404062D01*
X171877838Y-100663759D01*
X171823000Y-100939453D01*
X171823000Y-100952735D01*
X167060033Y-96189768D01*
X167060033Y-95200000D01*
X167047927Y-95077087D01*
X167012075Y-94958897D01*
X166953853Y-94849972D01*
X166875501Y-94754499D01*
X166780028Y-94676147D01*
X166671103Y-94617925D01*
X166552913Y-94582073D01*
X166430000Y-94569967D01*
X164830000Y-94569967D01*
X164707087Y-94582073D01*
X164588897Y-94617925D01*
X164479972Y-94676147D01*
X164384499Y-94754499D01*
X164306147Y-94849972D01*
X164247925Y-94958897D01*
X164212073Y-95077087D01*
X164199967Y-95200000D01*
X164199967Y-96800000D01*
X164212073Y-96922913D01*
X164247925Y-97041103D01*
X164306147Y-97150028D01*
X164384499Y-97245501D01*
X164479972Y-97323853D01*
X164588897Y-97382075D01*
X164707087Y-97417927D01*
X164736440Y-97420818D01*
X164720340Y-97431576D01*
X164521576Y-97630340D01*
X164499753Y-97663000D01*
X159835265Y-97663000D01*
X158649967Y-96477702D01*
X160603903Y-96477702D01*
X160675486Y-96721671D01*
X160930996Y-96842571D01*
X161205184Y-96911300D01*
X161487512Y-96925217D01*
X161767130Y-96883787D01*
X162033292Y-96788603D01*
X162158514Y-96721671D01*
X162230097Y-96477702D01*
X161417000Y-95664605D01*
X160603903Y-96477702D01*
X158649967Y-96477702D01*
X157836337Y-95664072D01*
X157844000Y-95625547D01*
X157844000Y-95555512D01*
X159976783Y-95555512D01*
X160018213Y-95835130D01*
X160113397Y-96101292D01*
X160180329Y-96226514D01*
X160424298Y-96298097D01*
X161237395Y-95485000D01*
X161596605Y-95485000D01*
X162409702Y-96298097D01*
X162653671Y-96226514D01*
X162774571Y-95971004D01*
X162843300Y-95696816D01*
X162857217Y-95414488D01*
X162815787Y-95134870D01*
X162720603Y-94868708D01*
X162653671Y-94743486D01*
X162409702Y-94671903D01*
X161596605Y-95485000D01*
X161237395Y-95485000D01*
X160424298Y-94671903D01*
X160180329Y-94743486D01*
X160059429Y-94998996D01*
X159990700Y-95273184D01*
X159976783Y-95555512D01*
X157844000Y-95555512D01*
X157844000Y-95344453D01*
X157789162Y-95068759D01*
X157681591Y-94809062D01*
X157525424Y-94575340D01*
X157442382Y-94492298D01*
X160603903Y-94492298D01*
X161417000Y-95305395D01*
X162230097Y-94492298D01*
X162158514Y-94248329D01*
X161903004Y-94127429D01*
X161628816Y-94058700D01*
X161346488Y-94044783D01*
X161066870Y-94086213D01*
X160800708Y-94181397D01*
X160675486Y-94248329D01*
X160603903Y-94492298D01*
X157442382Y-94492298D01*
X157326660Y-94376576D01*
X157092938Y-94220409D01*
X156833241Y-94112838D01*
X156557547Y-94058000D01*
X156276453Y-94058000D01*
X156000759Y-94112838D01*
X155741062Y-94220409D01*
X155507340Y-94376576D01*
X155308576Y-94575340D01*
X155152409Y-94809062D01*
X155044838Y-95068759D01*
X154990000Y-95344453D01*
X154990000Y-95625547D01*
X155044838Y-95901241D01*
X155152409Y-96160938D01*
X155308576Y-96394660D01*
X155507340Y-96593424D01*
X155741062Y-96749591D01*
X156000759Y-96857162D01*
X156276453Y-96912000D01*
X156557547Y-96912000D01*
X156596072Y-96904337D01*
X158604736Y-98913001D01*
X150925527Y-98913001D01*
X150973306Y-98893210D01*
X151223406Y-98726099D01*
X151436099Y-98513406D01*
X151603210Y-98263306D01*
X151718319Y-97985410D01*
X151777000Y-97690396D01*
X151777000Y-97389604D01*
X151718319Y-97094590D01*
X151603210Y-96816694D01*
X151436099Y-96566594D01*
X151360779Y-96491274D01*
X151391103Y-96482075D01*
X151500028Y-96423853D01*
X151595501Y-96345501D01*
X151673853Y-96250028D01*
X151732075Y-96141103D01*
X151767927Y-96022913D01*
X151780033Y-95900000D01*
X151780033Y-95586232D01*
X158443929Y-88922337D01*
X158482453Y-88930000D01*
X158763547Y-88930000D01*
X159039241Y-88875162D01*
X159298938Y-88767591D01*
X159532660Y-88611424D01*
X159731424Y-88412660D01*
X159887591Y-88178938D01*
X159995162Y-87919241D01*
X160050000Y-87643547D01*
X160050000Y-87362453D01*
X159995162Y-87086759D01*
X159887591Y-86827062D01*
X159731424Y-86593340D01*
X159532660Y-86394576D01*
X159298938Y-86238409D01*
X159039241Y-86130838D01*
X158763547Y-86076000D01*
X158482453Y-86076000D01*
X158206759Y-86130838D01*
X157956953Y-86234312D01*
X158351265Y-85840000D01*
X159309735Y-85840000D01*
X171830663Y-98360928D01*
G37*
G04 #@! TD.AperFunction*
D23*
X106552735Y-86203000D02*
X106285453Y-86203000D01*
X106009759Y-86257838D01*
X105750062Y-86365409D01*
X105516340Y-86521576D01*
X105317576Y-86720340D01*
X105295753Y-86753000D01*
X103619247Y-86753000D01*
X103597424Y-86720340D01*
X103398660Y-86521576D01*
X103164938Y-86365409D01*
X102905241Y-86257838D01*
X102629547Y-86203000D01*
X102348453Y-86203000D01*
X102072759Y-86257838D01*
X101813062Y-86365409D01*
X101579340Y-86521576D01*
X101380576Y-86720340D01*
X101358753Y-86753000D01*
X98214079Y-86753000D01*
X98171000Y-86748757D01*
X97999077Y-86765690D01*
X97833763Y-86815838D01*
X97681408Y-86897273D01*
X97547867Y-87006867D01*
X97520408Y-87040326D01*
X97471767Y-87088967D01*
X96482000Y-87088967D01*
X96359087Y-87101073D01*
X96240897Y-87136925D01*
X96131972Y-87195147D01*
X96036499Y-87273499D01*
X95958147Y-87368972D01*
X95899925Y-87477897D01*
X95864073Y-87596087D01*
X95851967Y-87719000D01*
X95851967Y-87728573D01*
X95774702Y-87705903D01*
X94961605Y-88519000D01*
X94975748Y-88533143D01*
X94796143Y-88712748D01*
X94782000Y-88698605D01*
X94767858Y-88712748D01*
X94588253Y-88533143D01*
X94602395Y-88519000D01*
X93789298Y-87705903D01*
X93545329Y-87777486D01*
X93424429Y-88032996D01*
X93355700Y-88307184D01*
X93349816Y-88426551D01*
X93079000Y-88155735D01*
X93079000Y-87866265D01*
X93418967Y-87526298D01*
X93968903Y-87526298D01*
X94782000Y-88339395D01*
X95595097Y-87526298D01*
X95523514Y-87282329D01*
X95268004Y-87161429D01*
X94993816Y-87092700D01*
X94711488Y-87078783D01*
X94431870Y-87120213D01*
X94165708Y-87215397D01*
X94040486Y-87282329D01*
X93968903Y-87526298D01*
X93418967Y-87526298D01*
X95867265Y-85078000D01*
X102841973Y-85078000D01*
X102891533Y-85111115D01*
X103078435Y-85188533D01*
X103276849Y-85228000D01*
X103479151Y-85228000D01*
X103677565Y-85188533D01*
X103864467Y-85111115D01*
X104032674Y-84998723D01*
X104175723Y-84855674D01*
X104288115Y-84687467D01*
X104365533Y-84500565D01*
X104405000Y-84302151D01*
X104405000Y-84099849D01*
X104393930Y-84044195D01*
X106552735Y-86203000D01*
G04 #@! TA.AperFunction,Conductor*
D24*
G36*
X106552735Y-86203000D02*
G01*
X106285453Y-86203000D01*
X106009759Y-86257838D01*
X105750062Y-86365409D01*
X105516340Y-86521576D01*
X105317576Y-86720340D01*
X105295753Y-86753000D01*
X103619247Y-86753000D01*
X103597424Y-86720340D01*
X103398660Y-86521576D01*
X103164938Y-86365409D01*
X102905241Y-86257838D01*
X102629547Y-86203000D01*
X102348453Y-86203000D01*
X102072759Y-86257838D01*
X101813062Y-86365409D01*
X101579340Y-86521576D01*
X101380576Y-86720340D01*
X101358753Y-86753000D01*
X98214079Y-86753000D01*
X98171000Y-86748757D01*
X97999077Y-86765690D01*
X97833763Y-86815838D01*
X97681408Y-86897273D01*
X97547867Y-87006867D01*
X97520408Y-87040326D01*
X97471767Y-87088967D01*
X96482000Y-87088967D01*
X96359087Y-87101073D01*
X96240897Y-87136925D01*
X96131972Y-87195147D01*
X96036499Y-87273499D01*
X95958147Y-87368972D01*
X95899925Y-87477897D01*
X95864073Y-87596087D01*
X95851967Y-87719000D01*
X95851967Y-87728573D01*
X95774702Y-87705903D01*
X94961605Y-88519000D01*
X94975748Y-88533143D01*
X94796143Y-88712748D01*
X94782000Y-88698605D01*
X94767858Y-88712748D01*
X94588253Y-88533143D01*
X94602395Y-88519000D01*
X93789298Y-87705903D01*
X93545329Y-87777486D01*
X93424429Y-88032996D01*
X93355700Y-88307184D01*
X93349816Y-88426551D01*
X93079000Y-88155735D01*
X93079000Y-87866265D01*
X93418967Y-87526298D01*
X93968903Y-87526298D01*
X94782000Y-88339395D01*
X95595097Y-87526298D01*
X95523514Y-87282329D01*
X95268004Y-87161429D01*
X94993816Y-87092700D01*
X94711488Y-87078783D01*
X94431870Y-87120213D01*
X94165708Y-87215397D01*
X94040486Y-87282329D01*
X93968903Y-87526298D01*
X93418967Y-87526298D01*
X95867265Y-85078000D01*
X102841973Y-85078000D01*
X102891533Y-85111115D01*
X103078435Y-85188533D01*
X103276849Y-85228000D01*
X103479151Y-85228000D01*
X103677565Y-85188533D01*
X103864467Y-85111115D01*
X104032674Y-84998723D01*
X104175723Y-84855674D01*
X104288115Y-84687467D01*
X104365533Y-84500565D01*
X104405000Y-84302151D01*
X104405000Y-84099849D01*
X104393930Y-84044195D01*
X106552735Y-86203000D01*
G37*
G04 #@! TD.AperFunction*
G04 #@! TD*
M02*
