M48
; DRILL file {KiCad (5.1.7)-1} date 05/27/21 14:05:42
; FORMAT={-:-/ absolute / inch / decimal}
; #@! TF.CreationDate,2021-05-27T14:05:42-05:00
; #@! TF.GenerationSoftware,Kicad,Pcbnew,(5.1.7)-1
; #@! TF.FileFunction,Plated,1,2,PTH
FMAT,2
INCH
T1C0.0157
T2C0.0295
T3C0.0315
T4C0.0354
T5C0.0394
T6C0.0433
T7C0.0984
%
G90
G05
T1
X3.3Y-3.1
X3.72Y-3.12
X4.0453Y-4.7653
X4.1437Y-4.763
X4.2421Y-4.7664
X4.325Y-3.45
X4.3406Y-4.7715
X4.42Y-4.5
X4.439Y-4.581
X4.439Y-4.773
X4.5374Y-4.7817
X4.64Y-3.76
X4.85Y-4.15
X5.0Y-3.95
X5.05Y-2.95
X5.35Y-3.25
X5.55Y-3.85
X5.68Y-4.14
X5.74Y-3.76
X5.85Y-3.95
X5.9Y-4.6
X5.9154Y-4.7667
X6.0Y-4.5
X6.0138Y-4.768
X6.04Y-4.4
X6.1Y-3.6
X6.1122Y-4.7665
X6.2106Y-4.7664
X6.22Y-2.98
X6.3091Y-4.7633
X6.325Y-4.35
X6.4075Y-4.7625
X6.55Y-3.975
X6.7Y-3.14
X6.88Y-3.74
T2
X4.825Y-3.775
X4.875Y-3.775
X4.925Y-3.775
X4.825Y-4.0
X4.875Y-4.0
X4.925Y-4.0
X5.5Y-4.0
X5.55Y-4.0
X5.6Y-4.0
X5.5Y-3.775
X5.55Y-3.775
X5.6Y-3.775
T3
X6.325Y-3.3713
X6.325Y-3.45
X4.1Y-2.825
X4.1Y-3.225
X6.725Y-4.1013
X6.725Y-4.18
X3.85Y-2.825
X3.85Y-3.225
X6.45Y-2.825
X6.45Y-3.225
X5.1264Y-3.4
X5.2264Y-3.4
X5.3264Y-3.4
X3.8Y-3.85
X4.2Y-3.85
X6.7Y-2.825
X6.7Y-3.225
X4.1Y-3.3713
X4.1Y-3.45
X6.325Y-3.85
X6.725Y-3.85
X6.825Y-2.825
X6.825Y-3.225
X4.9016Y-3.1
X5.0Y-3.1
X3.6Y-2.825
X3.6Y-3.225
X7.075Y-2.825
X7.075Y-3.225
X6.325Y-2.825
X6.325Y-3.225
X5.1281Y-4.2407
X5.325Y-4.2407
X3.8Y-4.1013
X3.8Y-4.18
X6.325Y-3.725
X6.725Y-3.725
X3.725Y-2.825
X3.725Y-3.225
X3.975Y-2.825
X3.975Y-3.225
X5.1766Y-3.1
X5.275Y-3.1
X3.8Y-3.725
X4.2Y-3.725
X6.325Y-3.6
X6.725Y-3.6
X6.575Y-2.825
X6.575Y-3.225
X6.95Y-2.825
X6.95Y-3.225
X3.8Y-3.6
X4.2Y-3.6
X5.4516Y-3.1
X5.55Y-3.1
X4.5374Y-4.075
X4.6358Y-4.075
X5.8169Y-4.075
X5.9154Y-4.075
X3.35Y-2.825
X3.35Y-3.225
X3.475Y-2.825
X3.475Y-3.225
T4
X5.9154Y-3.7402
X5.9154Y-3.8402
X4.5374Y-3.7402
X4.5374Y-3.8402
X5.2264Y-3.7402
X5.2264Y-3.8402
T5
X5.18Y-3.58
X5.28Y-3.58
X4.439Y-3.4449
X4.5374Y-3.4449
X4.6358Y-3.4449
X5.8169Y-3.4449
X5.9154Y-3.4449
X6.0138Y-3.4449
T6
X5.025Y-4.375
X5.425Y-4.375
T7
X7.0925Y-4.8268
X3.3602Y-4.8268
T0
M30
