G04 #@! TF.GenerationSoftware,KiCad,Pcbnew,(5.1.7)-1*
G04 #@! TF.CreationDate,2021-02-13T16:44:17-06:00*
G04 #@! TF.ProjectId,ConsolePedal8Bitar,436f6e73-6f6c-4655-9065-64616c384269,rev?*
G04 #@! TF.SameCoordinates,Original*
G04 #@! TF.FileFunction,Legend,Top*
G04 #@! TF.FilePolarity,Positive*
%FSLAX46Y46*%
G04 Gerber Fmt 4.6, Leading zero omitted, Abs format (unit mm)*
G04 Created by KiCad (PCBNEW (5.1.7)-1) date 2021-02-13 16:44:17*
%MOMM*%
%LPD*%
G01*
G04 APERTURE LIST*
%ADD10C,0.150000*%
%ADD11C,0.250000*%
%ADD12C,0.120000*%
%ADD13C,0.200000*%
%ADD14C,0.254000*%
G04 APERTURE END LIST*
D10*
X128557857Y-75707142D02*
X128557857Y-76350000D01*
X128515000Y-76478571D01*
X128429285Y-76564285D01*
X128300714Y-76607142D01*
X128215000Y-76607142D01*
X129415000Y-76607142D02*
X128986428Y-76607142D01*
X128986428Y-75707142D01*
X130229285Y-76521428D02*
X130186428Y-76564285D01*
X130057857Y-76607142D01*
X129972142Y-76607142D01*
X129843571Y-76564285D01*
X129757857Y-76478571D01*
X129715000Y-76392857D01*
X129672142Y-76221428D01*
X129672142Y-76092857D01*
X129715000Y-75921428D01*
X129757857Y-75835714D01*
X129843571Y-75750000D01*
X129972142Y-75707142D01*
X130057857Y-75707142D01*
X130186428Y-75750000D01*
X130229285Y-75792857D01*
X130872142Y-75707142D02*
X130872142Y-76350000D01*
X130829285Y-76478571D01*
X130743571Y-76564285D01*
X130615000Y-76607142D01*
X130529285Y-76607142D01*
X131729285Y-76607142D02*
X131300714Y-76607142D01*
X131300714Y-75707142D01*
X132543571Y-76521428D02*
X132500714Y-76564285D01*
X132372142Y-76607142D01*
X132286428Y-76607142D01*
X132157857Y-76564285D01*
X132072142Y-76478571D01*
X132029285Y-76392857D01*
X131986428Y-76221428D01*
X131986428Y-76092857D01*
X132029285Y-75921428D01*
X132072142Y-75835714D01*
X132157857Y-75750000D01*
X132286428Y-75707142D01*
X132372142Y-75707142D01*
X132500714Y-75750000D01*
X132543571Y-75792857D01*
X133186428Y-75707142D02*
X133186428Y-76350000D01*
X133143571Y-76478571D01*
X133057857Y-76564285D01*
X132929285Y-76607142D01*
X132843571Y-76607142D01*
X134043571Y-76607142D02*
X133615000Y-76607142D01*
X133615000Y-75707142D01*
X134857857Y-76521428D02*
X134815000Y-76564285D01*
X134686428Y-76607142D01*
X134600714Y-76607142D01*
X134472142Y-76564285D01*
X134386428Y-76478571D01*
X134343571Y-76392857D01*
X134300714Y-76221428D01*
X134300714Y-76092857D01*
X134343571Y-75921428D01*
X134386428Y-75835714D01*
X134472142Y-75750000D01*
X134600714Y-75707142D01*
X134686428Y-75707142D01*
X134815000Y-75750000D01*
X134857857Y-75792857D01*
X135500714Y-75707142D02*
X135500714Y-76350000D01*
X135457857Y-76478571D01*
X135372142Y-76564285D01*
X135243571Y-76607142D01*
X135157857Y-76607142D01*
X136357857Y-76607142D02*
X135929285Y-76607142D01*
X135929285Y-75707142D01*
X137172142Y-76521428D02*
X137129285Y-76564285D01*
X137000714Y-76607142D01*
X136915000Y-76607142D01*
X136786428Y-76564285D01*
X136700714Y-76478571D01*
X136657857Y-76392857D01*
X136615000Y-76221428D01*
X136615000Y-76092857D01*
X136657857Y-75921428D01*
X136700714Y-75835714D01*
X136786428Y-75750000D01*
X136915000Y-75707142D01*
X137000714Y-75707142D01*
X137129285Y-75750000D01*
X137172142Y-75792857D01*
D11*
X118822142Y-121820714D02*
X118750714Y-121892142D01*
X118536428Y-121963571D01*
X118393571Y-121963571D01*
X118179285Y-121892142D01*
X118036428Y-121749285D01*
X117964999Y-121606428D01*
X117893571Y-121320714D01*
X117893571Y-121106428D01*
X117964999Y-120820714D01*
X118036428Y-120677857D01*
X118179285Y-120535000D01*
X118393571Y-120463571D01*
X118536428Y-120463571D01*
X118750714Y-120535000D01*
X118822142Y-120606428D01*
X119679285Y-121963571D02*
X119536428Y-121892142D01*
X119464999Y-121820714D01*
X119393571Y-121677857D01*
X119393571Y-121249285D01*
X119464999Y-121106428D01*
X119536428Y-121035000D01*
X119679285Y-120963571D01*
X119893571Y-120963571D01*
X120036428Y-121035000D01*
X120107857Y-121106428D01*
X120179285Y-121249285D01*
X120179285Y-121677857D01*
X120107857Y-121820714D01*
X120036428Y-121892142D01*
X119893571Y-121963571D01*
X119679285Y-121963571D01*
X120822142Y-120963571D02*
X120822142Y-121963571D01*
X120822142Y-121106428D02*
X120893571Y-121035000D01*
X121036428Y-120963571D01*
X121250714Y-120963571D01*
X121393571Y-121035000D01*
X121464999Y-121177857D01*
X121464999Y-121963571D01*
X122107857Y-121892142D02*
X122250714Y-121963571D01*
X122536428Y-121963571D01*
X122679285Y-121892142D01*
X122750714Y-121749285D01*
X122750714Y-121677857D01*
X122679285Y-121535000D01*
X122536428Y-121463571D01*
X122322142Y-121463571D01*
X122179285Y-121392142D01*
X122107857Y-121249285D01*
X122107857Y-121177857D01*
X122179285Y-121035000D01*
X122322142Y-120963571D01*
X122536428Y-120963571D01*
X122679285Y-121035000D01*
X123607857Y-121963571D02*
X123464999Y-121892142D01*
X123393571Y-121820714D01*
X123322142Y-121677857D01*
X123322142Y-121249285D01*
X123393571Y-121106428D01*
X123464999Y-121035000D01*
X123607857Y-120963571D01*
X123822142Y-120963571D01*
X123965000Y-121035000D01*
X124036428Y-121106428D01*
X124107857Y-121249285D01*
X124107857Y-121677857D01*
X124036428Y-121820714D01*
X123965000Y-121892142D01*
X123822142Y-121963571D01*
X123607857Y-121963571D01*
X124965000Y-121963571D02*
X124822142Y-121892142D01*
X124750714Y-121749285D01*
X124750714Y-120463571D01*
X126107857Y-121892142D02*
X125964999Y-121963571D01*
X125679285Y-121963571D01*
X125536428Y-121892142D01*
X125464999Y-121749285D01*
X125464999Y-121177857D01*
X125536428Y-121035000D01*
X125679285Y-120963571D01*
X125964999Y-120963571D01*
X126107857Y-121035000D01*
X126179285Y-121177857D01*
X126179285Y-121320714D01*
X125464999Y-121463571D01*
X127964999Y-121963571D02*
X127964999Y-120463571D01*
X128536428Y-120463571D01*
X128679285Y-120535000D01*
X128750714Y-120606428D01*
X128822142Y-120749285D01*
X128822142Y-120963571D01*
X128750714Y-121106428D01*
X128679285Y-121177857D01*
X128536428Y-121249285D01*
X127964999Y-121249285D01*
X130036428Y-121892142D02*
X129893571Y-121963571D01*
X129607857Y-121963571D01*
X129464999Y-121892142D01*
X129393571Y-121749285D01*
X129393571Y-121177857D01*
X129464999Y-121035000D01*
X129607857Y-120963571D01*
X129893571Y-120963571D01*
X130036428Y-121035000D01*
X130107857Y-121177857D01*
X130107857Y-121320714D01*
X129393571Y-121463571D01*
X131393571Y-121963571D02*
X131393571Y-120463571D01*
X131393571Y-121892142D02*
X131250714Y-121963571D01*
X130964999Y-121963571D01*
X130822142Y-121892142D01*
X130750714Y-121820714D01*
X130679285Y-121677857D01*
X130679285Y-121249285D01*
X130750714Y-121106428D01*
X130822142Y-121035000D01*
X130964999Y-120963571D01*
X131250714Y-120963571D01*
X131393571Y-121035000D01*
X132750714Y-121963571D02*
X132750714Y-121177857D01*
X132679285Y-121035000D01*
X132536428Y-120963571D01*
X132250714Y-120963571D01*
X132107857Y-121035000D01*
X132750714Y-121892142D02*
X132607857Y-121963571D01*
X132250714Y-121963571D01*
X132107857Y-121892142D01*
X132036428Y-121749285D01*
X132036428Y-121606428D01*
X132107857Y-121463571D01*
X132250714Y-121392142D01*
X132607857Y-121392142D01*
X132750714Y-121320714D01*
X133679285Y-121963571D02*
X133536428Y-121892142D01*
X133464999Y-121749285D01*
X133464999Y-120463571D01*
X135607857Y-121106428D02*
X135465000Y-121035000D01*
X135393571Y-120963571D01*
X135322142Y-120820714D01*
X135322142Y-120749285D01*
X135393571Y-120606428D01*
X135465000Y-120535000D01*
X135607857Y-120463571D01*
X135893571Y-120463571D01*
X136036428Y-120535000D01*
X136107857Y-120606428D01*
X136179285Y-120749285D01*
X136179285Y-120820714D01*
X136107857Y-120963571D01*
X136036428Y-121035000D01*
X135893571Y-121106428D01*
X135607857Y-121106428D01*
X135465000Y-121177857D01*
X135393571Y-121249285D01*
X135322142Y-121392142D01*
X135322142Y-121677857D01*
X135393571Y-121820714D01*
X135465000Y-121892142D01*
X135607857Y-121963571D01*
X135893571Y-121963571D01*
X136036428Y-121892142D01*
X136107857Y-121820714D01*
X136179285Y-121677857D01*
X136179285Y-121392142D01*
X136107857Y-121249285D01*
X136036428Y-121177857D01*
X135893571Y-121106428D01*
X137322142Y-121177857D02*
X137536428Y-121249285D01*
X137607857Y-121320714D01*
X137679285Y-121463571D01*
X137679285Y-121677857D01*
X137607857Y-121820714D01*
X137536428Y-121892142D01*
X137393571Y-121963571D01*
X136822142Y-121963571D01*
X136822142Y-120463571D01*
X137322142Y-120463571D01*
X137465000Y-120535000D01*
X137536428Y-120606428D01*
X137607857Y-120749285D01*
X137607857Y-120892142D01*
X137536428Y-121035000D01*
X137465000Y-121106428D01*
X137322142Y-121177857D01*
X136822142Y-121177857D01*
X138322142Y-121963571D02*
X138322142Y-120963571D01*
X138322142Y-120463571D02*
X138250714Y-120535000D01*
X138322142Y-120606428D01*
X138393571Y-120535000D01*
X138322142Y-120463571D01*
X138322142Y-120606428D01*
X138822142Y-120963571D02*
X139393571Y-120963571D01*
X139036428Y-120463571D02*
X139036428Y-121749285D01*
X139107857Y-121892142D01*
X139250714Y-121963571D01*
X139393571Y-121963571D01*
X140536428Y-121963571D02*
X140536428Y-121177857D01*
X140465000Y-121035000D01*
X140322142Y-120963571D01*
X140036428Y-120963571D01*
X139893571Y-121035000D01*
X140536428Y-121892142D02*
X140393571Y-121963571D01*
X140036428Y-121963571D01*
X139893571Y-121892142D01*
X139822142Y-121749285D01*
X139822142Y-121606428D01*
X139893571Y-121463571D01*
X140036428Y-121392142D01*
X140393571Y-121392142D01*
X140536428Y-121320714D01*
X141250714Y-121963571D02*
X141250714Y-120963571D01*
X141250714Y-121249285D02*
X141322142Y-121106428D01*
X141393571Y-121035000D01*
X141536428Y-120963571D01*
X141679285Y-120963571D01*
X143107857Y-120463571D02*
X143607857Y-121963571D01*
X144107857Y-120463571D01*
X145393571Y-121963571D02*
X144536428Y-121963571D01*
X144965000Y-121963571D02*
X144965000Y-120463571D01*
X144822142Y-120677857D01*
X144679285Y-120820714D01*
X144536428Y-120892142D01*
X146036428Y-121820714D02*
X146107857Y-121892142D01*
X146036428Y-121963571D01*
X145965000Y-121892142D01*
X146036428Y-121820714D01*
X146036428Y-121963571D01*
X147036428Y-120463571D02*
X147179285Y-120463571D01*
X147322142Y-120535000D01*
X147393571Y-120606428D01*
X147465000Y-120749285D01*
X147536428Y-121035000D01*
X147536428Y-121392142D01*
X147465000Y-121677857D01*
X147393571Y-121820714D01*
X147322142Y-121892142D01*
X147179285Y-121963571D01*
X147036428Y-121963571D01*
X146893571Y-121892142D01*
X146822142Y-121820714D01*
X146750714Y-121677857D01*
X146679285Y-121392142D01*
X146679285Y-121035000D01*
X146750714Y-120749285D01*
X146822142Y-120606428D01*
X146893571Y-120535000D01*
X147036428Y-120463571D01*
X86941761Y-117854285D02*
X86941761Y-116711428D01*
X88941761Y-117282857D02*
X86941761Y-117282857D01*
X88941761Y-116044761D02*
X86941761Y-116044761D01*
X88941761Y-115187619D02*
X87894142Y-115187619D01*
X87703666Y-115282857D01*
X87608428Y-115473333D01*
X87608428Y-115759047D01*
X87703666Y-115949523D01*
X87798904Y-116044761D01*
X88941761Y-113949523D02*
X88846523Y-114140000D01*
X88751285Y-114235238D01*
X88560809Y-114330476D01*
X87989380Y-114330476D01*
X87798904Y-114235238D01*
X87703666Y-114140000D01*
X87608428Y-113949523D01*
X87608428Y-113663809D01*
X87703666Y-113473333D01*
X87798904Y-113378095D01*
X87989380Y-113282857D01*
X88560809Y-113282857D01*
X88751285Y-113378095D01*
X88846523Y-113473333D01*
X88941761Y-113663809D01*
X88941761Y-113949523D01*
X88941761Y-112425714D02*
X87608428Y-112425714D01*
X87798904Y-112425714D02*
X87703666Y-112330476D01*
X87608428Y-112140000D01*
X87608428Y-111854285D01*
X87703666Y-111663809D01*
X87894142Y-111568571D01*
X88941761Y-111568571D01*
X87894142Y-111568571D02*
X87703666Y-111473333D01*
X87608428Y-111282857D01*
X87608428Y-110997142D01*
X87703666Y-110806666D01*
X87894142Y-110711428D01*
X88941761Y-110711428D01*
X88941761Y-108901904D02*
X87894142Y-108901904D01*
X87703666Y-108997142D01*
X87608428Y-109187619D01*
X87608428Y-109568571D01*
X87703666Y-109759047D01*
X88846523Y-108901904D02*
X88941761Y-109092380D01*
X88941761Y-109568571D01*
X88846523Y-109759047D01*
X88656047Y-109854285D01*
X88465571Y-109854285D01*
X88275095Y-109759047D01*
X88179857Y-109568571D01*
X88179857Y-109092380D01*
X88084619Y-108901904D01*
X88846523Y-108044761D02*
X88941761Y-107854285D01*
X88941761Y-107473333D01*
X88846523Y-107282857D01*
X88656047Y-107187619D01*
X88560809Y-107187619D01*
X88370333Y-107282857D01*
X88275095Y-107473333D01*
X88275095Y-107759047D01*
X88179857Y-107949523D01*
X87989380Y-108044761D01*
X87894142Y-108044761D01*
X87703666Y-107949523D01*
X87608428Y-107759047D01*
X87608428Y-107473333D01*
X87703666Y-107282857D01*
X88941761Y-104806666D02*
X86941761Y-104806666D01*
X88370333Y-104140000D01*
X86941761Y-103473333D01*
X88941761Y-103473333D01*
X88846523Y-101663809D02*
X88941761Y-101854285D01*
X88941761Y-102235238D01*
X88846523Y-102425714D01*
X88751285Y-102520952D01*
X88560809Y-102616190D01*
X87989380Y-102616190D01*
X87798904Y-102520952D01*
X87703666Y-102425714D01*
X87608428Y-102235238D01*
X87608428Y-101854285D01*
X87703666Y-101663809D01*
X88941761Y-100806666D02*
X86941761Y-100806666D01*
X86941761Y-100330476D01*
X87037000Y-100044761D01*
X87227476Y-99854285D01*
X87417952Y-99759047D01*
X87798904Y-99663809D01*
X88084619Y-99663809D01*
X88465571Y-99759047D01*
X88656047Y-99854285D01*
X88846523Y-100044761D01*
X88941761Y-100330476D01*
X88941761Y-100806666D01*
X88941761Y-98520952D02*
X88846523Y-98711428D01*
X88751285Y-98806666D01*
X88560809Y-98901904D01*
X87989380Y-98901904D01*
X87798904Y-98806666D01*
X87703666Y-98711428D01*
X87608428Y-98520952D01*
X87608428Y-98235238D01*
X87703666Y-98044761D01*
X87798904Y-97949523D01*
X87989380Y-97854285D01*
X88560809Y-97854285D01*
X88751285Y-97949523D01*
X88846523Y-98044761D01*
X88941761Y-98235238D01*
X88941761Y-98520952D01*
X87608428Y-96997142D02*
X88941761Y-96997142D01*
X87798904Y-96997142D02*
X87703666Y-96901904D01*
X87608428Y-96711428D01*
X87608428Y-96425714D01*
X87703666Y-96235238D01*
X87894142Y-96140000D01*
X88941761Y-96140000D01*
X88941761Y-94330476D02*
X87894142Y-94330476D01*
X87703666Y-94425714D01*
X87608428Y-94616190D01*
X87608428Y-94997142D01*
X87703666Y-95187619D01*
X88846523Y-94330476D02*
X88941761Y-94520952D01*
X88941761Y-94997142D01*
X88846523Y-95187619D01*
X88656047Y-95282857D01*
X88465571Y-95282857D01*
X88275095Y-95187619D01*
X88179857Y-94997142D01*
X88179857Y-94520952D01*
X88084619Y-94330476D01*
X87608428Y-92520952D02*
X89227476Y-92520952D01*
X89417952Y-92616190D01*
X89513190Y-92711428D01*
X89608428Y-92901904D01*
X89608428Y-93187619D01*
X89513190Y-93378095D01*
X88846523Y-92520952D02*
X88941761Y-92711428D01*
X88941761Y-93092380D01*
X88846523Y-93282857D01*
X88751285Y-93378095D01*
X88560809Y-93473333D01*
X87989380Y-93473333D01*
X87798904Y-93378095D01*
X87703666Y-93282857D01*
X87608428Y-93092380D01*
X87608428Y-92711428D01*
X87703666Y-92520952D01*
X88941761Y-91568571D02*
X86941761Y-91568571D01*
X88941761Y-90711428D02*
X87894142Y-90711428D01*
X87703666Y-90806666D01*
X87608428Y-90997142D01*
X87608428Y-91282857D01*
X87703666Y-91473333D01*
X87798904Y-91568571D01*
X92191761Y-118140000D02*
X90858428Y-118140000D01*
X91048904Y-118140000D02*
X90953666Y-118044761D01*
X90858428Y-117854285D01*
X90858428Y-117568571D01*
X90953666Y-117378095D01*
X91144142Y-117282857D01*
X92191761Y-117282857D01*
X91144142Y-117282857D02*
X90953666Y-117187619D01*
X90858428Y-116997142D01*
X90858428Y-116711428D01*
X90953666Y-116520952D01*
X91144142Y-116425714D01*
X92191761Y-116425714D01*
X92096523Y-114616190D02*
X92191761Y-114806666D01*
X92191761Y-115187619D01*
X92096523Y-115378095D01*
X92001285Y-115473333D01*
X91810809Y-115568571D01*
X91239380Y-115568571D01*
X91048904Y-115473333D01*
X90953666Y-115378095D01*
X90858428Y-115187619D01*
X90858428Y-114806666D01*
X90953666Y-114616190D01*
X92191761Y-112901904D02*
X90191761Y-112901904D01*
X92096523Y-112901904D02*
X92191761Y-113092380D01*
X92191761Y-113473333D01*
X92096523Y-113663809D01*
X92001285Y-113759047D01*
X91810809Y-113854285D01*
X91239380Y-113854285D01*
X91048904Y-113759047D01*
X90953666Y-113663809D01*
X90858428Y-113473333D01*
X90858428Y-113092380D01*
X90953666Y-112901904D01*
X92191761Y-111663809D02*
X92096523Y-111854285D01*
X92001285Y-111949523D01*
X91810809Y-112044761D01*
X91239380Y-112044761D01*
X91048904Y-111949523D01*
X90953666Y-111854285D01*
X90858428Y-111663809D01*
X90858428Y-111378095D01*
X90953666Y-111187619D01*
X91048904Y-111092380D01*
X91239380Y-110997142D01*
X91810809Y-110997142D01*
X92001285Y-111092380D01*
X92096523Y-111187619D01*
X92191761Y-111378095D01*
X92191761Y-111663809D01*
X90858428Y-110140000D02*
X92191761Y-110140000D01*
X91048904Y-110140000D02*
X90953666Y-110044761D01*
X90858428Y-109854285D01*
X90858428Y-109568571D01*
X90953666Y-109378095D01*
X91144142Y-109282857D01*
X92191761Y-109282857D01*
X92191761Y-107473333D02*
X91144142Y-107473333D01*
X90953666Y-107568571D01*
X90858428Y-107759047D01*
X90858428Y-108140000D01*
X90953666Y-108330476D01*
X92096523Y-107473333D02*
X92191761Y-107663809D01*
X92191761Y-108140000D01*
X92096523Y-108330476D01*
X91906047Y-108425714D01*
X91715571Y-108425714D01*
X91525095Y-108330476D01*
X91429857Y-108140000D01*
X91429857Y-107663809D01*
X91334619Y-107473333D01*
X90858428Y-105663809D02*
X92477476Y-105663809D01*
X92667952Y-105759047D01*
X92763190Y-105854285D01*
X92858428Y-106044761D01*
X92858428Y-106330476D01*
X92763190Y-106520952D01*
X92096523Y-105663809D02*
X92191761Y-105854285D01*
X92191761Y-106235238D01*
X92096523Y-106425714D01*
X92001285Y-106520952D01*
X91810809Y-106616190D01*
X91239380Y-106616190D01*
X91048904Y-106520952D01*
X90953666Y-106425714D01*
X90858428Y-106235238D01*
X90858428Y-105854285D01*
X90953666Y-105663809D01*
X92191761Y-104711428D02*
X90191761Y-104711428D01*
X92191761Y-103854285D02*
X91144142Y-103854285D01*
X90953666Y-103949523D01*
X90858428Y-104140000D01*
X90858428Y-104425714D01*
X90953666Y-104616190D01*
X91048904Y-104711428D01*
X92096523Y-102044761D02*
X92191761Y-102235238D01*
X92191761Y-102616190D01*
X92096523Y-102806666D01*
X92001285Y-102901904D01*
X91810809Y-102997142D01*
X91239380Y-102997142D01*
X91048904Y-102901904D01*
X90953666Y-102806666D01*
X90858428Y-102616190D01*
X90858428Y-102235238D01*
X90953666Y-102044761D01*
X92191761Y-100901904D02*
X92096523Y-101092380D01*
X92001285Y-101187619D01*
X91810809Y-101282857D01*
X91239380Y-101282857D01*
X91048904Y-101187619D01*
X90953666Y-101092380D01*
X90858428Y-100901904D01*
X90858428Y-100616190D01*
X90953666Y-100425714D01*
X91048904Y-100330476D01*
X91239380Y-100235238D01*
X91810809Y-100235238D01*
X92001285Y-100330476D01*
X92096523Y-100425714D01*
X92191761Y-100616190D01*
X92191761Y-100901904D01*
X92191761Y-99378095D02*
X90858428Y-99378095D01*
X91239380Y-99378095D02*
X91048904Y-99282857D01*
X90953666Y-99187619D01*
X90858428Y-98997142D01*
X90858428Y-98806666D01*
X90858428Y-98140000D02*
X92858428Y-98140000D01*
X90953666Y-98140000D02*
X90858428Y-97949523D01*
X90858428Y-97568571D01*
X90953666Y-97378095D01*
X91048904Y-97282857D01*
X91239380Y-97187619D01*
X91810809Y-97187619D01*
X92001285Y-97282857D01*
X92096523Y-97378095D01*
X92191761Y-97568571D01*
X92191761Y-97949523D01*
X92096523Y-98140000D01*
X92001285Y-96330476D02*
X92096523Y-96235238D01*
X92191761Y-96330476D01*
X92096523Y-96425714D01*
X92001285Y-96330476D01*
X92191761Y-96330476D01*
X92096523Y-94520952D02*
X92191761Y-94711428D01*
X92191761Y-95092380D01*
X92096523Y-95282857D01*
X92001285Y-95378095D01*
X91810809Y-95473333D01*
X91239380Y-95473333D01*
X91048904Y-95378095D01*
X90953666Y-95282857D01*
X90858428Y-95092380D01*
X90858428Y-94711428D01*
X90953666Y-94520952D01*
X92191761Y-93378095D02*
X92096523Y-93568571D01*
X92001285Y-93663809D01*
X91810809Y-93759047D01*
X91239380Y-93759047D01*
X91048904Y-93663809D01*
X90953666Y-93568571D01*
X90858428Y-93378095D01*
X90858428Y-93092380D01*
X90953666Y-92901904D01*
X91048904Y-92806666D01*
X91239380Y-92711428D01*
X91810809Y-92711428D01*
X92001285Y-92806666D01*
X92096523Y-92901904D01*
X92191761Y-93092380D01*
X92191761Y-93378095D01*
X92191761Y-91854285D02*
X90858428Y-91854285D01*
X91048904Y-91854285D02*
X90953666Y-91759047D01*
X90858428Y-91568571D01*
X90858428Y-91282857D01*
X90953666Y-91092380D01*
X91144142Y-90997142D01*
X92191761Y-90997142D01*
X91144142Y-90997142D02*
X90953666Y-90901904D01*
X90858428Y-90711428D01*
X90858428Y-90425714D01*
X90953666Y-90235238D01*
X91144142Y-90140000D01*
X92191761Y-90140000D01*
D12*
G04 #@! TO.C,D1*
X116795000Y-93710000D02*
X113705000Y-93710000D01*
X117750000Y-96270000D02*
G75*
G03*
X117750000Y-96270000I-2500000J0D01*
G01*
X115249538Y-99260000D02*
G75*
G03*
X116794830Y-93710000I462J2990000D01*
G01*
X115250462Y-99260000D02*
G75*
G02*
X113705170Y-93710000I-462J2990000D01*
G01*
G04 #@! TO.C,D2*
X152750000Y-96270000D02*
G75*
G03*
X152750000Y-96270000I-2500000J0D01*
G01*
X151795000Y-93710000D02*
X148705000Y-93710000D01*
X150250462Y-99260000D02*
G75*
G02*
X148705170Y-93710000I-462J2990000D01*
G01*
X150249538Y-99260000D02*
G75*
G03*
X151794830Y-93710000I462J2990000D01*
G01*
G04 #@! TO.C,R3*
X109728000Y-95274000D02*
X109728000Y-96044000D01*
X109728000Y-103354000D02*
X109728000Y-102584000D01*
X108358000Y-96044000D02*
X108358000Y-102584000D01*
X111098000Y-96044000D02*
X108358000Y-96044000D01*
X111098000Y-102584000D02*
X111098000Y-96044000D01*
X108358000Y-102584000D02*
X111098000Y-102584000D01*
G04 #@! TO.C,C1*
X104725000Y-87984000D02*
X97285000Y-87984000D01*
X104725000Y-79494000D02*
X97285000Y-79494000D01*
X104725000Y-87984000D02*
X104725000Y-79494000D01*
X97285000Y-87984000D02*
X97285000Y-79494000D01*
G04 #@! TO.C,C2*
X171580000Y-87984000D02*
X171580000Y-79494000D01*
X179020000Y-87984000D02*
X179020000Y-79494000D01*
X179020000Y-79494000D02*
X171580000Y-79494000D01*
X179020000Y-87984000D02*
X171580000Y-87984000D01*
G04 #@! TO.C,C3*
X168225000Y-87984000D02*
X160785000Y-87984000D01*
X168225000Y-79494000D02*
X160785000Y-79494000D01*
X168225000Y-87984000D02*
X168225000Y-79494000D01*
X160785000Y-87984000D02*
X160785000Y-79494000D01*
G04 #@! TO.C,C4*
X86490000Y-87984000D02*
X86490000Y-79494000D01*
X93930000Y-87984000D02*
X93930000Y-79494000D01*
X93930000Y-79494000D02*
X86490000Y-79494000D01*
X93930000Y-87984000D02*
X86490000Y-87984000D01*
G04 #@! TO.C,C5*
X141600000Y-87335000D02*
X143100000Y-87335000D01*
X142350000Y-86585000D02*
X142350000Y-88085000D01*
X143350000Y-86415000D02*
X143350000Y-92655000D01*
X153590000Y-86415000D02*
X153590000Y-92655000D01*
X143350000Y-86415000D02*
X144850000Y-86415000D01*
X144850000Y-86415000D02*
X145600000Y-87165000D01*
X145600000Y-87165000D02*
X146350000Y-86415000D01*
X146350000Y-86415000D02*
X153590000Y-86415000D01*
X143350000Y-92655000D02*
X144850000Y-92655000D01*
X144850000Y-92655000D02*
X145600000Y-91905000D01*
X145600000Y-91905000D02*
X146350000Y-92655000D01*
X146350000Y-92655000D02*
X153590000Y-92655000D01*
X142210000Y-89535000D02*
X143350000Y-89535000D01*
X154730000Y-89535000D02*
X153590000Y-89535000D01*
G04 #@! TO.C,C6*
X110104000Y-80350000D02*
X111604000Y-80350000D01*
X110854000Y-79600000D02*
X110854000Y-81100000D01*
X111854000Y-79430000D02*
X111854000Y-85670000D01*
X122094000Y-79430000D02*
X122094000Y-85670000D01*
X111854000Y-79430000D02*
X113354000Y-79430000D01*
X113354000Y-79430000D02*
X114104000Y-80180000D01*
X114104000Y-80180000D02*
X114854000Y-79430000D01*
X114854000Y-79430000D02*
X122094000Y-79430000D01*
X111854000Y-85670000D02*
X113354000Y-85670000D01*
X113354000Y-85670000D02*
X114104000Y-84920000D01*
X114104000Y-84920000D02*
X114854000Y-85670000D01*
X114854000Y-85670000D02*
X122094000Y-85670000D01*
X110714000Y-82550000D02*
X111854000Y-82550000D01*
X123234000Y-82550000D02*
X122094000Y-82550000D01*
G04 #@! TO.C,C7*
X110700000Y-89535000D02*
X111840000Y-89535000D01*
X123220000Y-89535000D02*
X122080000Y-89535000D01*
X119080000Y-86415000D02*
X111840000Y-86415000D01*
X119830000Y-87165000D02*
X119080000Y-86415000D01*
X120580000Y-86415000D02*
X119830000Y-87165000D01*
X122080000Y-86415000D02*
X120580000Y-86415000D01*
X119080000Y-92655000D02*
X111840000Y-92655000D01*
X119830000Y-91905000D02*
X119080000Y-92655000D01*
X120580000Y-92655000D02*
X119830000Y-91905000D01*
X122080000Y-92655000D02*
X120580000Y-92655000D01*
X111840000Y-92655000D02*
X111840000Y-86415000D01*
X122080000Y-92655000D02*
X122080000Y-86415000D01*
X123080000Y-92485000D02*
X123080000Y-90985000D01*
X123830000Y-91735000D02*
X122330000Y-91735000D01*
G04 #@! TO.C,C8*
X142196000Y-82550000D02*
X143336000Y-82550000D01*
X154716000Y-82550000D02*
X153576000Y-82550000D01*
X150576000Y-79430000D02*
X143336000Y-79430000D01*
X151326000Y-80180000D02*
X150576000Y-79430000D01*
X152076000Y-79430000D02*
X151326000Y-80180000D01*
X153576000Y-79430000D02*
X152076000Y-79430000D01*
X150576000Y-85670000D02*
X143336000Y-85670000D01*
X151326000Y-84920000D02*
X150576000Y-85670000D01*
X152076000Y-85670000D02*
X151326000Y-84920000D01*
X153576000Y-85670000D02*
X152076000Y-85670000D01*
X143336000Y-85670000D02*
X143336000Y-79430000D01*
X153576000Y-85670000D02*
X153576000Y-79430000D01*
X154576000Y-85500000D02*
X154576000Y-84000000D01*
X155326000Y-84750000D02*
X153826000Y-84750000D01*
G04 #@! TO.C,D3*
X130838500Y-70920000D02*
X130838500Y-73860000D01*
X131078500Y-70920000D02*
X131078500Y-73860000D01*
X130958500Y-70920000D02*
X130958500Y-73860000D01*
X136518500Y-72390000D02*
X135498500Y-72390000D01*
X129038500Y-72390000D02*
X130058500Y-72390000D01*
X135498500Y-70920000D02*
X130058500Y-70920000D01*
X135498500Y-73860000D02*
X135498500Y-70920000D01*
X130058500Y-73860000D02*
X135498500Y-73860000D01*
X130058500Y-70920000D02*
X130058500Y-73860000D01*
D13*
G04 #@! TO.C,IC1*
X129415000Y-108905000D02*
X136015000Y-108905000D01*
X128180000Y-89215000D02*
X136015000Y-89215000D01*
D12*
G04 #@! TO.C,Q1*
X130915000Y-114245000D02*
X134515000Y-114245000D01*
X130876522Y-114233478D02*
G75*
G02*
X132715000Y-109795000I1838478J1838478D01*
G01*
X134553478Y-114233478D02*
G75*
G03*
X132715000Y-109795000I-1838478J1838478D01*
G01*
G04 #@! TO.C,R1*
X155765500Y-95274000D02*
X155765500Y-96044000D01*
X155765500Y-103354000D02*
X155765500Y-102584000D01*
X154395500Y-96044000D02*
X154395500Y-102584000D01*
X157135500Y-96044000D02*
X154395500Y-96044000D01*
X157135500Y-102584000D02*
X157135500Y-96044000D01*
X154395500Y-102584000D02*
X157135500Y-102584000D01*
G04 #@! TO.C,R2*
X167933500Y-91249500D02*
X167163500Y-91249500D01*
X159853500Y-91249500D02*
X160623500Y-91249500D01*
X167163500Y-89879500D02*
X160623500Y-89879500D01*
X167163500Y-92619500D02*
X167163500Y-89879500D01*
X160623500Y-92619500D02*
X167163500Y-92619500D01*
X160623500Y-89879500D02*
X160623500Y-92619500D01*
G04 #@! TO.C,R4*
X143664000Y-102457000D02*
X146404000Y-102457000D01*
X146404000Y-102457000D02*
X146404000Y-95917000D01*
X146404000Y-95917000D02*
X143664000Y-95917000D01*
X143664000Y-95917000D02*
X143664000Y-102457000D01*
X145034000Y-103227000D02*
X145034000Y-102457000D01*
X145034000Y-95147000D02*
X145034000Y-95917000D01*
G04 #@! TO.C,R5*
X120650000Y-103227000D02*
X120650000Y-102457000D01*
X120650000Y-95147000D02*
X120650000Y-95917000D01*
X122020000Y-102457000D02*
X122020000Y-95917000D01*
X119280000Y-102457000D02*
X122020000Y-102457000D01*
X119280000Y-95917000D02*
X119280000Y-102457000D01*
X122020000Y-95917000D02*
X119280000Y-95917000D01*
G04 #@! TO.C,R6*
X122836000Y-102431600D02*
X125576000Y-102431600D01*
X125576000Y-102431600D02*
X125576000Y-95891600D01*
X125576000Y-95891600D02*
X122836000Y-95891600D01*
X122836000Y-95891600D02*
X122836000Y-102431600D01*
X124206000Y-103201600D02*
X124206000Y-102431600D01*
X124206000Y-95121600D02*
X124206000Y-95891600D01*
G04 #@! TO.C,R7*
X110323500Y-77470000D02*
X111093500Y-77470000D01*
X118403500Y-77470000D02*
X117633500Y-77470000D01*
X111093500Y-78840000D02*
X117633500Y-78840000D01*
X111093500Y-76100000D02*
X111093500Y-78840000D01*
X117633500Y-76100000D02*
X111093500Y-76100000D01*
X117633500Y-78840000D02*
X117633500Y-76100000D01*
G04 #@! TO.C,R8*
X155106500Y-77470000D02*
X154336500Y-77470000D01*
X147026500Y-77470000D02*
X147796500Y-77470000D01*
X154336500Y-76100000D02*
X147796500Y-76100000D01*
X154336500Y-78840000D02*
X154336500Y-76100000D01*
X147796500Y-78840000D02*
X154336500Y-78840000D01*
X147796500Y-76100000D02*
X147796500Y-78840000D01*
G04 #@! TO.C,R9*
X142594000Y-95917000D02*
X139854000Y-95917000D01*
X139854000Y-95917000D02*
X139854000Y-102457000D01*
X139854000Y-102457000D02*
X142594000Y-102457000D01*
X142594000Y-102457000D02*
X142594000Y-95917000D01*
X141224000Y-95147000D02*
X141224000Y-95917000D01*
X141224000Y-103227000D02*
X141224000Y-102457000D01*
G04 #@! TO.C,R10*
X104806500Y-92619500D02*
X104806500Y-89879500D01*
X104806500Y-89879500D02*
X98266500Y-89879500D01*
X98266500Y-89879500D02*
X98266500Y-92619500D01*
X98266500Y-92619500D02*
X104806500Y-92619500D01*
X105576500Y-91249500D02*
X104806500Y-91249500D01*
X97496500Y-91249500D02*
X98266500Y-91249500D01*
G04 #@! TO.C,RV1*
X127745000Y-74380000D02*
X137685000Y-74380000D01*
X136085000Y-86620000D02*
X137685000Y-86620000D01*
X133586000Y-86620000D02*
X134345000Y-86620000D01*
X131086000Y-86620000D02*
X131845000Y-86620000D01*
X127745000Y-86620000D02*
X129344000Y-86620000D01*
X137685000Y-78245000D02*
X137685000Y-74380000D01*
X137685000Y-86620000D02*
X137685000Y-82755000D01*
X127745000Y-78245000D02*
X127745000Y-74380000D01*
X127745000Y-86620000D02*
X127745000Y-82755000D01*
G04 #@! TO.C,R3*
D10*
X110180380Y-99480666D02*
X109704190Y-99814000D01*
X110180380Y-100052095D02*
X109180380Y-100052095D01*
X109180380Y-99671142D01*
X109228000Y-99575904D01*
X109275619Y-99528285D01*
X109370857Y-99480666D01*
X109513714Y-99480666D01*
X109608952Y-99528285D01*
X109656571Y-99575904D01*
X109704190Y-99671142D01*
X109704190Y-100052095D01*
X109180380Y-99147333D02*
X109180380Y-98528285D01*
X109561333Y-98861619D01*
X109561333Y-98718761D01*
X109608952Y-98623523D01*
X109656571Y-98575904D01*
X109751809Y-98528285D01*
X109989904Y-98528285D01*
X110085142Y-98575904D01*
X110132761Y-98623523D01*
X110180380Y-98718761D01*
X110180380Y-99004476D01*
X110132761Y-99099714D01*
X110085142Y-99147333D01*
G04 #@! TO.C,C1*
X100838333Y-84431142D02*
X100790714Y-84478761D01*
X100647857Y-84526380D01*
X100552619Y-84526380D01*
X100409761Y-84478761D01*
X100314523Y-84383523D01*
X100266904Y-84288285D01*
X100219285Y-84097809D01*
X100219285Y-83954952D01*
X100266904Y-83764476D01*
X100314523Y-83669238D01*
X100409761Y-83574000D01*
X100552619Y-83526380D01*
X100647857Y-83526380D01*
X100790714Y-83574000D01*
X100838333Y-83621619D01*
X101790714Y-84526380D02*
X101219285Y-84526380D01*
X101505000Y-84526380D02*
X101505000Y-83526380D01*
X101409761Y-83669238D01*
X101314523Y-83764476D01*
X101219285Y-83812095D01*
G04 #@! TO.C,C2*
X175133333Y-84431142D02*
X175085714Y-84478761D01*
X174942857Y-84526380D01*
X174847619Y-84526380D01*
X174704761Y-84478761D01*
X174609523Y-84383523D01*
X174561904Y-84288285D01*
X174514285Y-84097809D01*
X174514285Y-83954952D01*
X174561904Y-83764476D01*
X174609523Y-83669238D01*
X174704761Y-83574000D01*
X174847619Y-83526380D01*
X174942857Y-83526380D01*
X175085714Y-83574000D01*
X175133333Y-83621619D01*
X175514285Y-83621619D02*
X175561904Y-83574000D01*
X175657142Y-83526380D01*
X175895238Y-83526380D01*
X175990476Y-83574000D01*
X176038095Y-83621619D01*
X176085714Y-83716857D01*
X176085714Y-83812095D01*
X176038095Y-83954952D01*
X175466666Y-84526380D01*
X176085714Y-84526380D01*
G04 #@! TO.C,C3*
X164338333Y-84431142D02*
X164290714Y-84478761D01*
X164147857Y-84526380D01*
X164052619Y-84526380D01*
X163909761Y-84478761D01*
X163814523Y-84383523D01*
X163766904Y-84288285D01*
X163719285Y-84097809D01*
X163719285Y-83954952D01*
X163766904Y-83764476D01*
X163814523Y-83669238D01*
X163909761Y-83574000D01*
X164052619Y-83526380D01*
X164147857Y-83526380D01*
X164290714Y-83574000D01*
X164338333Y-83621619D01*
X164671666Y-83526380D02*
X165290714Y-83526380D01*
X164957380Y-83907333D01*
X165100238Y-83907333D01*
X165195476Y-83954952D01*
X165243095Y-84002571D01*
X165290714Y-84097809D01*
X165290714Y-84335904D01*
X165243095Y-84431142D01*
X165195476Y-84478761D01*
X165100238Y-84526380D01*
X164814523Y-84526380D01*
X164719285Y-84478761D01*
X164671666Y-84431142D01*
G04 #@! TO.C,C4*
X90043333Y-84431142D02*
X89995714Y-84478761D01*
X89852857Y-84526380D01*
X89757619Y-84526380D01*
X89614761Y-84478761D01*
X89519523Y-84383523D01*
X89471904Y-84288285D01*
X89424285Y-84097809D01*
X89424285Y-83954952D01*
X89471904Y-83764476D01*
X89519523Y-83669238D01*
X89614761Y-83574000D01*
X89757619Y-83526380D01*
X89852857Y-83526380D01*
X89995714Y-83574000D01*
X90043333Y-83621619D01*
X90900476Y-83859714D02*
X90900476Y-84526380D01*
X90662380Y-83478761D02*
X90424285Y-84193047D01*
X91043333Y-84193047D01*
G04 #@! TO.C,C5*
X148303333Y-89892142D02*
X148255714Y-89939761D01*
X148112857Y-89987380D01*
X148017619Y-89987380D01*
X147874761Y-89939761D01*
X147779523Y-89844523D01*
X147731904Y-89749285D01*
X147684285Y-89558809D01*
X147684285Y-89415952D01*
X147731904Y-89225476D01*
X147779523Y-89130238D01*
X147874761Y-89035000D01*
X148017619Y-88987380D01*
X148112857Y-88987380D01*
X148255714Y-89035000D01*
X148303333Y-89082619D01*
X149208095Y-88987380D02*
X148731904Y-88987380D01*
X148684285Y-89463571D01*
X148731904Y-89415952D01*
X148827142Y-89368333D01*
X149065238Y-89368333D01*
X149160476Y-89415952D01*
X149208095Y-89463571D01*
X149255714Y-89558809D01*
X149255714Y-89796904D01*
X149208095Y-89892142D01*
X149160476Y-89939761D01*
X149065238Y-89987380D01*
X148827142Y-89987380D01*
X148731904Y-89939761D01*
X148684285Y-89892142D01*
G04 #@! TO.C,C6*
X117562333Y-82907142D02*
X117514714Y-82954761D01*
X117371857Y-83002380D01*
X117276619Y-83002380D01*
X117133761Y-82954761D01*
X117038523Y-82859523D01*
X116990904Y-82764285D01*
X116943285Y-82573809D01*
X116943285Y-82430952D01*
X116990904Y-82240476D01*
X117038523Y-82145238D01*
X117133761Y-82050000D01*
X117276619Y-82002380D01*
X117371857Y-82002380D01*
X117514714Y-82050000D01*
X117562333Y-82097619D01*
X118419476Y-82002380D02*
X118229000Y-82002380D01*
X118133761Y-82050000D01*
X118086142Y-82097619D01*
X117990904Y-82240476D01*
X117943285Y-82430952D01*
X117943285Y-82811904D01*
X117990904Y-82907142D01*
X118038523Y-82954761D01*
X118133761Y-83002380D01*
X118324238Y-83002380D01*
X118419476Y-82954761D01*
X118467095Y-82907142D01*
X118514714Y-82811904D01*
X118514714Y-82573809D01*
X118467095Y-82478571D01*
X118419476Y-82430952D01*
X118324238Y-82383333D01*
X118133761Y-82383333D01*
X118038523Y-82430952D01*
X117990904Y-82478571D01*
X117943285Y-82573809D01*
G04 #@! TO.C,C7*
X116678334Y-90080143D02*
X116630715Y-90127762D01*
X116487858Y-90175381D01*
X116392620Y-90175381D01*
X116249762Y-90127762D01*
X116154524Y-90032524D01*
X116106905Y-89937286D01*
X116059286Y-89746810D01*
X116059286Y-89603953D01*
X116106905Y-89413477D01*
X116154524Y-89318239D01*
X116249762Y-89223001D01*
X116392620Y-89175381D01*
X116487858Y-89175381D01*
X116630715Y-89223001D01*
X116678334Y-89270620D01*
X117011667Y-89175381D02*
X117678334Y-89175381D01*
X117249762Y-90175381D01*
G04 #@! TO.C,C8*
X147684334Y-82810143D02*
X147636715Y-82857762D01*
X147493858Y-82905381D01*
X147398620Y-82905381D01*
X147255762Y-82857762D01*
X147160524Y-82762524D01*
X147112905Y-82667286D01*
X147065286Y-82476810D01*
X147065286Y-82333953D01*
X147112905Y-82143477D01*
X147160524Y-82048239D01*
X147255762Y-81953001D01*
X147398620Y-81905381D01*
X147493858Y-81905381D01*
X147636715Y-81953001D01*
X147684334Y-82000620D01*
X148255762Y-82333953D02*
X148160524Y-82286334D01*
X148112905Y-82238715D01*
X148065286Y-82143477D01*
X148065286Y-82095858D01*
X148112905Y-82000620D01*
X148160524Y-81953001D01*
X148255762Y-81905381D01*
X148446239Y-81905381D01*
X148541477Y-81953001D01*
X148589096Y-82000620D01*
X148636715Y-82095858D01*
X148636715Y-82143477D01*
X148589096Y-82238715D01*
X148541477Y-82286334D01*
X148446239Y-82333953D01*
X148255762Y-82333953D01*
X148160524Y-82381572D01*
X148112905Y-82429191D01*
X148065286Y-82524429D01*
X148065286Y-82714905D01*
X148112905Y-82810143D01*
X148160524Y-82857762D01*
X148255762Y-82905381D01*
X148446239Y-82905381D01*
X148541477Y-82857762D01*
X148589096Y-82810143D01*
X148636715Y-82714905D01*
X148636715Y-82524429D01*
X148589096Y-82429191D01*
X148541477Y-82381572D01*
X148446239Y-82333953D01*
G04 #@! TO.C,D3*
X132040404Y-72792179D02*
X132040404Y-71792179D01*
X132278500Y-71792179D01*
X132421357Y-71839799D01*
X132516595Y-71935037D01*
X132564214Y-72030275D01*
X132611833Y-72220751D01*
X132611833Y-72363608D01*
X132564214Y-72554084D01*
X132516595Y-72649322D01*
X132421357Y-72744560D01*
X132278500Y-72792179D01*
X132040404Y-72792179D01*
X132945166Y-71792179D02*
X133564214Y-71792179D01*
X133230880Y-72173132D01*
X133373738Y-72173132D01*
X133468976Y-72220751D01*
X133516595Y-72268370D01*
X133564214Y-72363608D01*
X133564214Y-72601703D01*
X133516595Y-72696941D01*
X133468976Y-72744560D01*
X133373738Y-72792179D01*
X133088023Y-72792179D01*
X132992785Y-72744560D01*
X132945166Y-72696941D01*
G04 #@! TO.C,IC1*
D14*
X131475238Y-99634523D02*
X131475238Y-98364523D01*
X132805714Y-99513571D02*
X132745238Y-99574047D01*
X132563809Y-99634523D01*
X132442857Y-99634523D01*
X132261428Y-99574047D01*
X132140476Y-99453095D01*
X132080000Y-99332142D01*
X132019523Y-99090238D01*
X132019523Y-98908809D01*
X132080000Y-98666904D01*
X132140476Y-98545952D01*
X132261428Y-98425000D01*
X132442857Y-98364523D01*
X132563809Y-98364523D01*
X132745238Y-98425000D01*
X132805714Y-98485476D01*
X134015238Y-99634523D02*
X133289523Y-99634523D01*
X133652380Y-99634523D02*
X133652380Y-98364523D01*
X133531428Y-98545952D01*
X133410476Y-98666904D01*
X133289523Y-98727380D01*
G04 #@! TO.C,R1*
D10*
X156183279Y-99464067D02*
X155707089Y-99797401D01*
X156183279Y-100035496D02*
X155183279Y-100035496D01*
X155183279Y-99654543D01*
X155230899Y-99559305D01*
X155278518Y-99511686D01*
X155373756Y-99464067D01*
X155516613Y-99464067D01*
X155611851Y-99511686D01*
X155659470Y-99559305D01*
X155707089Y-99654543D01*
X155707089Y-100035496D01*
X156183279Y-98511686D02*
X156183279Y-99083115D01*
X156183279Y-98797401D02*
X155183279Y-98797401D01*
X155326137Y-98892639D01*
X155421375Y-98987877D01*
X155468994Y-99083115D01*
G04 #@! TO.C,R2*
X163743032Y-91667279D02*
X163409699Y-91191089D01*
X163171603Y-91667279D02*
X163171603Y-90667279D01*
X163552556Y-90667279D01*
X163647794Y-90714899D01*
X163695413Y-90762518D01*
X163743032Y-90857756D01*
X163743032Y-91000613D01*
X163695413Y-91095851D01*
X163647794Y-91143470D01*
X163552556Y-91191089D01*
X163171603Y-91191089D01*
X164123984Y-90762518D02*
X164171603Y-90714899D01*
X164266841Y-90667279D01*
X164504937Y-90667279D01*
X164600175Y-90714899D01*
X164647794Y-90762518D01*
X164695413Y-90857756D01*
X164695413Y-90952994D01*
X164647794Y-91095851D01*
X164076365Y-91667279D01*
X164695413Y-91667279D01*
G04 #@! TO.C,R4*
X145465779Y-99353666D02*
X144989589Y-99687000D01*
X145465779Y-99925095D02*
X144465779Y-99925095D01*
X144465779Y-99544142D01*
X144513399Y-99448904D01*
X144561018Y-99401285D01*
X144656256Y-99353666D01*
X144799113Y-99353666D01*
X144894351Y-99401285D01*
X144941970Y-99448904D01*
X144989589Y-99544142D01*
X144989589Y-99925095D01*
X144799113Y-98496523D02*
X145465779Y-98496523D01*
X144418160Y-98734619D02*
X145132446Y-98972714D01*
X145132446Y-98353666D01*
G04 #@! TO.C,R5*
X121103381Y-99353666D02*
X120627191Y-99687000D01*
X121103381Y-99925095D02*
X120103381Y-99925095D01*
X120103381Y-99544142D01*
X120151001Y-99448904D01*
X120198620Y-99401285D01*
X120293858Y-99353666D01*
X120436715Y-99353666D01*
X120531953Y-99401285D01*
X120579572Y-99448904D01*
X120627191Y-99544142D01*
X120627191Y-99925095D01*
X120103381Y-98448904D02*
X120103381Y-98925095D01*
X120579572Y-98972714D01*
X120531953Y-98925095D01*
X120484334Y-98829857D01*
X120484334Y-98591761D01*
X120531953Y-98496523D01*
X120579572Y-98448904D01*
X120674810Y-98401285D01*
X120912905Y-98401285D01*
X121008143Y-98448904D01*
X121055762Y-98496523D01*
X121103381Y-98591761D01*
X121103381Y-98829857D01*
X121055762Y-98925095D01*
X121008143Y-98972714D01*
G04 #@! TO.C,R6*
X124671379Y-99328266D02*
X124195189Y-99661600D01*
X124671379Y-99899695D02*
X123671379Y-99899695D01*
X123671379Y-99518742D01*
X123718999Y-99423504D01*
X123766618Y-99375885D01*
X123861856Y-99328266D01*
X124004713Y-99328266D01*
X124099951Y-99375885D01*
X124147570Y-99423504D01*
X124195189Y-99518742D01*
X124195189Y-99899695D01*
X123671379Y-98471123D02*
X123671379Y-98661600D01*
X123718999Y-98756838D01*
X123766618Y-98804457D01*
X123909475Y-98899695D01*
X124099951Y-98947314D01*
X124480903Y-98947314D01*
X124576141Y-98899695D01*
X124623760Y-98852076D01*
X124671379Y-98756838D01*
X124671379Y-98566361D01*
X124623760Y-98471123D01*
X124576141Y-98423504D01*
X124480903Y-98375885D01*
X124242808Y-98375885D01*
X124147570Y-98423504D01*
X124099951Y-98471123D01*
X124052332Y-98566361D01*
X124052332Y-98756838D01*
X124099951Y-98852076D01*
X124147570Y-98899695D01*
X124242808Y-98947314D01*
G04 #@! TO.C,R7*
X114169034Y-77928981D02*
X113835701Y-77452791D01*
X113597605Y-77928981D02*
X113597605Y-76928981D01*
X113978558Y-76928981D01*
X114073796Y-76976601D01*
X114121415Y-77024220D01*
X114169034Y-77119458D01*
X114169034Y-77262315D01*
X114121415Y-77357553D01*
X114073796Y-77405172D01*
X113978558Y-77452791D01*
X113597605Y-77452791D01*
X114502367Y-76928981D02*
X115169034Y-76928981D01*
X114740462Y-77928981D01*
G04 #@! TO.C,R8*
X150899833Y-77901779D02*
X150566500Y-77425589D01*
X150328404Y-77901779D02*
X150328404Y-76901779D01*
X150709357Y-76901779D01*
X150804595Y-76949399D01*
X150852214Y-76997018D01*
X150899833Y-77092256D01*
X150899833Y-77235113D01*
X150852214Y-77330351D01*
X150804595Y-77377970D01*
X150709357Y-77425589D01*
X150328404Y-77425589D01*
X151471261Y-77330351D02*
X151376023Y-77282732D01*
X151328404Y-77235113D01*
X151280785Y-77139875D01*
X151280785Y-77092256D01*
X151328404Y-76997018D01*
X151376023Y-76949399D01*
X151471261Y-76901779D01*
X151661738Y-76901779D01*
X151756976Y-76949399D01*
X151804595Y-76997018D01*
X151852214Y-77092256D01*
X151852214Y-77139875D01*
X151804595Y-77235113D01*
X151756976Y-77282732D01*
X151661738Y-77330351D01*
X151471261Y-77330351D01*
X151376023Y-77377970D01*
X151328404Y-77425589D01*
X151280785Y-77520827D01*
X151280785Y-77711303D01*
X151328404Y-77806541D01*
X151376023Y-77854160D01*
X151471261Y-77901779D01*
X151661738Y-77901779D01*
X151756976Y-77854160D01*
X151804595Y-77806541D01*
X151852214Y-77711303D01*
X151852214Y-77520827D01*
X151804595Y-77425589D01*
X151756976Y-77377970D01*
X151661738Y-77330351D01*
G04 #@! TO.C,R9*
X141630881Y-99394165D02*
X141154691Y-99727499D01*
X141630881Y-99965594D02*
X140630881Y-99965594D01*
X140630881Y-99584641D01*
X140678501Y-99489403D01*
X140726120Y-99441784D01*
X140821358Y-99394165D01*
X140964215Y-99394165D01*
X141059453Y-99441784D01*
X141107072Y-99489403D01*
X141154691Y-99584641D01*
X141154691Y-99965594D01*
X141630881Y-98917975D02*
X141630881Y-98727499D01*
X141583262Y-98632260D01*
X141535643Y-98584641D01*
X141392786Y-98489403D01*
X141202310Y-98441784D01*
X140821358Y-98441784D01*
X140726120Y-98489403D01*
X140678501Y-98537022D01*
X140630881Y-98632260D01*
X140630881Y-98822737D01*
X140678501Y-98917975D01*
X140726120Y-98965594D01*
X140821358Y-99013213D01*
X141059453Y-99013213D01*
X141154691Y-98965594D01*
X141202310Y-98917975D01*
X141249929Y-98822737D01*
X141249929Y-98632260D01*
X141202310Y-98537022D01*
X141154691Y-98489403D01*
X141059453Y-98441784D01*
G04 #@! TO.C,R10*
X100893642Y-91688881D02*
X100560309Y-91212691D01*
X100322214Y-91688881D02*
X100322214Y-90688881D01*
X100703166Y-90688881D01*
X100798404Y-90736501D01*
X100846023Y-90784120D01*
X100893642Y-90879358D01*
X100893642Y-91022215D01*
X100846023Y-91117453D01*
X100798404Y-91165072D01*
X100703166Y-91212691D01*
X100322214Y-91212691D01*
X101846023Y-91688881D02*
X101274595Y-91688881D01*
X101560309Y-91688881D02*
X101560309Y-90688881D01*
X101465071Y-90831739D01*
X101369833Y-90926977D01*
X101274595Y-90974596D01*
X102465071Y-90688881D02*
X102560309Y-90688881D01*
X102655547Y-90736501D01*
X102703166Y-90784120D01*
X102750785Y-90879358D01*
X102798404Y-91069834D01*
X102798404Y-91307929D01*
X102750785Y-91498405D01*
X102703166Y-91593643D01*
X102655547Y-91641262D01*
X102560309Y-91688881D01*
X102465071Y-91688881D01*
X102369833Y-91641262D01*
X102322214Y-91593643D01*
X102274595Y-91498405D01*
X102226976Y-91307929D01*
X102226976Y-91069834D01*
X102274595Y-90879358D01*
X102322214Y-90784120D01*
X102369833Y-90736501D01*
X102465071Y-90688881D01*
G04 #@! TO.C,RV1*
X132119761Y-84780380D02*
X131786428Y-84304190D01*
X131548333Y-84780380D02*
X131548333Y-83780380D01*
X131929285Y-83780380D01*
X132024523Y-83828000D01*
X132072142Y-83875619D01*
X132119761Y-83970857D01*
X132119761Y-84113714D01*
X132072142Y-84208952D01*
X132024523Y-84256571D01*
X131929285Y-84304190D01*
X131548333Y-84304190D01*
X132405476Y-83780380D02*
X132738809Y-84780380D01*
X133072142Y-83780380D01*
X133929285Y-84780380D02*
X133357857Y-84780380D01*
X133643571Y-84780380D02*
X133643571Y-83780380D01*
X133548333Y-83923238D01*
X133453095Y-84018476D01*
X133357857Y-84066095D01*
G04 #@! TD*
M02*
