G04 #@! TF.GenerationSoftware,KiCad,Pcbnew,(5.1.7)-1*
G04 #@! TF.CreationDate,2021-09-25T21:35:04-05:00*
G04 #@! TF.ProjectId,ConsolePedal8Bitar,436f6e73-6f6c-4655-9065-64616c384269,rev?*
G04 #@! TF.SameCoordinates,Original*
G04 #@! TF.FileFunction,Copper,L2,Bot*
G04 #@! TF.FilePolarity,Positive*
%FSLAX46Y46*%
G04 Gerber Fmt 4.6, Leading zero omitted, Abs format (unit mm)*
G04 Created by KiCad (PCBNEW (5.1.7)-1) date 2021-09-25 21:35:04*
%MOMM*%
%LPD*%
G01*
G04 APERTURE LIST*
G04 #@! TA.AperFunction,ComponentPad*
%ADD10R,1.800000X1.800000*%
G04 #@! TD*
G04 #@! TA.AperFunction,ComponentPad*
%ADD11C,1.800000*%
G04 #@! TD*
G04 #@! TA.AperFunction,ComponentPad*
%ADD12C,5.000000*%
G04 #@! TD*
G04 #@! TA.AperFunction,ComponentPad*
%ADD13C,1.600000*%
G04 #@! TD*
G04 #@! TA.AperFunction,ComponentPad*
%ADD14O,1.600000X1.600000*%
G04 #@! TD*
G04 #@! TA.AperFunction,ComponentPad*
%ADD15O,2.000000X2.000000*%
G04 #@! TD*
G04 #@! TA.AperFunction,ComponentPad*
%ADD16R,2.000000X2.000000*%
G04 #@! TD*
G04 #@! TA.AperFunction,ComponentPad*
%ADD17R,2.200000X2.200000*%
G04 #@! TD*
G04 #@! TA.AperFunction,ComponentPad*
%ADD18O,2.200000X2.200000*%
G04 #@! TD*
G04 #@! TA.AperFunction,ComponentPad*
%ADD19R,1.130000X1.130000*%
G04 #@! TD*
G04 #@! TA.AperFunction,ComponentPad*
%ADD20C,1.130000*%
G04 #@! TD*
G04 #@! TA.AperFunction,ComponentPad*
%ADD21O,1.050000X1.500000*%
G04 #@! TD*
G04 #@! TA.AperFunction,ComponentPad*
%ADD22R,1.050000X1.500000*%
G04 #@! TD*
G04 #@! TA.AperFunction,WasherPad*
%ADD23C,4.000000*%
G04 #@! TD*
G04 #@! TA.AperFunction,ConnectorPad*
%ADD24R,1.500000X7.000000*%
G04 #@! TD*
G04 #@! TA.AperFunction,ViaPad*
%ADD25C,0.800000*%
G04 #@! TD*
G04 #@! TA.AperFunction,Conductor*
%ADD26C,0.500000*%
G04 #@! TD*
G04 #@! TA.AperFunction,Conductor*
%ADD27C,0.254000*%
G04 #@! TD*
G04 #@! TA.AperFunction,Conductor*
%ADD28C,0.100000*%
G04 #@! TD*
G04 APERTURE END LIST*
D10*
G04 #@! TO.P,D1,1*
G04 #@! TO.N,Net-(D1-Pad1)*
X115250000Y-95000000D03*
D11*
G04 #@! TO.P,D1,2*
G04 #@! TO.N,/LEDPower*
X115250000Y-97540000D03*
G04 #@! TD*
G04 #@! TO.P,D2,2*
G04 #@! TO.N,/LEDPower*
X150250000Y-97540000D03*
D10*
G04 #@! TO.P,D2,1*
G04 #@! TO.N,Net-(D1-Pad1)*
X150250000Y-95000000D03*
G04 #@! TD*
D12*
G04 #@! TO.P,H1,1*
G04 #@! TO.N,GND*
X85350000Y-122600000D03*
G04 #@! TD*
G04 #@! TO.P,H2,1*
G04 #@! TO.N,GND*
X180150000Y-122600000D03*
G04 #@! TD*
D13*
G04 #@! TO.P,R3,1*
G04 #@! TO.N,GND*
X109728000Y-104394000D03*
D14*
G04 #@! TO.P,R3,2*
G04 #@! TO.N,Net-(D1-Pad1)*
X109728000Y-94234000D03*
G04 #@! TD*
D13*
G04 #@! TO.P,C1,1*
G04 #@! TO.N,/pin5*
X155448000Y-87776000D03*
G04 #@! TO.P,C1,2*
G04 #@! TO.N,/Input*
X150448000Y-87776000D03*
G04 #@! TD*
G04 #@! TO.P,C2,2*
G04 #@! TO.N,/pin5*
X115316000Y-71736000D03*
G04 #@! TO.P,C2,1*
G04 #@! TO.N,/pin6*
X110316000Y-71736000D03*
G04 #@! TD*
G04 #@! TO.P,C3,1*
G04 #@! TO.N,/pin3*
X159258000Y-93834000D03*
G04 #@! TO.P,C3,2*
G04 #@! TO.N,/pin6*
X164258000Y-93834000D03*
G04 #@! TD*
G04 #@! TO.P,C4,2*
G04 #@! TO.N,/pin3*
X155448000Y-71736000D03*
G04 #@! TO.P,C4,1*
G04 #@! TO.N,/pin4*
X150448000Y-71736000D03*
G04 #@! TD*
D15*
G04 #@! TO.P,C5,2*
G04 #@! TO.N,GND*
X120715000Y-72376000D03*
D16*
G04 #@! TO.P,C5,1*
G04 #@! TO.N,+9V*
X120715000Y-87376000D03*
G04 #@! TD*
G04 #@! TO.P,C8,1*
G04 #@! TO.N,/pin10*
X144715000Y-87376000D03*
D15*
G04 #@! TO.P,C8,2*
G04 #@! TO.N,Net-(C8-Pad2)*
X144715000Y-72376000D03*
G04 #@! TD*
D17*
G04 #@! TO.P,D3,1*
G04 #@! TO.N,+9V*
X127698500Y-72390000D03*
D18*
G04 #@! TO.P,D3,2*
G04 #@! TO.N,GND*
X137858500Y-72390000D03*
G04 #@! TD*
D19*
G04 #@! TO.P,IC1,1*
G04 #@! TO.N,/pin1*
X125095000Y-98458000D03*
D20*
G04 #@! TO.P,IC1,2*
G04 #@! TO.N,/pin13*
X127635000Y-98458000D03*
G04 #@! TO.P,IC1,3*
G04 #@! TO.N,/pin3*
X130175000Y-98458000D03*
G04 #@! TO.P,IC1,4*
G04 #@! TO.N,/pin4*
X132715000Y-98458000D03*
G04 #@! TO.P,IC1,5*
G04 #@! TO.N,/pin5*
X135255000Y-98458000D03*
G04 #@! TO.P,IC1,6*
G04 #@! TO.N,/pin6*
X137795000Y-98458000D03*
G04 #@! TO.P,IC1,7*
G04 #@! TO.N,GND*
X140335000Y-98458000D03*
G04 #@! TO.P,IC1,8*
G04 #@! TO.N,/pin11*
X140335000Y-90518000D03*
G04 #@! TO.P,IC1,9*
G04 #@! TO.N,/pin9*
X137795000Y-90518000D03*
G04 #@! TO.P,IC1,10*
G04 #@! TO.N,/pin10*
X135255000Y-90518000D03*
G04 #@! TO.P,IC1,11*
G04 #@! TO.N,/pin11*
X132715000Y-90518000D03*
G04 #@! TO.P,IC1,12*
G04 #@! TO.N,/pin12*
X130175000Y-90518000D03*
G04 #@! TO.P,IC1,13*
G04 #@! TO.N,/pin13*
X127635000Y-90518000D03*
G04 #@! TO.P,IC1,14*
G04 #@! TO.N,+9V*
X125095000Y-90518000D03*
G04 #@! TD*
D21*
G04 #@! TO.P,Q1,2*
G04 #@! TO.N,Net-(C6-Pad1)*
X132715000Y-103124000D03*
G04 #@! TO.P,Q1,3*
G04 #@! TO.N,/pin9*
X133985000Y-103124000D03*
D22*
G04 #@! TO.P,Q1,1*
G04 #@! TO.N,Net-(C7-Pad2)*
X131445000Y-103124000D03*
G04 #@! TD*
D13*
G04 #@! TO.P,R1,1*
G04 #@! TO.N,/Input*
X155765500Y-104394000D03*
D14*
G04 #@! TO.P,R1,2*
G04 #@! TO.N,GND*
X155765500Y-94234000D03*
G04 #@! TD*
D13*
G04 #@! TO.P,R2,1*
G04 #@! TO.N,/pin6*
X164258000Y-89916000D03*
D14*
G04 #@! TO.P,R2,2*
G04 #@! TO.N,/pin5*
X164258000Y-79756000D03*
G04 #@! TD*
G04 #@! TO.P,R4,2*
G04 #@! TO.N,/pin3*
X159258000Y-89916000D03*
D13*
G04 #@! TO.P,R4,1*
G04 #@! TO.N,/pin4*
X159258000Y-79756000D03*
G04 #@! TD*
G04 #@! TO.P,R5,1*
G04 #@! TO.N,/pin1*
X106092000Y-89916000D03*
D14*
G04 #@! TO.P,R5,2*
G04 #@! TO.N,/pin4*
X106092000Y-79756000D03*
G04 #@! TD*
G04 #@! TO.P,R6,2*
G04 #@! TO.N,/pin1*
X101092000Y-89916000D03*
D13*
G04 #@! TO.P,R6,1*
G04 #@! TO.N,/pin12*
X101092000Y-79756000D03*
G04 #@! TD*
G04 #@! TO.P,R7,1*
G04 #@! TO.N,/pin12*
X117475000Y-101600000D03*
D14*
G04 #@! TO.P,R7,2*
G04 #@! TO.N,Net-(C6-Pad1)*
X127635000Y-101600000D03*
G04 #@! TD*
D13*
G04 #@! TO.P,R8,1*
G04 #@! TO.N,Net-(C6-Pad1)*
X137795000Y-101600000D03*
D14*
G04 #@! TO.P,R8,2*
G04 #@! TO.N,GND*
X147955000Y-101600000D03*
G04 #@! TD*
G04 #@! TO.P,R9,2*
G04 #@! TO.N,/pin9*
X137795000Y-105156000D03*
D13*
G04 #@! TO.P,R9,1*
G04 #@! TO.N,/pin10*
X147955000Y-105156000D03*
G04 #@! TD*
D14*
G04 #@! TO.P,R10,2*
G04 #@! TO.N,/pin11*
X117475000Y-105156000D03*
D13*
G04 #@! TO.P,R10,1*
G04 #@! TO.N,Net-(C7-Pad2)*
X127635000Y-105156000D03*
G04 #@! TD*
D11*
G04 #@! TO.P,RV1,3*
G04 #@! TO.N,GND*
X130215000Y-87500000D03*
G04 #@! TO.P,RV1,2*
G04 #@! TO.N,/Output*
X132715000Y-87500000D03*
G04 #@! TO.P,RV1,1*
G04 #@! TO.N,Net-(C8-Pad2)*
X135215000Y-87500000D03*
D23*
G04 #@! TO.P,RV1,*
G04 #@! TO.N,*
X128315000Y-80500000D03*
X137115000Y-80500000D03*
G04 #@! TD*
D13*
G04 #@! TO.P,C6,2*
G04 #@! TO.N,/pin12*
X110316000Y-87268000D03*
G04 #@! TO.P,C6,1*
G04 #@! TO.N,Net-(C6-Pad1)*
X115316000Y-87268000D03*
G04 #@! TD*
G04 #@! TO.P,C7,1*
G04 #@! TO.N,GND*
X101092000Y-93834000D03*
G04 #@! TO.P,C7,2*
G04 #@! TO.N,Net-(C7-Pad2)*
X106092000Y-93834000D03*
G04 #@! TD*
D24*
G04 #@! TO.P,J1,50*
G04 #@! TO.N,GND*
X163195000Y-126000000D03*
G04 #@! TO.P,J1,49*
X160655000Y-126000000D03*
G04 #@! TO.P,J1,48*
G04 #@! TO.N,/Input*
X158115000Y-126000000D03*
G04 #@! TO.P,J1,47*
G04 #@! TO.N,/Output*
X155575000Y-126000000D03*
G04 #@! TO.P,J1,46*
G04 #@! TO.N,+9V*
X153035000Y-126000000D03*
G04 #@! TO.P,J1,45*
G04 #@! TO.N,/LEDPower*
X150495000Y-126000000D03*
G04 #@! TO.P,J1,44*
G04 #@! TO.N,N/C*
X147955000Y-126000000D03*
G04 #@! TO.P,J1,43*
X145415000Y-126000000D03*
G04 #@! TO.P,J1,42*
X142875000Y-126000000D03*
G04 #@! TO.P,J1,41*
X140335000Y-126000000D03*
G04 #@! TO.P,J1,40*
X137795000Y-126000000D03*
G04 #@! TO.P,J1,39*
X135255000Y-126000000D03*
G04 #@! TO.P,J1,38*
X132715000Y-126000000D03*
G04 #@! TO.P,J1,37*
X130175000Y-126000000D03*
G04 #@! TO.P,J1,36*
X127635000Y-126000000D03*
G04 #@! TO.P,J1,35*
X125095000Y-126000000D03*
G04 #@! TO.P,J1,34*
X122555000Y-126000000D03*
G04 #@! TO.P,J1,33*
X120015000Y-126000000D03*
G04 #@! TO.P,J1,32*
X117475000Y-126000000D03*
G04 #@! TO.P,J1,31*
G04 #@! TO.N,/LEDPower*
X114935000Y-126000000D03*
G04 #@! TO.P,J1,30*
G04 #@! TO.N,+9V*
X112395000Y-126000000D03*
G04 #@! TO.P,J1,29*
G04 #@! TO.N,/Output*
X109855000Y-126000000D03*
G04 #@! TO.P,J1,28*
G04 #@! TO.N,/Input*
X107315000Y-126000000D03*
G04 #@! TO.P,J1,27*
G04 #@! TO.N,GND*
X104775000Y-126000000D03*
G04 #@! TO.P,J1,26*
X102235000Y-126000000D03*
G04 #@! TD*
D25*
G04 #@! TO.N,GND*
X105156000Y-120904000D03*
X102616000Y-120904000D03*
X160528000Y-120904000D03*
X163068000Y-120904000D03*
X131572000Y-106172000D03*
X134112000Y-106172000D03*
X114300000Y-106172000D03*
X109220000Y-97028000D03*
X133604000Y-96520000D03*
X141732000Y-79756000D03*
X147828000Y-79756000D03*
X135636000Y-92964000D03*
X147828000Y-97028000D03*
X156972000Y-97028000D03*
X140208000Y-101092000D03*
G04 #@! TO.N,/LEDPower*
X115316000Y-120904000D03*
X150368000Y-120904000D03*
G04 #@! TO.N,/Input*
X107696000Y-120904000D03*
X157988000Y-120904000D03*
G04 #@! TO.N,/Output*
X110236000Y-120904000D03*
X155448000Y-120904000D03*
X111252000Y-96520000D03*
G04 #@! TO.N,+9V*
X112776000Y-120904000D03*
X152908000Y-120904000D03*
X112776000Y-96012000D03*
G04 #@! TO.N,/pin5*
X146304000Y-97028000D03*
G04 #@! TO.N,/pin6*
X129540000Y-100076000D03*
G04 #@! TO.N,/pin4*
X138176000Y-92964000D03*
X133096000Y-92964000D03*
G04 #@! TO.N,/pin11*
X124968000Y-100076000D03*
G04 #@! TD*
D26*
G04 #@! TO.N,GND*
X104775000Y-121285000D02*
X105156000Y-120904000D01*
X104775000Y-126000000D02*
X104775000Y-121285000D01*
X102235000Y-121285000D02*
X102616000Y-120904000D01*
X102235000Y-126000000D02*
X102235000Y-121285000D01*
X160655000Y-121031000D02*
X160528000Y-120904000D01*
X160655000Y-126000000D02*
X160655000Y-121031000D01*
X163195000Y-121031000D02*
X163068000Y-120904000D01*
X163195000Y-126000000D02*
X163195000Y-121031000D01*
G04 #@! TO.N,/LEDPower*
X114935000Y-121285000D02*
X115316000Y-120904000D01*
X114935000Y-126000000D02*
X114935000Y-121285000D01*
X150495000Y-121031000D02*
X150368000Y-120904000D01*
X150495000Y-126000000D02*
X150495000Y-121031000D01*
X115316000Y-120904000D02*
X150368000Y-120904000D01*
G04 #@! TO.N,/Input*
X107315000Y-121285000D02*
X107696000Y-120904000D01*
X107315000Y-126000000D02*
X107315000Y-121285000D01*
X158115000Y-121031000D02*
X157988000Y-120904000D01*
X158115000Y-126000000D02*
X158115000Y-121031000D01*
X155737979Y-118653979D02*
X157988000Y-120904000D01*
X109946021Y-118653979D02*
X155737979Y-118653979D01*
X107696000Y-120904000D02*
X109946021Y-118653979D01*
G04 #@! TO.N,/Output*
X109855000Y-121285000D02*
X110236000Y-120904000D01*
X109855000Y-126000000D02*
X109855000Y-121285000D01*
X155575000Y-121031000D02*
X155448000Y-120904000D01*
X155575000Y-126000000D02*
X155575000Y-121031000D01*
X153897989Y-119353989D02*
X155448000Y-120904000D01*
X111786011Y-119353989D02*
X153897989Y-119353989D01*
X110236000Y-120904000D02*
X111786011Y-119353989D01*
X119354999Y-85925999D02*
X131140999Y-85925999D01*
X131140999Y-85925999D02*
X132715000Y-87500000D01*
X111252000Y-94028998D02*
X119354999Y-85925999D01*
X111252000Y-96520000D02*
X111252000Y-94028998D01*
G04 #@! TO.N,+9V*
X112395000Y-121285000D02*
X112776000Y-120904000D01*
X112395000Y-126000000D02*
X112395000Y-121285000D01*
X153035000Y-121031000D02*
X152908000Y-120904000D01*
X153035000Y-126000000D02*
X153035000Y-121031000D01*
X152057999Y-120053999D02*
X152908000Y-120904000D01*
X113626001Y-120053999D02*
X152057999Y-120053999D01*
X112776000Y-120904000D02*
X113626001Y-120053999D01*
X120263998Y-87376000D02*
X120715000Y-87376000D01*
X112776000Y-94863998D02*
X120263998Y-87376000D01*
X112776000Y-96012000D02*
X112776000Y-94863998D01*
G04 #@! TO.N,Net-(D1-Pad1)*
X115250000Y-95000000D02*
X150250000Y-95000000D01*
G04 #@! TO.N,/pin5*
X136685000Y-97028000D02*
X135255000Y-98458000D01*
X146304000Y-97028000D02*
X136685000Y-97028000D01*
G04 #@! TO.N,/pin6*
X138810001Y-99473001D02*
X159098999Y-99473001D01*
X137795000Y-98458000D02*
X138810001Y-99473001D01*
X164258000Y-94314000D02*
X164258000Y-93834000D01*
X159098999Y-99473001D02*
X164258000Y-94314000D01*
X127534991Y-107106011D02*
X116585046Y-107106011D01*
X128885001Y-105756001D02*
X127534991Y-107106011D01*
X116585046Y-107106011D02*
X104841999Y-95362964D01*
X128885001Y-104555999D02*
X128885001Y-105756001D01*
X128235001Y-103905999D02*
X128885001Y-104555999D01*
X104841999Y-95362964D02*
X104841999Y-77210001D01*
X127034999Y-103905999D02*
X128235001Y-103905999D01*
X125376001Y-102247001D02*
X127034999Y-103905999D01*
X125376001Y-100926001D02*
X125376001Y-102247001D01*
X126226002Y-100076000D02*
X125376001Y-100926001D01*
X104841999Y-77210001D02*
X110316000Y-71736000D01*
X129540000Y-100076000D02*
X126226002Y-100076000D01*
G04 #@! TO.N,/pin3*
X133817999Y-99473001D02*
X137468998Y-103124000D01*
X131190001Y-99473001D02*
X133817999Y-99473001D01*
X130175000Y-98458000D02*
X131190001Y-99473001D01*
X137468998Y-103124000D02*
X162560000Y-103124000D01*
X162560000Y-103124000D02*
X170688000Y-94996000D01*
X170688000Y-94996000D02*
X170688000Y-89916000D01*
X170688000Y-89916000D02*
X167132000Y-86360000D01*
X162814000Y-86360000D02*
X159258000Y-89916000D01*
X167132000Y-86360000D02*
X162814000Y-86360000D01*
G04 #@! TO.N,/pin4*
X156617998Y-79756000D02*
X159258000Y-79756000D01*
X143409998Y-92964000D02*
X156617998Y-79756000D01*
X138176000Y-92964000D02*
X143409998Y-92964000D01*
X109286001Y-82950001D02*
X106092000Y-79756000D01*
X136565001Y-86851999D02*
X132663003Y-82950001D01*
X136565001Y-88148001D02*
X136565001Y-86851999D01*
X135863001Y-88850001D02*
X136565001Y-88148001D01*
X135420797Y-88850001D02*
X135863001Y-88850001D01*
X134239999Y-90030799D02*
X135420797Y-88850001D01*
X134239999Y-91820001D02*
X134239999Y-90030799D01*
X132663003Y-82950001D02*
X109286001Y-82950001D01*
X133096000Y-92964000D02*
X134239999Y-91820001D01*
G04 #@! TO.N,Net-(C7-Pad2)*
X106092000Y-95623002D02*
X106092000Y-93834000D01*
X116874999Y-106406001D02*
X106092000Y-95623002D01*
X126384999Y-106406001D02*
X116874999Y-106406001D01*
X127635000Y-105156000D02*
X126384999Y-106406001D01*
G04 #@! TO.N,/pin1*
X107342001Y-93868003D02*
X107342001Y-91166001D01*
X112363999Y-98890001D02*
X107342001Y-93868003D01*
X124662999Y-98890001D02*
X112363999Y-98890001D01*
X107342001Y-91166001D02*
X106092000Y-89916000D01*
X125095000Y-98458000D02*
X124662999Y-98890001D01*
G04 #@! TO.N,/pin11*
X122555000Y-100076000D02*
X117475000Y-105156000D01*
X124968000Y-100076000D02*
X122555000Y-100076000D01*
G04 #@! TD*
D27*
G04 #@! TO.N,GND*
X109207576Y-70826340D02*
X109051409Y-71060062D01*
X108943838Y-71319759D01*
X108889000Y-71595453D01*
X108889000Y-71876547D01*
X108896663Y-71915072D01*
X104252326Y-76559409D01*
X104218867Y-76586868D01*
X104191408Y-76620327D01*
X104191405Y-76620330D01*
X104109273Y-76720409D01*
X104027837Y-76872765D01*
X103977689Y-77038079D01*
X103960756Y-77210001D01*
X103965000Y-77253091D01*
X103964999Y-95319884D01*
X103960756Y-95362964D01*
X103973228Y-95489592D01*
X103977689Y-95534885D01*
X104027837Y-95700200D01*
X104109272Y-95852555D01*
X104218866Y-95986097D01*
X104252331Y-96013561D01*
X115934449Y-107695679D01*
X115961913Y-107729144D01*
X116095454Y-107838738D01*
X116247809Y-107920173D01*
X116413124Y-107970321D01*
X116541967Y-107983011D01*
X116541976Y-107983011D01*
X116585045Y-107987253D01*
X116628115Y-107983011D01*
X127491912Y-107983011D01*
X127534991Y-107987254D01*
X127578070Y-107983011D01*
X127706913Y-107970321D01*
X127872228Y-107920173D01*
X128024583Y-107838738D01*
X128158124Y-107729144D01*
X128185588Y-107695679D01*
X129474669Y-106406598D01*
X129508134Y-106379134D01*
X129617728Y-106245593D01*
X129699163Y-106093238D01*
X129749311Y-105927923D01*
X129762001Y-105799080D01*
X129762001Y-105799071D01*
X129766243Y-105756002D01*
X129762001Y-105712932D01*
X129762001Y-104599078D01*
X129766244Y-104555999D01*
X129749311Y-104384076D01*
X129699163Y-104218762D01*
X129623882Y-104077921D01*
X129617728Y-104066407D01*
X129560696Y-103996913D01*
X129535595Y-103966327D01*
X129535593Y-103966325D01*
X129508134Y-103932866D01*
X129474676Y-103905408D01*
X128885597Y-103316330D01*
X128858134Y-103282866D01*
X128724593Y-103173272D01*
X128572238Y-103091837D01*
X128406923Y-103041689D01*
X128278080Y-103028999D01*
X128235001Y-103024756D01*
X128191922Y-103028999D01*
X127398264Y-103028999D01*
X127371885Y-103002620D01*
X127494453Y-103027000D01*
X127775547Y-103027000D01*
X128051241Y-102972162D01*
X128310938Y-102864591D01*
X128544660Y-102708424D01*
X128743424Y-102509660D01*
X128834068Y-102374000D01*
X130289967Y-102374000D01*
X130289967Y-103874000D01*
X130302073Y-103996913D01*
X130337925Y-104115103D01*
X130396147Y-104224028D01*
X130474499Y-104319501D01*
X130569972Y-104397853D01*
X130678897Y-104456075D01*
X130797087Y-104491927D01*
X130920000Y-104504033D01*
X131970000Y-104504033D01*
X132092913Y-104491927D01*
X132211103Y-104456075D01*
X132278052Y-104420290D01*
X132489170Y-104484332D01*
X132715000Y-104506574D01*
X132940831Y-104484332D01*
X133157984Y-104418459D01*
X133350000Y-104315825D01*
X133542017Y-104418459D01*
X133759170Y-104484332D01*
X133985000Y-104506574D01*
X134210831Y-104484332D01*
X134427984Y-104418459D01*
X134628114Y-104311488D01*
X134803528Y-104167528D01*
X134947488Y-103992114D01*
X135054459Y-103791983D01*
X135120332Y-103574830D01*
X135137000Y-103405594D01*
X135137000Y-102842405D01*
X135120332Y-102673169D01*
X135054459Y-102456016D01*
X134947488Y-102255886D01*
X134803528Y-102080472D01*
X134628113Y-101936512D01*
X134427983Y-101829541D01*
X134210830Y-101763668D01*
X133985000Y-101741426D01*
X133759169Y-101763668D01*
X133542016Y-101829541D01*
X133350000Y-101932175D01*
X133157983Y-101829541D01*
X132940830Y-101763668D01*
X132715000Y-101741426D01*
X132489169Y-101763668D01*
X132278052Y-101827710D01*
X132211103Y-101791925D01*
X132092913Y-101756073D01*
X131970000Y-101743967D01*
X130920000Y-101743967D01*
X130797087Y-101756073D01*
X130678897Y-101791925D01*
X130569972Y-101850147D01*
X130474499Y-101928499D01*
X130396147Y-102023972D01*
X130337925Y-102132897D01*
X130302073Y-102251087D01*
X130289967Y-102374000D01*
X128834068Y-102374000D01*
X128899591Y-102275938D01*
X129007162Y-102016241D01*
X129062000Y-101740547D01*
X129062000Y-101459453D01*
X129007162Y-101183759D01*
X128911578Y-100953000D01*
X129003973Y-100953000D01*
X129053533Y-100986115D01*
X129240435Y-101063533D01*
X129438849Y-101103000D01*
X129641151Y-101103000D01*
X129839565Y-101063533D01*
X130026467Y-100986115D01*
X130194674Y-100873723D01*
X130337723Y-100730674D01*
X130450115Y-100562467D01*
X130527533Y-100375565D01*
X130567000Y-100177151D01*
X130567000Y-100096242D01*
X130700409Y-100205728D01*
X130852764Y-100287163D01*
X131018079Y-100337311D01*
X131146922Y-100350001D01*
X131146923Y-100350001D01*
X131190000Y-100354244D01*
X131233077Y-100350001D01*
X133454734Y-100350001D01*
X136818401Y-103713668D01*
X136845865Y-103747133D01*
X136979406Y-103856727D01*
X137085832Y-103913613D01*
X136885340Y-104047576D01*
X136686576Y-104246340D01*
X136530409Y-104480062D01*
X136422838Y-104739759D01*
X136368000Y-105015453D01*
X136368000Y-105296547D01*
X136422838Y-105572241D01*
X136530409Y-105831938D01*
X136686576Y-106065660D01*
X136885340Y-106264424D01*
X137119062Y-106420591D01*
X137378759Y-106528162D01*
X137654453Y-106583000D01*
X137935547Y-106583000D01*
X138211241Y-106528162D01*
X138470938Y-106420591D01*
X138704660Y-106264424D01*
X138903424Y-106065660D01*
X139059591Y-105831938D01*
X139167162Y-105572241D01*
X139222000Y-105296547D01*
X139222000Y-105015453D01*
X139167162Y-104739759D01*
X139059591Y-104480062D01*
X138903424Y-104246340D01*
X138704660Y-104047576D01*
X138634954Y-104001000D01*
X147115046Y-104001000D01*
X147045340Y-104047576D01*
X146846576Y-104246340D01*
X146690409Y-104480062D01*
X146582838Y-104739759D01*
X146528000Y-105015453D01*
X146528000Y-105296547D01*
X146582838Y-105572241D01*
X146690409Y-105831938D01*
X146846576Y-106065660D01*
X147045340Y-106264424D01*
X147279062Y-106420591D01*
X147538759Y-106528162D01*
X147814453Y-106583000D01*
X148095547Y-106583000D01*
X148371241Y-106528162D01*
X148630938Y-106420591D01*
X148864660Y-106264424D01*
X149063424Y-106065660D01*
X149219591Y-105831938D01*
X149327162Y-105572241D01*
X149382000Y-105296547D01*
X149382000Y-105015453D01*
X149327162Y-104739759D01*
X149219591Y-104480062D01*
X149063424Y-104246340D01*
X148864660Y-104047576D01*
X148794954Y-104001000D01*
X154388715Y-104001000D01*
X154338500Y-104253453D01*
X154338500Y-104534547D01*
X154393338Y-104810241D01*
X154500909Y-105069938D01*
X154657076Y-105303660D01*
X154855840Y-105502424D01*
X155089562Y-105658591D01*
X155349259Y-105766162D01*
X155624953Y-105821000D01*
X155906047Y-105821000D01*
X156181741Y-105766162D01*
X156441438Y-105658591D01*
X156675160Y-105502424D01*
X156873924Y-105303660D01*
X157030091Y-105069938D01*
X157137662Y-104810241D01*
X157192500Y-104534547D01*
X157192500Y-104253453D01*
X157142285Y-104001000D01*
X162516921Y-104001000D01*
X162560000Y-104005243D01*
X162603079Y-104001000D01*
X162731922Y-103988310D01*
X162897237Y-103938162D01*
X163049592Y-103856727D01*
X163183133Y-103747133D01*
X163210597Y-103713668D01*
X171277675Y-95646591D01*
X171311133Y-95619133D01*
X171338944Y-95585246D01*
X171420726Y-95485593D01*
X171420728Y-95485591D01*
X171502162Y-95333237D01*
X171524287Y-95260300D01*
X171552310Y-95167923D01*
X171569243Y-94996000D01*
X171565000Y-94952921D01*
X171565000Y-89959069D01*
X171569242Y-89915999D01*
X171565000Y-89872930D01*
X171565000Y-89872921D01*
X171552310Y-89744078D01*
X171502162Y-89578763D01*
X171420727Y-89426408D01*
X171311133Y-89292867D01*
X171277668Y-89265403D01*
X167782597Y-85770332D01*
X167755133Y-85736867D01*
X167621592Y-85627273D01*
X167469237Y-85545838D01*
X167303922Y-85495690D01*
X167175079Y-85483000D01*
X167132000Y-85478757D01*
X167088921Y-85483000D01*
X162857069Y-85483000D01*
X162813999Y-85478758D01*
X162770930Y-85483000D01*
X162770921Y-85483000D01*
X162642078Y-85495690D01*
X162476763Y-85545838D01*
X162324408Y-85627273D01*
X162190867Y-85736867D01*
X162163403Y-85770332D01*
X159437072Y-88496663D01*
X159398547Y-88489000D01*
X159117453Y-88489000D01*
X158841759Y-88543838D01*
X158582062Y-88651409D01*
X158348340Y-88807576D01*
X158149576Y-89006340D01*
X157993409Y-89240062D01*
X157885838Y-89499759D01*
X157831000Y-89775453D01*
X157831000Y-90056547D01*
X157885838Y-90332241D01*
X157993409Y-90591938D01*
X158149576Y-90825660D01*
X158348340Y-91024424D01*
X158582062Y-91180591D01*
X158841759Y-91288162D01*
X159117453Y-91343000D01*
X159398547Y-91343000D01*
X159674241Y-91288162D01*
X159933938Y-91180591D01*
X160167660Y-91024424D01*
X160366424Y-90825660D01*
X160522591Y-90591938D01*
X160630162Y-90332241D01*
X160685000Y-90056547D01*
X160685000Y-89775453D01*
X162831000Y-89775453D01*
X162831000Y-90056547D01*
X162885838Y-90332241D01*
X162993409Y-90591938D01*
X163149576Y-90825660D01*
X163348340Y-91024424D01*
X163582062Y-91180591D01*
X163841759Y-91288162D01*
X164117453Y-91343000D01*
X164398547Y-91343000D01*
X164674241Y-91288162D01*
X164933938Y-91180591D01*
X165167660Y-91024424D01*
X165366424Y-90825660D01*
X165522591Y-90591938D01*
X165630162Y-90332241D01*
X165685000Y-90056547D01*
X165685000Y-89775453D01*
X165630162Y-89499759D01*
X165522591Y-89240062D01*
X165366424Y-89006340D01*
X165167660Y-88807576D01*
X164933938Y-88651409D01*
X164674241Y-88543838D01*
X164398547Y-88489000D01*
X164117453Y-88489000D01*
X163841759Y-88543838D01*
X163582062Y-88651409D01*
X163348340Y-88807576D01*
X163149576Y-89006340D01*
X162993409Y-89240062D01*
X162885838Y-89499759D01*
X162831000Y-89775453D01*
X160685000Y-89775453D01*
X160677337Y-89736928D01*
X163177265Y-87237000D01*
X166768735Y-87237000D01*
X169811001Y-90279266D01*
X169811000Y-94632734D01*
X162196735Y-102247000D01*
X149228773Y-102247000D01*
X149306246Y-102083087D01*
X149346904Y-101949039D01*
X149224915Y-101727000D01*
X148082000Y-101727000D01*
X148082000Y-101747000D01*
X147828000Y-101747000D01*
X147828000Y-101727000D01*
X146685085Y-101727000D01*
X146563096Y-101949039D01*
X146603754Y-102083087D01*
X146681227Y-102247000D01*
X139071578Y-102247000D01*
X139167162Y-102016241D01*
X139222000Y-101740547D01*
X139222000Y-101459453D01*
X139167162Y-101183759D01*
X139059591Y-100924062D01*
X138903424Y-100690340D01*
X138704660Y-100491576D01*
X138470938Y-100335409D01*
X138211241Y-100227838D01*
X137935547Y-100173000D01*
X137654453Y-100173000D01*
X137378759Y-100227838D01*
X137119062Y-100335409D01*
X136885340Y-100491576D01*
X136686576Y-100690340D01*
X136530409Y-100924062D01*
X136524234Y-100938971D01*
X135235263Y-99650000D01*
X135372402Y-99650000D01*
X135602694Y-99604193D01*
X135819624Y-99514337D01*
X136014856Y-99383887D01*
X136180887Y-99217856D01*
X136311337Y-99022624D01*
X136401193Y-98805694D01*
X136447000Y-98575402D01*
X136447000Y-98506265D01*
X136603000Y-98350265D01*
X136603000Y-98575402D01*
X136648807Y-98805694D01*
X136738663Y-99022624D01*
X136869113Y-99217856D01*
X137035144Y-99383887D01*
X137230376Y-99514337D01*
X137447306Y-99604193D01*
X137677598Y-99650000D01*
X137746735Y-99650000D01*
X138159404Y-100062669D01*
X138186868Y-100096134D01*
X138320409Y-100205728D01*
X138472764Y-100287163D01*
X138638079Y-100337311D01*
X138766922Y-100350001D01*
X138766923Y-100350001D01*
X138810000Y-100354244D01*
X138853077Y-100350001D01*
X147262632Y-100350001D01*
X147099869Y-100447615D01*
X146891481Y-100636586D01*
X146723963Y-100862580D01*
X146603754Y-101116913D01*
X146563096Y-101250961D01*
X146685085Y-101473000D01*
X147828000Y-101473000D01*
X147828000Y-101453000D01*
X148082000Y-101453000D01*
X148082000Y-101473000D01*
X149224915Y-101473000D01*
X149346904Y-101250961D01*
X149306246Y-101116913D01*
X149186037Y-100862580D01*
X149018519Y-100636586D01*
X148810131Y-100447615D01*
X148647368Y-100350001D01*
X159055920Y-100350001D01*
X159098999Y-100354244D01*
X159142078Y-100350001D01*
X159270921Y-100337311D01*
X159436236Y-100287163D01*
X159588591Y-100205728D01*
X159722132Y-100096134D01*
X159749596Y-100062669D01*
X164589185Y-95223080D01*
X164674241Y-95206162D01*
X164933938Y-95098591D01*
X165167660Y-94942424D01*
X165366424Y-94743660D01*
X165522591Y-94509938D01*
X165630162Y-94250241D01*
X165685000Y-93974547D01*
X165685000Y-93693453D01*
X165630162Y-93417759D01*
X165522591Y-93158062D01*
X165366424Y-92924340D01*
X165167660Y-92725576D01*
X164933938Y-92569409D01*
X164674241Y-92461838D01*
X164398547Y-92407000D01*
X164117453Y-92407000D01*
X163841759Y-92461838D01*
X163582062Y-92569409D01*
X163348340Y-92725576D01*
X163149576Y-92924340D01*
X162993409Y-93158062D01*
X162885838Y-93417759D01*
X162831000Y-93693453D01*
X162831000Y-93974547D01*
X162885838Y-94250241D01*
X162943145Y-94388590D01*
X158735734Y-98596001D01*
X151353504Y-98596001D01*
X151436099Y-98513406D01*
X151603210Y-98263306D01*
X151718319Y-97985410D01*
X151777000Y-97690396D01*
X151777000Y-97389604D01*
X151718319Y-97094590D01*
X151603210Y-96816694D01*
X151436099Y-96566594D01*
X151360779Y-96491274D01*
X151391103Y-96482075D01*
X151500028Y-96423853D01*
X151595501Y-96345501D01*
X151673853Y-96250028D01*
X151732075Y-96141103D01*
X151767927Y-96022913D01*
X151780033Y-95900000D01*
X151780033Y-94583040D01*
X154373591Y-94583040D01*
X154468430Y-94847881D01*
X154613115Y-95089131D01*
X154802086Y-95297519D01*
X155028080Y-95465037D01*
X155282413Y-95585246D01*
X155416461Y-95625904D01*
X155638500Y-95503915D01*
X155638500Y-94361000D01*
X155892500Y-94361000D01*
X155892500Y-95503915D01*
X156114539Y-95625904D01*
X156248587Y-95585246D01*
X156502920Y-95465037D01*
X156728914Y-95297519D01*
X156917885Y-95089131D01*
X157062570Y-94847881D01*
X157157409Y-94583040D01*
X157036124Y-94361000D01*
X155892500Y-94361000D01*
X155638500Y-94361000D01*
X154494876Y-94361000D01*
X154373591Y-94583040D01*
X151780033Y-94583040D01*
X151780033Y-94100000D01*
X151767927Y-93977087D01*
X151739982Y-93884960D01*
X154373591Y-93884960D01*
X154494876Y-94107000D01*
X155638500Y-94107000D01*
X155638500Y-92964085D01*
X155892500Y-92964085D01*
X155892500Y-94107000D01*
X157036124Y-94107000D01*
X157157409Y-93884960D01*
X157088831Y-93693453D01*
X157831000Y-93693453D01*
X157831000Y-93974547D01*
X157885838Y-94250241D01*
X157993409Y-94509938D01*
X158149576Y-94743660D01*
X158348340Y-94942424D01*
X158582062Y-95098591D01*
X158841759Y-95206162D01*
X159117453Y-95261000D01*
X159398547Y-95261000D01*
X159674241Y-95206162D01*
X159933938Y-95098591D01*
X160167660Y-94942424D01*
X160366424Y-94743660D01*
X160522591Y-94509938D01*
X160630162Y-94250241D01*
X160685000Y-93974547D01*
X160685000Y-93693453D01*
X160630162Y-93417759D01*
X160522591Y-93158062D01*
X160366424Y-92924340D01*
X160167660Y-92725576D01*
X159933938Y-92569409D01*
X159674241Y-92461838D01*
X159398547Y-92407000D01*
X159117453Y-92407000D01*
X158841759Y-92461838D01*
X158582062Y-92569409D01*
X158348340Y-92725576D01*
X158149576Y-92924340D01*
X157993409Y-93158062D01*
X157885838Y-93417759D01*
X157831000Y-93693453D01*
X157088831Y-93693453D01*
X157062570Y-93620119D01*
X156917885Y-93378869D01*
X156728914Y-93170481D01*
X156502920Y-93002963D01*
X156248587Y-92882754D01*
X156114539Y-92842096D01*
X155892500Y-92964085D01*
X155638500Y-92964085D01*
X155416461Y-92842096D01*
X155282413Y-92882754D01*
X155028080Y-93002963D01*
X154802086Y-93170481D01*
X154613115Y-93378869D01*
X154468430Y-93620119D01*
X154373591Y-93884960D01*
X151739982Y-93884960D01*
X151732075Y-93858897D01*
X151673853Y-93749972D01*
X151595501Y-93654499D01*
X151500028Y-93576147D01*
X151391103Y-93517925D01*
X151272913Y-93482073D01*
X151150000Y-93469967D01*
X149350000Y-93469967D01*
X149227087Y-93482073D01*
X149108897Y-93517925D01*
X148999972Y-93576147D01*
X148904499Y-93654499D01*
X148826147Y-93749972D01*
X148767925Y-93858897D01*
X148732073Y-93977087D01*
X148719967Y-94100000D01*
X148719967Y-94123000D01*
X116780033Y-94123000D01*
X116780033Y-94100000D01*
X116767927Y-93977087D01*
X116732075Y-93858897D01*
X116673853Y-93749972D01*
X116595501Y-93654499D01*
X116500028Y-93576147D01*
X116391103Y-93517925D01*
X116272913Y-93482073D01*
X116150000Y-93469967D01*
X115410296Y-93469967D01*
X118479665Y-90400598D01*
X123903000Y-90400598D01*
X123903000Y-90635402D01*
X123948807Y-90865694D01*
X124038663Y-91082624D01*
X124169113Y-91277856D01*
X124335144Y-91443887D01*
X124530376Y-91574337D01*
X124747306Y-91664193D01*
X124977598Y-91710000D01*
X125212402Y-91710000D01*
X125442694Y-91664193D01*
X125659624Y-91574337D01*
X125854856Y-91443887D01*
X126020887Y-91277856D01*
X126151337Y-91082624D01*
X126241193Y-90865694D01*
X126287000Y-90635402D01*
X126287000Y-90400598D01*
X126443000Y-90400598D01*
X126443000Y-90635402D01*
X126488807Y-90865694D01*
X126578663Y-91082624D01*
X126709113Y-91277856D01*
X126875144Y-91443887D01*
X127070376Y-91574337D01*
X127287306Y-91664193D01*
X127517598Y-91710000D01*
X127752402Y-91710000D01*
X127982694Y-91664193D01*
X128199624Y-91574337D01*
X128394856Y-91443887D01*
X128560887Y-91277856D01*
X128691337Y-91082624D01*
X128781193Y-90865694D01*
X128827000Y-90635402D01*
X128827000Y-90400598D01*
X128983000Y-90400598D01*
X128983000Y-90635402D01*
X129028807Y-90865694D01*
X129118663Y-91082624D01*
X129249113Y-91277856D01*
X129415144Y-91443887D01*
X129610376Y-91574337D01*
X129827306Y-91664193D01*
X130057598Y-91710000D01*
X130292402Y-91710000D01*
X130522694Y-91664193D01*
X130739624Y-91574337D01*
X130934856Y-91443887D01*
X131100887Y-91277856D01*
X131231337Y-91082624D01*
X131321193Y-90865694D01*
X131367000Y-90635402D01*
X131367000Y-90400598D01*
X131321193Y-90170306D01*
X131231337Y-89953376D01*
X131100887Y-89758144D01*
X130934856Y-89592113D01*
X130739624Y-89461663D01*
X130522694Y-89371807D01*
X130292402Y-89326000D01*
X130057598Y-89326000D01*
X129827306Y-89371807D01*
X129610376Y-89461663D01*
X129415144Y-89592113D01*
X129249113Y-89758144D01*
X129118663Y-89953376D01*
X129028807Y-90170306D01*
X128983000Y-90400598D01*
X128827000Y-90400598D01*
X128781193Y-90170306D01*
X128691337Y-89953376D01*
X128560887Y-89758144D01*
X128394856Y-89592113D01*
X128199624Y-89461663D01*
X127982694Y-89371807D01*
X127752402Y-89326000D01*
X127517598Y-89326000D01*
X127287306Y-89371807D01*
X127070376Y-89461663D01*
X126875144Y-89592113D01*
X126709113Y-89758144D01*
X126578663Y-89953376D01*
X126488807Y-90170306D01*
X126443000Y-90400598D01*
X126287000Y-90400598D01*
X126241193Y-90170306D01*
X126151337Y-89953376D01*
X126020887Y-89758144D01*
X125854856Y-89592113D01*
X125659624Y-89461663D01*
X125442694Y-89371807D01*
X125212402Y-89326000D01*
X124977598Y-89326000D01*
X124747306Y-89371807D01*
X124530376Y-89461663D01*
X124335144Y-89592113D01*
X124169113Y-89758144D01*
X124038663Y-89953376D01*
X123948807Y-90170306D01*
X123903000Y-90400598D01*
X118479665Y-90400598D01*
X119874230Y-89006033D01*
X121715000Y-89006033D01*
X121837913Y-88993927D01*
X121956103Y-88958075D01*
X122065028Y-88899853D01*
X122160501Y-88821501D01*
X122238853Y-88726028D01*
X122297075Y-88617103D01*
X122313159Y-88564080D01*
X129330525Y-88564080D01*
X129414208Y-88818261D01*
X129686775Y-88949158D01*
X129979642Y-89024365D01*
X130281553Y-89040991D01*
X130580907Y-88998397D01*
X130866199Y-88898222D01*
X131015792Y-88818261D01*
X131099475Y-88564080D01*
X130215000Y-87679605D01*
X129330525Y-88564080D01*
X122313159Y-88564080D01*
X122332927Y-88498913D01*
X122345033Y-88376000D01*
X122345033Y-86802999D01*
X128846895Y-86802999D01*
X128765842Y-86971775D01*
X128690635Y-87264642D01*
X128674009Y-87566553D01*
X128716603Y-87865907D01*
X128816778Y-88151199D01*
X128896739Y-88300792D01*
X129150920Y-88384475D01*
X130035395Y-87500000D01*
X130021253Y-87485858D01*
X130200858Y-87306253D01*
X130215000Y-87320395D01*
X130229143Y-87306253D01*
X130408748Y-87485858D01*
X130394605Y-87500000D01*
X131279080Y-88384475D01*
X131435147Y-88333094D01*
X131528901Y-88473406D01*
X131741594Y-88686099D01*
X131991694Y-88853210D01*
X132269590Y-88968319D01*
X132564604Y-89027000D01*
X132865396Y-89027000D01*
X133160410Y-88968319D01*
X133438306Y-88853210D01*
X133688406Y-88686099D01*
X133901099Y-88473406D01*
X133965000Y-88377771D01*
X134028901Y-88473406D01*
X134241594Y-88686099D01*
X134303242Y-88727291D01*
X133650326Y-89380207D01*
X133616867Y-89407666D01*
X133589408Y-89441125D01*
X133589405Y-89441128D01*
X133507273Y-89541207D01*
X133478249Y-89595506D01*
X133474856Y-89592113D01*
X133279624Y-89461663D01*
X133062694Y-89371807D01*
X132832402Y-89326000D01*
X132597598Y-89326000D01*
X132367306Y-89371807D01*
X132150376Y-89461663D01*
X131955144Y-89592113D01*
X131789113Y-89758144D01*
X131658663Y-89953376D01*
X131568807Y-90170306D01*
X131523000Y-90400598D01*
X131523000Y-90635402D01*
X131568807Y-90865694D01*
X131658663Y-91082624D01*
X131789113Y-91277856D01*
X131955144Y-91443887D01*
X132150376Y-91574337D01*
X132367306Y-91664193D01*
X132597598Y-91710000D01*
X132832402Y-91710000D01*
X133062694Y-91664193D01*
X133221195Y-91598539D01*
X132854896Y-91964838D01*
X132796435Y-91976467D01*
X132609533Y-92053885D01*
X132441326Y-92166277D01*
X132298277Y-92309326D01*
X132185885Y-92477533D01*
X132108467Y-92664435D01*
X132069000Y-92862849D01*
X132069000Y-93065151D01*
X132108467Y-93263565D01*
X132185885Y-93450467D01*
X132298277Y-93618674D01*
X132441326Y-93761723D01*
X132609533Y-93874115D01*
X132796435Y-93951533D01*
X132994849Y-93991000D01*
X133197151Y-93991000D01*
X133395565Y-93951533D01*
X133582467Y-93874115D01*
X133750674Y-93761723D01*
X133893723Y-93618674D01*
X134006115Y-93450467D01*
X134083533Y-93263565D01*
X134095162Y-93205104D01*
X134437417Y-92862849D01*
X137149000Y-92862849D01*
X137149000Y-93065151D01*
X137188467Y-93263565D01*
X137265885Y-93450467D01*
X137378277Y-93618674D01*
X137521326Y-93761723D01*
X137689533Y-93874115D01*
X137876435Y-93951533D01*
X138074849Y-93991000D01*
X138277151Y-93991000D01*
X138475565Y-93951533D01*
X138662467Y-93874115D01*
X138712027Y-93841000D01*
X143366919Y-93841000D01*
X143409998Y-93845243D01*
X143453077Y-93841000D01*
X143581920Y-93828310D01*
X143747235Y-93778162D01*
X143899590Y-93696727D01*
X144033131Y-93587133D01*
X144060595Y-93553668D01*
X149177234Y-88437030D01*
X149183409Y-88451938D01*
X149339576Y-88685660D01*
X149538340Y-88884424D01*
X149772062Y-89040591D01*
X150031759Y-89148162D01*
X150307453Y-89203000D01*
X150588547Y-89203000D01*
X150864241Y-89148162D01*
X151123938Y-89040591D01*
X151357660Y-88884424D01*
X151556424Y-88685660D01*
X151712591Y-88451938D01*
X151820162Y-88192241D01*
X151875000Y-87916547D01*
X151875000Y-87635453D01*
X154021000Y-87635453D01*
X154021000Y-87916547D01*
X154075838Y-88192241D01*
X154183409Y-88451938D01*
X154339576Y-88685660D01*
X154538340Y-88884424D01*
X154772062Y-89040591D01*
X155031759Y-89148162D01*
X155307453Y-89203000D01*
X155588547Y-89203000D01*
X155864241Y-89148162D01*
X156123938Y-89040591D01*
X156357660Y-88884424D01*
X156556424Y-88685660D01*
X156712591Y-88451938D01*
X156820162Y-88192241D01*
X156875000Y-87916547D01*
X156875000Y-87635453D01*
X156820162Y-87359759D01*
X156712591Y-87100062D01*
X156556424Y-86866340D01*
X156357660Y-86667576D01*
X156123938Y-86511409D01*
X155864241Y-86403838D01*
X155588547Y-86349000D01*
X155307453Y-86349000D01*
X155031759Y-86403838D01*
X154772062Y-86511409D01*
X154538340Y-86667576D01*
X154339576Y-86866340D01*
X154183409Y-87100062D01*
X154075838Y-87359759D01*
X154021000Y-87635453D01*
X151875000Y-87635453D01*
X151820162Y-87359759D01*
X151712591Y-87100062D01*
X151556424Y-86866340D01*
X151357660Y-86667576D01*
X151123938Y-86511409D01*
X151109030Y-86505234D01*
X156981264Y-80633000D01*
X158127753Y-80633000D01*
X158149576Y-80665660D01*
X158348340Y-80864424D01*
X158582062Y-81020591D01*
X158841759Y-81128162D01*
X159117453Y-81183000D01*
X159398547Y-81183000D01*
X159674241Y-81128162D01*
X159933938Y-81020591D01*
X160167660Y-80864424D01*
X160366424Y-80665660D01*
X160522591Y-80431938D01*
X160630162Y-80172241D01*
X160685000Y-79896547D01*
X160685000Y-79615453D01*
X162831000Y-79615453D01*
X162831000Y-79896547D01*
X162885838Y-80172241D01*
X162993409Y-80431938D01*
X163149576Y-80665660D01*
X163348340Y-80864424D01*
X163582062Y-81020591D01*
X163841759Y-81128162D01*
X164117453Y-81183000D01*
X164398547Y-81183000D01*
X164674241Y-81128162D01*
X164933938Y-81020591D01*
X165167660Y-80864424D01*
X165366424Y-80665660D01*
X165522591Y-80431938D01*
X165630162Y-80172241D01*
X165685000Y-79896547D01*
X165685000Y-79615453D01*
X165630162Y-79339759D01*
X165522591Y-79080062D01*
X165366424Y-78846340D01*
X165167660Y-78647576D01*
X164933938Y-78491409D01*
X164674241Y-78383838D01*
X164398547Y-78329000D01*
X164117453Y-78329000D01*
X163841759Y-78383838D01*
X163582062Y-78491409D01*
X163348340Y-78647576D01*
X163149576Y-78846340D01*
X162993409Y-79080062D01*
X162885838Y-79339759D01*
X162831000Y-79615453D01*
X160685000Y-79615453D01*
X160630162Y-79339759D01*
X160522591Y-79080062D01*
X160366424Y-78846340D01*
X160167660Y-78647576D01*
X159933938Y-78491409D01*
X159674241Y-78383838D01*
X159398547Y-78329000D01*
X159117453Y-78329000D01*
X158841759Y-78383838D01*
X158582062Y-78491409D01*
X158348340Y-78647576D01*
X158149576Y-78846340D01*
X158127753Y-78879000D01*
X156661077Y-78879000D01*
X156617998Y-78874757D01*
X156446075Y-78891690D01*
X156280761Y-78941838D01*
X156128406Y-79023273D01*
X155994865Y-79132867D01*
X155967406Y-79166326D01*
X143046733Y-92087000D01*
X138712027Y-92087000D01*
X138662467Y-92053885D01*
X138475565Y-91976467D01*
X138277151Y-91937000D01*
X138074849Y-91937000D01*
X137876435Y-91976467D01*
X137689533Y-92053885D01*
X137521326Y-92166277D01*
X137378277Y-92309326D01*
X137265885Y-92477533D01*
X137188467Y-92664435D01*
X137149000Y-92862849D01*
X134437417Y-92862849D01*
X134829674Y-92470592D01*
X134863132Y-92443134D01*
X134892787Y-92407000D01*
X134972725Y-92309594D01*
X134972727Y-92309592D01*
X135054161Y-92157238D01*
X135087528Y-92047243D01*
X135104309Y-91991924D01*
X135121242Y-91820001D01*
X135116999Y-91776922D01*
X135116999Y-91705903D01*
X135137598Y-91710000D01*
X135372402Y-91710000D01*
X135602694Y-91664193D01*
X135819624Y-91574337D01*
X136014856Y-91443887D01*
X136180887Y-91277856D01*
X136311337Y-91082624D01*
X136401193Y-90865694D01*
X136447000Y-90635402D01*
X136447000Y-90400598D01*
X136603000Y-90400598D01*
X136603000Y-90635402D01*
X136648807Y-90865694D01*
X136738663Y-91082624D01*
X136869113Y-91277856D01*
X137035144Y-91443887D01*
X137230376Y-91574337D01*
X137447306Y-91664193D01*
X137677598Y-91710000D01*
X137912402Y-91710000D01*
X138142694Y-91664193D01*
X138359624Y-91574337D01*
X138554856Y-91443887D01*
X138720887Y-91277856D01*
X138851337Y-91082624D01*
X138941193Y-90865694D01*
X138987000Y-90635402D01*
X138987000Y-90400598D01*
X139143000Y-90400598D01*
X139143000Y-90635402D01*
X139188807Y-90865694D01*
X139278663Y-91082624D01*
X139409113Y-91277856D01*
X139575144Y-91443887D01*
X139770376Y-91574337D01*
X139987306Y-91664193D01*
X140217598Y-91710000D01*
X140452402Y-91710000D01*
X140682694Y-91664193D01*
X140899624Y-91574337D01*
X141094856Y-91443887D01*
X141260887Y-91277856D01*
X141391337Y-91082624D01*
X141481193Y-90865694D01*
X141527000Y-90635402D01*
X141527000Y-90400598D01*
X141481193Y-90170306D01*
X141391337Y-89953376D01*
X141260887Y-89758144D01*
X141094856Y-89592113D01*
X140899624Y-89461663D01*
X140682694Y-89371807D01*
X140452402Y-89326000D01*
X140217598Y-89326000D01*
X139987306Y-89371807D01*
X139770376Y-89461663D01*
X139575144Y-89592113D01*
X139409113Y-89758144D01*
X139278663Y-89953376D01*
X139188807Y-90170306D01*
X139143000Y-90400598D01*
X138987000Y-90400598D01*
X138941193Y-90170306D01*
X138851337Y-89953376D01*
X138720887Y-89758144D01*
X138554856Y-89592113D01*
X138359624Y-89461663D01*
X138142694Y-89371807D01*
X137912402Y-89326000D01*
X137677598Y-89326000D01*
X137447306Y-89371807D01*
X137230376Y-89461663D01*
X137035144Y-89592113D01*
X136869113Y-89758144D01*
X136738663Y-89953376D01*
X136648807Y-90170306D01*
X136603000Y-90400598D01*
X136447000Y-90400598D01*
X136401193Y-90170306D01*
X136311337Y-89953376D01*
X136180887Y-89758144D01*
X136113283Y-89690540D01*
X136200238Y-89664163D01*
X136352593Y-89582728D01*
X136486134Y-89473134D01*
X136513597Y-89439670D01*
X137154676Y-88798592D01*
X137188134Y-88771134D01*
X137225152Y-88726028D01*
X137269020Y-88672574D01*
X137297728Y-88637593D01*
X137379163Y-88485238D01*
X137382752Y-88473406D01*
X137429311Y-88319924D01*
X137446244Y-88148001D01*
X137442001Y-88104922D01*
X137442001Y-86895068D01*
X137446243Y-86851998D01*
X137442001Y-86808929D01*
X137442001Y-86808920D01*
X137429311Y-86680077D01*
X137379163Y-86514762D01*
X137304994Y-86376000D01*
X143084967Y-86376000D01*
X143084967Y-88376000D01*
X143097073Y-88498913D01*
X143132925Y-88617103D01*
X143191147Y-88726028D01*
X143269499Y-88821501D01*
X143364972Y-88899853D01*
X143473897Y-88958075D01*
X143592087Y-88993927D01*
X143715000Y-89006033D01*
X145715000Y-89006033D01*
X145837913Y-88993927D01*
X145956103Y-88958075D01*
X146065028Y-88899853D01*
X146160501Y-88821501D01*
X146238853Y-88726028D01*
X146297075Y-88617103D01*
X146332927Y-88498913D01*
X146345033Y-88376000D01*
X146345033Y-86376000D01*
X146332927Y-86253087D01*
X146297075Y-86134897D01*
X146238853Y-86025972D01*
X146160501Y-85930499D01*
X146065028Y-85852147D01*
X145956103Y-85793925D01*
X145837913Y-85758073D01*
X145715000Y-85745967D01*
X143715000Y-85745967D01*
X143592087Y-85758073D01*
X143473897Y-85793925D01*
X143364972Y-85852147D01*
X143269499Y-85930499D01*
X143191147Y-86025972D01*
X143132925Y-86134897D01*
X143097073Y-86253087D01*
X143084967Y-86376000D01*
X137304994Y-86376000D01*
X137297728Y-86362407D01*
X137188134Y-86228866D01*
X137154669Y-86201402D01*
X133313597Y-82360330D01*
X133286136Y-82326868D01*
X133152595Y-82217274D01*
X133000240Y-82135839D01*
X132834925Y-82085691D01*
X132706082Y-82073001D01*
X132663003Y-82068758D01*
X132619924Y-82073001D01*
X130423420Y-82073001D01*
X130643017Y-81744351D01*
X130841046Y-81266268D01*
X130942000Y-80758737D01*
X130942000Y-80241263D01*
X134488000Y-80241263D01*
X134488000Y-80758737D01*
X134588954Y-81266268D01*
X134786983Y-81744351D01*
X135074476Y-82174615D01*
X135440385Y-82540524D01*
X135870649Y-82828017D01*
X136348732Y-83026046D01*
X136856263Y-83127000D01*
X137373737Y-83127000D01*
X137881268Y-83026046D01*
X138359351Y-82828017D01*
X138789615Y-82540524D01*
X139155524Y-82174615D01*
X139443017Y-81744351D01*
X139641046Y-81266268D01*
X139742000Y-80758737D01*
X139742000Y-80241263D01*
X139641046Y-79733732D01*
X139443017Y-79255649D01*
X139155524Y-78825385D01*
X138789615Y-78459476D01*
X138359351Y-78171983D01*
X137881268Y-77973954D01*
X137373737Y-77873000D01*
X136856263Y-77873000D01*
X136348732Y-77973954D01*
X135870649Y-78171983D01*
X135440385Y-78459476D01*
X135074476Y-78825385D01*
X134786983Y-79255649D01*
X134588954Y-79733732D01*
X134488000Y-80241263D01*
X130942000Y-80241263D01*
X130841046Y-79733732D01*
X130643017Y-79255649D01*
X130355524Y-78825385D01*
X129989615Y-78459476D01*
X129559351Y-78171983D01*
X129081268Y-77973954D01*
X128573737Y-77873000D01*
X128056263Y-77873000D01*
X127548732Y-77973954D01*
X127070649Y-78171983D01*
X126640385Y-78459476D01*
X126274476Y-78825385D01*
X125986983Y-79255649D01*
X125788954Y-79733732D01*
X125688000Y-80241263D01*
X125688000Y-80758737D01*
X125788954Y-81266268D01*
X125986983Y-81744351D01*
X126206580Y-82073001D01*
X109649266Y-82073001D01*
X107511337Y-79935072D01*
X107519000Y-79896547D01*
X107519000Y-79615453D01*
X107464162Y-79339759D01*
X107356591Y-79080062D01*
X107200424Y-78846340D01*
X107001660Y-78647576D01*
X106767938Y-78491409D01*
X106508241Y-78383838D01*
X106232547Y-78329000D01*
X105951453Y-78329000D01*
X105718999Y-78375237D01*
X105718999Y-77573266D01*
X110136928Y-73155337D01*
X110175453Y-73163000D01*
X110456547Y-73163000D01*
X110732241Y-73108162D01*
X110991938Y-73000591D01*
X111225660Y-72844424D01*
X111424424Y-72645660D01*
X111580591Y-72411938D01*
X111688162Y-72152241D01*
X111743000Y-71876547D01*
X111743000Y-71595453D01*
X111688162Y-71319759D01*
X111580591Y-71060062D01*
X111424424Y-70826340D01*
X111275084Y-70677000D01*
X114356916Y-70677000D01*
X114207576Y-70826340D01*
X114051409Y-71060062D01*
X113943838Y-71319759D01*
X113889000Y-71595453D01*
X113889000Y-71876547D01*
X113943838Y-72152241D01*
X114051409Y-72411938D01*
X114207576Y-72645660D01*
X114406340Y-72844424D01*
X114640062Y-73000591D01*
X114899759Y-73108162D01*
X115175453Y-73163000D01*
X115456547Y-73163000D01*
X115732241Y-73108162D01*
X115991938Y-73000591D01*
X116225660Y-72844424D01*
X116313649Y-72756435D01*
X119124871Y-72756435D01*
X119229644Y-73059344D01*
X119391499Y-73335992D01*
X119604215Y-73575748D01*
X119859618Y-73769399D01*
X120147893Y-73909502D01*
X120334566Y-73966124D01*
X120588000Y-73846777D01*
X120588000Y-72503000D01*
X120842000Y-72503000D01*
X120842000Y-73846777D01*
X121095434Y-73966124D01*
X121282107Y-73909502D01*
X121570382Y-73769399D01*
X121825785Y-73575748D01*
X122038501Y-73335992D01*
X122200356Y-73059344D01*
X122305129Y-72756435D01*
X122186315Y-72503000D01*
X120842000Y-72503000D01*
X120588000Y-72503000D01*
X119243685Y-72503000D01*
X119124871Y-72756435D01*
X116313649Y-72756435D01*
X116424424Y-72645660D01*
X116580591Y-72411938D01*
X116688162Y-72152241D01*
X116719326Y-71995565D01*
X119124871Y-71995565D01*
X119243685Y-72249000D01*
X120588000Y-72249000D01*
X120588000Y-70905223D01*
X120842000Y-70905223D01*
X120842000Y-72249000D01*
X122186315Y-72249000D01*
X122305129Y-71995565D01*
X122200356Y-71692656D01*
X122038501Y-71416008D01*
X121825785Y-71176252D01*
X121570382Y-70982601D01*
X121282107Y-70842498D01*
X121095434Y-70785876D01*
X120842000Y-70905223D01*
X120588000Y-70905223D01*
X120334566Y-70785876D01*
X120147893Y-70842498D01*
X119859618Y-70982601D01*
X119604215Y-71176252D01*
X119391499Y-71416008D01*
X119229644Y-71692656D01*
X119124871Y-71995565D01*
X116719326Y-71995565D01*
X116743000Y-71876547D01*
X116743000Y-71595453D01*
X116688162Y-71319759D01*
X116580591Y-71060062D01*
X116424424Y-70826340D01*
X116275084Y-70677000D01*
X126459345Y-70677000D01*
X126357397Y-70707925D01*
X126248472Y-70766147D01*
X126152999Y-70844499D01*
X126074647Y-70939972D01*
X126016425Y-71048897D01*
X125980573Y-71167087D01*
X125968467Y-71290000D01*
X125968467Y-73490000D01*
X125980573Y-73612913D01*
X126016425Y-73731103D01*
X126074647Y-73840028D01*
X126152999Y-73935501D01*
X126248472Y-74013853D01*
X126357397Y-74072075D01*
X126475587Y-74107927D01*
X126598500Y-74120033D01*
X128798500Y-74120033D01*
X128921413Y-74107927D01*
X129039603Y-74072075D01*
X129148528Y-74013853D01*
X129244001Y-73935501D01*
X129322353Y-73840028D01*
X129380575Y-73731103D01*
X129416427Y-73612913D01*
X129428533Y-73490000D01*
X129428533Y-72786122D01*
X136169325Y-72786122D01*
X136233925Y-72999094D01*
X136383969Y-73304329D01*
X136590678Y-73574427D01*
X136846109Y-73799008D01*
X137140446Y-73969442D01*
X137462377Y-74079179D01*
X137731500Y-73961600D01*
X137731500Y-72517000D01*
X137985500Y-72517000D01*
X137985500Y-73961600D01*
X138254623Y-74079179D01*
X138576554Y-73969442D01*
X138870891Y-73799008D01*
X139126322Y-73574427D01*
X139333031Y-73304329D01*
X139483075Y-72999094D01*
X139547675Y-72786122D01*
X139429625Y-72517000D01*
X137985500Y-72517000D01*
X137731500Y-72517000D01*
X136287375Y-72517000D01*
X136169325Y-72786122D01*
X129428533Y-72786122D01*
X129428533Y-71290000D01*
X129416427Y-71167087D01*
X129380575Y-71048897D01*
X129322353Y-70939972D01*
X129244001Y-70844499D01*
X129148528Y-70766147D01*
X129039603Y-70707925D01*
X128937655Y-70677000D01*
X137731498Y-70677000D01*
X137731498Y-70818399D01*
X137462377Y-70700821D01*
X137140446Y-70810558D01*
X136846109Y-70980992D01*
X136590678Y-71205573D01*
X136383969Y-71475671D01*
X136233925Y-71780906D01*
X136169325Y-71993878D01*
X136287375Y-72263000D01*
X137731500Y-72263000D01*
X137731500Y-72243000D01*
X137985500Y-72243000D01*
X137985500Y-72263000D01*
X139429625Y-72263000D01*
X139450348Y-72215755D01*
X143088000Y-72215755D01*
X143088000Y-72536245D01*
X143150525Y-72850578D01*
X143273172Y-73146673D01*
X143451227Y-73413152D01*
X143677848Y-73639773D01*
X143944327Y-73817828D01*
X144240422Y-73940475D01*
X144554755Y-74003000D01*
X144875245Y-74003000D01*
X145189578Y-73940475D01*
X145485673Y-73817828D01*
X145752152Y-73639773D01*
X145978773Y-73413152D01*
X146156828Y-73146673D01*
X146279475Y-72850578D01*
X146342000Y-72536245D01*
X146342000Y-72215755D01*
X146279475Y-71901422D01*
X146156828Y-71605327D01*
X145978773Y-71338848D01*
X145752152Y-71112227D01*
X145485673Y-70934172D01*
X145189578Y-70811525D01*
X144875245Y-70749000D01*
X144554755Y-70749000D01*
X144240422Y-70811525D01*
X143944327Y-70934172D01*
X143677848Y-71112227D01*
X143451227Y-71338848D01*
X143273172Y-71605327D01*
X143150525Y-71901422D01*
X143088000Y-72215755D01*
X139450348Y-72215755D01*
X139547675Y-71993878D01*
X139483075Y-71780906D01*
X139333031Y-71475671D01*
X139126322Y-71205573D01*
X138870891Y-70980992D01*
X138576554Y-70810558D01*
X138254623Y-70700821D01*
X137985502Y-70818399D01*
X137985502Y-70677000D01*
X149488916Y-70677000D01*
X149339576Y-70826340D01*
X149183409Y-71060062D01*
X149075838Y-71319759D01*
X149021000Y-71595453D01*
X149021000Y-71876547D01*
X149075838Y-72152241D01*
X149183409Y-72411938D01*
X149339576Y-72645660D01*
X149538340Y-72844424D01*
X149772062Y-73000591D01*
X150031759Y-73108162D01*
X150307453Y-73163000D01*
X150588547Y-73163000D01*
X150864241Y-73108162D01*
X151123938Y-73000591D01*
X151357660Y-72844424D01*
X151556424Y-72645660D01*
X151712591Y-72411938D01*
X151820162Y-72152241D01*
X151875000Y-71876547D01*
X151875000Y-71595453D01*
X151820162Y-71319759D01*
X151712591Y-71060062D01*
X151556424Y-70826340D01*
X151407084Y-70677000D01*
X154488916Y-70677000D01*
X154339576Y-70826340D01*
X154183409Y-71060062D01*
X154075838Y-71319759D01*
X154021000Y-71595453D01*
X154021000Y-71876547D01*
X154075838Y-72152241D01*
X154183409Y-72411938D01*
X154339576Y-72645660D01*
X154538340Y-72844424D01*
X154772062Y-73000591D01*
X155031759Y-73108162D01*
X155307453Y-73163000D01*
X155588547Y-73163000D01*
X155864241Y-73108162D01*
X156123938Y-73000591D01*
X156357660Y-72844424D01*
X156556424Y-72645660D01*
X156712591Y-72411938D01*
X156820162Y-72152241D01*
X156875000Y-71876547D01*
X156875000Y-71595453D01*
X156820162Y-71319759D01*
X156712591Y-71060062D01*
X156556424Y-70826340D01*
X156407084Y-70677000D01*
X181323000Y-70677000D01*
X181323001Y-90823000D01*
X179433252Y-90823000D01*
X179400000Y-90819725D01*
X179366748Y-90823000D01*
X179267285Y-90832796D01*
X179139670Y-90871508D01*
X179022059Y-90934372D01*
X178918973Y-91018973D01*
X178834372Y-91122059D01*
X178771508Y-91239670D01*
X178732796Y-91367285D01*
X178719725Y-91500000D01*
X178723001Y-91533262D01*
X178723000Y-92966747D01*
X178719725Y-93000000D01*
X178732796Y-93132715D01*
X178771508Y-93260330D01*
X178834372Y-93377941D01*
X178918973Y-93481027D01*
X178990108Y-93539406D01*
X179022059Y-93565628D01*
X179139670Y-93628492D01*
X179267285Y-93667204D01*
X179400000Y-93680275D01*
X179433252Y-93677000D01*
X181323000Y-93677000D01*
X181323001Y-98966738D01*
X181319725Y-99000000D01*
X181332796Y-99132715D01*
X181371508Y-99260330D01*
X181434372Y-99377941D01*
X181518973Y-99481027D01*
X181622059Y-99565628D01*
X181739670Y-99628492D01*
X181823001Y-99653770D01*
X181823000Y-125323000D01*
X177177000Y-125323000D01*
X177177000Y-119533252D01*
X177180275Y-119500000D01*
X177167204Y-119367285D01*
X177128492Y-119239670D01*
X177065628Y-119122059D01*
X176981027Y-119018973D01*
X176877941Y-118934372D01*
X176760330Y-118871508D01*
X176632715Y-118832796D01*
X176533252Y-118823000D01*
X176500000Y-118819725D01*
X176466748Y-118823000D01*
X165513252Y-118823000D01*
X165480000Y-118819725D01*
X165446748Y-118823000D01*
X165347285Y-118832796D01*
X165219670Y-118871508D01*
X165102059Y-118934372D01*
X164998973Y-119018973D01*
X164914372Y-119122059D01*
X164851508Y-119239670D01*
X164812796Y-119367285D01*
X164799725Y-119500000D01*
X164803001Y-119533262D01*
X164803001Y-121793000D01*
X158992000Y-121793000D01*
X158992000Y-121120780D01*
X159015000Y-121005151D01*
X159015000Y-120802849D01*
X158975533Y-120604435D01*
X158898115Y-120417533D01*
X158785723Y-120249326D01*
X158642674Y-120106277D01*
X158474467Y-119993885D01*
X158287565Y-119916467D01*
X158229103Y-119904838D01*
X156388576Y-118064311D01*
X156361112Y-118030846D01*
X156227571Y-117921252D01*
X156075216Y-117839817D01*
X155909901Y-117789669D01*
X155781058Y-117776979D01*
X155737979Y-117772736D01*
X155694900Y-117776979D01*
X109989090Y-117776979D01*
X109946020Y-117772737D01*
X109902951Y-117776979D01*
X109902942Y-117776979D01*
X109774099Y-117789669D01*
X109608784Y-117839817D01*
X109456429Y-117921252D01*
X109322888Y-118030846D01*
X109295424Y-118064311D01*
X107454897Y-119904838D01*
X107396435Y-119916467D01*
X107209533Y-119993885D01*
X107041326Y-120106277D01*
X106898277Y-120249326D01*
X106785885Y-120417533D01*
X106708467Y-120604435D01*
X106698053Y-120656791D01*
X106691868Y-120661867D01*
X106664409Y-120695326D01*
X106664406Y-120695329D01*
X106582274Y-120795408D01*
X106500838Y-120947764D01*
X106450690Y-121113078D01*
X106433757Y-121285000D01*
X106438001Y-121328089D01*
X106438001Y-121793000D01*
X100697000Y-121793000D01*
X100697000Y-119533252D01*
X100700275Y-119500000D01*
X100687204Y-119367285D01*
X100648492Y-119239670D01*
X100585628Y-119122059D01*
X100501027Y-119018973D01*
X100397941Y-118934372D01*
X100280330Y-118871508D01*
X100152715Y-118832796D01*
X100020000Y-118819725D01*
X99986748Y-118823000D01*
X89033252Y-118823000D01*
X89000000Y-118819725D01*
X88867285Y-118832796D01*
X88739670Y-118871508D01*
X88622059Y-118934372D01*
X88518973Y-119018973D01*
X88434372Y-119122059D01*
X88371508Y-119239670D01*
X88332796Y-119367285D01*
X88319725Y-119500000D01*
X88323000Y-119533252D01*
X88323001Y-125323000D01*
X83177000Y-125323000D01*
X83177000Y-105386702D01*
X108914903Y-105386702D01*
X108986486Y-105630671D01*
X109241996Y-105751571D01*
X109516184Y-105820300D01*
X109798512Y-105834217D01*
X110078130Y-105792787D01*
X110344292Y-105697603D01*
X110469514Y-105630671D01*
X110541097Y-105386702D01*
X109728000Y-104573605D01*
X108914903Y-105386702D01*
X83177000Y-105386702D01*
X83177000Y-104464512D01*
X108287783Y-104464512D01*
X108329213Y-104744130D01*
X108424397Y-105010292D01*
X108491329Y-105135514D01*
X108735298Y-105207097D01*
X109548395Y-104394000D01*
X109907605Y-104394000D01*
X110720702Y-105207097D01*
X110964671Y-105135514D01*
X111085571Y-104880004D01*
X111154300Y-104605816D01*
X111168217Y-104323488D01*
X111126787Y-104043870D01*
X111031603Y-103777708D01*
X110964671Y-103652486D01*
X110720702Y-103580903D01*
X109907605Y-104394000D01*
X109548395Y-104394000D01*
X108735298Y-103580903D01*
X108491329Y-103652486D01*
X108370429Y-103907996D01*
X108301700Y-104182184D01*
X108287783Y-104464512D01*
X83177000Y-104464512D01*
X83177000Y-103401298D01*
X108914903Y-103401298D01*
X109728000Y-104214395D01*
X110541097Y-103401298D01*
X110469514Y-103157329D01*
X110214004Y-103036429D01*
X109939816Y-102967700D01*
X109657488Y-102953783D01*
X109377870Y-102995213D01*
X109111708Y-103090397D01*
X108986486Y-103157329D01*
X108914903Y-103401298D01*
X83177000Y-103401298D01*
X83177000Y-98177000D01*
X83466748Y-98177000D01*
X83500000Y-98180275D01*
X83533252Y-98177000D01*
X83632715Y-98167204D01*
X83760330Y-98128492D01*
X83877941Y-98065628D01*
X83981027Y-97981027D01*
X84065628Y-97877941D01*
X84128492Y-97760330D01*
X84167204Y-97632715D01*
X84180275Y-97500000D01*
X84177000Y-97466748D01*
X84177000Y-95177000D01*
X85966748Y-95177000D01*
X86000000Y-95180275D01*
X86033252Y-95177000D01*
X86132715Y-95167204D01*
X86260330Y-95128492D01*
X86377941Y-95065628D01*
X86481027Y-94981027D01*
X86565628Y-94877941D01*
X86593015Y-94826702D01*
X100278903Y-94826702D01*
X100350486Y-95070671D01*
X100605996Y-95191571D01*
X100880184Y-95260300D01*
X101162512Y-95274217D01*
X101442130Y-95232787D01*
X101708292Y-95137603D01*
X101833514Y-95070671D01*
X101905097Y-94826702D01*
X101092000Y-94013605D01*
X100278903Y-94826702D01*
X86593015Y-94826702D01*
X86628492Y-94760330D01*
X86667204Y-94632715D01*
X86680275Y-94500000D01*
X86677000Y-94466748D01*
X86677000Y-93904512D01*
X99651783Y-93904512D01*
X99693213Y-94184130D01*
X99788397Y-94450292D01*
X99855329Y-94575514D01*
X100099298Y-94647097D01*
X100912395Y-93834000D01*
X101271605Y-93834000D01*
X102084702Y-94647097D01*
X102328671Y-94575514D01*
X102449571Y-94320004D01*
X102518300Y-94045816D01*
X102532217Y-93763488D01*
X102490787Y-93483870D01*
X102395603Y-93217708D01*
X102328671Y-93092486D01*
X102084702Y-93020903D01*
X101271605Y-93834000D01*
X100912395Y-93834000D01*
X100099298Y-93020903D01*
X99855329Y-93092486D01*
X99734429Y-93347996D01*
X99665700Y-93622184D01*
X99651783Y-93904512D01*
X86677000Y-93904512D01*
X86677000Y-93033251D01*
X86680275Y-93000000D01*
X86667204Y-92867285D01*
X86659321Y-92841298D01*
X100278903Y-92841298D01*
X101092000Y-93654395D01*
X101905097Y-92841298D01*
X101833514Y-92597329D01*
X101578004Y-92476429D01*
X101303816Y-92407700D01*
X101021488Y-92393783D01*
X100741870Y-92435213D01*
X100475708Y-92530397D01*
X100350486Y-92597329D01*
X100278903Y-92841298D01*
X86659321Y-92841298D01*
X86628492Y-92739670D01*
X86565628Y-92622059D01*
X86481027Y-92518973D01*
X86377941Y-92434372D01*
X86260330Y-92371508D01*
X86132715Y-92332796D01*
X86033252Y-92323000D01*
X86000000Y-92319725D01*
X85966748Y-92323000D01*
X83177000Y-92323000D01*
X83177000Y-89775453D01*
X99665000Y-89775453D01*
X99665000Y-90056547D01*
X99719838Y-90332241D01*
X99827409Y-90591938D01*
X99983576Y-90825660D01*
X100182340Y-91024424D01*
X100416062Y-91180591D01*
X100675759Y-91288162D01*
X100951453Y-91343000D01*
X101232547Y-91343000D01*
X101508241Y-91288162D01*
X101767938Y-91180591D01*
X102001660Y-91024424D01*
X102200424Y-90825660D01*
X102356591Y-90591938D01*
X102464162Y-90332241D01*
X102519000Y-90056547D01*
X102519000Y-89775453D01*
X102464162Y-89499759D01*
X102356591Y-89240062D01*
X102200424Y-89006340D01*
X102001660Y-88807576D01*
X101767938Y-88651409D01*
X101508241Y-88543838D01*
X101232547Y-88489000D01*
X100951453Y-88489000D01*
X100675759Y-88543838D01*
X100416062Y-88651409D01*
X100182340Y-88807576D01*
X99983576Y-89006340D01*
X99827409Y-89240062D01*
X99719838Y-89499759D01*
X99665000Y-89775453D01*
X83177000Y-89775453D01*
X83177000Y-79615453D01*
X99665000Y-79615453D01*
X99665000Y-79896547D01*
X99719838Y-80172241D01*
X99827409Y-80431938D01*
X99983576Y-80665660D01*
X100182340Y-80864424D01*
X100416062Y-81020591D01*
X100675759Y-81128162D01*
X100951453Y-81183000D01*
X101232547Y-81183000D01*
X101508241Y-81128162D01*
X101767938Y-81020591D01*
X102001660Y-80864424D01*
X102200424Y-80665660D01*
X102356591Y-80431938D01*
X102464162Y-80172241D01*
X102519000Y-79896547D01*
X102519000Y-79615453D01*
X102464162Y-79339759D01*
X102356591Y-79080062D01*
X102200424Y-78846340D01*
X102001660Y-78647576D01*
X101767938Y-78491409D01*
X101508241Y-78383838D01*
X101232547Y-78329000D01*
X100951453Y-78329000D01*
X100675759Y-78383838D01*
X100416062Y-78491409D01*
X100182340Y-78647576D01*
X99983576Y-78846340D01*
X99827409Y-79080062D01*
X99719838Y-79339759D01*
X99665000Y-79615453D01*
X83177000Y-79615453D01*
X83177000Y-73177000D01*
X83266748Y-73177000D01*
X83300000Y-73180275D01*
X83333252Y-73177000D01*
X83432715Y-73167204D01*
X83560330Y-73128492D01*
X83677941Y-73065628D01*
X83781027Y-72981027D01*
X83865628Y-72877941D01*
X83928492Y-72760330D01*
X83967204Y-72632715D01*
X83980275Y-72500000D01*
X83977000Y-72466748D01*
X83977000Y-70677000D01*
X109356916Y-70677000D01*
X109207576Y-70826340D01*
G04 #@! TA.AperFunction,Conductor*
D28*
G36*
X109207576Y-70826340D02*
G01*
X109051409Y-71060062D01*
X108943838Y-71319759D01*
X108889000Y-71595453D01*
X108889000Y-71876547D01*
X108896663Y-71915072D01*
X104252326Y-76559409D01*
X104218867Y-76586868D01*
X104191408Y-76620327D01*
X104191405Y-76620330D01*
X104109273Y-76720409D01*
X104027837Y-76872765D01*
X103977689Y-77038079D01*
X103960756Y-77210001D01*
X103965000Y-77253091D01*
X103964999Y-95319884D01*
X103960756Y-95362964D01*
X103973228Y-95489592D01*
X103977689Y-95534885D01*
X104027837Y-95700200D01*
X104109272Y-95852555D01*
X104218866Y-95986097D01*
X104252331Y-96013561D01*
X115934449Y-107695679D01*
X115961913Y-107729144D01*
X116095454Y-107838738D01*
X116247809Y-107920173D01*
X116413124Y-107970321D01*
X116541967Y-107983011D01*
X116541976Y-107983011D01*
X116585045Y-107987253D01*
X116628115Y-107983011D01*
X127491912Y-107983011D01*
X127534991Y-107987254D01*
X127578070Y-107983011D01*
X127706913Y-107970321D01*
X127872228Y-107920173D01*
X128024583Y-107838738D01*
X128158124Y-107729144D01*
X128185588Y-107695679D01*
X129474669Y-106406598D01*
X129508134Y-106379134D01*
X129617728Y-106245593D01*
X129699163Y-106093238D01*
X129749311Y-105927923D01*
X129762001Y-105799080D01*
X129762001Y-105799071D01*
X129766243Y-105756002D01*
X129762001Y-105712932D01*
X129762001Y-104599078D01*
X129766244Y-104555999D01*
X129749311Y-104384076D01*
X129699163Y-104218762D01*
X129623882Y-104077921D01*
X129617728Y-104066407D01*
X129560696Y-103996913D01*
X129535595Y-103966327D01*
X129535593Y-103966325D01*
X129508134Y-103932866D01*
X129474676Y-103905408D01*
X128885597Y-103316330D01*
X128858134Y-103282866D01*
X128724593Y-103173272D01*
X128572238Y-103091837D01*
X128406923Y-103041689D01*
X128278080Y-103028999D01*
X128235001Y-103024756D01*
X128191922Y-103028999D01*
X127398264Y-103028999D01*
X127371885Y-103002620D01*
X127494453Y-103027000D01*
X127775547Y-103027000D01*
X128051241Y-102972162D01*
X128310938Y-102864591D01*
X128544660Y-102708424D01*
X128743424Y-102509660D01*
X128834068Y-102374000D01*
X130289967Y-102374000D01*
X130289967Y-103874000D01*
X130302073Y-103996913D01*
X130337925Y-104115103D01*
X130396147Y-104224028D01*
X130474499Y-104319501D01*
X130569972Y-104397853D01*
X130678897Y-104456075D01*
X130797087Y-104491927D01*
X130920000Y-104504033D01*
X131970000Y-104504033D01*
X132092913Y-104491927D01*
X132211103Y-104456075D01*
X132278052Y-104420290D01*
X132489170Y-104484332D01*
X132715000Y-104506574D01*
X132940831Y-104484332D01*
X133157984Y-104418459D01*
X133350000Y-104315825D01*
X133542017Y-104418459D01*
X133759170Y-104484332D01*
X133985000Y-104506574D01*
X134210831Y-104484332D01*
X134427984Y-104418459D01*
X134628114Y-104311488D01*
X134803528Y-104167528D01*
X134947488Y-103992114D01*
X135054459Y-103791983D01*
X135120332Y-103574830D01*
X135137000Y-103405594D01*
X135137000Y-102842405D01*
X135120332Y-102673169D01*
X135054459Y-102456016D01*
X134947488Y-102255886D01*
X134803528Y-102080472D01*
X134628113Y-101936512D01*
X134427983Y-101829541D01*
X134210830Y-101763668D01*
X133985000Y-101741426D01*
X133759169Y-101763668D01*
X133542016Y-101829541D01*
X133350000Y-101932175D01*
X133157983Y-101829541D01*
X132940830Y-101763668D01*
X132715000Y-101741426D01*
X132489169Y-101763668D01*
X132278052Y-101827710D01*
X132211103Y-101791925D01*
X132092913Y-101756073D01*
X131970000Y-101743967D01*
X130920000Y-101743967D01*
X130797087Y-101756073D01*
X130678897Y-101791925D01*
X130569972Y-101850147D01*
X130474499Y-101928499D01*
X130396147Y-102023972D01*
X130337925Y-102132897D01*
X130302073Y-102251087D01*
X130289967Y-102374000D01*
X128834068Y-102374000D01*
X128899591Y-102275938D01*
X129007162Y-102016241D01*
X129062000Y-101740547D01*
X129062000Y-101459453D01*
X129007162Y-101183759D01*
X128911578Y-100953000D01*
X129003973Y-100953000D01*
X129053533Y-100986115D01*
X129240435Y-101063533D01*
X129438849Y-101103000D01*
X129641151Y-101103000D01*
X129839565Y-101063533D01*
X130026467Y-100986115D01*
X130194674Y-100873723D01*
X130337723Y-100730674D01*
X130450115Y-100562467D01*
X130527533Y-100375565D01*
X130567000Y-100177151D01*
X130567000Y-100096242D01*
X130700409Y-100205728D01*
X130852764Y-100287163D01*
X131018079Y-100337311D01*
X131146922Y-100350001D01*
X131146923Y-100350001D01*
X131190000Y-100354244D01*
X131233077Y-100350001D01*
X133454734Y-100350001D01*
X136818401Y-103713668D01*
X136845865Y-103747133D01*
X136979406Y-103856727D01*
X137085832Y-103913613D01*
X136885340Y-104047576D01*
X136686576Y-104246340D01*
X136530409Y-104480062D01*
X136422838Y-104739759D01*
X136368000Y-105015453D01*
X136368000Y-105296547D01*
X136422838Y-105572241D01*
X136530409Y-105831938D01*
X136686576Y-106065660D01*
X136885340Y-106264424D01*
X137119062Y-106420591D01*
X137378759Y-106528162D01*
X137654453Y-106583000D01*
X137935547Y-106583000D01*
X138211241Y-106528162D01*
X138470938Y-106420591D01*
X138704660Y-106264424D01*
X138903424Y-106065660D01*
X139059591Y-105831938D01*
X139167162Y-105572241D01*
X139222000Y-105296547D01*
X139222000Y-105015453D01*
X139167162Y-104739759D01*
X139059591Y-104480062D01*
X138903424Y-104246340D01*
X138704660Y-104047576D01*
X138634954Y-104001000D01*
X147115046Y-104001000D01*
X147045340Y-104047576D01*
X146846576Y-104246340D01*
X146690409Y-104480062D01*
X146582838Y-104739759D01*
X146528000Y-105015453D01*
X146528000Y-105296547D01*
X146582838Y-105572241D01*
X146690409Y-105831938D01*
X146846576Y-106065660D01*
X147045340Y-106264424D01*
X147279062Y-106420591D01*
X147538759Y-106528162D01*
X147814453Y-106583000D01*
X148095547Y-106583000D01*
X148371241Y-106528162D01*
X148630938Y-106420591D01*
X148864660Y-106264424D01*
X149063424Y-106065660D01*
X149219591Y-105831938D01*
X149327162Y-105572241D01*
X149382000Y-105296547D01*
X149382000Y-105015453D01*
X149327162Y-104739759D01*
X149219591Y-104480062D01*
X149063424Y-104246340D01*
X148864660Y-104047576D01*
X148794954Y-104001000D01*
X154388715Y-104001000D01*
X154338500Y-104253453D01*
X154338500Y-104534547D01*
X154393338Y-104810241D01*
X154500909Y-105069938D01*
X154657076Y-105303660D01*
X154855840Y-105502424D01*
X155089562Y-105658591D01*
X155349259Y-105766162D01*
X155624953Y-105821000D01*
X155906047Y-105821000D01*
X156181741Y-105766162D01*
X156441438Y-105658591D01*
X156675160Y-105502424D01*
X156873924Y-105303660D01*
X157030091Y-105069938D01*
X157137662Y-104810241D01*
X157192500Y-104534547D01*
X157192500Y-104253453D01*
X157142285Y-104001000D01*
X162516921Y-104001000D01*
X162560000Y-104005243D01*
X162603079Y-104001000D01*
X162731922Y-103988310D01*
X162897237Y-103938162D01*
X163049592Y-103856727D01*
X163183133Y-103747133D01*
X163210597Y-103713668D01*
X171277675Y-95646591D01*
X171311133Y-95619133D01*
X171338944Y-95585246D01*
X171420726Y-95485593D01*
X171420728Y-95485591D01*
X171502162Y-95333237D01*
X171524287Y-95260300D01*
X171552310Y-95167923D01*
X171569243Y-94996000D01*
X171565000Y-94952921D01*
X171565000Y-89959069D01*
X171569242Y-89915999D01*
X171565000Y-89872930D01*
X171565000Y-89872921D01*
X171552310Y-89744078D01*
X171502162Y-89578763D01*
X171420727Y-89426408D01*
X171311133Y-89292867D01*
X171277668Y-89265403D01*
X167782597Y-85770332D01*
X167755133Y-85736867D01*
X167621592Y-85627273D01*
X167469237Y-85545838D01*
X167303922Y-85495690D01*
X167175079Y-85483000D01*
X167132000Y-85478757D01*
X167088921Y-85483000D01*
X162857069Y-85483000D01*
X162813999Y-85478758D01*
X162770930Y-85483000D01*
X162770921Y-85483000D01*
X162642078Y-85495690D01*
X162476763Y-85545838D01*
X162324408Y-85627273D01*
X162190867Y-85736867D01*
X162163403Y-85770332D01*
X159437072Y-88496663D01*
X159398547Y-88489000D01*
X159117453Y-88489000D01*
X158841759Y-88543838D01*
X158582062Y-88651409D01*
X158348340Y-88807576D01*
X158149576Y-89006340D01*
X157993409Y-89240062D01*
X157885838Y-89499759D01*
X157831000Y-89775453D01*
X157831000Y-90056547D01*
X157885838Y-90332241D01*
X157993409Y-90591938D01*
X158149576Y-90825660D01*
X158348340Y-91024424D01*
X158582062Y-91180591D01*
X158841759Y-91288162D01*
X159117453Y-91343000D01*
X159398547Y-91343000D01*
X159674241Y-91288162D01*
X159933938Y-91180591D01*
X160167660Y-91024424D01*
X160366424Y-90825660D01*
X160522591Y-90591938D01*
X160630162Y-90332241D01*
X160685000Y-90056547D01*
X160685000Y-89775453D01*
X162831000Y-89775453D01*
X162831000Y-90056547D01*
X162885838Y-90332241D01*
X162993409Y-90591938D01*
X163149576Y-90825660D01*
X163348340Y-91024424D01*
X163582062Y-91180591D01*
X163841759Y-91288162D01*
X164117453Y-91343000D01*
X164398547Y-91343000D01*
X164674241Y-91288162D01*
X164933938Y-91180591D01*
X165167660Y-91024424D01*
X165366424Y-90825660D01*
X165522591Y-90591938D01*
X165630162Y-90332241D01*
X165685000Y-90056547D01*
X165685000Y-89775453D01*
X165630162Y-89499759D01*
X165522591Y-89240062D01*
X165366424Y-89006340D01*
X165167660Y-88807576D01*
X164933938Y-88651409D01*
X164674241Y-88543838D01*
X164398547Y-88489000D01*
X164117453Y-88489000D01*
X163841759Y-88543838D01*
X163582062Y-88651409D01*
X163348340Y-88807576D01*
X163149576Y-89006340D01*
X162993409Y-89240062D01*
X162885838Y-89499759D01*
X162831000Y-89775453D01*
X160685000Y-89775453D01*
X160677337Y-89736928D01*
X163177265Y-87237000D01*
X166768735Y-87237000D01*
X169811001Y-90279266D01*
X169811000Y-94632734D01*
X162196735Y-102247000D01*
X149228773Y-102247000D01*
X149306246Y-102083087D01*
X149346904Y-101949039D01*
X149224915Y-101727000D01*
X148082000Y-101727000D01*
X148082000Y-101747000D01*
X147828000Y-101747000D01*
X147828000Y-101727000D01*
X146685085Y-101727000D01*
X146563096Y-101949039D01*
X146603754Y-102083087D01*
X146681227Y-102247000D01*
X139071578Y-102247000D01*
X139167162Y-102016241D01*
X139222000Y-101740547D01*
X139222000Y-101459453D01*
X139167162Y-101183759D01*
X139059591Y-100924062D01*
X138903424Y-100690340D01*
X138704660Y-100491576D01*
X138470938Y-100335409D01*
X138211241Y-100227838D01*
X137935547Y-100173000D01*
X137654453Y-100173000D01*
X137378759Y-100227838D01*
X137119062Y-100335409D01*
X136885340Y-100491576D01*
X136686576Y-100690340D01*
X136530409Y-100924062D01*
X136524234Y-100938971D01*
X135235263Y-99650000D01*
X135372402Y-99650000D01*
X135602694Y-99604193D01*
X135819624Y-99514337D01*
X136014856Y-99383887D01*
X136180887Y-99217856D01*
X136311337Y-99022624D01*
X136401193Y-98805694D01*
X136447000Y-98575402D01*
X136447000Y-98506265D01*
X136603000Y-98350265D01*
X136603000Y-98575402D01*
X136648807Y-98805694D01*
X136738663Y-99022624D01*
X136869113Y-99217856D01*
X137035144Y-99383887D01*
X137230376Y-99514337D01*
X137447306Y-99604193D01*
X137677598Y-99650000D01*
X137746735Y-99650000D01*
X138159404Y-100062669D01*
X138186868Y-100096134D01*
X138320409Y-100205728D01*
X138472764Y-100287163D01*
X138638079Y-100337311D01*
X138766922Y-100350001D01*
X138766923Y-100350001D01*
X138810000Y-100354244D01*
X138853077Y-100350001D01*
X147262632Y-100350001D01*
X147099869Y-100447615D01*
X146891481Y-100636586D01*
X146723963Y-100862580D01*
X146603754Y-101116913D01*
X146563096Y-101250961D01*
X146685085Y-101473000D01*
X147828000Y-101473000D01*
X147828000Y-101453000D01*
X148082000Y-101453000D01*
X148082000Y-101473000D01*
X149224915Y-101473000D01*
X149346904Y-101250961D01*
X149306246Y-101116913D01*
X149186037Y-100862580D01*
X149018519Y-100636586D01*
X148810131Y-100447615D01*
X148647368Y-100350001D01*
X159055920Y-100350001D01*
X159098999Y-100354244D01*
X159142078Y-100350001D01*
X159270921Y-100337311D01*
X159436236Y-100287163D01*
X159588591Y-100205728D01*
X159722132Y-100096134D01*
X159749596Y-100062669D01*
X164589185Y-95223080D01*
X164674241Y-95206162D01*
X164933938Y-95098591D01*
X165167660Y-94942424D01*
X165366424Y-94743660D01*
X165522591Y-94509938D01*
X165630162Y-94250241D01*
X165685000Y-93974547D01*
X165685000Y-93693453D01*
X165630162Y-93417759D01*
X165522591Y-93158062D01*
X165366424Y-92924340D01*
X165167660Y-92725576D01*
X164933938Y-92569409D01*
X164674241Y-92461838D01*
X164398547Y-92407000D01*
X164117453Y-92407000D01*
X163841759Y-92461838D01*
X163582062Y-92569409D01*
X163348340Y-92725576D01*
X163149576Y-92924340D01*
X162993409Y-93158062D01*
X162885838Y-93417759D01*
X162831000Y-93693453D01*
X162831000Y-93974547D01*
X162885838Y-94250241D01*
X162943145Y-94388590D01*
X158735734Y-98596001D01*
X151353504Y-98596001D01*
X151436099Y-98513406D01*
X151603210Y-98263306D01*
X151718319Y-97985410D01*
X151777000Y-97690396D01*
X151777000Y-97389604D01*
X151718319Y-97094590D01*
X151603210Y-96816694D01*
X151436099Y-96566594D01*
X151360779Y-96491274D01*
X151391103Y-96482075D01*
X151500028Y-96423853D01*
X151595501Y-96345501D01*
X151673853Y-96250028D01*
X151732075Y-96141103D01*
X151767927Y-96022913D01*
X151780033Y-95900000D01*
X151780033Y-94583040D01*
X154373591Y-94583040D01*
X154468430Y-94847881D01*
X154613115Y-95089131D01*
X154802086Y-95297519D01*
X155028080Y-95465037D01*
X155282413Y-95585246D01*
X155416461Y-95625904D01*
X155638500Y-95503915D01*
X155638500Y-94361000D01*
X155892500Y-94361000D01*
X155892500Y-95503915D01*
X156114539Y-95625904D01*
X156248587Y-95585246D01*
X156502920Y-95465037D01*
X156728914Y-95297519D01*
X156917885Y-95089131D01*
X157062570Y-94847881D01*
X157157409Y-94583040D01*
X157036124Y-94361000D01*
X155892500Y-94361000D01*
X155638500Y-94361000D01*
X154494876Y-94361000D01*
X154373591Y-94583040D01*
X151780033Y-94583040D01*
X151780033Y-94100000D01*
X151767927Y-93977087D01*
X151739982Y-93884960D01*
X154373591Y-93884960D01*
X154494876Y-94107000D01*
X155638500Y-94107000D01*
X155638500Y-92964085D01*
X155892500Y-92964085D01*
X155892500Y-94107000D01*
X157036124Y-94107000D01*
X157157409Y-93884960D01*
X157088831Y-93693453D01*
X157831000Y-93693453D01*
X157831000Y-93974547D01*
X157885838Y-94250241D01*
X157993409Y-94509938D01*
X158149576Y-94743660D01*
X158348340Y-94942424D01*
X158582062Y-95098591D01*
X158841759Y-95206162D01*
X159117453Y-95261000D01*
X159398547Y-95261000D01*
X159674241Y-95206162D01*
X159933938Y-95098591D01*
X160167660Y-94942424D01*
X160366424Y-94743660D01*
X160522591Y-94509938D01*
X160630162Y-94250241D01*
X160685000Y-93974547D01*
X160685000Y-93693453D01*
X160630162Y-93417759D01*
X160522591Y-93158062D01*
X160366424Y-92924340D01*
X160167660Y-92725576D01*
X159933938Y-92569409D01*
X159674241Y-92461838D01*
X159398547Y-92407000D01*
X159117453Y-92407000D01*
X158841759Y-92461838D01*
X158582062Y-92569409D01*
X158348340Y-92725576D01*
X158149576Y-92924340D01*
X157993409Y-93158062D01*
X157885838Y-93417759D01*
X157831000Y-93693453D01*
X157088831Y-93693453D01*
X157062570Y-93620119D01*
X156917885Y-93378869D01*
X156728914Y-93170481D01*
X156502920Y-93002963D01*
X156248587Y-92882754D01*
X156114539Y-92842096D01*
X155892500Y-92964085D01*
X155638500Y-92964085D01*
X155416461Y-92842096D01*
X155282413Y-92882754D01*
X155028080Y-93002963D01*
X154802086Y-93170481D01*
X154613115Y-93378869D01*
X154468430Y-93620119D01*
X154373591Y-93884960D01*
X151739982Y-93884960D01*
X151732075Y-93858897D01*
X151673853Y-93749972D01*
X151595501Y-93654499D01*
X151500028Y-93576147D01*
X151391103Y-93517925D01*
X151272913Y-93482073D01*
X151150000Y-93469967D01*
X149350000Y-93469967D01*
X149227087Y-93482073D01*
X149108897Y-93517925D01*
X148999972Y-93576147D01*
X148904499Y-93654499D01*
X148826147Y-93749972D01*
X148767925Y-93858897D01*
X148732073Y-93977087D01*
X148719967Y-94100000D01*
X148719967Y-94123000D01*
X116780033Y-94123000D01*
X116780033Y-94100000D01*
X116767927Y-93977087D01*
X116732075Y-93858897D01*
X116673853Y-93749972D01*
X116595501Y-93654499D01*
X116500028Y-93576147D01*
X116391103Y-93517925D01*
X116272913Y-93482073D01*
X116150000Y-93469967D01*
X115410296Y-93469967D01*
X118479665Y-90400598D01*
X123903000Y-90400598D01*
X123903000Y-90635402D01*
X123948807Y-90865694D01*
X124038663Y-91082624D01*
X124169113Y-91277856D01*
X124335144Y-91443887D01*
X124530376Y-91574337D01*
X124747306Y-91664193D01*
X124977598Y-91710000D01*
X125212402Y-91710000D01*
X125442694Y-91664193D01*
X125659624Y-91574337D01*
X125854856Y-91443887D01*
X126020887Y-91277856D01*
X126151337Y-91082624D01*
X126241193Y-90865694D01*
X126287000Y-90635402D01*
X126287000Y-90400598D01*
X126443000Y-90400598D01*
X126443000Y-90635402D01*
X126488807Y-90865694D01*
X126578663Y-91082624D01*
X126709113Y-91277856D01*
X126875144Y-91443887D01*
X127070376Y-91574337D01*
X127287306Y-91664193D01*
X127517598Y-91710000D01*
X127752402Y-91710000D01*
X127982694Y-91664193D01*
X128199624Y-91574337D01*
X128394856Y-91443887D01*
X128560887Y-91277856D01*
X128691337Y-91082624D01*
X128781193Y-90865694D01*
X128827000Y-90635402D01*
X128827000Y-90400598D01*
X128983000Y-90400598D01*
X128983000Y-90635402D01*
X129028807Y-90865694D01*
X129118663Y-91082624D01*
X129249113Y-91277856D01*
X129415144Y-91443887D01*
X129610376Y-91574337D01*
X129827306Y-91664193D01*
X130057598Y-91710000D01*
X130292402Y-91710000D01*
X130522694Y-91664193D01*
X130739624Y-91574337D01*
X130934856Y-91443887D01*
X131100887Y-91277856D01*
X131231337Y-91082624D01*
X131321193Y-90865694D01*
X131367000Y-90635402D01*
X131367000Y-90400598D01*
X131321193Y-90170306D01*
X131231337Y-89953376D01*
X131100887Y-89758144D01*
X130934856Y-89592113D01*
X130739624Y-89461663D01*
X130522694Y-89371807D01*
X130292402Y-89326000D01*
X130057598Y-89326000D01*
X129827306Y-89371807D01*
X129610376Y-89461663D01*
X129415144Y-89592113D01*
X129249113Y-89758144D01*
X129118663Y-89953376D01*
X129028807Y-90170306D01*
X128983000Y-90400598D01*
X128827000Y-90400598D01*
X128781193Y-90170306D01*
X128691337Y-89953376D01*
X128560887Y-89758144D01*
X128394856Y-89592113D01*
X128199624Y-89461663D01*
X127982694Y-89371807D01*
X127752402Y-89326000D01*
X127517598Y-89326000D01*
X127287306Y-89371807D01*
X127070376Y-89461663D01*
X126875144Y-89592113D01*
X126709113Y-89758144D01*
X126578663Y-89953376D01*
X126488807Y-90170306D01*
X126443000Y-90400598D01*
X126287000Y-90400598D01*
X126241193Y-90170306D01*
X126151337Y-89953376D01*
X126020887Y-89758144D01*
X125854856Y-89592113D01*
X125659624Y-89461663D01*
X125442694Y-89371807D01*
X125212402Y-89326000D01*
X124977598Y-89326000D01*
X124747306Y-89371807D01*
X124530376Y-89461663D01*
X124335144Y-89592113D01*
X124169113Y-89758144D01*
X124038663Y-89953376D01*
X123948807Y-90170306D01*
X123903000Y-90400598D01*
X118479665Y-90400598D01*
X119874230Y-89006033D01*
X121715000Y-89006033D01*
X121837913Y-88993927D01*
X121956103Y-88958075D01*
X122065028Y-88899853D01*
X122160501Y-88821501D01*
X122238853Y-88726028D01*
X122297075Y-88617103D01*
X122313159Y-88564080D01*
X129330525Y-88564080D01*
X129414208Y-88818261D01*
X129686775Y-88949158D01*
X129979642Y-89024365D01*
X130281553Y-89040991D01*
X130580907Y-88998397D01*
X130866199Y-88898222D01*
X131015792Y-88818261D01*
X131099475Y-88564080D01*
X130215000Y-87679605D01*
X129330525Y-88564080D01*
X122313159Y-88564080D01*
X122332927Y-88498913D01*
X122345033Y-88376000D01*
X122345033Y-86802999D01*
X128846895Y-86802999D01*
X128765842Y-86971775D01*
X128690635Y-87264642D01*
X128674009Y-87566553D01*
X128716603Y-87865907D01*
X128816778Y-88151199D01*
X128896739Y-88300792D01*
X129150920Y-88384475D01*
X130035395Y-87500000D01*
X130021253Y-87485858D01*
X130200858Y-87306253D01*
X130215000Y-87320395D01*
X130229143Y-87306253D01*
X130408748Y-87485858D01*
X130394605Y-87500000D01*
X131279080Y-88384475D01*
X131435147Y-88333094D01*
X131528901Y-88473406D01*
X131741594Y-88686099D01*
X131991694Y-88853210D01*
X132269590Y-88968319D01*
X132564604Y-89027000D01*
X132865396Y-89027000D01*
X133160410Y-88968319D01*
X133438306Y-88853210D01*
X133688406Y-88686099D01*
X133901099Y-88473406D01*
X133965000Y-88377771D01*
X134028901Y-88473406D01*
X134241594Y-88686099D01*
X134303242Y-88727291D01*
X133650326Y-89380207D01*
X133616867Y-89407666D01*
X133589408Y-89441125D01*
X133589405Y-89441128D01*
X133507273Y-89541207D01*
X133478249Y-89595506D01*
X133474856Y-89592113D01*
X133279624Y-89461663D01*
X133062694Y-89371807D01*
X132832402Y-89326000D01*
X132597598Y-89326000D01*
X132367306Y-89371807D01*
X132150376Y-89461663D01*
X131955144Y-89592113D01*
X131789113Y-89758144D01*
X131658663Y-89953376D01*
X131568807Y-90170306D01*
X131523000Y-90400598D01*
X131523000Y-90635402D01*
X131568807Y-90865694D01*
X131658663Y-91082624D01*
X131789113Y-91277856D01*
X131955144Y-91443887D01*
X132150376Y-91574337D01*
X132367306Y-91664193D01*
X132597598Y-91710000D01*
X132832402Y-91710000D01*
X133062694Y-91664193D01*
X133221195Y-91598539D01*
X132854896Y-91964838D01*
X132796435Y-91976467D01*
X132609533Y-92053885D01*
X132441326Y-92166277D01*
X132298277Y-92309326D01*
X132185885Y-92477533D01*
X132108467Y-92664435D01*
X132069000Y-92862849D01*
X132069000Y-93065151D01*
X132108467Y-93263565D01*
X132185885Y-93450467D01*
X132298277Y-93618674D01*
X132441326Y-93761723D01*
X132609533Y-93874115D01*
X132796435Y-93951533D01*
X132994849Y-93991000D01*
X133197151Y-93991000D01*
X133395565Y-93951533D01*
X133582467Y-93874115D01*
X133750674Y-93761723D01*
X133893723Y-93618674D01*
X134006115Y-93450467D01*
X134083533Y-93263565D01*
X134095162Y-93205104D01*
X134437417Y-92862849D01*
X137149000Y-92862849D01*
X137149000Y-93065151D01*
X137188467Y-93263565D01*
X137265885Y-93450467D01*
X137378277Y-93618674D01*
X137521326Y-93761723D01*
X137689533Y-93874115D01*
X137876435Y-93951533D01*
X138074849Y-93991000D01*
X138277151Y-93991000D01*
X138475565Y-93951533D01*
X138662467Y-93874115D01*
X138712027Y-93841000D01*
X143366919Y-93841000D01*
X143409998Y-93845243D01*
X143453077Y-93841000D01*
X143581920Y-93828310D01*
X143747235Y-93778162D01*
X143899590Y-93696727D01*
X144033131Y-93587133D01*
X144060595Y-93553668D01*
X149177234Y-88437030D01*
X149183409Y-88451938D01*
X149339576Y-88685660D01*
X149538340Y-88884424D01*
X149772062Y-89040591D01*
X150031759Y-89148162D01*
X150307453Y-89203000D01*
X150588547Y-89203000D01*
X150864241Y-89148162D01*
X151123938Y-89040591D01*
X151357660Y-88884424D01*
X151556424Y-88685660D01*
X151712591Y-88451938D01*
X151820162Y-88192241D01*
X151875000Y-87916547D01*
X151875000Y-87635453D01*
X154021000Y-87635453D01*
X154021000Y-87916547D01*
X154075838Y-88192241D01*
X154183409Y-88451938D01*
X154339576Y-88685660D01*
X154538340Y-88884424D01*
X154772062Y-89040591D01*
X155031759Y-89148162D01*
X155307453Y-89203000D01*
X155588547Y-89203000D01*
X155864241Y-89148162D01*
X156123938Y-89040591D01*
X156357660Y-88884424D01*
X156556424Y-88685660D01*
X156712591Y-88451938D01*
X156820162Y-88192241D01*
X156875000Y-87916547D01*
X156875000Y-87635453D01*
X156820162Y-87359759D01*
X156712591Y-87100062D01*
X156556424Y-86866340D01*
X156357660Y-86667576D01*
X156123938Y-86511409D01*
X155864241Y-86403838D01*
X155588547Y-86349000D01*
X155307453Y-86349000D01*
X155031759Y-86403838D01*
X154772062Y-86511409D01*
X154538340Y-86667576D01*
X154339576Y-86866340D01*
X154183409Y-87100062D01*
X154075838Y-87359759D01*
X154021000Y-87635453D01*
X151875000Y-87635453D01*
X151820162Y-87359759D01*
X151712591Y-87100062D01*
X151556424Y-86866340D01*
X151357660Y-86667576D01*
X151123938Y-86511409D01*
X151109030Y-86505234D01*
X156981264Y-80633000D01*
X158127753Y-80633000D01*
X158149576Y-80665660D01*
X158348340Y-80864424D01*
X158582062Y-81020591D01*
X158841759Y-81128162D01*
X159117453Y-81183000D01*
X159398547Y-81183000D01*
X159674241Y-81128162D01*
X159933938Y-81020591D01*
X160167660Y-80864424D01*
X160366424Y-80665660D01*
X160522591Y-80431938D01*
X160630162Y-80172241D01*
X160685000Y-79896547D01*
X160685000Y-79615453D01*
X162831000Y-79615453D01*
X162831000Y-79896547D01*
X162885838Y-80172241D01*
X162993409Y-80431938D01*
X163149576Y-80665660D01*
X163348340Y-80864424D01*
X163582062Y-81020591D01*
X163841759Y-81128162D01*
X164117453Y-81183000D01*
X164398547Y-81183000D01*
X164674241Y-81128162D01*
X164933938Y-81020591D01*
X165167660Y-80864424D01*
X165366424Y-80665660D01*
X165522591Y-80431938D01*
X165630162Y-80172241D01*
X165685000Y-79896547D01*
X165685000Y-79615453D01*
X165630162Y-79339759D01*
X165522591Y-79080062D01*
X165366424Y-78846340D01*
X165167660Y-78647576D01*
X164933938Y-78491409D01*
X164674241Y-78383838D01*
X164398547Y-78329000D01*
X164117453Y-78329000D01*
X163841759Y-78383838D01*
X163582062Y-78491409D01*
X163348340Y-78647576D01*
X163149576Y-78846340D01*
X162993409Y-79080062D01*
X162885838Y-79339759D01*
X162831000Y-79615453D01*
X160685000Y-79615453D01*
X160630162Y-79339759D01*
X160522591Y-79080062D01*
X160366424Y-78846340D01*
X160167660Y-78647576D01*
X159933938Y-78491409D01*
X159674241Y-78383838D01*
X159398547Y-78329000D01*
X159117453Y-78329000D01*
X158841759Y-78383838D01*
X158582062Y-78491409D01*
X158348340Y-78647576D01*
X158149576Y-78846340D01*
X158127753Y-78879000D01*
X156661077Y-78879000D01*
X156617998Y-78874757D01*
X156446075Y-78891690D01*
X156280761Y-78941838D01*
X156128406Y-79023273D01*
X155994865Y-79132867D01*
X155967406Y-79166326D01*
X143046733Y-92087000D01*
X138712027Y-92087000D01*
X138662467Y-92053885D01*
X138475565Y-91976467D01*
X138277151Y-91937000D01*
X138074849Y-91937000D01*
X137876435Y-91976467D01*
X137689533Y-92053885D01*
X137521326Y-92166277D01*
X137378277Y-92309326D01*
X137265885Y-92477533D01*
X137188467Y-92664435D01*
X137149000Y-92862849D01*
X134437417Y-92862849D01*
X134829674Y-92470592D01*
X134863132Y-92443134D01*
X134892787Y-92407000D01*
X134972725Y-92309594D01*
X134972727Y-92309592D01*
X135054161Y-92157238D01*
X135087528Y-92047243D01*
X135104309Y-91991924D01*
X135121242Y-91820001D01*
X135116999Y-91776922D01*
X135116999Y-91705903D01*
X135137598Y-91710000D01*
X135372402Y-91710000D01*
X135602694Y-91664193D01*
X135819624Y-91574337D01*
X136014856Y-91443887D01*
X136180887Y-91277856D01*
X136311337Y-91082624D01*
X136401193Y-90865694D01*
X136447000Y-90635402D01*
X136447000Y-90400598D01*
X136603000Y-90400598D01*
X136603000Y-90635402D01*
X136648807Y-90865694D01*
X136738663Y-91082624D01*
X136869113Y-91277856D01*
X137035144Y-91443887D01*
X137230376Y-91574337D01*
X137447306Y-91664193D01*
X137677598Y-91710000D01*
X137912402Y-91710000D01*
X138142694Y-91664193D01*
X138359624Y-91574337D01*
X138554856Y-91443887D01*
X138720887Y-91277856D01*
X138851337Y-91082624D01*
X138941193Y-90865694D01*
X138987000Y-90635402D01*
X138987000Y-90400598D01*
X139143000Y-90400598D01*
X139143000Y-90635402D01*
X139188807Y-90865694D01*
X139278663Y-91082624D01*
X139409113Y-91277856D01*
X139575144Y-91443887D01*
X139770376Y-91574337D01*
X139987306Y-91664193D01*
X140217598Y-91710000D01*
X140452402Y-91710000D01*
X140682694Y-91664193D01*
X140899624Y-91574337D01*
X141094856Y-91443887D01*
X141260887Y-91277856D01*
X141391337Y-91082624D01*
X141481193Y-90865694D01*
X141527000Y-90635402D01*
X141527000Y-90400598D01*
X141481193Y-90170306D01*
X141391337Y-89953376D01*
X141260887Y-89758144D01*
X141094856Y-89592113D01*
X140899624Y-89461663D01*
X140682694Y-89371807D01*
X140452402Y-89326000D01*
X140217598Y-89326000D01*
X139987306Y-89371807D01*
X139770376Y-89461663D01*
X139575144Y-89592113D01*
X139409113Y-89758144D01*
X139278663Y-89953376D01*
X139188807Y-90170306D01*
X139143000Y-90400598D01*
X138987000Y-90400598D01*
X138941193Y-90170306D01*
X138851337Y-89953376D01*
X138720887Y-89758144D01*
X138554856Y-89592113D01*
X138359624Y-89461663D01*
X138142694Y-89371807D01*
X137912402Y-89326000D01*
X137677598Y-89326000D01*
X137447306Y-89371807D01*
X137230376Y-89461663D01*
X137035144Y-89592113D01*
X136869113Y-89758144D01*
X136738663Y-89953376D01*
X136648807Y-90170306D01*
X136603000Y-90400598D01*
X136447000Y-90400598D01*
X136401193Y-90170306D01*
X136311337Y-89953376D01*
X136180887Y-89758144D01*
X136113283Y-89690540D01*
X136200238Y-89664163D01*
X136352593Y-89582728D01*
X136486134Y-89473134D01*
X136513597Y-89439670D01*
X137154676Y-88798592D01*
X137188134Y-88771134D01*
X137225152Y-88726028D01*
X137269020Y-88672574D01*
X137297728Y-88637593D01*
X137379163Y-88485238D01*
X137382752Y-88473406D01*
X137429311Y-88319924D01*
X137446244Y-88148001D01*
X137442001Y-88104922D01*
X137442001Y-86895068D01*
X137446243Y-86851998D01*
X137442001Y-86808929D01*
X137442001Y-86808920D01*
X137429311Y-86680077D01*
X137379163Y-86514762D01*
X137304994Y-86376000D01*
X143084967Y-86376000D01*
X143084967Y-88376000D01*
X143097073Y-88498913D01*
X143132925Y-88617103D01*
X143191147Y-88726028D01*
X143269499Y-88821501D01*
X143364972Y-88899853D01*
X143473897Y-88958075D01*
X143592087Y-88993927D01*
X143715000Y-89006033D01*
X145715000Y-89006033D01*
X145837913Y-88993927D01*
X145956103Y-88958075D01*
X146065028Y-88899853D01*
X146160501Y-88821501D01*
X146238853Y-88726028D01*
X146297075Y-88617103D01*
X146332927Y-88498913D01*
X146345033Y-88376000D01*
X146345033Y-86376000D01*
X146332927Y-86253087D01*
X146297075Y-86134897D01*
X146238853Y-86025972D01*
X146160501Y-85930499D01*
X146065028Y-85852147D01*
X145956103Y-85793925D01*
X145837913Y-85758073D01*
X145715000Y-85745967D01*
X143715000Y-85745967D01*
X143592087Y-85758073D01*
X143473897Y-85793925D01*
X143364972Y-85852147D01*
X143269499Y-85930499D01*
X143191147Y-86025972D01*
X143132925Y-86134897D01*
X143097073Y-86253087D01*
X143084967Y-86376000D01*
X137304994Y-86376000D01*
X137297728Y-86362407D01*
X137188134Y-86228866D01*
X137154669Y-86201402D01*
X133313597Y-82360330D01*
X133286136Y-82326868D01*
X133152595Y-82217274D01*
X133000240Y-82135839D01*
X132834925Y-82085691D01*
X132706082Y-82073001D01*
X132663003Y-82068758D01*
X132619924Y-82073001D01*
X130423420Y-82073001D01*
X130643017Y-81744351D01*
X130841046Y-81266268D01*
X130942000Y-80758737D01*
X130942000Y-80241263D01*
X134488000Y-80241263D01*
X134488000Y-80758737D01*
X134588954Y-81266268D01*
X134786983Y-81744351D01*
X135074476Y-82174615D01*
X135440385Y-82540524D01*
X135870649Y-82828017D01*
X136348732Y-83026046D01*
X136856263Y-83127000D01*
X137373737Y-83127000D01*
X137881268Y-83026046D01*
X138359351Y-82828017D01*
X138789615Y-82540524D01*
X139155524Y-82174615D01*
X139443017Y-81744351D01*
X139641046Y-81266268D01*
X139742000Y-80758737D01*
X139742000Y-80241263D01*
X139641046Y-79733732D01*
X139443017Y-79255649D01*
X139155524Y-78825385D01*
X138789615Y-78459476D01*
X138359351Y-78171983D01*
X137881268Y-77973954D01*
X137373737Y-77873000D01*
X136856263Y-77873000D01*
X136348732Y-77973954D01*
X135870649Y-78171983D01*
X135440385Y-78459476D01*
X135074476Y-78825385D01*
X134786983Y-79255649D01*
X134588954Y-79733732D01*
X134488000Y-80241263D01*
X130942000Y-80241263D01*
X130841046Y-79733732D01*
X130643017Y-79255649D01*
X130355524Y-78825385D01*
X129989615Y-78459476D01*
X129559351Y-78171983D01*
X129081268Y-77973954D01*
X128573737Y-77873000D01*
X128056263Y-77873000D01*
X127548732Y-77973954D01*
X127070649Y-78171983D01*
X126640385Y-78459476D01*
X126274476Y-78825385D01*
X125986983Y-79255649D01*
X125788954Y-79733732D01*
X125688000Y-80241263D01*
X125688000Y-80758737D01*
X125788954Y-81266268D01*
X125986983Y-81744351D01*
X126206580Y-82073001D01*
X109649266Y-82073001D01*
X107511337Y-79935072D01*
X107519000Y-79896547D01*
X107519000Y-79615453D01*
X107464162Y-79339759D01*
X107356591Y-79080062D01*
X107200424Y-78846340D01*
X107001660Y-78647576D01*
X106767938Y-78491409D01*
X106508241Y-78383838D01*
X106232547Y-78329000D01*
X105951453Y-78329000D01*
X105718999Y-78375237D01*
X105718999Y-77573266D01*
X110136928Y-73155337D01*
X110175453Y-73163000D01*
X110456547Y-73163000D01*
X110732241Y-73108162D01*
X110991938Y-73000591D01*
X111225660Y-72844424D01*
X111424424Y-72645660D01*
X111580591Y-72411938D01*
X111688162Y-72152241D01*
X111743000Y-71876547D01*
X111743000Y-71595453D01*
X111688162Y-71319759D01*
X111580591Y-71060062D01*
X111424424Y-70826340D01*
X111275084Y-70677000D01*
X114356916Y-70677000D01*
X114207576Y-70826340D01*
X114051409Y-71060062D01*
X113943838Y-71319759D01*
X113889000Y-71595453D01*
X113889000Y-71876547D01*
X113943838Y-72152241D01*
X114051409Y-72411938D01*
X114207576Y-72645660D01*
X114406340Y-72844424D01*
X114640062Y-73000591D01*
X114899759Y-73108162D01*
X115175453Y-73163000D01*
X115456547Y-73163000D01*
X115732241Y-73108162D01*
X115991938Y-73000591D01*
X116225660Y-72844424D01*
X116313649Y-72756435D01*
X119124871Y-72756435D01*
X119229644Y-73059344D01*
X119391499Y-73335992D01*
X119604215Y-73575748D01*
X119859618Y-73769399D01*
X120147893Y-73909502D01*
X120334566Y-73966124D01*
X120588000Y-73846777D01*
X120588000Y-72503000D01*
X120842000Y-72503000D01*
X120842000Y-73846777D01*
X121095434Y-73966124D01*
X121282107Y-73909502D01*
X121570382Y-73769399D01*
X121825785Y-73575748D01*
X122038501Y-73335992D01*
X122200356Y-73059344D01*
X122305129Y-72756435D01*
X122186315Y-72503000D01*
X120842000Y-72503000D01*
X120588000Y-72503000D01*
X119243685Y-72503000D01*
X119124871Y-72756435D01*
X116313649Y-72756435D01*
X116424424Y-72645660D01*
X116580591Y-72411938D01*
X116688162Y-72152241D01*
X116719326Y-71995565D01*
X119124871Y-71995565D01*
X119243685Y-72249000D01*
X120588000Y-72249000D01*
X120588000Y-70905223D01*
X120842000Y-70905223D01*
X120842000Y-72249000D01*
X122186315Y-72249000D01*
X122305129Y-71995565D01*
X122200356Y-71692656D01*
X122038501Y-71416008D01*
X121825785Y-71176252D01*
X121570382Y-70982601D01*
X121282107Y-70842498D01*
X121095434Y-70785876D01*
X120842000Y-70905223D01*
X120588000Y-70905223D01*
X120334566Y-70785876D01*
X120147893Y-70842498D01*
X119859618Y-70982601D01*
X119604215Y-71176252D01*
X119391499Y-71416008D01*
X119229644Y-71692656D01*
X119124871Y-71995565D01*
X116719326Y-71995565D01*
X116743000Y-71876547D01*
X116743000Y-71595453D01*
X116688162Y-71319759D01*
X116580591Y-71060062D01*
X116424424Y-70826340D01*
X116275084Y-70677000D01*
X126459345Y-70677000D01*
X126357397Y-70707925D01*
X126248472Y-70766147D01*
X126152999Y-70844499D01*
X126074647Y-70939972D01*
X126016425Y-71048897D01*
X125980573Y-71167087D01*
X125968467Y-71290000D01*
X125968467Y-73490000D01*
X125980573Y-73612913D01*
X126016425Y-73731103D01*
X126074647Y-73840028D01*
X126152999Y-73935501D01*
X126248472Y-74013853D01*
X126357397Y-74072075D01*
X126475587Y-74107927D01*
X126598500Y-74120033D01*
X128798500Y-74120033D01*
X128921413Y-74107927D01*
X129039603Y-74072075D01*
X129148528Y-74013853D01*
X129244001Y-73935501D01*
X129322353Y-73840028D01*
X129380575Y-73731103D01*
X129416427Y-73612913D01*
X129428533Y-73490000D01*
X129428533Y-72786122D01*
X136169325Y-72786122D01*
X136233925Y-72999094D01*
X136383969Y-73304329D01*
X136590678Y-73574427D01*
X136846109Y-73799008D01*
X137140446Y-73969442D01*
X137462377Y-74079179D01*
X137731500Y-73961600D01*
X137731500Y-72517000D01*
X137985500Y-72517000D01*
X137985500Y-73961600D01*
X138254623Y-74079179D01*
X138576554Y-73969442D01*
X138870891Y-73799008D01*
X139126322Y-73574427D01*
X139333031Y-73304329D01*
X139483075Y-72999094D01*
X139547675Y-72786122D01*
X139429625Y-72517000D01*
X137985500Y-72517000D01*
X137731500Y-72517000D01*
X136287375Y-72517000D01*
X136169325Y-72786122D01*
X129428533Y-72786122D01*
X129428533Y-71290000D01*
X129416427Y-71167087D01*
X129380575Y-71048897D01*
X129322353Y-70939972D01*
X129244001Y-70844499D01*
X129148528Y-70766147D01*
X129039603Y-70707925D01*
X128937655Y-70677000D01*
X137731498Y-70677000D01*
X137731498Y-70818399D01*
X137462377Y-70700821D01*
X137140446Y-70810558D01*
X136846109Y-70980992D01*
X136590678Y-71205573D01*
X136383969Y-71475671D01*
X136233925Y-71780906D01*
X136169325Y-71993878D01*
X136287375Y-72263000D01*
X137731500Y-72263000D01*
X137731500Y-72243000D01*
X137985500Y-72243000D01*
X137985500Y-72263000D01*
X139429625Y-72263000D01*
X139450348Y-72215755D01*
X143088000Y-72215755D01*
X143088000Y-72536245D01*
X143150525Y-72850578D01*
X143273172Y-73146673D01*
X143451227Y-73413152D01*
X143677848Y-73639773D01*
X143944327Y-73817828D01*
X144240422Y-73940475D01*
X144554755Y-74003000D01*
X144875245Y-74003000D01*
X145189578Y-73940475D01*
X145485673Y-73817828D01*
X145752152Y-73639773D01*
X145978773Y-73413152D01*
X146156828Y-73146673D01*
X146279475Y-72850578D01*
X146342000Y-72536245D01*
X146342000Y-72215755D01*
X146279475Y-71901422D01*
X146156828Y-71605327D01*
X145978773Y-71338848D01*
X145752152Y-71112227D01*
X145485673Y-70934172D01*
X145189578Y-70811525D01*
X144875245Y-70749000D01*
X144554755Y-70749000D01*
X144240422Y-70811525D01*
X143944327Y-70934172D01*
X143677848Y-71112227D01*
X143451227Y-71338848D01*
X143273172Y-71605327D01*
X143150525Y-71901422D01*
X143088000Y-72215755D01*
X139450348Y-72215755D01*
X139547675Y-71993878D01*
X139483075Y-71780906D01*
X139333031Y-71475671D01*
X139126322Y-71205573D01*
X138870891Y-70980992D01*
X138576554Y-70810558D01*
X138254623Y-70700821D01*
X137985502Y-70818399D01*
X137985502Y-70677000D01*
X149488916Y-70677000D01*
X149339576Y-70826340D01*
X149183409Y-71060062D01*
X149075838Y-71319759D01*
X149021000Y-71595453D01*
X149021000Y-71876547D01*
X149075838Y-72152241D01*
X149183409Y-72411938D01*
X149339576Y-72645660D01*
X149538340Y-72844424D01*
X149772062Y-73000591D01*
X150031759Y-73108162D01*
X150307453Y-73163000D01*
X150588547Y-73163000D01*
X150864241Y-73108162D01*
X151123938Y-73000591D01*
X151357660Y-72844424D01*
X151556424Y-72645660D01*
X151712591Y-72411938D01*
X151820162Y-72152241D01*
X151875000Y-71876547D01*
X151875000Y-71595453D01*
X151820162Y-71319759D01*
X151712591Y-71060062D01*
X151556424Y-70826340D01*
X151407084Y-70677000D01*
X154488916Y-70677000D01*
X154339576Y-70826340D01*
X154183409Y-71060062D01*
X154075838Y-71319759D01*
X154021000Y-71595453D01*
X154021000Y-71876547D01*
X154075838Y-72152241D01*
X154183409Y-72411938D01*
X154339576Y-72645660D01*
X154538340Y-72844424D01*
X154772062Y-73000591D01*
X155031759Y-73108162D01*
X155307453Y-73163000D01*
X155588547Y-73163000D01*
X155864241Y-73108162D01*
X156123938Y-73000591D01*
X156357660Y-72844424D01*
X156556424Y-72645660D01*
X156712591Y-72411938D01*
X156820162Y-72152241D01*
X156875000Y-71876547D01*
X156875000Y-71595453D01*
X156820162Y-71319759D01*
X156712591Y-71060062D01*
X156556424Y-70826340D01*
X156407084Y-70677000D01*
X181323000Y-70677000D01*
X181323001Y-90823000D01*
X179433252Y-90823000D01*
X179400000Y-90819725D01*
X179366748Y-90823000D01*
X179267285Y-90832796D01*
X179139670Y-90871508D01*
X179022059Y-90934372D01*
X178918973Y-91018973D01*
X178834372Y-91122059D01*
X178771508Y-91239670D01*
X178732796Y-91367285D01*
X178719725Y-91500000D01*
X178723001Y-91533262D01*
X178723000Y-92966747D01*
X178719725Y-93000000D01*
X178732796Y-93132715D01*
X178771508Y-93260330D01*
X178834372Y-93377941D01*
X178918973Y-93481027D01*
X178990108Y-93539406D01*
X179022059Y-93565628D01*
X179139670Y-93628492D01*
X179267285Y-93667204D01*
X179400000Y-93680275D01*
X179433252Y-93677000D01*
X181323000Y-93677000D01*
X181323001Y-98966738D01*
X181319725Y-99000000D01*
X181332796Y-99132715D01*
X181371508Y-99260330D01*
X181434372Y-99377941D01*
X181518973Y-99481027D01*
X181622059Y-99565628D01*
X181739670Y-99628492D01*
X181823001Y-99653770D01*
X181823000Y-125323000D01*
X177177000Y-125323000D01*
X177177000Y-119533252D01*
X177180275Y-119500000D01*
X177167204Y-119367285D01*
X177128492Y-119239670D01*
X177065628Y-119122059D01*
X176981027Y-119018973D01*
X176877941Y-118934372D01*
X176760330Y-118871508D01*
X176632715Y-118832796D01*
X176533252Y-118823000D01*
X176500000Y-118819725D01*
X176466748Y-118823000D01*
X165513252Y-118823000D01*
X165480000Y-118819725D01*
X165446748Y-118823000D01*
X165347285Y-118832796D01*
X165219670Y-118871508D01*
X165102059Y-118934372D01*
X164998973Y-119018973D01*
X164914372Y-119122059D01*
X164851508Y-119239670D01*
X164812796Y-119367285D01*
X164799725Y-119500000D01*
X164803001Y-119533262D01*
X164803001Y-121793000D01*
X158992000Y-121793000D01*
X158992000Y-121120780D01*
X159015000Y-121005151D01*
X159015000Y-120802849D01*
X158975533Y-120604435D01*
X158898115Y-120417533D01*
X158785723Y-120249326D01*
X158642674Y-120106277D01*
X158474467Y-119993885D01*
X158287565Y-119916467D01*
X158229103Y-119904838D01*
X156388576Y-118064311D01*
X156361112Y-118030846D01*
X156227571Y-117921252D01*
X156075216Y-117839817D01*
X155909901Y-117789669D01*
X155781058Y-117776979D01*
X155737979Y-117772736D01*
X155694900Y-117776979D01*
X109989090Y-117776979D01*
X109946020Y-117772737D01*
X109902951Y-117776979D01*
X109902942Y-117776979D01*
X109774099Y-117789669D01*
X109608784Y-117839817D01*
X109456429Y-117921252D01*
X109322888Y-118030846D01*
X109295424Y-118064311D01*
X107454897Y-119904838D01*
X107396435Y-119916467D01*
X107209533Y-119993885D01*
X107041326Y-120106277D01*
X106898277Y-120249326D01*
X106785885Y-120417533D01*
X106708467Y-120604435D01*
X106698053Y-120656791D01*
X106691868Y-120661867D01*
X106664409Y-120695326D01*
X106664406Y-120695329D01*
X106582274Y-120795408D01*
X106500838Y-120947764D01*
X106450690Y-121113078D01*
X106433757Y-121285000D01*
X106438001Y-121328089D01*
X106438001Y-121793000D01*
X100697000Y-121793000D01*
X100697000Y-119533252D01*
X100700275Y-119500000D01*
X100687204Y-119367285D01*
X100648492Y-119239670D01*
X100585628Y-119122059D01*
X100501027Y-119018973D01*
X100397941Y-118934372D01*
X100280330Y-118871508D01*
X100152715Y-118832796D01*
X100020000Y-118819725D01*
X99986748Y-118823000D01*
X89033252Y-118823000D01*
X89000000Y-118819725D01*
X88867285Y-118832796D01*
X88739670Y-118871508D01*
X88622059Y-118934372D01*
X88518973Y-119018973D01*
X88434372Y-119122059D01*
X88371508Y-119239670D01*
X88332796Y-119367285D01*
X88319725Y-119500000D01*
X88323000Y-119533252D01*
X88323001Y-125323000D01*
X83177000Y-125323000D01*
X83177000Y-105386702D01*
X108914903Y-105386702D01*
X108986486Y-105630671D01*
X109241996Y-105751571D01*
X109516184Y-105820300D01*
X109798512Y-105834217D01*
X110078130Y-105792787D01*
X110344292Y-105697603D01*
X110469514Y-105630671D01*
X110541097Y-105386702D01*
X109728000Y-104573605D01*
X108914903Y-105386702D01*
X83177000Y-105386702D01*
X83177000Y-104464512D01*
X108287783Y-104464512D01*
X108329213Y-104744130D01*
X108424397Y-105010292D01*
X108491329Y-105135514D01*
X108735298Y-105207097D01*
X109548395Y-104394000D01*
X109907605Y-104394000D01*
X110720702Y-105207097D01*
X110964671Y-105135514D01*
X111085571Y-104880004D01*
X111154300Y-104605816D01*
X111168217Y-104323488D01*
X111126787Y-104043870D01*
X111031603Y-103777708D01*
X110964671Y-103652486D01*
X110720702Y-103580903D01*
X109907605Y-104394000D01*
X109548395Y-104394000D01*
X108735298Y-103580903D01*
X108491329Y-103652486D01*
X108370429Y-103907996D01*
X108301700Y-104182184D01*
X108287783Y-104464512D01*
X83177000Y-104464512D01*
X83177000Y-103401298D01*
X108914903Y-103401298D01*
X109728000Y-104214395D01*
X110541097Y-103401298D01*
X110469514Y-103157329D01*
X110214004Y-103036429D01*
X109939816Y-102967700D01*
X109657488Y-102953783D01*
X109377870Y-102995213D01*
X109111708Y-103090397D01*
X108986486Y-103157329D01*
X108914903Y-103401298D01*
X83177000Y-103401298D01*
X83177000Y-98177000D01*
X83466748Y-98177000D01*
X83500000Y-98180275D01*
X83533252Y-98177000D01*
X83632715Y-98167204D01*
X83760330Y-98128492D01*
X83877941Y-98065628D01*
X83981027Y-97981027D01*
X84065628Y-97877941D01*
X84128492Y-97760330D01*
X84167204Y-97632715D01*
X84180275Y-97500000D01*
X84177000Y-97466748D01*
X84177000Y-95177000D01*
X85966748Y-95177000D01*
X86000000Y-95180275D01*
X86033252Y-95177000D01*
X86132715Y-95167204D01*
X86260330Y-95128492D01*
X86377941Y-95065628D01*
X86481027Y-94981027D01*
X86565628Y-94877941D01*
X86593015Y-94826702D01*
X100278903Y-94826702D01*
X100350486Y-95070671D01*
X100605996Y-95191571D01*
X100880184Y-95260300D01*
X101162512Y-95274217D01*
X101442130Y-95232787D01*
X101708292Y-95137603D01*
X101833514Y-95070671D01*
X101905097Y-94826702D01*
X101092000Y-94013605D01*
X100278903Y-94826702D01*
X86593015Y-94826702D01*
X86628492Y-94760330D01*
X86667204Y-94632715D01*
X86680275Y-94500000D01*
X86677000Y-94466748D01*
X86677000Y-93904512D01*
X99651783Y-93904512D01*
X99693213Y-94184130D01*
X99788397Y-94450292D01*
X99855329Y-94575514D01*
X100099298Y-94647097D01*
X100912395Y-93834000D01*
X101271605Y-93834000D01*
X102084702Y-94647097D01*
X102328671Y-94575514D01*
X102449571Y-94320004D01*
X102518300Y-94045816D01*
X102532217Y-93763488D01*
X102490787Y-93483870D01*
X102395603Y-93217708D01*
X102328671Y-93092486D01*
X102084702Y-93020903D01*
X101271605Y-93834000D01*
X100912395Y-93834000D01*
X100099298Y-93020903D01*
X99855329Y-93092486D01*
X99734429Y-93347996D01*
X99665700Y-93622184D01*
X99651783Y-93904512D01*
X86677000Y-93904512D01*
X86677000Y-93033251D01*
X86680275Y-93000000D01*
X86667204Y-92867285D01*
X86659321Y-92841298D01*
X100278903Y-92841298D01*
X101092000Y-93654395D01*
X101905097Y-92841298D01*
X101833514Y-92597329D01*
X101578004Y-92476429D01*
X101303816Y-92407700D01*
X101021488Y-92393783D01*
X100741870Y-92435213D01*
X100475708Y-92530397D01*
X100350486Y-92597329D01*
X100278903Y-92841298D01*
X86659321Y-92841298D01*
X86628492Y-92739670D01*
X86565628Y-92622059D01*
X86481027Y-92518973D01*
X86377941Y-92434372D01*
X86260330Y-92371508D01*
X86132715Y-92332796D01*
X86033252Y-92323000D01*
X86000000Y-92319725D01*
X85966748Y-92323000D01*
X83177000Y-92323000D01*
X83177000Y-89775453D01*
X99665000Y-89775453D01*
X99665000Y-90056547D01*
X99719838Y-90332241D01*
X99827409Y-90591938D01*
X99983576Y-90825660D01*
X100182340Y-91024424D01*
X100416062Y-91180591D01*
X100675759Y-91288162D01*
X100951453Y-91343000D01*
X101232547Y-91343000D01*
X101508241Y-91288162D01*
X101767938Y-91180591D01*
X102001660Y-91024424D01*
X102200424Y-90825660D01*
X102356591Y-90591938D01*
X102464162Y-90332241D01*
X102519000Y-90056547D01*
X102519000Y-89775453D01*
X102464162Y-89499759D01*
X102356591Y-89240062D01*
X102200424Y-89006340D01*
X102001660Y-88807576D01*
X101767938Y-88651409D01*
X101508241Y-88543838D01*
X101232547Y-88489000D01*
X100951453Y-88489000D01*
X100675759Y-88543838D01*
X100416062Y-88651409D01*
X100182340Y-88807576D01*
X99983576Y-89006340D01*
X99827409Y-89240062D01*
X99719838Y-89499759D01*
X99665000Y-89775453D01*
X83177000Y-89775453D01*
X83177000Y-79615453D01*
X99665000Y-79615453D01*
X99665000Y-79896547D01*
X99719838Y-80172241D01*
X99827409Y-80431938D01*
X99983576Y-80665660D01*
X100182340Y-80864424D01*
X100416062Y-81020591D01*
X100675759Y-81128162D01*
X100951453Y-81183000D01*
X101232547Y-81183000D01*
X101508241Y-81128162D01*
X101767938Y-81020591D01*
X102001660Y-80864424D01*
X102200424Y-80665660D01*
X102356591Y-80431938D01*
X102464162Y-80172241D01*
X102519000Y-79896547D01*
X102519000Y-79615453D01*
X102464162Y-79339759D01*
X102356591Y-79080062D01*
X102200424Y-78846340D01*
X102001660Y-78647576D01*
X101767938Y-78491409D01*
X101508241Y-78383838D01*
X101232547Y-78329000D01*
X100951453Y-78329000D01*
X100675759Y-78383838D01*
X100416062Y-78491409D01*
X100182340Y-78647576D01*
X99983576Y-78846340D01*
X99827409Y-79080062D01*
X99719838Y-79339759D01*
X99665000Y-79615453D01*
X83177000Y-79615453D01*
X83177000Y-73177000D01*
X83266748Y-73177000D01*
X83300000Y-73180275D01*
X83333252Y-73177000D01*
X83432715Y-73167204D01*
X83560330Y-73128492D01*
X83677941Y-73065628D01*
X83781027Y-72981027D01*
X83865628Y-72877941D01*
X83928492Y-72760330D01*
X83967204Y-72632715D01*
X83980275Y-72500000D01*
X83977000Y-72466748D01*
X83977000Y-70677000D01*
X109356916Y-70677000D01*
X109207576Y-70826340D01*
G37*
G04 #@! TD.AperFunction*
D27*
X111713402Y-99479669D02*
X111740866Y-99513134D01*
X111874407Y-99622728D01*
X112026762Y-99704163D01*
X112192076Y-99754311D01*
X112363999Y-99771244D01*
X112407078Y-99767001D01*
X121623733Y-99767001D01*
X117654072Y-103736663D01*
X117615547Y-103729000D01*
X117334453Y-103729000D01*
X117058759Y-103783838D01*
X116799062Y-103891409D01*
X116565340Y-104047576D01*
X116366576Y-104246340D01*
X116210409Y-104480062D01*
X116204234Y-104494971D01*
X113168716Y-101459453D01*
X116048000Y-101459453D01*
X116048000Y-101740547D01*
X116102838Y-102016241D01*
X116210409Y-102275938D01*
X116366576Y-102509660D01*
X116565340Y-102708424D01*
X116799062Y-102864591D01*
X117058759Y-102972162D01*
X117334453Y-103027000D01*
X117615547Y-103027000D01*
X117891241Y-102972162D01*
X118150938Y-102864591D01*
X118384660Y-102708424D01*
X118583424Y-102509660D01*
X118739591Y-102275938D01*
X118847162Y-102016241D01*
X118902000Y-101740547D01*
X118902000Y-101459453D01*
X118847162Y-101183759D01*
X118739591Y-100924062D01*
X118583424Y-100690340D01*
X118384660Y-100491576D01*
X118150938Y-100335409D01*
X117891241Y-100227838D01*
X117615547Y-100173000D01*
X117334453Y-100173000D01*
X117058759Y-100227838D01*
X116799062Y-100335409D01*
X116565340Y-100491576D01*
X116366576Y-100690340D01*
X116210409Y-100924062D01*
X116102838Y-101183759D01*
X116048000Y-101459453D01*
X113168716Y-101459453D01*
X106969000Y-95259737D01*
X106969000Y-94964247D01*
X107001660Y-94942424D01*
X107088909Y-94855176D01*
X111713402Y-99479669D01*
G04 #@! TA.AperFunction,Conductor*
D28*
G36*
X111713402Y-99479669D02*
G01*
X111740866Y-99513134D01*
X111874407Y-99622728D01*
X112026762Y-99704163D01*
X112192076Y-99754311D01*
X112363999Y-99771244D01*
X112407078Y-99767001D01*
X121623733Y-99767001D01*
X117654072Y-103736663D01*
X117615547Y-103729000D01*
X117334453Y-103729000D01*
X117058759Y-103783838D01*
X116799062Y-103891409D01*
X116565340Y-104047576D01*
X116366576Y-104246340D01*
X116210409Y-104480062D01*
X116204234Y-104494971D01*
X113168716Y-101459453D01*
X116048000Y-101459453D01*
X116048000Y-101740547D01*
X116102838Y-102016241D01*
X116210409Y-102275938D01*
X116366576Y-102509660D01*
X116565340Y-102708424D01*
X116799062Y-102864591D01*
X117058759Y-102972162D01*
X117334453Y-103027000D01*
X117615547Y-103027000D01*
X117891241Y-102972162D01*
X118150938Y-102864591D01*
X118384660Y-102708424D01*
X118583424Y-102509660D01*
X118739591Y-102275938D01*
X118847162Y-102016241D01*
X118902000Y-101740547D01*
X118902000Y-101459453D01*
X118847162Y-101183759D01*
X118739591Y-100924062D01*
X118583424Y-100690340D01*
X118384660Y-100491576D01*
X118150938Y-100335409D01*
X117891241Y-100227838D01*
X117615547Y-100173000D01*
X117334453Y-100173000D01*
X117058759Y-100227838D01*
X116799062Y-100335409D01*
X116565340Y-100491576D01*
X116366576Y-100690340D01*
X116210409Y-100924062D01*
X116102838Y-101183759D01*
X116048000Y-101459453D01*
X113168716Y-101459453D01*
X106969000Y-95259737D01*
X106969000Y-94964247D01*
X107001660Y-94942424D01*
X107088909Y-94855176D01*
X111713402Y-99479669D01*
G37*
G04 #@! TD.AperFunction*
D27*
X148719967Y-95900000D02*
X148732073Y-96022913D01*
X148767925Y-96141103D01*
X148826147Y-96250028D01*
X148904499Y-96345501D01*
X148999972Y-96423853D01*
X149108897Y-96482075D01*
X149139221Y-96491274D01*
X149063901Y-96566594D01*
X148896790Y-96816694D01*
X148781681Y-97094590D01*
X148723000Y-97389604D01*
X148723000Y-97690396D01*
X148781681Y-97985410D01*
X148896790Y-98263306D01*
X149063901Y-98513406D01*
X149146496Y-98596001D01*
X141531204Y-98596001D01*
X141538160Y-98378174D01*
X141499468Y-98144983D01*
X141416027Y-97923821D01*
X141405967Y-97905000D01*
X145767973Y-97905000D01*
X145817533Y-97938115D01*
X146004435Y-98015533D01*
X146202849Y-98055000D01*
X146405151Y-98055000D01*
X146603565Y-98015533D01*
X146790467Y-97938115D01*
X146958674Y-97825723D01*
X147101723Y-97682674D01*
X147214115Y-97514467D01*
X147291533Y-97327565D01*
X147331000Y-97129151D01*
X147331000Y-96926849D01*
X147291533Y-96728435D01*
X147214115Y-96541533D01*
X147101723Y-96373326D01*
X146958674Y-96230277D01*
X146790467Y-96117885D01*
X146603565Y-96040467D01*
X146405151Y-96001000D01*
X146202849Y-96001000D01*
X146004435Y-96040467D01*
X145817533Y-96117885D01*
X145767973Y-96151000D01*
X136728069Y-96151000D01*
X136684999Y-96146758D01*
X136641930Y-96151000D01*
X136641921Y-96151000D01*
X136513078Y-96163690D01*
X136347763Y-96213838D01*
X136195408Y-96295273D01*
X136061867Y-96404867D01*
X136034403Y-96438332D01*
X135206735Y-97266000D01*
X135137598Y-97266000D01*
X134907306Y-97311807D01*
X134690376Y-97401663D01*
X134495144Y-97532113D01*
X134329113Y-97698144D01*
X134198663Y-97893376D01*
X134108807Y-98110306D01*
X134063000Y-98340598D01*
X134063000Y-98575402D01*
X134074739Y-98634420D01*
X133989921Y-98608691D01*
X133902099Y-98600041D01*
X133907000Y-98575402D01*
X133907000Y-98340598D01*
X133861193Y-98110306D01*
X133771337Y-97893376D01*
X133640887Y-97698144D01*
X133474856Y-97532113D01*
X133279624Y-97401663D01*
X133062694Y-97311807D01*
X132832402Y-97266000D01*
X132597598Y-97266000D01*
X132367306Y-97311807D01*
X132150376Y-97401663D01*
X131955144Y-97532113D01*
X131789113Y-97698144D01*
X131658663Y-97893376D01*
X131568807Y-98110306D01*
X131523000Y-98340598D01*
X131523000Y-98565735D01*
X131367000Y-98409735D01*
X131367000Y-98340598D01*
X131321193Y-98110306D01*
X131231337Y-97893376D01*
X131100887Y-97698144D01*
X130934856Y-97532113D01*
X130739624Y-97401663D01*
X130522694Y-97311807D01*
X130292402Y-97266000D01*
X130057598Y-97266000D01*
X129827306Y-97311807D01*
X129610376Y-97401663D01*
X129415144Y-97532113D01*
X129249113Y-97698144D01*
X129118663Y-97893376D01*
X129028807Y-98110306D01*
X128983000Y-98340598D01*
X128983000Y-98575402D01*
X129028807Y-98805694D01*
X129118663Y-99022624D01*
X129179518Y-99113700D01*
X129053533Y-99165885D01*
X129003973Y-99199000D01*
X128573486Y-99199000D01*
X128691337Y-99022624D01*
X128781193Y-98805694D01*
X128827000Y-98575402D01*
X128827000Y-98340598D01*
X128781193Y-98110306D01*
X128691337Y-97893376D01*
X128560887Y-97698144D01*
X128394856Y-97532113D01*
X128199624Y-97401663D01*
X127982694Y-97311807D01*
X127752402Y-97266000D01*
X127517598Y-97266000D01*
X127287306Y-97311807D01*
X127070376Y-97401663D01*
X126875144Y-97532113D01*
X126709113Y-97698144D01*
X126578663Y-97893376D01*
X126488807Y-98110306D01*
X126443000Y-98340598D01*
X126443000Y-98575402D01*
X126488807Y-98805694D01*
X126578663Y-99022624D01*
X126696514Y-99199000D01*
X126269081Y-99199000D01*
X126262034Y-99198306D01*
X126277927Y-99145913D01*
X126290033Y-99023000D01*
X126290033Y-97893000D01*
X126277927Y-97770087D01*
X126242075Y-97651897D01*
X126183853Y-97542972D01*
X126105501Y-97447499D01*
X126010028Y-97369147D01*
X125901103Y-97310925D01*
X125782913Y-97275073D01*
X125660000Y-97262967D01*
X124530000Y-97262967D01*
X124407087Y-97275073D01*
X124288897Y-97310925D01*
X124179972Y-97369147D01*
X124084499Y-97447499D01*
X124006147Y-97542972D01*
X123947925Y-97651897D01*
X123912073Y-97770087D01*
X123899967Y-97893000D01*
X123899967Y-98013001D01*
X116706890Y-98013001D01*
X116718319Y-97985410D01*
X116777000Y-97690396D01*
X116777000Y-97389604D01*
X116718319Y-97094590D01*
X116603210Y-96816694D01*
X116436099Y-96566594D01*
X116360779Y-96491274D01*
X116391103Y-96482075D01*
X116500028Y-96423853D01*
X116595501Y-96345501D01*
X116673853Y-96250028D01*
X116732075Y-96141103D01*
X116767927Y-96022913D01*
X116780033Y-95900000D01*
X116780033Y-95877000D01*
X148719967Y-95877000D01*
X148719967Y-95900000D01*
G04 #@! TA.AperFunction,Conductor*
D28*
G36*
X148719967Y-95900000D02*
G01*
X148732073Y-96022913D01*
X148767925Y-96141103D01*
X148826147Y-96250028D01*
X148904499Y-96345501D01*
X148999972Y-96423853D01*
X149108897Y-96482075D01*
X149139221Y-96491274D01*
X149063901Y-96566594D01*
X148896790Y-96816694D01*
X148781681Y-97094590D01*
X148723000Y-97389604D01*
X148723000Y-97690396D01*
X148781681Y-97985410D01*
X148896790Y-98263306D01*
X149063901Y-98513406D01*
X149146496Y-98596001D01*
X141531204Y-98596001D01*
X141538160Y-98378174D01*
X141499468Y-98144983D01*
X141416027Y-97923821D01*
X141405967Y-97905000D01*
X145767973Y-97905000D01*
X145817533Y-97938115D01*
X146004435Y-98015533D01*
X146202849Y-98055000D01*
X146405151Y-98055000D01*
X146603565Y-98015533D01*
X146790467Y-97938115D01*
X146958674Y-97825723D01*
X147101723Y-97682674D01*
X147214115Y-97514467D01*
X147291533Y-97327565D01*
X147331000Y-97129151D01*
X147331000Y-96926849D01*
X147291533Y-96728435D01*
X147214115Y-96541533D01*
X147101723Y-96373326D01*
X146958674Y-96230277D01*
X146790467Y-96117885D01*
X146603565Y-96040467D01*
X146405151Y-96001000D01*
X146202849Y-96001000D01*
X146004435Y-96040467D01*
X145817533Y-96117885D01*
X145767973Y-96151000D01*
X136728069Y-96151000D01*
X136684999Y-96146758D01*
X136641930Y-96151000D01*
X136641921Y-96151000D01*
X136513078Y-96163690D01*
X136347763Y-96213838D01*
X136195408Y-96295273D01*
X136061867Y-96404867D01*
X136034403Y-96438332D01*
X135206735Y-97266000D01*
X135137598Y-97266000D01*
X134907306Y-97311807D01*
X134690376Y-97401663D01*
X134495144Y-97532113D01*
X134329113Y-97698144D01*
X134198663Y-97893376D01*
X134108807Y-98110306D01*
X134063000Y-98340598D01*
X134063000Y-98575402D01*
X134074739Y-98634420D01*
X133989921Y-98608691D01*
X133902099Y-98600041D01*
X133907000Y-98575402D01*
X133907000Y-98340598D01*
X133861193Y-98110306D01*
X133771337Y-97893376D01*
X133640887Y-97698144D01*
X133474856Y-97532113D01*
X133279624Y-97401663D01*
X133062694Y-97311807D01*
X132832402Y-97266000D01*
X132597598Y-97266000D01*
X132367306Y-97311807D01*
X132150376Y-97401663D01*
X131955144Y-97532113D01*
X131789113Y-97698144D01*
X131658663Y-97893376D01*
X131568807Y-98110306D01*
X131523000Y-98340598D01*
X131523000Y-98565735D01*
X131367000Y-98409735D01*
X131367000Y-98340598D01*
X131321193Y-98110306D01*
X131231337Y-97893376D01*
X131100887Y-97698144D01*
X130934856Y-97532113D01*
X130739624Y-97401663D01*
X130522694Y-97311807D01*
X130292402Y-97266000D01*
X130057598Y-97266000D01*
X129827306Y-97311807D01*
X129610376Y-97401663D01*
X129415144Y-97532113D01*
X129249113Y-97698144D01*
X129118663Y-97893376D01*
X129028807Y-98110306D01*
X128983000Y-98340598D01*
X128983000Y-98575402D01*
X129028807Y-98805694D01*
X129118663Y-99022624D01*
X129179518Y-99113700D01*
X129053533Y-99165885D01*
X129003973Y-99199000D01*
X128573486Y-99199000D01*
X128691337Y-99022624D01*
X128781193Y-98805694D01*
X128827000Y-98575402D01*
X128827000Y-98340598D01*
X128781193Y-98110306D01*
X128691337Y-97893376D01*
X128560887Y-97698144D01*
X128394856Y-97532113D01*
X128199624Y-97401663D01*
X127982694Y-97311807D01*
X127752402Y-97266000D01*
X127517598Y-97266000D01*
X127287306Y-97311807D01*
X127070376Y-97401663D01*
X126875144Y-97532113D01*
X126709113Y-97698144D01*
X126578663Y-97893376D01*
X126488807Y-98110306D01*
X126443000Y-98340598D01*
X126443000Y-98575402D01*
X126488807Y-98805694D01*
X126578663Y-99022624D01*
X126696514Y-99199000D01*
X126269081Y-99199000D01*
X126262034Y-99198306D01*
X126277927Y-99145913D01*
X126290033Y-99023000D01*
X126290033Y-97893000D01*
X126277927Y-97770087D01*
X126242075Y-97651897D01*
X126183853Y-97542972D01*
X126105501Y-97447499D01*
X126010028Y-97369147D01*
X125901103Y-97310925D01*
X125782913Y-97275073D01*
X125660000Y-97262967D01*
X124530000Y-97262967D01*
X124407087Y-97275073D01*
X124288897Y-97310925D01*
X124179972Y-97369147D01*
X124084499Y-97447499D01*
X124006147Y-97542972D01*
X123947925Y-97651897D01*
X123912073Y-97770087D01*
X123899967Y-97893000D01*
X123899967Y-98013001D01*
X116706890Y-98013001D01*
X116718319Y-97985410D01*
X116777000Y-97690396D01*
X116777000Y-97389604D01*
X116718319Y-97094590D01*
X116603210Y-96816694D01*
X116436099Y-96566594D01*
X116360779Y-96491274D01*
X116391103Y-96482075D01*
X116500028Y-96423853D01*
X116595501Y-96345501D01*
X116673853Y-96250028D01*
X116732075Y-96141103D01*
X116767927Y-96022913D01*
X116780033Y-95900000D01*
X116780033Y-95877000D01*
X148719967Y-95877000D01*
X148719967Y-95900000D01*
G37*
G04 #@! TD.AperFunction*
D27*
X140528748Y-98443858D02*
X140514605Y-98458000D01*
X140528748Y-98472143D01*
X140404889Y-98596001D01*
X140265111Y-98596001D01*
X140141253Y-98472143D01*
X140155395Y-98458000D01*
X140141253Y-98443858D01*
X140320858Y-98264253D01*
X140335000Y-98278395D01*
X140349143Y-98264253D01*
X140528748Y-98443858D01*
G04 #@! TA.AperFunction,Conductor*
D28*
G36*
X140528748Y-98443858D02*
G01*
X140514605Y-98458000D01*
X140528748Y-98472143D01*
X140404889Y-98596001D01*
X140265111Y-98596001D01*
X140141253Y-98472143D01*
X140155395Y-98458000D01*
X140141253Y-98443858D01*
X140320858Y-98264253D01*
X140335000Y-98278395D01*
X140349143Y-98264253D01*
X140528748Y-98443858D01*
G37*
G04 #@! TD.AperFunction*
G04 #@! TD*
M02*
