M48
; DRILL file {KiCad (5.1.7)-1} date 02/13/21 16:44:18
; FORMAT={-:-/ absolute / inch / decimal}
; #@! TF.CreationDate,2021-02-13T16:44:18-06:00
; #@! TF.GenerationSoftware,Kicad,Pcbnew,(5.1.7)-1
; #@! TF.FileFunction,Plated,1,2,PTH
FMAT,2
INCH
T1C0.0157
T2C0.0287
T3C0.0295
T4C0.0315
T5C0.0354
T6C0.0394
T7C0.0433
T8C0.0984
%
G90
G05
T1
X3.8Y-3.75
X4.0453Y-4.7653
X4.125Y-4.55
X4.1437Y-4.763
X4.2421Y-4.7664
X4.3406Y-4.7715
X4.439Y-4.773
X4.475Y-4.2
X4.5374Y-4.7817
X5.9154Y-4.7667
X6.0138Y-4.768
X6.1122Y-4.7665
X6.2106Y-4.7664
X6.3091Y-4.7633
X6.4075Y-4.7625
T2
X5.0687Y-3.6
X5.0687Y-3.7
X5.0687Y-3.8
X5.0687Y-3.9
X5.0687Y-4.0
X5.0687Y-4.1
X5.0687Y-4.2
X5.3813Y-3.6
X5.3813Y-3.7
X5.3813Y-3.8
X5.3813Y-3.9
X5.3813Y-4.0
X5.3813Y-4.1
X5.3813Y-4.2
T3
X5.175Y-4.425
X5.225Y-4.425
X5.275Y-4.425
T4
X5.7475Y-3.05
X6.1475Y-3.05
X6.2525Y-3.5925
X6.6525Y-3.5925
X3.8781Y-3.4257
X4.075Y-3.4257
X6.8031Y-3.4257
X7.0Y-3.4257
X4.3025Y-3.05
X4.7025Y-3.05
X3.7975Y-3.5925
X4.1975Y-3.5925
X4.89Y-3.704
X4.89Y-4.104
X5.56Y-3.705
X5.56Y-4.105
X4.75Y-3.705
X4.75Y-4.105
X3.4531Y-3.4257
X3.65Y-3.4257
X4.32Y-3.71
X4.32Y-4.11
X6.1325Y-3.71
X6.1325Y-4.11
X5.71Y-3.705
X5.71Y-4.105
X6.3781Y-3.4257
X6.575Y-3.4257
T5
X4.5374Y-3.7402
X4.5374Y-3.8402
X5.9154Y-3.7402
X5.9154Y-3.8402
T6
X5.5494Y-3.25
X6.14Y-3.25
X5.1266Y-3.4449
X5.225Y-3.4449
X5.3234Y-3.4449
X4.3094Y-3.525
X4.9Y-3.525
X5.55Y-3.525
X6.1406Y-3.525
X4.31Y-3.25
X4.9006Y-3.25
T7
X5.0275Y-2.85
X5.4275Y-2.85
T8
X3.3602Y-4.8268
X7.0925Y-4.8268
T0
M30
