G04 #@! TF.GenerationSoftware,KiCad,Pcbnew,(5.1.7)-1*
G04 #@! TF.CreationDate,2021-04-21T16:26:53-05:00*
G04 #@! TF.ProjectId,PortableAmp,506f7274-6162-46c6-9541-6d702e6b6963,rev?*
G04 #@! TF.SameCoordinates,Original*
G04 #@! TF.FileFunction,Soldermask,Bot*
G04 #@! TF.FilePolarity,Negative*
%FSLAX46Y46*%
G04 Gerber Fmt 4.6, Leading zero omitted, Abs format (unit mm)*
G04 Created by KiCad (PCBNEW (5.1.7)-1) date 2021-04-21 16:26:53*
%MOMM*%
%LPD*%
G01*
G04 APERTURE LIST*
%ADD10C,1.600000*%
%ADD11R,2.200000X2.200000*%
%ADD12O,2.200000X2.200000*%
%ADD13R,1.700000X1.700000*%
%ADD14O,1.700000X1.700000*%
%ADD15O,1.050000X1.500000*%
%ADD16R,1.050000X1.500000*%
%ADD17O,1.600000X1.600000*%
%ADD18C,1.440000*%
%ADD19R,1.600000X1.600000*%
%ADD20C,5.400000*%
%ADD21R,2.400000X2.400000*%
%ADD22O,2.400000X2.400000*%
%ADD23R,2.000000X2.000000*%
%ADD24O,2.000000X2.000000*%
G04 APERTURE END LIST*
D10*
G04 #@! TO.C,C2*
X113347500Y-85617000D03*
X108347500Y-85617000D03*
G04 #@! TD*
G04 #@! TO.C,C3*
X140796000Y-100158500D03*
X145796000Y-100158500D03*
G04 #@! TD*
G04 #@! TO.C,C4*
X125095000Y-106445000D03*
X120095000Y-106445000D03*
G04 #@! TD*
D11*
G04 #@! TO.C,D1*
X142240000Y-107188000D03*
D12*
X152400000Y-107188000D03*
G04 #@! TD*
D13*
G04 #@! TO.C,J1*
X152000000Y-93980000D03*
D14*
X152000000Y-96520000D03*
X152000000Y-99060000D03*
X152000000Y-101600000D03*
G04 #@! TD*
D13*
G04 #@! TO.C,J2*
X144780000Y-79000000D03*
D14*
X142240000Y-79000000D03*
G04 #@! TD*
D15*
G04 #@! TO.C,Q1*
X132334000Y-104648000D03*
X131064000Y-104648000D03*
D16*
X133604000Y-104648000D03*
G04 #@! TD*
D17*
G04 #@! TO.C,R1*
X103632000Y-102108000D03*
D10*
X113792000Y-102108000D03*
G04 #@! TD*
G04 #@! TO.C,R2*
X103632000Y-98552000D03*
D17*
X113792000Y-98552000D03*
G04 #@! TD*
D10*
G04 #@! TO.C,R3*
X113792000Y-105664000D03*
D17*
X103632000Y-105664000D03*
G04 #@! TD*
D18*
G04 #@! TO.C,RV1*
X122936000Y-80264000D03*
X120396000Y-85344000D03*
X117856000Y-80264000D03*
G04 #@! TD*
G04 #@! TO.C,RV2*
X129540000Y-80264000D03*
X132080000Y-85344000D03*
X134620000Y-80264000D03*
G04 #@! TD*
D19*
G04 #@! TO.C,U1*
X128524000Y-91948000D03*
D17*
X136144000Y-99568000D03*
X128524000Y-94488000D03*
X136144000Y-97028000D03*
X128524000Y-97028000D03*
X136144000Y-94488000D03*
X128524000Y-99568000D03*
X136144000Y-91948000D03*
G04 #@! TD*
D20*
G04 #@! TO.C,H1*
X103000000Y-80000000D03*
G04 #@! TD*
G04 #@! TO.C,H2*
X103000000Y-115000000D03*
G04 #@! TD*
G04 #@! TO.C,H3*
X152000000Y-80000000D03*
G04 #@! TD*
G04 #@! TO.C,H4*
X152000000Y-115000000D03*
G04 #@! TD*
D13*
G04 #@! TO.C,SW1*
X143002000Y-117856000D03*
D14*
X145542000Y-117856000D03*
G04 #@! TD*
D21*
G04 #@! TO.C,C1*
X125095000Y-92710000D03*
D22*
X100095000Y-92710000D03*
G04 #@! TD*
D23*
G04 #@! TO.C,C5*
X139700000Y-86995000D03*
D24*
X154700000Y-86995000D03*
G04 #@! TD*
M02*
