G04 #@! TF.GenerationSoftware,KiCad,Pcbnew,(5.1.7)-1*
G04 #@! TF.CreationDate,2021-06-20T17:09:43-05:00*
G04 #@! TF.ProjectId,DaisySeedPedal,44616973-7953-4656-9564-506564616c2e,rev?*
G04 #@! TF.SameCoordinates,Original*
G04 #@! TF.FileFunction,Legend,Bot*
G04 #@! TF.FilePolarity,Positive*
%FSLAX46Y46*%
G04 Gerber Fmt 4.6, Leading zero omitted, Abs format (unit mm)*
G04 Created by KiCad (PCBNEW (5.1.7)-1) date 2021-06-20 17:09:43*
%MOMM*%
%LPD*%
G01*
G04 APERTURE LIST*
%ADD10C,0.160000*%
%ADD11C,0.010000*%
%ADD12C,0.120000*%
%ADD13C,0.150000*%
G04 APERTURE END LIST*
D10*
X61263857Y-115824619D02*
X60635285Y-115824619D01*
X60949571Y-116924619D02*
X60949571Y-115824619D01*
X60268619Y-116924619D02*
X60268619Y-115824619D01*
X59797190Y-116924619D02*
X59797190Y-116348428D01*
X59849571Y-116243666D01*
X59954333Y-116191285D01*
X60111476Y-116191285D01*
X60216238Y-116243666D01*
X60268619Y-116296047D01*
X59116238Y-116924619D02*
X59221000Y-116872238D01*
X59273380Y-116819857D01*
X59325761Y-116715095D01*
X59325761Y-116400809D01*
X59273380Y-116296047D01*
X59221000Y-116243666D01*
X59116238Y-116191285D01*
X58959095Y-116191285D01*
X58854333Y-116243666D01*
X58801952Y-116296047D01*
X58749571Y-116400809D01*
X58749571Y-116715095D01*
X58801952Y-116819857D01*
X58854333Y-116872238D01*
X58959095Y-116924619D01*
X59116238Y-116924619D01*
X58278142Y-116924619D02*
X58278142Y-116191285D01*
X58278142Y-116296047D02*
X58225761Y-116243666D01*
X58121000Y-116191285D01*
X57963857Y-116191285D01*
X57859095Y-116243666D01*
X57806714Y-116348428D01*
X57806714Y-116924619D01*
X57806714Y-116348428D02*
X57754333Y-116243666D01*
X57649571Y-116191285D01*
X57492428Y-116191285D01*
X57387666Y-116243666D01*
X57335285Y-116348428D01*
X57335285Y-116924619D01*
X56340047Y-116924619D02*
X56340047Y-116348428D01*
X56392428Y-116243666D01*
X56497190Y-116191285D01*
X56706714Y-116191285D01*
X56811476Y-116243666D01*
X56340047Y-116872238D02*
X56444809Y-116924619D01*
X56706714Y-116924619D01*
X56811476Y-116872238D01*
X56863857Y-116767476D01*
X56863857Y-116662714D01*
X56811476Y-116557952D01*
X56706714Y-116505571D01*
X56444809Y-116505571D01*
X56340047Y-116453190D01*
X55868619Y-116872238D02*
X55763857Y-116924619D01*
X55554333Y-116924619D01*
X55449571Y-116872238D01*
X55397190Y-116767476D01*
X55397190Y-116715095D01*
X55449571Y-116610333D01*
X55554333Y-116557952D01*
X55711476Y-116557952D01*
X55816238Y-116505571D01*
X55868619Y-116400809D01*
X55868619Y-116348428D01*
X55816238Y-116243666D01*
X55711476Y-116191285D01*
X55554333Y-116191285D01*
X55449571Y-116243666D01*
X54087666Y-116924619D02*
X54087666Y-115824619D01*
X53721000Y-116610333D01*
X53354333Y-115824619D01*
X53354333Y-116924619D01*
X52359095Y-116872238D02*
X52463857Y-116924619D01*
X52673380Y-116924619D01*
X52778142Y-116872238D01*
X52830523Y-116819857D01*
X52882904Y-116715095D01*
X52882904Y-116400809D01*
X52830523Y-116296047D01*
X52778142Y-116243666D01*
X52673380Y-116191285D01*
X52463857Y-116191285D01*
X52359095Y-116243666D01*
X51887666Y-116924619D02*
X51887666Y-115824619D01*
X51625761Y-115824619D01*
X51468619Y-115877000D01*
X51363857Y-115981761D01*
X51311476Y-116086523D01*
X51259095Y-116296047D01*
X51259095Y-116453190D01*
X51311476Y-116662714D01*
X51363857Y-116767476D01*
X51468619Y-116872238D01*
X51625761Y-116924619D01*
X51887666Y-116924619D01*
X50630523Y-116924619D02*
X50735285Y-116872238D01*
X50787666Y-116819857D01*
X50840047Y-116715095D01*
X50840047Y-116400809D01*
X50787666Y-116296047D01*
X50735285Y-116243666D01*
X50630523Y-116191285D01*
X50473380Y-116191285D01*
X50368619Y-116243666D01*
X50316238Y-116296047D01*
X50263857Y-116400809D01*
X50263857Y-116715095D01*
X50316238Y-116819857D01*
X50368619Y-116872238D01*
X50473380Y-116924619D01*
X50630523Y-116924619D01*
X49792428Y-116191285D02*
X49792428Y-116924619D01*
X49792428Y-116296047D02*
X49740047Y-116243666D01*
X49635285Y-116191285D01*
X49478142Y-116191285D01*
X49373380Y-116243666D01*
X49321000Y-116348428D01*
X49321000Y-116924619D01*
X48325761Y-116924619D02*
X48325761Y-116348428D01*
X48378142Y-116243666D01*
X48482904Y-116191285D01*
X48692428Y-116191285D01*
X48797190Y-116243666D01*
X48325761Y-116872238D02*
X48430523Y-116924619D01*
X48692428Y-116924619D01*
X48797190Y-116872238D01*
X48849571Y-116767476D01*
X48849571Y-116662714D01*
X48797190Y-116557952D01*
X48692428Y-116505571D01*
X48430523Y-116505571D01*
X48325761Y-116453190D01*
X47330523Y-116191285D02*
X47330523Y-117081761D01*
X47382904Y-117186523D01*
X47435285Y-117238904D01*
X47540047Y-117291285D01*
X47697190Y-117291285D01*
X47801952Y-117238904D01*
X47330523Y-116872238D02*
X47435285Y-116924619D01*
X47644809Y-116924619D01*
X47749571Y-116872238D01*
X47801952Y-116819857D01*
X47854333Y-116715095D01*
X47854333Y-116400809D01*
X47801952Y-116296047D01*
X47749571Y-116243666D01*
X47644809Y-116191285D01*
X47435285Y-116191285D01*
X47330523Y-116243666D01*
X46806714Y-116924619D02*
X46806714Y-115824619D01*
X46335285Y-116924619D02*
X46335285Y-116348428D01*
X46387666Y-116243666D01*
X46492428Y-116191285D01*
X46649571Y-116191285D01*
X46754333Y-116243666D01*
X46806714Y-116296047D01*
X61421000Y-118734619D02*
X61421000Y-118001285D01*
X61421000Y-118106047D02*
X61368619Y-118053666D01*
X61263857Y-118001285D01*
X61106714Y-118001285D01*
X61001952Y-118053666D01*
X60949571Y-118158428D01*
X60949571Y-118734619D01*
X60949571Y-118158428D02*
X60897190Y-118053666D01*
X60792428Y-118001285D01*
X60635285Y-118001285D01*
X60530523Y-118053666D01*
X60478142Y-118158428D01*
X60478142Y-118734619D01*
X59482904Y-118682238D02*
X59587666Y-118734619D01*
X59797190Y-118734619D01*
X59901952Y-118682238D01*
X59954333Y-118629857D01*
X60006714Y-118525095D01*
X60006714Y-118210809D01*
X59954333Y-118106047D01*
X59901952Y-118053666D01*
X59797190Y-118001285D01*
X59587666Y-118001285D01*
X59482904Y-118053666D01*
X58540047Y-118734619D02*
X58540047Y-117634619D01*
X58540047Y-118682238D02*
X58644809Y-118734619D01*
X58854333Y-118734619D01*
X58959095Y-118682238D01*
X59011476Y-118629857D01*
X59063857Y-118525095D01*
X59063857Y-118210809D01*
X59011476Y-118106047D01*
X58959095Y-118053666D01*
X58854333Y-118001285D01*
X58644809Y-118001285D01*
X58540047Y-118053666D01*
X57859095Y-118734619D02*
X57963857Y-118682238D01*
X58016238Y-118629857D01*
X58068619Y-118525095D01*
X58068619Y-118210809D01*
X58016238Y-118106047D01*
X57963857Y-118053666D01*
X57859095Y-118001285D01*
X57701952Y-118001285D01*
X57597190Y-118053666D01*
X57544809Y-118106047D01*
X57492428Y-118210809D01*
X57492428Y-118525095D01*
X57544809Y-118629857D01*
X57597190Y-118682238D01*
X57701952Y-118734619D01*
X57859095Y-118734619D01*
X57021000Y-118001285D02*
X57021000Y-118734619D01*
X57021000Y-118106047D02*
X56968619Y-118053666D01*
X56863857Y-118001285D01*
X56706714Y-118001285D01*
X56601952Y-118053666D01*
X56549571Y-118158428D01*
X56549571Y-118734619D01*
X55554333Y-118734619D02*
X55554333Y-118158428D01*
X55606714Y-118053666D01*
X55711476Y-118001285D01*
X55921000Y-118001285D01*
X56025761Y-118053666D01*
X55554333Y-118682238D02*
X55659095Y-118734619D01*
X55921000Y-118734619D01*
X56025761Y-118682238D01*
X56078142Y-118577476D01*
X56078142Y-118472714D01*
X56025761Y-118367952D01*
X55921000Y-118315571D01*
X55659095Y-118315571D01*
X55554333Y-118263190D01*
X54559095Y-118001285D02*
X54559095Y-118891761D01*
X54611476Y-118996523D01*
X54663857Y-119048904D01*
X54768619Y-119101285D01*
X54925761Y-119101285D01*
X55030523Y-119048904D01*
X54559095Y-118682238D02*
X54663857Y-118734619D01*
X54873380Y-118734619D01*
X54978142Y-118682238D01*
X55030523Y-118629857D01*
X55082904Y-118525095D01*
X55082904Y-118210809D01*
X55030523Y-118106047D01*
X54978142Y-118053666D01*
X54873380Y-118001285D01*
X54663857Y-118001285D01*
X54559095Y-118053666D01*
X54035285Y-118734619D02*
X54035285Y-117634619D01*
X53563857Y-118734619D02*
X53563857Y-118158428D01*
X53616238Y-118053666D01*
X53721000Y-118001285D01*
X53878142Y-118001285D01*
X53982904Y-118053666D01*
X54035285Y-118106047D01*
X52568619Y-118682238D02*
X52673380Y-118734619D01*
X52882904Y-118734619D01*
X52987666Y-118682238D01*
X53040047Y-118629857D01*
X53092428Y-118525095D01*
X53092428Y-118210809D01*
X53040047Y-118106047D01*
X52987666Y-118053666D01*
X52882904Y-118001285D01*
X52673380Y-118001285D01*
X52568619Y-118053666D01*
X51940047Y-118734619D02*
X52044809Y-118682238D01*
X52097190Y-118629857D01*
X52149571Y-118525095D01*
X52149571Y-118210809D01*
X52097190Y-118106047D01*
X52044809Y-118053666D01*
X51940047Y-118001285D01*
X51782904Y-118001285D01*
X51678142Y-118053666D01*
X51625761Y-118106047D01*
X51573380Y-118210809D01*
X51573380Y-118525095D01*
X51625761Y-118629857D01*
X51678142Y-118682238D01*
X51782904Y-118734619D01*
X51940047Y-118734619D01*
X51101952Y-118734619D02*
X51101952Y-118001285D01*
X51101952Y-118210809D02*
X51049571Y-118106047D01*
X50997190Y-118053666D01*
X50892428Y-118001285D01*
X50787666Y-118001285D01*
X50421000Y-118001285D02*
X50421000Y-119101285D01*
X50421000Y-118053666D02*
X50316238Y-118001285D01*
X50106714Y-118001285D01*
X50001952Y-118053666D01*
X49949571Y-118106047D01*
X49897190Y-118210809D01*
X49897190Y-118525095D01*
X49949571Y-118629857D01*
X50001952Y-118682238D01*
X50106714Y-118734619D01*
X50316238Y-118734619D01*
X50421000Y-118682238D01*
X49425761Y-118629857D02*
X49373380Y-118682238D01*
X49425761Y-118734619D01*
X49478142Y-118682238D01*
X49425761Y-118629857D01*
X49425761Y-118734619D01*
X48430523Y-118682238D02*
X48535285Y-118734619D01*
X48744809Y-118734619D01*
X48849571Y-118682238D01*
X48901952Y-118629857D01*
X48954333Y-118525095D01*
X48954333Y-118210809D01*
X48901952Y-118106047D01*
X48849571Y-118053666D01*
X48744809Y-118001285D01*
X48535285Y-118001285D01*
X48430523Y-118053666D01*
X47801952Y-118734619D02*
X47906714Y-118682238D01*
X47959095Y-118629857D01*
X48011476Y-118525095D01*
X48011476Y-118210809D01*
X47959095Y-118106047D01*
X47906714Y-118053666D01*
X47801952Y-118001285D01*
X47644809Y-118001285D01*
X47540047Y-118053666D01*
X47487666Y-118106047D01*
X47435285Y-118210809D01*
X47435285Y-118525095D01*
X47487666Y-118629857D01*
X47540047Y-118682238D01*
X47644809Y-118734619D01*
X47801952Y-118734619D01*
X46963857Y-118734619D02*
X46963857Y-118001285D01*
X46963857Y-118106047D02*
X46911476Y-118053666D01*
X46806714Y-118001285D01*
X46649571Y-118001285D01*
X46544809Y-118053666D01*
X46492428Y-118158428D01*
X46492428Y-118734619D01*
X46492428Y-118158428D02*
X46440047Y-118053666D01*
X46335285Y-118001285D01*
X46178142Y-118001285D01*
X46073380Y-118053666D01*
X46021000Y-118158428D01*
X46021000Y-118734619D01*
X59509095Y-120230333D02*
X58985285Y-120230333D01*
X59613857Y-120544619D02*
X59247190Y-119444619D01*
X58880523Y-120544619D01*
X58042428Y-119811285D02*
X58042428Y-120911285D01*
X58042428Y-120492238D02*
X58147190Y-120544619D01*
X58356714Y-120544619D01*
X58461476Y-120492238D01*
X58513857Y-120439857D01*
X58566238Y-120335095D01*
X58566238Y-120020809D01*
X58513857Y-119916047D01*
X58461476Y-119863666D01*
X58356714Y-119811285D01*
X58147190Y-119811285D01*
X58042428Y-119863666D01*
X57047190Y-119811285D02*
X57047190Y-120544619D01*
X57518619Y-119811285D02*
X57518619Y-120387476D01*
X57466238Y-120492238D01*
X57361476Y-120544619D01*
X57204333Y-120544619D01*
X57099571Y-120492238D01*
X57047190Y-120439857D01*
X56051952Y-120544619D02*
X56051952Y-119968428D01*
X56104333Y-119863666D01*
X56209095Y-119811285D01*
X56418619Y-119811285D01*
X56523380Y-119863666D01*
X56051952Y-120492238D02*
X56156714Y-120544619D01*
X56418619Y-120544619D01*
X56523380Y-120492238D01*
X56575761Y-120387476D01*
X56575761Y-120282714D01*
X56523380Y-120177952D01*
X56418619Y-120125571D01*
X56156714Y-120125571D01*
X56051952Y-120073190D01*
X55528142Y-120544619D02*
X55528142Y-119811285D01*
X55528142Y-120020809D02*
X55475761Y-119916047D01*
X55423380Y-119863666D01*
X55318619Y-119811285D01*
X55213857Y-119811285D01*
X54847190Y-120544619D02*
X54847190Y-119811285D01*
X54847190Y-119444619D02*
X54899571Y-119497000D01*
X54847190Y-119549380D01*
X54794809Y-119497000D01*
X54847190Y-119444619D01*
X54847190Y-119549380D01*
X53851952Y-119811285D02*
X53851952Y-120544619D01*
X54323380Y-119811285D02*
X54323380Y-120387476D01*
X54271000Y-120492238D01*
X54166238Y-120544619D01*
X54009095Y-120544619D01*
X53904333Y-120492238D01*
X53851952Y-120439857D01*
X53328142Y-120544619D02*
X53328142Y-119811285D01*
X53328142Y-119916047D02*
X53275761Y-119863666D01*
X53171000Y-119811285D01*
X53013857Y-119811285D01*
X52909095Y-119863666D01*
X52856714Y-119968428D01*
X52856714Y-120544619D01*
X52856714Y-119968428D02*
X52804333Y-119863666D01*
X52699571Y-119811285D01*
X52542428Y-119811285D01*
X52437666Y-119863666D01*
X52385285Y-119968428D01*
X52385285Y-120544619D01*
X51180523Y-119444619D02*
X50813857Y-120544619D01*
X50447190Y-119444619D01*
X49504333Y-120544619D02*
X50132904Y-120544619D01*
X49818619Y-120544619D02*
X49818619Y-119444619D01*
X49923380Y-119601761D01*
X50028142Y-119706523D01*
X50132904Y-119758904D01*
X49032904Y-120439857D02*
X48980523Y-120492238D01*
X49032904Y-120544619D01*
X49085285Y-120492238D01*
X49032904Y-120439857D01*
X49032904Y-120544619D01*
X48299571Y-119444619D02*
X48194809Y-119444619D01*
X48090047Y-119497000D01*
X48037666Y-119549380D01*
X47985285Y-119654142D01*
X47932904Y-119863666D01*
X47932904Y-120125571D01*
X47985285Y-120335095D01*
X48037666Y-120439857D01*
X48090047Y-120492238D01*
X48194809Y-120544619D01*
X48299571Y-120544619D01*
X48404333Y-120492238D01*
X48456714Y-120439857D01*
X48509095Y-120335095D01*
X48561476Y-120125571D01*
X48561476Y-119863666D01*
X48509095Y-119654142D01*
X48456714Y-119549380D01*
X48404333Y-119497000D01*
X48299571Y-119444619D01*
D11*
G04 #@! TO.C,G\u002A\u002A\u002A*
G36*
X72298623Y-101639339D02*
G01*
X71732176Y-101799442D01*
X71138738Y-102023951D01*
X71025879Y-102073420D01*
X70699982Y-102213468D01*
X70478635Y-102275179D01*
X70282102Y-102265823D01*
X70030647Y-102192670D01*
X69964379Y-102170216D01*
X69501703Y-102041296D01*
X69142110Y-102020452D01*
X68816742Y-102107462D01*
X68692786Y-102166150D01*
X68485139Y-102301738D01*
X68428058Y-102452452D01*
X68452074Y-102597950D01*
X68577536Y-102876806D01*
X68715243Y-103051757D01*
X68861199Y-103207635D01*
X68910200Y-103291963D01*
X68841844Y-103381463D01*
X68655406Y-103582988D01*
X68378833Y-103867262D01*
X68040070Y-104205008D01*
X68016879Y-104227805D01*
X67554866Y-104702762D01*
X67151280Y-105171096D01*
X66781311Y-105669770D01*
X66420153Y-106235747D01*
X66042999Y-106905989D01*
X65625040Y-107717458D01*
X65484622Y-108000800D01*
X65212877Y-108536033D01*
X64943585Y-109036506D01*
X64700676Y-109459795D01*
X64508077Y-109763474D01*
X64436434Y-109859222D01*
X64240634Y-110064163D01*
X63925494Y-110361721D01*
X63529653Y-110716717D01*
X63091751Y-111093969D01*
X62946064Y-111216131D01*
X62415717Y-111669873D01*
X62029431Y-112036704D01*
X61765642Y-112347440D01*
X61602787Y-112632892D01*
X61519302Y-112923876D01*
X61493622Y-113251203D01*
X61493400Y-113291913D01*
X61493400Y-113712753D01*
X61937205Y-113109887D01*
X62202556Y-112772578D01*
X62468523Y-112471903D01*
X62673805Y-112276217D01*
X62869444Y-112135955D01*
X62963191Y-112123051D01*
X63000412Y-112212502D01*
X62968053Y-112430172D01*
X62793104Y-112736716D01*
X62466815Y-113146389D01*
X62337351Y-113292370D01*
X62144158Y-113512421D01*
X62029778Y-113654998D01*
X62014978Y-113685909D01*
X62119359Y-113640667D01*
X62339795Y-113531611D01*
X62458600Y-113470619D01*
X62864777Y-113234445D01*
X63141115Y-112992593D01*
X63351717Y-112678744D01*
X63479303Y-112414640D01*
X63670889Y-112044436D01*
X63895349Y-111691114D01*
X63996734Y-111558531D01*
X64233078Y-111308099D01*
X64598288Y-110958510D01*
X65061454Y-110536152D01*
X65591666Y-110067410D01*
X66158012Y-109578671D01*
X66729582Y-109096323D01*
X67275464Y-108646752D01*
X67764749Y-108256346D01*
X68166524Y-107951490D01*
X68444170Y-107762010D01*
X69192682Y-107310816D01*
X69788455Y-106958291D01*
X70251557Y-106696203D01*
X70602056Y-106516318D01*
X70860019Y-106410401D01*
X71045515Y-106370220D01*
X71178610Y-106387541D01*
X71279372Y-106454130D01*
X71367868Y-106561753D01*
X71368239Y-106562276D01*
X71563747Y-106759240D01*
X71800985Y-106901327D01*
X72005701Y-106948974D01*
X72062623Y-106932255D01*
X72276444Y-106688209D01*
X72406914Y-106293628D01*
X72443337Y-105787747D01*
X72430938Y-105581322D01*
X72369989Y-104928627D01*
X72828035Y-104407313D01*
X73230738Y-103880854D01*
X73560566Y-103317344D01*
X73783671Y-102779719D01*
X73850618Y-102505896D01*
X73820150Y-102122532D01*
X73621692Y-101804227D01*
X73289596Y-101597407D01*
X73151067Y-101560493D01*
X72788210Y-101555677D01*
X72298623Y-101639339D01*
G37*
X72298623Y-101639339D02*
X71732176Y-101799442D01*
X71138738Y-102023951D01*
X71025879Y-102073420D01*
X70699982Y-102213468D01*
X70478635Y-102275179D01*
X70282102Y-102265823D01*
X70030647Y-102192670D01*
X69964379Y-102170216D01*
X69501703Y-102041296D01*
X69142110Y-102020452D01*
X68816742Y-102107462D01*
X68692786Y-102166150D01*
X68485139Y-102301738D01*
X68428058Y-102452452D01*
X68452074Y-102597950D01*
X68577536Y-102876806D01*
X68715243Y-103051757D01*
X68861199Y-103207635D01*
X68910200Y-103291963D01*
X68841844Y-103381463D01*
X68655406Y-103582988D01*
X68378833Y-103867262D01*
X68040070Y-104205008D01*
X68016879Y-104227805D01*
X67554866Y-104702762D01*
X67151280Y-105171096D01*
X66781311Y-105669770D01*
X66420153Y-106235747D01*
X66042999Y-106905989D01*
X65625040Y-107717458D01*
X65484622Y-108000800D01*
X65212877Y-108536033D01*
X64943585Y-109036506D01*
X64700676Y-109459795D01*
X64508077Y-109763474D01*
X64436434Y-109859222D01*
X64240634Y-110064163D01*
X63925494Y-110361721D01*
X63529653Y-110716717D01*
X63091751Y-111093969D01*
X62946064Y-111216131D01*
X62415717Y-111669873D01*
X62029431Y-112036704D01*
X61765642Y-112347440D01*
X61602787Y-112632892D01*
X61519302Y-112923876D01*
X61493622Y-113251203D01*
X61493400Y-113291913D01*
X61493400Y-113712753D01*
X61937205Y-113109887D01*
X62202556Y-112772578D01*
X62468523Y-112471903D01*
X62673805Y-112276217D01*
X62869444Y-112135955D01*
X62963191Y-112123051D01*
X63000412Y-112212502D01*
X62968053Y-112430172D01*
X62793104Y-112736716D01*
X62466815Y-113146389D01*
X62337351Y-113292370D01*
X62144158Y-113512421D01*
X62029778Y-113654998D01*
X62014978Y-113685909D01*
X62119359Y-113640667D01*
X62339795Y-113531611D01*
X62458600Y-113470619D01*
X62864777Y-113234445D01*
X63141115Y-112992593D01*
X63351717Y-112678744D01*
X63479303Y-112414640D01*
X63670889Y-112044436D01*
X63895349Y-111691114D01*
X63996734Y-111558531D01*
X64233078Y-111308099D01*
X64598288Y-110958510D01*
X65061454Y-110536152D01*
X65591666Y-110067410D01*
X66158012Y-109578671D01*
X66729582Y-109096323D01*
X67275464Y-108646752D01*
X67764749Y-108256346D01*
X68166524Y-107951490D01*
X68444170Y-107762010D01*
X69192682Y-107310816D01*
X69788455Y-106958291D01*
X70251557Y-106696203D01*
X70602056Y-106516318D01*
X70860019Y-106410401D01*
X71045515Y-106370220D01*
X71178610Y-106387541D01*
X71279372Y-106454130D01*
X71367868Y-106561753D01*
X71368239Y-106562276D01*
X71563747Y-106759240D01*
X71800985Y-106901327D01*
X72005701Y-106948974D01*
X72062623Y-106932255D01*
X72276444Y-106688209D01*
X72406914Y-106293628D01*
X72443337Y-105787747D01*
X72430938Y-105581322D01*
X72369989Y-104928627D01*
X72828035Y-104407313D01*
X73230738Y-103880854D01*
X73560566Y-103317344D01*
X73783671Y-102779719D01*
X73850618Y-102505896D01*
X73820150Y-102122532D01*
X73621692Y-101804227D01*
X73289596Y-101597407D01*
X73151067Y-101560493D01*
X72788210Y-101555677D01*
X72298623Y-101639339D01*
G36*
X102157090Y-119709612D02*
G01*
X102450773Y-120190852D01*
X102929266Y-120669629D01*
X103583589Y-121138138D01*
X104404758Y-121588579D01*
X105149739Y-121920088D01*
X105516509Y-122077428D01*
X105740340Y-122205950D01*
X105869310Y-122346138D01*
X105951496Y-122538481D01*
X105974995Y-122615042D01*
X106190500Y-123136774D01*
X106502512Y-123625725D01*
X106872516Y-124036408D01*
X107261996Y-124323334D01*
X107504317Y-124421169D01*
X107784518Y-124397049D01*
X108041634Y-124215604D01*
X108230260Y-123921481D01*
X108301093Y-123637720D01*
X108352501Y-123258732D01*
X108445853Y-123045228D01*
X108621199Y-122959500D01*
X108918588Y-122963841D01*
X109006667Y-122973405D01*
X110723996Y-123101096D01*
X112377539Y-123079989D01*
X113947627Y-122912500D01*
X115414591Y-122601045D01*
X116758765Y-122148039D01*
X117164191Y-121971528D01*
X117489476Y-121804293D01*
X117895998Y-121570516D01*
X118345464Y-121295214D01*
X118799581Y-121003402D01*
X119220053Y-120720094D01*
X119568588Y-120470307D01*
X119806890Y-120279056D01*
X119888612Y-120191809D01*
X119996010Y-120114492D01*
X120253772Y-119964264D01*
X120630245Y-119758547D01*
X121093776Y-119514760D01*
X121452609Y-119331034D01*
X122207297Y-118937029D01*
X122797378Y-118597352D01*
X123247111Y-118291360D01*
X123580753Y-117998415D01*
X123822564Y-117697875D01*
X123996802Y-117369099D01*
X124102456Y-117076374D01*
X124206655Y-116718905D01*
X124280500Y-116427179D01*
X124307600Y-116268068D01*
X124242410Y-116266785D01*
X124068496Y-116387579D01*
X123818342Y-116606407D01*
X123709740Y-116710570D01*
X123375999Y-117009195D01*
X122983699Y-117316511D01*
X122575720Y-117603835D01*
X122194941Y-117842480D01*
X121884245Y-118003763D01*
X121693711Y-118059200D01*
X121585718Y-118029706D01*
X121596257Y-117930657D01*
X121736276Y-117746199D01*
X122016722Y-117460480D01*
X122275600Y-117216564D01*
X122581992Y-116926780D01*
X122822138Y-116688023D01*
X122963249Y-116533519D01*
X122986800Y-116495851D01*
X122896242Y-116457898D01*
X122668523Y-116436076D01*
X122555000Y-116433979D01*
X122116928Y-116497205D01*
X121717921Y-116700386D01*
X121324693Y-117065009D01*
X121052606Y-117403935D01*
X120553469Y-118023003D01*
X120064299Y-118497767D01*
X119529957Y-118876411D01*
X119101054Y-119109312D01*
X118400682Y-119396650D01*
X117667473Y-119576073D01*
X116880607Y-119646097D01*
X116019263Y-119605237D01*
X115062623Y-119452008D01*
X113989868Y-119184928D01*
X112780177Y-118802513D01*
X112268000Y-118622226D01*
X111738728Y-118438124D01*
X111216157Y-118268061D01*
X110762861Y-118131736D01*
X110458095Y-118052451D01*
X110000632Y-117897417D01*
X109722018Y-117661613D01*
X109606964Y-117324282D01*
X109628940Y-116926563D01*
X109641043Y-116514946D01*
X109573188Y-116224577D01*
X109454037Y-116019041D01*
X109276157Y-115937338D01*
X109080673Y-115926553D01*
X108649460Y-116011249D01*
X108176455Y-116240559D01*
X107716528Y-116580360D01*
X107324545Y-116996527D01*
X107293248Y-117038229D01*
X106916693Y-117551200D01*
X106087146Y-117551967D01*
X104917885Y-117620737D01*
X103850550Y-117820677D01*
X103387064Y-117961207D01*
X102946453Y-118168866D01*
X102554290Y-118452342D01*
X102251925Y-118772069D01*
X102080707Y-119088481D01*
X102057200Y-119233711D01*
X102157090Y-119709612D01*
G37*
X102157090Y-119709612D02*
X102450773Y-120190852D01*
X102929266Y-120669629D01*
X103583589Y-121138138D01*
X104404758Y-121588579D01*
X105149739Y-121920088D01*
X105516509Y-122077428D01*
X105740340Y-122205950D01*
X105869310Y-122346138D01*
X105951496Y-122538481D01*
X105974995Y-122615042D01*
X106190500Y-123136774D01*
X106502512Y-123625725D01*
X106872516Y-124036408D01*
X107261996Y-124323334D01*
X107504317Y-124421169D01*
X107784518Y-124397049D01*
X108041634Y-124215604D01*
X108230260Y-123921481D01*
X108301093Y-123637720D01*
X108352501Y-123258732D01*
X108445853Y-123045228D01*
X108621199Y-122959500D01*
X108918588Y-122963841D01*
X109006667Y-122973405D01*
X110723996Y-123101096D01*
X112377539Y-123079989D01*
X113947627Y-122912500D01*
X115414591Y-122601045D01*
X116758765Y-122148039D01*
X117164191Y-121971528D01*
X117489476Y-121804293D01*
X117895998Y-121570516D01*
X118345464Y-121295214D01*
X118799581Y-121003402D01*
X119220053Y-120720094D01*
X119568588Y-120470307D01*
X119806890Y-120279056D01*
X119888612Y-120191809D01*
X119996010Y-120114492D01*
X120253772Y-119964264D01*
X120630245Y-119758547D01*
X121093776Y-119514760D01*
X121452609Y-119331034D01*
X122207297Y-118937029D01*
X122797378Y-118597352D01*
X123247111Y-118291360D01*
X123580753Y-117998415D01*
X123822564Y-117697875D01*
X123996802Y-117369099D01*
X124102456Y-117076374D01*
X124206655Y-116718905D01*
X124280500Y-116427179D01*
X124307600Y-116268068D01*
X124242410Y-116266785D01*
X124068496Y-116387579D01*
X123818342Y-116606407D01*
X123709740Y-116710570D01*
X123375999Y-117009195D01*
X122983699Y-117316511D01*
X122575720Y-117603835D01*
X122194941Y-117842480D01*
X121884245Y-118003763D01*
X121693711Y-118059200D01*
X121585718Y-118029706D01*
X121596257Y-117930657D01*
X121736276Y-117746199D01*
X122016722Y-117460480D01*
X122275600Y-117216564D01*
X122581992Y-116926780D01*
X122822138Y-116688023D01*
X122963249Y-116533519D01*
X122986800Y-116495851D01*
X122896242Y-116457898D01*
X122668523Y-116436076D01*
X122555000Y-116433979D01*
X122116928Y-116497205D01*
X121717921Y-116700386D01*
X121324693Y-117065009D01*
X121052606Y-117403935D01*
X120553469Y-118023003D01*
X120064299Y-118497767D01*
X119529957Y-118876411D01*
X119101054Y-119109312D01*
X118400682Y-119396650D01*
X117667473Y-119576073D01*
X116880607Y-119646097D01*
X116019263Y-119605237D01*
X115062623Y-119452008D01*
X113989868Y-119184928D01*
X112780177Y-118802513D01*
X112268000Y-118622226D01*
X111738728Y-118438124D01*
X111216157Y-118268061D01*
X110762861Y-118131736D01*
X110458095Y-118052451D01*
X110000632Y-117897417D01*
X109722018Y-117661613D01*
X109606964Y-117324282D01*
X109628940Y-116926563D01*
X109641043Y-116514946D01*
X109573188Y-116224577D01*
X109454037Y-116019041D01*
X109276157Y-115937338D01*
X109080673Y-115926553D01*
X108649460Y-116011249D01*
X108176455Y-116240559D01*
X107716528Y-116580360D01*
X107324545Y-116996527D01*
X107293248Y-117038229D01*
X106916693Y-117551200D01*
X106087146Y-117551967D01*
X104917885Y-117620737D01*
X103850550Y-117820677D01*
X103387064Y-117961207D01*
X102946453Y-118168866D01*
X102554290Y-118452342D01*
X102251925Y-118772069D01*
X102080707Y-119088481D01*
X102057200Y-119233711D01*
X102157090Y-119709612D01*
G36*
X57608910Y-109779388D02*
G01*
X57315227Y-109298148D01*
X56836734Y-108819371D01*
X56182411Y-108350862D01*
X55361242Y-107900421D01*
X54616261Y-107568912D01*
X54249491Y-107411572D01*
X54025660Y-107283050D01*
X53896690Y-107142862D01*
X53814504Y-106950519D01*
X53791005Y-106873958D01*
X53575500Y-106352226D01*
X53263488Y-105863275D01*
X52893484Y-105452592D01*
X52504004Y-105165666D01*
X52261683Y-105067831D01*
X51981482Y-105091951D01*
X51724366Y-105273396D01*
X51535740Y-105567519D01*
X51464907Y-105851280D01*
X51413499Y-106230268D01*
X51320147Y-106443772D01*
X51144801Y-106529500D01*
X50847412Y-106525159D01*
X50759333Y-106515595D01*
X49042004Y-106387904D01*
X47388461Y-106409011D01*
X45818373Y-106576500D01*
X44351409Y-106887955D01*
X43007235Y-107340961D01*
X42601809Y-107517472D01*
X42276524Y-107684707D01*
X41870002Y-107918484D01*
X41420536Y-108193786D01*
X40966419Y-108485598D01*
X40545947Y-108768906D01*
X40197412Y-109018693D01*
X39959110Y-109209944D01*
X39877388Y-109297191D01*
X39769990Y-109374508D01*
X39512228Y-109524736D01*
X39135755Y-109730453D01*
X38672224Y-109974240D01*
X38313391Y-110157966D01*
X37558703Y-110551971D01*
X36968622Y-110891648D01*
X36518889Y-111197640D01*
X36185247Y-111490585D01*
X35943436Y-111791125D01*
X35769198Y-112119901D01*
X35663544Y-112412626D01*
X35559345Y-112770095D01*
X35485500Y-113061821D01*
X35458400Y-113220932D01*
X35523590Y-113222215D01*
X35697504Y-113101421D01*
X35947658Y-112882593D01*
X36056260Y-112778430D01*
X36390001Y-112479805D01*
X36782301Y-112172489D01*
X37190280Y-111885165D01*
X37571059Y-111646520D01*
X37881755Y-111485237D01*
X38072289Y-111429800D01*
X38180282Y-111459294D01*
X38169743Y-111558343D01*
X38029724Y-111742801D01*
X37749278Y-112028520D01*
X37490400Y-112272436D01*
X37184008Y-112562220D01*
X36943862Y-112800977D01*
X36802751Y-112955481D01*
X36779200Y-112993149D01*
X36869758Y-113031102D01*
X37097477Y-113052924D01*
X37211000Y-113055021D01*
X37649072Y-112991795D01*
X38048079Y-112788614D01*
X38441307Y-112423991D01*
X38713394Y-112085065D01*
X39212531Y-111465997D01*
X39701701Y-110991233D01*
X40236043Y-110612589D01*
X40664946Y-110379688D01*
X41365318Y-110092350D01*
X42098527Y-109912927D01*
X42885393Y-109842903D01*
X43746737Y-109883763D01*
X44703377Y-110036992D01*
X45776132Y-110304072D01*
X46985823Y-110686487D01*
X47498000Y-110866774D01*
X48027272Y-111050876D01*
X48549843Y-111220939D01*
X49003139Y-111357264D01*
X49307905Y-111436549D01*
X49765368Y-111591583D01*
X50043982Y-111827387D01*
X50159036Y-112164718D01*
X50137060Y-112562437D01*
X50124957Y-112974054D01*
X50192812Y-113264423D01*
X50311963Y-113469959D01*
X50489843Y-113551662D01*
X50685327Y-113562447D01*
X51116540Y-113477751D01*
X51589545Y-113248441D01*
X52049472Y-112908640D01*
X52441455Y-112492473D01*
X52472752Y-112450771D01*
X52849307Y-111937800D01*
X53678854Y-111937033D01*
X54848115Y-111868263D01*
X55915450Y-111668323D01*
X56378936Y-111527793D01*
X56819547Y-111320134D01*
X57211710Y-111036658D01*
X57514075Y-110716931D01*
X57685293Y-110400519D01*
X57708800Y-110255289D01*
X57608910Y-109779388D01*
G37*
X57608910Y-109779388D02*
X57315227Y-109298148D01*
X56836734Y-108819371D01*
X56182411Y-108350862D01*
X55361242Y-107900421D01*
X54616261Y-107568912D01*
X54249491Y-107411572D01*
X54025660Y-107283050D01*
X53896690Y-107142862D01*
X53814504Y-106950519D01*
X53791005Y-106873958D01*
X53575500Y-106352226D01*
X53263488Y-105863275D01*
X52893484Y-105452592D01*
X52504004Y-105165666D01*
X52261683Y-105067831D01*
X51981482Y-105091951D01*
X51724366Y-105273396D01*
X51535740Y-105567519D01*
X51464907Y-105851280D01*
X51413499Y-106230268D01*
X51320147Y-106443772D01*
X51144801Y-106529500D01*
X50847412Y-106525159D01*
X50759333Y-106515595D01*
X49042004Y-106387904D01*
X47388461Y-106409011D01*
X45818373Y-106576500D01*
X44351409Y-106887955D01*
X43007235Y-107340961D01*
X42601809Y-107517472D01*
X42276524Y-107684707D01*
X41870002Y-107918484D01*
X41420536Y-108193786D01*
X40966419Y-108485598D01*
X40545947Y-108768906D01*
X40197412Y-109018693D01*
X39959110Y-109209944D01*
X39877388Y-109297191D01*
X39769990Y-109374508D01*
X39512228Y-109524736D01*
X39135755Y-109730453D01*
X38672224Y-109974240D01*
X38313391Y-110157966D01*
X37558703Y-110551971D01*
X36968622Y-110891648D01*
X36518889Y-111197640D01*
X36185247Y-111490585D01*
X35943436Y-111791125D01*
X35769198Y-112119901D01*
X35663544Y-112412626D01*
X35559345Y-112770095D01*
X35485500Y-113061821D01*
X35458400Y-113220932D01*
X35523590Y-113222215D01*
X35697504Y-113101421D01*
X35947658Y-112882593D01*
X36056260Y-112778430D01*
X36390001Y-112479805D01*
X36782301Y-112172489D01*
X37190280Y-111885165D01*
X37571059Y-111646520D01*
X37881755Y-111485237D01*
X38072289Y-111429800D01*
X38180282Y-111459294D01*
X38169743Y-111558343D01*
X38029724Y-111742801D01*
X37749278Y-112028520D01*
X37490400Y-112272436D01*
X37184008Y-112562220D01*
X36943862Y-112800977D01*
X36802751Y-112955481D01*
X36779200Y-112993149D01*
X36869758Y-113031102D01*
X37097477Y-113052924D01*
X37211000Y-113055021D01*
X37649072Y-112991795D01*
X38048079Y-112788614D01*
X38441307Y-112423991D01*
X38713394Y-112085065D01*
X39212531Y-111465997D01*
X39701701Y-110991233D01*
X40236043Y-110612589D01*
X40664946Y-110379688D01*
X41365318Y-110092350D01*
X42098527Y-109912927D01*
X42885393Y-109842903D01*
X43746737Y-109883763D01*
X44703377Y-110036992D01*
X45776132Y-110304072D01*
X46985823Y-110686487D01*
X47498000Y-110866774D01*
X48027272Y-111050876D01*
X48549843Y-111220939D01*
X49003139Y-111357264D01*
X49307905Y-111436549D01*
X49765368Y-111591583D01*
X50043982Y-111827387D01*
X50159036Y-112164718D01*
X50137060Y-112562437D01*
X50124957Y-112974054D01*
X50192812Y-113264423D01*
X50311963Y-113469959D01*
X50489843Y-113551662D01*
X50685327Y-113562447D01*
X51116540Y-113477751D01*
X51589545Y-113248441D01*
X52049472Y-112908640D01*
X52441455Y-112492473D01*
X52472752Y-112450771D01*
X52849307Y-111937800D01*
X53678854Y-111937033D01*
X54848115Y-111868263D01*
X55915450Y-111668323D01*
X56378936Y-111527793D01*
X56819547Y-111320134D01*
X57211710Y-111036658D01*
X57514075Y-110716931D01*
X57685293Y-110400519D01*
X57708800Y-110255289D01*
X57608910Y-109779388D01*
G36*
X84786910Y-118415388D02*
G01*
X84493227Y-117934148D01*
X84014734Y-117455371D01*
X83360411Y-116986862D01*
X82539242Y-116536421D01*
X81794261Y-116204912D01*
X81427491Y-116047572D01*
X81203660Y-115919050D01*
X81074690Y-115778862D01*
X80992504Y-115586519D01*
X80969005Y-115509958D01*
X80753500Y-114988226D01*
X80441488Y-114499275D01*
X80071484Y-114088592D01*
X79682004Y-113801666D01*
X79439683Y-113703831D01*
X79159482Y-113727951D01*
X78902366Y-113909396D01*
X78713740Y-114203519D01*
X78642907Y-114487280D01*
X78591499Y-114866268D01*
X78498147Y-115079772D01*
X78322801Y-115165500D01*
X78025412Y-115161159D01*
X77937333Y-115151595D01*
X76220004Y-115023904D01*
X74566461Y-115045011D01*
X72996373Y-115212500D01*
X71529409Y-115523955D01*
X70185235Y-115976961D01*
X69779809Y-116153472D01*
X69454524Y-116320707D01*
X69048002Y-116554484D01*
X68598536Y-116829786D01*
X68144419Y-117121598D01*
X67723947Y-117404906D01*
X67375412Y-117654693D01*
X67137110Y-117845944D01*
X67055388Y-117933191D01*
X66947990Y-118010508D01*
X66690228Y-118160736D01*
X66313755Y-118366453D01*
X65850224Y-118610240D01*
X65491391Y-118793966D01*
X64736703Y-119187971D01*
X64146622Y-119527648D01*
X63696889Y-119833640D01*
X63363247Y-120126585D01*
X63121436Y-120427125D01*
X62947198Y-120755901D01*
X62841544Y-121048626D01*
X62737345Y-121406095D01*
X62663500Y-121697821D01*
X62636400Y-121856932D01*
X62701590Y-121858215D01*
X62875504Y-121737421D01*
X63125658Y-121518593D01*
X63234260Y-121414430D01*
X63568001Y-121115805D01*
X63960301Y-120808489D01*
X64368280Y-120521165D01*
X64749059Y-120282520D01*
X65059755Y-120121237D01*
X65250289Y-120065800D01*
X65358282Y-120095294D01*
X65347743Y-120194343D01*
X65207724Y-120378801D01*
X64927278Y-120664520D01*
X64668400Y-120908436D01*
X64362008Y-121198220D01*
X64121862Y-121436977D01*
X63980751Y-121591481D01*
X63957200Y-121629149D01*
X64047758Y-121667102D01*
X64275477Y-121688924D01*
X64389000Y-121691021D01*
X64827072Y-121627795D01*
X65226079Y-121424614D01*
X65619307Y-121059991D01*
X65891394Y-120721065D01*
X66390531Y-120101997D01*
X66879701Y-119627233D01*
X67414043Y-119248589D01*
X67842946Y-119015688D01*
X68543318Y-118728350D01*
X69276527Y-118548927D01*
X70063393Y-118478903D01*
X70924737Y-118519763D01*
X71881377Y-118672992D01*
X72954132Y-118940072D01*
X74163823Y-119322487D01*
X74676000Y-119502774D01*
X75205272Y-119686876D01*
X75727843Y-119856939D01*
X76181139Y-119993264D01*
X76485905Y-120072549D01*
X76943368Y-120227583D01*
X77221982Y-120463387D01*
X77337036Y-120800718D01*
X77315060Y-121198437D01*
X77302957Y-121610054D01*
X77370812Y-121900423D01*
X77489963Y-122105959D01*
X77667843Y-122187662D01*
X77863327Y-122198447D01*
X78294540Y-122113751D01*
X78767545Y-121884441D01*
X79227472Y-121544640D01*
X79619455Y-121128473D01*
X79650752Y-121086771D01*
X80027307Y-120573800D01*
X80856854Y-120573033D01*
X82026115Y-120504263D01*
X83093450Y-120304323D01*
X83556936Y-120163793D01*
X83997547Y-119956134D01*
X84389710Y-119672658D01*
X84692075Y-119352931D01*
X84863293Y-119036519D01*
X84886800Y-118891289D01*
X84786910Y-118415388D01*
G37*
X84786910Y-118415388D02*
X84493227Y-117934148D01*
X84014734Y-117455371D01*
X83360411Y-116986862D01*
X82539242Y-116536421D01*
X81794261Y-116204912D01*
X81427491Y-116047572D01*
X81203660Y-115919050D01*
X81074690Y-115778862D01*
X80992504Y-115586519D01*
X80969005Y-115509958D01*
X80753500Y-114988226D01*
X80441488Y-114499275D01*
X80071484Y-114088592D01*
X79682004Y-113801666D01*
X79439683Y-113703831D01*
X79159482Y-113727951D01*
X78902366Y-113909396D01*
X78713740Y-114203519D01*
X78642907Y-114487280D01*
X78591499Y-114866268D01*
X78498147Y-115079772D01*
X78322801Y-115165500D01*
X78025412Y-115161159D01*
X77937333Y-115151595D01*
X76220004Y-115023904D01*
X74566461Y-115045011D01*
X72996373Y-115212500D01*
X71529409Y-115523955D01*
X70185235Y-115976961D01*
X69779809Y-116153472D01*
X69454524Y-116320707D01*
X69048002Y-116554484D01*
X68598536Y-116829786D01*
X68144419Y-117121598D01*
X67723947Y-117404906D01*
X67375412Y-117654693D01*
X67137110Y-117845944D01*
X67055388Y-117933191D01*
X66947990Y-118010508D01*
X66690228Y-118160736D01*
X66313755Y-118366453D01*
X65850224Y-118610240D01*
X65491391Y-118793966D01*
X64736703Y-119187971D01*
X64146622Y-119527648D01*
X63696889Y-119833640D01*
X63363247Y-120126585D01*
X63121436Y-120427125D01*
X62947198Y-120755901D01*
X62841544Y-121048626D01*
X62737345Y-121406095D01*
X62663500Y-121697821D01*
X62636400Y-121856932D01*
X62701590Y-121858215D01*
X62875504Y-121737421D01*
X63125658Y-121518593D01*
X63234260Y-121414430D01*
X63568001Y-121115805D01*
X63960301Y-120808489D01*
X64368280Y-120521165D01*
X64749059Y-120282520D01*
X65059755Y-120121237D01*
X65250289Y-120065800D01*
X65358282Y-120095294D01*
X65347743Y-120194343D01*
X65207724Y-120378801D01*
X64927278Y-120664520D01*
X64668400Y-120908436D01*
X64362008Y-121198220D01*
X64121862Y-121436977D01*
X63980751Y-121591481D01*
X63957200Y-121629149D01*
X64047758Y-121667102D01*
X64275477Y-121688924D01*
X64389000Y-121691021D01*
X64827072Y-121627795D01*
X65226079Y-121424614D01*
X65619307Y-121059991D01*
X65891394Y-120721065D01*
X66390531Y-120101997D01*
X66879701Y-119627233D01*
X67414043Y-119248589D01*
X67842946Y-119015688D01*
X68543318Y-118728350D01*
X69276527Y-118548927D01*
X70063393Y-118478903D01*
X70924737Y-118519763D01*
X71881377Y-118672992D01*
X72954132Y-118940072D01*
X74163823Y-119322487D01*
X74676000Y-119502774D01*
X75205272Y-119686876D01*
X75727843Y-119856939D01*
X76181139Y-119993264D01*
X76485905Y-120072549D01*
X76943368Y-120227583D01*
X77221982Y-120463387D01*
X77337036Y-120800718D01*
X77315060Y-121198437D01*
X77302957Y-121610054D01*
X77370812Y-121900423D01*
X77489963Y-122105959D01*
X77667843Y-122187662D01*
X77863327Y-122198447D01*
X78294540Y-122113751D01*
X78767545Y-121884441D01*
X79227472Y-121544640D01*
X79619455Y-121128473D01*
X79650752Y-121086771D01*
X80027307Y-120573800D01*
X80856854Y-120573033D01*
X82026115Y-120504263D01*
X83093450Y-120304323D01*
X83556936Y-120163793D01*
X83997547Y-119956134D01*
X84389710Y-119672658D01*
X84692075Y-119352931D01*
X84863293Y-119036519D01*
X84886800Y-118891289D01*
X84786910Y-118415388D01*
G36*
X80567090Y-104850612D02*
G01*
X80860773Y-105331852D01*
X81339266Y-105810629D01*
X81993589Y-106279138D01*
X82814758Y-106729579D01*
X83559739Y-107061088D01*
X83926509Y-107218428D01*
X84150340Y-107346950D01*
X84279310Y-107487138D01*
X84361496Y-107679481D01*
X84384995Y-107756042D01*
X84600500Y-108277774D01*
X84912512Y-108766725D01*
X85282516Y-109177408D01*
X85671996Y-109464334D01*
X85914317Y-109562169D01*
X86194518Y-109538049D01*
X86451634Y-109356604D01*
X86640260Y-109062481D01*
X86711093Y-108778720D01*
X86762501Y-108399732D01*
X86855853Y-108186228D01*
X87031199Y-108100500D01*
X87328588Y-108104841D01*
X87416667Y-108114405D01*
X89133996Y-108242096D01*
X90787539Y-108220989D01*
X92357627Y-108053500D01*
X93824591Y-107742045D01*
X95168765Y-107289039D01*
X95574191Y-107112528D01*
X95899476Y-106945293D01*
X96305998Y-106711516D01*
X96755464Y-106436214D01*
X97209581Y-106144402D01*
X97630053Y-105861094D01*
X97978588Y-105611307D01*
X98216890Y-105420056D01*
X98298612Y-105332809D01*
X98406010Y-105255492D01*
X98663772Y-105105264D01*
X99040245Y-104899547D01*
X99503776Y-104655760D01*
X99862609Y-104472034D01*
X100617297Y-104078029D01*
X101207378Y-103738352D01*
X101657111Y-103432360D01*
X101990753Y-103139415D01*
X102232564Y-102838875D01*
X102406802Y-102510099D01*
X102512456Y-102217374D01*
X102616655Y-101859905D01*
X102690500Y-101568179D01*
X102717600Y-101409068D01*
X102652410Y-101407785D01*
X102478496Y-101528579D01*
X102228342Y-101747407D01*
X102119740Y-101851570D01*
X101785999Y-102150195D01*
X101393699Y-102457511D01*
X100985720Y-102744835D01*
X100604941Y-102983480D01*
X100294245Y-103144763D01*
X100103711Y-103200200D01*
X99995718Y-103170706D01*
X100006257Y-103071657D01*
X100146276Y-102887199D01*
X100426722Y-102601480D01*
X100685600Y-102357564D01*
X100991992Y-102067780D01*
X101232138Y-101829023D01*
X101373249Y-101674519D01*
X101396800Y-101636851D01*
X101306242Y-101598898D01*
X101078523Y-101577076D01*
X100965000Y-101574979D01*
X100526928Y-101638205D01*
X100127921Y-101841386D01*
X99734693Y-102206009D01*
X99462606Y-102544935D01*
X98963469Y-103164003D01*
X98474299Y-103638767D01*
X97939957Y-104017411D01*
X97511054Y-104250312D01*
X96810682Y-104537650D01*
X96077473Y-104717073D01*
X95290607Y-104787097D01*
X94429263Y-104746237D01*
X93472623Y-104593008D01*
X92399868Y-104325928D01*
X91190177Y-103943513D01*
X90678000Y-103763226D01*
X90148728Y-103579124D01*
X89626157Y-103409061D01*
X89172861Y-103272736D01*
X88868095Y-103193451D01*
X88410632Y-103038417D01*
X88132018Y-102802613D01*
X88016964Y-102465282D01*
X88038940Y-102067563D01*
X88051043Y-101655946D01*
X87983188Y-101365577D01*
X87864037Y-101160041D01*
X87686157Y-101078338D01*
X87490673Y-101067553D01*
X87059460Y-101152249D01*
X86586455Y-101381559D01*
X86126528Y-101721360D01*
X85734545Y-102137527D01*
X85703248Y-102179229D01*
X85326693Y-102692200D01*
X84497146Y-102692967D01*
X83327885Y-102761737D01*
X82260550Y-102961677D01*
X81797064Y-103102207D01*
X81356453Y-103309866D01*
X80964290Y-103593342D01*
X80661925Y-103913069D01*
X80490707Y-104229481D01*
X80467200Y-104374711D01*
X80567090Y-104850612D01*
G37*
X80567090Y-104850612D02*
X80860773Y-105331852D01*
X81339266Y-105810629D01*
X81993589Y-106279138D01*
X82814758Y-106729579D01*
X83559739Y-107061088D01*
X83926509Y-107218428D01*
X84150340Y-107346950D01*
X84279310Y-107487138D01*
X84361496Y-107679481D01*
X84384995Y-107756042D01*
X84600500Y-108277774D01*
X84912512Y-108766725D01*
X85282516Y-109177408D01*
X85671996Y-109464334D01*
X85914317Y-109562169D01*
X86194518Y-109538049D01*
X86451634Y-109356604D01*
X86640260Y-109062481D01*
X86711093Y-108778720D01*
X86762501Y-108399732D01*
X86855853Y-108186228D01*
X87031199Y-108100500D01*
X87328588Y-108104841D01*
X87416667Y-108114405D01*
X89133996Y-108242096D01*
X90787539Y-108220989D01*
X92357627Y-108053500D01*
X93824591Y-107742045D01*
X95168765Y-107289039D01*
X95574191Y-107112528D01*
X95899476Y-106945293D01*
X96305998Y-106711516D01*
X96755464Y-106436214D01*
X97209581Y-106144402D01*
X97630053Y-105861094D01*
X97978588Y-105611307D01*
X98216890Y-105420056D01*
X98298612Y-105332809D01*
X98406010Y-105255492D01*
X98663772Y-105105264D01*
X99040245Y-104899547D01*
X99503776Y-104655760D01*
X99862609Y-104472034D01*
X100617297Y-104078029D01*
X101207378Y-103738352D01*
X101657111Y-103432360D01*
X101990753Y-103139415D01*
X102232564Y-102838875D01*
X102406802Y-102510099D01*
X102512456Y-102217374D01*
X102616655Y-101859905D01*
X102690500Y-101568179D01*
X102717600Y-101409068D01*
X102652410Y-101407785D01*
X102478496Y-101528579D01*
X102228342Y-101747407D01*
X102119740Y-101851570D01*
X101785999Y-102150195D01*
X101393699Y-102457511D01*
X100985720Y-102744835D01*
X100604941Y-102983480D01*
X100294245Y-103144763D01*
X100103711Y-103200200D01*
X99995718Y-103170706D01*
X100006257Y-103071657D01*
X100146276Y-102887199D01*
X100426722Y-102601480D01*
X100685600Y-102357564D01*
X100991992Y-102067780D01*
X101232138Y-101829023D01*
X101373249Y-101674519D01*
X101396800Y-101636851D01*
X101306242Y-101598898D01*
X101078523Y-101577076D01*
X100965000Y-101574979D01*
X100526928Y-101638205D01*
X100127921Y-101841386D01*
X99734693Y-102206009D01*
X99462606Y-102544935D01*
X98963469Y-103164003D01*
X98474299Y-103638767D01*
X97939957Y-104017411D01*
X97511054Y-104250312D01*
X96810682Y-104537650D01*
X96077473Y-104717073D01*
X95290607Y-104787097D01*
X94429263Y-104746237D01*
X93472623Y-104593008D01*
X92399868Y-104325928D01*
X91190177Y-103943513D01*
X90678000Y-103763226D01*
X90148728Y-103579124D01*
X89626157Y-103409061D01*
X89172861Y-103272736D01*
X88868095Y-103193451D01*
X88410632Y-103038417D01*
X88132018Y-102802613D01*
X88016964Y-102465282D01*
X88038940Y-102067563D01*
X88051043Y-101655946D01*
X87983188Y-101365577D01*
X87864037Y-101160041D01*
X87686157Y-101078338D01*
X87490673Y-101067553D01*
X87059460Y-101152249D01*
X86586455Y-101381559D01*
X86126528Y-101721360D01*
X85734545Y-102137527D01*
X85703248Y-102179229D01*
X85326693Y-102692200D01*
X84497146Y-102692967D01*
X83327885Y-102761737D01*
X82260550Y-102961677D01*
X81797064Y-103102207D01*
X81356453Y-103309866D01*
X80964290Y-103593342D01*
X80661925Y-103913069D01*
X80490707Y-104229481D01*
X80467200Y-104374711D01*
X80567090Y-104850612D01*
G36*
X60175615Y-83161489D02*
G01*
X60291877Y-83469659D01*
X60506191Y-83926078D01*
X60736082Y-84330381D01*
X61031962Y-84740160D01*
X61426816Y-85197368D01*
X61866489Y-85656231D01*
X62380545Y-86192576D01*
X62760189Y-86644766D01*
X63025220Y-87060960D01*
X63195439Y-87489320D01*
X63290649Y-87978009D01*
X63330650Y-88575186D01*
X63335898Y-89230200D01*
X63327725Y-89818307D01*
X63304285Y-90285869D01*
X63256131Y-90702437D01*
X63173816Y-91137564D01*
X63047891Y-91660805D01*
X62959746Y-91999502D01*
X62778790Y-92640990D01*
X62562370Y-93340188D01*
X62338287Y-94010503D01*
X62143525Y-94541947D01*
X61938637Y-95043129D01*
X61698365Y-95594585D01*
X61438928Y-96162968D01*
X61176543Y-96714935D01*
X60927428Y-97217140D01*
X60707800Y-97636239D01*
X60533877Y-97938886D01*
X60421876Y-98091737D01*
X60414012Y-98097989D01*
X60250066Y-98133672D01*
X59971435Y-98130344D01*
X59842400Y-98116859D01*
X59223553Y-98049298D01*
X58777501Y-98042628D01*
X58480117Y-98107619D01*
X58307276Y-98255037D01*
X58234852Y-98495653D01*
X58238104Y-98832921D01*
X58396079Y-99536379D01*
X58741601Y-100202277D01*
X59138641Y-100682476D01*
X59554997Y-101102995D01*
X59426735Y-101694397D01*
X59373905Y-102041096D01*
X59330194Y-102521781D01*
X59300787Y-103067279D01*
X59291036Y-103505000D01*
X59311567Y-104291661D01*
X59388249Y-104906199D01*
X59527596Y-105373536D01*
X59736124Y-105718592D01*
X59914888Y-105891507D01*
X60232509Y-106038116D01*
X60635332Y-106090196D01*
X61023101Y-106036253D01*
X61061600Y-106022955D01*
X61463011Y-105798511D01*
X61919448Y-105417044D01*
X62405033Y-104907932D01*
X62893885Y-104300549D01*
X63360123Y-103624273D01*
X63734923Y-102988549D01*
X64122245Y-102274417D01*
X64813484Y-102112193D01*
X65242918Y-101986027D01*
X65659749Y-101822255D01*
X65925288Y-101684477D01*
X66205435Y-101466906D01*
X66491203Y-101180607D01*
X66739493Y-100877184D01*
X66907206Y-100608241D01*
X66954400Y-100452281D01*
X66871459Y-100276689D01*
X66663773Y-100066960D01*
X66393051Y-99869739D01*
X66121001Y-99731672D01*
X65952576Y-99695000D01*
X65654218Y-99612628D01*
X65445968Y-99457570D01*
X65329269Y-99323583D01*
X65276889Y-99200670D01*
X65285924Y-99028962D01*
X65353470Y-98748588D01*
X65402858Y-98568570D01*
X65497897Y-98043257D01*
X65546646Y-97351194D01*
X65552322Y-96522707D01*
X65518140Y-95588123D01*
X65447318Y-94577770D01*
X65343072Y-93521973D01*
X65208619Y-92451059D01*
X65047177Y-91395355D01*
X64861961Y-90385188D01*
X64656188Y-89450884D01*
X64433076Y-88622770D01*
X64306175Y-88229427D01*
X64106285Y-87682501D01*
X63908451Y-87228281D01*
X63686387Y-86831171D01*
X63413808Y-86455576D01*
X63064429Y-86065901D01*
X62611966Y-85626549D01*
X62030134Y-85101925D01*
X61934336Y-85017427D01*
X61385251Y-84483403D01*
X60893354Y-83910630D01*
X60638936Y-83556591D01*
X60389068Y-83199125D01*
X60226819Y-83018961D01*
X60154798Y-83008836D01*
X60175615Y-83161489D01*
G37*
X60175615Y-83161489D02*
X60291877Y-83469659D01*
X60506191Y-83926078D01*
X60736082Y-84330381D01*
X61031962Y-84740160D01*
X61426816Y-85197368D01*
X61866489Y-85656231D01*
X62380545Y-86192576D01*
X62760189Y-86644766D01*
X63025220Y-87060960D01*
X63195439Y-87489320D01*
X63290649Y-87978009D01*
X63330650Y-88575186D01*
X63335898Y-89230200D01*
X63327725Y-89818307D01*
X63304285Y-90285869D01*
X63256131Y-90702437D01*
X63173816Y-91137564D01*
X63047891Y-91660805D01*
X62959746Y-91999502D01*
X62778790Y-92640990D01*
X62562370Y-93340188D01*
X62338287Y-94010503D01*
X62143525Y-94541947D01*
X61938637Y-95043129D01*
X61698365Y-95594585D01*
X61438928Y-96162968D01*
X61176543Y-96714935D01*
X60927428Y-97217140D01*
X60707800Y-97636239D01*
X60533877Y-97938886D01*
X60421876Y-98091737D01*
X60414012Y-98097989D01*
X60250066Y-98133672D01*
X59971435Y-98130344D01*
X59842400Y-98116859D01*
X59223553Y-98049298D01*
X58777501Y-98042628D01*
X58480117Y-98107619D01*
X58307276Y-98255037D01*
X58234852Y-98495653D01*
X58238104Y-98832921D01*
X58396079Y-99536379D01*
X58741601Y-100202277D01*
X59138641Y-100682476D01*
X59554997Y-101102995D01*
X59426735Y-101694397D01*
X59373905Y-102041096D01*
X59330194Y-102521781D01*
X59300787Y-103067279D01*
X59291036Y-103505000D01*
X59311567Y-104291661D01*
X59388249Y-104906199D01*
X59527596Y-105373536D01*
X59736124Y-105718592D01*
X59914888Y-105891507D01*
X60232509Y-106038116D01*
X60635332Y-106090196D01*
X61023101Y-106036253D01*
X61061600Y-106022955D01*
X61463011Y-105798511D01*
X61919448Y-105417044D01*
X62405033Y-104907932D01*
X62893885Y-104300549D01*
X63360123Y-103624273D01*
X63734923Y-102988549D01*
X64122245Y-102274417D01*
X64813484Y-102112193D01*
X65242918Y-101986027D01*
X65659749Y-101822255D01*
X65925288Y-101684477D01*
X66205435Y-101466906D01*
X66491203Y-101180607D01*
X66739493Y-100877184D01*
X66907206Y-100608241D01*
X66954400Y-100452281D01*
X66871459Y-100276689D01*
X66663773Y-100066960D01*
X66393051Y-99869739D01*
X66121001Y-99731672D01*
X65952576Y-99695000D01*
X65654218Y-99612628D01*
X65445968Y-99457570D01*
X65329269Y-99323583D01*
X65276889Y-99200670D01*
X65285924Y-99028962D01*
X65353470Y-98748588D01*
X65402858Y-98568570D01*
X65497897Y-98043257D01*
X65546646Y-97351194D01*
X65552322Y-96522707D01*
X65518140Y-95588123D01*
X65447318Y-94577770D01*
X65343072Y-93521973D01*
X65208619Y-92451059D01*
X65047177Y-91395355D01*
X64861961Y-90385188D01*
X64656188Y-89450884D01*
X64433076Y-88622770D01*
X64306175Y-88229427D01*
X64106285Y-87682501D01*
X63908451Y-87228281D01*
X63686387Y-86831171D01*
X63413808Y-86455576D01*
X63064429Y-86065901D01*
X62611966Y-85626549D01*
X62030134Y-85101925D01*
X61934336Y-85017427D01*
X61385251Y-84483403D01*
X60893354Y-83910630D01*
X60638936Y-83556591D01*
X60389068Y-83199125D01*
X60226819Y-83018961D01*
X60154798Y-83008836D01*
X60175615Y-83161489D01*
G36*
X84844447Y-81254600D02*
G01*
X84761368Y-81530647D01*
X84689420Y-81905985D01*
X84659798Y-82143600D01*
X84616372Y-82457288D01*
X84560651Y-82669338D01*
X84517089Y-82727800D01*
X84462305Y-82819987D01*
X84434574Y-83063010D01*
X84432116Y-83406561D01*
X84453151Y-83800332D01*
X84495897Y-84194016D01*
X84558575Y-84537304D01*
X84584605Y-84635276D01*
X84779922Y-85123897D01*
X85077037Y-85578853D01*
X85502113Y-86030815D01*
X86081315Y-86510457D01*
X86357635Y-86713798D01*
X86779349Y-87023699D01*
X87175135Y-87327964D01*
X87494102Y-87586743D01*
X87655196Y-87729798D01*
X87980662Y-88134025D01*
X88293069Y-88683495D01*
X88565887Y-89320698D01*
X88772585Y-89988125D01*
X88839547Y-90297000D01*
X88885800Y-90630402D01*
X88929206Y-91092970D01*
X88968748Y-91652525D01*
X89003411Y-92276890D01*
X89032178Y-92933888D01*
X89054034Y-93591339D01*
X89067961Y-94217067D01*
X89072944Y-94778894D01*
X89067966Y-95244642D01*
X89052012Y-95582133D01*
X89024064Y-95759190D01*
X89012598Y-95776603D01*
X88856576Y-95823547D01*
X88586128Y-95867220D01*
X88491700Y-95877531D01*
X88107847Y-95972261D01*
X87818398Y-96153755D01*
X87663016Y-96388703D01*
X87657779Y-96577843D01*
X87845153Y-96986114D01*
X88174369Y-97397323D01*
X88591159Y-97761211D01*
X89041251Y-98027522D01*
X89328561Y-98125067D01*
X89532344Y-98203259D01*
X89611200Y-98295411D01*
X89666842Y-98512795D01*
X89815687Y-98846502D01*
X90030614Y-99249112D01*
X90284503Y-99673202D01*
X90550232Y-100071352D01*
X90800682Y-100396139D01*
X90835091Y-100435416D01*
X91352912Y-100936250D01*
X91848504Y-101263024D01*
X92309353Y-101410821D01*
X92722947Y-101374729D01*
X92942754Y-101263086D01*
X93230698Y-100952171D01*
X93468244Y-100475661D01*
X93644997Y-99867180D01*
X93750563Y-99160356D01*
X93776800Y-98564916D01*
X93776800Y-97851233D01*
X94323701Y-97351397D01*
X94778097Y-96876537D01*
X95059164Y-96429032D01*
X95186661Y-95972943D01*
X95199200Y-95758953D01*
X95137829Y-95432614D01*
X94944090Y-95235318D01*
X94603547Y-95158865D01*
X94185164Y-95183129D01*
X93858986Y-95201930D01*
X93595615Y-95174992D01*
X93521251Y-95148542D01*
X93403785Y-95006768D01*
X93262464Y-94727773D01*
X93126830Y-94370395D01*
X93120109Y-94349593D01*
X92928370Y-93804087D01*
X92667986Y-93137666D01*
X92364436Y-92409500D01*
X92043200Y-91678759D01*
X91729758Y-91004614D01*
X91449588Y-90446235D01*
X91397987Y-90350361D01*
X90959161Y-89680741D01*
X90374323Y-88986614D01*
X89687990Y-88314094D01*
X88944683Y-87709295D01*
X88646000Y-87499756D01*
X87784744Y-86864172D01*
X87064225Y-86192577D01*
X86469220Y-85458587D01*
X85984508Y-84635821D01*
X85594867Y-83697899D01*
X85285076Y-82618439D01*
X85039913Y-81371058D01*
X85013330Y-81203800D01*
X84973876Y-80949800D01*
X84844447Y-81254600D01*
G37*
X84844447Y-81254600D02*
X84761368Y-81530647D01*
X84689420Y-81905985D01*
X84659798Y-82143600D01*
X84616372Y-82457288D01*
X84560651Y-82669338D01*
X84517089Y-82727800D01*
X84462305Y-82819987D01*
X84434574Y-83063010D01*
X84432116Y-83406561D01*
X84453151Y-83800332D01*
X84495897Y-84194016D01*
X84558575Y-84537304D01*
X84584605Y-84635276D01*
X84779922Y-85123897D01*
X85077037Y-85578853D01*
X85502113Y-86030815D01*
X86081315Y-86510457D01*
X86357635Y-86713798D01*
X86779349Y-87023699D01*
X87175135Y-87327964D01*
X87494102Y-87586743D01*
X87655196Y-87729798D01*
X87980662Y-88134025D01*
X88293069Y-88683495D01*
X88565887Y-89320698D01*
X88772585Y-89988125D01*
X88839547Y-90297000D01*
X88885800Y-90630402D01*
X88929206Y-91092970D01*
X88968748Y-91652525D01*
X89003411Y-92276890D01*
X89032178Y-92933888D01*
X89054034Y-93591339D01*
X89067961Y-94217067D01*
X89072944Y-94778894D01*
X89067966Y-95244642D01*
X89052012Y-95582133D01*
X89024064Y-95759190D01*
X89012598Y-95776603D01*
X88856576Y-95823547D01*
X88586128Y-95867220D01*
X88491700Y-95877531D01*
X88107847Y-95972261D01*
X87818398Y-96153755D01*
X87663016Y-96388703D01*
X87657779Y-96577843D01*
X87845153Y-96986114D01*
X88174369Y-97397323D01*
X88591159Y-97761211D01*
X89041251Y-98027522D01*
X89328561Y-98125067D01*
X89532344Y-98203259D01*
X89611200Y-98295411D01*
X89666842Y-98512795D01*
X89815687Y-98846502D01*
X90030614Y-99249112D01*
X90284503Y-99673202D01*
X90550232Y-100071352D01*
X90800682Y-100396139D01*
X90835091Y-100435416D01*
X91352912Y-100936250D01*
X91848504Y-101263024D01*
X92309353Y-101410821D01*
X92722947Y-101374729D01*
X92942754Y-101263086D01*
X93230698Y-100952171D01*
X93468244Y-100475661D01*
X93644997Y-99867180D01*
X93750563Y-99160356D01*
X93776800Y-98564916D01*
X93776800Y-97851233D01*
X94323701Y-97351397D01*
X94778097Y-96876537D01*
X95059164Y-96429032D01*
X95186661Y-95972943D01*
X95199200Y-95758953D01*
X95137829Y-95432614D01*
X94944090Y-95235318D01*
X94603547Y-95158865D01*
X94185164Y-95183129D01*
X93858986Y-95201930D01*
X93595615Y-95174992D01*
X93521251Y-95148542D01*
X93403785Y-95006768D01*
X93262464Y-94727773D01*
X93126830Y-94370395D01*
X93120109Y-94349593D01*
X92928370Y-93804087D01*
X92667986Y-93137666D01*
X92364436Y-92409500D01*
X92043200Y-91678759D01*
X91729758Y-91004614D01*
X91449588Y-90446235D01*
X91397987Y-90350361D01*
X90959161Y-89680741D01*
X90374323Y-88986614D01*
X89687990Y-88314094D01*
X88944683Y-87709295D01*
X88646000Y-87499756D01*
X87784744Y-86864172D01*
X87064225Y-86192577D01*
X86469220Y-85458587D01*
X85984508Y-84635821D01*
X85594867Y-83697899D01*
X85285076Y-82618439D01*
X85039913Y-81371058D01*
X85013330Y-81203800D01*
X84973876Y-80949800D01*
X84844447Y-81254600D01*
G36*
X79742081Y-94431900D02*
G01*
X79570465Y-94516002D01*
X79481853Y-94699804D01*
X79456968Y-95019006D01*
X79471340Y-95420264D01*
X79502000Y-95966574D01*
X78079600Y-96468913D01*
X77503735Y-96672579D01*
X76927797Y-96876777D01*
X76411305Y-97060372D01*
X76013775Y-97202232D01*
X75947855Y-97225863D01*
X75455999Y-97378330D01*
X75034295Y-97443596D01*
X74606702Y-97440242D01*
X74235880Y-97403545D01*
X73972234Y-97326194D01*
X73726432Y-97170541D01*
X73487247Y-96968450D01*
X72876591Y-96508769D01*
X72265669Y-96223757D01*
X71620345Y-96092025D01*
X71102684Y-96031822D01*
X70705055Y-95951148D01*
X70344347Y-95824721D01*
X69937450Y-95627256D01*
X69735893Y-95518754D01*
X69289358Y-95289441D01*
X68959351Y-95165412D01*
X68695097Y-95136625D01*
X68445819Y-95193042D01*
X68330781Y-95240908D01*
X68119236Y-95365845D01*
X68105400Y-95465941D01*
X68291616Y-95552337D01*
X68402200Y-95580870D01*
X68581449Y-95626819D01*
X68615050Y-95660253D01*
X68484234Y-95696230D01*
X68197074Y-95745412D01*
X67769987Y-95835995D01*
X67391204Y-95953086D01*
X67106884Y-96078839D01*
X66963187Y-96195408D01*
X66954400Y-96225865D01*
X67047789Y-96328083D01*
X67297834Y-96440614D01*
X67659360Y-96550261D01*
X68087188Y-96643827D01*
X68536139Y-96708117D01*
X68636888Y-96717315D01*
X69050739Y-96735536D01*
X69421768Y-96708769D01*
X69831730Y-96626475D01*
X70262736Y-96507682D01*
X70791465Y-96368547D01*
X71219882Y-96308882D01*
X71583999Y-96343727D01*
X71919831Y-96488120D01*
X72263389Y-96757102D01*
X72650688Y-97165711D01*
X73082536Y-97685251D01*
X73624635Y-98296447D01*
X74184966Y-98792174D01*
X74790208Y-99182332D01*
X75467036Y-99476824D01*
X76242130Y-99685550D01*
X77142166Y-99818413D01*
X78193824Y-99885313D01*
X79044895Y-99898200D01*
X79663077Y-99902630D01*
X80109286Y-99923938D01*
X80414692Y-99974145D01*
X80610465Y-100065274D01*
X80727774Y-100209348D01*
X80797789Y-100418388D01*
X80831362Y-100587266D01*
X80920754Y-100862788D01*
X81070042Y-101136895D01*
X81237083Y-101344757D01*
X81373911Y-101421820D01*
X81491387Y-101373531D01*
X81704330Y-101255321D01*
X81745301Y-101230634D01*
X82180693Y-100870928D01*
X82551553Y-100391783D01*
X82795200Y-99875851D01*
X82809653Y-99827209D01*
X82943092Y-99489436D01*
X83126205Y-99303050D01*
X83200834Y-99267118D01*
X83978728Y-98920869D01*
X84637637Y-98549550D01*
X85159794Y-98167247D01*
X85527434Y-97788045D01*
X85722789Y-97426030D01*
X85750400Y-97245831D01*
X85666049Y-96947907D01*
X85441972Y-96613867D01*
X85121640Y-96295513D01*
X84748522Y-96044651D01*
X84737926Y-96039198D01*
X84187233Y-95818041D01*
X83533991Y-95645817D01*
X82877190Y-95545544D01*
X82545599Y-95529400D01*
X82195998Y-95517297D01*
X81965166Y-95459549D01*
X81769119Y-95323995D01*
X81614745Y-95172947D01*
X81083674Y-94740844D01*
X80510387Y-94482800D01*
X80015984Y-94411800D01*
X79742081Y-94431900D01*
G37*
X79742081Y-94431900D02*
X79570465Y-94516002D01*
X79481853Y-94699804D01*
X79456968Y-95019006D01*
X79471340Y-95420264D01*
X79502000Y-95966574D01*
X78079600Y-96468913D01*
X77503735Y-96672579D01*
X76927797Y-96876777D01*
X76411305Y-97060372D01*
X76013775Y-97202232D01*
X75947855Y-97225863D01*
X75455999Y-97378330D01*
X75034295Y-97443596D01*
X74606702Y-97440242D01*
X74235880Y-97403545D01*
X73972234Y-97326194D01*
X73726432Y-97170541D01*
X73487247Y-96968450D01*
X72876591Y-96508769D01*
X72265669Y-96223757D01*
X71620345Y-96092025D01*
X71102684Y-96031822D01*
X70705055Y-95951148D01*
X70344347Y-95824721D01*
X69937450Y-95627256D01*
X69735893Y-95518754D01*
X69289358Y-95289441D01*
X68959351Y-95165412D01*
X68695097Y-95136625D01*
X68445819Y-95193042D01*
X68330781Y-95240908D01*
X68119236Y-95365845D01*
X68105400Y-95465941D01*
X68291616Y-95552337D01*
X68402200Y-95580870D01*
X68581449Y-95626819D01*
X68615050Y-95660253D01*
X68484234Y-95696230D01*
X68197074Y-95745412D01*
X67769987Y-95835995D01*
X67391204Y-95953086D01*
X67106884Y-96078839D01*
X66963187Y-96195408D01*
X66954400Y-96225865D01*
X67047789Y-96328083D01*
X67297834Y-96440614D01*
X67659360Y-96550261D01*
X68087188Y-96643827D01*
X68536139Y-96708117D01*
X68636888Y-96717315D01*
X69050739Y-96735536D01*
X69421768Y-96708769D01*
X69831730Y-96626475D01*
X70262736Y-96507682D01*
X70791465Y-96368547D01*
X71219882Y-96308882D01*
X71583999Y-96343727D01*
X71919831Y-96488120D01*
X72263389Y-96757102D01*
X72650688Y-97165711D01*
X73082536Y-97685251D01*
X73624635Y-98296447D01*
X74184966Y-98792174D01*
X74790208Y-99182332D01*
X75467036Y-99476824D01*
X76242130Y-99685550D01*
X77142166Y-99818413D01*
X78193824Y-99885313D01*
X79044895Y-99898200D01*
X79663077Y-99902630D01*
X80109286Y-99923938D01*
X80414692Y-99974145D01*
X80610465Y-100065274D01*
X80727774Y-100209348D01*
X80797789Y-100418388D01*
X80831362Y-100587266D01*
X80920754Y-100862788D01*
X81070042Y-101136895D01*
X81237083Y-101344757D01*
X81373911Y-101421820D01*
X81491387Y-101373531D01*
X81704330Y-101255321D01*
X81745301Y-101230634D01*
X82180693Y-100870928D01*
X82551553Y-100391783D01*
X82795200Y-99875851D01*
X82809653Y-99827209D01*
X82943092Y-99489436D01*
X83126205Y-99303050D01*
X83200834Y-99267118D01*
X83978728Y-98920869D01*
X84637637Y-98549550D01*
X85159794Y-98167247D01*
X85527434Y-97788045D01*
X85722789Y-97426030D01*
X85750400Y-97245831D01*
X85666049Y-96947907D01*
X85441972Y-96613867D01*
X85121640Y-96295513D01*
X84748522Y-96044651D01*
X84737926Y-96039198D01*
X84187233Y-95818041D01*
X83533991Y-95645817D01*
X82877190Y-95545544D01*
X82545599Y-95529400D01*
X82195998Y-95517297D01*
X81965166Y-95459549D01*
X81769119Y-95323995D01*
X81614745Y-95172947D01*
X81083674Y-94740844D01*
X80510387Y-94482800D01*
X80015984Y-94411800D01*
X79742081Y-94431900D01*
G36*
X55770210Y-78349518D02*
G01*
X55570986Y-78514620D01*
X55344814Y-78783192D01*
X55123996Y-79116265D01*
X54940833Y-79474871D01*
X54922801Y-79518055D01*
X54779107Y-79836502D01*
X54680633Y-79968374D01*
X54623231Y-79931642D01*
X54596774Y-79704836D01*
X54621105Y-79519326D01*
X54634509Y-79323376D01*
X54545046Y-79290474D01*
X54367749Y-79418167D01*
X54212632Y-79585995D01*
X54040727Y-79857913D01*
X53962737Y-80179572D01*
X53975900Y-80593423D01*
X54077453Y-81141914D01*
X54104033Y-81254600D01*
X54236765Y-82079083D01*
X54209978Y-82822263D01*
X54103100Y-83295852D01*
X53984814Y-83805995D01*
X53964435Y-84286102D01*
X54047348Y-84796822D01*
X54238937Y-85398803D01*
X54305200Y-85572599D01*
X54460768Y-85994861D01*
X54581785Y-86369287D01*
X54651002Y-86640193D01*
X54660800Y-86720713D01*
X54580106Y-87222569D01*
X54347007Y-87816348D01*
X53974976Y-88476610D01*
X53477488Y-89177914D01*
X53143353Y-89585800D01*
X52848696Y-89945450D01*
X52497256Y-90399498D01*
X52145781Y-90873818D01*
X51989064Y-91093564D01*
X51717650Y-91479971D01*
X51480106Y-91817470D01*
X51306672Y-92063140D01*
X51237536Y-92160364D01*
X51138197Y-92265984D01*
X51020508Y-92258938D01*
X50831136Y-92153001D01*
X50295856Y-91864451D01*
X49876144Y-91734905D01*
X49561615Y-91763911D01*
X49341884Y-91951015D01*
X49271830Y-92085067D01*
X49185774Y-92495078D01*
X49199809Y-93011106D01*
X49305989Y-93567073D01*
X49496365Y-94096898D01*
X49519656Y-94145752D01*
X49803572Y-94726055D01*
X49617354Y-95457927D01*
X49505401Y-96059632D01*
X49444807Y-96739121D01*
X49436640Y-97426522D01*
X49481969Y-98051965D01*
X49570700Y-98508684D01*
X49795351Y-99029603D01*
X50112901Y-99386754D01*
X50510310Y-99568001D01*
X50731616Y-99588909D01*
X51113350Y-99534525D01*
X51488605Y-99407354D01*
X51529492Y-99386929D01*
X51863630Y-99167468D01*
X52268699Y-98839022D01*
X52689841Y-98452192D01*
X53072198Y-98057579D01*
X53360914Y-97705782D01*
X53377265Y-97682532D01*
X53528066Y-97478017D01*
X53667981Y-97355107D01*
X53856566Y-97287428D01*
X54153379Y-97248606D01*
X54402257Y-97228643D01*
X55205546Y-97096365D01*
X55854254Y-96832612D01*
X56326144Y-96461877D01*
X56507343Y-96249659D01*
X56563368Y-96091343D01*
X56516509Y-95901029D01*
X56489240Y-95833330D01*
X56266581Y-95531341D01*
X55867023Y-95268823D01*
X55544245Y-95074256D01*
X55360204Y-94863674D01*
X55304943Y-94595568D01*
X55368506Y-94228426D01*
X55513385Y-93794346D01*
X55651432Y-93393610D01*
X55816578Y-92871545D01*
X55985503Y-92303668D01*
X56101341Y-91890564D01*
X56233423Y-91384607D01*
X56324111Y-90968929D01*
X56381254Y-90579855D01*
X56412697Y-90153709D01*
X56426285Y-89626816D01*
X56429154Y-89230200D01*
X56423091Y-88554680D01*
X56389010Y-88007758D01*
X56311506Y-87541662D01*
X56175178Y-87108618D01*
X55964620Y-86660857D01*
X55664429Y-86150605D01*
X55259202Y-85530092D01*
X55214675Y-85463662D01*
X54807416Y-84826704D01*
X54532374Y-84302680D01*
X54387083Y-83852368D01*
X54369080Y-83436547D01*
X54475899Y-83015997D01*
X54705074Y-82551497D01*
X55002071Y-82081105D01*
X55269192Y-81648959D01*
X55508283Y-81203168D01*
X55680929Y-80817541D01*
X55723039Y-80695800D01*
X55807569Y-80341753D01*
X55878305Y-79913045D01*
X55931468Y-79457503D01*
X55963281Y-79022953D01*
X55969966Y-78657222D01*
X55947743Y-78408136D01*
X55910186Y-78326855D01*
X55770210Y-78349518D01*
G37*
X55770210Y-78349518D02*
X55570986Y-78514620D01*
X55344814Y-78783192D01*
X55123996Y-79116265D01*
X54940833Y-79474871D01*
X54922801Y-79518055D01*
X54779107Y-79836502D01*
X54680633Y-79968374D01*
X54623231Y-79931642D01*
X54596774Y-79704836D01*
X54621105Y-79519326D01*
X54634509Y-79323376D01*
X54545046Y-79290474D01*
X54367749Y-79418167D01*
X54212632Y-79585995D01*
X54040727Y-79857913D01*
X53962737Y-80179572D01*
X53975900Y-80593423D01*
X54077453Y-81141914D01*
X54104033Y-81254600D01*
X54236765Y-82079083D01*
X54209978Y-82822263D01*
X54103100Y-83295852D01*
X53984814Y-83805995D01*
X53964435Y-84286102D01*
X54047348Y-84796822D01*
X54238937Y-85398803D01*
X54305200Y-85572599D01*
X54460768Y-85994861D01*
X54581785Y-86369287D01*
X54651002Y-86640193D01*
X54660800Y-86720713D01*
X54580106Y-87222569D01*
X54347007Y-87816348D01*
X53974976Y-88476610D01*
X53477488Y-89177914D01*
X53143353Y-89585800D01*
X52848696Y-89945450D01*
X52497256Y-90399498D01*
X52145781Y-90873818D01*
X51989064Y-91093564D01*
X51717650Y-91479971D01*
X51480106Y-91817470D01*
X51306672Y-92063140D01*
X51237536Y-92160364D01*
X51138197Y-92265984D01*
X51020508Y-92258938D01*
X50831136Y-92153001D01*
X50295856Y-91864451D01*
X49876144Y-91734905D01*
X49561615Y-91763911D01*
X49341884Y-91951015D01*
X49271830Y-92085067D01*
X49185774Y-92495078D01*
X49199809Y-93011106D01*
X49305989Y-93567073D01*
X49496365Y-94096898D01*
X49519656Y-94145752D01*
X49803572Y-94726055D01*
X49617354Y-95457927D01*
X49505401Y-96059632D01*
X49444807Y-96739121D01*
X49436640Y-97426522D01*
X49481969Y-98051965D01*
X49570700Y-98508684D01*
X49795351Y-99029603D01*
X50112901Y-99386754D01*
X50510310Y-99568001D01*
X50731616Y-99588909D01*
X51113350Y-99534525D01*
X51488605Y-99407354D01*
X51529492Y-99386929D01*
X51863630Y-99167468D01*
X52268699Y-98839022D01*
X52689841Y-98452192D01*
X53072198Y-98057579D01*
X53360914Y-97705782D01*
X53377265Y-97682532D01*
X53528066Y-97478017D01*
X53667981Y-97355107D01*
X53856566Y-97287428D01*
X54153379Y-97248606D01*
X54402257Y-97228643D01*
X55205546Y-97096365D01*
X55854254Y-96832612D01*
X56326144Y-96461877D01*
X56507343Y-96249659D01*
X56563368Y-96091343D01*
X56516509Y-95901029D01*
X56489240Y-95833330D01*
X56266581Y-95531341D01*
X55867023Y-95268823D01*
X55544245Y-95074256D01*
X55360204Y-94863674D01*
X55304943Y-94595568D01*
X55368506Y-94228426D01*
X55513385Y-93794346D01*
X55651432Y-93393610D01*
X55816578Y-92871545D01*
X55985503Y-92303668D01*
X56101341Y-91890564D01*
X56233423Y-91384607D01*
X56324111Y-90968929D01*
X56381254Y-90579855D01*
X56412697Y-90153709D01*
X56426285Y-89626816D01*
X56429154Y-89230200D01*
X56423091Y-88554680D01*
X56389010Y-88007758D01*
X56311506Y-87541662D01*
X56175178Y-87108618D01*
X55964620Y-86660857D01*
X55664429Y-86150605D01*
X55259202Y-85530092D01*
X55214675Y-85463662D01*
X54807416Y-84826704D01*
X54532374Y-84302680D01*
X54387083Y-83852368D01*
X54369080Y-83436547D01*
X54475899Y-83015997D01*
X54705074Y-82551497D01*
X55002071Y-82081105D01*
X55269192Y-81648959D01*
X55508283Y-81203168D01*
X55680929Y-80817541D01*
X55723039Y-80695800D01*
X55807569Y-80341753D01*
X55878305Y-79913045D01*
X55931468Y-79457503D01*
X55963281Y-79022953D01*
X55969966Y-78657222D01*
X55947743Y-78408136D01*
X55910186Y-78326855D01*
X55770210Y-78349518D01*
G36*
X81727409Y-82815727D02*
G01*
X81629982Y-83040692D01*
X81567840Y-83219832D01*
X81441953Y-83546128D01*
X81277484Y-83883037D01*
X81097890Y-84194240D01*
X80926631Y-84443419D01*
X80787162Y-84594255D01*
X80702943Y-84610430D01*
X80690867Y-84577605D01*
X80709955Y-84379966D01*
X80791367Y-84075893D01*
X80872391Y-83848467D01*
X80979061Y-83548591D01*
X81034624Y-83332018D01*
X81032895Y-83259628D01*
X80915648Y-83268687D01*
X80720099Y-83382898D01*
X80506549Y-83558820D01*
X80335301Y-83753013D01*
X80323564Y-83770615D01*
X80228627Y-83989505D01*
X80129524Y-84329421D01*
X80060074Y-84652675D01*
X79881736Y-85349334D01*
X79597611Y-85938290D01*
X79167373Y-86499699D01*
X79086465Y-86587855D01*
X78603625Y-87010423D01*
X77999305Y-87367164D01*
X77255142Y-87665051D01*
X76352769Y-87911058D01*
X75273821Y-88112154D01*
X74944279Y-88160431D01*
X74445008Y-88234759D01*
X73977473Y-88312912D01*
X73604932Y-88383883D01*
X73437276Y-88422657D01*
X73029117Y-88459182D01*
X72724556Y-88329748D01*
X72540019Y-88042981D01*
X72512366Y-87937029D01*
X72367563Y-87651203D01*
X72193123Y-87506383D01*
X72000792Y-87427021D01*
X71849326Y-87461978D01*
X71665030Y-87612634D01*
X71398500Y-87938291D01*
X71176796Y-88350493D01*
X71042196Y-88761585D01*
X71020632Y-88948735D01*
X70980465Y-89145807D01*
X70832488Y-89302374D01*
X70586600Y-89443711D01*
X69909525Y-89831201D01*
X69328887Y-90255139D01*
X68867034Y-90693176D01*
X68546316Y-91122964D01*
X68389081Y-91522154D01*
X68376800Y-91653512D01*
X68453718Y-92006942D01*
X68689574Y-92282878D01*
X69092023Y-92484518D01*
X69668718Y-92615060D01*
X70427315Y-92677703D01*
X70844444Y-92684600D01*
X71328664Y-92688650D01*
X71653300Y-92705771D01*
X71861890Y-92743413D01*
X71997975Y-92809028D01*
X72094854Y-92898611D01*
X72471888Y-93196524D01*
X72948713Y-93410762D01*
X73425810Y-93497220D01*
X73445906Y-93497400D01*
X73726115Y-93473700D01*
X73869902Y-93383177D01*
X73918616Y-93279656D01*
X73932304Y-93044023D01*
X73878613Y-92737128D01*
X73858234Y-92669552D01*
X73786506Y-92415962D01*
X73764471Y-92258598D01*
X73770572Y-92239962D01*
X73876910Y-92188238D01*
X74128850Y-92079438D01*
X74483310Y-91931913D01*
X74726800Y-91832636D01*
X75801647Y-91332791D01*
X76824168Y-90732571D01*
X77753065Y-90060784D01*
X78547039Y-89346239D01*
X78972302Y-88871146D01*
X79244062Y-88498769D01*
X79550201Y-88023806D01*
X79839197Y-87527821D01*
X79939164Y-87340438D01*
X80212881Y-86845475D01*
X80555421Y-86276708D01*
X80912742Y-85722182D01*
X81098642Y-85451411D01*
X81381695Y-85040421D01*
X81627418Y-84663643D01*
X81806923Y-84366606D01*
X81886042Y-84210358D01*
X81955176Y-83922584D01*
X81982720Y-83576431D01*
X81972154Y-83228902D01*
X81926958Y-82937003D01*
X81850611Y-82757740D01*
X81795544Y-82727800D01*
X81727409Y-82815727D01*
G37*
X81727409Y-82815727D02*
X81629982Y-83040692D01*
X81567840Y-83219832D01*
X81441953Y-83546128D01*
X81277484Y-83883037D01*
X81097890Y-84194240D01*
X80926631Y-84443419D01*
X80787162Y-84594255D01*
X80702943Y-84610430D01*
X80690867Y-84577605D01*
X80709955Y-84379966D01*
X80791367Y-84075893D01*
X80872391Y-83848467D01*
X80979061Y-83548591D01*
X81034624Y-83332018D01*
X81032895Y-83259628D01*
X80915648Y-83268687D01*
X80720099Y-83382898D01*
X80506549Y-83558820D01*
X80335301Y-83753013D01*
X80323564Y-83770615D01*
X80228627Y-83989505D01*
X80129524Y-84329421D01*
X80060074Y-84652675D01*
X79881736Y-85349334D01*
X79597611Y-85938290D01*
X79167373Y-86499699D01*
X79086465Y-86587855D01*
X78603625Y-87010423D01*
X77999305Y-87367164D01*
X77255142Y-87665051D01*
X76352769Y-87911058D01*
X75273821Y-88112154D01*
X74944279Y-88160431D01*
X74445008Y-88234759D01*
X73977473Y-88312912D01*
X73604932Y-88383883D01*
X73437276Y-88422657D01*
X73029117Y-88459182D01*
X72724556Y-88329748D01*
X72540019Y-88042981D01*
X72512366Y-87937029D01*
X72367563Y-87651203D01*
X72193123Y-87506383D01*
X72000792Y-87427021D01*
X71849326Y-87461978D01*
X71665030Y-87612634D01*
X71398500Y-87938291D01*
X71176796Y-88350493D01*
X71042196Y-88761585D01*
X71020632Y-88948735D01*
X70980465Y-89145807D01*
X70832488Y-89302374D01*
X70586600Y-89443711D01*
X69909525Y-89831201D01*
X69328887Y-90255139D01*
X68867034Y-90693176D01*
X68546316Y-91122964D01*
X68389081Y-91522154D01*
X68376800Y-91653512D01*
X68453718Y-92006942D01*
X68689574Y-92282878D01*
X69092023Y-92484518D01*
X69668718Y-92615060D01*
X70427315Y-92677703D01*
X70844444Y-92684600D01*
X71328664Y-92688650D01*
X71653300Y-92705771D01*
X71861890Y-92743413D01*
X71997975Y-92809028D01*
X72094854Y-92898611D01*
X72471888Y-93196524D01*
X72948713Y-93410762D01*
X73425810Y-93497220D01*
X73445906Y-93497400D01*
X73726115Y-93473700D01*
X73869902Y-93383177D01*
X73918616Y-93279656D01*
X73932304Y-93044023D01*
X73878613Y-92737128D01*
X73858234Y-92669552D01*
X73786506Y-92415962D01*
X73764471Y-92258598D01*
X73770572Y-92239962D01*
X73876910Y-92188238D01*
X74128850Y-92079438D01*
X74483310Y-91931913D01*
X74726800Y-91832636D01*
X75801647Y-91332791D01*
X76824168Y-90732571D01*
X77753065Y-90060784D01*
X78547039Y-89346239D01*
X78972302Y-88871146D01*
X79244062Y-88498769D01*
X79550201Y-88023806D01*
X79839197Y-87527821D01*
X79939164Y-87340438D01*
X80212881Y-86845475D01*
X80555421Y-86276708D01*
X80912742Y-85722182D01*
X81098642Y-85451411D01*
X81381695Y-85040421D01*
X81627418Y-84663643D01*
X81806923Y-84366606D01*
X81886042Y-84210358D01*
X81955176Y-83922584D01*
X81982720Y-83576431D01*
X81972154Y-83228902D01*
X81926958Y-82937003D01*
X81850611Y-82757740D01*
X81795544Y-82727800D01*
X81727409Y-82815727D01*
G36*
X99852029Y-84847917D02*
G01*
X99395778Y-85015673D01*
X98969924Y-85257326D01*
X98733907Y-85446873D01*
X98458613Y-85704349D01*
X97667107Y-85562274D01*
X96945722Y-85463339D01*
X96230621Y-85420370D01*
X95569481Y-85432520D01*
X95009983Y-85498944D01*
X94604663Y-85616588D01*
X94198689Y-85881923D01*
X93972595Y-86224196D01*
X93934519Y-86630086D01*
X93945513Y-86695560D01*
X94077445Y-86995067D01*
X94348933Y-87364063D01*
X94725346Y-87767402D01*
X95172050Y-88169936D01*
X95654413Y-88536520D01*
X95942529Y-88722200D01*
X96309547Y-88945413D01*
X96539016Y-89108206D01*
X96668248Y-89253666D01*
X96734555Y-89424880D01*
X96775251Y-89664933D01*
X96778378Y-89687400D01*
X96862455Y-90080051D01*
X96989433Y-90460470D01*
X97040012Y-90572230D01*
X97230732Y-90876635D01*
X97468369Y-91160328D01*
X97704465Y-91373114D01*
X97890564Y-91464799D01*
X97902261Y-91465400D01*
X98118890Y-91383000D01*
X98352161Y-91179292D01*
X98538145Y-90919508D01*
X98603829Y-90749519D01*
X98729271Y-90474681D01*
X98907692Y-90287597D01*
X99019598Y-90227945D01*
X99152355Y-90200929D01*
X99343260Y-90210538D01*
X99629612Y-90260765D01*
X100048709Y-90355600D01*
X100448263Y-90452435D01*
X101608423Y-90772339D01*
X102740965Y-91151961D01*
X103804658Y-91574573D01*
X104758270Y-92023451D01*
X105560568Y-92481867D01*
X105733106Y-92596302D01*
X105986671Y-92763137D01*
X106167161Y-92868620D01*
X106215706Y-92887800D01*
X106243549Y-92794637D01*
X106263462Y-92548819D01*
X106271611Y-92200846D01*
X106271608Y-92151200D01*
X106269615Y-91414600D01*
X104857208Y-89878349D01*
X104139296Y-89110447D01*
X103523764Y-88482915D01*
X102988060Y-87975869D01*
X102509632Y-87569422D01*
X102065927Y-87243691D01*
X101634394Y-86978788D01*
X101466715Y-86888802D01*
X101075359Y-86665872D01*
X100856546Y-86473065D01*
X100791011Y-86273417D01*
X100859491Y-86029965D01*
X100939600Y-85877400D01*
X101069872Y-85509491D01*
X101057335Y-85158178D01*
X100920138Y-84907251D01*
X100662510Y-84781784D01*
X100290373Y-84765980D01*
X99852029Y-84847917D01*
G37*
X99852029Y-84847917D02*
X99395778Y-85015673D01*
X98969924Y-85257326D01*
X98733907Y-85446873D01*
X98458613Y-85704349D01*
X97667107Y-85562274D01*
X96945722Y-85463339D01*
X96230621Y-85420370D01*
X95569481Y-85432520D01*
X95009983Y-85498944D01*
X94604663Y-85616588D01*
X94198689Y-85881923D01*
X93972595Y-86224196D01*
X93934519Y-86630086D01*
X93945513Y-86695560D01*
X94077445Y-86995067D01*
X94348933Y-87364063D01*
X94725346Y-87767402D01*
X95172050Y-88169936D01*
X95654413Y-88536520D01*
X95942529Y-88722200D01*
X96309547Y-88945413D01*
X96539016Y-89108206D01*
X96668248Y-89253666D01*
X96734555Y-89424880D01*
X96775251Y-89664933D01*
X96778378Y-89687400D01*
X96862455Y-90080051D01*
X96989433Y-90460470D01*
X97040012Y-90572230D01*
X97230732Y-90876635D01*
X97468369Y-91160328D01*
X97704465Y-91373114D01*
X97890564Y-91464799D01*
X97902261Y-91465400D01*
X98118890Y-91383000D01*
X98352161Y-91179292D01*
X98538145Y-90919508D01*
X98603829Y-90749519D01*
X98729271Y-90474681D01*
X98907692Y-90287597D01*
X99019598Y-90227945D01*
X99152355Y-90200929D01*
X99343260Y-90210538D01*
X99629612Y-90260765D01*
X100048709Y-90355600D01*
X100448263Y-90452435D01*
X101608423Y-90772339D01*
X102740965Y-91151961D01*
X103804658Y-91574573D01*
X104758270Y-92023451D01*
X105560568Y-92481867D01*
X105733106Y-92596302D01*
X105986671Y-92763137D01*
X106167161Y-92868620D01*
X106215706Y-92887800D01*
X106243549Y-92794637D01*
X106263462Y-92548819D01*
X106271611Y-92200846D01*
X106271608Y-92151200D01*
X106269615Y-91414600D01*
X104857208Y-89878349D01*
X104139296Y-89110447D01*
X103523764Y-88482915D01*
X102988060Y-87975869D01*
X102509632Y-87569422D01*
X102065927Y-87243691D01*
X101634394Y-86978788D01*
X101466715Y-86888802D01*
X101075359Y-86665872D01*
X100856546Y-86473065D01*
X100791011Y-86273417D01*
X100859491Y-86029965D01*
X100939600Y-85877400D01*
X101069872Y-85509491D01*
X101057335Y-85158178D01*
X100920138Y-84907251D01*
X100662510Y-84781784D01*
X100290373Y-84765980D01*
X99852029Y-84847917D01*
G36*
X82839623Y-73318339D02*
G01*
X82273176Y-73478442D01*
X81679738Y-73702951D01*
X81566879Y-73752420D01*
X81240982Y-73892468D01*
X81019635Y-73954179D01*
X80823102Y-73944823D01*
X80571647Y-73871670D01*
X80505379Y-73849216D01*
X80042703Y-73720296D01*
X79683110Y-73699452D01*
X79357742Y-73786462D01*
X79233786Y-73845150D01*
X79026139Y-73980738D01*
X78969058Y-74131452D01*
X78993074Y-74276950D01*
X79118536Y-74555806D01*
X79256243Y-74730757D01*
X79402199Y-74886635D01*
X79451200Y-74970963D01*
X79382844Y-75060463D01*
X79196406Y-75261988D01*
X78919833Y-75546262D01*
X78581070Y-75884008D01*
X78557879Y-75906805D01*
X78095866Y-76381762D01*
X77692280Y-76850096D01*
X77322311Y-77348770D01*
X76961153Y-77914747D01*
X76583999Y-78584989D01*
X76166040Y-79396458D01*
X76025622Y-79679800D01*
X75753877Y-80215033D01*
X75484585Y-80715506D01*
X75241676Y-81138795D01*
X75049077Y-81442474D01*
X74977434Y-81538222D01*
X74781634Y-81743163D01*
X74466494Y-82040721D01*
X74070653Y-82395717D01*
X73632751Y-82772969D01*
X73487064Y-82895131D01*
X72956717Y-83348873D01*
X72570431Y-83715704D01*
X72306642Y-84026440D01*
X72143787Y-84311892D01*
X72060302Y-84602876D01*
X72034622Y-84930203D01*
X72034400Y-84970913D01*
X72034400Y-85391753D01*
X72478205Y-84788887D01*
X72743556Y-84451578D01*
X73009523Y-84150903D01*
X73214805Y-83955217D01*
X73410444Y-83814955D01*
X73504191Y-83802051D01*
X73541412Y-83891502D01*
X73509053Y-84109172D01*
X73334104Y-84415716D01*
X73007815Y-84825389D01*
X72878351Y-84971370D01*
X72685158Y-85191421D01*
X72570778Y-85333998D01*
X72555978Y-85364909D01*
X72660359Y-85319667D01*
X72880795Y-85210611D01*
X72999600Y-85149619D01*
X73405777Y-84913445D01*
X73682115Y-84671593D01*
X73892717Y-84357744D01*
X74020303Y-84093640D01*
X74211889Y-83723436D01*
X74436349Y-83370114D01*
X74537734Y-83237531D01*
X74774078Y-82987099D01*
X75139288Y-82637510D01*
X75602454Y-82215152D01*
X76132666Y-81746410D01*
X76699012Y-81257671D01*
X77270582Y-80775323D01*
X77816464Y-80325752D01*
X78305749Y-79935346D01*
X78707524Y-79630490D01*
X78985170Y-79441010D01*
X79733682Y-78989816D01*
X80329455Y-78637291D01*
X80792557Y-78375203D01*
X81143056Y-78195318D01*
X81401019Y-78089401D01*
X81586515Y-78049220D01*
X81719610Y-78066541D01*
X81820372Y-78133130D01*
X81908868Y-78240753D01*
X81909239Y-78241276D01*
X82104747Y-78438240D01*
X82341985Y-78580327D01*
X82546701Y-78627974D01*
X82603623Y-78611255D01*
X82817444Y-78367209D01*
X82947914Y-77972628D01*
X82984337Y-77466747D01*
X82971938Y-77260322D01*
X82910989Y-76607627D01*
X83369035Y-76086313D01*
X83771738Y-75559854D01*
X84101566Y-74996344D01*
X84324671Y-74458719D01*
X84391618Y-74184896D01*
X84361150Y-73801532D01*
X84162692Y-73483227D01*
X83830596Y-73276407D01*
X83692067Y-73239493D01*
X83329210Y-73234677D01*
X82839623Y-73318339D01*
G37*
X82839623Y-73318339D02*
X82273176Y-73478442D01*
X81679738Y-73702951D01*
X81566879Y-73752420D01*
X81240982Y-73892468D01*
X81019635Y-73954179D01*
X80823102Y-73944823D01*
X80571647Y-73871670D01*
X80505379Y-73849216D01*
X80042703Y-73720296D01*
X79683110Y-73699452D01*
X79357742Y-73786462D01*
X79233786Y-73845150D01*
X79026139Y-73980738D01*
X78969058Y-74131452D01*
X78993074Y-74276950D01*
X79118536Y-74555806D01*
X79256243Y-74730757D01*
X79402199Y-74886635D01*
X79451200Y-74970963D01*
X79382844Y-75060463D01*
X79196406Y-75261988D01*
X78919833Y-75546262D01*
X78581070Y-75884008D01*
X78557879Y-75906805D01*
X78095866Y-76381762D01*
X77692280Y-76850096D01*
X77322311Y-77348770D01*
X76961153Y-77914747D01*
X76583999Y-78584989D01*
X76166040Y-79396458D01*
X76025622Y-79679800D01*
X75753877Y-80215033D01*
X75484585Y-80715506D01*
X75241676Y-81138795D01*
X75049077Y-81442474D01*
X74977434Y-81538222D01*
X74781634Y-81743163D01*
X74466494Y-82040721D01*
X74070653Y-82395717D01*
X73632751Y-82772969D01*
X73487064Y-82895131D01*
X72956717Y-83348873D01*
X72570431Y-83715704D01*
X72306642Y-84026440D01*
X72143787Y-84311892D01*
X72060302Y-84602876D01*
X72034622Y-84930203D01*
X72034400Y-84970913D01*
X72034400Y-85391753D01*
X72478205Y-84788887D01*
X72743556Y-84451578D01*
X73009523Y-84150903D01*
X73214805Y-83955217D01*
X73410444Y-83814955D01*
X73504191Y-83802051D01*
X73541412Y-83891502D01*
X73509053Y-84109172D01*
X73334104Y-84415716D01*
X73007815Y-84825389D01*
X72878351Y-84971370D01*
X72685158Y-85191421D01*
X72570778Y-85333998D01*
X72555978Y-85364909D01*
X72660359Y-85319667D01*
X72880795Y-85210611D01*
X72999600Y-85149619D01*
X73405777Y-84913445D01*
X73682115Y-84671593D01*
X73892717Y-84357744D01*
X74020303Y-84093640D01*
X74211889Y-83723436D01*
X74436349Y-83370114D01*
X74537734Y-83237531D01*
X74774078Y-82987099D01*
X75139288Y-82637510D01*
X75602454Y-82215152D01*
X76132666Y-81746410D01*
X76699012Y-81257671D01*
X77270582Y-80775323D01*
X77816464Y-80325752D01*
X78305749Y-79935346D01*
X78707524Y-79630490D01*
X78985170Y-79441010D01*
X79733682Y-78989816D01*
X80329455Y-78637291D01*
X80792557Y-78375203D01*
X81143056Y-78195318D01*
X81401019Y-78089401D01*
X81586515Y-78049220D01*
X81719610Y-78066541D01*
X81820372Y-78133130D01*
X81908868Y-78240753D01*
X81909239Y-78241276D01*
X82104747Y-78438240D01*
X82341985Y-78580327D01*
X82546701Y-78627974D01*
X82603623Y-78611255D01*
X82817444Y-78367209D01*
X82947914Y-77972628D01*
X82984337Y-77466747D01*
X82971938Y-77260322D01*
X82910989Y-76607627D01*
X83369035Y-76086313D01*
X83771738Y-75559854D01*
X84101566Y-74996344D01*
X84324671Y-74458719D01*
X84391618Y-74184896D01*
X84361150Y-73801532D01*
X84162692Y-73483227D01*
X83830596Y-73276407D01*
X83692067Y-73239493D01*
X83329210Y-73234677D01*
X82839623Y-73318339D01*
G36*
X89179988Y-60577290D02*
G01*
X88698748Y-60870973D01*
X88219971Y-61349466D01*
X87751462Y-62003789D01*
X87301021Y-62824958D01*
X86969512Y-63569939D01*
X86812172Y-63936709D01*
X86683650Y-64160540D01*
X86543462Y-64289510D01*
X86351119Y-64371696D01*
X86274558Y-64395195D01*
X85752826Y-64610700D01*
X85263875Y-64922712D01*
X84853192Y-65292716D01*
X84566266Y-65682196D01*
X84468431Y-65924517D01*
X84492551Y-66204718D01*
X84673996Y-66461834D01*
X84968119Y-66650460D01*
X85251880Y-66721293D01*
X85630868Y-66772701D01*
X85844372Y-66866053D01*
X85930100Y-67041399D01*
X85925759Y-67338788D01*
X85916195Y-67426867D01*
X85788504Y-69144196D01*
X85809611Y-70797739D01*
X85977100Y-72367827D01*
X86288555Y-73834791D01*
X86741561Y-75178965D01*
X86918072Y-75584391D01*
X87085307Y-75909676D01*
X87319084Y-76316198D01*
X87594386Y-76765664D01*
X87886198Y-77219781D01*
X88169506Y-77640253D01*
X88419293Y-77988788D01*
X88610544Y-78227090D01*
X88697791Y-78308812D01*
X88775108Y-78416210D01*
X88925336Y-78673972D01*
X89131053Y-79050445D01*
X89374840Y-79513976D01*
X89558566Y-79872809D01*
X89952571Y-80627497D01*
X90292248Y-81217578D01*
X90598240Y-81667311D01*
X90891185Y-82000953D01*
X91191725Y-82242764D01*
X91520501Y-82417002D01*
X91813226Y-82522656D01*
X92170695Y-82626855D01*
X92462421Y-82700700D01*
X92621532Y-82727800D01*
X92622815Y-82662610D01*
X92502021Y-82488696D01*
X92283193Y-82238542D01*
X92179030Y-82129940D01*
X91880405Y-81796199D01*
X91573089Y-81403899D01*
X91285765Y-80995920D01*
X91047120Y-80615141D01*
X90885837Y-80304445D01*
X90830400Y-80113911D01*
X90859894Y-80005918D01*
X90958943Y-80016457D01*
X91143401Y-80156476D01*
X91429120Y-80436922D01*
X91673036Y-80695800D01*
X91962820Y-81002192D01*
X92201577Y-81242338D01*
X92356081Y-81383449D01*
X92393749Y-81407000D01*
X92431702Y-81316442D01*
X92453524Y-81088723D01*
X92455621Y-80975200D01*
X92392395Y-80537128D01*
X92189214Y-80138121D01*
X91824591Y-79744893D01*
X91485665Y-79472806D01*
X90866597Y-78973669D01*
X90391833Y-78484499D01*
X90013189Y-77950157D01*
X89780288Y-77521254D01*
X89492950Y-76820882D01*
X89313527Y-76087673D01*
X89243503Y-75300807D01*
X89284363Y-74439463D01*
X89437592Y-73482823D01*
X89704672Y-72410068D01*
X90087087Y-71200377D01*
X90267374Y-70688200D01*
X90451476Y-70158928D01*
X90621539Y-69636357D01*
X90757864Y-69183061D01*
X90837149Y-68878295D01*
X90992183Y-68420832D01*
X91227987Y-68142218D01*
X91565318Y-68027164D01*
X91963037Y-68049140D01*
X92374654Y-68061243D01*
X92665023Y-67993388D01*
X92870559Y-67874237D01*
X92952262Y-67696357D01*
X92963047Y-67500873D01*
X92878351Y-67069660D01*
X92649041Y-66596655D01*
X92309240Y-66136728D01*
X91893073Y-65744745D01*
X91851371Y-65713448D01*
X91338400Y-65336893D01*
X91337633Y-64507346D01*
X91268863Y-63338085D01*
X91068923Y-62270750D01*
X90928393Y-61807264D01*
X90720734Y-61366653D01*
X90437258Y-60974490D01*
X90117531Y-60672125D01*
X89801119Y-60500907D01*
X89655889Y-60477400D01*
X89179988Y-60577290D01*
G37*
X89179988Y-60577290D02*
X88698748Y-60870973D01*
X88219971Y-61349466D01*
X87751462Y-62003789D01*
X87301021Y-62824958D01*
X86969512Y-63569939D01*
X86812172Y-63936709D01*
X86683650Y-64160540D01*
X86543462Y-64289510D01*
X86351119Y-64371696D01*
X86274558Y-64395195D01*
X85752826Y-64610700D01*
X85263875Y-64922712D01*
X84853192Y-65292716D01*
X84566266Y-65682196D01*
X84468431Y-65924517D01*
X84492551Y-66204718D01*
X84673996Y-66461834D01*
X84968119Y-66650460D01*
X85251880Y-66721293D01*
X85630868Y-66772701D01*
X85844372Y-66866053D01*
X85930100Y-67041399D01*
X85925759Y-67338788D01*
X85916195Y-67426867D01*
X85788504Y-69144196D01*
X85809611Y-70797739D01*
X85977100Y-72367827D01*
X86288555Y-73834791D01*
X86741561Y-75178965D01*
X86918072Y-75584391D01*
X87085307Y-75909676D01*
X87319084Y-76316198D01*
X87594386Y-76765664D01*
X87886198Y-77219781D01*
X88169506Y-77640253D01*
X88419293Y-77988788D01*
X88610544Y-78227090D01*
X88697791Y-78308812D01*
X88775108Y-78416210D01*
X88925336Y-78673972D01*
X89131053Y-79050445D01*
X89374840Y-79513976D01*
X89558566Y-79872809D01*
X89952571Y-80627497D01*
X90292248Y-81217578D01*
X90598240Y-81667311D01*
X90891185Y-82000953D01*
X91191725Y-82242764D01*
X91520501Y-82417002D01*
X91813226Y-82522656D01*
X92170695Y-82626855D01*
X92462421Y-82700700D01*
X92621532Y-82727800D01*
X92622815Y-82662610D01*
X92502021Y-82488696D01*
X92283193Y-82238542D01*
X92179030Y-82129940D01*
X91880405Y-81796199D01*
X91573089Y-81403899D01*
X91285765Y-80995920D01*
X91047120Y-80615141D01*
X90885837Y-80304445D01*
X90830400Y-80113911D01*
X90859894Y-80005918D01*
X90958943Y-80016457D01*
X91143401Y-80156476D01*
X91429120Y-80436922D01*
X91673036Y-80695800D01*
X91962820Y-81002192D01*
X92201577Y-81242338D01*
X92356081Y-81383449D01*
X92393749Y-81407000D01*
X92431702Y-81316442D01*
X92453524Y-81088723D01*
X92455621Y-80975200D01*
X92392395Y-80537128D01*
X92189214Y-80138121D01*
X91824591Y-79744893D01*
X91485665Y-79472806D01*
X90866597Y-78973669D01*
X90391833Y-78484499D01*
X90013189Y-77950157D01*
X89780288Y-77521254D01*
X89492950Y-76820882D01*
X89313527Y-76087673D01*
X89243503Y-75300807D01*
X89284363Y-74439463D01*
X89437592Y-73482823D01*
X89704672Y-72410068D01*
X90087087Y-71200377D01*
X90267374Y-70688200D01*
X90451476Y-70158928D01*
X90621539Y-69636357D01*
X90757864Y-69183061D01*
X90837149Y-68878295D01*
X90992183Y-68420832D01*
X91227987Y-68142218D01*
X91565318Y-68027164D01*
X91963037Y-68049140D01*
X92374654Y-68061243D01*
X92665023Y-67993388D01*
X92870559Y-67874237D01*
X92952262Y-67696357D01*
X92963047Y-67500873D01*
X92878351Y-67069660D01*
X92649041Y-66596655D01*
X92309240Y-66136728D01*
X91893073Y-65744745D01*
X91851371Y-65713448D01*
X91338400Y-65336893D01*
X91337633Y-64507346D01*
X91268863Y-63338085D01*
X91068923Y-62270750D01*
X90928393Y-61807264D01*
X90720734Y-61366653D01*
X90437258Y-60974490D01*
X90117531Y-60672125D01*
X89801119Y-60500907D01*
X89655889Y-60477400D01*
X89179988Y-60577290D01*
G36*
X78317960Y-67716163D02*
G01*
X77714336Y-67861548D01*
X76972273Y-68082780D01*
X76454000Y-68250427D01*
X75869239Y-68429137D01*
X75256968Y-68592799D01*
X74690320Y-68723158D01*
X74247239Y-68801333D01*
X72961836Y-69030037D01*
X71788138Y-69375577D01*
X70670044Y-69859555D01*
X69551452Y-70503571D01*
X69171587Y-70755622D01*
X68471961Y-71277869D01*
X67724313Y-71911543D01*
X66983055Y-72605391D01*
X66302603Y-73308165D01*
X65737369Y-73968612D01*
X65674921Y-74049038D01*
X65346541Y-74452955D01*
X65092636Y-74694798D01*
X64885383Y-74788062D01*
X64696958Y-74746245D01*
X64523691Y-74607490D01*
X64110973Y-74301641D01*
X63678678Y-74193696D01*
X63653896Y-74193400D01*
X63416182Y-74283972D01*
X63243312Y-74530498D01*
X63138852Y-74895188D01*
X63106372Y-75340256D01*
X63149440Y-75827911D01*
X63271624Y-76320367D01*
X63419595Y-76674598D01*
X63671047Y-77169374D01*
X63377734Y-77867481D01*
X63031238Y-78799438D01*
X62808826Y-79639391D01*
X62707848Y-80376820D01*
X62725654Y-81001202D01*
X62859596Y-81502014D01*
X63107023Y-81868734D01*
X63465287Y-82090840D01*
X63931738Y-82157810D01*
X64437855Y-82077832D01*
X64893199Y-81897467D01*
X65439222Y-81589686D01*
X66034897Y-81181817D01*
X66639200Y-80701183D01*
X67027506Y-80352976D01*
X67717302Y-79702258D01*
X68275651Y-79792523D01*
X68877791Y-79826065D01*
X69463658Y-79744659D01*
X69982726Y-79563067D01*
X70384466Y-79296048D01*
X70525424Y-79135296D01*
X70549911Y-78941633D01*
X70451018Y-78680977D01*
X70261953Y-78415835D01*
X70041722Y-78224765D01*
X69782472Y-77991147D01*
X69603564Y-77712781D01*
X69591372Y-77680070D01*
X69540080Y-77458559D01*
X69572556Y-77260438D01*
X69706789Y-77003755D01*
X69757870Y-76921598D01*
X69896050Y-76681023D01*
X70099282Y-76299198D01*
X70345691Y-75818536D01*
X70613395Y-75281453D01*
X70777285Y-74945325D01*
X71392858Y-73745137D01*
X71993817Y-72732017D01*
X72593852Y-71891813D01*
X73206656Y-71210375D01*
X73845921Y-70673550D01*
X74525337Y-70267189D01*
X75258596Y-69977139D01*
X75697068Y-69860417D01*
X76084513Y-69782692D01*
X76417250Y-69747085D01*
X76770949Y-69751842D01*
X77221281Y-69795205D01*
X77424774Y-69820329D01*
X77886470Y-69868821D01*
X78303039Y-69894153D01*
X78612823Y-69893394D01*
X78712098Y-69881528D01*
X78937910Y-69787083D01*
X79203819Y-69616541D01*
X79450068Y-69416634D01*
X79616902Y-69234093D01*
X79654500Y-69144527D01*
X79560236Y-69113398D01*
X79305968Y-69094865D01*
X78934614Y-69090913D01*
X78638500Y-69097520D01*
X78136302Y-69104837D01*
X77795546Y-69087894D01*
X77633627Y-69047857D01*
X77622400Y-69029485D01*
X77716453Y-68928409D01*
X77969992Y-68818120D01*
X78340093Y-68707269D01*
X78783829Y-68604508D01*
X79258274Y-68518488D01*
X79720502Y-68457861D01*
X80127588Y-68431279D01*
X80436605Y-68447392D01*
X80474631Y-68454632D01*
X80703245Y-68479550D01*
X80753678Y-68419347D01*
X80628621Y-68281517D01*
X80340019Y-68079375D01*
X79965506Y-67865911D01*
X79606916Y-67721498D01*
X79233377Y-67647497D01*
X78814016Y-67645265D01*
X78317960Y-67716163D01*
G37*
X78317960Y-67716163D02*
X77714336Y-67861548D01*
X76972273Y-68082780D01*
X76454000Y-68250427D01*
X75869239Y-68429137D01*
X75256968Y-68592799D01*
X74690320Y-68723158D01*
X74247239Y-68801333D01*
X72961836Y-69030037D01*
X71788138Y-69375577D01*
X70670044Y-69859555D01*
X69551452Y-70503571D01*
X69171587Y-70755622D01*
X68471961Y-71277869D01*
X67724313Y-71911543D01*
X66983055Y-72605391D01*
X66302603Y-73308165D01*
X65737369Y-73968612D01*
X65674921Y-74049038D01*
X65346541Y-74452955D01*
X65092636Y-74694798D01*
X64885383Y-74788062D01*
X64696958Y-74746245D01*
X64523691Y-74607490D01*
X64110973Y-74301641D01*
X63678678Y-74193696D01*
X63653896Y-74193400D01*
X63416182Y-74283972D01*
X63243312Y-74530498D01*
X63138852Y-74895188D01*
X63106372Y-75340256D01*
X63149440Y-75827911D01*
X63271624Y-76320367D01*
X63419595Y-76674598D01*
X63671047Y-77169374D01*
X63377734Y-77867481D01*
X63031238Y-78799438D01*
X62808826Y-79639391D01*
X62707848Y-80376820D01*
X62725654Y-81001202D01*
X62859596Y-81502014D01*
X63107023Y-81868734D01*
X63465287Y-82090840D01*
X63931738Y-82157810D01*
X64437855Y-82077832D01*
X64893199Y-81897467D01*
X65439222Y-81589686D01*
X66034897Y-81181817D01*
X66639200Y-80701183D01*
X67027506Y-80352976D01*
X67717302Y-79702258D01*
X68275651Y-79792523D01*
X68877791Y-79826065D01*
X69463658Y-79744659D01*
X69982726Y-79563067D01*
X70384466Y-79296048D01*
X70525424Y-79135296D01*
X70549911Y-78941633D01*
X70451018Y-78680977D01*
X70261953Y-78415835D01*
X70041722Y-78224765D01*
X69782472Y-77991147D01*
X69603564Y-77712781D01*
X69591372Y-77680070D01*
X69540080Y-77458559D01*
X69572556Y-77260438D01*
X69706789Y-77003755D01*
X69757870Y-76921598D01*
X69896050Y-76681023D01*
X70099282Y-76299198D01*
X70345691Y-75818536D01*
X70613395Y-75281453D01*
X70777285Y-74945325D01*
X71392858Y-73745137D01*
X71993817Y-72732017D01*
X72593852Y-71891813D01*
X73206656Y-71210375D01*
X73845921Y-70673550D01*
X74525337Y-70267189D01*
X75258596Y-69977139D01*
X75697068Y-69860417D01*
X76084513Y-69782692D01*
X76417250Y-69747085D01*
X76770949Y-69751842D01*
X77221281Y-69795205D01*
X77424774Y-69820329D01*
X77886470Y-69868821D01*
X78303039Y-69894153D01*
X78612823Y-69893394D01*
X78712098Y-69881528D01*
X78937910Y-69787083D01*
X79203819Y-69616541D01*
X79450068Y-69416634D01*
X79616902Y-69234093D01*
X79654500Y-69144527D01*
X79560236Y-69113398D01*
X79305968Y-69094865D01*
X78934614Y-69090913D01*
X78638500Y-69097520D01*
X78136302Y-69104837D01*
X77795546Y-69087894D01*
X77633627Y-69047857D01*
X77622400Y-69029485D01*
X77716453Y-68928409D01*
X77969992Y-68818120D01*
X78340093Y-68707269D01*
X78783829Y-68604508D01*
X79258274Y-68518488D01*
X79720502Y-68457861D01*
X80127588Y-68431279D01*
X80436605Y-68447392D01*
X80474631Y-68454632D01*
X80703245Y-68479550D01*
X80753678Y-68419347D01*
X80628621Y-68281517D01*
X80340019Y-68079375D01*
X79965506Y-67865911D01*
X79606916Y-67721498D01*
X79233377Y-67647497D01*
X78814016Y-67645265D01*
X78317960Y-67716163D01*
G36*
X99122759Y-70892088D02*
G01*
X98446532Y-71234380D01*
X98329812Y-71310578D01*
X97792264Y-71672321D01*
X97075725Y-71503579D01*
X96255076Y-71355424D01*
X95517645Y-71311899D01*
X94889061Y-71371271D01*
X94394952Y-71531809D01*
X94144773Y-71701631D01*
X93924679Y-72035477D01*
X93863533Y-72461470D01*
X93952056Y-72957789D01*
X94180967Y-73502609D01*
X94540986Y-74074109D01*
X95022832Y-74650466D01*
X95617225Y-75209858D01*
X95647440Y-75235087D01*
X95965482Y-75509484D01*
X96166569Y-75728111D01*
X96294903Y-75958971D01*
X96394686Y-76270063D01*
X96443342Y-76459520D01*
X96629314Y-77015178D01*
X96877942Y-77486224D01*
X97166168Y-77845557D01*
X97470935Y-78066077D01*
X97769184Y-78120683D01*
X97842836Y-78104353D01*
X98048733Y-77961481D01*
X98255778Y-77705819D01*
X98407150Y-77419336D01*
X98450021Y-77228440D01*
X98484617Y-77033895D01*
X98603982Y-76928970D01*
X98833134Y-76911963D01*
X99197090Y-76981172D01*
X99720867Y-77134895D01*
X99739132Y-77140738D01*
X100280416Y-77306749D01*
X100864764Y-77474166D01*
X101393241Y-77614992D01*
X101558997Y-77655748D01*
X102723430Y-77982628D01*
X103760027Y-78376227D01*
X104651146Y-78827407D01*
X105379143Y-79327030D01*
X105926376Y-79865959D01*
X105994200Y-79952849D01*
X106273600Y-80325597D01*
X106273600Y-79338921D01*
X106265972Y-78842371D01*
X106236241Y-78486834D01*
X106174142Y-78210469D01*
X106069410Y-77951434D01*
X106030002Y-77871526D01*
X105638105Y-77218387D01*
X105128377Y-76544406D01*
X104561411Y-75925984D01*
X104281307Y-75666600D01*
X103859198Y-75313567D01*
X103346803Y-74905205D01*
X102786144Y-74473038D01*
X102219244Y-74048589D01*
X101688127Y-73663380D01*
X101234815Y-73348934D01*
X100936321Y-73157397D01*
X100555445Y-72889409D01*
X100357797Y-72630869D01*
X100329082Y-72343537D01*
X100455005Y-71989170D01*
X100480714Y-71938626D01*
X100618396Y-71555872D01*
X100635865Y-71205959D01*
X100538830Y-70937060D01*
X100345848Y-70800538D01*
X99756240Y-70747378D01*
X99122759Y-70892088D01*
G37*
X99122759Y-70892088D02*
X98446532Y-71234380D01*
X98329812Y-71310578D01*
X97792264Y-71672321D01*
X97075725Y-71503579D01*
X96255076Y-71355424D01*
X95517645Y-71311899D01*
X94889061Y-71371271D01*
X94394952Y-71531809D01*
X94144773Y-71701631D01*
X93924679Y-72035477D01*
X93863533Y-72461470D01*
X93952056Y-72957789D01*
X94180967Y-73502609D01*
X94540986Y-74074109D01*
X95022832Y-74650466D01*
X95617225Y-75209858D01*
X95647440Y-75235087D01*
X95965482Y-75509484D01*
X96166569Y-75728111D01*
X96294903Y-75958971D01*
X96394686Y-76270063D01*
X96443342Y-76459520D01*
X96629314Y-77015178D01*
X96877942Y-77486224D01*
X97166168Y-77845557D01*
X97470935Y-78066077D01*
X97769184Y-78120683D01*
X97842836Y-78104353D01*
X98048733Y-77961481D01*
X98255778Y-77705819D01*
X98407150Y-77419336D01*
X98450021Y-77228440D01*
X98484617Y-77033895D01*
X98603982Y-76928970D01*
X98833134Y-76911963D01*
X99197090Y-76981172D01*
X99720867Y-77134895D01*
X99739132Y-77140738D01*
X100280416Y-77306749D01*
X100864764Y-77474166D01*
X101393241Y-77614992D01*
X101558997Y-77655748D01*
X102723430Y-77982628D01*
X103760027Y-78376227D01*
X104651146Y-78827407D01*
X105379143Y-79327030D01*
X105926376Y-79865959D01*
X105994200Y-79952849D01*
X106273600Y-80325597D01*
X106273600Y-79338921D01*
X106265972Y-78842371D01*
X106236241Y-78486834D01*
X106174142Y-78210469D01*
X106069410Y-77951434D01*
X106030002Y-77871526D01*
X105638105Y-77218387D01*
X105128377Y-76544406D01*
X104561411Y-75925984D01*
X104281307Y-75666600D01*
X103859198Y-75313567D01*
X103346803Y-74905205D01*
X102786144Y-74473038D01*
X102219244Y-74048589D01*
X101688127Y-73663380D01*
X101234815Y-73348934D01*
X100936321Y-73157397D01*
X100555445Y-72889409D01*
X100357797Y-72630869D01*
X100329082Y-72343537D01*
X100455005Y-71989170D01*
X100480714Y-71938626D01*
X100618396Y-71555872D01*
X100635865Y-71205959D01*
X100538830Y-70937060D01*
X100345848Y-70800538D01*
X99756240Y-70747378D01*
X99122759Y-70892088D01*
G36*
X66791429Y-66147226D02*
G01*
X66621749Y-66349987D01*
X66461656Y-66572430D01*
X66226230Y-66883769D01*
X65941481Y-67208958D01*
X65646699Y-67509060D01*
X65381176Y-67745139D01*
X65184201Y-67878258D01*
X65127871Y-67894200D01*
X65040809Y-67861051D01*
X65053308Y-67746250D01*
X65175432Y-67526764D01*
X65417243Y-67179562D01*
X65473900Y-67102209D01*
X65683347Y-66802822D01*
X65825941Y-66569801D01*
X65875412Y-66446775D01*
X65872652Y-66439917D01*
X65742332Y-66428877D01*
X65500012Y-66482816D01*
X65218448Y-66582120D01*
X65047615Y-66662362D01*
X64913002Y-66799513D01*
X64725986Y-67074080D01*
X64517585Y-67438189D01*
X64415469Y-67638022D01*
X63940083Y-68430214D01*
X63366069Y-69054371D01*
X62674527Y-69524776D01*
X61846554Y-69855712D01*
X61306457Y-69987389D01*
X60639392Y-70072717D01*
X59852234Y-70098771D01*
X59018867Y-70066802D01*
X58213176Y-69978060D01*
X57932548Y-69930266D01*
X57579302Y-69875959D01*
X57107434Y-69820404D01*
X56601235Y-69773153D01*
X56435897Y-69760650D01*
X55902108Y-69706564D01*
X55540876Y-69619227D01*
X55321954Y-69478138D01*
X55215100Y-69262792D01*
X55190069Y-68952689D01*
X55190874Y-68916646D01*
X55126616Y-68577468D01*
X54940974Y-68332595D01*
X54676378Y-68224924D01*
X54519507Y-68237933D01*
X54156740Y-68414948D01*
X53792088Y-68740216D01*
X53474443Y-69165236D01*
X53348927Y-69399142D01*
X53192917Y-69699170D01*
X53047280Y-69862131D01*
X52852556Y-69941781D01*
X52721126Y-69966698D01*
X52170328Y-70088238D01*
X51561901Y-70275952D01*
X50967947Y-70503359D01*
X50460564Y-70743975D01*
X50231345Y-70881186D01*
X49791050Y-71253989D01*
X49551409Y-71638581D01*
X49513092Y-72030808D01*
X49676767Y-72426515D01*
X49934699Y-72725175D01*
X50282259Y-72972317D01*
X50780075Y-73218645D01*
X51376193Y-73443327D01*
X52018659Y-73625529D01*
X52359890Y-73697692D01*
X52730007Y-73777813D01*
X52958637Y-73869468D01*
X53106478Y-74004479D01*
X53189040Y-74132377D01*
X53562875Y-74660013D01*
X53990067Y-75045322D01*
X54441339Y-75266129D01*
X54745029Y-75311000D01*
X54989690Y-75260843D01*
X55139725Y-75073141D01*
X55162330Y-75021820D01*
X55228601Y-74718431D01*
X55214111Y-74461700D01*
X55204159Y-74169155D01*
X55355354Y-73983614D01*
X55676748Y-73897224D01*
X55874537Y-73888600D01*
X56445818Y-73851890D01*
X57142318Y-73750107D01*
X57901454Y-73595774D01*
X58660646Y-73401409D01*
X59277378Y-73207791D01*
X60201820Y-72858424D01*
X60997559Y-72488877D01*
X61709249Y-72068913D01*
X62381545Y-71568292D01*
X63059102Y-70956777D01*
X63786575Y-70204130D01*
X63906400Y-70073190D01*
X64173701Y-69804570D01*
X64549524Y-69459827D01*
X64980952Y-69086240D01*
X65356399Y-68777699D01*
X65918057Y-68309790D01*
X66329227Y-67914453D01*
X66613504Y-67559443D01*
X66794479Y-67212517D01*
X66895745Y-66841429D01*
X66924017Y-66635229D01*
X66941363Y-66327508D01*
X66925327Y-66121676D01*
X66892415Y-66068019D01*
X66791429Y-66147226D01*
G37*
X66791429Y-66147226D02*
X66621749Y-66349987D01*
X66461656Y-66572430D01*
X66226230Y-66883769D01*
X65941481Y-67208958D01*
X65646699Y-67509060D01*
X65381176Y-67745139D01*
X65184201Y-67878258D01*
X65127871Y-67894200D01*
X65040809Y-67861051D01*
X65053308Y-67746250D01*
X65175432Y-67526764D01*
X65417243Y-67179562D01*
X65473900Y-67102209D01*
X65683347Y-66802822D01*
X65825941Y-66569801D01*
X65875412Y-66446775D01*
X65872652Y-66439917D01*
X65742332Y-66428877D01*
X65500012Y-66482816D01*
X65218448Y-66582120D01*
X65047615Y-66662362D01*
X64913002Y-66799513D01*
X64725986Y-67074080D01*
X64517585Y-67438189D01*
X64415469Y-67638022D01*
X63940083Y-68430214D01*
X63366069Y-69054371D01*
X62674527Y-69524776D01*
X61846554Y-69855712D01*
X61306457Y-69987389D01*
X60639392Y-70072717D01*
X59852234Y-70098771D01*
X59018867Y-70066802D01*
X58213176Y-69978060D01*
X57932548Y-69930266D01*
X57579302Y-69875959D01*
X57107434Y-69820404D01*
X56601235Y-69773153D01*
X56435897Y-69760650D01*
X55902108Y-69706564D01*
X55540876Y-69619227D01*
X55321954Y-69478138D01*
X55215100Y-69262792D01*
X55190069Y-68952689D01*
X55190874Y-68916646D01*
X55126616Y-68577468D01*
X54940974Y-68332595D01*
X54676378Y-68224924D01*
X54519507Y-68237933D01*
X54156740Y-68414948D01*
X53792088Y-68740216D01*
X53474443Y-69165236D01*
X53348927Y-69399142D01*
X53192917Y-69699170D01*
X53047280Y-69862131D01*
X52852556Y-69941781D01*
X52721126Y-69966698D01*
X52170328Y-70088238D01*
X51561901Y-70275952D01*
X50967947Y-70503359D01*
X50460564Y-70743975D01*
X50231345Y-70881186D01*
X49791050Y-71253989D01*
X49551409Y-71638581D01*
X49513092Y-72030808D01*
X49676767Y-72426515D01*
X49934699Y-72725175D01*
X50282259Y-72972317D01*
X50780075Y-73218645D01*
X51376193Y-73443327D01*
X52018659Y-73625529D01*
X52359890Y-73697692D01*
X52730007Y-73777813D01*
X52958637Y-73869468D01*
X53106478Y-74004479D01*
X53189040Y-74132377D01*
X53562875Y-74660013D01*
X53990067Y-75045322D01*
X54441339Y-75266129D01*
X54745029Y-75311000D01*
X54989690Y-75260843D01*
X55139725Y-75073141D01*
X55162330Y-75021820D01*
X55228601Y-74718431D01*
X55214111Y-74461700D01*
X55204159Y-74169155D01*
X55355354Y-73983614D01*
X55676748Y-73897224D01*
X55874537Y-73888600D01*
X56445818Y-73851890D01*
X57142318Y-73750107D01*
X57901454Y-73595774D01*
X58660646Y-73401409D01*
X59277378Y-73207791D01*
X60201820Y-72858424D01*
X60997559Y-72488877D01*
X61709249Y-72068913D01*
X62381545Y-71568292D01*
X63059102Y-70956777D01*
X63786575Y-70204130D01*
X63906400Y-70073190D01*
X64173701Y-69804570D01*
X64549524Y-69459827D01*
X64980952Y-69086240D01*
X65356399Y-68777699D01*
X65918057Y-68309790D01*
X66329227Y-67914453D01*
X66613504Y-67559443D01*
X66794479Y-67212517D01*
X66895745Y-66841429D01*
X66924017Y-66635229D01*
X66941363Y-66327508D01*
X66925327Y-66121676D01*
X66892415Y-66068019D01*
X66791429Y-66147226D01*
G36*
X45565865Y-63072550D02*
G01*
X45244848Y-63264595D01*
X45176723Y-63322200D01*
X44830492Y-63549743D01*
X44507318Y-63622568D01*
X44247399Y-63533021D01*
X44216321Y-63505080D01*
X44182304Y-63513773D01*
X44154772Y-63624921D01*
X44133169Y-63853790D01*
X44116939Y-64215648D01*
X44105525Y-64725763D01*
X44098372Y-65399402D01*
X44094923Y-66251833D01*
X44094400Y-66852709D01*
X44094400Y-70322258D01*
X44425338Y-70574677D01*
X44956873Y-70918112D01*
X45506340Y-71164939D01*
X46033685Y-71305139D01*
X46498855Y-71328693D01*
X46861800Y-71225582D01*
X46908819Y-71195884D01*
X47167777Y-70893312D01*
X47308666Y-70442381D01*
X47333108Y-69858941D01*
X47242723Y-69158842D01*
X47039132Y-68357934D01*
X46723956Y-67472067D01*
X46466712Y-66872838D01*
X46116443Y-66105477D01*
X46334416Y-65602838D01*
X46543068Y-64946937D01*
X46617010Y-64286309D01*
X46551817Y-63682363D01*
X46487649Y-63475251D01*
X46369932Y-63198726D01*
X46253017Y-63064201D01*
X46073676Y-63020827D01*
X45918333Y-63017400D01*
X45565865Y-63072550D01*
G37*
X45565865Y-63072550D02*
X45244848Y-63264595D01*
X45176723Y-63322200D01*
X44830492Y-63549743D01*
X44507318Y-63622568D01*
X44247399Y-63533021D01*
X44216321Y-63505080D01*
X44182304Y-63513773D01*
X44154772Y-63624921D01*
X44133169Y-63853790D01*
X44116939Y-64215648D01*
X44105525Y-64725763D01*
X44098372Y-65399402D01*
X44094923Y-66251833D01*
X44094400Y-66852709D01*
X44094400Y-70322258D01*
X44425338Y-70574677D01*
X44956873Y-70918112D01*
X45506340Y-71164939D01*
X46033685Y-71305139D01*
X46498855Y-71328693D01*
X46861800Y-71225582D01*
X46908819Y-71195884D01*
X47167777Y-70893312D01*
X47308666Y-70442381D01*
X47333108Y-69858941D01*
X47242723Y-69158842D01*
X47039132Y-68357934D01*
X46723956Y-67472067D01*
X46466712Y-66872838D01*
X46116443Y-66105477D01*
X46334416Y-65602838D01*
X46543068Y-64946937D01*
X46617010Y-64286309D01*
X46551817Y-63682363D01*
X46487649Y-63475251D01*
X46369932Y-63198726D01*
X46253017Y-63064201D01*
X46073676Y-63020827D01*
X45918333Y-63017400D01*
X45565865Y-63072550D01*
G36*
X95475931Y-58190564D02*
G01*
X94775112Y-58299659D01*
X94335600Y-58400104D01*
X93618076Y-58559381D01*
X92983567Y-58648742D01*
X92329821Y-58681734D01*
X92202000Y-58682732D01*
X91186000Y-58685298D01*
X91744800Y-58863942D01*
X92519933Y-59020768D01*
X93390756Y-59022334D01*
X94263684Y-58892899D01*
X95073438Y-58778522D01*
X95829243Y-58790508D01*
X96549307Y-58938174D01*
X97251836Y-59230838D01*
X97955037Y-59677816D01*
X98677117Y-60288425D01*
X99436282Y-61071983D01*
X100139622Y-61899800D01*
X100556152Y-62438953D01*
X100987218Y-63041479D01*
X101416488Y-63679926D01*
X101827629Y-64326841D01*
X102204310Y-64954771D01*
X102530198Y-65536264D01*
X102788961Y-66043868D01*
X102964266Y-66450130D01*
X103039782Y-66727598D01*
X103040964Y-66776600D01*
X102943483Y-67017139D01*
X102699524Y-67315538D01*
X102572751Y-67437000D01*
X102213790Y-67817368D01*
X102047899Y-68144601D01*
X102075889Y-68431340D01*
X102298569Y-68690229D01*
X102667233Y-68910409D01*
X102932011Y-69022155D01*
X103195021Y-69084953D01*
X103522220Y-69107886D01*
X103979567Y-69100039D01*
X104030072Y-69098106D01*
X104931835Y-69062600D01*
X105544375Y-69646800D01*
X105831648Y-69914553D01*
X106062065Y-70117724D01*
X106197649Y-70223243D01*
X106215258Y-70231000D01*
X106228951Y-70133268D01*
X106241502Y-69855545D01*
X106252522Y-69421036D01*
X106261624Y-68852949D01*
X106268419Y-68174490D01*
X106272520Y-67408866D01*
X106273600Y-66740537D01*
X106273600Y-63250075D01*
X105740200Y-62747906D01*
X105390167Y-62436433D01*
X105017410Y-62132468D01*
X104749600Y-61934931D01*
X104314481Y-61656916D01*
X103736763Y-61313962D01*
X103057303Y-60928505D01*
X102316960Y-60522983D01*
X101556589Y-60119830D01*
X100817049Y-59741483D01*
X100237372Y-59457124D01*
X99216062Y-58988402D01*
X98328909Y-58630444D01*
X97543616Y-58377466D01*
X96827887Y-58223682D01*
X96149424Y-58163310D01*
X95475931Y-58190564D01*
G37*
X95475931Y-58190564D02*
X94775112Y-58299659D01*
X94335600Y-58400104D01*
X93618076Y-58559381D01*
X92983567Y-58648742D01*
X92329821Y-58681734D01*
X92202000Y-58682732D01*
X91186000Y-58685298D01*
X91744800Y-58863942D01*
X92519933Y-59020768D01*
X93390756Y-59022334D01*
X94263684Y-58892899D01*
X95073438Y-58778522D01*
X95829243Y-58790508D01*
X96549307Y-58938174D01*
X97251836Y-59230838D01*
X97955037Y-59677816D01*
X98677117Y-60288425D01*
X99436282Y-61071983D01*
X100139622Y-61899800D01*
X100556152Y-62438953D01*
X100987218Y-63041479D01*
X101416488Y-63679926D01*
X101827629Y-64326841D01*
X102204310Y-64954771D01*
X102530198Y-65536264D01*
X102788961Y-66043868D01*
X102964266Y-66450130D01*
X103039782Y-66727598D01*
X103040964Y-66776600D01*
X102943483Y-67017139D01*
X102699524Y-67315538D01*
X102572751Y-67437000D01*
X102213790Y-67817368D01*
X102047899Y-68144601D01*
X102075889Y-68431340D01*
X102298569Y-68690229D01*
X102667233Y-68910409D01*
X102932011Y-69022155D01*
X103195021Y-69084953D01*
X103522220Y-69107886D01*
X103979567Y-69100039D01*
X104030072Y-69098106D01*
X104931835Y-69062600D01*
X105544375Y-69646800D01*
X105831648Y-69914553D01*
X106062065Y-70117724D01*
X106197649Y-70223243D01*
X106215258Y-70231000D01*
X106228951Y-70133268D01*
X106241502Y-69855545D01*
X106252522Y-69421036D01*
X106261624Y-68852949D01*
X106268419Y-68174490D01*
X106272520Y-67408866D01*
X106273600Y-66740537D01*
X106273600Y-63250075D01*
X105740200Y-62747906D01*
X105390167Y-62436433D01*
X105017410Y-62132468D01*
X104749600Y-61934931D01*
X104314481Y-61656916D01*
X103736763Y-61313962D01*
X103057303Y-60928505D01*
X102316960Y-60522983D01*
X101556589Y-60119830D01*
X100817049Y-59741483D01*
X100237372Y-59457124D01*
X99216062Y-58988402D01*
X98328909Y-58630444D01*
X97543616Y-58377466D01*
X96827887Y-58223682D01*
X96149424Y-58163310D01*
X95475931Y-58190564D01*
G36*
X63866280Y-55822913D02*
G01*
X63703279Y-55913442D01*
X63572737Y-56127912D01*
X63555350Y-56164162D01*
X63437865Y-56565819D01*
X63461343Y-56849962D01*
X63513176Y-57320167D01*
X63407633Y-57667385D01*
X63134569Y-57908678D01*
X62749925Y-58046402D01*
X62010983Y-58249299D01*
X61197292Y-58520620D01*
X60359933Y-58839373D01*
X59549986Y-59184563D01*
X58818530Y-59535196D01*
X58216644Y-59870277D01*
X58047072Y-59979306D01*
X57476246Y-60392660D01*
X56995786Y-60813117D01*
X56584743Y-61271878D01*
X56222165Y-61800142D01*
X55887105Y-62429110D01*
X55558610Y-63189981D01*
X55215733Y-64113956D01*
X55156202Y-64284598D01*
X54935760Y-64709413D01*
X54600117Y-65115954D01*
X54206860Y-65446455D01*
X53813578Y-65643149D01*
X53797200Y-65647819D01*
X53499987Y-65701033D01*
X53080584Y-65740949D01*
X52619914Y-65760345D01*
X52527200Y-65761133D01*
X52052744Y-65780180D01*
X51587993Y-65829009D01*
X51222064Y-65897758D01*
X51176267Y-65910664D01*
X50775535Y-66057392D01*
X50343377Y-66256643D01*
X49913257Y-66487326D01*
X49518638Y-66728352D01*
X49192983Y-66958630D01*
X48969755Y-67157072D01*
X48882418Y-67302586D01*
X48897788Y-67346654D01*
X49073992Y-67416839D01*
X49388633Y-67454812D01*
X49779498Y-67460441D01*
X50184373Y-67433592D01*
X50541043Y-67374132D01*
X50627927Y-67350353D01*
X50942250Y-67279167D01*
X51079878Y-67301691D01*
X51034372Y-67400716D01*
X50799291Y-67559031D01*
X50721401Y-67600155D01*
X50400902Y-67763310D01*
X50656032Y-67879555D01*
X51095931Y-67987058D01*
X51504281Y-67906313D01*
X51562000Y-67877081D01*
X51712935Y-67761575D01*
X51967380Y-67534092D01*
X52287968Y-67229089D01*
X52590234Y-66928884D01*
X52986505Y-66539135D01*
X53301656Y-66265124D01*
X53588008Y-66069341D01*
X53897881Y-65914279D01*
X54144692Y-65814498D01*
X54799607Y-65520531D01*
X55312606Y-65175548D01*
X55739780Y-64731378D01*
X56137216Y-64139852D01*
X56179803Y-64066715D01*
X56612131Y-63486241D01*
X57150376Y-63074085D01*
X57678820Y-62852557D01*
X57862190Y-62807660D01*
X58091916Y-62774866D01*
X58393527Y-62753565D01*
X58792552Y-62743150D01*
X59314521Y-62743012D01*
X59984962Y-62752542D01*
X60829406Y-62771132D01*
X60960000Y-62774349D01*
X61929492Y-62802575D01*
X62701434Y-62834071D01*
X63274487Y-62868751D01*
X63647312Y-62906531D01*
X63818571Y-62947325D01*
X63828645Y-62956027D01*
X63873530Y-63118831D01*
X63901003Y-63401293D01*
X63904845Y-63549197D01*
X63938246Y-63911995D01*
X64060359Y-64182524D01*
X64185800Y-64337502D01*
X64378258Y-64529859D01*
X64536386Y-64592817D01*
X64756391Y-64552704D01*
X64858303Y-64521544D01*
X65281802Y-64311345D01*
X65723003Y-63964217D01*
X66126283Y-63532740D01*
X66436021Y-63069495D01*
X66474005Y-62994226D01*
X66613676Y-62721215D01*
X66749165Y-62539902D01*
X66934440Y-62406868D01*
X67223467Y-62278696D01*
X67486500Y-62179653D01*
X68254185Y-61844075D01*
X68946412Y-61440302D01*
X69542944Y-60988466D01*
X70023542Y-60508698D01*
X70367966Y-60021129D01*
X70555979Y-59545892D01*
X70569291Y-59113194D01*
X70398242Y-58730466D01*
X70052011Y-58386839D01*
X69556750Y-58093927D01*
X68938609Y-57863345D01*
X68223740Y-57706710D01*
X67438294Y-57635638D01*
X67235923Y-57632599D01*
X66920656Y-57622311D01*
X66684062Y-57571626D01*
X66479558Y-57450814D01*
X66260564Y-57230146D01*
X65980499Y-56879892D01*
X65908055Y-56785109D01*
X65549018Y-56420866D01*
X65094309Y-56110944D01*
X64611764Y-55893096D01*
X64169221Y-55805079D01*
X64146577Y-55804753D01*
X63866280Y-55822913D01*
G37*
X63866280Y-55822913D02*
X63703279Y-55913442D01*
X63572737Y-56127912D01*
X63555350Y-56164162D01*
X63437865Y-56565819D01*
X63461343Y-56849962D01*
X63513176Y-57320167D01*
X63407633Y-57667385D01*
X63134569Y-57908678D01*
X62749925Y-58046402D01*
X62010983Y-58249299D01*
X61197292Y-58520620D01*
X60359933Y-58839373D01*
X59549986Y-59184563D01*
X58818530Y-59535196D01*
X58216644Y-59870277D01*
X58047072Y-59979306D01*
X57476246Y-60392660D01*
X56995786Y-60813117D01*
X56584743Y-61271878D01*
X56222165Y-61800142D01*
X55887105Y-62429110D01*
X55558610Y-63189981D01*
X55215733Y-64113956D01*
X55156202Y-64284598D01*
X54935760Y-64709413D01*
X54600117Y-65115954D01*
X54206860Y-65446455D01*
X53813578Y-65643149D01*
X53797200Y-65647819D01*
X53499987Y-65701033D01*
X53080584Y-65740949D01*
X52619914Y-65760345D01*
X52527200Y-65761133D01*
X52052744Y-65780180D01*
X51587993Y-65829009D01*
X51222064Y-65897758D01*
X51176267Y-65910664D01*
X50775535Y-66057392D01*
X50343377Y-66256643D01*
X49913257Y-66487326D01*
X49518638Y-66728352D01*
X49192983Y-66958630D01*
X48969755Y-67157072D01*
X48882418Y-67302586D01*
X48897788Y-67346654D01*
X49073992Y-67416839D01*
X49388633Y-67454812D01*
X49779498Y-67460441D01*
X50184373Y-67433592D01*
X50541043Y-67374132D01*
X50627927Y-67350353D01*
X50942250Y-67279167D01*
X51079878Y-67301691D01*
X51034372Y-67400716D01*
X50799291Y-67559031D01*
X50721401Y-67600155D01*
X50400902Y-67763310D01*
X50656032Y-67879555D01*
X51095931Y-67987058D01*
X51504281Y-67906313D01*
X51562000Y-67877081D01*
X51712935Y-67761575D01*
X51967380Y-67534092D01*
X52287968Y-67229089D01*
X52590234Y-66928884D01*
X52986505Y-66539135D01*
X53301656Y-66265124D01*
X53588008Y-66069341D01*
X53897881Y-65914279D01*
X54144692Y-65814498D01*
X54799607Y-65520531D01*
X55312606Y-65175548D01*
X55739780Y-64731378D01*
X56137216Y-64139852D01*
X56179803Y-64066715D01*
X56612131Y-63486241D01*
X57150376Y-63074085D01*
X57678820Y-62852557D01*
X57862190Y-62807660D01*
X58091916Y-62774866D01*
X58393527Y-62753565D01*
X58792552Y-62743150D01*
X59314521Y-62743012D01*
X59984962Y-62752542D01*
X60829406Y-62771132D01*
X60960000Y-62774349D01*
X61929492Y-62802575D01*
X62701434Y-62834071D01*
X63274487Y-62868751D01*
X63647312Y-62906531D01*
X63818571Y-62947325D01*
X63828645Y-62956027D01*
X63873530Y-63118831D01*
X63901003Y-63401293D01*
X63904845Y-63549197D01*
X63938246Y-63911995D01*
X64060359Y-64182524D01*
X64185800Y-64337502D01*
X64378258Y-64529859D01*
X64536386Y-64592817D01*
X64756391Y-64552704D01*
X64858303Y-64521544D01*
X65281802Y-64311345D01*
X65723003Y-63964217D01*
X66126283Y-63532740D01*
X66436021Y-63069495D01*
X66474005Y-62994226D01*
X66613676Y-62721215D01*
X66749165Y-62539902D01*
X66934440Y-62406868D01*
X67223467Y-62278696D01*
X67486500Y-62179653D01*
X68254185Y-61844075D01*
X68946412Y-61440302D01*
X69542944Y-60988466D01*
X70023542Y-60508698D01*
X70367966Y-60021129D01*
X70555979Y-59545892D01*
X70569291Y-59113194D01*
X70398242Y-58730466D01*
X70052011Y-58386839D01*
X69556750Y-58093927D01*
X68938609Y-57863345D01*
X68223740Y-57706710D01*
X67438294Y-57635638D01*
X67235923Y-57632599D01*
X66920656Y-57622311D01*
X66684062Y-57571626D01*
X66479558Y-57450814D01*
X66260564Y-57230146D01*
X65980499Y-56879892D01*
X65908055Y-56785109D01*
X65549018Y-56420866D01*
X65094309Y-56110944D01*
X64611764Y-55893096D01*
X64169221Y-55805079D01*
X64146577Y-55804753D01*
X63866280Y-55822913D01*
G36*
X71946363Y-47602383D02*
G01*
X72011955Y-47735459D01*
X72254038Y-48053337D01*
X72646306Y-48411833D01*
X73148858Y-48779756D01*
X73721792Y-49125913D01*
X73931983Y-49236366D01*
X74364148Y-49471553D01*
X74765464Y-49719763D01*
X75073576Y-49941250D01*
X75167729Y-50024091D01*
X75566519Y-50532942D01*
X75908856Y-51201319D01*
X76175889Y-51989058D01*
X76263962Y-52359725D01*
X76350264Y-52902605D01*
X76409949Y-53551234D01*
X76444441Y-54276069D01*
X76455161Y-55047565D01*
X76443531Y-55836181D01*
X76410973Y-56612374D01*
X76358909Y-57346599D01*
X76288760Y-58009314D01*
X76201949Y-58570977D01*
X76099898Y-59002043D01*
X75984028Y-59272970D01*
X75928265Y-59334400D01*
X75714253Y-59418645D01*
X75414233Y-59460411D01*
X75364207Y-59461400D01*
X74917669Y-59524594D01*
X74626233Y-59699887D01*
X74491838Y-59965848D01*
X74516422Y-60301045D01*
X74701922Y-60684043D01*
X75050278Y-61093412D01*
X75204012Y-61232957D01*
X75487474Y-61451425D01*
X75746426Y-61611136D01*
X75863435Y-61659655D01*
X76002936Y-61712949D01*
X76096702Y-61817443D01*
X76163630Y-62017053D01*
X76222618Y-62355694D01*
X76250946Y-62560200D01*
X76373838Y-63192080D01*
X76563795Y-63823643D01*
X76799137Y-64398784D01*
X77058181Y-64861396D01*
X77218730Y-65064528D01*
X77570413Y-65361783D01*
X77898360Y-65469542D01*
X78229710Y-65386835D01*
X78591600Y-65112691D01*
X78692215Y-65011846D01*
X79014368Y-64577006D01*
X79317169Y-63981199D01*
X79583270Y-63266647D01*
X79795324Y-62475571D01*
X79854668Y-62182474D01*
X79930446Y-61813669D01*
X80013158Y-61582864D01*
X80140556Y-61427208D01*
X80350393Y-61283852D01*
X80418757Y-61243390D01*
X80857876Y-60922860D01*
X81238133Y-60528759D01*
X81514585Y-60114893D01*
X81634322Y-59788084D01*
X81627514Y-59440788D01*
X81453891Y-59204931D01*
X81110888Y-59078292D01*
X80786145Y-59053444D01*
X80476952Y-59036813D01*
X80246945Y-58996678D01*
X80193871Y-58974999D01*
X80125889Y-58844218D01*
X80051920Y-58564440D01*
X79985188Y-58188957D01*
X79968886Y-58068252D01*
X79898805Y-57632674D01*
X79791460Y-57182682D01*
X79636864Y-56692757D01*
X79425028Y-56137381D01*
X79145962Y-55491035D01*
X78789679Y-54728201D01*
X78346190Y-53823360D01*
X78167817Y-53467000D01*
X77647482Y-52459866D01*
X77179152Y-51622459D01*
X76744558Y-50933843D01*
X76325431Y-50373083D01*
X75903500Y-49919243D01*
X75460496Y-49551389D01*
X74978149Y-49248586D01*
X74438190Y-48989898D01*
X74164460Y-48879577D01*
X73492628Y-48569490D01*
X72748145Y-48124044D01*
X72145567Y-47706115D01*
X71978926Y-47590609D01*
X71946363Y-47602383D01*
G37*
X71946363Y-47602383D02*
X72011955Y-47735459D01*
X72254038Y-48053337D01*
X72646306Y-48411833D01*
X73148858Y-48779756D01*
X73721792Y-49125913D01*
X73931983Y-49236366D01*
X74364148Y-49471553D01*
X74765464Y-49719763D01*
X75073576Y-49941250D01*
X75167729Y-50024091D01*
X75566519Y-50532942D01*
X75908856Y-51201319D01*
X76175889Y-51989058D01*
X76263962Y-52359725D01*
X76350264Y-52902605D01*
X76409949Y-53551234D01*
X76444441Y-54276069D01*
X76455161Y-55047565D01*
X76443531Y-55836181D01*
X76410973Y-56612374D01*
X76358909Y-57346599D01*
X76288760Y-58009314D01*
X76201949Y-58570977D01*
X76099898Y-59002043D01*
X75984028Y-59272970D01*
X75928265Y-59334400D01*
X75714253Y-59418645D01*
X75414233Y-59460411D01*
X75364207Y-59461400D01*
X74917669Y-59524594D01*
X74626233Y-59699887D01*
X74491838Y-59965848D01*
X74516422Y-60301045D01*
X74701922Y-60684043D01*
X75050278Y-61093412D01*
X75204012Y-61232957D01*
X75487474Y-61451425D01*
X75746426Y-61611136D01*
X75863435Y-61659655D01*
X76002936Y-61712949D01*
X76096702Y-61817443D01*
X76163630Y-62017053D01*
X76222618Y-62355694D01*
X76250946Y-62560200D01*
X76373838Y-63192080D01*
X76563795Y-63823643D01*
X76799137Y-64398784D01*
X77058181Y-64861396D01*
X77218730Y-65064528D01*
X77570413Y-65361783D01*
X77898360Y-65469542D01*
X78229710Y-65386835D01*
X78591600Y-65112691D01*
X78692215Y-65011846D01*
X79014368Y-64577006D01*
X79317169Y-63981199D01*
X79583270Y-63266647D01*
X79795324Y-62475571D01*
X79854668Y-62182474D01*
X79930446Y-61813669D01*
X80013158Y-61582864D01*
X80140556Y-61427208D01*
X80350393Y-61283852D01*
X80418757Y-61243390D01*
X80857876Y-60922860D01*
X81238133Y-60528759D01*
X81514585Y-60114893D01*
X81634322Y-59788084D01*
X81627514Y-59440788D01*
X81453891Y-59204931D01*
X81110888Y-59078292D01*
X80786145Y-59053444D01*
X80476952Y-59036813D01*
X80246945Y-58996678D01*
X80193871Y-58974999D01*
X80125889Y-58844218D01*
X80051920Y-58564440D01*
X79985188Y-58188957D01*
X79968886Y-58068252D01*
X79898805Y-57632674D01*
X79791460Y-57182682D01*
X79636864Y-56692757D01*
X79425028Y-56137381D01*
X79145962Y-55491035D01*
X78789679Y-54728201D01*
X78346190Y-53823360D01*
X78167817Y-53467000D01*
X77647482Y-52459866D01*
X77179152Y-51622459D01*
X76744558Y-50933843D01*
X76325431Y-50373083D01*
X75903500Y-49919243D01*
X75460496Y-49551389D01*
X74978149Y-49248586D01*
X74438190Y-48989898D01*
X74164460Y-48879577D01*
X73492628Y-48569490D01*
X72748145Y-48124044D01*
X72145567Y-47706115D01*
X71978926Y-47590609D01*
X71946363Y-47602383D01*
G36*
X53238400Y-58597800D02*
G01*
X53289200Y-58648600D01*
X53340000Y-58597800D01*
X53289200Y-58547000D01*
X53238400Y-58597800D01*
G37*
X53238400Y-58597800D02*
X53289200Y-58648600D01*
X53340000Y-58597800D01*
X53289200Y-58547000D01*
X53238400Y-58597800D01*
G36*
X50962498Y-44730643D02*
G01*
X50324687Y-44735245D01*
X49844958Y-44744514D01*
X49500757Y-44759758D01*
X49269529Y-44782286D01*
X49128721Y-44813406D01*
X49055779Y-44854425D01*
X49033385Y-44888769D01*
X49045830Y-45112568D01*
X49208556Y-45349667D01*
X49478236Y-45551676D01*
X49713033Y-45647870D01*
X49972879Y-45748388D01*
X50134246Y-45862394D01*
X50150073Y-45888455D01*
X50149429Y-46043821D01*
X50102382Y-46337983D01*
X50018532Y-46714408D01*
X49992441Y-46816665D01*
X49896305Y-47240538D01*
X49831638Y-47678969D01*
X49797466Y-48167250D01*
X49792812Y-48740674D01*
X49816700Y-49434532D01*
X49868154Y-50284116D01*
X49888583Y-50571400D01*
X49979684Y-51703278D01*
X50079233Y-52657974D01*
X50195577Y-53461505D01*
X50337062Y-54139887D01*
X50512038Y-54719138D01*
X50728849Y-55225275D01*
X50995845Y-55684314D01*
X51321372Y-56122275D01*
X51713776Y-56565172D01*
X51860688Y-56718200D01*
X52219773Y-57104266D01*
X52545085Y-57486065D01*
X52796956Y-57815172D01*
X52921806Y-58013600D01*
X53089085Y-58316883D01*
X53191618Y-58435718D01*
X53235600Y-58376069D01*
X53238320Y-58318400D01*
X53178776Y-58078938D01*
X53019975Y-57732360D01*
X52791345Y-57328809D01*
X52522314Y-56918429D01*
X52242311Y-56551361D01*
X52120315Y-56413400D01*
X51704427Y-55934269D01*
X51425093Y-55503016D01*
X51258172Y-55056777D01*
X51179521Y-54532684D01*
X51164399Y-53924200D01*
X51187725Y-53296606D01*
X51255956Y-52763103D01*
X51384926Y-52216669D01*
X51449992Y-51993800D01*
X51796353Y-50983788D01*
X52234969Y-49910663D01*
X52726050Y-48865760D01*
X53176241Y-48031400D01*
X53709044Y-47117000D01*
X54108722Y-47134248D01*
X54465759Y-47164370D01*
X54798139Y-47214538D01*
X54822216Y-47219575D01*
X55149108Y-47211021D01*
X55371545Y-47035807D01*
X55469658Y-46712030D01*
X55472608Y-46627142D01*
X55411703Y-46289102D01*
X55253156Y-45868845D01*
X55030709Y-45439170D01*
X54778100Y-45072873D01*
X54722540Y-45008800D01*
X54467347Y-44729400D01*
X51780944Y-44729400D01*
X50962498Y-44730643D01*
G37*
X50962498Y-44730643D02*
X50324687Y-44735245D01*
X49844958Y-44744514D01*
X49500757Y-44759758D01*
X49269529Y-44782286D01*
X49128721Y-44813406D01*
X49055779Y-44854425D01*
X49033385Y-44888769D01*
X49045830Y-45112568D01*
X49208556Y-45349667D01*
X49478236Y-45551676D01*
X49713033Y-45647870D01*
X49972879Y-45748388D01*
X50134246Y-45862394D01*
X50150073Y-45888455D01*
X50149429Y-46043821D01*
X50102382Y-46337983D01*
X50018532Y-46714408D01*
X49992441Y-46816665D01*
X49896305Y-47240538D01*
X49831638Y-47678969D01*
X49797466Y-48167250D01*
X49792812Y-48740674D01*
X49816700Y-49434532D01*
X49868154Y-50284116D01*
X49888583Y-50571400D01*
X49979684Y-51703278D01*
X50079233Y-52657974D01*
X50195577Y-53461505D01*
X50337062Y-54139887D01*
X50512038Y-54719138D01*
X50728849Y-55225275D01*
X50995845Y-55684314D01*
X51321372Y-56122275D01*
X51713776Y-56565172D01*
X51860688Y-56718200D01*
X52219773Y-57104266D01*
X52545085Y-57486065D01*
X52796956Y-57815172D01*
X52921806Y-58013600D01*
X53089085Y-58316883D01*
X53191618Y-58435718D01*
X53235600Y-58376069D01*
X53238320Y-58318400D01*
X53178776Y-58078938D01*
X53019975Y-57732360D01*
X52791345Y-57328809D01*
X52522314Y-56918429D01*
X52242311Y-56551361D01*
X52120315Y-56413400D01*
X51704427Y-55934269D01*
X51425093Y-55503016D01*
X51258172Y-55056777D01*
X51179521Y-54532684D01*
X51164399Y-53924200D01*
X51187725Y-53296606D01*
X51255956Y-52763103D01*
X51384926Y-52216669D01*
X51449992Y-51993800D01*
X51796353Y-50983788D01*
X52234969Y-49910663D01*
X52726050Y-48865760D01*
X53176241Y-48031400D01*
X53709044Y-47117000D01*
X54108722Y-47134248D01*
X54465759Y-47164370D01*
X54798139Y-47214538D01*
X54822216Y-47219575D01*
X55149108Y-47211021D01*
X55371545Y-47035807D01*
X55469658Y-46712030D01*
X55472608Y-46627142D01*
X55411703Y-46289102D01*
X55253156Y-45868845D01*
X55030709Y-45439170D01*
X54778100Y-45072873D01*
X54722540Y-45008800D01*
X54467347Y-44729400D01*
X51780944Y-44729400D01*
X50962498Y-44730643D01*
G36*
X82036017Y-45618400D02*
G01*
X82009741Y-46606980D01*
X82082209Y-47662236D01*
X82243368Y-48726738D01*
X82483167Y-49743056D01*
X82791553Y-50653761D01*
X82997167Y-51109533D01*
X83218412Y-51506390D01*
X83498955Y-51955217D01*
X83735159Y-52298600D01*
X83943864Y-52615996D01*
X84208232Y-53064622D01*
X84498379Y-53591391D01*
X84784420Y-54143219D01*
X84864139Y-54304036D01*
X85198409Y-54958214D01*
X85487132Y-55447387D01*
X85754644Y-55797353D01*
X86025282Y-56033911D01*
X86323383Y-56182862D01*
X86673283Y-56270003D01*
X86726759Y-56278582D01*
X87122000Y-56338812D01*
X86798365Y-55995106D01*
X86569347Y-55719368D01*
X86322129Y-55371035D01*
X86087347Y-55000299D01*
X85895638Y-54657352D01*
X85777641Y-54392384D01*
X85754981Y-54285776D01*
X85818232Y-54274020D01*
X85987315Y-54400671D01*
X86238780Y-54647370D01*
X86298834Y-54711600D01*
X86561024Y-54987157D01*
X86771515Y-55192716D01*
X86892608Y-55291872D01*
X86903853Y-55295800D01*
X86960996Y-55209446D01*
X86971241Y-54997083D01*
X86941099Y-54728755D01*
X86877082Y-54474507D01*
X86815159Y-54341742D01*
X86657999Y-54161606D01*
X86393570Y-53914706D01*
X86078727Y-53654082D01*
X86074514Y-53650807D01*
X85685116Y-53307918D01*
X85376783Y-52927175D01*
X85091440Y-52442289D01*
X84888007Y-52034377D01*
X84763579Y-51704455D01*
X84694716Y-51365433D01*
X84657978Y-50930221D01*
X84651651Y-50808246D01*
X84654766Y-50099731D01*
X84740510Y-49384096D01*
X84918236Y-48616307D01*
X85197294Y-47751330D01*
X85397065Y-47218600D01*
X85591074Y-46707554D01*
X85775038Y-46199586D01*
X85925098Y-45761825D01*
X86001916Y-45516936D01*
X86154080Y-45119721D01*
X86350202Y-44898468D01*
X86629337Y-44825999D01*
X86947938Y-44858602D01*
X87232764Y-44868118D01*
X87426800Y-44826895D01*
X87385031Y-44804589D01*
X87162608Y-44784129D01*
X86782075Y-44766310D01*
X86265975Y-44751930D01*
X85636851Y-44741785D01*
X84917247Y-44736673D01*
X84870521Y-44736540D01*
X82111042Y-44729400D01*
X82036017Y-45618400D01*
G37*
X82036017Y-45618400D02*
X82009741Y-46606980D01*
X82082209Y-47662236D01*
X82243368Y-48726738D01*
X82483167Y-49743056D01*
X82791553Y-50653761D01*
X82997167Y-51109533D01*
X83218412Y-51506390D01*
X83498955Y-51955217D01*
X83735159Y-52298600D01*
X83943864Y-52615996D01*
X84208232Y-53064622D01*
X84498379Y-53591391D01*
X84784420Y-54143219D01*
X84864139Y-54304036D01*
X85198409Y-54958214D01*
X85487132Y-55447387D01*
X85754644Y-55797353D01*
X86025282Y-56033911D01*
X86323383Y-56182862D01*
X86673283Y-56270003D01*
X86726759Y-56278582D01*
X87122000Y-56338812D01*
X86798365Y-55995106D01*
X86569347Y-55719368D01*
X86322129Y-55371035D01*
X86087347Y-55000299D01*
X85895638Y-54657352D01*
X85777641Y-54392384D01*
X85754981Y-54285776D01*
X85818232Y-54274020D01*
X85987315Y-54400671D01*
X86238780Y-54647370D01*
X86298834Y-54711600D01*
X86561024Y-54987157D01*
X86771515Y-55192716D01*
X86892608Y-55291872D01*
X86903853Y-55295800D01*
X86960996Y-55209446D01*
X86971241Y-54997083D01*
X86941099Y-54728755D01*
X86877082Y-54474507D01*
X86815159Y-54341742D01*
X86657999Y-54161606D01*
X86393570Y-53914706D01*
X86078727Y-53654082D01*
X86074514Y-53650807D01*
X85685116Y-53307918D01*
X85376783Y-52927175D01*
X85091440Y-52442289D01*
X84888007Y-52034377D01*
X84763579Y-51704455D01*
X84694716Y-51365433D01*
X84657978Y-50930221D01*
X84651651Y-50808246D01*
X84654766Y-50099731D01*
X84740510Y-49384096D01*
X84918236Y-48616307D01*
X85197294Y-47751330D01*
X85397065Y-47218600D01*
X85591074Y-46707554D01*
X85775038Y-46199586D01*
X85925098Y-45761825D01*
X86001916Y-45516936D01*
X86154080Y-45119721D01*
X86350202Y-44898468D01*
X86629337Y-44825999D01*
X86947938Y-44858602D01*
X87232764Y-44868118D01*
X87426800Y-44826895D01*
X87385031Y-44804589D01*
X87162608Y-44784129D01*
X86782075Y-44766310D01*
X86265975Y-44751930D01*
X85636851Y-44741785D01*
X84917247Y-44736673D01*
X84870521Y-44736540D01*
X82111042Y-44729400D01*
X82036017Y-45618400D01*
G36*
X93587220Y-45364399D02*
G01*
X93386126Y-46004525D01*
X93189958Y-46666208D01*
X93010599Y-47305857D01*
X92859931Y-47879883D01*
X92749839Y-48344693D01*
X92694502Y-48639141D01*
X92626164Y-48957938D01*
X92504325Y-49148343D01*
X92337092Y-49259550D01*
X91926028Y-49364074D01*
X91703513Y-49347281D01*
X91259691Y-49364233D01*
X91042193Y-49449356D01*
X90833645Y-49578013D01*
X90761643Y-49721979D01*
X90785416Y-49968781D01*
X90789537Y-49991748D01*
X90980829Y-50523975D01*
X91340669Y-51032514D01*
X91835597Y-51471725D01*
X91913696Y-51525041D01*
X92194435Y-51717741D01*
X92356329Y-51875491D01*
X92440475Y-52067976D01*
X92487969Y-52364879D01*
X92506006Y-52529389D01*
X92634061Y-53321735D01*
X92832109Y-54016211D01*
X93088470Y-54586873D01*
X93391467Y-55007774D01*
X93729422Y-55252969D01*
X93732432Y-55254235D01*
X93950301Y-55346093D01*
X94086560Y-55379548D01*
X94223003Y-55349841D01*
X94441425Y-55252212D01*
X94538800Y-55207305D01*
X95018008Y-54894396D01*
X95482679Y-54417944D01*
X95905516Y-53817203D01*
X96259220Y-53131428D01*
X96516490Y-52399874D01*
X96531880Y-52341357D01*
X96641719Y-52013268D01*
X96786415Y-51823234D01*
X96954590Y-51728123D01*
X97317044Y-51511066D01*
X97694349Y-51178476D01*
X98031943Y-50789656D01*
X98275262Y-50403906D01*
X98349926Y-50211618D01*
X98414363Y-49931954D01*
X98401999Y-49768497D01*
X98297992Y-49643932D01*
X98230642Y-49590165D01*
X97927859Y-49454428D01*
X97536000Y-49403703D01*
X97233452Y-49385738D01*
X97012890Y-49345065D01*
X96967227Y-49325244D01*
X96912326Y-49197189D01*
X96856844Y-48914856D01*
X96809126Y-48526973D01*
X96789151Y-48285400D01*
X96751350Y-47779552D01*
X96700552Y-47158082D01*
X96644015Y-46507556D01*
X96599571Y-46024800D01*
X96476495Y-44729400D01*
X93793367Y-44729400D01*
X93587220Y-45364399D01*
G37*
X93587220Y-45364399D02*
X93386126Y-46004525D01*
X93189958Y-46666208D01*
X93010599Y-47305857D01*
X92859931Y-47879883D01*
X92749839Y-48344693D01*
X92694502Y-48639141D01*
X92626164Y-48957938D01*
X92504325Y-49148343D01*
X92337092Y-49259550D01*
X91926028Y-49364074D01*
X91703513Y-49347281D01*
X91259691Y-49364233D01*
X91042193Y-49449356D01*
X90833645Y-49578013D01*
X90761643Y-49721979D01*
X90785416Y-49968781D01*
X90789537Y-49991748D01*
X90980829Y-50523975D01*
X91340669Y-51032514D01*
X91835597Y-51471725D01*
X91913696Y-51525041D01*
X92194435Y-51717741D01*
X92356329Y-51875491D01*
X92440475Y-52067976D01*
X92487969Y-52364879D01*
X92506006Y-52529389D01*
X92634061Y-53321735D01*
X92832109Y-54016211D01*
X93088470Y-54586873D01*
X93391467Y-55007774D01*
X93729422Y-55252969D01*
X93732432Y-55254235D01*
X93950301Y-55346093D01*
X94086560Y-55379548D01*
X94223003Y-55349841D01*
X94441425Y-55252212D01*
X94538800Y-55207305D01*
X95018008Y-54894396D01*
X95482679Y-54417944D01*
X95905516Y-53817203D01*
X96259220Y-53131428D01*
X96516490Y-52399874D01*
X96531880Y-52341357D01*
X96641719Y-52013268D01*
X96786415Y-51823234D01*
X96954590Y-51728123D01*
X97317044Y-51511066D01*
X97694349Y-51178476D01*
X98031943Y-50789656D01*
X98275262Y-50403906D01*
X98349926Y-50211618D01*
X98414363Y-49931954D01*
X98401999Y-49768497D01*
X98297992Y-49643932D01*
X98230642Y-49590165D01*
X97927859Y-49454428D01*
X97536000Y-49403703D01*
X97233452Y-49385738D01*
X97012890Y-49345065D01*
X96967227Y-49325244D01*
X96912326Y-49197189D01*
X96856844Y-48914856D01*
X96809126Y-48526973D01*
X96789151Y-48285400D01*
X96751350Y-47779552D01*
X96700552Y-47158082D01*
X96644015Y-46507556D01*
X96599571Y-46024800D01*
X96476495Y-44729400D01*
X93793367Y-44729400D01*
X93587220Y-45364399D01*
G36*
X70014455Y-44746411D02*
G01*
X69747962Y-44819992D01*
X69474714Y-44983962D01*
X69317480Y-45101297D01*
X68768652Y-45462231D01*
X68077001Y-45822628D01*
X67301171Y-46155477D01*
X66499808Y-46433762D01*
X66294000Y-46493988D01*
X65775591Y-46646789D01*
X65167727Y-46837119D01*
X64571855Y-47032883D01*
X64344565Y-47110745D01*
X63905825Y-47253273D01*
X63527735Y-47357256D01*
X63257175Y-47410910D01*
X63151868Y-47410606D01*
X63026241Y-47280286D01*
X62911118Y-47032274D01*
X62888589Y-46957872D01*
X62719422Y-46594617D01*
X62460962Y-46344715D01*
X62164409Y-46253400D01*
X61910493Y-46345462D01*
X61641116Y-46592935D01*
X61384346Y-46952745D01*
X61168252Y-47381820D01*
X61020904Y-47837088D01*
X60980791Y-48069686D01*
X60945810Y-48276182D01*
X60875283Y-48460803D01*
X60743139Y-48660561D01*
X60523309Y-48912472D01*
X60189720Y-49253547D01*
X60047609Y-49394567D01*
X59489642Y-49987369D01*
X59089257Y-50516262D01*
X58826107Y-51015477D01*
X58679846Y-51519248D01*
X58647358Y-51750385D01*
X58653878Y-52206452D01*
X58794444Y-52536517D01*
X59089299Y-52782922D01*
X59159223Y-52821091D01*
X59519331Y-52929576D01*
X60020945Y-52974095D01*
X60613080Y-52955767D01*
X61244748Y-52875712D01*
X61759525Y-52763982D01*
X62508249Y-52566624D01*
X63067591Y-52938006D01*
X63426575Y-53155298D01*
X63736134Y-53274416D01*
X64099868Y-53329290D01*
X64300067Y-53341647D01*
X64662629Y-53346574D01*
X64949858Y-53327818D01*
X65092145Y-53292435D01*
X65252645Y-53067709D01*
X65279258Y-52735601D01*
X65170487Y-52342881D01*
X65125600Y-52247800D01*
X64985551Y-51905530D01*
X64972741Y-51628756D01*
X65103483Y-51376830D01*
X65394087Y-51109102D01*
X65658633Y-50919431D01*
X66090263Y-50609306D01*
X66613408Y-50208366D01*
X67181398Y-49754842D01*
X67747566Y-49286970D01*
X68265240Y-48842981D01*
X68687753Y-48461110D01*
X68845711Y-48308447D01*
X69413210Y-47671059D01*
X69935351Y-46952914D01*
X70379682Y-46206963D01*
X70713747Y-45486156D01*
X70869118Y-45007149D01*
X70938829Y-44729400D01*
X70369894Y-44729400D01*
X70014455Y-44746411D01*
G37*
X70014455Y-44746411D02*
X69747962Y-44819992D01*
X69474714Y-44983962D01*
X69317480Y-45101297D01*
X68768652Y-45462231D01*
X68077001Y-45822628D01*
X67301171Y-46155477D01*
X66499808Y-46433762D01*
X66294000Y-46493988D01*
X65775591Y-46646789D01*
X65167727Y-46837119D01*
X64571855Y-47032883D01*
X64344565Y-47110745D01*
X63905825Y-47253273D01*
X63527735Y-47357256D01*
X63257175Y-47410910D01*
X63151868Y-47410606D01*
X63026241Y-47280286D01*
X62911118Y-47032274D01*
X62888589Y-46957872D01*
X62719422Y-46594617D01*
X62460962Y-46344715D01*
X62164409Y-46253400D01*
X61910493Y-46345462D01*
X61641116Y-46592935D01*
X61384346Y-46952745D01*
X61168252Y-47381820D01*
X61020904Y-47837088D01*
X60980791Y-48069686D01*
X60945810Y-48276182D01*
X60875283Y-48460803D01*
X60743139Y-48660561D01*
X60523309Y-48912472D01*
X60189720Y-49253547D01*
X60047609Y-49394567D01*
X59489642Y-49987369D01*
X59089257Y-50516262D01*
X58826107Y-51015477D01*
X58679846Y-51519248D01*
X58647358Y-51750385D01*
X58653878Y-52206452D01*
X58794444Y-52536517D01*
X59089299Y-52782922D01*
X59159223Y-52821091D01*
X59519331Y-52929576D01*
X60020945Y-52974095D01*
X60613080Y-52955767D01*
X61244748Y-52875712D01*
X61759525Y-52763982D01*
X62508249Y-52566624D01*
X63067591Y-52938006D01*
X63426575Y-53155298D01*
X63736134Y-53274416D01*
X64099868Y-53329290D01*
X64300067Y-53341647D01*
X64662629Y-53346574D01*
X64949858Y-53327818D01*
X65092145Y-53292435D01*
X65252645Y-53067709D01*
X65279258Y-52735601D01*
X65170487Y-52342881D01*
X65125600Y-52247800D01*
X64985551Y-51905530D01*
X64972741Y-51628756D01*
X65103483Y-51376830D01*
X65394087Y-51109102D01*
X65658633Y-50919431D01*
X66090263Y-50609306D01*
X66613408Y-50208366D01*
X67181398Y-49754842D01*
X67747566Y-49286970D01*
X68265240Y-48842981D01*
X68687753Y-48461110D01*
X68845711Y-48308447D01*
X69413210Y-47671059D01*
X69935351Y-46952914D01*
X70379682Y-46206963D01*
X70713747Y-45486156D01*
X70869118Y-45007149D01*
X70938829Y-44729400D01*
X70369894Y-44729400D01*
X70014455Y-44746411D01*
G36*
X90360500Y-114998500D02*
G01*
X91694000Y-114998500D01*
X91694000Y-113665000D01*
X90360500Y-113665000D01*
X90360500Y-114998500D01*
G37*
X90360500Y-114998500D02*
X91694000Y-114998500D01*
X91694000Y-113665000D01*
X90360500Y-113665000D01*
X90360500Y-114998500D01*
G36*
X98361500Y-114998500D02*
G01*
X99695000Y-114998500D01*
X99695000Y-113665000D01*
X98361500Y-113665000D01*
X98361500Y-114998500D01*
G37*
X98361500Y-114998500D02*
X99695000Y-114998500D01*
X99695000Y-113665000D01*
X98361500Y-113665000D01*
X98361500Y-114998500D01*
G36*
X92211792Y-120786829D02*
G01*
X92150702Y-120842289D01*
X92138528Y-120982333D01*
X92138500Y-120999250D01*
X92148330Y-121148208D01*
X92203790Y-121209298D01*
X92343834Y-121221472D01*
X92360750Y-121221500D01*
X92509709Y-121211670D01*
X92570799Y-121156210D01*
X92582973Y-121016166D01*
X92583000Y-120999250D01*
X92573171Y-120850291D01*
X92517711Y-120789201D01*
X92377667Y-120777027D01*
X92360750Y-120777000D01*
X92211792Y-120786829D01*
G37*
X92211792Y-120786829D02*
X92150702Y-120842289D01*
X92138528Y-120982333D01*
X92138500Y-120999250D01*
X92148330Y-121148208D01*
X92203790Y-121209298D01*
X92343834Y-121221472D01*
X92360750Y-121221500D01*
X92509709Y-121211670D01*
X92570799Y-121156210D01*
X92582973Y-121016166D01*
X92583000Y-120999250D01*
X92573171Y-120850291D01*
X92517711Y-120789201D01*
X92377667Y-120777027D01*
X92360750Y-120777000D01*
X92211792Y-120786829D01*
G36*
X98361500Y-122999500D02*
G01*
X99695000Y-122999500D01*
X99695000Y-121666000D01*
X98361500Y-121666000D01*
X98361500Y-122999500D01*
G37*
X98361500Y-122999500D02*
X99695000Y-122999500D01*
X99695000Y-121666000D01*
X98361500Y-121666000D01*
X98361500Y-122999500D01*
G36*
X95694500Y-113665000D02*
G01*
X96139000Y-113665000D01*
X96139000Y-112776000D01*
X95694500Y-112776000D01*
X95694500Y-113665000D01*
G37*
X95694500Y-113665000D02*
X96139000Y-113665000D01*
X96139000Y-112776000D01*
X95694500Y-112776000D01*
X95694500Y-113665000D01*
G36*
X96656792Y-113230329D02*
G01*
X96595702Y-113285789D01*
X96583528Y-113425833D01*
X96583500Y-113442750D01*
X96593330Y-113591708D01*
X96648790Y-113652798D01*
X96788834Y-113664972D01*
X96805750Y-113665000D01*
X96954709Y-113655170D01*
X97015799Y-113599710D01*
X97027973Y-113459666D01*
X97028000Y-113442750D01*
X97018171Y-113293791D01*
X96962711Y-113232701D01*
X96822667Y-113220527D01*
X96805750Y-113220500D01*
X96656792Y-113230329D01*
G37*
X96656792Y-113230329D02*
X96595702Y-113285789D01*
X96583528Y-113425833D01*
X96583500Y-113442750D01*
X96593330Y-113591708D01*
X96648790Y-113652798D01*
X96788834Y-113664972D01*
X96805750Y-113665000D01*
X96954709Y-113655170D01*
X97015799Y-113599710D01*
X97027973Y-113459666D01*
X97028000Y-113442750D01*
X97018171Y-113293791D01*
X96962711Y-113232701D01*
X96822667Y-113220527D01*
X96805750Y-113220500D01*
X96656792Y-113230329D01*
G36*
X89471500Y-115887500D02*
G01*
X92583000Y-115887500D01*
X92583000Y-113220500D01*
X92138500Y-113220500D01*
X92138500Y-115443000D01*
X89916000Y-115443000D01*
X89916000Y-113220500D01*
X92138500Y-113220500D01*
X92583000Y-113220500D01*
X92583000Y-112776000D01*
X89471500Y-112776000D01*
X89471500Y-115887500D01*
G37*
X89471500Y-115887500D02*
X92583000Y-115887500D01*
X92583000Y-113220500D01*
X92138500Y-113220500D01*
X92138500Y-115443000D01*
X89916000Y-115443000D01*
X89916000Y-113220500D01*
X92138500Y-113220500D01*
X92583000Y-113220500D01*
X92583000Y-112776000D01*
X89471500Y-112776000D01*
X89471500Y-115887500D01*
G36*
X93027500Y-114109500D02*
G01*
X93249750Y-114109500D01*
X93398709Y-114099670D01*
X93459799Y-114044210D01*
X93471973Y-113904166D01*
X93472000Y-113887250D01*
X93481830Y-113738291D01*
X93537290Y-113677201D01*
X93677334Y-113665027D01*
X93694250Y-113665000D01*
X93843209Y-113655170D01*
X93904299Y-113599710D01*
X93916473Y-113459666D01*
X93916500Y-113442750D01*
X93926330Y-113293791D01*
X93981790Y-113232701D01*
X94121834Y-113220527D01*
X94138750Y-113220500D01*
X94287709Y-113230329D01*
X94348799Y-113285789D01*
X94360973Y-113425833D01*
X94361000Y-113442750D01*
X94370830Y-113591708D01*
X94426290Y-113652798D01*
X94566334Y-113664972D01*
X94583250Y-113665000D01*
X94732209Y-113674829D01*
X94793299Y-113730289D01*
X94805473Y-113870333D01*
X94805500Y-113887250D01*
X94805500Y-114109500D01*
X93916500Y-114109500D01*
X93916500Y-114998500D01*
X93694250Y-114998500D01*
X93545292Y-114988670D01*
X93484202Y-114933210D01*
X93472028Y-114793166D01*
X93472000Y-114776250D01*
X93462171Y-114627291D01*
X93406711Y-114566201D01*
X93266667Y-114554027D01*
X93249750Y-114554000D01*
X93027500Y-114554000D01*
X93027500Y-115887500D01*
X93249750Y-115887500D01*
X93398709Y-115877670D01*
X93459799Y-115822210D01*
X93471973Y-115682166D01*
X93472000Y-115665250D01*
X93481830Y-115516291D01*
X93537290Y-115455201D01*
X93677334Y-115443027D01*
X93694250Y-115443000D01*
X93843209Y-115452829D01*
X93904299Y-115508289D01*
X93916473Y-115648333D01*
X93916500Y-115665250D01*
X93926330Y-115814208D01*
X93981790Y-115875298D01*
X94121834Y-115887472D01*
X94138750Y-115887500D01*
X94287709Y-115877670D01*
X94348799Y-115822210D01*
X94360973Y-115682166D01*
X94361000Y-115665250D01*
X94351171Y-115516291D01*
X94295711Y-115455201D01*
X94155667Y-115443027D01*
X94138750Y-115443000D01*
X93989792Y-115433170D01*
X93928702Y-115377710D01*
X93916528Y-115237666D01*
X93916500Y-115220750D01*
X93926330Y-115071791D01*
X93981790Y-115010701D01*
X94121834Y-114998527D01*
X94138750Y-114998500D01*
X94287709Y-114988670D01*
X94348799Y-114933210D01*
X94360973Y-114793166D01*
X94361000Y-114776250D01*
X94361000Y-114554000D01*
X95250000Y-114554000D01*
X95250000Y-113665000D01*
X95027750Y-113665000D01*
X94878792Y-113655170D01*
X94817702Y-113599710D01*
X94805528Y-113459666D01*
X94805500Y-113442750D01*
X94815330Y-113293791D01*
X94870790Y-113232701D01*
X95010834Y-113220527D01*
X95027750Y-113220500D01*
X95176709Y-113210670D01*
X95237799Y-113155210D01*
X95249973Y-113015166D01*
X95250000Y-112998250D01*
X95240171Y-112849291D01*
X95184711Y-112788201D01*
X95044667Y-112776027D01*
X95027750Y-112776000D01*
X94878792Y-112785829D01*
X94817702Y-112841289D01*
X94805528Y-112981333D01*
X94805500Y-112998250D01*
X94795671Y-113147208D01*
X94740211Y-113208298D01*
X94600167Y-113220472D01*
X94583250Y-113220500D01*
X94434292Y-113210670D01*
X94373202Y-113155210D01*
X94361028Y-113015166D01*
X94361000Y-112998250D01*
X94351171Y-112849291D01*
X94295711Y-112788201D01*
X94155667Y-112776027D01*
X94138750Y-112776000D01*
X93989792Y-112785829D01*
X93928702Y-112841289D01*
X93916528Y-112981333D01*
X93916500Y-112998250D01*
X93906671Y-113147208D01*
X93851211Y-113208298D01*
X93711167Y-113220472D01*
X93694250Y-113220500D01*
X93545292Y-113210670D01*
X93484202Y-113155210D01*
X93472028Y-113015166D01*
X93472000Y-112998250D01*
X93462171Y-112849291D01*
X93406711Y-112788201D01*
X93266667Y-112776027D01*
X93249750Y-112776000D01*
X93027500Y-112776000D01*
X93027500Y-114109500D01*
G37*
X93027500Y-114109500D02*
X93249750Y-114109500D01*
X93398709Y-114099670D01*
X93459799Y-114044210D01*
X93471973Y-113904166D01*
X93472000Y-113887250D01*
X93481830Y-113738291D01*
X93537290Y-113677201D01*
X93677334Y-113665027D01*
X93694250Y-113665000D01*
X93843209Y-113655170D01*
X93904299Y-113599710D01*
X93916473Y-113459666D01*
X93916500Y-113442750D01*
X93926330Y-113293791D01*
X93981790Y-113232701D01*
X94121834Y-113220527D01*
X94138750Y-113220500D01*
X94287709Y-113230329D01*
X94348799Y-113285789D01*
X94360973Y-113425833D01*
X94361000Y-113442750D01*
X94370830Y-113591708D01*
X94426290Y-113652798D01*
X94566334Y-113664972D01*
X94583250Y-113665000D01*
X94732209Y-113674829D01*
X94793299Y-113730289D01*
X94805473Y-113870333D01*
X94805500Y-113887250D01*
X94805500Y-114109500D01*
X93916500Y-114109500D01*
X93916500Y-114998500D01*
X93694250Y-114998500D01*
X93545292Y-114988670D01*
X93484202Y-114933210D01*
X93472028Y-114793166D01*
X93472000Y-114776250D01*
X93462171Y-114627291D01*
X93406711Y-114566201D01*
X93266667Y-114554027D01*
X93249750Y-114554000D01*
X93027500Y-114554000D01*
X93027500Y-115887500D01*
X93249750Y-115887500D01*
X93398709Y-115877670D01*
X93459799Y-115822210D01*
X93471973Y-115682166D01*
X93472000Y-115665250D01*
X93481830Y-115516291D01*
X93537290Y-115455201D01*
X93677334Y-115443027D01*
X93694250Y-115443000D01*
X93843209Y-115452829D01*
X93904299Y-115508289D01*
X93916473Y-115648333D01*
X93916500Y-115665250D01*
X93926330Y-115814208D01*
X93981790Y-115875298D01*
X94121834Y-115887472D01*
X94138750Y-115887500D01*
X94287709Y-115877670D01*
X94348799Y-115822210D01*
X94360973Y-115682166D01*
X94361000Y-115665250D01*
X94351171Y-115516291D01*
X94295711Y-115455201D01*
X94155667Y-115443027D01*
X94138750Y-115443000D01*
X93989792Y-115433170D01*
X93928702Y-115377710D01*
X93916528Y-115237666D01*
X93916500Y-115220750D01*
X93926330Y-115071791D01*
X93981790Y-115010701D01*
X94121834Y-114998527D01*
X94138750Y-114998500D01*
X94287709Y-114988670D01*
X94348799Y-114933210D01*
X94360973Y-114793166D01*
X94361000Y-114776250D01*
X94361000Y-114554000D01*
X95250000Y-114554000D01*
X95250000Y-113665000D01*
X95027750Y-113665000D01*
X94878792Y-113655170D01*
X94817702Y-113599710D01*
X94805528Y-113459666D01*
X94805500Y-113442750D01*
X94815330Y-113293791D01*
X94870790Y-113232701D01*
X95010834Y-113220527D01*
X95027750Y-113220500D01*
X95176709Y-113210670D01*
X95237799Y-113155210D01*
X95249973Y-113015166D01*
X95250000Y-112998250D01*
X95240171Y-112849291D01*
X95184711Y-112788201D01*
X95044667Y-112776027D01*
X95027750Y-112776000D01*
X94878792Y-112785829D01*
X94817702Y-112841289D01*
X94805528Y-112981333D01*
X94805500Y-112998250D01*
X94795671Y-113147208D01*
X94740211Y-113208298D01*
X94600167Y-113220472D01*
X94583250Y-113220500D01*
X94434292Y-113210670D01*
X94373202Y-113155210D01*
X94361028Y-113015166D01*
X94361000Y-112998250D01*
X94351171Y-112849291D01*
X94295711Y-112788201D01*
X94155667Y-112776027D01*
X94138750Y-112776000D01*
X93989792Y-112785829D01*
X93928702Y-112841289D01*
X93916528Y-112981333D01*
X93916500Y-112998250D01*
X93906671Y-113147208D01*
X93851211Y-113208298D01*
X93711167Y-113220472D01*
X93694250Y-113220500D01*
X93545292Y-113210670D01*
X93484202Y-113155210D01*
X93472028Y-113015166D01*
X93472000Y-112998250D01*
X93462171Y-112849291D01*
X93406711Y-112788201D01*
X93266667Y-112776027D01*
X93249750Y-112776000D01*
X93027500Y-112776000D01*
X93027500Y-114109500D01*
G36*
X97472500Y-115887500D02*
G01*
X100584000Y-115887500D01*
X100584000Y-113220500D01*
X100139500Y-113220500D01*
X100139500Y-115443000D01*
X97917000Y-115443000D01*
X97917000Y-113220500D01*
X100139500Y-113220500D01*
X100584000Y-113220500D01*
X100584000Y-112776000D01*
X97472500Y-112776000D01*
X97472500Y-115887500D01*
G37*
X97472500Y-115887500D02*
X100584000Y-115887500D01*
X100584000Y-113220500D01*
X100139500Y-113220500D01*
X100139500Y-115443000D01*
X97917000Y-115443000D01*
X97917000Y-113220500D01*
X100139500Y-113220500D01*
X100584000Y-113220500D01*
X100584000Y-112776000D01*
X97472500Y-112776000D01*
X97472500Y-115887500D01*
G36*
X90878292Y-116341829D02*
G01*
X90817202Y-116397289D01*
X90805028Y-116537333D01*
X90805000Y-116554250D01*
X90814830Y-116703208D01*
X90870290Y-116764298D01*
X91010334Y-116776472D01*
X91027250Y-116776500D01*
X91176209Y-116766670D01*
X91237299Y-116711210D01*
X91249473Y-116571166D01*
X91249500Y-116554250D01*
X91239671Y-116405291D01*
X91184211Y-116344201D01*
X91044167Y-116332027D01*
X91027250Y-116332000D01*
X90878292Y-116341829D01*
G37*
X90878292Y-116341829D02*
X90817202Y-116397289D01*
X90805028Y-116537333D01*
X90805000Y-116554250D01*
X90814830Y-116703208D01*
X90870290Y-116764298D01*
X91010334Y-116776472D01*
X91027250Y-116776500D01*
X91176209Y-116766670D01*
X91237299Y-116711210D01*
X91249473Y-116571166D01*
X91249500Y-116554250D01*
X91239671Y-116405291D01*
X91184211Y-116344201D01*
X91044167Y-116332027D01*
X91027250Y-116332000D01*
X90878292Y-116341829D01*
G36*
X100212792Y-117675329D02*
G01*
X100151702Y-117730789D01*
X100139528Y-117870833D01*
X100139500Y-117887750D01*
X100129671Y-118036708D01*
X100074211Y-118097798D01*
X99934167Y-118109972D01*
X99917250Y-118110000D01*
X99768292Y-118119829D01*
X99707202Y-118175289D01*
X99695028Y-118315333D01*
X99695000Y-118332250D01*
X99704830Y-118481208D01*
X99760290Y-118542298D01*
X99900334Y-118554472D01*
X99917250Y-118554500D01*
X100139500Y-118554500D01*
X100139500Y-120332500D01*
X100584000Y-120332500D01*
X100584000Y-117665500D01*
X100361750Y-117665500D01*
X100212792Y-117675329D01*
G37*
X100212792Y-117675329D02*
X100151702Y-117730789D01*
X100139528Y-117870833D01*
X100139500Y-117887750D01*
X100129671Y-118036708D01*
X100074211Y-118097798D01*
X99934167Y-118109972D01*
X99917250Y-118110000D01*
X99768292Y-118119829D01*
X99707202Y-118175289D01*
X99695028Y-118315333D01*
X99695000Y-118332250D01*
X99704830Y-118481208D01*
X99760290Y-118542298D01*
X99900334Y-118554472D01*
X99917250Y-118554500D01*
X100139500Y-118554500D01*
X100139500Y-120332500D01*
X100584000Y-120332500D01*
X100584000Y-117665500D01*
X100361750Y-117665500D01*
X100212792Y-117675329D01*
G36*
X93472000Y-118110000D02*
G01*
X93694250Y-118110000D01*
X93843209Y-118119829D01*
X93904299Y-118175289D01*
X93916473Y-118315333D01*
X93916500Y-118332250D01*
X93916500Y-118554500D01*
X95250000Y-118554500D01*
X95250000Y-117665500D01*
X95027750Y-117665500D01*
X94805500Y-117665500D01*
X94805500Y-118110000D01*
X93916500Y-118110000D01*
X93916500Y-117665500D01*
X94805500Y-117665500D01*
X95027750Y-117665500D01*
X94878792Y-117655670D01*
X94817702Y-117600210D01*
X94805528Y-117460166D01*
X94805500Y-117443250D01*
X94815330Y-117294291D01*
X94870790Y-117233201D01*
X95010834Y-117221027D01*
X95027750Y-117221000D01*
X95176709Y-117211170D01*
X95237799Y-117155710D01*
X95249973Y-117015666D01*
X95250000Y-116998750D01*
X95259830Y-116849791D01*
X95315290Y-116788701D01*
X95455334Y-116776527D01*
X95472250Y-116776500D01*
X95694500Y-116776500D01*
X95694500Y-117665500D01*
X96139000Y-117665500D01*
X96139000Y-116776500D01*
X97028000Y-116776500D01*
X97028000Y-116998750D01*
X97037830Y-117147708D01*
X97093290Y-117208798D01*
X97233334Y-117220972D01*
X97250250Y-117221000D01*
X97399209Y-117230829D01*
X97460299Y-117286289D01*
X97472473Y-117426333D01*
X97472500Y-117443250D01*
X97482330Y-117592208D01*
X97537790Y-117653298D01*
X97677834Y-117665472D01*
X97694750Y-117665500D01*
X97843709Y-117675329D01*
X97904799Y-117730789D01*
X97916973Y-117870833D01*
X97917000Y-117887750D01*
X97917000Y-118110000D01*
X97028000Y-118110000D01*
X97028000Y-117887750D01*
X97018171Y-117738791D01*
X96962711Y-117677701D01*
X96822667Y-117665527D01*
X96805750Y-117665500D01*
X96656792Y-117675329D01*
X96595702Y-117730789D01*
X96583528Y-117870833D01*
X96583500Y-117887750D01*
X96583500Y-118110000D01*
X95694500Y-118110000D01*
X95694500Y-118332250D01*
X95704330Y-118481208D01*
X95759790Y-118542298D01*
X95899834Y-118554472D01*
X95916750Y-118554500D01*
X96139000Y-118554500D01*
X96139000Y-119443500D01*
X96361250Y-119443500D01*
X96510209Y-119453329D01*
X96571299Y-119508789D01*
X96583473Y-119648833D01*
X96583500Y-119665750D01*
X96593330Y-119814708D01*
X96648790Y-119875798D01*
X96788834Y-119887972D01*
X96805750Y-119888000D01*
X96954709Y-119878170D01*
X97015799Y-119822710D01*
X97027973Y-119682666D01*
X97028000Y-119665750D01*
X97028000Y-119443500D01*
X97917000Y-119443500D01*
X97917000Y-119665750D01*
X97907171Y-119814708D01*
X97851711Y-119875798D01*
X97711667Y-119887972D01*
X97694750Y-119888000D01*
X97545792Y-119897829D01*
X97484702Y-119953289D01*
X97472528Y-120093333D01*
X97472500Y-120110250D01*
X97482330Y-120259208D01*
X97537790Y-120320298D01*
X97677834Y-120332472D01*
X97694750Y-120332500D01*
X97843709Y-120322670D01*
X97904799Y-120267210D01*
X97916973Y-120127166D01*
X97917000Y-120110250D01*
X97926830Y-119961291D01*
X97982290Y-119900201D01*
X98122334Y-119888027D01*
X98139250Y-119888000D01*
X98288209Y-119897829D01*
X98349299Y-119953289D01*
X98361473Y-120093333D01*
X98361500Y-120110250D01*
X98371330Y-120259208D01*
X98426790Y-120320298D01*
X98566834Y-120332472D01*
X98583750Y-120332500D01*
X98732709Y-120322670D01*
X98793799Y-120267210D01*
X98805973Y-120127166D01*
X98806000Y-120110250D01*
X98806000Y-119888000D01*
X99695000Y-119888000D01*
X99695000Y-119443500D01*
X98806000Y-119443500D01*
X98806000Y-118554500D01*
X99250500Y-118554500D01*
X99250500Y-118332250D01*
X98806000Y-118332250D01*
X98796171Y-118481208D01*
X98740711Y-118542298D01*
X98600667Y-118554472D01*
X98583750Y-118554500D01*
X98434792Y-118564329D01*
X98373702Y-118619789D01*
X98361528Y-118759833D01*
X98361500Y-118776750D01*
X98361500Y-118999000D01*
X97472500Y-118999000D01*
X97472500Y-118554500D01*
X98361500Y-118554500D01*
X98361500Y-118332250D01*
X98371330Y-118183291D01*
X98426790Y-118122201D01*
X98566834Y-118110027D01*
X98583750Y-118110000D01*
X98732709Y-118119829D01*
X98793799Y-118175289D01*
X98805973Y-118315333D01*
X98806000Y-118332250D01*
X99250500Y-118332250D01*
X99250500Y-117665500D01*
X99472750Y-117665500D01*
X99621709Y-117655670D01*
X99682799Y-117600210D01*
X99694973Y-117460166D01*
X99695000Y-117443250D01*
X99695000Y-117221000D01*
X100584000Y-117221000D01*
X100584000Y-116998750D01*
X99695000Y-116998750D01*
X99685171Y-117147708D01*
X99629711Y-117208798D01*
X99489667Y-117220972D01*
X99472750Y-117221000D01*
X99323792Y-117230829D01*
X99262702Y-117286289D01*
X99250528Y-117426333D01*
X99250500Y-117443250D01*
X99250500Y-117665500D01*
X98361500Y-117665500D01*
X98361500Y-116998750D01*
X97917000Y-116998750D01*
X97907171Y-117147708D01*
X97851711Y-117208798D01*
X97711667Y-117220972D01*
X97694750Y-117221000D01*
X97545792Y-117211170D01*
X97484702Y-117155710D01*
X97472528Y-117015666D01*
X97472500Y-116998750D01*
X97482330Y-116849791D01*
X97537790Y-116788701D01*
X97677834Y-116776527D01*
X97694750Y-116776500D01*
X97843709Y-116786329D01*
X97904799Y-116841789D01*
X97916973Y-116981833D01*
X97917000Y-116998750D01*
X98361500Y-116998750D01*
X98361500Y-116776500D01*
X98583750Y-116776500D01*
X98732709Y-116786329D01*
X98793799Y-116841789D01*
X98805973Y-116981833D01*
X98806000Y-116998750D01*
X98815830Y-117147708D01*
X98871290Y-117208798D01*
X99011334Y-117220972D01*
X99028250Y-117221000D01*
X99177209Y-117211170D01*
X99238299Y-117155710D01*
X99250473Y-117015666D01*
X99250500Y-116998750D01*
X99260330Y-116849791D01*
X99315790Y-116788701D01*
X99455834Y-116776527D01*
X99472750Y-116776500D01*
X99621709Y-116786329D01*
X99682799Y-116841789D01*
X99694973Y-116981833D01*
X99695000Y-116998750D01*
X100584000Y-116998750D01*
X100584000Y-116332000D01*
X98361500Y-116332000D01*
X98361500Y-116554250D01*
X98351671Y-116703208D01*
X98296211Y-116764298D01*
X98156167Y-116776472D01*
X98139250Y-116776500D01*
X97990292Y-116766670D01*
X97929202Y-116711210D01*
X97917028Y-116571166D01*
X97917000Y-116554250D01*
X96139000Y-116554250D01*
X96129171Y-116703208D01*
X96073711Y-116764298D01*
X95933667Y-116776472D01*
X95916750Y-116776500D01*
X95767792Y-116766670D01*
X95706702Y-116711210D01*
X95694528Y-116571166D01*
X95694500Y-116554250D01*
X95704330Y-116405291D01*
X95759790Y-116344201D01*
X95899834Y-116332027D01*
X95916750Y-116332000D01*
X96065709Y-116341829D01*
X96126799Y-116397289D01*
X96138973Y-116537333D01*
X96139000Y-116554250D01*
X97917000Y-116554250D01*
X97917000Y-116332000D01*
X96583500Y-116332000D01*
X96583500Y-116109750D01*
X96593330Y-115960791D01*
X96648790Y-115899701D01*
X96788834Y-115887527D01*
X96805750Y-115887500D01*
X97028000Y-115887500D01*
X97028000Y-115665250D01*
X96583500Y-115665250D01*
X96573671Y-115814208D01*
X96518211Y-115875298D01*
X96378167Y-115887472D01*
X96361250Y-115887500D01*
X96212292Y-115877670D01*
X96151202Y-115822210D01*
X96139028Y-115682166D01*
X96139000Y-115665250D01*
X95694500Y-115665250D01*
X95684671Y-115814208D01*
X95629211Y-115875298D01*
X95489167Y-115887472D01*
X95472250Y-115887500D01*
X95323292Y-115877670D01*
X95262202Y-115822210D01*
X95250028Y-115682166D01*
X95250000Y-115665250D01*
X95259830Y-115516291D01*
X95315290Y-115455201D01*
X95455334Y-115443027D01*
X95472250Y-115443000D01*
X95621209Y-115452829D01*
X95682299Y-115508289D01*
X95694473Y-115648333D01*
X95694500Y-115665250D01*
X96139000Y-115665250D01*
X96148830Y-115516291D01*
X96204290Y-115455201D01*
X96344334Y-115443027D01*
X96361250Y-115443000D01*
X96510209Y-115452829D01*
X96571299Y-115508289D01*
X96583473Y-115648333D01*
X96583500Y-115665250D01*
X97028000Y-115665250D01*
X97028000Y-114998500D01*
X96805750Y-114998500D01*
X96656792Y-114988670D01*
X96595702Y-114933210D01*
X96583528Y-114793166D01*
X96583500Y-114776250D01*
X96593330Y-114627291D01*
X96648790Y-114566201D01*
X96788834Y-114554027D01*
X96805750Y-114554000D01*
X96954709Y-114544170D01*
X97015799Y-114488710D01*
X97027973Y-114348666D01*
X97028000Y-114331750D01*
X97028000Y-114109500D01*
X95694500Y-114109500D01*
X95694500Y-114331750D01*
X95704330Y-114480708D01*
X95759790Y-114541798D01*
X95899834Y-114553972D01*
X95916750Y-114554000D01*
X96139000Y-114554000D01*
X96139000Y-115443000D01*
X95916750Y-115443000D01*
X95767792Y-115433170D01*
X95706702Y-115377710D01*
X95694528Y-115237666D01*
X95694500Y-115220750D01*
X95694500Y-114998500D01*
X94805500Y-114998500D01*
X94805500Y-115887500D01*
X95250000Y-115887500D01*
X95250000Y-116776500D01*
X95027750Y-116776500D01*
X94878792Y-116766670D01*
X94817702Y-116711210D01*
X94805528Y-116571166D01*
X94805500Y-116554250D01*
X94795671Y-116405291D01*
X94740211Y-116344201D01*
X94600167Y-116332027D01*
X94583250Y-116332000D01*
X94361000Y-116332000D01*
X94361000Y-117221000D01*
X93472000Y-117221000D01*
X93472000Y-118110000D01*
G37*
X93472000Y-118110000D02*
X93694250Y-118110000D01*
X93843209Y-118119829D01*
X93904299Y-118175289D01*
X93916473Y-118315333D01*
X93916500Y-118332250D01*
X93916500Y-118554500D01*
X95250000Y-118554500D01*
X95250000Y-117665500D01*
X95027750Y-117665500D01*
X94805500Y-117665500D01*
X94805500Y-118110000D01*
X93916500Y-118110000D01*
X93916500Y-117665500D01*
X94805500Y-117665500D01*
X95027750Y-117665500D01*
X94878792Y-117655670D01*
X94817702Y-117600210D01*
X94805528Y-117460166D01*
X94805500Y-117443250D01*
X94815330Y-117294291D01*
X94870790Y-117233201D01*
X95010834Y-117221027D01*
X95027750Y-117221000D01*
X95176709Y-117211170D01*
X95237799Y-117155710D01*
X95249973Y-117015666D01*
X95250000Y-116998750D01*
X95259830Y-116849791D01*
X95315290Y-116788701D01*
X95455334Y-116776527D01*
X95472250Y-116776500D01*
X95694500Y-116776500D01*
X95694500Y-117665500D01*
X96139000Y-117665500D01*
X96139000Y-116776500D01*
X97028000Y-116776500D01*
X97028000Y-116998750D01*
X97037830Y-117147708D01*
X97093290Y-117208798D01*
X97233334Y-117220972D01*
X97250250Y-117221000D01*
X97399209Y-117230829D01*
X97460299Y-117286289D01*
X97472473Y-117426333D01*
X97472500Y-117443250D01*
X97482330Y-117592208D01*
X97537790Y-117653298D01*
X97677834Y-117665472D01*
X97694750Y-117665500D01*
X97843709Y-117675329D01*
X97904799Y-117730789D01*
X97916973Y-117870833D01*
X97917000Y-117887750D01*
X97917000Y-118110000D01*
X97028000Y-118110000D01*
X97028000Y-117887750D01*
X97018171Y-117738791D01*
X96962711Y-117677701D01*
X96822667Y-117665527D01*
X96805750Y-117665500D01*
X96656792Y-117675329D01*
X96595702Y-117730789D01*
X96583528Y-117870833D01*
X96583500Y-117887750D01*
X96583500Y-118110000D01*
X95694500Y-118110000D01*
X95694500Y-118332250D01*
X95704330Y-118481208D01*
X95759790Y-118542298D01*
X95899834Y-118554472D01*
X95916750Y-118554500D01*
X96139000Y-118554500D01*
X96139000Y-119443500D01*
X96361250Y-119443500D01*
X96510209Y-119453329D01*
X96571299Y-119508789D01*
X96583473Y-119648833D01*
X96583500Y-119665750D01*
X96593330Y-119814708D01*
X96648790Y-119875798D01*
X96788834Y-119887972D01*
X96805750Y-119888000D01*
X96954709Y-119878170D01*
X97015799Y-119822710D01*
X97027973Y-119682666D01*
X97028000Y-119665750D01*
X97028000Y-119443500D01*
X97917000Y-119443500D01*
X97917000Y-119665750D01*
X97907171Y-119814708D01*
X97851711Y-119875798D01*
X97711667Y-119887972D01*
X97694750Y-119888000D01*
X97545792Y-119897829D01*
X97484702Y-119953289D01*
X97472528Y-120093333D01*
X97472500Y-120110250D01*
X97482330Y-120259208D01*
X97537790Y-120320298D01*
X97677834Y-120332472D01*
X97694750Y-120332500D01*
X97843709Y-120322670D01*
X97904799Y-120267210D01*
X97916973Y-120127166D01*
X97917000Y-120110250D01*
X97926830Y-119961291D01*
X97982290Y-119900201D01*
X98122334Y-119888027D01*
X98139250Y-119888000D01*
X98288209Y-119897829D01*
X98349299Y-119953289D01*
X98361473Y-120093333D01*
X98361500Y-120110250D01*
X98371330Y-120259208D01*
X98426790Y-120320298D01*
X98566834Y-120332472D01*
X98583750Y-120332500D01*
X98732709Y-120322670D01*
X98793799Y-120267210D01*
X98805973Y-120127166D01*
X98806000Y-120110250D01*
X98806000Y-119888000D01*
X99695000Y-119888000D01*
X99695000Y-119443500D01*
X98806000Y-119443500D01*
X98806000Y-118554500D01*
X99250500Y-118554500D01*
X99250500Y-118332250D01*
X98806000Y-118332250D01*
X98796171Y-118481208D01*
X98740711Y-118542298D01*
X98600667Y-118554472D01*
X98583750Y-118554500D01*
X98434792Y-118564329D01*
X98373702Y-118619789D01*
X98361528Y-118759833D01*
X98361500Y-118776750D01*
X98361500Y-118999000D01*
X97472500Y-118999000D01*
X97472500Y-118554500D01*
X98361500Y-118554500D01*
X98361500Y-118332250D01*
X98371330Y-118183291D01*
X98426790Y-118122201D01*
X98566834Y-118110027D01*
X98583750Y-118110000D01*
X98732709Y-118119829D01*
X98793799Y-118175289D01*
X98805973Y-118315333D01*
X98806000Y-118332250D01*
X99250500Y-118332250D01*
X99250500Y-117665500D01*
X99472750Y-117665500D01*
X99621709Y-117655670D01*
X99682799Y-117600210D01*
X99694973Y-117460166D01*
X99695000Y-117443250D01*
X99695000Y-117221000D01*
X100584000Y-117221000D01*
X100584000Y-116998750D01*
X99695000Y-116998750D01*
X99685171Y-117147708D01*
X99629711Y-117208798D01*
X99489667Y-117220972D01*
X99472750Y-117221000D01*
X99323792Y-117230829D01*
X99262702Y-117286289D01*
X99250528Y-117426333D01*
X99250500Y-117443250D01*
X99250500Y-117665500D01*
X98361500Y-117665500D01*
X98361500Y-116998750D01*
X97917000Y-116998750D01*
X97907171Y-117147708D01*
X97851711Y-117208798D01*
X97711667Y-117220972D01*
X97694750Y-117221000D01*
X97545792Y-117211170D01*
X97484702Y-117155710D01*
X97472528Y-117015666D01*
X97472500Y-116998750D01*
X97482330Y-116849791D01*
X97537790Y-116788701D01*
X97677834Y-116776527D01*
X97694750Y-116776500D01*
X97843709Y-116786329D01*
X97904799Y-116841789D01*
X97916973Y-116981833D01*
X97917000Y-116998750D01*
X98361500Y-116998750D01*
X98361500Y-116776500D01*
X98583750Y-116776500D01*
X98732709Y-116786329D01*
X98793799Y-116841789D01*
X98805973Y-116981833D01*
X98806000Y-116998750D01*
X98815830Y-117147708D01*
X98871290Y-117208798D01*
X99011334Y-117220972D01*
X99028250Y-117221000D01*
X99177209Y-117211170D01*
X99238299Y-117155710D01*
X99250473Y-117015666D01*
X99250500Y-116998750D01*
X99260330Y-116849791D01*
X99315790Y-116788701D01*
X99455834Y-116776527D01*
X99472750Y-116776500D01*
X99621709Y-116786329D01*
X99682799Y-116841789D01*
X99694973Y-116981833D01*
X99695000Y-116998750D01*
X100584000Y-116998750D01*
X100584000Y-116332000D01*
X98361500Y-116332000D01*
X98361500Y-116554250D01*
X98351671Y-116703208D01*
X98296211Y-116764298D01*
X98156167Y-116776472D01*
X98139250Y-116776500D01*
X97990292Y-116766670D01*
X97929202Y-116711210D01*
X97917028Y-116571166D01*
X97917000Y-116554250D01*
X96139000Y-116554250D01*
X96129171Y-116703208D01*
X96073711Y-116764298D01*
X95933667Y-116776472D01*
X95916750Y-116776500D01*
X95767792Y-116766670D01*
X95706702Y-116711210D01*
X95694528Y-116571166D01*
X95694500Y-116554250D01*
X95704330Y-116405291D01*
X95759790Y-116344201D01*
X95899834Y-116332027D01*
X95916750Y-116332000D01*
X96065709Y-116341829D01*
X96126799Y-116397289D01*
X96138973Y-116537333D01*
X96139000Y-116554250D01*
X97917000Y-116554250D01*
X97917000Y-116332000D01*
X96583500Y-116332000D01*
X96583500Y-116109750D01*
X96593330Y-115960791D01*
X96648790Y-115899701D01*
X96788834Y-115887527D01*
X96805750Y-115887500D01*
X97028000Y-115887500D01*
X97028000Y-115665250D01*
X96583500Y-115665250D01*
X96573671Y-115814208D01*
X96518211Y-115875298D01*
X96378167Y-115887472D01*
X96361250Y-115887500D01*
X96212292Y-115877670D01*
X96151202Y-115822210D01*
X96139028Y-115682166D01*
X96139000Y-115665250D01*
X95694500Y-115665250D01*
X95684671Y-115814208D01*
X95629211Y-115875298D01*
X95489167Y-115887472D01*
X95472250Y-115887500D01*
X95323292Y-115877670D01*
X95262202Y-115822210D01*
X95250028Y-115682166D01*
X95250000Y-115665250D01*
X95259830Y-115516291D01*
X95315290Y-115455201D01*
X95455334Y-115443027D01*
X95472250Y-115443000D01*
X95621209Y-115452829D01*
X95682299Y-115508289D01*
X95694473Y-115648333D01*
X95694500Y-115665250D01*
X96139000Y-115665250D01*
X96148830Y-115516291D01*
X96204290Y-115455201D01*
X96344334Y-115443027D01*
X96361250Y-115443000D01*
X96510209Y-115452829D01*
X96571299Y-115508289D01*
X96583473Y-115648333D01*
X96583500Y-115665250D01*
X97028000Y-115665250D01*
X97028000Y-114998500D01*
X96805750Y-114998500D01*
X96656792Y-114988670D01*
X96595702Y-114933210D01*
X96583528Y-114793166D01*
X96583500Y-114776250D01*
X96593330Y-114627291D01*
X96648790Y-114566201D01*
X96788834Y-114554027D01*
X96805750Y-114554000D01*
X96954709Y-114544170D01*
X97015799Y-114488710D01*
X97027973Y-114348666D01*
X97028000Y-114331750D01*
X97028000Y-114109500D01*
X95694500Y-114109500D01*
X95694500Y-114331750D01*
X95704330Y-114480708D01*
X95759790Y-114541798D01*
X95899834Y-114553972D01*
X95916750Y-114554000D01*
X96139000Y-114554000D01*
X96139000Y-115443000D01*
X95916750Y-115443000D01*
X95767792Y-115433170D01*
X95706702Y-115377710D01*
X95694528Y-115237666D01*
X95694500Y-115220750D01*
X95694500Y-114998500D01*
X94805500Y-114998500D01*
X94805500Y-115887500D01*
X95250000Y-115887500D01*
X95250000Y-116776500D01*
X95027750Y-116776500D01*
X94878792Y-116766670D01*
X94817702Y-116711210D01*
X94805528Y-116571166D01*
X94805500Y-116554250D01*
X94795671Y-116405291D01*
X94740211Y-116344201D01*
X94600167Y-116332027D01*
X94583250Y-116332000D01*
X94361000Y-116332000D01*
X94361000Y-117221000D01*
X93472000Y-117221000D01*
X93472000Y-118110000D01*
G36*
X93472000Y-122999500D02*
G01*
X92583000Y-122999500D01*
X92583000Y-123444000D01*
X94361000Y-123444000D01*
X94361000Y-122555000D01*
X93472000Y-122555000D01*
X93472000Y-122999500D01*
G37*
X93472000Y-122999500D02*
X92583000Y-122999500D01*
X92583000Y-123444000D01*
X94361000Y-123444000D01*
X94361000Y-122555000D01*
X93472000Y-122555000D01*
X93472000Y-122999500D01*
G36*
X93472000Y-116998750D02*
G01*
X93481830Y-116849791D01*
X93537290Y-116788701D01*
X93677334Y-116776527D01*
X93694250Y-116776500D01*
X93843209Y-116766670D01*
X93904299Y-116711210D01*
X93916473Y-116571166D01*
X93916500Y-116554250D01*
X93906671Y-116405291D01*
X93851211Y-116344201D01*
X93711167Y-116332027D01*
X93694250Y-116332000D01*
X93545292Y-116341829D01*
X93484202Y-116397289D01*
X93472028Y-116537333D01*
X93472000Y-116554250D01*
X93462171Y-116703208D01*
X93406711Y-116764298D01*
X93266667Y-116776472D01*
X93249750Y-116776500D01*
X93100792Y-116766670D01*
X93039702Y-116711210D01*
X93027528Y-116571166D01*
X93027500Y-116554250D01*
X93017671Y-116405291D01*
X92962211Y-116344201D01*
X92822167Y-116332027D01*
X92805250Y-116332000D01*
X92656292Y-116341829D01*
X92595202Y-116397289D01*
X92583028Y-116537333D01*
X92583000Y-116554250D01*
X92592830Y-116703208D01*
X92648290Y-116764298D01*
X92788334Y-116776472D01*
X92805250Y-116776500D01*
X92954209Y-116786329D01*
X93015299Y-116841789D01*
X93027473Y-116981833D01*
X93027500Y-116998750D01*
X93027500Y-117221000D01*
X92138500Y-117221000D01*
X92138500Y-116332000D01*
X91694000Y-116332000D01*
X91694000Y-117221000D01*
X90805000Y-117221000D01*
X90805000Y-117665500D01*
X92138500Y-117665500D01*
X92138500Y-118554500D01*
X91916250Y-118554500D01*
X91694000Y-118554500D01*
X91694000Y-119443500D01*
X91249500Y-119443500D01*
X91249500Y-118554500D01*
X91694000Y-118554500D01*
X91916250Y-118554500D01*
X91767292Y-118544670D01*
X91706202Y-118489210D01*
X91694028Y-118349166D01*
X91694000Y-118332250D01*
X91684171Y-118183291D01*
X91628711Y-118122201D01*
X91488667Y-118110027D01*
X91471750Y-118110000D01*
X91322792Y-118119829D01*
X91261702Y-118175289D01*
X91249528Y-118315333D01*
X91249500Y-118332250D01*
X91239671Y-118481208D01*
X91184211Y-118542298D01*
X91044167Y-118554472D01*
X91027250Y-118554500D01*
X90878292Y-118544670D01*
X90817202Y-118489210D01*
X90805028Y-118349166D01*
X90805000Y-118332250D01*
X90805000Y-118110000D01*
X89916000Y-118110000D01*
X89916000Y-117887750D01*
X89925830Y-117738791D01*
X89981290Y-117677701D01*
X90121334Y-117665527D01*
X90138250Y-117665500D01*
X90360500Y-117665500D01*
X90360500Y-116332000D01*
X89916000Y-116332000D01*
X89916000Y-117221000D01*
X89471500Y-117221000D01*
X89471500Y-118554500D01*
X89693750Y-118554500D01*
X89842709Y-118564329D01*
X89903799Y-118619789D01*
X89915973Y-118759833D01*
X89916000Y-118776750D01*
X89906171Y-118925708D01*
X89850711Y-118986798D01*
X89710667Y-118998972D01*
X89693750Y-118999000D01*
X89471500Y-118999000D01*
X89471500Y-119888000D01*
X89693750Y-119888000D01*
X89842709Y-119878170D01*
X89903799Y-119822710D01*
X89915973Y-119682666D01*
X89916000Y-119665750D01*
X89925830Y-119516791D01*
X89981290Y-119455701D01*
X90121334Y-119443527D01*
X90138250Y-119443500D01*
X90360500Y-119443500D01*
X90360500Y-118554500D01*
X90805000Y-118554500D01*
X90805000Y-119888000D01*
X90360500Y-119888000D01*
X90360500Y-120777000D01*
X89471500Y-120777000D01*
X89471500Y-120999250D01*
X89481330Y-121148208D01*
X89536790Y-121209298D01*
X89676834Y-121221472D01*
X89693750Y-121221500D01*
X89842709Y-121231329D01*
X89903799Y-121286789D01*
X89915973Y-121426833D01*
X89916000Y-121443750D01*
X89906171Y-121592708D01*
X89850711Y-121653798D01*
X89710667Y-121665972D01*
X89693750Y-121666000D01*
X89471500Y-121666000D01*
X89471500Y-123888500D01*
X92138500Y-123888500D01*
X92138500Y-123444000D01*
X90805000Y-123444000D01*
X89916000Y-123444000D01*
X89916000Y-122555000D01*
X90138250Y-122555000D01*
X90287209Y-122564829D01*
X90348299Y-122620289D01*
X90360473Y-122760333D01*
X90360500Y-122777250D01*
X90370330Y-122926208D01*
X90425790Y-122987298D01*
X90565834Y-122999472D01*
X90582750Y-122999500D01*
X90805000Y-122999500D01*
X90805000Y-123444000D01*
X92138500Y-123444000D01*
X92138500Y-122555000D01*
X93027500Y-122555000D01*
X93027500Y-122332750D01*
X92138500Y-122332750D01*
X92128671Y-122481708D01*
X92073211Y-122542798D01*
X91933167Y-122554972D01*
X91916250Y-122555000D01*
X91767292Y-122564829D01*
X91706202Y-122620289D01*
X91694028Y-122760333D01*
X91694000Y-122777250D01*
X91694000Y-122999500D01*
X90805000Y-122999500D01*
X90805000Y-122110500D01*
X91027250Y-122110500D01*
X91176209Y-122120329D01*
X91237299Y-122175789D01*
X91249473Y-122315833D01*
X91249500Y-122332750D01*
X91259330Y-122481708D01*
X91314790Y-122542798D01*
X91454834Y-122554972D01*
X91471750Y-122555000D01*
X91620709Y-122545170D01*
X91681799Y-122489710D01*
X91693973Y-122349666D01*
X91694000Y-122332750D01*
X91703830Y-122183791D01*
X91759290Y-122122701D01*
X91899334Y-122110527D01*
X91916250Y-122110500D01*
X92065209Y-122120329D01*
X92126299Y-122175789D01*
X92138473Y-122315833D01*
X92138500Y-122332750D01*
X93027500Y-122332750D01*
X93027500Y-122110500D01*
X94361000Y-122110500D01*
X94361000Y-122555000D01*
X94583250Y-122555000D01*
X94732209Y-122564829D01*
X94793299Y-122620289D01*
X94805473Y-122760333D01*
X94805500Y-122777250D01*
X94815330Y-122926208D01*
X94870790Y-122987298D01*
X95010834Y-122999472D01*
X95027750Y-122999500D01*
X95176709Y-123009329D01*
X95237799Y-123064789D01*
X95249973Y-123204833D01*
X95250000Y-123221750D01*
X95240171Y-123370708D01*
X95184711Y-123431798D01*
X95044667Y-123443972D01*
X95027750Y-123444000D01*
X94878792Y-123453829D01*
X94817702Y-123509289D01*
X94805528Y-123649333D01*
X94805500Y-123666250D01*
X94805500Y-123888500D01*
X97028000Y-123888500D01*
X97028000Y-121666000D01*
X96805750Y-121666000D01*
X96583500Y-121666000D01*
X96583500Y-121888250D01*
X96573671Y-122037208D01*
X96518211Y-122098298D01*
X96378167Y-122110472D01*
X96361250Y-122110500D01*
X96139000Y-122110500D01*
X96139000Y-122999500D01*
X95916750Y-122999500D01*
X95767792Y-122989670D01*
X95706702Y-122934210D01*
X95694528Y-122794166D01*
X95694500Y-122777250D01*
X95694500Y-122555000D01*
X94805500Y-122555000D01*
X94805500Y-122332750D01*
X94815330Y-122183791D01*
X94870790Y-122122701D01*
X95010834Y-122110527D01*
X95027750Y-122110500D01*
X95250000Y-122110500D01*
X95250000Y-121221500D01*
X95027750Y-121221500D01*
X94878792Y-121231329D01*
X94817702Y-121286789D01*
X94805528Y-121426833D01*
X94805500Y-121443750D01*
X94795671Y-121592708D01*
X94740211Y-121653798D01*
X94600167Y-121665972D01*
X94583250Y-121666000D01*
X94434292Y-121656170D01*
X94373202Y-121600710D01*
X94361028Y-121460666D01*
X94361000Y-121443750D01*
X94370830Y-121294791D01*
X94426290Y-121233701D01*
X94566334Y-121221527D01*
X94583250Y-121221500D01*
X94732209Y-121211670D01*
X94793299Y-121156210D01*
X94805473Y-121016166D01*
X94805500Y-120999250D01*
X94815330Y-120850291D01*
X94870790Y-120789201D01*
X95010834Y-120777027D01*
X95027750Y-120777000D01*
X95176709Y-120767170D01*
X95237799Y-120711710D01*
X95249973Y-120571666D01*
X95250000Y-120554750D01*
X94361000Y-120554750D01*
X94351171Y-120703708D01*
X94295711Y-120764798D01*
X94155667Y-120776972D01*
X94138750Y-120777000D01*
X93916500Y-120777000D01*
X93916500Y-121666000D01*
X93472000Y-121666000D01*
X93472000Y-120777000D01*
X93694250Y-120777000D01*
X93843209Y-120767170D01*
X93904299Y-120711710D01*
X93916473Y-120571666D01*
X93916500Y-120554750D01*
X93926330Y-120405791D01*
X93981790Y-120344701D01*
X94121834Y-120332527D01*
X94138750Y-120332500D01*
X93027500Y-120332500D01*
X93027500Y-121666000D01*
X91694000Y-121666000D01*
X91694000Y-121443750D01*
X90805000Y-121443750D01*
X90795171Y-121592708D01*
X90739711Y-121653798D01*
X90599667Y-121665972D01*
X90582750Y-121666000D01*
X90433792Y-121656170D01*
X90372702Y-121600710D01*
X90360528Y-121460666D01*
X90360500Y-121443750D01*
X90370330Y-121294791D01*
X90425790Y-121233701D01*
X90565834Y-121221527D01*
X90582750Y-121221500D01*
X90731709Y-121231329D01*
X90792799Y-121286789D01*
X90804973Y-121426833D01*
X90805000Y-121443750D01*
X91694000Y-121443750D01*
X91694000Y-120332500D01*
X93027500Y-120332500D01*
X94138750Y-120332500D01*
X94287709Y-120342329D01*
X94348799Y-120397789D01*
X94360973Y-120537833D01*
X94361000Y-120554750D01*
X95250000Y-120554750D01*
X95240171Y-120405791D01*
X95184711Y-120344701D01*
X95044667Y-120332527D01*
X95027750Y-120332500D01*
X94878792Y-120322670D01*
X94817702Y-120267210D01*
X94805528Y-120127166D01*
X94805500Y-120110250D01*
X91249500Y-120110250D01*
X91239671Y-120259208D01*
X91184211Y-120320298D01*
X91044167Y-120332472D01*
X91027250Y-120332500D01*
X90878292Y-120322670D01*
X90817202Y-120267210D01*
X90805028Y-120127166D01*
X90805000Y-120110250D01*
X90814830Y-119961291D01*
X90870290Y-119900201D01*
X91010334Y-119888027D01*
X91027250Y-119888000D01*
X91176209Y-119897829D01*
X91237299Y-119953289D01*
X91249473Y-120093333D01*
X91249500Y-120110250D01*
X94805500Y-120110250D01*
X94795671Y-119961291D01*
X94740211Y-119900201D01*
X94600167Y-119888027D01*
X94583250Y-119888000D01*
X94434292Y-119878170D01*
X94373202Y-119822710D01*
X94361028Y-119682666D01*
X94361000Y-119665750D01*
X93916500Y-119665750D01*
X93906671Y-119814708D01*
X93851211Y-119875798D01*
X93711167Y-119887972D01*
X93694250Y-119888000D01*
X93545292Y-119878170D01*
X93484202Y-119822710D01*
X93472028Y-119682666D01*
X93472000Y-119665750D01*
X93481830Y-119516791D01*
X93537290Y-119455701D01*
X93677334Y-119443527D01*
X93694250Y-119443500D01*
X93843209Y-119453329D01*
X93904299Y-119508789D01*
X93916473Y-119648833D01*
X93916500Y-119665750D01*
X94361000Y-119665750D01*
X94361000Y-119443500D01*
X95250000Y-119443500D01*
X95250000Y-120332500D01*
X95472250Y-120332500D01*
X95621209Y-120342329D01*
X95682299Y-120397789D01*
X95694473Y-120537833D01*
X95694500Y-120554750D01*
X95704330Y-120703708D01*
X95759790Y-120764798D01*
X95899834Y-120776972D01*
X95916750Y-120777000D01*
X96065709Y-120786829D01*
X96126799Y-120842289D01*
X96138973Y-120982333D01*
X96139000Y-120999250D01*
X96129171Y-121148208D01*
X96073711Y-121209298D01*
X95933667Y-121221472D01*
X95916750Y-121221500D01*
X95767792Y-121231329D01*
X95706702Y-121286789D01*
X95694528Y-121426833D01*
X95694500Y-121443750D01*
X95694500Y-121666000D01*
X96583500Y-121666000D01*
X96805750Y-121666000D01*
X96656792Y-121656170D01*
X96595702Y-121600710D01*
X96583528Y-121460666D01*
X96583500Y-121443750D01*
X96593330Y-121294791D01*
X96648790Y-121233701D01*
X96788834Y-121221527D01*
X96805750Y-121221500D01*
X97028000Y-121221500D01*
X97028000Y-120332500D01*
X96805750Y-120332500D01*
X96656792Y-120342329D01*
X96595702Y-120397789D01*
X96583528Y-120537833D01*
X96583500Y-120554750D01*
X96573671Y-120703708D01*
X96518211Y-120764798D01*
X96378167Y-120776972D01*
X96361250Y-120777000D01*
X96139000Y-120777000D01*
X96139000Y-119888000D01*
X95694500Y-119888000D01*
X95694500Y-118999000D01*
X94361000Y-118999000D01*
X94361000Y-119221250D01*
X94351171Y-119370208D01*
X94295711Y-119431298D01*
X94155667Y-119443472D01*
X94138750Y-119443500D01*
X93989792Y-119433670D01*
X93928702Y-119378210D01*
X93916528Y-119238166D01*
X93916500Y-119221250D01*
X93906671Y-119072291D01*
X93851211Y-119011201D01*
X93711167Y-118999027D01*
X93694250Y-118999000D01*
X93545292Y-118989170D01*
X93484202Y-118933710D01*
X93472028Y-118793666D01*
X93472000Y-118776750D01*
X93462171Y-118627791D01*
X93406711Y-118566701D01*
X93266667Y-118554527D01*
X93249750Y-118554500D01*
X93027500Y-118554500D01*
X93027500Y-118776750D01*
X93017671Y-118925708D01*
X92962211Y-118986798D01*
X92822167Y-118998972D01*
X92805250Y-118999000D01*
X92583000Y-118999000D01*
X92583000Y-119888000D01*
X92138500Y-119888000D01*
X92138500Y-118554500D01*
X93027500Y-118554500D01*
X93249750Y-118554500D01*
X93100792Y-118544670D01*
X93039702Y-118489210D01*
X93027528Y-118349166D01*
X93027500Y-118332250D01*
X93017671Y-118183291D01*
X92962211Y-118122201D01*
X92822167Y-118110027D01*
X92805250Y-118110000D01*
X92656292Y-118100170D01*
X92595202Y-118044710D01*
X92583028Y-117904666D01*
X92583000Y-117887750D01*
X92592830Y-117738791D01*
X92648290Y-117677701D01*
X92788334Y-117665527D01*
X92805250Y-117665500D01*
X92954209Y-117655670D01*
X93015299Y-117600210D01*
X93027473Y-117460166D01*
X93027500Y-117443250D01*
X93037330Y-117294291D01*
X93092790Y-117233201D01*
X93232834Y-117221027D01*
X93249750Y-117221000D01*
X93472000Y-117221000D01*
X93472000Y-116998750D01*
G37*
X93472000Y-116998750D02*
X93481830Y-116849791D01*
X93537290Y-116788701D01*
X93677334Y-116776527D01*
X93694250Y-116776500D01*
X93843209Y-116766670D01*
X93904299Y-116711210D01*
X93916473Y-116571166D01*
X93916500Y-116554250D01*
X93906671Y-116405291D01*
X93851211Y-116344201D01*
X93711167Y-116332027D01*
X93694250Y-116332000D01*
X93545292Y-116341829D01*
X93484202Y-116397289D01*
X93472028Y-116537333D01*
X93472000Y-116554250D01*
X93462171Y-116703208D01*
X93406711Y-116764298D01*
X93266667Y-116776472D01*
X93249750Y-116776500D01*
X93100792Y-116766670D01*
X93039702Y-116711210D01*
X93027528Y-116571166D01*
X93027500Y-116554250D01*
X93017671Y-116405291D01*
X92962211Y-116344201D01*
X92822167Y-116332027D01*
X92805250Y-116332000D01*
X92656292Y-116341829D01*
X92595202Y-116397289D01*
X92583028Y-116537333D01*
X92583000Y-116554250D01*
X92592830Y-116703208D01*
X92648290Y-116764298D01*
X92788334Y-116776472D01*
X92805250Y-116776500D01*
X92954209Y-116786329D01*
X93015299Y-116841789D01*
X93027473Y-116981833D01*
X93027500Y-116998750D01*
X93027500Y-117221000D01*
X92138500Y-117221000D01*
X92138500Y-116332000D01*
X91694000Y-116332000D01*
X91694000Y-117221000D01*
X90805000Y-117221000D01*
X90805000Y-117665500D01*
X92138500Y-117665500D01*
X92138500Y-118554500D01*
X91916250Y-118554500D01*
X91694000Y-118554500D01*
X91694000Y-119443500D01*
X91249500Y-119443500D01*
X91249500Y-118554500D01*
X91694000Y-118554500D01*
X91916250Y-118554500D01*
X91767292Y-118544670D01*
X91706202Y-118489210D01*
X91694028Y-118349166D01*
X91694000Y-118332250D01*
X91684171Y-118183291D01*
X91628711Y-118122201D01*
X91488667Y-118110027D01*
X91471750Y-118110000D01*
X91322792Y-118119829D01*
X91261702Y-118175289D01*
X91249528Y-118315333D01*
X91249500Y-118332250D01*
X91239671Y-118481208D01*
X91184211Y-118542298D01*
X91044167Y-118554472D01*
X91027250Y-118554500D01*
X90878292Y-118544670D01*
X90817202Y-118489210D01*
X90805028Y-118349166D01*
X90805000Y-118332250D01*
X90805000Y-118110000D01*
X89916000Y-118110000D01*
X89916000Y-117887750D01*
X89925830Y-117738791D01*
X89981290Y-117677701D01*
X90121334Y-117665527D01*
X90138250Y-117665500D01*
X90360500Y-117665500D01*
X90360500Y-116332000D01*
X89916000Y-116332000D01*
X89916000Y-117221000D01*
X89471500Y-117221000D01*
X89471500Y-118554500D01*
X89693750Y-118554500D01*
X89842709Y-118564329D01*
X89903799Y-118619789D01*
X89915973Y-118759833D01*
X89916000Y-118776750D01*
X89906171Y-118925708D01*
X89850711Y-118986798D01*
X89710667Y-118998972D01*
X89693750Y-118999000D01*
X89471500Y-118999000D01*
X89471500Y-119888000D01*
X89693750Y-119888000D01*
X89842709Y-119878170D01*
X89903799Y-119822710D01*
X89915973Y-119682666D01*
X89916000Y-119665750D01*
X89925830Y-119516791D01*
X89981290Y-119455701D01*
X90121334Y-119443527D01*
X90138250Y-119443500D01*
X90360500Y-119443500D01*
X90360500Y-118554500D01*
X90805000Y-118554500D01*
X90805000Y-119888000D01*
X90360500Y-119888000D01*
X90360500Y-120777000D01*
X89471500Y-120777000D01*
X89471500Y-120999250D01*
X89481330Y-121148208D01*
X89536790Y-121209298D01*
X89676834Y-121221472D01*
X89693750Y-121221500D01*
X89842709Y-121231329D01*
X89903799Y-121286789D01*
X89915973Y-121426833D01*
X89916000Y-121443750D01*
X89906171Y-121592708D01*
X89850711Y-121653798D01*
X89710667Y-121665972D01*
X89693750Y-121666000D01*
X89471500Y-121666000D01*
X89471500Y-123888500D01*
X92138500Y-123888500D01*
X92138500Y-123444000D01*
X90805000Y-123444000D01*
X89916000Y-123444000D01*
X89916000Y-122555000D01*
X90138250Y-122555000D01*
X90287209Y-122564829D01*
X90348299Y-122620289D01*
X90360473Y-122760333D01*
X90360500Y-122777250D01*
X90370330Y-122926208D01*
X90425790Y-122987298D01*
X90565834Y-122999472D01*
X90582750Y-122999500D01*
X90805000Y-122999500D01*
X90805000Y-123444000D01*
X92138500Y-123444000D01*
X92138500Y-122555000D01*
X93027500Y-122555000D01*
X93027500Y-122332750D01*
X92138500Y-122332750D01*
X92128671Y-122481708D01*
X92073211Y-122542798D01*
X91933167Y-122554972D01*
X91916250Y-122555000D01*
X91767292Y-122564829D01*
X91706202Y-122620289D01*
X91694028Y-122760333D01*
X91694000Y-122777250D01*
X91694000Y-122999500D01*
X90805000Y-122999500D01*
X90805000Y-122110500D01*
X91027250Y-122110500D01*
X91176209Y-122120329D01*
X91237299Y-122175789D01*
X91249473Y-122315833D01*
X91249500Y-122332750D01*
X91259330Y-122481708D01*
X91314790Y-122542798D01*
X91454834Y-122554972D01*
X91471750Y-122555000D01*
X91620709Y-122545170D01*
X91681799Y-122489710D01*
X91693973Y-122349666D01*
X91694000Y-122332750D01*
X91703830Y-122183791D01*
X91759290Y-122122701D01*
X91899334Y-122110527D01*
X91916250Y-122110500D01*
X92065209Y-122120329D01*
X92126299Y-122175789D01*
X92138473Y-122315833D01*
X92138500Y-122332750D01*
X93027500Y-122332750D01*
X93027500Y-122110500D01*
X94361000Y-122110500D01*
X94361000Y-122555000D01*
X94583250Y-122555000D01*
X94732209Y-122564829D01*
X94793299Y-122620289D01*
X94805473Y-122760333D01*
X94805500Y-122777250D01*
X94815330Y-122926208D01*
X94870790Y-122987298D01*
X95010834Y-122999472D01*
X95027750Y-122999500D01*
X95176709Y-123009329D01*
X95237799Y-123064789D01*
X95249973Y-123204833D01*
X95250000Y-123221750D01*
X95240171Y-123370708D01*
X95184711Y-123431798D01*
X95044667Y-123443972D01*
X95027750Y-123444000D01*
X94878792Y-123453829D01*
X94817702Y-123509289D01*
X94805528Y-123649333D01*
X94805500Y-123666250D01*
X94805500Y-123888500D01*
X97028000Y-123888500D01*
X97028000Y-121666000D01*
X96805750Y-121666000D01*
X96583500Y-121666000D01*
X96583500Y-121888250D01*
X96573671Y-122037208D01*
X96518211Y-122098298D01*
X96378167Y-122110472D01*
X96361250Y-122110500D01*
X96139000Y-122110500D01*
X96139000Y-122999500D01*
X95916750Y-122999500D01*
X95767792Y-122989670D01*
X95706702Y-122934210D01*
X95694528Y-122794166D01*
X95694500Y-122777250D01*
X95694500Y-122555000D01*
X94805500Y-122555000D01*
X94805500Y-122332750D01*
X94815330Y-122183791D01*
X94870790Y-122122701D01*
X95010834Y-122110527D01*
X95027750Y-122110500D01*
X95250000Y-122110500D01*
X95250000Y-121221500D01*
X95027750Y-121221500D01*
X94878792Y-121231329D01*
X94817702Y-121286789D01*
X94805528Y-121426833D01*
X94805500Y-121443750D01*
X94795671Y-121592708D01*
X94740211Y-121653798D01*
X94600167Y-121665972D01*
X94583250Y-121666000D01*
X94434292Y-121656170D01*
X94373202Y-121600710D01*
X94361028Y-121460666D01*
X94361000Y-121443750D01*
X94370830Y-121294791D01*
X94426290Y-121233701D01*
X94566334Y-121221527D01*
X94583250Y-121221500D01*
X94732209Y-121211670D01*
X94793299Y-121156210D01*
X94805473Y-121016166D01*
X94805500Y-120999250D01*
X94815330Y-120850291D01*
X94870790Y-120789201D01*
X95010834Y-120777027D01*
X95027750Y-120777000D01*
X95176709Y-120767170D01*
X95237799Y-120711710D01*
X95249973Y-120571666D01*
X95250000Y-120554750D01*
X94361000Y-120554750D01*
X94351171Y-120703708D01*
X94295711Y-120764798D01*
X94155667Y-120776972D01*
X94138750Y-120777000D01*
X93916500Y-120777000D01*
X93916500Y-121666000D01*
X93472000Y-121666000D01*
X93472000Y-120777000D01*
X93694250Y-120777000D01*
X93843209Y-120767170D01*
X93904299Y-120711710D01*
X93916473Y-120571666D01*
X93916500Y-120554750D01*
X93926330Y-120405791D01*
X93981790Y-120344701D01*
X94121834Y-120332527D01*
X94138750Y-120332500D01*
X93027500Y-120332500D01*
X93027500Y-121666000D01*
X91694000Y-121666000D01*
X91694000Y-121443750D01*
X90805000Y-121443750D01*
X90795171Y-121592708D01*
X90739711Y-121653798D01*
X90599667Y-121665972D01*
X90582750Y-121666000D01*
X90433792Y-121656170D01*
X90372702Y-121600710D01*
X90360528Y-121460666D01*
X90360500Y-121443750D01*
X90370330Y-121294791D01*
X90425790Y-121233701D01*
X90565834Y-121221527D01*
X90582750Y-121221500D01*
X90731709Y-121231329D01*
X90792799Y-121286789D01*
X90804973Y-121426833D01*
X90805000Y-121443750D01*
X91694000Y-121443750D01*
X91694000Y-120332500D01*
X93027500Y-120332500D01*
X94138750Y-120332500D01*
X94287709Y-120342329D01*
X94348799Y-120397789D01*
X94360973Y-120537833D01*
X94361000Y-120554750D01*
X95250000Y-120554750D01*
X95240171Y-120405791D01*
X95184711Y-120344701D01*
X95044667Y-120332527D01*
X95027750Y-120332500D01*
X94878792Y-120322670D01*
X94817702Y-120267210D01*
X94805528Y-120127166D01*
X94805500Y-120110250D01*
X91249500Y-120110250D01*
X91239671Y-120259208D01*
X91184211Y-120320298D01*
X91044167Y-120332472D01*
X91027250Y-120332500D01*
X90878292Y-120322670D01*
X90817202Y-120267210D01*
X90805028Y-120127166D01*
X90805000Y-120110250D01*
X90814830Y-119961291D01*
X90870290Y-119900201D01*
X91010334Y-119888027D01*
X91027250Y-119888000D01*
X91176209Y-119897829D01*
X91237299Y-119953289D01*
X91249473Y-120093333D01*
X91249500Y-120110250D01*
X94805500Y-120110250D01*
X94795671Y-119961291D01*
X94740211Y-119900201D01*
X94600167Y-119888027D01*
X94583250Y-119888000D01*
X94434292Y-119878170D01*
X94373202Y-119822710D01*
X94361028Y-119682666D01*
X94361000Y-119665750D01*
X93916500Y-119665750D01*
X93906671Y-119814708D01*
X93851211Y-119875798D01*
X93711167Y-119887972D01*
X93694250Y-119888000D01*
X93545292Y-119878170D01*
X93484202Y-119822710D01*
X93472028Y-119682666D01*
X93472000Y-119665750D01*
X93481830Y-119516791D01*
X93537290Y-119455701D01*
X93677334Y-119443527D01*
X93694250Y-119443500D01*
X93843209Y-119453329D01*
X93904299Y-119508789D01*
X93916473Y-119648833D01*
X93916500Y-119665750D01*
X94361000Y-119665750D01*
X94361000Y-119443500D01*
X95250000Y-119443500D01*
X95250000Y-120332500D01*
X95472250Y-120332500D01*
X95621209Y-120342329D01*
X95682299Y-120397789D01*
X95694473Y-120537833D01*
X95694500Y-120554750D01*
X95704330Y-120703708D01*
X95759790Y-120764798D01*
X95899834Y-120776972D01*
X95916750Y-120777000D01*
X96065709Y-120786829D01*
X96126799Y-120842289D01*
X96138973Y-120982333D01*
X96139000Y-120999250D01*
X96129171Y-121148208D01*
X96073711Y-121209298D01*
X95933667Y-121221472D01*
X95916750Y-121221500D01*
X95767792Y-121231329D01*
X95706702Y-121286789D01*
X95694528Y-121426833D01*
X95694500Y-121443750D01*
X95694500Y-121666000D01*
X96583500Y-121666000D01*
X96805750Y-121666000D01*
X96656792Y-121656170D01*
X96595702Y-121600710D01*
X96583528Y-121460666D01*
X96583500Y-121443750D01*
X96593330Y-121294791D01*
X96648790Y-121233701D01*
X96788834Y-121221527D01*
X96805750Y-121221500D01*
X97028000Y-121221500D01*
X97028000Y-120332500D01*
X96805750Y-120332500D01*
X96656792Y-120342329D01*
X96595702Y-120397789D01*
X96583528Y-120537833D01*
X96583500Y-120554750D01*
X96573671Y-120703708D01*
X96518211Y-120764798D01*
X96378167Y-120776972D01*
X96361250Y-120777000D01*
X96139000Y-120777000D01*
X96139000Y-119888000D01*
X95694500Y-119888000D01*
X95694500Y-118999000D01*
X94361000Y-118999000D01*
X94361000Y-119221250D01*
X94351171Y-119370208D01*
X94295711Y-119431298D01*
X94155667Y-119443472D01*
X94138750Y-119443500D01*
X93989792Y-119433670D01*
X93928702Y-119378210D01*
X93916528Y-119238166D01*
X93916500Y-119221250D01*
X93906671Y-119072291D01*
X93851211Y-119011201D01*
X93711167Y-118999027D01*
X93694250Y-118999000D01*
X93545292Y-118989170D01*
X93484202Y-118933710D01*
X93472028Y-118793666D01*
X93472000Y-118776750D01*
X93462171Y-118627791D01*
X93406711Y-118566701D01*
X93266667Y-118554527D01*
X93249750Y-118554500D01*
X93027500Y-118554500D01*
X93027500Y-118776750D01*
X93017671Y-118925708D01*
X92962211Y-118986798D01*
X92822167Y-118998972D01*
X92805250Y-118999000D01*
X92583000Y-118999000D01*
X92583000Y-119888000D01*
X92138500Y-119888000D01*
X92138500Y-118554500D01*
X93027500Y-118554500D01*
X93249750Y-118554500D01*
X93100792Y-118544670D01*
X93039702Y-118489210D01*
X93027528Y-118349166D01*
X93027500Y-118332250D01*
X93017671Y-118183291D01*
X92962211Y-118122201D01*
X92822167Y-118110027D01*
X92805250Y-118110000D01*
X92656292Y-118100170D01*
X92595202Y-118044710D01*
X92583028Y-117904666D01*
X92583000Y-117887750D01*
X92592830Y-117738791D01*
X92648290Y-117677701D01*
X92788334Y-117665527D01*
X92805250Y-117665500D01*
X92954209Y-117655670D01*
X93015299Y-117600210D01*
X93027473Y-117460166D01*
X93027500Y-117443250D01*
X93037330Y-117294291D01*
X93092790Y-117233201D01*
X93232834Y-117221027D01*
X93249750Y-117221000D01*
X93472000Y-117221000D01*
X93472000Y-116998750D01*
G36*
X97472500Y-123888500D02*
G01*
X100584000Y-123888500D01*
X100584000Y-121221500D01*
X100139500Y-121221500D01*
X100139500Y-123444000D01*
X97917000Y-123444000D01*
X97917000Y-121221500D01*
X100139500Y-121221500D01*
X100584000Y-121221500D01*
X100584000Y-120777000D01*
X97472500Y-120777000D01*
X97472500Y-123888500D01*
G37*
X97472500Y-123888500D02*
X100584000Y-123888500D01*
X100584000Y-121221500D01*
X100139500Y-121221500D01*
X100139500Y-123444000D01*
X97917000Y-123444000D01*
X97917000Y-121221500D01*
X100139500Y-121221500D01*
X100584000Y-121221500D01*
X100584000Y-120777000D01*
X97472500Y-120777000D01*
X97472500Y-123888500D01*
D12*
G04 #@! TO.C,C7*
X78690000Y-110898000D02*
X71250000Y-110898000D01*
X78690000Y-119388000D02*
X71250000Y-119388000D01*
X78690000Y-110898000D02*
X78690000Y-119388000D01*
X71250000Y-110898000D02*
X71250000Y-119388000D01*
D13*
X75096666Y-113514142D02*
X75144285Y-113561761D01*
X75287142Y-113609380D01*
X75382380Y-113609380D01*
X75525238Y-113561761D01*
X75620476Y-113466523D01*
X75668095Y-113371285D01*
X75715714Y-113180809D01*
X75715714Y-113037952D01*
X75668095Y-112847476D01*
X75620476Y-112752238D01*
X75525238Y-112657000D01*
X75382380Y-112609380D01*
X75287142Y-112609380D01*
X75144285Y-112657000D01*
X75096666Y-112704619D01*
X74763333Y-112609380D02*
X74096666Y-112609380D01*
X74525238Y-113609380D01*
G04 #@! TD*
M02*
