G04 #@! TF.GenerationSoftware,KiCad,Pcbnew,(5.1.7)-1*
G04 #@! TF.CreationDate,2021-06-20T17:09:43-05:00*
G04 #@! TF.ProjectId,DaisySeedPedal,44616973-7953-4656-9564-506564616c2e,rev?*
G04 #@! TF.SameCoordinates,Original*
G04 #@! TF.FileFunction,Copper,L2,Bot*
G04 #@! TF.FilePolarity,Positive*
%FSLAX46Y46*%
G04 Gerber Fmt 4.6, Leading zero omitted, Abs format (unit mm)*
G04 Created by KiCad (PCBNEW (5.1.7)-1) date 2021-06-20 17:09:43*
%MOMM*%
%LPD*%
G01*
G04 APERTURE LIST*
G04 #@! TA.AperFunction,ComponentPad*
%ADD10C,1.700000*%
G04 #@! TD*
G04 #@! TA.AperFunction,ComponentPad*
%ADD11R,1.700000X1.700000*%
G04 #@! TD*
G04 #@! TA.AperFunction,ComponentPad*
%ADD12C,1.600000*%
G04 #@! TD*
G04 #@! TA.AperFunction,ComponentPad*
%ADD13O,1.600000X1.600000*%
G04 #@! TD*
G04 #@! TA.AperFunction,ComponentPad*
%ADD14R,1.600000X1.600000*%
G04 #@! TD*
G04 #@! TA.AperFunction,ComponentPad*
%ADD15R,1.800000X1.800000*%
G04 #@! TD*
G04 #@! TA.AperFunction,ComponentPad*
%ADD16C,1.800000*%
G04 #@! TD*
G04 #@! TA.AperFunction,ComponentPad*
%ADD17R,2.200000X2.200000*%
G04 #@! TD*
G04 #@! TA.AperFunction,ComponentPad*
%ADD18O,2.200000X2.200000*%
G04 #@! TD*
G04 #@! TA.AperFunction,ComponentPad*
%ADD19O,1.700000X1.700000*%
G04 #@! TD*
G04 #@! TA.AperFunction,ComponentPad*
%ADD20C,1.300000*%
G04 #@! TD*
G04 #@! TA.AperFunction,ComponentPad*
%ADD21O,2.500000X2.500000*%
G04 #@! TD*
G04 #@! TA.AperFunction,ComponentPad*
%ADD22R,2.500000X2.500000*%
G04 #@! TD*
G04 #@! TA.AperFunction,ComponentPad*
%ADD23C,1.500000*%
G04 #@! TD*
G04 #@! TA.AperFunction,ComponentPad*
%ADD24R,1.500000X1.500000*%
G04 #@! TD*
G04 #@! TA.AperFunction,ViaPad*
%ADD25C,0.800000*%
G04 #@! TD*
G04 #@! TA.AperFunction,Conductor*
%ADD26C,0.500000*%
G04 #@! TD*
G04 #@! TA.AperFunction,Conductor*
%ADD27C,0.254000*%
G04 #@! TD*
G04 #@! TA.AperFunction,Conductor*
%ADD28C,0.100000*%
G04 #@! TD*
G04 APERTURE END LIST*
D10*
G04 #@! TO.P,A1,40*
G04 #@! TO.N,GND*
X51200000Y-54760000D03*
G04 #@! TO.P,A1,39*
G04 #@! TO.N,/VIN*
X53740000Y-54760000D03*
G04 #@! TO.P,A1,38*
G04 #@! TO.N,N/C*
X56280000Y-54760000D03*
G04 #@! TO.P,A1,37*
X58820000Y-54760000D03*
G04 #@! TO.P,A1,36*
X61360000Y-54760000D03*
G04 #@! TO.P,A1,35*
X63900000Y-54760000D03*
G04 #@! TO.P,A1,34*
X66440000Y-54760000D03*
G04 #@! TO.P,A1,33*
G04 #@! TO.N,/pin33*
X68980000Y-54760000D03*
G04 #@! TO.P,A1,32*
G04 #@! TO.N,/pin32*
X71520000Y-54760000D03*
G04 #@! TO.P,A1,31*
G04 #@! TO.N,N/C*
X74060000Y-54760000D03*
G04 #@! TO.P,A1,30*
G04 #@! TO.N,/pin30*
X76600000Y-54760000D03*
G04 #@! TO.P,A1,29*
G04 #@! TO.N,/pin29*
X79140000Y-54760000D03*
G04 #@! TO.P,A1,28*
G04 #@! TO.N,/pin28*
X81680000Y-54760000D03*
G04 #@! TO.P,A1,27*
G04 #@! TO.N,/pin27*
X84220000Y-54760000D03*
G04 #@! TO.P,A1,26*
G04 #@! TO.N,/pin26*
X86760000Y-54760000D03*
G04 #@! TO.P,A1,25*
G04 #@! TO.N,/pin25*
X89300000Y-54760000D03*
G04 #@! TO.P,A1,24*
G04 #@! TO.N,/pin24*
X91840000Y-54760000D03*
G04 #@! TO.P,A1,23*
G04 #@! TO.N,/pin23*
X94380000Y-54760000D03*
G04 #@! TO.P,A1,22*
G04 #@! TO.N,N/C*
X96920000Y-54760000D03*
G04 #@! TO.P,A1,21*
G04 #@! TO.N,/3V3_A*
X99460000Y-54760000D03*
G04 #@! TO.P,A1,20*
G04 #@! TO.N,GND*
X99460000Y-70000000D03*
G04 #@! TO.P,A1,19*
G04 #@! TO.N,N/C*
X96920000Y-70000000D03*
G04 #@! TO.P,A1,18*
G04 #@! TO.N,/pin18*
X94380000Y-70000000D03*
G04 #@! TO.P,A1,17*
G04 #@! TO.N,N/C*
X91840000Y-70000000D03*
G04 #@! TO.P,A1,16*
G04 #@! TO.N,/pin16*
X89300000Y-70000000D03*
G04 #@! TO.P,A1,15*
G04 #@! TO.N,N/C*
X86760000Y-70000000D03*
G04 #@! TO.P,A1,14*
X84220000Y-70000000D03*
G04 #@! TO.P,A1,13*
X81680000Y-70000000D03*
G04 #@! TO.P,A1,12*
X79140000Y-70000000D03*
G04 #@! TO.P,A1,11*
G04 #@! TO.N,/pin11*
X76600000Y-70000000D03*
G04 #@! TO.P,A1,10*
G04 #@! TO.N,/pin10*
X74060000Y-70000000D03*
G04 #@! TO.P,A1,9*
G04 #@! TO.N,/pin9*
X71520000Y-70000000D03*
G04 #@! TO.P,A1,8*
G04 #@! TO.N,/pin8*
X68980000Y-70000000D03*
G04 #@! TO.P,A1,7*
G04 #@! TO.N,N/C*
X66440000Y-70000000D03*
G04 #@! TO.P,A1,6*
X63900000Y-70000000D03*
G04 #@! TO.P,A1,5*
X61360000Y-70000000D03*
G04 #@! TO.P,A1,4*
X58820000Y-70000000D03*
G04 #@! TO.P,A1,3*
X56280000Y-70000000D03*
G04 #@! TO.P,A1,2*
X53740000Y-70000000D03*
D11*
G04 #@! TO.P,A1,1*
X51200000Y-70000000D03*
G04 #@! TD*
D12*
G04 #@! TO.P,C1,1*
G04 #@! TO.N,GND*
X69088000Y-95504000D03*
D13*
G04 #@! TO.P,C1,2*
G04 #@! TO.N,/Input*
X69088000Y-88004000D03*
G04 #@! TD*
D12*
G04 #@! TO.P,C2,1*
G04 #@! TO.N,Net-(C2-Pad1)*
X59944000Y-79000000D03*
G04 #@! TO.P,C2,2*
G04 #@! TO.N,/Input*
X59944000Y-84000000D03*
G04 #@! TD*
G04 #@! TO.P,C3,1*
G04 #@! TO.N,GND*
X55118000Y-110382000D03*
G04 #@! TO.P,C3,2*
G04 #@! TO.N,Net-(C3-Pad2)*
X50118000Y-110382000D03*
G04 #@! TD*
D14*
G04 #@! TO.P,C4,1*
G04 #@! TO.N,/VIN*
X75946000Y-94488000D03*
D12*
G04 #@! TO.P,C4,2*
G04 #@! TO.N,GND*
X73946000Y-94488000D03*
G04 #@! TD*
G04 #@! TO.P,C5,2*
G04 #@! TO.N,GND*
X64596000Y-84728000D03*
G04 #@! TO.P,C5,1*
G04 #@! TO.N,/VIN*
X69596000Y-84728000D03*
G04 #@! TD*
G04 #@! TO.P,C6,2*
G04 #@! TO.N,/pin18*
X90024000Y-79000000D03*
G04 #@! TO.P,C6,1*
G04 #@! TO.N,Net-(C6-Pad1)*
X90024000Y-84000000D03*
G04 #@! TD*
G04 #@! TO.P,C7,2*
G04 #@! TO.N,GND*
X72470000Y-111868000D03*
G04 #@! TO.P,C7,1*
G04 #@! TO.N,/VIN*
X77470000Y-111868000D03*
G04 #@! TD*
G04 #@! TO.P,C8,1*
G04 #@! TO.N,GND*
X77470000Y-122066000D03*
G04 #@! TO.P,C8,2*
G04 #@! TO.N,Net-(C10-Pad2)*
X72470000Y-122066000D03*
G04 #@! TD*
G04 #@! TO.P,C9,1*
G04 #@! TO.N,/Output*
X99822000Y-111144000D03*
G04 #@! TO.P,C9,2*
G04 #@! TO.N,Net-(C9-Pad2)*
X94822000Y-111144000D03*
G04 #@! TD*
G04 #@! TO.P,C10,1*
G04 #@! TO.N,GND*
X85344000Y-84728000D03*
G04 #@! TO.P,C10,2*
G04 #@! TO.N,Net-(C10-Pad2)*
X80344000Y-84728000D03*
G04 #@! TD*
D15*
G04 #@! TO.P,D1,1*
G04 #@! TO.N,GND*
X65000000Y-116000000D03*
D16*
G04 #@! TO.P,D1,2*
G04 #@! TO.N,Net-(D1-Pad2)*
X65000000Y-118540000D03*
G04 #@! TD*
G04 #@! TO.P,D2,2*
G04 #@! TO.N,Net-(D2-Pad2)*
X85000000Y-118540000D03*
D15*
G04 #@! TO.P,D2,1*
G04 #@! TO.N,GND*
X85000000Y-116000000D03*
G04 #@! TD*
D17*
G04 #@! TO.P,D3,1*
G04 #@! TO.N,/VIN*
X68072000Y-100584000D03*
D18*
G04 #@! TO.P,D3,2*
G04 #@! TO.N,+9V*
X57912000Y-100584000D03*
G04 #@! TD*
D13*
G04 #@! TO.P,R1,2*
G04 #@! TO.N,Net-(C3-Pad2)*
X68326000Y-103886000D03*
D12*
G04 #@! TO.P,R1,1*
G04 #@! TO.N,Net-(C10-Pad2)*
X58166000Y-103886000D03*
G04 #@! TD*
G04 #@! TO.P,R2,1*
G04 #@! TO.N,Net-(C2-Pad1)*
X58166000Y-107188000D03*
D13*
G04 #@! TO.P,R2,2*
G04 #@! TO.N,Net-(C3-Pad2)*
X68326000Y-107188000D03*
G04 #@! TD*
D12*
G04 #@! TO.P,R3,1*
G04 #@! TO.N,GND*
X58166000Y-110490000D03*
D13*
G04 #@! TO.P,R3,2*
G04 #@! TO.N,Net-(C3-Pad2)*
X68326000Y-110490000D03*
G04 #@! TD*
G04 #@! TO.P,R4,2*
G04 #@! TO.N,Net-(C6-Pad1)*
X81534000Y-110490000D03*
D12*
G04 #@! TO.P,R4,1*
G04 #@! TO.N,Net-(C10-Pad2)*
X91694000Y-110490000D03*
G04 #@! TD*
G04 #@! TO.P,R5,1*
G04 #@! TO.N,Net-(C6-Pad1)*
X81534000Y-107188000D03*
D13*
G04 #@! TO.P,R5,2*
G04 #@! TO.N,GND*
X91694000Y-107188000D03*
G04 #@! TD*
G04 #@! TO.P,R6,2*
G04 #@! TO.N,Net-(C9-Pad2)*
X91694000Y-103886000D03*
D12*
G04 #@! TO.P,R6,1*
G04 #@! TO.N,Net-(R6-Pad1)*
X81534000Y-103886000D03*
G04 #@! TD*
G04 #@! TO.P,R7,1*
G04 #@! TO.N,/Output*
X80518000Y-97282000D03*
D13*
G04 #@! TO.P,R7,2*
G04 #@! TO.N,GND*
X80518000Y-87122000D03*
G04 #@! TD*
D12*
G04 #@! TO.P,R8,1*
G04 #@! TO.N,/pin29*
X59944000Y-87122000D03*
D13*
G04 #@! TO.P,R8,2*
G04 #@! TO.N,Net-(D1-Pad2)*
X59944000Y-97282000D03*
G04 #@! TD*
G04 #@! TO.P,R9,2*
G04 #@! TO.N,Net-(D2-Pad2)*
X89916000Y-97282000D03*
D12*
G04 #@! TO.P,R9,1*
G04 #@! TO.N,/pin30*
X89916000Y-87122000D03*
G04 #@! TD*
D11*
G04 #@! TO.P,SW1,1*
G04 #@! TO.N,GND*
X63730000Y-123000000D03*
D19*
G04 #@! TO.P,SW1,2*
G04 #@! TO.N,/pin32*
X66270000Y-123000000D03*
G04 #@! TD*
G04 #@! TO.P,SW2,2*
G04 #@! TO.N,/pin33*
X83730000Y-123000000D03*
D11*
G04 #@! TO.P,SW2,1*
G04 #@! TO.N,GND*
X86270000Y-123000000D03*
G04 #@! TD*
D20*
G04 #@! TO.P,SW3,3*
G04 #@! TO.N,GND*
X55000000Y-94540000D03*
G04 #@! TO.P,SW3,2*
G04 #@! TO.N,/pin8*
X55000000Y-89460000D03*
G04 #@! TO.P,SW3,1*
G04 #@! TO.N,N/C*
X55000000Y-92000000D03*
G04 #@! TD*
G04 #@! TO.P,SW4,1*
G04 #@! TO.N,N/C*
X65000000Y-92000000D03*
G04 #@! TO.P,SW4,2*
G04 #@! TO.N,/pin9*
X65000000Y-89460000D03*
G04 #@! TO.P,SW4,3*
G04 #@! TO.N,GND*
X65000000Y-94540000D03*
G04 #@! TD*
G04 #@! TO.P,SW5,3*
G04 #@! TO.N,GND*
X85000000Y-94540000D03*
G04 #@! TO.P,SW5,2*
G04 #@! TO.N,/pin10*
X85000000Y-89460000D03*
G04 #@! TO.P,SW5,1*
G04 #@! TO.N,N/C*
X85000000Y-92000000D03*
G04 #@! TD*
G04 #@! TO.P,SW6,1*
G04 #@! TO.N,N/C*
X95000000Y-92000000D03*
G04 #@! TO.P,SW6,2*
G04 #@! TO.N,/pin11*
X95000000Y-89460000D03*
G04 #@! TO.P,SW6,3*
G04 #@! TO.N,GND*
X95000000Y-94540000D03*
G04 #@! TD*
D14*
G04 #@! TO.P,U1,1*
G04 #@! TO.N,/pin16*
X71120000Y-100584000D03*
D13*
G04 #@! TO.P,U1,5*
G04 #@! TO.N,Net-(C6-Pad1)*
X78740000Y-108204000D03*
G04 #@! TO.P,U1,2*
G04 #@! TO.N,/pin16*
X71120000Y-103124000D03*
G04 #@! TO.P,U1,6*
G04 #@! TO.N,Net-(R6-Pad1)*
X78740000Y-105664000D03*
G04 #@! TO.P,U1,3*
G04 #@! TO.N,Net-(C3-Pad2)*
X71120000Y-105664000D03*
G04 #@! TO.P,U1,7*
G04 #@! TO.N,Net-(R6-Pad1)*
X78740000Y-103124000D03*
G04 #@! TO.P,U1,4*
G04 #@! TO.N,GND*
X71120000Y-108204000D03*
G04 #@! TO.P,U1,8*
G04 #@! TO.N,Net-(C10-Pad2)*
X78740000Y-100584000D03*
G04 #@! TD*
D21*
G04 #@! TO.P,RV1,3*
G04 #@! TO.N,/3V3_A*
X90000000Y-50000000D03*
G04 #@! TO.P,RV1,2*
G04 #@! TO.N,/pin23*
X95000000Y-50000000D03*
D22*
G04 #@! TO.P,RV1,1*
G04 #@! TO.N,GND*
X100000000Y-50000000D03*
G04 #@! TD*
G04 #@! TO.P,RV2,1*
G04 #@! TO.N,GND*
X80000000Y-50000000D03*
D21*
G04 #@! TO.P,RV2,2*
G04 #@! TO.N,/pin24*
X75000000Y-50000000D03*
G04 #@! TO.P,RV2,3*
G04 #@! TO.N,/3V3_A*
X70000000Y-50000000D03*
G04 #@! TD*
G04 #@! TO.P,RV3,3*
G04 #@! TO.N,/3V3_A*
X50000000Y-50000000D03*
G04 #@! TO.P,RV3,2*
G04 #@! TO.N,/pin25*
X55000000Y-50000000D03*
D22*
G04 #@! TO.P,RV3,1*
G04 #@! TO.N,GND*
X60000000Y-50000000D03*
G04 #@! TD*
G04 #@! TO.P,RV4,1*
G04 #@! TO.N,GND*
X100000000Y-75000000D03*
D21*
G04 #@! TO.P,RV4,2*
G04 #@! TO.N,/pin26*
X95000000Y-75000000D03*
G04 #@! TO.P,RV4,3*
G04 #@! TO.N,/3V3_A*
X90000000Y-75000000D03*
G04 #@! TD*
G04 #@! TO.P,RV5,3*
G04 #@! TO.N,/3V3_A*
X70000000Y-75000000D03*
G04 #@! TO.P,RV5,2*
G04 #@! TO.N,/pin27*
X75000000Y-75000000D03*
D22*
G04 #@! TO.P,RV5,1*
G04 #@! TO.N,GND*
X80000000Y-75000000D03*
G04 #@! TD*
G04 #@! TO.P,RV6,1*
G04 #@! TO.N,GND*
X60000000Y-75000000D03*
D21*
G04 #@! TO.P,RV6,2*
G04 #@! TO.N,/pin28*
X55000000Y-75000000D03*
G04 #@! TO.P,RV6,3*
G04 #@! TO.N,/3V3_A*
X50000000Y-75000000D03*
G04 #@! TD*
D23*
G04 #@! TO.P,U2,2*
G04 #@! TO.N,GND*
X75000000Y-78994000D03*
G04 #@! TO.P,U2,3*
G04 #@! TO.N,/VIN*
X72460000Y-78994000D03*
D24*
G04 #@! TO.P,U2,1*
G04 #@! TO.N,Net-(C10-Pad2)*
X77540000Y-78994000D03*
G04 #@! TD*
D19*
G04 #@! TO.P,BT1,2*
G04 #@! TO.N,Net-(BT1-Pad2)*
X50546000Y-100838000D03*
D11*
G04 #@! TO.P,BT1,1*
G04 #@! TO.N,Net-(BT1-Pad1)*
X50546000Y-98298000D03*
G04 #@! TD*
D17*
G04 #@! TO.P,D4,1*
G04 #@! TO.N,+9V*
X81788000Y-100584000D03*
D18*
G04 #@! TO.P,D4,2*
G04 #@! TO.N,Net-(BT1-Pad1)*
X91948000Y-100584000D03*
G04 #@! TD*
D11*
G04 #@! TO.P,J1,1*
G04 #@! TO.N,GND*
X99314000Y-89154000D03*
D19*
G04 #@! TO.P,J1,2*
G04 #@! TO.N,Net-(BT1-Pad2)*
X99314000Y-91694000D03*
G04 #@! TO.P,J1,3*
G04 #@! TO.N,/Input*
X99314000Y-94234000D03*
G04 #@! TD*
D11*
G04 #@! TO.P,J2,1*
G04 #@! TO.N,/Output*
X50546000Y-90424000D03*
D19*
G04 #@! TO.P,J2,2*
G04 #@! TO.N,GND*
X50546000Y-92964000D03*
G04 #@! TD*
D25*
G04 #@! TO.N,+9V*
X73154042Y-104645958D03*
G04 #@! TO.N,Net-(C10-Pad2)*
X55372000Y-107696000D03*
G04 #@! TO.N,/VIN*
X52832000Y-62992000D03*
G04 #@! TO.N,/pin33*
X90932000Y-57404000D03*
G04 #@! TO.N,/pin32*
X47752000Y-53340000D03*
G04 #@! TO.N,/pin30*
X97536000Y-75184000D03*
G04 #@! TO.N,/pin29*
X74676000Y-58928000D03*
G04 #@! TO.N,/pin27*
X81280000Y-59436000D03*
G04 #@! TO.N,/pin11*
X87884000Y-81280000D03*
G04 #@! TO.N,/pin10*
X83820000Y-85344000D03*
G04 #@! TO.N,/pin9*
X68072000Y-78232000D03*
G04 #@! TO.N,/pin8*
X64516000Y-77724000D03*
G04 #@! TO.N,Net-(C6-Pad1)*
X87376000Y-101092000D03*
G04 #@! TD*
D26*
G04 #@! TO.N,/Input*
X100614001Y-92933999D02*
X99314000Y-94234000D01*
X94459997Y-88372001D02*
X94977999Y-87853999D01*
X100524001Y-87853999D02*
X100614001Y-87943999D01*
X94977999Y-87853999D02*
X100524001Y-87853999D01*
X85589999Y-88372001D02*
X94459997Y-88372001D01*
X82969999Y-85752001D02*
X85589999Y-88372001D01*
X82969999Y-85509999D02*
X82969999Y-85752001D01*
X80937999Y-83477999D02*
X82969999Y-85509999D01*
X73614001Y-83477999D02*
X80937999Y-83477999D01*
X100614001Y-87943999D02*
X100614001Y-92933999D01*
X69088000Y-88004000D02*
X73614001Y-83477999D01*
G04 #@! TO.N,/Output*
X53222001Y-93100001D02*
X50546000Y-90424000D01*
X77467371Y-93100001D02*
X53222001Y-93100001D01*
X80518000Y-96150630D02*
X77467371Y-93100001D01*
X80518000Y-97282000D02*
X80518000Y-96150630D01*
G04 #@! TO.N,+9V*
X65766001Y-108438001D02*
X57912000Y-100584000D01*
X68124003Y-108438001D02*
X65766001Y-108438001D01*
X69576001Y-109889999D02*
X68124003Y-108438001D01*
X71284003Y-109889999D02*
X69576001Y-109889999D01*
X73154042Y-108019960D02*
X71284003Y-109889999D01*
X73154042Y-104645958D02*
X73154042Y-108019960D01*
G04 #@! TO.N,Net-(C10-Pad2)*
X72103999Y-121699999D02*
X72470000Y-122066000D01*
X66161997Y-121699999D02*
X72103999Y-121699999D01*
X56915999Y-112454001D02*
X66161997Y-121699999D01*
X56915999Y-109239999D02*
X56915999Y-112454001D01*
X55372000Y-107696000D02*
X56915999Y-109239999D01*
X80344000Y-84916000D02*
X80344000Y-84728000D01*
X81768001Y-86340001D02*
X80344000Y-84916000D01*
X81768001Y-97882001D02*
X81768001Y-86340001D01*
X81118001Y-98532001D02*
X81768001Y-97882001D01*
X80791999Y-98532001D02*
X81118001Y-98532001D01*
X78740000Y-100584000D02*
X80791999Y-98532001D01*
G04 #@! TO.N,/VIN*
X49899999Y-71210001D02*
X49899999Y-65924001D01*
X49989999Y-71300001D02*
X49899999Y-71210001D01*
X60941944Y-71300001D02*
X49989999Y-71300001D01*
X63665999Y-74024056D02*
X60941944Y-71300001D01*
X63665999Y-78132001D02*
X63665999Y-74024056D01*
X65277997Y-79743999D02*
X63665999Y-78132001D01*
X71710001Y-79743999D02*
X65277997Y-79743999D01*
X49899999Y-65924001D02*
X52832000Y-62992000D01*
X72460000Y-78994000D02*
X71710001Y-79743999D01*
G04 #@! TO.N,/pin33*
X71624000Y-57404000D02*
X68980000Y-54760000D01*
X90932000Y-57404000D02*
X71624000Y-57404000D01*
G04 #@! TO.N,/pin32*
X70100000Y-53340000D02*
X71520000Y-54760000D01*
X47752000Y-53340000D02*
X70100000Y-53340000D01*
G04 #@! TO.N,/pin30*
X90846003Y-56060001D02*
X77900001Y-56060001D01*
X100760001Y-65973999D02*
X90846003Y-56060001D01*
X77900001Y-56060001D02*
X76600000Y-54760000D01*
X100760001Y-70929997D02*
X100760001Y-65973999D01*
X97536000Y-74153998D02*
X100760001Y-70929997D01*
X97536000Y-75184000D02*
X97536000Y-74153998D01*
G04 #@! TO.N,/pin29*
X47599989Y-65976046D02*
X54648035Y-58928000D01*
X47599989Y-76105954D02*
X47599989Y-65976046D01*
X58616035Y-87122000D02*
X47599989Y-76105954D01*
X54648035Y-58928000D02*
X74676000Y-58928000D01*
X59944000Y-87122000D02*
X58616035Y-87122000D01*
G04 #@! TO.N,/pin27*
X48299999Y-66265999D02*
X53605998Y-60960000D01*
X52928007Y-80444009D02*
X48299999Y-75816001D01*
X48299999Y-75816001D02*
X48299999Y-66265999D01*
X72785993Y-80444009D02*
X52928007Y-80444009D01*
X73660001Y-79570001D02*
X72785993Y-80444009D01*
X73660001Y-76339999D02*
X73660001Y-79570001D01*
X75000000Y-75000000D02*
X73660001Y-76339999D01*
X53605998Y-60960000D02*
X79756000Y-60960000D01*
X79756000Y-60960000D02*
X81280000Y-59436000D01*
G04 #@! TO.N,/pin25*
X56700001Y-51700001D02*
X55000000Y-50000000D01*
X86240001Y-51700001D02*
X56700001Y-51700001D01*
X89300000Y-54760000D02*
X86240001Y-51700001D01*
G04 #@! TO.N,/pin11*
X77900001Y-71300001D02*
X76600000Y-70000000D01*
X79610003Y-71300001D02*
X77900001Y-71300001D01*
X87884000Y-79573998D02*
X79610003Y-71300001D01*
X87884000Y-81280000D02*
X87884000Y-79573998D01*
G04 #@! TO.N,/pin10*
X76700001Y-72640001D02*
X74060000Y-70000000D01*
X76700001Y-75010003D02*
X76700001Y-72640001D01*
X83820000Y-82130002D02*
X76700001Y-75010003D01*
X83820000Y-85344000D02*
X83820000Y-82130002D01*
G04 #@! TO.N,/pin9*
X68072000Y-72832002D02*
X70904002Y-70000000D01*
X70904002Y-70000000D02*
X71520000Y-70000000D01*
X68072000Y-78232000D02*
X68072000Y-72832002D01*
G04 #@! TO.N,/pin8*
X64516000Y-74464000D02*
X68980000Y-70000000D01*
X64516000Y-77724000D02*
X64516000Y-74464000D01*
G04 #@! TO.N,Net-(C6-Pad1)*
X81534000Y-106934000D02*
X81534000Y-107188000D01*
X87376000Y-101092000D02*
X81534000Y-106934000D01*
G04 #@! TO.N,Net-(BT1-Pad2)*
X97568001Y-93439999D02*
X99314000Y-91694000D01*
X91907999Y-93439999D02*
X97568001Y-93439999D01*
X80027999Y-101834001D02*
X80327999Y-102134001D01*
X83213997Y-102134001D02*
X91907999Y-93439999D01*
X78139999Y-101834001D02*
X80027999Y-101834001D01*
X75339997Y-99033999D02*
X78139999Y-101834001D01*
X80327999Y-102134001D02*
X83213997Y-102134001D01*
X52350001Y-99033999D02*
X75339997Y-99033999D01*
X50546000Y-100838000D02*
X52350001Y-99033999D01*
G04 #@! TO.N,Net-(BT1-Pad1)*
X52919999Y-105136001D02*
X49245999Y-101462001D01*
X57964003Y-105136001D02*
X52919999Y-105136001D01*
X64568003Y-111740001D02*
X57964003Y-105136001D01*
X68926001Y-111740001D02*
X64568003Y-111740001D01*
X70075993Y-110590009D02*
X68926001Y-111740001D01*
X79554003Y-109239999D02*
X78203993Y-110590009D01*
X49245999Y-99598001D02*
X50546000Y-98298000D01*
X78203993Y-110590009D02*
X70075993Y-110590009D01*
X83292001Y-109239999D02*
X79554003Y-109239999D01*
X49245999Y-101462001D02*
X49245999Y-99598001D01*
X91948000Y-100584000D02*
X83292001Y-109239999D01*
G04 #@! TD*
D27*
G04 #@! TO.N,GND*
X100747284Y-45846782D02*
X101470942Y-46044753D01*
X102148109Y-46367744D01*
X102757380Y-46805550D01*
X103279489Y-47344326D01*
X103697935Y-47967040D01*
X103999500Y-48654024D01*
X104176078Y-49389521D01*
X104223001Y-50028500D01*
X104223000Y-119965395D01*
X104153218Y-120747284D01*
X103955248Y-121470941D01*
X103632254Y-122148111D01*
X103194450Y-122757380D01*
X102655677Y-123279487D01*
X102032956Y-123697938D01*
X101345976Y-123999500D01*
X100610481Y-124176077D01*
X99971514Y-124223000D01*
X87635350Y-124223000D01*
X87650537Y-124204494D01*
X87709502Y-124094180D01*
X87745812Y-123974482D01*
X87758072Y-123850000D01*
X87755000Y-123285750D01*
X87596250Y-123127000D01*
X86397000Y-123127000D01*
X86397000Y-123147000D01*
X86143000Y-123147000D01*
X86143000Y-123127000D01*
X86123000Y-123127000D01*
X86123000Y-122873000D01*
X86143000Y-122873000D01*
X86143000Y-121673750D01*
X86397000Y-121673750D01*
X86397000Y-122873000D01*
X87596250Y-122873000D01*
X87755000Y-122714250D01*
X87758072Y-122150000D01*
X87745812Y-122025518D01*
X87709502Y-121905820D01*
X87650537Y-121795506D01*
X87571185Y-121698815D01*
X87474494Y-121619463D01*
X87364180Y-121560498D01*
X87244482Y-121524188D01*
X87120000Y-121511928D01*
X86555750Y-121515000D01*
X86397000Y-121673750D01*
X86143000Y-121673750D01*
X85984250Y-121515000D01*
X85420000Y-121511928D01*
X85295518Y-121524188D01*
X85175820Y-121560498D01*
X85065506Y-121619463D01*
X84968815Y-121698815D01*
X84889463Y-121795506D01*
X84830498Y-121905820D01*
X84805854Y-121987060D01*
X84671533Y-121852739D01*
X84429622Y-121691099D01*
X84160825Y-121579760D01*
X83875472Y-121523000D01*
X83584528Y-121523000D01*
X83299175Y-121579760D01*
X83030378Y-121691099D01*
X82788467Y-121852739D01*
X82582739Y-122058467D01*
X82421099Y-122300378D01*
X82309760Y-122569175D01*
X82253000Y-122854528D01*
X82253000Y-123145472D01*
X82309760Y-123430825D01*
X82421099Y-123699622D01*
X82582739Y-123941533D01*
X82788467Y-124147261D01*
X82901818Y-124223000D01*
X67098182Y-124223000D01*
X67211533Y-124147261D01*
X67417261Y-123941533D01*
X67578901Y-123699622D01*
X67690240Y-123430825D01*
X67747000Y-123145472D01*
X67747000Y-122854528D01*
X67691796Y-122576999D01*
X71137088Y-122576999D01*
X71205409Y-122741938D01*
X71361576Y-122975660D01*
X71560340Y-123174424D01*
X71794062Y-123330591D01*
X72053759Y-123438162D01*
X72329453Y-123493000D01*
X72610547Y-123493000D01*
X72886241Y-123438162D01*
X73145938Y-123330591D01*
X73379660Y-123174424D01*
X73495382Y-123058702D01*
X76656903Y-123058702D01*
X76728486Y-123302671D01*
X76983996Y-123423571D01*
X77258184Y-123492300D01*
X77540512Y-123506217D01*
X77820130Y-123464787D01*
X78086292Y-123369603D01*
X78211514Y-123302671D01*
X78283097Y-123058702D01*
X77470000Y-122245605D01*
X76656903Y-123058702D01*
X73495382Y-123058702D01*
X73578424Y-122975660D01*
X73734591Y-122741938D01*
X73842162Y-122482241D01*
X73897000Y-122206547D01*
X73897000Y-122136512D01*
X76029783Y-122136512D01*
X76071213Y-122416130D01*
X76166397Y-122682292D01*
X76233329Y-122807514D01*
X76477298Y-122879097D01*
X77290395Y-122066000D01*
X77649605Y-122066000D01*
X78462702Y-122879097D01*
X78706671Y-122807514D01*
X78827571Y-122552004D01*
X78896300Y-122277816D01*
X78910217Y-121995488D01*
X78868787Y-121715870D01*
X78773603Y-121449708D01*
X78706671Y-121324486D01*
X78462702Y-121252903D01*
X77649605Y-122066000D01*
X77290395Y-122066000D01*
X76477298Y-121252903D01*
X76233329Y-121324486D01*
X76112429Y-121579996D01*
X76043700Y-121854184D01*
X76029783Y-122136512D01*
X73897000Y-122136512D01*
X73897000Y-121925453D01*
X73842162Y-121649759D01*
X73734591Y-121390062D01*
X73578424Y-121156340D01*
X73495382Y-121073298D01*
X76656903Y-121073298D01*
X77470000Y-121886395D01*
X78283097Y-121073298D01*
X78211514Y-120829329D01*
X77956004Y-120708429D01*
X77681816Y-120639700D01*
X77399488Y-120625783D01*
X77119870Y-120667213D01*
X76853708Y-120762397D01*
X76728486Y-120829329D01*
X76656903Y-121073298D01*
X73495382Y-121073298D01*
X73379660Y-120957576D01*
X73145938Y-120801409D01*
X72886241Y-120693838D01*
X72610547Y-120639000D01*
X72329453Y-120639000D01*
X72053759Y-120693838D01*
X71794062Y-120801409D01*
X71761750Y-120822999D01*
X66525263Y-120822999D01*
X65632915Y-119930651D01*
X65723306Y-119893210D01*
X65973406Y-119726099D01*
X66186099Y-119513406D01*
X66353210Y-119263306D01*
X66468319Y-118985410D01*
X66527000Y-118690396D01*
X66527000Y-118389604D01*
X66468319Y-118094590D01*
X66353210Y-117816694D01*
X66186099Y-117566594D01*
X66117193Y-117497688D01*
X66144180Y-117489502D01*
X66254494Y-117430537D01*
X66351185Y-117351185D01*
X66430537Y-117254494D01*
X66489502Y-117144180D01*
X66525812Y-117024482D01*
X66538072Y-116900000D01*
X83461928Y-116900000D01*
X83474188Y-117024482D01*
X83510498Y-117144180D01*
X83569463Y-117254494D01*
X83648815Y-117351185D01*
X83745506Y-117430537D01*
X83855820Y-117489502D01*
X83882807Y-117497688D01*
X83813901Y-117566594D01*
X83646790Y-117816694D01*
X83531681Y-118094590D01*
X83473000Y-118389604D01*
X83473000Y-118690396D01*
X83531681Y-118985410D01*
X83646790Y-119263306D01*
X83813901Y-119513406D01*
X84026594Y-119726099D01*
X84276694Y-119893210D01*
X84554590Y-120008319D01*
X84849604Y-120067000D01*
X85150396Y-120067000D01*
X85445410Y-120008319D01*
X85723306Y-119893210D01*
X85973406Y-119726099D01*
X86186099Y-119513406D01*
X86353210Y-119263306D01*
X86468319Y-118985410D01*
X86527000Y-118690396D01*
X86527000Y-118389604D01*
X86468319Y-118094590D01*
X86353210Y-117816694D01*
X86186099Y-117566594D01*
X86117193Y-117497688D01*
X86144180Y-117489502D01*
X86254494Y-117430537D01*
X86351185Y-117351185D01*
X86430537Y-117254494D01*
X86489502Y-117144180D01*
X86525812Y-117024482D01*
X86538072Y-116900000D01*
X86535000Y-116285750D01*
X86376250Y-116127000D01*
X85127000Y-116127000D01*
X85127000Y-116147000D01*
X84873000Y-116147000D01*
X84873000Y-116127000D01*
X83623750Y-116127000D01*
X83465000Y-116285750D01*
X83461928Y-116900000D01*
X66538072Y-116900000D01*
X66535000Y-116285750D01*
X66376250Y-116127000D01*
X65127000Y-116127000D01*
X65127000Y-116147000D01*
X64873000Y-116147000D01*
X64873000Y-116127000D01*
X63623750Y-116127000D01*
X63465000Y-116285750D01*
X63461928Y-116900000D01*
X63474188Y-117024482D01*
X63510498Y-117144180D01*
X63569463Y-117254494D01*
X63648815Y-117351185D01*
X63745506Y-117430537D01*
X63855820Y-117489502D01*
X63882807Y-117497688D01*
X63813901Y-117566594D01*
X63646790Y-117816694D01*
X63609349Y-117907085D01*
X60802264Y-115100000D01*
X63461928Y-115100000D01*
X63465000Y-115714250D01*
X63623750Y-115873000D01*
X64873000Y-115873000D01*
X64873000Y-114623750D01*
X65127000Y-114623750D01*
X65127000Y-115873000D01*
X66376250Y-115873000D01*
X66535000Y-115714250D01*
X66538072Y-115100000D01*
X83461928Y-115100000D01*
X83465000Y-115714250D01*
X83623750Y-115873000D01*
X84873000Y-115873000D01*
X84873000Y-114623750D01*
X85127000Y-114623750D01*
X85127000Y-115873000D01*
X86376250Y-115873000D01*
X86535000Y-115714250D01*
X86538072Y-115100000D01*
X86525812Y-114975518D01*
X86489502Y-114855820D01*
X86430537Y-114745506D01*
X86351185Y-114648815D01*
X86254494Y-114569463D01*
X86144180Y-114510498D01*
X86024482Y-114474188D01*
X85900000Y-114461928D01*
X85285750Y-114465000D01*
X85127000Y-114623750D01*
X84873000Y-114623750D01*
X84714250Y-114465000D01*
X84100000Y-114461928D01*
X83975518Y-114474188D01*
X83855820Y-114510498D01*
X83745506Y-114569463D01*
X83648815Y-114648815D01*
X83569463Y-114745506D01*
X83510498Y-114855820D01*
X83474188Y-114975518D01*
X83461928Y-115100000D01*
X66538072Y-115100000D01*
X66525812Y-114975518D01*
X66489502Y-114855820D01*
X66430537Y-114745506D01*
X66351185Y-114648815D01*
X66254494Y-114569463D01*
X66144180Y-114510498D01*
X66024482Y-114474188D01*
X65900000Y-114461928D01*
X65285750Y-114465000D01*
X65127000Y-114623750D01*
X64873000Y-114623750D01*
X64714250Y-114465000D01*
X64100000Y-114461928D01*
X63975518Y-114474188D01*
X63855820Y-114510498D01*
X63745506Y-114569463D01*
X63648815Y-114648815D01*
X63569463Y-114745506D01*
X63510498Y-114855820D01*
X63474188Y-114975518D01*
X63461928Y-115100000D01*
X60802264Y-115100000D01*
X58562966Y-112860702D01*
X71656903Y-112860702D01*
X71728486Y-113104671D01*
X71983996Y-113225571D01*
X72258184Y-113294300D01*
X72540512Y-113308217D01*
X72820130Y-113266787D01*
X73086292Y-113171603D01*
X73211514Y-113104671D01*
X73283097Y-112860702D01*
X72470000Y-112047605D01*
X71656903Y-112860702D01*
X58562966Y-112860702D01*
X57792999Y-112090736D01*
X57792999Y-111875897D01*
X57954184Y-111916300D01*
X58236512Y-111930217D01*
X58516130Y-111888787D01*
X58782292Y-111793603D01*
X58907514Y-111726671D01*
X58979097Y-111482702D01*
X58166000Y-110669605D01*
X58151858Y-110683748D01*
X57972253Y-110504143D01*
X57986395Y-110490000D01*
X58345605Y-110490000D01*
X59158702Y-111303097D01*
X59402671Y-111231514D01*
X59523571Y-110976004D01*
X59592300Y-110701816D01*
X59606217Y-110419488D01*
X59564787Y-110139870D01*
X59469603Y-109873708D01*
X59402671Y-109748486D01*
X59158702Y-109676903D01*
X58345605Y-110490000D01*
X57986395Y-110490000D01*
X57972253Y-110475858D01*
X58151858Y-110296253D01*
X58166000Y-110310395D01*
X58979097Y-109497298D01*
X58907514Y-109253329D01*
X58652004Y-109132429D01*
X58377816Y-109063700D01*
X58095488Y-109049783D01*
X57815870Y-109091213D01*
X57783720Y-109102710D01*
X57780309Y-109068077D01*
X57730161Y-108902762D01*
X57648726Y-108750407D01*
X57539132Y-108616866D01*
X57505668Y-108589403D01*
X56371162Y-107454897D01*
X56359533Y-107396435D01*
X56282115Y-107209533D01*
X56169723Y-107041326D01*
X56026674Y-106898277D01*
X55858467Y-106785885D01*
X55671565Y-106708467D01*
X55473151Y-106669000D01*
X55270849Y-106669000D01*
X55072435Y-106708467D01*
X54885533Y-106785885D01*
X54717326Y-106898277D01*
X54574277Y-107041326D01*
X54461885Y-107209533D01*
X54384467Y-107396435D01*
X54345000Y-107594849D01*
X54345000Y-107797151D01*
X54384467Y-107995565D01*
X54461885Y-108182467D01*
X54574277Y-108350674D01*
X54717326Y-108493723D01*
X54885533Y-108606115D01*
X55072435Y-108683533D01*
X55130897Y-108695162D01*
X55412047Y-108976312D01*
X55329816Y-108955700D01*
X55047488Y-108941783D01*
X54767870Y-108983213D01*
X54501708Y-109078397D01*
X54376486Y-109145329D01*
X54304903Y-109389298D01*
X55118000Y-110202395D01*
X55132143Y-110188253D01*
X55311748Y-110367858D01*
X55297605Y-110382000D01*
X55311748Y-110396143D01*
X55132143Y-110575748D01*
X55118000Y-110561605D01*
X54304903Y-111374702D01*
X54376486Y-111618671D01*
X54631996Y-111739571D01*
X54906184Y-111808300D01*
X55188512Y-111822217D01*
X55468130Y-111780787D01*
X55734292Y-111685603D01*
X55859514Y-111618671D01*
X55931097Y-111374704D01*
X56039000Y-111482607D01*
X56039000Y-112410912D01*
X56034756Y-112454001D01*
X56051689Y-112625923D01*
X56101837Y-112791237D01*
X56183273Y-112943593D01*
X56265405Y-113043672D01*
X56265408Y-113043675D01*
X56292867Y-113077134D01*
X56326326Y-113104593D01*
X64763964Y-121542232D01*
X64704482Y-121524188D01*
X64580000Y-121511928D01*
X64015750Y-121515000D01*
X63857000Y-121673750D01*
X63857000Y-122873000D01*
X63877000Y-122873000D01*
X63877000Y-123127000D01*
X63857000Y-123127000D01*
X63857000Y-123147000D01*
X63603000Y-123147000D01*
X63603000Y-123127000D01*
X62403750Y-123127000D01*
X62245000Y-123285750D01*
X62241928Y-123850000D01*
X62254188Y-123974482D01*
X62290498Y-124094180D01*
X62349463Y-124204494D01*
X62364650Y-124223000D01*
X50034605Y-124223000D01*
X49252716Y-124153218D01*
X48529059Y-123955248D01*
X47851889Y-123632254D01*
X47242620Y-123194450D01*
X46720513Y-122655677D01*
X46380713Y-122150000D01*
X62241928Y-122150000D01*
X62245000Y-122714250D01*
X62403750Y-122873000D01*
X63603000Y-122873000D01*
X63603000Y-121673750D01*
X63444250Y-121515000D01*
X62880000Y-121511928D01*
X62755518Y-121524188D01*
X62635820Y-121560498D01*
X62525506Y-121619463D01*
X62428815Y-121698815D01*
X62349463Y-121795506D01*
X62290498Y-121905820D01*
X62254188Y-122025518D01*
X62241928Y-122150000D01*
X46380713Y-122150000D01*
X46302062Y-122032956D01*
X46000500Y-121345976D01*
X45823923Y-120610481D01*
X45777000Y-119971514D01*
X45777000Y-110241453D01*
X48691000Y-110241453D01*
X48691000Y-110522547D01*
X48745838Y-110798241D01*
X48853409Y-111057938D01*
X49009576Y-111291660D01*
X49208340Y-111490424D01*
X49442062Y-111646591D01*
X49701759Y-111754162D01*
X49977453Y-111809000D01*
X50258547Y-111809000D01*
X50534241Y-111754162D01*
X50793938Y-111646591D01*
X51027660Y-111490424D01*
X51226424Y-111291660D01*
X51382591Y-111057938D01*
X51490162Y-110798241D01*
X51545000Y-110522547D01*
X51545000Y-110452512D01*
X53677783Y-110452512D01*
X53719213Y-110732130D01*
X53814397Y-110998292D01*
X53881329Y-111123514D01*
X54125298Y-111195097D01*
X54938395Y-110382000D01*
X54125298Y-109568903D01*
X53881329Y-109640486D01*
X53760429Y-109895996D01*
X53691700Y-110170184D01*
X53677783Y-110452512D01*
X51545000Y-110452512D01*
X51545000Y-110241453D01*
X51490162Y-109965759D01*
X51382591Y-109706062D01*
X51226424Y-109472340D01*
X51027660Y-109273576D01*
X50793938Y-109117409D01*
X50534241Y-109009838D01*
X50258547Y-108955000D01*
X49977453Y-108955000D01*
X49701759Y-109009838D01*
X49442062Y-109117409D01*
X49208340Y-109273576D01*
X49009576Y-109472340D01*
X48853409Y-109706062D01*
X48745838Y-109965759D01*
X48691000Y-110241453D01*
X45777000Y-110241453D01*
X45777000Y-95425527D01*
X54294078Y-95425527D01*
X54347466Y-95654201D01*
X54577374Y-95760095D01*
X54823524Y-95819102D01*
X55076455Y-95828952D01*
X55326449Y-95789270D01*
X55563896Y-95701578D01*
X55652534Y-95654201D01*
X55705922Y-95425527D01*
X64294078Y-95425527D01*
X64347466Y-95654201D01*
X64577374Y-95760095D01*
X64823524Y-95819102D01*
X65076455Y-95828952D01*
X65326449Y-95789270D01*
X65563896Y-95701578D01*
X65652534Y-95654201D01*
X65671138Y-95574512D01*
X67647783Y-95574512D01*
X67689213Y-95854130D01*
X67784397Y-96120292D01*
X67851329Y-96245514D01*
X68095298Y-96317097D01*
X68908395Y-95504000D01*
X69267605Y-95504000D01*
X70080702Y-96317097D01*
X70324671Y-96245514D01*
X70445571Y-95990004D01*
X70514300Y-95715816D01*
X70528217Y-95433488D01*
X70486787Y-95153870D01*
X70391603Y-94887708D01*
X70324671Y-94762486D01*
X70080702Y-94690903D01*
X69267605Y-95504000D01*
X68908395Y-95504000D01*
X68095298Y-94690903D01*
X67851329Y-94762486D01*
X67730429Y-95017996D01*
X67661700Y-95292184D01*
X67647783Y-95574512D01*
X65671138Y-95574512D01*
X65705922Y-95425527D01*
X65000000Y-94719605D01*
X64294078Y-95425527D01*
X55705922Y-95425527D01*
X55000000Y-94719605D01*
X54294078Y-95425527D01*
X45777000Y-95425527D01*
X45777000Y-93320890D01*
X49104524Y-93320890D01*
X49149175Y-93468099D01*
X49274359Y-93730920D01*
X49448412Y-93964269D01*
X49664645Y-94159178D01*
X49914748Y-94308157D01*
X50189109Y-94405481D01*
X50419000Y-94284814D01*
X50419000Y-93091000D01*
X49225845Y-93091000D01*
X49104524Y-93320890D01*
X45777000Y-93320890D01*
X45777000Y-65976046D01*
X46718746Y-65976046D01*
X46722990Y-66019136D01*
X46722989Y-76062874D01*
X46718746Y-76105954D01*
X46735679Y-76277876D01*
X46774446Y-76405672D01*
X46785827Y-76443190D01*
X46867262Y-76595545D01*
X46976856Y-76729087D01*
X47010321Y-76756551D01*
X57965438Y-87711668D01*
X57992902Y-87745133D01*
X58126443Y-87854727D01*
X58278798Y-87936162D01*
X58444112Y-87986310D01*
X58616035Y-88003243D01*
X58659114Y-87999000D01*
X58813753Y-87999000D01*
X58835576Y-88031660D01*
X59034340Y-88230424D01*
X59268062Y-88386591D01*
X59527759Y-88494162D01*
X59803453Y-88549000D01*
X60084547Y-88549000D01*
X60360241Y-88494162D01*
X60619938Y-88386591D01*
X60853660Y-88230424D01*
X61052424Y-88031660D01*
X61208591Y-87797938D01*
X61316162Y-87538241D01*
X61371000Y-87262547D01*
X61371000Y-86981453D01*
X61316162Y-86705759D01*
X61208591Y-86446062D01*
X61052424Y-86212340D01*
X60853660Y-86013576D01*
X60619938Y-85857409D01*
X60360241Y-85749838D01*
X60213762Y-85720702D01*
X63782903Y-85720702D01*
X63854486Y-85964671D01*
X64109996Y-86085571D01*
X64384184Y-86154300D01*
X64666512Y-86168217D01*
X64946130Y-86126787D01*
X65212292Y-86031603D01*
X65337514Y-85964671D01*
X65409097Y-85720702D01*
X64596000Y-84907605D01*
X63782903Y-85720702D01*
X60213762Y-85720702D01*
X60084547Y-85695000D01*
X59803453Y-85695000D01*
X59527759Y-85749838D01*
X59268062Y-85857409D01*
X59034340Y-86013576D01*
X58891108Y-86156808D01*
X56593753Y-83859453D01*
X58517000Y-83859453D01*
X58517000Y-84140547D01*
X58571838Y-84416241D01*
X58679409Y-84675938D01*
X58835576Y-84909660D01*
X59034340Y-85108424D01*
X59268062Y-85264591D01*
X59527759Y-85372162D01*
X59803453Y-85427000D01*
X60084547Y-85427000D01*
X60360241Y-85372162D01*
X60619938Y-85264591D01*
X60853660Y-85108424D01*
X61052424Y-84909660D01*
X61126690Y-84798512D01*
X63155783Y-84798512D01*
X63197213Y-85078130D01*
X63292397Y-85344292D01*
X63359329Y-85469514D01*
X63603298Y-85541097D01*
X64416395Y-84728000D01*
X64775605Y-84728000D01*
X65588702Y-85541097D01*
X65832671Y-85469514D01*
X65953571Y-85214004D01*
X66022300Y-84939816D01*
X66036217Y-84657488D01*
X65994787Y-84377870D01*
X65899603Y-84111708D01*
X65832671Y-83986486D01*
X65588702Y-83914903D01*
X64775605Y-84728000D01*
X64416395Y-84728000D01*
X63603298Y-83914903D01*
X63359329Y-83986486D01*
X63238429Y-84241996D01*
X63169700Y-84516184D01*
X63155783Y-84798512D01*
X61126690Y-84798512D01*
X61208591Y-84675938D01*
X61316162Y-84416241D01*
X61371000Y-84140547D01*
X61371000Y-83859453D01*
X61346305Y-83735298D01*
X63782903Y-83735298D01*
X64596000Y-84548395D01*
X65409097Y-83735298D01*
X65337514Y-83491329D01*
X65082004Y-83370429D01*
X64807816Y-83301700D01*
X64525488Y-83287783D01*
X64245870Y-83329213D01*
X63979708Y-83424397D01*
X63854486Y-83491329D01*
X63782903Y-83735298D01*
X61346305Y-83735298D01*
X61316162Y-83583759D01*
X61208591Y-83324062D01*
X61052424Y-83090340D01*
X60853660Y-82891576D01*
X60619938Y-82735409D01*
X60360241Y-82627838D01*
X60084547Y-82573000D01*
X59803453Y-82573000D01*
X59527759Y-82627838D01*
X59268062Y-82735409D01*
X59034340Y-82891576D01*
X58835576Y-83090340D01*
X58679409Y-83324062D01*
X58571838Y-83583759D01*
X58517000Y-83859453D01*
X56593753Y-83859453D01*
X54055309Y-81321009D01*
X72742914Y-81321009D01*
X72785993Y-81325252D01*
X72829072Y-81321009D01*
X72881554Y-81315840D01*
X72957915Y-81308319D01*
X73123230Y-81258171D01*
X73275585Y-81176736D01*
X73409126Y-81067142D01*
X73436589Y-81033678D01*
X74249674Y-80220593D01*
X74283134Y-80193134D01*
X74287557Y-80187745D01*
X74288137Y-80189860D01*
X74535116Y-80305760D01*
X74799960Y-80371250D01*
X75072492Y-80383812D01*
X75342238Y-80342965D01*
X75598832Y-80250277D01*
X75711863Y-80189860D01*
X75777388Y-79950993D01*
X75000000Y-79173605D01*
X74985858Y-79187748D01*
X74806253Y-79008143D01*
X74820395Y-78994000D01*
X74806253Y-78979858D01*
X74985858Y-78800253D01*
X75000000Y-78814395D01*
X75777388Y-78037007D01*
X75711863Y-77798140D01*
X75464884Y-77682240D01*
X75200040Y-77616750D01*
X74927508Y-77604188D01*
X74657762Y-77645035D01*
X74537001Y-77688657D01*
X74537001Y-76821676D01*
X74815132Y-76877000D01*
X75184868Y-76877000D01*
X75547501Y-76804868D01*
X75889093Y-76663376D01*
X76196518Y-76457961D01*
X76457961Y-76196518D01*
X76533379Y-76083646D01*
X78063700Y-77613967D01*
X76790000Y-77613967D01*
X76667087Y-77626073D01*
X76548897Y-77661925D01*
X76439972Y-77720147D01*
X76344499Y-77798499D01*
X76266147Y-77893972D01*
X76207925Y-78002897D01*
X76172073Y-78121087D01*
X76159967Y-78244000D01*
X76159967Y-78272291D01*
X75956993Y-78216612D01*
X75179605Y-78994000D01*
X75956993Y-79771388D01*
X76159967Y-79715709D01*
X76159967Y-79744000D01*
X76172073Y-79866913D01*
X76207925Y-79985103D01*
X76266147Y-80094028D01*
X76344499Y-80189501D01*
X76439972Y-80267853D01*
X76548897Y-80326075D01*
X76667087Y-80361927D01*
X76790000Y-80374033D01*
X78290000Y-80374033D01*
X78412913Y-80361927D01*
X78531103Y-80326075D01*
X78640028Y-80267853D01*
X78735501Y-80189501D01*
X78813853Y-80094028D01*
X78872075Y-79985103D01*
X78907927Y-79866913D01*
X78920033Y-79744000D01*
X78920033Y-78470300D01*
X82943001Y-82493268D01*
X82943000Y-84242735D01*
X81588596Y-82888331D01*
X81561132Y-82854866D01*
X81427591Y-82745272D01*
X81275236Y-82663837D01*
X81109921Y-82613689D01*
X80981078Y-82600999D01*
X80937999Y-82596756D01*
X80894920Y-82600999D01*
X73657080Y-82600999D01*
X73614001Y-82596756D01*
X73442078Y-82613689D01*
X73395436Y-82627838D01*
X73276764Y-82663837D01*
X73124409Y-82745272D01*
X72990868Y-82854866D01*
X72963409Y-82888325D01*
X71023000Y-84828734D01*
X71023000Y-84587453D01*
X70968162Y-84311759D01*
X70860591Y-84052062D01*
X70704424Y-83818340D01*
X70505660Y-83619576D01*
X70271938Y-83463409D01*
X70012241Y-83355838D01*
X69736547Y-83301000D01*
X69455453Y-83301000D01*
X69179759Y-83355838D01*
X68920062Y-83463409D01*
X68686340Y-83619576D01*
X68487576Y-83818340D01*
X68331409Y-84052062D01*
X68223838Y-84311759D01*
X68169000Y-84587453D01*
X68169000Y-84868547D01*
X68223838Y-85144241D01*
X68331409Y-85403938D01*
X68487576Y-85637660D01*
X68686340Y-85836424D01*
X68920062Y-85992591D01*
X69179759Y-86100162D01*
X69455453Y-86155000D01*
X69696735Y-86155000D01*
X69267072Y-86584663D01*
X69228547Y-86577000D01*
X68947453Y-86577000D01*
X68671759Y-86631838D01*
X68412062Y-86739409D01*
X68178340Y-86895576D01*
X67979576Y-87094340D01*
X67823409Y-87328062D01*
X67715838Y-87587759D01*
X67661000Y-87863453D01*
X67661000Y-88144547D01*
X67715838Y-88420241D01*
X67823409Y-88679938D01*
X67979576Y-88913660D01*
X68178340Y-89112424D01*
X68412062Y-89268591D01*
X68671759Y-89376162D01*
X68947453Y-89431000D01*
X69228547Y-89431000D01*
X69504241Y-89376162D01*
X69763938Y-89268591D01*
X69997660Y-89112424D01*
X70196424Y-88913660D01*
X70352591Y-88679938D01*
X70460162Y-88420241D01*
X70515000Y-88144547D01*
X70515000Y-87863453D01*
X70507337Y-87824928D01*
X70861225Y-87471040D01*
X79126091Y-87471040D01*
X79220930Y-87735881D01*
X79365615Y-87977131D01*
X79554586Y-88185519D01*
X79780580Y-88353037D01*
X80034913Y-88473246D01*
X80168961Y-88513904D01*
X80391000Y-88391915D01*
X80391000Y-87249000D01*
X79247376Y-87249000D01*
X79126091Y-87471040D01*
X70861225Y-87471040D01*
X73977267Y-84354999D01*
X78963237Y-84354999D01*
X78917000Y-84587453D01*
X78917000Y-84868547D01*
X78971838Y-85144241D01*
X79079409Y-85403938D01*
X79235576Y-85637660D01*
X79434340Y-85836424D01*
X79655132Y-85983951D01*
X79554586Y-86058481D01*
X79365615Y-86266869D01*
X79220930Y-86508119D01*
X79126091Y-86772960D01*
X79247376Y-86995000D01*
X80391000Y-86995000D01*
X80391000Y-86975000D01*
X80645000Y-86975000D01*
X80645000Y-86995000D01*
X80665000Y-86995000D01*
X80665000Y-87249000D01*
X80645000Y-87249000D01*
X80645000Y-88391915D01*
X80867039Y-88513904D01*
X80891002Y-88506636D01*
X80891001Y-95283365D01*
X78117968Y-92510333D01*
X78090504Y-92476868D01*
X77956963Y-92367274D01*
X77804608Y-92285839D01*
X77639293Y-92235691D01*
X77510450Y-92223001D01*
X77467371Y-92218758D01*
X77424292Y-92223001D01*
X66257660Y-92223001D01*
X66277000Y-92125774D01*
X66277000Y-91874226D01*
X66227926Y-91627513D01*
X66131663Y-91395114D01*
X65991911Y-91185960D01*
X65814040Y-91008089D01*
X65604886Y-90868337D01*
X65372487Y-90772074D01*
X65160966Y-90730000D01*
X65372487Y-90687926D01*
X65604886Y-90591663D01*
X65814040Y-90451911D01*
X65991911Y-90274040D01*
X66131663Y-90064886D01*
X66227926Y-89832487D01*
X66277000Y-89585774D01*
X66277000Y-89334226D01*
X66227926Y-89087513D01*
X66131663Y-88855114D01*
X65991911Y-88645960D01*
X65814040Y-88468089D01*
X65604886Y-88328337D01*
X65372487Y-88232074D01*
X65125774Y-88183000D01*
X64874226Y-88183000D01*
X64627513Y-88232074D01*
X64395114Y-88328337D01*
X64185960Y-88468089D01*
X64008089Y-88645960D01*
X63868337Y-88855114D01*
X63772074Y-89087513D01*
X63723000Y-89334226D01*
X63723000Y-89585774D01*
X63772074Y-89832487D01*
X63868337Y-90064886D01*
X64008089Y-90274040D01*
X64185960Y-90451911D01*
X64395114Y-90591663D01*
X64627513Y-90687926D01*
X64839034Y-90730000D01*
X64627513Y-90772074D01*
X64395114Y-90868337D01*
X64185960Y-91008089D01*
X64008089Y-91185960D01*
X63868337Y-91395114D01*
X63772074Y-91627513D01*
X63723000Y-91874226D01*
X63723000Y-92125774D01*
X63742340Y-92223001D01*
X56257660Y-92223001D01*
X56277000Y-92125774D01*
X56277000Y-91874226D01*
X56227926Y-91627513D01*
X56131663Y-91395114D01*
X55991911Y-91185960D01*
X55814040Y-91008089D01*
X55604886Y-90868337D01*
X55372487Y-90772074D01*
X55160966Y-90730000D01*
X55372487Y-90687926D01*
X55604886Y-90591663D01*
X55814040Y-90451911D01*
X55991911Y-90274040D01*
X56131663Y-90064886D01*
X56227926Y-89832487D01*
X56277000Y-89585774D01*
X56277000Y-89334226D01*
X56227926Y-89087513D01*
X56131663Y-88855114D01*
X55991911Y-88645960D01*
X55814040Y-88468089D01*
X55604886Y-88328337D01*
X55372487Y-88232074D01*
X55125774Y-88183000D01*
X54874226Y-88183000D01*
X54627513Y-88232074D01*
X54395114Y-88328337D01*
X54185960Y-88468089D01*
X54008089Y-88645960D01*
X53868337Y-88855114D01*
X53772074Y-89087513D01*
X53723000Y-89334226D01*
X53723000Y-89585774D01*
X53772074Y-89832487D01*
X53868337Y-90064886D01*
X54008089Y-90274040D01*
X54185960Y-90451911D01*
X54395114Y-90591663D01*
X54627513Y-90687926D01*
X54839034Y-90730000D01*
X54627513Y-90772074D01*
X54395114Y-90868337D01*
X54185960Y-91008089D01*
X54008089Y-91185960D01*
X53868337Y-91395114D01*
X53772074Y-91627513D01*
X53723000Y-91874226D01*
X53723000Y-92125774D01*
X53742340Y-92223001D01*
X53585267Y-92223001D01*
X52026033Y-90663768D01*
X52026033Y-89574000D01*
X52013927Y-89451087D01*
X51978075Y-89332897D01*
X51919853Y-89223972D01*
X51841501Y-89128499D01*
X51746028Y-89050147D01*
X51637103Y-88991925D01*
X51518913Y-88956073D01*
X51396000Y-88943967D01*
X49696000Y-88943967D01*
X49573087Y-88956073D01*
X49454897Y-88991925D01*
X49345972Y-89050147D01*
X49250499Y-89128499D01*
X49172147Y-89223972D01*
X49113925Y-89332897D01*
X49078073Y-89451087D01*
X49065967Y-89574000D01*
X49065967Y-91274000D01*
X49078073Y-91396913D01*
X49113925Y-91515103D01*
X49172147Y-91624028D01*
X49250499Y-91719501D01*
X49345972Y-91797853D01*
X49454897Y-91856075D01*
X49539406Y-91881710D01*
X49448412Y-91963731D01*
X49274359Y-92197080D01*
X49149175Y-92459901D01*
X49104524Y-92607110D01*
X49225845Y-92837000D01*
X50419000Y-92837000D01*
X50419000Y-92817000D01*
X50673000Y-92817000D01*
X50673000Y-92837000D01*
X50693000Y-92837000D01*
X50693000Y-93091000D01*
X50673000Y-93091000D01*
X50673000Y-94284814D01*
X50902891Y-94405481D01*
X51177252Y-94308157D01*
X51427355Y-94159178D01*
X51643588Y-93964269D01*
X51817641Y-93730920D01*
X51942825Y-93468099D01*
X51987476Y-93320890D01*
X51866156Y-93091002D01*
X51972736Y-93091002D01*
X52571409Y-93689675D01*
X52598868Y-93723134D01*
X52632327Y-93750593D01*
X52632329Y-93750595D01*
X52690469Y-93798309D01*
X52732409Y-93832728D01*
X52805336Y-93871708D01*
X52884764Y-93914163D01*
X53050078Y-93964311D01*
X53222001Y-93981244D01*
X53265080Y-93977001D01*
X53844560Y-93977001D01*
X53779905Y-94117374D01*
X53720898Y-94363524D01*
X53711048Y-94616455D01*
X53750730Y-94866449D01*
X53838422Y-95103896D01*
X53885799Y-95192534D01*
X54114473Y-95245922D01*
X54820395Y-94540000D01*
X54806253Y-94525858D01*
X54985858Y-94346253D01*
X55000000Y-94360395D01*
X55014143Y-94346253D01*
X55193748Y-94525858D01*
X55179605Y-94540000D01*
X55885527Y-95245922D01*
X56114201Y-95192534D01*
X56220095Y-94962626D01*
X56279102Y-94716476D01*
X56288952Y-94463545D01*
X56249270Y-94213551D01*
X56161909Y-93977001D01*
X63844560Y-93977001D01*
X63779905Y-94117374D01*
X63720898Y-94363524D01*
X63711048Y-94616455D01*
X63750730Y-94866449D01*
X63838422Y-95103896D01*
X63885799Y-95192534D01*
X64114473Y-95245922D01*
X64820395Y-94540000D01*
X64806253Y-94525858D01*
X64985858Y-94346253D01*
X65000000Y-94360395D01*
X65014143Y-94346253D01*
X65193748Y-94525858D01*
X65179605Y-94540000D01*
X65885527Y-95245922D01*
X66114201Y-95192534D01*
X66220095Y-94962626D01*
X66279102Y-94716476D01*
X66287092Y-94511298D01*
X68274903Y-94511298D01*
X69088000Y-95324395D01*
X69901097Y-94511298D01*
X69829514Y-94267329D01*
X69574004Y-94146429D01*
X69299816Y-94077700D01*
X69017488Y-94063783D01*
X68737870Y-94105213D01*
X68471708Y-94200397D01*
X68346486Y-94267329D01*
X68274903Y-94511298D01*
X66287092Y-94511298D01*
X66288952Y-94463545D01*
X66249270Y-94213551D01*
X66161909Y-93977001D01*
X72600256Y-93977001D01*
X72588429Y-94001996D01*
X72519700Y-94276184D01*
X72505783Y-94558512D01*
X72547213Y-94838130D01*
X72642397Y-95104292D01*
X72709329Y-95229514D01*
X72953298Y-95301097D01*
X73766395Y-94488000D01*
X73752253Y-94473858D01*
X73931858Y-94294253D01*
X73946000Y-94308395D01*
X73960143Y-94294253D01*
X74139748Y-94473858D01*
X74125605Y-94488000D01*
X74139748Y-94502143D01*
X73960143Y-94681748D01*
X73946000Y-94667605D01*
X73132903Y-95480702D01*
X73204486Y-95724671D01*
X73459996Y-95845571D01*
X73734184Y-95914300D01*
X74016512Y-95928217D01*
X74296130Y-95886787D01*
X74562292Y-95791603D01*
X74687514Y-95724671D01*
X74689025Y-95719520D01*
X74700499Y-95733501D01*
X74795972Y-95811853D01*
X74904897Y-95870075D01*
X75023087Y-95905927D01*
X75146000Y-95918033D01*
X76746000Y-95918033D01*
X76868913Y-95905927D01*
X76987103Y-95870075D01*
X77096028Y-95811853D01*
X77191501Y-95733501D01*
X77269853Y-95638028D01*
X77328075Y-95529103D01*
X77363927Y-95410913D01*
X77376033Y-95288000D01*
X77376033Y-94248928D01*
X79454510Y-96327406D01*
X79409576Y-96372340D01*
X79253409Y-96606062D01*
X79145838Y-96865759D01*
X79091000Y-97141453D01*
X79091000Y-97422547D01*
X79145838Y-97698241D01*
X79253409Y-97957938D01*
X79409576Y-98191660D01*
X79608340Y-98390424D01*
X79659276Y-98424458D01*
X78919072Y-99164663D01*
X78880547Y-99157000D01*
X78599453Y-99157000D01*
X78323759Y-99211838D01*
X78064062Y-99319409D01*
X77830340Y-99475576D01*
X77631576Y-99674340D01*
X77475409Y-99908062D01*
X77469234Y-99922970D01*
X75990594Y-98444331D01*
X75963130Y-98410866D01*
X75829589Y-98301272D01*
X75677234Y-98219837D01*
X75511919Y-98169689D01*
X75383076Y-98156999D01*
X75339997Y-98152756D01*
X75296918Y-98156999D01*
X61075584Y-98156999D01*
X61208591Y-97957938D01*
X61316162Y-97698241D01*
X61371000Y-97422547D01*
X61371000Y-97141453D01*
X61316162Y-96865759D01*
X61208591Y-96606062D01*
X61135520Y-96496702D01*
X68274903Y-96496702D01*
X68346486Y-96740671D01*
X68601996Y-96861571D01*
X68876184Y-96930300D01*
X69158512Y-96944217D01*
X69438130Y-96902787D01*
X69704292Y-96807603D01*
X69829514Y-96740671D01*
X69901097Y-96496702D01*
X69088000Y-95683605D01*
X68274903Y-96496702D01*
X61135520Y-96496702D01*
X61052424Y-96372340D01*
X60853660Y-96173576D01*
X60619938Y-96017409D01*
X60360241Y-95909838D01*
X60084547Y-95855000D01*
X59803453Y-95855000D01*
X59527759Y-95909838D01*
X59268062Y-96017409D01*
X59034340Y-96173576D01*
X58835576Y-96372340D01*
X58679409Y-96606062D01*
X58571838Y-96865759D01*
X58517000Y-97141453D01*
X58517000Y-97422547D01*
X58571838Y-97698241D01*
X58679409Y-97957938D01*
X58812416Y-98156999D01*
X52393080Y-98156999D01*
X52350001Y-98152756D01*
X52178078Y-98169689D01*
X52026033Y-98215812D01*
X52026033Y-97448000D01*
X52013927Y-97325087D01*
X51978075Y-97206897D01*
X51919853Y-97097972D01*
X51841501Y-97002499D01*
X51746028Y-96924147D01*
X51637103Y-96865925D01*
X51518913Y-96830073D01*
X51396000Y-96817967D01*
X49696000Y-96817967D01*
X49573087Y-96830073D01*
X49454897Y-96865925D01*
X49345972Y-96924147D01*
X49250499Y-97002499D01*
X49172147Y-97097972D01*
X49113925Y-97206897D01*
X49078073Y-97325087D01*
X49065967Y-97448000D01*
X49065967Y-98537768D01*
X48656326Y-98947409D01*
X48622867Y-98974868D01*
X48595408Y-99008327D01*
X48595405Y-99008330D01*
X48513273Y-99108409D01*
X48431837Y-99260765D01*
X48381689Y-99426079D01*
X48364756Y-99598001D01*
X48369000Y-99641090D01*
X48368999Y-101418921D01*
X48364756Y-101462001D01*
X48381689Y-101633923D01*
X48402434Y-101702310D01*
X48431837Y-101799237D01*
X48513272Y-101951592D01*
X48622866Y-102085134D01*
X48656331Y-102112598D01*
X52269402Y-105725669D01*
X52296866Y-105759134D01*
X52430407Y-105868728D01*
X52521422Y-105917376D01*
X52582762Y-105950163D01*
X52748076Y-106000311D01*
X52919999Y-106017244D01*
X52963078Y-106013001D01*
X57355977Y-106013001D01*
X57256340Y-106079576D01*
X57057576Y-106278340D01*
X56901409Y-106512062D01*
X56793838Y-106771759D01*
X56739000Y-107047453D01*
X56739000Y-107328547D01*
X56793838Y-107604241D01*
X56901409Y-107863938D01*
X57057576Y-108097660D01*
X57256340Y-108296424D01*
X57490062Y-108452591D01*
X57749759Y-108560162D01*
X58025453Y-108615000D01*
X58306547Y-108615000D01*
X58582241Y-108560162D01*
X58841938Y-108452591D01*
X59075660Y-108296424D01*
X59274424Y-108097660D01*
X59430591Y-107863938D01*
X59436766Y-107849029D01*
X63917406Y-112329669D01*
X63944870Y-112363134D01*
X64078411Y-112472728D01*
X64230766Y-112554163D01*
X64396081Y-112604311D01*
X64524924Y-112617001D01*
X64524933Y-112617001D01*
X64568002Y-112621243D01*
X64611072Y-112617001D01*
X68882922Y-112617001D01*
X68926001Y-112621244D01*
X68969080Y-112617001D01*
X69045097Y-112609514D01*
X69097923Y-112604311D01*
X69097926Y-112604310D01*
X69263238Y-112554163D01*
X69415593Y-112472728D01*
X69549134Y-112363134D01*
X69576598Y-112329669D01*
X70439258Y-111467009D01*
X71091119Y-111467009D01*
X71043700Y-111656184D01*
X71029783Y-111938512D01*
X71071213Y-112218130D01*
X71166397Y-112484292D01*
X71233329Y-112609514D01*
X71477298Y-112681097D01*
X72290395Y-111868000D01*
X72276253Y-111853858D01*
X72455858Y-111674253D01*
X72470000Y-111688395D01*
X72484143Y-111674253D01*
X72663748Y-111853858D01*
X72649605Y-111868000D01*
X73462702Y-112681097D01*
X73706671Y-112609514D01*
X73827571Y-112354004D01*
X73896300Y-112079816D01*
X73910217Y-111797488D01*
X73868787Y-111517870D01*
X73850598Y-111467009D01*
X76094805Y-111467009D01*
X76043000Y-111727453D01*
X76043000Y-112008547D01*
X76097838Y-112284241D01*
X76205409Y-112543938D01*
X76361576Y-112777660D01*
X76560340Y-112976424D01*
X76794062Y-113132591D01*
X77053759Y-113240162D01*
X77329453Y-113295000D01*
X77610547Y-113295000D01*
X77886241Y-113240162D01*
X78145938Y-113132591D01*
X78379660Y-112976424D01*
X78578424Y-112777660D01*
X78734591Y-112543938D01*
X78842162Y-112284241D01*
X78897000Y-112008547D01*
X78897000Y-111727453D01*
X78842162Y-111451759D01*
X78764583Y-111264469D01*
X78827126Y-111213142D01*
X78854590Y-111179677D01*
X79917268Y-110116999D01*
X80153237Y-110116999D01*
X80107000Y-110349453D01*
X80107000Y-110630547D01*
X80161838Y-110906241D01*
X80269409Y-111165938D01*
X80425576Y-111399660D01*
X80624340Y-111598424D01*
X80858062Y-111754591D01*
X81117759Y-111862162D01*
X81393453Y-111917000D01*
X81674547Y-111917000D01*
X81950241Y-111862162D01*
X82209938Y-111754591D01*
X82443660Y-111598424D01*
X82642424Y-111399660D01*
X82798591Y-111165938D01*
X82906162Y-110906241D01*
X82961000Y-110630547D01*
X82961000Y-110349453D01*
X90267000Y-110349453D01*
X90267000Y-110630547D01*
X90321838Y-110906241D01*
X90429409Y-111165938D01*
X90585576Y-111399660D01*
X90784340Y-111598424D01*
X91018062Y-111754591D01*
X91277759Y-111862162D01*
X91553453Y-111917000D01*
X91834547Y-111917000D01*
X92110241Y-111862162D01*
X92369938Y-111754591D01*
X92603660Y-111598424D01*
X92802424Y-111399660D01*
X92958591Y-111165938D01*
X93025895Y-111003453D01*
X93395000Y-111003453D01*
X93395000Y-111284547D01*
X93449838Y-111560241D01*
X93557409Y-111819938D01*
X93713576Y-112053660D01*
X93912340Y-112252424D01*
X94146062Y-112408591D01*
X94405759Y-112516162D01*
X94681453Y-112571000D01*
X94962547Y-112571000D01*
X95238241Y-112516162D01*
X95497938Y-112408591D01*
X95731660Y-112252424D01*
X95930424Y-112053660D01*
X96086591Y-111819938D01*
X96194162Y-111560241D01*
X96249000Y-111284547D01*
X96249000Y-111003453D01*
X98395000Y-111003453D01*
X98395000Y-111284547D01*
X98449838Y-111560241D01*
X98557409Y-111819938D01*
X98713576Y-112053660D01*
X98912340Y-112252424D01*
X99146062Y-112408591D01*
X99405759Y-112516162D01*
X99681453Y-112571000D01*
X99962547Y-112571000D01*
X100238241Y-112516162D01*
X100497938Y-112408591D01*
X100731660Y-112252424D01*
X100930424Y-112053660D01*
X101086591Y-111819938D01*
X101194162Y-111560241D01*
X101249000Y-111284547D01*
X101249000Y-111003453D01*
X101194162Y-110727759D01*
X101086591Y-110468062D01*
X100930424Y-110234340D01*
X100731660Y-110035576D01*
X100497938Y-109879409D01*
X100238241Y-109771838D01*
X99962547Y-109717000D01*
X99681453Y-109717000D01*
X99405759Y-109771838D01*
X99146062Y-109879409D01*
X98912340Y-110035576D01*
X98713576Y-110234340D01*
X98557409Y-110468062D01*
X98449838Y-110727759D01*
X98395000Y-111003453D01*
X96249000Y-111003453D01*
X96194162Y-110727759D01*
X96086591Y-110468062D01*
X95930424Y-110234340D01*
X95731660Y-110035576D01*
X95497938Y-109879409D01*
X95238241Y-109771838D01*
X94962547Y-109717000D01*
X94681453Y-109717000D01*
X94405759Y-109771838D01*
X94146062Y-109879409D01*
X93912340Y-110035576D01*
X93713576Y-110234340D01*
X93557409Y-110468062D01*
X93449838Y-110727759D01*
X93395000Y-111003453D01*
X93025895Y-111003453D01*
X93066162Y-110906241D01*
X93121000Y-110630547D01*
X93121000Y-110349453D01*
X93066162Y-110073759D01*
X92958591Y-109814062D01*
X92802424Y-109580340D01*
X92603660Y-109381576D01*
X92369938Y-109225409D01*
X92110241Y-109117838D01*
X91834547Y-109063000D01*
X91553453Y-109063000D01*
X91277759Y-109117838D01*
X91018062Y-109225409D01*
X90784340Y-109381576D01*
X90585576Y-109580340D01*
X90429409Y-109814062D01*
X90321838Y-110073759D01*
X90267000Y-110349453D01*
X82961000Y-110349453D01*
X82914763Y-110116999D01*
X83248922Y-110116999D01*
X83292001Y-110121242D01*
X83335080Y-110116999D01*
X83463923Y-110104309D01*
X83629238Y-110054161D01*
X83781593Y-109972726D01*
X83915134Y-109863132D01*
X83942598Y-109829667D01*
X86235226Y-107537039D01*
X90302096Y-107537039D01*
X90342754Y-107671087D01*
X90462963Y-107925420D01*
X90630481Y-108151414D01*
X90838869Y-108340385D01*
X91080119Y-108485070D01*
X91344960Y-108579909D01*
X91567000Y-108458624D01*
X91567000Y-107315000D01*
X91821000Y-107315000D01*
X91821000Y-108458624D01*
X92043040Y-108579909D01*
X92307881Y-108485070D01*
X92549131Y-108340385D01*
X92757519Y-108151414D01*
X92925037Y-107925420D01*
X93045246Y-107671087D01*
X93085904Y-107537039D01*
X92963915Y-107315000D01*
X91821000Y-107315000D01*
X91567000Y-107315000D01*
X90424085Y-107315000D01*
X90302096Y-107537039D01*
X86235226Y-107537039D01*
X86933304Y-106838961D01*
X90302096Y-106838961D01*
X90424085Y-107061000D01*
X91567000Y-107061000D01*
X91567000Y-105917376D01*
X91821000Y-105917376D01*
X91821000Y-107061000D01*
X92963915Y-107061000D01*
X93085904Y-106838961D01*
X93045246Y-106704913D01*
X92925037Y-106450580D01*
X92757519Y-106224586D01*
X92549131Y-106035615D01*
X92307881Y-105890930D01*
X92043040Y-105796091D01*
X91821000Y-105917376D01*
X91567000Y-105917376D01*
X91344960Y-105796091D01*
X91080119Y-105890930D01*
X90838869Y-106035615D01*
X90630481Y-106224586D01*
X90462963Y-106450580D01*
X90342754Y-106704913D01*
X90302096Y-106838961D01*
X86933304Y-106838961D01*
X90335508Y-103436757D01*
X90321838Y-103469759D01*
X90267000Y-103745453D01*
X90267000Y-104026547D01*
X90321838Y-104302241D01*
X90429409Y-104561938D01*
X90585576Y-104795660D01*
X90784340Y-104994424D01*
X91018062Y-105150591D01*
X91277759Y-105258162D01*
X91553453Y-105313000D01*
X91834547Y-105313000D01*
X92110241Y-105258162D01*
X92369938Y-105150591D01*
X92603660Y-104994424D01*
X92802424Y-104795660D01*
X92958591Y-104561938D01*
X93066162Y-104302241D01*
X93121000Y-104026547D01*
X93121000Y-103745453D01*
X93066162Y-103469759D01*
X92958591Y-103210062D01*
X92802424Y-102976340D01*
X92603660Y-102777576D01*
X92369938Y-102621409D01*
X92110241Y-102513838D01*
X91834547Y-102459000D01*
X91553453Y-102459000D01*
X91277759Y-102513838D01*
X91244757Y-102527508D01*
X91513799Y-102258466D01*
X91777905Y-102311000D01*
X92118095Y-102311000D01*
X92451747Y-102244632D01*
X92766041Y-102114447D01*
X93048898Y-101925448D01*
X93289448Y-101684898D01*
X93478447Y-101402041D01*
X93608632Y-101087747D01*
X93675000Y-100754095D01*
X93675000Y-100413905D01*
X93608632Y-100080253D01*
X93478447Y-99765959D01*
X93289448Y-99483102D01*
X93048898Y-99242552D01*
X92766041Y-99053553D01*
X92451747Y-98923368D01*
X92118095Y-98857000D01*
X91777905Y-98857000D01*
X91444253Y-98923368D01*
X91129959Y-99053553D01*
X90847102Y-99242552D01*
X90606552Y-99483102D01*
X90417553Y-99765959D01*
X90287368Y-100080253D01*
X90221000Y-100413905D01*
X90221000Y-100754095D01*
X90273534Y-101018201D01*
X82928736Y-108362999D01*
X82344023Y-108362999D01*
X82443660Y-108296424D01*
X82642424Y-108097660D01*
X82798591Y-107863938D01*
X82906162Y-107604241D01*
X82961000Y-107328547D01*
X82961000Y-107047453D01*
X82911196Y-106797069D01*
X87617103Y-102091162D01*
X87675565Y-102079533D01*
X87862467Y-102002115D01*
X88030674Y-101889723D01*
X88173723Y-101746674D01*
X88286115Y-101578467D01*
X88363533Y-101391565D01*
X88403000Y-101193151D01*
X88403000Y-100990849D01*
X88363533Y-100792435D01*
X88286115Y-100605533D01*
X88173723Y-100437326D01*
X88030674Y-100294277D01*
X87862467Y-100181885D01*
X87675565Y-100104467D01*
X87477151Y-100065000D01*
X87274849Y-100065000D01*
X87076435Y-100104467D01*
X86889533Y-100181885D01*
X86721326Y-100294277D01*
X86578277Y-100437326D01*
X86465885Y-100605533D01*
X86388467Y-100792435D01*
X86376838Y-100850897D01*
X82892492Y-104335243D01*
X82906162Y-104302241D01*
X82961000Y-104026547D01*
X82961000Y-103745453D01*
X82906162Y-103469759D01*
X82798591Y-103210062D01*
X82665584Y-103011001D01*
X83170918Y-103011001D01*
X83213997Y-103015244D01*
X83257076Y-103011001D01*
X83385919Y-102998311D01*
X83551234Y-102948163D01*
X83703589Y-102866728D01*
X83837130Y-102757134D01*
X83864594Y-102723669D01*
X88645234Y-97943029D01*
X88651409Y-97957938D01*
X88807576Y-98191660D01*
X89006340Y-98390424D01*
X89240062Y-98546591D01*
X89499759Y-98654162D01*
X89775453Y-98709000D01*
X90056547Y-98709000D01*
X90332241Y-98654162D01*
X90591938Y-98546591D01*
X90825660Y-98390424D01*
X91024424Y-98191660D01*
X91180591Y-97957938D01*
X91288162Y-97698241D01*
X91343000Y-97422547D01*
X91343000Y-97141453D01*
X91288162Y-96865759D01*
X91180591Y-96606062D01*
X91024424Y-96372340D01*
X90825660Y-96173576D01*
X90591938Y-96017409D01*
X90577029Y-96011234D01*
X91162736Y-95425527D01*
X94294078Y-95425527D01*
X94347466Y-95654201D01*
X94577374Y-95760095D01*
X94823524Y-95819102D01*
X95076455Y-95828952D01*
X95326449Y-95789270D01*
X95563896Y-95701578D01*
X95652534Y-95654201D01*
X95705922Y-95425527D01*
X95000000Y-94719605D01*
X94294078Y-95425527D01*
X91162736Y-95425527D01*
X92271264Y-94316999D01*
X93732051Y-94316999D01*
X93720898Y-94363524D01*
X93711048Y-94616455D01*
X93750730Y-94866449D01*
X93838422Y-95103896D01*
X93885799Y-95192534D01*
X94114473Y-95245922D01*
X94820395Y-94540000D01*
X94806253Y-94525858D01*
X94985858Y-94346253D01*
X95000000Y-94360395D01*
X95014143Y-94346253D01*
X95193748Y-94525858D01*
X95179605Y-94540000D01*
X95885527Y-95245922D01*
X96114201Y-95192534D01*
X96220095Y-94962626D01*
X96279102Y-94716476D01*
X96288952Y-94463545D01*
X96265690Y-94316999D01*
X97524922Y-94316999D01*
X97568001Y-94321242D01*
X97611080Y-94316999D01*
X97698438Y-94308395D01*
X97739923Y-94304309D01*
X97832638Y-94276184D01*
X97837000Y-94274861D01*
X97837000Y-94379472D01*
X97893760Y-94664825D01*
X98005099Y-94933622D01*
X98166739Y-95175533D01*
X98372467Y-95381261D01*
X98614378Y-95542901D01*
X98883175Y-95654240D01*
X99168528Y-95711000D01*
X99459472Y-95711000D01*
X99744825Y-95654240D01*
X100013622Y-95542901D01*
X100255533Y-95381261D01*
X100461261Y-95175533D01*
X100622901Y-94933622D01*
X100734240Y-94664825D01*
X100791000Y-94379472D01*
X100791000Y-94088528D01*
X100775859Y-94012407D01*
X101203675Y-93584591D01*
X101237134Y-93557132D01*
X101346728Y-93423591D01*
X101428163Y-93271236D01*
X101441301Y-93227926D01*
X101478311Y-93105922D01*
X101495244Y-92934000D01*
X101491001Y-92890920D01*
X101491001Y-87987068D01*
X101495243Y-87943998D01*
X101491001Y-87900929D01*
X101491001Y-87900920D01*
X101478311Y-87772077D01*
X101428163Y-87606762D01*
X101346728Y-87454407D01*
X101237134Y-87320866D01*
X101203667Y-87293401D01*
X101174600Y-87264333D01*
X101147134Y-87230866D01*
X101013593Y-87121272D01*
X100861238Y-87039837D01*
X100695923Y-86989689D01*
X100567080Y-86976999D01*
X100524001Y-86972756D01*
X100480922Y-86976999D01*
X95021068Y-86976999D01*
X94977998Y-86972757D01*
X94934929Y-86976999D01*
X94934920Y-86976999D01*
X94806077Y-86989689D01*
X94640762Y-87039837D01*
X94488407Y-87121272D01*
X94354866Y-87230866D01*
X94327398Y-87264336D01*
X94096732Y-87495001D01*
X91296763Y-87495001D01*
X91343000Y-87262547D01*
X91343000Y-86981453D01*
X91288162Y-86705759D01*
X91180591Y-86446062D01*
X91024424Y-86212340D01*
X90825660Y-86013576D01*
X90591938Y-85857409D01*
X90332241Y-85749838D01*
X90056547Y-85695000D01*
X89775453Y-85695000D01*
X89499759Y-85749838D01*
X89240062Y-85857409D01*
X89006340Y-86013576D01*
X88807576Y-86212340D01*
X88651409Y-86446062D01*
X88543838Y-86705759D01*
X88489000Y-86981453D01*
X88489000Y-87262547D01*
X88535237Y-87495001D01*
X85953264Y-87495001D01*
X84537330Y-86079067D01*
X84617723Y-85998674D01*
X84631325Y-85978317D01*
X84857996Y-86085571D01*
X85132184Y-86154300D01*
X85414512Y-86168217D01*
X85694130Y-86126787D01*
X85960292Y-86031603D01*
X86085514Y-85964671D01*
X86157097Y-85720702D01*
X85344000Y-84907605D01*
X85329858Y-84921748D01*
X85150253Y-84742143D01*
X85164395Y-84728000D01*
X85523605Y-84728000D01*
X86336702Y-85541097D01*
X86580671Y-85469514D01*
X86701571Y-85214004D01*
X86770300Y-84939816D01*
X86784217Y-84657488D01*
X86742787Y-84377870D01*
X86647603Y-84111708D01*
X86580671Y-83986486D01*
X86336702Y-83914903D01*
X85523605Y-84728000D01*
X85164395Y-84728000D01*
X85150253Y-84713858D01*
X85329858Y-84534253D01*
X85344000Y-84548395D01*
X86032942Y-83859453D01*
X88597000Y-83859453D01*
X88597000Y-84140547D01*
X88651838Y-84416241D01*
X88759409Y-84675938D01*
X88915576Y-84909660D01*
X89114340Y-85108424D01*
X89348062Y-85264591D01*
X89607759Y-85372162D01*
X89883453Y-85427000D01*
X90164547Y-85427000D01*
X90440241Y-85372162D01*
X90699938Y-85264591D01*
X90933660Y-85108424D01*
X91132424Y-84909660D01*
X91288591Y-84675938D01*
X91396162Y-84416241D01*
X91451000Y-84140547D01*
X91451000Y-83859453D01*
X91396162Y-83583759D01*
X91288591Y-83324062D01*
X91132424Y-83090340D01*
X90933660Y-82891576D01*
X90699938Y-82735409D01*
X90440241Y-82627838D01*
X90164547Y-82573000D01*
X89883453Y-82573000D01*
X89607759Y-82627838D01*
X89348062Y-82735409D01*
X89114340Y-82891576D01*
X88915576Y-83090340D01*
X88759409Y-83324062D01*
X88651838Y-83583759D01*
X88597000Y-83859453D01*
X86032942Y-83859453D01*
X86157097Y-83735298D01*
X86085514Y-83491329D01*
X85830004Y-83370429D01*
X85555816Y-83301700D01*
X85273488Y-83287783D01*
X84993870Y-83329213D01*
X84727708Y-83424397D01*
X84697000Y-83440811D01*
X84697000Y-82173078D01*
X84701243Y-82130001D01*
X84689692Y-82012727D01*
X84684310Y-81958080D01*
X84634162Y-81792765D01*
X84552727Y-81640410D01*
X84443133Y-81506869D01*
X84409668Y-81479405D01*
X79764757Y-76834494D01*
X79873000Y-76726250D01*
X79873000Y-75127000D01*
X80127000Y-75127000D01*
X80127000Y-76726250D01*
X80285750Y-76885000D01*
X81250000Y-76888072D01*
X81374482Y-76875812D01*
X81494180Y-76839502D01*
X81604494Y-76780537D01*
X81701185Y-76701185D01*
X81780537Y-76604494D01*
X81839502Y-76494180D01*
X81875812Y-76374482D01*
X81888072Y-76250000D01*
X81885000Y-75285750D01*
X81726250Y-75127000D01*
X80127000Y-75127000D01*
X79873000Y-75127000D01*
X78273750Y-75127000D01*
X78165507Y-75235244D01*
X77577001Y-74646738D01*
X77577001Y-73750000D01*
X78111928Y-73750000D01*
X78115000Y-74714250D01*
X78273750Y-74873000D01*
X79873000Y-74873000D01*
X79873000Y-73273750D01*
X79714250Y-73115000D01*
X78750000Y-73111928D01*
X78625518Y-73124188D01*
X78505820Y-73160498D01*
X78395506Y-73219463D01*
X78298815Y-73298815D01*
X78219463Y-73395506D01*
X78160498Y-73505820D01*
X78124188Y-73625518D01*
X78111928Y-73750000D01*
X77577001Y-73750000D01*
X77577001Y-72683070D01*
X77581243Y-72640000D01*
X77577001Y-72596931D01*
X77577001Y-72596922D01*
X77564311Y-72468079D01*
X77514163Y-72302764D01*
X77432728Y-72150409D01*
X77323134Y-72016868D01*
X77289669Y-71989404D01*
X76771990Y-71471725D01*
X76821593Y-71461859D01*
X77249409Y-71889675D01*
X77276868Y-71923134D01*
X77410409Y-72032728D01*
X77562762Y-72114162D01*
X77562764Y-72114163D01*
X77728078Y-72164311D01*
X77900000Y-72181244D01*
X77943080Y-72177001D01*
X79246738Y-72177001D01*
X80235243Y-73165507D01*
X80127000Y-73273750D01*
X80127000Y-74873000D01*
X81726250Y-74873000D01*
X81834493Y-74764757D01*
X87007001Y-79937265D01*
X87007000Y-80743972D01*
X86973885Y-80793533D01*
X86896467Y-80980435D01*
X86857000Y-81178849D01*
X86857000Y-81381151D01*
X86896467Y-81579565D01*
X86973885Y-81766467D01*
X87086277Y-81934674D01*
X87229326Y-82077723D01*
X87397533Y-82190115D01*
X87584435Y-82267533D01*
X87782849Y-82307000D01*
X87985151Y-82307000D01*
X88183565Y-82267533D01*
X88370467Y-82190115D01*
X88538674Y-82077723D01*
X88681723Y-81934674D01*
X88794115Y-81766467D01*
X88871533Y-81579565D01*
X88911000Y-81381151D01*
X88911000Y-81178849D01*
X88871533Y-80980435D01*
X88794115Y-80793533D01*
X88761000Y-80743973D01*
X88761000Y-79678319D01*
X88915576Y-79909660D01*
X89114340Y-80108424D01*
X89348062Y-80264591D01*
X89607759Y-80372162D01*
X89883453Y-80427000D01*
X90164547Y-80427000D01*
X90440241Y-80372162D01*
X90699938Y-80264591D01*
X90933660Y-80108424D01*
X91132424Y-79909660D01*
X91288591Y-79675938D01*
X91396162Y-79416241D01*
X91451000Y-79140547D01*
X91451000Y-78859453D01*
X91396162Y-78583759D01*
X91288591Y-78324062D01*
X91132424Y-78090340D01*
X90933660Y-77891576D01*
X90699938Y-77735409D01*
X90440241Y-77627838D01*
X90164547Y-77573000D01*
X89883453Y-77573000D01*
X89607759Y-77627838D01*
X89348062Y-77735409D01*
X89114340Y-77891576D01*
X88915576Y-78090340D01*
X88759409Y-78324062D01*
X88651838Y-78583759D01*
X88597000Y-78859453D01*
X88597000Y-79060369D01*
X88556708Y-79011272D01*
X88534594Y-78984326D01*
X88534592Y-78984324D01*
X88507133Y-78950865D01*
X88473674Y-78923406D01*
X84365400Y-74815132D01*
X88123000Y-74815132D01*
X88123000Y-75184868D01*
X88195132Y-75547501D01*
X88336624Y-75889093D01*
X88542039Y-76196518D01*
X88803482Y-76457961D01*
X89110907Y-76663376D01*
X89452499Y-76804868D01*
X89815132Y-76877000D01*
X90184868Y-76877000D01*
X90547501Y-76804868D01*
X90889093Y-76663376D01*
X91196518Y-76457961D01*
X91457961Y-76196518D01*
X91663376Y-75889093D01*
X91804868Y-75547501D01*
X91877000Y-75184868D01*
X91877000Y-74815132D01*
X91804868Y-74452499D01*
X91663376Y-74110907D01*
X91457961Y-73803482D01*
X91196518Y-73542039D01*
X90889093Y-73336624D01*
X90547501Y-73195132D01*
X90184868Y-73123000D01*
X89815132Y-73123000D01*
X89452499Y-73195132D01*
X89110907Y-73336624D01*
X88803482Y-73542039D01*
X88542039Y-73803482D01*
X88336624Y-74110907D01*
X88195132Y-74452499D01*
X88123000Y-74815132D01*
X84365400Y-74815132D01*
X80369188Y-70818921D01*
X80410000Y-70757841D01*
X80532739Y-70941533D01*
X80738467Y-71147261D01*
X80980378Y-71308901D01*
X81249175Y-71420240D01*
X81534528Y-71477000D01*
X81825472Y-71477000D01*
X82110825Y-71420240D01*
X82379622Y-71308901D01*
X82621533Y-71147261D01*
X82827261Y-70941533D01*
X82950000Y-70757841D01*
X83072739Y-70941533D01*
X83278467Y-71147261D01*
X83520378Y-71308901D01*
X83789175Y-71420240D01*
X84074528Y-71477000D01*
X84365472Y-71477000D01*
X84650825Y-71420240D01*
X84919622Y-71308901D01*
X85161533Y-71147261D01*
X85367261Y-70941533D01*
X85490000Y-70757841D01*
X85612739Y-70941533D01*
X85818467Y-71147261D01*
X86060378Y-71308901D01*
X86329175Y-71420240D01*
X86614528Y-71477000D01*
X86905472Y-71477000D01*
X87190825Y-71420240D01*
X87459622Y-71308901D01*
X87701533Y-71147261D01*
X87907261Y-70941533D01*
X88030000Y-70757841D01*
X88152739Y-70941533D01*
X88358467Y-71147261D01*
X88600378Y-71308901D01*
X88869175Y-71420240D01*
X89154528Y-71477000D01*
X89445472Y-71477000D01*
X89730825Y-71420240D01*
X89999622Y-71308901D01*
X90241533Y-71147261D01*
X90447261Y-70941533D01*
X90570000Y-70757841D01*
X90692739Y-70941533D01*
X90898467Y-71147261D01*
X91140378Y-71308901D01*
X91409175Y-71420240D01*
X91694528Y-71477000D01*
X91985472Y-71477000D01*
X92270825Y-71420240D01*
X92539622Y-71308901D01*
X92781533Y-71147261D01*
X92987261Y-70941533D01*
X93110000Y-70757841D01*
X93232739Y-70941533D01*
X93438467Y-71147261D01*
X93680378Y-71308901D01*
X93949175Y-71420240D01*
X94234528Y-71477000D01*
X94525472Y-71477000D01*
X94810825Y-71420240D01*
X95079622Y-71308901D01*
X95321533Y-71147261D01*
X95527261Y-70941533D01*
X95650000Y-70757841D01*
X95772739Y-70941533D01*
X95978467Y-71147261D01*
X96220378Y-71308901D01*
X96489175Y-71420240D01*
X96774528Y-71477000D01*
X97065472Y-71477000D01*
X97350825Y-71420240D01*
X97619622Y-71308901D01*
X97861533Y-71147261D01*
X98067261Y-70941533D01*
X98181895Y-70769972D01*
X98182528Y-70771157D01*
X98431603Y-70848792D01*
X99280395Y-70000000D01*
X98431603Y-69151208D01*
X98182528Y-69228843D01*
X98181934Y-69230088D01*
X98067261Y-69058467D01*
X97861533Y-68852739D01*
X97619622Y-68691099D01*
X97350825Y-68579760D01*
X97065472Y-68523000D01*
X96774528Y-68523000D01*
X96489175Y-68579760D01*
X96220378Y-68691099D01*
X95978467Y-68852739D01*
X95772739Y-69058467D01*
X95650000Y-69242159D01*
X95527261Y-69058467D01*
X95321533Y-68852739D01*
X95079622Y-68691099D01*
X94810825Y-68579760D01*
X94525472Y-68523000D01*
X94234528Y-68523000D01*
X93949175Y-68579760D01*
X93680378Y-68691099D01*
X93438467Y-68852739D01*
X93232739Y-69058467D01*
X93110000Y-69242159D01*
X92987261Y-69058467D01*
X92781533Y-68852739D01*
X92539622Y-68691099D01*
X92270825Y-68579760D01*
X91985472Y-68523000D01*
X91694528Y-68523000D01*
X91409175Y-68579760D01*
X91140378Y-68691099D01*
X90898467Y-68852739D01*
X90692739Y-69058467D01*
X90570000Y-69242159D01*
X90447261Y-69058467D01*
X90241533Y-68852739D01*
X89999622Y-68691099D01*
X89730825Y-68579760D01*
X89445472Y-68523000D01*
X89154528Y-68523000D01*
X88869175Y-68579760D01*
X88600378Y-68691099D01*
X88358467Y-68852739D01*
X88152739Y-69058467D01*
X88030000Y-69242159D01*
X87907261Y-69058467D01*
X87701533Y-68852739D01*
X87459622Y-68691099D01*
X87190825Y-68579760D01*
X86905472Y-68523000D01*
X86614528Y-68523000D01*
X86329175Y-68579760D01*
X86060378Y-68691099D01*
X85818467Y-68852739D01*
X85612739Y-69058467D01*
X85490000Y-69242159D01*
X85367261Y-69058467D01*
X85161533Y-68852739D01*
X84919622Y-68691099D01*
X84650825Y-68579760D01*
X84365472Y-68523000D01*
X84074528Y-68523000D01*
X83789175Y-68579760D01*
X83520378Y-68691099D01*
X83278467Y-68852739D01*
X83072739Y-69058467D01*
X82950000Y-69242159D01*
X82827261Y-69058467D01*
X82621533Y-68852739D01*
X82379622Y-68691099D01*
X82110825Y-68579760D01*
X81825472Y-68523000D01*
X81534528Y-68523000D01*
X81249175Y-68579760D01*
X80980378Y-68691099D01*
X80738467Y-68852739D01*
X80532739Y-69058467D01*
X80410000Y-69242159D01*
X80287261Y-69058467D01*
X80081533Y-68852739D01*
X79839622Y-68691099D01*
X79570825Y-68579760D01*
X79285472Y-68523000D01*
X78994528Y-68523000D01*
X78709175Y-68579760D01*
X78440378Y-68691099D01*
X78198467Y-68852739D01*
X77992739Y-69058467D01*
X77870000Y-69242159D01*
X77747261Y-69058467D01*
X77541533Y-68852739D01*
X77299622Y-68691099D01*
X77030825Y-68579760D01*
X76745472Y-68523000D01*
X76454528Y-68523000D01*
X76169175Y-68579760D01*
X75900378Y-68691099D01*
X75658467Y-68852739D01*
X75452739Y-69058467D01*
X75330000Y-69242159D01*
X75207261Y-69058467D01*
X75001533Y-68852739D01*
X74759622Y-68691099D01*
X74490825Y-68579760D01*
X74205472Y-68523000D01*
X73914528Y-68523000D01*
X73629175Y-68579760D01*
X73360378Y-68691099D01*
X73118467Y-68852739D01*
X72912739Y-69058467D01*
X72790000Y-69242159D01*
X72667261Y-69058467D01*
X72461533Y-68852739D01*
X72219622Y-68691099D01*
X71950825Y-68579760D01*
X71665472Y-68523000D01*
X71374528Y-68523000D01*
X71089175Y-68579760D01*
X70820378Y-68691099D01*
X70578467Y-68852739D01*
X70372739Y-69058467D01*
X70250000Y-69242159D01*
X70127261Y-69058467D01*
X69921533Y-68852739D01*
X69679622Y-68691099D01*
X69410825Y-68579760D01*
X69125472Y-68523000D01*
X68834528Y-68523000D01*
X68549175Y-68579760D01*
X68280378Y-68691099D01*
X68038467Y-68852739D01*
X67832739Y-69058467D01*
X67710000Y-69242159D01*
X67587261Y-69058467D01*
X67381533Y-68852739D01*
X67139622Y-68691099D01*
X66870825Y-68579760D01*
X66585472Y-68523000D01*
X66294528Y-68523000D01*
X66009175Y-68579760D01*
X65740378Y-68691099D01*
X65498467Y-68852739D01*
X65292739Y-69058467D01*
X65170000Y-69242159D01*
X65047261Y-69058467D01*
X64841533Y-68852739D01*
X64599622Y-68691099D01*
X64330825Y-68579760D01*
X64045472Y-68523000D01*
X63754528Y-68523000D01*
X63469175Y-68579760D01*
X63200378Y-68691099D01*
X62958467Y-68852739D01*
X62752739Y-69058467D01*
X62630000Y-69242159D01*
X62507261Y-69058467D01*
X62301533Y-68852739D01*
X62059622Y-68691099D01*
X61790825Y-68579760D01*
X61505472Y-68523000D01*
X61214528Y-68523000D01*
X60929175Y-68579760D01*
X60660378Y-68691099D01*
X60418467Y-68852739D01*
X60212739Y-69058467D01*
X60090000Y-69242159D01*
X59967261Y-69058467D01*
X59761533Y-68852739D01*
X59519622Y-68691099D01*
X59250825Y-68579760D01*
X58965472Y-68523000D01*
X58674528Y-68523000D01*
X58389175Y-68579760D01*
X58120378Y-68691099D01*
X57878467Y-68852739D01*
X57672739Y-69058467D01*
X57550000Y-69242159D01*
X57427261Y-69058467D01*
X57221533Y-68852739D01*
X56979622Y-68691099D01*
X56710825Y-68579760D01*
X56425472Y-68523000D01*
X56134528Y-68523000D01*
X55849175Y-68579760D01*
X55580378Y-68691099D01*
X55338467Y-68852739D01*
X55132739Y-69058467D01*
X55010000Y-69242159D01*
X54887261Y-69058467D01*
X54681533Y-68852739D01*
X54439622Y-68691099D01*
X54170825Y-68579760D01*
X53885472Y-68523000D01*
X53594528Y-68523000D01*
X53309175Y-68579760D01*
X53040378Y-68691099D01*
X52798467Y-68852739D01*
X52657731Y-68993475D01*
X52632075Y-68908897D01*
X52573853Y-68799972D01*
X52495501Y-68704499D01*
X52400028Y-68626147D01*
X52291103Y-68567925D01*
X52172913Y-68532073D01*
X52050000Y-68519967D01*
X50776999Y-68519967D01*
X50776999Y-66287266D01*
X53073103Y-63991162D01*
X53131565Y-63979533D01*
X53318467Y-63902115D01*
X53486674Y-63789723D01*
X53629723Y-63646674D01*
X53742115Y-63478467D01*
X53819533Y-63291565D01*
X53859000Y-63093151D01*
X53859000Y-62890849D01*
X53819533Y-62692435D01*
X53742115Y-62505533D01*
X53629723Y-62337326D01*
X53549330Y-62256933D01*
X53969264Y-61837000D01*
X79712921Y-61837000D01*
X79756000Y-61841243D01*
X79799079Y-61837000D01*
X79927922Y-61824310D01*
X80093237Y-61774162D01*
X80245592Y-61692727D01*
X80379133Y-61583133D01*
X80406597Y-61549668D01*
X81521103Y-60435162D01*
X81579565Y-60423533D01*
X81766467Y-60346115D01*
X81934674Y-60233723D01*
X82077723Y-60090674D01*
X82190115Y-59922467D01*
X82267533Y-59735565D01*
X82307000Y-59537151D01*
X82307000Y-59334849D01*
X82267533Y-59136435D01*
X82190115Y-58949533D01*
X82077723Y-58781326D01*
X81934674Y-58638277D01*
X81766467Y-58525885D01*
X81579565Y-58448467D01*
X81381151Y-58409000D01*
X81178849Y-58409000D01*
X80980435Y-58448467D01*
X80793533Y-58525885D01*
X80625326Y-58638277D01*
X80482277Y-58781326D01*
X80369885Y-58949533D01*
X80292467Y-59136435D01*
X80280838Y-59194897D01*
X79392735Y-60083000D01*
X54733300Y-60083000D01*
X55011300Y-59805000D01*
X74139973Y-59805000D01*
X74189533Y-59838115D01*
X74376435Y-59915533D01*
X74574849Y-59955000D01*
X74777151Y-59955000D01*
X74975565Y-59915533D01*
X75162467Y-59838115D01*
X75330674Y-59725723D01*
X75473723Y-59582674D01*
X75586115Y-59414467D01*
X75663533Y-59227565D01*
X75703000Y-59029151D01*
X75703000Y-58826849D01*
X75663533Y-58628435D01*
X75586115Y-58441533D01*
X75478851Y-58281000D01*
X90395973Y-58281000D01*
X90445533Y-58314115D01*
X90632435Y-58391533D01*
X90830849Y-58431000D01*
X91033151Y-58431000D01*
X91231565Y-58391533D01*
X91418467Y-58314115D01*
X91586674Y-58201723D01*
X91667067Y-58121330D01*
X99883002Y-66337265D01*
X99883001Y-68575278D01*
X99683589Y-68524661D01*
X99391469Y-68509389D01*
X99101981Y-68551401D01*
X98826253Y-68649081D01*
X98688843Y-68722528D01*
X98611208Y-68971603D01*
X99460000Y-69820395D01*
X99474143Y-69806253D01*
X99653748Y-69985858D01*
X99639605Y-70000000D01*
X99653748Y-70014143D01*
X99474143Y-70193748D01*
X99460000Y-70179605D01*
X98611208Y-71028397D01*
X98688843Y-71277472D01*
X98952883Y-71403371D01*
X99027437Y-71422295D01*
X96946327Y-73503406D01*
X96912868Y-73530865D01*
X96885409Y-73564324D01*
X96885406Y-73564327D01*
X96803274Y-73664406D01*
X96721838Y-73816762D01*
X96671690Y-73982076D01*
X96659563Y-74105201D01*
X96457961Y-73803482D01*
X96196518Y-73542039D01*
X95889093Y-73336624D01*
X95547501Y-73195132D01*
X95184868Y-73123000D01*
X94815132Y-73123000D01*
X94452499Y-73195132D01*
X94110907Y-73336624D01*
X93803482Y-73542039D01*
X93542039Y-73803482D01*
X93336624Y-74110907D01*
X93195132Y-74452499D01*
X93123000Y-74815132D01*
X93123000Y-75184868D01*
X93195132Y-75547501D01*
X93336624Y-75889093D01*
X93542039Y-76196518D01*
X93803482Y-76457961D01*
X94110907Y-76663376D01*
X94452499Y-76804868D01*
X94815132Y-76877000D01*
X95184868Y-76877000D01*
X95547501Y-76804868D01*
X95889093Y-76663376D01*
X96196518Y-76457961D01*
X96457961Y-76196518D01*
X96663376Y-75889093D01*
X96704932Y-75788769D01*
X96738277Y-75838674D01*
X96881326Y-75981723D01*
X97049533Y-76094115D01*
X97236435Y-76171533D01*
X97434849Y-76211000D01*
X97637151Y-76211000D01*
X97835565Y-76171533D01*
X98022467Y-76094115D01*
X98112617Y-76033879D01*
X98111928Y-76250000D01*
X98124188Y-76374482D01*
X98160498Y-76494180D01*
X98219463Y-76604494D01*
X98298815Y-76701185D01*
X98395506Y-76780537D01*
X98505820Y-76839502D01*
X98625518Y-76875812D01*
X98750000Y-76888072D01*
X99714250Y-76885000D01*
X99873000Y-76726250D01*
X99873000Y-75127000D01*
X100127000Y-75127000D01*
X100127000Y-76726250D01*
X100285750Y-76885000D01*
X101250000Y-76888072D01*
X101374482Y-76875812D01*
X101494180Y-76839502D01*
X101604494Y-76780537D01*
X101701185Y-76701185D01*
X101780537Y-76604494D01*
X101839502Y-76494180D01*
X101875812Y-76374482D01*
X101888072Y-76250000D01*
X101885000Y-75285750D01*
X101726250Y-75127000D01*
X100127000Y-75127000D01*
X99873000Y-75127000D01*
X99853000Y-75127000D01*
X99853000Y-74873000D01*
X99873000Y-74873000D01*
X99873000Y-73273750D01*
X100127000Y-73273750D01*
X100127000Y-74873000D01*
X101726250Y-74873000D01*
X101885000Y-74714250D01*
X101888072Y-73750000D01*
X101875812Y-73625518D01*
X101839502Y-73505820D01*
X101780537Y-73395506D01*
X101701185Y-73298815D01*
X101604494Y-73219463D01*
X101494180Y-73160498D01*
X101374482Y-73124188D01*
X101250000Y-73111928D01*
X100285750Y-73115000D01*
X100127000Y-73273750D01*
X99873000Y-73273750D01*
X99764757Y-73165507D01*
X101349676Y-71580588D01*
X101383134Y-71553130D01*
X101492728Y-71419589D01*
X101574163Y-71267234D01*
X101610557Y-71147261D01*
X101624311Y-71101920D01*
X101641244Y-70929997D01*
X101637001Y-70886918D01*
X101637001Y-66017068D01*
X101641243Y-65973998D01*
X101637001Y-65930929D01*
X101637001Y-65930920D01*
X101624311Y-65802077D01*
X101574163Y-65636762D01*
X101492728Y-65484407D01*
X101383134Y-65350866D01*
X101349669Y-65323402D01*
X92217178Y-56190911D01*
X92270825Y-56180240D01*
X92539622Y-56068901D01*
X92781533Y-55907261D01*
X92987261Y-55701533D01*
X93110000Y-55517841D01*
X93232739Y-55701533D01*
X93438467Y-55907261D01*
X93680378Y-56068901D01*
X93949175Y-56180240D01*
X94234528Y-56237000D01*
X94525472Y-56237000D01*
X94810825Y-56180240D01*
X95079622Y-56068901D01*
X95321533Y-55907261D01*
X95527261Y-55701533D01*
X95650000Y-55517841D01*
X95772739Y-55701533D01*
X95978467Y-55907261D01*
X96220378Y-56068901D01*
X96489175Y-56180240D01*
X96774528Y-56237000D01*
X97065472Y-56237000D01*
X97350825Y-56180240D01*
X97619622Y-56068901D01*
X97861533Y-55907261D01*
X98067261Y-55701533D01*
X98190000Y-55517841D01*
X98312739Y-55701533D01*
X98518467Y-55907261D01*
X98760378Y-56068901D01*
X99029175Y-56180240D01*
X99314528Y-56237000D01*
X99605472Y-56237000D01*
X99890825Y-56180240D01*
X100159622Y-56068901D01*
X100401533Y-55907261D01*
X100607261Y-55701533D01*
X100768901Y-55459622D01*
X100880240Y-55190825D01*
X100937000Y-54905472D01*
X100937000Y-54614528D01*
X100880240Y-54329175D01*
X100768901Y-54060378D01*
X100607261Y-53818467D01*
X100401533Y-53612739D01*
X100159622Y-53451099D01*
X99890825Y-53339760D01*
X99605472Y-53283000D01*
X99314528Y-53283000D01*
X99029175Y-53339760D01*
X98760378Y-53451099D01*
X98518467Y-53612739D01*
X98312739Y-53818467D01*
X98190000Y-54002159D01*
X98067261Y-53818467D01*
X97861533Y-53612739D01*
X97619622Y-53451099D01*
X97350825Y-53339760D01*
X97065472Y-53283000D01*
X96774528Y-53283000D01*
X96489175Y-53339760D01*
X96220378Y-53451099D01*
X95978467Y-53612739D01*
X95772739Y-53818467D01*
X95650000Y-54002159D01*
X95527261Y-53818467D01*
X95321533Y-53612739D01*
X95079622Y-53451099D01*
X94810825Y-53339760D01*
X94525472Y-53283000D01*
X94234528Y-53283000D01*
X93949175Y-53339760D01*
X93680378Y-53451099D01*
X93438467Y-53612739D01*
X93232739Y-53818467D01*
X93110000Y-54002159D01*
X92987261Y-53818467D01*
X92781533Y-53612739D01*
X92539622Y-53451099D01*
X92270825Y-53339760D01*
X91985472Y-53283000D01*
X91694528Y-53283000D01*
X91409175Y-53339760D01*
X91140378Y-53451099D01*
X90898467Y-53612739D01*
X90692739Y-53818467D01*
X90570000Y-54002159D01*
X90447261Y-53818467D01*
X90241533Y-53612739D01*
X89999622Y-53451099D01*
X89730825Y-53339760D01*
X89445472Y-53283000D01*
X89154528Y-53283000D01*
X89078407Y-53298141D01*
X86890598Y-51110333D01*
X86863134Y-51076868D01*
X86729593Y-50967274D01*
X86577238Y-50885839D01*
X86411923Y-50835691D01*
X86283080Y-50823001D01*
X86240001Y-50818758D01*
X86196922Y-50823001D01*
X81886712Y-50823001D01*
X81885000Y-50285750D01*
X81726250Y-50127000D01*
X80127000Y-50127000D01*
X80127000Y-50147000D01*
X79873000Y-50147000D01*
X79873000Y-50127000D01*
X78273750Y-50127000D01*
X78115000Y-50285750D01*
X78113288Y-50823001D01*
X76690752Y-50823001D01*
X76804868Y-50547501D01*
X76877000Y-50184868D01*
X76877000Y-49815132D01*
X76804868Y-49452499D01*
X76663376Y-49110907D01*
X76457961Y-48803482D01*
X76404479Y-48750000D01*
X78111928Y-48750000D01*
X78115000Y-49714250D01*
X78273750Y-49873000D01*
X79873000Y-49873000D01*
X79873000Y-48273750D01*
X80127000Y-48273750D01*
X80127000Y-49873000D01*
X81726250Y-49873000D01*
X81784118Y-49815132D01*
X88123000Y-49815132D01*
X88123000Y-50184868D01*
X88195132Y-50547501D01*
X88336624Y-50889093D01*
X88542039Y-51196518D01*
X88803482Y-51457961D01*
X89110907Y-51663376D01*
X89452499Y-51804868D01*
X89815132Y-51877000D01*
X90184868Y-51877000D01*
X90547501Y-51804868D01*
X90889093Y-51663376D01*
X91196518Y-51457961D01*
X91457961Y-51196518D01*
X91663376Y-50889093D01*
X91804868Y-50547501D01*
X91877000Y-50184868D01*
X91877000Y-49815132D01*
X93123000Y-49815132D01*
X93123000Y-50184868D01*
X93195132Y-50547501D01*
X93336624Y-50889093D01*
X93542039Y-51196518D01*
X93803482Y-51457961D01*
X94110907Y-51663376D01*
X94452499Y-51804868D01*
X94815132Y-51877000D01*
X95184868Y-51877000D01*
X95547501Y-51804868D01*
X95889093Y-51663376D01*
X96196518Y-51457961D01*
X96404479Y-51250000D01*
X98111928Y-51250000D01*
X98124188Y-51374482D01*
X98160498Y-51494180D01*
X98219463Y-51604494D01*
X98298815Y-51701185D01*
X98395506Y-51780537D01*
X98505820Y-51839502D01*
X98625518Y-51875812D01*
X98750000Y-51888072D01*
X99714250Y-51885000D01*
X99873000Y-51726250D01*
X99873000Y-50127000D01*
X100127000Y-50127000D01*
X100127000Y-51726250D01*
X100285750Y-51885000D01*
X101250000Y-51888072D01*
X101374482Y-51875812D01*
X101494180Y-51839502D01*
X101604494Y-51780537D01*
X101701185Y-51701185D01*
X101780537Y-51604494D01*
X101839502Y-51494180D01*
X101875812Y-51374482D01*
X101888072Y-51250000D01*
X101885000Y-50285750D01*
X101726250Y-50127000D01*
X100127000Y-50127000D01*
X99873000Y-50127000D01*
X98273750Y-50127000D01*
X98115000Y-50285750D01*
X98111928Y-51250000D01*
X96404479Y-51250000D01*
X96457961Y-51196518D01*
X96663376Y-50889093D01*
X96804868Y-50547501D01*
X96877000Y-50184868D01*
X96877000Y-49815132D01*
X96804868Y-49452499D01*
X96663376Y-49110907D01*
X96457961Y-48803482D01*
X96404479Y-48750000D01*
X98111928Y-48750000D01*
X98115000Y-49714250D01*
X98273750Y-49873000D01*
X99873000Y-49873000D01*
X99873000Y-48273750D01*
X100127000Y-48273750D01*
X100127000Y-49873000D01*
X101726250Y-49873000D01*
X101885000Y-49714250D01*
X101888072Y-48750000D01*
X101875812Y-48625518D01*
X101839502Y-48505820D01*
X101780537Y-48395506D01*
X101701185Y-48298815D01*
X101604494Y-48219463D01*
X101494180Y-48160498D01*
X101374482Y-48124188D01*
X101250000Y-48111928D01*
X100285750Y-48115000D01*
X100127000Y-48273750D01*
X99873000Y-48273750D01*
X99714250Y-48115000D01*
X98750000Y-48111928D01*
X98625518Y-48124188D01*
X98505820Y-48160498D01*
X98395506Y-48219463D01*
X98298815Y-48298815D01*
X98219463Y-48395506D01*
X98160498Y-48505820D01*
X98124188Y-48625518D01*
X98111928Y-48750000D01*
X96404479Y-48750000D01*
X96196518Y-48542039D01*
X95889093Y-48336624D01*
X95547501Y-48195132D01*
X95184868Y-48123000D01*
X94815132Y-48123000D01*
X94452499Y-48195132D01*
X94110907Y-48336624D01*
X93803482Y-48542039D01*
X93542039Y-48803482D01*
X93336624Y-49110907D01*
X93195132Y-49452499D01*
X93123000Y-49815132D01*
X91877000Y-49815132D01*
X91804868Y-49452499D01*
X91663376Y-49110907D01*
X91457961Y-48803482D01*
X91196518Y-48542039D01*
X90889093Y-48336624D01*
X90547501Y-48195132D01*
X90184868Y-48123000D01*
X89815132Y-48123000D01*
X89452499Y-48195132D01*
X89110907Y-48336624D01*
X88803482Y-48542039D01*
X88542039Y-48803482D01*
X88336624Y-49110907D01*
X88195132Y-49452499D01*
X88123000Y-49815132D01*
X81784118Y-49815132D01*
X81885000Y-49714250D01*
X81888072Y-48750000D01*
X81875812Y-48625518D01*
X81839502Y-48505820D01*
X81780537Y-48395506D01*
X81701185Y-48298815D01*
X81604494Y-48219463D01*
X81494180Y-48160498D01*
X81374482Y-48124188D01*
X81250000Y-48111928D01*
X80285750Y-48115000D01*
X80127000Y-48273750D01*
X79873000Y-48273750D01*
X79714250Y-48115000D01*
X78750000Y-48111928D01*
X78625518Y-48124188D01*
X78505820Y-48160498D01*
X78395506Y-48219463D01*
X78298815Y-48298815D01*
X78219463Y-48395506D01*
X78160498Y-48505820D01*
X78124188Y-48625518D01*
X78111928Y-48750000D01*
X76404479Y-48750000D01*
X76196518Y-48542039D01*
X75889093Y-48336624D01*
X75547501Y-48195132D01*
X75184868Y-48123000D01*
X74815132Y-48123000D01*
X74452499Y-48195132D01*
X74110907Y-48336624D01*
X73803482Y-48542039D01*
X73542039Y-48803482D01*
X73336624Y-49110907D01*
X73195132Y-49452499D01*
X73123000Y-49815132D01*
X73123000Y-50184868D01*
X73195132Y-50547501D01*
X73309248Y-50823001D01*
X71690752Y-50823001D01*
X71804868Y-50547501D01*
X71877000Y-50184868D01*
X71877000Y-49815132D01*
X71804868Y-49452499D01*
X71663376Y-49110907D01*
X71457961Y-48803482D01*
X71196518Y-48542039D01*
X70889093Y-48336624D01*
X70547501Y-48195132D01*
X70184868Y-48123000D01*
X69815132Y-48123000D01*
X69452499Y-48195132D01*
X69110907Y-48336624D01*
X68803482Y-48542039D01*
X68542039Y-48803482D01*
X68336624Y-49110907D01*
X68195132Y-49452499D01*
X68123000Y-49815132D01*
X68123000Y-50184868D01*
X68195132Y-50547501D01*
X68309248Y-50823001D01*
X61886712Y-50823001D01*
X61885000Y-50285750D01*
X61726250Y-50127000D01*
X60127000Y-50127000D01*
X60127000Y-50147000D01*
X59873000Y-50147000D01*
X59873000Y-50127000D01*
X58273750Y-50127000D01*
X58115000Y-50285750D01*
X58113288Y-50823001D01*
X57063266Y-50823001D01*
X56799859Y-50559594D01*
X56804868Y-50547501D01*
X56877000Y-50184868D01*
X56877000Y-49815132D01*
X56804868Y-49452499D01*
X56663376Y-49110907D01*
X56457961Y-48803482D01*
X56404479Y-48750000D01*
X58111928Y-48750000D01*
X58115000Y-49714250D01*
X58273750Y-49873000D01*
X59873000Y-49873000D01*
X59873000Y-48273750D01*
X60127000Y-48273750D01*
X60127000Y-49873000D01*
X61726250Y-49873000D01*
X61885000Y-49714250D01*
X61888072Y-48750000D01*
X61875812Y-48625518D01*
X61839502Y-48505820D01*
X61780537Y-48395506D01*
X61701185Y-48298815D01*
X61604494Y-48219463D01*
X61494180Y-48160498D01*
X61374482Y-48124188D01*
X61250000Y-48111928D01*
X60285750Y-48115000D01*
X60127000Y-48273750D01*
X59873000Y-48273750D01*
X59714250Y-48115000D01*
X58750000Y-48111928D01*
X58625518Y-48124188D01*
X58505820Y-48160498D01*
X58395506Y-48219463D01*
X58298815Y-48298815D01*
X58219463Y-48395506D01*
X58160498Y-48505820D01*
X58124188Y-48625518D01*
X58111928Y-48750000D01*
X56404479Y-48750000D01*
X56196518Y-48542039D01*
X55889093Y-48336624D01*
X55547501Y-48195132D01*
X55184868Y-48123000D01*
X54815132Y-48123000D01*
X54452499Y-48195132D01*
X54110907Y-48336624D01*
X53803482Y-48542039D01*
X53542039Y-48803482D01*
X53336624Y-49110907D01*
X53195132Y-49452499D01*
X53123000Y-49815132D01*
X53123000Y-50184868D01*
X53195132Y-50547501D01*
X53336624Y-50889093D01*
X53542039Y-51196518D01*
X53803482Y-51457961D01*
X54110907Y-51663376D01*
X54452499Y-51804868D01*
X54815132Y-51877000D01*
X55184868Y-51877000D01*
X55547501Y-51804868D01*
X55559594Y-51799859D01*
X56049404Y-52289669D01*
X56076868Y-52323134D01*
X56210409Y-52432728D01*
X56267044Y-52463000D01*
X48288027Y-52463000D01*
X48238467Y-52429885D01*
X48051565Y-52352467D01*
X47853151Y-52313000D01*
X47650849Y-52313000D01*
X47452435Y-52352467D01*
X47265533Y-52429885D01*
X47097326Y-52542277D01*
X46954277Y-52685326D01*
X46841885Y-52853533D01*
X46764467Y-53040435D01*
X46725000Y-53238849D01*
X46725000Y-53441151D01*
X46764467Y-53639565D01*
X46841885Y-53826467D01*
X46954277Y-53994674D01*
X47097326Y-54137723D01*
X47265533Y-54250115D01*
X47452435Y-54327533D01*
X47650849Y-54367000D01*
X47853151Y-54367000D01*
X48051565Y-54327533D01*
X48238467Y-54250115D01*
X48288027Y-54217000D01*
X49813739Y-54217000D01*
X49796629Y-54252883D01*
X49724661Y-54536411D01*
X49709389Y-54828531D01*
X49751401Y-55118019D01*
X49849081Y-55393747D01*
X49922528Y-55531157D01*
X50171603Y-55608792D01*
X51020395Y-54760000D01*
X51006253Y-54745858D01*
X51185858Y-54566253D01*
X51200000Y-54580395D01*
X51214143Y-54566253D01*
X51393748Y-54745858D01*
X51379605Y-54760000D01*
X52228397Y-55608792D01*
X52477472Y-55531157D01*
X52478066Y-55529912D01*
X52592739Y-55701533D01*
X52798467Y-55907261D01*
X53040378Y-56068901D01*
X53309175Y-56180240D01*
X53594528Y-56237000D01*
X53885472Y-56237000D01*
X54170825Y-56180240D01*
X54439622Y-56068901D01*
X54681533Y-55907261D01*
X54887261Y-55701533D01*
X55010000Y-55517841D01*
X55132739Y-55701533D01*
X55338467Y-55907261D01*
X55580378Y-56068901D01*
X55849175Y-56180240D01*
X56134528Y-56237000D01*
X56425472Y-56237000D01*
X56710825Y-56180240D01*
X56979622Y-56068901D01*
X57221533Y-55907261D01*
X57427261Y-55701533D01*
X57550000Y-55517841D01*
X57672739Y-55701533D01*
X57878467Y-55907261D01*
X58120378Y-56068901D01*
X58389175Y-56180240D01*
X58674528Y-56237000D01*
X58965472Y-56237000D01*
X59250825Y-56180240D01*
X59519622Y-56068901D01*
X59761533Y-55907261D01*
X59967261Y-55701533D01*
X60090000Y-55517841D01*
X60212739Y-55701533D01*
X60418467Y-55907261D01*
X60660378Y-56068901D01*
X60929175Y-56180240D01*
X61214528Y-56237000D01*
X61505472Y-56237000D01*
X61790825Y-56180240D01*
X62059622Y-56068901D01*
X62301533Y-55907261D01*
X62507261Y-55701533D01*
X62630000Y-55517841D01*
X62752739Y-55701533D01*
X62958467Y-55907261D01*
X63200378Y-56068901D01*
X63469175Y-56180240D01*
X63754528Y-56237000D01*
X64045472Y-56237000D01*
X64330825Y-56180240D01*
X64599622Y-56068901D01*
X64841533Y-55907261D01*
X65047261Y-55701533D01*
X65170000Y-55517841D01*
X65292739Y-55701533D01*
X65498467Y-55907261D01*
X65740378Y-56068901D01*
X66009175Y-56180240D01*
X66294528Y-56237000D01*
X66585472Y-56237000D01*
X66870825Y-56180240D01*
X67139622Y-56068901D01*
X67381533Y-55907261D01*
X67587261Y-55701533D01*
X67710000Y-55517841D01*
X67832739Y-55701533D01*
X68038467Y-55907261D01*
X68280378Y-56068901D01*
X68549175Y-56180240D01*
X68834528Y-56237000D01*
X69125472Y-56237000D01*
X69201594Y-56221859D01*
X70973403Y-57993668D01*
X71000867Y-58027133D01*
X71029949Y-58051000D01*
X54691104Y-58051000D01*
X54648034Y-58046758D01*
X54604965Y-58051000D01*
X54604956Y-58051000D01*
X54476113Y-58063690D01*
X54310798Y-58113838D01*
X54158443Y-58195273D01*
X54024902Y-58304867D01*
X53997438Y-58338332D01*
X47010316Y-65325454D01*
X46976857Y-65352913D01*
X46949398Y-65386372D01*
X46949395Y-65386375D01*
X46867263Y-65486454D01*
X46785827Y-65638810D01*
X46735679Y-65804124D01*
X46718746Y-65976046D01*
X45777000Y-65976046D01*
X45777000Y-55788397D01*
X50351208Y-55788397D01*
X50428843Y-56037472D01*
X50692883Y-56163371D01*
X50976411Y-56235339D01*
X51268531Y-56250611D01*
X51558019Y-56208599D01*
X51833747Y-56110919D01*
X51971157Y-56037472D01*
X52048792Y-55788397D01*
X51200000Y-54939605D01*
X50351208Y-55788397D01*
X45777000Y-55788397D01*
X45777000Y-50034605D01*
X45796587Y-49815132D01*
X48123000Y-49815132D01*
X48123000Y-50184868D01*
X48195132Y-50547501D01*
X48336624Y-50889093D01*
X48542039Y-51196518D01*
X48803482Y-51457961D01*
X49110907Y-51663376D01*
X49452499Y-51804868D01*
X49815132Y-51877000D01*
X50184868Y-51877000D01*
X50547501Y-51804868D01*
X50889093Y-51663376D01*
X51196518Y-51457961D01*
X51457961Y-51196518D01*
X51663376Y-50889093D01*
X51804868Y-50547501D01*
X51877000Y-50184868D01*
X51877000Y-49815132D01*
X51804868Y-49452499D01*
X51663376Y-49110907D01*
X51457961Y-48803482D01*
X51196518Y-48542039D01*
X50889093Y-48336624D01*
X50547501Y-48195132D01*
X50184868Y-48123000D01*
X49815132Y-48123000D01*
X49452499Y-48195132D01*
X49110907Y-48336624D01*
X48803482Y-48542039D01*
X48542039Y-48803482D01*
X48336624Y-49110907D01*
X48195132Y-49452499D01*
X48123000Y-49815132D01*
X45796587Y-49815132D01*
X45846782Y-49252716D01*
X46044753Y-48529058D01*
X46367744Y-47851891D01*
X46805550Y-47242620D01*
X47344326Y-46720511D01*
X47967040Y-46302065D01*
X48654024Y-46000500D01*
X49389521Y-45823922D01*
X50028486Y-45777000D01*
X99965395Y-45777000D01*
X100747284Y-45846782D01*
G04 #@! TA.AperFunction,Conductor*
D28*
G36*
X100747284Y-45846782D02*
G01*
X101470942Y-46044753D01*
X102148109Y-46367744D01*
X102757380Y-46805550D01*
X103279489Y-47344326D01*
X103697935Y-47967040D01*
X103999500Y-48654024D01*
X104176078Y-49389521D01*
X104223001Y-50028500D01*
X104223000Y-119965395D01*
X104153218Y-120747284D01*
X103955248Y-121470941D01*
X103632254Y-122148111D01*
X103194450Y-122757380D01*
X102655677Y-123279487D01*
X102032956Y-123697938D01*
X101345976Y-123999500D01*
X100610481Y-124176077D01*
X99971514Y-124223000D01*
X87635350Y-124223000D01*
X87650537Y-124204494D01*
X87709502Y-124094180D01*
X87745812Y-123974482D01*
X87758072Y-123850000D01*
X87755000Y-123285750D01*
X87596250Y-123127000D01*
X86397000Y-123127000D01*
X86397000Y-123147000D01*
X86143000Y-123147000D01*
X86143000Y-123127000D01*
X86123000Y-123127000D01*
X86123000Y-122873000D01*
X86143000Y-122873000D01*
X86143000Y-121673750D01*
X86397000Y-121673750D01*
X86397000Y-122873000D01*
X87596250Y-122873000D01*
X87755000Y-122714250D01*
X87758072Y-122150000D01*
X87745812Y-122025518D01*
X87709502Y-121905820D01*
X87650537Y-121795506D01*
X87571185Y-121698815D01*
X87474494Y-121619463D01*
X87364180Y-121560498D01*
X87244482Y-121524188D01*
X87120000Y-121511928D01*
X86555750Y-121515000D01*
X86397000Y-121673750D01*
X86143000Y-121673750D01*
X85984250Y-121515000D01*
X85420000Y-121511928D01*
X85295518Y-121524188D01*
X85175820Y-121560498D01*
X85065506Y-121619463D01*
X84968815Y-121698815D01*
X84889463Y-121795506D01*
X84830498Y-121905820D01*
X84805854Y-121987060D01*
X84671533Y-121852739D01*
X84429622Y-121691099D01*
X84160825Y-121579760D01*
X83875472Y-121523000D01*
X83584528Y-121523000D01*
X83299175Y-121579760D01*
X83030378Y-121691099D01*
X82788467Y-121852739D01*
X82582739Y-122058467D01*
X82421099Y-122300378D01*
X82309760Y-122569175D01*
X82253000Y-122854528D01*
X82253000Y-123145472D01*
X82309760Y-123430825D01*
X82421099Y-123699622D01*
X82582739Y-123941533D01*
X82788467Y-124147261D01*
X82901818Y-124223000D01*
X67098182Y-124223000D01*
X67211533Y-124147261D01*
X67417261Y-123941533D01*
X67578901Y-123699622D01*
X67690240Y-123430825D01*
X67747000Y-123145472D01*
X67747000Y-122854528D01*
X67691796Y-122576999D01*
X71137088Y-122576999D01*
X71205409Y-122741938D01*
X71361576Y-122975660D01*
X71560340Y-123174424D01*
X71794062Y-123330591D01*
X72053759Y-123438162D01*
X72329453Y-123493000D01*
X72610547Y-123493000D01*
X72886241Y-123438162D01*
X73145938Y-123330591D01*
X73379660Y-123174424D01*
X73495382Y-123058702D01*
X76656903Y-123058702D01*
X76728486Y-123302671D01*
X76983996Y-123423571D01*
X77258184Y-123492300D01*
X77540512Y-123506217D01*
X77820130Y-123464787D01*
X78086292Y-123369603D01*
X78211514Y-123302671D01*
X78283097Y-123058702D01*
X77470000Y-122245605D01*
X76656903Y-123058702D01*
X73495382Y-123058702D01*
X73578424Y-122975660D01*
X73734591Y-122741938D01*
X73842162Y-122482241D01*
X73897000Y-122206547D01*
X73897000Y-122136512D01*
X76029783Y-122136512D01*
X76071213Y-122416130D01*
X76166397Y-122682292D01*
X76233329Y-122807514D01*
X76477298Y-122879097D01*
X77290395Y-122066000D01*
X77649605Y-122066000D01*
X78462702Y-122879097D01*
X78706671Y-122807514D01*
X78827571Y-122552004D01*
X78896300Y-122277816D01*
X78910217Y-121995488D01*
X78868787Y-121715870D01*
X78773603Y-121449708D01*
X78706671Y-121324486D01*
X78462702Y-121252903D01*
X77649605Y-122066000D01*
X77290395Y-122066000D01*
X76477298Y-121252903D01*
X76233329Y-121324486D01*
X76112429Y-121579996D01*
X76043700Y-121854184D01*
X76029783Y-122136512D01*
X73897000Y-122136512D01*
X73897000Y-121925453D01*
X73842162Y-121649759D01*
X73734591Y-121390062D01*
X73578424Y-121156340D01*
X73495382Y-121073298D01*
X76656903Y-121073298D01*
X77470000Y-121886395D01*
X78283097Y-121073298D01*
X78211514Y-120829329D01*
X77956004Y-120708429D01*
X77681816Y-120639700D01*
X77399488Y-120625783D01*
X77119870Y-120667213D01*
X76853708Y-120762397D01*
X76728486Y-120829329D01*
X76656903Y-121073298D01*
X73495382Y-121073298D01*
X73379660Y-120957576D01*
X73145938Y-120801409D01*
X72886241Y-120693838D01*
X72610547Y-120639000D01*
X72329453Y-120639000D01*
X72053759Y-120693838D01*
X71794062Y-120801409D01*
X71761750Y-120822999D01*
X66525263Y-120822999D01*
X65632915Y-119930651D01*
X65723306Y-119893210D01*
X65973406Y-119726099D01*
X66186099Y-119513406D01*
X66353210Y-119263306D01*
X66468319Y-118985410D01*
X66527000Y-118690396D01*
X66527000Y-118389604D01*
X66468319Y-118094590D01*
X66353210Y-117816694D01*
X66186099Y-117566594D01*
X66117193Y-117497688D01*
X66144180Y-117489502D01*
X66254494Y-117430537D01*
X66351185Y-117351185D01*
X66430537Y-117254494D01*
X66489502Y-117144180D01*
X66525812Y-117024482D01*
X66538072Y-116900000D01*
X83461928Y-116900000D01*
X83474188Y-117024482D01*
X83510498Y-117144180D01*
X83569463Y-117254494D01*
X83648815Y-117351185D01*
X83745506Y-117430537D01*
X83855820Y-117489502D01*
X83882807Y-117497688D01*
X83813901Y-117566594D01*
X83646790Y-117816694D01*
X83531681Y-118094590D01*
X83473000Y-118389604D01*
X83473000Y-118690396D01*
X83531681Y-118985410D01*
X83646790Y-119263306D01*
X83813901Y-119513406D01*
X84026594Y-119726099D01*
X84276694Y-119893210D01*
X84554590Y-120008319D01*
X84849604Y-120067000D01*
X85150396Y-120067000D01*
X85445410Y-120008319D01*
X85723306Y-119893210D01*
X85973406Y-119726099D01*
X86186099Y-119513406D01*
X86353210Y-119263306D01*
X86468319Y-118985410D01*
X86527000Y-118690396D01*
X86527000Y-118389604D01*
X86468319Y-118094590D01*
X86353210Y-117816694D01*
X86186099Y-117566594D01*
X86117193Y-117497688D01*
X86144180Y-117489502D01*
X86254494Y-117430537D01*
X86351185Y-117351185D01*
X86430537Y-117254494D01*
X86489502Y-117144180D01*
X86525812Y-117024482D01*
X86538072Y-116900000D01*
X86535000Y-116285750D01*
X86376250Y-116127000D01*
X85127000Y-116127000D01*
X85127000Y-116147000D01*
X84873000Y-116147000D01*
X84873000Y-116127000D01*
X83623750Y-116127000D01*
X83465000Y-116285750D01*
X83461928Y-116900000D01*
X66538072Y-116900000D01*
X66535000Y-116285750D01*
X66376250Y-116127000D01*
X65127000Y-116127000D01*
X65127000Y-116147000D01*
X64873000Y-116147000D01*
X64873000Y-116127000D01*
X63623750Y-116127000D01*
X63465000Y-116285750D01*
X63461928Y-116900000D01*
X63474188Y-117024482D01*
X63510498Y-117144180D01*
X63569463Y-117254494D01*
X63648815Y-117351185D01*
X63745506Y-117430537D01*
X63855820Y-117489502D01*
X63882807Y-117497688D01*
X63813901Y-117566594D01*
X63646790Y-117816694D01*
X63609349Y-117907085D01*
X60802264Y-115100000D01*
X63461928Y-115100000D01*
X63465000Y-115714250D01*
X63623750Y-115873000D01*
X64873000Y-115873000D01*
X64873000Y-114623750D01*
X65127000Y-114623750D01*
X65127000Y-115873000D01*
X66376250Y-115873000D01*
X66535000Y-115714250D01*
X66538072Y-115100000D01*
X83461928Y-115100000D01*
X83465000Y-115714250D01*
X83623750Y-115873000D01*
X84873000Y-115873000D01*
X84873000Y-114623750D01*
X85127000Y-114623750D01*
X85127000Y-115873000D01*
X86376250Y-115873000D01*
X86535000Y-115714250D01*
X86538072Y-115100000D01*
X86525812Y-114975518D01*
X86489502Y-114855820D01*
X86430537Y-114745506D01*
X86351185Y-114648815D01*
X86254494Y-114569463D01*
X86144180Y-114510498D01*
X86024482Y-114474188D01*
X85900000Y-114461928D01*
X85285750Y-114465000D01*
X85127000Y-114623750D01*
X84873000Y-114623750D01*
X84714250Y-114465000D01*
X84100000Y-114461928D01*
X83975518Y-114474188D01*
X83855820Y-114510498D01*
X83745506Y-114569463D01*
X83648815Y-114648815D01*
X83569463Y-114745506D01*
X83510498Y-114855820D01*
X83474188Y-114975518D01*
X83461928Y-115100000D01*
X66538072Y-115100000D01*
X66525812Y-114975518D01*
X66489502Y-114855820D01*
X66430537Y-114745506D01*
X66351185Y-114648815D01*
X66254494Y-114569463D01*
X66144180Y-114510498D01*
X66024482Y-114474188D01*
X65900000Y-114461928D01*
X65285750Y-114465000D01*
X65127000Y-114623750D01*
X64873000Y-114623750D01*
X64714250Y-114465000D01*
X64100000Y-114461928D01*
X63975518Y-114474188D01*
X63855820Y-114510498D01*
X63745506Y-114569463D01*
X63648815Y-114648815D01*
X63569463Y-114745506D01*
X63510498Y-114855820D01*
X63474188Y-114975518D01*
X63461928Y-115100000D01*
X60802264Y-115100000D01*
X58562966Y-112860702D01*
X71656903Y-112860702D01*
X71728486Y-113104671D01*
X71983996Y-113225571D01*
X72258184Y-113294300D01*
X72540512Y-113308217D01*
X72820130Y-113266787D01*
X73086292Y-113171603D01*
X73211514Y-113104671D01*
X73283097Y-112860702D01*
X72470000Y-112047605D01*
X71656903Y-112860702D01*
X58562966Y-112860702D01*
X57792999Y-112090736D01*
X57792999Y-111875897D01*
X57954184Y-111916300D01*
X58236512Y-111930217D01*
X58516130Y-111888787D01*
X58782292Y-111793603D01*
X58907514Y-111726671D01*
X58979097Y-111482702D01*
X58166000Y-110669605D01*
X58151858Y-110683748D01*
X57972253Y-110504143D01*
X57986395Y-110490000D01*
X58345605Y-110490000D01*
X59158702Y-111303097D01*
X59402671Y-111231514D01*
X59523571Y-110976004D01*
X59592300Y-110701816D01*
X59606217Y-110419488D01*
X59564787Y-110139870D01*
X59469603Y-109873708D01*
X59402671Y-109748486D01*
X59158702Y-109676903D01*
X58345605Y-110490000D01*
X57986395Y-110490000D01*
X57972253Y-110475858D01*
X58151858Y-110296253D01*
X58166000Y-110310395D01*
X58979097Y-109497298D01*
X58907514Y-109253329D01*
X58652004Y-109132429D01*
X58377816Y-109063700D01*
X58095488Y-109049783D01*
X57815870Y-109091213D01*
X57783720Y-109102710D01*
X57780309Y-109068077D01*
X57730161Y-108902762D01*
X57648726Y-108750407D01*
X57539132Y-108616866D01*
X57505668Y-108589403D01*
X56371162Y-107454897D01*
X56359533Y-107396435D01*
X56282115Y-107209533D01*
X56169723Y-107041326D01*
X56026674Y-106898277D01*
X55858467Y-106785885D01*
X55671565Y-106708467D01*
X55473151Y-106669000D01*
X55270849Y-106669000D01*
X55072435Y-106708467D01*
X54885533Y-106785885D01*
X54717326Y-106898277D01*
X54574277Y-107041326D01*
X54461885Y-107209533D01*
X54384467Y-107396435D01*
X54345000Y-107594849D01*
X54345000Y-107797151D01*
X54384467Y-107995565D01*
X54461885Y-108182467D01*
X54574277Y-108350674D01*
X54717326Y-108493723D01*
X54885533Y-108606115D01*
X55072435Y-108683533D01*
X55130897Y-108695162D01*
X55412047Y-108976312D01*
X55329816Y-108955700D01*
X55047488Y-108941783D01*
X54767870Y-108983213D01*
X54501708Y-109078397D01*
X54376486Y-109145329D01*
X54304903Y-109389298D01*
X55118000Y-110202395D01*
X55132143Y-110188253D01*
X55311748Y-110367858D01*
X55297605Y-110382000D01*
X55311748Y-110396143D01*
X55132143Y-110575748D01*
X55118000Y-110561605D01*
X54304903Y-111374702D01*
X54376486Y-111618671D01*
X54631996Y-111739571D01*
X54906184Y-111808300D01*
X55188512Y-111822217D01*
X55468130Y-111780787D01*
X55734292Y-111685603D01*
X55859514Y-111618671D01*
X55931097Y-111374704D01*
X56039000Y-111482607D01*
X56039000Y-112410912D01*
X56034756Y-112454001D01*
X56051689Y-112625923D01*
X56101837Y-112791237D01*
X56183273Y-112943593D01*
X56265405Y-113043672D01*
X56265408Y-113043675D01*
X56292867Y-113077134D01*
X56326326Y-113104593D01*
X64763964Y-121542232D01*
X64704482Y-121524188D01*
X64580000Y-121511928D01*
X64015750Y-121515000D01*
X63857000Y-121673750D01*
X63857000Y-122873000D01*
X63877000Y-122873000D01*
X63877000Y-123127000D01*
X63857000Y-123127000D01*
X63857000Y-123147000D01*
X63603000Y-123147000D01*
X63603000Y-123127000D01*
X62403750Y-123127000D01*
X62245000Y-123285750D01*
X62241928Y-123850000D01*
X62254188Y-123974482D01*
X62290498Y-124094180D01*
X62349463Y-124204494D01*
X62364650Y-124223000D01*
X50034605Y-124223000D01*
X49252716Y-124153218D01*
X48529059Y-123955248D01*
X47851889Y-123632254D01*
X47242620Y-123194450D01*
X46720513Y-122655677D01*
X46380713Y-122150000D01*
X62241928Y-122150000D01*
X62245000Y-122714250D01*
X62403750Y-122873000D01*
X63603000Y-122873000D01*
X63603000Y-121673750D01*
X63444250Y-121515000D01*
X62880000Y-121511928D01*
X62755518Y-121524188D01*
X62635820Y-121560498D01*
X62525506Y-121619463D01*
X62428815Y-121698815D01*
X62349463Y-121795506D01*
X62290498Y-121905820D01*
X62254188Y-122025518D01*
X62241928Y-122150000D01*
X46380713Y-122150000D01*
X46302062Y-122032956D01*
X46000500Y-121345976D01*
X45823923Y-120610481D01*
X45777000Y-119971514D01*
X45777000Y-110241453D01*
X48691000Y-110241453D01*
X48691000Y-110522547D01*
X48745838Y-110798241D01*
X48853409Y-111057938D01*
X49009576Y-111291660D01*
X49208340Y-111490424D01*
X49442062Y-111646591D01*
X49701759Y-111754162D01*
X49977453Y-111809000D01*
X50258547Y-111809000D01*
X50534241Y-111754162D01*
X50793938Y-111646591D01*
X51027660Y-111490424D01*
X51226424Y-111291660D01*
X51382591Y-111057938D01*
X51490162Y-110798241D01*
X51545000Y-110522547D01*
X51545000Y-110452512D01*
X53677783Y-110452512D01*
X53719213Y-110732130D01*
X53814397Y-110998292D01*
X53881329Y-111123514D01*
X54125298Y-111195097D01*
X54938395Y-110382000D01*
X54125298Y-109568903D01*
X53881329Y-109640486D01*
X53760429Y-109895996D01*
X53691700Y-110170184D01*
X53677783Y-110452512D01*
X51545000Y-110452512D01*
X51545000Y-110241453D01*
X51490162Y-109965759D01*
X51382591Y-109706062D01*
X51226424Y-109472340D01*
X51027660Y-109273576D01*
X50793938Y-109117409D01*
X50534241Y-109009838D01*
X50258547Y-108955000D01*
X49977453Y-108955000D01*
X49701759Y-109009838D01*
X49442062Y-109117409D01*
X49208340Y-109273576D01*
X49009576Y-109472340D01*
X48853409Y-109706062D01*
X48745838Y-109965759D01*
X48691000Y-110241453D01*
X45777000Y-110241453D01*
X45777000Y-95425527D01*
X54294078Y-95425527D01*
X54347466Y-95654201D01*
X54577374Y-95760095D01*
X54823524Y-95819102D01*
X55076455Y-95828952D01*
X55326449Y-95789270D01*
X55563896Y-95701578D01*
X55652534Y-95654201D01*
X55705922Y-95425527D01*
X64294078Y-95425527D01*
X64347466Y-95654201D01*
X64577374Y-95760095D01*
X64823524Y-95819102D01*
X65076455Y-95828952D01*
X65326449Y-95789270D01*
X65563896Y-95701578D01*
X65652534Y-95654201D01*
X65671138Y-95574512D01*
X67647783Y-95574512D01*
X67689213Y-95854130D01*
X67784397Y-96120292D01*
X67851329Y-96245514D01*
X68095298Y-96317097D01*
X68908395Y-95504000D01*
X69267605Y-95504000D01*
X70080702Y-96317097D01*
X70324671Y-96245514D01*
X70445571Y-95990004D01*
X70514300Y-95715816D01*
X70528217Y-95433488D01*
X70486787Y-95153870D01*
X70391603Y-94887708D01*
X70324671Y-94762486D01*
X70080702Y-94690903D01*
X69267605Y-95504000D01*
X68908395Y-95504000D01*
X68095298Y-94690903D01*
X67851329Y-94762486D01*
X67730429Y-95017996D01*
X67661700Y-95292184D01*
X67647783Y-95574512D01*
X65671138Y-95574512D01*
X65705922Y-95425527D01*
X65000000Y-94719605D01*
X64294078Y-95425527D01*
X55705922Y-95425527D01*
X55000000Y-94719605D01*
X54294078Y-95425527D01*
X45777000Y-95425527D01*
X45777000Y-93320890D01*
X49104524Y-93320890D01*
X49149175Y-93468099D01*
X49274359Y-93730920D01*
X49448412Y-93964269D01*
X49664645Y-94159178D01*
X49914748Y-94308157D01*
X50189109Y-94405481D01*
X50419000Y-94284814D01*
X50419000Y-93091000D01*
X49225845Y-93091000D01*
X49104524Y-93320890D01*
X45777000Y-93320890D01*
X45777000Y-65976046D01*
X46718746Y-65976046D01*
X46722990Y-66019136D01*
X46722989Y-76062874D01*
X46718746Y-76105954D01*
X46735679Y-76277876D01*
X46774446Y-76405672D01*
X46785827Y-76443190D01*
X46867262Y-76595545D01*
X46976856Y-76729087D01*
X47010321Y-76756551D01*
X57965438Y-87711668D01*
X57992902Y-87745133D01*
X58126443Y-87854727D01*
X58278798Y-87936162D01*
X58444112Y-87986310D01*
X58616035Y-88003243D01*
X58659114Y-87999000D01*
X58813753Y-87999000D01*
X58835576Y-88031660D01*
X59034340Y-88230424D01*
X59268062Y-88386591D01*
X59527759Y-88494162D01*
X59803453Y-88549000D01*
X60084547Y-88549000D01*
X60360241Y-88494162D01*
X60619938Y-88386591D01*
X60853660Y-88230424D01*
X61052424Y-88031660D01*
X61208591Y-87797938D01*
X61316162Y-87538241D01*
X61371000Y-87262547D01*
X61371000Y-86981453D01*
X61316162Y-86705759D01*
X61208591Y-86446062D01*
X61052424Y-86212340D01*
X60853660Y-86013576D01*
X60619938Y-85857409D01*
X60360241Y-85749838D01*
X60213762Y-85720702D01*
X63782903Y-85720702D01*
X63854486Y-85964671D01*
X64109996Y-86085571D01*
X64384184Y-86154300D01*
X64666512Y-86168217D01*
X64946130Y-86126787D01*
X65212292Y-86031603D01*
X65337514Y-85964671D01*
X65409097Y-85720702D01*
X64596000Y-84907605D01*
X63782903Y-85720702D01*
X60213762Y-85720702D01*
X60084547Y-85695000D01*
X59803453Y-85695000D01*
X59527759Y-85749838D01*
X59268062Y-85857409D01*
X59034340Y-86013576D01*
X58891108Y-86156808D01*
X56593753Y-83859453D01*
X58517000Y-83859453D01*
X58517000Y-84140547D01*
X58571838Y-84416241D01*
X58679409Y-84675938D01*
X58835576Y-84909660D01*
X59034340Y-85108424D01*
X59268062Y-85264591D01*
X59527759Y-85372162D01*
X59803453Y-85427000D01*
X60084547Y-85427000D01*
X60360241Y-85372162D01*
X60619938Y-85264591D01*
X60853660Y-85108424D01*
X61052424Y-84909660D01*
X61126690Y-84798512D01*
X63155783Y-84798512D01*
X63197213Y-85078130D01*
X63292397Y-85344292D01*
X63359329Y-85469514D01*
X63603298Y-85541097D01*
X64416395Y-84728000D01*
X64775605Y-84728000D01*
X65588702Y-85541097D01*
X65832671Y-85469514D01*
X65953571Y-85214004D01*
X66022300Y-84939816D01*
X66036217Y-84657488D01*
X65994787Y-84377870D01*
X65899603Y-84111708D01*
X65832671Y-83986486D01*
X65588702Y-83914903D01*
X64775605Y-84728000D01*
X64416395Y-84728000D01*
X63603298Y-83914903D01*
X63359329Y-83986486D01*
X63238429Y-84241996D01*
X63169700Y-84516184D01*
X63155783Y-84798512D01*
X61126690Y-84798512D01*
X61208591Y-84675938D01*
X61316162Y-84416241D01*
X61371000Y-84140547D01*
X61371000Y-83859453D01*
X61346305Y-83735298D01*
X63782903Y-83735298D01*
X64596000Y-84548395D01*
X65409097Y-83735298D01*
X65337514Y-83491329D01*
X65082004Y-83370429D01*
X64807816Y-83301700D01*
X64525488Y-83287783D01*
X64245870Y-83329213D01*
X63979708Y-83424397D01*
X63854486Y-83491329D01*
X63782903Y-83735298D01*
X61346305Y-83735298D01*
X61316162Y-83583759D01*
X61208591Y-83324062D01*
X61052424Y-83090340D01*
X60853660Y-82891576D01*
X60619938Y-82735409D01*
X60360241Y-82627838D01*
X60084547Y-82573000D01*
X59803453Y-82573000D01*
X59527759Y-82627838D01*
X59268062Y-82735409D01*
X59034340Y-82891576D01*
X58835576Y-83090340D01*
X58679409Y-83324062D01*
X58571838Y-83583759D01*
X58517000Y-83859453D01*
X56593753Y-83859453D01*
X54055309Y-81321009D01*
X72742914Y-81321009D01*
X72785993Y-81325252D01*
X72829072Y-81321009D01*
X72881554Y-81315840D01*
X72957915Y-81308319D01*
X73123230Y-81258171D01*
X73275585Y-81176736D01*
X73409126Y-81067142D01*
X73436589Y-81033678D01*
X74249674Y-80220593D01*
X74283134Y-80193134D01*
X74287557Y-80187745D01*
X74288137Y-80189860D01*
X74535116Y-80305760D01*
X74799960Y-80371250D01*
X75072492Y-80383812D01*
X75342238Y-80342965D01*
X75598832Y-80250277D01*
X75711863Y-80189860D01*
X75777388Y-79950993D01*
X75000000Y-79173605D01*
X74985858Y-79187748D01*
X74806253Y-79008143D01*
X74820395Y-78994000D01*
X74806253Y-78979858D01*
X74985858Y-78800253D01*
X75000000Y-78814395D01*
X75777388Y-78037007D01*
X75711863Y-77798140D01*
X75464884Y-77682240D01*
X75200040Y-77616750D01*
X74927508Y-77604188D01*
X74657762Y-77645035D01*
X74537001Y-77688657D01*
X74537001Y-76821676D01*
X74815132Y-76877000D01*
X75184868Y-76877000D01*
X75547501Y-76804868D01*
X75889093Y-76663376D01*
X76196518Y-76457961D01*
X76457961Y-76196518D01*
X76533379Y-76083646D01*
X78063700Y-77613967D01*
X76790000Y-77613967D01*
X76667087Y-77626073D01*
X76548897Y-77661925D01*
X76439972Y-77720147D01*
X76344499Y-77798499D01*
X76266147Y-77893972D01*
X76207925Y-78002897D01*
X76172073Y-78121087D01*
X76159967Y-78244000D01*
X76159967Y-78272291D01*
X75956993Y-78216612D01*
X75179605Y-78994000D01*
X75956993Y-79771388D01*
X76159967Y-79715709D01*
X76159967Y-79744000D01*
X76172073Y-79866913D01*
X76207925Y-79985103D01*
X76266147Y-80094028D01*
X76344499Y-80189501D01*
X76439972Y-80267853D01*
X76548897Y-80326075D01*
X76667087Y-80361927D01*
X76790000Y-80374033D01*
X78290000Y-80374033D01*
X78412913Y-80361927D01*
X78531103Y-80326075D01*
X78640028Y-80267853D01*
X78735501Y-80189501D01*
X78813853Y-80094028D01*
X78872075Y-79985103D01*
X78907927Y-79866913D01*
X78920033Y-79744000D01*
X78920033Y-78470300D01*
X82943001Y-82493268D01*
X82943000Y-84242735D01*
X81588596Y-82888331D01*
X81561132Y-82854866D01*
X81427591Y-82745272D01*
X81275236Y-82663837D01*
X81109921Y-82613689D01*
X80981078Y-82600999D01*
X80937999Y-82596756D01*
X80894920Y-82600999D01*
X73657080Y-82600999D01*
X73614001Y-82596756D01*
X73442078Y-82613689D01*
X73395436Y-82627838D01*
X73276764Y-82663837D01*
X73124409Y-82745272D01*
X72990868Y-82854866D01*
X72963409Y-82888325D01*
X71023000Y-84828734D01*
X71023000Y-84587453D01*
X70968162Y-84311759D01*
X70860591Y-84052062D01*
X70704424Y-83818340D01*
X70505660Y-83619576D01*
X70271938Y-83463409D01*
X70012241Y-83355838D01*
X69736547Y-83301000D01*
X69455453Y-83301000D01*
X69179759Y-83355838D01*
X68920062Y-83463409D01*
X68686340Y-83619576D01*
X68487576Y-83818340D01*
X68331409Y-84052062D01*
X68223838Y-84311759D01*
X68169000Y-84587453D01*
X68169000Y-84868547D01*
X68223838Y-85144241D01*
X68331409Y-85403938D01*
X68487576Y-85637660D01*
X68686340Y-85836424D01*
X68920062Y-85992591D01*
X69179759Y-86100162D01*
X69455453Y-86155000D01*
X69696735Y-86155000D01*
X69267072Y-86584663D01*
X69228547Y-86577000D01*
X68947453Y-86577000D01*
X68671759Y-86631838D01*
X68412062Y-86739409D01*
X68178340Y-86895576D01*
X67979576Y-87094340D01*
X67823409Y-87328062D01*
X67715838Y-87587759D01*
X67661000Y-87863453D01*
X67661000Y-88144547D01*
X67715838Y-88420241D01*
X67823409Y-88679938D01*
X67979576Y-88913660D01*
X68178340Y-89112424D01*
X68412062Y-89268591D01*
X68671759Y-89376162D01*
X68947453Y-89431000D01*
X69228547Y-89431000D01*
X69504241Y-89376162D01*
X69763938Y-89268591D01*
X69997660Y-89112424D01*
X70196424Y-88913660D01*
X70352591Y-88679938D01*
X70460162Y-88420241D01*
X70515000Y-88144547D01*
X70515000Y-87863453D01*
X70507337Y-87824928D01*
X70861225Y-87471040D01*
X79126091Y-87471040D01*
X79220930Y-87735881D01*
X79365615Y-87977131D01*
X79554586Y-88185519D01*
X79780580Y-88353037D01*
X80034913Y-88473246D01*
X80168961Y-88513904D01*
X80391000Y-88391915D01*
X80391000Y-87249000D01*
X79247376Y-87249000D01*
X79126091Y-87471040D01*
X70861225Y-87471040D01*
X73977267Y-84354999D01*
X78963237Y-84354999D01*
X78917000Y-84587453D01*
X78917000Y-84868547D01*
X78971838Y-85144241D01*
X79079409Y-85403938D01*
X79235576Y-85637660D01*
X79434340Y-85836424D01*
X79655132Y-85983951D01*
X79554586Y-86058481D01*
X79365615Y-86266869D01*
X79220930Y-86508119D01*
X79126091Y-86772960D01*
X79247376Y-86995000D01*
X80391000Y-86995000D01*
X80391000Y-86975000D01*
X80645000Y-86975000D01*
X80645000Y-86995000D01*
X80665000Y-86995000D01*
X80665000Y-87249000D01*
X80645000Y-87249000D01*
X80645000Y-88391915D01*
X80867039Y-88513904D01*
X80891002Y-88506636D01*
X80891001Y-95283365D01*
X78117968Y-92510333D01*
X78090504Y-92476868D01*
X77956963Y-92367274D01*
X77804608Y-92285839D01*
X77639293Y-92235691D01*
X77510450Y-92223001D01*
X77467371Y-92218758D01*
X77424292Y-92223001D01*
X66257660Y-92223001D01*
X66277000Y-92125774D01*
X66277000Y-91874226D01*
X66227926Y-91627513D01*
X66131663Y-91395114D01*
X65991911Y-91185960D01*
X65814040Y-91008089D01*
X65604886Y-90868337D01*
X65372487Y-90772074D01*
X65160966Y-90730000D01*
X65372487Y-90687926D01*
X65604886Y-90591663D01*
X65814040Y-90451911D01*
X65991911Y-90274040D01*
X66131663Y-90064886D01*
X66227926Y-89832487D01*
X66277000Y-89585774D01*
X66277000Y-89334226D01*
X66227926Y-89087513D01*
X66131663Y-88855114D01*
X65991911Y-88645960D01*
X65814040Y-88468089D01*
X65604886Y-88328337D01*
X65372487Y-88232074D01*
X65125774Y-88183000D01*
X64874226Y-88183000D01*
X64627513Y-88232074D01*
X64395114Y-88328337D01*
X64185960Y-88468089D01*
X64008089Y-88645960D01*
X63868337Y-88855114D01*
X63772074Y-89087513D01*
X63723000Y-89334226D01*
X63723000Y-89585774D01*
X63772074Y-89832487D01*
X63868337Y-90064886D01*
X64008089Y-90274040D01*
X64185960Y-90451911D01*
X64395114Y-90591663D01*
X64627513Y-90687926D01*
X64839034Y-90730000D01*
X64627513Y-90772074D01*
X64395114Y-90868337D01*
X64185960Y-91008089D01*
X64008089Y-91185960D01*
X63868337Y-91395114D01*
X63772074Y-91627513D01*
X63723000Y-91874226D01*
X63723000Y-92125774D01*
X63742340Y-92223001D01*
X56257660Y-92223001D01*
X56277000Y-92125774D01*
X56277000Y-91874226D01*
X56227926Y-91627513D01*
X56131663Y-91395114D01*
X55991911Y-91185960D01*
X55814040Y-91008089D01*
X55604886Y-90868337D01*
X55372487Y-90772074D01*
X55160966Y-90730000D01*
X55372487Y-90687926D01*
X55604886Y-90591663D01*
X55814040Y-90451911D01*
X55991911Y-90274040D01*
X56131663Y-90064886D01*
X56227926Y-89832487D01*
X56277000Y-89585774D01*
X56277000Y-89334226D01*
X56227926Y-89087513D01*
X56131663Y-88855114D01*
X55991911Y-88645960D01*
X55814040Y-88468089D01*
X55604886Y-88328337D01*
X55372487Y-88232074D01*
X55125774Y-88183000D01*
X54874226Y-88183000D01*
X54627513Y-88232074D01*
X54395114Y-88328337D01*
X54185960Y-88468089D01*
X54008089Y-88645960D01*
X53868337Y-88855114D01*
X53772074Y-89087513D01*
X53723000Y-89334226D01*
X53723000Y-89585774D01*
X53772074Y-89832487D01*
X53868337Y-90064886D01*
X54008089Y-90274040D01*
X54185960Y-90451911D01*
X54395114Y-90591663D01*
X54627513Y-90687926D01*
X54839034Y-90730000D01*
X54627513Y-90772074D01*
X54395114Y-90868337D01*
X54185960Y-91008089D01*
X54008089Y-91185960D01*
X53868337Y-91395114D01*
X53772074Y-91627513D01*
X53723000Y-91874226D01*
X53723000Y-92125774D01*
X53742340Y-92223001D01*
X53585267Y-92223001D01*
X52026033Y-90663768D01*
X52026033Y-89574000D01*
X52013927Y-89451087D01*
X51978075Y-89332897D01*
X51919853Y-89223972D01*
X51841501Y-89128499D01*
X51746028Y-89050147D01*
X51637103Y-88991925D01*
X51518913Y-88956073D01*
X51396000Y-88943967D01*
X49696000Y-88943967D01*
X49573087Y-88956073D01*
X49454897Y-88991925D01*
X49345972Y-89050147D01*
X49250499Y-89128499D01*
X49172147Y-89223972D01*
X49113925Y-89332897D01*
X49078073Y-89451087D01*
X49065967Y-89574000D01*
X49065967Y-91274000D01*
X49078073Y-91396913D01*
X49113925Y-91515103D01*
X49172147Y-91624028D01*
X49250499Y-91719501D01*
X49345972Y-91797853D01*
X49454897Y-91856075D01*
X49539406Y-91881710D01*
X49448412Y-91963731D01*
X49274359Y-92197080D01*
X49149175Y-92459901D01*
X49104524Y-92607110D01*
X49225845Y-92837000D01*
X50419000Y-92837000D01*
X50419000Y-92817000D01*
X50673000Y-92817000D01*
X50673000Y-92837000D01*
X50693000Y-92837000D01*
X50693000Y-93091000D01*
X50673000Y-93091000D01*
X50673000Y-94284814D01*
X50902891Y-94405481D01*
X51177252Y-94308157D01*
X51427355Y-94159178D01*
X51643588Y-93964269D01*
X51817641Y-93730920D01*
X51942825Y-93468099D01*
X51987476Y-93320890D01*
X51866156Y-93091002D01*
X51972736Y-93091002D01*
X52571409Y-93689675D01*
X52598868Y-93723134D01*
X52632327Y-93750593D01*
X52632329Y-93750595D01*
X52690469Y-93798309D01*
X52732409Y-93832728D01*
X52805336Y-93871708D01*
X52884764Y-93914163D01*
X53050078Y-93964311D01*
X53222001Y-93981244D01*
X53265080Y-93977001D01*
X53844560Y-93977001D01*
X53779905Y-94117374D01*
X53720898Y-94363524D01*
X53711048Y-94616455D01*
X53750730Y-94866449D01*
X53838422Y-95103896D01*
X53885799Y-95192534D01*
X54114473Y-95245922D01*
X54820395Y-94540000D01*
X54806253Y-94525858D01*
X54985858Y-94346253D01*
X55000000Y-94360395D01*
X55014143Y-94346253D01*
X55193748Y-94525858D01*
X55179605Y-94540000D01*
X55885527Y-95245922D01*
X56114201Y-95192534D01*
X56220095Y-94962626D01*
X56279102Y-94716476D01*
X56288952Y-94463545D01*
X56249270Y-94213551D01*
X56161909Y-93977001D01*
X63844560Y-93977001D01*
X63779905Y-94117374D01*
X63720898Y-94363524D01*
X63711048Y-94616455D01*
X63750730Y-94866449D01*
X63838422Y-95103896D01*
X63885799Y-95192534D01*
X64114473Y-95245922D01*
X64820395Y-94540000D01*
X64806253Y-94525858D01*
X64985858Y-94346253D01*
X65000000Y-94360395D01*
X65014143Y-94346253D01*
X65193748Y-94525858D01*
X65179605Y-94540000D01*
X65885527Y-95245922D01*
X66114201Y-95192534D01*
X66220095Y-94962626D01*
X66279102Y-94716476D01*
X66287092Y-94511298D01*
X68274903Y-94511298D01*
X69088000Y-95324395D01*
X69901097Y-94511298D01*
X69829514Y-94267329D01*
X69574004Y-94146429D01*
X69299816Y-94077700D01*
X69017488Y-94063783D01*
X68737870Y-94105213D01*
X68471708Y-94200397D01*
X68346486Y-94267329D01*
X68274903Y-94511298D01*
X66287092Y-94511298D01*
X66288952Y-94463545D01*
X66249270Y-94213551D01*
X66161909Y-93977001D01*
X72600256Y-93977001D01*
X72588429Y-94001996D01*
X72519700Y-94276184D01*
X72505783Y-94558512D01*
X72547213Y-94838130D01*
X72642397Y-95104292D01*
X72709329Y-95229514D01*
X72953298Y-95301097D01*
X73766395Y-94488000D01*
X73752253Y-94473858D01*
X73931858Y-94294253D01*
X73946000Y-94308395D01*
X73960143Y-94294253D01*
X74139748Y-94473858D01*
X74125605Y-94488000D01*
X74139748Y-94502143D01*
X73960143Y-94681748D01*
X73946000Y-94667605D01*
X73132903Y-95480702D01*
X73204486Y-95724671D01*
X73459996Y-95845571D01*
X73734184Y-95914300D01*
X74016512Y-95928217D01*
X74296130Y-95886787D01*
X74562292Y-95791603D01*
X74687514Y-95724671D01*
X74689025Y-95719520D01*
X74700499Y-95733501D01*
X74795972Y-95811853D01*
X74904897Y-95870075D01*
X75023087Y-95905927D01*
X75146000Y-95918033D01*
X76746000Y-95918033D01*
X76868913Y-95905927D01*
X76987103Y-95870075D01*
X77096028Y-95811853D01*
X77191501Y-95733501D01*
X77269853Y-95638028D01*
X77328075Y-95529103D01*
X77363927Y-95410913D01*
X77376033Y-95288000D01*
X77376033Y-94248928D01*
X79454510Y-96327406D01*
X79409576Y-96372340D01*
X79253409Y-96606062D01*
X79145838Y-96865759D01*
X79091000Y-97141453D01*
X79091000Y-97422547D01*
X79145838Y-97698241D01*
X79253409Y-97957938D01*
X79409576Y-98191660D01*
X79608340Y-98390424D01*
X79659276Y-98424458D01*
X78919072Y-99164663D01*
X78880547Y-99157000D01*
X78599453Y-99157000D01*
X78323759Y-99211838D01*
X78064062Y-99319409D01*
X77830340Y-99475576D01*
X77631576Y-99674340D01*
X77475409Y-99908062D01*
X77469234Y-99922970D01*
X75990594Y-98444331D01*
X75963130Y-98410866D01*
X75829589Y-98301272D01*
X75677234Y-98219837D01*
X75511919Y-98169689D01*
X75383076Y-98156999D01*
X75339997Y-98152756D01*
X75296918Y-98156999D01*
X61075584Y-98156999D01*
X61208591Y-97957938D01*
X61316162Y-97698241D01*
X61371000Y-97422547D01*
X61371000Y-97141453D01*
X61316162Y-96865759D01*
X61208591Y-96606062D01*
X61135520Y-96496702D01*
X68274903Y-96496702D01*
X68346486Y-96740671D01*
X68601996Y-96861571D01*
X68876184Y-96930300D01*
X69158512Y-96944217D01*
X69438130Y-96902787D01*
X69704292Y-96807603D01*
X69829514Y-96740671D01*
X69901097Y-96496702D01*
X69088000Y-95683605D01*
X68274903Y-96496702D01*
X61135520Y-96496702D01*
X61052424Y-96372340D01*
X60853660Y-96173576D01*
X60619938Y-96017409D01*
X60360241Y-95909838D01*
X60084547Y-95855000D01*
X59803453Y-95855000D01*
X59527759Y-95909838D01*
X59268062Y-96017409D01*
X59034340Y-96173576D01*
X58835576Y-96372340D01*
X58679409Y-96606062D01*
X58571838Y-96865759D01*
X58517000Y-97141453D01*
X58517000Y-97422547D01*
X58571838Y-97698241D01*
X58679409Y-97957938D01*
X58812416Y-98156999D01*
X52393080Y-98156999D01*
X52350001Y-98152756D01*
X52178078Y-98169689D01*
X52026033Y-98215812D01*
X52026033Y-97448000D01*
X52013927Y-97325087D01*
X51978075Y-97206897D01*
X51919853Y-97097972D01*
X51841501Y-97002499D01*
X51746028Y-96924147D01*
X51637103Y-96865925D01*
X51518913Y-96830073D01*
X51396000Y-96817967D01*
X49696000Y-96817967D01*
X49573087Y-96830073D01*
X49454897Y-96865925D01*
X49345972Y-96924147D01*
X49250499Y-97002499D01*
X49172147Y-97097972D01*
X49113925Y-97206897D01*
X49078073Y-97325087D01*
X49065967Y-97448000D01*
X49065967Y-98537768D01*
X48656326Y-98947409D01*
X48622867Y-98974868D01*
X48595408Y-99008327D01*
X48595405Y-99008330D01*
X48513273Y-99108409D01*
X48431837Y-99260765D01*
X48381689Y-99426079D01*
X48364756Y-99598001D01*
X48369000Y-99641090D01*
X48368999Y-101418921D01*
X48364756Y-101462001D01*
X48381689Y-101633923D01*
X48402434Y-101702310D01*
X48431837Y-101799237D01*
X48513272Y-101951592D01*
X48622866Y-102085134D01*
X48656331Y-102112598D01*
X52269402Y-105725669D01*
X52296866Y-105759134D01*
X52430407Y-105868728D01*
X52521422Y-105917376D01*
X52582762Y-105950163D01*
X52748076Y-106000311D01*
X52919999Y-106017244D01*
X52963078Y-106013001D01*
X57355977Y-106013001D01*
X57256340Y-106079576D01*
X57057576Y-106278340D01*
X56901409Y-106512062D01*
X56793838Y-106771759D01*
X56739000Y-107047453D01*
X56739000Y-107328547D01*
X56793838Y-107604241D01*
X56901409Y-107863938D01*
X57057576Y-108097660D01*
X57256340Y-108296424D01*
X57490062Y-108452591D01*
X57749759Y-108560162D01*
X58025453Y-108615000D01*
X58306547Y-108615000D01*
X58582241Y-108560162D01*
X58841938Y-108452591D01*
X59075660Y-108296424D01*
X59274424Y-108097660D01*
X59430591Y-107863938D01*
X59436766Y-107849029D01*
X63917406Y-112329669D01*
X63944870Y-112363134D01*
X64078411Y-112472728D01*
X64230766Y-112554163D01*
X64396081Y-112604311D01*
X64524924Y-112617001D01*
X64524933Y-112617001D01*
X64568002Y-112621243D01*
X64611072Y-112617001D01*
X68882922Y-112617001D01*
X68926001Y-112621244D01*
X68969080Y-112617001D01*
X69045097Y-112609514D01*
X69097923Y-112604311D01*
X69097926Y-112604310D01*
X69263238Y-112554163D01*
X69415593Y-112472728D01*
X69549134Y-112363134D01*
X69576598Y-112329669D01*
X70439258Y-111467009D01*
X71091119Y-111467009D01*
X71043700Y-111656184D01*
X71029783Y-111938512D01*
X71071213Y-112218130D01*
X71166397Y-112484292D01*
X71233329Y-112609514D01*
X71477298Y-112681097D01*
X72290395Y-111868000D01*
X72276253Y-111853858D01*
X72455858Y-111674253D01*
X72470000Y-111688395D01*
X72484143Y-111674253D01*
X72663748Y-111853858D01*
X72649605Y-111868000D01*
X73462702Y-112681097D01*
X73706671Y-112609514D01*
X73827571Y-112354004D01*
X73896300Y-112079816D01*
X73910217Y-111797488D01*
X73868787Y-111517870D01*
X73850598Y-111467009D01*
X76094805Y-111467009D01*
X76043000Y-111727453D01*
X76043000Y-112008547D01*
X76097838Y-112284241D01*
X76205409Y-112543938D01*
X76361576Y-112777660D01*
X76560340Y-112976424D01*
X76794062Y-113132591D01*
X77053759Y-113240162D01*
X77329453Y-113295000D01*
X77610547Y-113295000D01*
X77886241Y-113240162D01*
X78145938Y-113132591D01*
X78379660Y-112976424D01*
X78578424Y-112777660D01*
X78734591Y-112543938D01*
X78842162Y-112284241D01*
X78897000Y-112008547D01*
X78897000Y-111727453D01*
X78842162Y-111451759D01*
X78764583Y-111264469D01*
X78827126Y-111213142D01*
X78854590Y-111179677D01*
X79917268Y-110116999D01*
X80153237Y-110116999D01*
X80107000Y-110349453D01*
X80107000Y-110630547D01*
X80161838Y-110906241D01*
X80269409Y-111165938D01*
X80425576Y-111399660D01*
X80624340Y-111598424D01*
X80858062Y-111754591D01*
X81117759Y-111862162D01*
X81393453Y-111917000D01*
X81674547Y-111917000D01*
X81950241Y-111862162D01*
X82209938Y-111754591D01*
X82443660Y-111598424D01*
X82642424Y-111399660D01*
X82798591Y-111165938D01*
X82906162Y-110906241D01*
X82961000Y-110630547D01*
X82961000Y-110349453D01*
X90267000Y-110349453D01*
X90267000Y-110630547D01*
X90321838Y-110906241D01*
X90429409Y-111165938D01*
X90585576Y-111399660D01*
X90784340Y-111598424D01*
X91018062Y-111754591D01*
X91277759Y-111862162D01*
X91553453Y-111917000D01*
X91834547Y-111917000D01*
X92110241Y-111862162D01*
X92369938Y-111754591D01*
X92603660Y-111598424D01*
X92802424Y-111399660D01*
X92958591Y-111165938D01*
X93025895Y-111003453D01*
X93395000Y-111003453D01*
X93395000Y-111284547D01*
X93449838Y-111560241D01*
X93557409Y-111819938D01*
X93713576Y-112053660D01*
X93912340Y-112252424D01*
X94146062Y-112408591D01*
X94405759Y-112516162D01*
X94681453Y-112571000D01*
X94962547Y-112571000D01*
X95238241Y-112516162D01*
X95497938Y-112408591D01*
X95731660Y-112252424D01*
X95930424Y-112053660D01*
X96086591Y-111819938D01*
X96194162Y-111560241D01*
X96249000Y-111284547D01*
X96249000Y-111003453D01*
X98395000Y-111003453D01*
X98395000Y-111284547D01*
X98449838Y-111560241D01*
X98557409Y-111819938D01*
X98713576Y-112053660D01*
X98912340Y-112252424D01*
X99146062Y-112408591D01*
X99405759Y-112516162D01*
X99681453Y-112571000D01*
X99962547Y-112571000D01*
X100238241Y-112516162D01*
X100497938Y-112408591D01*
X100731660Y-112252424D01*
X100930424Y-112053660D01*
X101086591Y-111819938D01*
X101194162Y-111560241D01*
X101249000Y-111284547D01*
X101249000Y-111003453D01*
X101194162Y-110727759D01*
X101086591Y-110468062D01*
X100930424Y-110234340D01*
X100731660Y-110035576D01*
X100497938Y-109879409D01*
X100238241Y-109771838D01*
X99962547Y-109717000D01*
X99681453Y-109717000D01*
X99405759Y-109771838D01*
X99146062Y-109879409D01*
X98912340Y-110035576D01*
X98713576Y-110234340D01*
X98557409Y-110468062D01*
X98449838Y-110727759D01*
X98395000Y-111003453D01*
X96249000Y-111003453D01*
X96194162Y-110727759D01*
X96086591Y-110468062D01*
X95930424Y-110234340D01*
X95731660Y-110035576D01*
X95497938Y-109879409D01*
X95238241Y-109771838D01*
X94962547Y-109717000D01*
X94681453Y-109717000D01*
X94405759Y-109771838D01*
X94146062Y-109879409D01*
X93912340Y-110035576D01*
X93713576Y-110234340D01*
X93557409Y-110468062D01*
X93449838Y-110727759D01*
X93395000Y-111003453D01*
X93025895Y-111003453D01*
X93066162Y-110906241D01*
X93121000Y-110630547D01*
X93121000Y-110349453D01*
X93066162Y-110073759D01*
X92958591Y-109814062D01*
X92802424Y-109580340D01*
X92603660Y-109381576D01*
X92369938Y-109225409D01*
X92110241Y-109117838D01*
X91834547Y-109063000D01*
X91553453Y-109063000D01*
X91277759Y-109117838D01*
X91018062Y-109225409D01*
X90784340Y-109381576D01*
X90585576Y-109580340D01*
X90429409Y-109814062D01*
X90321838Y-110073759D01*
X90267000Y-110349453D01*
X82961000Y-110349453D01*
X82914763Y-110116999D01*
X83248922Y-110116999D01*
X83292001Y-110121242D01*
X83335080Y-110116999D01*
X83463923Y-110104309D01*
X83629238Y-110054161D01*
X83781593Y-109972726D01*
X83915134Y-109863132D01*
X83942598Y-109829667D01*
X86235226Y-107537039D01*
X90302096Y-107537039D01*
X90342754Y-107671087D01*
X90462963Y-107925420D01*
X90630481Y-108151414D01*
X90838869Y-108340385D01*
X91080119Y-108485070D01*
X91344960Y-108579909D01*
X91567000Y-108458624D01*
X91567000Y-107315000D01*
X91821000Y-107315000D01*
X91821000Y-108458624D01*
X92043040Y-108579909D01*
X92307881Y-108485070D01*
X92549131Y-108340385D01*
X92757519Y-108151414D01*
X92925037Y-107925420D01*
X93045246Y-107671087D01*
X93085904Y-107537039D01*
X92963915Y-107315000D01*
X91821000Y-107315000D01*
X91567000Y-107315000D01*
X90424085Y-107315000D01*
X90302096Y-107537039D01*
X86235226Y-107537039D01*
X86933304Y-106838961D01*
X90302096Y-106838961D01*
X90424085Y-107061000D01*
X91567000Y-107061000D01*
X91567000Y-105917376D01*
X91821000Y-105917376D01*
X91821000Y-107061000D01*
X92963915Y-107061000D01*
X93085904Y-106838961D01*
X93045246Y-106704913D01*
X92925037Y-106450580D01*
X92757519Y-106224586D01*
X92549131Y-106035615D01*
X92307881Y-105890930D01*
X92043040Y-105796091D01*
X91821000Y-105917376D01*
X91567000Y-105917376D01*
X91344960Y-105796091D01*
X91080119Y-105890930D01*
X90838869Y-106035615D01*
X90630481Y-106224586D01*
X90462963Y-106450580D01*
X90342754Y-106704913D01*
X90302096Y-106838961D01*
X86933304Y-106838961D01*
X90335508Y-103436757D01*
X90321838Y-103469759D01*
X90267000Y-103745453D01*
X90267000Y-104026547D01*
X90321838Y-104302241D01*
X90429409Y-104561938D01*
X90585576Y-104795660D01*
X90784340Y-104994424D01*
X91018062Y-105150591D01*
X91277759Y-105258162D01*
X91553453Y-105313000D01*
X91834547Y-105313000D01*
X92110241Y-105258162D01*
X92369938Y-105150591D01*
X92603660Y-104994424D01*
X92802424Y-104795660D01*
X92958591Y-104561938D01*
X93066162Y-104302241D01*
X93121000Y-104026547D01*
X93121000Y-103745453D01*
X93066162Y-103469759D01*
X92958591Y-103210062D01*
X92802424Y-102976340D01*
X92603660Y-102777576D01*
X92369938Y-102621409D01*
X92110241Y-102513838D01*
X91834547Y-102459000D01*
X91553453Y-102459000D01*
X91277759Y-102513838D01*
X91244757Y-102527508D01*
X91513799Y-102258466D01*
X91777905Y-102311000D01*
X92118095Y-102311000D01*
X92451747Y-102244632D01*
X92766041Y-102114447D01*
X93048898Y-101925448D01*
X93289448Y-101684898D01*
X93478447Y-101402041D01*
X93608632Y-101087747D01*
X93675000Y-100754095D01*
X93675000Y-100413905D01*
X93608632Y-100080253D01*
X93478447Y-99765959D01*
X93289448Y-99483102D01*
X93048898Y-99242552D01*
X92766041Y-99053553D01*
X92451747Y-98923368D01*
X92118095Y-98857000D01*
X91777905Y-98857000D01*
X91444253Y-98923368D01*
X91129959Y-99053553D01*
X90847102Y-99242552D01*
X90606552Y-99483102D01*
X90417553Y-99765959D01*
X90287368Y-100080253D01*
X90221000Y-100413905D01*
X90221000Y-100754095D01*
X90273534Y-101018201D01*
X82928736Y-108362999D01*
X82344023Y-108362999D01*
X82443660Y-108296424D01*
X82642424Y-108097660D01*
X82798591Y-107863938D01*
X82906162Y-107604241D01*
X82961000Y-107328547D01*
X82961000Y-107047453D01*
X82911196Y-106797069D01*
X87617103Y-102091162D01*
X87675565Y-102079533D01*
X87862467Y-102002115D01*
X88030674Y-101889723D01*
X88173723Y-101746674D01*
X88286115Y-101578467D01*
X88363533Y-101391565D01*
X88403000Y-101193151D01*
X88403000Y-100990849D01*
X88363533Y-100792435D01*
X88286115Y-100605533D01*
X88173723Y-100437326D01*
X88030674Y-100294277D01*
X87862467Y-100181885D01*
X87675565Y-100104467D01*
X87477151Y-100065000D01*
X87274849Y-100065000D01*
X87076435Y-100104467D01*
X86889533Y-100181885D01*
X86721326Y-100294277D01*
X86578277Y-100437326D01*
X86465885Y-100605533D01*
X86388467Y-100792435D01*
X86376838Y-100850897D01*
X82892492Y-104335243D01*
X82906162Y-104302241D01*
X82961000Y-104026547D01*
X82961000Y-103745453D01*
X82906162Y-103469759D01*
X82798591Y-103210062D01*
X82665584Y-103011001D01*
X83170918Y-103011001D01*
X83213997Y-103015244D01*
X83257076Y-103011001D01*
X83385919Y-102998311D01*
X83551234Y-102948163D01*
X83703589Y-102866728D01*
X83837130Y-102757134D01*
X83864594Y-102723669D01*
X88645234Y-97943029D01*
X88651409Y-97957938D01*
X88807576Y-98191660D01*
X89006340Y-98390424D01*
X89240062Y-98546591D01*
X89499759Y-98654162D01*
X89775453Y-98709000D01*
X90056547Y-98709000D01*
X90332241Y-98654162D01*
X90591938Y-98546591D01*
X90825660Y-98390424D01*
X91024424Y-98191660D01*
X91180591Y-97957938D01*
X91288162Y-97698241D01*
X91343000Y-97422547D01*
X91343000Y-97141453D01*
X91288162Y-96865759D01*
X91180591Y-96606062D01*
X91024424Y-96372340D01*
X90825660Y-96173576D01*
X90591938Y-96017409D01*
X90577029Y-96011234D01*
X91162736Y-95425527D01*
X94294078Y-95425527D01*
X94347466Y-95654201D01*
X94577374Y-95760095D01*
X94823524Y-95819102D01*
X95076455Y-95828952D01*
X95326449Y-95789270D01*
X95563896Y-95701578D01*
X95652534Y-95654201D01*
X95705922Y-95425527D01*
X95000000Y-94719605D01*
X94294078Y-95425527D01*
X91162736Y-95425527D01*
X92271264Y-94316999D01*
X93732051Y-94316999D01*
X93720898Y-94363524D01*
X93711048Y-94616455D01*
X93750730Y-94866449D01*
X93838422Y-95103896D01*
X93885799Y-95192534D01*
X94114473Y-95245922D01*
X94820395Y-94540000D01*
X94806253Y-94525858D01*
X94985858Y-94346253D01*
X95000000Y-94360395D01*
X95014143Y-94346253D01*
X95193748Y-94525858D01*
X95179605Y-94540000D01*
X95885527Y-95245922D01*
X96114201Y-95192534D01*
X96220095Y-94962626D01*
X96279102Y-94716476D01*
X96288952Y-94463545D01*
X96265690Y-94316999D01*
X97524922Y-94316999D01*
X97568001Y-94321242D01*
X97611080Y-94316999D01*
X97698438Y-94308395D01*
X97739923Y-94304309D01*
X97832638Y-94276184D01*
X97837000Y-94274861D01*
X97837000Y-94379472D01*
X97893760Y-94664825D01*
X98005099Y-94933622D01*
X98166739Y-95175533D01*
X98372467Y-95381261D01*
X98614378Y-95542901D01*
X98883175Y-95654240D01*
X99168528Y-95711000D01*
X99459472Y-95711000D01*
X99744825Y-95654240D01*
X100013622Y-95542901D01*
X100255533Y-95381261D01*
X100461261Y-95175533D01*
X100622901Y-94933622D01*
X100734240Y-94664825D01*
X100791000Y-94379472D01*
X100791000Y-94088528D01*
X100775859Y-94012407D01*
X101203675Y-93584591D01*
X101237134Y-93557132D01*
X101346728Y-93423591D01*
X101428163Y-93271236D01*
X101441301Y-93227926D01*
X101478311Y-93105922D01*
X101495244Y-92934000D01*
X101491001Y-92890920D01*
X101491001Y-87987068D01*
X101495243Y-87943998D01*
X101491001Y-87900929D01*
X101491001Y-87900920D01*
X101478311Y-87772077D01*
X101428163Y-87606762D01*
X101346728Y-87454407D01*
X101237134Y-87320866D01*
X101203667Y-87293401D01*
X101174600Y-87264333D01*
X101147134Y-87230866D01*
X101013593Y-87121272D01*
X100861238Y-87039837D01*
X100695923Y-86989689D01*
X100567080Y-86976999D01*
X100524001Y-86972756D01*
X100480922Y-86976999D01*
X95021068Y-86976999D01*
X94977998Y-86972757D01*
X94934929Y-86976999D01*
X94934920Y-86976999D01*
X94806077Y-86989689D01*
X94640762Y-87039837D01*
X94488407Y-87121272D01*
X94354866Y-87230866D01*
X94327398Y-87264336D01*
X94096732Y-87495001D01*
X91296763Y-87495001D01*
X91343000Y-87262547D01*
X91343000Y-86981453D01*
X91288162Y-86705759D01*
X91180591Y-86446062D01*
X91024424Y-86212340D01*
X90825660Y-86013576D01*
X90591938Y-85857409D01*
X90332241Y-85749838D01*
X90056547Y-85695000D01*
X89775453Y-85695000D01*
X89499759Y-85749838D01*
X89240062Y-85857409D01*
X89006340Y-86013576D01*
X88807576Y-86212340D01*
X88651409Y-86446062D01*
X88543838Y-86705759D01*
X88489000Y-86981453D01*
X88489000Y-87262547D01*
X88535237Y-87495001D01*
X85953264Y-87495001D01*
X84537330Y-86079067D01*
X84617723Y-85998674D01*
X84631325Y-85978317D01*
X84857996Y-86085571D01*
X85132184Y-86154300D01*
X85414512Y-86168217D01*
X85694130Y-86126787D01*
X85960292Y-86031603D01*
X86085514Y-85964671D01*
X86157097Y-85720702D01*
X85344000Y-84907605D01*
X85329858Y-84921748D01*
X85150253Y-84742143D01*
X85164395Y-84728000D01*
X85523605Y-84728000D01*
X86336702Y-85541097D01*
X86580671Y-85469514D01*
X86701571Y-85214004D01*
X86770300Y-84939816D01*
X86784217Y-84657488D01*
X86742787Y-84377870D01*
X86647603Y-84111708D01*
X86580671Y-83986486D01*
X86336702Y-83914903D01*
X85523605Y-84728000D01*
X85164395Y-84728000D01*
X85150253Y-84713858D01*
X85329858Y-84534253D01*
X85344000Y-84548395D01*
X86032942Y-83859453D01*
X88597000Y-83859453D01*
X88597000Y-84140547D01*
X88651838Y-84416241D01*
X88759409Y-84675938D01*
X88915576Y-84909660D01*
X89114340Y-85108424D01*
X89348062Y-85264591D01*
X89607759Y-85372162D01*
X89883453Y-85427000D01*
X90164547Y-85427000D01*
X90440241Y-85372162D01*
X90699938Y-85264591D01*
X90933660Y-85108424D01*
X91132424Y-84909660D01*
X91288591Y-84675938D01*
X91396162Y-84416241D01*
X91451000Y-84140547D01*
X91451000Y-83859453D01*
X91396162Y-83583759D01*
X91288591Y-83324062D01*
X91132424Y-83090340D01*
X90933660Y-82891576D01*
X90699938Y-82735409D01*
X90440241Y-82627838D01*
X90164547Y-82573000D01*
X89883453Y-82573000D01*
X89607759Y-82627838D01*
X89348062Y-82735409D01*
X89114340Y-82891576D01*
X88915576Y-83090340D01*
X88759409Y-83324062D01*
X88651838Y-83583759D01*
X88597000Y-83859453D01*
X86032942Y-83859453D01*
X86157097Y-83735298D01*
X86085514Y-83491329D01*
X85830004Y-83370429D01*
X85555816Y-83301700D01*
X85273488Y-83287783D01*
X84993870Y-83329213D01*
X84727708Y-83424397D01*
X84697000Y-83440811D01*
X84697000Y-82173078D01*
X84701243Y-82130001D01*
X84689692Y-82012727D01*
X84684310Y-81958080D01*
X84634162Y-81792765D01*
X84552727Y-81640410D01*
X84443133Y-81506869D01*
X84409668Y-81479405D01*
X79764757Y-76834494D01*
X79873000Y-76726250D01*
X79873000Y-75127000D01*
X80127000Y-75127000D01*
X80127000Y-76726250D01*
X80285750Y-76885000D01*
X81250000Y-76888072D01*
X81374482Y-76875812D01*
X81494180Y-76839502D01*
X81604494Y-76780537D01*
X81701185Y-76701185D01*
X81780537Y-76604494D01*
X81839502Y-76494180D01*
X81875812Y-76374482D01*
X81888072Y-76250000D01*
X81885000Y-75285750D01*
X81726250Y-75127000D01*
X80127000Y-75127000D01*
X79873000Y-75127000D01*
X78273750Y-75127000D01*
X78165507Y-75235244D01*
X77577001Y-74646738D01*
X77577001Y-73750000D01*
X78111928Y-73750000D01*
X78115000Y-74714250D01*
X78273750Y-74873000D01*
X79873000Y-74873000D01*
X79873000Y-73273750D01*
X79714250Y-73115000D01*
X78750000Y-73111928D01*
X78625518Y-73124188D01*
X78505820Y-73160498D01*
X78395506Y-73219463D01*
X78298815Y-73298815D01*
X78219463Y-73395506D01*
X78160498Y-73505820D01*
X78124188Y-73625518D01*
X78111928Y-73750000D01*
X77577001Y-73750000D01*
X77577001Y-72683070D01*
X77581243Y-72640000D01*
X77577001Y-72596931D01*
X77577001Y-72596922D01*
X77564311Y-72468079D01*
X77514163Y-72302764D01*
X77432728Y-72150409D01*
X77323134Y-72016868D01*
X77289669Y-71989404D01*
X76771990Y-71471725D01*
X76821593Y-71461859D01*
X77249409Y-71889675D01*
X77276868Y-71923134D01*
X77410409Y-72032728D01*
X77562762Y-72114162D01*
X77562764Y-72114163D01*
X77728078Y-72164311D01*
X77900000Y-72181244D01*
X77943080Y-72177001D01*
X79246738Y-72177001D01*
X80235243Y-73165507D01*
X80127000Y-73273750D01*
X80127000Y-74873000D01*
X81726250Y-74873000D01*
X81834493Y-74764757D01*
X87007001Y-79937265D01*
X87007000Y-80743972D01*
X86973885Y-80793533D01*
X86896467Y-80980435D01*
X86857000Y-81178849D01*
X86857000Y-81381151D01*
X86896467Y-81579565D01*
X86973885Y-81766467D01*
X87086277Y-81934674D01*
X87229326Y-82077723D01*
X87397533Y-82190115D01*
X87584435Y-82267533D01*
X87782849Y-82307000D01*
X87985151Y-82307000D01*
X88183565Y-82267533D01*
X88370467Y-82190115D01*
X88538674Y-82077723D01*
X88681723Y-81934674D01*
X88794115Y-81766467D01*
X88871533Y-81579565D01*
X88911000Y-81381151D01*
X88911000Y-81178849D01*
X88871533Y-80980435D01*
X88794115Y-80793533D01*
X88761000Y-80743973D01*
X88761000Y-79678319D01*
X88915576Y-79909660D01*
X89114340Y-80108424D01*
X89348062Y-80264591D01*
X89607759Y-80372162D01*
X89883453Y-80427000D01*
X90164547Y-80427000D01*
X90440241Y-80372162D01*
X90699938Y-80264591D01*
X90933660Y-80108424D01*
X91132424Y-79909660D01*
X91288591Y-79675938D01*
X91396162Y-79416241D01*
X91451000Y-79140547D01*
X91451000Y-78859453D01*
X91396162Y-78583759D01*
X91288591Y-78324062D01*
X91132424Y-78090340D01*
X90933660Y-77891576D01*
X90699938Y-77735409D01*
X90440241Y-77627838D01*
X90164547Y-77573000D01*
X89883453Y-77573000D01*
X89607759Y-77627838D01*
X89348062Y-77735409D01*
X89114340Y-77891576D01*
X88915576Y-78090340D01*
X88759409Y-78324062D01*
X88651838Y-78583759D01*
X88597000Y-78859453D01*
X88597000Y-79060369D01*
X88556708Y-79011272D01*
X88534594Y-78984326D01*
X88534592Y-78984324D01*
X88507133Y-78950865D01*
X88473674Y-78923406D01*
X84365400Y-74815132D01*
X88123000Y-74815132D01*
X88123000Y-75184868D01*
X88195132Y-75547501D01*
X88336624Y-75889093D01*
X88542039Y-76196518D01*
X88803482Y-76457961D01*
X89110907Y-76663376D01*
X89452499Y-76804868D01*
X89815132Y-76877000D01*
X90184868Y-76877000D01*
X90547501Y-76804868D01*
X90889093Y-76663376D01*
X91196518Y-76457961D01*
X91457961Y-76196518D01*
X91663376Y-75889093D01*
X91804868Y-75547501D01*
X91877000Y-75184868D01*
X91877000Y-74815132D01*
X91804868Y-74452499D01*
X91663376Y-74110907D01*
X91457961Y-73803482D01*
X91196518Y-73542039D01*
X90889093Y-73336624D01*
X90547501Y-73195132D01*
X90184868Y-73123000D01*
X89815132Y-73123000D01*
X89452499Y-73195132D01*
X89110907Y-73336624D01*
X88803482Y-73542039D01*
X88542039Y-73803482D01*
X88336624Y-74110907D01*
X88195132Y-74452499D01*
X88123000Y-74815132D01*
X84365400Y-74815132D01*
X80369188Y-70818921D01*
X80410000Y-70757841D01*
X80532739Y-70941533D01*
X80738467Y-71147261D01*
X80980378Y-71308901D01*
X81249175Y-71420240D01*
X81534528Y-71477000D01*
X81825472Y-71477000D01*
X82110825Y-71420240D01*
X82379622Y-71308901D01*
X82621533Y-71147261D01*
X82827261Y-70941533D01*
X82950000Y-70757841D01*
X83072739Y-70941533D01*
X83278467Y-71147261D01*
X83520378Y-71308901D01*
X83789175Y-71420240D01*
X84074528Y-71477000D01*
X84365472Y-71477000D01*
X84650825Y-71420240D01*
X84919622Y-71308901D01*
X85161533Y-71147261D01*
X85367261Y-70941533D01*
X85490000Y-70757841D01*
X85612739Y-70941533D01*
X85818467Y-71147261D01*
X86060378Y-71308901D01*
X86329175Y-71420240D01*
X86614528Y-71477000D01*
X86905472Y-71477000D01*
X87190825Y-71420240D01*
X87459622Y-71308901D01*
X87701533Y-71147261D01*
X87907261Y-70941533D01*
X88030000Y-70757841D01*
X88152739Y-70941533D01*
X88358467Y-71147261D01*
X88600378Y-71308901D01*
X88869175Y-71420240D01*
X89154528Y-71477000D01*
X89445472Y-71477000D01*
X89730825Y-71420240D01*
X89999622Y-71308901D01*
X90241533Y-71147261D01*
X90447261Y-70941533D01*
X90570000Y-70757841D01*
X90692739Y-70941533D01*
X90898467Y-71147261D01*
X91140378Y-71308901D01*
X91409175Y-71420240D01*
X91694528Y-71477000D01*
X91985472Y-71477000D01*
X92270825Y-71420240D01*
X92539622Y-71308901D01*
X92781533Y-71147261D01*
X92987261Y-70941533D01*
X93110000Y-70757841D01*
X93232739Y-70941533D01*
X93438467Y-71147261D01*
X93680378Y-71308901D01*
X93949175Y-71420240D01*
X94234528Y-71477000D01*
X94525472Y-71477000D01*
X94810825Y-71420240D01*
X95079622Y-71308901D01*
X95321533Y-71147261D01*
X95527261Y-70941533D01*
X95650000Y-70757841D01*
X95772739Y-70941533D01*
X95978467Y-71147261D01*
X96220378Y-71308901D01*
X96489175Y-71420240D01*
X96774528Y-71477000D01*
X97065472Y-71477000D01*
X97350825Y-71420240D01*
X97619622Y-71308901D01*
X97861533Y-71147261D01*
X98067261Y-70941533D01*
X98181895Y-70769972D01*
X98182528Y-70771157D01*
X98431603Y-70848792D01*
X99280395Y-70000000D01*
X98431603Y-69151208D01*
X98182528Y-69228843D01*
X98181934Y-69230088D01*
X98067261Y-69058467D01*
X97861533Y-68852739D01*
X97619622Y-68691099D01*
X97350825Y-68579760D01*
X97065472Y-68523000D01*
X96774528Y-68523000D01*
X96489175Y-68579760D01*
X96220378Y-68691099D01*
X95978467Y-68852739D01*
X95772739Y-69058467D01*
X95650000Y-69242159D01*
X95527261Y-69058467D01*
X95321533Y-68852739D01*
X95079622Y-68691099D01*
X94810825Y-68579760D01*
X94525472Y-68523000D01*
X94234528Y-68523000D01*
X93949175Y-68579760D01*
X93680378Y-68691099D01*
X93438467Y-68852739D01*
X93232739Y-69058467D01*
X93110000Y-69242159D01*
X92987261Y-69058467D01*
X92781533Y-68852739D01*
X92539622Y-68691099D01*
X92270825Y-68579760D01*
X91985472Y-68523000D01*
X91694528Y-68523000D01*
X91409175Y-68579760D01*
X91140378Y-68691099D01*
X90898467Y-68852739D01*
X90692739Y-69058467D01*
X90570000Y-69242159D01*
X90447261Y-69058467D01*
X90241533Y-68852739D01*
X89999622Y-68691099D01*
X89730825Y-68579760D01*
X89445472Y-68523000D01*
X89154528Y-68523000D01*
X88869175Y-68579760D01*
X88600378Y-68691099D01*
X88358467Y-68852739D01*
X88152739Y-69058467D01*
X88030000Y-69242159D01*
X87907261Y-69058467D01*
X87701533Y-68852739D01*
X87459622Y-68691099D01*
X87190825Y-68579760D01*
X86905472Y-68523000D01*
X86614528Y-68523000D01*
X86329175Y-68579760D01*
X86060378Y-68691099D01*
X85818467Y-68852739D01*
X85612739Y-69058467D01*
X85490000Y-69242159D01*
X85367261Y-69058467D01*
X85161533Y-68852739D01*
X84919622Y-68691099D01*
X84650825Y-68579760D01*
X84365472Y-68523000D01*
X84074528Y-68523000D01*
X83789175Y-68579760D01*
X83520378Y-68691099D01*
X83278467Y-68852739D01*
X83072739Y-69058467D01*
X82950000Y-69242159D01*
X82827261Y-69058467D01*
X82621533Y-68852739D01*
X82379622Y-68691099D01*
X82110825Y-68579760D01*
X81825472Y-68523000D01*
X81534528Y-68523000D01*
X81249175Y-68579760D01*
X80980378Y-68691099D01*
X80738467Y-68852739D01*
X80532739Y-69058467D01*
X80410000Y-69242159D01*
X80287261Y-69058467D01*
X80081533Y-68852739D01*
X79839622Y-68691099D01*
X79570825Y-68579760D01*
X79285472Y-68523000D01*
X78994528Y-68523000D01*
X78709175Y-68579760D01*
X78440378Y-68691099D01*
X78198467Y-68852739D01*
X77992739Y-69058467D01*
X77870000Y-69242159D01*
X77747261Y-69058467D01*
X77541533Y-68852739D01*
X77299622Y-68691099D01*
X77030825Y-68579760D01*
X76745472Y-68523000D01*
X76454528Y-68523000D01*
X76169175Y-68579760D01*
X75900378Y-68691099D01*
X75658467Y-68852739D01*
X75452739Y-69058467D01*
X75330000Y-69242159D01*
X75207261Y-69058467D01*
X75001533Y-68852739D01*
X74759622Y-68691099D01*
X74490825Y-68579760D01*
X74205472Y-68523000D01*
X73914528Y-68523000D01*
X73629175Y-68579760D01*
X73360378Y-68691099D01*
X73118467Y-68852739D01*
X72912739Y-69058467D01*
X72790000Y-69242159D01*
X72667261Y-69058467D01*
X72461533Y-68852739D01*
X72219622Y-68691099D01*
X71950825Y-68579760D01*
X71665472Y-68523000D01*
X71374528Y-68523000D01*
X71089175Y-68579760D01*
X70820378Y-68691099D01*
X70578467Y-68852739D01*
X70372739Y-69058467D01*
X70250000Y-69242159D01*
X70127261Y-69058467D01*
X69921533Y-68852739D01*
X69679622Y-68691099D01*
X69410825Y-68579760D01*
X69125472Y-68523000D01*
X68834528Y-68523000D01*
X68549175Y-68579760D01*
X68280378Y-68691099D01*
X68038467Y-68852739D01*
X67832739Y-69058467D01*
X67710000Y-69242159D01*
X67587261Y-69058467D01*
X67381533Y-68852739D01*
X67139622Y-68691099D01*
X66870825Y-68579760D01*
X66585472Y-68523000D01*
X66294528Y-68523000D01*
X66009175Y-68579760D01*
X65740378Y-68691099D01*
X65498467Y-68852739D01*
X65292739Y-69058467D01*
X65170000Y-69242159D01*
X65047261Y-69058467D01*
X64841533Y-68852739D01*
X64599622Y-68691099D01*
X64330825Y-68579760D01*
X64045472Y-68523000D01*
X63754528Y-68523000D01*
X63469175Y-68579760D01*
X63200378Y-68691099D01*
X62958467Y-68852739D01*
X62752739Y-69058467D01*
X62630000Y-69242159D01*
X62507261Y-69058467D01*
X62301533Y-68852739D01*
X62059622Y-68691099D01*
X61790825Y-68579760D01*
X61505472Y-68523000D01*
X61214528Y-68523000D01*
X60929175Y-68579760D01*
X60660378Y-68691099D01*
X60418467Y-68852739D01*
X60212739Y-69058467D01*
X60090000Y-69242159D01*
X59967261Y-69058467D01*
X59761533Y-68852739D01*
X59519622Y-68691099D01*
X59250825Y-68579760D01*
X58965472Y-68523000D01*
X58674528Y-68523000D01*
X58389175Y-68579760D01*
X58120378Y-68691099D01*
X57878467Y-68852739D01*
X57672739Y-69058467D01*
X57550000Y-69242159D01*
X57427261Y-69058467D01*
X57221533Y-68852739D01*
X56979622Y-68691099D01*
X56710825Y-68579760D01*
X56425472Y-68523000D01*
X56134528Y-68523000D01*
X55849175Y-68579760D01*
X55580378Y-68691099D01*
X55338467Y-68852739D01*
X55132739Y-69058467D01*
X55010000Y-69242159D01*
X54887261Y-69058467D01*
X54681533Y-68852739D01*
X54439622Y-68691099D01*
X54170825Y-68579760D01*
X53885472Y-68523000D01*
X53594528Y-68523000D01*
X53309175Y-68579760D01*
X53040378Y-68691099D01*
X52798467Y-68852739D01*
X52657731Y-68993475D01*
X52632075Y-68908897D01*
X52573853Y-68799972D01*
X52495501Y-68704499D01*
X52400028Y-68626147D01*
X52291103Y-68567925D01*
X52172913Y-68532073D01*
X52050000Y-68519967D01*
X50776999Y-68519967D01*
X50776999Y-66287266D01*
X53073103Y-63991162D01*
X53131565Y-63979533D01*
X53318467Y-63902115D01*
X53486674Y-63789723D01*
X53629723Y-63646674D01*
X53742115Y-63478467D01*
X53819533Y-63291565D01*
X53859000Y-63093151D01*
X53859000Y-62890849D01*
X53819533Y-62692435D01*
X53742115Y-62505533D01*
X53629723Y-62337326D01*
X53549330Y-62256933D01*
X53969264Y-61837000D01*
X79712921Y-61837000D01*
X79756000Y-61841243D01*
X79799079Y-61837000D01*
X79927922Y-61824310D01*
X80093237Y-61774162D01*
X80245592Y-61692727D01*
X80379133Y-61583133D01*
X80406597Y-61549668D01*
X81521103Y-60435162D01*
X81579565Y-60423533D01*
X81766467Y-60346115D01*
X81934674Y-60233723D01*
X82077723Y-60090674D01*
X82190115Y-59922467D01*
X82267533Y-59735565D01*
X82307000Y-59537151D01*
X82307000Y-59334849D01*
X82267533Y-59136435D01*
X82190115Y-58949533D01*
X82077723Y-58781326D01*
X81934674Y-58638277D01*
X81766467Y-58525885D01*
X81579565Y-58448467D01*
X81381151Y-58409000D01*
X81178849Y-58409000D01*
X80980435Y-58448467D01*
X80793533Y-58525885D01*
X80625326Y-58638277D01*
X80482277Y-58781326D01*
X80369885Y-58949533D01*
X80292467Y-59136435D01*
X80280838Y-59194897D01*
X79392735Y-60083000D01*
X54733300Y-60083000D01*
X55011300Y-59805000D01*
X74139973Y-59805000D01*
X74189533Y-59838115D01*
X74376435Y-59915533D01*
X74574849Y-59955000D01*
X74777151Y-59955000D01*
X74975565Y-59915533D01*
X75162467Y-59838115D01*
X75330674Y-59725723D01*
X75473723Y-59582674D01*
X75586115Y-59414467D01*
X75663533Y-59227565D01*
X75703000Y-59029151D01*
X75703000Y-58826849D01*
X75663533Y-58628435D01*
X75586115Y-58441533D01*
X75478851Y-58281000D01*
X90395973Y-58281000D01*
X90445533Y-58314115D01*
X90632435Y-58391533D01*
X90830849Y-58431000D01*
X91033151Y-58431000D01*
X91231565Y-58391533D01*
X91418467Y-58314115D01*
X91586674Y-58201723D01*
X91667067Y-58121330D01*
X99883002Y-66337265D01*
X99883001Y-68575278D01*
X99683589Y-68524661D01*
X99391469Y-68509389D01*
X99101981Y-68551401D01*
X98826253Y-68649081D01*
X98688843Y-68722528D01*
X98611208Y-68971603D01*
X99460000Y-69820395D01*
X99474143Y-69806253D01*
X99653748Y-69985858D01*
X99639605Y-70000000D01*
X99653748Y-70014143D01*
X99474143Y-70193748D01*
X99460000Y-70179605D01*
X98611208Y-71028397D01*
X98688843Y-71277472D01*
X98952883Y-71403371D01*
X99027437Y-71422295D01*
X96946327Y-73503406D01*
X96912868Y-73530865D01*
X96885409Y-73564324D01*
X96885406Y-73564327D01*
X96803274Y-73664406D01*
X96721838Y-73816762D01*
X96671690Y-73982076D01*
X96659563Y-74105201D01*
X96457961Y-73803482D01*
X96196518Y-73542039D01*
X95889093Y-73336624D01*
X95547501Y-73195132D01*
X95184868Y-73123000D01*
X94815132Y-73123000D01*
X94452499Y-73195132D01*
X94110907Y-73336624D01*
X93803482Y-73542039D01*
X93542039Y-73803482D01*
X93336624Y-74110907D01*
X93195132Y-74452499D01*
X93123000Y-74815132D01*
X93123000Y-75184868D01*
X93195132Y-75547501D01*
X93336624Y-75889093D01*
X93542039Y-76196518D01*
X93803482Y-76457961D01*
X94110907Y-76663376D01*
X94452499Y-76804868D01*
X94815132Y-76877000D01*
X95184868Y-76877000D01*
X95547501Y-76804868D01*
X95889093Y-76663376D01*
X96196518Y-76457961D01*
X96457961Y-76196518D01*
X96663376Y-75889093D01*
X96704932Y-75788769D01*
X96738277Y-75838674D01*
X96881326Y-75981723D01*
X97049533Y-76094115D01*
X97236435Y-76171533D01*
X97434849Y-76211000D01*
X97637151Y-76211000D01*
X97835565Y-76171533D01*
X98022467Y-76094115D01*
X98112617Y-76033879D01*
X98111928Y-76250000D01*
X98124188Y-76374482D01*
X98160498Y-76494180D01*
X98219463Y-76604494D01*
X98298815Y-76701185D01*
X98395506Y-76780537D01*
X98505820Y-76839502D01*
X98625518Y-76875812D01*
X98750000Y-76888072D01*
X99714250Y-76885000D01*
X99873000Y-76726250D01*
X99873000Y-75127000D01*
X100127000Y-75127000D01*
X100127000Y-76726250D01*
X100285750Y-76885000D01*
X101250000Y-76888072D01*
X101374482Y-76875812D01*
X101494180Y-76839502D01*
X101604494Y-76780537D01*
X101701185Y-76701185D01*
X101780537Y-76604494D01*
X101839502Y-76494180D01*
X101875812Y-76374482D01*
X101888072Y-76250000D01*
X101885000Y-75285750D01*
X101726250Y-75127000D01*
X100127000Y-75127000D01*
X99873000Y-75127000D01*
X99853000Y-75127000D01*
X99853000Y-74873000D01*
X99873000Y-74873000D01*
X99873000Y-73273750D01*
X100127000Y-73273750D01*
X100127000Y-74873000D01*
X101726250Y-74873000D01*
X101885000Y-74714250D01*
X101888072Y-73750000D01*
X101875812Y-73625518D01*
X101839502Y-73505820D01*
X101780537Y-73395506D01*
X101701185Y-73298815D01*
X101604494Y-73219463D01*
X101494180Y-73160498D01*
X101374482Y-73124188D01*
X101250000Y-73111928D01*
X100285750Y-73115000D01*
X100127000Y-73273750D01*
X99873000Y-73273750D01*
X99764757Y-73165507D01*
X101349676Y-71580588D01*
X101383134Y-71553130D01*
X101492728Y-71419589D01*
X101574163Y-71267234D01*
X101610557Y-71147261D01*
X101624311Y-71101920D01*
X101641244Y-70929997D01*
X101637001Y-70886918D01*
X101637001Y-66017068D01*
X101641243Y-65973998D01*
X101637001Y-65930929D01*
X101637001Y-65930920D01*
X101624311Y-65802077D01*
X101574163Y-65636762D01*
X101492728Y-65484407D01*
X101383134Y-65350866D01*
X101349669Y-65323402D01*
X92217178Y-56190911D01*
X92270825Y-56180240D01*
X92539622Y-56068901D01*
X92781533Y-55907261D01*
X92987261Y-55701533D01*
X93110000Y-55517841D01*
X93232739Y-55701533D01*
X93438467Y-55907261D01*
X93680378Y-56068901D01*
X93949175Y-56180240D01*
X94234528Y-56237000D01*
X94525472Y-56237000D01*
X94810825Y-56180240D01*
X95079622Y-56068901D01*
X95321533Y-55907261D01*
X95527261Y-55701533D01*
X95650000Y-55517841D01*
X95772739Y-55701533D01*
X95978467Y-55907261D01*
X96220378Y-56068901D01*
X96489175Y-56180240D01*
X96774528Y-56237000D01*
X97065472Y-56237000D01*
X97350825Y-56180240D01*
X97619622Y-56068901D01*
X97861533Y-55907261D01*
X98067261Y-55701533D01*
X98190000Y-55517841D01*
X98312739Y-55701533D01*
X98518467Y-55907261D01*
X98760378Y-56068901D01*
X99029175Y-56180240D01*
X99314528Y-56237000D01*
X99605472Y-56237000D01*
X99890825Y-56180240D01*
X100159622Y-56068901D01*
X100401533Y-55907261D01*
X100607261Y-55701533D01*
X100768901Y-55459622D01*
X100880240Y-55190825D01*
X100937000Y-54905472D01*
X100937000Y-54614528D01*
X100880240Y-54329175D01*
X100768901Y-54060378D01*
X100607261Y-53818467D01*
X100401533Y-53612739D01*
X100159622Y-53451099D01*
X99890825Y-53339760D01*
X99605472Y-53283000D01*
X99314528Y-53283000D01*
X99029175Y-53339760D01*
X98760378Y-53451099D01*
X98518467Y-53612739D01*
X98312739Y-53818467D01*
X98190000Y-54002159D01*
X98067261Y-53818467D01*
X97861533Y-53612739D01*
X97619622Y-53451099D01*
X97350825Y-53339760D01*
X97065472Y-53283000D01*
X96774528Y-53283000D01*
X96489175Y-53339760D01*
X96220378Y-53451099D01*
X95978467Y-53612739D01*
X95772739Y-53818467D01*
X95650000Y-54002159D01*
X95527261Y-53818467D01*
X95321533Y-53612739D01*
X95079622Y-53451099D01*
X94810825Y-53339760D01*
X94525472Y-53283000D01*
X94234528Y-53283000D01*
X93949175Y-53339760D01*
X93680378Y-53451099D01*
X93438467Y-53612739D01*
X93232739Y-53818467D01*
X93110000Y-54002159D01*
X92987261Y-53818467D01*
X92781533Y-53612739D01*
X92539622Y-53451099D01*
X92270825Y-53339760D01*
X91985472Y-53283000D01*
X91694528Y-53283000D01*
X91409175Y-53339760D01*
X91140378Y-53451099D01*
X90898467Y-53612739D01*
X90692739Y-53818467D01*
X90570000Y-54002159D01*
X90447261Y-53818467D01*
X90241533Y-53612739D01*
X89999622Y-53451099D01*
X89730825Y-53339760D01*
X89445472Y-53283000D01*
X89154528Y-53283000D01*
X89078407Y-53298141D01*
X86890598Y-51110333D01*
X86863134Y-51076868D01*
X86729593Y-50967274D01*
X86577238Y-50885839D01*
X86411923Y-50835691D01*
X86283080Y-50823001D01*
X86240001Y-50818758D01*
X86196922Y-50823001D01*
X81886712Y-50823001D01*
X81885000Y-50285750D01*
X81726250Y-50127000D01*
X80127000Y-50127000D01*
X80127000Y-50147000D01*
X79873000Y-50147000D01*
X79873000Y-50127000D01*
X78273750Y-50127000D01*
X78115000Y-50285750D01*
X78113288Y-50823001D01*
X76690752Y-50823001D01*
X76804868Y-50547501D01*
X76877000Y-50184868D01*
X76877000Y-49815132D01*
X76804868Y-49452499D01*
X76663376Y-49110907D01*
X76457961Y-48803482D01*
X76404479Y-48750000D01*
X78111928Y-48750000D01*
X78115000Y-49714250D01*
X78273750Y-49873000D01*
X79873000Y-49873000D01*
X79873000Y-48273750D01*
X80127000Y-48273750D01*
X80127000Y-49873000D01*
X81726250Y-49873000D01*
X81784118Y-49815132D01*
X88123000Y-49815132D01*
X88123000Y-50184868D01*
X88195132Y-50547501D01*
X88336624Y-50889093D01*
X88542039Y-51196518D01*
X88803482Y-51457961D01*
X89110907Y-51663376D01*
X89452499Y-51804868D01*
X89815132Y-51877000D01*
X90184868Y-51877000D01*
X90547501Y-51804868D01*
X90889093Y-51663376D01*
X91196518Y-51457961D01*
X91457961Y-51196518D01*
X91663376Y-50889093D01*
X91804868Y-50547501D01*
X91877000Y-50184868D01*
X91877000Y-49815132D01*
X93123000Y-49815132D01*
X93123000Y-50184868D01*
X93195132Y-50547501D01*
X93336624Y-50889093D01*
X93542039Y-51196518D01*
X93803482Y-51457961D01*
X94110907Y-51663376D01*
X94452499Y-51804868D01*
X94815132Y-51877000D01*
X95184868Y-51877000D01*
X95547501Y-51804868D01*
X95889093Y-51663376D01*
X96196518Y-51457961D01*
X96404479Y-51250000D01*
X98111928Y-51250000D01*
X98124188Y-51374482D01*
X98160498Y-51494180D01*
X98219463Y-51604494D01*
X98298815Y-51701185D01*
X98395506Y-51780537D01*
X98505820Y-51839502D01*
X98625518Y-51875812D01*
X98750000Y-51888072D01*
X99714250Y-51885000D01*
X99873000Y-51726250D01*
X99873000Y-50127000D01*
X100127000Y-50127000D01*
X100127000Y-51726250D01*
X100285750Y-51885000D01*
X101250000Y-51888072D01*
X101374482Y-51875812D01*
X101494180Y-51839502D01*
X101604494Y-51780537D01*
X101701185Y-51701185D01*
X101780537Y-51604494D01*
X101839502Y-51494180D01*
X101875812Y-51374482D01*
X101888072Y-51250000D01*
X101885000Y-50285750D01*
X101726250Y-50127000D01*
X100127000Y-50127000D01*
X99873000Y-50127000D01*
X98273750Y-50127000D01*
X98115000Y-50285750D01*
X98111928Y-51250000D01*
X96404479Y-51250000D01*
X96457961Y-51196518D01*
X96663376Y-50889093D01*
X96804868Y-50547501D01*
X96877000Y-50184868D01*
X96877000Y-49815132D01*
X96804868Y-49452499D01*
X96663376Y-49110907D01*
X96457961Y-48803482D01*
X96404479Y-48750000D01*
X98111928Y-48750000D01*
X98115000Y-49714250D01*
X98273750Y-49873000D01*
X99873000Y-49873000D01*
X99873000Y-48273750D01*
X100127000Y-48273750D01*
X100127000Y-49873000D01*
X101726250Y-49873000D01*
X101885000Y-49714250D01*
X101888072Y-48750000D01*
X101875812Y-48625518D01*
X101839502Y-48505820D01*
X101780537Y-48395506D01*
X101701185Y-48298815D01*
X101604494Y-48219463D01*
X101494180Y-48160498D01*
X101374482Y-48124188D01*
X101250000Y-48111928D01*
X100285750Y-48115000D01*
X100127000Y-48273750D01*
X99873000Y-48273750D01*
X99714250Y-48115000D01*
X98750000Y-48111928D01*
X98625518Y-48124188D01*
X98505820Y-48160498D01*
X98395506Y-48219463D01*
X98298815Y-48298815D01*
X98219463Y-48395506D01*
X98160498Y-48505820D01*
X98124188Y-48625518D01*
X98111928Y-48750000D01*
X96404479Y-48750000D01*
X96196518Y-48542039D01*
X95889093Y-48336624D01*
X95547501Y-48195132D01*
X95184868Y-48123000D01*
X94815132Y-48123000D01*
X94452499Y-48195132D01*
X94110907Y-48336624D01*
X93803482Y-48542039D01*
X93542039Y-48803482D01*
X93336624Y-49110907D01*
X93195132Y-49452499D01*
X93123000Y-49815132D01*
X91877000Y-49815132D01*
X91804868Y-49452499D01*
X91663376Y-49110907D01*
X91457961Y-48803482D01*
X91196518Y-48542039D01*
X90889093Y-48336624D01*
X90547501Y-48195132D01*
X90184868Y-48123000D01*
X89815132Y-48123000D01*
X89452499Y-48195132D01*
X89110907Y-48336624D01*
X88803482Y-48542039D01*
X88542039Y-48803482D01*
X88336624Y-49110907D01*
X88195132Y-49452499D01*
X88123000Y-49815132D01*
X81784118Y-49815132D01*
X81885000Y-49714250D01*
X81888072Y-48750000D01*
X81875812Y-48625518D01*
X81839502Y-48505820D01*
X81780537Y-48395506D01*
X81701185Y-48298815D01*
X81604494Y-48219463D01*
X81494180Y-48160498D01*
X81374482Y-48124188D01*
X81250000Y-48111928D01*
X80285750Y-48115000D01*
X80127000Y-48273750D01*
X79873000Y-48273750D01*
X79714250Y-48115000D01*
X78750000Y-48111928D01*
X78625518Y-48124188D01*
X78505820Y-48160498D01*
X78395506Y-48219463D01*
X78298815Y-48298815D01*
X78219463Y-48395506D01*
X78160498Y-48505820D01*
X78124188Y-48625518D01*
X78111928Y-48750000D01*
X76404479Y-48750000D01*
X76196518Y-48542039D01*
X75889093Y-48336624D01*
X75547501Y-48195132D01*
X75184868Y-48123000D01*
X74815132Y-48123000D01*
X74452499Y-48195132D01*
X74110907Y-48336624D01*
X73803482Y-48542039D01*
X73542039Y-48803482D01*
X73336624Y-49110907D01*
X73195132Y-49452499D01*
X73123000Y-49815132D01*
X73123000Y-50184868D01*
X73195132Y-50547501D01*
X73309248Y-50823001D01*
X71690752Y-50823001D01*
X71804868Y-50547501D01*
X71877000Y-50184868D01*
X71877000Y-49815132D01*
X71804868Y-49452499D01*
X71663376Y-49110907D01*
X71457961Y-48803482D01*
X71196518Y-48542039D01*
X70889093Y-48336624D01*
X70547501Y-48195132D01*
X70184868Y-48123000D01*
X69815132Y-48123000D01*
X69452499Y-48195132D01*
X69110907Y-48336624D01*
X68803482Y-48542039D01*
X68542039Y-48803482D01*
X68336624Y-49110907D01*
X68195132Y-49452499D01*
X68123000Y-49815132D01*
X68123000Y-50184868D01*
X68195132Y-50547501D01*
X68309248Y-50823001D01*
X61886712Y-50823001D01*
X61885000Y-50285750D01*
X61726250Y-50127000D01*
X60127000Y-50127000D01*
X60127000Y-50147000D01*
X59873000Y-50147000D01*
X59873000Y-50127000D01*
X58273750Y-50127000D01*
X58115000Y-50285750D01*
X58113288Y-50823001D01*
X57063266Y-50823001D01*
X56799859Y-50559594D01*
X56804868Y-50547501D01*
X56877000Y-50184868D01*
X56877000Y-49815132D01*
X56804868Y-49452499D01*
X56663376Y-49110907D01*
X56457961Y-48803482D01*
X56404479Y-48750000D01*
X58111928Y-48750000D01*
X58115000Y-49714250D01*
X58273750Y-49873000D01*
X59873000Y-49873000D01*
X59873000Y-48273750D01*
X60127000Y-48273750D01*
X60127000Y-49873000D01*
X61726250Y-49873000D01*
X61885000Y-49714250D01*
X61888072Y-48750000D01*
X61875812Y-48625518D01*
X61839502Y-48505820D01*
X61780537Y-48395506D01*
X61701185Y-48298815D01*
X61604494Y-48219463D01*
X61494180Y-48160498D01*
X61374482Y-48124188D01*
X61250000Y-48111928D01*
X60285750Y-48115000D01*
X60127000Y-48273750D01*
X59873000Y-48273750D01*
X59714250Y-48115000D01*
X58750000Y-48111928D01*
X58625518Y-48124188D01*
X58505820Y-48160498D01*
X58395506Y-48219463D01*
X58298815Y-48298815D01*
X58219463Y-48395506D01*
X58160498Y-48505820D01*
X58124188Y-48625518D01*
X58111928Y-48750000D01*
X56404479Y-48750000D01*
X56196518Y-48542039D01*
X55889093Y-48336624D01*
X55547501Y-48195132D01*
X55184868Y-48123000D01*
X54815132Y-48123000D01*
X54452499Y-48195132D01*
X54110907Y-48336624D01*
X53803482Y-48542039D01*
X53542039Y-48803482D01*
X53336624Y-49110907D01*
X53195132Y-49452499D01*
X53123000Y-49815132D01*
X53123000Y-50184868D01*
X53195132Y-50547501D01*
X53336624Y-50889093D01*
X53542039Y-51196518D01*
X53803482Y-51457961D01*
X54110907Y-51663376D01*
X54452499Y-51804868D01*
X54815132Y-51877000D01*
X55184868Y-51877000D01*
X55547501Y-51804868D01*
X55559594Y-51799859D01*
X56049404Y-52289669D01*
X56076868Y-52323134D01*
X56210409Y-52432728D01*
X56267044Y-52463000D01*
X48288027Y-52463000D01*
X48238467Y-52429885D01*
X48051565Y-52352467D01*
X47853151Y-52313000D01*
X47650849Y-52313000D01*
X47452435Y-52352467D01*
X47265533Y-52429885D01*
X47097326Y-52542277D01*
X46954277Y-52685326D01*
X46841885Y-52853533D01*
X46764467Y-53040435D01*
X46725000Y-53238849D01*
X46725000Y-53441151D01*
X46764467Y-53639565D01*
X46841885Y-53826467D01*
X46954277Y-53994674D01*
X47097326Y-54137723D01*
X47265533Y-54250115D01*
X47452435Y-54327533D01*
X47650849Y-54367000D01*
X47853151Y-54367000D01*
X48051565Y-54327533D01*
X48238467Y-54250115D01*
X48288027Y-54217000D01*
X49813739Y-54217000D01*
X49796629Y-54252883D01*
X49724661Y-54536411D01*
X49709389Y-54828531D01*
X49751401Y-55118019D01*
X49849081Y-55393747D01*
X49922528Y-55531157D01*
X50171603Y-55608792D01*
X51020395Y-54760000D01*
X51006253Y-54745858D01*
X51185858Y-54566253D01*
X51200000Y-54580395D01*
X51214143Y-54566253D01*
X51393748Y-54745858D01*
X51379605Y-54760000D01*
X52228397Y-55608792D01*
X52477472Y-55531157D01*
X52478066Y-55529912D01*
X52592739Y-55701533D01*
X52798467Y-55907261D01*
X53040378Y-56068901D01*
X53309175Y-56180240D01*
X53594528Y-56237000D01*
X53885472Y-56237000D01*
X54170825Y-56180240D01*
X54439622Y-56068901D01*
X54681533Y-55907261D01*
X54887261Y-55701533D01*
X55010000Y-55517841D01*
X55132739Y-55701533D01*
X55338467Y-55907261D01*
X55580378Y-56068901D01*
X55849175Y-56180240D01*
X56134528Y-56237000D01*
X56425472Y-56237000D01*
X56710825Y-56180240D01*
X56979622Y-56068901D01*
X57221533Y-55907261D01*
X57427261Y-55701533D01*
X57550000Y-55517841D01*
X57672739Y-55701533D01*
X57878467Y-55907261D01*
X58120378Y-56068901D01*
X58389175Y-56180240D01*
X58674528Y-56237000D01*
X58965472Y-56237000D01*
X59250825Y-56180240D01*
X59519622Y-56068901D01*
X59761533Y-55907261D01*
X59967261Y-55701533D01*
X60090000Y-55517841D01*
X60212739Y-55701533D01*
X60418467Y-55907261D01*
X60660378Y-56068901D01*
X60929175Y-56180240D01*
X61214528Y-56237000D01*
X61505472Y-56237000D01*
X61790825Y-56180240D01*
X62059622Y-56068901D01*
X62301533Y-55907261D01*
X62507261Y-55701533D01*
X62630000Y-55517841D01*
X62752739Y-55701533D01*
X62958467Y-55907261D01*
X63200378Y-56068901D01*
X63469175Y-56180240D01*
X63754528Y-56237000D01*
X64045472Y-56237000D01*
X64330825Y-56180240D01*
X64599622Y-56068901D01*
X64841533Y-55907261D01*
X65047261Y-55701533D01*
X65170000Y-55517841D01*
X65292739Y-55701533D01*
X65498467Y-55907261D01*
X65740378Y-56068901D01*
X66009175Y-56180240D01*
X66294528Y-56237000D01*
X66585472Y-56237000D01*
X66870825Y-56180240D01*
X67139622Y-56068901D01*
X67381533Y-55907261D01*
X67587261Y-55701533D01*
X67710000Y-55517841D01*
X67832739Y-55701533D01*
X68038467Y-55907261D01*
X68280378Y-56068901D01*
X68549175Y-56180240D01*
X68834528Y-56237000D01*
X69125472Y-56237000D01*
X69201594Y-56221859D01*
X70973403Y-57993668D01*
X71000867Y-58027133D01*
X71029949Y-58051000D01*
X54691104Y-58051000D01*
X54648034Y-58046758D01*
X54604965Y-58051000D01*
X54604956Y-58051000D01*
X54476113Y-58063690D01*
X54310798Y-58113838D01*
X54158443Y-58195273D01*
X54024902Y-58304867D01*
X53997438Y-58338332D01*
X47010316Y-65325454D01*
X46976857Y-65352913D01*
X46949398Y-65386372D01*
X46949395Y-65386375D01*
X46867263Y-65486454D01*
X46785827Y-65638810D01*
X46735679Y-65804124D01*
X46718746Y-65976046D01*
X45777000Y-65976046D01*
X45777000Y-55788397D01*
X50351208Y-55788397D01*
X50428843Y-56037472D01*
X50692883Y-56163371D01*
X50976411Y-56235339D01*
X51268531Y-56250611D01*
X51558019Y-56208599D01*
X51833747Y-56110919D01*
X51971157Y-56037472D01*
X52048792Y-55788397D01*
X51200000Y-54939605D01*
X50351208Y-55788397D01*
X45777000Y-55788397D01*
X45777000Y-50034605D01*
X45796587Y-49815132D01*
X48123000Y-49815132D01*
X48123000Y-50184868D01*
X48195132Y-50547501D01*
X48336624Y-50889093D01*
X48542039Y-51196518D01*
X48803482Y-51457961D01*
X49110907Y-51663376D01*
X49452499Y-51804868D01*
X49815132Y-51877000D01*
X50184868Y-51877000D01*
X50547501Y-51804868D01*
X50889093Y-51663376D01*
X51196518Y-51457961D01*
X51457961Y-51196518D01*
X51663376Y-50889093D01*
X51804868Y-50547501D01*
X51877000Y-50184868D01*
X51877000Y-49815132D01*
X51804868Y-49452499D01*
X51663376Y-49110907D01*
X51457961Y-48803482D01*
X51196518Y-48542039D01*
X50889093Y-48336624D01*
X50547501Y-48195132D01*
X50184868Y-48123000D01*
X49815132Y-48123000D01*
X49452499Y-48195132D01*
X49110907Y-48336624D01*
X48803482Y-48542039D01*
X48542039Y-48803482D01*
X48336624Y-49110907D01*
X48195132Y-49452499D01*
X48123000Y-49815132D01*
X45796587Y-49815132D01*
X45846782Y-49252716D01*
X46044753Y-48529058D01*
X46367744Y-47851891D01*
X46805550Y-47242620D01*
X47344326Y-46720511D01*
X47967040Y-46302065D01*
X48654024Y-46000500D01*
X49389521Y-45823922D01*
X50028486Y-45777000D01*
X99965395Y-45777000D01*
X100747284Y-45846782D01*
G37*
G04 #@! TD.AperFunction*
D27*
X66341967Y-101684000D02*
X66354073Y-101806913D01*
X66389925Y-101925103D01*
X66448147Y-102034028D01*
X66526499Y-102129501D01*
X66621972Y-102207853D01*
X66730897Y-102266075D01*
X66849087Y-102301927D01*
X66972000Y-102314033D01*
X69172000Y-102314033D01*
X69294913Y-102301927D01*
X69413103Y-102266075D01*
X69522028Y-102207853D01*
X69617501Y-102129501D01*
X69695853Y-102034028D01*
X69754075Y-101925103D01*
X69789927Y-101806913D01*
X69797003Y-101735071D01*
X69874499Y-101829501D01*
X69969972Y-101907853D01*
X70078897Y-101966075D01*
X70197087Y-102001927D01*
X70226440Y-102004818D01*
X70210340Y-102015576D01*
X70011576Y-102214340D01*
X69855409Y-102448062D01*
X69747838Y-102707759D01*
X69693000Y-102983453D01*
X69693000Y-103264547D01*
X69747838Y-103540241D01*
X69855409Y-103799938D01*
X70011576Y-104033660D01*
X70210340Y-104232424D01*
X70444062Y-104388591D01*
X70457120Y-104394000D01*
X70444062Y-104399409D01*
X70210340Y-104555576D01*
X70011576Y-104754340D01*
X69855409Y-104988062D01*
X69747838Y-105247759D01*
X69693000Y-105523453D01*
X69693000Y-105804547D01*
X69747838Y-106080241D01*
X69855409Y-106339938D01*
X70011576Y-106573660D01*
X70210340Y-106772424D01*
X70444062Y-106928591D01*
X70459404Y-106934946D01*
X70264869Y-107051615D01*
X70056481Y-107240586D01*
X69888963Y-107466580D01*
X69768754Y-107720913D01*
X69728096Y-107854961D01*
X69850085Y-108077000D01*
X70993000Y-108077000D01*
X70993000Y-108057000D01*
X71247000Y-108057000D01*
X71247000Y-108077000D01*
X71267000Y-108077000D01*
X71267000Y-108331000D01*
X71247000Y-108331000D01*
X71247000Y-108351000D01*
X70993000Y-108351000D01*
X70993000Y-108331000D01*
X69850085Y-108331000D01*
X69728096Y-108553039D01*
X69768754Y-108687087D01*
X69888963Y-108941420D01*
X69942021Y-109012999D01*
X69939266Y-109012999D01*
X69227886Y-108301619D01*
X69235660Y-108296424D01*
X69434424Y-108097660D01*
X69590591Y-107863938D01*
X69698162Y-107604241D01*
X69753000Y-107328547D01*
X69753000Y-107047453D01*
X69698162Y-106771759D01*
X69590591Y-106512062D01*
X69434424Y-106278340D01*
X69235660Y-106079576D01*
X69001938Y-105923409D01*
X68742241Y-105815838D01*
X68466547Y-105761000D01*
X68185453Y-105761000D01*
X67909759Y-105815838D01*
X67650062Y-105923409D01*
X67416340Y-106079576D01*
X67217576Y-106278340D01*
X67061409Y-106512062D01*
X66953838Y-106771759D01*
X66899000Y-107047453D01*
X66899000Y-107328547D01*
X66945237Y-107561001D01*
X66129267Y-107561001D01*
X62313719Y-103745453D01*
X66899000Y-103745453D01*
X66899000Y-104026547D01*
X66953838Y-104302241D01*
X67061409Y-104561938D01*
X67217576Y-104795660D01*
X67416340Y-104994424D01*
X67650062Y-105150591D01*
X67909759Y-105258162D01*
X68185453Y-105313000D01*
X68466547Y-105313000D01*
X68742241Y-105258162D01*
X69001938Y-105150591D01*
X69235660Y-104994424D01*
X69434424Y-104795660D01*
X69590591Y-104561938D01*
X69698162Y-104302241D01*
X69753000Y-104026547D01*
X69753000Y-103745453D01*
X69698162Y-103469759D01*
X69590591Y-103210062D01*
X69434424Y-102976340D01*
X69235660Y-102777576D01*
X69001938Y-102621409D01*
X68742241Y-102513838D01*
X68466547Y-102459000D01*
X68185453Y-102459000D01*
X67909759Y-102513838D01*
X67650062Y-102621409D01*
X67416340Y-102777576D01*
X67217576Y-102976340D01*
X67061409Y-103210062D01*
X66953838Y-103469759D01*
X66899000Y-103745453D01*
X62313719Y-103745453D01*
X59586466Y-101018201D01*
X59639000Y-100754095D01*
X59639000Y-100413905D01*
X59572632Y-100080253D01*
X59502525Y-99910999D01*
X66341967Y-99910999D01*
X66341967Y-101684000D01*
G04 #@! TA.AperFunction,Conductor*
D28*
G36*
X66341967Y-101684000D02*
G01*
X66354073Y-101806913D01*
X66389925Y-101925103D01*
X66448147Y-102034028D01*
X66526499Y-102129501D01*
X66621972Y-102207853D01*
X66730897Y-102266075D01*
X66849087Y-102301927D01*
X66972000Y-102314033D01*
X69172000Y-102314033D01*
X69294913Y-102301927D01*
X69413103Y-102266075D01*
X69522028Y-102207853D01*
X69617501Y-102129501D01*
X69695853Y-102034028D01*
X69754075Y-101925103D01*
X69789927Y-101806913D01*
X69797003Y-101735071D01*
X69874499Y-101829501D01*
X69969972Y-101907853D01*
X70078897Y-101966075D01*
X70197087Y-102001927D01*
X70226440Y-102004818D01*
X70210340Y-102015576D01*
X70011576Y-102214340D01*
X69855409Y-102448062D01*
X69747838Y-102707759D01*
X69693000Y-102983453D01*
X69693000Y-103264547D01*
X69747838Y-103540241D01*
X69855409Y-103799938D01*
X70011576Y-104033660D01*
X70210340Y-104232424D01*
X70444062Y-104388591D01*
X70457120Y-104394000D01*
X70444062Y-104399409D01*
X70210340Y-104555576D01*
X70011576Y-104754340D01*
X69855409Y-104988062D01*
X69747838Y-105247759D01*
X69693000Y-105523453D01*
X69693000Y-105804547D01*
X69747838Y-106080241D01*
X69855409Y-106339938D01*
X70011576Y-106573660D01*
X70210340Y-106772424D01*
X70444062Y-106928591D01*
X70459404Y-106934946D01*
X70264869Y-107051615D01*
X70056481Y-107240586D01*
X69888963Y-107466580D01*
X69768754Y-107720913D01*
X69728096Y-107854961D01*
X69850085Y-108077000D01*
X70993000Y-108077000D01*
X70993000Y-108057000D01*
X71247000Y-108057000D01*
X71247000Y-108077000D01*
X71267000Y-108077000D01*
X71267000Y-108331000D01*
X71247000Y-108331000D01*
X71247000Y-108351000D01*
X70993000Y-108351000D01*
X70993000Y-108331000D01*
X69850085Y-108331000D01*
X69728096Y-108553039D01*
X69768754Y-108687087D01*
X69888963Y-108941420D01*
X69942021Y-109012999D01*
X69939266Y-109012999D01*
X69227886Y-108301619D01*
X69235660Y-108296424D01*
X69434424Y-108097660D01*
X69590591Y-107863938D01*
X69698162Y-107604241D01*
X69753000Y-107328547D01*
X69753000Y-107047453D01*
X69698162Y-106771759D01*
X69590591Y-106512062D01*
X69434424Y-106278340D01*
X69235660Y-106079576D01*
X69001938Y-105923409D01*
X68742241Y-105815838D01*
X68466547Y-105761000D01*
X68185453Y-105761000D01*
X67909759Y-105815838D01*
X67650062Y-105923409D01*
X67416340Y-106079576D01*
X67217576Y-106278340D01*
X67061409Y-106512062D01*
X66953838Y-106771759D01*
X66899000Y-107047453D01*
X66899000Y-107328547D01*
X66945237Y-107561001D01*
X66129267Y-107561001D01*
X62313719Y-103745453D01*
X66899000Y-103745453D01*
X66899000Y-104026547D01*
X66953838Y-104302241D01*
X67061409Y-104561938D01*
X67217576Y-104795660D01*
X67416340Y-104994424D01*
X67650062Y-105150591D01*
X67909759Y-105258162D01*
X68185453Y-105313000D01*
X68466547Y-105313000D01*
X68742241Y-105258162D01*
X69001938Y-105150591D01*
X69235660Y-104994424D01*
X69434424Y-104795660D01*
X69590591Y-104561938D01*
X69698162Y-104302241D01*
X69753000Y-104026547D01*
X69753000Y-103745453D01*
X69698162Y-103469759D01*
X69590591Y-103210062D01*
X69434424Y-102976340D01*
X69235660Y-102777576D01*
X69001938Y-102621409D01*
X68742241Y-102513838D01*
X68466547Y-102459000D01*
X68185453Y-102459000D01*
X67909759Y-102513838D01*
X67650062Y-102621409D01*
X67416340Y-102777576D01*
X67217576Y-102976340D01*
X67061409Y-103210062D01*
X66953838Y-103469759D01*
X66899000Y-103745453D01*
X62313719Y-103745453D01*
X59586466Y-101018201D01*
X59639000Y-100754095D01*
X59639000Y-100413905D01*
X59572632Y-100080253D01*
X59502525Y-99910999D01*
X66341967Y-99910999D01*
X66341967Y-101684000D01*
G37*
G04 #@! TD.AperFunction*
D27*
X84341736Y-88364003D02*
X84185960Y-88468089D01*
X84008089Y-88645960D01*
X83868337Y-88855114D01*
X83772074Y-89087513D01*
X83723000Y-89334226D01*
X83723000Y-89585774D01*
X83772074Y-89832487D01*
X83868337Y-90064886D01*
X84008089Y-90274040D01*
X84185960Y-90451911D01*
X84395114Y-90591663D01*
X84627513Y-90687926D01*
X84839034Y-90730000D01*
X84627513Y-90772074D01*
X84395114Y-90868337D01*
X84185960Y-91008089D01*
X84008089Y-91185960D01*
X83868337Y-91395114D01*
X83772074Y-91627513D01*
X83723000Y-91874226D01*
X83723000Y-92125774D01*
X83772074Y-92372487D01*
X83868337Y-92604886D01*
X84008089Y-92814040D01*
X84185960Y-92991911D01*
X84395114Y-93131663D01*
X84627513Y-93227926D01*
X84823551Y-93266920D01*
X84673551Y-93290730D01*
X84436104Y-93378422D01*
X84347466Y-93425799D01*
X84294078Y-93654473D01*
X85000000Y-94360395D01*
X85705922Y-93654473D01*
X85652534Y-93425799D01*
X85422626Y-93319905D01*
X85190193Y-93264186D01*
X85372487Y-93227926D01*
X85604886Y-93131663D01*
X85814040Y-92991911D01*
X85991911Y-92814040D01*
X86131663Y-92604886D01*
X86227926Y-92372487D01*
X86277000Y-92125774D01*
X86277000Y-91874226D01*
X86227926Y-91627513D01*
X86131663Y-91395114D01*
X85991911Y-91185960D01*
X85814040Y-91008089D01*
X85604886Y-90868337D01*
X85372487Y-90772074D01*
X85160966Y-90730000D01*
X85372487Y-90687926D01*
X85604886Y-90591663D01*
X85814040Y-90451911D01*
X85991911Y-90274040D01*
X86131663Y-90064886D01*
X86227926Y-89832487D01*
X86277000Y-89585774D01*
X86277000Y-89334226D01*
X86260048Y-89249001D01*
X93739952Y-89249001D01*
X93723000Y-89334226D01*
X93723000Y-89585774D01*
X93772074Y-89832487D01*
X93868337Y-90064886D01*
X94008089Y-90274040D01*
X94185960Y-90451911D01*
X94395114Y-90591663D01*
X94627513Y-90687926D01*
X94839034Y-90730000D01*
X94627513Y-90772074D01*
X94395114Y-90868337D01*
X94185960Y-91008089D01*
X94008089Y-91185960D01*
X93868337Y-91395114D01*
X93772074Y-91627513D01*
X93723000Y-91874226D01*
X93723000Y-92125774D01*
X93772074Y-92372487D01*
X93850987Y-92562999D01*
X91951078Y-92562999D01*
X91907999Y-92558756D01*
X91736076Y-92575689D01*
X91632496Y-92607110D01*
X91570762Y-92625837D01*
X91418407Y-92707272D01*
X91284866Y-92816866D01*
X91257405Y-92850328D01*
X83518033Y-100589700D01*
X83518033Y-99484000D01*
X83505927Y-99361087D01*
X83470075Y-99242897D01*
X83411853Y-99133972D01*
X83333501Y-99038499D01*
X83238028Y-98960147D01*
X83129103Y-98901925D01*
X83010913Y-98866073D01*
X82888000Y-98853967D01*
X82036300Y-98853967D01*
X82357676Y-98532592D01*
X82391134Y-98505134D01*
X82500728Y-98371593D01*
X82582163Y-98219238D01*
X82632311Y-98053923D01*
X82636172Y-98014727D01*
X82649244Y-97882001D01*
X82645001Y-97838922D01*
X82645001Y-95425527D01*
X84294078Y-95425527D01*
X84347466Y-95654201D01*
X84577374Y-95760095D01*
X84823524Y-95819102D01*
X85076455Y-95828952D01*
X85326449Y-95789270D01*
X85563896Y-95701578D01*
X85652534Y-95654201D01*
X85705922Y-95425527D01*
X85000000Y-94719605D01*
X84294078Y-95425527D01*
X82645001Y-95425527D01*
X82645001Y-94616455D01*
X83711048Y-94616455D01*
X83750730Y-94866449D01*
X83838422Y-95103896D01*
X83885799Y-95192534D01*
X84114473Y-95245922D01*
X84820395Y-94540000D01*
X85179605Y-94540000D01*
X85885527Y-95245922D01*
X86114201Y-95192534D01*
X86220095Y-94962626D01*
X86279102Y-94716476D01*
X86288952Y-94463545D01*
X86249270Y-94213551D01*
X86161578Y-93976104D01*
X86114201Y-93887466D01*
X85885527Y-93834078D01*
X85179605Y-94540000D01*
X84820395Y-94540000D01*
X84114473Y-93834078D01*
X83885799Y-93887466D01*
X83779905Y-94117374D01*
X83720898Y-94363524D01*
X83711048Y-94616455D01*
X82645001Y-94616455D01*
X82645001Y-86667268D01*
X84341736Y-88364003D01*
G04 #@! TA.AperFunction,Conductor*
D28*
G36*
X84341736Y-88364003D02*
G01*
X84185960Y-88468089D01*
X84008089Y-88645960D01*
X83868337Y-88855114D01*
X83772074Y-89087513D01*
X83723000Y-89334226D01*
X83723000Y-89585774D01*
X83772074Y-89832487D01*
X83868337Y-90064886D01*
X84008089Y-90274040D01*
X84185960Y-90451911D01*
X84395114Y-90591663D01*
X84627513Y-90687926D01*
X84839034Y-90730000D01*
X84627513Y-90772074D01*
X84395114Y-90868337D01*
X84185960Y-91008089D01*
X84008089Y-91185960D01*
X83868337Y-91395114D01*
X83772074Y-91627513D01*
X83723000Y-91874226D01*
X83723000Y-92125774D01*
X83772074Y-92372487D01*
X83868337Y-92604886D01*
X84008089Y-92814040D01*
X84185960Y-92991911D01*
X84395114Y-93131663D01*
X84627513Y-93227926D01*
X84823551Y-93266920D01*
X84673551Y-93290730D01*
X84436104Y-93378422D01*
X84347466Y-93425799D01*
X84294078Y-93654473D01*
X85000000Y-94360395D01*
X85705922Y-93654473D01*
X85652534Y-93425799D01*
X85422626Y-93319905D01*
X85190193Y-93264186D01*
X85372487Y-93227926D01*
X85604886Y-93131663D01*
X85814040Y-92991911D01*
X85991911Y-92814040D01*
X86131663Y-92604886D01*
X86227926Y-92372487D01*
X86277000Y-92125774D01*
X86277000Y-91874226D01*
X86227926Y-91627513D01*
X86131663Y-91395114D01*
X85991911Y-91185960D01*
X85814040Y-91008089D01*
X85604886Y-90868337D01*
X85372487Y-90772074D01*
X85160966Y-90730000D01*
X85372487Y-90687926D01*
X85604886Y-90591663D01*
X85814040Y-90451911D01*
X85991911Y-90274040D01*
X86131663Y-90064886D01*
X86227926Y-89832487D01*
X86277000Y-89585774D01*
X86277000Y-89334226D01*
X86260048Y-89249001D01*
X93739952Y-89249001D01*
X93723000Y-89334226D01*
X93723000Y-89585774D01*
X93772074Y-89832487D01*
X93868337Y-90064886D01*
X94008089Y-90274040D01*
X94185960Y-90451911D01*
X94395114Y-90591663D01*
X94627513Y-90687926D01*
X94839034Y-90730000D01*
X94627513Y-90772074D01*
X94395114Y-90868337D01*
X94185960Y-91008089D01*
X94008089Y-91185960D01*
X93868337Y-91395114D01*
X93772074Y-91627513D01*
X93723000Y-91874226D01*
X93723000Y-92125774D01*
X93772074Y-92372487D01*
X93850987Y-92562999D01*
X91951078Y-92562999D01*
X91907999Y-92558756D01*
X91736076Y-92575689D01*
X91632496Y-92607110D01*
X91570762Y-92625837D01*
X91418407Y-92707272D01*
X91284866Y-92816866D01*
X91257405Y-92850328D01*
X83518033Y-100589700D01*
X83518033Y-99484000D01*
X83505927Y-99361087D01*
X83470075Y-99242897D01*
X83411853Y-99133972D01*
X83333501Y-99038499D01*
X83238028Y-98960147D01*
X83129103Y-98901925D01*
X83010913Y-98866073D01*
X82888000Y-98853967D01*
X82036300Y-98853967D01*
X82357676Y-98532592D01*
X82391134Y-98505134D01*
X82500728Y-98371593D01*
X82582163Y-98219238D01*
X82632311Y-98053923D01*
X82636172Y-98014727D01*
X82649244Y-97882001D01*
X82645001Y-97838922D01*
X82645001Y-95425527D01*
X84294078Y-95425527D01*
X84347466Y-95654201D01*
X84577374Y-95760095D01*
X84823524Y-95819102D01*
X85076455Y-95828952D01*
X85326449Y-95789270D01*
X85563896Y-95701578D01*
X85652534Y-95654201D01*
X85705922Y-95425527D01*
X85000000Y-94719605D01*
X84294078Y-95425527D01*
X82645001Y-95425527D01*
X82645001Y-94616455D01*
X83711048Y-94616455D01*
X83750730Y-94866449D01*
X83838422Y-95103896D01*
X83885799Y-95192534D01*
X84114473Y-95245922D01*
X84820395Y-94540000D01*
X85179605Y-94540000D01*
X85885527Y-95245922D01*
X86114201Y-95192534D01*
X86220095Y-94962626D01*
X86279102Y-94716476D01*
X86288952Y-94463545D01*
X86249270Y-94213551D01*
X86161578Y-93976104D01*
X86114201Y-93887466D01*
X85885527Y-93834078D01*
X85179605Y-94540000D01*
X84820395Y-94540000D01*
X84114473Y-93834078D01*
X83885799Y-93887466D01*
X83779905Y-94117374D01*
X83720898Y-94363524D01*
X83711048Y-94616455D01*
X82645001Y-94616455D01*
X82645001Y-86667268D01*
X84341736Y-88364003D01*
G37*
G04 #@! TD.AperFunction*
D27*
X97829000Y-88868250D02*
X97987750Y-89027000D01*
X99187000Y-89027000D01*
X99187000Y-89007000D01*
X99441000Y-89007000D01*
X99441000Y-89027000D01*
X99461000Y-89027000D01*
X99461000Y-89281000D01*
X99441000Y-89281000D01*
X99441000Y-89301000D01*
X99187000Y-89301000D01*
X99187000Y-89281000D01*
X97987750Y-89281000D01*
X97829000Y-89439750D01*
X97825928Y-90004000D01*
X97838188Y-90128482D01*
X97874498Y-90248180D01*
X97933463Y-90358494D01*
X98012815Y-90455185D01*
X98109506Y-90534537D01*
X98219820Y-90593502D01*
X98301060Y-90618146D01*
X98166739Y-90752467D01*
X98005099Y-90994378D01*
X97893760Y-91263175D01*
X97837000Y-91548528D01*
X97837000Y-91839472D01*
X97852141Y-91915594D01*
X97204736Y-92562999D01*
X96149013Y-92562999D01*
X96227926Y-92372487D01*
X96277000Y-92125774D01*
X96277000Y-91874226D01*
X96227926Y-91627513D01*
X96131663Y-91395114D01*
X95991911Y-91185960D01*
X95814040Y-91008089D01*
X95604886Y-90868337D01*
X95372487Y-90772074D01*
X95160966Y-90730000D01*
X95372487Y-90687926D01*
X95604886Y-90591663D01*
X95814040Y-90451911D01*
X95991911Y-90274040D01*
X96131663Y-90064886D01*
X96227926Y-89832487D01*
X96277000Y-89585774D01*
X96277000Y-89334226D01*
X96227926Y-89087513D01*
X96131663Y-88855114D01*
X96048732Y-88730999D01*
X97828253Y-88730999D01*
X97829000Y-88868250D01*
G04 #@! TA.AperFunction,Conductor*
D28*
G36*
X97829000Y-88868250D02*
G01*
X97987750Y-89027000D01*
X99187000Y-89027000D01*
X99187000Y-89007000D01*
X99441000Y-89007000D01*
X99441000Y-89027000D01*
X99461000Y-89027000D01*
X99461000Y-89281000D01*
X99441000Y-89281000D01*
X99441000Y-89301000D01*
X99187000Y-89301000D01*
X99187000Y-89281000D01*
X97987750Y-89281000D01*
X97829000Y-89439750D01*
X97825928Y-90004000D01*
X97838188Y-90128482D01*
X97874498Y-90248180D01*
X97933463Y-90358494D01*
X98012815Y-90455185D01*
X98109506Y-90534537D01*
X98219820Y-90593502D01*
X98301060Y-90618146D01*
X98166739Y-90752467D01*
X98005099Y-90994378D01*
X97893760Y-91263175D01*
X97837000Y-91548528D01*
X97837000Y-91839472D01*
X97852141Y-91915594D01*
X97204736Y-92562999D01*
X96149013Y-92562999D01*
X96227926Y-92372487D01*
X96277000Y-92125774D01*
X96277000Y-91874226D01*
X96227926Y-91627513D01*
X96131663Y-91395114D01*
X95991911Y-91185960D01*
X95814040Y-91008089D01*
X95604886Y-90868337D01*
X95372487Y-90772074D01*
X95160966Y-90730000D01*
X95372487Y-90687926D01*
X95604886Y-90591663D01*
X95814040Y-90451911D01*
X95991911Y-90274040D01*
X96131663Y-90064886D01*
X96227926Y-89832487D01*
X96277000Y-89585774D01*
X96277000Y-89334226D01*
X96227926Y-89087513D01*
X96131663Y-88855114D01*
X96048732Y-88730999D01*
X97828253Y-88730999D01*
X97829000Y-88868250D01*
G37*
G04 #@! TD.AperFunction*
D27*
X49276866Y-71833134D02*
X49310333Y-71860600D01*
X49339400Y-71889666D01*
X49366866Y-71923134D01*
X49500407Y-72032728D01*
X49652762Y-72114163D01*
X49818077Y-72164311D01*
X49946920Y-72177001D01*
X49946929Y-72177001D01*
X49989998Y-72181243D01*
X50033068Y-72177001D01*
X60578679Y-72177001D01*
X61697326Y-73295648D01*
X61604494Y-73219463D01*
X61494180Y-73160498D01*
X61374482Y-73124188D01*
X61250000Y-73111928D01*
X60285750Y-73115000D01*
X60127000Y-73273750D01*
X60127000Y-74873000D01*
X61726250Y-74873000D01*
X61885000Y-74714250D01*
X61888072Y-73750000D01*
X61875812Y-73625518D01*
X61839502Y-73505820D01*
X61780537Y-73395506D01*
X61704352Y-73302674D01*
X62789000Y-74387322D01*
X62788999Y-78088921D01*
X62784756Y-78132001D01*
X62801689Y-78303923D01*
X62832024Y-78403922D01*
X62851837Y-78469237D01*
X62933272Y-78621592D01*
X63042866Y-78755134D01*
X63076331Y-78782598D01*
X63860742Y-79567009D01*
X61253711Y-79567009D01*
X61316162Y-79416241D01*
X61371000Y-79140547D01*
X61371000Y-78859453D01*
X61316162Y-78583759D01*
X61208591Y-78324062D01*
X61052424Y-78090340D01*
X60853660Y-77891576D01*
X60619938Y-77735409D01*
X60360241Y-77627838D01*
X60084547Y-77573000D01*
X59803453Y-77573000D01*
X59527759Y-77627838D01*
X59268062Y-77735409D01*
X59034340Y-77891576D01*
X58835576Y-78090340D01*
X58679409Y-78324062D01*
X58571838Y-78583759D01*
X58517000Y-78859453D01*
X58517000Y-79140547D01*
X58571838Y-79416241D01*
X58634289Y-79567009D01*
X53291272Y-79567009D01*
X50532179Y-76807916D01*
X50547501Y-76804868D01*
X50889093Y-76663376D01*
X51196518Y-76457961D01*
X51457961Y-76196518D01*
X51663376Y-75889093D01*
X51804868Y-75547501D01*
X51877000Y-75184868D01*
X51877000Y-74815132D01*
X53123000Y-74815132D01*
X53123000Y-75184868D01*
X53195132Y-75547501D01*
X53336624Y-75889093D01*
X53542039Y-76196518D01*
X53803482Y-76457961D01*
X54110907Y-76663376D01*
X54452499Y-76804868D01*
X54815132Y-76877000D01*
X55184868Y-76877000D01*
X55547501Y-76804868D01*
X55889093Y-76663376D01*
X56196518Y-76457961D01*
X56404479Y-76250000D01*
X58111928Y-76250000D01*
X58124188Y-76374482D01*
X58160498Y-76494180D01*
X58219463Y-76604494D01*
X58298815Y-76701185D01*
X58395506Y-76780537D01*
X58505820Y-76839502D01*
X58625518Y-76875812D01*
X58750000Y-76888072D01*
X59714250Y-76885000D01*
X59873000Y-76726250D01*
X59873000Y-75127000D01*
X60127000Y-75127000D01*
X60127000Y-76726250D01*
X60285750Y-76885000D01*
X61250000Y-76888072D01*
X61374482Y-76875812D01*
X61494180Y-76839502D01*
X61604494Y-76780537D01*
X61701185Y-76701185D01*
X61780537Y-76604494D01*
X61839502Y-76494180D01*
X61875812Y-76374482D01*
X61888072Y-76250000D01*
X61885000Y-75285750D01*
X61726250Y-75127000D01*
X60127000Y-75127000D01*
X59873000Y-75127000D01*
X58273750Y-75127000D01*
X58115000Y-75285750D01*
X58111928Y-76250000D01*
X56404479Y-76250000D01*
X56457961Y-76196518D01*
X56663376Y-75889093D01*
X56804868Y-75547501D01*
X56877000Y-75184868D01*
X56877000Y-74815132D01*
X56804868Y-74452499D01*
X56663376Y-74110907D01*
X56457961Y-73803482D01*
X56404479Y-73750000D01*
X58111928Y-73750000D01*
X58115000Y-74714250D01*
X58273750Y-74873000D01*
X59873000Y-74873000D01*
X59873000Y-73273750D01*
X59714250Y-73115000D01*
X58750000Y-73111928D01*
X58625518Y-73124188D01*
X58505820Y-73160498D01*
X58395506Y-73219463D01*
X58298815Y-73298815D01*
X58219463Y-73395506D01*
X58160498Y-73505820D01*
X58124188Y-73625518D01*
X58111928Y-73750000D01*
X56404479Y-73750000D01*
X56196518Y-73542039D01*
X55889093Y-73336624D01*
X55547501Y-73195132D01*
X55184868Y-73123000D01*
X54815132Y-73123000D01*
X54452499Y-73195132D01*
X54110907Y-73336624D01*
X53803482Y-73542039D01*
X53542039Y-73803482D01*
X53336624Y-74110907D01*
X53195132Y-74452499D01*
X53123000Y-74815132D01*
X51877000Y-74815132D01*
X51804868Y-74452499D01*
X51663376Y-74110907D01*
X51457961Y-73803482D01*
X51196518Y-73542039D01*
X50889093Y-73336624D01*
X50547501Y-73195132D01*
X50184868Y-73123000D01*
X49815132Y-73123000D01*
X49452499Y-73195132D01*
X49176999Y-73309248D01*
X49176999Y-71711445D01*
X49276866Y-71833134D01*
G04 #@! TA.AperFunction,Conductor*
D28*
G36*
X49276866Y-71833134D02*
G01*
X49310333Y-71860600D01*
X49339400Y-71889666D01*
X49366866Y-71923134D01*
X49500407Y-72032728D01*
X49652762Y-72114163D01*
X49818077Y-72164311D01*
X49946920Y-72177001D01*
X49946929Y-72177001D01*
X49989998Y-72181243D01*
X50033068Y-72177001D01*
X60578679Y-72177001D01*
X61697326Y-73295648D01*
X61604494Y-73219463D01*
X61494180Y-73160498D01*
X61374482Y-73124188D01*
X61250000Y-73111928D01*
X60285750Y-73115000D01*
X60127000Y-73273750D01*
X60127000Y-74873000D01*
X61726250Y-74873000D01*
X61885000Y-74714250D01*
X61888072Y-73750000D01*
X61875812Y-73625518D01*
X61839502Y-73505820D01*
X61780537Y-73395506D01*
X61704352Y-73302674D01*
X62789000Y-74387322D01*
X62788999Y-78088921D01*
X62784756Y-78132001D01*
X62801689Y-78303923D01*
X62832024Y-78403922D01*
X62851837Y-78469237D01*
X62933272Y-78621592D01*
X63042866Y-78755134D01*
X63076331Y-78782598D01*
X63860742Y-79567009D01*
X61253711Y-79567009D01*
X61316162Y-79416241D01*
X61371000Y-79140547D01*
X61371000Y-78859453D01*
X61316162Y-78583759D01*
X61208591Y-78324062D01*
X61052424Y-78090340D01*
X60853660Y-77891576D01*
X60619938Y-77735409D01*
X60360241Y-77627838D01*
X60084547Y-77573000D01*
X59803453Y-77573000D01*
X59527759Y-77627838D01*
X59268062Y-77735409D01*
X59034340Y-77891576D01*
X58835576Y-78090340D01*
X58679409Y-78324062D01*
X58571838Y-78583759D01*
X58517000Y-78859453D01*
X58517000Y-79140547D01*
X58571838Y-79416241D01*
X58634289Y-79567009D01*
X53291272Y-79567009D01*
X50532179Y-76807916D01*
X50547501Y-76804868D01*
X50889093Y-76663376D01*
X51196518Y-76457961D01*
X51457961Y-76196518D01*
X51663376Y-75889093D01*
X51804868Y-75547501D01*
X51877000Y-75184868D01*
X51877000Y-74815132D01*
X53123000Y-74815132D01*
X53123000Y-75184868D01*
X53195132Y-75547501D01*
X53336624Y-75889093D01*
X53542039Y-76196518D01*
X53803482Y-76457961D01*
X54110907Y-76663376D01*
X54452499Y-76804868D01*
X54815132Y-76877000D01*
X55184868Y-76877000D01*
X55547501Y-76804868D01*
X55889093Y-76663376D01*
X56196518Y-76457961D01*
X56404479Y-76250000D01*
X58111928Y-76250000D01*
X58124188Y-76374482D01*
X58160498Y-76494180D01*
X58219463Y-76604494D01*
X58298815Y-76701185D01*
X58395506Y-76780537D01*
X58505820Y-76839502D01*
X58625518Y-76875812D01*
X58750000Y-76888072D01*
X59714250Y-76885000D01*
X59873000Y-76726250D01*
X59873000Y-75127000D01*
X60127000Y-75127000D01*
X60127000Y-76726250D01*
X60285750Y-76885000D01*
X61250000Y-76888072D01*
X61374482Y-76875812D01*
X61494180Y-76839502D01*
X61604494Y-76780537D01*
X61701185Y-76701185D01*
X61780537Y-76604494D01*
X61839502Y-76494180D01*
X61875812Y-76374482D01*
X61888072Y-76250000D01*
X61885000Y-75285750D01*
X61726250Y-75127000D01*
X60127000Y-75127000D01*
X59873000Y-75127000D01*
X58273750Y-75127000D01*
X58115000Y-75285750D01*
X58111928Y-76250000D01*
X56404479Y-76250000D01*
X56457961Y-76196518D01*
X56663376Y-75889093D01*
X56804868Y-75547501D01*
X56877000Y-75184868D01*
X56877000Y-74815132D01*
X56804868Y-74452499D01*
X56663376Y-74110907D01*
X56457961Y-73803482D01*
X56404479Y-73750000D01*
X58111928Y-73750000D01*
X58115000Y-74714250D01*
X58273750Y-74873000D01*
X59873000Y-74873000D01*
X59873000Y-73273750D01*
X59714250Y-73115000D01*
X58750000Y-73111928D01*
X58625518Y-73124188D01*
X58505820Y-73160498D01*
X58395506Y-73219463D01*
X58298815Y-73298815D01*
X58219463Y-73395506D01*
X58160498Y-73505820D01*
X58124188Y-73625518D01*
X58111928Y-73750000D01*
X56404479Y-73750000D01*
X56196518Y-73542039D01*
X55889093Y-73336624D01*
X55547501Y-73195132D01*
X55184868Y-73123000D01*
X54815132Y-73123000D01*
X54452499Y-73195132D01*
X54110907Y-73336624D01*
X53803482Y-73542039D01*
X53542039Y-73803482D01*
X53336624Y-74110907D01*
X53195132Y-74452499D01*
X53123000Y-74815132D01*
X51877000Y-74815132D01*
X51804868Y-74452499D01*
X51663376Y-74110907D01*
X51457961Y-73803482D01*
X51196518Y-73542039D01*
X50889093Y-73336624D01*
X50547501Y-73195132D01*
X50184868Y-73123000D01*
X49815132Y-73123000D01*
X49452499Y-73195132D01*
X49176999Y-73309248D01*
X49176999Y-71711445D01*
X49276866Y-71833134D01*
G37*
G04 #@! TD.AperFunction*
G04 #@! TD*
M02*
