M48
; DRILL file {KiCad (5.1.7)-1} date 01/07/21 21:29:55
; FORMAT={-:-/ absolute / inch / decimal}
; #@! TF.CreationDate,2021-01-07T21:29:55-06:00
; #@! TF.GenerationSoftware,Kicad,Pcbnew,(5.1.7)-1
; #@! TF.FileFunction,Plated,1,2,PTH
FMAT,2
INCH
T1C0.0157
T2C0.0295
T3C0.0315
T4C0.0354
T5C0.0394
T6C0.0433
T7C0.0984
%
G90
G05
T1
X4.0453Y-4.7653
X4.13Y-4.62
X4.13Y-4.69
X4.1437Y-4.763
X4.2421Y-4.7664
X4.34Y-4.56
X4.3406Y-4.7715
X4.439Y-4.773
X4.5374Y-4.7817
X5.23Y-3.16
X5.88Y-4.57
X5.9154Y-4.7667
X6.0138Y-4.768
X6.1122Y-4.7665
X6.2106Y-4.7664
X6.3091Y-4.7633
X6.4075Y-4.7625
T2
X4.925Y-3.475
X4.925Y-3.525
X4.925Y-3.575
T3
X5.4931Y-3.6
X5.69Y-3.6
X4.86Y-3.82
X4.9387Y-3.82
X3.84Y-3.57
X4.24Y-3.57
X4.37Y-3.99
X4.77Y-3.99
X5.77Y-3.99
X5.77Y-4.39
X5.98Y-3.475
X6.1769Y-3.475
X5.79Y-3.22
X5.9869Y-3.22
X6.39Y-3.95
X6.4687Y-3.95
X4.37Y-4.12
X4.77Y-4.12
X5.57Y-2.95
X5.97Y-2.95
X4.59Y-3.01
X4.7278Y-3.01
X5.6Y-3.35
X6.0Y-3.35
X6.5Y-4.14
X6.5Y-4.3369
X6.21Y-3.8931
X6.21Y-4.09
X5.45Y-4.305
X5.45Y-4.5019
X4.88Y-3.99
X4.88Y-4.39
X3.88Y-4.14
X4.28Y-4.14
X5.1331Y-4.44
X5.33Y-4.44
X3.79Y-3.11
X3.79Y-3.4053
X6.43Y-3.4031
X6.43Y-3.6
X4.1613Y-4.38
X4.24Y-4.38
X4.37Y-4.38
X4.77Y-4.38
X4.89Y-3.1531
X4.89Y-3.35
X5.64Y-4.11
X5.64Y-4.51
X3.57Y-3.23
X3.6487Y-3.23
X3.9Y-3.7
X3.9Y-3.8
X3.9Y-3.9
X3.9Y-4.0
X4.2Y-3.7
X4.2Y-3.8
X4.2Y-3.9
X4.2Y-4.0
X5.01Y-4.305
X5.01Y-4.5019
X5.1331Y-4.31
X5.33Y-4.31
X3.41Y-2.85
X3.81Y-2.85
X3.93Y-4.38
X4.0087Y-4.38
X3.41Y-2.99
X3.81Y-2.99
X4.37Y-4.25
X4.77Y-4.25
X5.48Y-3.475
X5.88Y-3.475
X5.64Y-3.8031
X5.64Y-4.0
X6.3Y-3.39
X6.3Y-3.79
X5.79Y-3.6
X6.19Y-3.6
X4.62Y-3.37
X4.6987Y-3.37
X5.5Y-3.73
X5.5Y-4.13
X4.45Y-3.54
X4.5287Y-3.54
X4.69Y-3.5747
X4.69Y-3.87
X6.06Y-4.09
X6.06Y-4.2869
X6.64Y-3.84
X6.64Y-4.24
X5.57Y-3.09
X5.97Y-3.09
X5.91Y-3.97
X5.91Y-4.37
X3.94Y-3.4
X4.34Y-3.4
X5.075Y-3.48
X5.075Y-3.58
X5.075Y-3.68
X5.075Y-3.78
X5.075Y-3.88
X5.075Y-3.98
X5.075Y-4.08
X5.075Y-4.18
X5.375Y-3.48
X5.375Y-3.58
X5.375Y-3.68
X5.375Y-3.78
X5.375Y-3.88
X5.375Y-3.98
X5.375Y-4.08
X5.375Y-4.18
T4
X4.4376Y-3.74
X4.4376Y-3.84
X6.0124Y-3.7402
X6.0124Y-3.8402
T5
X6.2093Y-3.285
X6.3077Y-3.285
X6.4061Y-3.285
X5.1266Y-3.285
X5.225Y-3.285
X5.3234Y-3.285
X4.0409Y-3.285
X4.1393Y-3.285
X4.2378Y-3.285
T6
X3.77Y-3.91
X3.77Y-4.31
T7
X7.0925Y-4.8268
X3.3602Y-4.8268
T0
M30
