%TF.GenerationSoftware,KiCad,Pcbnew,(5.1.7)-1*%
%TF.CreationDate,2020-11-08T15:14:14-06:00*%
%TF.ProjectId,ConsolePedalDistortion,436f6e73-6f6c-4655-9065-64616c446973,rev?*%
%TF.SameCoordinates,Original*%
%TF.FileFunction,Soldermask,Top*%
%TF.FilePolarity,Negative*%
%FSLAX46Y46*%
G04 Gerber Fmt 4.6, Leading zero omitted, Abs format (unit mm)*
G04 Created by KiCad (PCBNEW (5.1.7)-1) date 2020-11-08 15:14:14*
%MOMM*%
%LPD*%
G01*
G04 APERTURE LIST*
%ADD10C,5.000000*%
%ADD11R,1.800000X1.800000*%
%ADD12C,1.800000*%
%ADD13O,1.700000X1.700000*%
%ADD14R,1.700000X1.700000*%
%ADD15R,0.600000X0.450000*%
%ADD16R,1.500000X7.000000*%
%ADD17R,0.800000X0.900000*%
%ADD18C,0.254000*%
%ADD19C,0.100000*%
G04 APERTURE END LIST*
D10*
%TO.C,REF\u002A\u002A*%
X85350000Y-122600000D03*
%TD*%
%TO.C,REF\u002A\u002A*%
X180150000Y-122600000D03*
%TD*%
%TO.C,R3*%
G36*
G01*
X130700000Y-107860000D02*
X130700000Y-107310000D01*
G75*
G02*
X130900000Y-107110000I200000J0D01*
G01*
X131300000Y-107110000D01*
G75*
G02*
X131500000Y-107310000I0J-200000D01*
G01*
X131500000Y-107860000D01*
G75*
G02*
X131300000Y-108060000I-200000J0D01*
G01*
X130900000Y-108060000D01*
G75*
G02*
X130700000Y-107860000I0J200000D01*
G01*
G37*
G36*
G01*
X132350000Y-107860000D02*
X132350000Y-107310000D01*
G75*
G02*
X132550000Y-107110000I200000J0D01*
G01*
X132950000Y-107110000D01*
G75*
G02*
X133150000Y-107310000I0J-200000D01*
G01*
X133150000Y-107860000D01*
G75*
G02*
X132950000Y-108060000I-200000J0D01*
G01*
X132550000Y-108060000D01*
G75*
G02*
X132350000Y-107860000I0J200000D01*
G01*
G37*
%TD*%
%TO.C,C1*%
G36*
G01*
X137888000Y-110121000D02*
X137888000Y-109621000D01*
G75*
G02*
X138113000Y-109396000I225000J0D01*
G01*
X138563000Y-109396000D01*
G75*
G02*
X138788000Y-109621000I0J-225000D01*
G01*
X138788000Y-110121000D01*
G75*
G02*
X138563000Y-110346000I-225000J0D01*
G01*
X138113000Y-110346000D01*
G75*
G02*
X137888000Y-110121000I0J225000D01*
G01*
G37*
G36*
G01*
X139438000Y-110121000D02*
X139438000Y-109621000D01*
G75*
G02*
X139663000Y-109396000I225000J0D01*
G01*
X140113000Y-109396000D01*
G75*
G02*
X140338000Y-109621000I0J-225000D01*
G01*
X140338000Y-110121000D01*
G75*
G02*
X140113000Y-110346000I-225000J0D01*
G01*
X139663000Y-110346000D01*
G75*
G02*
X139438000Y-110121000I0J225000D01*
G01*
G37*
%TD*%
%TO.C,C2*%
G36*
G01*
X132453000Y-110121000D02*
X132453000Y-109621000D01*
G75*
G02*
X132678000Y-109396000I225000J0D01*
G01*
X133128000Y-109396000D01*
G75*
G02*
X133353000Y-109621000I0J-225000D01*
G01*
X133353000Y-110121000D01*
G75*
G02*
X133128000Y-110346000I-225000J0D01*
G01*
X132678000Y-110346000D01*
G75*
G02*
X132453000Y-110121000I0J225000D01*
G01*
G37*
G36*
G01*
X130903000Y-110121000D02*
X130903000Y-109621000D01*
G75*
G02*
X131128000Y-109396000I225000J0D01*
G01*
X131578000Y-109396000D01*
G75*
G02*
X131803000Y-109621000I0J-225000D01*
G01*
X131803000Y-110121000D01*
G75*
G02*
X131578000Y-110346000I-225000J0D01*
G01*
X131128000Y-110346000D01*
G75*
G02*
X130903000Y-110121000I0J225000D01*
G01*
G37*
%TD*%
D11*
%TO.C,D1*%
X115224000Y-101854000D03*
D12*
X115224000Y-104394000D03*
%TD*%
%TO.C,D2*%
X150241000Y-104368600D03*
D11*
X150241000Y-101828600D03*
%TD*%
%TO.C,R1*%
G36*
G01*
X136896000Y-109596000D02*
X136896000Y-110146000D01*
G75*
G02*
X136696000Y-110346000I-200000J0D01*
G01*
X136296000Y-110346000D01*
G75*
G02*
X136096000Y-110146000I0J200000D01*
G01*
X136096000Y-109596000D01*
G75*
G02*
X136296000Y-109396000I200000J0D01*
G01*
X136696000Y-109396000D01*
G75*
G02*
X136896000Y-109596000I0J-200000D01*
G01*
G37*
G36*
G01*
X135246000Y-109596000D02*
X135246000Y-110146000D01*
G75*
G02*
X135046000Y-110346000I-200000J0D01*
G01*
X134646000Y-110346000D01*
G75*
G02*
X134446000Y-110146000I0J200000D01*
G01*
X134446000Y-109596000D01*
G75*
G02*
X134646000Y-109396000I200000J0D01*
G01*
X135046000Y-109396000D01*
G75*
G02*
X135246000Y-109596000I0J-200000D01*
G01*
G37*
%TD*%
%TO.C,R2*%
G36*
G01*
X135246000Y-111501000D02*
X135246000Y-112051000D01*
G75*
G02*
X135046000Y-112251000I-200000J0D01*
G01*
X134646000Y-112251000D01*
G75*
G02*
X134446000Y-112051000I0J200000D01*
G01*
X134446000Y-111501000D01*
G75*
G02*
X134646000Y-111301000I200000J0D01*
G01*
X135046000Y-111301000D01*
G75*
G02*
X135246000Y-111501000I0J-200000D01*
G01*
G37*
G36*
G01*
X136896000Y-111501000D02*
X136896000Y-112051000D01*
G75*
G02*
X136696000Y-112251000I-200000J0D01*
G01*
X136296000Y-112251000D01*
G75*
G02*
X136096000Y-112051000I0J200000D01*
G01*
X136096000Y-111501000D01*
G75*
G02*
X136296000Y-111301000I200000J0D01*
G01*
X136696000Y-111301000D01*
G75*
G02*
X136896000Y-111501000I0J-200000D01*
G01*
G37*
%TD*%
D13*
%TO.C,Distortion*%
X147701000Y-96494600D03*
X150241000Y-96494600D03*
D14*
X152781000Y-96494600D03*
%TD*%
%TO.C,Volume*%
X117637000Y-96520000D03*
D13*
X115097000Y-96520000D03*
X112557000Y-96520000D03*
%TD*%
D15*
%TO.C,D3*%
X129355000Y-107585000D03*
X127255000Y-107585000D03*
%TD*%
%TO.C,D4*%
X129389001Y-109875001D03*
X127289001Y-109875001D03*
%TD*%
D16*
%TO.C,J1*%
X102750000Y-126000000D03*
X105250000Y-126000000D03*
X107750000Y-126000000D03*
X110250000Y-126000000D03*
X112750000Y-126000000D03*
X115250000Y-126000000D03*
X117750000Y-126000000D03*
X120250000Y-126000000D03*
X122750000Y-126000000D03*
X125250000Y-126000000D03*
X127750000Y-126000000D03*
X130250000Y-126000000D03*
X132750000Y-126000000D03*
X135250000Y-126000000D03*
X137750000Y-126000000D03*
X140250000Y-126000000D03*
X142750000Y-126000000D03*
X145250000Y-126000000D03*
X147750000Y-126000000D03*
X150250000Y-126000000D03*
X152750000Y-126000000D03*
X155250000Y-126000000D03*
X157750000Y-126000000D03*
X160250000Y-126000000D03*
X162750000Y-126000000D03*
%TD*%
D17*
%TO.C,Q1*%
X130530000Y-114300000D03*
X132430000Y-114300000D03*
X131480000Y-112300000D03*
%TD*%
D18*
X165000000Y-129000000D02*
X164000000Y-130000000D01*
X101500000Y-130000000D01*
X100500000Y-129000000D01*
X100500000Y-123063000D01*
X165000000Y-123063000D01*
X165000000Y-129000000D01*
D19*
G36*
X165000000Y-129000000D02*
G01*
X164000000Y-130000000D01*
X101500000Y-130000000D01*
X100500000Y-129000000D01*
X100500000Y-123063000D01*
X165000000Y-123063000D01*
X165000000Y-129000000D01*
G37*
D18*
X86487000Y-119380000D02*
X86489440Y-119404776D01*
X86496667Y-119428601D01*
X86508403Y-119450557D01*
X86524197Y-119469803D01*
X86543443Y-119485597D01*
X86565399Y-119497333D01*
X86589224Y-119504560D01*
X86614000Y-119507000D01*
X89000000Y-119507000D01*
X89000000Y-126000000D01*
X82500000Y-126000000D01*
X82500000Y-97917000D01*
X86487000Y-97917000D01*
X86487000Y-119380000D01*
D19*
G36*
X86487000Y-119380000D02*
G01*
X86489440Y-119404776D01*
X86496667Y-119428601D01*
X86508403Y-119450557D01*
X86524197Y-119469803D01*
X86543443Y-119485597D01*
X86565399Y-119497333D01*
X86589224Y-119504560D01*
X86614000Y-119507000D01*
X89000000Y-119507000D01*
X89000000Y-126000000D01*
X82500000Y-126000000D01*
X82500000Y-97917000D01*
X86487000Y-97917000D01*
X86487000Y-119380000D01*
G37*
D18*
X182499000Y-126000000D02*
X176500000Y-126000000D01*
X176500000Y-119761000D01*
X179578000Y-119761000D01*
X179602776Y-119758560D01*
X179626601Y-119751333D01*
X179648557Y-119739597D01*
X179667803Y-119723803D01*
X179683597Y-119704557D01*
X179695333Y-119682601D01*
X179702560Y-119658776D01*
X179705000Y-119634000D01*
X179705000Y-99441000D01*
X182499000Y-99441000D01*
X182499000Y-126000000D01*
D19*
G36*
X182499000Y-126000000D02*
G01*
X176500000Y-126000000D01*
X176500000Y-119761000D01*
X179578000Y-119761000D01*
X179602776Y-119758560D01*
X179626601Y-119751333D01*
X179648557Y-119739597D01*
X179667803Y-119723803D01*
X179683597Y-119704557D01*
X179695333Y-119682601D01*
X179702560Y-119658776D01*
X179705000Y-119634000D01*
X179705000Y-99441000D01*
X182499000Y-99441000D01*
X182499000Y-126000000D01*
G37*
M02*
