G04 #@! TF.GenerationSoftware,KiCad,Pcbnew,(5.1.7)-1*
G04 #@! TF.CreationDate,2021-09-25T20:35:41-05:00*
G04 #@! TF.ProjectId,ConsolePedalDistortion,436f6e73-6f6c-4655-9065-64616c446973,rev?*
G04 #@! TF.SameCoordinates,Original*
G04 #@! TF.FileFunction,Legend,Bot*
G04 #@! TF.FilePolarity,Positive*
%FSLAX46Y46*%
G04 Gerber Fmt 4.6, Leading zero omitted, Abs format (unit mm)*
G04 Created by KiCad (PCBNEW (5.1.7)-1) date 2021-09-25 20:35:41*
%MOMM*%
%LPD*%
G01*
G04 APERTURE LIST*
%ADD10C,0.250000*%
G04 APERTURE END LIST*
D10*
X148678571Y-121820714D02*
X148750000Y-121892142D01*
X148964285Y-121963571D01*
X149107142Y-121963571D01*
X149321428Y-121892142D01*
X149464285Y-121749285D01*
X149535714Y-121606428D01*
X149607142Y-121320714D01*
X149607142Y-121106428D01*
X149535714Y-120820714D01*
X149464285Y-120677857D01*
X149321428Y-120535000D01*
X149107142Y-120463571D01*
X148964285Y-120463571D01*
X148750000Y-120535000D01*
X148678571Y-120606428D01*
X147821428Y-121963571D02*
X147964285Y-121892142D01*
X148035714Y-121820714D01*
X148107142Y-121677857D01*
X148107142Y-121249285D01*
X148035714Y-121106428D01*
X147964285Y-121035000D01*
X147821428Y-120963571D01*
X147607142Y-120963571D01*
X147464285Y-121035000D01*
X147392857Y-121106428D01*
X147321428Y-121249285D01*
X147321428Y-121677857D01*
X147392857Y-121820714D01*
X147464285Y-121892142D01*
X147607142Y-121963571D01*
X147821428Y-121963571D01*
X146678571Y-120963571D02*
X146678571Y-121963571D01*
X146678571Y-121106428D02*
X146607142Y-121035000D01*
X146464285Y-120963571D01*
X146250000Y-120963571D01*
X146107142Y-121035000D01*
X146035714Y-121177857D01*
X146035714Y-121963571D01*
X145392857Y-121892142D02*
X145250000Y-121963571D01*
X144964285Y-121963571D01*
X144821428Y-121892142D01*
X144750000Y-121749285D01*
X144750000Y-121677857D01*
X144821428Y-121535000D01*
X144964285Y-121463571D01*
X145178571Y-121463571D01*
X145321428Y-121392142D01*
X145392857Y-121249285D01*
X145392857Y-121177857D01*
X145321428Y-121035000D01*
X145178571Y-120963571D01*
X144964285Y-120963571D01*
X144821428Y-121035000D01*
X143892857Y-121963571D02*
X144035714Y-121892142D01*
X144107142Y-121820714D01*
X144178571Y-121677857D01*
X144178571Y-121249285D01*
X144107142Y-121106428D01*
X144035714Y-121035000D01*
X143892857Y-120963571D01*
X143678571Y-120963571D01*
X143535714Y-121035000D01*
X143464285Y-121106428D01*
X143392857Y-121249285D01*
X143392857Y-121677857D01*
X143464285Y-121820714D01*
X143535714Y-121892142D01*
X143678571Y-121963571D01*
X143892857Y-121963571D01*
X142535714Y-121963571D02*
X142678571Y-121892142D01*
X142750000Y-121749285D01*
X142750000Y-120463571D01*
X141392857Y-121892142D02*
X141535714Y-121963571D01*
X141821428Y-121963571D01*
X141964285Y-121892142D01*
X142035714Y-121749285D01*
X142035714Y-121177857D01*
X141964285Y-121035000D01*
X141821428Y-120963571D01*
X141535714Y-120963571D01*
X141392857Y-121035000D01*
X141321428Y-121177857D01*
X141321428Y-121320714D01*
X142035714Y-121463571D01*
X139535714Y-121963571D02*
X139535714Y-120463571D01*
X138964285Y-120463571D01*
X138821428Y-120535000D01*
X138750000Y-120606428D01*
X138678571Y-120749285D01*
X138678571Y-120963571D01*
X138750000Y-121106428D01*
X138821428Y-121177857D01*
X138964285Y-121249285D01*
X139535714Y-121249285D01*
X137464285Y-121892142D02*
X137607142Y-121963571D01*
X137892857Y-121963571D01*
X138035714Y-121892142D01*
X138107142Y-121749285D01*
X138107142Y-121177857D01*
X138035714Y-121035000D01*
X137892857Y-120963571D01*
X137607142Y-120963571D01*
X137464285Y-121035000D01*
X137392857Y-121177857D01*
X137392857Y-121320714D01*
X138107142Y-121463571D01*
X136107142Y-121963571D02*
X136107142Y-120463571D01*
X136107142Y-121892142D02*
X136250000Y-121963571D01*
X136535714Y-121963571D01*
X136678571Y-121892142D01*
X136750000Y-121820714D01*
X136821428Y-121677857D01*
X136821428Y-121249285D01*
X136750000Y-121106428D01*
X136678571Y-121035000D01*
X136535714Y-120963571D01*
X136250000Y-120963571D01*
X136107142Y-121035000D01*
X134750000Y-121963571D02*
X134750000Y-121177857D01*
X134821428Y-121035000D01*
X134964285Y-120963571D01*
X135250000Y-120963571D01*
X135392857Y-121035000D01*
X134750000Y-121892142D02*
X134892857Y-121963571D01*
X135250000Y-121963571D01*
X135392857Y-121892142D01*
X135464285Y-121749285D01*
X135464285Y-121606428D01*
X135392857Y-121463571D01*
X135250000Y-121392142D01*
X134892857Y-121392142D01*
X134750000Y-121320714D01*
X133821428Y-121963571D02*
X133964285Y-121892142D01*
X134035714Y-121749285D01*
X134035714Y-120463571D01*
X132107142Y-121963571D02*
X132107142Y-120463571D01*
X131749999Y-120463571D01*
X131535714Y-120535000D01*
X131392857Y-120677857D01*
X131321428Y-120820714D01*
X131249999Y-121106428D01*
X131249999Y-121320714D01*
X131321428Y-121606428D01*
X131392857Y-121749285D01*
X131535714Y-121892142D01*
X131749999Y-121963571D01*
X132107142Y-121963571D01*
X130607142Y-121963571D02*
X130607142Y-120963571D01*
X130607142Y-120463571D02*
X130678571Y-120535000D01*
X130607142Y-120606428D01*
X130535714Y-120535000D01*
X130607142Y-120463571D01*
X130607142Y-120606428D01*
X129964285Y-121892142D02*
X129821428Y-121963571D01*
X129535714Y-121963571D01*
X129392857Y-121892142D01*
X129321428Y-121749285D01*
X129321428Y-121677857D01*
X129392857Y-121535000D01*
X129535714Y-121463571D01*
X129749999Y-121463571D01*
X129892857Y-121392142D01*
X129964285Y-121249285D01*
X129964285Y-121177857D01*
X129892857Y-121035000D01*
X129749999Y-120963571D01*
X129535714Y-120963571D01*
X129392857Y-121035000D01*
X128892857Y-120963571D02*
X128321428Y-120963571D01*
X128678571Y-120463571D02*
X128678571Y-121749285D01*
X128607142Y-121892142D01*
X128464285Y-121963571D01*
X128321428Y-121963571D01*
X127607142Y-121963571D02*
X127749999Y-121892142D01*
X127821428Y-121820714D01*
X127892857Y-121677857D01*
X127892857Y-121249285D01*
X127821428Y-121106428D01*
X127749999Y-121035000D01*
X127607142Y-120963571D01*
X127392857Y-120963571D01*
X127249999Y-121035000D01*
X127178571Y-121106428D01*
X127107142Y-121249285D01*
X127107142Y-121677857D01*
X127178571Y-121820714D01*
X127249999Y-121892142D01*
X127392857Y-121963571D01*
X127607142Y-121963571D01*
X126464285Y-121963571D02*
X126464285Y-120963571D01*
X126464285Y-121249285D02*
X126392857Y-121106428D01*
X126321428Y-121035000D01*
X126178571Y-120963571D01*
X126035714Y-120963571D01*
X125749999Y-120963571D02*
X125178571Y-120963571D01*
X125535714Y-120463571D02*
X125535714Y-121749285D01*
X125464285Y-121892142D01*
X125321428Y-121963571D01*
X125178571Y-121963571D01*
X124678571Y-121963571D02*
X124678571Y-120963571D01*
X124678571Y-120463571D02*
X124750000Y-120535000D01*
X124678571Y-120606428D01*
X124607142Y-120535000D01*
X124678571Y-120463571D01*
X124678571Y-120606428D01*
X123750000Y-121963571D02*
X123892857Y-121892142D01*
X123964285Y-121820714D01*
X124035714Y-121677857D01*
X124035714Y-121249285D01*
X123964285Y-121106428D01*
X123892857Y-121035000D01*
X123750000Y-120963571D01*
X123535714Y-120963571D01*
X123392857Y-121035000D01*
X123321428Y-121106428D01*
X123250000Y-121249285D01*
X123250000Y-121677857D01*
X123321428Y-121820714D01*
X123392857Y-121892142D01*
X123535714Y-121963571D01*
X123750000Y-121963571D01*
X122607142Y-120963571D02*
X122607142Y-121963571D01*
X122607142Y-121106428D02*
X122535714Y-121035000D01*
X122392857Y-120963571D01*
X122178571Y-120963571D01*
X122035714Y-121035000D01*
X121964285Y-121177857D01*
X121964285Y-121963571D01*
X120321428Y-120463571D02*
X119821428Y-121963571D01*
X119321428Y-120463571D01*
X118035714Y-121963571D02*
X118892857Y-121963571D01*
X118464285Y-121963571D02*
X118464285Y-120463571D01*
X118607142Y-120677857D01*
X118749999Y-120820714D01*
X118892857Y-120892142D01*
X117392857Y-121820714D02*
X117321428Y-121892142D01*
X117392857Y-121963571D01*
X117464285Y-121892142D01*
X117392857Y-121820714D01*
X117392857Y-121963571D01*
X116750000Y-120606428D02*
X116678571Y-120535000D01*
X116535714Y-120463571D01*
X116178571Y-120463571D01*
X116035714Y-120535000D01*
X115964285Y-120606428D01*
X115892857Y-120749285D01*
X115892857Y-120892142D01*
X115964285Y-121106428D01*
X116821428Y-121963571D01*
X115892857Y-121963571D01*
X146429285Y-113103761D02*
X145286428Y-113103761D01*
X145857857Y-115103761D02*
X145857857Y-113103761D01*
X144619761Y-115103761D02*
X144619761Y-113103761D01*
X143762619Y-115103761D02*
X143762619Y-114056142D01*
X143857857Y-113865666D01*
X144048333Y-113770428D01*
X144334047Y-113770428D01*
X144524523Y-113865666D01*
X144619761Y-113960904D01*
X142524523Y-115103761D02*
X142715000Y-115008523D01*
X142810238Y-114913285D01*
X142905476Y-114722809D01*
X142905476Y-114151380D01*
X142810238Y-113960904D01*
X142715000Y-113865666D01*
X142524523Y-113770428D01*
X142238809Y-113770428D01*
X142048333Y-113865666D01*
X141953095Y-113960904D01*
X141857857Y-114151380D01*
X141857857Y-114722809D01*
X141953095Y-114913285D01*
X142048333Y-115008523D01*
X142238809Y-115103761D01*
X142524523Y-115103761D01*
X141000714Y-115103761D02*
X141000714Y-113770428D01*
X141000714Y-113960904D02*
X140905476Y-113865666D01*
X140715000Y-113770428D01*
X140429285Y-113770428D01*
X140238809Y-113865666D01*
X140143571Y-114056142D01*
X140143571Y-115103761D01*
X140143571Y-114056142D02*
X140048333Y-113865666D01*
X139857857Y-113770428D01*
X139572142Y-113770428D01*
X139381666Y-113865666D01*
X139286428Y-114056142D01*
X139286428Y-115103761D01*
X137476904Y-115103761D02*
X137476904Y-114056142D01*
X137572142Y-113865666D01*
X137762619Y-113770428D01*
X138143571Y-113770428D01*
X138334047Y-113865666D01*
X137476904Y-115008523D02*
X137667380Y-115103761D01*
X138143571Y-115103761D01*
X138334047Y-115008523D01*
X138429285Y-114818047D01*
X138429285Y-114627571D01*
X138334047Y-114437095D01*
X138143571Y-114341857D01*
X137667380Y-114341857D01*
X137476904Y-114246619D01*
X136619761Y-115008523D02*
X136429285Y-115103761D01*
X136048333Y-115103761D01*
X135857857Y-115008523D01*
X135762619Y-114818047D01*
X135762619Y-114722809D01*
X135857857Y-114532333D01*
X136048333Y-114437095D01*
X136334047Y-114437095D01*
X136524523Y-114341857D01*
X136619761Y-114151380D01*
X136619761Y-114056142D01*
X136524523Y-113865666D01*
X136334047Y-113770428D01*
X136048333Y-113770428D01*
X135857857Y-113865666D01*
X133381666Y-115103761D02*
X133381666Y-113103761D01*
X132715000Y-114532333D01*
X132048333Y-113103761D01*
X132048333Y-115103761D01*
X130238809Y-115008523D02*
X130429285Y-115103761D01*
X130810238Y-115103761D01*
X131000714Y-115008523D01*
X131095952Y-114913285D01*
X131191190Y-114722809D01*
X131191190Y-114151380D01*
X131095952Y-113960904D01*
X131000714Y-113865666D01*
X130810238Y-113770428D01*
X130429285Y-113770428D01*
X130238809Y-113865666D01*
X129381666Y-115103761D02*
X129381666Y-113103761D01*
X128905476Y-113103761D01*
X128619761Y-113199000D01*
X128429285Y-113389476D01*
X128334047Y-113579952D01*
X128238809Y-113960904D01*
X128238809Y-114246619D01*
X128334047Y-114627571D01*
X128429285Y-114818047D01*
X128619761Y-115008523D01*
X128905476Y-115103761D01*
X129381666Y-115103761D01*
X127095952Y-115103761D02*
X127286428Y-115008523D01*
X127381666Y-114913285D01*
X127476904Y-114722809D01*
X127476904Y-114151380D01*
X127381666Y-113960904D01*
X127286428Y-113865666D01*
X127095952Y-113770428D01*
X126810238Y-113770428D01*
X126619761Y-113865666D01*
X126524523Y-113960904D01*
X126429285Y-114151380D01*
X126429285Y-114722809D01*
X126524523Y-114913285D01*
X126619761Y-115008523D01*
X126810238Y-115103761D01*
X127095952Y-115103761D01*
X125572142Y-113770428D02*
X125572142Y-115103761D01*
X125572142Y-113960904D02*
X125476904Y-113865666D01*
X125286428Y-113770428D01*
X125000714Y-113770428D01*
X124810238Y-113865666D01*
X124715000Y-114056142D01*
X124715000Y-115103761D01*
X122905476Y-115103761D02*
X122905476Y-114056142D01*
X123000714Y-113865666D01*
X123191190Y-113770428D01*
X123572142Y-113770428D01*
X123762619Y-113865666D01*
X122905476Y-115008523D02*
X123095952Y-115103761D01*
X123572142Y-115103761D01*
X123762619Y-115008523D01*
X123857857Y-114818047D01*
X123857857Y-114627571D01*
X123762619Y-114437095D01*
X123572142Y-114341857D01*
X123095952Y-114341857D01*
X122905476Y-114246619D01*
X121095952Y-113770428D02*
X121095952Y-115389476D01*
X121191190Y-115579952D01*
X121286428Y-115675190D01*
X121476904Y-115770428D01*
X121762619Y-115770428D01*
X121953095Y-115675190D01*
X121095952Y-115008523D02*
X121286428Y-115103761D01*
X121667380Y-115103761D01*
X121857857Y-115008523D01*
X121953095Y-114913285D01*
X122048333Y-114722809D01*
X122048333Y-114151380D01*
X121953095Y-113960904D01*
X121857857Y-113865666D01*
X121667380Y-113770428D01*
X121286428Y-113770428D01*
X121095952Y-113865666D01*
X120143571Y-115103761D02*
X120143571Y-113103761D01*
X119286428Y-115103761D02*
X119286428Y-114056142D01*
X119381666Y-113865666D01*
X119572142Y-113770428D01*
X119857857Y-113770428D01*
X120048333Y-113865666D01*
X120143571Y-113960904D01*
X145619761Y-118258523D02*
X145810238Y-118353761D01*
X146191190Y-118353761D01*
X146381666Y-118258523D01*
X146476904Y-118163285D01*
X146572142Y-117972809D01*
X146572142Y-117401380D01*
X146476904Y-117210904D01*
X146381666Y-117115666D01*
X146191190Y-117020428D01*
X145810238Y-117020428D01*
X145619761Y-117115666D01*
X144476904Y-118353761D02*
X144667380Y-118258523D01*
X144762619Y-118163285D01*
X144857857Y-117972809D01*
X144857857Y-117401380D01*
X144762619Y-117210904D01*
X144667380Y-117115666D01*
X144476904Y-117020428D01*
X144191190Y-117020428D01*
X144000714Y-117115666D01*
X143905476Y-117210904D01*
X143810238Y-117401380D01*
X143810238Y-117972809D01*
X143905476Y-118163285D01*
X144000714Y-118258523D01*
X144191190Y-118353761D01*
X144476904Y-118353761D01*
X142953095Y-117020428D02*
X142953095Y-118353761D01*
X142953095Y-117210904D02*
X142857857Y-117115666D01*
X142667380Y-117020428D01*
X142381666Y-117020428D01*
X142191190Y-117115666D01*
X142095952Y-117306142D01*
X142095952Y-118353761D01*
X141238809Y-118258523D02*
X141048333Y-118353761D01*
X140667380Y-118353761D01*
X140476904Y-118258523D01*
X140381666Y-118068047D01*
X140381666Y-117972809D01*
X140476904Y-117782333D01*
X140667380Y-117687095D01*
X140953095Y-117687095D01*
X141143571Y-117591857D01*
X141238809Y-117401380D01*
X141238809Y-117306142D01*
X141143571Y-117115666D01*
X140953095Y-117020428D01*
X140667380Y-117020428D01*
X140476904Y-117115666D01*
X139238809Y-118353761D02*
X139429285Y-118258523D01*
X139524523Y-118163285D01*
X139619761Y-117972809D01*
X139619761Y-117401380D01*
X139524523Y-117210904D01*
X139429285Y-117115666D01*
X139238809Y-117020428D01*
X138953095Y-117020428D01*
X138762619Y-117115666D01*
X138667380Y-117210904D01*
X138572142Y-117401380D01*
X138572142Y-117972809D01*
X138667380Y-118163285D01*
X138762619Y-118258523D01*
X138953095Y-118353761D01*
X139238809Y-118353761D01*
X137429285Y-118353761D02*
X137619761Y-118258523D01*
X137715000Y-118068047D01*
X137715000Y-116353761D01*
X135905476Y-118258523D02*
X136095952Y-118353761D01*
X136476904Y-118353761D01*
X136667380Y-118258523D01*
X136762619Y-118068047D01*
X136762619Y-117306142D01*
X136667380Y-117115666D01*
X136476904Y-117020428D01*
X136095952Y-117020428D01*
X135905476Y-117115666D01*
X135810238Y-117306142D01*
X135810238Y-117496619D01*
X136762619Y-117687095D01*
X134953095Y-117020428D02*
X134953095Y-119020428D01*
X134953095Y-117115666D02*
X134762619Y-117020428D01*
X134381666Y-117020428D01*
X134191190Y-117115666D01*
X134095952Y-117210904D01*
X134000714Y-117401380D01*
X134000714Y-117972809D01*
X134095952Y-118163285D01*
X134191190Y-118258523D01*
X134381666Y-118353761D01*
X134762619Y-118353761D01*
X134953095Y-118258523D01*
X132381666Y-118258523D02*
X132572142Y-118353761D01*
X132953095Y-118353761D01*
X133143571Y-118258523D01*
X133238809Y-118068047D01*
X133238809Y-117306142D01*
X133143571Y-117115666D01*
X132953095Y-117020428D01*
X132572142Y-117020428D01*
X132381666Y-117115666D01*
X132286428Y-117306142D01*
X132286428Y-117496619D01*
X133238809Y-117687095D01*
X130572142Y-118353761D02*
X130572142Y-116353761D01*
X130572142Y-118258523D02*
X130762619Y-118353761D01*
X131143571Y-118353761D01*
X131334047Y-118258523D01*
X131429285Y-118163285D01*
X131524523Y-117972809D01*
X131524523Y-117401380D01*
X131429285Y-117210904D01*
X131334047Y-117115666D01*
X131143571Y-117020428D01*
X130762619Y-117020428D01*
X130572142Y-117115666D01*
X128762619Y-118353761D02*
X128762619Y-117306142D01*
X128857857Y-117115666D01*
X129048333Y-117020428D01*
X129429285Y-117020428D01*
X129619761Y-117115666D01*
X128762619Y-118258523D02*
X128953095Y-118353761D01*
X129429285Y-118353761D01*
X129619761Y-118258523D01*
X129715000Y-118068047D01*
X129715000Y-117877571D01*
X129619761Y-117687095D01*
X129429285Y-117591857D01*
X128953095Y-117591857D01*
X128762619Y-117496619D01*
X127524523Y-118353761D02*
X127715000Y-118258523D01*
X127810238Y-118068047D01*
X127810238Y-116353761D01*
X126857857Y-118258523D02*
X126667380Y-118353761D01*
X126286428Y-118353761D01*
X126095952Y-118258523D01*
X126000714Y-118068047D01*
X126000714Y-117972809D01*
X126095952Y-117782333D01*
X126286428Y-117687095D01*
X126572142Y-117687095D01*
X126762619Y-117591857D01*
X126857857Y-117401380D01*
X126857857Y-117306142D01*
X126762619Y-117115666D01*
X126572142Y-117020428D01*
X126286428Y-117020428D01*
X126095952Y-117115666D01*
X125143571Y-118163285D02*
X125048333Y-118258523D01*
X125143571Y-118353761D01*
X125238809Y-118258523D01*
X125143571Y-118163285D01*
X125143571Y-118353761D01*
X123334047Y-118258523D02*
X123524523Y-118353761D01*
X123905476Y-118353761D01*
X124095952Y-118258523D01*
X124191190Y-118163285D01*
X124286428Y-117972809D01*
X124286428Y-117401380D01*
X124191190Y-117210904D01*
X124095952Y-117115666D01*
X123905476Y-117020428D01*
X123524523Y-117020428D01*
X123334047Y-117115666D01*
X122191190Y-118353761D02*
X122381666Y-118258523D01*
X122476904Y-118163285D01*
X122572142Y-117972809D01*
X122572142Y-117401380D01*
X122476904Y-117210904D01*
X122381666Y-117115666D01*
X122191190Y-117020428D01*
X121905476Y-117020428D01*
X121715000Y-117115666D01*
X121619761Y-117210904D01*
X121524523Y-117401380D01*
X121524523Y-117972809D01*
X121619761Y-118163285D01*
X121715000Y-118258523D01*
X121905476Y-118353761D01*
X122191190Y-118353761D01*
X120667380Y-118353761D02*
X120667380Y-117020428D01*
X120667380Y-117210904D02*
X120572142Y-117115666D01*
X120381666Y-117020428D01*
X120095952Y-117020428D01*
X119905476Y-117115666D01*
X119810238Y-117306142D01*
X119810238Y-118353761D01*
X119810238Y-117306142D02*
X119715000Y-117115666D01*
X119524523Y-117020428D01*
X119238809Y-117020428D01*
X119048333Y-117115666D01*
X118953095Y-117306142D01*
X118953095Y-118353761D01*
M02*
