%TF.GenerationSoftware,KiCad,Pcbnew,(5.1.7)-1*%
%TF.CreationDate,2020-11-08T15:14:14-06:00*%
%TF.ProjectId,ConsolePedalDistortion,436f6e73-6f6c-4655-9065-64616c446973,rev?*%
%TF.SameCoordinates,Original*%
%TF.FileFunction,Copper,L1,Top*%
%TF.FilePolarity,Positive*%
%FSLAX46Y46*%
G04 Gerber Fmt 4.6, Leading zero omitted, Abs format (unit mm)*
G04 Created by KiCad (PCBNEW (5.1.7)-1) date 2020-11-08 15:14:14*
%MOMM*%
%LPD*%
G01*
G04 APERTURE LIST*
%TA.AperFunction,ComponentPad*%
%ADD10C,5.000000*%
%TD*%
%TA.AperFunction,ComponentPad*%
%ADD11R,1.800000X1.800000*%
%TD*%
%TA.AperFunction,ComponentPad*%
%ADD12C,1.800000*%
%TD*%
%TA.AperFunction,ComponentPad*%
%ADD13O,1.700000X1.700000*%
%TD*%
%TA.AperFunction,ComponentPad*%
%ADD14R,1.700000X1.700000*%
%TD*%
%TA.AperFunction,SMDPad,CuDef*%
%ADD15R,0.600000X0.450000*%
%TD*%
%TA.AperFunction,ConnectorPad*%
%ADD16R,1.500000X7.000000*%
%TD*%
%TA.AperFunction,SMDPad,CuDef*%
%ADD17R,0.800000X0.900000*%
%TD*%
%TA.AperFunction,ViaPad*%
%ADD18C,0.800000*%
%TD*%
%TA.AperFunction,Conductor*%
%ADD19C,0.500000*%
%TD*%
%TA.AperFunction,Conductor*%
%ADD20C,0.250000*%
%TD*%
%TA.AperFunction,Conductor*%
%ADD21C,0.254000*%
%TD*%
%TA.AperFunction,Conductor*%
%ADD22C,0.100000*%
%TD*%
G04 APERTURE END LIST*
D10*
%TO.P,REF\u002A\u002A,1*%
%TO.N,GND*%
X85350000Y-122600000D03*
%TD*%
%TO.P,REF\u002A\u002A,1*%
%TO.N,GND*%
X180150000Y-122600000D03*
%TD*%
%TO.P,R3,1*%
%TO.N,GND*%
%TA.AperFunction,SMDPad,CuDef*%
G36*
G01*
X130700000Y-107860000D02*
X130700000Y-107310000D01*
G75*
G02*
X130900000Y-107110000I200000J0D01*
G01*
X131300000Y-107110000D01*
G75*
G02*
X131500000Y-107310000I0J-200000D01*
G01*
X131500000Y-107860000D01*
G75*
G02*
X131300000Y-108060000I-200000J0D01*
G01*
X130900000Y-108060000D01*
G75*
G02*
X130700000Y-107860000I0J200000D01*
G01*
G37*
%TD.AperFunction*%
%TO.P,R3,2*%
%TO.N,Net-(D1-Pad1)*%
%TA.AperFunction,SMDPad,CuDef*%
G36*
G01*
X132350000Y-107860000D02*
X132350000Y-107310000D01*
G75*
G02*
X132550000Y-107110000I200000J0D01*
G01*
X132950000Y-107110000D01*
G75*
G02*
X133150000Y-107310000I0J-200000D01*
G01*
X133150000Y-107860000D01*
G75*
G02*
X132950000Y-108060000I-200000J0D01*
G01*
X132550000Y-108060000D01*
G75*
G02*
X132350000Y-107860000I0J200000D01*
G01*
G37*
%TD.AperFunction*%
%TD*%
%TO.P,C1,1*%
%TO.N,Net-(C1-Pad1)*%
%TA.AperFunction,SMDPad,CuDef*%
G36*
G01*
X137888000Y-110121000D02*
X137888000Y-109621000D01*
G75*
G02*
X138113000Y-109396000I225000J0D01*
G01*
X138563000Y-109396000D01*
G75*
G02*
X138788000Y-109621000I0J-225000D01*
G01*
X138788000Y-110121000D01*
G75*
G02*
X138563000Y-110346000I-225000J0D01*
G01*
X138113000Y-110346000D01*
G75*
G02*
X137888000Y-110121000I0J225000D01*
G01*
G37*
%TD.AperFunction*%
%TO.P,C1,2*%
%TO.N,Net-(C1-Pad2)*%
%TA.AperFunction,SMDPad,CuDef*%
G36*
G01*
X139438000Y-110121000D02*
X139438000Y-109621000D01*
G75*
G02*
X139663000Y-109396000I225000J0D01*
G01*
X140113000Y-109396000D01*
G75*
G02*
X140338000Y-109621000I0J-225000D01*
G01*
X140338000Y-110121000D01*
G75*
G02*
X140113000Y-110346000I-225000J0D01*
G01*
X139663000Y-110346000D01*
G75*
G02*
X139438000Y-110121000I0J225000D01*
G01*
G37*
%TD.AperFunction*%
%TD*%
%TO.P,C2,2*%
%TO.N,Net-(C2-Pad2)*%
%TA.AperFunction,SMDPad,CuDef*%
G36*
G01*
X132453000Y-110121000D02*
X132453000Y-109621000D01*
G75*
G02*
X132678000Y-109396000I225000J0D01*
G01*
X133128000Y-109396000D01*
G75*
G02*
X133353000Y-109621000I0J-225000D01*
G01*
X133353000Y-110121000D01*
G75*
G02*
X133128000Y-110346000I-225000J0D01*
G01*
X132678000Y-110346000D01*
G75*
G02*
X132453000Y-110121000I0J225000D01*
G01*
G37*
%TD.AperFunction*%
%TO.P,C2,1*%
%TO.N,Net-(C2-Pad1)*%
%TA.AperFunction,SMDPad,CuDef*%
G36*
G01*
X130903000Y-110121000D02*
X130903000Y-109621000D01*
G75*
G02*
X131128000Y-109396000I225000J0D01*
G01*
X131578000Y-109396000D01*
G75*
G02*
X131803000Y-109621000I0J-225000D01*
G01*
X131803000Y-110121000D01*
G75*
G02*
X131578000Y-110346000I-225000J0D01*
G01*
X131128000Y-110346000D01*
G75*
G02*
X130903000Y-110121000I0J225000D01*
G01*
G37*
%TD.AperFunction*%
%TD*%
D11*
%TO.P,D1,1*%
%TO.N,Net-(D1-Pad1)*%
X115224000Y-101854000D03*
D12*
%TO.P,D1,2*%
%TO.N,/LEDPower*%
X115224000Y-104394000D03*
%TD*%
%TO.P,D2,2*%
%TO.N,/LEDPower*%
X150241000Y-104368600D03*
D11*
%TO.P,D2,1*%
%TO.N,Net-(D1-Pad1)*%
X150241000Y-101828600D03*
%TD*%
%TO.P,R1,1*%
%TO.N,Net-(C1-Pad1)*%
%TA.AperFunction,SMDPad,CuDef*%
G36*
G01*
X136896000Y-109596000D02*
X136896000Y-110146000D01*
G75*
G02*
X136696000Y-110346000I-200000J0D01*
G01*
X136296000Y-110346000D01*
G75*
G02*
X136096000Y-110146000I0J200000D01*
G01*
X136096000Y-109596000D01*
G75*
G02*
X136296000Y-109396000I200000J0D01*
G01*
X136696000Y-109396000D01*
G75*
G02*
X136896000Y-109596000I0J-200000D01*
G01*
G37*
%TD.AperFunction*%
%TO.P,R1,2*%
%TO.N,Net-(C2-Pad2)*%
%TA.AperFunction,SMDPad,CuDef*%
G36*
G01*
X135246000Y-109596000D02*
X135246000Y-110146000D01*
G75*
G02*
X135046000Y-110346000I-200000J0D01*
G01*
X134646000Y-110346000D01*
G75*
G02*
X134446000Y-110146000I0J200000D01*
G01*
X134446000Y-109596000D01*
G75*
G02*
X134646000Y-109396000I200000J0D01*
G01*
X135046000Y-109396000D01*
G75*
G02*
X135246000Y-109596000I0J-200000D01*
G01*
G37*
%TD.AperFunction*%
%TD*%
%TO.P,R2,2*%
%TO.N,Net-(C2-Pad2)*%
%TA.AperFunction,SMDPad,CuDef*%
G36*
G01*
X135246000Y-111501000D02*
X135246000Y-112051000D01*
G75*
G02*
X135046000Y-112251000I-200000J0D01*
G01*
X134646000Y-112251000D01*
G75*
G02*
X134446000Y-112051000I0J200000D01*
G01*
X134446000Y-111501000D01*
G75*
G02*
X134646000Y-111301000I200000J0D01*
G01*
X135046000Y-111301000D01*
G75*
G02*
X135246000Y-111501000I0J-200000D01*
G01*
G37*
%TD.AperFunction*%
%TO.P,R2,1*%
%TO.N,+9V*%
%TA.AperFunction,SMDPad,CuDef*%
G36*
G01*
X136896000Y-111501000D02*
X136896000Y-112051000D01*
G75*
G02*
X136696000Y-112251000I-200000J0D01*
G01*
X136296000Y-112251000D01*
G75*
G02*
X136096000Y-112051000I0J200000D01*
G01*
X136096000Y-111501000D01*
G75*
G02*
X136296000Y-111301000I200000J0D01*
G01*
X136696000Y-111301000D01*
G75*
G02*
X136896000Y-111501000I0J-200000D01*
G01*
G37*
%TD.AperFunction*%
%TD*%
D13*
%TO.P,Distortion,3*%
%TO.N,/Input*%
X147701000Y-96494600D03*
%TO.P,Distortion,2*%
X150241000Y-96494600D03*
D14*
%TO.P,Distortion,1*%
%TO.N,Net-(C1-Pad2)*%
X152781000Y-96494600D03*
%TD*%
%TO.P,Volume,1*%
%TO.N,Net-(C2-Pad1)*%
X117637000Y-96520000D03*
D13*
%TO.P,Volume,2*%
%TO.N,/Output*%
X115097000Y-96520000D03*
%TO.P,Volume,3*%
%TO.N,GND*%
X112557000Y-96520000D03*
%TD*%
D15*
%TO.P,D3,1*%
%TO.N,Net-(C2-Pad1)*%
X129355000Y-107585000D03*
%TO.P,D3,2*%
%TO.N,GND*%
X127255000Y-107585000D03*
%TD*%
%TO.P,D4,2*%
%TO.N,Net-(C2-Pad1)*%
X129389001Y-109875001D03*
%TO.P,D4,1*%
%TO.N,GND*%
X127289001Y-109875001D03*
%TD*%
D16*
%TO.P,J1,1*%
%TO.N,GND*%
X102750000Y-126000000D03*
%TO.P,J1,2*%
X105250000Y-126000000D03*
%TO.P,J1,3*%
%TO.N,/Input*%
X107750000Y-126000000D03*
%TO.P,J1,4*%
%TO.N,/Output*%
X110250000Y-126000000D03*
%TO.P,J1,5*%
%TO.N,+9V*%
X112750000Y-126000000D03*
%TO.P,J1,6*%
%TO.N,/LEDPower*%
X115250000Y-126000000D03*
%TO.P,J1,7*%
%TO.N,N/C*%
X117750000Y-126000000D03*
%TO.P,J1,8*%
X120250000Y-126000000D03*
%TO.P,J1,9*%
X122750000Y-126000000D03*
%TO.P,J1,10*%
X125250000Y-126000000D03*
%TO.P,J1,11*%
X127750000Y-126000000D03*
%TO.P,J1,12*%
X130250000Y-126000000D03*
%TO.P,J1,13*%
X132750000Y-126000000D03*
%TO.P,J1,14*%
X135250000Y-126000000D03*
%TO.P,J1,15*%
X137750000Y-126000000D03*
%TO.P,J1,16*%
X140250000Y-126000000D03*
%TO.P,J1,17*%
X142750000Y-126000000D03*
%TO.P,J1,18*%
X145250000Y-126000000D03*
%TO.P,J1,19*%
X147750000Y-126000000D03*
%TO.P,J1,20*%
%TO.N,/LEDPower*%
X150250000Y-126000000D03*
%TO.P,J1,21*%
%TO.N,+9V*%
X152750000Y-126000000D03*
%TO.P,J1,22*%
%TO.N,/Output*%
X155250000Y-126000000D03*
%TO.P,J1,23*%
%TO.N,/Input*%
X157750000Y-126000000D03*
%TO.P,J1,24*%
%TO.N,GND*%
X160250000Y-126000000D03*
%TO.P,J1,25*%
X162750000Y-126000000D03*
%TD*%
D17*
%TO.P,Q1,1*%
%TO.N,GND*%
X130530000Y-114300000D03*
%TO.P,Q1,2*%
%TO.N,Net-(C1-Pad1)*%
X132430000Y-114300000D03*
%TO.P,Q1,3*%
%TO.N,Net-(C2-Pad2)*%
X131480000Y-112300000D03*
%TD*%
D18*
%TO.N,GND*%
X105250000Y-120979000D03*
X160250000Y-120988000D03*
X125257000Y-107585000D03*
X102750000Y-121038000D03*
X162750000Y-120967000D03*
%TO.N,Net-(C2-Pad1)*%
X129355000Y-105714000D03*
%TO.N,/LEDPower*%
X115250000Y-121454000D03*
X150250000Y-121073000D03*
X146847000Y-117110000D03*
%TO.N,/Input*%
X107750000Y-121066000D03*
X157750000Y-121066000D03*
%TO.N,/Output*%
X110250000Y-121195000D03*
X155250000Y-121068000D03*
%TO.N,+9V*%
X112750000Y-121235000D03*
X152750000Y-121108000D03*
%TD*%
D19*
%TO.N,GND*%
X105250000Y-126000000D02*
X105250000Y-120979000D01*
X105250000Y-120979000D02*
X105250000Y-120979000D01*
X160250000Y-126000000D02*
X160250000Y-120988000D01*
X160250000Y-120988000D02*
X160250000Y-120988000D01*
X127255000Y-109841000D02*
X127289001Y-109875001D01*
X127255000Y-107585000D02*
X127255000Y-109841000D01*
X130530000Y-113116000D02*
X127289001Y-109875001D01*
X130530000Y-114300000D02*
X130530000Y-113116000D01*
X127255000Y-106555998D02*
X127255000Y-107585000D01*
X128946999Y-104863999D02*
X127255000Y-106555998D01*
X129763001Y-104863999D02*
X128946999Y-104863999D01*
X131100000Y-106200998D02*
X129763001Y-104863999D01*
X131100000Y-107585000D02*
X131100000Y-106200998D01*
X127255000Y-107585000D02*
X125257000Y-107585000D01*
X125257000Y-107585000D02*
X125257000Y-107585000D01*
X102750000Y-126000000D02*
X102750000Y-121038000D01*
X102750000Y-121038000D02*
X102750000Y-121038000D01*
X162750000Y-126000000D02*
X162750000Y-120967000D01*
X162750000Y-120967000D02*
X162750000Y-120967000D01*
%TO.N,Net-(C1-Pad1)*%
X138338000Y-109871000D02*
X136496000Y-109871000D01*
D20*
X135770990Y-110596010D02*
X136496000Y-109871000D01*
X135770990Y-112068488D02*
X135770990Y-110596010D01*
X133539478Y-114300000D02*
X135770990Y-112068488D01*
X132430000Y-114300000D02*
X133539478Y-114300000D01*
D19*
%TO.N,Net-(C1-Pad2)*%
X146736602Y-109871000D02*
X139888000Y-109871000D01*
X152781000Y-103826602D02*
X146736602Y-109871000D01*
X152781000Y-96494600D02*
X152781000Y-103826602D01*
%TO.N,Net-(C2-Pad2)*%
X134846000Y-109871000D02*
X132903000Y-109871000D01*
X132903000Y-110877000D02*
X131480000Y-112300000D01*
X132903000Y-109871000D02*
X132903000Y-110877000D01*
X134846000Y-111776000D02*
X134846000Y-109871000D01*
%TO.N,Net-(C2-Pad1)*%
X131348999Y-109875001D02*
X131353000Y-109871000D01*
X129389001Y-109875001D02*
X131348999Y-109875001D01*
X129389001Y-107619001D02*
X129355000Y-107585000D01*
X129389001Y-109875001D02*
X129389001Y-107619001D01*
X129355000Y-107585000D02*
X129355000Y-105714000D01*
X129355000Y-105714000D02*
X129355000Y-105714000D01*
%TO.N,/LEDPower*%
X115250000Y-126000000D02*
X115250000Y-121454000D01*
X115250000Y-121454000D02*
X115250000Y-121454000D01*
X150250000Y-126000000D02*
X150250000Y-121073000D01*
X150250000Y-121073000D02*
X150250000Y-121073000D01*
X150250000Y-121073000D02*
X146847000Y-117670000D01*
X146847000Y-117670000D02*
X146847000Y-117110000D01*
X146847000Y-117110000D02*
X146847000Y-117110000D01*
X115250000Y-104420000D02*
X115224000Y-104394000D01*
X115250000Y-121454000D02*
X115250000Y-104420000D01*
%TO.N,/Input*%
X107750000Y-126000000D02*
X107750000Y-121066000D01*
X107750000Y-121066000D02*
X107750000Y-121066000D01*
X157750000Y-126000000D02*
X157750000Y-121066000D01*
X157750000Y-121066000D02*
X157750000Y-121066000D01*
X151541001Y-95194599D02*
X150241000Y-96494600D01*
X153991001Y-95194599D02*
X151541001Y-95194599D01*
X157750000Y-98953598D02*
X153991001Y-95194599D01*
X157750000Y-121066000D02*
X157750000Y-98953598D01*
X150241000Y-96494600D02*
X147701000Y-96494600D01*
%TO.N,/Output*%
X110250000Y-126000000D02*
X110250000Y-121195000D01*
X110250000Y-121195000D02*
X110250000Y-121195000D01*
X155250000Y-126000000D02*
X155250000Y-121068000D01*
X155250000Y-121068000D02*
X155250000Y-121068000D01*
X110250000Y-101367000D02*
X115097000Y-96520000D01*
X110250000Y-121195000D02*
X110250000Y-101367000D01*
%TO.N,+9V*%
X112750000Y-126000000D02*
X112750000Y-121235000D01*
X112750000Y-121235000D02*
X112750000Y-121235000D01*
X152750000Y-126000000D02*
X152750000Y-121108000D01*
X152750000Y-121108000D02*
X152750000Y-121108000D01*
X147736000Y-116094000D02*
X152750000Y-121108000D01*
X136496000Y-112251000D02*
X136496000Y-111776000D01*
X140339000Y-116094000D02*
X136496000Y-112251000D01*
X147736000Y-116094000D02*
X140339000Y-116094000D01*
%TO.N,Net-(D1-Pad1)*%
X127742964Y-101854000D02*
X115224000Y-101854000D01*
X132750000Y-106861036D02*
X127742964Y-101854000D01*
X132750000Y-107585000D02*
X132750000Y-106861036D01*
X144484600Y-107585000D02*
X150241000Y-101828600D01*
X132750000Y-107585000D02*
X144484600Y-107585000D01*
%TD*%
D21*
%TO.N,GND*%
X86487000Y-119380000D02*
X86489440Y-119404776D01*
X86496667Y-119428601D01*
X86508403Y-119450557D01*
X86524197Y-119469803D01*
X86543443Y-119485597D01*
X86565399Y-119497333D01*
X86589224Y-119504560D01*
X86614000Y-119507000D01*
X88312375Y-119507000D01*
X88315000Y-119533647D01*
X88315001Y-125315000D01*
X83185000Y-125315000D01*
X83185000Y-98185000D01*
X83466353Y-98185000D01*
X83500000Y-98188314D01*
X83533647Y-98185000D01*
X83634283Y-98175088D01*
X83763406Y-98135919D01*
X83882407Y-98072312D01*
X83986711Y-97986711D01*
X84043922Y-97917000D01*
X86487000Y-97917000D01*
X86487000Y-119380000D01*
%TA.AperFunction,Conductor*%
D22*
G36*
X86487000Y-119380000D02*
G01*
X86489440Y-119404776D01*
X86496667Y-119428601D01*
X86508403Y-119450557D01*
X86524197Y-119469803D01*
X86543443Y-119485597D01*
X86565399Y-119497333D01*
X86589224Y-119504560D01*
X86614000Y-119507000D01*
X88312375Y-119507000D01*
X88315000Y-119533647D01*
X88315001Y-125315000D01*
X83185000Y-125315000D01*
X83185000Y-98185000D01*
X83466353Y-98185000D01*
X83500000Y-98188314D01*
X83533647Y-98185000D01*
X83634283Y-98175088D01*
X83763406Y-98135919D01*
X83882407Y-98072312D01*
X83986711Y-97986711D01*
X84043922Y-97917000D01*
X86487000Y-97917000D01*
X86487000Y-119380000D01*
G37*
%TD.AperFunction*%
%TD*%
D21*
%TO.N,GND*%
X181513289Y-99486711D02*
X181617593Y-99572312D01*
X181736594Y-99635919D01*
X181815001Y-99659703D01*
X181815000Y-125315000D01*
X177185000Y-125315000D01*
X177185000Y-119761000D01*
X179578000Y-119761000D01*
X179602776Y-119758560D01*
X179626601Y-119751333D01*
X179648557Y-119739597D01*
X179667803Y-119723803D01*
X179683597Y-119704557D01*
X179695333Y-119682601D01*
X179702560Y-119658776D01*
X179705000Y-119634000D01*
X179705000Y-99441000D01*
X181475775Y-99441000D01*
X181513289Y-99486711D01*
%TA.AperFunction,Conductor*%
D22*
G36*
X181513289Y-99486711D02*
G01*
X181617593Y-99572312D01*
X181736594Y-99635919D01*
X181815001Y-99659703D01*
X181815000Y-125315000D01*
X177185000Y-125315000D01*
X177185000Y-119761000D01*
X179578000Y-119761000D01*
X179602776Y-119758560D01*
X179626601Y-119751333D01*
X179648557Y-119739597D01*
X179667803Y-119723803D01*
X179683597Y-119704557D01*
X179695333Y-119682601D01*
X179702560Y-119658776D01*
X179705000Y-119634000D01*
X179705000Y-99441000D01*
X181475775Y-99441000D01*
X181513289Y-99486711D01*
G37*
%TD.AperFunction*%
%TD*%
M02*
