%TF.GenerationSoftware,KiCad,Pcbnew,(5.1.7)-1*%
%TF.CreationDate,2020-11-08T15:14:14-06:00*%
%TF.ProjectId,ConsolePedalDistortion,436f6e73-6f6c-4655-9065-64616c446973,rev?*%
%TF.SameCoordinates,Original*%
%TF.FileFunction,Copper,L2,Bot*%
%TF.FilePolarity,Positive*%
%FSLAX46Y46*%
G04 Gerber Fmt 4.6, Leading zero omitted, Abs format (unit mm)*
G04 Created by KiCad (PCBNEW (5.1.7)-1) date 2020-11-08 15:14:14*
%MOMM*%
%LPD*%
G01*
G04 APERTURE LIST*
%TA.AperFunction,ComponentPad*%
%ADD10C,5.000000*%
%TD*%
%TA.AperFunction,ComponentPad*%
%ADD11R,1.800000X1.800000*%
%TD*%
%TA.AperFunction,ComponentPad*%
%ADD12C,1.800000*%
%TD*%
%TA.AperFunction,ComponentPad*%
%ADD13O,1.700000X1.700000*%
%TD*%
%TA.AperFunction,ComponentPad*%
%ADD14R,1.700000X1.700000*%
%TD*%
%TA.AperFunction,ConnectorPad*%
%ADD15R,1.500000X7.000000*%
%TD*%
%TA.AperFunction,ViaPad*%
%ADD16C,0.800000*%
%TD*%
%TA.AperFunction,Conductor*%
%ADD17C,0.500000*%
%TD*%
%TA.AperFunction,Conductor*%
%ADD18C,0.254000*%
%TD*%
%TA.AperFunction,Conductor*%
%ADD19C,0.100000*%
%TD*%
G04 APERTURE END LIST*
D10*
%TO.P,REF\u002A\u002A,1*%
%TO.N,GND*%
X85350000Y-122600000D03*
%TD*%
%TO.P,REF\u002A\u002A,1*%
%TO.N,GND*%
X180150000Y-122600000D03*
%TD*%
D11*
%TO.P,D1,1*%
%TO.N,Net-(D1-Pad1)*%
X115224000Y-101854000D03*
D12*
%TO.P,D1,2*%
%TO.N,/LEDPower*%
X115224000Y-104394000D03*
%TD*%
%TO.P,D2,2*%
%TO.N,/LEDPower*%
X150241000Y-104368600D03*
D11*
%TO.P,D2,1*%
%TO.N,Net-(D1-Pad1)*%
X150241000Y-101828600D03*
%TD*%
D13*
%TO.P,Distortion,3*%
%TO.N,/Input*%
X147701000Y-96494600D03*
%TO.P,Distortion,2*%
X150241000Y-96494600D03*
D14*
%TO.P,Distortion,1*%
%TO.N,Net-(C1-Pad2)*%
X152781000Y-96494600D03*
%TD*%
%TO.P,Volume,1*%
%TO.N,Net-(C2-Pad1)*%
X117637000Y-96520000D03*
D13*
%TO.P,Volume,2*%
%TO.N,/Output*%
X115097000Y-96520000D03*
%TO.P,Volume,3*%
%TO.N,GND*%
X112557000Y-96520000D03*
%TD*%
D15*
%TO.P,J1,26*%
%TO.N,GND*%
X102750000Y-126000000D03*
%TO.P,J1,27*%
X105250000Y-126000000D03*
%TO.P,J1,28*%
%TO.N,/Input*%
X107750000Y-126000000D03*
%TO.P,J1,29*%
%TO.N,/Output*%
X110250000Y-126000000D03*
%TO.P,J1,30*%
%TO.N,+9V*%
X112750000Y-126000000D03*
%TO.P,J1,31*%
%TO.N,/LEDPower*%
X115250000Y-126000000D03*
%TO.P,J1,32*%
%TO.N,N/C*%
X117750000Y-126000000D03*
%TO.P,J1,33*%
X120250000Y-126000000D03*
%TO.P,J1,34*%
X122750000Y-126000000D03*
%TO.P,J1,35*%
X125250000Y-126000000D03*
%TO.P,J1,36*%
X127750000Y-126000000D03*
%TO.P,J1,37*%
X130250000Y-126000000D03*
%TO.P,J1,38*%
X132750000Y-126000000D03*
%TO.P,J1,39*%
X135250000Y-126000000D03*
%TO.P,J1,40*%
X137750000Y-126000000D03*
%TO.P,J1,41*%
X140250000Y-126000000D03*
%TO.P,J1,42*%
X142750000Y-126000000D03*
%TO.P,J1,43*%
X145250000Y-126000000D03*
%TO.P,J1,44*%
X147750000Y-126000000D03*
%TO.P,J1,45*%
%TO.N,/LEDPower*%
X150250000Y-126000000D03*
%TO.P,J1,46*%
%TO.N,+9V*%
X152750000Y-126000000D03*
%TO.P,J1,47*%
%TO.N,/Output*%
X155250000Y-126000000D03*
%TO.P,J1,48*%
%TO.N,/Input*%
X157750000Y-126000000D03*
%TO.P,J1,49*%
%TO.N,GND*%
X160250000Y-126000000D03*
%TO.P,J1,50*%
X162750000Y-126000000D03*
%TD*%
D16*
%TO.N,GND*%
X105250000Y-120979000D03*
X160250000Y-120988000D03*
X125257000Y-107585000D03*
X102750000Y-121038000D03*
X162750000Y-120967000D03*
%TO.N,Net-(C2-Pad1)*%
X129355000Y-105714000D03*
%TO.N,/LEDPower*%
X115250000Y-121454000D03*
X150250000Y-121073000D03*
X146847000Y-117110000D03*
%TO.N,/Input*%
X107750000Y-121066000D03*
X157750000Y-121066000D03*
%TO.N,/Output*%
X110250000Y-121195000D03*
X155250000Y-121068000D03*
%TO.N,+9V*%
X112750000Y-121235000D03*
X152750000Y-121108000D03*
%TD*%
D17*
%TO.N,GND*%
X105250000Y-126000000D02*
X105250000Y-120979000D01*
X160250000Y-126000000D02*
X160250000Y-120988000D01*
X157384969Y-118122969D02*
X160250000Y-120988000D01*
X108106031Y-118122969D02*
X157384969Y-118122969D01*
X105250000Y-120979000D02*
X108106031Y-118122969D01*
X102750000Y-126000000D02*
X102750000Y-121038000D01*
X162750000Y-120967000D02*
X162750000Y-126000000D01*
X162729000Y-120988000D02*
X162750000Y-120967000D01*
X160250000Y-120988000D02*
X162729000Y-120988000D01*
X105191000Y-121038000D02*
X105250000Y-120979000D01*
X102750000Y-121038000D02*
X105191000Y-121038000D01*
%TO.N,Net-(C2-Pad1)*%
X126831000Y-105714000D02*
X117637000Y-96520000D01*
X129355000Y-105714000D02*
X126831000Y-105714000D01*
%TO.N,/LEDPower*%
X115250000Y-126000000D02*
X115250000Y-121454000D01*
X150250000Y-121073000D02*
X150250000Y-126000000D01*
X149869000Y-121454000D02*
X150250000Y-121073000D01*
X115250000Y-121454000D02*
X149869000Y-121454000D01*
X146847000Y-107762600D02*
X150241000Y-104368600D01*
X146847000Y-117110000D02*
X146847000Y-107762600D01*
%TO.N,/Input*%
X107750000Y-121066000D02*
X107750000Y-126000000D01*
X157750000Y-121066000D02*
X157750000Y-126000000D01*
X155506979Y-118822979D02*
X157750000Y-121066000D01*
X109993021Y-118822979D02*
X155506979Y-118822979D01*
X107750000Y-121066000D02*
X109993021Y-118822979D01*
%TO.N,/Output*%
X110250000Y-121195000D02*
X110250000Y-126000000D01*
X155250000Y-121068000D02*
X155250000Y-126000000D01*
X153704989Y-119522989D02*
X155250000Y-121068000D01*
X111922011Y-119522989D02*
X153704989Y-119522989D01*
X110250000Y-121195000D02*
X111922011Y-119522989D01*
%TO.N,+9V*%
X112750000Y-121235000D02*
X112750000Y-126000000D01*
X152750000Y-121108000D02*
X152750000Y-126000000D01*
X151864999Y-120222999D02*
X152750000Y-121108000D01*
X113762001Y-120222999D02*
X151864999Y-120222999D01*
X112750000Y-121235000D02*
X113762001Y-120222999D01*
%TD*%
D18*
%TO.N,GND*%
X181323001Y-98966738D02*
X181319725Y-99000000D01*
X181332796Y-99132715D01*
X181371508Y-99260330D01*
X181434372Y-99377941D01*
X181518973Y-99481027D01*
X181622059Y-99565628D01*
X181739670Y-99628492D01*
X181823001Y-99653770D01*
X181823000Y-125323000D01*
X177177000Y-125323000D01*
X177177000Y-119533252D01*
X177180275Y-119500000D01*
X177167204Y-119367285D01*
X177128492Y-119239670D01*
X177065628Y-119122059D01*
X176981027Y-119018973D01*
X176877941Y-118934372D01*
X176760330Y-118871508D01*
X176632715Y-118832796D01*
X176533252Y-118823000D01*
X176500000Y-118819725D01*
X176466748Y-118823000D01*
X165033252Y-118823000D01*
X165000000Y-118819725D01*
X164966748Y-118823000D01*
X164867285Y-118832796D01*
X164739670Y-118871508D01*
X164622059Y-118934372D01*
X164518973Y-119018973D01*
X164434372Y-119122059D01*
X164371508Y-119239670D01*
X164332796Y-119367285D01*
X164319725Y-119500000D01*
X164323001Y-119533262D01*
X164323001Y-121793000D01*
X158627000Y-121793000D01*
X158627000Y-121602027D01*
X158660115Y-121552467D01*
X158737533Y-121365565D01*
X158777000Y-121167151D01*
X158777000Y-120964849D01*
X158737533Y-120766435D01*
X158660115Y-120579533D01*
X158547723Y-120411326D01*
X158404674Y-120268277D01*
X158236467Y-120155885D01*
X158049565Y-120078467D01*
X157991103Y-120066838D01*
X156157576Y-118233311D01*
X156130112Y-118199846D01*
X155996571Y-118090252D01*
X155844216Y-118008817D01*
X155678901Y-117958669D01*
X155550058Y-117945979D01*
X155506979Y-117941736D01*
X155463900Y-117945979D01*
X147444420Y-117945979D01*
X147501674Y-117907723D01*
X147644723Y-117764674D01*
X147757115Y-117596467D01*
X147834533Y-117409565D01*
X147874000Y-117211151D01*
X147874000Y-117008849D01*
X147834533Y-116810435D01*
X147757115Y-116623533D01*
X147724000Y-116573973D01*
X147724000Y-108125865D01*
X149976885Y-105872980D01*
X150090604Y-105895600D01*
X150391396Y-105895600D01*
X150686410Y-105836919D01*
X150964306Y-105721810D01*
X151214406Y-105554699D01*
X151427099Y-105342006D01*
X151594210Y-105091906D01*
X151709319Y-104814010D01*
X151768000Y-104518996D01*
X151768000Y-104218204D01*
X151709319Y-103923190D01*
X151594210Y-103645294D01*
X151427099Y-103395194D01*
X151351779Y-103319874D01*
X151382103Y-103310675D01*
X151491028Y-103252453D01*
X151586501Y-103174101D01*
X151664853Y-103078628D01*
X151723075Y-102969703D01*
X151758927Y-102851513D01*
X151771033Y-102728600D01*
X151771033Y-100928600D01*
X151758927Y-100805687D01*
X151723075Y-100687497D01*
X151664853Y-100578572D01*
X151586501Y-100483099D01*
X151491028Y-100404747D01*
X151382103Y-100346525D01*
X151263913Y-100310673D01*
X151141000Y-100298567D01*
X149341000Y-100298567D01*
X149218087Y-100310673D01*
X149099897Y-100346525D01*
X148990972Y-100404747D01*
X148895499Y-100483099D01*
X148817147Y-100578572D01*
X148758925Y-100687497D01*
X148723073Y-100805687D01*
X148710967Y-100928600D01*
X148710967Y-102728600D01*
X148723073Y-102851513D01*
X148758925Y-102969703D01*
X148817147Y-103078628D01*
X148895499Y-103174101D01*
X148990972Y-103252453D01*
X149099897Y-103310675D01*
X149130221Y-103319874D01*
X149054901Y-103395194D01*
X148887790Y-103645294D01*
X148772681Y-103923190D01*
X148714000Y-104218204D01*
X148714000Y-104518996D01*
X148736620Y-104632715D01*
X146257327Y-107112008D01*
X146223868Y-107139467D01*
X146196409Y-107172926D01*
X146196406Y-107172929D01*
X146114274Y-107273008D01*
X146032838Y-107425364D01*
X145982690Y-107590678D01*
X145965757Y-107762600D01*
X145970001Y-107805690D01*
X145970000Y-116573973D01*
X145936885Y-116623533D01*
X145859467Y-116810435D01*
X145820000Y-117008849D01*
X145820000Y-117211151D01*
X145859467Y-117409565D01*
X145936885Y-117596467D01*
X146049277Y-117764674D01*
X146192326Y-117907723D01*
X146249580Y-117945979D01*
X110036100Y-117945979D01*
X109993021Y-117941736D01*
X109821098Y-117958669D01*
X109713717Y-117991243D01*
X109655784Y-118008817D01*
X109503429Y-118090252D01*
X109369888Y-118199846D01*
X109342424Y-118233311D01*
X107508897Y-120066838D01*
X107450435Y-120078467D01*
X107263533Y-120155885D01*
X107095326Y-120268277D01*
X106952277Y-120411326D01*
X106839885Y-120579533D01*
X106762467Y-120766435D01*
X106723000Y-120964849D01*
X106723000Y-121167151D01*
X106762467Y-121365565D01*
X106839885Y-121552467D01*
X106873000Y-121602027D01*
X106873000Y-121793000D01*
X101177000Y-121793000D01*
X101177000Y-119533252D01*
X101180275Y-119500000D01*
X101167204Y-119367285D01*
X101128492Y-119239670D01*
X101065628Y-119122059D01*
X100981027Y-119018973D01*
X100877941Y-118934372D01*
X100760330Y-118871508D01*
X100632715Y-118832796D01*
X100533252Y-118823000D01*
X100500000Y-118819725D01*
X100466748Y-118823000D01*
X89033252Y-118823000D01*
X89000000Y-118819725D01*
X88966748Y-118823000D01*
X88867285Y-118832796D01*
X88739670Y-118871508D01*
X88622059Y-118934372D01*
X88518973Y-119018973D01*
X88434372Y-119122059D01*
X88371508Y-119239670D01*
X88332796Y-119367285D01*
X88319725Y-119500000D01*
X88323000Y-119533252D01*
X88323001Y-125323000D01*
X83177000Y-125323000D01*
X83177000Y-100954000D01*
X113693967Y-100954000D01*
X113693967Y-102754000D01*
X113706073Y-102876913D01*
X113741925Y-102995103D01*
X113800147Y-103104028D01*
X113878499Y-103199501D01*
X113973972Y-103277853D01*
X114082897Y-103336075D01*
X114113221Y-103345274D01*
X114037901Y-103420594D01*
X113870790Y-103670694D01*
X113755681Y-103948590D01*
X113697000Y-104243604D01*
X113697000Y-104544396D01*
X113755681Y-104839410D01*
X113870790Y-105117306D01*
X114037901Y-105367406D01*
X114250594Y-105580099D01*
X114500694Y-105747210D01*
X114778590Y-105862319D01*
X115073604Y-105921000D01*
X115374396Y-105921000D01*
X115669410Y-105862319D01*
X115947306Y-105747210D01*
X116197406Y-105580099D01*
X116410099Y-105367406D01*
X116577210Y-105117306D01*
X116692319Y-104839410D01*
X116751000Y-104544396D01*
X116751000Y-104243604D01*
X116692319Y-103948590D01*
X116577210Y-103670694D01*
X116410099Y-103420594D01*
X116334779Y-103345274D01*
X116365103Y-103336075D01*
X116474028Y-103277853D01*
X116569501Y-103199501D01*
X116647853Y-103104028D01*
X116706075Y-102995103D01*
X116741927Y-102876913D01*
X116754033Y-102754000D01*
X116754033Y-100954000D01*
X116741927Y-100831087D01*
X116706075Y-100712897D01*
X116647853Y-100603972D01*
X116569501Y-100508499D01*
X116474028Y-100430147D01*
X116365103Y-100371925D01*
X116246913Y-100336073D01*
X116124000Y-100323967D01*
X114324000Y-100323967D01*
X114201087Y-100336073D01*
X114082897Y-100371925D01*
X113973972Y-100430147D01*
X113878499Y-100508499D01*
X113800147Y-100603972D01*
X113741925Y-100712897D01*
X113706073Y-100831087D01*
X113693967Y-100954000D01*
X83177000Y-100954000D01*
X83177000Y-98177000D01*
X83466748Y-98177000D01*
X83500000Y-98180275D01*
X83533252Y-98177000D01*
X83632715Y-98167204D01*
X83760330Y-98128492D01*
X83877941Y-98065628D01*
X83981027Y-97981027D01*
X84065628Y-97877941D01*
X84128492Y-97760330D01*
X84167204Y-97632715D01*
X84180275Y-97500000D01*
X84177000Y-97466748D01*
X84177000Y-96876891D01*
X111115519Y-96876891D01*
X111212843Y-97151252D01*
X111361822Y-97401355D01*
X111556731Y-97617588D01*
X111790080Y-97791641D01*
X112052901Y-97916825D01*
X112200110Y-97961476D01*
X112430000Y-97840155D01*
X112430000Y-96647000D01*
X111236186Y-96647000D01*
X111115519Y-96876891D01*
X84177000Y-96876891D01*
X84177000Y-96163109D01*
X111115519Y-96163109D01*
X111236186Y-96393000D01*
X112430000Y-96393000D01*
X112430000Y-95199845D01*
X112684000Y-95199845D01*
X112684000Y-96393000D01*
X112704000Y-96393000D01*
X112704000Y-96647000D01*
X112684000Y-96647000D01*
X112684000Y-97840155D01*
X112913890Y-97961476D01*
X113061099Y-97916825D01*
X113323920Y-97791641D01*
X113557269Y-97617588D01*
X113752178Y-97401355D01*
X113826340Y-97276853D01*
X113949739Y-97461533D01*
X114155467Y-97667261D01*
X114397378Y-97828901D01*
X114666175Y-97940240D01*
X114951528Y-97997000D01*
X115242472Y-97997000D01*
X115527825Y-97940240D01*
X115796622Y-97828901D01*
X116038533Y-97667261D01*
X116179269Y-97526525D01*
X116204925Y-97611103D01*
X116263147Y-97720028D01*
X116341499Y-97815501D01*
X116436972Y-97893853D01*
X116545897Y-97952075D01*
X116664087Y-97987927D01*
X116787000Y-98000033D01*
X117876768Y-98000033D01*
X126180403Y-106303668D01*
X126207867Y-106337133D01*
X126341408Y-106446727D01*
X126493763Y-106528162D01*
X126659078Y-106578310D01*
X126787921Y-106591000D01*
X126787930Y-106591000D01*
X126830999Y-106595242D01*
X126874069Y-106591000D01*
X128818973Y-106591000D01*
X128868533Y-106624115D01*
X129055435Y-106701533D01*
X129253849Y-106741000D01*
X129456151Y-106741000D01*
X129654565Y-106701533D01*
X129841467Y-106624115D01*
X130009674Y-106511723D01*
X130152723Y-106368674D01*
X130265115Y-106200467D01*
X130342533Y-106013565D01*
X130382000Y-105815151D01*
X130382000Y-105612849D01*
X130342533Y-105414435D01*
X130265115Y-105227533D01*
X130152723Y-105059326D01*
X130009674Y-104916277D01*
X129841467Y-104803885D01*
X129654565Y-104726467D01*
X129456151Y-104687000D01*
X129253849Y-104687000D01*
X129055435Y-104726467D01*
X128868533Y-104803885D01*
X128818973Y-104837000D01*
X127194265Y-104837000D01*
X119117033Y-96759768D01*
X119117033Y-96349128D01*
X146224000Y-96349128D01*
X146224000Y-96640072D01*
X146280760Y-96925425D01*
X146392099Y-97194222D01*
X146553739Y-97436133D01*
X146759467Y-97641861D01*
X147001378Y-97803501D01*
X147270175Y-97914840D01*
X147555528Y-97971600D01*
X147846472Y-97971600D01*
X148131825Y-97914840D01*
X148400622Y-97803501D01*
X148642533Y-97641861D01*
X148848261Y-97436133D01*
X148971000Y-97252441D01*
X149093739Y-97436133D01*
X149299467Y-97641861D01*
X149541378Y-97803501D01*
X149810175Y-97914840D01*
X150095528Y-97971600D01*
X150386472Y-97971600D01*
X150671825Y-97914840D01*
X150940622Y-97803501D01*
X151182533Y-97641861D01*
X151323269Y-97501125D01*
X151348925Y-97585703D01*
X151407147Y-97694628D01*
X151485499Y-97790101D01*
X151580972Y-97868453D01*
X151689897Y-97926675D01*
X151808087Y-97962527D01*
X151931000Y-97974633D01*
X153631000Y-97974633D01*
X153753913Y-97962527D01*
X153872103Y-97926675D01*
X153981028Y-97868453D01*
X154076501Y-97790101D01*
X154154853Y-97694628D01*
X154213075Y-97585703D01*
X154248927Y-97467513D01*
X154261033Y-97344600D01*
X154261033Y-95644600D01*
X154248927Y-95521687D01*
X154213075Y-95403497D01*
X154154853Y-95294572D01*
X154076501Y-95199099D01*
X153981028Y-95120747D01*
X153872103Y-95062525D01*
X153753913Y-95026673D01*
X153631000Y-95014567D01*
X151931000Y-95014567D01*
X151808087Y-95026673D01*
X151689897Y-95062525D01*
X151580972Y-95120747D01*
X151485499Y-95199099D01*
X151407147Y-95294572D01*
X151348925Y-95403497D01*
X151323269Y-95488075D01*
X151182533Y-95347339D01*
X150940622Y-95185699D01*
X150671825Y-95074360D01*
X150386472Y-95017600D01*
X150095528Y-95017600D01*
X149810175Y-95074360D01*
X149541378Y-95185699D01*
X149299467Y-95347339D01*
X149093739Y-95553067D01*
X148971000Y-95736759D01*
X148848261Y-95553067D01*
X148642533Y-95347339D01*
X148400622Y-95185699D01*
X148131825Y-95074360D01*
X147846472Y-95017600D01*
X147555528Y-95017600D01*
X147270175Y-95074360D01*
X147001378Y-95185699D01*
X146759467Y-95347339D01*
X146553739Y-95553067D01*
X146392099Y-95794978D01*
X146280760Y-96063775D01*
X146224000Y-96349128D01*
X119117033Y-96349128D01*
X119117033Y-95670000D01*
X119104927Y-95547087D01*
X119069075Y-95428897D01*
X119010853Y-95319972D01*
X118932501Y-95224499D01*
X118837028Y-95146147D01*
X118728103Y-95087925D01*
X118609913Y-95052073D01*
X118487000Y-95039967D01*
X116787000Y-95039967D01*
X116664087Y-95052073D01*
X116545897Y-95087925D01*
X116436972Y-95146147D01*
X116341499Y-95224499D01*
X116263147Y-95319972D01*
X116204925Y-95428897D01*
X116179269Y-95513475D01*
X116038533Y-95372739D01*
X115796622Y-95211099D01*
X115527825Y-95099760D01*
X115242472Y-95043000D01*
X114951528Y-95043000D01*
X114666175Y-95099760D01*
X114397378Y-95211099D01*
X114155467Y-95372739D01*
X113949739Y-95578467D01*
X113826340Y-95763147D01*
X113752178Y-95638645D01*
X113557269Y-95422412D01*
X113323920Y-95248359D01*
X113061099Y-95123175D01*
X112913890Y-95078524D01*
X112684000Y-95199845D01*
X112430000Y-95199845D01*
X112200110Y-95078524D01*
X112052901Y-95123175D01*
X111790080Y-95248359D01*
X111556731Y-95422412D01*
X111361822Y-95638645D01*
X111212843Y-95888748D01*
X111115519Y-96163109D01*
X84177000Y-96163109D01*
X84177000Y-95177000D01*
X85966748Y-95177000D01*
X86000000Y-95180275D01*
X86033252Y-95177000D01*
X86132715Y-95167204D01*
X86260330Y-95128492D01*
X86377941Y-95065628D01*
X86481027Y-94981027D01*
X86565628Y-94877941D01*
X86628492Y-94760330D01*
X86667204Y-94632715D01*
X86680275Y-94500000D01*
X86677000Y-94466748D01*
X86677000Y-93677000D01*
X181323000Y-93677000D01*
X181323001Y-98966738D01*
%TA.AperFunction,Conductor*%
D19*
G36*
X181323001Y-98966738D02*
G01*
X181319725Y-99000000D01*
X181332796Y-99132715D01*
X181371508Y-99260330D01*
X181434372Y-99377941D01*
X181518973Y-99481027D01*
X181622059Y-99565628D01*
X181739670Y-99628492D01*
X181823001Y-99653770D01*
X181823000Y-125323000D01*
X177177000Y-125323000D01*
X177177000Y-119533252D01*
X177180275Y-119500000D01*
X177167204Y-119367285D01*
X177128492Y-119239670D01*
X177065628Y-119122059D01*
X176981027Y-119018973D01*
X176877941Y-118934372D01*
X176760330Y-118871508D01*
X176632715Y-118832796D01*
X176533252Y-118823000D01*
X176500000Y-118819725D01*
X176466748Y-118823000D01*
X165033252Y-118823000D01*
X165000000Y-118819725D01*
X164966748Y-118823000D01*
X164867285Y-118832796D01*
X164739670Y-118871508D01*
X164622059Y-118934372D01*
X164518973Y-119018973D01*
X164434372Y-119122059D01*
X164371508Y-119239670D01*
X164332796Y-119367285D01*
X164319725Y-119500000D01*
X164323001Y-119533262D01*
X164323001Y-121793000D01*
X158627000Y-121793000D01*
X158627000Y-121602027D01*
X158660115Y-121552467D01*
X158737533Y-121365565D01*
X158777000Y-121167151D01*
X158777000Y-120964849D01*
X158737533Y-120766435D01*
X158660115Y-120579533D01*
X158547723Y-120411326D01*
X158404674Y-120268277D01*
X158236467Y-120155885D01*
X158049565Y-120078467D01*
X157991103Y-120066838D01*
X156157576Y-118233311D01*
X156130112Y-118199846D01*
X155996571Y-118090252D01*
X155844216Y-118008817D01*
X155678901Y-117958669D01*
X155550058Y-117945979D01*
X155506979Y-117941736D01*
X155463900Y-117945979D01*
X147444420Y-117945979D01*
X147501674Y-117907723D01*
X147644723Y-117764674D01*
X147757115Y-117596467D01*
X147834533Y-117409565D01*
X147874000Y-117211151D01*
X147874000Y-117008849D01*
X147834533Y-116810435D01*
X147757115Y-116623533D01*
X147724000Y-116573973D01*
X147724000Y-108125865D01*
X149976885Y-105872980D01*
X150090604Y-105895600D01*
X150391396Y-105895600D01*
X150686410Y-105836919D01*
X150964306Y-105721810D01*
X151214406Y-105554699D01*
X151427099Y-105342006D01*
X151594210Y-105091906D01*
X151709319Y-104814010D01*
X151768000Y-104518996D01*
X151768000Y-104218204D01*
X151709319Y-103923190D01*
X151594210Y-103645294D01*
X151427099Y-103395194D01*
X151351779Y-103319874D01*
X151382103Y-103310675D01*
X151491028Y-103252453D01*
X151586501Y-103174101D01*
X151664853Y-103078628D01*
X151723075Y-102969703D01*
X151758927Y-102851513D01*
X151771033Y-102728600D01*
X151771033Y-100928600D01*
X151758927Y-100805687D01*
X151723075Y-100687497D01*
X151664853Y-100578572D01*
X151586501Y-100483099D01*
X151491028Y-100404747D01*
X151382103Y-100346525D01*
X151263913Y-100310673D01*
X151141000Y-100298567D01*
X149341000Y-100298567D01*
X149218087Y-100310673D01*
X149099897Y-100346525D01*
X148990972Y-100404747D01*
X148895499Y-100483099D01*
X148817147Y-100578572D01*
X148758925Y-100687497D01*
X148723073Y-100805687D01*
X148710967Y-100928600D01*
X148710967Y-102728600D01*
X148723073Y-102851513D01*
X148758925Y-102969703D01*
X148817147Y-103078628D01*
X148895499Y-103174101D01*
X148990972Y-103252453D01*
X149099897Y-103310675D01*
X149130221Y-103319874D01*
X149054901Y-103395194D01*
X148887790Y-103645294D01*
X148772681Y-103923190D01*
X148714000Y-104218204D01*
X148714000Y-104518996D01*
X148736620Y-104632715D01*
X146257327Y-107112008D01*
X146223868Y-107139467D01*
X146196409Y-107172926D01*
X146196406Y-107172929D01*
X146114274Y-107273008D01*
X146032838Y-107425364D01*
X145982690Y-107590678D01*
X145965757Y-107762600D01*
X145970001Y-107805690D01*
X145970000Y-116573973D01*
X145936885Y-116623533D01*
X145859467Y-116810435D01*
X145820000Y-117008849D01*
X145820000Y-117211151D01*
X145859467Y-117409565D01*
X145936885Y-117596467D01*
X146049277Y-117764674D01*
X146192326Y-117907723D01*
X146249580Y-117945979D01*
X110036100Y-117945979D01*
X109993021Y-117941736D01*
X109821098Y-117958669D01*
X109713717Y-117991243D01*
X109655784Y-118008817D01*
X109503429Y-118090252D01*
X109369888Y-118199846D01*
X109342424Y-118233311D01*
X107508897Y-120066838D01*
X107450435Y-120078467D01*
X107263533Y-120155885D01*
X107095326Y-120268277D01*
X106952277Y-120411326D01*
X106839885Y-120579533D01*
X106762467Y-120766435D01*
X106723000Y-120964849D01*
X106723000Y-121167151D01*
X106762467Y-121365565D01*
X106839885Y-121552467D01*
X106873000Y-121602027D01*
X106873000Y-121793000D01*
X101177000Y-121793000D01*
X101177000Y-119533252D01*
X101180275Y-119500000D01*
X101167204Y-119367285D01*
X101128492Y-119239670D01*
X101065628Y-119122059D01*
X100981027Y-119018973D01*
X100877941Y-118934372D01*
X100760330Y-118871508D01*
X100632715Y-118832796D01*
X100533252Y-118823000D01*
X100500000Y-118819725D01*
X100466748Y-118823000D01*
X89033252Y-118823000D01*
X89000000Y-118819725D01*
X88966748Y-118823000D01*
X88867285Y-118832796D01*
X88739670Y-118871508D01*
X88622059Y-118934372D01*
X88518973Y-119018973D01*
X88434372Y-119122059D01*
X88371508Y-119239670D01*
X88332796Y-119367285D01*
X88319725Y-119500000D01*
X88323000Y-119533252D01*
X88323001Y-125323000D01*
X83177000Y-125323000D01*
X83177000Y-100954000D01*
X113693967Y-100954000D01*
X113693967Y-102754000D01*
X113706073Y-102876913D01*
X113741925Y-102995103D01*
X113800147Y-103104028D01*
X113878499Y-103199501D01*
X113973972Y-103277853D01*
X114082897Y-103336075D01*
X114113221Y-103345274D01*
X114037901Y-103420594D01*
X113870790Y-103670694D01*
X113755681Y-103948590D01*
X113697000Y-104243604D01*
X113697000Y-104544396D01*
X113755681Y-104839410D01*
X113870790Y-105117306D01*
X114037901Y-105367406D01*
X114250594Y-105580099D01*
X114500694Y-105747210D01*
X114778590Y-105862319D01*
X115073604Y-105921000D01*
X115374396Y-105921000D01*
X115669410Y-105862319D01*
X115947306Y-105747210D01*
X116197406Y-105580099D01*
X116410099Y-105367406D01*
X116577210Y-105117306D01*
X116692319Y-104839410D01*
X116751000Y-104544396D01*
X116751000Y-104243604D01*
X116692319Y-103948590D01*
X116577210Y-103670694D01*
X116410099Y-103420594D01*
X116334779Y-103345274D01*
X116365103Y-103336075D01*
X116474028Y-103277853D01*
X116569501Y-103199501D01*
X116647853Y-103104028D01*
X116706075Y-102995103D01*
X116741927Y-102876913D01*
X116754033Y-102754000D01*
X116754033Y-100954000D01*
X116741927Y-100831087D01*
X116706075Y-100712897D01*
X116647853Y-100603972D01*
X116569501Y-100508499D01*
X116474028Y-100430147D01*
X116365103Y-100371925D01*
X116246913Y-100336073D01*
X116124000Y-100323967D01*
X114324000Y-100323967D01*
X114201087Y-100336073D01*
X114082897Y-100371925D01*
X113973972Y-100430147D01*
X113878499Y-100508499D01*
X113800147Y-100603972D01*
X113741925Y-100712897D01*
X113706073Y-100831087D01*
X113693967Y-100954000D01*
X83177000Y-100954000D01*
X83177000Y-98177000D01*
X83466748Y-98177000D01*
X83500000Y-98180275D01*
X83533252Y-98177000D01*
X83632715Y-98167204D01*
X83760330Y-98128492D01*
X83877941Y-98065628D01*
X83981027Y-97981027D01*
X84065628Y-97877941D01*
X84128492Y-97760330D01*
X84167204Y-97632715D01*
X84180275Y-97500000D01*
X84177000Y-97466748D01*
X84177000Y-96876891D01*
X111115519Y-96876891D01*
X111212843Y-97151252D01*
X111361822Y-97401355D01*
X111556731Y-97617588D01*
X111790080Y-97791641D01*
X112052901Y-97916825D01*
X112200110Y-97961476D01*
X112430000Y-97840155D01*
X112430000Y-96647000D01*
X111236186Y-96647000D01*
X111115519Y-96876891D01*
X84177000Y-96876891D01*
X84177000Y-96163109D01*
X111115519Y-96163109D01*
X111236186Y-96393000D01*
X112430000Y-96393000D01*
X112430000Y-95199845D01*
X112684000Y-95199845D01*
X112684000Y-96393000D01*
X112704000Y-96393000D01*
X112704000Y-96647000D01*
X112684000Y-96647000D01*
X112684000Y-97840155D01*
X112913890Y-97961476D01*
X113061099Y-97916825D01*
X113323920Y-97791641D01*
X113557269Y-97617588D01*
X113752178Y-97401355D01*
X113826340Y-97276853D01*
X113949739Y-97461533D01*
X114155467Y-97667261D01*
X114397378Y-97828901D01*
X114666175Y-97940240D01*
X114951528Y-97997000D01*
X115242472Y-97997000D01*
X115527825Y-97940240D01*
X115796622Y-97828901D01*
X116038533Y-97667261D01*
X116179269Y-97526525D01*
X116204925Y-97611103D01*
X116263147Y-97720028D01*
X116341499Y-97815501D01*
X116436972Y-97893853D01*
X116545897Y-97952075D01*
X116664087Y-97987927D01*
X116787000Y-98000033D01*
X117876768Y-98000033D01*
X126180403Y-106303668D01*
X126207867Y-106337133D01*
X126341408Y-106446727D01*
X126493763Y-106528162D01*
X126659078Y-106578310D01*
X126787921Y-106591000D01*
X126787930Y-106591000D01*
X126830999Y-106595242D01*
X126874069Y-106591000D01*
X128818973Y-106591000D01*
X128868533Y-106624115D01*
X129055435Y-106701533D01*
X129253849Y-106741000D01*
X129456151Y-106741000D01*
X129654565Y-106701533D01*
X129841467Y-106624115D01*
X130009674Y-106511723D01*
X130152723Y-106368674D01*
X130265115Y-106200467D01*
X130342533Y-106013565D01*
X130382000Y-105815151D01*
X130382000Y-105612849D01*
X130342533Y-105414435D01*
X130265115Y-105227533D01*
X130152723Y-105059326D01*
X130009674Y-104916277D01*
X129841467Y-104803885D01*
X129654565Y-104726467D01*
X129456151Y-104687000D01*
X129253849Y-104687000D01*
X129055435Y-104726467D01*
X128868533Y-104803885D01*
X128818973Y-104837000D01*
X127194265Y-104837000D01*
X119117033Y-96759768D01*
X119117033Y-96349128D01*
X146224000Y-96349128D01*
X146224000Y-96640072D01*
X146280760Y-96925425D01*
X146392099Y-97194222D01*
X146553739Y-97436133D01*
X146759467Y-97641861D01*
X147001378Y-97803501D01*
X147270175Y-97914840D01*
X147555528Y-97971600D01*
X147846472Y-97971600D01*
X148131825Y-97914840D01*
X148400622Y-97803501D01*
X148642533Y-97641861D01*
X148848261Y-97436133D01*
X148971000Y-97252441D01*
X149093739Y-97436133D01*
X149299467Y-97641861D01*
X149541378Y-97803501D01*
X149810175Y-97914840D01*
X150095528Y-97971600D01*
X150386472Y-97971600D01*
X150671825Y-97914840D01*
X150940622Y-97803501D01*
X151182533Y-97641861D01*
X151323269Y-97501125D01*
X151348925Y-97585703D01*
X151407147Y-97694628D01*
X151485499Y-97790101D01*
X151580972Y-97868453D01*
X151689897Y-97926675D01*
X151808087Y-97962527D01*
X151931000Y-97974633D01*
X153631000Y-97974633D01*
X153753913Y-97962527D01*
X153872103Y-97926675D01*
X153981028Y-97868453D01*
X154076501Y-97790101D01*
X154154853Y-97694628D01*
X154213075Y-97585703D01*
X154248927Y-97467513D01*
X154261033Y-97344600D01*
X154261033Y-95644600D01*
X154248927Y-95521687D01*
X154213075Y-95403497D01*
X154154853Y-95294572D01*
X154076501Y-95199099D01*
X153981028Y-95120747D01*
X153872103Y-95062525D01*
X153753913Y-95026673D01*
X153631000Y-95014567D01*
X151931000Y-95014567D01*
X151808087Y-95026673D01*
X151689897Y-95062525D01*
X151580972Y-95120747D01*
X151485499Y-95199099D01*
X151407147Y-95294572D01*
X151348925Y-95403497D01*
X151323269Y-95488075D01*
X151182533Y-95347339D01*
X150940622Y-95185699D01*
X150671825Y-95074360D01*
X150386472Y-95017600D01*
X150095528Y-95017600D01*
X149810175Y-95074360D01*
X149541378Y-95185699D01*
X149299467Y-95347339D01*
X149093739Y-95553067D01*
X148971000Y-95736759D01*
X148848261Y-95553067D01*
X148642533Y-95347339D01*
X148400622Y-95185699D01*
X148131825Y-95074360D01*
X147846472Y-95017600D01*
X147555528Y-95017600D01*
X147270175Y-95074360D01*
X147001378Y-95185699D01*
X146759467Y-95347339D01*
X146553739Y-95553067D01*
X146392099Y-95794978D01*
X146280760Y-96063775D01*
X146224000Y-96349128D01*
X119117033Y-96349128D01*
X119117033Y-95670000D01*
X119104927Y-95547087D01*
X119069075Y-95428897D01*
X119010853Y-95319972D01*
X118932501Y-95224499D01*
X118837028Y-95146147D01*
X118728103Y-95087925D01*
X118609913Y-95052073D01*
X118487000Y-95039967D01*
X116787000Y-95039967D01*
X116664087Y-95052073D01*
X116545897Y-95087925D01*
X116436972Y-95146147D01*
X116341499Y-95224499D01*
X116263147Y-95319972D01*
X116204925Y-95428897D01*
X116179269Y-95513475D01*
X116038533Y-95372739D01*
X115796622Y-95211099D01*
X115527825Y-95099760D01*
X115242472Y-95043000D01*
X114951528Y-95043000D01*
X114666175Y-95099760D01*
X114397378Y-95211099D01*
X114155467Y-95372739D01*
X113949739Y-95578467D01*
X113826340Y-95763147D01*
X113752178Y-95638645D01*
X113557269Y-95422412D01*
X113323920Y-95248359D01*
X113061099Y-95123175D01*
X112913890Y-95078524D01*
X112684000Y-95199845D01*
X112430000Y-95199845D01*
X112200110Y-95078524D01*
X112052901Y-95123175D01*
X111790080Y-95248359D01*
X111556731Y-95422412D01*
X111361822Y-95638645D01*
X111212843Y-95888748D01*
X111115519Y-96163109D01*
X84177000Y-96163109D01*
X84177000Y-95177000D01*
X85966748Y-95177000D01*
X86000000Y-95180275D01*
X86033252Y-95177000D01*
X86132715Y-95167204D01*
X86260330Y-95128492D01*
X86377941Y-95065628D01*
X86481027Y-94981027D01*
X86565628Y-94877941D01*
X86628492Y-94760330D01*
X86667204Y-94632715D01*
X86680275Y-94500000D01*
X86677000Y-94466748D01*
X86677000Y-93677000D01*
X181323000Y-93677000D01*
X181323001Y-98966738D01*
G37*
%TD.AperFunction*%
%TD*%
M02*
