M48
; DRILL file {KiCad (5.1.7)-1} date 02/06/21 10:52:46
; FORMAT={-:-/ absolute / inch / decimal}
; #@! TF.CreationDate,2021-02-06T10:52:46-06:00
; #@! TF.GenerationSoftware,Kicad,Pcbnew,(5.1.7)-1
; #@! TF.FileFunction,Plated,1,2,PTH
FMAT,2
INCH
T1C0.0157
T2C0.0295
T3C0.0315
T4C0.0354
T5C0.0394
T6C0.0984
%
G90
G05
T1
X4.0453Y-4.7653
X4.1437Y-4.763
X4.2421Y-4.7664
X4.3406Y-4.7715
X4.439Y-4.773
X4.5374Y-4.7817
X5.9154Y-4.7667
X6.0Y-4.575
X6.0138Y-4.768
X6.1122Y-4.7665
X6.2106Y-4.7664
X6.3091Y-4.7633
X6.4075Y-4.7625
T2
X5.15Y-3.825
X5.2Y-3.825
X5.25Y-3.825
T3
X5.0575Y-3.4
X5.3575Y-3.4
X5.0Y-3.625
X5.4Y-3.625
X5.0575Y-3.1875
X5.3575Y-3.1875
X5.4Y-3.75
X5.4Y-4.15
X5.0Y-3.75
X5.0Y-4.15
T4
X5.9154Y-3.7402
X5.9154Y-3.8402
X4.5374Y-3.7402
X4.5374Y-3.8402
T5
X3.8484Y-3.8402
X4.1437Y-3.8402
X5.8169Y-3.4449
X5.9154Y-3.4449
X6.0138Y-3.4449
X4.439Y-3.4449
X4.5374Y-3.4449
X4.6358Y-3.4449
X6.3091Y-3.8402
X6.6043Y-3.8402
T6
X7.0925Y-4.8268
X3.3602Y-4.8268
T0
M30
