%TF.GenerationSoftware,KiCad,Pcbnew,(5.1.7)-1*%
%TF.CreationDate,2020-12-12T13:47:03-06:00*%
%TF.ProjectId,ConsolePedalDistortion,436f6e73-6f6c-4655-9065-64616c446973,rev?*%
%TF.SameCoordinates,Original*%
%TF.FileFunction,Legend,Top*%
%TF.FilePolarity,Positive*%
%FSLAX46Y46*%
G04 Gerber Fmt 4.6, Leading zero omitted, Abs format (unit mm)*
G04 Created by KiCad (PCBNEW (5.1.7)-1) date 2020-12-12 13:47:03*
%MOMM*%
%LPD*%
G01*
G04 APERTURE LIST*
%ADD10C,0.250000*%
%ADD11C,0.120000*%
%ADD12C,0.150000*%
G04 APERTURE END LIST*
D10*
X121715000Y-121642142D02*
X121667380Y-121689761D01*
X121524523Y-121737380D01*
X121429285Y-121737380D01*
X121286428Y-121689761D01*
X121191190Y-121594523D01*
X121143571Y-121499285D01*
X121095952Y-121308809D01*
X121095952Y-121165952D01*
X121143571Y-120975476D01*
X121191190Y-120880238D01*
X121286428Y-120785000D01*
X121429285Y-120737380D01*
X121524523Y-120737380D01*
X121667380Y-120785000D01*
X121715000Y-120832619D01*
X122286428Y-121737380D02*
X122191190Y-121689761D01*
X122143571Y-121642142D01*
X122095952Y-121546904D01*
X122095952Y-121261190D01*
X122143571Y-121165952D01*
X122191190Y-121118333D01*
X122286428Y-121070714D01*
X122429285Y-121070714D01*
X122524523Y-121118333D01*
X122572142Y-121165952D01*
X122619761Y-121261190D01*
X122619761Y-121546904D01*
X122572142Y-121642142D01*
X122524523Y-121689761D01*
X122429285Y-121737380D01*
X122286428Y-121737380D01*
X123048333Y-121070714D02*
X123048333Y-121737380D01*
X123048333Y-121165952D02*
X123095952Y-121118333D01*
X123191190Y-121070714D01*
X123334047Y-121070714D01*
X123429285Y-121118333D01*
X123476904Y-121213571D01*
X123476904Y-121737380D01*
X123905476Y-121689761D02*
X124000714Y-121737380D01*
X124191190Y-121737380D01*
X124286428Y-121689761D01*
X124334047Y-121594523D01*
X124334047Y-121546904D01*
X124286428Y-121451666D01*
X124191190Y-121404047D01*
X124048333Y-121404047D01*
X123953095Y-121356428D01*
X123905476Y-121261190D01*
X123905476Y-121213571D01*
X123953095Y-121118333D01*
X124048333Y-121070714D01*
X124191190Y-121070714D01*
X124286428Y-121118333D01*
X124905476Y-121737380D02*
X124810238Y-121689761D01*
X124762619Y-121642142D01*
X124715000Y-121546904D01*
X124715000Y-121261190D01*
X124762619Y-121165952D01*
X124810238Y-121118333D01*
X124905476Y-121070714D01*
X125048333Y-121070714D01*
X125143571Y-121118333D01*
X125191190Y-121165952D01*
X125238809Y-121261190D01*
X125238809Y-121546904D01*
X125191190Y-121642142D01*
X125143571Y-121689761D01*
X125048333Y-121737380D01*
X124905476Y-121737380D01*
X125810238Y-121737380D02*
X125715000Y-121689761D01*
X125667380Y-121594523D01*
X125667380Y-120737380D01*
X126572142Y-121689761D02*
X126476904Y-121737380D01*
X126286428Y-121737380D01*
X126191190Y-121689761D01*
X126143571Y-121594523D01*
X126143571Y-121213571D01*
X126191190Y-121118333D01*
X126286428Y-121070714D01*
X126476904Y-121070714D01*
X126572142Y-121118333D01*
X126619761Y-121213571D01*
X126619761Y-121308809D01*
X126143571Y-121404047D01*
X127810238Y-121737380D02*
X127810238Y-120737380D01*
X128191190Y-120737380D01*
X128286428Y-120785000D01*
X128334047Y-120832619D01*
X128381666Y-120927857D01*
X128381666Y-121070714D01*
X128334047Y-121165952D01*
X128286428Y-121213571D01*
X128191190Y-121261190D01*
X127810238Y-121261190D01*
X129191190Y-121689761D02*
X129095952Y-121737380D01*
X128905476Y-121737380D01*
X128810238Y-121689761D01*
X128762619Y-121594523D01*
X128762619Y-121213571D01*
X128810238Y-121118333D01*
X128905476Y-121070714D01*
X129095952Y-121070714D01*
X129191190Y-121118333D01*
X129238809Y-121213571D01*
X129238809Y-121308809D01*
X128762619Y-121404047D01*
X130095952Y-121737380D02*
X130095952Y-120737380D01*
X130095952Y-121689761D02*
X130000714Y-121737380D01*
X129810238Y-121737380D01*
X129715000Y-121689761D01*
X129667380Y-121642142D01*
X129619761Y-121546904D01*
X129619761Y-121261190D01*
X129667380Y-121165952D01*
X129715000Y-121118333D01*
X129810238Y-121070714D01*
X130000714Y-121070714D01*
X130095952Y-121118333D01*
X131000714Y-121737380D02*
X131000714Y-121213571D01*
X130953095Y-121118333D01*
X130857857Y-121070714D01*
X130667380Y-121070714D01*
X130572142Y-121118333D01*
X131000714Y-121689761D02*
X130905476Y-121737380D01*
X130667380Y-121737380D01*
X130572142Y-121689761D01*
X130524523Y-121594523D01*
X130524523Y-121499285D01*
X130572142Y-121404047D01*
X130667380Y-121356428D01*
X130905476Y-121356428D01*
X131000714Y-121308809D01*
X131619761Y-121737380D02*
X131524523Y-121689761D01*
X131476904Y-121594523D01*
X131476904Y-120737380D01*
X132762619Y-121737380D02*
X132762619Y-120737380D01*
X133000714Y-120737380D01*
X133143571Y-120785000D01*
X133238809Y-120880238D01*
X133286428Y-120975476D01*
X133334047Y-121165952D01*
X133334047Y-121308809D01*
X133286428Y-121499285D01*
X133238809Y-121594523D01*
X133143571Y-121689761D01*
X133000714Y-121737380D01*
X132762619Y-121737380D01*
X133762619Y-121737380D02*
X133762619Y-121070714D01*
X133762619Y-120737380D02*
X133715000Y-120785000D01*
X133762619Y-120832619D01*
X133810238Y-120785000D01*
X133762619Y-120737380D01*
X133762619Y-120832619D01*
X134191190Y-121689761D02*
X134286428Y-121737380D01*
X134476904Y-121737380D01*
X134572142Y-121689761D01*
X134619761Y-121594523D01*
X134619761Y-121546904D01*
X134572142Y-121451666D01*
X134476904Y-121404047D01*
X134334047Y-121404047D01*
X134238809Y-121356428D01*
X134191190Y-121261190D01*
X134191190Y-121213571D01*
X134238809Y-121118333D01*
X134334047Y-121070714D01*
X134476904Y-121070714D01*
X134572142Y-121118333D01*
X134905476Y-121070714D02*
X135286428Y-121070714D01*
X135048333Y-120737380D02*
X135048333Y-121594523D01*
X135095952Y-121689761D01*
X135191190Y-121737380D01*
X135286428Y-121737380D01*
X135762619Y-121737380D02*
X135667380Y-121689761D01*
X135619761Y-121642142D01*
X135572142Y-121546904D01*
X135572142Y-121261190D01*
X135619761Y-121165952D01*
X135667380Y-121118333D01*
X135762619Y-121070714D01*
X135905476Y-121070714D01*
X136000714Y-121118333D01*
X136048333Y-121165952D01*
X136095952Y-121261190D01*
X136095952Y-121546904D01*
X136048333Y-121642142D01*
X136000714Y-121689761D01*
X135905476Y-121737380D01*
X135762619Y-121737380D01*
X136524523Y-121737380D02*
X136524523Y-121070714D01*
X136524523Y-121261190D02*
X136572142Y-121165952D01*
X136619761Y-121118333D01*
X136715000Y-121070714D01*
X136810238Y-121070714D01*
X137000714Y-121070714D02*
X137381666Y-121070714D01*
X137143571Y-120737380D02*
X137143571Y-121594523D01*
X137191190Y-121689761D01*
X137286428Y-121737380D01*
X137381666Y-121737380D01*
X137715000Y-121737380D02*
X137715000Y-121070714D01*
X137715000Y-120737380D02*
X137667380Y-120785000D01*
X137715000Y-120832619D01*
X137762619Y-120785000D01*
X137715000Y-120737380D01*
X137715000Y-120832619D01*
X138334047Y-121737380D02*
X138238809Y-121689761D01*
X138191190Y-121642142D01*
X138143571Y-121546904D01*
X138143571Y-121261190D01*
X138191190Y-121165952D01*
X138238809Y-121118333D01*
X138334047Y-121070714D01*
X138476904Y-121070714D01*
X138572142Y-121118333D01*
X138619761Y-121165952D01*
X138667380Y-121261190D01*
X138667380Y-121546904D01*
X138619761Y-121642142D01*
X138572142Y-121689761D01*
X138476904Y-121737380D01*
X138334047Y-121737380D01*
X139095952Y-121070714D02*
X139095952Y-121737380D01*
X139095952Y-121165952D02*
X139143571Y-121118333D01*
X139238809Y-121070714D01*
X139381666Y-121070714D01*
X139476904Y-121118333D01*
X139524523Y-121213571D01*
X139524523Y-121737380D01*
X140619761Y-120737380D02*
X140953095Y-121737380D01*
X141286428Y-120737380D01*
X142143571Y-121737380D02*
X141572142Y-121737380D01*
X141857857Y-121737380D02*
X141857857Y-120737380D01*
X141762619Y-120880238D01*
X141667380Y-120975476D01*
X141572142Y-121023095D01*
X142572142Y-121642142D02*
X142619761Y-121689761D01*
X142572142Y-121737380D01*
X142524523Y-121689761D01*
X142572142Y-121642142D01*
X142572142Y-121737380D01*
X143238809Y-120737380D02*
X143334047Y-120737380D01*
X143429285Y-120785000D01*
X143476904Y-120832619D01*
X143524523Y-120927857D01*
X143572142Y-121118333D01*
X143572142Y-121356428D01*
X143524523Y-121546904D01*
X143476904Y-121642142D01*
X143429285Y-121689761D01*
X143334047Y-121737380D01*
X143238809Y-121737380D01*
X143143571Y-121689761D01*
X143095952Y-121642142D01*
X143048333Y-121546904D01*
X143000714Y-121356428D01*
X143000714Y-121118333D01*
X143048333Y-120927857D01*
X143095952Y-120832619D01*
X143143571Y-120785000D01*
X143238809Y-120737380D01*
X125857857Y-79077380D02*
X126429285Y-79077380D01*
X126143571Y-80077380D02*
X126143571Y-79077380D01*
X126762619Y-80077380D02*
X126762619Y-79077380D01*
X127191190Y-80077380D02*
X127191190Y-79553571D01*
X127143571Y-79458333D01*
X127048333Y-79410714D01*
X126905476Y-79410714D01*
X126810238Y-79458333D01*
X126762619Y-79505952D01*
X127810238Y-80077380D02*
X127715000Y-80029761D01*
X127667380Y-79982142D01*
X127619761Y-79886904D01*
X127619761Y-79601190D01*
X127667380Y-79505952D01*
X127715000Y-79458333D01*
X127810238Y-79410714D01*
X127953095Y-79410714D01*
X128048333Y-79458333D01*
X128095952Y-79505952D01*
X128143571Y-79601190D01*
X128143571Y-79886904D01*
X128095952Y-79982142D01*
X128048333Y-80029761D01*
X127953095Y-80077380D01*
X127810238Y-80077380D01*
X128572142Y-80077380D02*
X128572142Y-79410714D01*
X128572142Y-79505952D02*
X128619761Y-79458333D01*
X128715000Y-79410714D01*
X128857857Y-79410714D01*
X128953095Y-79458333D01*
X129000714Y-79553571D01*
X129000714Y-80077380D01*
X129000714Y-79553571D02*
X129048333Y-79458333D01*
X129143571Y-79410714D01*
X129286428Y-79410714D01*
X129381666Y-79458333D01*
X129429285Y-79553571D01*
X129429285Y-80077380D01*
X130334047Y-80077380D02*
X130334047Y-79553571D01*
X130286428Y-79458333D01*
X130191190Y-79410714D01*
X130000714Y-79410714D01*
X129905476Y-79458333D01*
X130334047Y-80029761D02*
X130238809Y-80077380D01*
X130000714Y-80077380D01*
X129905476Y-80029761D01*
X129857857Y-79934523D01*
X129857857Y-79839285D01*
X129905476Y-79744047D01*
X130000714Y-79696428D01*
X130238809Y-79696428D01*
X130334047Y-79648809D01*
X130762619Y-80029761D02*
X130857857Y-80077380D01*
X131048333Y-80077380D01*
X131143571Y-80029761D01*
X131191190Y-79934523D01*
X131191190Y-79886904D01*
X131143571Y-79791666D01*
X131048333Y-79744047D01*
X130905476Y-79744047D01*
X130810238Y-79696428D01*
X130762619Y-79601190D01*
X130762619Y-79553571D01*
X130810238Y-79458333D01*
X130905476Y-79410714D01*
X131048333Y-79410714D01*
X131143571Y-79458333D01*
X132381666Y-80077380D02*
X132381666Y-79077380D01*
X132715000Y-79791666D01*
X133048333Y-79077380D01*
X133048333Y-80077380D01*
X133953095Y-80029761D02*
X133857857Y-80077380D01*
X133667380Y-80077380D01*
X133572142Y-80029761D01*
X133524523Y-79982142D01*
X133476904Y-79886904D01*
X133476904Y-79601190D01*
X133524523Y-79505952D01*
X133572142Y-79458333D01*
X133667380Y-79410714D01*
X133857857Y-79410714D01*
X133953095Y-79458333D01*
X134381666Y-80077380D02*
X134381666Y-79077380D01*
X134619761Y-79077380D01*
X134762619Y-79125000D01*
X134857857Y-79220238D01*
X134905476Y-79315476D01*
X134953095Y-79505952D01*
X134953095Y-79648809D01*
X134905476Y-79839285D01*
X134857857Y-79934523D01*
X134762619Y-80029761D01*
X134619761Y-80077380D01*
X134381666Y-80077380D01*
X135524523Y-80077380D02*
X135429285Y-80029761D01*
X135381666Y-79982142D01*
X135334047Y-79886904D01*
X135334047Y-79601190D01*
X135381666Y-79505952D01*
X135429285Y-79458333D01*
X135524523Y-79410714D01*
X135667380Y-79410714D01*
X135762619Y-79458333D01*
X135810238Y-79505952D01*
X135857857Y-79601190D01*
X135857857Y-79886904D01*
X135810238Y-79982142D01*
X135762619Y-80029761D01*
X135667380Y-80077380D01*
X135524523Y-80077380D01*
X136286428Y-79410714D02*
X136286428Y-80077380D01*
X136286428Y-79505952D02*
X136334047Y-79458333D01*
X136429285Y-79410714D01*
X136572142Y-79410714D01*
X136667380Y-79458333D01*
X136715000Y-79553571D01*
X136715000Y-80077380D01*
X137619761Y-80077380D02*
X137619761Y-79553571D01*
X137572142Y-79458333D01*
X137476904Y-79410714D01*
X137286428Y-79410714D01*
X137191190Y-79458333D01*
X137619761Y-80029761D02*
X137524523Y-80077380D01*
X137286428Y-80077380D01*
X137191190Y-80029761D01*
X137143571Y-79934523D01*
X137143571Y-79839285D01*
X137191190Y-79744047D01*
X137286428Y-79696428D01*
X137524523Y-79696428D01*
X137619761Y-79648809D01*
X138524523Y-79410714D02*
X138524523Y-80220238D01*
X138476904Y-80315476D01*
X138429285Y-80363095D01*
X138334047Y-80410714D01*
X138191190Y-80410714D01*
X138095952Y-80363095D01*
X138524523Y-80029761D02*
X138429285Y-80077380D01*
X138238809Y-80077380D01*
X138143571Y-80029761D01*
X138095952Y-79982142D01*
X138048333Y-79886904D01*
X138048333Y-79601190D01*
X138095952Y-79505952D01*
X138143571Y-79458333D01*
X138238809Y-79410714D01*
X138429285Y-79410714D01*
X138524523Y-79458333D01*
X139000714Y-80077380D02*
X139000714Y-79077380D01*
X139429285Y-80077380D02*
X139429285Y-79553571D01*
X139381666Y-79458333D01*
X139286428Y-79410714D01*
X139143571Y-79410714D01*
X139048333Y-79458333D01*
X139000714Y-79505952D01*
X125715000Y-81827380D02*
X125715000Y-81160714D01*
X125715000Y-81255952D02*
X125762619Y-81208333D01*
X125857857Y-81160714D01*
X126000714Y-81160714D01*
X126095952Y-81208333D01*
X126143571Y-81303571D01*
X126143571Y-81827380D01*
X126143571Y-81303571D02*
X126191190Y-81208333D01*
X126286428Y-81160714D01*
X126429285Y-81160714D01*
X126524523Y-81208333D01*
X126572142Y-81303571D01*
X126572142Y-81827380D01*
X127476904Y-81779761D02*
X127381666Y-81827380D01*
X127191190Y-81827380D01*
X127095952Y-81779761D01*
X127048333Y-81732142D01*
X127000714Y-81636904D01*
X127000714Y-81351190D01*
X127048333Y-81255952D01*
X127095952Y-81208333D01*
X127191190Y-81160714D01*
X127381666Y-81160714D01*
X127476904Y-81208333D01*
X128334047Y-81827380D02*
X128334047Y-80827380D01*
X128334047Y-81779761D02*
X128238809Y-81827380D01*
X128048333Y-81827380D01*
X127953095Y-81779761D01*
X127905476Y-81732142D01*
X127857857Y-81636904D01*
X127857857Y-81351190D01*
X127905476Y-81255952D01*
X127953095Y-81208333D01*
X128048333Y-81160714D01*
X128238809Y-81160714D01*
X128334047Y-81208333D01*
X128953095Y-81827380D02*
X128857857Y-81779761D01*
X128810238Y-81732142D01*
X128762619Y-81636904D01*
X128762619Y-81351190D01*
X128810238Y-81255952D01*
X128857857Y-81208333D01*
X128953095Y-81160714D01*
X129095952Y-81160714D01*
X129191190Y-81208333D01*
X129238809Y-81255952D01*
X129286428Y-81351190D01*
X129286428Y-81636904D01*
X129238809Y-81732142D01*
X129191190Y-81779761D01*
X129095952Y-81827380D01*
X128953095Y-81827380D01*
X129715000Y-81160714D02*
X129715000Y-81827380D01*
X129715000Y-81255952D02*
X129762619Y-81208333D01*
X129857857Y-81160714D01*
X130000714Y-81160714D01*
X130095952Y-81208333D01*
X130143571Y-81303571D01*
X130143571Y-81827380D01*
X131048333Y-81827380D02*
X131048333Y-81303571D01*
X131000714Y-81208333D01*
X130905476Y-81160714D01*
X130715000Y-81160714D01*
X130619761Y-81208333D01*
X131048333Y-81779761D02*
X130953095Y-81827380D01*
X130715000Y-81827380D01*
X130619761Y-81779761D01*
X130572142Y-81684523D01*
X130572142Y-81589285D01*
X130619761Y-81494047D01*
X130715000Y-81446428D01*
X130953095Y-81446428D01*
X131048333Y-81398809D01*
X131953095Y-81160714D02*
X131953095Y-81970238D01*
X131905476Y-82065476D01*
X131857857Y-82113095D01*
X131762619Y-82160714D01*
X131619761Y-82160714D01*
X131524523Y-82113095D01*
X131953095Y-81779761D02*
X131857857Y-81827380D01*
X131667380Y-81827380D01*
X131572142Y-81779761D01*
X131524523Y-81732142D01*
X131476904Y-81636904D01*
X131476904Y-81351190D01*
X131524523Y-81255952D01*
X131572142Y-81208333D01*
X131667380Y-81160714D01*
X131857857Y-81160714D01*
X131953095Y-81208333D01*
X132429285Y-81827380D02*
X132429285Y-80827380D01*
X132857857Y-81827380D02*
X132857857Y-81303571D01*
X132810238Y-81208333D01*
X132715000Y-81160714D01*
X132572142Y-81160714D01*
X132476904Y-81208333D01*
X132429285Y-81255952D01*
X133762619Y-81779761D02*
X133667380Y-81827380D01*
X133476904Y-81827380D01*
X133381666Y-81779761D01*
X133334047Y-81732142D01*
X133286428Y-81636904D01*
X133286428Y-81351190D01*
X133334047Y-81255952D01*
X133381666Y-81208333D01*
X133476904Y-81160714D01*
X133667380Y-81160714D01*
X133762619Y-81208333D01*
X134334047Y-81827380D02*
X134238809Y-81779761D01*
X134191190Y-81732142D01*
X134143571Y-81636904D01*
X134143571Y-81351190D01*
X134191190Y-81255952D01*
X134238809Y-81208333D01*
X134334047Y-81160714D01*
X134476904Y-81160714D01*
X134572142Y-81208333D01*
X134619761Y-81255952D01*
X134667380Y-81351190D01*
X134667380Y-81636904D01*
X134619761Y-81732142D01*
X134572142Y-81779761D01*
X134476904Y-81827380D01*
X134334047Y-81827380D01*
X135095952Y-81827380D02*
X135095952Y-81160714D01*
X135095952Y-81351190D02*
X135143571Y-81255952D01*
X135191190Y-81208333D01*
X135286428Y-81160714D01*
X135381666Y-81160714D01*
X135715000Y-81160714D02*
X135715000Y-82160714D01*
X135715000Y-81208333D02*
X135810238Y-81160714D01*
X136000714Y-81160714D01*
X136095952Y-81208333D01*
X136143571Y-81255952D01*
X136191190Y-81351190D01*
X136191190Y-81636904D01*
X136143571Y-81732142D01*
X136095952Y-81779761D01*
X136000714Y-81827380D01*
X135810238Y-81827380D01*
X135715000Y-81779761D01*
X136619761Y-81732142D02*
X136667380Y-81779761D01*
X136619761Y-81827380D01*
X136572142Y-81779761D01*
X136619761Y-81732142D01*
X136619761Y-81827380D01*
X137524523Y-81779761D02*
X137429285Y-81827380D01*
X137238809Y-81827380D01*
X137143571Y-81779761D01*
X137095952Y-81732142D01*
X137048333Y-81636904D01*
X137048333Y-81351190D01*
X137095952Y-81255952D01*
X137143571Y-81208333D01*
X137238809Y-81160714D01*
X137429285Y-81160714D01*
X137524523Y-81208333D01*
X138095952Y-81827380D02*
X138000714Y-81779761D01*
X137953095Y-81732142D01*
X137905476Y-81636904D01*
X137905476Y-81351190D01*
X137953095Y-81255952D01*
X138000714Y-81208333D01*
X138095952Y-81160714D01*
X138238809Y-81160714D01*
X138334047Y-81208333D01*
X138381666Y-81255952D01*
X138429285Y-81351190D01*
X138429285Y-81636904D01*
X138381666Y-81732142D01*
X138334047Y-81779761D01*
X138238809Y-81827380D01*
X138095952Y-81827380D01*
X138857857Y-81827380D02*
X138857857Y-81160714D01*
X138857857Y-81255952D02*
X138905476Y-81208333D01*
X139000714Y-81160714D01*
X139143571Y-81160714D01*
X139238809Y-81208333D01*
X139286428Y-81303571D01*
X139286428Y-81827380D01*
X139286428Y-81303571D02*
X139334047Y-81208333D01*
X139429285Y-81160714D01*
X139572142Y-81160714D01*
X139667380Y-81208333D01*
X139715000Y-81303571D01*
X139715000Y-81827380D01*
D11*
%TO.C,D1*%
X117750000Y-96270000D02*
G75*
G03*
X117750000Y-96270000I-2500000J0D01*
G01*
X116795000Y-93710000D02*
X113705000Y-93710000D01*
X115249538Y-99260000D02*
G75*
G03*
X116794830Y-93710000I462J2990000D01*
G01*
X115250462Y-99260000D02*
G75*
G02*
X113705170Y-93710000I-462J2990000D01*
G01*
%TO.C,D2*%
X151795000Y-93710000D02*
X148705000Y-93710000D01*
X152750000Y-96270000D02*
G75*
G03*
X152750000Y-96270000I-2500000J0D01*
G01*
X150250462Y-99260000D02*
G75*
G02*
X148705170Y-93710000I-462J2990000D01*
G01*
X150249538Y-99260000D02*
G75*
G03*
X151794830Y-93710000I462J2990000D01*
G01*
%TO.C,RV1*%
X145280000Y-74380000D02*
X155220000Y-74380000D01*
X153620000Y-86620000D02*
X155220000Y-86620000D01*
X151121000Y-86620000D02*
X151880000Y-86620000D01*
X148621000Y-86620000D02*
X149380000Y-86620000D01*
X145280000Y-86620000D02*
X146879000Y-86620000D01*
X155220000Y-78245000D02*
X155220000Y-74380000D01*
X155220000Y-86620000D02*
X155220000Y-82755000D01*
X145280000Y-78245000D02*
X145280000Y-74380000D01*
X145280000Y-86620000D02*
X145280000Y-82755000D01*
%TO.C,RV2*%
X110280000Y-86620000D02*
X110280000Y-82755000D01*
X110280000Y-78245000D02*
X110280000Y-74380000D01*
X120220000Y-86620000D02*
X120220000Y-82755000D01*
X120220000Y-78245000D02*
X120220000Y-74380000D01*
X110280000Y-86620000D02*
X111879000Y-86620000D01*
X113621000Y-86620000D02*
X114380000Y-86620000D01*
X116121000Y-86620000D02*
X116880000Y-86620000D01*
X118620000Y-86620000D02*
X120220000Y-86620000D01*
X110280000Y-74380000D02*
X120220000Y-74380000D01*
%TO.C,C1*%
X128985000Y-95535000D02*
X128985000Y-106275000D01*
X123745000Y-95535000D02*
X123745000Y-106275000D01*
X128985000Y-95535000D02*
X123745000Y-95535000D01*
X128985000Y-106275000D02*
X123745000Y-106275000D01*
%TO.C,C2*%
X140415000Y-106275000D02*
X135175000Y-106275000D01*
X140415000Y-95535000D02*
X135175000Y-95535000D01*
X135175000Y-95535000D02*
X135175000Y-106275000D01*
X140415000Y-95535000D02*
X140415000Y-106275000D01*
%TO.C,D3*%
X133565000Y-93830000D02*
X133565000Y-91590000D01*
X133565000Y-91590000D02*
X129325000Y-91590000D01*
X129325000Y-91590000D02*
X129325000Y-93830000D01*
X129325000Y-93830000D02*
X133565000Y-93830000D01*
X134215000Y-92710000D02*
X133565000Y-92710000D01*
X128675000Y-92710000D02*
X129325000Y-92710000D01*
X132845000Y-93830000D02*
X132845000Y-91590000D01*
X132725000Y-93830000D02*
X132725000Y-91590000D01*
X132965000Y-93830000D02*
X132965000Y-91590000D01*
%TO.C,D4*%
X129925000Y-88415000D02*
X129925000Y-90655000D01*
X130165000Y-88415000D02*
X130165000Y-90655000D01*
X130045000Y-88415000D02*
X130045000Y-90655000D01*
X134215000Y-89535000D02*
X133565000Y-89535000D01*
X128675000Y-89535000D02*
X129325000Y-89535000D01*
X133565000Y-88415000D02*
X129325000Y-88415000D01*
X133565000Y-90655000D02*
X133565000Y-88415000D01*
X129325000Y-90655000D02*
X133565000Y-90655000D01*
X129325000Y-88415000D02*
X129325000Y-90655000D01*
%TO.C,Q1*%
X130280000Y-99005000D02*
X133880000Y-99005000D01*
X130241522Y-98993478D02*
G75*
G02*
X132080000Y-94555000I1838478J1838478D01*
G01*
X133918478Y-98993478D02*
G75*
G03*
X132080000Y-94555000I-1838478J1838478D01*
G01*
%TO.C,R1*%
X133450000Y-102140000D02*
X130710000Y-102140000D01*
X130710000Y-102140000D02*
X130710000Y-108680000D01*
X130710000Y-108680000D02*
X133450000Y-108680000D01*
X133450000Y-108680000D02*
X133450000Y-102140000D01*
X132080000Y-101370000D02*
X132080000Y-102140000D01*
X132080000Y-109450000D02*
X132080000Y-108680000D01*
%TO.C,R2*%
X138835000Y-108585000D02*
X139605000Y-108585000D01*
X146915000Y-108585000D02*
X146145000Y-108585000D01*
X139605000Y-109955000D02*
X146145000Y-109955000D01*
X139605000Y-107215000D02*
X139605000Y-109955000D01*
X146145000Y-107215000D02*
X139605000Y-107215000D01*
X146145000Y-109955000D02*
X146145000Y-107215000D01*
%TO.C,R3*%
X129480000Y-84990000D02*
X129480000Y-87730000D01*
X129480000Y-87730000D02*
X136020000Y-87730000D01*
X136020000Y-87730000D02*
X136020000Y-84990000D01*
X136020000Y-84990000D02*
X129480000Y-84990000D01*
X128710000Y-86360000D02*
X129480000Y-86360000D01*
X136790000Y-86360000D02*
X136020000Y-86360000D01*
%TO.C,RV1*%
D12*
X149654761Y-80952380D02*
X149321428Y-80476190D01*
X149083333Y-80952380D02*
X149083333Y-79952380D01*
X149464285Y-79952380D01*
X149559523Y-80000000D01*
X149607142Y-80047619D01*
X149654761Y-80142857D01*
X149654761Y-80285714D01*
X149607142Y-80380952D01*
X149559523Y-80428571D01*
X149464285Y-80476190D01*
X149083333Y-80476190D01*
X149940476Y-79952380D02*
X150273809Y-80952380D01*
X150607142Y-79952380D01*
X151464285Y-80952380D02*
X150892857Y-80952380D01*
X151178571Y-80952380D02*
X151178571Y-79952380D01*
X151083333Y-80095238D01*
X150988095Y-80190476D01*
X150892857Y-80238095D01*
%TO.C,RV2*%
X114654761Y-80952380D02*
X114321428Y-80476190D01*
X114083333Y-80952380D02*
X114083333Y-79952380D01*
X114464285Y-79952380D01*
X114559523Y-80000000D01*
X114607142Y-80047619D01*
X114654761Y-80142857D01*
X114654761Y-80285714D01*
X114607142Y-80380952D01*
X114559523Y-80428571D01*
X114464285Y-80476190D01*
X114083333Y-80476190D01*
X114940476Y-79952380D02*
X115273809Y-80952380D01*
X115607142Y-79952380D01*
X115892857Y-80047619D02*
X115940476Y-80000000D01*
X116035714Y-79952380D01*
X116273809Y-79952380D01*
X116369047Y-80000000D01*
X116416666Y-80047619D01*
X116464285Y-80142857D01*
X116464285Y-80238095D01*
X116416666Y-80380952D01*
X115845238Y-80952380D01*
X116464285Y-80952380D01*
%TO.C,C1*%
X126722142Y-101131666D02*
X126769761Y-101179285D01*
X126817380Y-101322142D01*
X126817380Y-101417380D01*
X126769761Y-101560238D01*
X126674523Y-101655476D01*
X126579285Y-101703095D01*
X126388809Y-101750714D01*
X126245952Y-101750714D01*
X126055476Y-101703095D01*
X125960238Y-101655476D01*
X125865000Y-101560238D01*
X125817380Y-101417380D01*
X125817380Y-101322142D01*
X125865000Y-101179285D01*
X125912619Y-101131666D01*
X126817380Y-100179285D02*
X126817380Y-100750714D01*
X126817380Y-100465000D02*
X125817380Y-100465000D01*
X125960238Y-100560238D01*
X126055476Y-100655476D01*
X126103095Y-100750714D01*
%TO.C,C2*%
X138152142Y-101071666D02*
X138199761Y-101119285D01*
X138247380Y-101262142D01*
X138247380Y-101357380D01*
X138199761Y-101500238D01*
X138104523Y-101595476D01*
X138009285Y-101643095D01*
X137818809Y-101690714D01*
X137675952Y-101690714D01*
X137485476Y-101643095D01*
X137390238Y-101595476D01*
X137295000Y-101500238D01*
X137247380Y-101357380D01*
X137247380Y-101262142D01*
X137295000Y-101119285D01*
X137342619Y-101071666D01*
X137342619Y-100690714D02*
X137295000Y-100643095D01*
X137247380Y-100547857D01*
X137247380Y-100309761D01*
X137295000Y-100214523D01*
X137342619Y-100166904D01*
X137437857Y-100119285D01*
X137533095Y-100119285D01*
X137675952Y-100166904D01*
X138247380Y-100738333D01*
X138247380Y-100119285D01*
%TO.C,D3*%
X130071904Y-93162380D02*
X130071904Y-92162380D01*
X130310000Y-92162380D01*
X130452857Y-92210000D01*
X130548095Y-92305238D01*
X130595714Y-92400476D01*
X130643333Y-92590952D01*
X130643333Y-92733809D01*
X130595714Y-92924285D01*
X130548095Y-93019523D01*
X130452857Y-93114761D01*
X130310000Y-93162380D01*
X130071904Y-93162380D01*
X130976666Y-92162380D02*
X131595714Y-92162380D01*
X131262380Y-92543333D01*
X131405238Y-92543333D01*
X131500476Y-92590952D01*
X131548095Y-92638571D01*
X131595714Y-92733809D01*
X131595714Y-92971904D01*
X131548095Y-93067142D01*
X131500476Y-93114761D01*
X131405238Y-93162380D01*
X131119523Y-93162380D01*
X131024285Y-93114761D01*
X130976666Y-93067142D01*
%TO.C,D4*%
X130706904Y-89987380D02*
X130706904Y-88987380D01*
X130945000Y-88987380D01*
X131087857Y-89035000D01*
X131183095Y-89130238D01*
X131230714Y-89225476D01*
X131278333Y-89415952D01*
X131278333Y-89558809D01*
X131230714Y-89749285D01*
X131183095Y-89844523D01*
X131087857Y-89939761D01*
X130945000Y-89987380D01*
X130706904Y-89987380D01*
X132135476Y-89320714D02*
X132135476Y-89987380D01*
X131897380Y-88939761D02*
X131659285Y-89654047D01*
X132278333Y-89654047D01*
%TO.C,R1*%
X132532380Y-105576666D02*
X132056190Y-105910000D01*
X132532380Y-106148095D02*
X131532380Y-106148095D01*
X131532380Y-105767142D01*
X131580000Y-105671904D01*
X131627619Y-105624285D01*
X131722857Y-105576666D01*
X131865714Y-105576666D01*
X131960952Y-105624285D01*
X132008571Y-105671904D01*
X132056190Y-105767142D01*
X132056190Y-106148095D01*
X132532380Y-104624285D02*
X132532380Y-105195714D01*
X132532380Y-104910000D02*
X131532380Y-104910000D01*
X131675238Y-105005238D01*
X131770476Y-105100476D01*
X131818095Y-105195714D01*
%TO.C,R2*%
X142708333Y-109037380D02*
X142375000Y-108561190D01*
X142136904Y-109037380D02*
X142136904Y-108037380D01*
X142517857Y-108037380D01*
X142613095Y-108085000D01*
X142660714Y-108132619D01*
X142708333Y-108227857D01*
X142708333Y-108370714D01*
X142660714Y-108465952D01*
X142613095Y-108513571D01*
X142517857Y-108561190D01*
X142136904Y-108561190D01*
X143089285Y-108132619D02*
X143136904Y-108085000D01*
X143232142Y-108037380D01*
X143470238Y-108037380D01*
X143565476Y-108085000D01*
X143613095Y-108132619D01*
X143660714Y-108227857D01*
X143660714Y-108323095D01*
X143613095Y-108465952D01*
X143041666Y-109037380D01*
X143660714Y-109037380D01*
%TO.C,R3*%
X132583333Y-86812380D02*
X132250000Y-86336190D01*
X132011904Y-86812380D02*
X132011904Y-85812380D01*
X132392857Y-85812380D01*
X132488095Y-85860000D01*
X132535714Y-85907619D01*
X132583333Y-86002857D01*
X132583333Y-86145714D01*
X132535714Y-86240952D01*
X132488095Y-86288571D01*
X132392857Y-86336190D01*
X132011904Y-86336190D01*
X132916666Y-85812380D02*
X133535714Y-85812380D01*
X133202380Y-86193333D01*
X133345238Y-86193333D01*
X133440476Y-86240952D01*
X133488095Y-86288571D01*
X133535714Y-86383809D01*
X133535714Y-86621904D01*
X133488095Y-86717142D01*
X133440476Y-86764761D01*
X133345238Y-86812380D01*
X133059523Y-86812380D01*
X132964285Y-86764761D01*
X132916666Y-86717142D01*
%TD*%
M02*
