G04 #@! TF.GenerationSoftware,KiCad,Pcbnew,(5.1.7)-1*
G04 #@! TF.CreationDate,2021-05-30T14:59:09-05:00*
G04 #@! TF.ProjectId,ConsolePedalDS1,436f6e73-6f6c-4655-9065-64616c445331,rev?*
G04 #@! TF.SameCoordinates,Original*
G04 #@! TF.FileFunction,Legend,Top*
G04 #@! TF.FilePolarity,Positive*
%FSLAX46Y46*%
G04 Gerber Fmt 4.6, Leading zero omitted, Abs format (unit mm)*
G04 Created by KiCad (PCBNEW (5.1.7)-1) date 2021-05-30 14:59:09*
%MOMM*%
%LPD*%
G01*
G04 APERTURE LIST*
%ADD10C,0.150000*%
%ADD11C,0.250000*%
%ADD12C,0.120000*%
G04 APERTURE END LIST*
D10*
X130571142Y-112107142D02*
X131214000Y-112107142D01*
X131342571Y-112150000D01*
X131428285Y-112235714D01*
X131471142Y-112364285D01*
X131471142Y-112450000D01*
X131471142Y-111250000D02*
X131471142Y-111678571D01*
X130571142Y-111678571D01*
X131385428Y-110435714D02*
X131428285Y-110478571D01*
X131471142Y-110607142D01*
X131471142Y-110692857D01*
X131428285Y-110821428D01*
X131342571Y-110907142D01*
X131256857Y-110950000D01*
X131085428Y-110992857D01*
X130956857Y-110992857D01*
X130785428Y-110950000D01*
X130699714Y-110907142D01*
X130614000Y-110821428D01*
X130571142Y-110692857D01*
X130571142Y-110607142D01*
X130614000Y-110478571D01*
X130656857Y-110435714D01*
X130571142Y-109792857D02*
X131214000Y-109792857D01*
X131342571Y-109835714D01*
X131428285Y-109921428D01*
X131471142Y-110050000D01*
X131471142Y-110135714D01*
X131471142Y-108935714D02*
X131471142Y-109364285D01*
X130571142Y-109364285D01*
X131385428Y-108121428D02*
X131428285Y-108164285D01*
X131471142Y-108292857D01*
X131471142Y-108378571D01*
X131428285Y-108507142D01*
X131342571Y-108592857D01*
X131256857Y-108635714D01*
X131085428Y-108678571D01*
X130956857Y-108678571D01*
X130785428Y-108635714D01*
X130699714Y-108592857D01*
X130614000Y-108507142D01*
X130571142Y-108378571D01*
X130571142Y-108292857D01*
X130614000Y-108164285D01*
X130656857Y-108121428D01*
X130571142Y-107478571D02*
X131214000Y-107478571D01*
X131342571Y-107521428D01*
X131428285Y-107607142D01*
X131471142Y-107735714D01*
X131471142Y-107821428D01*
X131471142Y-106621428D02*
X131471142Y-107050000D01*
X130571142Y-107050000D01*
X131385428Y-105807142D02*
X131428285Y-105850000D01*
X131471142Y-105978571D01*
X131471142Y-106064285D01*
X131428285Y-106192857D01*
X131342571Y-106278571D01*
X131256857Y-106321428D01*
X131085428Y-106364285D01*
X130956857Y-106364285D01*
X130785428Y-106321428D01*
X130699714Y-106278571D01*
X130614000Y-106192857D01*
X130571142Y-106064285D01*
X130571142Y-105978571D01*
X130614000Y-105850000D01*
X130656857Y-105807142D01*
X130571142Y-105164285D02*
X131214000Y-105164285D01*
X131342571Y-105207142D01*
X131428285Y-105292857D01*
X131471142Y-105421428D01*
X131471142Y-105507142D01*
X131471142Y-104307142D02*
X131471142Y-104735714D01*
X130571142Y-104735714D01*
X131385428Y-103492857D02*
X131428285Y-103535714D01*
X131471142Y-103664285D01*
X131471142Y-103750000D01*
X131428285Y-103878571D01*
X131342571Y-103964285D01*
X131256857Y-104007142D01*
X131085428Y-104050000D01*
X130956857Y-104050000D01*
X130785428Y-104007142D01*
X130699714Y-103964285D01*
X130614000Y-103878571D01*
X130571142Y-103750000D01*
X130571142Y-103664285D01*
X130614000Y-103535714D01*
X130656857Y-103492857D01*
D11*
X119107857Y-121820714D02*
X119036428Y-121892142D01*
X118822142Y-121963571D01*
X118679285Y-121963571D01*
X118465000Y-121892142D01*
X118322142Y-121749285D01*
X118250714Y-121606428D01*
X118179285Y-121320714D01*
X118179285Y-121106428D01*
X118250714Y-120820714D01*
X118322142Y-120677857D01*
X118465000Y-120535000D01*
X118679285Y-120463571D01*
X118822142Y-120463571D01*
X119036428Y-120535000D01*
X119107857Y-120606428D01*
X119965000Y-121963571D02*
X119822142Y-121892142D01*
X119750714Y-121820714D01*
X119679285Y-121677857D01*
X119679285Y-121249285D01*
X119750714Y-121106428D01*
X119822142Y-121035000D01*
X119965000Y-120963571D01*
X120179285Y-120963571D01*
X120322142Y-121035000D01*
X120393571Y-121106428D01*
X120465000Y-121249285D01*
X120465000Y-121677857D01*
X120393571Y-121820714D01*
X120322142Y-121892142D01*
X120179285Y-121963571D01*
X119965000Y-121963571D01*
X121107857Y-120963571D02*
X121107857Y-121963571D01*
X121107857Y-121106428D02*
X121179285Y-121035000D01*
X121322142Y-120963571D01*
X121536428Y-120963571D01*
X121679285Y-121035000D01*
X121750714Y-121177857D01*
X121750714Y-121963571D01*
X122393571Y-121892142D02*
X122536428Y-121963571D01*
X122822142Y-121963571D01*
X122965000Y-121892142D01*
X123036428Y-121749285D01*
X123036428Y-121677857D01*
X122965000Y-121535000D01*
X122822142Y-121463571D01*
X122607857Y-121463571D01*
X122465000Y-121392142D01*
X122393571Y-121249285D01*
X122393571Y-121177857D01*
X122465000Y-121035000D01*
X122607857Y-120963571D01*
X122822142Y-120963571D01*
X122965000Y-121035000D01*
X123893571Y-121963571D02*
X123750714Y-121892142D01*
X123679285Y-121820714D01*
X123607857Y-121677857D01*
X123607857Y-121249285D01*
X123679285Y-121106428D01*
X123750714Y-121035000D01*
X123893571Y-120963571D01*
X124107857Y-120963571D01*
X124250714Y-121035000D01*
X124322142Y-121106428D01*
X124393571Y-121249285D01*
X124393571Y-121677857D01*
X124322142Y-121820714D01*
X124250714Y-121892142D01*
X124107857Y-121963571D01*
X123893571Y-121963571D01*
X125250714Y-121963571D02*
X125107857Y-121892142D01*
X125036428Y-121749285D01*
X125036428Y-120463571D01*
X126393571Y-121892142D02*
X126250714Y-121963571D01*
X125965000Y-121963571D01*
X125822142Y-121892142D01*
X125750714Y-121749285D01*
X125750714Y-121177857D01*
X125822142Y-121035000D01*
X125965000Y-120963571D01*
X126250714Y-120963571D01*
X126393571Y-121035000D01*
X126465000Y-121177857D01*
X126465000Y-121320714D01*
X125750714Y-121463571D01*
X128250714Y-121963571D02*
X128250714Y-120463571D01*
X128822142Y-120463571D01*
X128965000Y-120535000D01*
X129036428Y-120606428D01*
X129107857Y-120749285D01*
X129107857Y-120963571D01*
X129036428Y-121106428D01*
X128965000Y-121177857D01*
X128822142Y-121249285D01*
X128250714Y-121249285D01*
X130322142Y-121892142D02*
X130179285Y-121963571D01*
X129893571Y-121963571D01*
X129750714Y-121892142D01*
X129679285Y-121749285D01*
X129679285Y-121177857D01*
X129750714Y-121035000D01*
X129893571Y-120963571D01*
X130179285Y-120963571D01*
X130322142Y-121035000D01*
X130393571Y-121177857D01*
X130393571Y-121320714D01*
X129679285Y-121463571D01*
X131679285Y-121963571D02*
X131679285Y-120463571D01*
X131679285Y-121892142D02*
X131536428Y-121963571D01*
X131250714Y-121963571D01*
X131107857Y-121892142D01*
X131036428Y-121820714D01*
X130965000Y-121677857D01*
X130965000Y-121249285D01*
X131036428Y-121106428D01*
X131107857Y-121035000D01*
X131250714Y-120963571D01*
X131536428Y-120963571D01*
X131679285Y-121035000D01*
X133036428Y-121963571D02*
X133036428Y-121177857D01*
X132965000Y-121035000D01*
X132822142Y-120963571D01*
X132536428Y-120963571D01*
X132393571Y-121035000D01*
X133036428Y-121892142D02*
X132893571Y-121963571D01*
X132536428Y-121963571D01*
X132393571Y-121892142D01*
X132322142Y-121749285D01*
X132322142Y-121606428D01*
X132393571Y-121463571D01*
X132536428Y-121392142D01*
X132893571Y-121392142D01*
X133036428Y-121320714D01*
X133965000Y-121963571D02*
X133822142Y-121892142D01*
X133750714Y-121749285D01*
X133750714Y-120463571D01*
X135679285Y-121963571D02*
X135679285Y-120463571D01*
X136036428Y-120463571D01*
X136250714Y-120535000D01*
X136393571Y-120677857D01*
X136465000Y-120820714D01*
X136536428Y-121106428D01*
X136536428Y-121320714D01*
X136465000Y-121606428D01*
X136393571Y-121749285D01*
X136250714Y-121892142D01*
X136036428Y-121963571D01*
X135679285Y-121963571D01*
X137107857Y-121892142D02*
X137322142Y-121963571D01*
X137679285Y-121963571D01*
X137822142Y-121892142D01*
X137893571Y-121820714D01*
X137965000Y-121677857D01*
X137965000Y-121535000D01*
X137893571Y-121392142D01*
X137822142Y-121320714D01*
X137679285Y-121249285D01*
X137393571Y-121177857D01*
X137250714Y-121106428D01*
X137179285Y-121035000D01*
X137107857Y-120892142D01*
X137107857Y-120749285D01*
X137179285Y-120606428D01*
X137250714Y-120535000D01*
X137393571Y-120463571D01*
X137750714Y-120463571D01*
X137965000Y-120535000D01*
X138607857Y-121392142D02*
X139750714Y-121392142D01*
X141250714Y-121963571D02*
X140393571Y-121963571D01*
X140822142Y-121963571D02*
X140822142Y-120463571D01*
X140679285Y-120677857D01*
X140536428Y-120820714D01*
X140393571Y-120892142D01*
X142822142Y-120463571D02*
X143322142Y-121963571D01*
X143822142Y-120463571D01*
X145107857Y-121963571D02*
X144250714Y-121963571D01*
X144679285Y-121963571D02*
X144679285Y-120463571D01*
X144536428Y-120677857D01*
X144393571Y-120820714D01*
X144250714Y-120892142D01*
X145750714Y-121820714D02*
X145822142Y-121892142D01*
X145750714Y-121963571D01*
X145679285Y-121892142D01*
X145750714Y-121820714D01*
X145750714Y-121963571D01*
X146750714Y-120463571D02*
X146893571Y-120463571D01*
X147036428Y-120535000D01*
X147107857Y-120606428D01*
X147179285Y-120749285D01*
X147250714Y-121035000D01*
X147250714Y-121392142D01*
X147179285Y-121677857D01*
X147107857Y-121820714D01*
X147036428Y-121892142D01*
X146893571Y-121963571D01*
X146750714Y-121963571D01*
X146607857Y-121892142D01*
X146536428Y-121820714D01*
X146465000Y-121677857D01*
X146393571Y-121392142D01*
X146393571Y-121035000D01*
X146465000Y-120749285D01*
X146536428Y-120606428D01*
X146607857Y-120535000D01*
X146750714Y-120463571D01*
X118365714Y-114373761D02*
X119508571Y-114373761D01*
X118937142Y-116373761D02*
X118937142Y-114373761D01*
X120175238Y-116373761D02*
X120175238Y-114373761D01*
X121032380Y-116373761D02*
X121032380Y-115326142D01*
X120937142Y-115135666D01*
X120746666Y-115040428D01*
X120460952Y-115040428D01*
X120270476Y-115135666D01*
X120175238Y-115230904D01*
X122270476Y-116373761D02*
X122080000Y-116278523D01*
X121984761Y-116183285D01*
X121889523Y-115992809D01*
X121889523Y-115421380D01*
X121984761Y-115230904D01*
X122080000Y-115135666D01*
X122270476Y-115040428D01*
X122556190Y-115040428D01*
X122746666Y-115135666D01*
X122841904Y-115230904D01*
X122937142Y-115421380D01*
X122937142Y-115992809D01*
X122841904Y-116183285D01*
X122746666Y-116278523D01*
X122556190Y-116373761D01*
X122270476Y-116373761D01*
X123794285Y-116373761D02*
X123794285Y-115040428D01*
X123794285Y-115230904D02*
X123889523Y-115135666D01*
X124080000Y-115040428D01*
X124365714Y-115040428D01*
X124556190Y-115135666D01*
X124651428Y-115326142D01*
X124651428Y-116373761D01*
X124651428Y-115326142D02*
X124746666Y-115135666D01*
X124937142Y-115040428D01*
X125222857Y-115040428D01*
X125413333Y-115135666D01*
X125508571Y-115326142D01*
X125508571Y-116373761D01*
X127318095Y-116373761D02*
X127318095Y-115326142D01*
X127222857Y-115135666D01*
X127032380Y-115040428D01*
X126651428Y-115040428D01*
X126460952Y-115135666D01*
X127318095Y-116278523D02*
X127127619Y-116373761D01*
X126651428Y-116373761D01*
X126460952Y-116278523D01*
X126365714Y-116088047D01*
X126365714Y-115897571D01*
X126460952Y-115707095D01*
X126651428Y-115611857D01*
X127127619Y-115611857D01*
X127318095Y-115516619D01*
X128175238Y-116278523D02*
X128365714Y-116373761D01*
X128746666Y-116373761D01*
X128937142Y-116278523D01*
X129032380Y-116088047D01*
X129032380Y-115992809D01*
X128937142Y-115802333D01*
X128746666Y-115707095D01*
X128460952Y-115707095D01*
X128270476Y-115611857D01*
X128175238Y-115421380D01*
X128175238Y-115326142D01*
X128270476Y-115135666D01*
X128460952Y-115040428D01*
X128746666Y-115040428D01*
X128937142Y-115135666D01*
X131413333Y-116373761D02*
X131413333Y-114373761D01*
X132080000Y-115802333D01*
X132746666Y-114373761D01*
X132746666Y-116373761D01*
X134556190Y-116278523D02*
X134365714Y-116373761D01*
X133984761Y-116373761D01*
X133794285Y-116278523D01*
X133699047Y-116183285D01*
X133603809Y-115992809D01*
X133603809Y-115421380D01*
X133699047Y-115230904D01*
X133794285Y-115135666D01*
X133984761Y-115040428D01*
X134365714Y-115040428D01*
X134556190Y-115135666D01*
X135413333Y-116373761D02*
X135413333Y-114373761D01*
X135889523Y-114373761D01*
X136175238Y-114469000D01*
X136365714Y-114659476D01*
X136460952Y-114849952D01*
X136556190Y-115230904D01*
X136556190Y-115516619D01*
X136460952Y-115897571D01*
X136365714Y-116088047D01*
X136175238Y-116278523D01*
X135889523Y-116373761D01*
X135413333Y-116373761D01*
X137699047Y-116373761D02*
X137508571Y-116278523D01*
X137413333Y-116183285D01*
X137318095Y-115992809D01*
X137318095Y-115421380D01*
X137413333Y-115230904D01*
X137508571Y-115135666D01*
X137699047Y-115040428D01*
X137984761Y-115040428D01*
X138175238Y-115135666D01*
X138270476Y-115230904D01*
X138365714Y-115421380D01*
X138365714Y-115992809D01*
X138270476Y-116183285D01*
X138175238Y-116278523D01*
X137984761Y-116373761D01*
X137699047Y-116373761D01*
X139222857Y-115040428D02*
X139222857Y-116373761D01*
X139222857Y-115230904D02*
X139318095Y-115135666D01*
X139508571Y-115040428D01*
X139794285Y-115040428D01*
X139984761Y-115135666D01*
X140080000Y-115326142D01*
X140080000Y-116373761D01*
X141889523Y-116373761D02*
X141889523Y-115326142D01*
X141794285Y-115135666D01*
X141603809Y-115040428D01*
X141222857Y-115040428D01*
X141032380Y-115135666D01*
X141889523Y-116278523D02*
X141699047Y-116373761D01*
X141222857Y-116373761D01*
X141032380Y-116278523D01*
X140937142Y-116088047D01*
X140937142Y-115897571D01*
X141032380Y-115707095D01*
X141222857Y-115611857D01*
X141699047Y-115611857D01*
X141889523Y-115516619D01*
X143699047Y-115040428D02*
X143699047Y-116659476D01*
X143603809Y-116849952D01*
X143508571Y-116945190D01*
X143318095Y-117040428D01*
X143032380Y-117040428D01*
X142841904Y-116945190D01*
X143699047Y-116278523D02*
X143508571Y-116373761D01*
X143127619Y-116373761D01*
X142937142Y-116278523D01*
X142841904Y-116183285D01*
X142746666Y-115992809D01*
X142746666Y-115421380D01*
X142841904Y-115230904D01*
X142937142Y-115135666D01*
X143127619Y-115040428D01*
X143508571Y-115040428D01*
X143699047Y-115135666D01*
X144651428Y-116373761D02*
X144651428Y-114373761D01*
X145508571Y-116373761D02*
X145508571Y-115326142D01*
X145413333Y-115135666D01*
X145222857Y-115040428D01*
X144937142Y-115040428D01*
X144746666Y-115135666D01*
X144651428Y-115230904D01*
X118080000Y-119623761D02*
X118080000Y-118290428D01*
X118080000Y-118480904D02*
X118175238Y-118385666D01*
X118365714Y-118290428D01*
X118651428Y-118290428D01*
X118841904Y-118385666D01*
X118937142Y-118576142D01*
X118937142Y-119623761D01*
X118937142Y-118576142D02*
X119032380Y-118385666D01*
X119222857Y-118290428D01*
X119508571Y-118290428D01*
X119699047Y-118385666D01*
X119794285Y-118576142D01*
X119794285Y-119623761D01*
X121603809Y-119528523D02*
X121413333Y-119623761D01*
X121032380Y-119623761D01*
X120841904Y-119528523D01*
X120746666Y-119433285D01*
X120651428Y-119242809D01*
X120651428Y-118671380D01*
X120746666Y-118480904D01*
X120841904Y-118385666D01*
X121032380Y-118290428D01*
X121413333Y-118290428D01*
X121603809Y-118385666D01*
X123318095Y-119623761D02*
X123318095Y-117623761D01*
X123318095Y-119528523D02*
X123127619Y-119623761D01*
X122746666Y-119623761D01*
X122556190Y-119528523D01*
X122460952Y-119433285D01*
X122365714Y-119242809D01*
X122365714Y-118671380D01*
X122460952Y-118480904D01*
X122556190Y-118385666D01*
X122746666Y-118290428D01*
X123127619Y-118290428D01*
X123318095Y-118385666D01*
X124556190Y-119623761D02*
X124365714Y-119528523D01*
X124270476Y-119433285D01*
X124175238Y-119242809D01*
X124175238Y-118671380D01*
X124270476Y-118480904D01*
X124365714Y-118385666D01*
X124556190Y-118290428D01*
X124841904Y-118290428D01*
X125032380Y-118385666D01*
X125127619Y-118480904D01*
X125222857Y-118671380D01*
X125222857Y-119242809D01*
X125127619Y-119433285D01*
X125032380Y-119528523D01*
X124841904Y-119623761D01*
X124556190Y-119623761D01*
X126080000Y-118290428D02*
X126080000Y-119623761D01*
X126080000Y-118480904D02*
X126175238Y-118385666D01*
X126365714Y-118290428D01*
X126651428Y-118290428D01*
X126841904Y-118385666D01*
X126937142Y-118576142D01*
X126937142Y-119623761D01*
X128746666Y-119623761D02*
X128746666Y-118576142D01*
X128651428Y-118385666D01*
X128460952Y-118290428D01*
X128080000Y-118290428D01*
X127889523Y-118385666D01*
X128746666Y-119528523D02*
X128556190Y-119623761D01*
X128080000Y-119623761D01*
X127889523Y-119528523D01*
X127794285Y-119338047D01*
X127794285Y-119147571D01*
X127889523Y-118957095D01*
X128080000Y-118861857D01*
X128556190Y-118861857D01*
X128746666Y-118766619D01*
X130556190Y-118290428D02*
X130556190Y-119909476D01*
X130460952Y-120099952D01*
X130365714Y-120195190D01*
X130175238Y-120290428D01*
X129889523Y-120290428D01*
X129699047Y-120195190D01*
X130556190Y-119528523D02*
X130365714Y-119623761D01*
X129984761Y-119623761D01*
X129794285Y-119528523D01*
X129699047Y-119433285D01*
X129603809Y-119242809D01*
X129603809Y-118671380D01*
X129699047Y-118480904D01*
X129794285Y-118385666D01*
X129984761Y-118290428D01*
X130365714Y-118290428D01*
X130556190Y-118385666D01*
X131508571Y-119623761D02*
X131508571Y-117623761D01*
X132365714Y-119623761D02*
X132365714Y-118576142D01*
X132270476Y-118385666D01*
X132080000Y-118290428D01*
X131794285Y-118290428D01*
X131603809Y-118385666D01*
X131508571Y-118480904D01*
X134175238Y-119528523D02*
X133984761Y-119623761D01*
X133603809Y-119623761D01*
X133413333Y-119528523D01*
X133318095Y-119433285D01*
X133222857Y-119242809D01*
X133222857Y-118671380D01*
X133318095Y-118480904D01*
X133413333Y-118385666D01*
X133603809Y-118290428D01*
X133984761Y-118290428D01*
X134175238Y-118385666D01*
X135318095Y-119623761D02*
X135127619Y-119528523D01*
X135032380Y-119433285D01*
X134937142Y-119242809D01*
X134937142Y-118671380D01*
X135032380Y-118480904D01*
X135127619Y-118385666D01*
X135318095Y-118290428D01*
X135603809Y-118290428D01*
X135794285Y-118385666D01*
X135889523Y-118480904D01*
X135984761Y-118671380D01*
X135984761Y-119242809D01*
X135889523Y-119433285D01*
X135794285Y-119528523D01*
X135603809Y-119623761D01*
X135318095Y-119623761D01*
X136841904Y-119623761D02*
X136841904Y-118290428D01*
X136841904Y-118671380D02*
X136937142Y-118480904D01*
X137032380Y-118385666D01*
X137222857Y-118290428D01*
X137413333Y-118290428D01*
X138080000Y-118290428D02*
X138080000Y-120290428D01*
X138080000Y-118385666D02*
X138270476Y-118290428D01*
X138651428Y-118290428D01*
X138841904Y-118385666D01*
X138937142Y-118480904D01*
X139032380Y-118671380D01*
X139032380Y-119242809D01*
X138937142Y-119433285D01*
X138841904Y-119528523D01*
X138651428Y-119623761D01*
X138270476Y-119623761D01*
X138080000Y-119528523D01*
X139889523Y-119433285D02*
X139984761Y-119528523D01*
X139889523Y-119623761D01*
X139794285Y-119528523D01*
X139889523Y-119433285D01*
X139889523Y-119623761D01*
X141699047Y-119528523D02*
X141508571Y-119623761D01*
X141127619Y-119623761D01*
X140937142Y-119528523D01*
X140841904Y-119433285D01*
X140746666Y-119242809D01*
X140746666Y-118671380D01*
X140841904Y-118480904D01*
X140937142Y-118385666D01*
X141127619Y-118290428D01*
X141508571Y-118290428D01*
X141699047Y-118385666D01*
X142841904Y-119623761D02*
X142651428Y-119528523D01*
X142556190Y-119433285D01*
X142460952Y-119242809D01*
X142460952Y-118671380D01*
X142556190Y-118480904D01*
X142651428Y-118385666D01*
X142841904Y-118290428D01*
X143127619Y-118290428D01*
X143318095Y-118385666D01*
X143413333Y-118480904D01*
X143508571Y-118671380D01*
X143508571Y-119242809D01*
X143413333Y-119433285D01*
X143318095Y-119528523D01*
X143127619Y-119623761D01*
X142841904Y-119623761D01*
X144365714Y-119623761D02*
X144365714Y-118290428D01*
X144365714Y-118480904D02*
X144460952Y-118385666D01*
X144651428Y-118290428D01*
X144937142Y-118290428D01*
X145127619Y-118385666D01*
X145222857Y-118576142D01*
X145222857Y-119623761D01*
X145222857Y-118576142D02*
X145318095Y-118385666D01*
X145508571Y-118290428D01*
X145794285Y-118290428D01*
X145984761Y-118385666D01*
X146080000Y-118576142D01*
X146080000Y-119623761D01*
D12*
G04 #@! TO.C,D7*
X117750000Y-96270000D02*
G75*
G03*
X117750000Y-96270000I-2500000J0D01*
G01*
X116795000Y-93710000D02*
X113705000Y-93710000D01*
X115249538Y-99260000D02*
G75*
G03*
X116794830Y-93710000I462J2990000D01*
G01*
X115250462Y-99260000D02*
G75*
G02*
X113705170Y-93710000I-462J2990000D01*
G01*
G04 #@! TO.C,D8*
X151795000Y-93710000D02*
X148705000Y-93710000D01*
X152750000Y-96270000D02*
G75*
G03*
X152750000Y-96270000I-2500000J0D01*
G01*
X150250462Y-99260000D02*
G75*
G02*
X148705170Y-93710000I-462J2990000D01*
G01*
X150249538Y-99260000D02*
G75*
G03*
X151794830Y-93710000I462J2990000D01*
G01*
G04 #@! TO.C,R28*
X177006000Y-79856000D02*
X177006000Y-77116000D01*
X177006000Y-77116000D02*
X170466000Y-77116000D01*
X170466000Y-77116000D02*
X170466000Y-79856000D01*
X170466000Y-79856000D02*
X177006000Y-79856000D01*
X177776000Y-78486000D02*
X177006000Y-78486000D01*
X169696000Y-78486000D02*
X170466000Y-78486000D01*
G04 #@! TO.C,C2*
X87760000Y-113638000D02*
X87760000Y-105148000D01*
X95200000Y-113638000D02*
X95200000Y-105148000D01*
X95200000Y-105148000D02*
X87760000Y-105148000D01*
X95200000Y-113638000D02*
X87760000Y-113638000D01*
G04 #@! TO.C,C3*
X176988000Y-113638000D02*
X169548000Y-113638000D01*
X176988000Y-105148000D02*
X169548000Y-105148000D01*
X176988000Y-113638000D02*
X176988000Y-105148000D01*
X169548000Y-113638000D02*
X169548000Y-105148000D01*
G04 #@! TO.C,C4*
X162924000Y-91440000D02*
X162884000Y-91440000D01*
X157504000Y-91440000D02*
X157544000Y-91440000D01*
X162884000Y-89770000D02*
X157544000Y-89770000D01*
X162884000Y-93110000D02*
X162884000Y-89770000D01*
X157544000Y-93110000D02*
X162884000Y-93110000D01*
X157544000Y-89770000D02*
X157544000Y-93110000D01*
G04 #@! TO.C,C5*
X136435000Y-93370000D02*
X128995000Y-93370000D01*
X136435000Y-84880000D02*
X128995000Y-84880000D01*
X136435000Y-93370000D02*
X136435000Y-84880000D01*
X128995000Y-93370000D02*
X128995000Y-84880000D01*
G04 #@! TO.C,C6*
X130762000Y-98910000D02*
X130762000Y-101750000D01*
X130762000Y-101750000D02*
X134802000Y-101750000D01*
X134802000Y-101750000D02*
X134802000Y-98910000D01*
X134802000Y-98910000D02*
X130762000Y-98910000D01*
X130072000Y-100330000D02*
X130762000Y-100330000D01*
X135492000Y-100330000D02*
X134802000Y-100330000D01*
G04 #@! TO.C,C7*
X110948000Y-111860000D02*
X103508000Y-111860000D01*
X110948000Y-100570000D02*
X103508000Y-100570000D01*
X110948000Y-111860000D02*
X110948000Y-100570000D01*
X103508000Y-111860000D02*
X103508000Y-100570000D01*
G04 #@! TO.C,C9*
X87760000Y-101700000D02*
X87760000Y-93210000D01*
X95200000Y-101700000D02*
X95200000Y-93210000D01*
X95200000Y-93210000D02*
X87760000Y-93210000D01*
X95200000Y-101700000D02*
X87760000Y-101700000D01*
G04 #@! TO.C,C10*
X176988000Y-101700000D02*
X169548000Y-101700000D01*
X176988000Y-93210000D02*
X169548000Y-93210000D01*
X176988000Y-101700000D02*
X176988000Y-93210000D01*
X169548000Y-101700000D02*
X169548000Y-93210000D01*
G04 #@! TO.C,C13*
X154054000Y-111860000D02*
X154054000Y-100570000D01*
X161494000Y-111860000D02*
X161494000Y-100570000D01*
X161494000Y-100570000D02*
X154054000Y-100570000D01*
X161494000Y-111860000D02*
X154054000Y-111860000D01*
G04 #@! TO.C,C14*
X125887241Y-111120000D02*
X125887241Y-110490000D01*
X126202241Y-110805000D02*
X125572241Y-110805000D01*
X119461000Y-109368000D02*
X119461000Y-108564000D01*
X119501000Y-109599000D02*
X119501000Y-108333000D01*
X119541000Y-109768000D02*
X119541000Y-108164000D01*
X119581000Y-109906000D02*
X119581000Y-108026000D01*
X119621000Y-110025000D02*
X119621000Y-107907000D01*
X119661000Y-110131000D02*
X119661000Y-107801000D01*
X119701000Y-110228000D02*
X119701000Y-107704000D01*
X119741000Y-110316000D02*
X119741000Y-107616000D01*
X119781000Y-110398000D02*
X119781000Y-107534000D01*
X119821000Y-110475000D02*
X119821000Y-107457000D01*
X119861000Y-110547000D02*
X119861000Y-107385000D01*
X119901000Y-110616000D02*
X119901000Y-107316000D01*
X119941000Y-110680000D02*
X119941000Y-107252000D01*
X119981000Y-110742000D02*
X119981000Y-107190000D01*
X120021000Y-110800000D02*
X120021000Y-107132000D01*
X120061000Y-110856000D02*
X120061000Y-107076000D01*
X120101000Y-110910000D02*
X120101000Y-107022000D01*
X120141000Y-110961000D02*
X120141000Y-106971000D01*
X120181000Y-111010000D02*
X120181000Y-106922000D01*
X120221000Y-111058000D02*
X120221000Y-106874000D01*
X120261000Y-111103000D02*
X120261000Y-106829000D01*
X120301000Y-111148000D02*
X120301000Y-106784000D01*
X120341000Y-111190000D02*
X120341000Y-106742000D01*
X120381000Y-111231000D02*
X120381000Y-106701000D01*
X120421000Y-107926000D02*
X120421000Y-106661000D01*
X120421000Y-111271000D02*
X120421000Y-110006000D01*
X120461000Y-107926000D02*
X120461000Y-106623000D01*
X120461000Y-111309000D02*
X120461000Y-110006000D01*
X120501000Y-107926000D02*
X120501000Y-106586000D01*
X120501000Y-111346000D02*
X120501000Y-110006000D01*
X120541000Y-107926000D02*
X120541000Y-106550000D01*
X120541000Y-111382000D02*
X120541000Y-110006000D01*
X120581000Y-107926000D02*
X120581000Y-106516000D01*
X120581000Y-111416000D02*
X120581000Y-110006000D01*
X120621000Y-107926000D02*
X120621000Y-106482000D01*
X120621000Y-111450000D02*
X120621000Y-110006000D01*
X120661000Y-107926000D02*
X120661000Y-106450000D01*
X120661000Y-111482000D02*
X120661000Y-110006000D01*
X120701000Y-107926000D02*
X120701000Y-106418000D01*
X120701000Y-111514000D02*
X120701000Y-110006000D01*
X120741000Y-107926000D02*
X120741000Y-106388000D01*
X120741000Y-111544000D02*
X120741000Y-110006000D01*
X120781000Y-107926000D02*
X120781000Y-106359000D01*
X120781000Y-111573000D02*
X120781000Y-110006000D01*
X120821000Y-107926000D02*
X120821000Y-106330000D01*
X120821000Y-111602000D02*
X120821000Y-110006000D01*
X120861000Y-107926000D02*
X120861000Y-106302000D01*
X120861000Y-111630000D02*
X120861000Y-110006000D01*
X120901000Y-107926000D02*
X120901000Y-106276000D01*
X120901000Y-111656000D02*
X120901000Y-110006000D01*
X120941000Y-107926000D02*
X120941000Y-106250000D01*
X120941000Y-111682000D02*
X120941000Y-110006000D01*
X120981000Y-107926000D02*
X120981000Y-106224000D01*
X120981000Y-111708000D02*
X120981000Y-110006000D01*
X121021000Y-107926000D02*
X121021000Y-106200000D01*
X121021000Y-111732000D02*
X121021000Y-110006000D01*
X121061000Y-107926000D02*
X121061000Y-106176000D01*
X121061000Y-111756000D02*
X121061000Y-110006000D01*
X121101000Y-107926000D02*
X121101000Y-106154000D01*
X121101000Y-111778000D02*
X121101000Y-110006000D01*
X121141000Y-107926000D02*
X121141000Y-106132000D01*
X121141000Y-111800000D02*
X121141000Y-110006000D01*
X121181000Y-107926000D02*
X121181000Y-106110000D01*
X121181000Y-111822000D02*
X121181000Y-110006000D01*
X121221000Y-107926000D02*
X121221000Y-106090000D01*
X121221000Y-111842000D02*
X121221000Y-110006000D01*
X121261000Y-107926000D02*
X121261000Y-106070000D01*
X121261000Y-111862000D02*
X121261000Y-110006000D01*
X121301000Y-107926000D02*
X121301000Y-106050000D01*
X121301000Y-111882000D02*
X121301000Y-110006000D01*
X121341000Y-107926000D02*
X121341000Y-106032000D01*
X121341000Y-111900000D02*
X121341000Y-110006000D01*
X121381000Y-107926000D02*
X121381000Y-106014000D01*
X121381000Y-111918000D02*
X121381000Y-110006000D01*
X121421000Y-107926000D02*
X121421000Y-105996000D01*
X121421000Y-111936000D02*
X121421000Y-110006000D01*
X121461000Y-107926000D02*
X121461000Y-105980000D01*
X121461000Y-111952000D02*
X121461000Y-110006000D01*
X121501000Y-107926000D02*
X121501000Y-105964000D01*
X121501000Y-111968000D02*
X121501000Y-110006000D01*
X121541000Y-107926000D02*
X121541000Y-105948000D01*
X121541000Y-111984000D02*
X121541000Y-110006000D01*
X121581000Y-107926000D02*
X121581000Y-105933000D01*
X121581000Y-111999000D02*
X121581000Y-110006000D01*
X121621000Y-107926000D02*
X121621000Y-105919000D01*
X121621000Y-112013000D02*
X121621000Y-110006000D01*
X121661000Y-107926000D02*
X121661000Y-105905000D01*
X121661000Y-112027000D02*
X121661000Y-110006000D01*
X121701000Y-107926000D02*
X121701000Y-105892000D01*
X121701000Y-112040000D02*
X121701000Y-110006000D01*
X121741000Y-107926000D02*
X121741000Y-105880000D01*
X121741000Y-112052000D02*
X121741000Y-110006000D01*
X121781000Y-107926000D02*
X121781000Y-105868000D01*
X121781000Y-112064000D02*
X121781000Y-110006000D01*
X121821000Y-107926000D02*
X121821000Y-105856000D01*
X121821000Y-112076000D02*
X121821000Y-110006000D01*
X121861000Y-107926000D02*
X121861000Y-105845000D01*
X121861000Y-112087000D02*
X121861000Y-110006000D01*
X121901000Y-107926000D02*
X121901000Y-105835000D01*
X121901000Y-112097000D02*
X121901000Y-110006000D01*
X121941000Y-107926000D02*
X121941000Y-105825000D01*
X121941000Y-112107000D02*
X121941000Y-110006000D01*
X121981000Y-107926000D02*
X121981000Y-105816000D01*
X121981000Y-112116000D02*
X121981000Y-110006000D01*
X122022000Y-107926000D02*
X122022000Y-105807000D01*
X122022000Y-112125000D02*
X122022000Y-110006000D01*
X122062000Y-107926000D02*
X122062000Y-105799000D01*
X122062000Y-112133000D02*
X122062000Y-110006000D01*
X122102000Y-107926000D02*
X122102000Y-105791000D01*
X122102000Y-112141000D02*
X122102000Y-110006000D01*
X122142000Y-107926000D02*
X122142000Y-105784000D01*
X122142000Y-112148000D02*
X122142000Y-110006000D01*
X122182000Y-107926000D02*
X122182000Y-105777000D01*
X122182000Y-112155000D02*
X122182000Y-110006000D01*
X122222000Y-107926000D02*
X122222000Y-105771000D01*
X122222000Y-112161000D02*
X122222000Y-110006000D01*
X122262000Y-107926000D02*
X122262000Y-105765000D01*
X122262000Y-112167000D02*
X122262000Y-110006000D01*
X122302000Y-107926000D02*
X122302000Y-105760000D01*
X122302000Y-112172000D02*
X122302000Y-110006000D01*
X122342000Y-107926000D02*
X122342000Y-105755000D01*
X122342000Y-112177000D02*
X122342000Y-110006000D01*
X122382000Y-107926000D02*
X122382000Y-105751000D01*
X122382000Y-112181000D02*
X122382000Y-110006000D01*
X122422000Y-107926000D02*
X122422000Y-105748000D01*
X122422000Y-112184000D02*
X122422000Y-110006000D01*
X122462000Y-107926000D02*
X122462000Y-105744000D01*
X122462000Y-112188000D02*
X122462000Y-110006000D01*
X122502000Y-112190000D02*
X122502000Y-105742000D01*
X122542000Y-112193000D02*
X122542000Y-105739000D01*
X122582000Y-112194000D02*
X122582000Y-105738000D01*
X122622000Y-112196000D02*
X122622000Y-105736000D01*
X122662000Y-112196000D02*
X122662000Y-105736000D01*
X122702000Y-112196000D02*
X122702000Y-105736000D01*
X125972000Y-108966000D02*
G75*
G03*
X125972000Y-108966000I-3270000J0D01*
G01*
X125972000Y-108966000D02*
X125972000Y-101966000D01*
X119432000Y-108966000D02*
X119432000Y-101966000D01*
X125972000Y-101966000D02*
X119432000Y-101966000D01*
G04 #@! TO.C,C15*
X145775975Y-111414900D02*
X145775975Y-110914900D01*
X146025975Y-111164900D02*
X145525975Y-111164900D01*
X139909000Y-109250000D02*
X139909000Y-108682000D01*
X139949000Y-109484000D02*
X139949000Y-108448000D01*
X139989000Y-109643000D02*
X139989000Y-108289000D01*
X140029000Y-109771000D02*
X140029000Y-108161000D01*
X140069000Y-109881000D02*
X140069000Y-108051000D01*
X140109000Y-109977000D02*
X140109000Y-107955000D01*
X140149000Y-110064000D02*
X140149000Y-107868000D01*
X140189000Y-110144000D02*
X140189000Y-107788000D01*
X140229000Y-110217000D02*
X140229000Y-107715000D01*
X140269000Y-110285000D02*
X140269000Y-107647000D01*
X140309000Y-110349000D02*
X140309000Y-107583000D01*
X140349000Y-110409000D02*
X140349000Y-107523000D01*
X140389000Y-110466000D02*
X140389000Y-107466000D01*
X140429000Y-110520000D02*
X140429000Y-107412000D01*
X140469000Y-110571000D02*
X140469000Y-107361000D01*
X140509000Y-107926000D02*
X140509000Y-107313000D01*
X140509000Y-110619000D02*
X140509000Y-110006000D01*
X140549000Y-107926000D02*
X140549000Y-107267000D01*
X140549000Y-110665000D02*
X140549000Y-110006000D01*
X140589000Y-107926000D02*
X140589000Y-107223000D01*
X140589000Y-110709000D02*
X140589000Y-110006000D01*
X140629000Y-107926000D02*
X140629000Y-107181000D01*
X140629000Y-110751000D02*
X140629000Y-110006000D01*
X140669000Y-107926000D02*
X140669000Y-107140000D01*
X140669000Y-110792000D02*
X140669000Y-110006000D01*
X140709000Y-107926000D02*
X140709000Y-107102000D01*
X140709000Y-110830000D02*
X140709000Y-110006000D01*
X140749000Y-107926000D02*
X140749000Y-107065000D01*
X140749000Y-110867000D02*
X140749000Y-110006000D01*
X140789000Y-107926000D02*
X140789000Y-107029000D01*
X140789000Y-110903000D02*
X140789000Y-110006000D01*
X140829000Y-107926000D02*
X140829000Y-106995000D01*
X140829000Y-110937000D02*
X140829000Y-110006000D01*
X140869000Y-107926000D02*
X140869000Y-106962000D01*
X140869000Y-110970000D02*
X140869000Y-110006000D01*
X140909000Y-107926000D02*
X140909000Y-106931000D01*
X140909000Y-111001000D02*
X140909000Y-110006000D01*
X140949000Y-107926000D02*
X140949000Y-106901000D01*
X140949000Y-111031000D02*
X140949000Y-110006000D01*
X140989000Y-107926000D02*
X140989000Y-106871000D01*
X140989000Y-111061000D02*
X140989000Y-110006000D01*
X141029000Y-107926000D02*
X141029000Y-106844000D01*
X141029000Y-111088000D02*
X141029000Y-110006000D01*
X141069000Y-107926000D02*
X141069000Y-106817000D01*
X141069000Y-111115000D02*
X141069000Y-110006000D01*
X141109000Y-107926000D02*
X141109000Y-106791000D01*
X141109000Y-111141000D02*
X141109000Y-110006000D01*
X141149000Y-107926000D02*
X141149000Y-106766000D01*
X141149000Y-111166000D02*
X141149000Y-110006000D01*
X141189000Y-107926000D02*
X141189000Y-106742000D01*
X141189000Y-111190000D02*
X141189000Y-110006000D01*
X141229000Y-107926000D02*
X141229000Y-106719000D01*
X141229000Y-111213000D02*
X141229000Y-110006000D01*
X141269000Y-107926000D02*
X141269000Y-106698000D01*
X141269000Y-111234000D02*
X141269000Y-110006000D01*
X141309000Y-107926000D02*
X141309000Y-106676000D01*
X141309000Y-111256000D02*
X141309000Y-110006000D01*
X141349000Y-107926000D02*
X141349000Y-106656000D01*
X141349000Y-111276000D02*
X141349000Y-110006000D01*
X141389000Y-107926000D02*
X141389000Y-106637000D01*
X141389000Y-111295000D02*
X141389000Y-110006000D01*
X141429000Y-107926000D02*
X141429000Y-106618000D01*
X141429000Y-111314000D02*
X141429000Y-110006000D01*
X141469000Y-107926000D02*
X141469000Y-106601000D01*
X141469000Y-111331000D02*
X141469000Y-110006000D01*
X141509000Y-107926000D02*
X141509000Y-106584000D01*
X141509000Y-111348000D02*
X141509000Y-110006000D01*
X141549000Y-107926000D02*
X141549000Y-106568000D01*
X141549000Y-111364000D02*
X141549000Y-110006000D01*
X141589000Y-107926000D02*
X141589000Y-106552000D01*
X141589000Y-111380000D02*
X141589000Y-110006000D01*
X141629000Y-107926000D02*
X141629000Y-106538000D01*
X141629000Y-111394000D02*
X141629000Y-110006000D01*
X141669000Y-107926000D02*
X141669000Y-106524000D01*
X141669000Y-111408000D02*
X141669000Y-110006000D01*
X141709000Y-107926000D02*
X141709000Y-106511000D01*
X141709000Y-111421000D02*
X141709000Y-110006000D01*
X141749000Y-107926000D02*
X141749000Y-106498000D01*
X141749000Y-111434000D02*
X141749000Y-110006000D01*
X141789000Y-107926000D02*
X141789000Y-106486000D01*
X141789000Y-111446000D02*
X141789000Y-110006000D01*
X141830000Y-107926000D02*
X141830000Y-106475000D01*
X141830000Y-111457000D02*
X141830000Y-110006000D01*
X141870000Y-107926000D02*
X141870000Y-106465000D01*
X141870000Y-111467000D02*
X141870000Y-110006000D01*
X141910000Y-107926000D02*
X141910000Y-106455000D01*
X141910000Y-111477000D02*
X141910000Y-110006000D01*
X141950000Y-107926000D02*
X141950000Y-106446000D01*
X141950000Y-111486000D02*
X141950000Y-110006000D01*
X141990000Y-107926000D02*
X141990000Y-106438000D01*
X141990000Y-111494000D02*
X141990000Y-110006000D01*
X142030000Y-107926000D02*
X142030000Y-106430000D01*
X142030000Y-111502000D02*
X142030000Y-110006000D01*
X142070000Y-107926000D02*
X142070000Y-106423000D01*
X142070000Y-111509000D02*
X142070000Y-110006000D01*
X142110000Y-107926000D02*
X142110000Y-106416000D01*
X142110000Y-111516000D02*
X142110000Y-110006000D01*
X142150000Y-107926000D02*
X142150000Y-106410000D01*
X142150000Y-111522000D02*
X142150000Y-110006000D01*
X142190000Y-107926000D02*
X142190000Y-106405000D01*
X142190000Y-111527000D02*
X142190000Y-110006000D01*
X142230000Y-107926000D02*
X142230000Y-106401000D01*
X142230000Y-111531000D02*
X142230000Y-110006000D01*
X142270000Y-107926000D02*
X142270000Y-106397000D01*
X142270000Y-111535000D02*
X142270000Y-110006000D01*
X142310000Y-107926000D02*
X142310000Y-106393000D01*
X142310000Y-111539000D02*
X142310000Y-110006000D01*
X142350000Y-107926000D02*
X142350000Y-106390000D01*
X142350000Y-111542000D02*
X142350000Y-110006000D01*
X142390000Y-107926000D02*
X142390000Y-106388000D01*
X142390000Y-111544000D02*
X142390000Y-110006000D01*
X142430000Y-107926000D02*
X142430000Y-106387000D01*
X142430000Y-111545000D02*
X142430000Y-110006000D01*
X142470000Y-111546000D02*
X142470000Y-110006000D01*
X142470000Y-107926000D02*
X142470000Y-106386000D01*
X142510000Y-111546000D02*
X142510000Y-110006000D01*
X142510000Y-107926000D02*
X142510000Y-106386000D01*
X145780000Y-108966000D02*
G75*
G03*
X145780000Y-108966000I-3270000J0D01*
G01*
X139240000Y-108966000D02*
X139240000Y-97966000D01*
X145780000Y-108966000D02*
X145780000Y-97966000D01*
X145780000Y-97966000D02*
X139240000Y-97966000D01*
G04 #@! TO.C,C16*
X107806000Y-91440000D02*
X107116000Y-91440000D01*
X102386000Y-91440000D02*
X103076000Y-91440000D01*
X107116000Y-90020000D02*
X103076000Y-90020000D01*
X107116000Y-92860000D02*
X107116000Y-90020000D01*
X103076000Y-92860000D02*
X107116000Y-92860000D01*
X103076000Y-90020000D02*
X103076000Y-92860000D01*
G04 #@! TO.C,D1*
X162710000Y-108962000D02*
X164950000Y-108962000D01*
X162710000Y-108722000D02*
X164950000Y-108722000D01*
X162710000Y-108842000D02*
X164950000Y-108842000D01*
X163830000Y-104672000D02*
X163830000Y-105322000D01*
X163830000Y-110212000D02*
X163830000Y-109562000D01*
X162710000Y-105322000D02*
X162710000Y-109562000D01*
X164950000Y-105322000D02*
X162710000Y-105322000D01*
X164950000Y-109562000D02*
X164950000Y-105322000D01*
X162710000Y-109562000D02*
X164950000Y-109562000D01*
G04 #@! TO.C,D2*
X97178000Y-108962000D02*
X99418000Y-108962000D01*
X97178000Y-108722000D02*
X99418000Y-108722000D01*
X97178000Y-108842000D02*
X99418000Y-108842000D01*
X98298000Y-104672000D02*
X98298000Y-105322000D01*
X98298000Y-110212000D02*
X98298000Y-109562000D01*
X97178000Y-105322000D02*
X97178000Y-109562000D01*
X99418000Y-105322000D02*
X97178000Y-105322000D01*
X99418000Y-109562000D02*
X99418000Y-105322000D01*
X97178000Y-109562000D02*
X99418000Y-109562000D01*
G04 #@! TO.C,D3*
X99972000Y-109562000D02*
X102212000Y-109562000D01*
X102212000Y-109562000D02*
X102212000Y-105322000D01*
X102212000Y-105322000D02*
X99972000Y-105322000D01*
X99972000Y-105322000D02*
X99972000Y-109562000D01*
X101092000Y-110212000D02*
X101092000Y-109562000D01*
X101092000Y-104672000D02*
X101092000Y-105322000D01*
X99972000Y-108842000D02*
X102212000Y-108842000D01*
X99972000Y-108722000D02*
X102212000Y-108722000D01*
X99972000Y-108962000D02*
X102212000Y-108962000D01*
G04 #@! TO.C,D4*
X102962000Y-93272000D02*
X102962000Y-96212000D01*
X103202000Y-93272000D02*
X103202000Y-96212000D01*
X103082000Y-93272000D02*
X103082000Y-96212000D01*
X108642000Y-94742000D02*
X107622000Y-94742000D01*
X101162000Y-94742000D02*
X102182000Y-94742000D01*
X107622000Y-93272000D02*
X102182000Y-93272000D01*
X107622000Y-96212000D02*
X107622000Y-93272000D01*
X102182000Y-96212000D02*
X107622000Y-96212000D01*
X102182000Y-93272000D02*
X102182000Y-96212000D01*
G04 #@! TO.C,D5*
X162394000Y-95862000D02*
X162394000Y-93622000D01*
X162394000Y-93622000D02*
X158154000Y-93622000D01*
X158154000Y-93622000D02*
X158154000Y-95862000D01*
X158154000Y-95862000D02*
X162394000Y-95862000D01*
X163044000Y-94742000D02*
X162394000Y-94742000D01*
X157504000Y-94742000D02*
X158154000Y-94742000D01*
X161674000Y-95862000D02*
X161674000Y-93622000D01*
X161554000Y-95862000D02*
X161554000Y-93622000D01*
X161794000Y-95862000D02*
X161794000Y-93622000D01*
G04 #@! TO.C,D6*
X165504000Y-108962000D02*
X167744000Y-108962000D01*
X165504000Y-108722000D02*
X167744000Y-108722000D01*
X165504000Y-108842000D02*
X167744000Y-108842000D01*
X166624000Y-104672000D02*
X166624000Y-105322000D01*
X166624000Y-110212000D02*
X166624000Y-109562000D01*
X165504000Y-105322000D02*
X165504000Y-109562000D01*
X167744000Y-105322000D02*
X165504000Y-105322000D01*
X167744000Y-109562000D02*
X167744000Y-105322000D01*
X165504000Y-109562000D02*
X167744000Y-109562000D01*
G04 #@! TO.C,Q1*
X103356000Y-89350000D02*
X106956000Y-89350000D01*
X103317522Y-89338478D02*
G75*
G02*
X105156000Y-84900000I1838478J1838478D01*
G01*
X106994478Y-89338478D02*
G75*
G03*
X105156000Y-84900000I-1838478J1838478D01*
G01*
G04 #@! TO.C,Q2*
X130915000Y-98350000D02*
X134515000Y-98350000D01*
X130876522Y-98338478D02*
G75*
G02*
X132715000Y-93900000I1838478J1838478D01*
G01*
X134553478Y-98338478D02*
G75*
G03*
X132715000Y-93900000I-1838478J1838478D01*
G01*
G04 #@! TO.C,Q3*
X158474000Y-89350000D02*
X162074000Y-89350000D01*
X162112478Y-89338478D02*
G75*
G03*
X160274000Y-84900000I-1838478J1838478D01*
G01*
X158435522Y-89338478D02*
G75*
G02*
X160274000Y-84900000I1838478J1838478D01*
G01*
G04 #@! TO.C,R1*
X94972000Y-88392000D02*
X94202000Y-88392000D01*
X86892000Y-88392000D02*
X87662000Y-88392000D01*
X94202000Y-87022000D02*
X87662000Y-87022000D01*
X94202000Y-89762000D02*
X94202000Y-87022000D01*
X87662000Y-89762000D02*
X94202000Y-89762000D01*
X87662000Y-87022000D02*
X87662000Y-89762000D01*
G04 #@! TO.C,R2*
X87662000Y-83720000D02*
X87662000Y-86460000D01*
X87662000Y-86460000D02*
X94202000Y-86460000D01*
X94202000Y-86460000D02*
X94202000Y-83720000D01*
X94202000Y-83720000D02*
X87662000Y-83720000D01*
X86892000Y-85090000D02*
X87662000Y-85090000D01*
X94972000Y-85090000D02*
X94202000Y-85090000D01*
G04 #@! TO.C,R3*
X114908000Y-102902000D02*
X112168000Y-102902000D01*
X112168000Y-102902000D02*
X112168000Y-109442000D01*
X112168000Y-109442000D02*
X114908000Y-109442000D01*
X114908000Y-109442000D02*
X114908000Y-102902000D01*
X113538000Y-102132000D02*
X113538000Y-102902000D01*
X113538000Y-110212000D02*
X113538000Y-109442000D01*
G04 #@! TO.C,R4*
X87662000Y-73814000D02*
X87662000Y-76554000D01*
X87662000Y-76554000D02*
X94202000Y-76554000D01*
X94202000Y-76554000D02*
X94202000Y-73814000D01*
X94202000Y-73814000D02*
X87662000Y-73814000D01*
X86892000Y-75184000D02*
X87662000Y-75184000D01*
X94972000Y-75184000D02*
X94202000Y-75184000D01*
G04 #@! TO.C,R5*
X86892000Y-78486000D02*
X87662000Y-78486000D01*
X94972000Y-78486000D02*
X94202000Y-78486000D01*
X87662000Y-79856000D02*
X94202000Y-79856000D01*
X87662000Y-77116000D02*
X87662000Y-79856000D01*
X94202000Y-77116000D02*
X87662000Y-77116000D01*
X94202000Y-79856000D02*
X94202000Y-77116000D01*
G04 #@! TO.C,R6*
X122912000Y-71882000D02*
X122142000Y-71882000D01*
X114832000Y-71882000D02*
X115602000Y-71882000D01*
X122142000Y-70512000D02*
X115602000Y-70512000D01*
X122142000Y-73252000D02*
X122142000Y-70512000D01*
X115602000Y-73252000D02*
X122142000Y-73252000D01*
X115602000Y-70512000D02*
X115602000Y-73252000D01*
G04 #@! TO.C,R7*
X149574000Y-76554000D02*
X149574000Y-73814000D01*
X149574000Y-73814000D02*
X143034000Y-73814000D01*
X143034000Y-73814000D02*
X143034000Y-76554000D01*
X143034000Y-76554000D02*
X149574000Y-76554000D01*
X150344000Y-75184000D02*
X149574000Y-75184000D01*
X142264000Y-75184000D02*
X143034000Y-75184000D01*
G04 #@! TO.C,R8*
X122912000Y-88392000D02*
X122142000Y-88392000D01*
X114832000Y-88392000D02*
X115602000Y-88392000D01*
X122142000Y-87022000D02*
X115602000Y-87022000D01*
X122142000Y-89762000D02*
X122142000Y-87022000D01*
X115602000Y-89762000D02*
X122142000Y-89762000D01*
X115602000Y-87022000D02*
X115602000Y-89762000D01*
G04 #@! TO.C,R9*
X115602000Y-73814000D02*
X115602000Y-76554000D01*
X115602000Y-76554000D02*
X122142000Y-76554000D01*
X122142000Y-76554000D02*
X122142000Y-73814000D01*
X122142000Y-73814000D02*
X115602000Y-73814000D01*
X114832000Y-75184000D02*
X115602000Y-75184000D01*
X122912000Y-75184000D02*
X122142000Y-75184000D01*
G04 #@! TO.C,R10*
X86892000Y-81788000D02*
X87662000Y-81788000D01*
X94972000Y-81788000D02*
X94202000Y-81788000D01*
X87662000Y-83158000D02*
X94202000Y-83158000D01*
X87662000Y-80418000D02*
X87662000Y-83158000D01*
X94202000Y-80418000D02*
X87662000Y-80418000D01*
X94202000Y-83158000D02*
X94202000Y-80418000D01*
G04 #@! TO.C,R11*
X149574000Y-89762000D02*
X149574000Y-87022000D01*
X149574000Y-87022000D02*
X143034000Y-87022000D01*
X143034000Y-87022000D02*
X143034000Y-89762000D01*
X143034000Y-89762000D02*
X149574000Y-89762000D01*
X150344000Y-88392000D02*
X149574000Y-88392000D01*
X142264000Y-88392000D02*
X143034000Y-88392000D01*
G04 #@! TO.C,R12*
X122142000Y-83158000D02*
X122142000Y-80418000D01*
X122142000Y-80418000D02*
X115602000Y-80418000D01*
X115602000Y-80418000D02*
X115602000Y-83158000D01*
X115602000Y-83158000D02*
X122142000Y-83158000D01*
X122912000Y-81788000D02*
X122142000Y-81788000D01*
X114832000Y-81788000D02*
X115602000Y-81788000D01*
G04 #@! TO.C,R13*
X118210000Y-102902000D02*
X115470000Y-102902000D01*
X115470000Y-102902000D02*
X115470000Y-109442000D01*
X115470000Y-109442000D02*
X118210000Y-109442000D01*
X118210000Y-109442000D02*
X118210000Y-102902000D01*
X116840000Y-102132000D02*
X116840000Y-102902000D01*
X116840000Y-110212000D02*
X116840000Y-109442000D01*
G04 #@! TO.C,R14*
X122912000Y-78486000D02*
X122142000Y-78486000D01*
X114832000Y-78486000D02*
X115602000Y-78486000D01*
X122142000Y-77116000D02*
X115602000Y-77116000D01*
X122142000Y-79856000D02*
X122142000Y-77116000D01*
X115602000Y-79856000D02*
X122142000Y-79856000D01*
X115602000Y-77116000D02*
X115602000Y-79856000D01*
G04 #@! TO.C,R15*
X143034000Y-70512000D02*
X143034000Y-73252000D01*
X143034000Y-73252000D02*
X149574000Y-73252000D01*
X149574000Y-73252000D02*
X149574000Y-70512000D01*
X149574000Y-70512000D02*
X143034000Y-70512000D01*
X142264000Y-71882000D02*
X143034000Y-71882000D01*
X150344000Y-71882000D02*
X149574000Y-71882000D01*
G04 #@! TO.C,R16*
X169696000Y-71882000D02*
X170466000Y-71882000D01*
X177776000Y-71882000D02*
X177006000Y-71882000D01*
X170466000Y-73252000D02*
X177006000Y-73252000D01*
X170466000Y-70512000D02*
X170466000Y-73252000D01*
X177006000Y-70512000D02*
X170466000Y-70512000D01*
X177006000Y-73252000D02*
X177006000Y-70512000D01*
G04 #@! TO.C,R17*
X143034000Y-80418000D02*
X143034000Y-83158000D01*
X143034000Y-83158000D02*
X149574000Y-83158000D01*
X149574000Y-83158000D02*
X149574000Y-80418000D01*
X149574000Y-80418000D02*
X143034000Y-80418000D01*
X142264000Y-81788000D02*
X143034000Y-81788000D01*
X150344000Y-81788000D02*
X149574000Y-81788000D01*
G04 #@! TO.C,R18*
X142264000Y-85090000D02*
X143034000Y-85090000D01*
X150344000Y-85090000D02*
X149574000Y-85090000D01*
X143034000Y-86460000D02*
X149574000Y-86460000D01*
X143034000Y-83720000D02*
X143034000Y-86460000D01*
X149574000Y-83720000D02*
X143034000Y-83720000D01*
X149574000Y-86460000D02*
X149574000Y-83720000D01*
G04 #@! TO.C,R19*
X177006000Y-89762000D02*
X177006000Y-87022000D01*
X177006000Y-87022000D02*
X170466000Y-87022000D01*
X170466000Y-87022000D02*
X170466000Y-89762000D01*
X170466000Y-89762000D02*
X177006000Y-89762000D01*
X177776000Y-88392000D02*
X177006000Y-88392000D01*
X169696000Y-88392000D02*
X170466000Y-88392000D01*
G04 #@! TO.C,R20*
X169696000Y-85090000D02*
X170466000Y-85090000D01*
X177776000Y-85090000D02*
X177006000Y-85090000D01*
X170466000Y-86460000D02*
X177006000Y-86460000D01*
X170466000Y-83720000D02*
X170466000Y-86460000D01*
X177006000Y-83720000D02*
X170466000Y-83720000D01*
X177006000Y-86460000D02*
X177006000Y-83720000D01*
G04 #@! TO.C,R21*
X143034000Y-77116000D02*
X143034000Y-79856000D01*
X143034000Y-79856000D02*
X149574000Y-79856000D01*
X149574000Y-79856000D02*
X149574000Y-77116000D01*
X149574000Y-77116000D02*
X143034000Y-77116000D01*
X142264000Y-78486000D02*
X143034000Y-78486000D01*
X150344000Y-78486000D02*
X149574000Y-78486000D01*
G04 #@! TO.C,R22*
X177776000Y-81788000D02*
X177006000Y-81788000D01*
X169696000Y-81788000D02*
X170466000Y-81788000D01*
X177006000Y-80418000D02*
X170466000Y-80418000D01*
X177006000Y-83158000D02*
X177006000Y-80418000D01*
X170466000Y-83158000D02*
X177006000Y-83158000D01*
X170466000Y-80418000D02*
X170466000Y-83158000D01*
G04 #@! TO.C,R23*
X177006000Y-76554000D02*
X177006000Y-73814000D01*
X177006000Y-73814000D02*
X170466000Y-73814000D01*
X170466000Y-73814000D02*
X170466000Y-76554000D01*
X170466000Y-76554000D02*
X177006000Y-76554000D01*
X177776000Y-75184000D02*
X177006000Y-75184000D01*
X169696000Y-75184000D02*
X170466000Y-75184000D01*
G04 #@! TO.C,R24*
X122912000Y-85090000D02*
X122142000Y-85090000D01*
X114832000Y-85090000D02*
X115602000Y-85090000D01*
X122142000Y-83720000D02*
X115602000Y-83720000D01*
X122142000Y-86460000D02*
X122142000Y-83720000D01*
X115602000Y-86460000D02*
X122142000Y-86460000D01*
X115602000Y-83720000D02*
X115602000Y-86460000D01*
G04 #@! TO.C,R25*
X86892000Y-71882000D02*
X87662000Y-71882000D01*
X94972000Y-71882000D02*
X94202000Y-71882000D01*
X87662000Y-73252000D02*
X94202000Y-73252000D01*
X87662000Y-70512000D02*
X87662000Y-73252000D01*
X94202000Y-70512000D02*
X87662000Y-70512000D01*
X94202000Y-73252000D02*
X94202000Y-70512000D01*
G04 #@! TO.C,R26*
X148590000Y-110212000D02*
X148590000Y-109442000D01*
X148590000Y-102132000D02*
X148590000Y-102902000D01*
X149960000Y-109442000D02*
X149960000Y-102902000D01*
X147220000Y-109442000D02*
X149960000Y-109442000D01*
X147220000Y-102902000D02*
X147220000Y-109442000D01*
X149960000Y-102902000D02*
X147220000Y-102902000D01*
G04 #@! TO.C,R27*
X151892000Y-110212000D02*
X151892000Y-109442000D01*
X151892000Y-102132000D02*
X151892000Y-102902000D01*
X153262000Y-109442000D02*
X153262000Y-102902000D01*
X150522000Y-109442000D02*
X153262000Y-109442000D01*
X150522000Y-102902000D02*
X150522000Y-109442000D01*
X153262000Y-102902000D02*
X150522000Y-102902000D01*
G04 #@! TO.C,RV1*
X100169000Y-70319000D02*
X110109000Y-70319000D01*
X108509000Y-82559000D02*
X110109000Y-82559000D01*
X106010000Y-82559000D02*
X106769000Y-82559000D01*
X103510000Y-82559000D02*
X104269000Y-82559000D01*
X100169000Y-82559000D02*
X101768000Y-82559000D01*
X110109000Y-74184000D02*
X110109000Y-70319000D01*
X110109000Y-82559000D02*
X110109000Y-78694000D01*
X100169000Y-74184000D02*
X100169000Y-70319000D01*
X100169000Y-82559000D02*
X100169000Y-78694000D01*
G04 #@! TO.C,RV2*
X127745000Y-70319000D02*
X137685000Y-70319000D01*
X136085000Y-82559000D02*
X137685000Y-82559000D01*
X133586000Y-82559000D02*
X134345000Y-82559000D01*
X131086000Y-82559000D02*
X131845000Y-82559000D01*
X127745000Y-82559000D02*
X129344000Y-82559000D01*
X137685000Y-74184000D02*
X137685000Y-70319000D01*
X137685000Y-82559000D02*
X137685000Y-78694000D01*
X127745000Y-74184000D02*
X127745000Y-70319000D01*
X127745000Y-82559000D02*
X127745000Y-78694000D01*
G04 #@! TO.C,RV3*
X155245000Y-82559000D02*
X155245000Y-78694000D01*
X155245000Y-74184000D02*
X155245000Y-70319000D01*
X165185000Y-82559000D02*
X165185000Y-78694000D01*
X165185000Y-74184000D02*
X165185000Y-70319000D01*
X155245000Y-82559000D02*
X156844000Y-82559000D01*
X158586000Y-82559000D02*
X159345000Y-82559000D01*
X161086000Y-82559000D02*
X161845000Y-82559000D01*
X163585000Y-82559000D02*
X165185000Y-82559000D01*
X155245000Y-70319000D02*
X165185000Y-70319000D01*
G04 #@! TO.C,U1*
X137855000Y-102496000D02*
X127575000Y-102496000D01*
X137855000Y-112896000D02*
X137855000Y-102496000D01*
X127575000Y-112896000D02*
X137855000Y-112896000D01*
X127575000Y-102496000D02*
X127575000Y-112896000D01*
X135365000Y-102556000D02*
X133715000Y-102556000D01*
X135365000Y-112836000D02*
X135365000Y-102556000D01*
X130065000Y-112836000D02*
X135365000Y-112836000D01*
X130065000Y-102556000D02*
X130065000Y-112836000D01*
X131715000Y-102556000D02*
X130065000Y-102556000D01*
X133715000Y-102556000D02*
G75*
G02*
X131715000Y-102556000I-1000000J0D01*
G01*
G04 #@! TO.C,R28*
D10*
X173093142Y-78938380D02*
X172759809Y-78462190D01*
X172521714Y-78938380D02*
X172521714Y-77938380D01*
X172902666Y-77938380D01*
X172997904Y-77986000D01*
X173045523Y-78033619D01*
X173093142Y-78128857D01*
X173093142Y-78271714D01*
X173045523Y-78366952D01*
X172997904Y-78414571D01*
X172902666Y-78462190D01*
X172521714Y-78462190D01*
X173474095Y-78033619D02*
X173521714Y-77986000D01*
X173616952Y-77938380D01*
X173855047Y-77938380D01*
X173950285Y-77986000D01*
X173997904Y-78033619D01*
X174045523Y-78128857D01*
X174045523Y-78224095D01*
X173997904Y-78366952D01*
X173426476Y-78938380D01*
X174045523Y-78938380D01*
X174616952Y-78366952D02*
X174521714Y-78319333D01*
X174474095Y-78271714D01*
X174426476Y-78176476D01*
X174426476Y-78128857D01*
X174474095Y-78033619D01*
X174521714Y-77986000D01*
X174616952Y-77938380D01*
X174807428Y-77938380D01*
X174902666Y-77986000D01*
X174950285Y-78033619D01*
X174997904Y-78128857D01*
X174997904Y-78176476D01*
X174950285Y-78271714D01*
X174902666Y-78319333D01*
X174807428Y-78366952D01*
X174616952Y-78366952D01*
X174521714Y-78414571D01*
X174474095Y-78462190D01*
X174426476Y-78557428D01*
X174426476Y-78747904D01*
X174474095Y-78843142D01*
X174521714Y-78890761D01*
X174616952Y-78938380D01*
X174807428Y-78938380D01*
X174902666Y-78890761D01*
X174950285Y-78843142D01*
X174997904Y-78747904D01*
X174997904Y-78557428D01*
X174950285Y-78462190D01*
X174902666Y-78414571D01*
X174807428Y-78366952D01*
G04 #@! TO.C,C2*
X91313333Y-110085142D02*
X91265714Y-110132761D01*
X91122857Y-110180380D01*
X91027619Y-110180380D01*
X90884761Y-110132761D01*
X90789523Y-110037523D01*
X90741904Y-109942285D01*
X90694285Y-109751809D01*
X90694285Y-109608952D01*
X90741904Y-109418476D01*
X90789523Y-109323238D01*
X90884761Y-109228000D01*
X91027619Y-109180380D01*
X91122857Y-109180380D01*
X91265714Y-109228000D01*
X91313333Y-109275619D01*
X91694285Y-109275619D02*
X91741904Y-109228000D01*
X91837142Y-109180380D01*
X92075238Y-109180380D01*
X92170476Y-109228000D01*
X92218095Y-109275619D01*
X92265714Y-109370857D01*
X92265714Y-109466095D01*
X92218095Y-109608952D01*
X91646666Y-110180380D01*
X92265714Y-110180380D01*
G04 #@! TO.C,C3*
X173101333Y-110085142D02*
X173053714Y-110132761D01*
X172910857Y-110180380D01*
X172815619Y-110180380D01*
X172672761Y-110132761D01*
X172577523Y-110037523D01*
X172529904Y-109942285D01*
X172482285Y-109751809D01*
X172482285Y-109608952D01*
X172529904Y-109418476D01*
X172577523Y-109323238D01*
X172672761Y-109228000D01*
X172815619Y-109180380D01*
X172910857Y-109180380D01*
X173053714Y-109228000D01*
X173101333Y-109275619D01*
X173434666Y-109180380D02*
X174053714Y-109180380D01*
X173720380Y-109561333D01*
X173863238Y-109561333D01*
X173958476Y-109608952D01*
X174006095Y-109656571D01*
X174053714Y-109751809D01*
X174053714Y-109989904D01*
X174006095Y-110085142D01*
X173958476Y-110132761D01*
X173863238Y-110180380D01*
X173577523Y-110180380D01*
X173482285Y-110132761D01*
X173434666Y-110085142D01*
G04 #@! TO.C,C4*
X160047333Y-91750141D02*
X159999714Y-91797760D01*
X159856857Y-91845379D01*
X159761619Y-91845379D01*
X159618761Y-91797760D01*
X159523523Y-91702522D01*
X159475904Y-91607284D01*
X159428285Y-91416808D01*
X159428285Y-91273951D01*
X159475904Y-91083475D01*
X159523523Y-90988237D01*
X159618761Y-90892999D01*
X159761619Y-90845379D01*
X159856857Y-90845379D01*
X159999714Y-90892999D01*
X160047333Y-90940618D01*
X160904476Y-91178713D02*
X160904476Y-91845379D01*
X160666380Y-90797760D02*
X160428285Y-91512046D01*
X161047333Y-91512046D01*
G04 #@! TO.C,C5*
X132548333Y-89817142D02*
X132500714Y-89864761D01*
X132357857Y-89912380D01*
X132262619Y-89912380D01*
X132119761Y-89864761D01*
X132024523Y-89769523D01*
X131976904Y-89674285D01*
X131929285Y-89483809D01*
X131929285Y-89340952D01*
X131976904Y-89150476D01*
X132024523Y-89055238D01*
X132119761Y-88960000D01*
X132262619Y-88912380D01*
X132357857Y-88912380D01*
X132500714Y-88960000D01*
X132548333Y-89007619D01*
X133453095Y-88912380D02*
X132976904Y-88912380D01*
X132929285Y-89388571D01*
X132976904Y-89340952D01*
X133072142Y-89293333D01*
X133310238Y-89293333D01*
X133405476Y-89340952D01*
X133453095Y-89388571D01*
X133500714Y-89483809D01*
X133500714Y-89721904D01*
X133453095Y-89817142D01*
X133405476Y-89864761D01*
X133310238Y-89912380D01*
X133072142Y-89912380D01*
X132976904Y-89864761D01*
X132929285Y-89817142D01*
G04 #@! TO.C,C6*
X132657332Y-100750141D02*
X132609713Y-100797760D01*
X132466856Y-100845379D01*
X132371618Y-100845379D01*
X132228760Y-100797760D01*
X132133522Y-100702522D01*
X132085903Y-100607284D01*
X132038284Y-100416808D01*
X132038284Y-100273951D01*
X132085903Y-100083475D01*
X132133522Y-99988237D01*
X132228760Y-99892999D01*
X132371618Y-99845379D01*
X132466856Y-99845379D01*
X132609713Y-99892999D01*
X132657332Y-99940618D01*
X133514475Y-99845379D02*
X133323999Y-99845379D01*
X133228760Y-99892999D01*
X133181141Y-99940618D01*
X133085903Y-100083475D01*
X133038284Y-100273951D01*
X133038284Y-100654903D01*
X133085903Y-100750141D01*
X133133522Y-100797760D01*
X133228760Y-100845379D01*
X133419237Y-100845379D01*
X133514475Y-100797760D01*
X133562094Y-100750141D01*
X133609713Y-100654903D01*
X133609713Y-100416808D01*
X133562094Y-100321570D01*
X133514475Y-100273951D01*
X133419237Y-100226332D01*
X133228760Y-100226332D01*
X133133522Y-100273951D01*
X133085903Y-100321570D01*
X133038284Y-100416808D01*
G04 #@! TO.C,C7*
X107061333Y-108307142D02*
X107013714Y-108354761D01*
X106870857Y-108402380D01*
X106775619Y-108402380D01*
X106632761Y-108354761D01*
X106537523Y-108259523D01*
X106489904Y-108164285D01*
X106442285Y-107973809D01*
X106442285Y-107830952D01*
X106489904Y-107640476D01*
X106537523Y-107545238D01*
X106632761Y-107450000D01*
X106775619Y-107402380D01*
X106870857Y-107402380D01*
X107013714Y-107450000D01*
X107061333Y-107497619D01*
X107394666Y-107402380D02*
X108061333Y-107402380D01*
X107632761Y-108402380D01*
G04 #@! TO.C,C9*
X91313333Y-98147142D02*
X91265714Y-98194761D01*
X91122857Y-98242380D01*
X91027619Y-98242380D01*
X90884761Y-98194761D01*
X90789523Y-98099523D01*
X90741904Y-98004285D01*
X90694285Y-97813809D01*
X90694285Y-97670952D01*
X90741904Y-97480476D01*
X90789523Y-97385238D01*
X90884761Y-97290000D01*
X91027619Y-97242380D01*
X91122857Y-97242380D01*
X91265714Y-97290000D01*
X91313333Y-97337619D01*
X91789523Y-98242380D02*
X91980000Y-98242380D01*
X92075238Y-98194761D01*
X92122857Y-98147142D01*
X92218095Y-98004285D01*
X92265714Y-97813809D01*
X92265714Y-97432857D01*
X92218095Y-97337619D01*
X92170476Y-97290000D01*
X92075238Y-97242380D01*
X91884761Y-97242380D01*
X91789523Y-97290000D01*
X91741904Y-97337619D01*
X91694285Y-97432857D01*
X91694285Y-97670952D01*
X91741904Y-97766190D01*
X91789523Y-97813809D01*
X91884761Y-97861428D01*
X92075238Y-97861428D01*
X92170476Y-97813809D01*
X92218095Y-97766190D01*
X92265714Y-97670952D01*
G04 #@! TO.C,C10*
X172625142Y-98147142D02*
X172577523Y-98194761D01*
X172434666Y-98242380D01*
X172339428Y-98242380D01*
X172196571Y-98194761D01*
X172101333Y-98099523D01*
X172053714Y-98004285D01*
X172006095Y-97813809D01*
X172006095Y-97670952D01*
X172053714Y-97480476D01*
X172101333Y-97385238D01*
X172196571Y-97290000D01*
X172339428Y-97242380D01*
X172434666Y-97242380D01*
X172577523Y-97290000D01*
X172625142Y-97337619D01*
X173577523Y-98242380D02*
X173006095Y-98242380D01*
X173291809Y-98242380D02*
X173291809Y-97242380D01*
X173196571Y-97385238D01*
X173101333Y-97480476D01*
X173006095Y-97528095D01*
X174196571Y-97242380D02*
X174291809Y-97242380D01*
X174387047Y-97290000D01*
X174434666Y-97337619D01*
X174482285Y-97432857D01*
X174529904Y-97623333D01*
X174529904Y-97861428D01*
X174482285Y-98051904D01*
X174434666Y-98147142D01*
X174387047Y-98194761D01*
X174291809Y-98242380D01*
X174196571Y-98242380D01*
X174101333Y-98194761D01*
X174053714Y-98147142D01*
X174006095Y-98051904D01*
X173958476Y-97861428D01*
X173958476Y-97623333D01*
X174006095Y-97432857D01*
X174053714Y-97337619D01*
X174101333Y-97290000D01*
X174196571Y-97242380D01*
G04 #@! TO.C,C13*
X157131142Y-108307142D02*
X157083523Y-108354761D01*
X156940666Y-108402380D01*
X156845428Y-108402380D01*
X156702571Y-108354761D01*
X156607333Y-108259523D01*
X156559714Y-108164285D01*
X156512095Y-107973809D01*
X156512095Y-107830952D01*
X156559714Y-107640476D01*
X156607333Y-107545238D01*
X156702571Y-107450000D01*
X156845428Y-107402380D01*
X156940666Y-107402380D01*
X157083523Y-107450000D01*
X157131142Y-107497619D01*
X158083523Y-108402380D02*
X157512095Y-108402380D01*
X157797809Y-108402380D02*
X157797809Y-107402380D01*
X157702571Y-107545238D01*
X157607333Y-107640476D01*
X157512095Y-107688095D01*
X158416857Y-107402380D02*
X159035904Y-107402380D01*
X158702571Y-107783333D01*
X158845428Y-107783333D01*
X158940666Y-107830952D01*
X158988285Y-107878571D01*
X159035904Y-107973809D01*
X159035904Y-108211904D01*
X158988285Y-108307142D01*
X158940666Y-108354761D01*
X158845428Y-108402380D01*
X158559714Y-108402380D01*
X158464476Y-108354761D01*
X158416857Y-108307142D01*
G04 #@! TO.C,C14*
X121930384Y-104366143D02*
X121882765Y-104413762D01*
X121739908Y-104461381D01*
X121644670Y-104461381D01*
X121501813Y-104413762D01*
X121406575Y-104318524D01*
X121358956Y-104223286D01*
X121311337Y-104032810D01*
X121311337Y-103889953D01*
X121358956Y-103699477D01*
X121406575Y-103604239D01*
X121501813Y-103509001D01*
X121644670Y-103461381D01*
X121739908Y-103461381D01*
X121882765Y-103509001D01*
X121930384Y-103556620D01*
X122882765Y-104461381D02*
X122311337Y-104461381D01*
X122597051Y-104461381D02*
X122597051Y-103461381D01*
X122501813Y-103604239D01*
X122406575Y-103699477D01*
X122311337Y-103747096D01*
X123739908Y-103794715D02*
X123739908Y-104461381D01*
X123501813Y-103413762D02*
X123263718Y-104128048D01*
X123882765Y-104128048D01*
G04 #@! TO.C,C15*
X141867142Y-103096143D02*
X141819523Y-103143762D01*
X141676666Y-103191381D01*
X141581428Y-103191381D01*
X141438571Y-103143762D01*
X141343333Y-103048524D01*
X141295714Y-102953286D01*
X141248095Y-102762810D01*
X141248095Y-102619953D01*
X141295714Y-102429477D01*
X141343333Y-102334239D01*
X141438571Y-102239001D01*
X141581428Y-102191381D01*
X141676666Y-102191381D01*
X141819523Y-102239001D01*
X141867142Y-102286620D01*
X142819523Y-103191381D02*
X142248095Y-103191381D01*
X142533809Y-103191381D02*
X142533809Y-102191381D01*
X142438571Y-102334239D01*
X142343333Y-102429477D01*
X142248095Y-102477096D01*
X143724285Y-102191381D02*
X143248095Y-102191381D01*
X143200476Y-102667572D01*
X143248095Y-102619953D01*
X143343333Y-102572334D01*
X143581428Y-102572334D01*
X143676666Y-102619953D01*
X143724285Y-102667572D01*
X143771904Y-102762810D01*
X143771904Y-103000905D01*
X143724285Y-103096143D01*
X143676666Y-103143762D01*
X143581428Y-103191381D01*
X143343333Y-103191381D01*
X143248095Y-103143762D01*
X143200476Y-103096143D01*
G04 #@! TO.C,C16*
X104421141Y-91716141D02*
X104373522Y-91763760D01*
X104230665Y-91811379D01*
X104135427Y-91811379D01*
X103992570Y-91763760D01*
X103897332Y-91668522D01*
X103849713Y-91573284D01*
X103802094Y-91382808D01*
X103802094Y-91239951D01*
X103849713Y-91049475D01*
X103897332Y-90954237D01*
X103992570Y-90858999D01*
X104135427Y-90811379D01*
X104230665Y-90811379D01*
X104373522Y-90858999D01*
X104421141Y-90906618D01*
X105373522Y-91811379D02*
X104802094Y-91811379D01*
X105087808Y-91811379D02*
X105087808Y-90811379D01*
X104992570Y-90954237D01*
X104897332Y-91049475D01*
X104802094Y-91097094D01*
X106230665Y-90811379D02*
X106040189Y-90811379D01*
X105944951Y-90858999D01*
X105897332Y-90906618D01*
X105802094Y-91049475D01*
X105754475Y-91239951D01*
X105754475Y-91620903D01*
X105802094Y-91716141D01*
X105849713Y-91763760D01*
X105944951Y-91811379D01*
X106135427Y-91811379D01*
X106230665Y-91763760D01*
X106278284Y-91716141D01*
X106325903Y-91620903D01*
X106325903Y-91382808D01*
X106278284Y-91287570D01*
X106230665Y-91239951D01*
X106135427Y-91192332D01*
X105944951Y-91192332D01*
X105849713Y-91239951D01*
X105802094Y-91287570D01*
X105754475Y-91382808D01*
G04 #@! TO.C,D1*
X164263379Y-107910096D02*
X163263379Y-107910096D01*
X163263379Y-107672001D01*
X163310999Y-107529143D01*
X163406237Y-107433905D01*
X163501475Y-107386286D01*
X163691951Y-107338667D01*
X163834808Y-107338667D01*
X164025284Y-107386286D01*
X164120522Y-107433905D01*
X164215760Y-107529143D01*
X164263379Y-107672001D01*
X164263379Y-107910096D01*
X164263379Y-106386286D02*
X164263379Y-106957715D01*
X164263379Y-106672001D02*
X163263379Y-106672001D01*
X163406237Y-106767239D01*
X163501475Y-106862477D01*
X163549094Y-106957715D01*
G04 #@! TO.C,D2*
X98685379Y-107910096D02*
X97685379Y-107910096D01*
X97685379Y-107672001D01*
X97732999Y-107529143D01*
X97828237Y-107433905D01*
X97923475Y-107386286D01*
X98113951Y-107338667D01*
X98256808Y-107338667D01*
X98447284Y-107386286D01*
X98542522Y-107433905D01*
X98637760Y-107529143D01*
X98685379Y-107672001D01*
X98685379Y-107910096D01*
X97780618Y-106957715D02*
X97732999Y-106910096D01*
X97685379Y-106814858D01*
X97685379Y-106576762D01*
X97732999Y-106481524D01*
X97780618Y-106433905D01*
X97875856Y-106386286D01*
X97971094Y-106386286D01*
X98113951Y-106433905D01*
X98685379Y-107005334D01*
X98685379Y-106386286D01*
G04 #@! TO.C,D3*
X101569379Y-107808096D02*
X100569379Y-107808096D01*
X100569379Y-107570001D01*
X100616999Y-107427143D01*
X100712237Y-107331905D01*
X100807475Y-107284286D01*
X100997951Y-107236667D01*
X101140808Y-107236667D01*
X101331284Y-107284286D01*
X101426522Y-107331905D01*
X101521760Y-107427143D01*
X101569379Y-107570001D01*
X101569379Y-107808096D01*
X100569379Y-106903334D02*
X100569379Y-106284286D01*
X100950332Y-106617620D01*
X100950332Y-106474762D01*
X100997951Y-106379524D01*
X101045570Y-106331905D01*
X101140808Y-106284286D01*
X101378903Y-106284286D01*
X101474141Y-106331905D01*
X101521760Y-106379524D01*
X101569379Y-106474762D01*
X101569379Y-106760477D01*
X101521760Y-106855715D01*
X101474141Y-106903334D01*
G04 #@! TO.C,D4*
X104611903Y-95347379D02*
X104611903Y-94347379D01*
X104849999Y-94347379D01*
X104992856Y-94394999D01*
X105088094Y-94490237D01*
X105135713Y-94585475D01*
X105183332Y-94775951D01*
X105183332Y-94918808D01*
X105135713Y-95109284D01*
X105088094Y-95204522D01*
X104992856Y-95299760D01*
X104849999Y-95347379D01*
X104611903Y-95347379D01*
X106040475Y-94680713D02*
X106040475Y-95347379D01*
X105802379Y-94299760D02*
X105564284Y-95014046D01*
X106183332Y-95014046D01*
G04 #@! TO.C,D5*
X159315905Y-95169381D02*
X159315905Y-94169381D01*
X159554001Y-94169381D01*
X159696858Y-94217001D01*
X159792096Y-94312239D01*
X159839715Y-94407477D01*
X159887334Y-94597953D01*
X159887334Y-94740810D01*
X159839715Y-94931286D01*
X159792096Y-95026524D01*
X159696858Y-95121762D01*
X159554001Y-95169381D01*
X159315905Y-95169381D01*
X160792096Y-94169381D02*
X160315905Y-94169381D01*
X160268286Y-94645572D01*
X160315905Y-94597953D01*
X160411143Y-94550334D01*
X160649239Y-94550334D01*
X160744477Y-94597953D01*
X160792096Y-94645572D01*
X160839715Y-94740810D01*
X160839715Y-94978905D01*
X160792096Y-95074143D01*
X160744477Y-95121762D01*
X160649239Y-95169381D01*
X160411143Y-95169381D01*
X160315905Y-95121762D01*
X160268286Y-95074143D01*
G04 #@! TO.C,D6*
X167076380Y-107858096D02*
X166076380Y-107858096D01*
X166076380Y-107620001D01*
X166124000Y-107477143D01*
X166219238Y-107381905D01*
X166314476Y-107334286D01*
X166504952Y-107286667D01*
X166647809Y-107286667D01*
X166838285Y-107334286D01*
X166933523Y-107381905D01*
X167028761Y-107477143D01*
X167076380Y-107620001D01*
X167076380Y-107858096D01*
X166076380Y-106429524D02*
X166076380Y-106620001D01*
X166124000Y-106715239D01*
X166171619Y-106762858D01*
X166314476Y-106858096D01*
X166504952Y-106905715D01*
X166885904Y-106905715D01*
X166981142Y-106858096D01*
X167028761Y-106810477D01*
X167076380Y-106715239D01*
X167076380Y-106524762D01*
X167028761Y-106429524D01*
X166981142Y-106381905D01*
X166885904Y-106334286D01*
X166647809Y-106334286D01*
X166552571Y-106381905D01*
X166504952Y-106429524D01*
X166457333Y-106524762D01*
X166457333Y-106715239D01*
X166504952Y-106810477D01*
X166552571Y-106858096D01*
X166647809Y-106905715D01*
G04 #@! TO.C,Q1*
X108870761Y-87923619D02*
X108775523Y-87876000D01*
X108680285Y-87780761D01*
X108537428Y-87637904D01*
X108442190Y-87590285D01*
X108346952Y-87590285D01*
X108394571Y-87828380D02*
X108299333Y-87780761D01*
X108204095Y-87685523D01*
X108156476Y-87495047D01*
X108156476Y-87161714D01*
X108204095Y-86971238D01*
X108299333Y-86876000D01*
X108394571Y-86828380D01*
X108585047Y-86828380D01*
X108680285Y-86876000D01*
X108775523Y-86971238D01*
X108823142Y-87161714D01*
X108823142Y-87495047D01*
X108775523Y-87685523D01*
X108680285Y-87780761D01*
X108585047Y-87828380D01*
X108394571Y-87828380D01*
X109775523Y-87828380D02*
X109204095Y-87828380D01*
X109489809Y-87828380D02*
X109489809Y-86828380D01*
X109394571Y-86971238D01*
X109299333Y-87066476D01*
X109204095Y-87114095D01*
G04 #@! TO.C,Q2*
X128809761Y-97047619D02*
X128714523Y-97000000D01*
X128619285Y-96904761D01*
X128476428Y-96761904D01*
X128381190Y-96714285D01*
X128285952Y-96714285D01*
X128333571Y-96952380D02*
X128238333Y-96904761D01*
X128143095Y-96809523D01*
X128095476Y-96619047D01*
X128095476Y-96285714D01*
X128143095Y-96095238D01*
X128238333Y-96000000D01*
X128333571Y-95952380D01*
X128524047Y-95952380D01*
X128619285Y-96000000D01*
X128714523Y-96095238D01*
X128762142Y-96285714D01*
X128762142Y-96619047D01*
X128714523Y-96809523D01*
X128619285Y-96904761D01*
X128524047Y-96952380D01*
X128333571Y-96952380D01*
X129143095Y-96047619D02*
X129190714Y-96000000D01*
X129285952Y-95952380D01*
X129524047Y-95952380D01*
X129619285Y-96000000D01*
X129666904Y-96047619D01*
X129714523Y-96142857D01*
X129714523Y-96238095D01*
X129666904Y-96380952D01*
X129095476Y-96952380D01*
X129714523Y-96952380D01*
G04 #@! TO.C,Q3*
X156114761Y-87923619D02*
X156019523Y-87876000D01*
X155924285Y-87780761D01*
X155781428Y-87637904D01*
X155686190Y-87590285D01*
X155590952Y-87590285D01*
X155638571Y-87828380D02*
X155543333Y-87780761D01*
X155448095Y-87685523D01*
X155400476Y-87495047D01*
X155400476Y-87161714D01*
X155448095Y-86971238D01*
X155543333Y-86876000D01*
X155638571Y-86828380D01*
X155829047Y-86828380D01*
X155924285Y-86876000D01*
X156019523Y-86971238D01*
X156067142Y-87161714D01*
X156067142Y-87495047D01*
X156019523Y-87685523D01*
X155924285Y-87780761D01*
X155829047Y-87828380D01*
X155638571Y-87828380D01*
X156400476Y-86828380D02*
X157019523Y-86828380D01*
X156686190Y-87209333D01*
X156829047Y-87209333D01*
X156924285Y-87256952D01*
X156971904Y-87304571D01*
X157019523Y-87399809D01*
X157019523Y-87637904D01*
X156971904Y-87733142D01*
X156924285Y-87780761D01*
X156829047Y-87828380D01*
X156543333Y-87828380D01*
X156448095Y-87780761D01*
X156400476Y-87733142D01*
G04 #@! TO.C,R1*
X90765333Y-88911379D02*
X90432000Y-88435189D01*
X90193904Y-88911379D02*
X90193904Y-87911379D01*
X90574857Y-87911379D01*
X90670095Y-87958999D01*
X90717714Y-88006618D01*
X90765333Y-88101856D01*
X90765333Y-88244713D01*
X90717714Y-88339951D01*
X90670095Y-88387570D01*
X90574857Y-88435189D01*
X90193904Y-88435189D01*
X91717714Y-88911379D02*
X91146285Y-88911379D01*
X91432000Y-88911379D02*
X91432000Y-87911379D01*
X91336761Y-88054237D01*
X91241523Y-88149475D01*
X91146285Y-88197094D01*
G04 #@! TO.C,R2*
X90765333Y-85557379D02*
X90432000Y-85081189D01*
X90193904Y-85557379D02*
X90193904Y-84557379D01*
X90574857Y-84557379D01*
X90670095Y-84604999D01*
X90717714Y-84652618D01*
X90765333Y-84747856D01*
X90765333Y-84890713D01*
X90717714Y-84985951D01*
X90670095Y-85033570D01*
X90574857Y-85081189D01*
X90193904Y-85081189D01*
X91146285Y-84652618D02*
X91193904Y-84604999D01*
X91289142Y-84557379D01*
X91527238Y-84557379D01*
X91622476Y-84604999D01*
X91670095Y-84652618D01*
X91717714Y-84747856D01*
X91717714Y-84843094D01*
X91670095Y-84985951D01*
X91098666Y-85557379D01*
X91717714Y-85557379D01*
G04 #@! TO.C,R3*
X114117381Y-106450665D02*
X113641191Y-106783999D01*
X114117381Y-107022094D02*
X113117381Y-107022094D01*
X113117381Y-106641141D01*
X113165001Y-106545903D01*
X113212620Y-106498284D01*
X113307858Y-106450665D01*
X113450715Y-106450665D01*
X113545953Y-106498284D01*
X113593572Y-106545903D01*
X113641191Y-106641141D01*
X113641191Y-107022094D01*
X113117381Y-106117332D02*
X113117381Y-105498284D01*
X113498334Y-105831618D01*
X113498334Y-105688760D01*
X113545953Y-105593522D01*
X113593572Y-105545903D01*
X113688810Y-105498284D01*
X113926905Y-105498284D01*
X114022143Y-105545903D01*
X114069762Y-105593522D01*
X114117381Y-105688760D01*
X114117381Y-105974475D01*
X114069762Y-106069713D01*
X114022143Y-106117332D01*
G04 #@! TO.C,R4*
X90765333Y-75745379D02*
X90432000Y-75269189D01*
X90193904Y-75745379D02*
X90193904Y-74745379D01*
X90574857Y-74745379D01*
X90670095Y-74792999D01*
X90717714Y-74840618D01*
X90765333Y-74935856D01*
X90765333Y-75078713D01*
X90717714Y-75173951D01*
X90670095Y-75221570D01*
X90574857Y-75269189D01*
X90193904Y-75269189D01*
X91622476Y-75078713D02*
X91622476Y-75745379D01*
X91384380Y-74697760D02*
X91146285Y-75412046D01*
X91765333Y-75412046D01*
G04 #@! TO.C,R5*
X90765333Y-79009381D02*
X90432000Y-78533191D01*
X90193904Y-79009381D02*
X90193904Y-78009381D01*
X90574857Y-78009381D01*
X90670095Y-78057001D01*
X90717714Y-78104620D01*
X90765333Y-78199858D01*
X90765333Y-78342715D01*
X90717714Y-78437953D01*
X90670095Y-78485572D01*
X90574857Y-78533191D01*
X90193904Y-78533191D01*
X91670095Y-78009381D02*
X91193904Y-78009381D01*
X91146285Y-78485572D01*
X91193904Y-78437953D01*
X91289142Y-78390334D01*
X91527238Y-78390334D01*
X91622476Y-78437953D01*
X91670095Y-78485572D01*
X91717714Y-78580810D01*
X91717714Y-78818905D01*
X91670095Y-78914143D01*
X91622476Y-78961762D01*
X91527238Y-79009381D01*
X91289142Y-79009381D01*
X91193904Y-78961762D01*
X91146285Y-78914143D01*
G04 #@! TO.C,R6*
X118705333Y-72349379D02*
X118372000Y-71873189D01*
X118133904Y-72349379D02*
X118133904Y-71349379D01*
X118514857Y-71349379D01*
X118610095Y-71396999D01*
X118657714Y-71444618D01*
X118705333Y-71539856D01*
X118705333Y-71682713D01*
X118657714Y-71777951D01*
X118610095Y-71825570D01*
X118514857Y-71873189D01*
X118133904Y-71873189D01*
X119562476Y-71349379D02*
X119372000Y-71349379D01*
X119276761Y-71396999D01*
X119229142Y-71444618D01*
X119133904Y-71587475D01*
X119086285Y-71777951D01*
X119086285Y-72158903D01*
X119133904Y-72254141D01*
X119181523Y-72301760D01*
X119276761Y-72349379D01*
X119467238Y-72349379D01*
X119562476Y-72301760D01*
X119610095Y-72254141D01*
X119657714Y-72158903D01*
X119657714Y-71920808D01*
X119610095Y-71825570D01*
X119562476Y-71777951D01*
X119467238Y-71730332D01*
X119276761Y-71730332D01*
X119181523Y-71777951D01*
X119133904Y-71825570D01*
X119086285Y-71920808D01*
G04 #@! TO.C,R7*
X146137333Y-75693381D02*
X145804000Y-75217191D01*
X145565904Y-75693381D02*
X145565904Y-74693381D01*
X145946857Y-74693381D01*
X146042095Y-74741001D01*
X146089714Y-74788620D01*
X146137333Y-74883858D01*
X146137333Y-75026715D01*
X146089714Y-75121953D01*
X146042095Y-75169572D01*
X145946857Y-75217191D01*
X145565904Y-75217191D01*
X146470666Y-74693381D02*
X147137333Y-74693381D01*
X146708761Y-75693381D01*
G04 #@! TO.C,R8*
X118715332Y-88713379D02*
X118381999Y-88237189D01*
X118143903Y-88713379D02*
X118143903Y-87713379D01*
X118524856Y-87713379D01*
X118620094Y-87760999D01*
X118667713Y-87808618D01*
X118715332Y-87903856D01*
X118715332Y-88046713D01*
X118667713Y-88141951D01*
X118620094Y-88189570D01*
X118524856Y-88237189D01*
X118143903Y-88237189D01*
X119286760Y-88141951D02*
X119191522Y-88094332D01*
X119143903Y-88046713D01*
X119096284Y-87951475D01*
X119096284Y-87903856D01*
X119143903Y-87808618D01*
X119191522Y-87760999D01*
X119286760Y-87713379D01*
X119477237Y-87713379D01*
X119572475Y-87760999D01*
X119620094Y-87808618D01*
X119667713Y-87903856D01*
X119667713Y-87951475D01*
X119620094Y-88046713D01*
X119572475Y-88094332D01*
X119477237Y-88141951D01*
X119286760Y-88141951D01*
X119191522Y-88189570D01*
X119143903Y-88237189D01*
X119096284Y-88332427D01*
X119096284Y-88522903D01*
X119143903Y-88618141D01*
X119191522Y-88665760D01*
X119286760Y-88713379D01*
X119477237Y-88713379D01*
X119572475Y-88665760D01*
X119620094Y-88618141D01*
X119667713Y-88522903D01*
X119667713Y-88332427D01*
X119620094Y-88237189D01*
X119572475Y-88189570D01*
X119477237Y-88141951D01*
G04 #@! TO.C,R9*
X118705333Y-75593379D02*
X118372000Y-75117189D01*
X118133904Y-75593379D02*
X118133904Y-74593379D01*
X118514857Y-74593379D01*
X118610095Y-74640999D01*
X118657714Y-74688618D01*
X118705333Y-74783856D01*
X118705333Y-74926713D01*
X118657714Y-75021951D01*
X118610095Y-75069570D01*
X118514857Y-75117189D01*
X118133904Y-75117189D01*
X119181523Y-75593379D02*
X119372000Y-75593379D01*
X119467238Y-75545760D01*
X119514857Y-75498141D01*
X119610095Y-75355284D01*
X119657714Y-75164808D01*
X119657714Y-74783856D01*
X119610095Y-74688618D01*
X119562476Y-74640999D01*
X119467238Y-74593379D01*
X119276761Y-74593379D01*
X119181523Y-74640999D01*
X119133904Y-74688618D01*
X119086285Y-74783856D01*
X119086285Y-75021951D01*
X119133904Y-75117189D01*
X119181523Y-75164808D01*
X119276761Y-75212427D01*
X119467238Y-75212427D01*
X119562476Y-75164808D01*
X119610095Y-75117189D01*
X119657714Y-75021951D01*
G04 #@! TO.C,R10*
X90279143Y-82357381D02*
X89945810Y-81881191D01*
X89707715Y-82357381D02*
X89707715Y-81357381D01*
X90088667Y-81357381D01*
X90183905Y-81405001D01*
X90231524Y-81452620D01*
X90279143Y-81547858D01*
X90279143Y-81690715D01*
X90231524Y-81785953D01*
X90183905Y-81833572D01*
X90088667Y-81881191D01*
X89707715Y-81881191D01*
X91231524Y-82357381D02*
X90660096Y-82357381D01*
X90945810Y-82357381D02*
X90945810Y-81357381D01*
X90850572Y-81500239D01*
X90755334Y-81595477D01*
X90660096Y-81643096D01*
X91850572Y-81357381D02*
X91945810Y-81357381D01*
X92041048Y-81405001D01*
X92088667Y-81452620D01*
X92136286Y-81547858D01*
X92183905Y-81738334D01*
X92183905Y-81976429D01*
X92136286Y-82166905D01*
X92088667Y-82262143D01*
X92041048Y-82309762D01*
X91945810Y-82357381D01*
X91850572Y-82357381D01*
X91755334Y-82309762D01*
X91707715Y-82262143D01*
X91660096Y-82166905D01*
X91612477Y-81976429D01*
X91612477Y-81738334D01*
X91660096Y-81547858D01*
X91707715Y-81452620D01*
X91755334Y-81405001D01*
X91850572Y-81357381D01*
G04 #@! TO.C,R11*
X145717143Y-88845381D02*
X145383810Y-88369191D01*
X145145715Y-88845381D02*
X145145715Y-87845381D01*
X145526667Y-87845381D01*
X145621905Y-87893001D01*
X145669524Y-87940620D01*
X145717143Y-88035858D01*
X145717143Y-88178715D01*
X145669524Y-88273953D01*
X145621905Y-88321572D01*
X145526667Y-88369191D01*
X145145715Y-88369191D01*
X146669524Y-88845381D02*
X146098096Y-88845381D01*
X146383810Y-88845381D02*
X146383810Y-87845381D01*
X146288572Y-87988239D01*
X146193334Y-88083477D01*
X146098096Y-88131096D01*
X147621905Y-88845381D02*
X147050477Y-88845381D01*
X147336191Y-88845381D02*
X147336191Y-87845381D01*
X147240953Y-87988239D01*
X147145715Y-88083477D01*
X147050477Y-88131096D01*
G04 #@! TO.C,R12*
X118219143Y-82329381D02*
X117885810Y-81853191D01*
X117647715Y-82329381D02*
X117647715Y-81329381D01*
X118028667Y-81329381D01*
X118123905Y-81377001D01*
X118171524Y-81424620D01*
X118219143Y-81519858D01*
X118219143Y-81662715D01*
X118171524Y-81757953D01*
X118123905Y-81805572D01*
X118028667Y-81853191D01*
X117647715Y-81853191D01*
X119171524Y-82329381D02*
X118600096Y-82329381D01*
X118885810Y-82329381D02*
X118885810Y-81329381D01*
X118790572Y-81472239D01*
X118695334Y-81567477D01*
X118600096Y-81615096D01*
X119552477Y-81424620D02*
X119600096Y-81377001D01*
X119695334Y-81329381D01*
X119933429Y-81329381D01*
X120028667Y-81377001D01*
X120076286Y-81424620D01*
X120123905Y-81519858D01*
X120123905Y-81615096D01*
X120076286Y-81757953D01*
X119504858Y-82329381D01*
X120123905Y-82329381D01*
G04 #@! TO.C,R13*
X117451381Y-106976856D02*
X116975191Y-107310189D01*
X117451381Y-107548284D02*
X116451381Y-107548284D01*
X116451381Y-107167332D01*
X116499001Y-107072094D01*
X116546620Y-107024475D01*
X116641858Y-106976856D01*
X116784715Y-106976856D01*
X116879953Y-107024475D01*
X116927572Y-107072094D01*
X116975191Y-107167332D01*
X116975191Y-107548284D01*
X117451381Y-106024475D02*
X117451381Y-106595903D01*
X117451381Y-106310189D02*
X116451381Y-106310189D01*
X116594239Y-106405427D01*
X116689477Y-106500665D01*
X116737096Y-106595903D01*
X116451381Y-105691141D02*
X116451381Y-105072094D01*
X116832334Y-105405427D01*
X116832334Y-105262570D01*
X116879953Y-105167332D01*
X116927572Y-105119713D01*
X117022810Y-105072094D01*
X117260905Y-105072094D01*
X117356143Y-105119713D01*
X117403762Y-105167332D01*
X117451381Y-105262570D01*
X117451381Y-105548284D01*
X117403762Y-105643522D01*
X117356143Y-105691141D01*
G04 #@! TO.C,R14*
X118229142Y-78909379D02*
X117895809Y-78433189D01*
X117657714Y-78909379D02*
X117657714Y-77909379D01*
X118038666Y-77909379D01*
X118133904Y-77956999D01*
X118181523Y-78004618D01*
X118229142Y-78099856D01*
X118229142Y-78242713D01*
X118181523Y-78337951D01*
X118133904Y-78385570D01*
X118038666Y-78433189D01*
X117657714Y-78433189D01*
X119181523Y-78909379D02*
X118610095Y-78909379D01*
X118895809Y-78909379D02*
X118895809Y-77909379D01*
X118800571Y-78052237D01*
X118705333Y-78147475D01*
X118610095Y-78195094D01*
X120038666Y-78242713D02*
X120038666Y-78909379D01*
X119800571Y-77861760D02*
X119562476Y-78576046D01*
X120181523Y-78576046D01*
G04 #@! TO.C,R15*
X145661142Y-72259379D02*
X145327809Y-71783189D01*
X145089714Y-72259379D02*
X145089714Y-71259379D01*
X145470666Y-71259379D01*
X145565904Y-71306999D01*
X145613523Y-71354618D01*
X145661142Y-71449856D01*
X145661142Y-71592713D01*
X145613523Y-71687951D01*
X145565904Y-71735570D01*
X145470666Y-71783189D01*
X145089714Y-71783189D01*
X146613523Y-72259379D02*
X146042095Y-72259379D01*
X146327809Y-72259379D02*
X146327809Y-71259379D01*
X146232571Y-71402237D01*
X146137333Y-71497475D01*
X146042095Y-71545094D01*
X147518285Y-71259379D02*
X147042095Y-71259379D01*
X146994476Y-71735570D01*
X147042095Y-71687951D01*
X147137333Y-71640332D01*
X147375428Y-71640332D01*
X147470666Y-71687951D01*
X147518285Y-71735570D01*
X147565904Y-71830808D01*
X147565904Y-72068903D01*
X147518285Y-72164141D01*
X147470666Y-72211760D01*
X147375428Y-72259379D01*
X147137333Y-72259379D01*
X147042095Y-72211760D01*
X146994476Y-72164141D01*
G04 #@! TO.C,R16*
X173093142Y-72437381D02*
X172759809Y-71961191D01*
X172521714Y-72437381D02*
X172521714Y-71437381D01*
X172902666Y-71437381D01*
X172997904Y-71485001D01*
X173045523Y-71532620D01*
X173093142Y-71627858D01*
X173093142Y-71770715D01*
X173045523Y-71865953D01*
X172997904Y-71913572D01*
X172902666Y-71961191D01*
X172521714Y-71961191D01*
X174045523Y-72437381D02*
X173474095Y-72437381D01*
X173759809Y-72437381D02*
X173759809Y-71437381D01*
X173664571Y-71580239D01*
X173569333Y-71675477D01*
X173474095Y-71723096D01*
X174902666Y-71437381D02*
X174712190Y-71437381D01*
X174616952Y-71485001D01*
X174569333Y-71532620D01*
X174474095Y-71675477D01*
X174426476Y-71865953D01*
X174426476Y-72246905D01*
X174474095Y-72342143D01*
X174521714Y-72389762D01*
X174616952Y-72437381D01*
X174807428Y-72437381D01*
X174902666Y-72389762D01*
X174950285Y-72342143D01*
X174997904Y-72246905D01*
X174997904Y-72008810D01*
X174950285Y-71913572D01*
X174902666Y-71865953D01*
X174807428Y-71818334D01*
X174616952Y-71818334D01*
X174521714Y-71865953D01*
X174474095Y-71913572D01*
X174426476Y-72008810D01*
G04 #@! TO.C,R17*
X145661142Y-82267379D02*
X145327809Y-81791189D01*
X145089714Y-82267379D02*
X145089714Y-81267379D01*
X145470666Y-81267379D01*
X145565904Y-81314999D01*
X145613523Y-81362618D01*
X145661142Y-81457856D01*
X145661142Y-81600713D01*
X145613523Y-81695951D01*
X145565904Y-81743570D01*
X145470666Y-81791189D01*
X145089714Y-81791189D01*
X146613523Y-82267379D02*
X146042095Y-82267379D01*
X146327809Y-82267379D02*
X146327809Y-81267379D01*
X146232571Y-81410237D01*
X146137333Y-81505475D01*
X146042095Y-81553094D01*
X146946857Y-81267379D02*
X147613523Y-81267379D01*
X147184952Y-82267379D01*
G04 #@! TO.C,R18*
X145675143Y-85475381D02*
X145341810Y-84999191D01*
X145103715Y-85475381D02*
X145103715Y-84475381D01*
X145484667Y-84475381D01*
X145579905Y-84523001D01*
X145627524Y-84570620D01*
X145675143Y-84665858D01*
X145675143Y-84808715D01*
X145627524Y-84903953D01*
X145579905Y-84951572D01*
X145484667Y-84999191D01*
X145103715Y-84999191D01*
X146627524Y-85475381D02*
X146056096Y-85475381D01*
X146341810Y-85475381D02*
X146341810Y-84475381D01*
X146246572Y-84618239D01*
X146151334Y-84713477D01*
X146056096Y-84761096D01*
X147198953Y-84903953D02*
X147103715Y-84856334D01*
X147056096Y-84808715D01*
X147008477Y-84713477D01*
X147008477Y-84665858D01*
X147056096Y-84570620D01*
X147103715Y-84523001D01*
X147198953Y-84475381D01*
X147389429Y-84475381D01*
X147484667Y-84523001D01*
X147532286Y-84570620D01*
X147579905Y-84665858D01*
X147579905Y-84713477D01*
X147532286Y-84808715D01*
X147484667Y-84856334D01*
X147389429Y-84903953D01*
X147198953Y-84903953D01*
X147103715Y-84951572D01*
X147056096Y-84999191D01*
X147008477Y-85094429D01*
X147008477Y-85284905D01*
X147056096Y-85380143D01*
X147103715Y-85427762D01*
X147198953Y-85475381D01*
X147389429Y-85475381D01*
X147484667Y-85427762D01*
X147532286Y-85380143D01*
X147579905Y-85284905D01*
X147579905Y-85094429D01*
X147532286Y-84999191D01*
X147484667Y-84951572D01*
X147389429Y-84903953D01*
G04 #@! TO.C,R19*
X173093142Y-89017381D02*
X172759809Y-88541191D01*
X172521714Y-89017381D02*
X172521714Y-88017381D01*
X172902666Y-88017381D01*
X172997904Y-88065001D01*
X173045523Y-88112620D01*
X173093142Y-88207858D01*
X173093142Y-88350715D01*
X173045523Y-88445953D01*
X172997904Y-88493572D01*
X172902666Y-88541191D01*
X172521714Y-88541191D01*
X174045523Y-89017381D02*
X173474095Y-89017381D01*
X173759809Y-89017381D02*
X173759809Y-88017381D01*
X173664571Y-88160239D01*
X173569333Y-88255477D01*
X173474095Y-88303096D01*
X174521714Y-89017381D02*
X174712190Y-89017381D01*
X174807428Y-88969762D01*
X174855047Y-88922143D01*
X174950285Y-88779286D01*
X174997904Y-88588810D01*
X174997904Y-88207858D01*
X174950285Y-88112620D01*
X174902666Y-88065001D01*
X174807428Y-88017381D01*
X174616952Y-88017381D01*
X174521714Y-88065001D01*
X174474095Y-88112620D01*
X174426476Y-88207858D01*
X174426476Y-88445953D01*
X174474095Y-88541191D01*
X174521714Y-88588810D01*
X174616952Y-88636429D01*
X174807428Y-88636429D01*
X174902666Y-88588810D01*
X174950285Y-88541191D01*
X174997904Y-88445953D01*
G04 #@! TO.C,R20*
X173057143Y-85529381D02*
X172723810Y-85053191D01*
X172485715Y-85529381D02*
X172485715Y-84529381D01*
X172866667Y-84529381D01*
X172961905Y-84577001D01*
X173009524Y-84624620D01*
X173057143Y-84719858D01*
X173057143Y-84862715D01*
X173009524Y-84957953D01*
X172961905Y-85005572D01*
X172866667Y-85053191D01*
X172485715Y-85053191D01*
X173438096Y-84624620D02*
X173485715Y-84577001D01*
X173580953Y-84529381D01*
X173819048Y-84529381D01*
X173914286Y-84577001D01*
X173961905Y-84624620D01*
X174009524Y-84719858D01*
X174009524Y-84815096D01*
X173961905Y-84957953D01*
X173390477Y-85529381D01*
X174009524Y-85529381D01*
X174628572Y-84529381D02*
X174723810Y-84529381D01*
X174819048Y-84577001D01*
X174866667Y-84624620D01*
X174914286Y-84719858D01*
X174961905Y-84910334D01*
X174961905Y-85148429D01*
X174914286Y-85338905D01*
X174866667Y-85434143D01*
X174819048Y-85481762D01*
X174723810Y-85529381D01*
X174628572Y-85529381D01*
X174533334Y-85481762D01*
X174485715Y-85434143D01*
X174438096Y-85338905D01*
X174390477Y-85148429D01*
X174390477Y-84910334D01*
X174438096Y-84719858D01*
X174485715Y-84624620D01*
X174533334Y-84577001D01*
X174628572Y-84529381D01*
G04 #@! TO.C,R21*
X145661142Y-78853379D02*
X145327809Y-78377189D01*
X145089714Y-78853379D02*
X145089714Y-77853379D01*
X145470666Y-77853379D01*
X145565904Y-77900999D01*
X145613523Y-77948618D01*
X145661142Y-78043856D01*
X145661142Y-78186713D01*
X145613523Y-78281951D01*
X145565904Y-78329570D01*
X145470666Y-78377189D01*
X145089714Y-78377189D01*
X146042095Y-77948618D02*
X146089714Y-77900999D01*
X146184952Y-77853379D01*
X146423047Y-77853379D01*
X146518285Y-77900999D01*
X146565904Y-77948618D01*
X146613523Y-78043856D01*
X146613523Y-78139094D01*
X146565904Y-78281951D01*
X145994476Y-78853379D01*
X146613523Y-78853379D01*
X147565904Y-78853379D02*
X146994476Y-78853379D01*
X147280190Y-78853379D02*
X147280190Y-77853379D01*
X147184952Y-77996237D01*
X147089714Y-78091475D01*
X146994476Y-78139094D01*
G04 #@! TO.C,R22*
X173093142Y-82095379D02*
X172759809Y-81619189D01*
X172521714Y-82095379D02*
X172521714Y-81095379D01*
X172902666Y-81095379D01*
X172997904Y-81142999D01*
X173045523Y-81190618D01*
X173093142Y-81285856D01*
X173093142Y-81428713D01*
X173045523Y-81523951D01*
X172997904Y-81571570D01*
X172902666Y-81619189D01*
X172521714Y-81619189D01*
X173474095Y-81190618D02*
X173521714Y-81142999D01*
X173616952Y-81095379D01*
X173855047Y-81095379D01*
X173950285Y-81142999D01*
X173997904Y-81190618D01*
X174045523Y-81285856D01*
X174045523Y-81381094D01*
X173997904Y-81523951D01*
X173426476Y-82095379D01*
X174045523Y-82095379D01*
X174426476Y-81190618D02*
X174474095Y-81142999D01*
X174569333Y-81095379D01*
X174807428Y-81095379D01*
X174902666Y-81142999D01*
X174950285Y-81190618D01*
X174997904Y-81285856D01*
X174997904Y-81381094D01*
X174950285Y-81523951D01*
X174378857Y-82095379D01*
X174997904Y-82095379D01*
G04 #@! TO.C,R23*
X173093142Y-75735381D02*
X172759809Y-75259191D01*
X172521714Y-75735381D02*
X172521714Y-74735381D01*
X172902666Y-74735381D01*
X172997904Y-74783001D01*
X173045523Y-74830620D01*
X173093142Y-74925858D01*
X173093142Y-75068715D01*
X173045523Y-75163953D01*
X172997904Y-75211572D01*
X172902666Y-75259191D01*
X172521714Y-75259191D01*
X173474095Y-74830620D02*
X173521714Y-74783001D01*
X173616952Y-74735381D01*
X173855047Y-74735381D01*
X173950285Y-74783001D01*
X173997904Y-74830620D01*
X174045523Y-74925858D01*
X174045523Y-75021096D01*
X173997904Y-75163953D01*
X173426476Y-75735381D01*
X174045523Y-75735381D01*
X174378857Y-74735381D02*
X174997904Y-74735381D01*
X174664571Y-75116334D01*
X174807428Y-75116334D01*
X174902666Y-75163953D01*
X174950285Y-75211572D01*
X174997904Y-75306810D01*
X174997904Y-75544905D01*
X174950285Y-75640143D01*
X174902666Y-75687762D01*
X174807428Y-75735381D01*
X174521714Y-75735381D01*
X174426476Y-75687762D01*
X174378857Y-75640143D01*
G04 #@! TO.C,R24*
X118021141Y-85287379D02*
X117687808Y-84811189D01*
X117449713Y-85287379D02*
X117449713Y-84287379D01*
X117830665Y-84287379D01*
X117925903Y-84334999D01*
X117973522Y-84382618D01*
X118021141Y-84477856D01*
X118021141Y-84620713D01*
X117973522Y-84715951D01*
X117925903Y-84763570D01*
X117830665Y-84811189D01*
X117449713Y-84811189D01*
X118402094Y-84382618D02*
X118449713Y-84334999D01*
X118544951Y-84287379D01*
X118783046Y-84287379D01*
X118878284Y-84334999D01*
X118925903Y-84382618D01*
X118973522Y-84477856D01*
X118973522Y-84573094D01*
X118925903Y-84715951D01*
X118354475Y-85287379D01*
X118973522Y-85287379D01*
X119830665Y-84620713D02*
X119830665Y-85287379D01*
X119592570Y-84239760D02*
X119354475Y-84954046D01*
X119973522Y-84954046D01*
G04 #@! TO.C,R25*
X90289142Y-72447381D02*
X89955809Y-71971191D01*
X89717714Y-72447381D02*
X89717714Y-71447381D01*
X90098666Y-71447381D01*
X90193904Y-71495001D01*
X90241523Y-71542620D01*
X90289142Y-71637858D01*
X90289142Y-71780715D01*
X90241523Y-71875953D01*
X90193904Y-71923572D01*
X90098666Y-71971191D01*
X89717714Y-71971191D01*
X90670095Y-71542620D02*
X90717714Y-71495001D01*
X90812952Y-71447381D01*
X91051047Y-71447381D01*
X91146285Y-71495001D01*
X91193904Y-71542620D01*
X91241523Y-71637858D01*
X91241523Y-71733096D01*
X91193904Y-71875953D01*
X90622476Y-72447381D01*
X91241523Y-72447381D01*
X92146285Y-71447381D02*
X91670095Y-71447381D01*
X91622476Y-71923572D01*
X91670095Y-71875953D01*
X91765333Y-71828334D01*
X92003428Y-71828334D01*
X92098666Y-71875953D01*
X92146285Y-71923572D01*
X92193904Y-72018810D01*
X92193904Y-72256905D01*
X92146285Y-72352143D01*
X92098666Y-72399762D01*
X92003428Y-72447381D01*
X91765333Y-72447381D01*
X91670095Y-72399762D01*
X91622476Y-72352143D01*
G04 #@! TO.C,R26*
X149201381Y-106814857D02*
X148725191Y-107148190D01*
X149201381Y-107386285D02*
X148201381Y-107386285D01*
X148201381Y-107005333D01*
X148249001Y-106910095D01*
X148296620Y-106862476D01*
X148391858Y-106814857D01*
X148534715Y-106814857D01*
X148629953Y-106862476D01*
X148677572Y-106910095D01*
X148725191Y-107005333D01*
X148725191Y-107386285D01*
X148296620Y-106433904D02*
X148249001Y-106386285D01*
X148201381Y-106291047D01*
X148201381Y-106052952D01*
X148249001Y-105957714D01*
X148296620Y-105910095D01*
X148391858Y-105862476D01*
X148487096Y-105862476D01*
X148629953Y-105910095D01*
X149201381Y-106481523D01*
X149201381Y-105862476D01*
X148201381Y-105005333D02*
X148201381Y-105195809D01*
X148249001Y-105291047D01*
X148296620Y-105338666D01*
X148439477Y-105433904D01*
X148629953Y-105481523D01*
X149010905Y-105481523D01*
X149106143Y-105433904D01*
X149153762Y-105386285D01*
X149201381Y-105291047D01*
X149201381Y-105100571D01*
X149153762Y-105005333D01*
X149106143Y-104957714D01*
X149010905Y-104910095D01*
X148772810Y-104910095D01*
X148677572Y-104957714D01*
X148629953Y-105005333D01*
X148582334Y-105100571D01*
X148582334Y-105291047D01*
X148629953Y-105386285D01*
X148677572Y-105433904D01*
X148772810Y-105481523D01*
G04 #@! TO.C,R27*
X152517381Y-106814857D02*
X152041191Y-107148190D01*
X152517381Y-107386285D02*
X151517381Y-107386285D01*
X151517381Y-107005333D01*
X151565001Y-106910095D01*
X151612620Y-106862476D01*
X151707858Y-106814857D01*
X151850715Y-106814857D01*
X151945953Y-106862476D01*
X151993572Y-106910095D01*
X152041191Y-107005333D01*
X152041191Y-107386285D01*
X151612620Y-106433904D02*
X151565001Y-106386285D01*
X151517381Y-106291047D01*
X151517381Y-106052952D01*
X151565001Y-105957714D01*
X151612620Y-105910095D01*
X151707858Y-105862476D01*
X151803096Y-105862476D01*
X151945953Y-105910095D01*
X152517381Y-106481523D01*
X152517381Y-105862476D01*
X151517381Y-105529142D02*
X151517381Y-104862476D01*
X152517381Y-105291047D01*
G04 #@! TO.C,RV1*
X104543761Y-76891380D02*
X104210428Y-76415190D01*
X103972333Y-76891380D02*
X103972333Y-75891380D01*
X104353285Y-75891380D01*
X104448523Y-75939000D01*
X104496142Y-75986619D01*
X104543761Y-76081857D01*
X104543761Y-76224714D01*
X104496142Y-76319952D01*
X104448523Y-76367571D01*
X104353285Y-76415190D01*
X103972333Y-76415190D01*
X104829476Y-75891380D02*
X105162809Y-76891380D01*
X105496142Y-75891380D01*
X106353285Y-76891380D02*
X105781857Y-76891380D01*
X106067571Y-76891380D02*
X106067571Y-75891380D01*
X105972333Y-76034238D01*
X105877095Y-76129476D01*
X105781857Y-76177095D01*
G04 #@! TO.C,RV2*
X132119761Y-76891380D02*
X131786428Y-76415190D01*
X131548333Y-76891380D02*
X131548333Y-75891380D01*
X131929285Y-75891380D01*
X132024523Y-75939000D01*
X132072142Y-75986619D01*
X132119761Y-76081857D01*
X132119761Y-76224714D01*
X132072142Y-76319952D01*
X132024523Y-76367571D01*
X131929285Y-76415190D01*
X131548333Y-76415190D01*
X132405476Y-75891380D02*
X132738809Y-76891380D01*
X133072142Y-75891380D01*
X133357857Y-75986619D02*
X133405476Y-75939000D01*
X133500714Y-75891380D01*
X133738809Y-75891380D01*
X133834047Y-75939000D01*
X133881666Y-75986619D01*
X133929285Y-76081857D01*
X133929285Y-76177095D01*
X133881666Y-76319952D01*
X133310238Y-76891380D01*
X133929285Y-76891380D01*
G04 #@! TO.C,RV3*
X159619761Y-76891380D02*
X159286428Y-76415190D01*
X159048333Y-76891380D02*
X159048333Y-75891380D01*
X159429285Y-75891380D01*
X159524523Y-75939000D01*
X159572142Y-75986619D01*
X159619761Y-76081857D01*
X159619761Y-76224714D01*
X159572142Y-76319952D01*
X159524523Y-76367571D01*
X159429285Y-76415190D01*
X159048333Y-76415190D01*
X159905476Y-75891380D02*
X160238809Y-76891380D01*
X160572142Y-75891380D01*
X160810238Y-75891380D02*
X161429285Y-75891380D01*
X161095952Y-76272333D01*
X161238809Y-76272333D01*
X161334047Y-76319952D01*
X161381666Y-76367571D01*
X161429285Y-76462809D01*
X161429285Y-76700904D01*
X161381666Y-76796142D01*
X161334047Y-76843761D01*
X161238809Y-76891380D01*
X160953095Y-76891380D01*
X160857857Y-76843761D01*
X160810238Y-76796142D01*
G04 #@! TO.C,U1*
X138430095Y-112228380D02*
X138430095Y-113037904D01*
X138477714Y-113133142D01*
X138525333Y-113180761D01*
X138620571Y-113228380D01*
X138811047Y-113228380D01*
X138906285Y-113180761D01*
X138953904Y-113133142D01*
X139001523Y-113037904D01*
X139001523Y-112228380D01*
X140001523Y-113228380D02*
X139430095Y-113228380D01*
X139715809Y-113228380D02*
X139715809Y-112228380D01*
X139620571Y-112371238D01*
X139525333Y-112466476D01*
X139430095Y-112514095D01*
G04 #@! TD*
M02*
