G04 #@! TF.GenerationSoftware,KiCad,Pcbnew,(5.1.7)-1*
G04 #@! TF.CreationDate,2021-11-25T13:16:34-06:00*
G04 #@! TF.ProjectId,GuitarMicroBoard,47756974-6172-44d6-9963-726f426f6172,rev?*
G04 #@! TF.SameCoordinates,Original*
G04 #@! TF.FileFunction,Legend,Top*
G04 #@! TF.FilePolarity,Positive*
%FSLAX46Y46*%
G04 Gerber Fmt 4.6, Leading zero omitted, Abs format (unit mm)*
G04 Created by KiCad (PCBNEW (5.1.7)-1) date 2021-11-25 13:16:34*
%MOMM*%
%LPD*%
G01*
G04 APERTURE LIST*
%ADD10C,0.150000*%
%ADD11C,0.100000*%
%ADD12C,0.120000*%
G04 APERTURE END LIST*
D10*
X143208952Y-98131380D02*
X143208952Y-98845666D01*
X143161333Y-98988523D01*
X143066095Y-99083761D01*
X142923238Y-99131380D01*
X142828000Y-99131380D01*
X144161333Y-99131380D02*
X143685142Y-99131380D01*
X143685142Y-98131380D01*
X145066095Y-99036142D02*
X145018476Y-99083761D01*
X144875619Y-99131380D01*
X144780380Y-99131380D01*
X144637523Y-99083761D01*
X144542285Y-98988523D01*
X144494666Y-98893285D01*
X144447047Y-98702809D01*
X144447047Y-98559952D01*
X144494666Y-98369476D01*
X144542285Y-98274238D01*
X144637523Y-98179000D01*
X144780380Y-98131380D01*
X144875619Y-98131380D01*
X145018476Y-98179000D01*
X145066095Y-98226619D01*
X145780380Y-98131380D02*
X145780380Y-98845666D01*
X145732761Y-98988523D01*
X145637523Y-99083761D01*
X145494666Y-99131380D01*
X145399428Y-99131380D01*
X146732761Y-99131380D02*
X146256571Y-99131380D01*
X146256571Y-98131380D01*
X147637523Y-99036142D02*
X147589904Y-99083761D01*
X147447047Y-99131380D01*
X147351809Y-99131380D01*
X147208952Y-99083761D01*
X147113714Y-98988523D01*
X147066095Y-98893285D01*
X147018476Y-98702809D01*
X147018476Y-98559952D01*
X147066095Y-98369476D01*
X147113714Y-98274238D01*
X147208952Y-98179000D01*
X147351809Y-98131380D01*
X147447047Y-98131380D01*
X147589904Y-98179000D01*
X147637523Y-98226619D01*
X148351809Y-98131380D02*
X148351809Y-98845666D01*
X148304190Y-98988523D01*
X148208952Y-99083761D01*
X148066095Y-99131380D01*
X147970857Y-99131380D01*
X149304190Y-99131380D02*
X148828000Y-99131380D01*
X148828000Y-98131380D01*
X150208952Y-99036142D02*
X150161333Y-99083761D01*
X150018476Y-99131380D01*
X149923238Y-99131380D01*
X149780380Y-99083761D01*
X149685142Y-98988523D01*
X149637523Y-98893285D01*
X149589904Y-98702809D01*
X149589904Y-98559952D01*
X149637523Y-98369476D01*
X149685142Y-98274238D01*
X149780380Y-98179000D01*
X149923238Y-98131380D01*
X150018476Y-98131380D01*
X150161333Y-98179000D01*
X150208952Y-98226619D01*
X150923238Y-98131380D02*
X150923238Y-98845666D01*
X150875619Y-98988523D01*
X150780380Y-99083761D01*
X150637523Y-99131380D01*
X150542285Y-99131380D01*
X151875619Y-99131380D02*
X151399428Y-99131380D01*
X151399428Y-98131380D01*
X152780380Y-99036142D02*
X152732761Y-99083761D01*
X152589904Y-99131380D01*
X152494666Y-99131380D01*
X152351809Y-99083761D01*
X152256571Y-98988523D01*
X152208952Y-98893285D01*
X152161333Y-98702809D01*
X152161333Y-98559952D01*
X152208952Y-98369476D01*
X152256571Y-98274238D01*
X152351809Y-98179000D01*
X152494666Y-98131380D01*
X152589904Y-98131380D01*
X152732761Y-98179000D01*
X152780380Y-98226619D01*
X121134238Y-100385714D02*
X121086619Y-100528571D01*
X121086619Y-100766666D01*
X121134238Y-100861904D01*
X121181857Y-100909523D01*
X121277095Y-100957142D01*
X121372333Y-100957142D01*
X121467571Y-100909523D01*
X121515190Y-100861904D01*
X121562809Y-100766666D01*
X121610428Y-100576190D01*
X121658047Y-100480952D01*
X121705666Y-100433333D01*
X121800904Y-100385714D01*
X121896142Y-100385714D01*
X121991380Y-100433333D01*
X122039000Y-100480952D01*
X122086619Y-100576190D01*
X122086619Y-100814285D01*
X122039000Y-100957142D01*
X121086619Y-101385714D02*
X122086619Y-101385714D01*
X122086619Y-101623809D01*
X122039000Y-101766666D01*
X121943761Y-101861904D01*
X121848523Y-101909523D01*
X121658047Y-101957142D01*
X121515190Y-101957142D01*
X121324714Y-101909523D01*
X121229476Y-101861904D01*
X121134238Y-101766666D01*
X121086619Y-101623809D01*
X121086619Y-101385714D01*
X121372333Y-102338095D02*
X121372333Y-102814285D01*
X121086619Y-102242857D02*
X122086619Y-102576190D01*
X121086619Y-102909523D01*
X121261238Y-95329523D02*
X121213619Y-95472380D01*
X121213619Y-95710476D01*
X121261238Y-95805714D01*
X121308857Y-95853333D01*
X121404095Y-95900952D01*
X121499333Y-95900952D01*
X121594571Y-95853333D01*
X121642190Y-95805714D01*
X121689809Y-95710476D01*
X121737428Y-95520000D01*
X121785047Y-95424761D01*
X121832666Y-95377142D01*
X121927904Y-95329523D01*
X122023142Y-95329523D01*
X122118380Y-95377142D01*
X122166000Y-95424761D01*
X122213619Y-95520000D01*
X122213619Y-95758095D01*
X122166000Y-95900952D01*
X121308857Y-96900952D02*
X121261238Y-96853333D01*
X121213619Y-96710476D01*
X121213619Y-96615238D01*
X121261238Y-96472380D01*
X121356476Y-96377142D01*
X121451714Y-96329523D01*
X121642190Y-96281904D01*
X121785047Y-96281904D01*
X121975523Y-96329523D01*
X122070761Y-96377142D01*
X122166000Y-96472380D01*
X122213619Y-96615238D01*
X122213619Y-96710476D01*
X122166000Y-96853333D01*
X122118380Y-96900952D01*
X121213619Y-97805714D02*
X121213619Y-97329523D01*
X122213619Y-97329523D01*
X122166000Y-112014095D02*
X122213619Y-111918857D01*
X122213619Y-111776000D01*
X122166000Y-111633142D01*
X122070761Y-111537904D01*
X121975523Y-111490285D01*
X121785047Y-111442666D01*
X121642190Y-111442666D01*
X121451714Y-111490285D01*
X121356476Y-111537904D01*
X121261238Y-111633142D01*
X121213619Y-111776000D01*
X121213619Y-111871238D01*
X121261238Y-112014095D01*
X121308857Y-112061714D01*
X121642190Y-112061714D01*
X121642190Y-111871238D01*
X121213619Y-112490285D02*
X122213619Y-112490285D01*
X121213619Y-113061714D01*
X122213619Y-113061714D01*
X121213619Y-113537904D02*
X122213619Y-113537904D01*
X122213619Y-113776000D01*
X122166000Y-113918857D01*
X122070761Y-114014095D01*
X121975523Y-114061714D01*
X121785047Y-114109333D01*
X121642190Y-114109333D01*
X121451714Y-114061714D01*
X121356476Y-114014095D01*
X121261238Y-113918857D01*
X121213619Y-113776000D01*
X121213619Y-113537904D01*
X122213619Y-106219809D02*
X122213619Y-106838857D01*
X121832666Y-106505523D01*
X121832666Y-106648380D01*
X121785047Y-106743619D01*
X121737428Y-106791238D01*
X121642190Y-106838857D01*
X121404095Y-106838857D01*
X121308857Y-106791238D01*
X121261238Y-106743619D01*
X121213619Y-106648380D01*
X121213619Y-106362666D01*
X121261238Y-106267428D01*
X121308857Y-106219809D01*
X121308857Y-107267428D02*
X121261238Y-107315047D01*
X121213619Y-107267428D01*
X121261238Y-107219809D01*
X121308857Y-107267428D01*
X121213619Y-107267428D01*
X122213619Y-107648380D02*
X122213619Y-108267428D01*
X121832666Y-107934095D01*
X121832666Y-108076952D01*
X121785047Y-108172190D01*
X121737428Y-108219809D01*
X121642190Y-108267428D01*
X121404095Y-108267428D01*
X121308857Y-108219809D01*
X121261238Y-108172190D01*
X121213619Y-108076952D01*
X121213619Y-107791238D01*
X121261238Y-107696000D01*
X121308857Y-107648380D01*
X122213619Y-108553142D02*
X121213619Y-108886476D01*
X122213619Y-109219809D01*
X157273809Y-117356000D02*
X157178571Y-117308380D01*
X157035714Y-117308380D01*
X156892857Y-117356000D01*
X156797619Y-117451238D01*
X156750000Y-117546476D01*
X156702380Y-117736952D01*
X156702380Y-117879809D01*
X156750000Y-118070285D01*
X156797619Y-118165523D01*
X156892857Y-118260761D01*
X157035714Y-118308380D01*
X157130952Y-118308380D01*
X157273809Y-118260761D01*
X157321428Y-118213142D01*
X157321428Y-117879809D01*
X157130952Y-117879809D01*
X158178571Y-117641714D02*
X158178571Y-118308380D01*
X157750000Y-117641714D02*
X157750000Y-118165523D01*
X157797619Y-118260761D01*
X157892857Y-118308380D01*
X158035714Y-118308380D01*
X158130952Y-118260761D01*
X158178571Y-118213142D01*
X158654761Y-118308380D02*
X158654761Y-117641714D01*
X158654761Y-117308380D02*
X158607142Y-117356000D01*
X158654761Y-117403619D01*
X158702380Y-117356000D01*
X158654761Y-117308380D01*
X158654761Y-117403619D01*
X158988095Y-117641714D02*
X159369047Y-117641714D01*
X159130952Y-117308380D02*
X159130952Y-118165523D01*
X159178571Y-118260761D01*
X159273809Y-118308380D01*
X159369047Y-118308380D01*
X160130952Y-118308380D02*
X160130952Y-117784571D01*
X160083333Y-117689333D01*
X159988095Y-117641714D01*
X159797619Y-117641714D01*
X159702380Y-117689333D01*
X160130952Y-118260761D02*
X160035714Y-118308380D01*
X159797619Y-118308380D01*
X159702380Y-118260761D01*
X159654761Y-118165523D01*
X159654761Y-118070285D01*
X159702380Y-117975047D01*
X159797619Y-117927428D01*
X160035714Y-117927428D01*
X160130952Y-117879809D01*
X160607142Y-118308380D02*
X160607142Y-117641714D01*
X160607142Y-117832190D02*
X160654761Y-117736952D01*
X160702380Y-117689333D01*
X160797619Y-117641714D01*
X160892857Y-117641714D01*
X151558857Y-117784571D02*
X151701714Y-117832190D01*
X151749333Y-117879809D01*
X151796952Y-117975047D01*
X151796952Y-118117904D01*
X151749333Y-118213142D01*
X151701714Y-118260761D01*
X151606476Y-118308380D01*
X151225523Y-118308380D01*
X151225523Y-117308380D01*
X151558857Y-117308380D01*
X151654095Y-117356000D01*
X151701714Y-117403619D01*
X151749333Y-117498857D01*
X151749333Y-117594095D01*
X151701714Y-117689333D01*
X151654095Y-117736952D01*
X151558857Y-117784571D01*
X151225523Y-117784571D01*
X152654095Y-117641714D02*
X152654095Y-118308380D01*
X152225523Y-117641714D02*
X152225523Y-118165523D01*
X152273142Y-118260761D01*
X152368380Y-118308380D01*
X152511238Y-118308380D01*
X152606476Y-118260761D01*
X152654095Y-118213142D01*
X152987428Y-117641714D02*
X153368380Y-117641714D01*
X153130285Y-117308380D02*
X153130285Y-118165523D01*
X153177904Y-118260761D01*
X153273142Y-118308380D01*
X153368380Y-118308380D01*
X153558857Y-117641714D02*
X153939809Y-117641714D01*
X153701714Y-117308380D02*
X153701714Y-118165523D01*
X153749333Y-118260761D01*
X153844571Y-118308380D01*
X153939809Y-118308380D01*
X154416000Y-118308380D02*
X154320761Y-118260761D01*
X154273142Y-118213142D01*
X154225523Y-118117904D01*
X154225523Y-117832190D01*
X154273142Y-117736952D01*
X154320761Y-117689333D01*
X154416000Y-117641714D01*
X154558857Y-117641714D01*
X154654095Y-117689333D01*
X154701714Y-117736952D01*
X154749333Y-117832190D01*
X154749333Y-118117904D01*
X154701714Y-118213142D01*
X154654095Y-118260761D01*
X154558857Y-118308380D01*
X154416000Y-118308380D01*
X155177904Y-117641714D02*
X155177904Y-118308380D01*
X155177904Y-117736952D02*
X155225523Y-117689333D01*
X155320761Y-117641714D01*
X155463619Y-117641714D01*
X155558857Y-117689333D01*
X155606476Y-117784571D01*
X155606476Y-118308380D01*
X179459000Y-115188904D02*
X179411380Y-115284142D01*
X179411380Y-115427000D01*
X179459000Y-115569857D01*
X179554238Y-115665095D01*
X179649476Y-115712714D01*
X179839952Y-115760333D01*
X179982809Y-115760333D01*
X180173285Y-115712714D01*
X180268523Y-115665095D01*
X180363761Y-115569857D01*
X180411380Y-115427000D01*
X180411380Y-115331761D01*
X180363761Y-115188904D01*
X180316142Y-115141285D01*
X179982809Y-115141285D01*
X179982809Y-115331761D01*
X180411380Y-114712714D02*
X179411380Y-114712714D01*
X180411380Y-114141285D01*
X179411380Y-114141285D01*
X180411380Y-113665095D02*
X179411380Y-113665095D01*
X179411380Y-113427000D01*
X179459000Y-113284142D01*
X179554238Y-113188904D01*
X179649476Y-113141285D01*
X179839952Y-113093666D01*
X179982809Y-113093666D01*
X180173285Y-113141285D01*
X180268523Y-113188904D01*
X180363761Y-113284142D01*
X180411380Y-113427000D01*
X180411380Y-113665095D01*
X177871380Y-115046047D02*
X177871380Y-114855571D01*
X177823761Y-114760333D01*
X177776142Y-114712714D01*
X177633285Y-114617476D01*
X177442809Y-114569857D01*
X177061857Y-114569857D01*
X176966619Y-114617476D01*
X176919000Y-114665095D01*
X176871380Y-114760333D01*
X176871380Y-114950809D01*
X176919000Y-115046047D01*
X176966619Y-115093666D01*
X177061857Y-115141285D01*
X177299952Y-115141285D01*
X177395190Y-115093666D01*
X177442809Y-115046047D01*
X177490428Y-114950809D01*
X177490428Y-114760333D01*
X177442809Y-114665095D01*
X177395190Y-114617476D01*
X177299952Y-114569857D01*
X176871380Y-114284142D02*
X177871380Y-113950809D01*
X176871380Y-113617476D01*
D11*
X181371285Y-113854857D02*
X181371285Y-113426285D01*
X182121285Y-113640571D02*
X181371285Y-113640571D01*
X182121285Y-113176285D02*
X181371285Y-113176285D01*
X182121285Y-112854857D02*
X181728428Y-112854857D01*
X181657000Y-112890571D01*
X181621285Y-112962000D01*
X181621285Y-113069142D01*
X181657000Y-113140571D01*
X181692714Y-113176285D01*
X182121285Y-112390571D02*
X182085571Y-112462000D01*
X182049857Y-112497714D01*
X181978428Y-112533428D01*
X181764142Y-112533428D01*
X181692714Y-112497714D01*
X181657000Y-112462000D01*
X181621285Y-112390571D01*
X181621285Y-112283428D01*
X181657000Y-112212000D01*
X181692714Y-112176285D01*
X181764142Y-112140571D01*
X181978428Y-112140571D01*
X182049857Y-112176285D01*
X182085571Y-112212000D01*
X182121285Y-112283428D01*
X182121285Y-112390571D01*
X182121285Y-111819142D02*
X181621285Y-111819142D01*
X181692714Y-111819142D02*
X181657000Y-111783428D01*
X181621285Y-111712000D01*
X181621285Y-111604857D01*
X181657000Y-111533428D01*
X181728428Y-111497714D01*
X182121285Y-111497714D01*
X181728428Y-111497714D02*
X181657000Y-111462000D01*
X181621285Y-111390571D01*
X181621285Y-111283428D01*
X181657000Y-111212000D01*
X181728428Y-111176285D01*
X182121285Y-111176285D01*
X182121285Y-110497714D02*
X181728428Y-110497714D01*
X181657000Y-110533428D01*
X181621285Y-110604857D01*
X181621285Y-110747714D01*
X181657000Y-110819142D01*
X182085571Y-110497714D02*
X182121285Y-110569142D01*
X182121285Y-110747714D01*
X182085571Y-110819142D01*
X182014142Y-110854857D01*
X181942714Y-110854857D01*
X181871285Y-110819142D01*
X181835571Y-110747714D01*
X181835571Y-110569142D01*
X181799857Y-110497714D01*
X182085571Y-110176285D02*
X182121285Y-110104857D01*
X182121285Y-109962000D01*
X182085571Y-109890571D01*
X182014142Y-109854857D01*
X181978428Y-109854857D01*
X181907000Y-109890571D01*
X181871285Y-109962000D01*
X181871285Y-110069142D01*
X181835571Y-110140571D01*
X181764142Y-110176285D01*
X181728428Y-110176285D01*
X181657000Y-110140571D01*
X181621285Y-110069142D01*
X181621285Y-109962000D01*
X181657000Y-109890571D01*
X182121285Y-108962000D02*
X181371285Y-108962000D01*
X181907000Y-108712000D01*
X181371285Y-108462000D01*
X182121285Y-108462000D01*
X182085571Y-107783428D02*
X182121285Y-107854857D01*
X182121285Y-107997714D01*
X182085571Y-108069142D01*
X182049857Y-108104857D01*
X181978428Y-108140571D01*
X181764142Y-108140571D01*
X181692714Y-108104857D01*
X181657000Y-108069142D01*
X181621285Y-107997714D01*
X181621285Y-107854857D01*
X181657000Y-107783428D01*
X182121285Y-107462000D02*
X181371285Y-107462000D01*
X181371285Y-107283428D01*
X181407000Y-107176285D01*
X181478428Y-107104857D01*
X181549857Y-107069142D01*
X181692714Y-107033428D01*
X181799857Y-107033428D01*
X181942714Y-107069142D01*
X182014142Y-107104857D01*
X182085571Y-107176285D01*
X182121285Y-107283428D01*
X182121285Y-107462000D01*
X182121285Y-106604857D02*
X182085571Y-106676285D01*
X182049857Y-106712000D01*
X181978428Y-106747714D01*
X181764142Y-106747714D01*
X181692714Y-106712000D01*
X181657000Y-106676285D01*
X181621285Y-106604857D01*
X181621285Y-106497714D01*
X181657000Y-106426285D01*
X181692714Y-106390571D01*
X181764142Y-106354857D01*
X181978428Y-106354857D01*
X182049857Y-106390571D01*
X182085571Y-106426285D01*
X182121285Y-106497714D01*
X182121285Y-106604857D01*
X181621285Y-106033428D02*
X182121285Y-106033428D01*
X181692714Y-106033428D02*
X181657000Y-105997714D01*
X181621285Y-105926285D01*
X181621285Y-105819142D01*
X181657000Y-105747714D01*
X181728428Y-105712000D01*
X182121285Y-105712000D01*
X182121285Y-105033428D02*
X181728428Y-105033428D01*
X181657000Y-105069142D01*
X181621285Y-105140571D01*
X181621285Y-105283428D01*
X181657000Y-105354857D01*
X182085571Y-105033428D02*
X182121285Y-105104857D01*
X182121285Y-105283428D01*
X182085571Y-105354857D01*
X182014142Y-105390571D01*
X181942714Y-105390571D01*
X181871285Y-105354857D01*
X181835571Y-105283428D01*
X181835571Y-105104857D01*
X181799857Y-105033428D01*
X181621285Y-104354857D02*
X182228428Y-104354857D01*
X182299857Y-104390571D01*
X182335571Y-104426285D01*
X182371285Y-104497714D01*
X182371285Y-104604857D01*
X182335571Y-104676285D01*
X182085571Y-104354857D02*
X182121285Y-104426285D01*
X182121285Y-104569142D01*
X182085571Y-104640571D01*
X182049857Y-104676285D01*
X181978428Y-104712000D01*
X181764142Y-104712000D01*
X181692714Y-104676285D01*
X181657000Y-104640571D01*
X181621285Y-104569142D01*
X181621285Y-104426285D01*
X181657000Y-104354857D01*
X182121285Y-103997714D02*
X181371285Y-103997714D01*
X182121285Y-103676285D02*
X181728428Y-103676285D01*
X181657000Y-103712000D01*
X181621285Y-103783428D01*
X181621285Y-103890571D01*
X181657000Y-103962000D01*
X181692714Y-103997714D01*
X183310571Y-113551285D02*
X183346285Y-113622714D01*
X183346285Y-113765571D01*
X183310571Y-113837000D01*
X183274857Y-113872714D01*
X183203428Y-113908428D01*
X182989142Y-113908428D01*
X182917714Y-113872714D01*
X182882000Y-113837000D01*
X182846285Y-113765571D01*
X182846285Y-113622714D01*
X182882000Y-113551285D01*
X183346285Y-113122714D02*
X183310571Y-113194142D01*
X183274857Y-113229857D01*
X183203428Y-113265571D01*
X182989142Y-113265571D01*
X182917714Y-113229857D01*
X182882000Y-113194142D01*
X182846285Y-113122714D01*
X182846285Y-113015571D01*
X182882000Y-112944142D01*
X182917714Y-112908428D01*
X182989142Y-112872714D01*
X183203428Y-112872714D01*
X183274857Y-112908428D01*
X183310571Y-112944142D01*
X183346285Y-113015571D01*
X183346285Y-113122714D01*
X182846285Y-112551285D02*
X183346285Y-112551285D01*
X182917714Y-112551285D02*
X182882000Y-112515571D01*
X182846285Y-112444142D01*
X182846285Y-112337000D01*
X182882000Y-112265571D01*
X182953428Y-112229857D01*
X183346285Y-112229857D01*
X183310571Y-111908428D02*
X183346285Y-111837000D01*
X183346285Y-111694142D01*
X183310571Y-111622714D01*
X183239142Y-111587000D01*
X183203428Y-111587000D01*
X183132000Y-111622714D01*
X183096285Y-111694142D01*
X183096285Y-111801285D01*
X183060571Y-111872714D01*
X182989142Y-111908428D01*
X182953428Y-111908428D01*
X182882000Y-111872714D01*
X182846285Y-111801285D01*
X182846285Y-111694142D01*
X182882000Y-111622714D01*
X183346285Y-111158428D02*
X183310571Y-111229857D01*
X183274857Y-111265571D01*
X183203428Y-111301285D01*
X182989142Y-111301285D01*
X182917714Y-111265571D01*
X182882000Y-111229857D01*
X182846285Y-111158428D01*
X182846285Y-111051285D01*
X182882000Y-110979857D01*
X182917714Y-110944142D01*
X182989142Y-110908428D01*
X183203428Y-110908428D01*
X183274857Y-110944142D01*
X183310571Y-110979857D01*
X183346285Y-111051285D01*
X183346285Y-111158428D01*
X183346285Y-110479857D02*
X183310571Y-110551285D01*
X183239142Y-110587000D01*
X182596285Y-110587000D01*
X183310571Y-109908428D02*
X183346285Y-109979857D01*
X183346285Y-110122714D01*
X183310571Y-110194142D01*
X183239142Y-110229857D01*
X182953428Y-110229857D01*
X182882000Y-110194142D01*
X182846285Y-110122714D01*
X182846285Y-109979857D01*
X182882000Y-109908428D01*
X182953428Y-109872714D01*
X183024857Y-109872714D01*
X183096285Y-110229857D01*
X182846285Y-109551285D02*
X183596285Y-109551285D01*
X182882000Y-109551285D02*
X182846285Y-109479857D01*
X182846285Y-109337000D01*
X182882000Y-109265571D01*
X182917714Y-109229857D01*
X182989142Y-109194142D01*
X183203428Y-109194142D01*
X183274857Y-109229857D01*
X183310571Y-109265571D01*
X183346285Y-109337000D01*
X183346285Y-109479857D01*
X183310571Y-109551285D01*
X183310571Y-108587000D02*
X183346285Y-108658428D01*
X183346285Y-108801285D01*
X183310571Y-108872714D01*
X183239142Y-108908428D01*
X182953428Y-108908428D01*
X182882000Y-108872714D01*
X182846285Y-108801285D01*
X182846285Y-108658428D01*
X182882000Y-108587000D01*
X182953428Y-108551285D01*
X183024857Y-108551285D01*
X183096285Y-108908428D01*
X183346285Y-107908428D02*
X182596285Y-107908428D01*
X183310571Y-107908428D02*
X183346285Y-107979857D01*
X183346285Y-108122714D01*
X183310571Y-108194142D01*
X183274857Y-108229857D01*
X183203428Y-108265571D01*
X182989142Y-108265571D01*
X182917714Y-108229857D01*
X182882000Y-108194142D01*
X182846285Y-108122714D01*
X182846285Y-107979857D01*
X182882000Y-107908428D01*
X183346285Y-107229857D02*
X182953428Y-107229857D01*
X182882000Y-107265571D01*
X182846285Y-107337000D01*
X182846285Y-107479857D01*
X182882000Y-107551285D01*
X183310571Y-107229857D02*
X183346285Y-107301285D01*
X183346285Y-107479857D01*
X183310571Y-107551285D01*
X183239142Y-107587000D01*
X183167714Y-107587000D01*
X183096285Y-107551285D01*
X183060571Y-107479857D01*
X183060571Y-107301285D01*
X183024857Y-107229857D01*
X183346285Y-106765571D02*
X183310571Y-106837000D01*
X183239142Y-106872714D01*
X182596285Y-106872714D01*
X183310571Y-106515571D02*
X183346285Y-106444142D01*
X183346285Y-106301285D01*
X183310571Y-106229857D01*
X183239142Y-106194142D01*
X183203428Y-106194142D01*
X183132000Y-106229857D01*
X183096285Y-106301285D01*
X183096285Y-106408428D01*
X183060571Y-106479857D01*
X182989142Y-106515571D01*
X182953428Y-106515571D01*
X182882000Y-106479857D01*
X182846285Y-106408428D01*
X182846285Y-106301285D01*
X182882000Y-106229857D01*
X183274857Y-105872714D02*
X183310571Y-105837000D01*
X183346285Y-105872714D01*
X183310571Y-105908428D01*
X183274857Y-105872714D01*
X183346285Y-105872714D01*
X183310571Y-105194142D02*
X183346285Y-105265571D01*
X183346285Y-105408428D01*
X183310571Y-105479857D01*
X183274857Y-105515571D01*
X183203428Y-105551285D01*
X182989142Y-105551285D01*
X182917714Y-105515571D01*
X182882000Y-105479857D01*
X182846285Y-105408428D01*
X182846285Y-105265571D01*
X182882000Y-105194142D01*
X183346285Y-104765571D02*
X183310571Y-104837000D01*
X183274857Y-104872714D01*
X183203428Y-104908428D01*
X182989142Y-104908428D01*
X182917714Y-104872714D01*
X182882000Y-104837000D01*
X182846285Y-104765571D01*
X182846285Y-104658428D01*
X182882000Y-104587000D01*
X182917714Y-104551285D01*
X182989142Y-104515571D01*
X183203428Y-104515571D01*
X183274857Y-104551285D01*
X183310571Y-104587000D01*
X183346285Y-104658428D01*
X183346285Y-104765571D01*
X183346285Y-104194142D02*
X182846285Y-104194142D01*
X182917714Y-104194142D02*
X182882000Y-104158428D01*
X182846285Y-104087000D01*
X182846285Y-103979857D01*
X182882000Y-103908428D01*
X182953428Y-103872714D01*
X183346285Y-103872714D01*
X182953428Y-103872714D02*
X182882000Y-103837000D01*
X182846285Y-103765571D01*
X182846285Y-103658428D01*
X182882000Y-103587000D01*
X182953428Y-103551285D01*
X183346285Y-103551285D01*
X183857000Y-115015571D02*
X183821285Y-115087000D01*
X183821285Y-115194142D01*
X183857000Y-115301285D01*
X183928428Y-115372714D01*
X183999857Y-115408428D01*
X184142714Y-115444142D01*
X184249857Y-115444142D01*
X184392714Y-115408428D01*
X184464142Y-115372714D01*
X184535571Y-115301285D01*
X184571285Y-115194142D01*
X184571285Y-115122714D01*
X184535571Y-115015571D01*
X184499857Y-114979857D01*
X184249857Y-114979857D01*
X184249857Y-115122714D01*
X184071285Y-114337000D02*
X184571285Y-114337000D01*
X184071285Y-114658428D02*
X184464142Y-114658428D01*
X184535571Y-114622714D01*
X184571285Y-114551285D01*
X184571285Y-114444142D01*
X184535571Y-114372714D01*
X184499857Y-114337000D01*
X184571285Y-113979857D02*
X184071285Y-113979857D01*
X183821285Y-113979857D02*
X183857000Y-114015571D01*
X183892714Y-113979857D01*
X183857000Y-113944142D01*
X183821285Y-113979857D01*
X183892714Y-113979857D01*
X184071285Y-113729857D02*
X184071285Y-113444142D01*
X183821285Y-113622714D02*
X184464142Y-113622714D01*
X184535571Y-113587000D01*
X184571285Y-113515571D01*
X184571285Y-113444142D01*
X184571285Y-112872714D02*
X184178428Y-112872714D01*
X184107000Y-112908428D01*
X184071285Y-112979857D01*
X184071285Y-113122714D01*
X184107000Y-113194142D01*
X184535571Y-112872714D02*
X184571285Y-112944142D01*
X184571285Y-113122714D01*
X184535571Y-113194142D01*
X184464142Y-113229857D01*
X184392714Y-113229857D01*
X184321285Y-113194142D01*
X184285571Y-113122714D01*
X184285571Y-112944142D01*
X184249857Y-112872714D01*
X184571285Y-112515571D02*
X184071285Y-112515571D01*
X184214142Y-112515571D02*
X184142714Y-112479857D01*
X184107000Y-112444142D01*
X184071285Y-112372714D01*
X184071285Y-112301285D01*
X184571285Y-111479857D02*
X183821285Y-111479857D01*
X184357000Y-111229857D01*
X183821285Y-110979857D01*
X184571285Y-110979857D01*
X184571285Y-110622714D02*
X184071285Y-110622714D01*
X183821285Y-110622714D02*
X183857000Y-110658428D01*
X183892714Y-110622714D01*
X183857000Y-110587000D01*
X183821285Y-110622714D01*
X183892714Y-110622714D01*
X184535571Y-109944142D02*
X184571285Y-110015571D01*
X184571285Y-110158428D01*
X184535571Y-110229857D01*
X184499857Y-110265571D01*
X184428428Y-110301285D01*
X184214142Y-110301285D01*
X184142714Y-110265571D01*
X184107000Y-110229857D01*
X184071285Y-110158428D01*
X184071285Y-110015571D01*
X184107000Y-109944142D01*
X184571285Y-109622714D02*
X184071285Y-109622714D01*
X184214142Y-109622714D02*
X184142714Y-109587000D01*
X184107000Y-109551285D01*
X184071285Y-109479857D01*
X184071285Y-109408428D01*
X184571285Y-109051285D02*
X184535571Y-109122714D01*
X184499857Y-109158428D01*
X184428428Y-109194142D01*
X184214142Y-109194142D01*
X184142714Y-109158428D01*
X184107000Y-109122714D01*
X184071285Y-109051285D01*
X184071285Y-108944142D01*
X184107000Y-108872714D01*
X184142714Y-108837000D01*
X184214142Y-108801285D01*
X184428428Y-108801285D01*
X184499857Y-108837000D01*
X184535571Y-108872714D01*
X184571285Y-108944142D01*
X184571285Y-109051285D01*
X184178428Y-107658428D02*
X184214142Y-107551285D01*
X184249857Y-107515571D01*
X184321285Y-107479857D01*
X184428428Y-107479857D01*
X184499857Y-107515571D01*
X184535571Y-107551285D01*
X184571285Y-107622714D01*
X184571285Y-107908428D01*
X183821285Y-107908428D01*
X183821285Y-107658428D01*
X183857000Y-107587000D01*
X183892714Y-107551285D01*
X183964142Y-107515571D01*
X184035571Y-107515571D01*
X184107000Y-107551285D01*
X184142714Y-107587000D01*
X184178428Y-107658428D01*
X184178428Y-107908428D01*
X184571285Y-107051285D02*
X184535571Y-107122714D01*
X184499857Y-107158428D01*
X184428428Y-107194142D01*
X184214142Y-107194142D01*
X184142714Y-107158428D01*
X184107000Y-107122714D01*
X184071285Y-107051285D01*
X184071285Y-106944142D01*
X184107000Y-106872714D01*
X184142714Y-106837000D01*
X184214142Y-106801285D01*
X184428428Y-106801285D01*
X184499857Y-106837000D01*
X184535571Y-106872714D01*
X184571285Y-106944142D01*
X184571285Y-107051285D01*
X184571285Y-106158428D02*
X184178428Y-106158428D01*
X184107000Y-106194142D01*
X184071285Y-106265571D01*
X184071285Y-106408428D01*
X184107000Y-106479857D01*
X184535571Y-106158428D02*
X184571285Y-106229857D01*
X184571285Y-106408428D01*
X184535571Y-106479857D01*
X184464142Y-106515571D01*
X184392714Y-106515571D01*
X184321285Y-106479857D01*
X184285571Y-106408428D01*
X184285571Y-106229857D01*
X184249857Y-106158428D01*
X184571285Y-105801285D02*
X184071285Y-105801285D01*
X184214142Y-105801285D02*
X184142714Y-105765571D01*
X184107000Y-105729857D01*
X184071285Y-105658428D01*
X184071285Y-105587000D01*
X184571285Y-105015571D02*
X183821285Y-105015571D01*
X184535571Y-105015571D02*
X184571285Y-105087000D01*
X184571285Y-105229857D01*
X184535571Y-105301285D01*
X184499857Y-105337000D01*
X184428428Y-105372714D01*
X184214142Y-105372714D01*
X184142714Y-105337000D01*
X184107000Y-105301285D01*
X184071285Y-105229857D01*
X184071285Y-105087000D01*
X184107000Y-105015571D01*
X183821285Y-104194142D02*
X184571285Y-103944142D01*
X183821285Y-103694142D01*
X184571285Y-103051285D02*
X184571285Y-103479857D01*
X184571285Y-103265571D02*
X183821285Y-103265571D01*
X183928428Y-103337000D01*
X183999857Y-103408428D01*
X184035571Y-103479857D01*
X184499857Y-102729857D02*
X184535571Y-102694142D01*
X184571285Y-102729857D01*
X184535571Y-102765571D01*
X184499857Y-102729857D01*
X184571285Y-102729857D01*
X183821285Y-102229857D02*
X183821285Y-102158428D01*
X183857000Y-102087000D01*
X183892714Y-102051285D01*
X183964142Y-102015571D01*
X184107000Y-101979857D01*
X184285571Y-101979857D01*
X184428428Y-102015571D01*
X184499857Y-102051285D01*
X184535571Y-102087000D01*
X184571285Y-102158428D01*
X184571285Y-102229857D01*
X184535571Y-102301285D01*
X184499857Y-102337000D01*
X184428428Y-102372714D01*
X184285571Y-102408428D01*
X184107000Y-102408428D01*
X183964142Y-102372714D01*
X183892714Y-102337000D01*
X183857000Y-102301285D01*
X183821285Y-102229857D01*
D12*
G04 #@! TO.C,C3*
X170084000Y-118696000D02*
X175324000Y-118696000D01*
X170084000Y-107696000D02*
X170084000Y-118696000D01*
X175324000Y-107696000D02*
X175324000Y-118696000D01*
X175324000Y-107696000D02*
G75*
G03*
X175324000Y-107696000I-2620000J0D01*
G01*
X172704000Y-108736000D02*
X172704000Y-110276000D01*
X172704000Y-105116000D02*
X172704000Y-106656000D01*
X172744000Y-108736000D02*
X172744000Y-110276000D01*
X172744000Y-105116000D02*
X172744000Y-106656000D01*
X172784000Y-105117000D02*
X172784000Y-106656000D01*
X172784000Y-108736000D02*
X172784000Y-110275000D01*
X172824000Y-105118000D02*
X172824000Y-106656000D01*
X172824000Y-108736000D02*
X172824000Y-110274000D01*
X172864000Y-105120000D02*
X172864000Y-106656000D01*
X172864000Y-108736000D02*
X172864000Y-110272000D01*
X172904000Y-105123000D02*
X172904000Y-106656000D01*
X172904000Y-108736000D02*
X172904000Y-110269000D01*
X172944000Y-105127000D02*
X172944000Y-106656000D01*
X172944000Y-108736000D02*
X172944000Y-110265000D01*
X172984000Y-105131000D02*
X172984000Y-106656000D01*
X172984000Y-108736000D02*
X172984000Y-110261000D01*
X173024000Y-105135000D02*
X173024000Y-106656000D01*
X173024000Y-108736000D02*
X173024000Y-110257000D01*
X173064000Y-105140000D02*
X173064000Y-106656000D01*
X173064000Y-108736000D02*
X173064000Y-110252000D01*
X173104000Y-105146000D02*
X173104000Y-106656000D01*
X173104000Y-108736000D02*
X173104000Y-110246000D01*
X173144000Y-105153000D02*
X173144000Y-106656000D01*
X173144000Y-108736000D02*
X173144000Y-110239000D01*
X173184000Y-105160000D02*
X173184000Y-106656000D01*
X173184000Y-108736000D02*
X173184000Y-110232000D01*
X173224000Y-105168000D02*
X173224000Y-106656000D01*
X173224000Y-108736000D02*
X173224000Y-110224000D01*
X173264000Y-105176000D02*
X173264000Y-106656000D01*
X173264000Y-108736000D02*
X173264000Y-110216000D01*
X173304000Y-105185000D02*
X173304000Y-106656000D01*
X173304000Y-108736000D02*
X173304000Y-110207000D01*
X173344000Y-105195000D02*
X173344000Y-106656000D01*
X173344000Y-108736000D02*
X173344000Y-110197000D01*
X173384000Y-105205000D02*
X173384000Y-106656000D01*
X173384000Y-108736000D02*
X173384000Y-110187000D01*
X173425000Y-105216000D02*
X173425000Y-106656000D01*
X173425000Y-108736000D02*
X173425000Y-110176000D01*
X173465000Y-105228000D02*
X173465000Y-106656000D01*
X173465000Y-108736000D02*
X173465000Y-110164000D01*
X173505000Y-105241000D02*
X173505000Y-106656000D01*
X173505000Y-108736000D02*
X173505000Y-110151000D01*
X173545000Y-105254000D02*
X173545000Y-106656000D01*
X173545000Y-108736000D02*
X173545000Y-110138000D01*
X173585000Y-105268000D02*
X173585000Y-106656000D01*
X173585000Y-108736000D02*
X173585000Y-110124000D01*
X173625000Y-105282000D02*
X173625000Y-106656000D01*
X173625000Y-108736000D02*
X173625000Y-110110000D01*
X173665000Y-105298000D02*
X173665000Y-106656000D01*
X173665000Y-108736000D02*
X173665000Y-110094000D01*
X173705000Y-105314000D02*
X173705000Y-106656000D01*
X173705000Y-108736000D02*
X173705000Y-110078000D01*
X173745000Y-105331000D02*
X173745000Y-106656000D01*
X173745000Y-108736000D02*
X173745000Y-110061000D01*
X173785000Y-105348000D02*
X173785000Y-106656000D01*
X173785000Y-108736000D02*
X173785000Y-110044000D01*
X173825000Y-105367000D02*
X173825000Y-106656000D01*
X173825000Y-108736000D02*
X173825000Y-110025000D01*
X173865000Y-105386000D02*
X173865000Y-106656000D01*
X173865000Y-108736000D02*
X173865000Y-110006000D01*
X173905000Y-105406000D02*
X173905000Y-106656000D01*
X173905000Y-108736000D02*
X173905000Y-109986000D01*
X173945000Y-105428000D02*
X173945000Y-106656000D01*
X173945000Y-108736000D02*
X173945000Y-109964000D01*
X173985000Y-105449000D02*
X173985000Y-106656000D01*
X173985000Y-108736000D02*
X173985000Y-109943000D01*
X174025000Y-105472000D02*
X174025000Y-106656000D01*
X174025000Y-108736000D02*
X174025000Y-109920000D01*
X174065000Y-105496000D02*
X174065000Y-106656000D01*
X174065000Y-108736000D02*
X174065000Y-109896000D01*
X174105000Y-105521000D02*
X174105000Y-106656000D01*
X174105000Y-108736000D02*
X174105000Y-109871000D01*
X174145000Y-105547000D02*
X174145000Y-106656000D01*
X174145000Y-108736000D02*
X174145000Y-109845000D01*
X174185000Y-105574000D02*
X174185000Y-106656000D01*
X174185000Y-108736000D02*
X174185000Y-109818000D01*
X174225000Y-105601000D02*
X174225000Y-106656000D01*
X174225000Y-108736000D02*
X174225000Y-109791000D01*
X174265000Y-105631000D02*
X174265000Y-106656000D01*
X174265000Y-108736000D02*
X174265000Y-109761000D01*
X174305000Y-105661000D02*
X174305000Y-106656000D01*
X174305000Y-108736000D02*
X174305000Y-109731000D01*
X174345000Y-105692000D02*
X174345000Y-106656000D01*
X174345000Y-108736000D02*
X174345000Y-109700000D01*
X174385000Y-105725000D02*
X174385000Y-106656000D01*
X174385000Y-108736000D02*
X174385000Y-109667000D01*
X174425000Y-105759000D02*
X174425000Y-106656000D01*
X174425000Y-108736000D02*
X174425000Y-109633000D01*
X174465000Y-105795000D02*
X174465000Y-106656000D01*
X174465000Y-108736000D02*
X174465000Y-109597000D01*
X174505000Y-105832000D02*
X174505000Y-106656000D01*
X174505000Y-108736000D02*
X174505000Y-109560000D01*
X174545000Y-105870000D02*
X174545000Y-106656000D01*
X174545000Y-108736000D02*
X174545000Y-109522000D01*
X174585000Y-105911000D02*
X174585000Y-106656000D01*
X174585000Y-108736000D02*
X174585000Y-109481000D01*
X174625000Y-105953000D02*
X174625000Y-106656000D01*
X174625000Y-108736000D02*
X174625000Y-109439000D01*
X174665000Y-105997000D02*
X174665000Y-106656000D01*
X174665000Y-108736000D02*
X174665000Y-109395000D01*
X174705000Y-106043000D02*
X174705000Y-106656000D01*
X174705000Y-108736000D02*
X174705000Y-109349000D01*
X174745000Y-106091000D02*
X174745000Y-109301000D01*
X174785000Y-106142000D02*
X174785000Y-109250000D01*
X174825000Y-106196000D02*
X174825000Y-109196000D01*
X174865000Y-106253000D02*
X174865000Y-109139000D01*
X174905000Y-106313000D02*
X174905000Y-109079000D01*
X174945000Y-106377000D02*
X174945000Y-109015000D01*
X174985000Y-106445000D02*
X174985000Y-108947000D01*
X175025000Y-106518000D02*
X175025000Y-108874000D01*
X175065000Y-106598000D02*
X175065000Y-108794000D01*
X175105000Y-106685000D02*
X175105000Y-108707000D01*
X175145000Y-106781000D02*
X175145000Y-108611000D01*
X175185000Y-106891000D02*
X175185000Y-108501000D01*
X175225000Y-107019000D02*
X175225000Y-108373000D01*
X175265000Y-107178000D02*
X175265000Y-108214000D01*
X175305000Y-107412000D02*
X175305000Y-107980000D01*
X169899225Y-106221000D02*
X170399225Y-106221000D01*
X170149225Y-105971000D02*
X170149225Y-106471000D01*
G04 #@! TO.C,C6*
X175290775Y-103579000D02*
X175290775Y-103079000D01*
X175540775Y-103329000D02*
X175040775Y-103329000D01*
X170135000Y-102138000D02*
X170135000Y-101570000D01*
X170175000Y-102372000D02*
X170175000Y-101336000D01*
X170215000Y-102531000D02*
X170215000Y-101177000D01*
X170255000Y-102659000D02*
X170255000Y-101049000D01*
X170295000Y-102769000D02*
X170295000Y-100939000D01*
X170335000Y-102865000D02*
X170335000Y-100843000D01*
X170375000Y-102952000D02*
X170375000Y-100756000D01*
X170415000Y-103032000D02*
X170415000Y-100676000D01*
X170455000Y-103105000D02*
X170455000Y-100603000D01*
X170495000Y-103173000D02*
X170495000Y-100535000D01*
X170535000Y-103237000D02*
X170535000Y-100471000D01*
X170575000Y-103297000D02*
X170575000Y-100411000D01*
X170615000Y-103354000D02*
X170615000Y-100354000D01*
X170655000Y-103408000D02*
X170655000Y-100300000D01*
X170695000Y-103459000D02*
X170695000Y-100249000D01*
X170735000Y-100814000D02*
X170735000Y-100201000D01*
X170735000Y-103507000D02*
X170735000Y-102894000D01*
X170775000Y-100814000D02*
X170775000Y-100155000D01*
X170775000Y-103553000D02*
X170775000Y-102894000D01*
X170815000Y-100814000D02*
X170815000Y-100111000D01*
X170815000Y-103597000D02*
X170815000Y-102894000D01*
X170855000Y-100814000D02*
X170855000Y-100069000D01*
X170855000Y-103639000D02*
X170855000Y-102894000D01*
X170895000Y-100814000D02*
X170895000Y-100028000D01*
X170895000Y-103680000D02*
X170895000Y-102894000D01*
X170935000Y-100814000D02*
X170935000Y-99990000D01*
X170935000Y-103718000D02*
X170935000Y-102894000D01*
X170975000Y-100814000D02*
X170975000Y-99953000D01*
X170975000Y-103755000D02*
X170975000Y-102894000D01*
X171015000Y-100814000D02*
X171015000Y-99917000D01*
X171015000Y-103791000D02*
X171015000Y-102894000D01*
X171055000Y-100814000D02*
X171055000Y-99883000D01*
X171055000Y-103825000D02*
X171055000Y-102894000D01*
X171095000Y-100814000D02*
X171095000Y-99850000D01*
X171095000Y-103858000D02*
X171095000Y-102894000D01*
X171135000Y-100814000D02*
X171135000Y-99819000D01*
X171135000Y-103889000D02*
X171135000Y-102894000D01*
X171175000Y-100814000D02*
X171175000Y-99789000D01*
X171175000Y-103919000D02*
X171175000Y-102894000D01*
X171215000Y-100814000D02*
X171215000Y-99759000D01*
X171215000Y-103949000D02*
X171215000Y-102894000D01*
X171255000Y-100814000D02*
X171255000Y-99732000D01*
X171255000Y-103976000D02*
X171255000Y-102894000D01*
X171295000Y-100814000D02*
X171295000Y-99705000D01*
X171295000Y-104003000D02*
X171295000Y-102894000D01*
X171335000Y-100814000D02*
X171335000Y-99679000D01*
X171335000Y-104029000D02*
X171335000Y-102894000D01*
X171375000Y-100814000D02*
X171375000Y-99654000D01*
X171375000Y-104054000D02*
X171375000Y-102894000D01*
X171415000Y-100814000D02*
X171415000Y-99630000D01*
X171415000Y-104078000D02*
X171415000Y-102894000D01*
X171455000Y-100814000D02*
X171455000Y-99607000D01*
X171455000Y-104101000D02*
X171455000Y-102894000D01*
X171495000Y-100814000D02*
X171495000Y-99586000D01*
X171495000Y-104122000D02*
X171495000Y-102894000D01*
X171535000Y-100814000D02*
X171535000Y-99564000D01*
X171535000Y-104144000D02*
X171535000Y-102894000D01*
X171575000Y-100814000D02*
X171575000Y-99544000D01*
X171575000Y-104164000D02*
X171575000Y-102894000D01*
X171615000Y-100814000D02*
X171615000Y-99525000D01*
X171615000Y-104183000D02*
X171615000Y-102894000D01*
X171655000Y-100814000D02*
X171655000Y-99506000D01*
X171655000Y-104202000D02*
X171655000Y-102894000D01*
X171695000Y-100814000D02*
X171695000Y-99489000D01*
X171695000Y-104219000D02*
X171695000Y-102894000D01*
X171735000Y-100814000D02*
X171735000Y-99472000D01*
X171735000Y-104236000D02*
X171735000Y-102894000D01*
X171775000Y-100814000D02*
X171775000Y-99456000D01*
X171775000Y-104252000D02*
X171775000Y-102894000D01*
X171815000Y-100814000D02*
X171815000Y-99440000D01*
X171815000Y-104268000D02*
X171815000Y-102894000D01*
X171855000Y-100814000D02*
X171855000Y-99426000D01*
X171855000Y-104282000D02*
X171855000Y-102894000D01*
X171895000Y-100814000D02*
X171895000Y-99412000D01*
X171895000Y-104296000D02*
X171895000Y-102894000D01*
X171935000Y-100814000D02*
X171935000Y-99399000D01*
X171935000Y-104309000D02*
X171935000Y-102894000D01*
X171975000Y-100814000D02*
X171975000Y-99386000D01*
X171975000Y-104322000D02*
X171975000Y-102894000D01*
X172015000Y-100814000D02*
X172015000Y-99374000D01*
X172015000Y-104334000D02*
X172015000Y-102894000D01*
X172056000Y-100814000D02*
X172056000Y-99363000D01*
X172056000Y-104345000D02*
X172056000Y-102894000D01*
X172096000Y-100814000D02*
X172096000Y-99353000D01*
X172096000Y-104355000D02*
X172096000Y-102894000D01*
X172136000Y-100814000D02*
X172136000Y-99343000D01*
X172136000Y-104365000D02*
X172136000Y-102894000D01*
X172176000Y-100814000D02*
X172176000Y-99334000D01*
X172176000Y-104374000D02*
X172176000Y-102894000D01*
X172216000Y-100814000D02*
X172216000Y-99326000D01*
X172216000Y-104382000D02*
X172216000Y-102894000D01*
X172256000Y-100814000D02*
X172256000Y-99318000D01*
X172256000Y-104390000D02*
X172256000Y-102894000D01*
X172296000Y-100814000D02*
X172296000Y-99311000D01*
X172296000Y-104397000D02*
X172296000Y-102894000D01*
X172336000Y-100814000D02*
X172336000Y-99304000D01*
X172336000Y-104404000D02*
X172336000Y-102894000D01*
X172376000Y-100814000D02*
X172376000Y-99298000D01*
X172376000Y-104410000D02*
X172376000Y-102894000D01*
X172416000Y-100814000D02*
X172416000Y-99293000D01*
X172416000Y-104415000D02*
X172416000Y-102894000D01*
X172456000Y-100814000D02*
X172456000Y-99289000D01*
X172456000Y-104419000D02*
X172456000Y-102894000D01*
X172496000Y-100814000D02*
X172496000Y-99285000D01*
X172496000Y-104423000D02*
X172496000Y-102894000D01*
X172536000Y-100814000D02*
X172536000Y-99281000D01*
X172536000Y-104427000D02*
X172536000Y-102894000D01*
X172576000Y-100814000D02*
X172576000Y-99278000D01*
X172576000Y-104430000D02*
X172576000Y-102894000D01*
X172616000Y-100814000D02*
X172616000Y-99276000D01*
X172616000Y-104432000D02*
X172616000Y-102894000D01*
X172656000Y-100814000D02*
X172656000Y-99275000D01*
X172656000Y-104433000D02*
X172656000Y-102894000D01*
X172696000Y-104434000D02*
X172696000Y-102894000D01*
X172696000Y-100814000D02*
X172696000Y-99274000D01*
X172736000Y-104434000D02*
X172736000Y-102894000D01*
X172736000Y-100814000D02*
X172736000Y-99274000D01*
X175356000Y-101854000D02*
G75*
G03*
X175356000Y-101854000I-2620000J0D01*
G01*
X170116000Y-101854000D02*
X170116000Y-90854000D01*
X175356000Y-101854000D02*
X175356000Y-90854000D01*
X175356000Y-90854000D02*
X170116000Y-90854000D01*
G04 #@! TO.C,J2*
X127000000Y-105156000D02*
X127000000Y-115316000D01*
X128270000Y-105156000D02*
X120650000Y-105156000D01*
X120650000Y-105156000D02*
X120650000Y-115316000D01*
X120650000Y-115316000D02*
X128270000Y-115316000D01*
X128270000Y-115316000D02*
X128270000Y-105156000D01*
G04 #@! TO.C,J3*
X128270000Y-104140000D02*
X128270000Y-93980000D01*
X120650000Y-104140000D02*
X128270000Y-104140000D01*
X120650000Y-93980000D02*
X120650000Y-104140000D01*
X128270000Y-93980000D02*
X120650000Y-93980000D01*
X127000000Y-93980000D02*
X127000000Y-104140000D01*
G04 #@! TO.C,J4*
X151003000Y-112649000D02*
X161163000Y-112649000D01*
X151003000Y-111379000D02*
X151003000Y-118999000D01*
X151003000Y-118999000D02*
X161163000Y-118999000D01*
X161163000Y-118999000D02*
X161163000Y-111379000D01*
X161163000Y-111379000D02*
X151003000Y-111379000D01*
G04 #@! TO.C,R1*
X165635000Y-116300000D02*
X168375000Y-116300000D01*
X168375000Y-116300000D02*
X168375000Y-109760000D01*
X168375000Y-109760000D02*
X165635000Y-109760000D01*
X165635000Y-109760000D02*
X165635000Y-116300000D01*
X167005000Y-117070000D02*
X167005000Y-116300000D01*
X167005000Y-108990000D02*
X167005000Y-109760000D01*
G04 #@! TO.C,R2*
X157631000Y-92075000D02*
X158401000Y-92075000D01*
X165711000Y-92075000D02*
X164941000Y-92075000D01*
X158401000Y-93445000D02*
X164941000Y-93445000D01*
X158401000Y-90705000D02*
X158401000Y-93445000D01*
X164941000Y-90705000D02*
X158401000Y-90705000D01*
X164941000Y-93445000D02*
X164941000Y-90705000D01*
G04 #@! TO.C,R3*
X148058000Y-117348000D02*
X147288000Y-117348000D01*
X139978000Y-117348000D02*
X140748000Y-117348000D01*
X147288000Y-115978000D02*
X140748000Y-115978000D01*
X147288000Y-118718000D02*
X147288000Y-115978000D01*
X140748000Y-118718000D02*
X147288000Y-118718000D01*
X140748000Y-115978000D02*
X140748000Y-118718000D01*
G04 #@! TO.C,R4*
X152686000Y-104294000D02*
X152686000Y-107034000D01*
X152686000Y-107034000D02*
X159226000Y-107034000D01*
X159226000Y-107034000D02*
X159226000Y-104294000D01*
X159226000Y-104294000D02*
X152686000Y-104294000D01*
X151916000Y-105664000D02*
X152686000Y-105664000D01*
X159996000Y-105664000D02*
X159226000Y-105664000D01*
G04 #@! TO.C,R5*
X159226000Y-110463000D02*
X159226000Y-107723000D01*
X159226000Y-107723000D02*
X152686000Y-107723000D01*
X152686000Y-107723000D02*
X152686000Y-110463000D01*
X152686000Y-110463000D02*
X159226000Y-110463000D01*
X159996000Y-109093000D02*
X159226000Y-109093000D01*
X151916000Y-109093000D02*
X152686000Y-109093000D01*
G04 #@! TO.C,R6*
X167005000Y-104243000D02*
X167005000Y-103473000D01*
X167005000Y-96163000D02*
X167005000Y-96933000D01*
X168375000Y-103473000D02*
X168375000Y-96933000D01*
X165635000Y-103473000D02*
X168375000Y-103473000D01*
X165635000Y-96933000D02*
X165635000Y-103473000D01*
X168375000Y-96933000D02*
X165635000Y-96933000D01*
G04 #@! TO.C,R7*
X137192000Y-90705000D02*
X137192000Y-93445000D01*
X137192000Y-93445000D02*
X143732000Y-93445000D01*
X143732000Y-93445000D02*
X143732000Y-90705000D01*
X143732000Y-90705000D02*
X137192000Y-90705000D01*
X136422000Y-92075000D02*
X137192000Y-92075000D01*
X144502000Y-92075000D02*
X143732000Y-92075000D01*
G04 #@! TO.C,R8*
X131802000Y-92075000D02*
X131032000Y-92075000D01*
X123722000Y-92075000D02*
X124492000Y-92075000D01*
X131032000Y-90705000D02*
X124492000Y-90705000D01*
X131032000Y-93445000D02*
X131032000Y-90705000D01*
X124492000Y-93445000D02*
X131032000Y-93445000D01*
X124492000Y-90705000D02*
X124492000Y-93445000D01*
G04 #@! TO.C,RV1*
X149157000Y-115109000D02*
X139387000Y-115109000D01*
X149157000Y-105339000D02*
X139387000Y-105339000D01*
X139387000Y-105339000D02*
X139387000Y-115109000D01*
X149157000Y-105339000D02*
X149157000Y-115109000D01*
G04 #@! TO.C,U1*
X128972000Y-96029000D02*
X128972000Y-97679000D01*
X164652000Y-96029000D02*
X128972000Y-96029000D01*
X164652000Y-101329000D02*
X164652000Y-96029000D01*
X128972000Y-101329000D02*
X164652000Y-101329000D01*
X128972000Y-99679000D02*
X128972000Y-101329000D01*
X128972000Y-97679000D02*
G75*
G02*
X128972000Y-99679000I0J-1000000D01*
G01*
G04 #@! TO.C,U2*
X136254000Y-105096000D02*
X134604000Y-105096000D01*
X136254000Y-115376000D02*
X136254000Y-105096000D01*
X130954000Y-115376000D02*
X136254000Y-115376000D01*
X130954000Y-105096000D02*
X130954000Y-115376000D01*
X132604000Y-105096000D02*
X130954000Y-105096000D01*
X134604000Y-105096000D02*
G75*
G02*
X132604000Y-105096000I-1000000J0D01*
G01*
G04 #@! TO.C,U3*
X178159000Y-94941000D02*
X181759000Y-94941000D01*
X178120522Y-94929478D02*
G75*
G02*
X179959000Y-90491000I1838478J1838478D01*
G01*
X181797478Y-94929478D02*
G75*
G03*
X179959000Y-90491000I-1838478J1838478D01*
G01*
G04 #@! TO.C,J1*
X181289000Y-117221000D02*
X181289000Y-118551000D01*
X181289000Y-118551000D02*
X179959000Y-118551000D01*
X178689000Y-118551000D02*
X176089000Y-118551000D01*
X176089000Y-115891000D02*
X176089000Y-118551000D01*
X178689000Y-115891000D02*
X176089000Y-115891000D01*
X178689000Y-115891000D02*
X178689000Y-118551000D01*
G04 #@! TO.C,C1*
X164819000Y-111556000D02*
X164819000Y-118996000D01*
X162079000Y-111556000D02*
X162079000Y-118996000D01*
X164819000Y-111556000D02*
X162079000Y-111556000D01*
X164819000Y-118996000D02*
X162079000Y-118996000D01*
G04 #@! TO.C,C2*
X137284000Y-115978000D02*
X137284000Y-118718000D01*
X129844000Y-115978000D02*
X129844000Y-118718000D01*
X129844000Y-118718000D02*
X137284000Y-118718000D01*
X129844000Y-115978000D02*
X137284000Y-115978000D01*
G04 #@! TO.C,C4*
X121796000Y-118718000D02*
X121796000Y-115978000D01*
X129236000Y-118718000D02*
X129236000Y-115978000D01*
X129236000Y-115978000D02*
X121796000Y-115978000D01*
X129236000Y-118718000D02*
X121796000Y-118718000D01*
G04 #@! TO.C,C5*
X147116000Y-90705000D02*
X154556000Y-90705000D01*
X147116000Y-93445000D02*
X154556000Y-93445000D01*
X147116000Y-90705000D02*
X147116000Y-93445000D01*
X154556000Y-90705000D02*
X154556000Y-93445000D01*
G04 #@! TO.C,C7*
X182472000Y-95808000D02*
X182472000Y-103248000D01*
X179732000Y-95808000D02*
X179732000Y-103248000D01*
X182472000Y-95808000D02*
X179732000Y-95808000D01*
X182472000Y-103248000D02*
X179732000Y-103248000D01*
G04 #@! TO.C,C8*
X178916000Y-103248000D02*
X176176000Y-103248000D01*
X178916000Y-95808000D02*
X176176000Y-95808000D01*
X176176000Y-95808000D02*
X176176000Y-103248000D01*
X178916000Y-95808000D02*
X178916000Y-103248000D01*
G04 #@! TO.C,C3*
D10*
X172553333Y-115419142D02*
X172505714Y-115466761D01*
X172362857Y-115514380D01*
X172267619Y-115514380D01*
X172124761Y-115466761D01*
X172029523Y-115371523D01*
X171981904Y-115276285D01*
X171934285Y-115085809D01*
X171934285Y-114942952D01*
X171981904Y-114752476D01*
X172029523Y-114657238D01*
X172124761Y-114562000D01*
X172267619Y-114514380D01*
X172362857Y-114514380D01*
X172505714Y-114562000D01*
X172553333Y-114609619D01*
X172886666Y-114514380D02*
X173505714Y-114514380D01*
X173172380Y-114895333D01*
X173315238Y-114895333D01*
X173410476Y-114942952D01*
X173458095Y-114990571D01*
X173505714Y-115085809D01*
X173505714Y-115323904D01*
X173458095Y-115419142D01*
X173410476Y-115466761D01*
X173315238Y-115514380D01*
X173029523Y-115514380D01*
X172934285Y-115466761D01*
X172886666Y-115419142D01*
G04 #@! TO.C,C6*
X172553333Y-94845142D02*
X172505714Y-94892761D01*
X172362857Y-94940380D01*
X172267619Y-94940380D01*
X172124761Y-94892761D01*
X172029523Y-94797523D01*
X171981904Y-94702285D01*
X171934285Y-94511809D01*
X171934285Y-94368952D01*
X171981904Y-94178476D01*
X172029523Y-94083238D01*
X172124761Y-93988000D01*
X172267619Y-93940380D01*
X172362857Y-93940380D01*
X172505714Y-93988000D01*
X172553333Y-94035619D01*
X173410476Y-93940380D02*
X173220000Y-93940380D01*
X173124761Y-93988000D01*
X173077142Y-94035619D01*
X172981904Y-94178476D01*
X172934285Y-94368952D01*
X172934285Y-94749904D01*
X172981904Y-94845142D01*
X173029523Y-94892761D01*
X173124761Y-94940380D01*
X173315238Y-94940380D01*
X173410476Y-94892761D01*
X173458095Y-94845142D01*
X173505714Y-94749904D01*
X173505714Y-94511809D01*
X173458095Y-94416571D01*
X173410476Y-94368952D01*
X173315238Y-94321333D01*
X173124761Y-94321333D01*
X173029523Y-94368952D01*
X172981904Y-94416571D01*
X172934285Y-94511809D01*
G04 #@! TO.C,J2*
X125690380Y-110569333D02*
X126404666Y-110569333D01*
X126547523Y-110616952D01*
X126642761Y-110712190D01*
X126690380Y-110855047D01*
X126690380Y-110950285D01*
X125785619Y-110140761D02*
X125738000Y-110093142D01*
X125690380Y-109997904D01*
X125690380Y-109759809D01*
X125738000Y-109664571D01*
X125785619Y-109616952D01*
X125880857Y-109569333D01*
X125976095Y-109569333D01*
X126118952Y-109616952D01*
X126690380Y-110188380D01*
X126690380Y-109569333D01*
G04 #@! TO.C,J3*
X125690380Y-99393333D02*
X126404666Y-99393333D01*
X126547523Y-99440952D01*
X126642761Y-99536190D01*
X126690380Y-99679047D01*
X126690380Y-99774285D01*
X125690380Y-99012380D02*
X125690380Y-98393333D01*
X126071333Y-98726666D01*
X126071333Y-98583809D01*
X126118952Y-98488571D01*
X126166571Y-98440952D01*
X126261809Y-98393333D01*
X126499904Y-98393333D01*
X126595142Y-98440952D01*
X126642761Y-98488571D01*
X126690380Y-98583809D01*
X126690380Y-98869523D01*
X126642761Y-98964761D01*
X126595142Y-99012380D01*
G04 #@! TO.C,J4*
X155749666Y-112926880D02*
X155749666Y-113641166D01*
X155702047Y-113784023D01*
X155606809Y-113879261D01*
X155463952Y-113926880D01*
X155368714Y-113926880D01*
X156654428Y-113260214D02*
X156654428Y-113926880D01*
X156416333Y-112879261D02*
X156178238Y-113593547D01*
X156797285Y-113593547D01*
G04 #@! TO.C,R1*
X167470379Y-113196666D02*
X166994189Y-113530000D01*
X167470379Y-113768095D02*
X166470379Y-113768095D01*
X166470379Y-113387142D01*
X166517999Y-113291904D01*
X166565618Y-113244285D01*
X166660856Y-113196666D01*
X166803713Y-113196666D01*
X166898951Y-113244285D01*
X166946570Y-113291904D01*
X166994189Y-113387142D01*
X166994189Y-113768095D01*
X167470379Y-112244285D02*
X167470379Y-112815714D01*
X167470379Y-112530000D02*
X166470379Y-112530000D01*
X166613237Y-112625238D01*
X166708475Y-112720476D01*
X166756094Y-112815714D01*
G04 #@! TO.C,R2*
X161504333Y-92500381D02*
X161171000Y-92024191D01*
X160932904Y-92500381D02*
X160932904Y-91500381D01*
X161313857Y-91500381D01*
X161409095Y-91548001D01*
X161456714Y-91595620D01*
X161504333Y-91690858D01*
X161504333Y-91833715D01*
X161456714Y-91928953D01*
X161409095Y-91976572D01*
X161313857Y-92024191D01*
X160932904Y-92024191D01*
X161885285Y-91595620D02*
X161932904Y-91548001D01*
X162028142Y-91500381D01*
X162266238Y-91500381D01*
X162361476Y-91548001D01*
X162409095Y-91595620D01*
X162456714Y-91690858D01*
X162456714Y-91786096D01*
X162409095Y-91928953D01*
X161837666Y-92500381D01*
X162456714Y-92500381D01*
G04 #@! TO.C,R3*
X143851333Y-117799379D02*
X143518000Y-117323189D01*
X143279904Y-117799379D02*
X143279904Y-116799379D01*
X143660857Y-116799379D01*
X143756095Y-116846999D01*
X143803714Y-116894618D01*
X143851333Y-116989856D01*
X143851333Y-117132713D01*
X143803714Y-117227951D01*
X143756095Y-117275570D01*
X143660857Y-117323189D01*
X143279904Y-117323189D01*
X144184666Y-116799379D02*
X144803714Y-116799379D01*
X144470380Y-117180332D01*
X144613238Y-117180332D01*
X144708476Y-117227951D01*
X144756095Y-117275570D01*
X144803714Y-117370808D01*
X144803714Y-117608903D01*
X144756095Y-117704141D01*
X144708476Y-117751760D01*
X144613238Y-117799379D01*
X144327523Y-117799379D01*
X144232285Y-117751760D01*
X144184666Y-117704141D01*
G04 #@! TO.C,R4*
X155789333Y-106157379D02*
X155456000Y-105681189D01*
X155217904Y-106157379D02*
X155217904Y-105157379D01*
X155598857Y-105157379D01*
X155694095Y-105204999D01*
X155741714Y-105252618D01*
X155789333Y-105347856D01*
X155789333Y-105490713D01*
X155741714Y-105585951D01*
X155694095Y-105633570D01*
X155598857Y-105681189D01*
X155217904Y-105681189D01*
X156646476Y-105490713D02*
X156646476Y-106157379D01*
X156408380Y-105109760D02*
X156170285Y-105824046D01*
X156789333Y-105824046D01*
G04 #@! TO.C,R5*
X155789333Y-109546381D02*
X155456000Y-109070191D01*
X155217904Y-109546381D02*
X155217904Y-108546381D01*
X155598857Y-108546381D01*
X155694095Y-108594001D01*
X155741714Y-108641620D01*
X155789333Y-108736858D01*
X155789333Y-108879715D01*
X155741714Y-108974953D01*
X155694095Y-109022572D01*
X155598857Y-109070191D01*
X155217904Y-109070191D01*
X156694095Y-108546381D02*
X156217904Y-108546381D01*
X156170285Y-109022572D01*
X156217904Y-108974953D01*
X156313142Y-108927334D01*
X156551238Y-108927334D01*
X156646476Y-108974953D01*
X156694095Y-109022572D01*
X156741714Y-109117810D01*
X156741714Y-109355905D01*
X156694095Y-109451143D01*
X156646476Y-109498762D01*
X156551238Y-109546381D01*
X156313142Y-109546381D01*
X156217904Y-109498762D01*
X156170285Y-109451143D01*
G04 #@! TO.C,R6*
X167444381Y-100369666D02*
X166968191Y-100703000D01*
X167444381Y-100941095D02*
X166444381Y-100941095D01*
X166444381Y-100560142D01*
X166492001Y-100464904D01*
X166539620Y-100417285D01*
X166634858Y-100369666D01*
X166777715Y-100369666D01*
X166872953Y-100417285D01*
X166920572Y-100464904D01*
X166968191Y-100560142D01*
X166968191Y-100941095D01*
X166444381Y-99512523D02*
X166444381Y-99703000D01*
X166492001Y-99798238D01*
X166539620Y-99845857D01*
X166682477Y-99941095D01*
X166872953Y-99988714D01*
X167253905Y-99988714D01*
X167349143Y-99941095D01*
X167396762Y-99893476D01*
X167444381Y-99798238D01*
X167444381Y-99607761D01*
X167396762Y-99512523D01*
X167349143Y-99464904D01*
X167253905Y-99417285D01*
X167015810Y-99417285D01*
X166920572Y-99464904D01*
X166872953Y-99512523D01*
X166825334Y-99607761D01*
X166825334Y-99798238D01*
X166872953Y-99893476D01*
X166920572Y-99941095D01*
X167015810Y-99988714D01*
G04 #@! TO.C,R7*
X140295333Y-92582379D02*
X139962000Y-92106189D01*
X139723904Y-92582379D02*
X139723904Y-91582379D01*
X140104857Y-91582379D01*
X140200095Y-91629999D01*
X140247714Y-91677618D01*
X140295333Y-91772856D01*
X140295333Y-91915713D01*
X140247714Y-92010951D01*
X140200095Y-92058570D01*
X140104857Y-92106189D01*
X139723904Y-92106189D01*
X140628666Y-91582379D02*
X141295333Y-91582379D01*
X140866761Y-92582379D01*
G04 #@! TO.C,R8*
X127595333Y-92596379D02*
X127262000Y-92120189D01*
X127023904Y-92596379D02*
X127023904Y-91596379D01*
X127404857Y-91596379D01*
X127500095Y-91643999D01*
X127547714Y-91691618D01*
X127595333Y-91786856D01*
X127595333Y-91929713D01*
X127547714Y-92024951D01*
X127500095Y-92072570D01*
X127404857Y-92120189D01*
X127023904Y-92120189D01*
X128166761Y-92024951D02*
X128071523Y-91977332D01*
X128023904Y-91929713D01*
X127976285Y-91834475D01*
X127976285Y-91786856D01*
X128023904Y-91691618D01*
X128071523Y-91643999D01*
X128166761Y-91596379D01*
X128357238Y-91596379D01*
X128452476Y-91643999D01*
X128500095Y-91691618D01*
X128547714Y-91786856D01*
X128547714Y-91834475D01*
X128500095Y-91929713D01*
X128452476Y-91977332D01*
X128357238Y-92024951D01*
X128166761Y-92024951D01*
X128071523Y-92072570D01*
X128023904Y-92120189D01*
X127976285Y-92215427D01*
X127976285Y-92405903D01*
X128023904Y-92501141D01*
X128071523Y-92548760D01*
X128166761Y-92596379D01*
X128357238Y-92596379D01*
X128452476Y-92548760D01*
X128500095Y-92501141D01*
X128547714Y-92405903D01*
X128547714Y-92215427D01*
X128500095Y-92120189D01*
X128452476Y-92072570D01*
X128357238Y-92024951D01*
G04 #@! TO.C,RV1*
X143676761Y-110561380D02*
X143343428Y-110085190D01*
X143105333Y-110561380D02*
X143105333Y-109561380D01*
X143486285Y-109561380D01*
X143581523Y-109609000D01*
X143629142Y-109656619D01*
X143676761Y-109751857D01*
X143676761Y-109894714D01*
X143629142Y-109989952D01*
X143581523Y-110037571D01*
X143486285Y-110085190D01*
X143105333Y-110085190D01*
X143962476Y-109561380D02*
X144295809Y-110561380D01*
X144629142Y-109561380D01*
X145486285Y-110561380D02*
X144914857Y-110561380D01*
X145200571Y-110561380D02*
X145200571Y-109561380D01*
X145105333Y-109704238D01*
X145010095Y-109799476D01*
X144914857Y-109847095D01*
G04 #@! TO.C,U1*
X131151380Y-99440904D02*
X131960904Y-99440904D01*
X132056142Y-99393285D01*
X132103761Y-99345666D01*
X132151380Y-99250428D01*
X132151380Y-99059952D01*
X132103761Y-98964714D01*
X132056142Y-98917095D01*
X131960904Y-98869476D01*
X131151380Y-98869476D01*
X132151380Y-97869476D02*
X132151380Y-98440904D01*
X132151380Y-98155190D02*
X131151380Y-98155190D01*
X131294238Y-98250428D01*
X131389476Y-98345666D01*
X131437095Y-98440904D01*
G04 #@! TO.C,U2*
X132842095Y-109180380D02*
X132842095Y-109989904D01*
X132889714Y-110085142D01*
X132937333Y-110132761D01*
X133032571Y-110180380D01*
X133223047Y-110180380D01*
X133318285Y-110132761D01*
X133365904Y-110085142D01*
X133413523Y-109989904D01*
X133413523Y-109180380D01*
X133842095Y-109275619D02*
X133889714Y-109228000D01*
X133984952Y-109180380D01*
X134223047Y-109180380D01*
X134318285Y-109228000D01*
X134365904Y-109275619D01*
X134413523Y-109370857D01*
X134413523Y-109466095D01*
X134365904Y-109608952D01*
X133794476Y-110180380D01*
X134413523Y-110180380D01*
G04 #@! TO.C,U3*
X175855380Y-93725904D02*
X176664904Y-93725904D01*
X176760142Y-93678285D01*
X176807761Y-93630666D01*
X176855380Y-93535428D01*
X176855380Y-93344952D01*
X176807761Y-93249714D01*
X176760142Y-93202095D01*
X176664904Y-93154476D01*
X175855380Y-93154476D01*
X175855380Y-92773523D02*
X175855380Y-92154476D01*
X176236333Y-92487809D01*
X176236333Y-92344952D01*
X176283952Y-92249714D01*
X176331571Y-92202095D01*
X176426809Y-92154476D01*
X176664904Y-92154476D01*
X176760142Y-92202095D01*
X176807761Y-92249714D01*
X176855380Y-92344952D01*
X176855380Y-92630666D01*
X176807761Y-92725904D01*
X176760142Y-92773523D01*
G04 #@! TO.C,J1*
X182205380Y-117427333D02*
X182919666Y-117427333D01*
X183062523Y-117474952D01*
X183157761Y-117570190D01*
X183205380Y-117713047D01*
X183205380Y-117808285D01*
X183205380Y-116427333D02*
X183205380Y-116998761D01*
X183205380Y-116713047D02*
X182205380Y-116713047D01*
X182348238Y-116808285D01*
X182443476Y-116903523D01*
X182491095Y-116998761D01*
G04 #@! TO.C,C1*
X163840143Y-115429665D02*
X163887762Y-115477284D01*
X163935381Y-115620141D01*
X163935381Y-115715379D01*
X163887762Y-115858237D01*
X163792524Y-115953475D01*
X163697286Y-116001094D01*
X163506810Y-116048713D01*
X163363953Y-116048713D01*
X163173477Y-116001094D01*
X163078239Y-115953475D01*
X162983001Y-115858237D01*
X162935381Y-115715379D01*
X162935381Y-115620141D01*
X162983001Y-115477284D01*
X163030620Y-115429665D01*
X163935381Y-114477284D02*
X163935381Y-115048713D01*
X163935381Y-114762999D02*
X162935381Y-114762999D01*
X163078239Y-114858237D01*
X163173477Y-114953475D01*
X163221096Y-115048713D01*
G04 #@! TO.C,C2*
X133397333Y-117705142D02*
X133349714Y-117752761D01*
X133206857Y-117800380D01*
X133111619Y-117800380D01*
X132968761Y-117752761D01*
X132873523Y-117657523D01*
X132825904Y-117562285D01*
X132778285Y-117371809D01*
X132778285Y-117228952D01*
X132825904Y-117038476D01*
X132873523Y-116943238D01*
X132968761Y-116848000D01*
X133111619Y-116800380D01*
X133206857Y-116800380D01*
X133349714Y-116848000D01*
X133397333Y-116895619D01*
X133778285Y-116895619D02*
X133825904Y-116848000D01*
X133921142Y-116800380D01*
X134159238Y-116800380D01*
X134254476Y-116848000D01*
X134302095Y-116895619D01*
X134349714Y-116990857D01*
X134349714Y-117086095D01*
X134302095Y-117228952D01*
X133730666Y-117800380D01*
X134349714Y-117800380D01*
G04 #@! TO.C,C4*
X125349333Y-117752143D02*
X125301714Y-117799762D01*
X125158857Y-117847381D01*
X125063619Y-117847381D01*
X124920761Y-117799762D01*
X124825523Y-117704524D01*
X124777904Y-117609286D01*
X124730285Y-117418810D01*
X124730285Y-117275953D01*
X124777904Y-117085477D01*
X124825523Y-116990239D01*
X124920761Y-116895001D01*
X125063619Y-116847381D01*
X125158857Y-116847381D01*
X125301714Y-116895001D01*
X125349333Y-116942620D01*
X126206476Y-117180715D02*
X126206476Y-117847381D01*
X125968380Y-116799762D02*
X125730285Y-117514048D01*
X126349333Y-117514048D01*
G04 #@! TO.C,C5*
X150669333Y-92432142D02*
X150621714Y-92479761D01*
X150478857Y-92527380D01*
X150383619Y-92527380D01*
X150240761Y-92479761D01*
X150145523Y-92384523D01*
X150097904Y-92289285D01*
X150050285Y-92098809D01*
X150050285Y-91955952D01*
X150097904Y-91765476D01*
X150145523Y-91670238D01*
X150240761Y-91575000D01*
X150383619Y-91527380D01*
X150478857Y-91527380D01*
X150621714Y-91575000D01*
X150669333Y-91622619D01*
X151574095Y-91527380D02*
X151097904Y-91527380D01*
X151050285Y-92003571D01*
X151097904Y-91955952D01*
X151193142Y-91908333D01*
X151431238Y-91908333D01*
X151526476Y-91955952D01*
X151574095Y-92003571D01*
X151621714Y-92098809D01*
X151621714Y-92336904D01*
X151574095Y-92432142D01*
X151526476Y-92479761D01*
X151431238Y-92527380D01*
X151193142Y-92527380D01*
X151097904Y-92479761D01*
X151050285Y-92432142D01*
G04 #@! TO.C,C7*
X181459142Y-99734666D02*
X181506761Y-99782285D01*
X181554380Y-99925142D01*
X181554380Y-100020380D01*
X181506761Y-100163238D01*
X181411523Y-100258476D01*
X181316285Y-100306095D01*
X181125809Y-100353714D01*
X180982952Y-100353714D01*
X180792476Y-100306095D01*
X180697238Y-100258476D01*
X180602000Y-100163238D01*
X180554380Y-100020380D01*
X180554380Y-99925142D01*
X180602000Y-99782285D01*
X180649619Y-99734666D01*
X180554380Y-99401333D02*
X180554380Y-98734666D01*
X181554380Y-99163238D01*
G04 #@! TO.C,C8*
X177903142Y-99694666D02*
X177950761Y-99742285D01*
X177998380Y-99885142D01*
X177998380Y-99980380D01*
X177950761Y-100123238D01*
X177855523Y-100218476D01*
X177760285Y-100266095D01*
X177569809Y-100313714D01*
X177426952Y-100313714D01*
X177236476Y-100266095D01*
X177141238Y-100218476D01*
X177046000Y-100123238D01*
X176998380Y-99980380D01*
X176998380Y-99885142D01*
X177046000Y-99742285D01*
X177093619Y-99694666D01*
X177426952Y-99123238D02*
X177379333Y-99218476D01*
X177331714Y-99266095D01*
X177236476Y-99313714D01*
X177188857Y-99313714D01*
X177093619Y-99266095D01*
X177046000Y-99218476D01*
X176998380Y-99123238D01*
X176998380Y-98932761D01*
X177046000Y-98837523D01*
X177093619Y-98789904D01*
X177188857Y-98742285D01*
X177236476Y-98742285D01*
X177331714Y-98789904D01*
X177379333Y-98837523D01*
X177426952Y-98932761D01*
X177426952Y-99123238D01*
X177474571Y-99218476D01*
X177522190Y-99266095D01*
X177617428Y-99313714D01*
X177807904Y-99313714D01*
X177903142Y-99266095D01*
X177950761Y-99218476D01*
X177998380Y-99123238D01*
X177998380Y-98932761D01*
X177950761Y-98837523D01*
X177903142Y-98789904D01*
X177807904Y-98742285D01*
X177617428Y-98742285D01*
X177522190Y-98789904D01*
X177474571Y-98837523D01*
X177426952Y-98932761D01*
G04 #@! TD*
M02*
