G04 #@! TF.GenerationSoftware,KiCad,Pcbnew,(5.1.7)-1*
G04 #@! TF.CreationDate,2021-05-14T14:52:42-05:00*
G04 #@! TF.ProjectId,ConsolePedalScreamer,436f6e73-6f6c-4655-9065-64616c536372,rev?*
G04 #@! TF.SameCoordinates,Original*
G04 #@! TF.FileFunction,Soldermask,Top*
G04 #@! TF.FilePolarity,Negative*
%FSLAX46Y46*%
G04 Gerber Fmt 4.6, Leading zero omitted, Abs format (unit mm)*
G04 Created by KiCad (PCBNEW (5.1.7)-1) date 2021-05-14 14:52:42*
%MOMM*%
%LPD*%
G01*
G04 APERTURE LIST*
%ADD10R,1.400000X1.400000*%
%ADD11C,1.400000*%
%ADD12R,1.800000X1.800000*%
%ADD13C,1.800000*%
%ADD14R,1.500000X7.000000*%
%ADD15C,5.000000*%
%ADD16C,1.600000*%
%ADD17O,1.600000X1.600000*%
%ADD18R,2.000000X2.000000*%
%ADD19O,2.000000X2.000000*%
%ADD20R,1.600000X1.600000*%
%ADD21C,4.000000*%
%ADD22C,0.254000*%
%ADD23C,0.100000*%
G04 APERTURE END LIST*
D10*
G04 #@! TO.C,U1*
X128745000Y-93472000D03*
D11*
X128745000Y-96012000D03*
X128745000Y-98552000D03*
X128745000Y-101092000D03*
X128745000Y-103632000D03*
X128745000Y-106172000D03*
X128745000Y-108712000D03*
X128745000Y-111252000D03*
X136685000Y-111252000D03*
X136685000Y-108712000D03*
X136685000Y-106172000D03*
X136685000Y-103632000D03*
X136685000Y-101092000D03*
X136685000Y-98552000D03*
X136685000Y-96012000D03*
X136685000Y-93472000D03*
G04 #@! TD*
D12*
G04 #@! TO.C,D1*
X115250000Y-95000000D03*
D13*
X115250000Y-97540000D03*
G04 #@! TD*
G04 #@! TO.C,D2*
X150250000Y-97540000D03*
D12*
X150250000Y-95000000D03*
G04 #@! TD*
D14*
G04 #@! TO.C,J1*
X102715000Y-126000000D03*
X105215000Y-126000000D03*
X107715000Y-126000000D03*
X110215000Y-126000000D03*
X112715000Y-126000000D03*
X115215000Y-126000000D03*
X117715000Y-126000000D03*
X120215000Y-126000000D03*
X122715000Y-126000000D03*
X125215000Y-126000000D03*
X127715000Y-126000000D03*
X130215000Y-126000000D03*
X132715000Y-126000000D03*
X135215000Y-126000000D03*
X137715000Y-126000000D03*
X140215000Y-126000000D03*
X142715000Y-126000000D03*
X145215000Y-126000000D03*
X147715000Y-126000000D03*
X150215000Y-126000000D03*
X152715000Y-126000000D03*
X155215000Y-126000000D03*
X157715000Y-126000000D03*
X160215000Y-126000000D03*
X162715000Y-126000000D03*
G04 #@! TD*
D15*
G04 #@! TO.C,H1*
X85350000Y-122600000D03*
G04 #@! TD*
G04 #@! TO.C,H2*
X180150000Y-122600000D03*
G04 #@! TD*
D16*
G04 #@! TO.C,R3*
X91186000Y-90678000D03*
D17*
X101346000Y-90678000D03*
G04 #@! TD*
D16*
G04 #@! TO.C,C1*
X109220000Y-111271000D03*
X104220000Y-111271000D03*
G04 #@! TD*
G04 #@! TO.C,C2*
X144780000Y-111271000D03*
X139780000Y-111271000D03*
G04 #@! TD*
D18*
G04 #@! TO.C,C3*
X125095000Y-88392000D03*
D19*
X140095000Y-88392000D03*
G04 #@! TD*
D16*
G04 #@! TO.C,C4*
X120730000Y-101746000D03*
X125730000Y-101746000D03*
G04 #@! TD*
G04 #@! TO.C,C5*
X148035000Y-111271000D03*
X153035000Y-111271000D03*
G04 #@! TD*
G04 #@! TO.C,C6*
X156290000Y-111271000D03*
X161290000Y-111271000D03*
G04 #@! TD*
D17*
G04 #@! TO.C,C7*
X177800000Y-101506000D03*
D16*
X177800000Y-111506000D03*
G04 #@! TD*
G04 #@! TO.C,C8*
X125730000Y-111271000D03*
X120730000Y-111271000D03*
G04 #@! TD*
G04 #@! TO.C,C9*
X139780000Y-101746000D03*
X144780000Y-101746000D03*
G04 #@! TD*
G04 #@! TO.C,C10*
X117475000Y-111271000D03*
X112475000Y-111271000D03*
G04 #@! TD*
D20*
G04 #@! TO.C,D3*
X146558000Y-90932000D03*
D17*
X154178000Y-90932000D03*
G04 #@! TD*
G04 #@! TO.C,D4*
X111506000Y-90932000D03*
D20*
X119126000Y-90932000D03*
G04 #@! TD*
D17*
G04 #@! TO.C,R1*
X101346000Y-110871000D03*
D16*
X91186000Y-110871000D03*
G04 #@! TD*
G04 #@! TO.C,R2*
X101346000Y-107442000D03*
D17*
X91186000Y-107442000D03*
G04 #@! TD*
G04 #@! TO.C,R4*
X101346000Y-104140000D03*
D16*
X91186000Y-104140000D03*
G04 #@! TD*
G04 #@! TO.C,R5*
X164084000Y-110998000D03*
D17*
X174244000Y-110998000D03*
G04 #@! TD*
G04 #@! TO.C,R6*
X164084000Y-107696000D03*
D16*
X174244000Y-107696000D03*
G04 #@! TD*
G04 #@! TO.C,R7*
X91186000Y-97536000D03*
D17*
X101346000Y-97536000D03*
G04 #@! TD*
G04 #@! TO.C,R8*
X91186000Y-94234000D03*
D16*
X101346000Y-94234000D03*
G04 #@! TD*
D17*
G04 #@! TO.C,R9*
X174244000Y-101092000D03*
D16*
X164084000Y-101092000D03*
G04 #@! TD*
G04 #@! TO.C,R10*
X164084000Y-104394000D03*
D17*
X174244000Y-104394000D03*
G04 #@! TD*
G04 #@! TO.C,R11*
X164084000Y-97790000D03*
D16*
X174244000Y-97790000D03*
G04 #@! TD*
G04 #@! TO.C,R12*
X91186000Y-100838000D03*
D17*
X101346000Y-100838000D03*
G04 #@! TD*
D16*
G04 #@! TO.C,R13*
X174244000Y-94488000D03*
D17*
X164084000Y-94488000D03*
G04 #@! TD*
D16*
G04 #@! TO.C,R14*
X174244000Y-90932000D03*
D17*
X164084000Y-90932000D03*
G04 #@! TD*
D13*
G04 #@! TO.C,RV1*
X130215000Y-83439000D03*
X132715000Y-83439000D03*
X135215000Y-83439000D03*
D21*
X128315000Y-76439000D03*
X137115000Y-76439000D03*
G04 #@! TD*
D13*
G04 #@! TO.C,RV2*
X157715000Y-83439000D03*
X160215000Y-83439000D03*
X162715000Y-83439000D03*
D21*
X155815000Y-76439000D03*
X164615000Y-76439000D03*
G04 #@! TD*
G04 #@! TO.C,RV3*
X109539000Y-76439000D03*
X100739000Y-76439000D03*
D13*
X107639000Y-83439000D03*
X105139000Y-83439000D03*
X102639000Y-83439000D03*
G04 #@! TD*
D22*
X165000000Y-129000000D02*
X164000000Y-130000000D01*
X101500000Y-130000000D01*
X100500000Y-129000000D01*
X100500000Y-123063000D01*
X165000000Y-123063000D01*
X165000000Y-129000000D01*
D23*
G36*
X165000000Y-129000000D02*
G01*
X164000000Y-130000000D01*
X101500000Y-130000000D01*
X100500000Y-129000000D01*
X100500000Y-123063000D01*
X165000000Y-123063000D01*
X165000000Y-129000000D01*
G37*
D22*
X86487000Y-119380000D02*
X86489440Y-119404776D01*
X86496667Y-119428601D01*
X86508403Y-119450557D01*
X86524197Y-119469803D01*
X86543443Y-119485597D01*
X86565399Y-119497333D01*
X86589224Y-119504560D01*
X86614000Y-119507000D01*
X89000000Y-119507000D01*
X89000000Y-126000000D01*
X82500000Y-126000000D01*
X82500000Y-97917000D01*
X86487000Y-97917000D01*
X86487000Y-119380000D01*
D23*
G36*
X86487000Y-119380000D02*
G01*
X86489440Y-119404776D01*
X86496667Y-119428601D01*
X86508403Y-119450557D01*
X86524197Y-119469803D01*
X86543443Y-119485597D01*
X86565399Y-119497333D01*
X86589224Y-119504560D01*
X86614000Y-119507000D01*
X89000000Y-119507000D01*
X89000000Y-126000000D01*
X82500000Y-126000000D01*
X82500000Y-97917000D01*
X86487000Y-97917000D01*
X86487000Y-119380000D01*
G37*
D22*
X182499000Y-126000000D02*
X176500000Y-126000000D01*
X176500000Y-119761000D01*
X179578000Y-119761000D01*
X179602776Y-119758560D01*
X179626601Y-119751333D01*
X179648557Y-119739597D01*
X179667803Y-119723803D01*
X179683597Y-119704557D01*
X179695333Y-119682601D01*
X179702560Y-119658776D01*
X179705000Y-119634000D01*
X179705000Y-99441000D01*
X182499000Y-99441000D01*
X182499000Y-126000000D01*
D23*
G36*
X182499000Y-126000000D02*
G01*
X176500000Y-126000000D01*
X176500000Y-119761000D01*
X179578000Y-119761000D01*
X179602776Y-119758560D01*
X179626601Y-119751333D01*
X179648557Y-119739597D01*
X179667803Y-119723803D01*
X179683597Y-119704557D01*
X179695333Y-119682601D01*
X179702560Y-119658776D01*
X179705000Y-119634000D01*
X179705000Y-99441000D01*
X182499000Y-99441000D01*
X182499000Y-126000000D01*
G37*
M02*
