M48
; DRILL file {KiCad (5.1.7)-1} date 07/20/21 20:01:58
; FORMAT={-:-/ absolute / inch / decimal}
; #@! TF.CreationDate,2021-07-20T20:01:58-05:00
; #@! TF.GenerationSoftware,Kicad,Pcbnew,(5.1.7)-1
; #@! TF.FileFunction,Plated,1,4,PTH
FMAT,2
INCH
T1C0.0157
T2C0.0295
T3C0.0315
T4C0.0394
T5C0.0433
%
G90
G05
T1
X2.8Y-3.5
X3.27Y-3.15
X3.28Y-3.33
X3.44Y-3.61
X3.49Y-3.69
X3.6165Y-3.86
X3.65Y-3.65
X3.71Y-3.7
X3.95Y-3.9
X3.96Y-4.06
X4.08Y-4.07
X4.39Y-3.42
X4.41Y-3.67
X4.56Y-3.37
X4.69Y-3.81
X4.7Y-3.42
X4.76Y-4.35
X5.19Y-3.88
X5.35Y-3.25
X5.35Y-3.78
X5.46Y-3.24
T2
X3.815Y-4.195
X3.865Y-4.195
X3.915Y-4.195
X3.815Y-4.39
X3.865Y-4.39
X3.915Y-4.39
X4.87Y-4.23
X4.92Y-4.23
X4.97Y-4.23
X3.525Y-4.39
X3.575Y-4.39
X3.625Y-4.39
X3.525Y-4.585
X3.575Y-4.585
X3.625Y-4.585
X3.815Y-3.805
X3.865Y-3.805
X3.915Y-3.805
X5.37Y-4.23
X5.42Y-4.23
X5.47Y-4.23
X3.815Y-4.585
X3.865Y-4.585
X3.915Y-4.585
X3.815Y-4.0
X3.865Y-4.0
X3.915Y-4.0
T3
X5.59Y-3.74
X5.59Y-4.14
X4.96Y-4.51
X5.36Y-4.51
X4.46Y-4.01
X4.86Y-4.01
X2.3531Y-4.0157
X2.55Y-4.0157
X2.7116Y-4.57
X2.81Y-4.57
X2.72Y-3.68
X2.82Y-3.88
X2.92Y-3.68
X4.59Y-3.74
X4.59Y-4.14
X5.46Y-4.37
X5.86Y-4.37
X4.96Y-4.37
X5.36Y-4.37
X4.72Y-3.74
X4.72Y-4.14
X3.8316Y-3.41
X3.93Y-3.41
X2.3531Y-4.1143
X2.55Y-4.1143
X5.59Y-4.24
X5.59Y-4.64
X4.105Y-3.85
X4.105Y-4.15
X5.46Y-3.87
X5.86Y-3.87
X4.06Y-4.26
X4.36Y-4.26
X4.96Y-4.01
X5.36Y-4.01
X3.37Y-3.68
X3.47Y-3.88
X3.57Y-3.68
X4.46Y-4.51
X4.86Y-4.51
X2.3531Y-3.0843
X2.55Y-3.0843
X4.46Y-4.37
X4.86Y-4.37
X2.3531Y-3.4457
X2.55Y-3.4457
X4.72Y-4.24
X4.72Y-4.64
X4.215Y-3.85
X4.215Y-4.15
X5.22Y-4.24
X5.22Y-4.64
X3.5416Y-3.41
X3.64Y-3.41
X5.3013Y-3.4
X5.38Y-3.4
X5.46Y-4.01
X5.86Y-4.01
X5.46Y-4.51
X5.86Y-4.51
X5.22Y-3.74
X5.22Y-4.14
X4.325Y-3.85
X4.325Y-4.15
X3.2613Y-4.59
X3.34Y-4.59
X2.9616Y-3.41
X3.06Y-3.41
X5.72Y-3.74
X5.72Y-4.14
X4.46Y-3.87
X4.86Y-3.87
X5.09Y-3.74
X5.09Y-4.14
X5.72Y-4.24
X5.72Y-4.64
X3.14Y-3.71
X3.14Y-3.81
X3.14Y-3.91
X4.85Y-3.52
X4.85Y-3.5987
X5.09Y-4.24
X5.09Y-4.64
X4.96Y-3.87
X5.36Y-3.87
X4.59Y-4.24
X4.59Y-4.64
X2.3531Y-4.5857
X2.55Y-4.5857
X3.2516Y-3.41
X3.35Y-3.41
X2.3531Y-3.5543
X2.55Y-3.5543
T4
X5.9843Y-3.7
X5.9843Y-3.8
X5.9843Y-3.9
X5.9843Y-4.0
X5.9843Y-4.2126
X5.9843Y-4.3126
X5.6Y-3.555
X5.7Y-3.555
X4.1392Y-3.21
X4.1392Y-3.31
X4.1392Y-3.41
X2.6791Y-3.1102
X2.7791Y-3.1102
X4.1142Y-4.5669
X4.2142Y-4.5669
X4.3142Y-4.5669
X2.99Y-4.5669
X3.09Y-4.5669
X4.12Y-3.72
X4.22Y-3.72
X4.32Y-3.72
X4.2892Y-3.21
X4.2892Y-3.31
X4.2892Y-3.41
X5.09Y-3.0402
X4.79Y-3.0402
X4.89Y-3.0402
X5.1Y-3.62
X5.2Y-3.62
X5.3Y-3.62
X5.55Y-3.0402
X5.65Y-3.0402
X5.75Y-3.0402
X4.165Y-3.56
X4.265Y-3.56
X4.1142Y-3.0402
X4.2142Y-3.0402
X4.3142Y-3.0402
X5.725Y-3.21
X5.725Y-3.31
X5.725Y-3.41
X5.575Y-3.21
X5.575Y-3.31
X5.575Y-3.41
T5
X6.05Y-3.165
X6.05Y-3.565
X5.915Y-3.165
X5.915Y-3.565
T0
M30
