G04 #@! TF.GenerationSoftware,KiCad,Pcbnew,(5.1.7)-1*
G04 #@! TF.CreationDate,2021-04-13T18:52:17-05:00*
G04 #@! TF.ProjectId,GuitarBoard,47756974-6172-4426-9f61-72642e6b6963,rev?*
G04 #@! TF.SameCoordinates,Original*
G04 #@! TF.FileFunction,Copper,L1,Top*
G04 #@! TF.FilePolarity,Positive*
%FSLAX46Y46*%
G04 Gerber Fmt 4.6, Leading zero omitted, Abs format (unit mm)*
G04 Created by KiCad (PCBNEW (5.1.7)-1) date 2021-04-13 18:52:17*
%MOMM*%
%LPD*%
G01*
G04 APERTURE LIST*
G04 #@! TA.AperFunction,ComponentPad*
%ADD10C,1.440000*%
G04 #@! TD*
G04 #@! TA.AperFunction,ComponentPad*
%ADD11R,1.700000X1.700000*%
G04 #@! TD*
G04 #@! TA.AperFunction,ComponentPad*
%ADD12O,1.700000X1.700000*%
G04 #@! TD*
G04 #@! TA.AperFunction,ComponentPad*
%ADD13C,1.600000*%
G04 #@! TD*
G04 #@! TA.AperFunction,ComponentPad*
%ADD14R,2.000000X2.000000*%
G04 #@! TD*
G04 #@! TA.AperFunction,ComponentPad*
%ADD15O,2.000000X2.000000*%
G04 #@! TD*
G04 #@! TA.AperFunction,ComponentPad*
%ADD16R,2.200000X2.200000*%
G04 #@! TD*
G04 #@! TA.AperFunction,ComponentPad*
%ADD17O,2.200000X2.200000*%
G04 #@! TD*
G04 #@! TA.AperFunction,ComponentPad*
%ADD18R,1.600000X1.600000*%
G04 #@! TD*
G04 #@! TA.AperFunction,ComponentPad*
%ADD19O,1.600000X1.600000*%
G04 #@! TD*
G04 #@! TA.AperFunction,ComponentPad*
%ADD20C,5.400000*%
G04 #@! TD*
G04 #@! TA.AperFunction,ComponentPad*
%ADD21R,1.130000X1.130000*%
G04 #@! TD*
G04 #@! TA.AperFunction,ComponentPad*
%ADD22C,1.130000*%
G04 #@! TD*
G04 #@! TA.AperFunction,ComponentPad*
%ADD23O,1.050000X1.500000*%
G04 #@! TD*
G04 #@! TA.AperFunction,ComponentPad*
%ADD24R,1.050000X1.500000*%
G04 #@! TD*
G04 #@! TA.AperFunction,ViaPad*
%ADD25C,0.800000*%
G04 #@! TD*
G04 #@! TA.AperFunction,Conductor*
%ADD26C,0.500000*%
G04 #@! TD*
G04 APERTURE END LIST*
D10*
G04 #@! TO.P,Dist Volume,1*
G04 #@! TO.N,Net-(C7-Pad2)*
X114808000Y-84000000D03*
G04 #@! TO.P,Dist Volume,2*
G04 #@! TO.N,FXOutB*
X117348000Y-89080000D03*
G04 #@! TO.P,Dist Volume,3*
G04 #@! TO.N,FXGND*
X119888000Y-84000000D03*
G04 #@! TD*
D11*
G04 #@! TO.P,9V,1*
G04 #@! TO.N,Net-(BT1-Pad1)*
X152000000Y-107000000D03*
D12*
G04 #@! TO.P,9V,2*
G04 #@! TO.N,GND*
X152000000Y-109540000D03*
G04 #@! TD*
D13*
G04 #@! TO.P,C1,1*
G04 #@! TO.N,Net-(C1-Pad1)*
X66802000Y-99714000D03*
G04 #@! TO.P,C1,2*
G04 #@! TO.N,GND*
X61802000Y-99714000D03*
G04 #@! TD*
G04 #@! TO.P,C2,1*
G04 #@! TO.N,/pin5*
X74930000Y-99714000D03*
G04 #@! TO.P,C2,2*
G04 #@! TO.N,Net-(C2-Pad2)*
X69930000Y-99714000D03*
G04 #@! TD*
G04 #@! TO.P,C3,2*
G04 #@! TO.N,Net-(C3-Pad2)*
X131906000Y-99714000D03*
G04 #@! TO.P,C3,1*
G04 #@! TO.N,Net-(C3-Pad1)*
X136906000Y-99714000D03*
G04 #@! TD*
G04 #@! TO.P,C4,1*
G04 #@! TO.N,/pin6*
X83058000Y-99714000D03*
G04 #@! TO.P,C4,2*
G04 #@! TO.N,/pin5*
X78058000Y-99714000D03*
G04 #@! TD*
G04 #@! TO.P,C5,2*
G04 #@! TO.N,/pin6*
X100476000Y-104314000D03*
G04 #@! TO.P,C5,1*
G04 #@! TO.N,/pin3*
X100476000Y-99314000D03*
G04 #@! TD*
G04 #@! TO.P,C6,1*
G04 #@! TO.N,/pin4*
X100476000Y-107696000D03*
G04 #@! TO.P,C6,2*
G04 #@! TO.N,/pin3*
X100476000Y-112696000D03*
G04 #@! TD*
G04 #@! TO.P,C7,2*
G04 #@! TO.N,Net-(C7-Pad2)*
X142132000Y-117014000D03*
G04 #@! TO.P,C7,1*
G04 #@! TO.N,Net-(C7-Pad1)*
X142132000Y-112014000D03*
G04 #@! TD*
G04 #@! TO.P,C8,1*
G04 #@! TO.N,Net-(C8-Pad1)*
X129902000Y-108966000D03*
G04 #@! TO.P,C8,2*
G04 #@! TO.N,/pin12*
X129902000Y-103966000D03*
G04 #@! TD*
G04 #@! TO.P,C9,2*
G04 #@! TO.N,Net-(C9-Pad2)*
X132734000Y-117014000D03*
G04 #@! TO.P,C9,1*
G04 #@! TO.N,FXGND*
X132734000Y-112014000D03*
G04 #@! TD*
D14*
G04 #@! TO.P,C10,1*
G04 #@! TO.N,/pin10*
X125857000Y-97536000D03*
D15*
G04 #@! TO.P,C10,2*
G04 #@! TO.N,Net-(C10-Pad2)*
X125857000Y-82536000D03*
G04 #@! TD*
G04 #@! TO.P,C11,2*
G04 #@! TO.N,FXGND*
X88138000Y-82536000D03*
D14*
G04 #@! TO.P,C11,1*
G04 #@! TO.N,9V*
X88138000Y-97536000D03*
G04 #@! TD*
D16*
G04 #@! TO.P,D1,1*
G04 #@! TO.N,9V*
X147828000Y-99822000D03*
D17*
G04 #@! TO.P,D1,2*
G04 #@! TO.N,Net-(BT1-Pad1)*
X147828000Y-109982000D03*
G04 #@! TD*
D18*
G04 #@! TO.P,D2,1*
G04 #@! TO.N,FXGND*
X127444500Y-107823000D03*
D19*
G04 #@! TO.P,D2,2*
G04 #@! TO.N,Net-(C7-Pad2)*
X127444500Y-100203000D03*
G04 #@! TD*
G04 #@! TO.P,D3,2*
G04 #@! TO.N,FXGND*
X124557501Y-107823000D03*
D18*
G04 #@! TO.P,D3,1*
G04 #@! TO.N,Net-(C7-Pad2)*
X124557501Y-100203000D03*
G04 #@! TD*
G04 #@! TO.P,D4,1*
G04 #@! TO.N,9V*
X144780000Y-107188000D03*
D19*
G04 #@! TO.P,D4,2*
G04 #@! TO.N,FXGND*
X144780000Y-99568000D03*
G04 #@! TD*
D20*
G04 #@! TO.P,H1,1*
G04 #@! TO.N,GND*
X62000000Y-80000000D03*
G04 #@! TD*
G04 #@! TO.P,H2,1*
G04 #@! TO.N,GND*
X152000000Y-80000000D03*
G04 #@! TD*
G04 #@! TO.P,H3,1*
G04 #@! TO.N,GND*
X62000000Y-115000000D03*
G04 #@! TD*
G04 #@! TO.P,H4,1*
G04 #@! TO.N,GND*
X152000000Y-115000000D03*
G04 #@! TD*
D21*
G04 #@! TO.P,JLCJLCJLCJLC,1*
G04 #@! TO.N,/pin1*
X103030000Y-94488000D03*
D22*
G04 #@! TO.P,JLCJLCJLCJLC,2*
G04 #@! TO.N,/pin13*
X103030000Y-97028000D03*
G04 #@! TO.P,JLCJLCJLCJLC,3*
G04 #@! TO.N,/pin3*
X103030000Y-99568000D03*
G04 #@! TO.P,JLCJLCJLCJLC,4*
G04 #@! TO.N,/pin4*
X103030000Y-102108000D03*
G04 #@! TO.P,JLCJLCJLCJLC,5*
G04 #@! TO.N,/pin5*
X103030000Y-104648000D03*
G04 #@! TO.P,JLCJLCJLCJLC,6*
G04 #@! TO.N,/pin6*
X103030000Y-107188000D03*
G04 #@! TO.P,JLCJLCJLCJLC,7*
G04 #@! TO.N,FXGND*
X103030000Y-109728000D03*
G04 #@! TO.P,JLCJLCJLCJLC,8*
G04 #@! TO.N,/pin11*
X110970000Y-109728000D03*
G04 #@! TO.P,JLCJLCJLCJLC,9*
G04 #@! TO.N,/pin9*
X110970000Y-107188000D03*
G04 #@! TO.P,JLCJLCJLCJLC,10*
G04 #@! TO.N,/pin10*
X110970000Y-104648000D03*
G04 #@! TO.P,JLCJLCJLCJLC,11*
G04 #@! TO.N,/pin11*
X110970000Y-102108000D03*
G04 #@! TO.P,JLCJLCJLCJLC,12*
G04 #@! TO.N,/pin12*
X110970000Y-99568000D03*
G04 #@! TO.P,JLCJLCJLCJLC,13*
G04 #@! TO.N,/pin13*
X110970000Y-97028000D03*
G04 #@! TO.P,JLCJLCJLCJLC,14*
G04 #@! TO.N,9V*
X110970000Y-94488000D03*
G04 #@! TD*
D12*
G04 #@! TO.P,Pickups,2*
G04 #@! TO.N,GND*
X124206000Y-78994000D03*
D11*
G04 #@! TO.P,Pickups,1*
G04 #@! TO.N,Net-(J1-Pad1)*
X121666000Y-78994000D03*
G04 #@! TD*
G04 #@! TO.P,Input,1*
G04 #@! TO.N,GND*
X104500000Y-115000000D03*
D12*
G04 #@! TO.P,Input,2*
G04 #@! TO.N,FXGND*
X107040000Y-115000000D03*
G04 #@! TO.P,Input,3*
G04 #@! TO.N,Pickups*
X109580000Y-115000000D03*
G04 #@! TD*
D11*
G04 #@! TO.P,Bridge,1*
G04 #@! TO.N,GND*
X129286000Y-78994000D03*
G04 #@! TD*
G04 #@! TO.P,J8,1*
G04 #@! TO.N,Amp*
X68050000Y-115000000D03*
D12*
G04 #@! TO.P,J8,2*
G04 #@! TO.N,GND*
X70590000Y-115000000D03*
G04 #@! TD*
D11*
G04 #@! TO.P,Amp,1*
G04 #@! TO.N,GND*
X152000000Y-93980000D03*
D12*
G04 #@! TO.P,Amp,2*
X152000000Y-96520000D03*
G04 #@! TO.P,Amp,3*
G04 #@! TO.N,Amp*
X152000000Y-99060000D03*
G04 #@! TO.P,Amp,4*
G04 #@! TO.N,9V*
X152000000Y-101600000D03*
G04 #@! TD*
D23*
G04 #@! TO.P,Q1,2*
G04 #@! TO.N,Net-(C3-Pad2)*
X96652000Y-94234000D03*
G04 #@! TO.P,Q1,3*
G04 #@! TO.N,Net-(C7-Pad1)*
X95382000Y-94234000D03*
D24*
G04 #@! TO.P,Q1,1*
G04 #@! TO.N,FXGND*
X97922000Y-94234000D03*
G04 #@! TD*
G04 #@! TO.P,Q2,1*
G04 #@! TO.N,Net-(C9-Pad2)*
X118618000Y-94234000D03*
D23*
G04 #@! TO.P,Q2,3*
G04 #@! TO.N,/pin9*
X116078000Y-94234000D03*
G04 #@! TO.P,Q2,2*
G04 #@! TO.N,Net-(C8-Pad1)*
X117348000Y-94234000D03*
G04 #@! TD*
D13*
G04 #@! TO.P,R1,1*
G04 #@! TO.N,Net-(C2-Pad2)*
X93472000Y-77470000D03*
D19*
G04 #@! TO.P,R1,2*
G04 #@! TO.N,FXGND*
X83312000Y-77470000D03*
G04 #@! TD*
G04 #@! TO.P,R2,2*
G04 #@! TO.N,/pin6*
X85090000Y-107442000D03*
D13*
G04 #@! TO.P,R2,1*
G04 #@! TO.N,/pin5*
X74930000Y-107442000D03*
G04 #@! TD*
G04 #@! TO.P,R3,1*
G04 #@! TO.N,Net-(C7-Pad1)*
X87884000Y-113792000D03*
D19*
G04 #@! TO.P,R3,2*
G04 #@! TO.N,Net-(C3-Pad2)*
X87884000Y-103632000D03*
G04 #@! TD*
G04 #@! TO.P,R4,2*
G04 #@! TO.N,9V*
X85090000Y-104140000D03*
D13*
G04 #@! TO.P,R4,1*
G04 #@! TO.N,Net-(C7-Pad1)*
X74930000Y-104140000D03*
G04 #@! TD*
G04 #@! TO.P,R5,1*
G04 #@! TO.N,/pin3*
X74930000Y-114046000D03*
D19*
G04 #@! TO.P,R5,2*
G04 #@! TO.N,/pin4*
X85090000Y-114046000D03*
G04 #@! TD*
G04 #@! TO.P,R6,2*
G04 #@! TO.N,/pin1*
X85090000Y-110744000D03*
D13*
G04 #@! TO.P,R6,1*
G04 #@! TO.N,/pin4*
X74930000Y-110744000D03*
G04 #@! TD*
G04 #@! TO.P,R7,1*
G04 #@! TO.N,/pin1*
X74930000Y-117348000D03*
D19*
G04 #@! TO.P,R7,2*
G04 #@! TO.N,/pin12*
X85090000Y-117348000D03*
G04 #@! TD*
G04 #@! TO.P,R8,2*
G04 #@! TO.N,/pin12*
X114300000Y-98552000D03*
D13*
G04 #@! TO.P,R8,1*
G04 #@! TO.N,Net-(C8-Pad1)*
X114300000Y-108712000D03*
G04 #@! TD*
G04 #@! TO.P,R9,1*
G04 #@! TO.N,Net-(C8-Pad1)*
X117602000Y-98552000D03*
D19*
G04 #@! TO.P,R9,2*
G04 #@! TO.N,FXGND*
X117602000Y-108712000D03*
G04 #@! TD*
G04 #@! TO.P,R10,2*
G04 #@! TO.N,/pin10*
X120904000Y-108712000D03*
D13*
G04 #@! TO.P,R10,1*
G04 #@! TO.N,/pin9*
X120904000Y-98552000D03*
G04 #@! TD*
G04 #@! TO.P,R11,1*
G04 #@! TO.N,/pin11*
X113284000Y-115062000D03*
D19*
G04 #@! TO.P,R11,2*
G04 #@! TO.N,Net-(C9-Pad2)*
X123444000Y-115062000D03*
G04 #@! TD*
D12*
G04 #@! TO.P,Volume,3*
G04 #@! TO.N,Net-(J1-Pad1)*
X140970000Y-79000000D03*
G04 #@! TO.P,Volume,2*
G04 #@! TO.N,Pickups*
X143510000Y-79000000D03*
D11*
G04 #@! TO.P,Volume,1*
G04 #@! TO.N,GND*
X146050000Y-79000000D03*
G04 #@! TD*
G04 #@! TO.P,Tone,1*
G04 #@! TO.N,Net-(J1-Pad1)*
X104500000Y-79000000D03*
D12*
G04 #@! TO.P,Tone,2*
G04 #@! TO.N,Net-(C1-Pad1)*
X107040000Y-79000000D03*
G04 #@! TO.P,Tone,3*
G04 #@! TO.N,N/C*
X109580000Y-79000000D03*
G04 #@! TD*
D10*
G04 #@! TO.P,Dist Level,3*
G04 #@! TO.N,FXInB*
X136906000Y-84000000D03*
G04 #@! TO.P,Dist Level,2*
X134366000Y-89080000D03*
G04 #@! TO.P,Dist Level,1*
G04 #@! TO.N,Net-(C3-Pad1)*
X131826000Y-84000000D03*
G04 #@! TD*
G04 #@! TO.P,8Bit Out,3*
G04 #@! TO.N,FXGND*
X82174000Y-84000000D03*
G04 #@! TO.P,8Bit Out,2*
G04 #@! TO.N,FXOutA*
X79634000Y-89080000D03*
G04 #@! TO.P,8Bit Out,1*
G04 #@! TO.N,Net-(C10-Pad2)*
X77094000Y-84000000D03*
G04 #@! TD*
G04 #@! TO.P,8Bit In,1*
G04 #@! TO.N,FXGND*
X94112000Y-84000000D03*
G04 #@! TO.P,8Bit In,2*
G04 #@! TO.N,FXInA*
X96652000Y-89080000D03*
G04 #@! TO.P,8Bit In,3*
G04 #@! TO.N,Net-(C2-Pad2)*
X99192000Y-84000000D03*
G04 #@! TD*
D12*
G04 #@! TO.P,SW1,2*
G04 #@! TO.N,GND*
X70590000Y-79000000D03*
D11*
G04 #@! TO.P,SW1,1*
G04 #@! TO.N,FXGND*
X68050000Y-79000000D03*
G04 #@! TD*
D12*
G04 #@! TO.P,SW2,3*
G04 #@! TO.N,FXInA*
X141605000Y-83312000D03*
G04 #@! TO.P,SW2,2*
G04 #@! TO.N,Pickups*
X141605000Y-85852000D03*
D11*
G04 #@! TO.P,SW2,1*
G04 #@! TO.N,Net-(SW2-Pad1)*
X141605000Y-88392000D03*
G04 #@! TD*
G04 #@! TO.P,SW3,1*
G04 #@! TO.N,Net-(SW2-Pad1)*
X145415000Y-88392000D03*
D12*
G04 #@! TO.P,SW3,2*
G04 #@! TO.N,Net-(SW3-Pad2)*
X145415000Y-85852000D03*
G04 #@! TO.P,SW3,3*
G04 #@! TO.N,FXOutA*
X145415000Y-83312000D03*
G04 #@! TD*
G04 #@! TO.P,SW4,3*
G04 #@! TO.N,FXInB*
X105135000Y-83312000D03*
G04 #@! TO.P,SW4,2*
G04 #@! TO.N,Net-(SW3-Pad2)*
X105135000Y-85852000D03*
D11*
G04 #@! TO.P,SW4,1*
G04 #@! TO.N,Net-(SW4-Pad1)*
X105135000Y-88392000D03*
G04 #@! TD*
G04 #@! TO.P,SW5,1*
G04 #@! TO.N,Net-(SW4-Pad1)*
X108945000Y-88392000D03*
D12*
G04 #@! TO.P,SW5,2*
G04 #@! TO.N,Amp*
X108945000Y-85852000D03*
G04 #@! TO.P,SW5,3*
G04 #@! TO.N,FXOutB*
X108945000Y-83312000D03*
G04 #@! TD*
D25*
G04 #@! TO.N,GND*
X148590000Y-95250000D03*
X148590000Y-90170000D03*
G04 #@! TO.N,/pin5*
X85090000Y-98425000D03*
G04 #@! TO.N,Net-(C3-Pad2)*
X115443000Y-91059000D03*
G04 #@! TO.N,Net-(C7-Pad1)*
X90324001Y-118264001D03*
G04 #@! TO.N,/pin12*
X121793000Y-93853000D03*
G04 #@! TO.N,Net-(C9-Pad2)*
X122809000Y-104521000D03*
G04 #@! TO.N,Net-(C10-Pad2)*
X97028000Y-78740000D03*
G04 #@! TO.N,Amp*
X92329000Y-86614000D03*
G04 #@! TO.N,FXInB*
X101600000Y-80010000D03*
G04 #@! TD*
D26*
G04 #@! TO.N,Net-(BT1-Pad1)*
X150810000Y-107000000D02*
X152000000Y-107000000D01*
X147828000Y-109982000D02*
X150810000Y-107000000D01*
G04 #@! TO.N,GND*
X148590000Y-90170000D02*
X148590000Y-95250000D01*
G04 #@! TO.N,/pin5*
X74930000Y-99714000D02*
X78058000Y-99714000D01*
X73679999Y-100964001D02*
X74930000Y-99714000D01*
X73679999Y-106191999D02*
X73679999Y-100964001D01*
X74930000Y-107442000D02*
X73679999Y-106191999D01*
X85090000Y-97773998D02*
X85090000Y-98425000D01*
X86777999Y-96085999D02*
X85090000Y-97773998D01*
X89588001Y-96175999D02*
X89498001Y-96085999D01*
X89588001Y-98896001D02*
X89588001Y-96175999D01*
X86633999Y-101850003D02*
X89588001Y-98896001D01*
X87283999Y-104882001D02*
X86633999Y-104232001D01*
X88484001Y-104882001D02*
X87283999Y-104882001D01*
X89498001Y-96085999D02*
X86777999Y-96085999D01*
X90302003Y-103063999D02*
X88484001Y-104882001D01*
X86633999Y-104232001D02*
X86633999Y-101850003D01*
X101445999Y-103063999D02*
X90302003Y-103063999D01*
X103030000Y-104648000D02*
X101445999Y-103063999D01*
G04 #@! TO.N,Net-(C2-Pad2)*
X99192000Y-83190000D02*
X99192000Y-84000000D01*
X93472000Y-77470000D02*
X99192000Y-83190000D01*
X65551999Y-100314001D02*
X66201999Y-100964001D01*
X66201999Y-100964001D02*
X68679999Y-100964001D01*
X65551999Y-78987999D02*
X65551999Y-100314001D01*
X68319999Y-76219999D02*
X65551999Y-78987999D01*
X92221999Y-76219999D02*
X68319999Y-76219999D01*
X68679999Y-100964001D02*
X69930000Y-99714000D01*
X93472000Y-77470000D02*
X92221999Y-76219999D01*
G04 #@! TO.N,Net-(C3-Pad2)*
X96652000Y-94864000D02*
X96652000Y-94234000D01*
X87884000Y-103632000D02*
X96652000Y-94864000D01*
X96652000Y-93418998D02*
X99011998Y-91059000D01*
X96652000Y-94234000D02*
X96652000Y-93418998D01*
X99011998Y-91059000D02*
X115443000Y-91059000D01*
G04 #@! TO.N,Net-(C3-Pad1)*
X131826000Y-94634000D02*
X131826000Y-84000000D01*
X136906000Y-99714000D02*
X131826000Y-94634000D01*
G04 #@! TO.N,/pin6*
X103030000Y-106868000D02*
X100476000Y-104314000D01*
X103030000Y-107188000D02*
X103030000Y-106868000D01*
X83058000Y-105410000D02*
X83058000Y-99714000D01*
X85090000Y-107442000D02*
X83058000Y-105410000D01*
X97348000Y-107442000D02*
X100476000Y-104314000D01*
X85090000Y-107442000D02*
X97348000Y-107442000D01*
G04 #@! TO.N,/pin3*
X100730000Y-99568000D02*
X100476000Y-99314000D01*
X103030000Y-99568000D02*
X100730000Y-99568000D01*
X76626011Y-115742011D02*
X74930000Y-114046000D01*
X97429989Y-115742011D02*
X76626011Y-115742011D01*
X100476000Y-112696000D02*
X97429989Y-115742011D01*
G04 #@! TO.N,/pin4*
X100983001Y-108203001D02*
X100476000Y-107696000D01*
X103517201Y-108203001D02*
X100983001Y-108203001D01*
X104045001Y-107675201D02*
X103517201Y-108203001D01*
X104045001Y-103123001D02*
X104045001Y-107675201D01*
X103030000Y-102108000D02*
X104045001Y-103123001D01*
X78232000Y-114046000D02*
X74930000Y-110744000D01*
X85090000Y-114046000D02*
X78232000Y-114046000D01*
X86086001Y-115042001D02*
X85090000Y-114046000D01*
X93129999Y-115042001D02*
X86086001Y-115042001D01*
X100476000Y-107696000D02*
X93129999Y-115042001D01*
G04 #@! TO.N,Net-(C7-Pad2)*
X127444500Y-100203000D02*
X124557501Y-100203000D01*
X124406999Y-100052498D02*
X124557501Y-100203000D01*
X119593001Y-88785001D02*
X114808000Y-84000000D01*
X119593001Y-93938500D02*
X119593001Y-88785001D01*
X124557501Y-98903000D02*
X119593001Y-93938500D01*
X124557501Y-100203000D02*
X124557501Y-98903000D01*
G04 #@! TO.N,Net-(C7-Pad1)*
X86086001Y-111994001D02*
X87884000Y-113792000D01*
X82784001Y-111994001D02*
X86086001Y-111994001D01*
X74930000Y-104140000D02*
X82784001Y-111994001D01*
X86687998Y-94234000D02*
X95382000Y-94234000D01*
X81807999Y-99113999D02*
X86687998Y-94234000D01*
X84489999Y-108692001D02*
X81807999Y-106010001D01*
X81807999Y-106010001D02*
X81807999Y-99113999D01*
X84888003Y-108692001D02*
X84489999Y-108692001D01*
X87884000Y-111687998D02*
X84888003Y-108692001D01*
X87884000Y-113792000D02*
X87884000Y-111687998D01*
X135881999Y-118264001D02*
X90324001Y-118264001D01*
X142132000Y-112014000D02*
X135881999Y-118264001D01*
G04 #@! TO.N,Net-(C8-Pad1)*
X116250011Y-110662011D02*
X114300000Y-108712000D01*
X128205989Y-110662011D02*
X116250011Y-110662011D01*
X129902000Y-108966000D02*
X128205989Y-110662011D01*
X117602000Y-94488000D02*
X117348000Y-94234000D01*
X117602000Y-98552000D02*
X117602000Y-94488000D01*
G04 #@! TO.N,/pin12*
X113284000Y-99568000D02*
X114300000Y-98552000D01*
X110970000Y-99568000D02*
X113284000Y-99568000D01*
X129902000Y-98770998D02*
X124984002Y-93853000D01*
X129902000Y-103966000D02*
X129902000Y-98770998D01*
X124984002Y-93853000D02*
X121793000Y-93853000D01*
X108554979Y-106467023D02*
X97674002Y-117348000D01*
X108554979Y-101983021D02*
X108554979Y-106467023D01*
X97674002Y-117348000D02*
X85090000Y-117348000D01*
X110970000Y-99568000D02*
X108554979Y-101983021D01*
G04 #@! TO.N,Net-(C9-Pad2)*
X125396000Y-117014000D02*
X123444000Y-115062000D01*
X132734000Y-117014000D02*
X125396000Y-117014000D01*
X122154001Y-97770001D02*
X122154001Y-103866001D01*
X118618000Y-94234000D02*
X122154001Y-97770001D01*
X122154001Y-103866001D02*
X122809000Y-104521000D01*
G04 #@! TO.N,FXGND*
X124557501Y-107823000D02*
X127444500Y-107823000D01*
X69580000Y-77470000D02*
X68050000Y-79000000D01*
X83312000Y-77470000D02*
X69580000Y-77470000D01*
X86674000Y-84000000D02*
X88138000Y-82536000D01*
X82174000Y-84000000D02*
X86674000Y-84000000D01*
X92648000Y-82536000D02*
X94112000Y-84000000D01*
X88138000Y-82536000D02*
X92648000Y-82536000D01*
X122418500Y-109962001D02*
X124557501Y-107823000D01*
X118852001Y-109962001D02*
X122418500Y-109962001D01*
X117602000Y-108712000D02*
X118852001Y-109962001D01*
X132734000Y-109947998D02*
X132734000Y-112014000D01*
X130502001Y-107715999D02*
X132734000Y-109947998D01*
X129301999Y-107715999D02*
X130502001Y-107715999D01*
X129194998Y-107823000D02*
X129301999Y-107715999D01*
X127444500Y-107823000D02*
X129194998Y-107823000D01*
X107200202Y-115000000D02*
X107040000Y-115000000D01*
X101731001Y-98043001D02*
X97922000Y-94234000D01*
X103007203Y-98043001D02*
X101731001Y-98043001D01*
X104745011Y-99780809D02*
X103007203Y-98043001D01*
X104745011Y-108012989D02*
X104745011Y-99780809D01*
X103030000Y-109728000D02*
X104745011Y-108012989D01*
X144780000Y-99968000D02*
X144780000Y-99568000D01*
X132734000Y-112014000D02*
X144780000Y-99968000D01*
X95282001Y-85170001D02*
X94112000Y-84000000D01*
X99753601Y-85170001D02*
X95282001Y-85170001D01*
X102911603Y-82011999D02*
X99753601Y-85170001D01*
X117899999Y-82011999D02*
X102911603Y-82011999D01*
X119888000Y-84000000D02*
X117899999Y-82011999D01*
X116351999Y-107461999D02*
X117602000Y-108712000D01*
X107040000Y-115000000D02*
X107655998Y-115000000D01*
X113049999Y-108111999D02*
X113699999Y-107461999D01*
X107655998Y-115000000D02*
X108955999Y-113699999D01*
X113884001Y-116312001D02*
X114534001Y-115662001D01*
X108955999Y-113699999D02*
X110270999Y-113699999D01*
X110270999Y-113699999D02*
X112033999Y-115462999D01*
X114534001Y-115662001D02*
X114534001Y-110796003D01*
X112033999Y-115462999D02*
X112033999Y-115662001D01*
X112033999Y-115662001D02*
X112683999Y-116312001D01*
X113699999Y-107461999D02*
X116351999Y-107461999D01*
X112683999Y-116312001D02*
X113884001Y-116312001D01*
X114534001Y-110796003D02*
X113049999Y-109312001D01*
X113049999Y-109312001D02*
X113049999Y-108111999D01*
X82174000Y-78608000D02*
X83312000Y-77470000D01*
X82174000Y-84000000D02*
X82174000Y-78608000D01*
G04 #@! TO.N,/pin10*
X118953989Y-106761989D02*
X120904000Y-108712000D01*
X113410046Y-106761989D02*
X118953989Y-106761989D01*
X111969035Y-108203001D02*
X113410046Y-106761989D01*
X110482799Y-108203001D02*
X111969035Y-108203001D01*
X109954999Y-107675201D02*
X110482799Y-108203001D01*
X109954999Y-105663001D02*
X109954999Y-107675201D01*
X110970000Y-104648000D02*
X109954999Y-105663001D01*
X126627502Y-97536000D02*
X125857000Y-97536000D01*
X128694501Y-99602999D02*
X126627502Y-97536000D01*
X128694501Y-100921499D02*
X128694501Y-99602999D01*
X120904000Y-108712000D02*
X128694501Y-100921499D01*
G04 #@! TO.N,Net-(C10-Pad2)*
X124632989Y-81311989D02*
X99599989Y-81311989D01*
X125857000Y-82536000D02*
X124632989Y-81311989D01*
X99599989Y-81311989D02*
X97028000Y-78740000D01*
G04 #@! TO.N,9V*
X144780000Y-102870000D02*
X147828000Y-99822000D01*
X144780000Y-107188000D02*
X144780000Y-102870000D01*
X149606000Y-101600000D02*
X147828000Y-99822000D01*
X152000000Y-101600000D02*
X149606000Y-101600000D01*
X85090000Y-100584000D02*
X88138000Y-97536000D01*
X85090000Y-104140000D02*
X85090000Y-100584000D01*
G04 #@! TO.N,/pin13*
X103030000Y-97028000D02*
X110970000Y-97028000D01*
G04 #@! TO.N,/pin11*
X113284000Y-112042000D02*
X110970000Y-109728000D01*
X113284000Y-115062000D02*
X113284000Y-112042000D01*
X109254989Y-108012989D02*
X110970000Y-109728000D01*
X109254989Y-103823011D02*
X109254989Y-108012989D01*
X110970000Y-102108000D02*
X109254989Y-103823011D01*
G04 #@! TO.N,/pin9*
X119606000Y-98552000D02*
X120904000Y-98552000D01*
X110970000Y-107188000D02*
X119606000Y-98552000D01*
G04 #@! TO.N,Net-(J1-Pad1)*
X122966001Y-77693999D02*
X121666000Y-78994000D01*
X139663999Y-77693999D02*
X122966001Y-77693999D01*
X140970000Y-79000000D02*
X139663999Y-77693999D01*
X120371999Y-77699999D02*
X121666000Y-78994000D01*
X105800001Y-77699999D02*
X120371999Y-77699999D01*
X104500000Y-79000000D02*
X105800001Y-77699999D01*
G04 #@! TO.N,Pickups*
X146715001Y-89602001D02*
X146715001Y-82205001D01*
X140394999Y-89692001D02*
X146625001Y-89692001D01*
X140304999Y-89602001D02*
X140394999Y-89692001D01*
X140304999Y-87152001D02*
X140304999Y-89602001D01*
X146625001Y-89692001D02*
X146715001Y-89602001D01*
X141605000Y-85852000D02*
X140304999Y-87152001D01*
X153300001Y-102224001D02*
X153300001Y-88790001D01*
X147086001Y-108438001D02*
X153300001Y-102224001D01*
X143857997Y-108438001D02*
X147086001Y-108438001D01*
X139031997Y-113264001D02*
X143857997Y-108438001D01*
X119092007Y-117563991D02*
X123391997Y-113264001D01*
X153300001Y-88790001D02*
X145221500Y-80711500D01*
X112143991Y-117563991D02*
X119092007Y-117563991D01*
X123391997Y-113264001D02*
X139031997Y-113264001D01*
X109580000Y-115000000D02*
X112143991Y-117563991D01*
X145221500Y-80711500D02*
X143510000Y-79000000D01*
X146715001Y-82205001D02*
X145221500Y-80711500D01*
G04 #@! TO.N,Amp*
X68050000Y-104743998D02*
X86179998Y-86614000D01*
X68050000Y-115000000D02*
X68050000Y-104743998D01*
X86179998Y-86614000D02*
X92329000Y-86614000D01*
G04 #@! TO.N,FXOutB*
X111580000Y-83312000D02*
X117348000Y-89080000D01*
X108945000Y-83312000D02*
X111580000Y-83312000D01*
G04 #@! TO.N,FXInB*
X134366000Y-86540000D02*
X136906000Y-84000000D01*
X134366000Y-89080000D02*
X134366000Y-86540000D01*
X133517979Y-80611979D02*
X102201979Y-80611979D01*
X136906000Y-84000000D02*
X133517979Y-80611979D01*
X102201979Y-80611979D02*
X101600000Y-80010000D01*
X101600000Y-80010000D02*
X101600000Y-80010000D01*
G04 #@! TO.N,Net-(SW2-Pad1)*
X141605000Y-88392000D02*
X145415000Y-88392000D01*
G04 #@! TO.N,Net-(SW4-Pad1)*
X105135000Y-88392000D02*
X108945000Y-88392000D01*
G04 #@! TD*
M02*
