G04 #@! TF.GenerationSoftware,KiCad,Pcbnew,(5.1.7)-1*
G04 #@! TF.CreationDate,2021-11-30T20:19:25-06:00*
G04 #@! TF.ProjectId,GuitarBoard,47756974-6172-4426-9f61-72642e6b6963,rev?*
G04 #@! TF.SameCoordinates,Original*
G04 #@! TF.FileFunction,Legend,Top*
G04 #@! TF.FilePolarity,Positive*
%FSLAX46Y46*%
G04 Gerber Fmt 4.6, Leading zero omitted, Abs format (unit mm)*
G04 Created by KiCad (PCBNEW (5.1.7)-1) date 2021-11-30 20:19:25*
%MOMM*%
%LPD*%
G01*
G04 APERTURE LIST*
%ADD10C,0.200000*%
%ADD11C,0.150000*%
%ADD12C,0.120000*%
%ADD13C,0.254000*%
G04 APERTURE END LIST*
D10*
X58400142Y-106533428D02*
X58328714Y-106747714D01*
X58257285Y-106819142D01*
X58114428Y-106890571D01*
X57900142Y-106890571D01*
X57757285Y-106819142D01*
X57685857Y-106747714D01*
X57614428Y-106604857D01*
X57614428Y-106033428D01*
X59114428Y-106033428D01*
X59114428Y-106533428D01*
X59043000Y-106676285D01*
X58971571Y-106747714D01*
X58828714Y-106819142D01*
X58685857Y-106819142D01*
X58543000Y-106747714D01*
X58471571Y-106676285D01*
X58400142Y-106533428D01*
X58400142Y-106033428D01*
X59114428Y-108462000D02*
X57614428Y-108962000D01*
X59114428Y-109462000D01*
X57614428Y-110176285D02*
X57685857Y-110033428D01*
X57757285Y-109962000D01*
X57900142Y-109890571D01*
X58328714Y-109890571D01*
X58471571Y-109962000D01*
X58543000Y-110033428D01*
X58614428Y-110176285D01*
X58614428Y-110390571D01*
X58543000Y-110533428D01*
X58471571Y-110604857D01*
X58328714Y-110676285D01*
X57900142Y-110676285D01*
X57757285Y-110604857D01*
X57685857Y-110533428D01*
X57614428Y-110390571D01*
X57614428Y-110176285D01*
X57614428Y-111533428D02*
X57685857Y-111390571D01*
X57828714Y-111319142D01*
X59114428Y-111319142D01*
D11*
X65135857Y-94013857D02*
X64493000Y-94013857D01*
X64364428Y-93971000D01*
X64278714Y-93885285D01*
X64235857Y-93756714D01*
X64235857Y-93671000D01*
X64235857Y-94871000D02*
X64235857Y-94442428D01*
X65135857Y-94442428D01*
X64321571Y-95685285D02*
X64278714Y-95642428D01*
X64235857Y-95513857D01*
X64235857Y-95428142D01*
X64278714Y-95299571D01*
X64364428Y-95213857D01*
X64450142Y-95171000D01*
X64621571Y-95128142D01*
X64750142Y-95128142D01*
X64921571Y-95171000D01*
X65007285Y-95213857D01*
X65093000Y-95299571D01*
X65135857Y-95428142D01*
X65135857Y-95513857D01*
X65093000Y-95642428D01*
X65050142Y-95685285D01*
X65135857Y-96328142D02*
X64493000Y-96328142D01*
X64364428Y-96285285D01*
X64278714Y-96199571D01*
X64235857Y-96071000D01*
X64235857Y-95985285D01*
X64235857Y-97185285D02*
X64235857Y-96756714D01*
X65135857Y-96756714D01*
X64321571Y-97999571D02*
X64278714Y-97956714D01*
X64235857Y-97828142D01*
X64235857Y-97742428D01*
X64278714Y-97613857D01*
X64364428Y-97528142D01*
X64450142Y-97485285D01*
X64621571Y-97442428D01*
X64750142Y-97442428D01*
X64921571Y-97485285D01*
X65007285Y-97528142D01*
X65093000Y-97613857D01*
X65135857Y-97742428D01*
X65135857Y-97828142D01*
X65093000Y-97956714D01*
X65050142Y-97999571D01*
X65135857Y-98642428D02*
X64493000Y-98642428D01*
X64364428Y-98599571D01*
X64278714Y-98513857D01*
X64235857Y-98385285D01*
X64235857Y-98299571D01*
X64235857Y-99499571D02*
X64235857Y-99071000D01*
X65135857Y-99071000D01*
X64321571Y-100313857D02*
X64278714Y-100271000D01*
X64235857Y-100142428D01*
X64235857Y-100056714D01*
X64278714Y-99928142D01*
X64364428Y-99842428D01*
X64450142Y-99799571D01*
X64621571Y-99756714D01*
X64750142Y-99756714D01*
X64921571Y-99799571D01*
X65007285Y-99842428D01*
X65093000Y-99928142D01*
X65135857Y-100056714D01*
X65135857Y-100142428D01*
X65093000Y-100271000D01*
X65050142Y-100313857D01*
X65135857Y-100956714D02*
X64493000Y-100956714D01*
X64364428Y-100913857D01*
X64278714Y-100828142D01*
X64235857Y-100699571D01*
X64235857Y-100613857D01*
X64235857Y-101813857D02*
X64235857Y-101385285D01*
X65135857Y-101385285D01*
X64321571Y-102628142D02*
X64278714Y-102585285D01*
X64235857Y-102456714D01*
X64235857Y-102371000D01*
X64278714Y-102242428D01*
X64364428Y-102156714D01*
X64450142Y-102113857D01*
X64621571Y-102071000D01*
X64750142Y-102071000D01*
X64921571Y-102113857D01*
X65007285Y-102156714D01*
X65093000Y-102242428D01*
X65135857Y-102371000D01*
X65135857Y-102456714D01*
X65093000Y-102585285D01*
X65050142Y-102628142D01*
X61142666Y-118324380D02*
X61333142Y-118324380D01*
X61428380Y-118372000D01*
X61523619Y-118467238D01*
X61571238Y-118657714D01*
X61571238Y-118991047D01*
X61523619Y-119181523D01*
X61428380Y-119276761D01*
X61333142Y-119324380D01*
X61142666Y-119324380D01*
X61047428Y-119276761D01*
X60952190Y-119181523D01*
X60904571Y-118991047D01*
X60904571Y-118657714D01*
X60952190Y-118467238D01*
X61047428Y-118372000D01*
X61142666Y-118324380D01*
X62428380Y-118657714D02*
X62428380Y-119324380D01*
X61999809Y-118657714D02*
X61999809Y-119181523D01*
X62047428Y-119276761D01*
X62142666Y-119324380D01*
X62285523Y-119324380D01*
X62380761Y-119276761D01*
X62428380Y-119229142D01*
X62761714Y-118657714D02*
X63142666Y-118657714D01*
X62904571Y-118324380D02*
X62904571Y-119181523D01*
X62952190Y-119276761D01*
X63047428Y-119324380D01*
X63142666Y-119324380D01*
X109021619Y-119324380D02*
X109021619Y-118324380D01*
X109497809Y-118657714D02*
X109497809Y-119324380D01*
X109497809Y-118752952D02*
X109545428Y-118705333D01*
X109640666Y-118657714D01*
X109783523Y-118657714D01*
X109878761Y-118705333D01*
X109926380Y-118800571D01*
X109926380Y-119324380D01*
D10*
X57614428Y-93099571D02*
X59114428Y-93099571D01*
X59114428Y-93456714D01*
X59043000Y-93671000D01*
X58900142Y-93813857D01*
X58757285Y-93885285D01*
X58471571Y-93956714D01*
X58257285Y-93956714D01*
X57971571Y-93885285D01*
X57828714Y-93813857D01*
X57685857Y-93671000D01*
X57614428Y-93456714D01*
X57614428Y-93099571D01*
X57614428Y-94599571D02*
X58614428Y-94599571D01*
X59114428Y-94599571D02*
X59043000Y-94528142D01*
X58971571Y-94599571D01*
X59043000Y-94671000D01*
X59114428Y-94599571D01*
X58971571Y-94599571D01*
X57685857Y-95242428D02*
X57614428Y-95385285D01*
X57614428Y-95671000D01*
X57685857Y-95813857D01*
X57828714Y-95885285D01*
X57900142Y-95885285D01*
X58043000Y-95813857D01*
X58114428Y-95671000D01*
X58114428Y-95456714D01*
X58185857Y-95313857D01*
X58328714Y-95242428D01*
X58400142Y-95242428D01*
X58543000Y-95313857D01*
X58614428Y-95456714D01*
X58614428Y-95671000D01*
X58543000Y-95813857D01*
X58614428Y-96313857D02*
X58614428Y-96885285D01*
X59114428Y-96528142D02*
X57828714Y-96528142D01*
X57685857Y-96599571D01*
X57614428Y-96742428D01*
X57614428Y-96885285D01*
X57614428Y-97599571D02*
X57685857Y-97456714D01*
X57757285Y-97385285D01*
X57900142Y-97313857D01*
X58328714Y-97313857D01*
X58471571Y-97385285D01*
X58543000Y-97456714D01*
X58614428Y-97599571D01*
X58614428Y-97813857D01*
X58543000Y-97956714D01*
X58471571Y-98028142D01*
X58328714Y-98099571D01*
X57900142Y-98099571D01*
X57757285Y-98028142D01*
X57685857Y-97956714D01*
X57614428Y-97813857D01*
X57614428Y-97599571D01*
X57614428Y-98742428D02*
X58614428Y-98742428D01*
X58328714Y-98742428D02*
X58471571Y-98813857D01*
X58543000Y-98885285D01*
X58614428Y-99028142D01*
X58614428Y-99171000D01*
X58614428Y-99456714D02*
X58614428Y-100028142D01*
X59114428Y-99671000D02*
X57828714Y-99671000D01*
X57685857Y-99742428D01*
X57614428Y-99885285D01*
X57614428Y-100028142D01*
X57614428Y-100528142D02*
X58614428Y-100528142D01*
X59114428Y-100528142D02*
X59043000Y-100456714D01*
X58971571Y-100528142D01*
X59043000Y-100599571D01*
X59114428Y-100528142D01*
X58971571Y-100528142D01*
X57614428Y-101456714D02*
X57685857Y-101313857D01*
X57757285Y-101242428D01*
X57900142Y-101171000D01*
X58328714Y-101171000D01*
X58471571Y-101242428D01*
X58543000Y-101313857D01*
X58614428Y-101456714D01*
X58614428Y-101671000D01*
X58543000Y-101813857D01*
X58471571Y-101885285D01*
X58328714Y-101956714D01*
X57900142Y-101956714D01*
X57757285Y-101885285D01*
X57685857Y-101813857D01*
X57614428Y-101671000D01*
X57614428Y-101456714D01*
X58614428Y-102599571D02*
X57614428Y-102599571D01*
X58471571Y-102599571D02*
X58543000Y-102671000D01*
X58614428Y-102813857D01*
X58614428Y-103028142D01*
X58543000Y-103171000D01*
X58400142Y-103242428D01*
X57614428Y-103242428D01*
X59368428Y-83737142D02*
X57868428Y-84237142D01*
X59368428Y-84737142D01*
X57868428Y-85451428D02*
X57939857Y-85308571D01*
X58011285Y-85237142D01*
X58154142Y-85165714D01*
X58582714Y-85165714D01*
X58725571Y-85237142D01*
X58797000Y-85308571D01*
X58868428Y-85451428D01*
X58868428Y-85665714D01*
X58797000Y-85808571D01*
X58725571Y-85880000D01*
X58582714Y-85951428D01*
X58154142Y-85951428D01*
X58011285Y-85880000D01*
X57939857Y-85808571D01*
X57868428Y-85665714D01*
X57868428Y-85451428D01*
X57868428Y-86808571D02*
X57939857Y-86665714D01*
X58082714Y-86594285D01*
X59368428Y-86594285D01*
X58868428Y-88022857D02*
X57868428Y-88022857D01*
X58868428Y-87380000D02*
X58082714Y-87380000D01*
X57939857Y-87451428D01*
X57868428Y-87594285D01*
X57868428Y-87808571D01*
X57939857Y-87951428D01*
X58011285Y-88022857D01*
X57868428Y-88737142D02*
X58868428Y-88737142D01*
X58725571Y-88737142D02*
X58797000Y-88808571D01*
X58868428Y-88951428D01*
X58868428Y-89165714D01*
X58797000Y-89308571D01*
X58654142Y-89380000D01*
X57868428Y-89380000D01*
X58654142Y-89380000D02*
X58797000Y-89451428D01*
X58868428Y-89594285D01*
X58868428Y-89808571D01*
X58797000Y-89951428D01*
X58654142Y-90022857D01*
X57868428Y-90022857D01*
X57939857Y-91308571D02*
X57868428Y-91165714D01*
X57868428Y-90880000D01*
X57939857Y-90737142D01*
X58082714Y-90665714D01*
X58654142Y-90665714D01*
X58797000Y-90737142D01*
X58868428Y-90880000D01*
X58868428Y-91165714D01*
X58797000Y-91308571D01*
X58654142Y-91380000D01*
X58511285Y-91380000D01*
X58368428Y-90665714D01*
X80773285Y-104043571D02*
X81630428Y-104043571D01*
X81201857Y-105543571D02*
X81201857Y-104043571D01*
X82130428Y-105543571D02*
X82130428Y-104043571D01*
X82773285Y-105543571D02*
X82773285Y-104757857D01*
X82701857Y-104615000D01*
X82559000Y-104543571D01*
X82344714Y-104543571D01*
X82201857Y-104615000D01*
X82130428Y-104686428D01*
X83701857Y-105543571D02*
X83559000Y-105472142D01*
X83487571Y-105400714D01*
X83416142Y-105257857D01*
X83416142Y-104829285D01*
X83487571Y-104686428D01*
X83559000Y-104615000D01*
X83701857Y-104543571D01*
X83916142Y-104543571D01*
X84059000Y-104615000D01*
X84130428Y-104686428D01*
X84201857Y-104829285D01*
X84201857Y-105257857D01*
X84130428Y-105400714D01*
X84059000Y-105472142D01*
X83916142Y-105543571D01*
X83701857Y-105543571D01*
X84844714Y-105543571D02*
X84844714Y-104543571D01*
X84844714Y-104686428D02*
X84916142Y-104615000D01*
X85059000Y-104543571D01*
X85273285Y-104543571D01*
X85416142Y-104615000D01*
X85487571Y-104757857D01*
X85487571Y-105543571D01*
X85487571Y-104757857D02*
X85559000Y-104615000D01*
X85701857Y-104543571D01*
X85916142Y-104543571D01*
X86059000Y-104615000D01*
X86130428Y-104757857D01*
X86130428Y-105543571D01*
X87487571Y-105543571D02*
X87487571Y-104757857D01*
X87416142Y-104615000D01*
X87273285Y-104543571D01*
X86987571Y-104543571D01*
X86844714Y-104615000D01*
X87487571Y-105472142D02*
X87344714Y-105543571D01*
X86987571Y-105543571D01*
X86844714Y-105472142D01*
X86773285Y-105329285D01*
X86773285Y-105186428D01*
X86844714Y-105043571D01*
X86987571Y-104972142D01*
X87344714Y-104972142D01*
X87487571Y-104900714D01*
X88130428Y-105472142D02*
X88273285Y-105543571D01*
X88559000Y-105543571D01*
X88701857Y-105472142D01*
X88773285Y-105329285D01*
X88773285Y-105257857D01*
X88701857Y-105115000D01*
X88559000Y-105043571D01*
X88344714Y-105043571D01*
X88201857Y-104972142D01*
X88130428Y-104829285D01*
X88130428Y-104757857D01*
X88201857Y-104615000D01*
X88344714Y-104543571D01*
X88559000Y-104543571D01*
X88701857Y-104615000D01*
X90559000Y-105543571D02*
X90559000Y-104043571D01*
X91059000Y-105115000D01*
X91559000Y-104043571D01*
X91559000Y-105543571D01*
X92916142Y-105472142D02*
X92773285Y-105543571D01*
X92487571Y-105543571D01*
X92344714Y-105472142D01*
X92273285Y-105400714D01*
X92201857Y-105257857D01*
X92201857Y-104829285D01*
X92273285Y-104686428D01*
X92344714Y-104615000D01*
X92487571Y-104543571D01*
X92773285Y-104543571D01*
X92916142Y-104615000D01*
X93559000Y-105543571D02*
X93559000Y-104043571D01*
X93916142Y-104043571D01*
X94130428Y-104115000D01*
X94273285Y-104257857D01*
X94344714Y-104400714D01*
X94416142Y-104686428D01*
X94416142Y-104900714D01*
X94344714Y-105186428D01*
X94273285Y-105329285D01*
X94130428Y-105472142D01*
X93916142Y-105543571D01*
X93559000Y-105543571D01*
X95273285Y-105543571D02*
X95130428Y-105472142D01*
X95059000Y-105400714D01*
X94987571Y-105257857D01*
X94987571Y-104829285D01*
X95059000Y-104686428D01*
X95130428Y-104615000D01*
X95273285Y-104543571D01*
X95487571Y-104543571D01*
X95630428Y-104615000D01*
X95701857Y-104686428D01*
X95773285Y-104829285D01*
X95773285Y-105257857D01*
X95701857Y-105400714D01*
X95630428Y-105472142D01*
X95487571Y-105543571D01*
X95273285Y-105543571D01*
X96416142Y-104543571D02*
X96416142Y-105543571D01*
X96416142Y-104686428D02*
X96487571Y-104615000D01*
X96630428Y-104543571D01*
X96844714Y-104543571D01*
X96987571Y-104615000D01*
X97059000Y-104757857D01*
X97059000Y-105543571D01*
X98416142Y-105543571D02*
X98416142Y-104757857D01*
X98344714Y-104615000D01*
X98201857Y-104543571D01*
X97916142Y-104543571D01*
X97773285Y-104615000D01*
X98416142Y-105472142D02*
X98273285Y-105543571D01*
X97916142Y-105543571D01*
X97773285Y-105472142D01*
X97701857Y-105329285D01*
X97701857Y-105186428D01*
X97773285Y-105043571D01*
X97916142Y-104972142D01*
X98273285Y-104972142D01*
X98416142Y-104900714D01*
X99773285Y-104543571D02*
X99773285Y-105757857D01*
X99701857Y-105900714D01*
X99630428Y-105972142D01*
X99487571Y-106043571D01*
X99273285Y-106043571D01*
X99130428Y-105972142D01*
X99773285Y-105472142D02*
X99630428Y-105543571D01*
X99344714Y-105543571D01*
X99201857Y-105472142D01*
X99130428Y-105400714D01*
X99059000Y-105257857D01*
X99059000Y-104829285D01*
X99130428Y-104686428D01*
X99201857Y-104615000D01*
X99344714Y-104543571D01*
X99630428Y-104543571D01*
X99773285Y-104615000D01*
X100487571Y-105543571D02*
X100487571Y-104043571D01*
X101130428Y-105543571D02*
X101130428Y-104757857D01*
X101059000Y-104615000D01*
X100916142Y-104543571D01*
X100701857Y-104543571D01*
X100559000Y-104615000D01*
X100487571Y-104686428D01*
X82594714Y-106565000D02*
X82451857Y-106493571D01*
X82237571Y-106493571D01*
X82023285Y-106565000D01*
X81880428Y-106707857D01*
X81808999Y-106850714D01*
X81737571Y-107136428D01*
X81737571Y-107350714D01*
X81808999Y-107636428D01*
X81880428Y-107779285D01*
X82023285Y-107922142D01*
X82237571Y-107993571D01*
X82380428Y-107993571D01*
X82594714Y-107922142D01*
X82666142Y-107850714D01*
X82666142Y-107350714D01*
X82380428Y-107350714D01*
X83951857Y-106993571D02*
X83951857Y-107993571D01*
X83308999Y-106993571D02*
X83308999Y-107779285D01*
X83380428Y-107922142D01*
X83523285Y-107993571D01*
X83737571Y-107993571D01*
X83880428Y-107922142D01*
X83951857Y-107850714D01*
X84666142Y-107993571D02*
X84666142Y-106993571D01*
X84666142Y-106493571D02*
X84594714Y-106565000D01*
X84666142Y-106636428D01*
X84737571Y-106565000D01*
X84666142Y-106493571D01*
X84666142Y-106636428D01*
X85166142Y-106993571D02*
X85737571Y-106993571D01*
X85380428Y-106493571D02*
X85380428Y-107779285D01*
X85451857Y-107922142D01*
X85594714Y-107993571D01*
X85737571Y-107993571D01*
X86880428Y-107993571D02*
X86880428Y-107207857D01*
X86808999Y-107065000D01*
X86666142Y-106993571D01*
X86380428Y-106993571D01*
X86237571Y-107065000D01*
X86880428Y-107922142D02*
X86737571Y-107993571D01*
X86380428Y-107993571D01*
X86237571Y-107922142D01*
X86166142Y-107779285D01*
X86166142Y-107636428D01*
X86237571Y-107493571D01*
X86380428Y-107422142D01*
X86737571Y-107422142D01*
X86880428Y-107350714D01*
X87594714Y-107993571D02*
X87594714Y-106993571D01*
X87594714Y-107279285D02*
X87666142Y-107136428D01*
X87737571Y-107065000D01*
X87880428Y-106993571D01*
X88023285Y-106993571D01*
X89023285Y-107207857D02*
X89237571Y-107279285D01*
X89308999Y-107350714D01*
X89380428Y-107493571D01*
X89380428Y-107707857D01*
X89308999Y-107850714D01*
X89237571Y-107922142D01*
X89094714Y-107993571D01*
X88523285Y-107993571D01*
X88523285Y-106493571D01*
X89023285Y-106493571D01*
X89166142Y-106565000D01*
X89237571Y-106636428D01*
X89308999Y-106779285D01*
X89308999Y-106922142D01*
X89237571Y-107065000D01*
X89166142Y-107136428D01*
X89023285Y-107207857D01*
X88523285Y-107207857D01*
X90237571Y-107993571D02*
X90094714Y-107922142D01*
X90023285Y-107850714D01*
X89951857Y-107707857D01*
X89951857Y-107279285D01*
X90023285Y-107136428D01*
X90094714Y-107065000D01*
X90237571Y-106993571D01*
X90451857Y-106993571D01*
X90594714Y-107065000D01*
X90666142Y-107136428D01*
X90737571Y-107279285D01*
X90737571Y-107707857D01*
X90666142Y-107850714D01*
X90594714Y-107922142D01*
X90451857Y-107993571D01*
X90237571Y-107993571D01*
X92023285Y-107993571D02*
X92023285Y-107207857D01*
X91951857Y-107065000D01*
X91808999Y-106993571D01*
X91523285Y-106993571D01*
X91380428Y-107065000D01*
X92023285Y-107922142D02*
X91880428Y-107993571D01*
X91523285Y-107993571D01*
X91380428Y-107922142D01*
X91308999Y-107779285D01*
X91308999Y-107636428D01*
X91380428Y-107493571D01*
X91523285Y-107422142D01*
X91880428Y-107422142D01*
X92023285Y-107350714D01*
X92737571Y-107993571D02*
X92737571Y-106993571D01*
X92737571Y-107279285D02*
X92808999Y-107136428D01*
X92880428Y-107065000D01*
X93023285Y-106993571D01*
X93166142Y-106993571D01*
X94308999Y-107993571D02*
X94308999Y-106493571D01*
X94308999Y-107922142D02*
X94166142Y-107993571D01*
X93880428Y-107993571D01*
X93737571Y-107922142D01*
X93666142Y-107850714D01*
X93594714Y-107707857D01*
X93594714Y-107279285D01*
X93666142Y-107136428D01*
X93737571Y-107065000D01*
X93880428Y-106993571D01*
X94166142Y-106993571D01*
X94308999Y-107065000D01*
X95951857Y-106493571D02*
X96451857Y-107993571D01*
X96951857Y-106493571D01*
X98237571Y-107993571D02*
X97380428Y-107993571D01*
X97808999Y-107993571D02*
X97808999Y-106493571D01*
X97666142Y-106707857D01*
X97523285Y-106850714D01*
X97380428Y-106922142D01*
X98880428Y-107850714D02*
X98951857Y-107922142D01*
X98880428Y-107993571D01*
X98808999Y-107922142D01*
X98880428Y-107850714D01*
X98880428Y-107993571D01*
X99523285Y-106636428D02*
X99594714Y-106565000D01*
X99737571Y-106493571D01*
X100094714Y-106493571D01*
X100237571Y-106565000D01*
X100308999Y-106636428D01*
X100380428Y-106779285D01*
X100380428Y-106922142D01*
X100308999Y-107136428D01*
X99451857Y-107993571D01*
X100380428Y-107993571D01*
X80558999Y-110443571D02*
X80558999Y-109443571D01*
X80558999Y-109586428D02*
X80630428Y-109515000D01*
X80773285Y-109443571D01*
X80987571Y-109443571D01*
X81130428Y-109515000D01*
X81201857Y-109657857D01*
X81201857Y-110443571D01*
X81201857Y-109657857D02*
X81273285Y-109515000D01*
X81416142Y-109443571D01*
X81630428Y-109443571D01*
X81773285Y-109515000D01*
X81844714Y-109657857D01*
X81844714Y-110443571D01*
X83201857Y-110372142D02*
X83058999Y-110443571D01*
X82773285Y-110443571D01*
X82630428Y-110372142D01*
X82558999Y-110300714D01*
X82487571Y-110157857D01*
X82487571Y-109729285D01*
X82558999Y-109586428D01*
X82630428Y-109515000D01*
X82773285Y-109443571D01*
X83058999Y-109443571D01*
X83201857Y-109515000D01*
X84487571Y-110443571D02*
X84487571Y-108943571D01*
X84487571Y-110372142D02*
X84344714Y-110443571D01*
X84058999Y-110443571D01*
X83916142Y-110372142D01*
X83844714Y-110300714D01*
X83773285Y-110157857D01*
X83773285Y-109729285D01*
X83844714Y-109586428D01*
X83916142Y-109515000D01*
X84058999Y-109443571D01*
X84344714Y-109443571D01*
X84487571Y-109515000D01*
X85416142Y-110443571D02*
X85273285Y-110372142D01*
X85201857Y-110300714D01*
X85130428Y-110157857D01*
X85130428Y-109729285D01*
X85201857Y-109586428D01*
X85273285Y-109515000D01*
X85416142Y-109443571D01*
X85630428Y-109443571D01*
X85773285Y-109515000D01*
X85844714Y-109586428D01*
X85916142Y-109729285D01*
X85916142Y-110157857D01*
X85844714Y-110300714D01*
X85773285Y-110372142D01*
X85630428Y-110443571D01*
X85416142Y-110443571D01*
X86558999Y-109443571D02*
X86558999Y-110443571D01*
X86558999Y-109586428D02*
X86630428Y-109515000D01*
X86773285Y-109443571D01*
X86987571Y-109443571D01*
X87130428Y-109515000D01*
X87201857Y-109657857D01*
X87201857Y-110443571D01*
X88558999Y-110443571D02*
X88558999Y-109657857D01*
X88487571Y-109515000D01*
X88344714Y-109443571D01*
X88058999Y-109443571D01*
X87916142Y-109515000D01*
X88558999Y-110372142D02*
X88416142Y-110443571D01*
X88058999Y-110443571D01*
X87916142Y-110372142D01*
X87844714Y-110229285D01*
X87844714Y-110086428D01*
X87916142Y-109943571D01*
X88058999Y-109872142D01*
X88416142Y-109872142D01*
X88558999Y-109800714D01*
X89916142Y-109443571D02*
X89916142Y-110657857D01*
X89844714Y-110800714D01*
X89773285Y-110872142D01*
X89630428Y-110943571D01*
X89416142Y-110943571D01*
X89273285Y-110872142D01*
X89916142Y-110372142D02*
X89773285Y-110443571D01*
X89487571Y-110443571D01*
X89344714Y-110372142D01*
X89273285Y-110300714D01*
X89201857Y-110157857D01*
X89201857Y-109729285D01*
X89273285Y-109586428D01*
X89344714Y-109515000D01*
X89487571Y-109443571D01*
X89773285Y-109443571D01*
X89916142Y-109515000D01*
X90630428Y-110443571D02*
X90630428Y-108943571D01*
X91273285Y-110443571D02*
X91273285Y-109657857D01*
X91201857Y-109515000D01*
X91058999Y-109443571D01*
X90844714Y-109443571D01*
X90701857Y-109515000D01*
X90630428Y-109586428D01*
X92630428Y-110372142D02*
X92487571Y-110443571D01*
X92201857Y-110443571D01*
X92058999Y-110372142D01*
X91987571Y-110300714D01*
X91916142Y-110157857D01*
X91916142Y-109729285D01*
X91987571Y-109586428D01*
X92058999Y-109515000D01*
X92201857Y-109443571D01*
X92487571Y-109443571D01*
X92630428Y-109515000D01*
X93487571Y-110443571D02*
X93344714Y-110372142D01*
X93273285Y-110300714D01*
X93201857Y-110157857D01*
X93201857Y-109729285D01*
X93273285Y-109586428D01*
X93344714Y-109515000D01*
X93487571Y-109443571D01*
X93701857Y-109443571D01*
X93844714Y-109515000D01*
X93916142Y-109586428D01*
X93987571Y-109729285D01*
X93987571Y-110157857D01*
X93916142Y-110300714D01*
X93844714Y-110372142D01*
X93701857Y-110443571D01*
X93487571Y-110443571D01*
X94630428Y-110443571D02*
X94630428Y-109443571D01*
X94630428Y-109729285D02*
X94701857Y-109586428D01*
X94773285Y-109515000D01*
X94916142Y-109443571D01*
X95058999Y-109443571D01*
X95558999Y-109443571D02*
X95558999Y-110943571D01*
X95558999Y-109515000D02*
X95701857Y-109443571D01*
X95987571Y-109443571D01*
X96130428Y-109515000D01*
X96201857Y-109586428D01*
X96273285Y-109729285D01*
X96273285Y-110157857D01*
X96201857Y-110300714D01*
X96130428Y-110372142D01*
X95987571Y-110443571D01*
X95701857Y-110443571D01*
X95558999Y-110372142D01*
X96916142Y-110300714D02*
X96987571Y-110372142D01*
X96916142Y-110443571D01*
X96844714Y-110372142D01*
X96916142Y-110300714D01*
X96916142Y-110443571D01*
X98273285Y-110372142D02*
X98130428Y-110443571D01*
X97844714Y-110443571D01*
X97701857Y-110372142D01*
X97630428Y-110300714D01*
X97558999Y-110157857D01*
X97558999Y-109729285D01*
X97630428Y-109586428D01*
X97701857Y-109515000D01*
X97844714Y-109443571D01*
X98130428Y-109443571D01*
X98273285Y-109515000D01*
X99130428Y-110443571D02*
X98987571Y-110372142D01*
X98916142Y-110300714D01*
X98844714Y-110157857D01*
X98844714Y-109729285D01*
X98916142Y-109586428D01*
X98987571Y-109515000D01*
X99130428Y-109443571D01*
X99344714Y-109443571D01*
X99487571Y-109515000D01*
X99558999Y-109586428D01*
X99630428Y-109729285D01*
X99630428Y-110157857D01*
X99558999Y-110300714D01*
X99487571Y-110372142D01*
X99344714Y-110443571D01*
X99130428Y-110443571D01*
X100273285Y-110443571D02*
X100273285Y-109443571D01*
X100273285Y-109586428D02*
X100344714Y-109515000D01*
X100487571Y-109443571D01*
X100701857Y-109443571D01*
X100844714Y-109515000D01*
X100916142Y-109657857D01*
X100916142Y-110443571D01*
X100916142Y-109657857D02*
X100987571Y-109515000D01*
X101130428Y-109443571D01*
X101344714Y-109443571D01*
X101487571Y-109515000D01*
X101558999Y-109657857D01*
X101558999Y-110443571D01*
D11*
X103738095Y-118372000D02*
X103642857Y-118324380D01*
X103500000Y-118324380D01*
X103357142Y-118372000D01*
X103261904Y-118467238D01*
X103214285Y-118562476D01*
X103166666Y-118752952D01*
X103166666Y-118895809D01*
X103214285Y-119086285D01*
X103261904Y-119181523D01*
X103357142Y-119276761D01*
X103500000Y-119324380D01*
X103595238Y-119324380D01*
X103738095Y-119276761D01*
X103785714Y-119229142D01*
X103785714Y-118895809D01*
X103595238Y-118895809D01*
X104214285Y-119324380D02*
X104214285Y-118324380D01*
X104785714Y-119324380D01*
X104785714Y-118324380D01*
X105261904Y-119324380D02*
X105261904Y-118324380D01*
X105500000Y-118324380D01*
X105642857Y-118372000D01*
X105738095Y-118467238D01*
X105785714Y-118562476D01*
X105833333Y-118752952D01*
X105833333Y-118895809D01*
X105785714Y-119086285D01*
X105738095Y-119181523D01*
X105642857Y-119276761D01*
X105500000Y-119324380D01*
X105261904Y-119324380D01*
D12*
G04 #@! TO.C,RV2*
X69667000Y-92515000D02*
X59897000Y-92515000D01*
X69667000Y-82745000D02*
X59897000Y-82745000D01*
X69667000Y-92515000D02*
X69667000Y-82745000D01*
X59897000Y-92515000D02*
X59897000Y-82745000D01*
G04 #@! TO.C,D7*
X131156000Y-83874000D02*
X131156000Y-86814000D01*
X131396000Y-83874000D02*
X131396000Y-86814000D01*
X131276000Y-83874000D02*
X131276000Y-86814000D01*
X136836000Y-85344000D02*
X135816000Y-85344000D01*
X129356000Y-85344000D02*
X130376000Y-85344000D01*
X135816000Y-83874000D02*
X130376000Y-83874000D01*
X135816000Y-86814000D02*
X135816000Y-83874000D01*
X130376000Y-86814000D02*
X135816000Y-86814000D01*
X130376000Y-83874000D02*
X130376000Y-86814000D01*
G04 #@! TO.C,D3*
X76858000Y-82292000D02*
X79098000Y-82292000D01*
X76858000Y-82052000D02*
X79098000Y-82052000D01*
X76858000Y-82172000D02*
X79098000Y-82172000D01*
X77978000Y-78002000D02*
X77978000Y-78652000D01*
X77978000Y-83542000D02*
X77978000Y-82892000D01*
X76858000Y-78652000D02*
X76858000Y-82892000D01*
X79098000Y-78652000D02*
X76858000Y-78652000D01*
X79098000Y-82892000D02*
X79098000Y-78652000D01*
X76858000Y-82892000D02*
X79098000Y-82892000D01*
G04 #@! TO.C,D4*
X76304000Y-78652000D02*
X74064000Y-78652000D01*
X74064000Y-78652000D02*
X74064000Y-82892000D01*
X74064000Y-82892000D02*
X76304000Y-82892000D01*
X76304000Y-82892000D02*
X76304000Y-78652000D01*
X75184000Y-78002000D02*
X75184000Y-78652000D01*
X75184000Y-83542000D02*
X75184000Y-82892000D01*
X76304000Y-79372000D02*
X74064000Y-79372000D01*
X76304000Y-79492000D02*
X74064000Y-79492000D01*
X76304000Y-79252000D02*
X74064000Y-79252000D01*
G04 #@! TO.C,J1*
X103170000Y-116000000D02*
X103170000Y-114670000D01*
X103170000Y-114670000D02*
X104500000Y-114670000D01*
X105770000Y-114670000D02*
X110910000Y-114670000D01*
X110910000Y-117330000D02*
X110910000Y-114670000D01*
X105770000Y-117330000D02*
X110910000Y-117330000D01*
X105770000Y-117330000D02*
X105770000Y-114670000D01*
G04 #@! TO.C,J2*
X60646000Y-116000000D02*
X60646000Y-114670000D01*
X60646000Y-114670000D02*
X61976000Y-114670000D01*
X63246000Y-114670000D02*
X65846000Y-114670000D01*
X65846000Y-117330000D02*
X65846000Y-114670000D01*
X63246000Y-117330000D02*
X65846000Y-117330000D01*
X63246000Y-117330000D02*
X63246000Y-114670000D01*
G04 #@! TO.C,Q1*
X72241000Y-104466000D02*
X75841000Y-104466000D01*
X72202522Y-104454478D02*
G75*
G02*
X74041000Y-100016000I1838478J1838478D01*
G01*
X75879478Y-104454478D02*
G75*
G03*
X74041000Y-100016000I-1838478J1838478D01*
G01*
G04 #@! TO.C,R2*
X75438000Y-88035000D02*
X75438000Y-88805000D01*
X75438000Y-96115000D02*
X75438000Y-95345000D01*
X74068000Y-88805000D02*
X74068000Y-95345000D01*
X76808000Y-88805000D02*
X74068000Y-88805000D01*
X76808000Y-95345000D02*
X76808000Y-88805000D01*
X74068000Y-95345000D02*
X76808000Y-95345000D01*
G04 #@! TO.C,R3*
X70639000Y-95345000D02*
X73379000Y-95345000D01*
X73379000Y-95345000D02*
X73379000Y-88805000D01*
X73379000Y-88805000D02*
X70639000Y-88805000D01*
X70639000Y-88805000D02*
X70639000Y-95345000D01*
X72009000Y-96115000D02*
X72009000Y-95345000D01*
X72009000Y-88035000D02*
X72009000Y-88805000D01*
G04 #@! TO.C,RV3*
X144780000Y-75892000D02*
X144780000Y-78552000D01*
X144780000Y-75892000D02*
X139640000Y-75892000D01*
X139640000Y-75892000D02*
X139640000Y-78552000D01*
X144780000Y-78552000D02*
X139640000Y-78552000D01*
X147380000Y-78552000D02*
X146050000Y-78552000D01*
X147380000Y-77222000D02*
X147380000Y-78552000D01*
G04 #@! TO.C,RV4*
X103170000Y-77222000D02*
X103170000Y-75892000D01*
X103170000Y-75892000D02*
X104500000Y-75892000D01*
X105770000Y-75892000D02*
X110910000Y-75892000D01*
X110910000Y-78552000D02*
X110910000Y-75892000D01*
X105770000Y-78552000D02*
X110910000Y-78552000D01*
X105770000Y-78552000D02*
X105770000Y-75892000D01*
G04 #@! TO.C,RV1*
X59897000Y-103056000D02*
X59897000Y-93286000D01*
X69667000Y-103056000D02*
X69667000Y-93286000D01*
X69667000Y-93286000D02*
X59897000Y-93286000D01*
X69667000Y-103056000D02*
X59897000Y-103056000D01*
G04 #@! TO.C,SW5*
X64897000Y-76267000D02*
X64897000Y-78927000D01*
X64897000Y-76267000D02*
X62297000Y-76267000D01*
X62297000Y-76267000D02*
X62297000Y-78927000D01*
X64897000Y-78927000D02*
X62297000Y-78927000D01*
X67497000Y-78927000D02*
X66167000Y-78927000D01*
X67497000Y-77597000D02*
X67497000Y-78927000D01*
G04 #@! TO.C,SW1*
X142935000Y-85344000D02*
X140275000Y-85344000D01*
X142935000Y-85344000D02*
X142935000Y-80204000D01*
X142935000Y-80204000D02*
X140275000Y-80204000D01*
X140275000Y-85344000D02*
X140275000Y-80204000D01*
X140275000Y-87944000D02*
X140275000Y-86614000D01*
X141605000Y-87944000D02*
X140275000Y-87944000D01*
G04 #@! TO.C,SW2*
X145415000Y-87944000D02*
X144085000Y-87944000D01*
X144085000Y-87944000D02*
X144085000Y-86614000D01*
X144085000Y-85344000D02*
X144085000Y-80204000D01*
X146745000Y-80204000D02*
X144085000Y-80204000D01*
X146745000Y-85344000D02*
X146745000Y-80204000D01*
X146745000Y-85344000D02*
X144085000Y-85344000D01*
G04 #@! TO.C,SW3*
X106465000Y-85344000D02*
X103805000Y-85344000D01*
X106465000Y-85344000D02*
X106465000Y-80204000D01*
X106465000Y-80204000D02*
X103805000Y-80204000D01*
X103805000Y-85344000D02*
X103805000Y-80204000D01*
X103805000Y-87944000D02*
X103805000Y-86614000D01*
X105135000Y-87944000D02*
X103805000Y-87944000D01*
G04 #@! TO.C,SW4*
X108945000Y-87944000D02*
X107615000Y-87944000D01*
X107615000Y-87944000D02*
X107615000Y-86614000D01*
X107615000Y-85344000D02*
X107615000Y-80204000D01*
X110275000Y-80204000D02*
X107615000Y-80204000D01*
X110275000Y-85344000D02*
X110275000Y-80204000D01*
X110275000Y-85344000D02*
X107615000Y-85344000D01*
G04 #@! TO.C,C1*
X121693000Y-112144000D02*
X132983000Y-112144000D01*
X121693000Y-119584000D02*
X132983000Y-119584000D01*
X132983000Y-119584000D02*
X132983000Y-112144000D01*
X121693000Y-119584000D02*
X121693000Y-112144000D01*
G04 #@! TO.C,C4*
X70512000Y-119076000D02*
X70512000Y-111636000D01*
X81802000Y-119076000D02*
X81802000Y-111636000D01*
X70512000Y-119076000D02*
X81802000Y-119076000D01*
X70512000Y-111636000D02*
X81802000Y-111636000D01*
G04 #@! TO.C,D1*
X144630000Y-95762000D02*
X142390000Y-95762000D01*
X144630000Y-96002000D02*
X142390000Y-96002000D01*
X144630000Y-95882000D02*
X142390000Y-95882000D01*
X143510000Y-100052000D02*
X143510000Y-99402000D01*
X143510000Y-94512000D02*
X143510000Y-95162000D01*
X144630000Y-99402000D02*
X144630000Y-95162000D01*
X142390000Y-99402000D02*
X144630000Y-99402000D01*
X142390000Y-95162000D02*
X142390000Y-99402000D01*
X144630000Y-95162000D02*
X142390000Y-95162000D01*
G04 #@! TO.C,D5*
X108181000Y-95162000D02*
X105941000Y-95162000D01*
X105941000Y-95162000D02*
X105941000Y-99402000D01*
X105941000Y-99402000D02*
X108181000Y-99402000D01*
X108181000Y-99402000D02*
X108181000Y-95162000D01*
X107061000Y-94512000D02*
X107061000Y-95162000D01*
X107061000Y-100052000D02*
X107061000Y-99402000D01*
X108181000Y-95882000D02*
X105941000Y-95882000D01*
X108181000Y-96002000D02*
X105941000Y-96002000D01*
X108181000Y-95762000D02*
X105941000Y-95762000D01*
G04 #@! TO.C,Q2*
X141710000Y-109419000D02*
X145310000Y-109419000D01*
X145348478Y-109407478D02*
G75*
G03*
X143510000Y-104969000I-1838478J1838478D01*
G01*
X141671522Y-109407478D02*
G75*
G02*
X143510000Y-104969000I1838478J1838478D01*
G01*
G04 #@! TO.C,Q3*
X134167000Y-93196000D02*
X134167000Y-96796000D01*
X134178522Y-93157522D02*
G75*
G02*
X138617000Y-94996000I1838478J-1838478D01*
G01*
X134178522Y-96834478D02*
G75*
G03*
X138617000Y-94996000I1838478J1838478D01*
G01*
G04 #@! TO.C,Q4*
X105134000Y-109546000D02*
X108734000Y-109546000D01*
X108772478Y-109534478D02*
G75*
G03*
X106934000Y-105096000I-1838478J1838478D01*
G01*
X105095522Y-109534478D02*
G75*
G02*
X106934000Y-105096000I1838478J1838478D01*
G01*
G04 #@! TO.C,Q5*
X97591000Y-93196000D02*
X97591000Y-96796000D01*
X97602522Y-93157522D02*
G75*
G02*
X102041000Y-94996000I1838478J-1838478D01*
G01*
X97602522Y-96834478D02*
G75*
G03*
X102041000Y-94996000I1838478J1838478D01*
G01*
G04 #@! TO.C,R1*
X145188000Y-101822000D02*
X147928000Y-101822000D01*
X147928000Y-101822000D02*
X147928000Y-95282000D01*
X147928000Y-95282000D02*
X145188000Y-95282000D01*
X145188000Y-95282000D02*
X145188000Y-101822000D01*
X146558000Y-102592000D02*
X146558000Y-101822000D01*
X146558000Y-94512000D02*
X146558000Y-95282000D01*
G04 #@! TO.C,R4*
X141832000Y-95282000D02*
X139092000Y-95282000D01*
X139092000Y-95282000D02*
X139092000Y-101822000D01*
X139092000Y-101822000D02*
X141832000Y-101822000D01*
X141832000Y-101822000D02*
X141832000Y-95282000D01*
X140462000Y-94512000D02*
X140462000Y-95282000D01*
X140462000Y-102592000D02*
X140462000Y-101822000D01*
G04 #@! TO.C,R5*
X109982000Y-94512000D02*
X109982000Y-95282000D01*
X109982000Y-102592000D02*
X109982000Y-101822000D01*
X108612000Y-95282000D02*
X108612000Y-101822000D01*
X111352000Y-95282000D02*
X108612000Y-95282000D01*
X111352000Y-101822000D02*
X111352000Y-95282000D01*
X108612000Y-101822000D02*
X111352000Y-101822000D01*
G04 #@! TO.C,R6*
X104140000Y-102592000D02*
X104140000Y-101822000D01*
X104140000Y-94512000D02*
X104140000Y-95282000D01*
X105510000Y-101822000D02*
X105510000Y-95282000D01*
X102770000Y-101822000D02*
X105510000Y-101822000D01*
X102770000Y-95282000D02*
X102770000Y-101822000D01*
X105510000Y-95282000D02*
X102770000Y-95282000D01*
G04 #@! TO.C,D2*
X143510000Y-91627000D02*
X143510000Y-88967000D01*
X143510000Y-91627000D02*
X146110000Y-91627000D01*
X146110000Y-91627000D02*
X146110000Y-88967000D01*
X143510000Y-88967000D02*
X146110000Y-88967000D01*
X140910000Y-88967000D02*
X142240000Y-88967000D01*
X140910000Y-90297000D02*
X140910000Y-88967000D01*
G04 #@! TO.C,D6*
X104461000Y-90424000D02*
X104461000Y-89094000D01*
X104461000Y-89094000D02*
X105791000Y-89094000D01*
X107061000Y-89094000D02*
X109661000Y-89094000D01*
X109661000Y-91754000D02*
X109661000Y-89094000D01*
X107061000Y-91754000D02*
X109661000Y-91754000D01*
X107061000Y-91754000D02*
X107061000Y-89094000D01*
G04 #@! TO.C,BT1*
X138557000Y-75692000D02*
X128397000Y-75692000D01*
X138557000Y-83312000D02*
X138557000Y-75692000D01*
X128397000Y-83312000D02*
X138557000Y-83312000D01*
X128397000Y-75692000D02*
X128397000Y-83312000D01*
X128397000Y-76962000D02*
X138557000Y-76962000D01*
D10*
G04 #@! TO.C,IC1*
X124116000Y-91501000D02*
X131951000Y-91501000D01*
X125351000Y-111191000D02*
X131951000Y-111191000D01*
D12*
G04 #@! TO.C,J3*
X90551000Y-75692000D02*
X80391000Y-75692000D01*
X90551000Y-83312000D02*
X90551000Y-75692000D01*
X80391000Y-83312000D02*
X90551000Y-83312000D01*
X80391000Y-75692000D02*
X80391000Y-83312000D01*
X80391000Y-76962000D02*
X90551000Y-76962000D01*
G04 #@! TO.C,J4*
X117602000Y-76962000D02*
X127762000Y-76962000D01*
X117602000Y-75692000D02*
X117602000Y-83312000D01*
X117602000Y-83312000D02*
X127762000Y-83312000D01*
X127762000Y-83312000D02*
X127762000Y-75692000D01*
X127762000Y-75692000D02*
X117602000Y-75692000D01*
G04 #@! TO.C,J5*
X91821000Y-76962000D02*
X101981000Y-76962000D01*
X91821000Y-75692000D02*
X91821000Y-83312000D01*
X91821000Y-83312000D02*
X101981000Y-83312000D01*
X101981000Y-83312000D02*
X101981000Y-75692000D01*
X101981000Y-75692000D02*
X91821000Y-75692000D01*
G04 #@! TO.C,Q6*
X138502000Y-105686000D02*
X138502000Y-102086000D01*
X138490478Y-105724478D02*
G75*
G02*
X134052000Y-103886000I-1838478J1838478D01*
G01*
X138490478Y-102047522D02*
G75*
G03*
X134052000Y-103886000I-1838478J-1838478D01*
G01*
G04 #@! TO.C,R7*
X116999000Y-83974000D02*
X116999000Y-86714000D01*
X116999000Y-86714000D02*
X123539000Y-86714000D01*
X123539000Y-86714000D02*
X123539000Y-83974000D01*
X123539000Y-83974000D02*
X116999000Y-83974000D01*
X116229000Y-85344000D02*
X116999000Y-85344000D01*
X124309000Y-85344000D02*
X123539000Y-85344000D01*
G04 #@! TO.C,R8*
X121666000Y-101624000D02*
X121666000Y-102394000D01*
X121666000Y-109704000D02*
X121666000Y-108934000D01*
X120296000Y-102394000D02*
X120296000Y-108934000D01*
X123036000Y-102394000D02*
X120296000Y-102394000D01*
X123036000Y-108934000D02*
X123036000Y-102394000D01*
X120296000Y-108934000D02*
X123036000Y-108934000D01*
G04 #@! TO.C,R9*
X123036000Y-89821000D02*
X120296000Y-89821000D01*
X120296000Y-89821000D02*
X120296000Y-96361000D01*
X120296000Y-96361000D02*
X123036000Y-96361000D01*
X123036000Y-96361000D02*
X123036000Y-89821000D01*
X121666000Y-89051000D02*
X121666000Y-89821000D01*
X121666000Y-97131000D02*
X121666000Y-96361000D01*
G04 #@! TO.C,R10*
X114808000Y-89305000D02*
X114808000Y-90075000D01*
X114808000Y-97385000D02*
X114808000Y-96615000D01*
X113438000Y-90075000D02*
X113438000Y-96615000D01*
X116178000Y-90075000D02*
X113438000Y-90075000D01*
X116178000Y-96615000D02*
X116178000Y-90075000D01*
X113438000Y-96615000D02*
X116178000Y-96615000D01*
G04 #@! TO.C,R11*
X132937000Y-90270000D02*
X132937000Y-87530000D01*
X132937000Y-87530000D02*
X126397000Y-87530000D01*
X126397000Y-87530000D02*
X126397000Y-90270000D01*
X126397000Y-90270000D02*
X132937000Y-90270000D01*
X133707000Y-88900000D02*
X132937000Y-88900000D01*
X125627000Y-88900000D02*
X126397000Y-88900000D01*
G04 #@! TO.C,R12*
X150852000Y-114808000D02*
X150082000Y-114808000D01*
X142772000Y-114808000D02*
X143542000Y-114808000D01*
X150082000Y-113438000D02*
X143542000Y-113438000D01*
X150082000Y-116178000D02*
X150082000Y-113438000D01*
X143542000Y-116178000D02*
X150082000Y-116178000D01*
X143542000Y-113438000D02*
X143542000Y-116178000D01*
G04 #@! TO.C,R13*
X148871000Y-109823000D02*
X151611000Y-109823000D01*
X151611000Y-109823000D02*
X151611000Y-103283000D01*
X151611000Y-103283000D02*
X148871000Y-103283000D01*
X148871000Y-103283000D02*
X148871000Y-109823000D01*
X150241000Y-110593000D02*
X150241000Y-109823000D01*
X150241000Y-102513000D02*
X150241000Y-103283000D01*
G04 #@! TO.C,R14*
X150852000Y-117983000D02*
X150082000Y-117983000D01*
X142772000Y-117983000D02*
X143542000Y-117983000D01*
X150082000Y-116613000D02*
X143542000Y-116613000D01*
X150082000Y-119353000D02*
X150082000Y-116613000D01*
X143542000Y-119353000D02*
X150082000Y-119353000D01*
X143542000Y-116613000D02*
X143542000Y-119353000D01*
G04 #@! TO.C,R15*
X136752000Y-109887000D02*
X134012000Y-109887000D01*
X134012000Y-109887000D02*
X134012000Y-116427000D01*
X134012000Y-116427000D02*
X136752000Y-116427000D01*
X136752000Y-116427000D02*
X136752000Y-109887000D01*
X135382000Y-109117000D02*
X135382000Y-109887000D01*
X135382000Y-117197000D02*
X135382000Y-116427000D01*
G04 #@! TO.C,RV5*
X69667000Y-113597000D02*
X59897000Y-113597000D01*
X69667000Y-103827000D02*
X59897000Y-103827000D01*
X69667000Y-113597000D02*
X69667000Y-103827000D01*
X59897000Y-113597000D02*
X59897000Y-103827000D01*
G04 #@! TO.C,C2*
X78102000Y-106072000D02*
X78102000Y-108812000D01*
X70662000Y-106072000D02*
X70662000Y-108812000D01*
X70662000Y-108812000D02*
X78102000Y-108812000D01*
X70662000Y-106072000D02*
X78102000Y-106072000D01*
G04 #@! TO.C,C3*
X70639000Y-85548000D02*
X70639000Y-78108000D01*
X73379000Y-85548000D02*
X73379000Y-78108000D01*
X70639000Y-85548000D02*
X73379000Y-85548000D01*
X70639000Y-78108000D02*
X73379000Y-78108000D01*
G04 #@! TO.C,C5*
X95380000Y-86968000D02*
X95380000Y-84228000D01*
X102820000Y-86968000D02*
X102820000Y-84228000D01*
X102820000Y-84228000D02*
X95380000Y-84228000D01*
X102820000Y-86968000D02*
X95380000Y-86968000D01*
G04 #@! TO.C,C6*
X114200000Y-83135000D02*
X114200000Y-75695000D01*
X116940000Y-83135000D02*
X116940000Y-75695000D01*
X114200000Y-83135000D02*
X116940000Y-83135000D01*
X114200000Y-75695000D02*
X116940000Y-75695000D01*
G04 #@! TO.C,C7*
X116867000Y-103508000D02*
X119607000Y-103508000D01*
X116867000Y-110948000D02*
X119607000Y-110948000D01*
X119607000Y-110948000D02*
X119607000Y-103508000D01*
X116867000Y-110948000D02*
X116867000Y-103508000D01*
G04 #@! TO.C,C8*
X119607000Y-102994000D02*
X116867000Y-102994000D01*
X119607000Y-95554000D02*
X116867000Y-95554000D01*
X116867000Y-95554000D02*
X116867000Y-102994000D01*
X119607000Y-95554000D02*
X119607000Y-102994000D01*
G04 #@! TO.C,C9*
X119607000Y-87426000D02*
X119607000Y-94866000D01*
X116867000Y-87426000D02*
X116867000Y-94866000D01*
X119607000Y-87426000D02*
X116867000Y-87426000D01*
X119607000Y-94866000D02*
X116867000Y-94866000D01*
G04 #@! TO.C,C10*
X84784000Y-89408000D02*
G75*
G03*
X84784000Y-89408000I-3270000J0D01*
G01*
X81514000Y-86178000D02*
X81514000Y-92638000D01*
X81554000Y-86178000D02*
X81554000Y-92638000D01*
X81594000Y-86178000D02*
X81594000Y-92638000D01*
X81634000Y-86180000D02*
X81634000Y-92636000D01*
X81674000Y-86181000D02*
X81674000Y-92635000D01*
X81714000Y-86184000D02*
X81714000Y-92632000D01*
X81754000Y-86186000D02*
X81754000Y-88368000D01*
X81754000Y-90448000D02*
X81754000Y-92630000D01*
X81794000Y-86190000D02*
X81794000Y-88368000D01*
X81794000Y-90448000D02*
X81794000Y-92626000D01*
X81834000Y-86193000D02*
X81834000Y-88368000D01*
X81834000Y-90448000D02*
X81834000Y-92623000D01*
X81874000Y-86197000D02*
X81874000Y-88368000D01*
X81874000Y-90448000D02*
X81874000Y-92619000D01*
X81914000Y-86202000D02*
X81914000Y-88368000D01*
X81914000Y-90448000D02*
X81914000Y-92614000D01*
X81954000Y-86207000D02*
X81954000Y-88368000D01*
X81954000Y-90448000D02*
X81954000Y-92609000D01*
X81994000Y-86213000D02*
X81994000Y-88368000D01*
X81994000Y-90448000D02*
X81994000Y-92603000D01*
X82034000Y-86219000D02*
X82034000Y-88368000D01*
X82034000Y-90448000D02*
X82034000Y-92597000D01*
X82074000Y-86226000D02*
X82074000Y-88368000D01*
X82074000Y-90448000D02*
X82074000Y-92590000D01*
X82114000Y-86233000D02*
X82114000Y-88368000D01*
X82114000Y-90448000D02*
X82114000Y-92583000D01*
X82154000Y-86241000D02*
X82154000Y-88368000D01*
X82154000Y-90448000D02*
X82154000Y-92575000D01*
X82194000Y-86249000D02*
X82194000Y-88368000D01*
X82194000Y-90448000D02*
X82194000Y-92567000D01*
X82235000Y-86258000D02*
X82235000Y-88368000D01*
X82235000Y-90448000D02*
X82235000Y-92558000D01*
X82275000Y-86267000D02*
X82275000Y-88368000D01*
X82275000Y-90448000D02*
X82275000Y-92549000D01*
X82315000Y-86277000D02*
X82315000Y-88368000D01*
X82315000Y-90448000D02*
X82315000Y-92539000D01*
X82355000Y-86287000D02*
X82355000Y-88368000D01*
X82355000Y-90448000D02*
X82355000Y-92529000D01*
X82395000Y-86298000D02*
X82395000Y-88368000D01*
X82395000Y-90448000D02*
X82395000Y-92518000D01*
X82435000Y-86310000D02*
X82435000Y-88368000D01*
X82435000Y-90448000D02*
X82435000Y-92506000D01*
X82475000Y-86322000D02*
X82475000Y-88368000D01*
X82475000Y-90448000D02*
X82475000Y-92494000D01*
X82515000Y-86334000D02*
X82515000Y-88368000D01*
X82515000Y-90448000D02*
X82515000Y-92482000D01*
X82555000Y-86347000D02*
X82555000Y-88368000D01*
X82555000Y-90448000D02*
X82555000Y-92469000D01*
X82595000Y-86361000D02*
X82595000Y-88368000D01*
X82595000Y-90448000D02*
X82595000Y-92455000D01*
X82635000Y-86375000D02*
X82635000Y-88368000D01*
X82635000Y-90448000D02*
X82635000Y-92441000D01*
X82675000Y-86390000D02*
X82675000Y-88368000D01*
X82675000Y-90448000D02*
X82675000Y-92426000D01*
X82715000Y-86406000D02*
X82715000Y-88368000D01*
X82715000Y-90448000D02*
X82715000Y-92410000D01*
X82755000Y-86422000D02*
X82755000Y-88368000D01*
X82755000Y-90448000D02*
X82755000Y-92394000D01*
X82795000Y-86438000D02*
X82795000Y-88368000D01*
X82795000Y-90448000D02*
X82795000Y-92378000D01*
X82835000Y-86456000D02*
X82835000Y-88368000D01*
X82835000Y-90448000D02*
X82835000Y-92360000D01*
X82875000Y-86474000D02*
X82875000Y-88368000D01*
X82875000Y-90448000D02*
X82875000Y-92342000D01*
X82915000Y-86492000D02*
X82915000Y-88368000D01*
X82915000Y-90448000D02*
X82915000Y-92324000D01*
X82955000Y-86512000D02*
X82955000Y-88368000D01*
X82955000Y-90448000D02*
X82955000Y-92304000D01*
X82995000Y-86532000D02*
X82995000Y-88368000D01*
X82995000Y-90448000D02*
X82995000Y-92284000D01*
X83035000Y-86552000D02*
X83035000Y-88368000D01*
X83035000Y-90448000D02*
X83035000Y-92264000D01*
X83075000Y-86574000D02*
X83075000Y-88368000D01*
X83075000Y-90448000D02*
X83075000Y-92242000D01*
X83115000Y-86596000D02*
X83115000Y-88368000D01*
X83115000Y-90448000D02*
X83115000Y-92220000D01*
X83155000Y-86618000D02*
X83155000Y-88368000D01*
X83155000Y-90448000D02*
X83155000Y-92198000D01*
X83195000Y-86642000D02*
X83195000Y-88368000D01*
X83195000Y-90448000D02*
X83195000Y-92174000D01*
X83235000Y-86666000D02*
X83235000Y-88368000D01*
X83235000Y-90448000D02*
X83235000Y-92150000D01*
X83275000Y-86692000D02*
X83275000Y-88368000D01*
X83275000Y-90448000D02*
X83275000Y-92124000D01*
X83315000Y-86718000D02*
X83315000Y-88368000D01*
X83315000Y-90448000D02*
X83315000Y-92098000D01*
X83355000Y-86744000D02*
X83355000Y-88368000D01*
X83355000Y-90448000D02*
X83355000Y-92072000D01*
X83395000Y-86772000D02*
X83395000Y-88368000D01*
X83395000Y-90448000D02*
X83395000Y-92044000D01*
X83435000Y-86801000D02*
X83435000Y-88368000D01*
X83435000Y-90448000D02*
X83435000Y-92015000D01*
X83475000Y-86830000D02*
X83475000Y-88368000D01*
X83475000Y-90448000D02*
X83475000Y-91986000D01*
X83515000Y-86860000D02*
X83515000Y-88368000D01*
X83515000Y-90448000D02*
X83515000Y-91956000D01*
X83555000Y-86892000D02*
X83555000Y-88368000D01*
X83555000Y-90448000D02*
X83555000Y-91924000D01*
X83595000Y-86924000D02*
X83595000Y-88368000D01*
X83595000Y-90448000D02*
X83595000Y-91892000D01*
X83635000Y-86958000D02*
X83635000Y-88368000D01*
X83635000Y-90448000D02*
X83635000Y-91858000D01*
X83675000Y-86992000D02*
X83675000Y-88368000D01*
X83675000Y-90448000D02*
X83675000Y-91824000D01*
X83715000Y-87028000D02*
X83715000Y-88368000D01*
X83715000Y-90448000D02*
X83715000Y-91788000D01*
X83755000Y-87065000D02*
X83755000Y-88368000D01*
X83755000Y-90448000D02*
X83755000Y-91751000D01*
X83795000Y-87103000D02*
X83795000Y-88368000D01*
X83795000Y-90448000D02*
X83795000Y-91713000D01*
X83835000Y-87143000D02*
X83835000Y-91673000D01*
X83875000Y-87184000D02*
X83875000Y-91632000D01*
X83915000Y-87226000D02*
X83915000Y-91590000D01*
X83955000Y-87271000D02*
X83955000Y-91545000D01*
X83995000Y-87316000D02*
X83995000Y-91500000D01*
X84035000Y-87364000D02*
X84035000Y-91452000D01*
X84075000Y-87413000D02*
X84075000Y-91403000D01*
X84115000Y-87464000D02*
X84115000Y-91352000D01*
X84155000Y-87518000D02*
X84155000Y-91298000D01*
X84195000Y-87574000D02*
X84195000Y-91242000D01*
X84235000Y-87632000D02*
X84235000Y-91184000D01*
X84275000Y-87694000D02*
X84275000Y-91122000D01*
X84315000Y-87758000D02*
X84315000Y-91058000D01*
X84355000Y-87827000D02*
X84355000Y-90989000D01*
X84395000Y-87899000D02*
X84395000Y-90917000D01*
X84435000Y-87976000D02*
X84435000Y-90840000D01*
X84475000Y-88058000D02*
X84475000Y-90758000D01*
X84515000Y-88146000D02*
X84515000Y-90670000D01*
X84555000Y-88243000D02*
X84555000Y-90573000D01*
X84595000Y-88349000D02*
X84595000Y-90467000D01*
X84635000Y-88468000D02*
X84635000Y-90348000D01*
X84675000Y-88606000D02*
X84675000Y-90210000D01*
X84715000Y-88775000D02*
X84715000Y-90041000D01*
X84755000Y-89006000D02*
X84755000Y-89810000D01*
X78013759Y-87569000D02*
X78643759Y-87569000D01*
X78328759Y-87254000D02*
X78328759Y-87884000D01*
G04 #@! TO.C,C11*
X140054000Y-114551000D02*
X137314000Y-114551000D01*
X140054000Y-107111000D02*
X137314000Y-107111000D01*
X137314000Y-107111000D02*
X137314000Y-114551000D01*
X140054000Y-107111000D02*
X140054000Y-114551000D01*
G04 #@! TO.C,C12*
X148286000Y-112749000D02*
X140846000Y-112749000D01*
X148286000Y-110009000D02*
X140846000Y-110009000D01*
X148286000Y-112749000D02*
X148286000Y-110009000D01*
X140846000Y-112749000D02*
X140846000Y-110009000D01*
G04 #@! TO.C,C13*
X84612241Y-99690000D02*
X84612241Y-99060000D01*
X84927241Y-99375000D02*
X84297241Y-99375000D01*
X78186000Y-97938000D02*
X78186000Y-97134000D01*
X78226000Y-98169000D02*
X78226000Y-96903000D01*
X78266000Y-98338000D02*
X78266000Y-96734000D01*
X78306000Y-98476000D02*
X78306000Y-96596000D01*
X78346000Y-98595000D02*
X78346000Y-96477000D01*
X78386000Y-98701000D02*
X78386000Y-96371000D01*
X78426000Y-98798000D02*
X78426000Y-96274000D01*
X78466000Y-98886000D02*
X78466000Y-96186000D01*
X78506000Y-98968000D02*
X78506000Y-96104000D01*
X78546000Y-99045000D02*
X78546000Y-96027000D01*
X78586000Y-99117000D02*
X78586000Y-95955000D01*
X78626000Y-99186000D02*
X78626000Y-95886000D01*
X78666000Y-99250000D02*
X78666000Y-95822000D01*
X78706000Y-99312000D02*
X78706000Y-95760000D01*
X78746000Y-99370000D02*
X78746000Y-95702000D01*
X78786000Y-99426000D02*
X78786000Y-95646000D01*
X78826000Y-99480000D02*
X78826000Y-95592000D01*
X78866000Y-99531000D02*
X78866000Y-95541000D01*
X78906000Y-99580000D02*
X78906000Y-95492000D01*
X78946000Y-99628000D02*
X78946000Y-95444000D01*
X78986000Y-99673000D02*
X78986000Y-95399000D01*
X79026000Y-99718000D02*
X79026000Y-95354000D01*
X79066000Y-99760000D02*
X79066000Y-95312000D01*
X79106000Y-99801000D02*
X79106000Y-95271000D01*
X79146000Y-96496000D02*
X79146000Y-95231000D01*
X79146000Y-99841000D02*
X79146000Y-98576000D01*
X79186000Y-96496000D02*
X79186000Y-95193000D01*
X79186000Y-99879000D02*
X79186000Y-98576000D01*
X79226000Y-96496000D02*
X79226000Y-95156000D01*
X79226000Y-99916000D02*
X79226000Y-98576000D01*
X79266000Y-96496000D02*
X79266000Y-95120000D01*
X79266000Y-99952000D02*
X79266000Y-98576000D01*
X79306000Y-96496000D02*
X79306000Y-95086000D01*
X79306000Y-99986000D02*
X79306000Y-98576000D01*
X79346000Y-96496000D02*
X79346000Y-95052000D01*
X79346000Y-100020000D02*
X79346000Y-98576000D01*
X79386000Y-96496000D02*
X79386000Y-95020000D01*
X79386000Y-100052000D02*
X79386000Y-98576000D01*
X79426000Y-96496000D02*
X79426000Y-94988000D01*
X79426000Y-100084000D02*
X79426000Y-98576000D01*
X79466000Y-96496000D02*
X79466000Y-94958000D01*
X79466000Y-100114000D02*
X79466000Y-98576000D01*
X79506000Y-96496000D02*
X79506000Y-94929000D01*
X79506000Y-100143000D02*
X79506000Y-98576000D01*
X79546000Y-96496000D02*
X79546000Y-94900000D01*
X79546000Y-100172000D02*
X79546000Y-98576000D01*
X79586000Y-96496000D02*
X79586000Y-94872000D01*
X79586000Y-100200000D02*
X79586000Y-98576000D01*
X79626000Y-96496000D02*
X79626000Y-94846000D01*
X79626000Y-100226000D02*
X79626000Y-98576000D01*
X79666000Y-96496000D02*
X79666000Y-94820000D01*
X79666000Y-100252000D02*
X79666000Y-98576000D01*
X79706000Y-96496000D02*
X79706000Y-94794000D01*
X79706000Y-100278000D02*
X79706000Y-98576000D01*
X79746000Y-96496000D02*
X79746000Y-94770000D01*
X79746000Y-100302000D02*
X79746000Y-98576000D01*
X79786000Y-96496000D02*
X79786000Y-94746000D01*
X79786000Y-100326000D02*
X79786000Y-98576000D01*
X79826000Y-96496000D02*
X79826000Y-94724000D01*
X79826000Y-100348000D02*
X79826000Y-98576000D01*
X79866000Y-96496000D02*
X79866000Y-94702000D01*
X79866000Y-100370000D02*
X79866000Y-98576000D01*
X79906000Y-96496000D02*
X79906000Y-94680000D01*
X79906000Y-100392000D02*
X79906000Y-98576000D01*
X79946000Y-96496000D02*
X79946000Y-94660000D01*
X79946000Y-100412000D02*
X79946000Y-98576000D01*
X79986000Y-96496000D02*
X79986000Y-94640000D01*
X79986000Y-100432000D02*
X79986000Y-98576000D01*
X80026000Y-96496000D02*
X80026000Y-94620000D01*
X80026000Y-100452000D02*
X80026000Y-98576000D01*
X80066000Y-96496000D02*
X80066000Y-94602000D01*
X80066000Y-100470000D02*
X80066000Y-98576000D01*
X80106000Y-96496000D02*
X80106000Y-94584000D01*
X80106000Y-100488000D02*
X80106000Y-98576000D01*
X80146000Y-96496000D02*
X80146000Y-94566000D01*
X80146000Y-100506000D02*
X80146000Y-98576000D01*
X80186000Y-96496000D02*
X80186000Y-94550000D01*
X80186000Y-100522000D02*
X80186000Y-98576000D01*
X80226000Y-96496000D02*
X80226000Y-94534000D01*
X80226000Y-100538000D02*
X80226000Y-98576000D01*
X80266000Y-96496000D02*
X80266000Y-94518000D01*
X80266000Y-100554000D02*
X80266000Y-98576000D01*
X80306000Y-96496000D02*
X80306000Y-94503000D01*
X80306000Y-100569000D02*
X80306000Y-98576000D01*
X80346000Y-96496000D02*
X80346000Y-94489000D01*
X80346000Y-100583000D02*
X80346000Y-98576000D01*
X80386000Y-96496000D02*
X80386000Y-94475000D01*
X80386000Y-100597000D02*
X80386000Y-98576000D01*
X80426000Y-96496000D02*
X80426000Y-94462000D01*
X80426000Y-100610000D02*
X80426000Y-98576000D01*
X80466000Y-96496000D02*
X80466000Y-94450000D01*
X80466000Y-100622000D02*
X80466000Y-98576000D01*
X80506000Y-96496000D02*
X80506000Y-94438000D01*
X80506000Y-100634000D02*
X80506000Y-98576000D01*
X80546000Y-96496000D02*
X80546000Y-94426000D01*
X80546000Y-100646000D02*
X80546000Y-98576000D01*
X80586000Y-96496000D02*
X80586000Y-94415000D01*
X80586000Y-100657000D02*
X80586000Y-98576000D01*
X80626000Y-96496000D02*
X80626000Y-94405000D01*
X80626000Y-100667000D02*
X80626000Y-98576000D01*
X80666000Y-96496000D02*
X80666000Y-94395000D01*
X80666000Y-100677000D02*
X80666000Y-98576000D01*
X80706000Y-96496000D02*
X80706000Y-94386000D01*
X80706000Y-100686000D02*
X80706000Y-98576000D01*
X80747000Y-96496000D02*
X80747000Y-94377000D01*
X80747000Y-100695000D02*
X80747000Y-98576000D01*
X80787000Y-96496000D02*
X80787000Y-94369000D01*
X80787000Y-100703000D02*
X80787000Y-98576000D01*
X80827000Y-96496000D02*
X80827000Y-94361000D01*
X80827000Y-100711000D02*
X80827000Y-98576000D01*
X80867000Y-96496000D02*
X80867000Y-94354000D01*
X80867000Y-100718000D02*
X80867000Y-98576000D01*
X80907000Y-96496000D02*
X80907000Y-94347000D01*
X80907000Y-100725000D02*
X80907000Y-98576000D01*
X80947000Y-96496000D02*
X80947000Y-94341000D01*
X80947000Y-100731000D02*
X80947000Y-98576000D01*
X80987000Y-96496000D02*
X80987000Y-94335000D01*
X80987000Y-100737000D02*
X80987000Y-98576000D01*
X81027000Y-96496000D02*
X81027000Y-94330000D01*
X81027000Y-100742000D02*
X81027000Y-98576000D01*
X81067000Y-96496000D02*
X81067000Y-94325000D01*
X81067000Y-100747000D02*
X81067000Y-98576000D01*
X81107000Y-96496000D02*
X81107000Y-94321000D01*
X81107000Y-100751000D02*
X81107000Y-98576000D01*
X81147000Y-96496000D02*
X81147000Y-94318000D01*
X81147000Y-100754000D02*
X81147000Y-98576000D01*
X81187000Y-96496000D02*
X81187000Y-94314000D01*
X81187000Y-100758000D02*
X81187000Y-98576000D01*
X81227000Y-100760000D02*
X81227000Y-94312000D01*
X81267000Y-100763000D02*
X81267000Y-94309000D01*
X81307000Y-100764000D02*
X81307000Y-94308000D01*
X81347000Y-100766000D02*
X81347000Y-94306000D01*
X81387000Y-100766000D02*
X81387000Y-94306000D01*
X81427000Y-100766000D02*
X81427000Y-94306000D01*
X84697000Y-97536000D02*
G75*
G03*
X84697000Y-97536000I-3270000J0D01*
G01*
G04 #@! TO.C,J6*
X156210000Y-99441000D02*
X156210000Y-79121000D01*
X148590000Y-99441000D02*
X148590000Y-79121000D01*
X154940000Y-79121000D02*
X154940000Y-99441000D01*
X156210000Y-79121000D02*
X148590000Y-79121000D01*
X148590000Y-99441000D02*
X156210000Y-99441000D01*
G04 #@! TO.C,RV2*
D11*
X65529380Y-88225238D02*
X65053190Y-88558571D01*
X65529380Y-88796666D02*
X64529380Y-88796666D01*
X64529380Y-88415714D01*
X64577000Y-88320476D01*
X64624619Y-88272857D01*
X64719857Y-88225238D01*
X64862714Y-88225238D01*
X64957952Y-88272857D01*
X65005571Y-88320476D01*
X65053190Y-88415714D01*
X65053190Y-88796666D01*
X64529380Y-87939523D02*
X65529380Y-87606190D01*
X64529380Y-87272857D01*
X64624619Y-86987142D02*
X64577000Y-86939523D01*
X64529380Y-86844285D01*
X64529380Y-86606190D01*
X64577000Y-86510952D01*
X64624619Y-86463333D01*
X64719857Y-86415714D01*
X64815095Y-86415714D01*
X64957952Y-86463333D01*
X65529380Y-87034761D01*
X65529380Y-86415714D01*
G04 #@! TO.C,D7*
X132357904Y-85796380D02*
X132357904Y-84796380D01*
X132596000Y-84796380D01*
X132738857Y-84844000D01*
X132834095Y-84939238D01*
X132881714Y-85034476D01*
X132929333Y-85224952D01*
X132929333Y-85367809D01*
X132881714Y-85558285D01*
X132834095Y-85653523D01*
X132738857Y-85748761D01*
X132596000Y-85796380D01*
X132357904Y-85796380D01*
X133262666Y-84796380D02*
X133929333Y-84796380D01*
X133500761Y-85796380D01*
G04 #@! TO.C,D3*
X78275379Y-81510095D02*
X77275379Y-81510095D01*
X77275379Y-81272000D01*
X77322999Y-81129142D01*
X77418237Y-81033904D01*
X77513475Y-80986285D01*
X77703951Y-80938666D01*
X77846808Y-80938666D01*
X78037284Y-80986285D01*
X78132522Y-81033904D01*
X78227760Y-81129142D01*
X78275379Y-81272000D01*
X78275379Y-81510095D01*
X77275379Y-80605333D02*
X77275379Y-79986285D01*
X77656332Y-80319619D01*
X77656332Y-80176761D01*
X77703951Y-80081523D01*
X77751570Y-80033904D01*
X77846808Y-79986285D01*
X78084903Y-79986285D01*
X78180141Y-80033904D01*
X78227760Y-80081523D01*
X78275379Y-80176761D01*
X78275379Y-80462476D01*
X78227760Y-80557714D01*
X78180141Y-80605333D01*
G04 #@! TO.C,D4*
X75729379Y-81510095D02*
X74729379Y-81510095D01*
X74729379Y-81272000D01*
X74776999Y-81129142D01*
X74872237Y-81033904D01*
X74967475Y-80986285D01*
X75157951Y-80938666D01*
X75300808Y-80938666D01*
X75491284Y-80986285D01*
X75586522Y-81033904D01*
X75681760Y-81129142D01*
X75729379Y-81272000D01*
X75729379Y-81510095D01*
X75062713Y-80081523D02*
X75729379Y-80081523D01*
X74681760Y-80319619D02*
X75396046Y-80557714D01*
X75396046Y-79938666D01*
G04 #@! TO.C,Q1*
X76739761Y-100496619D02*
X76644523Y-100449000D01*
X76549285Y-100353761D01*
X76406428Y-100210904D01*
X76311190Y-100163285D01*
X76215952Y-100163285D01*
X76263571Y-100401380D02*
X76168333Y-100353761D01*
X76073095Y-100258523D01*
X76025476Y-100068047D01*
X76025476Y-99734714D01*
X76073095Y-99544238D01*
X76168333Y-99449000D01*
X76263571Y-99401380D01*
X76454047Y-99401380D01*
X76549285Y-99449000D01*
X76644523Y-99544238D01*
X76692142Y-99734714D01*
X76692142Y-100068047D01*
X76644523Y-100258523D01*
X76549285Y-100353761D01*
X76454047Y-100401380D01*
X76263571Y-100401380D01*
X77644523Y-100401380D02*
X77073095Y-100401380D01*
X77358809Y-100401380D02*
X77358809Y-99401380D01*
X77263571Y-99544238D01*
X77168333Y-99639476D01*
X77073095Y-99687095D01*
G04 #@! TO.C,R2*
X75719379Y-92241666D02*
X75243189Y-92575000D01*
X75719379Y-92813095D02*
X74719379Y-92813095D01*
X74719379Y-92432142D01*
X74766999Y-92336904D01*
X74814618Y-92289285D01*
X74909856Y-92241666D01*
X75052713Y-92241666D01*
X75147951Y-92289285D01*
X75195570Y-92336904D01*
X75243189Y-92432142D01*
X75243189Y-92813095D01*
X74814618Y-91860714D02*
X74766999Y-91813095D01*
X74719379Y-91717857D01*
X74719379Y-91479761D01*
X74766999Y-91384523D01*
X74814618Y-91336904D01*
X74909856Y-91289285D01*
X75005094Y-91289285D01*
X75147951Y-91336904D01*
X75719379Y-91908333D01*
X75719379Y-91289285D01*
G04 #@! TO.C,R3*
X72304379Y-92318667D02*
X71828189Y-92652001D01*
X72304379Y-92890096D02*
X71304379Y-92890096D01*
X71304379Y-92509143D01*
X71351999Y-92413905D01*
X71399618Y-92366286D01*
X71494856Y-92318667D01*
X71637713Y-92318667D01*
X71732951Y-92366286D01*
X71780570Y-92413905D01*
X71828189Y-92509143D01*
X71828189Y-92890096D01*
X71304379Y-91985334D02*
X71304379Y-91366286D01*
X71685332Y-91699620D01*
X71685332Y-91556762D01*
X71732951Y-91461524D01*
X71780570Y-91413905D01*
X71875808Y-91366286D01*
X72113903Y-91366286D01*
X72209141Y-91413905D01*
X72256760Y-91461524D01*
X72304379Y-91556762D01*
X72304379Y-91842477D01*
X72256760Y-91937715D01*
X72209141Y-91985334D01*
G04 #@! TO.C,RV3*
X149296380Y-77811238D02*
X148820190Y-78144571D01*
X149296380Y-78382666D02*
X148296380Y-78382666D01*
X148296380Y-78001714D01*
X148344000Y-77906476D01*
X148391619Y-77858857D01*
X148486857Y-77811238D01*
X148629714Y-77811238D01*
X148724952Y-77858857D01*
X148772571Y-77906476D01*
X148820190Y-78001714D01*
X148820190Y-78382666D01*
X148296380Y-77525523D02*
X149296380Y-77192190D01*
X148296380Y-76858857D01*
X148296380Y-76620761D02*
X148296380Y-76001714D01*
X148677333Y-76335047D01*
X148677333Y-76192190D01*
X148724952Y-76096952D01*
X148772571Y-76049333D01*
X148867809Y-76001714D01*
X149105904Y-76001714D01*
X149201142Y-76049333D01*
X149248761Y-76096952D01*
X149296380Y-76192190D01*
X149296380Y-76477904D01*
X149248761Y-76573142D01*
X149201142Y-76620761D01*
G04 #@! TO.C,RV4*
X112720380Y-77811238D02*
X112244190Y-78144571D01*
X112720380Y-78382666D02*
X111720380Y-78382666D01*
X111720380Y-78001714D01*
X111768000Y-77906476D01*
X111815619Y-77858857D01*
X111910857Y-77811238D01*
X112053714Y-77811238D01*
X112148952Y-77858857D01*
X112196571Y-77906476D01*
X112244190Y-78001714D01*
X112244190Y-78382666D01*
X111720380Y-77525523D02*
X112720380Y-77192190D01*
X111720380Y-76858857D01*
X112053714Y-76096952D02*
X112720380Y-76096952D01*
X111672761Y-76335047D02*
X112387047Y-76573142D01*
X112387047Y-75954095D01*
G04 #@! TO.C,RV1*
X61285380Y-95718238D02*
X60809190Y-96051571D01*
X61285380Y-96289666D02*
X60285380Y-96289666D01*
X60285380Y-95908714D01*
X60333000Y-95813476D01*
X60380619Y-95765857D01*
X60475857Y-95718238D01*
X60618714Y-95718238D01*
X60713952Y-95765857D01*
X60761571Y-95813476D01*
X60809190Y-95908714D01*
X60809190Y-96289666D01*
X60285380Y-95432523D02*
X61285380Y-95099190D01*
X60285380Y-94765857D01*
X61285380Y-93908714D02*
X61285380Y-94480142D01*
X61285380Y-94194428D02*
X60285380Y-94194428D01*
X60428238Y-94289666D01*
X60523476Y-94384904D01*
X60571095Y-94480142D01*
G04 #@! TO.C,SW5*
X63690666Y-80771761D02*
X63833523Y-80819380D01*
X64071619Y-80819380D01*
X64166857Y-80771761D01*
X64214476Y-80724142D01*
X64262095Y-80628904D01*
X64262095Y-80533666D01*
X64214476Y-80438428D01*
X64166857Y-80390809D01*
X64071619Y-80343190D01*
X63881142Y-80295571D01*
X63785904Y-80247952D01*
X63738285Y-80200333D01*
X63690666Y-80105095D01*
X63690666Y-80009857D01*
X63738285Y-79914619D01*
X63785904Y-79867000D01*
X63881142Y-79819380D01*
X64119238Y-79819380D01*
X64262095Y-79867000D01*
X64595428Y-79819380D02*
X64833523Y-80819380D01*
X65024000Y-80105095D01*
X65214476Y-80819380D01*
X65452571Y-79819380D01*
X66309714Y-79819380D02*
X65833523Y-79819380D01*
X65785904Y-80295571D01*
X65833523Y-80247952D01*
X65928761Y-80200333D01*
X66166857Y-80200333D01*
X66262095Y-80247952D01*
X66309714Y-80295571D01*
X66357333Y-80390809D01*
X66357333Y-80628904D01*
X66309714Y-80724142D01*
X66262095Y-80771761D01*
X66166857Y-80819380D01*
X65928761Y-80819380D01*
X65833523Y-80771761D01*
X65785904Y-80724142D01*
G04 #@! TO.C,C1*
X125960142Y-116030666D02*
X126007761Y-116078285D01*
X126055380Y-116221142D01*
X126055380Y-116316380D01*
X126007761Y-116459238D01*
X125912523Y-116554476D01*
X125817285Y-116602095D01*
X125626809Y-116649714D01*
X125483952Y-116649714D01*
X125293476Y-116602095D01*
X125198238Y-116554476D01*
X125103000Y-116459238D01*
X125055380Y-116316380D01*
X125055380Y-116221142D01*
X125103000Y-116078285D01*
X125150619Y-116030666D01*
X126055380Y-115078285D02*
X126055380Y-115649714D01*
X126055380Y-115364000D02*
X125055380Y-115364000D01*
X125198238Y-115459238D01*
X125293476Y-115554476D01*
X125341095Y-115649714D01*
G04 #@! TO.C,C4*
X74779142Y-115522666D02*
X74826761Y-115570285D01*
X74874380Y-115713142D01*
X74874380Y-115808380D01*
X74826761Y-115951238D01*
X74731523Y-116046476D01*
X74636285Y-116094095D01*
X74445809Y-116141714D01*
X74302952Y-116141714D01*
X74112476Y-116094095D01*
X74017238Y-116046476D01*
X73922000Y-115951238D01*
X73874380Y-115808380D01*
X73874380Y-115713142D01*
X73922000Y-115570285D01*
X73969619Y-115522666D01*
X74207714Y-114665523D02*
X74874380Y-114665523D01*
X73826761Y-114903619D02*
X74541047Y-115141714D01*
X74541047Y-114522666D01*
G04 #@! TO.C,D1*
X144015381Y-98507094D02*
X143015381Y-98507094D01*
X143015381Y-98268999D01*
X143063001Y-98126141D01*
X143158239Y-98030903D01*
X143253477Y-97983284D01*
X143443953Y-97935665D01*
X143586810Y-97935665D01*
X143777286Y-97983284D01*
X143872524Y-98030903D01*
X143967762Y-98126141D01*
X144015381Y-98268999D01*
X144015381Y-98507094D01*
X144015381Y-96983284D02*
X144015381Y-97554713D01*
X144015381Y-97268999D02*
X143015381Y-97268999D01*
X143158239Y-97364237D01*
X143253477Y-97459475D01*
X143301096Y-97554713D01*
G04 #@! TO.C,D5*
X107453381Y-98138094D02*
X106453381Y-98138094D01*
X106453381Y-97899999D01*
X106501001Y-97757141D01*
X106596239Y-97661903D01*
X106691477Y-97614284D01*
X106881953Y-97566665D01*
X107024810Y-97566665D01*
X107215286Y-97614284D01*
X107310524Y-97661903D01*
X107405762Y-97757141D01*
X107453381Y-97899999D01*
X107453381Y-98138094D01*
X106453381Y-96661903D02*
X106453381Y-97138094D01*
X106929572Y-97185713D01*
X106881953Y-97138094D01*
X106834334Y-97042856D01*
X106834334Y-96804760D01*
X106881953Y-96709522D01*
X106929572Y-96661903D01*
X107024810Y-96614284D01*
X107262905Y-96614284D01*
X107358143Y-96661903D01*
X107405762Y-96709522D01*
X107453381Y-96804760D01*
X107453381Y-97042856D01*
X107405762Y-97138094D01*
X107358143Y-97185713D01*
G04 #@! TO.C,Q2*
X143414761Y-104560619D02*
X143319523Y-104513000D01*
X143224285Y-104417761D01*
X143081428Y-104274904D01*
X142986190Y-104227285D01*
X142890952Y-104227285D01*
X142938571Y-104465380D02*
X142843333Y-104417761D01*
X142748095Y-104322523D01*
X142700476Y-104132047D01*
X142700476Y-103798714D01*
X142748095Y-103608238D01*
X142843333Y-103513000D01*
X142938571Y-103465380D01*
X143129047Y-103465380D01*
X143224285Y-103513000D01*
X143319523Y-103608238D01*
X143367142Y-103798714D01*
X143367142Y-104132047D01*
X143319523Y-104322523D01*
X143224285Y-104417761D01*
X143129047Y-104465380D01*
X142938571Y-104465380D01*
X143748095Y-103560619D02*
X143795714Y-103513000D01*
X143890952Y-103465380D01*
X144129047Y-103465380D01*
X144224285Y-103513000D01*
X144271904Y-103560619D01*
X144319523Y-103655857D01*
X144319523Y-103751095D01*
X144271904Y-103893952D01*
X143700476Y-104465380D01*
X144319523Y-104465380D01*
G04 #@! TO.C,Q3*
X136048761Y-91987619D02*
X135953523Y-91940000D01*
X135858285Y-91844761D01*
X135715428Y-91701904D01*
X135620190Y-91654285D01*
X135524952Y-91654285D01*
X135572571Y-91892380D02*
X135477333Y-91844761D01*
X135382095Y-91749523D01*
X135334476Y-91559047D01*
X135334476Y-91225714D01*
X135382095Y-91035238D01*
X135477333Y-90940000D01*
X135572571Y-90892380D01*
X135763047Y-90892380D01*
X135858285Y-90940000D01*
X135953523Y-91035238D01*
X136001142Y-91225714D01*
X136001142Y-91559047D01*
X135953523Y-91749523D01*
X135858285Y-91844761D01*
X135763047Y-91892380D01*
X135572571Y-91892380D01*
X136334476Y-90892380D02*
X136953523Y-90892380D01*
X136620190Y-91273333D01*
X136763047Y-91273333D01*
X136858285Y-91320952D01*
X136905904Y-91368571D01*
X136953523Y-91463809D01*
X136953523Y-91701904D01*
X136905904Y-91797142D01*
X136858285Y-91844761D01*
X136763047Y-91892380D01*
X136477333Y-91892380D01*
X136382095Y-91844761D01*
X136334476Y-91797142D01*
G04 #@! TO.C,Q4*
X106838761Y-104560619D02*
X106743523Y-104513000D01*
X106648285Y-104417761D01*
X106505428Y-104274904D01*
X106410190Y-104227285D01*
X106314952Y-104227285D01*
X106362571Y-104465380D02*
X106267333Y-104417761D01*
X106172095Y-104322523D01*
X106124476Y-104132047D01*
X106124476Y-103798714D01*
X106172095Y-103608238D01*
X106267333Y-103513000D01*
X106362571Y-103465380D01*
X106553047Y-103465380D01*
X106648285Y-103513000D01*
X106743523Y-103608238D01*
X106791142Y-103798714D01*
X106791142Y-104132047D01*
X106743523Y-104322523D01*
X106648285Y-104417761D01*
X106553047Y-104465380D01*
X106362571Y-104465380D01*
X107648285Y-103798714D02*
X107648285Y-104465380D01*
X107410190Y-103417761D02*
X107172095Y-104132047D01*
X107791142Y-104132047D01*
G04 #@! TO.C,Q5*
X99345761Y-91606619D02*
X99250523Y-91559000D01*
X99155285Y-91463761D01*
X99012428Y-91320904D01*
X98917190Y-91273285D01*
X98821952Y-91273285D01*
X98869571Y-91511380D02*
X98774333Y-91463761D01*
X98679095Y-91368523D01*
X98631476Y-91178047D01*
X98631476Y-90844714D01*
X98679095Y-90654238D01*
X98774333Y-90559000D01*
X98869571Y-90511380D01*
X99060047Y-90511380D01*
X99155285Y-90559000D01*
X99250523Y-90654238D01*
X99298142Y-90844714D01*
X99298142Y-91178047D01*
X99250523Y-91368523D01*
X99155285Y-91463761D01*
X99060047Y-91511380D01*
X98869571Y-91511380D01*
X100202904Y-90511380D02*
X99726714Y-90511380D01*
X99679095Y-90987571D01*
X99726714Y-90939952D01*
X99821952Y-90892333D01*
X100060047Y-90892333D01*
X100155285Y-90939952D01*
X100202904Y-90987571D01*
X100250523Y-91082809D01*
X100250523Y-91320904D01*
X100202904Y-91416142D01*
X100155285Y-91463761D01*
X100060047Y-91511380D01*
X99821952Y-91511380D01*
X99726714Y-91463761D01*
X99679095Y-91416142D01*
G04 #@! TO.C,R1*
X146947379Y-98718666D02*
X146471189Y-99052000D01*
X146947379Y-99290095D02*
X145947379Y-99290095D01*
X145947379Y-98909142D01*
X145994999Y-98813904D01*
X146042618Y-98766285D01*
X146137856Y-98718666D01*
X146280713Y-98718666D01*
X146375951Y-98766285D01*
X146423570Y-98813904D01*
X146471189Y-98909142D01*
X146471189Y-99290095D01*
X146947379Y-97766285D02*
X146947379Y-98337714D01*
X146947379Y-98052000D02*
X145947379Y-98052000D01*
X146090237Y-98147238D01*
X146185475Y-98242476D01*
X146233094Y-98337714D01*
G04 #@! TO.C,R4*
X140836381Y-98718666D02*
X140360191Y-99052000D01*
X140836381Y-99290095D02*
X139836381Y-99290095D01*
X139836381Y-98909142D01*
X139884001Y-98813904D01*
X139931620Y-98766285D01*
X140026858Y-98718666D01*
X140169715Y-98718666D01*
X140264953Y-98766285D01*
X140312572Y-98813904D01*
X140360191Y-98909142D01*
X140360191Y-99290095D01*
X140169715Y-97861523D02*
X140836381Y-97861523D01*
X139788762Y-98099619D02*
X140503048Y-98337714D01*
X140503048Y-97718666D01*
G04 #@! TO.C,R5*
X110498379Y-98718666D02*
X110022189Y-99052000D01*
X110498379Y-99290095D02*
X109498379Y-99290095D01*
X109498379Y-98909142D01*
X109545999Y-98813904D01*
X109593618Y-98766285D01*
X109688856Y-98718666D01*
X109831713Y-98718666D01*
X109926951Y-98766285D01*
X109974570Y-98813904D01*
X110022189Y-98909142D01*
X110022189Y-99290095D01*
X109498379Y-97813904D02*
X109498379Y-98290095D01*
X109974570Y-98337714D01*
X109926951Y-98290095D01*
X109879332Y-98194857D01*
X109879332Y-97956761D01*
X109926951Y-97861523D01*
X109974570Y-97813904D01*
X110069808Y-97766285D01*
X110307903Y-97766285D01*
X110403141Y-97813904D01*
X110450760Y-97861523D01*
X110498379Y-97956761D01*
X110498379Y-98194857D01*
X110450760Y-98290095D01*
X110403141Y-98337714D01*
G04 #@! TO.C,R6*
X104500381Y-98718666D02*
X104024191Y-99052000D01*
X104500381Y-99290095D02*
X103500381Y-99290095D01*
X103500381Y-98909142D01*
X103548001Y-98813904D01*
X103595620Y-98766285D01*
X103690858Y-98718666D01*
X103833715Y-98718666D01*
X103928953Y-98766285D01*
X103976572Y-98813904D01*
X104024191Y-98909142D01*
X104024191Y-99290095D01*
X103500381Y-97861523D02*
X103500381Y-98052000D01*
X103548001Y-98147238D01*
X103595620Y-98194857D01*
X103738477Y-98290095D01*
X103928953Y-98337714D01*
X104309905Y-98337714D01*
X104405143Y-98290095D01*
X104452762Y-98242476D01*
X104500381Y-98147238D01*
X104500381Y-97956761D01*
X104452762Y-97861523D01*
X104405143Y-97813904D01*
X104309905Y-97766285D01*
X104071810Y-97766285D01*
X103976572Y-97813904D01*
X103928953Y-97861523D01*
X103881334Y-97956761D01*
X103881334Y-98147238D01*
X103928953Y-98242476D01*
X103976572Y-98290095D01*
X104071810Y-98337714D01*
G04 #@! TO.C,D2*
X140279380Y-91035095D02*
X139279380Y-91035095D01*
X139279380Y-90797000D01*
X139327000Y-90654142D01*
X139422238Y-90558904D01*
X139517476Y-90511285D01*
X139707952Y-90463666D01*
X139850809Y-90463666D01*
X140041285Y-90511285D01*
X140136523Y-90558904D01*
X140231761Y-90654142D01*
X140279380Y-90797000D01*
X140279380Y-91035095D01*
X139374619Y-90082714D02*
X139327000Y-90035095D01*
X139279380Y-89939857D01*
X139279380Y-89701761D01*
X139327000Y-89606523D01*
X139374619Y-89558904D01*
X139469857Y-89511285D01*
X139565095Y-89511285D01*
X139707952Y-89558904D01*
X140279380Y-90130333D01*
X140279380Y-89511285D01*
G04 #@! TO.C,D6*
X103830380Y-91162095D02*
X102830380Y-91162095D01*
X102830380Y-90924000D01*
X102878000Y-90781142D01*
X102973238Y-90685904D01*
X103068476Y-90638285D01*
X103258952Y-90590666D01*
X103401809Y-90590666D01*
X103592285Y-90638285D01*
X103687523Y-90685904D01*
X103782761Y-90781142D01*
X103830380Y-90924000D01*
X103830380Y-91162095D01*
X102830380Y-89733523D02*
X102830380Y-89924000D01*
X102878000Y-90019238D01*
X102925619Y-90066857D01*
X103068476Y-90162095D01*
X103258952Y-90209714D01*
X103639904Y-90209714D01*
X103735142Y-90162095D01*
X103782761Y-90114476D01*
X103830380Y-90019238D01*
X103830380Y-89828761D01*
X103782761Y-89733523D01*
X103735142Y-89685904D01*
X103639904Y-89638285D01*
X103401809Y-89638285D01*
X103306571Y-89685904D01*
X103258952Y-89733523D01*
X103211333Y-89828761D01*
X103211333Y-90019238D01*
X103258952Y-90114476D01*
X103306571Y-90162095D01*
X103401809Y-90209714D01*
G04 #@! TO.C,BT1*
X132691285Y-82224571D02*
X132834142Y-82272190D01*
X132881761Y-82319809D01*
X132929380Y-82415047D01*
X132929380Y-82557904D01*
X132881761Y-82653142D01*
X132834142Y-82700761D01*
X132738904Y-82748380D01*
X132357952Y-82748380D01*
X132357952Y-81748380D01*
X132691285Y-81748380D01*
X132786523Y-81796000D01*
X132834142Y-81843619D01*
X132881761Y-81938857D01*
X132881761Y-82034095D01*
X132834142Y-82129333D01*
X132786523Y-82176952D01*
X132691285Y-82224571D01*
X132357952Y-82224571D01*
X133215095Y-81748380D02*
X133786523Y-81748380D01*
X133500809Y-82748380D02*
X133500809Y-81748380D01*
X134643666Y-82748380D02*
X134072238Y-82748380D01*
X134357952Y-82748380D02*
X134357952Y-81748380D01*
X134262714Y-81891238D01*
X134167476Y-81986476D01*
X134072238Y-82034095D01*
G04 #@! TO.C,IC1*
D13*
X127411238Y-101920523D02*
X127411238Y-100650523D01*
X128741714Y-101799571D02*
X128681238Y-101860047D01*
X128499809Y-101920523D01*
X128378857Y-101920523D01*
X128197428Y-101860047D01*
X128076476Y-101739095D01*
X128016000Y-101618142D01*
X127955523Y-101376238D01*
X127955523Y-101194809D01*
X128016000Y-100952904D01*
X128076476Y-100831952D01*
X128197428Y-100711000D01*
X128378857Y-100650523D01*
X128499809Y-100650523D01*
X128681238Y-100711000D01*
X128741714Y-100771476D01*
X129951238Y-101920523D02*
X129225523Y-101920523D01*
X129588380Y-101920523D02*
X129588380Y-100650523D01*
X129467428Y-100831952D01*
X129346476Y-100952904D01*
X129225523Y-101013380D01*
G04 #@! TO.C,J3*
D11*
X85137666Y-81748380D02*
X85137666Y-82462666D01*
X85090047Y-82605523D01*
X84994809Y-82700761D01*
X84851952Y-82748380D01*
X84756714Y-82748380D01*
X85518619Y-81748380D02*
X86137666Y-81748380D01*
X85804333Y-82129333D01*
X85947190Y-82129333D01*
X86042428Y-82176952D01*
X86090047Y-82224571D01*
X86137666Y-82319809D01*
X86137666Y-82557904D01*
X86090047Y-82653142D01*
X86042428Y-82700761D01*
X85947190Y-82748380D01*
X85661476Y-82748380D01*
X85566238Y-82700761D01*
X85518619Y-82653142D01*
G04 #@! TO.C,J4*
X122348666Y-81748380D02*
X122348666Y-82462666D01*
X122301047Y-82605523D01*
X122205809Y-82700761D01*
X122062952Y-82748380D01*
X121967714Y-82748380D01*
X123253428Y-82081714D02*
X123253428Y-82748380D01*
X123015333Y-81700761D02*
X122777238Y-82415047D01*
X123396285Y-82415047D01*
G04 #@! TO.C,J5*
X96567666Y-81748380D02*
X96567666Y-82462666D01*
X96520047Y-82605523D01*
X96424809Y-82700761D01*
X96281952Y-82748380D01*
X96186714Y-82748380D01*
X97520047Y-81748380D02*
X97043857Y-81748380D01*
X96996238Y-82224571D01*
X97043857Y-82176952D01*
X97139095Y-82129333D01*
X97377190Y-82129333D01*
X97472428Y-82176952D01*
X97520047Y-82224571D01*
X97567666Y-82319809D01*
X97567666Y-82557904D01*
X97520047Y-82653142D01*
X97472428Y-82700761D01*
X97377190Y-82748380D01*
X97139095Y-82748380D01*
X97043857Y-82700761D01*
X96996238Y-82653142D01*
G04 #@! TO.C,Q6*
X136556761Y-100877619D02*
X136461523Y-100830000D01*
X136366285Y-100734761D01*
X136223428Y-100591904D01*
X136128190Y-100544285D01*
X136032952Y-100544285D01*
X136080571Y-100782380D02*
X135985333Y-100734761D01*
X135890095Y-100639523D01*
X135842476Y-100449047D01*
X135842476Y-100115714D01*
X135890095Y-99925238D01*
X135985333Y-99830000D01*
X136080571Y-99782380D01*
X136271047Y-99782380D01*
X136366285Y-99830000D01*
X136461523Y-99925238D01*
X136509142Y-100115714D01*
X136509142Y-100449047D01*
X136461523Y-100639523D01*
X136366285Y-100734761D01*
X136271047Y-100782380D01*
X136080571Y-100782380D01*
X137366285Y-99782380D02*
X137175809Y-99782380D01*
X137080571Y-99830000D01*
X137032952Y-99877619D01*
X136937714Y-100020476D01*
X136890095Y-100210952D01*
X136890095Y-100591904D01*
X136937714Y-100687142D01*
X136985333Y-100734761D01*
X137080571Y-100782380D01*
X137271047Y-100782380D01*
X137366285Y-100734761D01*
X137413904Y-100687142D01*
X137461523Y-100591904D01*
X137461523Y-100353809D01*
X137413904Y-100258571D01*
X137366285Y-100210952D01*
X137271047Y-100163333D01*
X137080571Y-100163333D01*
X136985333Y-100210952D01*
X136937714Y-100258571D01*
X136890095Y-100353809D01*
G04 #@! TO.C,R7*
X120102333Y-85752379D02*
X119769000Y-85276189D01*
X119530904Y-85752379D02*
X119530904Y-84752379D01*
X119911857Y-84752379D01*
X120007095Y-84799999D01*
X120054714Y-84847618D01*
X120102333Y-84942856D01*
X120102333Y-85085713D01*
X120054714Y-85180951D01*
X120007095Y-85228570D01*
X119911857Y-85276189D01*
X119530904Y-85276189D01*
X120435666Y-84752379D02*
X121102333Y-84752379D01*
X120673761Y-85752379D01*
G04 #@! TO.C,R8*
X122088379Y-105830666D02*
X121612189Y-106164000D01*
X122088379Y-106402095D02*
X121088379Y-106402095D01*
X121088379Y-106021142D01*
X121135999Y-105925904D01*
X121183618Y-105878285D01*
X121278856Y-105830666D01*
X121421713Y-105830666D01*
X121516951Y-105878285D01*
X121564570Y-105925904D01*
X121612189Y-106021142D01*
X121612189Y-106402095D01*
X121516951Y-105259238D02*
X121469332Y-105354476D01*
X121421713Y-105402095D01*
X121326475Y-105449714D01*
X121278856Y-105449714D01*
X121183618Y-105402095D01*
X121135999Y-105354476D01*
X121088379Y-105259238D01*
X121088379Y-105068761D01*
X121135999Y-104973523D01*
X121183618Y-104925904D01*
X121278856Y-104878285D01*
X121326475Y-104878285D01*
X121421713Y-104925904D01*
X121469332Y-104973523D01*
X121516951Y-105068761D01*
X121516951Y-105259238D01*
X121564570Y-105354476D01*
X121612189Y-105402095D01*
X121707427Y-105449714D01*
X121897903Y-105449714D01*
X121993141Y-105402095D01*
X122040760Y-105354476D01*
X122088379Y-105259238D01*
X122088379Y-105068761D01*
X122040760Y-104973523D01*
X121993141Y-104925904D01*
X121897903Y-104878285D01*
X121707427Y-104878285D01*
X121612189Y-104925904D01*
X121564570Y-104973523D01*
X121516951Y-105068761D01*
G04 #@! TO.C,R9*
X122080381Y-93223665D02*
X121604191Y-93556999D01*
X122080381Y-93795094D02*
X121080381Y-93795094D01*
X121080381Y-93414141D01*
X121128001Y-93318903D01*
X121175620Y-93271284D01*
X121270858Y-93223665D01*
X121413715Y-93223665D01*
X121508953Y-93271284D01*
X121556572Y-93318903D01*
X121604191Y-93414141D01*
X121604191Y-93795094D01*
X122080381Y-92747475D02*
X122080381Y-92556999D01*
X122032762Y-92461760D01*
X121985143Y-92414141D01*
X121842286Y-92318903D01*
X121651810Y-92271284D01*
X121270858Y-92271284D01*
X121175620Y-92318903D01*
X121128001Y-92366522D01*
X121080381Y-92461760D01*
X121080381Y-92652237D01*
X121128001Y-92747475D01*
X121175620Y-92795094D01*
X121270858Y-92842713D01*
X121508953Y-92842713D01*
X121604191Y-92795094D01*
X121651810Y-92747475D01*
X121699429Y-92652237D01*
X121699429Y-92461760D01*
X121651810Y-92366522D01*
X121604191Y-92318903D01*
X121508953Y-92271284D01*
G04 #@! TO.C,R10*
X115259379Y-93987857D02*
X114783189Y-94321190D01*
X115259379Y-94559285D02*
X114259379Y-94559285D01*
X114259379Y-94178333D01*
X114306999Y-94083095D01*
X114354618Y-94035476D01*
X114449856Y-93987857D01*
X114592713Y-93987857D01*
X114687951Y-94035476D01*
X114735570Y-94083095D01*
X114783189Y-94178333D01*
X114783189Y-94559285D01*
X115259379Y-93035476D02*
X115259379Y-93606904D01*
X115259379Y-93321190D02*
X114259379Y-93321190D01*
X114402237Y-93416428D01*
X114497475Y-93511666D01*
X114545094Y-93606904D01*
X114259379Y-92416428D02*
X114259379Y-92321190D01*
X114306999Y-92225952D01*
X114354618Y-92178333D01*
X114449856Y-92130714D01*
X114640332Y-92083095D01*
X114878427Y-92083095D01*
X115068903Y-92130714D01*
X115164141Y-92178333D01*
X115211760Y-92225952D01*
X115259379Y-92321190D01*
X115259379Y-92416428D01*
X115211760Y-92511666D01*
X115164141Y-92559285D01*
X115068903Y-92606904D01*
X114878427Y-92654523D01*
X114640332Y-92654523D01*
X114449856Y-92606904D01*
X114354618Y-92559285D01*
X114306999Y-92511666D01*
X114259379Y-92416428D01*
G04 #@! TO.C,R11*
X129024142Y-89427381D02*
X128690809Y-88951191D01*
X128452714Y-89427381D02*
X128452714Y-88427381D01*
X128833666Y-88427381D01*
X128928904Y-88475001D01*
X128976523Y-88522620D01*
X129024142Y-88617858D01*
X129024142Y-88760715D01*
X128976523Y-88855953D01*
X128928904Y-88903572D01*
X128833666Y-88951191D01*
X128452714Y-88951191D01*
X129976523Y-89427381D02*
X129405095Y-89427381D01*
X129690809Y-89427381D02*
X129690809Y-88427381D01*
X129595571Y-88570239D01*
X129500333Y-88665477D01*
X129405095Y-88713096D01*
X130928904Y-89427381D02*
X130357476Y-89427381D01*
X130643190Y-89427381D02*
X130643190Y-88427381D01*
X130547952Y-88570239D01*
X130452714Y-88665477D01*
X130357476Y-88713096D01*
G04 #@! TO.C,R12*
X146169142Y-115202379D02*
X145835809Y-114726189D01*
X145597714Y-115202379D02*
X145597714Y-114202379D01*
X145978666Y-114202379D01*
X146073904Y-114249999D01*
X146121523Y-114297618D01*
X146169142Y-114392856D01*
X146169142Y-114535713D01*
X146121523Y-114630951D01*
X146073904Y-114678570D01*
X145978666Y-114726189D01*
X145597714Y-114726189D01*
X147121523Y-115202379D02*
X146550095Y-115202379D01*
X146835809Y-115202379D02*
X146835809Y-114202379D01*
X146740571Y-114345237D01*
X146645333Y-114440475D01*
X146550095Y-114488094D01*
X147502476Y-114297618D02*
X147550095Y-114249999D01*
X147645333Y-114202379D01*
X147883428Y-114202379D01*
X147978666Y-114249999D01*
X148026285Y-114297618D01*
X148073904Y-114392856D01*
X148073904Y-114488094D01*
X148026285Y-114630951D01*
X147454857Y-115202379D01*
X148073904Y-115202379D01*
G04 #@! TO.C,R13*
X150649379Y-107195857D02*
X150173189Y-107529190D01*
X150649379Y-107767285D02*
X149649379Y-107767285D01*
X149649379Y-107386333D01*
X149696999Y-107291095D01*
X149744618Y-107243476D01*
X149839856Y-107195857D01*
X149982713Y-107195857D01*
X150077951Y-107243476D01*
X150125570Y-107291095D01*
X150173189Y-107386333D01*
X150173189Y-107767285D01*
X150649379Y-106243476D02*
X150649379Y-106814904D01*
X150649379Y-106529190D02*
X149649379Y-106529190D01*
X149792237Y-106624428D01*
X149887475Y-106719666D01*
X149935094Y-106814904D01*
X149649379Y-105910142D02*
X149649379Y-105291095D01*
X150030332Y-105624428D01*
X150030332Y-105481571D01*
X150077951Y-105386333D01*
X150125570Y-105338714D01*
X150220808Y-105291095D01*
X150458903Y-105291095D01*
X150554141Y-105338714D01*
X150601760Y-105386333D01*
X150649379Y-105481571D01*
X150649379Y-105767285D01*
X150601760Y-105862523D01*
X150554141Y-105910142D01*
G04 #@! TO.C,R14*
X146169142Y-118377379D02*
X145835809Y-117901189D01*
X145597714Y-118377379D02*
X145597714Y-117377379D01*
X145978666Y-117377379D01*
X146073904Y-117424999D01*
X146121523Y-117472618D01*
X146169142Y-117567856D01*
X146169142Y-117710713D01*
X146121523Y-117805951D01*
X146073904Y-117853570D01*
X145978666Y-117901189D01*
X145597714Y-117901189D01*
X147121523Y-118377379D02*
X146550095Y-118377379D01*
X146835809Y-118377379D02*
X146835809Y-117377379D01*
X146740571Y-117520237D01*
X146645333Y-117615475D01*
X146550095Y-117663094D01*
X147978666Y-117710713D02*
X147978666Y-118377379D01*
X147740571Y-117329760D02*
X147502476Y-118044046D01*
X148121523Y-118044046D01*
G04 #@! TO.C,R15*
X135923381Y-113799857D02*
X135447191Y-114133190D01*
X135923381Y-114371285D02*
X134923381Y-114371285D01*
X134923381Y-113990333D01*
X134971001Y-113895095D01*
X135018620Y-113847476D01*
X135113858Y-113799857D01*
X135256715Y-113799857D01*
X135351953Y-113847476D01*
X135399572Y-113895095D01*
X135447191Y-113990333D01*
X135447191Y-114371285D01*
X135923381Y-112847476D02*
X135923381Y-113418904D01*
X135923381Y-113133190D02*
X134923381Y-113133190D01*
X135066239Y-113228428D01*
X135161477Y-113323666D01*
X135209096Y-113418904D01*
X134923381Y-111942714D02*
X134923381Y-112418904D01*
X135399572Y-112466523D01*
X135351953Y-112418904D01*
X135304334Y-112323666D01*
X135304334Y-112085571D01*
X135351953Y-111990333D01*
X135399572Y-111942714D01*
X135494810Y-111895095D01*
X135732905Y-111895095D01*
X135828143Y-111942714D01*
X135875762Y-111990333D01*
X135923381Y-112085571D01*
X135923381Y-112323666D01*
X135875762Y-112418904D01*
X135828143Y-112466523D01*
G04 #@! TO.C,RV5*
X65529380Y-109307238D02*
X65053190Y-109640571D01*
X65529380Y-109878666D02*
X64529380Y-109878666D01*
X64529380Y-109497714D01*
X64577000Y-109402476D01*
X64624619Y-109354857D01*
X64719857Y-109307238D01*
X64862714Y-109307238D01*
X64957952Y-109354857D01*
X65005571Y-109402476D01*
X65053190Y-109497714D01*
X65053190Y-109878666D01*
X64529380Y-109021523D02*
X65529380Y-108688190D01*
X64529380Y-108354857D01*
X64529380Y-107545333D02*
X64529380Y-108021523D01*
X65005571Y-108069142D01*
X64957952Y-108021523D01*
X64910333Y-107926285D01*
X64910333Y-107688190D01*
X64957952Y-107592952D01*
X65005571Y-107545333D01*
X65100809Y-107497714D01*
X65338904Y-107497714D01*
X65434142Y-107545333D01*
X65481761Y-107592952D01*
X65529380Y-107688190D01*
X65529380Y-107926285D01*
X65481761Y-108021523D01*
X65434142Y-108069142D01*
G04 #@! TO.C,C2*
X74215333Y-107799142D02*
X74167714Y-107846761D01*
X74024857Y-107894380D01*
X73929619Y-107894380D01*
X73786761Y-107846761D01*
X73691523Y-107751523D01*
X73643904Y-107656285D01*
X73596285Y-107465809D01*
X73596285Y-107322952D01*
X73643904Y-107132476D01*
X73691523Y-107037238D01*
X73786761Y-106942000D01*
X73929619Y-106894380D01*
X74024857Y-106894380D01*
X74167714Y-106942000D01*
X74215333Y-106989619D01*
X74596285Y-106989619D02*
X74643904Y-106942000D01*
X74739142Y-106894380D01*
X74977238Y-106894380D01*
X75072476Y-106942000D01*
X75120095Y-106989619D01*
X75167714Y-107084857D01*
X75167714Y-107180095D01*
X75120095Y-107322952D01*
X74548666Y-107894380D01*
X75167714Y-107894380D01*
G04 #@! TO.C,C3*
X72366142Y-81994666D02*
X72413761Y-82042285D01*
X72461380Y-82185142D01*
X72461380Y-82280380D01*
X72413761Y-82423238D01*
X72318523Y-82518476D01*
X72223285Y-82566095D01*
X72032809Y-82613714D01*
X71889952Y-82613714D01*
X71699476Y-82566095D01*
X71604238Y-82518476D01*
X71509000Y-82423238D01*
X71461380Y-82280380D01*
X71461380Y-82185142D01*
X71509000Y-82042285D01*
X71556619Y-81994666D01*
X71461380Y-81661333D02*
X71461380Y-81042285D01*
X71842333Y-81375619D01*
X71842333Y-81232761D01*
X71889952Y-81137523D01*
X71937571Y-81089904D01*
X72032809Y-81042285D01*
X72270904Y-81042285D01*
X72366142Y-81089904D01*
X72413761Y-81137523D01*
X72461380Y-81232761D01*
X72461380Y-81518476D01*
X72413761Y-81613714D01*
X72366142Y-81661333D01*
G04 #@! TO.C,C5*
X98933333Y-85955142D02*
X98885714Y-86002761D01*
X98742857Y-86050380D01*
X98647619Y-86050380D01*
X98504761Y-86002761D01*
X98409523Y-85907523D01*
X98361904Y-85812285D01*
X98314285Y-85621809D01*
X98314285Y-85478952D01*
X98361904Y-85288476D01*
X98409523Y-85193238D01*
X98504761Y-85098000D01*
X98647619Y-85050380D01*
X98742857Y-85050380D01*
X98885714Y-85098000D01*
X98933333Y-85145619D01*
X99838095Y-85050380D02*
X99361904Y-85050380D01*
X99314285Y-85526571D01*
X99361904Y-85478952D01*
X99457142Y-85431333D01*
X99695238Y-85431333D01*
X99790476Y-85478952D01*
X99838095Y-85526571D01*
X99885714Y-85621809D01*
X99885714Y-85859904D01*
X99838095Y-85955142D01*
X99790476Y-86002761D01*
X99695238Y-86050380D01*
X99457142Y-86050380D01*
X99361904Y-86002761D01*
X99314285Y-85955142D01*
G04 #@! TO.C,C6*
X115799141Y-79581666D02*
X115846760Y-79629285D01*
X115894379Y-79772142D01*
X115894379Y-79867380D01*
X115846760Y-80010238D01*
X115751522Y-80105476D01*
X115656284Y-80153095D01*
X115465808Y-80200714D01*
X115322951Y-80200714D01*
X115132475Y-80153095D01*
X115037237Y-80105476D01*
X114941999Y-80010238D01*
X114894379Y-79867380D01*
X114894379Y-79772142D01*
X114941999Y-79629285D01*
X114989618Y-79581666D01*
X114894379Y-78724523D02*
X114894379Y-78915000D01*
X114941999Y-79010238D01*
X114989618Y-79057857D01*
X115132475Y-79153095D01*
X115322951Y-79200714D01*
X115703903Y-79200714D01*
X115799141Y-79153095D01*
X115846760Y-79105476D01*
X115894379Y-79010238D01*
X115894379Y-78819761D01*
X115846760Y-78724523D01*
X115799141Y-78676904D01*
X115703903Y-78629285D01*
X115465808Y-78629285D01*
X115370570Y-78676904D01*
X115322951Y-78724523D01*
X115275332Y-78819761D01*
X115275332Y-79010238D01*
X115322951Y-79105476D01*
X115370570Y-79153095D01*
X115465808Y-79200714D01*
G04 #@! TO.C,C7*
X118678141Y-107394666D02*
X118725760Y-107442285D01*
X118773379Y-107585142D01*
X118773379Y-107680380D01*
X118725760Y-107823238D01*
X118630522Y-107918476D01*
X118535284Y-107966095D01*
X118344808Y-108013714D01*
X118201951Y-108013714D01*
X118011475Y-107966095D01*
X117916237Y-107918476D01*
X117820999Y-107823238D01*
X117773379Y-107680380D01*
X117773379Y-107585142D01*
X117820999Y-107442285D01*
X117868618Y-107394666D01*
X117773379Y-107061333D02*
X117773379Y-106394666D01*
X118773379Y-106823238D01*
G04 #@! TO.C,C8*
X118518143Y-99351665D02*
X118565762Y-99399284D01*
X118613381Y-99542141D01*
X118613381Y-99637379D01*
X118565762Y-99780237D01*
X118470524Y-99875475D01*
X118375286Y-99923094D01*
X118184810Y-99970713D01*
X118041953Y-99970713D01*
X117851477Y-99923094D01*
X117756239Y-99875475D01*
X117661001Y-99780237D01*
X117613381Y-99637379D01*
X117613381Y-99542141D01*
X117661001Y-99399284D01*
X117708620Y-99351665D01*
X118041953Y-98780237D02*
X117994334Y-98875475D01*
X117946715Y-98923094D01*
X117851477Y-98970713D01*
X117803858Y-98970713D01*
X117708620Y-98923094D01*
X117661001Y-98875475D01*
X117613381Y-98780237D01*
X117613381Y-98589760D01*
X117661001Y-98494522D01*
X117708620Y-98446903D01*
X117803858Y-98399284D01*
X117851477Y-98399284D01*
X117946715Y-98446903D01*
X117994334Y-98494522D01*
X118041953Y-98589760D01*
X118041953Y-98780237D01*
X118089572Y-98875475D01*
X118137191Y-98923094D01*
X118232429Y-98970713D01*
X118422905Y-98970713D01*
X118518143Y-98923094D01*
X118565762Y-98875475D01*
X118613381Y-98780237D01*
X118613381Y-98589760D01*
X118565762Y-98494522D01*
X118518143Y-98446903D01*
X118422905Y-98399284D01*
X118232429Y-98399284D01*
X118137191Y-98446903D01*
X118089572Y-98494522D01*
X118041953Y-98589760D01*
G04 #@! TO.C,C9*
X118616143Y-91312666D02*
X118663762Y-91360285D01*
X118711381Y-91503142D01*
X118711381Y-91598380D01*
X118663762Y-91741238D01*
X118568524Y-91836476D01*
X118473286Y-91884095D01*
X118282810Y-91931714D01*
X118139953Y-91931714D01*
X117949477Y-91884095D01*
X117854239Y-91836476D01*
X117759001Y-91741238D01*
X117711381Y-91598380D01*
X117711381Y-91503142D01*
X117759001Y-91360285D01*
X117806620Y-91312666D01*
X118711381Y-90836476D02*
X118711381Y-90646000D01*
X118663762Y-90550761D01*
X118616143Y-90503142D01*
X118473286Y-90407904D01*
X118282810Y-90360285D01*
X117901858Y-90360285D01*
X117806620Y-90407904D01*
X117759001Y-90455523D01*
X117711381Y-90550761D01*
X117711381Y-90741238D01*
X117759001Y-90836476D01*
X117806620Y-90884095D01*
X117901858Y-90931714D01*
X118139953Y-90931714D01*
X118235191Y-90884095D01*
X118282810Y-90836476D01*
X118330429Y-90741238D01*
X118330429Y-90550761D01*
X118282810Y-90455523D01*
X118235191Y-90407904D01*
X118139953Y-90360285D01*
G04 #@! TO.C,C10*
X80871142Y-85365142D02*
X80823523Y-85412761D01*
X80680666Y-85460380D01*
X80585428Y-85460380D01*
X80442571Y-85412761D01*
X80347333Y-85317523D01*
X80299714Y-85222285D01*
X80252095Y-85031809D01*
X80252095Y-84888952D01*
X80299714Y-84698476D01*
X80347333Y-84603238D01*
X80442571Y-84508000D01*
X80585428Y-84460380D01*
X80680666Y-84460380D01*
X80823523Y-84508000D01*
X80871142Y-84555619D01*
X81823523Y-85460380D02*
X81252095Y-85460380D01*
X81537809Y-85460380D02*
X81537809Y-84460380D01*
X81442571Y-84603238D01*
X81347333Y-84698476D01*
X81252095Y-84746095D01*
X82442571Y-84460380D02*
X82537809Y-84460380D01*
X82633047Y-84508000D01*
X82680666Y-84555619D01*
X82728285Y-84650857D01*
X82775904Y-84841333D01*
X82775904Y-85079428D01*
X82728285Y-85269904D01*
X82680666Y-85365142D01*
X82633047Y-85412761D01*
X82537809Y-85460380D01*
X82442571Y-85460380D01*
X82347333Y-85412761D01*
X82299714Y-85365142D01*
X82252095Y-85269904D01*
X82204476Y-85079428D01*
X82204476Y-84841333D01*
X82252095Y-84650857D01*
X82299714Y-84555619D01*
X82347333Y-84508000D01*
X82442571Y-84460380D01*
G04 #@! TO.C,C11*
X139071143Y-111473857D02*
X139118762Y-111521476D01*
X139166381Y-111664333D01*
X139166381Y-111759571D01*
X139118762Y-111902428D01*
X139023524Y-111997666D01*
X138928286Y-112045285D01*
X138737810Y-112092904D01*
X138594953Y-112092904D01*
X138404477Y-112045285D01*
X138309239Y-111997666D01*
X138214001Y-111902428D01*
X138166381Y-111759571D01*
X138166381Y-111664333D01*
X138214001Y-111521476D01*
X138261620Y-111473857D01*
X139166381Y-110521476D02*
X139166381Y-111092904D01*
X139166381Y-110807190D02*
X138166381Y-110807190D01*
X138309239Y-110902428D01*
X138404477Y-110997666D01*
X138452096Y-111092904D01*
X139166381Y-109569095D02*
X139166381Y-110140523D01*
X139166381Y-109854809D02*
X138166381Y-109854809D01*
X138309239Y-109950047D01*
X138404477Y-110045285D01*
X138452096Y-110140523D01*
G04 #@! TO.C,C12*
X143923142Y-111737143D02*
X143875523Y-111784762D01*
X143732666Y-111832381D01*
X143637428Y-111832381D01*
X143494571Y-111784762D01*
X143399333Y-111689524D01*
X143351714Y-111594286D01*
X143304095Y-111403810D01*
X143304095Y-111260953D01*
X143351714Y-111070477D01*
X143399333Y-110975239D01*
X143494571Y-110880001D01*
X143637428Y-110832381D01*
X143732666Y-110832381D01*
X143875523Y-110880001D01*
X143923142Y-110927620D01*
X144875523Y-111832381D02*
X144304095Y-111832381D01*
X144589809Y-111832381D02*
X144589809Y-110832381D01*
X144494571Y-110975239D01*
X144399333Y-111070477D01*
X144304095Y-111118096D01*
X145256476Y-110927620D02*
X145304095Y-110880001D01*
X145399333Y-110832381D01*
X145637428Y-110832381D01*
X145732666Y-110880001D01*
X145780285Y-110927620D01*
X145827904Y-111022858D01*
X145827904Y-111118096D01*
X145780285Y-111260953D01*
X145208857Y-111832381D01*
X145827904Y-111832381D01*
G04 #@! TO.C,C13*
X80784142Y-102293142D02*
X80736523Y-102340761D01*
X80593666Y-102388380D01*
X80498428Y-102388380D01*
X80355571Y-102340761D01*
X80260333Y-102245523D01*
X80212714Y-102150285D01*
X80165095Y-101959809D01*
X80165095Y-101816952D01*
X80212714Y-101626476D01*
X80260333Y-101531238D01*
X80355571Y-101436000D01*
X80498428Y-101388380D01*
X80593666Y-101388380D01*
X80736523Y-101436000D01*
X80784142Y-101483619D01*
X81736523Y-102388380D02*
X81165095Y-102388380D01*
X81450809Y-102388380D02*
X81450809Y-101388380D01*
X81355571Y-101531238D01*
X81260333Y-101626476D01*
X81165095Y-101674095D01*
X82069857Y-101388380D02*
X82688904Y-101388380D01*
X82355571Y-101769333D01*
X82498428Y-101769333D01*
X82593666Y-101816952D01*
X82641285Y-101864571D01*
X82688904Y-101959809D01*
X82688904Y-102197904D01*
X82641285Y-102293142D01*
X82593666Y-102340761D01*
X82498428Y-102388380D01*
X82212714Y-102388380D01*
X82117476Y-102340761D01*
X82069857Y-102293142D01*
G04 #@! TO.C,J6*
X147052380Y-89634333D02*
X147766666Y-89634333D01*
X147909523Y-89681952D01*
X148004761Y-89777190D01*
X148052380Y-89920047D01*
X148052380Y-90015285D01*
X147052380Y-88729571D02*
X147052380Y-88920047D01*
X147100000Y-89015285D01*
X147147619Y-89062904D01*
X147290476Y-89158142D01*
X147480952Y-89205761D01*
X147861904Y-89205761D01*
X147957142Y-89158142D01*
X148004761Y-89110523D01*
X148052380Y-89015285D01*
X148052380Y-88824809D01*
X148004761Y-88729571D01*
X147957142Y-88681952D01*
X147861904Y-88634333D01*
X147623809Y-88634333D01*
X147528571Y-88681952D01*
X147480952Y-88729571D01*
X147433333Y-88824809D01*
X147433333Y-89015285D01*
X147480952Y-89110523D01*
X147528571Y-89158142D01*
X147623809Y-89205761D01*
G04 #@! TD*
M02*
