G04 #@! TF.GenerationSoftware,KiCad,Pcbnew,(5.1.7)-1*
G04 #@! TF.CreationDate,2021-11-30T20:19:25-06:00*
G04 #@! TF.ProjectId,GuitarBoard,47756974-6172-4426-9f61-72642e6b6963,rev?*
G04 #@! TF.SameCoordinates,Original*
G04 #@! TF.FileFunction,Copper,L1,Top*
G04 #@! TF.FilePolarity,Positive*
%FSLAX46Y46*%
G04 Gerber Fmt 4.6, Leading zero omitted, Abs format (unit mm)*
G04 Created by KiCad (PCBNEW (5.1.7)-1) date 2021-11-30 20:19:25*
%MOMM*%
%LPD*%
G01*
G04 APERTURE LIST*
G04 #@! TA.AperFunction,ComponentPad*
%ADD10C,1.440000*%
G04 #@! TD*
G04 #@! TA.AperFunction,ComponentPad*
%ADD11R,2.200000X2.200000*%
G04 #@! TD*
G04 #@! TA.AperFunction,ComponentPad*
%ADD12O,2.200000X2.200000*%
G04 #@! TD*
G04 #@! TA.AperFunction,ComponentPad*
%ADD13R,1.600000X1.600000*%
G04 #@! TD*
G04 #@! TA.AperFunction,ComponentPad*
%ADD14O,1.600000X1.600000*%
G04 #@! TD*
G04 #@! TA.AperFunction,ComponentPad*
%ADD15R,1.700000X1.700000*%
G04 #@! TD*
G04 #@! TA.AperFunction,ComponentPad*
%ADD16O,1.700000X1.700000*%
G04 #@! TD*
G04 #@! TA.AperFunction,ComponentPad*
%ADD17O,1.050000X1.500000*%
G04 #@! TD*
G04 #@! TA.AperFunction,ComponentPad*
%ADD18R,1.050000X1.500000*%
G04 #@! TD*
G04 #@! TA.AperFunction,ComponentPad*
%ADD19C,1.600000*%
G04 #@! TD*
G04 #@! TA.AperFunction,ComponentPad*
%ADD20O,1.500000X1.050000*%
G04 #@! TD*
G04 #@! TA.AperFunction,ComponentPad*
%ADD21R,1.500000X1.050000*%
G04 #@! TD*
G04 #@! TA.AperFunction,ComponentPad*
%ADD22C,3.000000*%
G04 #@! TD*
G04 #@! TA.AperFunction,ComponentPad*
%ADD23R,3.000000X3.000000*%
G04 #@! TD*
G04 #@! TA.AperFunction,ComponentPad*
%ADD24R,1.130000X1.130000*%
G04 #@! TD*
G04 #@! TA.AperFunction,ComponentPad*
%ADD25C,1.130000*%
G04 #@! TD*
G04 #@! TA.AperFunction,ViaPad*
%ADD26C,0.800000*%
G04 #@! TD*
G04 #@! TA.AperFunction,Conductor*
%ADD27C,0.500000*%
G04 #@! TD*
G04 #@! TA.AperFunction,Conductor*
%ADD28C,0.254000*%
G04 #@! TD*
G04 #@! TA.AperFunction,Conductor*
%ADD29C,0.100000*%
G04 #@! TD*
G04 APERTURE END LIST*
D10*
G04 #@! TO.P,RV2,1*
G04 #@! TO.N,Net-(C3-Pad2)*
X67437000Y-85090000D03*
G04 #@! TO.P,RV2,2*
G04 #@! TO.N,FXOutA*
X62357000Y-87630000D03*
G04 #@! TO.P,RV2,3*
G04 #@! TO.N,FXGND*
X67437000Y-90170000D03*
G04 #@! TD*
D11*
G04 #@! TO.P,D7,1*
G04 #@! TO.N,9V*
X128016000Y-85344000D03*
D12*
G04 #@! TO.P,D7,2*
G04 #@! TO.N,Net-(BT1-Pad1)*
X138176000Y-85344000D03*
G04 #@! TD*
D13*
G04 #@! TO.P,D3,1*
G04 #@! TO.N,FXGND*
X77978000Y-84582000D03*
D14*
G04 #@! TO.P,D3,2*
G04 #@! TO.N,Net-(C3-Pad2)*
X77978000Y-76962000D03*
G04 #@! TD*
G04 #@! TO.P,D4,2*
G04 #@! TO.N,FXGND*
X75184000Y-84582000D03*
D13*
G04 #@! TO.P,D4,1*
G04 #@! TO.N,Net-(C3-Pad2)*
X75184000Y-76962000D03*
G04 #@! TD*
D15*
G04 #@! TO.P,J1,1*
G04 #@! TO.N,GND*
X104500000Y-116000000D03*
D16*
G04 #@! TO.P,J1,2*
G04 #@! TO.N,FXGND*
X107040000Y-116000000D03*
G04 #@! TO.P,J1,3*
G04 #@! TO.N,Net-(C1-Pad1)*
X109580000Y-116000000D03*
G04 #@! TD*
D15*
G04 #@! TO.P,J2,1*
G04 #@! TO.N,Net-(C4-Pad2)*
X61976000Y-116000000D03*
D16*
G04 #@! TO.P,J2,2*
G04 #@! TO.N,GND*
X64516000Y-116000000D03*
G04 #@! TD*
D17*
G04 #@! TO.P,Q1,2*
G04 #@! TO.N,Net-(C2-Pad2)*
X74041000Y-102616000D03*
G04 #@! TO.P,Q1,3*
G04 #@! TO.N,Net-(C3-Pad1)*
X75311000Y-102616000D03*
D18*
G04 #@! TO.P,Q1,1*
G04 #@! TO.N,FXGND*
X72771000Y-102616000D03*
G04 #@! TD*
D19*
G04 #@! TO.P,R2,1*
G04 #@! TO.N,Net-(C3-Pad1)*
X75438000Y-97155000D03*
D14*
G04 #@! TO.P,R2,2*
G04 #@! TO.N,Net-(C2-Pad2)*
X75438000Y-86995000D03*
G04 #@! TD*
G04 #@! TO.P,R3,2*
G04 #@! TO.N,9V*
X72009000Y-86995000D03*
D19*
G04 #@! TO.P,R3,1*
G04 #@! TO.N,Net-(C3-Pad1)*
X72009000Y-97155000D03*
G04 #@! TD*
D16*
G04 #@! TO.P,RV3,3*
G04 #@! TO.N,Net-(J3-Pad1)*
X140970000Y-77222000D03*
G04 #@! TO.P,RV3,2*
G04 #@! TO.N,Pickups*
X143510000Y-77222000D03*
D15*
G04 #@! TO.P,RV3,1*
G04 #@! TO.N,GND*
X146050000Y-77222000D03*
G04 #@! TD*
G04 #@! TO.P,RV4,1*
G04 #@! TO.N,Net-(J3-Pad1)*
X104500000Y-77222000D03*
D16*
G04 #@! TO.P,RV4,2*
G04 #@! TO.N,Net-(C5-Pad1)*
X107040000Y-77222000D03*
G04 #@! TO.P,RV4,3*
G04 #@! TO.N,N/C*
X109580000Y-77222000D03*
G04 #@! TD*
D10*
G04 #@! TO.P,RV1,3*
G04 #@! TO.N,FXInA*
X67437000Y-100711000D03*
G04 #@! TO.P,RV1,2*
X62357000Y-98171000D03*
G04 #@! TO.P,RV1,1*
G04 #@! TO.N,Net-(C2-Pad1)*
X67437000Y-95631000D03*
G04 #@! TD*
D16*
G04 #@! TO.P,SW5,2*
G04 #@! TO.N,GND*
X63627000Y-77597000D03*
D15*
G04 #@! TO.P,SW5,1*
G04 #@! TO.N,FXGND*
X66167000Y-77597000D03*
G04 #@! TD*
D16*
G04 #@! TO.P,SW1,3*
G04 #@! TO.N,FXInA*
X141605000Y-81534000D03*
G04 #@! TO.P,SW1,2*
G04 #@! TO.N,Pickups*
X141605000Y-84074000D03*
D15*
G04 #@! TO.P,SW1,1*
G04 #@! TO.N,Net-(SW1-Pad1)*
X141605000Y-86614000D03*
G04 #@! TD*
G04 #@! TO.P,SW2,1*
G04 #@! TO.N,Net-(R1-Pad2)*
X145415000Y-86614000D03*
D16*
G04 #@! TO.P,SW2,2*
G04 #@! TO.N,FXOutA*
X145415000Y-84074000D03*
G04 #@! TO.P,SW2,3*
G04 #@! TO.N,Net-(SW1-Pad1)*
X145415000Y-81534000D03*
G04 #@! TD*
G04 #@! TO.P,SW3,3*
G04 #@! TO.N,FXInB*
X105135000Y-81534000D03*
G04 #@! TO.P,SW3,2*
G04 #@! TO.N,Net-(SW1-Pad1)*
X105135000Y-84074000D03*
D15*
G04 #@! TO.P,SW3,1*
G04 #@! TO.N,Amp*
X105135000Y-86614000D03*
G04 #@! TD*
G04 #@! TO.P,SW4,1*
G04 #@! TO.N,Net-(R5-Pad2)*
X108945000Y-86614000D03*
D16*
G04 #@! TO.P,SW4,2*
G04 #@! TO.N,FXOutB*
X108945000Y-84074000D03*
G04 #@! TO.P,SW4,3*
G04 #@! TO.N,Amp*
X108945000Y-81534000D03*
G04 #@! TD*
D19*
G04 #@! TO.P,C1,2*
G04 #@! TO.N,Pickups*
X122663000Y-113364000D03*
G04 #@! TO.P,C1,1*
G04 #@! TO.N,Net-(C1-Pad1)*
X122663000Y-118364000D03*
G04 #@! TD*
G04 #@! TO.P,C4,1*
G04 #@! TO.N,Amp*
X71482000Y-117856000D03*
G04 #@! TO.P,C4,2*
G04 #@! TO.N,Net-(C4-Pad2)*
X71482000Y-112856000D03*
G04 #@! TD*
D14*
G04 #@! TO.P,D1,2*
G04 #@! TO.N,Net-(D1-Pad2)*
X143510000Y-101092000D03*
D13*
G04 #@! TO.P,D1,1*
G04 #@! TO.N,9V*
X143510000Y-93472000D03*
G04 #@! TD*
G04 #@! TO.P,D5,1*
G04 #@! TO.N,9V*
X107061000Y-93472000D03*
D14*
G04 #@! TO.P,D5,2*
G04 #@! TO.N,Net-(D5-Pad2)*
X107061000Y-101092000D03*
G04 #@! TD*
D18*
G04 #@! TO.P,Q2,1*
G04 #@! TO.N,N/C*
X142240000Y-107569000D03*
D17*
G04 #@! TO.P,Q2,3*
G04 #@! TO.N,Net-(D1-Pad2)*
X144780000Y-107569000D03*
G04 #@! TO.P,Q2,2*
G04 #@! TO.N,FXGND*
X143510000Y-107569000D03*
G04 #@! TD*
D20*
G04 #@! TO.P,Q3,2*
G04 #@! TO.N,Net-(D1-Pad2)*
X136017000Y-94996000D03*
G04 #@! TO.P,Q3,3*
G04 #@! TO.N,FXGND*
X136017000Y-96266000D03*
D21*
G04 #@! TO.P,Q3,1*
G04 #@! TO.N,Net-(D2-Pad1)*
X136017000Y-93726000D03*
G04 #@! TD*
D18*
G04 #@! TO.P,Q4,1*
G04 #@! TO.N,N/C*
X105664000Y-107696000D03*
D17*
G04 #@! TO.P,Q4,3*
G04 #@! TO.N,Net-(D5-Pad2)*
X108204000Y-107696000D03*
G04 #@! TO.P,Q4,2*
G04 #@! TO.N,FXGND*
X106934000Y-107696000D03*
G04 #@! TD*
D20*
G04 #@! TO.P,Q5,2*
G04 #@! TO.N,Net-(D5-Pad2)*
X99441000Y-94996000D03*
G04 #@! TO.P,Q5,3*
G04 #@! TO.N,FXGND*
X99441000Y-96266000D03*
D21*
G04 #@! TO.P,Q5,1*
G04 #@! TO.N,Net-(D6-Pad1)*
X99441000Y-93726000D03*
G04 #@! TD*
D19*
G04 #@! TO.P,R1,1*
G04 #@! TO.N,Net-(D1-Pad2)*
X146558000Y-103632000D03*
D14*
G04 #@! TO.P,R1,2*
G04 #@! TO.N,Net-(R1-Pad2)*
X146558000Y-93472000D03*
G04 #@! TD*
D19*
G04 #@! TO.P,R4,1*
G04 #@! TO.N,Net-(D2-Pad2)*
X140462000Y-93472000D03*
D14*
G04 #@! TO.P,R4,2*
G04 #@! TO.N,9V*
X140462000Y-103632000D03*
G04 #@! TD*
G04 #@! TO.P,R5,2*
G04 #@! TO.N,Net-(R5-Pad2)*
X109982000Y-93472000D03*
D19*
G04 #@! TO.P,R5,1*
G04 #@! TO.N,Net-(D5-Pad2)*
X109982000Y-103632000D03*
G04 #@! TD*
D14*
G04 #@! TO.P,R6,2*
G04 #@! TO.N,9V*
X104140000Y-103632000D03*
D19*
G04 #@! TO.P,R6,1*
G04 #@! TO.N,Net-(D6-Pad2)*
X104140000Y-93472000D03*
G04 #@! TD*
D15*
G04 #@! TO.P,D2,1*
G04 #@! TO.N,Net-(D2-Pad1)*
X142240000Y-90297000D03*
D16*
G04 #@! TO.P,D2,2*
G04 #@! TO.N,Net-(D2-Pad2)*
X144780000Y-90297000D03*
G04 #@! TD*
G04 #@! TO.P,D6,2*
G04 #@! TO.N,Net-(D6-Pad2)*
X108331000Y-90424000D03*
D15*
G04 #@! TO.P,D6,1*
G04 #@! TO.N,Net-(D6-Pad1)*
X105791000Y-90424000D03*
G04 #@! TD*
D22*
G04 #@! TO.P,BT1,2*
G04 #@! TO.N,GND*
X130937000Y-79502000D03*
D23*
G04 #@! TO.P,BT1,1*
G04 #@! TO.N,Net-(BT1-Pad1)*
X136017000Y-79502000D03*
G04 #@! TD*
D24*
G04 #@! TO.P,IC1,1*
G04 #@! TO.N,/Bitcrusher/pin1*
X124681000Y-93726000D03*
D25*
G04 #@! TO.P,IC1,2*
G04 #@! TO.N,/Bitcrusher/pin13*
X124681000Y-96266000D03*
G04 #@! TO.P,IC1,3*
G04 #@! TO.N,/Bitcrusher/pin3*
X124681000Y-98806000D03*
G04 #@! TO.P,IC1,4*
G04 #@! TO.N,/Bitcrusher/pin4*
X124681000Y-101346000D03*
G04 #@! TO.P,IC1,5*
G04 #@! TO.N,/Bitcrusher/pin5*
X124681000Y-103886000D03*
G04 #@! TO.P,IC1,6*
G04 #@! TO.N,/Bitcrusher/pin6*
X124681000Y-106426000D03*
G04 #@! TO.P,IC1,7*
G04 #@! TO.N,FXGND*
X124681000Y-108966000D03*
G04 #@! TO.P,IC1,8*
G04 #@! TO.N,/Bitcrusher/pin11*
X132621000Y-108966000D03*
G04 #@! TO.P,IC1,9*
G04 #@! TO.N,/Bitcrusher/pin9*
X132621000Y-106426000D03*
G04 #@! TO.P,IC1,10*
G04 #@! TO.N,/Bitcrusher/pin10*
X132621000Y-103886000D03*
G04 #@! TO.P,IC1,11*
G04 #@! TO.N,/Bitcrusher/pin11*
X132621000Y-101346000D03*
G04 #@! TO.P,IC1,12*
G04 #@! TO.N,/Bitcrusher/pin12*
X132621000Y-98806000D03*
G04 #@! TO.P,IC1,13*
G04 #@! TO.N,/Bitcrusher/pin13*
X132621000Y-96266000D03*
G04 #@! TO.P,IC1,14*
G04 #@! TO.N,9V*
X132621000Y-93726000D03*
G04 #@! TD*
D22*
G04 #@! TO.P,J3,2*
G04 #@! TO.N,GND*
X82931000Y-79502000D03*
D23*
G04 #@! TO.P,J3,1*
G04 #@! TO.N,Net-(J3-Pad1)*
X88011000Y-79502000D03*
G04 #@! TD*
G04 #@! TO.P,J4,1*
G04 #@! TO.N,Net-(J3-Pad1)*
X125222000Y-79502000D03*
D22*
G04 #@! TO.P,J4,2*
G04 #@! TO.N,GND*
X120142000Y-79502000D03*
G04 #@! TD*
D23*
G04 #@! TO.P,J5,1*
G04 #@! TO.N,GND*
X99441000Y-79502000D03*
D22*
G04 #@! TO.P,J5,2*
G04 #@! TO.N,N/C*
X94361000Y-79502000D03*
G04 #@! TD*
D20*
G04 #@! TO.P,Q6,2*
G04 #@! TO.N,Net-(C11-Pad1)*
X136652000Y-103886000D03*
G04 #@! TO.P,Q6,3*
G04 #@! TO.N,/Bitcrusher/pin9*
X136652000Y-102616000D03*
D21*
G04 #@! TO.P,Q6,1*
G04 #@! TO.N,Net-(C12-Pad2)*
X136652000Y-105156000D03*
G04 #@! TD*
D19*
G04 #@! TO.P,R7,1*
G04 #@! TO.N,FXInB*
X115189000Y-85344000D03*
D14*
G04 #@! TO.P,R7,2*
G04 #@! TO.N,FXGND*
X125349000Y-85344000D03*
G04 #@! TD*
G04 #@! TO.P,R8,2*
G04 #@! TO.N,/Bitcrusher/pin5*
X121666000Y-100584000D03*
D19*
G04 #@! TO.P,R8,1*
G04 #@! TO.N,/Bitcrusher/pin6*
X121666000Y-110744000D03*
G04 #@! TD*
G04 #@! TO.P,R9,1*
G04 #@! TO.N,/Bitcrusher/pin4*
X121666000Y-88011000D03*
D14*
G04 #@! TO.P,R9,2*
G04 #@! TO.N,/Bitcrusher/pin3*
X121666000Y-98171000D03*
G04 #@! TD*
G04 #@! TO.P,R10,2*
G04 #@! TO.N,/Bitcrusher/pin4*
X114808000Y-88265000D03*
D19*
G04 #@! TO.P,R10,1*
G04 #@! TO.N,/Bitcrusher/pin1*
X114808000Y-98425000D03*
G04 #@! TD*
G04 #@! TO.P,R11,1*
G04 #@! TO.N,/Bitcrusher/pin12*
X134747000Y-88900000D03*
D14*
G04 #@! TO.P,R11,2*
G04 #@! TO.N,/Bitcrusher/pin1*
X124587000Y-88900000D03*
G04 #@! TD*
G04 #@! TO.P,R12,2*
G04 #@! TO.N,Net-(C11-Pad1)*
X151892000Y-114808000D03*
D19*
G04 #@! TO.P,R12,1*
G04 #@! TO.N,/Bitcrusher/pin12*
X141732000Y-114808000D03*
G04 #@! TD*
G04 #@! TO.P,R13,1*
G04 #@! TO.N,Net-(C11-Pad1)*
X150241000Y-111633000D03*
D14*
G04 #@! TO.P,R13,2*
G04 #@! TO.N,FXGND*
X150241000Y-101473000D03*
G04 #@! TD*
G04 #@! TO.P,R14,2*
G04 #@! TO.N,/Bitcrusher/pin9*
X151892000Y-117983000D03*
D19*
G04 #@! TO.P,R14,1*
G04 #@! TO.N,/Bitcrusher/pin10*
X141732000Y-117983000D03*
G04 #@! TD*
G04 #@! TO.P,R15,1*
G04 #@! TO.N,Net-(C12-Pad2)*
X135382000Y-108077000D03*
D14*
G04 #@! TO.P,R15,2*
G04 #@! TO.N,/Bitcrusher/pin11*
X135382000Y-118237000D03*
G04 #@! TD*
D10*
G04 #@! TO.P,RV5,3*
G04 #@! TO.N,FXGND*
X67437000Y-111252000D03*
G04 #@! TO.P,RV5,2*
G04 #@! TO.N,FXOutB*
X62357000Y-108712000D03*
G04 #@! TO.P,RV5,1*
G04 #@! TO.N,Net-(C13-Pad2)*
X67437000Y-106172000D03*
G04 #@! TD*
D19*
G04 #@! TO.P,C2,1*
G04 #@! TO.N,Net-(C2-Pad1)*
X71882000Y-107442000D03*
G04 #@! TO.P,C2,2*
G04 #@! TO.N,Net-(C2-Pad2)*
X76882000Y-107442000D03*
G04 #@! TD*
G04 #@! TO.P,C3,2*
G04 #@! TO.N,Net-(C3-Pad2)*
X72009000Y-79328000D03*
G04 #@! TO.P,C3,1*
G04 #@! TO.N,Net-(C3-Pad1)*
X72009000Y-84328000D03*
G04 #@! TD*
G04 #@! TO.P,C5,1*
G04 #@! TO.N,Net-(C5-Pad1)*
X101600000Y-85598000D03*
G04 #@! TO.P,C5,2*
G04 #@! TO.N,GND*
X96600000Y-85598000D03*
G04 #@! TD*
G04 #@! TO.P,C6,2*
G04 #@! TO.N,FXInB*
X115570000Y-76915000D03*
G04 #@! TO.P,C6,1*
G04 #@! TO.N,/Bitcrusher/pin5*
X115570000Y-81915000D03*
G04 #@! TD*
G04 #@! TO.P,C7,1*
G04 #@! TO.N,/Bitcrusher/pin6*
X118237000Y-109728000D03*
G04 #@! TO.P,C7,2*
G04 #@! TO.N,/Bitcrusher/pin5*
X118237000Y-104728000D03*
G04 #@! TD*
G04 #@! TO.P,C8,1*
G04 #@! TO.N,/Bitcrusher/pin3*
X118237000Y-96774000D03*
G04 #@! TO.P,C8,2*
G04 #@! TO.N,/Bitcrusher/pin6*
X118237000Y-101774000D03*
G04 #@! TD*
G04 #@! TO.P,C9,2*
G04 #@! TO.N,/Bitcrusher/pin3*
X118237000Y-93646000D03*
G04 #@! TO.P,C9,1*
G04 #@! TO.N,/Bitcrusher/pin4*
X118237000Y-88646000D03*
G04 #@! TD*
G04 #@! TO.P,C10,2*
G04 #@! TO.N,FXGND*
X82764000Y-89408000D03*
D13*
G04 #@! TO.P,C10,1*
G04 #@! TO.N,9V*
X80264000Y-89408000D03*
G04 #@! TD*
D19*
G04 #@! TO.P,C11,1*
G04 #@! TO.N,Net-(C11-Pad1)*
X138684000Y-108331000D03*
G04 #@! TO.P,C11,2*
G04 #@! TO.N,/Bitcrusher/pin12*
X138684000Y-113331000D03*
G04 #@! TD*
G04 #@! TO.P,C12,2*
G04 #@! TO.N,Net-(C12-Pad2)*
X142066000Y-111379000D03*
G04 #@! TO.P,C12,1*
G04 #@! TO.N,FXGND*
X147066000Y-111379000D03*
G04 #@! TD*
D13*
G04 #@! TO.P,C13,1*
G04 #@! TO.N,/Bitcrusher/pin10*
X82677000Y-97536000D03*
D19*
G04 #@! TO.P,C13,2*
G04 #@! TO.N,Net-(C13-Pad2)*
X80177000Y-97536000D03*
G04 #@! TD*
D22*
G04 #@! TO.P,J6,2*
G04 #@! TO.N,GND*
X152400000Y-91821000D03*
G04 #@! TO.P,J6,3*
G04 #@! TO.N,Amp*
X152400000Y-86741000D03*
D23*
G04 #@! TO.P,J6,1*
G04 #@! TO.N,GND*
X152400000Y-96901000D03*
D22*
G04 #@! TO.P,J6,4*
G04 #@! TO.N,9V*
X152400000Y-81661000D03*
G04 #@! TD*
D26*
G04 #@! TO.N,GND*
X77978000Y-79629000D03*
X102235000Y-109982000D03*
X97790000Y-110109000D03*
X90297000Y-106553000D03*
X81661000Y-84201000D03*
X119126000Y-85471000D03*
X120142000Y-89535000D03*
X114046000Y-92075000D03*
X94234000Y-99822000D03*
G04 #@! TO.N,Net-(C2-Pad2)*
X75438000Y-91440000D03*
G04 #@! TO.N,FXGND*
X133731000Y-85217000D03*
X127508000Y-92837000D03*
X103378000Y-96520000D03*
X103124000Y-101600000D03*
G04 #@! TO.N,9V*
X99568000Y-91567000D03*
X112141000Y-85979000D03*
X135255000Y-98171000D03*
G04 #@! TO.N,Pickups*
X131318000Y-97790000D03*
G04 #@! TO.N,Amp*
X100076000Y-98679000D03*
X112268000Y-84201000D03*
G04 #@! TO.N,FXInA*
X139319000Y-89281000D03*
G04 #@! TO.N,FXOutA*
X100330000Y-82296000D03*
G04 #@! TO.N,FXOutB*
X97790000Y-93091000D03*
G04 #@! TO.N,/Bitcrusher/pin4*
X126365000Y-94869000D03*
G04 #@! TO.N,/Bitcrusher/pin12*
X134112000Y-113030000D03*
G04 #@! TO.N,/Bitcrusher/pin10*
X136525000Y-111125000D03*
X96774000Y-103251000D03*
G04 #@! TO.N,Net-(D1-Pad2)*
X141351000Y-96266000D03*
G04 #@! TO.N,/Bitcrusher/pin9*
X143891000Y-111125000D03*
G04 #@! TO.N,Net-(J3-Pad1)*
X117856000Y-76708000D03*
G04 #@! TO.N,Net-(SW1-Pad1)*
X111379000Y-82042000D03*
G04 #@! TD*
D27*
G04 #@! TO.N,Net-(BT1-Pad1)*
X138176000Y-81661000D02*
X136017000Y-79502000D01*
X138176000Y-85344000D02*
X138176000Y-81661000D01*
G04 #@! TO.N,GND*
X78105000Y-79502000D02*
X77978000Y-79629000D01*
X82931000Y-79502000D02*
X78105000Y-79502000D01*
G04 #@! TO.N,Net-(C1-Pad1)*
X111944000Y-118364000D02*
X109580000Y-116000000D01*
X122663000Y-118364000D02*
X111944000Y-118364000D01*
G04 #@! TO.N,Net-(C2-Pad2)*
X74041000Y-104601000D02*
X74041000Y-102616000D01*
X76882000Y-107442000D02*
X74041000Y-104601000D01*
X76882000Y-92884000D02*
X75438000Y-91440000D01*
X76882000Y-107442000D02*
X76882000Y-92884000D01*
G04 #@! TO.N,Net-(C3-Pad2)*
X67437000Y-83900000D02*
X72009000Y-79328000D01*
X67437000Y-85090000D02*
X67437000Y-83900000D01*
X72818000Y-79328000D02*
X75184000Y-76962000D01*
X72009000Y-79328000D02*
X72818000Y-79328000D01*
X75184000Y-76962000D02*
X77978000Y-76962000D01*
G04 #@! TO.N,Net-(C3-Pad1)*
X75438000Y-102489000D02*
X75311000Y-102616000D01*
X75438000Y-97155000D02*
X75438000Y-102489000D01*
X72009000Y-97155000D02*
X75438000Y-97155000D01*
X72009000Y-97155000D02*
X72009000Y-93218000D01*
X72009000Y-93218000D02*
X69850000Y-91059000D01*
X69850000Y-86487000D02*
X72009000Y-84328000D01*
X69850000Y-91059000D02*
X69850000Y-86487000D01*
G04 #@! TO.N,FXGND*
X107040000Y-107802000D02*
X106934000Y-107696000D01*
X107040000Y-116000000D02*
X107040000Y-107802000D01*
X125349000Y-84212630D02*
X126884630Y-82677000D01*
X125349000Y-85344000D02*
X125349000Y-84212630D01*
X131191000Y-82677000D02*
X133731000Y-85217000D01*
X126884630Y-82677000D02*
X131191000Y-82677000D01*
X134816999Y-95399871D02*
X134816999Y-91751001D01*
X135388138Y-95971010D02*
X134816999Y-95399871D01*
X135976010Y-95971010D02*
X135388138Y-95971010D01*
X136017000Y-96012000D02*
X135976010Y-95971010D01*
X136017000Y-96266000D02*
X136017000Y-96012000D01*
X134816999Y-91751001D02*
X136906000Y-89662000D01*
X136906000Y-89662000D02*
X136906000Y-87376000D01*
X134747000Y-85217000D02*
X133731000Y-85217000D01*
X136906000Y-87376000D02*
X134747000Y-85217000D01*
X127065010Y-92394010D02*
X127508000Y-92837000D01*
X127065010Y-87848047D02*
X127065010Y-92394010D01*
X125349000Y-86132037D02*
X127065010Y-87848047D01*
X125349000Y-85344000D02*
X125349000Y-86132037D01*
X103378000Y-101346000D02*
X103124000Y-101600000D01*
X103378000Y-96520000D02*
X103378000Y-101346000D01*
G04 #@! TO.N,9V*
X128016000Y-89121000D02*
X132621000Y-93726000D01*
X128016000Y-85344000D02*
X128016000Y-89121000D01*
X74422000Y-89408000D02*
X72009000Y-86995000D01*
X80264000Y-89408000D02*
X74422000Y-89408000D01*
X104140000Y-103632000D02*
X104140000Y-98933000D01*
X107061000Y-96012000D02*
X107061000Y-93472000D01*
X104140000Y-98933000D02*
X107061000Y-96012000D01*
X140462000Y-103632000D02*
X140462000Y-98933000D01*
X143510000Y-95885000D02*
X143510000Y-93472000D01*
X140462000Y-98933000D02*
X143510000Y-95885000D01*
X143510000Y-93472000D02*
X143510000Y-93599000D01*
X143510000Y-93599000D02*
X146431000Y-96520000D01*
X146431000Y-96520000D02*
X147574000Y-96520000D01*
X147574000Y-96520000D02*
X149225000Y-94869000D01*
X149225000Y-84836000D02*
X152400000Y-81661000D01*
X149225000Y-94869000D02*
X149225000Y-84836000D01*
X82423000Y-91567000D02*
X99568000Y-91567000D01*
X80264000Y-89408000D02*
X82423000Y-91567000D01*
X107061000Y-93472000D02*
X107188000Y-93472000D01*
X107188000Y-93472000D02*
X109474000Y-95758000D01*
X109474000Y-95758000D02*
X110363000Y-95758000D01*
X110363000Y-95758000D02*
X111379000Y-94742000D01*
X111379000Y-86741000D02*
X112141000Y-85979000D01*
X111379000Y-94742000D02*
X111379000Y-86741000D01*
X135255000Y-98425000D02*
X135255000Y-98171000D01*
X140462000Y-103632000D02*
X135255000Y-98425000D01*
G04 #@! TO.N,Pickups*
X143510000Y-82169000D02*
X143510000Y-77222000D01*
X141605000Y-84074000D02*
X143510000Y-82169000D01*
X122663000Y-113364000D02*
X124126000Y-113364000D01*
X124126000Y-113364000D02*
X127635000Y-109855000D01*
X127635000Y-101473000D02*
X131318000Y-97790000D01*
X127635000Y-109855000D02*
X127635000Y-101473000D01*
G04 #@! TO.N,Amp*
X105135000Y-86614000D02*
X106934000Y-84815000D01*
X106934000Y-83545000D02*
X108945000Y-81534000D01*
X106934000Y-84815000D02*
X106934000Y-83545000D01*
X71482000Y-117856000D02*
X93599000Y-117856000D01*
X100076000Y-111379000D02*
X100076000Y-98679000D01*
X93599000Y-117856000D02*
X100076000Y-111379000D01*
X109601000Y-81534000D02*
X112268000Y-84201000D01*
X108945000Y-81534000D02*
X109601000Y-81534000D01*
G04 #@! TO.N,FXInA*
X64897000Y-100711000D02*
X62357000Y-98171000D01*
X67437000Y-100711000D02*
X64897000Y-100711000D01*
X139319000Y-89281000D02*
X139319000Y-88011000D01*
X139319000Y-88011000D02*
X140208000Y-87122000D01*
X140208000Y-82931000D02*
X141605000Y-81534000D01*
X140208000Y-87122000D02*
X140208000Y-82931000D01*
G04 #@! TO.N,FXOutA*
X66628602Y-87630000D02*
X69469000Y-84789602D01*
X62357000Y-87630000D02*
X66628602Y-87630000D01*
X69469000Y-84789602D02*
X72089602Y-82169000D01*
X100203000Y-82169000D02*
X100330000Y-82296000D01*
X72089602Y-82169000D02*
X100203000Y-82169000D01*
G04 #@! TO.N,FXOutB*
X62357000Y-108712000D02*
X68199000Y-108712000D01*
X68199000Y-108712000D02*
X70739000Y-111252000D01*
X70739000Y-111252000D02*
X91821000Y-111252000D01*
X97790000Y-105283000D02*
X97790000Y-93091000D01*
X91821000Y-111252000D02*
X97790000Y-105283000D01*
G04 #@! TO.N,FXInB*
X115189000Y-85344000D02*
X112649000Y-82804000D01*
X112649000Y-79836000D02*
X115570000Y-76915000D01*
X112649000Y-82804000D02*
X112649000Y-79836000D01*
X113962999Y-78522001D02*
X108802999Y-78522001D01*
X115570000Y-76915000D02*
X113962999Y-78522001D01*
X105791000Y-81534000D02*
X105135000Y-81534000D01*
X108802999Y-78522001D02*
X105791000Y-81534000D01*
G04 #@! TO.N,Net-(C2-Pad1)*
X71882000Y-107442000D02*
X71882000Y-105791000D01*
X71882000Y-105791000D02*
X69977000Y-103886000D01*
X69977000Y-98171000D02*
X67437000Y-95631000D01*
X69977000Y-103886000D02*
X69977000Y-98171000D01*
G04 #@! TO.N,Net-(C4-Pad2)*
X61976000Y-116000000D02*
X61976000Y-115062000D01*
X64182000Y-112856000D02*
X71482000Y-112856000D01*
X61976000Y-115062000D02*
X64182000Y-112856000D01*
G04 #@! TO.N,Net-(C5-Pad1)*
X101600000Y-85598000D02*
X101600000Y-82169000D01*
X101600000Y-82169000D02*
X104521000Y-79248000D01*
X104521000Y-79248000D02*
X106426000Y-79248000D01*
X107040000Y-78634000D02*
X107040000Y-77222000D01*
X106426000Y-79248000D02*
X107040000Y-78634000D01*
G04 #@! TO.N,Net-(C11-Pad1)*
X151892000Y-113284000D02*
X150241000Y-111633000D01*
X151892000Y-114808000D02*
X151892000Y-113284000D01*
X150241000Y-111633000D02*
X148209000Y-109601000D01*
X139954000Y-109601000D02*
X138684000Y-108331000D01*
X148209000Y-109601000D02*
X139954000Y-109601000D01*
X137467002Y-103886000D02*
X136652000Y-103886000D01*
X138684000Y-105102998D02*
X137467002Y-103886000D01*
X138684000Y-108331000D02*
X138684000Y-105102998D01*
G04 #@! TO.N,Net-(D5-Pad2)*
X108204000Y-105410000D02*
X109982000Y-103632000D01*
X108204000Y-107696000D02*
X108204000Y-105410000D01*
X101854000Y-96159000D02*
X100691000Y-94996000D01*
X101854000Y-104775000D02*
X101854000Y-96159000D01*
X102743000Y-105664000D02*
X101854000Y-104775000D01*
X105664000Y-105664000D02*
X102743000Y-105664000D01*
X100691000Y-94996000D02*
X99441000Y-94996000D01*
X107696000Y-103632000D02*
X105664000Y-105664000D01*
X109982000Y-103632000D02*
X107696000Y-103632000D01*
X107442000Y-101092000D02*
X109982000Y-103632000D01*
X107061000Y-101092000D02*
X107442000Y-101092000D01*
G04 #@! TO.N,Net-(D6-Pad1)*
X102743000Y-90424000D02*
X99441000Y-93726000D01*
X105791000Y-90424000D02*
X102743000Y-90424000D01*
G04 #@! TO.N,Net-(D6-Pad2)*
X106533001Y-92221999D02*
X108331000Y-90424000D01*
X105390001Y-92221999D02*
X106533001Y-92221999D01*
X104140000Y-93472000D02*
X105390001Y-92221999D01*
G04 #@! TO.N,/Bitcrusher/pin5*
X121666000Y-100871000D02*
X124681000Y-103886000D01*
X121666000Y-100584000D02*
X121666000Y-100871000D01*
X121666000Y-101299000D02*
X121666000Y-100584000D01*
X118237000Y-104728000D02*
X121666000Y-101299000D01*
X120866001Y-99784001D02*
X113373001Y-99784001D01*
X121666000Y-100584000D02*
X120866001Y-99784001D01*
X113373001Y-99784001D02*
X112649000Y-99060000D01*
X112649000Y-99060000D02*
X112649000Y-87503000D01*
X112649000Y-87503000D02*
X113538000Y-86614000D01*
X113538000Y-86614000D02*
X116459000Y-86614000D01*
X116459000Y-86614000D02*
X117729000Y-85344000D01*
X117729000Y-84074000D02*
X115570000Y-81915000D01*
X117729000Y-85344000D02*
X117729000Y-84074000D01*
G04 #@! TO.N,/Bitcrusher/pin6*
X121666000Y-109441000D02*
X124681000Y-106426000D01*
X121666000Y-110744000D02*
X121666000Y-109441000D01*
X120650000Y-109728000D02*
X121666000Y-110744000D01*
X118237000Y-109728000D02*
X120650000Y-109728000D01*
X124681000Y-106426000D02*
X116713000Y-106426000D01*
X116713000Y-106426000D02*
X115570000Y-105283000D01*
X115570000Y-104441000D02*
X118237000Y-101774000D01*
X115570000Y-105283000D02*
X115570000Y-104441000D01*
G04 #@! TO.N,/Bitcrusher/pin3*
X118237000Y-96774000D02*
X118237000Y-93646000D01*
X119634000Y-98171000D02*
X118237000Y-96774000D01*
X121666000Y-98171000D02*
X119634000Y-98171000D01*
X122301000Y-98806000D02*
X121666000Y-98171000D01*
X124681000Y-98806000D02*
X122301000Y-98806000D01*
G04 #@! TO.N,/Bitcrusher/pin4*
X117856000Y-88265000D02*
X118237000Y-88646000D01*
X114808000Y-88265000D02*
X117856000Y-88265000D01*
X121031000Y-88646000D02*
X121666000Y-88011000D01*
X118237000Y-88646000D02*
X121031000Y-88646000D01*
X122465999Y-87211001D02*
X125438001Y-87211001D01*
X121666000Y-88011000D02*
X122465999Y-87211001D01*
X126365000Y-88138000D02*
X126365000Y-94869000D01*
X125438001Y-87211001D02*
X126365000Y-88138000D01*
G04 #@! TO.N,/Bitcrusher/pin12*
X140161000Y-114808000D02*
X138684000Y-113331000D01*
X141732000Y-114808000D02*
X140161000Y-114808000D01*
X132621000Y-98806000D02*
X134112000Y-97315000D01*
X134112000Y-89535000D02*
X134747000Y-88900000D01*
X134112000Y-97315000D02*
X134112000Y-89535000D01*
X132621000Y-98806000D02*
X128905000Y-102522000D01*
X128905000Y-102522000D02*
X128905000Y-108204000D01*
X133731000Y-113030000D02*
X134112000Y-113030000D01*
X128905000Y-108204000D02*
X133731000Y-113030000D01*
G04 #@! TO.N,Net-(C12-Pad2)*
X135382000Y-106426000D02*
X136652000Y-105156000D01*
X135382000Y-108077000D02*
X135382000Y-106426000D01*
X142066000Y-111379000D02*
X139192000Y-111379000D01*
X135890000Y-108077000D02*
X135382000Y-108077000D01*
X139192000Y-111379000D02*
X135890000Y-108077000D01*
G04 #@! TO.N,/Bitcrusher/pin10*
X136525000Y-113907370D02*
X136525000Y-111125000D01*
X140600630Y-117983000D02*
X136525000Y-113907370D01*
X141732000Y-117983000D02*
X140600630Y-117983000D01*
X82677000Y-97536000D02*
X86487000Y-97536000D01*
X92202000Y-103251000D02*
X96774000Y-103251000D01*
X86487000Y-97536000D02*
X92202000Y-103251000D01*
G04 #@! TO.N,Net-(C13-Pad2)*
X67437000Y-106172000D02*
X71374000Y-110109000D01*
X71374000Y-110109000D02*
X77851000Y-110109000D01*
X80177000Y-107783000D02*
X80177000Y-97536000D01*
X77851000Y-110109000D02*
X80177000Y-107783000D01*
G04 #@! TO.N,Net-(D1-Pad2)*
X144780000Y-105410000D02*
X146558000Y-103632000D01*
X144780000Y-107569000D02*
X144780000Y-105410000D01*
X140081000Y-94996000D02*
X141351000Y-96266000D01*
X136017000Y-94996000D02*
X140081000Y-94996000D01*
X146050000Y-103632000D02*
X143510000Y-101092000D01*
X146558000Y-103632000D02*
X146050000Y-103632000D01*
G04 #@! TO.N,Net-(D2-Pad1)*
X139446000Y-90297000D02*
X136017000Y-93726000D01*
X142240000Y-90297000D02*
X139446000Y-90297000D01*
G04 #@! TO.N,Net-(D2-Pad2)*
X142855001Y-92221999D02*
X144780000Y-90297000D01*
X141712001Y-92221999D02*
X142855001Y-92221999D01*
X140462000Y-93472000D02*
X141712001Y-92221999D01*
G04 #@! TO.N,/Bitcrusher/pin1*
X124681000Y-88994000D02*
X124587000Y-88900000D01*
X124681000Y-93726000D02*
X124681000Y-88994000D01*
X114808000Y-98425000D02*
X114808000Y-93472000D01*
X114808000Y-93472000D02*
X117094000Y-91186000D01*
X122141000Y-91186000D02*
X124681000Y-93726000D01*
X117094000Y-91186000D02*
X122141000Y-91186000D01*
G04 #@! TO.N,/Bitcrusher/pin13*
X132621000Y-96266000D02*
X124681000Y-96266000D01*
G04 #@! TO.N,/Bitcrusher/pin11*
X135382000Y-111727000D02*
X132621000Y-108966000D01*
X135382000Y-118237000D02*
X135382000Y-111727000D01*
X132621000Y-108966000D02*
X130429000Y-106774000D01*
X130429000Y-103538000D02*
X132621000Y-101346000D01*
X130429000Y-106774000D02*
X130429000Y-103538000D01*
G04 #@! TO.N,/Bitcrusher/pin9*
X132621000Y-106426000D02*
X134493000Y-104554000D01*
X134493000Y-104554000D02*
X134493000Y-102997000D01*
X134874000Y-102616000D02*
X136652000Y-102616000D01*
X134493000Y-102997000D02*
X134874000Y-102616000D01*
X150749000Y-117983000D02*
X143891000Y-111125000D01*
X151892000Y-117983000D02*
X150749000Y-117983000D01*
G04 #@! TO.N,Net-(J3-Pad1)*
X88011000Y-79502000D02*
X88011000Y-78994000D01*
X88011000Y-78994000D02*
X90424000Y-76581000D01*
X103859000Y-76581000D02*
X104500000Y-77222000D01*
X90424000Y-76581000D02*
X103859000Y-76581000D01*
X125222000Y-79502000D02*
X126492000Y-79502000D01*
X126492000Y-79502000D02*
X129413000Y-76581000D01*
X140329000Y-76581000D02*
X140970000Y-77222000D01*
X129413000Y-76581000D02*
X140329000Y-76581000D01*
X122428000Y-76708000D02*
X117856000Y-76708000D01*
X125222000Y-79502000D02*
X122428000Y-76708000D01*
X106057001Y-75664999D02*
X104500000Y-77222000D01*
X116812999Y-75664999D02*
X106057001Y-75664999D01*
X117856000Y-76708000D02*
X116812999Y-75664999D01*
G04 #@! TO.N,Net-(R1-Pad2)*
X146558000Y-87757000D02*
X145415000Y-86614000D01*
X146558000Y-93472000D02*
X146558000Y-87757000D01*
G04 #@! TO.N,Net-(R5-Pad2)*
X109982000Y-87651000D02*
X108945000Y-86614000D01*
X109982000Y-93472000D02*
X109982000Y-87651000D01*
G04 #@! TO.N,Net-(SW1-Pad1)*
X142905001Y-84043999D02*
X145415000Y-81534000D01*
X142905001Y-85313999D02*
X142905001Y-84043999D01*
X141605000Y-86614000D02*
X142905001Y-85313999D01*
X109570999Y-80233999D02*
X111379000Y-82042000D01*
X108320999Y-80233999D02*
X109570999Y-80233999D01*
X105135000Y-83419998D02*
X108320999Y-80233999D01*
X105135000Y-84074000D02*
X105135000Y-83419998D01*
G04 #@! TD*
D28*
G04 #@! TO.N,GND*
X100969000Y-104731531D02*
X100964719Y-104775000D01*
X100969000Y-104818469D01*
X100969000Y-104818476D01*
X100979451Y-104924589D01*
X100981234Y-104942687D01*
X100981805Y-104948489D01*
X101032411Y-105115312D01*
X101114589Y-105269058D01*
X101225183Y-105403817D01*
X101258956Y-105431534D01*
X102086470Y-106259049D01*
X102114183Y-106292817D01*
X102147951Y-106320530D01*
X102147953Y-106320532D01*
X102214114Y-106374829D01*
X102248941Y-106403411D01*
X102402687Y-106485589D01*
X102569510Y-106536195D01*
X102699523Y-106549000D01*
X102699531Y-106549000D01*
X102743000Y-106553281D01*
X102786469Y-106549000D01*
X104643347Y-106549000D01*
X104608463Y-106591506D01*
X104549498Y-106701820D01*
X104513188Y-106821518D01*
X104500928Y-106946000D01*
X104500928Y-108446000D01*
X104513188Y-108570482D01*
X104549498Y-108690180D01*
X104608463Y-108800494D01*
X104687815Y-108897185D01*
X104784506Y-108976537D01*
X104894820Y-109035502D01*
X105014518Y-109071812D01*
X105139000Y-109084072D01*
X106155001Y-109084072D01*
X106155000Y-114805344D01*
X106093368Y-114846525D01*
X105961513Y-114978380D01*
X105939502Y-114905820D01*
X105880537Y-114795506D01*
X105801185Y-114698815D01*
X105704494Y-114619463D01*
X105594180Y-114560498D01*
X105474482Y-114524188D01*
X105350000Y-114511928D01*
X104785750Y-114515000D01*
X104627000Y-114673750D01*
X104627000Y-115873000D01*
X104647000Y-115873000D01*
X104647000Y-116127000D01*
X104627000Y-116127000D01*
X104627000Y-117326250D01*
X104785750Y-117485000D01*
X105350000Y-117488072D01*
X105474482Y-117475812D01*
X105594180Y-117439502D01*
X105704494Y-117380537D01*
X105801185Y-117301185D01*
X105880537Y-117204494D01*
X105939502Y-117094180D01*
X105961513Y-117021620D01*
X106093368Y-117153475D01*
X106336589Y-117315990D01*
X106606842Y-117427932D01*
X106893740Y-117485000D01*
X107186260Y-117485000D01*
X107473158Y-117427932D01*
X107743411Y-117315990D01*
X107986632Y-117153475D01*
X108193475Y-116946632D01*
X108310000Y-116772240D01*
X108426525Y-116946632D01*
X108633368Y-117153475D01*
X108876589Y-117315990D01*
X109146842Y-117427932D01*
X109433740Y-117485000D01*
X109726260Y-117485000D01*
X109798960Y-117470539D01*
X111287470Y-118959049D01*
X111315183Y-118992817D01*
X111348951Y-119020530D01*
X111348953Y-119020532D01*
X111412749Y-119072888D01*
X111449941Y-119103411D01*
X111603687Y-119185589D01*
X111700641Y-119215000D01*
X71950918Y-119215000D01*
X72161727Y-119127680D01*
X72396759Y-118970637D01*
X72596637Y-118770759D01*
X72616521Y-118741000D01*
X93555531Y-118741000D01*
X93599000Y-118745281D01*
X93642469Y-118741000D01*
X93642477Y-118741000D01*
X93772490Y-118728195D01*
X93939313Y-118677589D01*
X94093059Y-118595411D01*
X94227817Y-118484817D01*
X94255534Y-118451044D01*
X95856578Y-116850000D01*
X103011928Y-116850000D01*
X103024188Y-116974482D01*
X103060498Y-117094180D01*
X103119463Y-117204494D01*
X103198815Y-117301185D01*
X103295506Y-117380537D01*
X103405820Y-117439502D01*
X103525518Y-117475812D01*
X103650000Y-117488072D01*
X104214250Y-117485000D01*
X104373000Y-117326250D01*
X104373000Y-116127000D01*
X103173750Y-116127000D01*
X103015000Y-116285750D01*
X103011928Y-116850000D01*
X95856578Y-116850000D01*
X97556578Y-115150000D01*
X103011928Y-115150000D01*
X103015000Y-115714250D01*
X103173750Y-115873000D01*
X104373000Y-115873000D01*
X104373000Y-114673750D01*
X104214250Y-114515000D01*
X103650000Y-114511928D01*
X103525518Y-114524188D01*
X103405820Y-114560498D01*
X103295506Y-114619463D01*
X103198815Y-114698815D01*
X103119463Y-114795506D01*
X103060498Y-114905820D01*
X103024188Y-115025518D01*
X103011928Y-115150000D01*
X97556578Y-115150000D01*
X100671051Y-112035528D01*
X100704817Y-112007817D01*
X100735033Y-111971000D01*
X100815410Y-111873060D01*
X100815411Y-111873059D01*
X100897589Y-111719313D01*
X100948195Y-111552490D01*
X100961000Y-111422477D01*
X100961000Y-111422467D01*
X100965281Y-111379001D01*
X100961000Y-111335535D01*
X100961000Y-99217454D01*
X100969001Y-99205480D01*
X100969000Y-104731531D01*
G04 #@! TA.AperFunction,Conductor*
D29*
G36*
X100969000Y-104731531D02*
G01*
X100964719Y-104775000D01*
X100969000Y-104818469D01*
X100969000Y-104818476D01*
X100979451Y-104924589D01*
X100981234Y-104942687D01*
X100981805Y-104948489D01*
X101032411Y-105115312D01*
X101114589Y-105269058D01*
X101225183Y-105403817D01*
X101258956Y-105431534D01*
X102086470Y-106259049D01*
X102114183Y-106292817D01*
X102147951Y-106320530D01*
X102147953Y-106320532D01*
X102214114Y-106374829D01*
X102248941Y-106403411D01*
X102402687Y-106485589D01*
X102569510Y-106536195D01*
X102699523Y-106549000D01*
X102699531Y-106549000D01*
X102743000Y-106553281D01*
X102786469Y-106549000D01*
X104643347Y-106549000D01*
X104608463Y-106591506D01*
X104549498Y-106701820D01*
X104513188Y-106821518D01*
X104500928Y-106946000D01*
X104500928Y-108446000D01*
X104513188Y-108570482D01*
X104549498Y-108690180D01*
X104608463Y-108800494D01*
X104687815Y-108897185D01*
X104784506Y-108976537D01*
X104894820Y-109035502D01*
X105014518Y-109071812D01*
X105139000Y-109084072D01*
X106155001Y-109084072D01*
X106155000Y-114805344D01*
X106093368Y-114846525D01*
X105961513Y-114978380D01*
X105939502Y-114905820D01*
X105880537Y-114795506D01*
X105801185Y-114698815D01*
X105704494Y-114619463D01*
X105594180Y-114560498D01*
X105474482Y-114524188D01*
X105350000Y-114511928D01*
X104785750Y-114515000D01*
X104627000Y-114673750D01*
X104627000Y-115873000D01*
X104647000Y-115873000D01*
X104647000Y-116127000D01*
X104627000Y-116127000D01*
X104627000Y-117326250D01*
X104785750Y-117485000D01*
X105350000Y-117488072D01*
X105474482Y-117475812D01*
X105594180Y-117439502D01*
X105704494Y-117380537D01*
X105801185Y-117301185D01*
X105880537Y-117204494D01*
X105939502Y-117094180D01*
X105961513Y-117021620D01*
X106093368Y-117153475D01*
X106336589Y-117315990D01*
X106606842Y-117427932D01*
X106893740Y-117485000D01*
X107186260Y-117485000D01*
X107473158Y-117427932D01*
X107743411Y-117315990D01*
X107986632Y-117153475D01*
X108193475Y-116946632D01*
X108310000Y-116772240D01*
X108426525Y-116946632D01*
X108633368Y-117153475D01*
X108876589Y-117315990D01*
X109146842Y-117427932D01*
X109433740Y-117485000D01*
X109726260Y-117485000D01*
X109798960Y-117470539D01*
X111287470Y-118959049D01*
X111315183Y-118992817D01*
X111348951Y-119020530D01*
X111348953Y-119020532D01*
X111412749Y-119072888D01*
X111449941Y-119103411D01*
X111603687Y-119185589D01*
X111700641Y-119215000D01*
X71950918Y-119215000D01*
X72161727Y-119127680D01*
X72396759Y-118970637D01*
X72596637Y-118770759D01*
X72616521Y-118741000D01*
X93555531Y-118741000D01*
X93599000Y-118745281D01*
X93642469Y-118741000D01*
X93642477Y-118741000D01*
X93772490Y-118728195D01*
X93939313Y-118677589D01*
X94093059Y-118595411D01*
X94227817Y-118484817D01*
X94255534Y-118451044D01*
X95856578Y-116850000D01*
X103011928Y-116850000D01*
X103024188Y-116974482D01*
X103060498Y-117094180D01*
X103119463Y-117204494D01*
X103198815Y-117301185D01*
X103295506Y-117380537D01*
X103405820Y-117439502D01*
X103525518Y-117475812D01*
X103650000Y-117488072D01*
X104214250Y-117485000D01*
X104373000Y-117326250D01*
X104373000Y-116127000D01*
X103173750Y-116127000D01*
X103015000Y-116285750D01*
X103011928Y-116850000D01*
X95856578Y-116850000D01*
X97556578Y-115150000D01*
X103011928Y-115150000D01*
X103015000Y-115714250D01*
X103173750Y-115873000D01*
X104373000Y-115873000D01*
X104373000Y-114673750D01*
X104214250Y-114515000D01*
X103650000Y-114511928D01*
X103525518Y-114524188D01*
X103405820Y-114560498D01*
X103295506Y-114619463D01*
X103198815Y-114698815D01*
X103119463Y-114795506D01*
X103060498Y-114905820D01*
X103024188Y-115025518D01*
X103011928Y-115150000D01*
X97556578Y-115150000D01*
X100671051Y-112035528D01*
X100704817Y-112007817D01*
X100735033Y-111971000D01*
X100815410Y-111873060D01*
X100815411Y-111873059D01*
X100897589Y-111719313D01*
X100948195Y-111552490D01*
X100961000Y-111422477D01*
X100961000Y-111422467D01*
X100965281Y-111379001D01*
X100961000Y-111335535D01*
X100961000Y-99217454D01*
X100969001Y-99205480D01*
X100969000Y-104731531D01*
G37*
G04 #@! TD.AperFunction*
D28*
X73853463Y-75807506D02*
X73794498Y-75917820D01*
X73758188Y-76037518D01*
X73745928Y-76162000D01*
X73745928Y-77148493D01*
X72778271Y-78116151D01*
X72688727Y-78056320D01*
X72427574Y-77948147D01*
X72150335Y-77893000D01*
X71867665Y-77893000D01*
X71590426Y-77948147D01*
X71329273Y-78056320D01*
X71094241Y-78213363D01*
X70894363Y-78413241D01*
X70737320Y-78648273D01*
X70629147Y-78909426D01*
X70574000Y-79186665D01*
X70574000Y-79469335D01*
X70580983Y-79504439D01*
X66841952Y-83243470D01*
X66808184Y-83271183D01*
X66780471Y-83304951D01*
X66780468Y-83304954D01*
X66697590Y-83405941D01*
X66615412Y-83559687D01*
X66564805Y-83726510D01*
X66547719Y-83900000D01*
X66552001Y-83943478D01*
X66552001Y-84058740D01*
X66384503Y-84226238D01*
X66236215Y-84448167D01*
X66134072Y-84694761D01*
X66082000Y-84956544D01*
X66082000Y-85223456D01*
X66134072Y-85485239D01*
X66236215Y-85731833D01*
X66384503Y-85953762D01*
X66573238Y-86142497D01*
X66747853Y-86259171D01*
X66262024Y-86745000D01*
X63388259Y-86745000D01*
X63220762Y-86577503D01*
X62998833Y-86429215D01*
X62752239Y-86327072D01*
X62490456Y-86275000D01*
X62223544Y-86275000D01*
X61961761Y-86327072D01*
X61715167Y-86429215D01*
X61493238Y-86577503D01*
X61304503Y-86766238D01*
X61156215Y-86988167D01*
X61054072Y-87234761D01*
X61002000Y-87496544D01*
X61002000Y-87763456D01*
X61054072Y-88025239D01*
X61156215Y-88271833D01*
X61304503Y-88493762D01*
X61493238Y-88682497D01*
X61715167Y-88830785D01*
X61961761Y-88932928D01*
X62223544Y-88985000D01*
X62490456Y-88985000D01*
X62752239Y-88932928D01*
X62998833Y-88830785D01*
X63220762Y-88682497D01*
X63388259Y-88515000D01*
X66585133Y-88515000D01*
X66628602Y-88519281D01*
X66672071Y-88515000D01*
X66672079Y-88515000D01*
X66802092Y-88502195D01*
X66968915Y-88451589D01*
X67122661Y-88369411D01*
X67257419Y-88258817D01*
X67285136Y-88225044D01*
X68965001Y-86545180D01*
X68965000Y-91015531D01*
X68960719Y-91059000D01*
X68965000Y-91102469D01*
X68965000Y-91102476D01*
X68976212Y-91216314D01*
X68977234Y-91226687D01*
X68977805Y-91232489D01*
X69028411Y-91399312D01*
X69110589Y-91553058D01*
X69221183Y-91687817D01*
X69254956Y-91715534D01*
X71124001Y-93584580D01*
X71124000Y-96020479D01*
X71094241Y-96040363D01*
X70894363Y-96240241D01*
X70737320Y-96475273D01*
X70629147Y-96736426D01*
X70574000Y-97013665D01*
X70574000Y-97296335D01*
X70628369Y-97569662D01*
X70605817Y-97542183D01*
X70572049Y-97514470D01*
X68792000Y-95734422D01*
X68792000Y-95497544D01*
X68739928Y-95235761D01*
X68637785Y-94989167D01*
X68489497Y-94767238D01*
X68300762Y-94578503D01*
X68078833Y-94430215D01*
X67832239Y-94328072D01*
X67570456Y-94276000D01*
X67303544Y-94276000D01*
X67041761Y-94328072D01*
X66795167Y-94430215D01*
X66573238Y-94578503D01*
X66384503Y-94767238D01*
X66236215Y-94989167D01*
X66134072Y-95235761D01*
X66082000Y-95497544D01*
X66082000Y-95764456D01*
X66134072Y-96026239D01*
X66236215Y-96272833D01*
X66384503Y-96494762D01*
X66573238Y-96683497D01*
X66795167Y-96831785D01*
X67041761Y-96933928D01*
X67303544Y-96986000D01*
X67540422Y-96986000D01*
X69092001Y-98537580D01*
X69092000Y-103842531D01*
X69087719Y-103886000D01*
X69092000Y-103929469D01*
X69092000Y-103929476D01*
X69099347Y-104004072D01*
X69104805Y-104059490D01*
X69117302Y-104100687D01*
X69155411Y-104226312D01*
X69237589Y-104380058D01*
X69348183Y-104514817D01*
X69381954Y-104542532D01*
X70997001Y-106157580D01*
X70997001Y-106307478D01*
X70967241Y-106327363D01*
X70767363Y-106527241D01*
X70610320Y-106762273D01*
X70502147Y-107023426D01*
X70447000Y-107300665D01*
X70447000Y-107583335D01*
X70502147Y-107860574D01*
X70590531Y-108073953D01*
X68792000Y-106275422D01*
X68792000Y-106038544D01*
X68739928Y-105776761D01*
X68637785Y-105530167D01*
X68489497Y-105308238D01*
X68300762Y-105119503D01*
X68078833Y-104971215D01*
X67832239Y-104869072D01*
X67570456Y-104817000D01*
X67303544Y-104817000D01*
X67041761Y-104869072D01*
X66795167Y-104971215D01*
X66573238Y-105119503D01*
X66384503Y-105308238D01*
X66236215Y-105530167D01*
X66134072Y-105776761D01*
X66082000Y-106038544D01*
X66082000Y-106305456D01*
X66134072Y-106567239D01*
X66236215Y-106813833D01*
X66384503Y-107035762D01*
X66573238Y-107224497D01*
X66795167Y-107372785D01*
X67041761Y-107474928D01*
X67303544Y-107527000D01*
X67540422Y-107527000D01*
X67840422Y-107827000D01*
X63388259Y-107827000D01*
X63220762Y-107659503D01*
X62998833Y-107511215D01*
X62752239Y-107409072D01*
X62490456Y-107357000D01*
X62223544Y-107357000D01*
X61961761Y-107409072D01*
X61715167Y-107511215D01*
X61493238Y-107659503D01*
X61304503Y-107848238D01*
X61156215Y-108070167D01*
X61054072Y-108316761D01*
X61002000Y-108578544D01*
X61002000Y-108845456D01*
X61054072Y-109107239D01*
X61156215Y-109353833D01*
X61304503Y-109575762D01*
X61493238Y-109764497D01*
X61715167Y-109912785D01*
X61961761Y-110014928D01*
X62223544Y-110067000D01*
X62490456Y-110067000D01*
X62752239Y-110014928D01*
X62998833Y-109912785D01*
X63220762Y-109764497D01*
X63388259Y-109597000D01*
X67832422Y-109597000D01*
X70082470Y-111847049D01*
X70110183Y-111880817D01*
X70143951Y-111908530D01*
X70143953Y-111908532D01*
X70214854Y-111966719D01*
X70220070Y-111971000D01*
X68586224Y-111971000D01*
X68637785Y-111893833D01*
X68739928Y-111647239D01*
X68792000Y-111385456D01*
X68792000Y-111118544D01*
X68739928Y-110856761D01*
X68637785Y-110610167D01*
X68489497Y-110388238D01*
X68300762Y-110199503D01*
X68078833Y-110051215D01*
X67832239Y-109949072D01*
X67570456Y-109897000D01*
X67303544Y-109897000D01*
X67041761Y-109949072D01*
X66795167Y-110051215D01*
X66573238Y-110199503D01*
X66384503Y-110388238D01*
X66236215Y-110610167D01*
X66134072Y-110856761D01*
X66082000Y-111118544D01*
X66082000Y-111385456D01*
X66134072Y-111647239D01*
X66236215Y-111893833D01*
X66287776Y-111971000D01*
X64225465Y-111971000D01*
X64181999Y-111966719D01*
X64138533Y-111971000D01*
X64138523Y-111971000D01*
X64008510Y-111983805D01*
X63841687Y-112034411D01*
X63687941Y-112116589D01*
X63663070Y-112137000D01*
X63586953Y-112199468D01*
X63586951Y-112199470D01*
X63553183Y-112227183D01*
X63525470Y-112260951D01*
X61380951Y-114405471D01*
X61347184Y-114433183D01*
X61319471Y-114466951D01*
X61319468Y-114466954D01*
X61282559Y-114511928D01*
X61126000Y-114511928D01*
X61001518Y-114524188D01*
X60881820Y-114560498D01*
X60771506Y-114619463D01*
X60674815Y-114698815D01*
X60595463Y-114795506D01*
X60536498Y-114905820D01*
X60500188Y-115025518D01*
X60487928Y-115150000D01*
X60487928Y-116850000D01*
X60500188Y-116974482D01*
X60536498Y-117094180D01*
X60595463Y-117204494D01*
X60674815Y-117301185D01*
X60771506Y-117380537D01*
X60881820Y-117439502D01*
X61001518Y-117475812D01*
X61126000Y-117488072D01*
X62826000Y-117488072D01*
X62950482Y-117475812D01*
X63070180Y-117439502D01*
X63180494Y-117380537D01*
X63277185Y-117301185D01*
X63356537Y-117204494D01*
X63415502Y-117094180D01*
X63439966Y-117013534D01*
X63515731Y-117097588D01*
X63749080Y-117271641D01*
X64011901Y-117396825D01*
X64159110Y-117441476D01*
X64389000Y-117320155D01*
X64389000Y-116127000D01*
X64643000Y-116127000D01*
X64643000Y-117320155D01*
X64872890Y-117441476D01*
X65020099Y-117396825D01*
X65282920Y-117271641D01*
X65516269Y-117097588D01*
X65711178Y-116881355D01*
X65860157Y-116631252D01*
X65957481Y-116356891D01*
X65836814Y-116127000D01*
X64643000Y-116127000D01*
X64389000Y-116127000D01*
X64369000Y-116127000D01*
X64369000Y-115873000D01*
X64389000Y-115873000D01*
X64389000Y-114679845D01*
X64643000Y-114679845D01*
X64643000Y-115873000D01*
X65836814Y-115873000D01*
X65957481Y-115643109D01*
X65860157Y-115368748D01*
X65711178Y-115118645D01*
X65516269Y-114902412D01*
X65282920Y-114728359D01*
X65020099Y-114603175D01*
X64872890Y-114558524D01*
X64643000Y-114679845D01*
X64389000Y-114679845D01*
X64159110Y-114558524D01*
X64011901Y-114603175D01*
X63749080Y-114728359D01*
X63515731Y-114902412D01*
X63439966Y-114986466D01*
X63415502Y-114905820D01*
X63404445Y-114885134D01*
X64548579Y-113741000D01*
X70347479Y-113741000D01*
X70367363Y-113770759D01*
X70567241Y-113970637D01*
X70802273Y-114127680D01*
X71063426Y-114235853D01*
X71340665Y-114291000D01*
X71623335Y-114291000D01*
X71900574Y-114235853D01*
X72161727Y-114127680D01*
X72396759Y-113970637D01*
X72596637Y-113770759D01*
X72753680Y-113535727D01*
X72861853Y-113274574D01*
X72917000Y-112997335D01*
X72917000Y-112714665D01*
X72861853Y-112437426D01*
X72753680Y-112176273D01*
X72727439Y-112137000D01*
X91777531Y-112137000D01*
X91821000Y-112141281D01*
X91864469Y-112137000D01*
X91864477Y-112137000D01*
X91994490Y-112124195D01*
X92161313Y-112073589D01*
X92315059Y-111991411D01*
X92449817Y-111880817D01*
X92477534Y-111847044D01*
X98385051Y-105939528D01*
X98418817Y-105911817D01*
X98446533Y-105878046D01*
X98529411Y-105777059D01*
X98538780Y-105759530D01*
X98611589Y-105623313D01*
X98662195Y-105456490D01*
X98675000Y-105326477D01*
X98675000Y-105326469D01*
X98679281Y-105283000D01*
X98675000Y-105239531D01*
X98675000Y-97292139D01*
X98769940Y-97342885D01*
X98988600Y-97409215D01*
X99159021Y-97426000D01*
X99722979Y-97426000D01*
X99893400Y-97409215D01*
X100112060Y-97342885D01*
X100313579Y-97235171D01*
X100490212Y-97090212D01*
X100635171Y-96913579D01*
X100742885Y-96712060D01*
X100809215Y-96493400D01*
X100820656Y-96377235D01*
X100969001Y-96525580D01*
X100969001Y-98152520D01*
X100879937Y-98019226D01*
X100735774Y-97875063D01*
X100566256Y-97761795D01*
X100377898Y-97683774D01*
X100177939Y-97644000D01*
X99974061Y-97644000D01*
X99774102Y-97683774D01*
X99585744Y-97761795D01*
X99416226Y-97875063D01*
X99272063Y-98019226D01*
X99158795Y-98188744D01*
X99080774Y-98377102D01*
X99041000Y-98577061D01*
X99041000Y-98780939D01*
X99080774Y-98980898D01*
X99158795Y-99169256D01*
X99191001Y-99217456D01*
X99191000Y-111012421D01*
X93232422Y-116971000D01*
X72616521Y-116971000D01*
X72596637Y-116941241D01*
X72396759Y-116741363D01*
X72161727Y-116584320D01*
X71900574Y-116476147D01*
X71623335Y-116421000D01*
X71340665Y-116421000D01*
X71063426Y-116476147D01*
X70802273Y-116584320D01*
X70567241Y-116741363D01*
X70367363Y-116941241D01*
X70210320Y-117176273D01*
X70102147Y-117437426D01*
X70047000Y-117714665D01*
X70047000Y-117997335D01*
X70102147Y-118274574D01*
X70210320Y-118535727D01*
X70367363Y-118770759D01*
X70567241Y-118970637D01*
X70802273Y-119127680D01*
X71013082Y-119215000D01*
X62034958Y-119215000D01*
X61254143Y-119145314D01*
X60531852Y-118947718D01*
X59855983Y-118625345D01*
X59247870Y-118188371D01*
X58726753Y-117650620D01*
X58309103Y-117029091D01*
X58008112Y-116343414D01*
X57831854Y-115609248D01*
X57785000Y-114971214D01*
X57785000Y-98037544D01*
X61002000Y-98037544D01*
X61002000Y-98304456D01*
X61054072Y-98566239D01*
X61156215Y-98812833D01*
X61304503Y-99034762D01*
X61493238Y-99223497D01*
X61715167Y-99371785D01*
X61961761Y-99473928D01*
X62223544Y-99526000D01*
X62460422Y-99526000D01*
X64240470Y-101306049D01*
X64268183Y-101339817D01*
X64301951Y-101367530D01*
X64301953Y-101367532D01*
X64368114Y-101421829D01*
X64402941Y-101450411D01*
X64556687Y-101532589D01*
X64723510Y-101583195D01*
X64853523Y-101596000D01*
X64853533Y-101596000D01*
X64896999Y-101600281D01*
X64940465Y-101596000D01*
X66405741Y-101596000D01*
X66573238Y-101763497D01*
X66795167Y-101911785D01*
X67041761Y-102013928D01*
X67303544Y-102066000D01*
X67570456Y-102066000D01*
X67832239Y-102013928D01*
X68078833Y-101911785D01*
X68300762Y-101763497D01*
X68489497Y-101574762D01*
X68637785Y-101352833D01*
X68739928Y-101106239D01*
X68792000Y-100844456D01*
X68792000Y-100577544D01*
X68739928Y-100315761D01*
X68637785Y-100069167D01*
X68489497Y-99847238D01*
X68300762Y-99658503D01*
X68078833Y-99510215D01*
X67832239Y-99408072D01*
X67570456Y-99356000D01*
X67303544Y-99356000D01*
X67041761Y-99408072D01*
X66795167Y-99510215D01*
X66573238Y-99658503D01*
X66405741Y-99826000D01*
X65263579Y-99826000D01*
X63712000Y-98274422D01*
X63712000Y-98037544D01*
X63659928Y-97775761D01*
X63557785Y-97529167D01*
X63409497Y-97307238D01*
X63220762Y-97118503D01*
X62998833Y-96970215D01*
X62752239Y-96868072D01*
X62490456Y-96816000D01*
X62223544Y-96816000D01*
X61961761Y-96868072D01*
X61715167Y-96970215D01*
X61493238Y-97118503D01*
X61304503Y-97307238D01*
X61156215Y-97529167D01*
X61054072Y-97775761D01*
X61002000Y-98037544D01*
X57785000Y-98037544D01*
X57785000Y-90036544D01*
X66082000Y-90036544D01*
X66082000Y-90303456D01*
X66134072Y-90565239D01*
X66236215Y-90811833D01*
X66384503Y-91033762D01*
X66573238Y-91222497D01*
X66795167Y-91370785D01*
X67041761Y-91472928D01*
X67303544Y-91525000D01*
X67570456Y-91525000D01*
X67832239Y-91472928D01*
X68078833Y-91370785D01*
X68300762Y-91222497D01*
X68489497Y-91033762D01*
X68637785Y-90811833D01*
X68739928Y-90565239D01*
X68792000Y-90303456D01*
X68792000Y-90036544D01*
X68739928Y-89774761D01*
X68637785Y-89528167D01*
X68489497Y-89306238D01*
X68300762Y-89117503D01*
X68078833Y-88969215D01*
X67832239Y-88867072D01*
X67570456Y-88815000D01*
X67303544Y-88815000D01*
X67041761Y-88867072D01*
X66795167Y-88969215D01*
X66573238Y-89117503D01*
X66384503Y-89306238D01*
X66236215Y-89528167D01*
X66134072Y-89774761D01*
X66082000Y-90036544D01*
X57785000Y-90036544D01*
X57785000Y-80034958D01*
X57854686Y-79254143D01*
X58052281Y-78531856D01*
X58327956Y-77953891D01*
X62185519Y-77953891D01*
X62282843Y-78228252D01*
X62431822Y-78478355D01*
X62626731Y-78694588D01*
X62860080Y-78868641D01*
X63122901Y-78993825D01*
X63270110Y-79038476D01*
X63500000Y-78917155D01*
X63500000Y-77724000D01*
X62306186Y-77724000D01*
X62185519Y-77953891D01*
X58327956Y-77953891D01*
X58374656Y-77855983D01*
X58811626Y-77247873D01*
X58819637Y-77240109D01*
X62185519Y-77240109D01*
X62306186Y-77470000D01*
X63500000Y-77470000D01*
X63500000Y-76276845D01*
X63754000Y-76276845D01*
X63754000Y-77470000D01*
X63774000Y-77470000D01*
X63774000Y-77724000D01*
X63754000Y-77724000D01*
X63754000Y-78917155D01*
X63983890Y-79038476D01*
X64131099Y-78993825D01*
X64393920Y-78868641D01*
X64627269Y-78694588D01*
X64703034Y-78610534D01*
X64727498Y-78691180D01*
X64786463Y-78801494D01*
X64865815Y-78898185D01*
X64962506Y-78977537D01*
X65072820Y-79036502D01*
X65192518Y-79072812D01*
X65317000Y-79085072D01*
X67017000Y-79085072D01*
X67141482Y-79072812D01*
X67261180Y-79036502D01*
X67371494Y-78977537D01*
X67468185Y-78898185D01*
X67547537Y-78801494D01*
X67606502Y-78691180D01*
X67642812Y-78571482D01*
X67655072Y-78447000D01*
X67655072Y-76747000D01*
X67642812Y-76622518D01*
X67606502Y-76502820D01*
X67547537Y-76392506D01*
X67468185Y-76295815D01*
X67371494Y-76216463D01*
X67261180Y-76157498D01*
X67141482Y-76121188D01*
X67017000Y-76108928D01*
X65317000Y-76108928D01*
X65192518Y-76121188D01*
X65072820Y-76157498D01*
X64962506Y-76216463D01*
X64865815Y-76295815D01*
X64786463Y-76392506D01*
X64727498Y-76502820D01*
X64703034Y-76583466D01*
X64627269Y-76499412D01*
X64393920Y-76325359D01*
X64131099Y-76200175D01*
X63983890Y-76155524D01*
X63754000Y-76276845D01*
X63500000Y-76276845D01*
X63270110Y-76155524D01*
X63122901Y-76200175D01*
X62860080Y-76325359D01*
X62626731Y-76499412D01*
X62431822Y-76715645D01*
X62282843Y-76965748D01*
X62185519Y-77240109D01*
X58819637Y-77240109D01*
X59349380Y-76726753D01*
X59970909Y-76309103D01*
X60656583Y-76008113D01*
X61390752Y-75831854D01*
X62028786Y-75785000D01*
X73871933Y-75785000D01*
X73853463Y-75807506D01*
G04 #@! TA.AperFunction,Conductor*
D29*
G36*
X73853463Y-75807506D02*
G01*
X73794498Y-75917820D01*
X73758188Y-76037518D01*
X73745928Y-76162000D01*
X73745928Y-77148493D01*
X72778271Y-78116151D01*
X72688727Y-78056320D01*
X72427574Y-77948147D01*
X72150335Y-77893000D01*
X71867665Y-77893000D01*
X71590426Y-77948147D01*
X71329273Y-78056320D01*
X71094241Y-78213363D01*
X70894363Y-78413241D01*
X70737320Y-78648273D01*
X70629147Y-78909426D01*
X70574000Y-79186665D01*
X70574000Y-79469335D01*
X70580983Y-79504439D01*
X66841952Y-83243470D01*
X66808184Y-83271183D01*
X66780471Y-83304951D01*
X66780468Y-83304954D01*
X66697590Y-83405941D01*
X66615412Y-83559687D01*
X66564805Y-83726510D01*
X66547719Y-83900000D01*
X66552001Y-83943478D01*
X66552001Y-84058740D01*
X66384503Y-84226238D01*
X66236215Y-84448167D01*
X66134072Y-84694761D01*
X66082000Y-84956544D01*
X66082000Y-85223456D01*
X66134072Y-85485239D01*
X66236215Y-85731833D01*
X66384503Y-85953762D01*
X66573238Y-86142497D01*
X66747853Y-86259171D01*
X66262024Y-86745000D01*
X63388259Y-86745000D01*
X63220762Y-86577503D01*
X62998833Y-86429215D01*
X62752239Y-86327072D01*
X62490456Y-86275000D01*
X62223544Y-86275000D01*
X61961761Y-86327072D01*
X61715167Y-86429215D01*
X61493238Y-86577503D01*
X61304503Y-86766238D01*
X61156215Y-86988167D01*
X61054072Y-87234761D01*
X61002000Y-87496544D01*
X61002000Y-87763456D01*
X61054072Y-88025239D01*
X61156215Y-88271833D01*
X61304503Y-88493762D01*
X61493238Y-88682497D01*
X61715167Y-88830785D01*
X61961761Y-88932928D01*
X62223544Y-88985000D01*
X62490456Y-88985000D01*
X62752239Y-88932928D01*
X62998833Y-88830785D01*
X63220762Y-88682497D01*
X63388259Y-88515000D01*
X66585133Y-88515000D01*
X66628602Y-88519281D01*
X66672071Y-88515000D01*
X66672079Y-88515000D01*
X66802092Y-88502195D01*
X66968915Y-88451589D01*
X67122661Y-88369411D01*
X67257419Y-88258817D01*
X67285136Y-88225044D01*
X68965001Y-86545180D01*
X68965000Y-91015531D01*
X68960719Y-91059000D01*
X68965000Y-91102469D01*
X68965000Y-91102476D01*
X68976212Y-91216314D01*
X68977234Y-91226687D01*
X68977805Y-91232489D01*
X69028411Y-91399312D01*
X69110589Y-91553058D01*
X69221183Y-91687817D01*
X69254956Y-91715534D01*
X71124001Y-93584580D01*
X71124000Y-96020479D01*
X71094241Y-96040363D01*
X70894363Y-96240241D01*
X70737320Y-96475273D01*
X70629147Y-96736426D01*
X70574000Y-97013665D01*
X70574000Y-97296335D01*
X70628369Y-97569662D01*
X70605817Y-97542183D01*
X70572049Y-97514470D01*
X68792000Y-95734422D01*
X68792000Y-95497544D01*
X68739928Y-95235761D01*
X68637785Y-94989167D01*
X68489497Y-94767238D01*
X68300762Y-94578503D01*
X68078833Y-94430215D01*
X67832239Y-94328072D01*
X67570456Y-94276000D01*
X67303544Y-94276000D01*
X67041761Y-94328072D01*
X66795167Y-94430215D01*
X66573238Y-94578503D01*
X66384503Y-94767238D01*
X66236215Y-94989167D01*
X66134072Y-95235761D01*
X66082000Y-95497544D01*
X66082000Y-95764456D01*
X66134072Y-96026239D01*
X66236215Y-96272833D01*
X66384503Y-96494762D01*
X66573238Y-96683497D01*
X66795167Y-96831785D01*
X67041761Y-96933928D01*
X67303544Y-96986000D01*
X67540422Y-96986000D01*
X69092001Y-98537580D01*
X69092000Y-103842531D01*
X69087719Y-103886000D01*
X69092000Y-103929469D01*
X69092000Y-103929476D01*
X69099347Y-104004072D01*
X69104805Y-104059490D01*
X69117302Y-104100687D01*
X69155411Y-104226312D01*
X69237589Y-104380058D01*
X69348183Y-104514817D01*
X69381954Y-104542532D01*
X70997001Y-106157580D01*
X70997001Y-106307478D01*
X70967241Y-106327363D01*
X70767363Y-106527241D01*
X70610320Y-106762273D01*
X70502147Y-107023426D01*
X70447000Y-107300665D01*
X70447000Y-107583335D01*
X70502147Y-107860574D01*
X70590531Y-108073953D01*
X68792000Y-106275422D01*
X68792000Y-106038544D01*
X68739928Y-105776761D01*
X68637785Y-105530167D01*
X68489497Y-105308238D01*
X68300762Y-105119503D01*
X68078833Y-104971215D01*
X67832239Y-104869072D01*
X67570456Y-104817000D01*
X67303544Y-104817000D01*
X67041761Y-104869072D01*
X66795167Y-104971215D01*
X66573238Y-105119503D01*
X66384503Y-105308238D01*
X66236215Y-105530167D01*
X66134072Y-105776761D01*
X66082000Y-106038544D01*
X66082000Y-106305456D01*
X66134072Y-106567239D01*
X66236215Y-106813833D01*
X66384503Y-107035762D01*
X66573238Y-107224497D01*
X66795167Y-107372785D01*
X67041761Y-107474928D01*
X67303544Y-107527000D01*
X67540422Y-107527000D01*
X67840422Y-107827000D01*
X63388259Y-107827000D01*
X63220762Y-107659503D01*
X62998833Y-107511215D01*
X62752239Y-107409072D01*
X62490456Y-107357000D01*
X62223544Y-107357000D01*
X61961761Y-107409072D01*
X61715167Y-107511215D01*
X61493238Y-107659503D01*
X61304503Y-107848238D01*
X61156215Y-108070167D01*
X61054072Y-108316761D01*
X61002000Y-108578544D01*
X61002000Y-108845456D01*
X61054072Y-109107239D01*
X61156215Y-109353833D01*
X61304503Y-109575762D01*
X61493238Y-109764497D01*
X61715167Y-109912785D01*
X61961761Y-110014928D01*
X62223544Y-110067000D01*
X62490456Y-110067000D01*
X62752239Y-110014928D01*
X62998833Y-109912785D01*
X63220762Y-109764497D01*
X63388259Y-109597000D01*
X67832422Y-109597000D01*
X70082470Y-111847049D01*
X70110183Y-111880817D01*
X70143951Y-111908530D01*
X70143953Y-111908532D01*
X70214854Y-111966719D01*
X70220070Y-111971000D01*
X68586224Y-111971000D01*
X68637785Y-111893833D01*
X68739928Y-111647239D01*
X68792000Y-111385456D01*
X68792000Y-111118544D01*
X68739928Y-110856761D01*
X68637785Y-110610167D01*
X68489497Y-110388238D01*
X68300762Y-110199503D01*
X68078833Y-110051215D01*
X67832239Y-109949072D01*
X67570456Y-109897000D01*
X67303544Y-109897000D01*
X67041761Y-109949072D01*
X66795167Y-110051215D01*
X66573238Y-110199503D01*
X66384503Y-110388238D01*
X66236215Y-110610167D01*
X66134072Y-110856761D01*
X66082000Y-111118544D01*
X66082000Y-111385456D01*
X66134072Y-111647239D01*
X66236215Y-111893833D01*
X66287776Y-111971000D01*
X64225465Y-111971000D01*
X64181999Y-111966719D01*
X64138533Y-111971000D01*
X64138523Y-111971000D01*
X64008510Y-111983805D01*
X63841687Y-112034411D01*
X63687941Y-112116589D01*
X63663070Y-112137000D01*
X63586953Y-112199468D01*
X63586951Y-112199470D01*
X63553183Y-112227183D01*
X63525470Y-112260951D01*
X61380951Y-114405471D01*
X61347184Y-114433183D01*
X61319471Y-114466951D01*
X61319468Y-114466954D01*
X61282559Y-114511928D01*
X61126000Y-114511928D01*
X61001518Y-114524188D01*
X60881820Y-114560498D01*
X60771506Y-114619463D01*
X60674815Y-114698815D01*
X60595463Y-114795506D01*
X60536498Y-114905820D01*
X60500188Y-115025518D01*
X60487928Y-115150000D01*
X60487928Y-116850000D01*
X60500188Y-116974482D01*
X60536498Y-117094180D01*
X60595463Y-117204494D01*
X60674815Y-117301185D01*
X60771506Y-117380537D01*
X60881820Y-117439502D01*
X61001518Y-117475812D01*
X61126000Y-117488072D01*
X62826000Y-117488072D01*
X62950482Y-117475812D01*
X63070180Y-117439502D01*
X63180494Y-117380537D01*
X63277185Y-117301185D01*
X63356537Y-117204494D01*
X63415502Y-117094180D01*
X63439966Y-117013534D01*
X63515731Y-117097588D01*
X63749080Y-117271641D01*
X64011901Y-117396825D01*
X64159110Y-117441476D01*
X64389000Y-117320155D01*
X64389000Y-116127000D01*
X64643000Y-116127000D01*
X64643000Y-117320155D01*
X64872890Y-117441476D01*
X65020099Y-117396825D01*
X65282920Y-117271641D01*
X65516269Y-117097588D01*
X65711178Y-116881355D01*
X65860157Y-116631252D01*
X65957481Y-116356891D01*
X65836814Y-116127000D01*
X64643000Y-116127000D01*
X64389000Y-116127000D01*
X64369000Y-116127000D01*
X64369000Y-115873000D01*
X64389000Y-115873000D01*
X64389000Y-114679845D01*
X64643000Y-114679845D01*
X64643000Y-115873000D01*
X65836814Y-115873000D01*
X65957481Y-115643109D01*
X65860157Y-115368748D01*
X65711178Y-115118645D01*
X65516269Y-114902412D01*
X65282920Y-114728359D01*
X65020099Y-114603175D01*
X64872890Y-114558524D01*
X64643000Y-114679845D01*
X64389000Y-114679845D01*
X64159110Y-114558524D01*
X64011901Y-114603175D01*
X63749080Y-114728359D01*
X63515731Y-114902412D01*
X63439966Y-114986466D01*
X63415502Y-114905820D01*
X63404445Y-114885134D01*
X64548579Y-113741000D01*
X70347479Y-113741000D01*
X70367363Y-113770759D01*
X70567241Y-113970637D01*
X70802273Y-114127680D01*
X71063426Y-114235853D01*
X71340665Y-114291000D01*
X71623335Y-114291000D01*
X71900574Y-114235853D01*
X72161727Y-114127680D01*
X72396759Y-113970637D01*
X72596637Y-113770759D01*
X72753680Y-113535727D01*
X72861853Y-113274574D01*
X72917000Y-112997335D01*
X72917000Y-112714665D01*
X72861853Y-112437426D01*
X72753680Y-112176273D01*
X72727439Y-112137000D01*
X91777531Y-112137000D01*
X91821000Y-112141281D01*
X91864469Y-112137000D01*
X91864477Y-112137000D01*
X91994490Y-112124195D01*
X92161313Y-112073589D01*
X92315059Y-111991411D01*
X92449817Y-111880817D01*
X92477534Y-111847044D01*
X98385051Y-105939528D01*
X98418817Y-105911817D01*
X98446533Y-105878046D01*
X98529411Y-105777059D01*
X98538780Y-105759530D01*
X98611589Y-105623313D01*
X98662195Y-105456490D01*
X98675000Y-105326477D01*
X98675000Y-105326469D01*
X98679281Y-105283000D01*
X98675000Y-105239531D01*
X98675000Y-97292139D01*
X98769940Y-97342885D01*
X98988600Y-97409215D01*
X99159021Y-97426000D01*
X99722979Y-97426000D01*
X99893400Y-97409215D01*
X100112060Y-97342885D01*
X100313579Y-97235171D01*
X100490212Y-97090212D01*
X100635171Y-96913579D01*
X100742885Y-96712060D01*
X100809215Y-96493400D01*
X100820656Y-96377235D01*
X100969001Y-96525580D01*
X100969001Y-98152520D01*
X100879937Y-98019226D01*
X100735774Y-97875063D01*
X100566256Y-97761795D01*
X100377898Y-97683774D01*
X100177939Y-97644000D01*
X99974061Y-97644000D01*
X99774102Y-97683774D01*
X99585744Y-97761795D01*
X99416226Y-97875063D01*
X99272063Y-98019226D01*
X99158795Y-98188744D01*
X99080774Y-98377102D01*
X99041000Y-98577061D01*
X99041000Y-98780939D01*
X99080774Y-98980898D01*
X99158795Y-99169256D01*
X99191001Y-99217456D01*
X99191000Y-111012421D01*
X93232422Y-116971000D01*
X72616521Y-116971000D01*
X72596637Y-116941241D01*
X72396759Y-116741363D01*
X72161727Y-116584320D01*
X71900574Y-116476147D01*
X71623335Y-116421000D01*
X71340665Y-116421000D01*
X71063426Y-116476147D01*
X70802273Y-116584320D01*
X70567241Y-116741363D01*
X70367363Y-116941241D01*
X70210320Y-117176273D01*
X70102147Y-117437426D01*
X70047000Y-117714665D01*
X70047000Y-117997335D01*
X70102147Y-118274574D01*
X70210320Y-118535727D01*
X70367363Y-118770759D01*
X70567241Y-118970637D01*
X70802273Y-119127680D01*
X71013082Y-119215000D01*
X62034958Y-119215000D01*
X61254143Y-119145314D01*
X60531852Y-118947718D01*
X59855983Y-118625345D01*
X59247870Y-118188371D01*
X58726753Y-117650620D01*
X58309103Y-117029091D01*
X58008112Y-116343414D01*
X57831854Y-115609248D01*
X57785000Y-114971214D01*
X57785000Y-98037544D01*
X61002000Y-98037544D01*
X61002000Y-98304456D01*
X61054072Y-98566239D01*
X61156215Y-98812833D01*
X61304503Y-99034762D01*
X61493238Y-99223497D01*
X61715167Y-99371785D01*
X61961761Y-99473928D01*
X62223544Y-99526000D01*
X62460422Y-99526000D01*
X64240470Y-101306049D01*
X64268183Y-101339817D01*
X64301951Y-101367530D01*
X64301953Y-101367532D01*
X64368114Y-101421829D01*
X64402941Y-101450411D01*
X64556687Y-101532589D01*
X64723510Y-101583195D01*
X64853523Y-101596000D01*
X64853533Y-101596000D01*
X64896999Y-101600281D01*
X64940465Y-101596000D01*
X66405741Y-101596000D01*
X66573238Y-101763497D01*
X66795167Y-101911785D01*
X67041761Y-102013928D01*
X67303544Y-102066000D01*
X67570456Y-102066000D01*
X67832239Y-102013928D01*
X68078833Y-101911785D01*
X68300762Y-101763497D01*
X68489497Y-101574762D01*
X68637785Y-101352833D01*
X68739928Y-101106239D01*
X68792000Y-100844456D01*
X68792000Y-100577544D01*
X68739928Y-100315761D01*
X68637785Y-100069167D01*
X68489497Y-99847238D01*
X68300762Y-99658503D01*
X68078833Y-99510215D01*
X67832239Y-99408072D01*
X67570456Y-99356000D01*
X67303544Y-99356000D01*
X67041761Y-99408072D01*
X66795167Y-99510215D01*
X66573238Y-99658503D01*
X66405741Y-99826000D01*
X65263579Y-99826000D01*
X63712000Y-98274422D01*
X63712000Y-98037544D01*
X63659928Y-97775761D01*
X63557785Y-97529167D01*
X63409497Y-97307238D01*
X63220762Y-97118503D01*
X62998833Y-96970215D01*
X62752239Y-96868072D01*
X62490456Y-96816000D01*
X62223544Y-96816000D01*
X61961761Y-96868072D01*
X61715167Y-96970215D01*
X61493238Y-97118503D01*
X61304503Y-97307238D01*
X61156215Y-97529167D01*
X61054072Y-97775761D01*
X61002000Y-98037544D01*
X57785000Y-98037544D01*
X57785000Y-90036544D01*
X66082000Y-90036544D01*
X66082000Y-90303456D01*
X66134072Y-90565239D01*
X66236215Y-90811833D01*
X66384503Y-91033762D01*
X66573238Y-91222497D01*
X66795167Y-91370785D01*
X67041761Y-91472928D01*
X67303544Y-91525000D01*
X67570456Y-91525000D01*
X67832239Y-91472928D01*
X68078833Y-91370785D01*
X68300762Y-91222497D01*
X68489497Y-91033762D01*
X68637785Y-90811833D01*
X68739928Y-90565239D01*
X68792000Y-90303456D01*
X68792000Y-90036544D01*
X68739928Y-89774761D01*
X68637785Y-89528167D01*
X68489497Y-89306238D01*
X68300762Y-89117503D01*
X68078833Y-88969215D01*
X67832239Y-88867072D01*
X67570456Y-88815000D01*
X67303544Y-88815000D01*
X67041761Y-88867072D01*
X66795167Y-88969215D01*
X66573238Y-89117503D01*
X66384503Y-89306238D01*
X66236215Y-89528167D01*
X66134072Y-89774761D01*
X66082000Y-90036544D01*
X57785000Y-90036544D01*
X57785000Y-80034958D01*
X57854686Y-79254143D01*
X58052281Y-78531856D01*
X58327956Y-77953891D01*
X62185519Y-77953891D01*
X62282843Y-78228252D01*
X62431822Y-78478355D01*
X62626731Y-78694588D01*
X62860080Y-78868641D01*
X63122901Y-78993825D01*
X63270110Y-79038476D01*
X63500000Y-78917155D01*
X63500000Y-77724000D01*
X62306186Y-77724000D01*
X62185519Y-77953891D01*
X58327956Y-77953891D01*
X58374656Y-77855983D01*
X58811626Y-77247873D01*
X58819637Y-77240109D01*
X62185519Y-77240109D01*
X62306186Y-77470000D01*
X63500000Y-77470000D01*
X63500000Y-76276845D01*
X63754000Y-76276845D01*
X63754000Y-77470000D01*
X63774000Y-77470000D01*
X63774000Y-77724000D01*
X63754000Y-77724000D01*
X63754000Y-78917155D01*
X63983890Y-79038476D01*
X64131099Y-78993825D01*
X64393920Y-78868641D01*
X64627269Y-78694588D01*
X64703034Y-78610534D01*
X64727498Y-78691180D01*
X64786463Y-78801494D01*
X64865815Y-78898185D01*
X64962506Y-78977537D01*
X65072820Y-79036502D01*
X65192518Y-79072812D01*
X65317000Y-79085072D01*
X67017000Y-79085072D01*
X67141482Y-79072812D01*
X67261180Y-79036502D01*
X67371494Y-78977537D01*
X67468185Y-78898185D01*
X67547537Y-78801494D01*
X67606502Y-78691180D01*
X67642812Y-78571482D01*
X67655072Y-78447000D01*
X67655072Y-76747000D01*
X67642812Y-76622518D01*
X67606502Y-76502820D01*
X67547537Y-76392506D01*
X67468185Y-76295815D01*
X67371494Y-76216463D01*
X67261180Y-76157498D01*
X67141482Y-76121188D01*
X67017000Y-76108928D01*
X65317000Y-76108928D01*
X65192518Y-76121188D01*
X65072820Y-76157498D01*
X64962506Y-76216463D01*
X64865815Y-76295815D01*
X64786463Y-76392506D01*
X64727498Y-76502820D01*
X64703034Y-76583466D01*
X64627269Y-76499412D01*
X64393920Y-76325359D01*
X64131099Y-76200175D01*
X63983890Y-76155524D01*
X63754000Y-76276845D01*
X63500000Y-76276845D01*
X63270110Y-76155524D01*
X63122901Y-76200175D01*
X62860080Y-76325359D01*
X62626731Y-76499412D01*
X62431822Y-76715645D01*
X62282843Y-76965748D01*
X62185519Y-77240109D01*
X58819637Y-77240109D01*
X59349380Y-76726753D01*
X59970909Y-76309103D01*
X60656583Y-76008113D01*
X61390752Y-75831854D01*
X62028786Y-75785000D01*
X73871933Y-75785000D01*
X73853463Y-75807506D01*
G37*
G04 #@! TD.AperFunction*
D28*
X152745857Y-75854686D02*
X153468144Y-76052281D01*
X154144017Y-76374656D01*
X154752127Y-76811626D01*
X155273247Y-77349380D01*
X155690897Y-77970909D01*
X155991887Y-78656583D01*
X156168146Y-79390752D01*
X156215000Y-80028786D01*
X156215001Y-114965031D01*
X156145314Y-115745857D01*
X155947718Y-116468148D01*
X155625345Y-117144017D01*
X155188371Y-117752130D01*
X154650620Y-118273247D01*
X154029091Y-118690897D01*
X153343414Y-118991888D01*
X152752821Y-119133677D01*
X152806759Y-119097637D01*
X153006637Y-118897759D01*
X153163680Y-118662727D01*
X153271853Y-118401574D01*
X153327000Y-118124335D01*
X153327000Y-117841665D01*
X153271853Y-117564426D01*
X153163680Y-117303273D01*
X153006637Y-117068241D01*
X152806759Y-116868363D01*
X152571727Y-116711320D01*
X152310574Y-116603147D01*
X152033335Y-116548000D01*
X151750665Y-116548000D01*
X151473426Y-116603147D01*
X151212273Y-116711320D01*
X150977241Y-116868363D01*
X150931591Y-116914013D01*
X146808464Y-112790886D01*
X146924665Y-112814000D01*
X147207335Y-112814000D01*
X147484574Y-112758853D01*
X147745727Y-112650680D01*
X147980759Y-112493637D01*
X148180637Y-112293759D01*
X148337680Y-112058727D01*
X148445853Y-111797574D01*
X148501000Y-111520335D01*
X148501000Y-111237665D01*
X148477886Y-111121464D01*
X148812983Y-111456561D01*
X148806000Y-111491665D01*
X148806000Y-111774335D01*
X148861147Y-112051574D01*
X148969320Y-112312727D01*
X149126363Y-112547759D01*
X149326241Y-112747637D01*
X149561273Y-112904680D01*
X149822426Y-113012853D01*
X150099665Y-113068000D01*
X150382335Y-113068000D01*
X150417439Y-113061017D01*
X151007001Y-113650580D01*
X151007001Y-113673478D01*
X150977241Y-113693363D01*
X150777363Y-113893241D01*
X150620320Y-114128273D01*
X150512147Y-114389426D01*
X150457000Y-114666665D01*
X150457000Y-114949335D01*
X150512147Y-115226574D01*
X150620320Y-115487727D01*
X150777363Y-115722759D01*
X150977241Y-115922637D01*
X151212273Y-116079680D01*
X151473426Y-116187853D01*
X151750665Y-116243000D01*
X152033335Y-116243000D01*
X152310574Y-116187853D01*
X152571727Y-116079680D01*
X152806759Y-115922637D01*
X153006637Y-115722759D01*
X153163680Y-115487727D01*
X153271853Y-115226574D01*
X153327000Y-114949335D01*
X153327000Y-114666665D01*
X153271853Y-114389426D01*
X153163680Y-114128273D01*
X153006637Y-113893241D01*
X152806759Y-113693363D01*
X152777000Y-113673479D01*
X152777000Y-113327469D01*
X152781281Y-113284000D01*
X152777000Y-113240531D01*
X152777000Y-113240523D01*
X152764195Y-113110510D01*
X152739618Y-113029491D01*
X152713589Y-112943686D01*
X152631411Y-112789941D01*
X152548532Y-112688953D01*
X152548530Y-112688951D01*
X152520817Y-112655183D01*
X152487049Y-112627470D01*
X151669017Y-111809439D01*
X151676000Y-111774335D01*
X151676000Y-111491665D01*
X151620853Y-111214426D01*
X151512680Y-110953273D01*
X151355637Y-110718241D01*
X151155759Y-110518363D01*
X150920727Y-110361320D01*
X150659574Y-110253147D01*
X150382335Y-110198000D01*
X150099665Y-110198000D01*
X150064561Y-110204983D01*
X148865534Y-109005956D01*
X148837817Y-108972183D01*
X148703059Y-108861589D01*
X148549313Y-108779411D01*
X148382490Y-108728805D01*
X148252477Y-108716000D01*
X148252469Y-108716000D01*
X148209000Y-108711719D01*
X148165531Y-108716000D01*
X145485057Y-108716000D01*
X145604212Y-108618212D01*
X145749171Y-108441579D01*
X145856885Y-108240059D01*
X145923215Y-108021399D01*
X145940000Y-107850978D01*
X145940000Y-107287021D01*
X145923215Y-107116600D01*
X145856885Y-106897940D01*
X145749171Y-106696421D01*
X145665000Y-106593858D01*
X145665000Y-105776578D01*
X146381561Y-105060017D01*
X146416665Y-105067000D01*
X146699335Y-105067000D01*
X146976574Y-105011853D01*
X147237727Y-104903680D01*
X147472759Y-104746637D01*
X147672637Y-104546759D01*
X147829680Y-104311727D01*
X147937853Y-104050574D01*
X147993000Y-103773335D01*
X147993000Y-103490665D01*
X147937853Y-103213426D01*
X147829680Y-102952273D01*
X147672637Y-102717241D01*
X147472759Y-102517363D01*
X147237727Y-102360320D01*
X146976574Y-102252147D01*
X146699335Y-102197000D01*
X146416665Y-102197000D01*
X146139426Y-102252147D01*
X145985489Y-102315910D01*
X145001244Y-101331665D01*
X148806000Y-101331665D01*
X148806000Y-101614335D01*
X148861147Y-101891574D01*
X148969320Y-102152727D01*
X149126363Y-102387759D01*
X149326241Y-102587637D01*
X149561273Y-102744680D01*
X149822426Y-102852853D01*
X150099665Y-102908000D01*
X150382335Y-102908000D01*
X150659574Y-102852853D01*
X150920727Y-102744680D01*
X151155759Y-102587637D01*
X151355637Y-102387759D01*
X151512680Y-102152727D01*
X151620853Y-101891574D01*
X151676000Y-101614335D01*
X151676000Y-101331665D01*
X151620853Y-101054426D01*
X151512680Y-100793273D01*
X151355637Y-100558241D01*
X151155759Y-100358363D01*
X150920727Y-100201320D01*
X150659574Y-100093147D01*
X150382335Y-100038000D01*
X150099665Y-100038000D01*
X149822426Y-100093147D01*
X149561273Y-100201320D01*
X149326241Y-100358363D01*
X149126363Y-100558241D01*
X148969320Y-100793273D01*
X148861147Y-101054426D01*
X148806000Y-101331665D01*
X145001244Y-101331665D01*
X144938017Y-101268439D01*
X144945000Y-101233335D01*
X144945000Y-100950665D01*
X144889853Y-100673426D01*
X144781680Y-100412273D01*
X144624637Y-100177241D01*
X144424759Y-99977363D01*
X144189727Y-99820320D01*
X143928574Y-99712147D01*
X143651335Y-99657000D01*
X143368665Y-99657000D01*
X143091426Y-99712147D01*
X142830273Y-99820320D01*
X142595241Y-99977363D01*
X142395363Y-100177241D01*
X142238320Y-100412273D01*
X142130147Y-100673426D01*
X142075000Y-100950665D01*
X142075000Y-101233335D01*
X142130147Y-101510574D01*
X142238320Y-101771727D01*
X142395363Y-102006759D01*
X142595241Y-102206637D01*
X142830273Y-102363680D01*
X143091426Y-102471853D01*
X143368665Y-102527000D01*
X143651335Y-102527000D01*
X143686439Y-102520017D01*
X145052421Y-103886000D01*
X144184951Y-104753471D01*
X144151184Y-104781183D01*
X144123471Y-104814951D01*
X144123468Y-104814954D01*
X144040590Y-104915941D01*
X143958412Y-105069687D01*
X143907805Y-105236510D01*
X143890719Y-105410000D01*
X143895001Y-105453479D01*
X143895001Y-106248593D01*
X143737399Y-106200785D01*
X143510000Y-106178388D01*
X143282600Y-106200785D01*
X143073902Y-106264093D01*
X143009180Y-106229498D01*
X142889482Y-106193188D01*
X142765000Y-106180928D01*
X141715000Y-106180928D01*
X141590518Y-106193188D01*
X141470820Y-106229498D01*
X141360506Y-106288463D01*
X141263815Y-106367815D01*
X141184463Y-106464506D01*
X141125498Y-106574820D01*
X141089188Y-106694518D01*
X141076928Y-106819000D01*
X141076928Y-108319000D01*
X141089188Y-108443482D01*
X141125498Y-108563180D01*
X141184463Y-108673494D01*
X141219347Y-108716000D01*
X140320579Y-108716000D01*
X140112017Y-108507439D01*
X140119000Y-108472335D01*
X140119000Y-108189665D01*
X140063853Y-107912426D01*
X139955680Y-107651273D01*
X139798637Y-107416241D01*
X139598759Y-107216363D01*
X139569000Y-107196479D01*
X139569000Y-105146464D01*
X139573281Y-105102997D01*
X139569000Y-105059531D01*
X139569000Y-105059521D01*
X139556195Y-104929508D01*
X139505589Y-104762685D01*
X139439335Y-104638731D01*
X139547241Y-104746637D01*
X139782273Y-104903680D01*
X140043426Y-105011853D01*
X140320665Y-105067000D01*
X140603335Y-105067000D01*
X140880574Y-105011853D01*
X141141727Y-104903680D01*
X141376759Y-104746637D01*
X141576637Y-104546759D01*
X141733680Y-104311727D01*
X141841853Y-104050574D01*
X141897000Y-103773335D01*
X141897000Y-103490665D01*
X141841853Y-103213426D01*
X141733680Y-102952273D01*
X141576637Y-102717241D01*
X141376759Y-102517363D01*
X141347000Y-102497479D01*
X141347000Y-99299578D01*
X142245578Y-98401000D01*
X150261928Y-98401000D01*
X150274188Y-98525482D01*
X150310498Y-98645180D01*
X150369463Y-98755494D01*
X150448815Y-98852185D01*
X150545506Y-98931537D01*
X150655820Y-98990502D01*
X150775518Y-99026812D01*
X150900000Y-99039072D01*
X152114250Y-99036000D01*
X152273000Y-98877250D01*
X152273000Y-97028000D01*
X152527000Y-97028000D01*
X152527000Y-98877250D01*
X152685750Y-99036000D01*
X153900000Y-99039072D01*
X154024482Y-99026812D01*
X154144180Y-98990502D01*
X154254494Y-98931537D01*
X154351185Y-98852185D01*
X154430537Y-98755494D01*
X154489502Y-98645180D01*
X154525812Y-98525482D01*
X154538072Y-98401000D01*
X154535000Y-97186750D01*
X154376250Y-97028000D01*
X152527000Y-97028000D01*
X152273000Y-97028000D01*
X150423750Y-97028000D01*
X150265000Y-97186750D01*
X150261928Y-98401000D01*
X142245578Y-98401000D01*
X144105050Y-96541529D01*
X144138817Y-96513817D01*
X144249411Y-96379059D01*
X144331589Y-96225313D01*
X144382195Y-96058490D01*
X144395000Y-95928477D01*
X144395000Y-95928469D01*
X144399281Y-95885000D01*
X144395000Y-95841531D01*
X144395000Y-95735579D01*
X145774470Y-97115049D01*
X145802183Y-97148817D01*
X145835951Y-97176530D01*
X145835953Y-97176532D01*
X145862235Y-97198101D01*
X145936941Y-97259411D01*
X146090687Y-97341589D01*
X146257510Y-97392195D01*
X146387523Y-97405000D01*
X146387531Y-97405000D01*
X146431000Y-97409281D01*
X146474469Y-97405000D01*
X147530531Y-97405000D01*
X147574000Y-97409281D01*
X147617469Y-97405000D01*
X147617477Y-97405000D01*
X147747490Y-97392195D01*
X147914313Y-97341589D01*
X148068059Y-97259411D01*
X148202817Y-97148817D01*
X148230534Y-97115044D01*
X149820050Y-95525529D01*
X149853817Y-95497817D01*
X149886897Y-95457510D01*
X149933273Y-95401000D01*
X150261928Y-95401000D01*
X150265000Y-96615250D01*
X150423750Y-96774000D01*
X152273000Y-96774000D01*
X152273000Y-94924750D01*
X152527000Y-94924750D01*
X152527000Y-96774000D01*
X154376250Y-96774000D01*
X154535000Y-96615250D01*
X154538072Y-95401000D01*
X154525812Y-95276518D01*
X154489502Y-95156820D01*
X154430537Y-95046506D01*
X154351185Y-94949815D01*
X154254494Y-94870463D01*
X154144180Y-94811498D01*
X154024482Y-94775188D01*
X153900000Y-94762928D01*
X152685750Y-94766000D01*
X152527000Y-94924750D01*
X152273000Y-94924750D01*
X152114250Y-94766000D01*
X150900000Y-94762928D01*
X150775518Y-94775188D01*
X150655820Y-94811498D01*
X150545506Y-94870463D01*
X150448815Y-94949815D01*
X150369463Y-95046506D01*
X150310498Y-95156820D01*
X150274188Y-95276518D01*
X150261928Y-95401000D01*
X149933273Y-95401000D01*
X149964411Y-95363059D01*
X150046589Y-95209314D01*
X150097195Y-95042490D01*
X150097195Y-95042489D01*
X150110000Y-94912477D01*
X150110000Y-94912469D01*
X150114281Y-94869000D01*
X150110000Y-94825531D01*
X150110000Y-93312653D01*
X151087952Y-93312653D01*
X151243962Y-93628214D01*
X151618745Y-93819020D01*
X152023551Y-93933044D01*
X152442824Y-93965902D01*
X152860451Y-93916334D01*
X153260383Y-93786243D01*
X153556038Y-93628214D01*
X153712048Y-93312653D01*
X152400000Y-92000605D01*
X151087952Y-93312653D01*
X150110000Y-93312653D01*
X150110000Y-91863824D01*
X150255098Y-91863824D01*
X150304666Y-92281451D01*
X150434757Y-92681383D01*
X150592786Y-92977038D01*
X150908347Y-93133048D01*
X152220395Y-91821000D01*
X152579605Y-91821000D01*
X153891653Y-93133048D01*
X154207214Y-92977038D01*
X154398020Y-92602255D01*
X154512044Y-92197449D01*
X154544902Y-91778176D01*
X154495334Y-91360549D01*
X154365243Y-90960617D01*
X154207214Y-90664962D01*
X153891653Y-90508952D01*
X152579605Y-91821000D01*
X152220395Y-91821000D01*
X150908347Y-90508952D01*
X150592786Y-90664962D01*
X150401980Y-91039745D01*
X150287956Y-91444551D01*
X150255098Y-91863824D01*
X150110000Y-91863824D01*
X150110000Y-90329347D01*
X151087952Y-90329347D01*
X152400000Y-91641395D01*
X153712048Y-90329347D01*
X153556038Y-90013786D01*
X153181255Y-89822980D01*
X152776449Y-89708956D01*
X152357176Y-89676098D01*
X151939549Y-89725666D01*
X151539617Y-89855757D01*
X151243962Y-90013786D01*
X151087952Y-90329347D01*
X150110000Y-90329347D01*
X150110000Y-86530721D01*
X150265000Y-86530721D01*
X150265000Y-86951279D01*
X150347047Y-87363756D01*
X150507988Y-87752302D01*
X150741637Y-88101983D01*
X151039017Y-88399363D01*
X151388698Y-88633012D01*
X151777244Y-88793953D01*
X152189721Y-88876000D01*
X152610279Y-88876000D01*
X153022756Y-88793953D01*
X153411302Y-88633012D01*
X153760983Y-88399363D01*
X154058363Y-88101983D01*
X154292012Y-87752302D01*
X154452953Y-87363756D01*
X154535000Y-86951279D01*
X154535000Y-86530721D01*
X154452953Y-86118244D01*
X154292012Y-85729698D01*
X154058363Y-85380017D01*
X153760983Y-85082637D01*
X153411302Y-84848988D01*
X153022756Y-84688047D01*
X152610279Y-84606000D01*
X152189721Y-84606000D01*
X151777244Y-84688047D01*
X151388698Y-84848988D01*
X151039017Y-85082637D01*
X150741637Y-85380017D01*
X150507988Y-85729698D01*
X150347047Y-86118244D01*
X150265000Y-86530721D01*
X150110000Y-86530721D01*
X150110000Y-85202578D01*
X151650942Y-83661637D01*
X151777244Y-83713953D01*
X152189721Y-83796000D01*
X152610279Y-83796000D01*
X153022756Y-83713953D01*
X153411302Y-83553012D01*
X153760983Y-83319363D01*
X154058363Y-83021983D01*
X154292012Y-82672302D01*
X154452953Y-82283756D01*
X154535000Y-81871279D01*
X154535000Y-81450721D01*
X154452953Y-81038244D01*
X154292012Y-80649698D01*
X154058363Y-80300017D01*
X153760983Y-80002637D01*
X153411302Y-79768988D01*
X153022756Y-79608047D01*
X152610279Y-79526000D01*
X152189721Y-79526000D01*
X151777244Y-79608047D01*
X151388698Y-79768988D01*
X151039017Y-80002637D01*
X150741637Y-80300017D01*
X150507988Y-80649698D01*
X150347047Y-81038244D01*
X150265000Y-81450721D01*
X150265000Y-81871279D01*
X150347047Y-82283756D01*
X150399363Y-82410058D01*
X148629951Y-84179471D01*
X148596184Y-84207183D01*
X148568471Y-84240951D01*
X148568468Y-84240954D01*
X148485590Y-84341941D01*
X148403412Y-84495687D01*
X148352805Y-84662510D01*
X148335719Y-84836000D01*
X148340001Y-84879479D01*
X148340000Y-94502421D01*
X147207422Y-95635000D01*
X146797579Y-95635000D01*
X145926047Y-94763469D01*
X146139426Y-94851853D01*
X146416665Y-94907000D01*
X146699335Y-94907000D01*
X146976574Y-94851853D01*
X147237727Y-94743680D01*
X147472759Y-94586637D01*
X147672637Y-94386759D01*
X147829680Y-94151727D01*
X147937853Y-93890574D01*
X147993000Y-93613335D01*
X147993000Y-93330665D01*
X147937853Y-93053426D01*
X147829680Y-92792273D01*
X147672637Y-92557241D01*
X147472759Y-92357363D01*
X147443000Y-92337479D01*
X147443000Y-87800465D01*
X147447281Y-87756999D01*
X147443000Y-87713533D01*
X147443000Y-87713523D01*
X147430195Y-87583510D01*
X147379589Y-87416687D01*
X147297411Y-87262941D01*
X147261538Y-87219230D01*
X147214532Y-87161953D01*
X147214530Y-87161951D01*
X147186817Y-87128183D01*
X147153049Y-87100470D01*
X146903072Y-86850493D01*
X146903072Y-85764000D01*
X146890812Y-85639518D01*
X146854502Y-85519820D01*
X146795537Y-85409506D01*
X146716185Y-85312815D01*
X146619494Y-85233463D01*
X146509180Y-85174498D01*
X146436620Y-85152487D01*
X146568475Y-85020632D01*
X146730990Y-84777411D01*
X146842932Y-84507158D01*
X146900000Y-84220260D01*
X146900000Y-83927740D01*
X146842932Y-83640842D01*
X146730990Y-83370589D01*
X146568475Y-83127368D01*
X146361632Y-82920525D01*
X146187240Y-82804000D01*
X146361632Y-82687475D01*
X146568475Y-82480632D01*
X146730990Y-82237411D01*
X146842932Y-81967158D01*
X146900000Y-81680260D01*
X146900000Y-81387740D01*
X146842932Y-81100842D01*
X146730990Y-80830589D01*
X146568475Y-80587368D01*
X146361632Y-80380525D01*
X146118411Y-80218010D01*
X145848158Y-80106068D01*
X145561260Y-80049000D01*
X145268740Y-80049000D01*
X144981842Y-80106068D01*
X144711589Y-80218010D01*
X144468368Y-80380525D01*
X144395000Y-80453893D01*
X144395000Y-78416656D01*
X144456632Y-78375475D01*
X144588487Y-78243620D01*
X144610498Y-78316180D01*
X144669463Y-78426494D01*
X144748815Y-78523185D01*
X144845506Y-78602537D01*
X144955820Y-78661502D01*
X145075518Y-78697812D01*
X145200000Y-78710072D01*
X145764250Y-78707000D01*
X145923000Y-78548250D01*
X145923000Y-77349000D01*
X146177000Y-77349000D01*
X146177000Y-78548250D01*
X146335750Y-78707000D01*
X146900000Y-78710072D01*
X147024482Y-78697812D01*
X147144180Y-78661502D01*
X147254494Y-78602537D01*
X147351185Y-78523185D01*
X147430537Y-78426494D01*
X147489502Y-78316180D01*
X147525812Y-78196482D01*
X147538072Y-78072000D01*
X147535000Y-77507750D01*
X147376250Y-77349000D01*
X146177000Y-77349000D01*
X145923000Y-77349000D01*
X145903000Y-77349000D01*
X145903000Y-77095000D01*
X145923000Y-77095000D01*
X145923000Y-77075000D01*
X146177000Y-77075000D01*
X146177000Y-77095000D01*
X147376250Y-77095000D01*
X147535000Y-76936250D01*
X147538072Y-76372000D01*
X147525812Y-76247518D01*
X147489502Y-76127820D01*
X147430537Y-76017506D01*
X147351185Y-75920815D01*
X147254494Y-75841463D01*
X147148861Y-75785000D01*
X151965042Y-75785000D01*
X152745857Y-75854686D01*
G04 #@! TA.AperFunction,Conductor*
D29*
G36*
X152745857Y-75854686D02*
G01*
X153468144Y-76052281D01*
X154144017Y-76374656D01*
X154752127Y-76811626D01*
X155273247Y-77349380D01*
X155690897Y-77970909D01*
X155991887Y-78656583D01*
X156168146Y-79390752D01*
X156215000Y-80028786D01*
X156215001Y-114965031D01*
X156145314Y-115745857D01*
X155947718Y-116468148D01*
X155625345Y-117144017D01*
X155188371Y-117752130D01*
X154650620Y-118273247D01*
X154029091Y-118690897D01*
X153343414Y-118991888D01*
X152752821Y-119133677D01*
X152806759Y-119097637D01*
X153006637Y-118897759D01*
X153163680Y-118662727D01*
X153271853Y-118401574D01*
X153327000Y-118124335D01*
X153327000Y-117841665D01*
X153271853Y-117564426D01*
X153163680Y-117303273D01*
X153006637Y-117068241D01*
X152806759Y-116868363D01*
X152571727Y-116711320D01*
X152310574Y-116603147D01*
X152033335Y-116548000D01*
X151750665Y-116548000D01*
X151473426Y-116603147D01*
X151212273Y-116711320D01*
X150977241Y-116868363D01*
X150931591Y-116914013D01*
X146808464Y-112790886D01*
X146924665Y-112814000D01*
X147207335Y-112814000D01*
X147484574Y-112758853D01*
X147745727Y-112650680D01*
X147980759Y-112493637D01*
X148180637Y-112293759D01*
X148337680Y-112058727D01*
X148445853Y-111797574D01*
X148501000Y-111520335D01*
X148501000Y-111237665D01*
X148477886Y-111121464D01*
X148812983Y-111456561D01*
X148806000Y-111491665D01*
X148806000Y-111774335D01*
X148861147Y-112051574D01*
X148969320Y-112312727D01*
X149126363Y-112547759D01*
X149326241Y-112747637D01*
X149561273Y-112904680D01*
X149822426Y-113012853D01*
X150099665Y-113068000D01*
X150382335Y-113068000D01*
X150417439Y-113061017D01*
X151007001Y-113650580D01*
X151007001Y-113673478D01*
X150977241Y-113693363D01*
X150777363Y-113893241D01*
X150620320Y-114128273D01*
X150512147Y-114389426D01*
X150457000Y-114666665D01*
X150457000Y-114949335D01*
X150512147Y-115226574D01*
X150620320Y-115487727D01*
X150777363Y-115722759D01*
X150977241Y-115922637D01*
X151212273Y-116079680D01*
X151473426Y-116187853D01*
X151750665Y-116243000D01*
X152033335Y-116243000D01*
X152310574Y-116187853D01*
X152571727Y-116079680D01*
X152806759Y-115922637D01*
X153006637Y-115722759D01*
X153163680Y-115487727D01*
X153271853Y-115226574D01*
X153327000Y-114949335D01*
X153327000Y-114666665D01*
X153271853Y-114389426D01*
X153163680Y-114128273D01*
X153006637Y-113893241D01*
X152806759Y-113693363D01*
X152777000Y-113673479D01*
X152777000Y-113327469D01*
X152781281Y-113284000D01*
X152777000Y-113240531D01*
X152777000Y-113240523D01*
X152764195Y-113110510D01*
X152739618Y-113029491D01*
X152713589Y-112943686D01*
X152631411Y-112789941D01*
X152548532Y-112688953D01*
X152548530Y-112688951D01*
X152520817Y-112655183D01*
X152487049Y-112627470D01*
X151669017Y-111809439D01*
X151676000Y-111774335D01*
X151676000Y-111491665D01*
X151620853Y-111214426D01*
X151512680Y-110953273D01*
X151355637Y-110718241D01*
X151155759Y-110518363D01*
X150920727Y-110361320D01*
X150659574Y-110253147D01*
X150382335Y-110198000D01*
X150099665Y-110198000D01*
X150064561Y-110204983D01*
X148865534Y-109005956D01*
X148837817Y-108972183D01*
X148703059Y-108861589D01*
X148549313Y-108779411D01*
X148382490Y-108728805D01*
X148252477Y-108716000D01*
X148252469Y-108716000D01*
X148209000Y-108711719D01*
X148165531Y-108716000D01*
X145485057Y-108716000D01*
X145604212Y-108618212D01*
X145749171Y-108441579D01*
X145856885Y-108240059D01*
X145923215Y-108021399D01*
X145940000Y-107850978D01*
X145940000Y-107287021D01*
X145923215Y-107116600D01*
X145856885Y-106897940D01*
X145749171Y-106696421D01*
X145665000Y-106593858D01*
X145665000Y-105776578D01*
X146381561Y-105060017D01*
X146416665Y-105067000D01*
X146699335Y-105067000D01*
X146976574Y-105011853D01*
X147237727Y-104903680D01*
X147472759Y-104746637D01*
X147672637Y-104546759D01*
X147829680Y-104311727D01*
X147937853Y-104050574D01*
X147993000Y-103773335D01*
X147993000Y-103490665D01*
X147937853Y-103213426D01*
X147829680Y-102952273D01*
X147672637Y-102717241D01*
X147472759Y-102517363D01*
X147237727Y-102360320D01*
X146976574Y-102252147D01*
X146699335Y-102197000D01*
X146416665Y-102197000D01*
X146139426Y-102252147D01*
X145985489Y-102315910D01*
X145001244Y-101331665D01*
X148806000Y-101331665D01*
X148806000Y-101614335D01*
X148861147Y-101891574D01*
X148969320Y-102152727D01*
X149126363Y-102387759D01*
X149326241Y-102587637D01*
X149561273Y-102744680D01*
X149822426Y-102852853D01*
X150099665Y-102908000D01*
X150382335Y-102908000D01*
X150659574Y-102852853D01*
X150920727Y-102744680D01*
X151155759Y-102587637D01*
X151355637Y-102387759D01*
X151512680Y-102152727D01*
X151620853Y-101891574D01*
X151676000Y-101614335D01*
X151676000Y-101331665D01*
X151620853Y-101054426D01*
X151512680Y-100793273D01*
X151355637Y-100558241D01*
X151155759Y-100358363D01*
X150920727Y-100201320D01*
X150659574Y-100093147D01*
X150382335Y-100038000D01*
X150099665Y-100038000D01*
X149822426Y-100093147D01*
X149561273Y-100201320D01*
X149326241Y-100358363D01*
X149126363Y-100558241D01*
X148969320Y-100793273D01*
X148861147Y-101054426D01*
X148806000Y-101331665D01*
X145001244Y-101331665D01*
X144938017Y-101268439D01*
X144945000Y-101233335D01*
X144945000Y-100950665D01*
X144889853Y-100673426D01*
X144781680Y-100412273D01*
X144624637Y-100177241D01*
X144424759Y-99977363D01*
X144189727Y-99820320D01*
X143928574Y-99712147D01*
X143651335Y-99657000D01*
X143368665Y-99657000D01*
X143091426Y-99712147D01*
X142830273Y-99820320D01*
X142595241Y-99977363D01*
X142395363Y-100177241D01*
X142238320Y-100412273D01*
X142130147Y-100673426D01*
X142075000Y-100950665D01*
X142075000Y-101233335D01*
X142130147Y-101510574D01*
X142238320Y-101771727D01*
X142395363Y-102006759D01*
X142595241Y-102206637D01*
X142830273Y-102363680D01*
X143091426Y-102471853D01*
X143368665Y-102527000D01*
X143651335Y-102527000D01*
X143686439Y-102520017D01*
X145052421Y-103886000D01*
X144184951Y-104753471D01*
X144151184Y-104781183D01*
X144123471Y-104814951D01*
X144123468Y-104814954D01*
X144040590Y-104915941D01*
X143958412Y-105069687D01*
X143907805Y-105236510D01*
X143890719Y-105410000D01*
X143895001Y-105453479D01*
X143895001Y-106248593D01*
X143737399Y-106200785D01*
X143510000Y-106178388D01*
X143282600Y-106200785D01*
X143073902Y-106264093D01*
X143009180Y-106229498D01*
X142889482Y-106193188D01*
X142765000Y-106180928D01*
X141715000Y-106180928D01*
X141590518Y-106193188D01*
X141470820Y-106229498D01*
X141360506Y-106288463D01*
X141263815Y-106367815D01*
X141184463Y-106464506D01*
X141125498Y-106574820D01*
X141089188Y-106694518D01*
X141076928Y-106819000D01*
X141076928Y-108319000D01*
X141089188Y-108443482D01*
X141125498Y-108563180D01*
X141184463Y-108673494D01*
X141219347Y-108716000D01*
X140320579Y-108716000D01*
X140112017Y-108507439D01*
X140119000Y-108472335D01*
X140119000Y-108189665D01*
X140063853Y-107912426D01*
X139955680Y-107651273D01*
X139798637Y-107416241D01*
X139598759Y-107216363D01*
X139569000Y-107196479D01*
X139569000Y-105146464D01*
X139573281Y-105102997D01*
X139569000Y-105059531D01*
X139569000Y-105059521D01*
X139556195Y-104929508D01*
X139505589Y-104762685D01*
X139439335Y-104638731D01*
X139547241Y-104746637D01*
X139782273Y-104903680D01*
X140043426Y-105011853D01*
X140320665Y-105067000D01*
X140603335Y-105067000D01*
X140880574Y-105011853D01*
X141141727Y-104903680D01*
X141376759Y-104746637D01*
X141576637Y-104546759D01*
X141733680Y-104311727D01*
X141841853Y-104050574D01*
X141897000Y-103773335D01*
X141897000Y-103490665D01*
X141841853Y-103213426D01*
X141733680Y-102952273D01*
X141576637Y-102717241D01*
X141376759Y-102517363D01*
X141347000Y-102497479D01*
X141347000Y-99299578D01*
X142245578Y-98401000D01*
X150261928Y-98401000D01*
X150274188Y-98525482D01*
X150310498Y-98645180D01*
X150369463Y-98755494D01*
X150448815Y-98852185D01*
X150545506Y-98931537D01*
X150655820Y-98990502D01*
X150775518Y-99026812D01*
X150900000Y-99039072D01*
X152114250Y-99036000D01*
X152273000Y-98877250D01*
X152273000Y-97028000D01*
X152527000Y-97028000D01*
X152527000Y-98877250D01*
X152685750Y-99036000D01*
X153900000Y-99039072D01*
X154024482Y-99026812D01*
X154144180Y-98990502D01*
X154254494Y-98931537D01*
X154351185Y-98852185D01*
X154430537Y-98755494D01*
X154489502Y-98645180D01*
X154525812Y-98525482D01*
X154538072Y-98401000D01*
X154535000Y-97186750D01*
X154376250Y-97028000D01*
X152527000Y-97028000D01*
X152273000Y-97028000D01*
X150423750Y-97028000D01*
X150265000Y-97186750D01*
X150261928Y-98401000D01*
X142245578Y-98401000D01*
X144105050Y-96541529D01*
X144138817Y-96513817D01*
X144249411Y-96379059D01*
X144331589Y-96225313D01*
X144382195Y-96058490D01*
X144395000Y-95928477D01*
X144395000Y-95928469D01*
X144399281Y-95885000D01*
X144395000Y-95841531D01*
X144395000Y-95735579D01*
X145774470Y-97115049D01*
X145802183Y-97148817D01*
X145835951Y-97176530D01*
X145835953Y-97176532D01*
X145862235Y-97198101D01*
X145936941Y-97259411D01*
X146090687Y-97341589D01*
X146257510Y-97392195D01*
X146387523Y-97405000D01*
X146387531Y-97405000D01*
X146431000Y-97409281D01*
X146474469Y-97405000D01*
X147530531Y-97405000D01*
X147574000Y-97409281D01*
X147617469Y-97405000D01*
X147617477Y-97405000D01*
X147747490Y-97392195D01*
X147914313Y-97341589D01*
X148068059Y-97259411D01*
X148202817Y-97148817D01*
X148230534Y-97115044D01*
X149820050Y-95525529D01*
X149853817Y-95497817D01*
X149886897Y-95457510D01*
X149933273Y-95401000D01*
X150261928Y-95401000D01*
X150265000Y-96615250D01*
X150423750Y-96774000D01*
X152273000Y-96774000D01*
X152273000Y-94924750D01*
X152527000Y-94924750D01*
X152527000Y-96774000D01*
X154376250Y-96774000D01*
X154535000Y-96615250D01*
X154538072Y-95401000D01*
X154525812Y-95276518D01*
X154489502Y-95156820D01*
X154430537Y-95046506D01*
X154351185Y-94949815D01*
X154254494Y-94870463D01*
X154144180Y-94811498D01*
X154024482Y-94775188D01*
X153900000Y-94762928D01*
X152685750Y-94766000D01*
X152527000Y-94924750D01*
X152273000Y-94924750D01*
X152114250Y-94766000D01*
X150900000Y-94762928D01*
X150775518Y-94775188D01*
X150655820Y-94811498D01*
X150545506Y-94870463D01*
X150448815Y-94949815D01*
X150369463Y-95046506D01*
X150310498Y-95156820D01*
X150274188Y-95276518D01*
X150261928Y-95401000D01*
X149933273Y-95401000D01*
X149964411Y-95363059D01*
X150046589Y-95209314D01*
X150097195Y-95042490D01*
X150097195Y-95042489D01*
X150110000Y-94912477D01*
X150110000Y-94912469D01*
X150114281Y-94869000D01*
X150110000Y-94825531D01*
X150110000Y-93312653D01*
X151087952Y-93312653D01*
X151243962Y-93628214D01*
X151618745Y-93819020D01*
X152023551Y-93933044D01*
X152442824Y-93965902D01*
X152860451Y-93916334D01*
X153260383Y-93786243D01*
X153556038Y-93628214D01*
X153712048Y-93312653D01*
X152400000Y-92000605D01*
X151087952Y-93312653D01*
X150110000Y-93312653D01*
X150110000Y-91863824D01*
X150255098Y-91863824D01*
X150304666Y-92281451D01*
X150434757Y-92681383D01*
X150592786Y-92977038D01*
X150908347Y-93133048D01*
X152220395Y-91821000D01*
X152579605Y-91821000D01*
X153891653Y-93133048D01*
X154207214Y-92977038D01*
X154398020Y-92602255D01*
X154512044Y-92197449D01*
X154544902Y-91778176D01*
X154495334Y-91360549D01*
X154365243Y-90960617D01*
X154207214Y-90664962D01*
X153891653Y-90508952D01*
X152579605Y-91821000D01*
X152220395Y-91821000D01*
X150908347Y-90508952D01*
X150592786Y-90664962D01*
X150401980Y-91039745D01*
X150287956Y-91444551D01*
X150255098Y-91863824D01*
X150110000Y-91863824D01*
X150110000Y-90329347D01*
X151087952Y-90329347D01*
X152400000Y-91641395D01*
X153712048Y-90329347D01*
X153556038Y-90013786D01*
X153181255Y-89822980D01*
X152776449Y-89708956D01*
X152357176Y-89676098D01*
X151939549Y-89725666D01*
X151539617Y-89855757D01*
X151243962Y-90013786D01*
X151087952Y-90329347D01*
X150110000Y-90329347D01*
X150110000Y-86530721D01*
X150265000Y-86530721D01*
X150265000Y-86951279D01*
X150347047Y-87363756D01*
X150507988Y-87752302D01*
X150741637Y-88101983D01*
X151039017Y-88399363D01*
X151388698Y-88633012D01*
X151777244Y-88793953D01*
X152189721Y-88876000D01*
X152610279Y-88876000D01*
X153022756Y-88793953D01*
X153411302Y-88633012D01*
X153760983Y-88399363D01*
X154058363Y-88101983D01*
X154292012Y-87752302D01*
X154452953Y-87363756D01*
X154535000Y-86951279D01*
X154535000Y-86530721D01*
X154452953Y-86118244D01*
X154292012Y-85729698D01*
X154058363Y-85380017D01*
X153760983Y-85082637D01*
X153411302Y-84848988D01*
X153022756Y-84688047D01*
X152610279Y-84606000D01*
X152189721Y-84606000D01*
X151777244Y-84688047D01*
X151388698Y-84848988D01*
X151039017Y-85082637D01*
X150741637Y-85380017D01*
X150507988Y-85729698D01*
X150347047Y-86118244D01*
X150265000Y-86530721D01*
X150110000Y-86530721D01*
X150110000Y-85202578D01*
X151650942Y-83661637D01*
X151777244Y-83713953D01*
X152189721Y-83796000D01*
X152610279Y-83796000D01*
X153022756Y-83713953D01*
X153411302Y-83553012D01*
X153760983Y-83319363D01*
X154058363Y-83021983D01*
X154292012Y-82672302D01*
X154452953Y-82283756D01*
X154535000Y-81871279D01*
X154535000Y-81450721D01*
X154452953Y-81038244D01*
X154292012Y-80649698D01*
X154058363Y-80300017D01*
X153760983Y-80002637D01*
X153411302Y-79768988D01*
X153022756Y-79608047D01*
X152610279Y-79526000D01*
X152189721Y-79526000D01*
X151777244Y-79608047D01*
X151388698Y-79768988D01*
X151039017Y-80002637D01*
X150741637Y-80300017D01*
X150507988Y-80649698D01*
X150347047Y-81038244D01*
X150265000Y-81450721D01*
X150265000Y-81871279D01*
X150347047Y-82283756D01*
X150399363Y-82410058D01*
X148629951Y-84179471D01*
X148596184Y-84207183D01*
X148568471Y-84240951D01*
X148568468Y-84240954D01*
X148485590Y-84341941D01*
X148403412Y-84495687D01*
X148352805Y-84662510D01*
X148335719Y-84836000D01*
X148340001Y-84879479D01*
X148340000Y-94502421D01*
X147207422Y-95635000D01*
X146797579Y-95635000D01*
X145926047Y-94763469D01*
X146139426Y-94851853D01*
X146416665Y-94907000D01*
X146699335Y-94907000D01*
X146976574Y-94851853D01*
X147237727Y-94743680D01*
X147472759Y-94586637D01*
X147672637Y-94386759D01*
X147829680Y-94151727D01*
X147937853Y-93890574D01*
X147993000Y-93613335D01*
X147993000Y-93330665D01*
X147937853Y-93053426D01*
X147829680Y-92792273D01*
X147672637Y-92557241D01*
X147472759Y-92357363D01*
X147443000Y-92337479D01*
X147443000Y-87800465D01*
X147447281Y-87756999D01*
X147443000Y-87713533D01*
X147443000Y-87713523D01*
X147430195Y-87583510D01*
X147379589Y-87416687D01*
X147297411Y-87262941D01*
X147261538Y-87219230D01*
X147214532Y-87161953D01*
X147214530Y-87161951D01*
X147186817Y-87128183D01*
X147153049Y-87100470D01*
X146903072Y-86850493D01*
X146903072Y-85764000D01*
X146890812Y-85639518D01*
X146854502Y-85519820D01*
X146795537Y-85409506D01*
X146716185Y-85312815D01*
X146619494Y-85233463D01*
X146509180Y-85174498D01*
X146436620Y-85152487D01*
X146568475Y-85020632D01*
X146730990Y-84777411D01*
X146842932Y-84507158D01*
X146900000Y-84220260D01*
X146900000Y-83927740D01*
X146842932Y-83640842D01*
X146730990Y-83370589D01*
X146568475Y-83127368D01*
X146361632Y-82920525D01*
X146187240Y-82804000D01*
X146361632Y-82687475D01*
X146568475Y-82480632D01*
X146730990Y-82237411D01*
X146842932Y-81967158D01*
X146900000Y-81680260D01*
X146900000Y-81387740D01*
X146842932Y-81100842D01*
X146730990Y-80830589D01*
X146568475Y-80587368D01*
X146361632Y-80380525D01*
X146118411Y-80218010D01*
X145848158Y-80106068D01*
X145561260Y-80049000D01*
X145268740Y-80049000D01*
X144981842Y-80106068D01*
X144711589Y-80218010D01*
X144468368Y-80380525D01*
X144395000Y-80453893D01*
X144395000Y-78416656D01*
X144456632Y-78375475D01*
X144588487Y-78243620D01*
X144610498Y-78316180D01*
X144669463Y-78426494D01*
X144748815Y-78523185D01*
X144845506Y-78602537D01*
X144955820Y-78661502D01*
X145075518Y-78697812D01*
X145200000Y-78710072D01*
X145764250Y-78707000D01*
X145923000Y-78548250D01*
X145923000Y-77349000D01*
X146177000Y-77349000D01*
X146177000Y-78548250D01*
X146335750Y-78707000D01*
X146900000Y-78710072D01*
X147024482Y-78697812D01*
X147144180Y-78661502D01*
X147254494Y-78602537D01*
X147351185Y-78523185D01*
X147430537Y-78426494D01*
X147489502Y-78316180D01*
X147525812Y-78196482D01*
X147538072Y-78072000D01*
X147535000Y-77507750D01*
X147376250Y-77349000D01*
X146177000Y-77349000D01*
X145923000Y-77349000D01*
X145903000Y-77349000D01*
X145903000Y-77095000D01*
X145923000Y-77095000D01*
X145923000Y-77075000D01*
X146177000Y-77075000D01*
X146177000Y-77095000D01*
X147376250Y-77095000D01*
X147535000Y-76936250D01*
X147538072Y-76372000D01*
X147525812Y-76247518D01*
X147489502Y-76127820D01*
X147430537Y-76017506D01*
X147351185Y-75920815D01*
X147254494Y-75841463D01*
X147148861Y-75785000D01*
X151965042Y-75785000D01*
X152745857Y-75854686D01*
G37*
G04 #@! TD.AperFunction*
D28*
X91545470Y-103846049D02*
X91573183Y-103879817D01*
X91606951Y-103907530D01*
X91606953Y-103907532D01*
X91707941Y-103990411D01*
X91861686Y-104072589D01*
X91996221Y-104113400D01*
X92028510Y-104123195D01*
X92158523Y-104136000D01*
X92158531Y-104136000D01*
X92202000Y-104140281D01*
X92245469Y-104136000D01*
X96235546Y-104136000D01*
X96283744Y-104168205D01*
X96472102Y-104246226D01*
X96672061Y-104286000D01*
X96875939Y-104286000D01*
X96905000Y-104280219D01*
X96905000Y-104916421D01*
X91454422Y-110367000D01*
X78844578Y-110367000D01*
X80772050Y-108439529D01*
X80805817Y-108411817D01*
X80836462Y-108374477D01*
X80916411Y-108277059D01*
X80962913Y-108190058D01*
X80998589Y-108123313D01*
X81049195Y-107956490D01*
X81062000Y-107826477D01*
X81062000Y-107826469D01*
X81066281Y-107783000D01*
X81062000Y-107739531D01*
X81062000Y-98670521D01*
X81091759Y-98650637D01*
X81258339Y-98484057D01*
X81287498Y-98580180D01*
X81346463Y-98690494D01*
X81425815Y-98787185D01*
X81522506Y-98866537D01*
X81632820Y-98925502D01*
X81752518Y-98961812D01*
X81877000Y-98974072D01*
X83477000Y-98974072D01*
X83601482Y-98961812D01*
X83721180Y-98925502D01*
X83831494Y-98866537D01*
X83928185Y-98787185D01*
X84007537Y-98690494D01*
X84066502Y-98580180D01*
X84102812Y-98460482D01*
X84106701Y-98421000D01*
X86120422Y-98421000D01*
X91545470Y-103846049D01*
G04 #@! TA.AperFunction,Conductor*
D29*
G36*
X91545470Y-103846049D02*
G01*
X91573183Y-103879817D01*
X91606951Y-103907530D01*
X91606953Y-103907532D01*
X91707941Y-103990411D01*
X91861686Y-104072589D01*
X91996221Y-104113400D01*
X92028510Y-104123195D01*
X92158523Y-104136000D01*
X92158531Y-104136000D01*
X92202000Y-104140281D01*
X92245469Y-104136000D01*
X96235546Y-104136000D01*
X96283744Y-104168205D01*
X96472102Y-104246226D01*
X96672061Y-104286000D01*
X96875939Y-104286000D01*
X96905000Y-104280219D01*
X96905000Y-104916421D01*
X91454422Y-110367000D01*
X78844578Y-110367000D01*
X80772050Y-108439529D01*
X80805817Y-108411817D01*
X80836462Y-108374477D01*
X80916411Y-108277059D01*
X80962913Y-108190058D01*
X80998589Y-108123313D01*
X81049195Y-107956490D01*
X81062000Y-107826477D01*
X81062000Y-107826469D01*
X81066281Y-107783000D01*
X81062000Y-107739531D01*
X81062000Y-98670521D01*
X81091759Y-98650637D01*
X81258339Y-98484057D01*
X81287498Y-98580180D01*
X81346463Y-98690494D01*
X81425815Y-98787185D01*
X81522506Y-98866537D01*
X81632820Y-98925502D01*
X81752518Y-98961812D01*
X81877000Y-98974072D01*
X83477000Y-98974072D01*
X83601482Y-98961812D01*
X83721180Y-98925502D01*
X83831494Y-98866537D01*
X83928185Y-98787185D01*
X84007537Y-98690494D01*
X84066502Y-98580180D01*
X84102812Y-98460482D01*
X84106701Y-98421000D01*
X86120422Y-98421000D01*
X91545470Y-103846049D01*
G37*
G04 #@! TD.AperFunction*
D28*
X70737320Y-87674727D02*
X70894363Y-87909759D01*
X71094241Y-88109637D01*
X71329273Y-88266680D01*
X71590426Y-88374853D01*
X71867665Y-88430000D01*
X72150335Y-88430000D01*
X72185439Y-88423017D01*
X73765470Y-90003049D01*
X73793183Y-90036817D01*
X73826951Y-90064530D01*
X73826953Y-90064532D01*
X73851817Y-90084937D01*
X73927941Y-90147411D01*
X74081687Y-90229589D01*
X74248510Y-90280195D01*
X74378523Y-90293000D01*
X74378533Y-90293000D01*
X74421999Y-90297281D01*
X74465465Y-90293000D01*
X78834299Y-90293000D01*
X78838188Y-90332482D01*
X78874498Y-90452180D01*
X78933463Y-90562494D01*
X79012815Y-90659185D01*
X79109506Y-90738537D01*
X79219820Y-90797502D01*
X79339518Y-90833812D01*
X79464000Y-90846072D01*
X80450494Y-90846072D01*
X81766470Y-92162049D01*
X81794183Y-92195817D01*
X81827951Y-92223530D01*
X81827953Y-92223532D01*
X81883857Y-92269411D01*
X81928941Y-92306411D01*
X82082687Y-92388589D01*
X82249510Y-92439195D01*
X82379523Y-92452000D01*
X82379533Y-92452000D01*
X82422999Y-92456281D01*
X82466466Y-92452000D01*
X96972182Y-92452000D01*
X96872795Y-92600744D01*
X96794774Y-92789102D01*
X96755000Y-92989061D01*
X96755000Y-93192939D01*
X96794774Y-93392898D01*
X96872795Y-93581256D01*
X96905001Y-93629456D01*
X96905000Y-102221781D01*
X96875939Y-102216000D01*
X96672061Y-102216000D01*
X96472102Y-102255774D01*
X96283744Y-102333795D01*
X96235546Y-102366000D01*
X92568579Y-102366000D01*
X87143534Y-96940956D01*
X87115817Y-96907183D01*
X86981059Y-96796589D01*
X86827313Y-96714411D01*
X86660490Y-96663805D01*
X86530477Y-96651000D01*
X86530469Y-96651000D01*
X86487000Y-96646719D01*
X86443531Y-96651000D01*
X84106701Y-96651000D01*
X84102812Y-96611518D01*
X84066502Y-96491820D01*
X84007537Y-96381506D01*
X83928185Y-96284815D01*
X83831494Y-96205463D01*
X83721180Y-96146498D01*
X83601482Y-96110188D01*
X83477000Y-96097928D01*
X81877000Y-96097928D01*
X81752518Y-96110188D01*
X81632820Y-96146498D01*
X81522506Y-96205463D01*
X81425815Y-96284815D01*
X81346463Y-96381506D01*
X81287498Y-96491820D01*
X81258339Y-96587943D01*
X81091759Y-96421363D01*
X80856727Y-96264320D01*
X80595574Y-96156147D01*
X80318335Y-96101000D01*
X80035665Y-96101000D01*
X79758426Y-96156147D01*
X79497273Y-96264320D01*
X79262241Y-96421363D01*
X79062363Y-96621241D01*
X78905320Y-96856273D01*
X78797147Y-97117426D01*
X78742000Y-97394665D01*
X78742000Y-97677335D01*
X78797147Y-97954574D01*
X78905320Y-98215727D01*
X79062363Y-98450759D01*
X79262241Y-98650637D01*
X79292001Y-98670522D01*
X79292000Y-107416421D01*
X77484422Y-109224000D01*
X71740579Y-109224000D01*
X71250048Y-108733469D01*
X71463426Y-108821853D01*
X71740665Y-108877000D01*
X72023335Y-108877000D01*
X72300574Y-108821853D01*
X72561727Y-108713680D01*
X72796759Y-108556637D01*
X72996637Y-108356759D01*
X73153680Y-108121727D01*
X73261853Y-107860574D01*
X73317000Y-107583335D01*
X73317000Y-107300665D01*
X73261853Y-107023426D01*
X73153680Y-106762273D01*
X72996637Y-106527241D01*
X72796759Y-106327363D01*
X72767000Y-106307479D01*
X72767000Y-105834469D01*
X72771281Y-105791000D01*
X72767000Y-105747531D01*
X72767000Y-105747523D01*
X72754195Y-105617510D01*
X72703589Y-105450687D01*
X72621411Y-105296941D01*
X72604626Y-105276488D01*
X72538532Y-105195953D01*
X72538530Y-105195951D01*
X72510817Y-105162183D01*
X72477049Y-105134470D01*
X70862000Y-103519422D01*
X70862000Y-98214465D01*
X70866281Y-98170999D01*
X70862000Y-98127533D01*
X70862000Y-98127523D01*
X70849732Y-98002964D01*
X70894363Y-98069759D01*
X71094241Y-98269637D01*
X71329273Y-98426680D01*
X71590426Y-98534853D01*
X71867665Y-98590000D01*
X72150335Y-98590000D01*
X72427574Y-98534853D01*
X72688727Y-98426680D01*
X72923759Y-98269637D01*
X73123637Y-98069759D01*
X73143521Y-98040000D01*
X74303479Y-98040000D01*
X74323363Y-98069759D01*
X74523241Y-98269637D01*
X74553000Y-98289521D01*
X74553001Y-101349362D01*
X74487059Y-101314115D01*
X74268399Y-101247785D01*
X74041000Y-101225388D01*
X73813600Y-101247785D01*
X73604902Y-101311093D01*
X73540180Y-101276498D01*
X73420482Y-101240188D01*
X73296000Y-101227928D01*
X72246000Y-101227928D01*
X72121518Y-101240188D01*
X72001820Y-101276498D01*
X71891506Y-101335463D01*
X71794815Y-101414815D01*
X71715463Y-101511506D01*
X71656498Y-101621820D01*
X71620188Y-101741518D01*
X71607928Y-101866000D01*
X71607928Y-103366000D01*
X71620188Y-103490482D01*
X71656498Y-103610180D01*
X71715463Y-103720494D01*
X71794815Y-103817185D01*
X71891506Y-103896537D01*
X72001820Y-103955502D01*
X72121518Y-103991812D01*
X72246000Y-104004072D01*
X73156000Y-104004072D01*
X73156000Y-104557531D01*
X73151719Y-104601000D01*
X73156000Y-104644469D01*
X73156000Y-104644476D01*
X73164176Y-104727489D01*
X73168805Y-104774490D01*
X73182149Y-104818477D01*
X73219411Y-104941312D01*
X73301589Y-105095058D01*
X73412183Y-105229817D01*
X73445956Y-105257534D01*
X75453983Y-107265561D01*
X75447000Y-107300665D01*
X75447000Y-107583335D01*
X75502147Y-107860574D01*
X75610320Y-108121727D01*
X75767363Y-108356759D01*
X75967241Y-108556637D01*
X76202273Y-108713680D01*
X76463426Y-108821853D01*
X76740665Y-108877000D01*
X77023335Y-108877000D01*
X77300574Y-108821853D01*
X77561727Y-108713680D01*
X77796759Y-108556637D01*
X77996637Y-108356759D01*
X78153680Y-108121727D01*
X78261853Y-107860574D01*
X78317000Y-107583335D01*
X78317000Y-107300665D01*
X78261853Y-107023426D01*
X78153680Y-106762273D01*
X77996637Y-106527241D01*
X77796759Y-106327363D01*
X77767000Y-106307479D01*
X77767000Y-92927465D01*
X77771281Y-92883999D01*
X77767000Y-92840533D01*
X77767000Y-92840523D01*
X77754195Y-92710510D01*
X77703589Y-92543687D01*
X77621411Y-92389941D01*
X77552859Y-92306411D01*
X77538532Y-92288953D01*
X77538530Y-92288951D01*
X77510817Y-92255183D01*
X77477049Y-92227470D01*
X76444535Y-91194957D01*
X76433226Y-91138102D01*
X76355205Y-90949744D01*
X76241937Y-90780226D01*
X76097774Y-90636063D01*
X75928256Y-90522795D01*
X75739898Y-90444774D01*
X75539939Y-90405000D01*
X75336061Y-90405000D01*
X75136102Y-90444774D01*
X74947744Y-90522795D01*
X74778226Y-90636063D01*
X74634063Y-90780226D01*
X74520795Y-90949744D01*
X74442774Y-91138102D01*
X74403000Y-91338061D01*
X74403000Y-91541939D01*
X74442774Y-91741898D01*
X74520795Y-91930256D01*
X74634063Y-92099774D01*
X74778226Y-92243937D01*
X74947744Y-92357205D01*
X75136102Y-92435226D01*
X75192957Y-92446535D01*
X75997001Y-93250580D01*
X75997001Y-95833314D01*
X75856574Y-95775147D01*
X75579335Y-95720000D01*
X75296665Y-95720000D01*
X75019426Y-95775147D01*
X74758273Y-95883320D01*
X74523241Y-96040363D01*
X74323363Y-96240241D01*
X74303479Y-96270000D01*
X73143521Y-96270000D01*
X73123637Y-96240241D01*
X72923759Y-96040363D01*
X72894000Y-96020479D01*
X72894000Y-93261466D01*
X72898281Y-93217999D01*
X72894000Y-93174533D01*
X72894000Y-93174523D01*
X72881195Y-93044510D01*
X72830589Y-92877687D01*
X72748411Y-92723941D01*
X72705784Y-92672000D01*
X72665532Y-92622953D01*
X72665530Y-92622951D01*
X72637817Y-92589183D01*
X72604049Y-92561470D01*
X70735000Y-90692422D01*
X70735000Y-87669126D01*
X70737320Y-87674727D01*
G04 #@! TA.AperFunction,Conductor*
D29*
G36*
X70737320Y-87674727D02*
G01*
X70894363Y-87909759D01*
X71094241Y-88109637D01*
X71329273Y-88266680D01*
X71590426Y-88374853D01*
X71867665Y-88430000D01*
X72150335Y-88430000D01*
X72185439Y-88423017D01*
X73765470Y-90003049D01*
X73793183Y-90036817D01*
X73826951Y-90064530D01*
X73826953Y-90064532D01*
X73851817Y-90084937D01*
X73927941Y-90147411D01*
X74081687Y-90229589D01*
X74248510Y-90280195D01*
X74378523Y-90293000D01*
X74378533Y-90293000D01*
X74421999Y-90297281D01*
X74465465Y-90293000D01*
X78834299Y-90293000D01*
X78838188Y-90332482D01*
X78874498Y-90452180D01*
X78933463Y-90562494D01*
X79012815Y-90659185D01*
X79109506Y-90738537D01*
X79219820Y-90797502D01*
X79339518Y-90833812D01*
X79464000Y-90846072D01*
X80450494Y-90846072D01*
X81766470Y-92162049D01*
X81794183Y-92195817D01*
X81827951Y-92223530D01*
X81827953Y-92223532D01*
X81883857Y-92269411D01*
X81928941Y-92306411D01*
X82082687Y-92388589D01*
X82249510Y-92439195D01*
X82379523Y-92452000D01*
X82379533Y-92452000D01*
X82422999Y-92456281D01*
X82466466Y-92452000D01*
X96972182Y-92452000D01*
X96872795Y-92600744D01*
X96794774Y-92789102D01*
X96755000Y-92989061D01*
X96755000Y-93192939D01*
X96794774Y-93392898D01*
X96872795Y-93581256D01*
X96905001Y-93629456D01*
X96905000Y-102221781D01*
X96875939Y-102216000D01*
X96672061Y-102216000D01*
X96472102Y-102255774D01*
X96283744Y-102333795D01*
X96235546Y-102366000D01*
X92568579Y-102366000D01*
X87143534Y-96940956D01*
X87115817Y-96907183D01*
X86981059Y-96796589D01*
X86827313Y-96714411D01*
X86660490Y-96663805D01*
X86530477Y-96651000D01*
X86530469Y-96651000D01*
X86487000Y-96646719D01*
X86443531Y-96651000D01*
X84106701Y-96651000D01*
X84102812Y-96611518D01*
X84066502Y-96491820D01*
X84007537Y-96381506D01*
X83928185Y-96284815D01*
X83831494Y-96205463D01*
X83721180Y-96146498D01*
X83601482Y-96110188D01*
X83477000Y-96097928D01*
X81877000Y-96097928D01*
X81752518Y-96110188D01*
X81632820Y-96146498D01*
X81522506Y-96205463D01*
X81425815Y-96284815D01*
X81346463Y-96381506D01*
X81287498Y-96491820D01*
X81258339Y-96587943D01*
X81091759Y-96421363D01*
X80856727Y-96264320D01*
X80595574Y-96156147D01*
X80318335Y-96101000D01*
X80035665Y-96101000D01*
X79758426Y-96156147D01*
X79497273Y-96264320D01*
X79262241Y-96421363D01*
X79062363Y-96621241D01*
X78905320Y-96856273D01*
X78797147Y-97117426D01*
X78742000Y-97394665D01*
X78742000Y-97677335D01*
X78797147Y-97954574D01*
X78905320Y-98215727D01*
X79062363Y-98450759D01*
X79262241Y-98650637D01*
X79292001Y-98670522D01*
X79292000Y-107416421D01*
X77484422Y-109224000D01*
X71740579Y-109224000D01*
X71250048Y-108733469D01*
X71463426Y-108821853D01*
X71740665Y-108877000D01*
X72023335Y-108877000D01*
X72300574Y-108821853D01*
X72561727Y-108713680D01*
X72796759Y-108556637D01*
X72996637Y-108356759D01*
X73153680Y-108121727D01*
X73261853Y-107860574D01*
X73317000Y-107583335D01*
X73317000Y-107300665D01*
X73261853Y-107023426D01*
X73153680Y-106762273D01*
X72996637Y-106527241D01*
X72796759Y-106327363D01*
X72767000Y-106307479D01*
X72767000Y-105834469D01*
X72771281Y-105791000D01*
X72767000Y-105747531D01*
X72767000Y-105747523D01*
X72754195Y-105617510D01*
X72703589Y-105450687D01*
X72621411Y-105296941D01*
X72604626Y-105276488D01*
X72538532Y-105195953D01*
X72538530Y-105195951D01*
X72510817Y-105162183D01*
X72477049Y-105134470D01*
X70862000Y-103519422D01*
X70862000Y-98214465D01*
X70866281Y-98170999D01*
X70862000Y-98127533D01*
X70862000Y-98127523D01*
X70849732Y-98002964D01*
X70894363Y-98069759D01*
X71094241Y-98269637D01*
X71329273Y-98426680D01*
X71590426Y-98534853D01*
X71867665Y-98590000D01*
X72150335Y-98590000D01*
X72427574Y-98534853D01*
X72688727Y-98426680D01*
X72923759Y-98269637D01*
X73123637Y-98069759D01*
X73143521Y-98040000D01*
X74303479Y-98040000D01*
X74323363Y-98069759D01*
X74523241Y-98269637D01*
X74553000Y-98289521D01*
X74553001Y-101349362D01*
X74487059Y-101314115D01*
X74268399Y-101247785D01*
X74041000Y-101225388D01*
X73813600Y-101247785D01*
X73604902Y-101311093D01*
X73540180Y-101276498D01*
X73420482Y-101240188D01*
X73296000Y-101227928D01*
X72246000Y-101227928D01*
X72121518Y-101240188D01*
X72001820Y-101276498D01*
X71891506Y-101335463D01*
X71794815Y-101414815D01*
X71715463Y-101511506D01*
X71656498Y-101621820D01*
X71620188Y-101741518D01*
X71607928Y-101866000D01*
X71607928Y-103366000D01*
X71620188Y-103490482D01*
X71656498Y-103610180D01*
X71715463Y-103720494D01*
X71794815Y-103817185D01*
X71891506Y-103896537D01*
X72001820Y-103955502D01*
X72121518Y-103991812D01*
X72246000Y-104004072D01*
X73156000Y-104004072D01*
X73156000Y-104557531D01*
X73151719Y-104601000D01*
X73156000Y-104644469D01*
X73156000Y-104644476D01*
X73164176Y-104727489D01*
X73168805Y-104774490D01*
X73182149Y-104818477D01*
X73219411Y-104941312D01*
X73301589Y-105095058D01*
X73412183Y-105229817D01*
X73445956Y-105257534D01*
X75453983Y-107265561D01*
X75447000Y-107300665D01*
X75447000Y-107583335D01*
X75502147Y-107860574D01*
X75610320Y-108121727D01*
X75767363Y-108356759D01*
X75967241Y-108556637D01*
X76202273Y-108713680D01*
X76463426Y-108821853D01*
X76740665Y-108877000D01*
X77023335Y-108877000D01*
X77300574Y-108821853D01*
X77561727Y-108713680D01*
X77796759Y-108556637D01*
X77996637Y-108356759D01*
X78153680Y-108121727D01*
X78261853Y-107860574D01*
X78317000Y-107583335D01*
X78317000Y-107300665D01*
X78261853Y-107023426D01*
X78153680Y-106762273D01*
X77996637Y-106527241D01*
X77796759Y-106327363D01*
X77767000Y-106307479D01*
X77767000Y-92927465D01*
X77771281Y-92883999D01*
X77767000Y-92840533D01*
X77767000Y-92840523D01*
X77754195Y-92710510D01*
X77703589Y-92543687D01*
X77621411Y-92389941D01*
X77552859Y-92306411D01*
X77538532Y-92288953D01*
X77538530Y-92288951D01*
X77510817Y-92255183D01*
X77477049Y-92227470D01*
X76444535Y-91194957D01*
X76433226Y-91138102D01*
X76355205Y-90949744D01*
X76241937Y-90780226D01*
X76097774Y-90636063D01*
X75928256Y-90522795D01*
X75739898Y-90444774D01*
X75539939Y-90405000D01*
X75336061Y-90405000D01*
X75136102Y-90444774D01*
X74947744Y-90522795D01*
X74778226Y-90636063D01*
X74634063Y-90780226D01*
X74520795Y-90949744D01*
X74442774Y-91138102D01*
X74403000Y-91338061D01*
X74403000Y-91541939D01*
X74442774Y-91741898D01*
X74520795Y-91930256D01*
X74634063Y-92099774D01*
X74778226Y-92243937D01*
X74947744Y-92357205D01*
X75136102Y-92435226D01*
X75192957Y-92446535D01*
X75997001Y-93250580D01*
X75997001Y-95833314D01*
X75856574Y-95775147D01*
X75579335Y-95720000D01*
X75296665Y-95720000D01*
X75019426Y-95775147D01*
X74758273Y-95883320D01*
X74523241Y-96040363D01*
X74323363Y-96240241D01*
X74303479Y-96270000D01*
X73143521Y-96270000D01*
X73123637Y-96240241D01*
X72923759Y-96040363D01*
X72894000Y-96020479D01*
X72894000Y-93261466D01*
X72898281Y-93217999D01*
X72894000Y-93174533D01*
X72894000Y-93174523D01*
X72881195Y-93044510D01*
X72830589Y-92877687D01*
X72748411Y-92723941D01*
X72705784Y-92672000D01*
X72665532Y-92622953D01*
X72665530Y-92622951D01*
X72637817Y-92589183D01*
X72604049Y-92561470D01*
X70735000Y-90692422D01*
X70735000Y-87669126D01*
X70737320Y-87674727D01*
G37*
G04 #@! TD.AperFunction*
D28*
X123315320Y-88220273D02*
X123207147Y-88481426D01*
X123152000Y-88758665D01*
X123152000Y-89041335D01*
X123207147Y-89318574D01*
X123315320Y-89579727D01*
X123472363Y-89814759D01*
X123672241Y-90014637D01*
X123796001Y-90097330D01*
X123796000Y-91589422D01*
X122797534Y-90590956D01*
X122769817Y-90557183D01*
X122635059Y-90446589D01*
X122481313Y-90364411D01*
X122314490Y-90313805D01*
X122184477Y-90301000D01*
X122184469Y-90301000D01*
X122141000Y-90296719D01*
X122097531Y-90301000D01*
X117137465Y-90301000D01*
X117093999Y-90296719D01*
X117050533Y-90301000D01*
X117050523Y-90301000D01*
X116920510Y-90313805D01*
X116753687Y-90364411D01*
X116599941Y-90446589D01*
X116570818Y-90470490D01*
X116498953Y-90529468D01*
X116498951Y-90529470D01*
X116465183Y-90557183D01*
X116437470Y-90590951D01*
X114212951Y-92815471D01*
X114179184Y-92843183D01*
X114151471Y-92876951D01*
X114151468Y-92876954D01*
X114068590Y-92977941D01*
X113986412Y-93131687D01*
X113935805Y-93298510D01*
X113918719Y-93472000D01*
X113923001Y-93515476D01*
X113923000Y-97290479D01*
X113893241Y-97310363D01*
X113693363Y-97510241D01*
X113536320Y-97745273D01*
X113534000Y-97750874D01*
X113534000Y-88939126D01*
X113536320Y-88944727D01*
X113693363Y-89179759D01*
X113893241Y-89379637D01*
X114128273Y-89536680D01*
X114389426Y-89644853D01*
X114666665Y-89700000D01*
X114949335Y-89700000D01*
X115226574Y-89644853D01*
X115487727Y-89536680D01*
X115722759Y-89379637D01*
X115922637Y-89179759D01*
X115942521Y-89150000D01*
X116892532Y-89150000D01*
X116965320Y-89325727D01*
X117122363Y-89560759D01*
X117322241Y-89760637D01*
X117557273Y-89917680D01*
X117818426Y-90025853D01*
X118095665Y-90081000D01*
X118378335Y-90081000D01*
X118655574Y-90025853D01*
X118916727Y-89917680D01*
X119151759Y-89760637D01*
X119351637Y-89560759D01*
X119371521Y-89531000D01*
X120987531Y-89531000D01*
X121031000Y-89535281D01*
X121074469Y-89531000D01*
X121074477Y-89531000D01*
X121204490Y-89518195D01*
X121371313Y-89467589D01*
X121442341Y-89429624D01*
X121524665Y-89446000D01*
X121807335Y-89446000D01*
X122084574Y-89390853D01*
X122345727Y-89282680D01*
X122580759Y-89125637D01*
X122780637Y-88925759D01*
X122937680Y-88690727D01*
X123045853Y-88429574D01*
X123101000Y-88152335D01*
X123101000Y-88096001D01*
X123398356Y-88096001D01*
X123315320Y-88220273D01*
G04 #@! TA.AperFunction,Conductor*
D29*
G36*
X123315320Y-88220273D02*
G01*
X123207147Y-88481426D01*
X123152000Y-88758665D01*
X123152000Y-89041335D01*
X123207147Y-89318574D01*
X123315320Y-89579727D01*
X123472363Y-89814759D01*
X123672241Y-90014637D01*
X123796001Y-90097330D01*
X123796000Y-91589422D01*
X122797534Y-90590956D01*
X122769817Y-90557183D01*
X122635059Y-90446589D01*
X122481313Y-90364411D01*
X122314490Y-90313805D01*
X122184477Y-90301000D01*
X122184469Y-90301000D01*
X122141000Y-90296719D01*
X122097531Y-90301000D01*
X117137465Y-90301000D01*
X117093999Y-90296719D01*
X117050533Y-90301000D01*
X117050523Y-90301000D01*
X116920510Y-90313805D01*
X116753687Y-90364411D01*
X116599941Y-90446589D01*
X116570818Y-90470490D01*
X116498953Y-90529468D01*
X116498951Y-90529470D01*
X116465183Y-90557183D01*
X116437470Y-90590951D01*
X114212951Y-92815471D01*
X114179184Y-92843183D01*
X114151471Y-92876951D01*
X114151468Y-92876954D01*
X114068590Y-92977941D01*
X113986412Y-93131687D01*
X113935805Y-93298510D01*
X113918719Y-93472000D01*
X113923001Y-93515476D01*
X113923000Y-97290479D01*
X113893241Y-97310363D01*
X113693363Y-97510241D01*
X113536320Y-97745273D01*
X113534000Y-97750874D01*
X113534000Y-88939126D01*
X113536320Y-88944727D01*
X113693363Y-89179759D01*
X113893241Y-89379637D01*
X114128273Y-89536680D01*
X114389426Y-89644853D01*
X114666665Y-89700000D01*
X114949335Y-89700000D01*
X115226574Y-89644853D01*
X115487727Y-89536680D01*
X115722759Y-89379637D01*
X115922637Y-89179759D01*
X115942521Y-89150000D01*
X116892532Y-89150000D01*
X116965320Y-89325727D01*
X117122363Y-89560759D01*
X117322241Y-89760637D01*
X117557273Y-89917680D01*
X117818426Y-90025853D01*
X118095665Y-90081000D01*
X118378335Y-90081000D01*
X118655574Y-90025853D01*
X118916727Y-89917680D01*
X119151759Y-89760637D01*
X119351637Y-89560759D01*
X119371521Y-89531000D01*
X120987531Y-89531000D01*
X121031000Y-89535281D01*
X121074469Y-89531000D01*
X121074477Y-89531000D01*
X121204490Y-89518195D01*
X121371313Y-89467589D01*
X121442341Y-89429624D01*
X121524665Y-89446000D01*
X121807335Y-89446000D01*
X122084574Y-89390853D01*
X122345727Y-89282680D01*
X122580759Y-89125637D01*
X122780637Y-88925759D01*
X122937680Y-88690727D01*
X123045853Y-88429574D01*
X123101000Y-88152335D01*
X123101000Y-88096001D01*
X123398356Y-88096001D01*
X123315320Y-88220273D01*
G37*
G04 #@! TD.AperFunction*
D28*
X103650000Y-81387740D02*
X103650000Y-81680260D01*
X103707068Y-81967158D01*
X103819010Y-82237411D01*
X103981525Y-82480632D01*
X104188368Y-82687475D01*
X104362760Y-82804000D01*
X104188368Y-82920525D01*
X103981525Y-83127368D01*
X103819010Y-83370589D01*
X103707068Y-83640842D01*
X103650000Y-83927740D01*
X103650000Y-84220260D01*
X103707068Y-84507158D01*
X103819010Y-84777411D01*
X103981525Y-85020632D01*
X104113380Y-85152487D01*
X104040820Y-85174498D01*
X103930506Y-85233463D01*
X103833815Y-85312815D01*
X103754463Y-85409506D01*
X103695498Y-85519820D01*
X103659188Y-85639518D01*
X103646928Y-85764000D01*
X103646928Y-87464000D01*
X103659188Y-87588482D01*
X103695498Y-87708180D01*
X103754463Y-87818494D01*
X103833815Y-87915185D01*
X103930506Y-87994537D01*
X104040820Y-88053502D01*
X104160518Y-88089812D01*
X104285000Y-88102072D01*
X105985000Y-88102072D01*
X106109482Y-88089812D01*
X106229180Y-88053502D01*
X106339494Y-87994537D01*
X106436185Y-87915185D01*
X106515537Y-87818494D01*
X106574502Y-87708180D01*
X106610812Y-87588482D01*
X106623072Y-87464000D01*
X106623072Y-86377506D01*
X107529050Y-85471529D01*
X107533077Y-85468224D01*
X107505498Y-85519820D01*
X107469188Y-85639518D01*
X107456928Y-85764000D01*
X107456928Y-87464000D01*
X107469188Y-87588482D01*
X107505498Y-87708180D01*
X107564463Y-87818494D01*
X107643815Y-87915185D01*
X107740506Y-87994537D01*
X107850820Y-88053502D01*
X107970518Y-88089812D01*
X108095000Y-88102072D01*
X109097001Y-88102072D01*
X109097001Y-89149831D01*
X109034411Y-89108010D01*
X108764158Y-88996068D01*
X108477260Y-88939000D01*
X108184740Y-88939000D01*
X107897842Y-88996068D01*
X107627589Y-89108010D01*
X107384368Y-89270525D01*
X107252513Y-89402380D01*
X107230502Y-89329820D01*
X107171537Y-89219506D01*
X107092185Y-89122815D01*
X106995494Y-89043463D01*
X106885180Y-88984498D01*
X106765482Y-88948188D01*
X106641000Y-88935928D01*
X104941000Y-88935928D01*
X104816518Y-88948188D01*
X104696820Y-88984498D01*
X104586506Y-89043463D01*
X104489815Y-89122815D01*
X104410463Y-89219506D01*
X104351498Y-89329820D01*
X104315188Y-89449518D01*
X104306375Y-89539000D01*
X102786465Y-89539000D01*
X102742999Y-89534719D01*
X102699533Y-89539000D01*
X102699523Y-89539000D01*
X102569510Y-89551805D01*
X102402687Y-89602411D01*
X102248941Y-89684589D01*
X102248939Y-89684590D01*
X102248940Y-89684590D01*
X102147953Y-89767468D01*
X102147951Y-89767470D01*
X102114183Y-89795183D01*
X102086470Y-89828951D01*
X100577676Y-91337746D01*
X100563226Y-91265102D01*
X100485205Y-91076744D01*
X100371937Y-90907226D01*
X100227774Y-90763063D01*
X100058256Y-90649795D01*
X99869898Y-90571774D01*
X99669939Y-90532000D01*
X99466061Y-90532000D01*
X99266102Y-90571774D01*
X99077744Y-90649795D01*
X99029546Y-90682000D01*
X83438126Y-90682000D01*
X83443727Y-90679680D01*
X83678759Y-90522637D01*
X83878637Y-90322759D01*
X84035680Y-90087727D01*
X84143853Y-89826574D01*
X84199000Y-89549335D01*
X84199000Y-89266665D01*
X84143853Y-88989426D01*
X84035680Y-88728273D01*
X83878637Y-88493241D01*
X83678759Y-88293363D01*
X83443727Y-88136320D01*
X83182574Y-88028147D01*
X82905335Y-87973000D01*
X82622665Y-87973000D01*
X82345426Y-88028147D01*
X82084273Y-88136320D01*
X81849241Y-88293363D01*
X81682661Y-88459943D01*
X81653502Y-88363820D01*
X81594537Y-88253506D01*
X81515185Y-88156815D01*
X81418494Y-88077463D01*
X81308180Y-88018498D01*
X81188482Y-87982188D01*
X81064000Y-87969928D01*
X79464000Y-87969928D01*
X79339518Y-87982188D01*
X79219820Y-88018498D01*
X79109506Y-88077463D01*
X79012815Y-88156815D01*
X78933463Y-88253506D01*
X78874498Y-88363820D01*
X78838188Y-88483518D01*
X78834299Y-88523000D01*
X74788579Y-88523000D01*
X73437017Y-87171439D01*
X73444000Y-87136335D01*
X73444000Y-86853665D01*
X73388853Y-86576426D01*
X73280680Y-86315273D01*
X73123637Y-86080241D01*
X72923759Y-85880363D01*
X72688727Y-85723320D01*
X72539480Y-85661500D01*
X72688727Y-85599680D01*
X72923759Y-85442637D01*
X73123637Y-85242759D01*
X73280680Y-85007727D01*
X73388853Y-84746574D01*
X73444000Y-84469335D01*
X73444000Y-84440665D01*
X73749000Y-84440665D01*
X73749000Y-84723335D01*
X73804147Y-85000574D01*
X73912320Y-85261727D01*
X74069363Y-85496759D01*
X74269241Y-85696637D01*
X74504273Y-85853680D01*
X74540634Y-85868741D01*
X74523241Y-85880363D01*
X74323363Y-86080241D01*
X74166320Y-86315273D01*
X74058147Y-86576426D01*
X74003000Y-86853665D01*
X74003000Y-87136335D01*
X74058147Y-87413574D01*
X74166320Y-87674727D01*
X74323363Y-87909759D01*
X74523241Y-88109637D01*
X74758273Y-88266680D01*
X75019426Y-88374853D01*
X75296665Y-88430000D01*
X75579335Y-88430000D01*
X75856574Y-88374853D01*
X76117727Y-88266680D01*
X76352759Y-88109637D01*
X76552637Y-87909759D01*
X76709680Y-87674727D01*
X76817853Y-87413574D01*
X76873000Y-87136335D01*
X76873000Y-86853665D01*
X76820693Y-86590702D01*
X95786903Y-86590702D01*
X95858486Y-86834671D01*
X96113996Y-86955571D01*
X96388184Y-87024300D01*
X96670512Y-87038217D01*
X96950130Y-86996787D01*
X97216292Y-86901603D01*
X97341514Y-86834671D01*
X97413097Y-86590702D01*
X96600000Y-85777605D01*
X95786903Y-86590702D01*
X76820693Y-86590702D01*
X76817853Y-86576426D01*
X76709680Y-86315273D01*
X76552637Y-86080241D01*
X76352759Y-85880363D01*
X76117727Y-85723320D01*
X76081366Y-85708259D01*
X76098759Y-85696637D01*
X76298637Y-85496759D01*
X76455680Y-85261727D01*
X76539928Y-85058334D01*
X76539928Y-85382000D01*
X76552188Y-85506482D01*
X76588498Y-85626180D01*
X76647463Y-85736494D01*
X76726815Y-85833185D01*
X76823506Y-85912537D01*
X76933820Y-85971502D01*
X77053518Y-86007812D01*
X77178000Y-86020072D01*
X78778000Y-86020072D01*
X78902482Y-86007812D01*
X79022180Y-85971502D01*
X79132494Y-85912537D01*
X79229185Y-85833185D01*
X79308537Y-85736494D01*
X79344874Y-85668512D01*
X95159783Y-85668512D01*
X95201213Y-85948130D01*
X95296397Y-86214292D01*
X95363329Y-86339514D01*
X95607298Y-86411097D01*
X96420395Y-85598000D01*
X96779605Y-85598000D01*
X97592702Y-86411097D01*
X97836671Y-86339514D01*
X97957571Y-86084004D01*
X98026300Y-85809816D01*
X98040217Y-85527488D01*
X97998787Y-85247870D01*
X97903603Y-84981708D01*
X97836671Y-84856486D01*
X97592702Y-84784903D01*
X96779605Y-85598000D01*
X96420395Y-85598000D01*
X95607298Y-84784903D01*
X95363329Y-84856486D01*
X95242429Y-85111996D01*
X95173700Y-85386184D01*
X95159783Y-85668512D01*
X79344874Y-85668512D01*
X79367502Y-85626180D01*
X79403812Y-85506482D01*
X79416072Y-85382000D01*
X79416072Y-84605298D01*
X95786903Y-84605298D01*
X96600000Y-85418395D01*
X97413097Y-84605298D01*
X97341514Y-84361329D01*
X97086004Y-84240429D01*
X96811816Y-84171700D01*
X96529488Y-84157783D01*
X96249870Y-84199213D01*
X95983708Y-84294397D01*
X95858486Y-84361329D01*
X95786903Y-84605298D01*
X79416072Y-84605298D01*
X79416072Y-83782000D01*
X79403812Y-83657518D01*
X79367502Y-83537820D01*
X79308537Y-83427506D01*
X79229185Y-83330815D01*
X79132494Y-83251463D01*
X79022180Y-83192498D01*
X78902482Y-83156188D01*
X78778000Y-83143928D01*
X77178000Y-83143928D01*
X77053518Y-83156188D01*
X76933820Y-83192498D01*
X76823506Y-83251463D01*
X76726815Y-83330815D01*
X76647463Y-83427506D01*
X76588498Y-83537820D01*
X76552188Y-83657518D01*
X76539928Y-83782000D01*
X76539928Y-84105666D01*
X76455680Y-83902273D01*
X76298637Y-83667241D01*
X76098759Y-83467363D01*
X75863727Y-83310320D01*
X75602574Y-83202147D01*
X75325335Y-83147000D01*
X75042665Y-83147000D01*
X74765426Y-83202147D01*
X74504273Y-83310320D01*
X74269241Y-83467363D01*
X74069363Y-83667241D01*
X73912320Y-83902273D01*
X73804147Y-84163426D01*
X73749000Y-84440665D01*
X73444000Y-84440665D01*
X73444000Y-84186665D01*
X73388853Y-83909426D01*
X73280680Y-83648273D01*
X73123637Y-83413241D01*
X72923759Y-83213363D01*
X72688727Y-83056320D01*
X72683126Y-83054000D01*
X99624289Y-83054000D01*
X99670226Y-83099937D01*
X99839744Y-83213205D01*
X100028102Y-83291226D01*
X100228061Y-83331000D01*
X100431939Y-83331000D01*
X100631898Y-83291226D01*
X100715001Y-83256803D01*
X100715000Y-84463478D01*
X100685241Y-84483363D01*
X100485363Y-84683241D01*
X100328320Y-84918273D01*
X100220147Y-85179426D01*
X100165000Y-85456665D01*
X100165000Y-85739335D01*
X100220147Y-86016574D01*
X100328320Y-86277727D01*
X100485363Y-86512759D01*
X100685241Y-86712637D01*
X100920273Y-86869680D01*
X101181426Y-86977853D01*
X101458665Y-87033000D01*
X101741335Y-87033000D01*
X102018574Y-86977853D01*
X102279727Y-86869680D01*
X102514759Y-86712637D01*
X102714637Y-86512759D01*
X102871680Y-86277727D01*
X102979853Y-86016574D01*
X103035000Y-85739335D01*
X103035000Y-85456665D01*
X102979853Y-85179426D01*
X102871680Y-84918273D01*
X102714637Y-84683241D01*
X102514759Y-84483363D01*
X102485000Y-84463479D01*
X102485000Y-82535578D01*
X103654261Y-81366317D01*
X103650000Y-81387740D01*
G04 #@! TA.AperFunction,Conductor*
D29*
G36*
X103650000Y-81387740D02*
G01*
X103650000Y-81680260D01*
X103707068Y-81967158D01*
X103819010Y-82237411D01*
X103981525Y-82480632D01*
X104188368Y-82687475D01*
X104362760Y-82804000D01*
X104188368Y-82920525D01*
X103981525Y-83127368D01*
X103819010Y-83370589D01*
X103707068Y-83640842D01*
X103650000Y-83927740D01*
X103650000Y-84220260D01*
X103707068Y-84507158D01*
X103819010Y-84777411D01*
X103981525Y-85020632D01*
X104113380Y-85152487D01*
X104040820Y-85174498D01*
X103930506Y-85233463D01*
X103833815Y-85312815D01*
X103754463Y-85409506D01*
X103695498Y-85519820D01*
X103659188Y-85639518D01*
X103646928Y-85764000D01*
X103646928Y-87464000D01*
X103659188Y-87588482D01*
X103695498Y-87708180D01*
X103754463Y-87818494D01*
X103833815Y-87915185D01*
X103930506Y-87994537D01*
X104040820Y-88053502D01*
X104160518Y-88089812D01*
X104285000Y-88102072D01*
X105985000Y-88102072D01*
X106109482Y-88089812D01*
X106229180Y-88053502D01*
X106339494Y-87994537D01*
X106436185Y-87915185D01*
X106515537Y-87818494D01*
X106574502Y-87708180D01*
X106610812Y-87588482D01*
X106623072Y-87464000D01*
X106623072Y-86377506D01*
X107529050Y-85471529D01*
X107533077Y-85468224D01*
X107505498Y-85519820D01*
X107469188Y-85639518D01*
X107456928Y-85764000D01*
X107456928Y-87464000D01*
X107469188Y-87588482D01*
X107505498Y-87708180D01*
X107564463Y-87818494D01*
X107643815Y-87915185D01*
X107740506Y-87994537D01*
X107850820Y-88053502D01*
X107970518Y-88089812D01*
X108095000Y-88102072D01*
X109097001Y-88102072D01*
X109097001Y-89149831D01*
X109034411Y-89108010D01*
X108764158Y-88996068D01*
X108477260Y-88939000D01*
X108184740Y-88939000D01*
X107897842Y-88996068D01*
X107627589Y-89108010D01*
X107384368Y-89270525D01*
X107252513Y-89402380D01*
X107230502Y-89329820D01*
X107171537Y-89219506D01*
X107092185Y-89122815D01*
X106995494Y-89043463D01*
X106885180Y-88984498D01*
X106765482Y-88948188D01*
X106641000Y-88935928D01*
X104941000Y-88935928D01*
X104816518Y-88948188D01*
X104696820Y-88984498D01*
X104586506Y-89043463D01*
X104489815Y-89122815D01*
X104410463Y-89219506D01*
X104351498Y-89329820D01*
X104315188Y-89449518D01*
X104306375Y-89539000D01*
X102786465Y-89539000D01*
X102742999Y-89534719D01*
X102699533Y-89539000D01*
X102699523Y-89539000D01*
X102569510Y-89551805D01*
X102402687Y-89602411D01*
X102248941Y-89684589D01*
X102248939Y-89684590D01*
X102248940Y-89684590D01*
X102147953Y-89767468D01*
X102147951Y-89767470D01*
X102114183Y-89795183D01*
X102086470Y-89828951D01*
X100577676Y-91337746D01*
X100563226Y-91265102D01*
X100485205Y-91076744D01*
X100371937Y-90907226D01*
X100227774Y-90763063D01*
X100058256Y-90649795D01*
X99869898Y-90571774D01*
X99669939Y-90532000D01*
X99466061Y-90532000D01*
X99266102Y-90571774D01*
X99077744Y-90649795D01*
X99029546Y-90682000D01*
X83438126Y-90682000D01*
X83443727Y-90679680D01*
X83678759Y-90522637D01*
X83878637Y-90322759D01*
X84035680Y-90087727D01*
X84143853Y-89826574D01*
X84199000Y-89549335D01*
X84199000Y-89266665D01*
X84143853Y-88989426D01*
X84035680Y-88728273D01*
X83878637Y-88493241D01*
X83678759Y-88293363D01*
X83443727Y-88136320D01*
X83182574Y-88028147D01*
X82905335Y-87973000D01*
X82622665Y-87973000D01*
X82345426Y-88028147D01*
X82084273Y-88136320D01*
X81849241Y-88293363D01*
X81682661Y-88459943D01*
X81653502Y-88363820D01*
X81594537Y-88253506D01*
X81515185Y-88156815D01*
X81418494Y-88077463D01*
X81308180Y-88018498D01*
X81188482Y-87982188D01*
X81064000Y-87969928D01*
X79464000Y-87969928D01*
X79339518Y-87982188D01*
X79219820Y-88018498D01*
X79109506Y-88077463D01*
X79012815Y-88156815D01*
X78933463Y-88253506D01*
X78874498Y-88363820D01*
X78838188Y-88483518D01*
X78834299Y-88523000D01*
X74788579Y-88523000D01*
X73437017Y-87171439D01*
X73444000Y-87136335D01*
X73444000Y-86853665D01*
X73388853Y-86576426D01*
X73280680Y-86315273D01*
X73123637Y-86080241D01*
X72923759Y-85880363D01*
X72688727Y-85723320D01*
X72539480Y-85661500D01*
X72688727Y-85599680D01*
X72923759Y-85442637D01*
X73123637Y-85242759D01*
X73280680Y-85007727D01*
X73388853Y-84746574D01*
X73444000Y-84469335D01*
X73444000Y-84440665D01*
X73749000Y-84440665D01*
X73749000Y-84723335D01*
X73804147Y-85000574D01*
X73912320Y-85261727D01*
X74069363Y-85496759D01*
X74269241Y-85696637D01*
X74504273Y-85853680D01*
X74540634Y-85868741D01*
X74523241Y-85880363D01*
X74323363Y-86080241D01*
X74166320Y-86315273D01*
X74058147Y-86576426D01*
X74003000Y-86853665D01*
X74003000Y-87136335D01*
X74058147Y-87413574D01*
X74166320Y-87674727D01*
X74323363Y-87909759D01*
X74523241Y-88109637D01*
X74758273Y-88266680D01*
X75019426Y-88374853D01*
X75296665Y-88430000D01*
X75579335Y-88430000D01*
X75856574Y-88374853D01*
X76117727Y-88266680D01*
X76352759Y-88109637D01*
X76552637Y-87909759D01*
X76709680Y-87674727D01*
X76817853Y-87413574D01*
X76873000Y-87136335D01*
X76873000Y-86853665D01*
X76820693Y-86590702D01*
X95786903Y-86590702D01*
X95858486Y-86834671D01*
X96113996Y-86955571D01*
X96388184Y-87024300D01*
X96670512Y-87038217D01*
X96950130Y-86996787D01*
X97216292Y-86901603D01*
X97341514Y-86834671D01*
X97413097Y-86590702D01*
X96600000Y-85777605D01*
X95786903Y-86590702D01*
X76820693Y-86590702D01*
X76817853Y-86576426D01*
X76709680Y-86315273D01*
X76552637Y-86080241D01*
X76352759Y-85880363D01*
X76117727Y-85723320D01*
X76081366Y-85708259D01*
X76098759Y-85696637D01*
X76298637Y-85496759D01*
X76455680Y-85261727D01*
X76539928Y-85058334D01*
X76539928Y-85382000D01*
X76552188Y-85506482D01*
X76588498Y-85626180D01*
X76647463Y-85736494D01*
X76726815Y-85833185D01*
X76823506Y-85912537D01*
X76933820Y-85971502D01*
X77053518Y-86007812D01*
X77178000Y-86020072D01*
X78778000Y-86020072D01*
X78902482Y-86007812D01*
X79022180Y-85971502D01*
X79132494Y-85912537D01*
X79229185Y-85833185D01*
X79308537Y-85736494D01*
X79344874Y-85668512D01*
X95159783Y-85668512D01*
X95201213Y-85948130D01*
X95296397Y-86214292D01*
X95363329Y-86339514D01*
X95607298Y-86411097D01*
X96420395Y-85598000D01*
X96779605Y-85598000D01*
X97592702Y-86411097D01*
X97836671Y-86339514D01*
X97957571Y-86084004D01*
X98026300Y-85809816D01*
X98040217Y-85527488D01*
X97998787Y-85247870D01*
X97903603Y-84981708D01*
X97836671Y-84856486D01*
X97592702Y-84784903D01*
X96779605Y-85598000D01*
X96420395Y-85598000D01*
X95607298Y-84784903D01*
X95363329Y-84856486D01*
X95242429Y-85111996D01*
X95173700Y-85386184D01*
X95159783Y-85668512D01*
X79344874Y-85668512D01*
X79367502Y-85626180D01*
X79403812Y-85506482D01*
X79416072Y-85382000D01*
X79416072Y-84605298D01*
X95786903Y-84605298D01*
X96600000Y-85418395D01*
X97413097Y-84605298D01*
X97341514Y-84361329D01*
X97086004Y-84240429D01*
X96811816Y-84171700D01*
X96529488Y-84157783D01*
X96249870Y-84199213D01*
X95983708Y-84294397D01*
X95858486Y-84361329D01*
X95786903Y-84605298D01*
X79416072Y-84605298D01*
X79416072Y-83782000D01*
X79403812Y-83657518D01*
X79367502Y-83537820D01*
X79308537Y-83427506D01*
X79229185Y-83330815D01*
X79132494Y-83251463D01*
X79022180Y-83192498D01*
X78902482Y-83156188D01*
X78778000Y-83143928D01*
X77178000Y-83143928D01*
X77053518Y-83156188D01*
X76933820Y-83192498D01*
X76823506Y-83251463D01*
X76726815Y-83330815D01*
X76647463Y-83427506D01*
X76588498Y-83537820D01*
X76552188Y-83657518D01*
X76539928Y-83782000D01*
X76539928Y-84105666D01*
X76455680Y-83902273D01*
X76298637Y-83667241D01*
X76098759Y-83467363D01*
X75863727Y-83310320D01*
X75602574Y-83202147D01*
X75325335Y-83147000D01*
X75042665Y-83147000D01*
X74765426Y-83202147D01*
X74504273Y-83310320D01*
X74269241Y-83467363D01*
X74069363Y-83667241D01*
X73912320Y-83902273D01*
X73804147Y-84163426D01*
X73749000Y-84440665D01*
X73444000Y-84440665D01*
X73444000Y-84186665D01*
X73388853Y-83909426D01*
X73280680Y-83648273D01*
X73123637Y-83413241D01*
X72923759Y-83213363D01*
X72688727Y-83056320D01*
X72683126Y-83054000D01*
X99624289Y-83054000D01*
X99670226Y-83099937D01*
X99839744Y-83213205D01*
X100028102Y-83291226D01*
X100228061Y-83331000D01*
X100431939Y-83331000D01*
X100631898Y-83291226D01*
X100715001Y-83256803D01*
X100715000Y-84463478D01*
X100685241Y-84483363D01*
X100485363Y-84683241D01*
X100328320Y-84918273D01*
X100220147Y-85179426D01*
X100165000Y-85456665D01*
X100165000Y-85739335D01*
X100220147Y-86016574D01*
X100328320Y-86277727D01*
X100485363Y-86512759D01*
X100685241Y-86712637D01*
X100920273Y-86869680D01*
X101181426Y-86977853D01*
X101458665Y-87033000D01*
X101741335Y-87033000D01*
X102018574Y-86977853D01*
X102279727Y-86869680D01*
X102514759Y-86712637D01*
X102714637Y-86512759D01*
X102871680Y-86277727D01*
X102979853Y-86016574D01*
X103035000Y-85739335D01*
X103035000Y-85456665D01*
X102979853Y-85179426D01*
X102871680Y-84918273D01*
X102714637Y-84683241D01*
X102514759Y-84483363D01*
X102485000Y-84463479D01*
X102485000Y-82535578D01*
X103654261Y-81366317D01*
X103650000Y-81387740D01*
G37*
G04 #@! TD.AperFunction*
D28*
X117052063Y-77367774D02*
X117196226Y-77511937D01*
X117365744Y-77625205D01*
X117554102Y-77703226D01*
X117754061Y-77743000D01*
X117957939Y-77743000D01*
X118157898Y-77703226D01*
X118346256Y-77625205D01*
X118394454Y-77593000D01*
X119176392Y-77593000D01*
X118985962Y-77694786D01*
X118829952Y-78010347D01*
X120142000Y-79322395D01*
X121454048Y-78010347D01*
X121298038Y-77694786D01*
X121098109Y-77593000D01*
X122061422Y-77593000D01*
X123083928Y-78615506D01*
X123083928Y-81002000D01*
X123096188Y-81126482D01*
X123132498Y-81246180D01*
X123191463Y-81356494D01*
X123270815Y-81453185D01*
X123367506Y-81532537D01*
X123477820Y-81591502D01*
X123597518Y-81627812D01*
X123722000Y-81640072D01*
X126722000Y-81640072D01*
X126846482Y-81627812D01*
X126966180Y-81591502D01*
X127076494Y-81532537D01*
X127173185Y-81453185D01*
X127252537Y-81356494D01*
X127311502Y-81246180D01*
X127347812Y-81126482D01*
X127360072Y-81002000D01*
X127360072Y-80993653D01*
X129624952Y-80993653D01*
X129780962Y-81309214D01*
X130155745Y-81500020D01*
X130560551Y-81614044D01*
X130979824Y-81646902D01*
X131397451Y-81597334D01*
X131797383Y-81467243D01*
X132093038Y-81309214D01*
X132249048Y-80993653D01*
X130937000Y-79681605D01*
X129624952Y-80993653D01*
X127360072Y-80993653D01*
X127360072Y-79885506D01*
X127700754Y-79544824D01*
X128792098Y-79544824D01*
X128841666Y-79962451D01*
X128971757Y-80362383D01*
X129129786Y-80658038D01*
X129445347Y-80814048D01*
X130757395Y-79502000D01*
X131116605Y-79502000D01*
X132428653Y-80814048D01*
X132744214Y-80658038D01*
X132935020Y-80283255D01*
X133049044Y-79878449D01*
X133081902Y-79459176D01*
X133032334Y-79041549D01*
X132902243Y-78641617D01*
X132744214Y-78345962D01*
X132428653Y-78189952D01*
X131116605Y-79502000D01*
X130757395Y-79502000D01*
X129445347Y-78189952D01*
X129129786Y-78345962D01*
X128938980Y-78720745D01*
X128824956Y-79125551D01*
X128792098Y-79544824D01*
X127700754Y-79544824D01*
X129779579Y-77466000D01*
X130294142Y-77466000D01*
X130076617Y-77536757D01*
X129780962Y-77694786D01*
X129624952Y-78010347D01*
X130937000Y-79322395D01*
X132249048Y-78010347D01*
X132093038Y-77694786D01*
X131718255Y-77503980D01*
X131583419Y-77466000D01*
X134172726Y-77466000D01*
X134162506Y-77471463D01*
X134065815Y-77550815D01*
X133986463Y-77647506D01*
X133927498Y-77757820D01*
X133891188Y-77877518D01*
X133878928Y-78002000D01*
X133878928Y-81002000D01*
X133891188Y-81126482D01*
X133927498Y-81246180D01*
X133986463Y-81356494D01*
X134065815Y-81453185D01*
X134162506Y-81532537D01*
X134272820Y-81591502D01*
X134392518Y-81627812D01*
X134517000Y-81640072D01*
X136903493Y-81640072D01*
X137291001Y-82027580D01*
X137291000Y-83848671D01*
X137070002Y-83996337D01*
X136828337Y-84238002D01*
X136638463Y-84522169D01*
X136507675Y-84837919D01*
X136441000Y-85173117D01*
X136441000Y-85514883D01*
X136476889Y-85695311D01*
X135403534Y-84621956D01*
X135375817Y-84588183D01*
X135241059Y-84477589D01*
X135087313Y-84395411D01*
X134920490Y-84344805D01*
X134790477Y-84332000D01*
X134790469Y-84332000D01*
X134747000Y-84327719D01*
X134703531Y-84332000D01*
X134269454Y-84332000D01*
X134221256Y-84299795D01*
X134032898Y-84221774D01*
X133976044Y-84210465D01*
X131847534Y-82081956D01*
X131819817Y-82048183D01*
X131685059Y-81937589D01*
X131531313Y-81855411D01*
X131364490Y-81804805D01*
X131234477Y-81792000D01*
X131234469Y-81792000D01*
X131191000Y-81787719D01*
X131147531Y-81792000D01*
X126928099Y-81792000D01*
X126884630Y-81787719D01*
X126841161Y-81792000D01*
X126841153Y-81792000D01*
X126711140Y-81804805D01*
X126544317Y-81855411D01*
X126508952Y-81874314D01*
X126390571Y-81937589D01*
X126289583Y-82020468D01*
X126289581Y-82020470D01*
X126255813Y-82048183D01*
X126228100Y-82081951D01*
X124753951Y-83556101D01*
X124720184Y-83583813D01*
X124692471Y-83617581D01*
X124692468Y-83617584D01*
X124609590Y-83718571D01*
X124527412Y-83872317D01*
X124476805Y-84039140D01*
X124459750Y-84212319D01*
X124434241Y-84229363D01*
X124234363Y-84429241D01*
X124077320Y-84664273D01*
X123969147Y-84925426D01*
X123914000Y-85202665D01*
X123914000Y-85485335D01*
X123969147Y-85762574D01*
X124077320Y-86023727D01*
X124234363Y-86258759D01*
X124301605Y-86326001D01*
X122509464Y-86326001D01*
X122465998Y-86321720D01*
X122422532Y-86326001D01*
X122422522Y-86326001D01*
X122292509Y-86338806D01*
X122125686Y-86389412D01*
X121971940Y-86471590D01*
X121971938Y-86471591D01*
X121971939Y-86471591D01*
X121870952Y-86554469D01*
X121870950Y-86554471D01*
X121837424Y-86581985D01*
X121807335Y-86576000D01*
X121524665Y-86576000D01*
X121247426Y-86631147D01*
X120986273Y-86739320D01*
X120751241Y-86896363D01*
X120551363Y-87096241D01*
X120394320Y-87331273D01*
X120286147Y-87592426D01*
X120252615Y-87761000D01*
X119371521Y-87761000D01*
X119351637Y-87731241D01*
X119151759Y-87531363D01*
X118916727Y-87374320D01*
X118655574Y-87266147D01*
X118378335Y-87211000D01*
X118095665Y-87211000D01*
X117818426Y-87266147D01*
X117557273Y-87374320D01*
X117548772Y-87380000D01*
X116903314Y-87380000D01*
X116953059Y-87353411D01*
X117087817Y-87242817D01*
X117115534Y-87209044D01*
X118324050Y-86000529D01*
X118357817Y-85972817D01*
X118468411Y-85838059D01*
X118550589Y-85684313D01*
X118601195Y-85517490D01*
X118614000Y-85387477D01*
X118614000Y-85387467D01*
X118618281Y-85344001D01*
X118614000Y-85300535D01*
X118614000Y-84117466D01*
X118618281Y-84073999D01*
X118614000Y-84030533D01*
X118614000Y-84030523D01*
X118601195Y-83900510D01*
X118550589Y-83733687D01*
X118468411Y-83579941D01*
X118408067Y-83506412D01*
X118385532Y-83478953D01*
X118385530Y-83478951D01*
X118357817Y-83445183D01*
X118324049Y-83417470D01*
X116998017Y-82091439D01*
X117005000Y-82056335D01*
X117005000Y-81773665D01*
X116949853Y-81496426D01*
X116841680Y-81235273D01*
X116684637Y-81000241D01*
X116678049Y-80993653D01*
X118829952Y-80993653D01*
X118985962Y-81309214D01*
X119360745Y-81500020D01*
X119765551Y-81614044D01*
X120184824Y-81646902D01*
X120602451Y-81597334D01*
X121002383Y-81467243D01*
X121298038Y-81309214D01*
X121454048Y-80993653D01*
X120142000Y-79681605D01*
X118829952Y-80993653D01*
X116678049Y-80993653D01*
X116484759Y-80800363D01*
X116249727Y-80643320D01*
X115988574Y-80535147D01*
X115711335Y-80480000D01*
X115428665Y-80480000D01*
X115151426Y-80535147D01*
X114890273Y-80643320D01*
X114655241Y-80800363D01*
X114455363Y-81000241D01*
X114298320Y-81235273D01*
X114190147Y-81496426D01*
X114135000Y-81773665D01*
X114135000Y-82056335D01*
X114190147Y-82333574D01*
X114298320Y-82594727D01*
X114455363Y-82829759D01*
X114655241Y-83029637D01*
X114890273Y-83186680D01*
X115151426Y-83294853D01*
X115428665Y-83350000D01*
X115711335Y-83350000D01*
X115746439Y-83343017D01*
X116844001Y-84440580D01*
X116844000Y-84977421D01*
X116623130Y-85198291D01*
X116568853Y-84925426D01*
X116460680Y-84664273D01*
X116303637Y-84429241D01*
X116103759Y-84229363D01*
X115868727Y-84072320D01*
X115607574Y-83964147D01*
X115330335Y-83909000D01*
X115047665Y-83909000D01*
X115012561Y-83915983D01*
X113534000Y-82437422D01*
X113534000Y-80202578D01*
X114191754Y-79544824D01*
X117997098Y-79544824D01*
X118046666Y-79962451D01*
X118176757Y-80362383D01*
X118334786Y-80658038D01*
X118650347Y-80814048D01*
X119962395Y-79502000D01*
X120321605Y-79502000D01*
X121633653Y-80814048D01*
X121949214Y-80658038D01*
X122140020Y-80283255D01*
X122254044Y-79878449D01*
X122286902Y-79459176D01*
X122237334Y-79041549D01*
X122107243Y-78641617D01*
X121949214Y-78345962D01*
X121633653Y-78189952D01*
X120321605Y-79502000D01*
X119962395Y-79502000D01*
X118650347Y-78189952D01*
X118334786Y-78345962D01*
X118143980Y-78720745D01*
X118029956Y-79125551D01*
X117997098Y-79544824D01*
X114191754Y-79544824D01*
X114558045Y-79178533D01*
X114591816Y-79150818D01*
X114619531Y-79117047D01*
X115393561Y-78343017D01*
X115428665Y-78350000D01*
X115711335Y-78350000D01*
X115988574Y-78294853D01*
X116249727Y-78186680D01*
X116484759Y-78029637D01*
X116684637Y-77829759D01*
X116841680Y-77594727D01*
X116949853Y-77333574D01*
X116968058Y-77242052D01*
X117052063Y-77367774D01*
G04 #@! TA.AperFunction,Conductor*
D29*
G36*
X117052063Y-77367774D02*
G01*
X117196226Y-77511937D01*
X117365744Y-77625205D01*
X117554102Y-77703226D01*
X117754061Y-77743000D01*
X117957939Y-77743000D01*
X118157898Y-77703226D01*
X118346256Y-77625205D01*
X118394454Y-77593000D01*
X119176392Y-77593000D01*
X118985962Y-77694786D01*
X118829952Y-78010347D01*
X120142000Y-79322395D01*
X121454048Y-78010347D01*
X121298038Y-77694786D01*
X121098109Y-77593000D01*
X122061422Y-77593000D01*
X123083928Y-78615506D01*
X123083928Y-81002000D01*
X123096188Y-81126482D01*
X123132498Y-81246180D01*
X123191463Y-81356494D01*
X123270815Y-81453185D01*
X123367506Y-81532537D01*
X123477820Y-81591502D01*
X123597518Y-81627812D01*
X123722000Y-81640072D01*
X126722000Y-81640072D01*
X126846482Y-81627812D01*
X126966180Y-81591502D01*
X127076494Y-81532537D01*
X127173185Y-81453185D01*
X127252537Y-81356494D01*
X127311502Y-81246180D01*
X127347812Y-81126482D01*
X127360072Y-81002000D01*
X127360072Y-80993653D01*
X129624952Y-80993653D01*
X129780962Y-81309214D01*
X130155745Y-81500020D01*
X130560551Y-81614044D01*
X130979824Y-81646902D01*
X131397451Y-81597334D01*
X131797383Y-81467243D01*
X132093038Y-81309214D01*
X132249048Y-80993653D01*
X130937000Y-79681605D01*
X129624952Y-80993653D01*
X127360072Y-80993653D01*
X127360072Y-79885506D01*
X127700754Y-79544824D01*
X128792098Y-79544824D01*
X128841666Y-79962451D01*
X128971757Y-80362383D01*
X129129786Y-80658038D01*
X129445347Y-80814048D01*
X130757395Y-79502000D01*
X131116605Y-79502000D01*
X132428653Y-80814048D01*
X132744214Y-80658038D01*
X132935020Y-80283255D01*
X133049044Y-79878449D01*
X133081902Y-79459176D01*
X133032334Y-79041549D01*
X132902243Y-78641617D01*
X132744214Y-78345962D01*
X132428653Y-78189952D01*
X131116605Y-79502000D01*
X130757395Y-79502000D01*
X129445347Y-78189952D01*
X129129786Y-78345962D01*
X128938980Y-78720745D01*
X128824956Y-79125551D01*
X128792098Y-79544824D01*
X127700754Y-79544824D01*
X129779579Y-77466000D01*
X130294142Y-77466000D01*
X130076617Y-77536757D01*
X129780962Y-77694786D01*
X129624952Y-78010347D01*
X130937000Y-79322395D01*
X132249048Y-78010347D01*
X132093038Y-77694786D01*
X131718255Y-77503980D01*
X131583419Y-77466000D01*
X134172726Y-77466000D01*
X134162506Y-77471463D01*
X134065815Y-77550815D01*
X133986463Y-77647506D01*
X133927498Y-77757820D01*
X133891188Y-77877518D01*
X133878928Y-78002000D01*
X133878928Y-81002000D01*
X133891188Y-81126482D01*
X133927498Y-81246180D01*
X133986463Y-81356494D01*
X134065815Y-81453185D01*
X134162506Y-81532537D01*
X134272820Y-81591502D01*
X134392518Y-81627812D01*
X134517000Y-81640072D01*
X136903493Y-81640072D01*
X137291001Y-82027580D01*
X137291000Y-83848671D01*
X137070002Y-83996337D01*
X136828337Y-84238002D01*
X136638463Y-84522169D01*
X136507675Y-84837919D01*
X136441000Y-85173117D01*
X136441000Y-85514883D01*
X136476889Y-85695311D01*
X135403534Y-84621956D01*
X135375817Y-84588183D01*
X135241059Y-84477589D01*
X135087313Y-84395411D01*
X134920490Y-84344805D01*
X134790477Y-84332000D01*
X134790469Y-84332000D01*
X134747000Y-84327719D01*
X134703531Y-84332000D01*
X134269454Y-84332000D01*
X134221256Y-84299795D01*
X134032898Y-84221774D01*
X133976044Y-84210465D01*
X131847534Y-82081956D01*
X131819817Y-82048183D01*
X131685059Y-81937589D01*
X131531313Y-81855411D01*
X131364490Y-81804805D01*
X131234477Y-81792000D01*
X131234469Y-81792000D01*
X131191000Y-81787719D01*
X131147531Y-81792000D01*
X126928099Y-81792000D01*
X126884630Y-81787719D01*
X126841161Y-81792000D01*
X126841153Y-81792000D01*
X126711140Y-81804805D01*
X126544317Y-81855411D01*
X126508952Y-81874314D01*
X126390571Y-81937589D01*
X126289583Y-82020468D01*
X126289581Y-82020470D01*
X126255813Y-82048183D01*
X126228100Y-82081951D01*
X124753951Y-83556101D01*
X124720184Y-83583813D01*
X124692471Y-83617581D01*
X124692468Y-83617584D01*
X124609590Y-83718571D01*
X124527412Y-83872317D01*
X124476805Y-84039140D01*
X124459750Y-84212319D01*
X124434241Y-84229363D01*
X124234363Y-84429241D01*
X124077320Y-84664273D01*
X123969147Y-84925426D01*
X123914000Y-85202665D01*
X123914000Y-85485335D01*
X123969147Y-85762574D01*
X124077320Y-86023727D01*
X124234363Y-86258759D01*
X124301605Y-86326001D01*
X122509464Y-86326001D01*
X122465998Y-86321720D01*
X122422532Y-86326001D01*
X122422522Y-86326001D01*
X122292509Y-86338806D01*
X122125686Y-86389412D01*
X121971940Y-86471590D01*
X121971938Y-86471591D01*
X121971939Y-86471591D01*
X121870952Y-86554469D01*
X121870950Y-86554471D01*
X121837424Y-86581985D01*
X121807335Y-86576000D01*
X121524665Y-86576000D01*
X121247426Y-86631147D01*
X120986273Y-86739320D01*
X120751241Y-86896363D01*
X120551363Y-87096241D01*
X120394320Y-87331273D01*
X120286147Y-87592426D01*
X120252615Y-87761000D01*
X119371521Y-87761000D01*
X119351637Y-87731241D01*
X119151759Y-87531363D01*
X118916727Y-87374320D01*
X118655574Y-87266147D01*
X118378335Y-87211000D01*
X118095665Y-87211000D01*
X117818426Y-87266147D01*
X117557273Y-87374320D01*
X117548772Y-87380000D01*
X116903314Y-87380000D01*
X116953059Y-87353411D01*
X117087817Y-87242817D01*
X117115534Y-87209044D01*
X118324050Y-86000529D01*
X118357817Y-85972817D01*
X118468411Y-85838059D01*
X118550589Y-85684313D01*
X118601195Y-85517490D01*
X118614000Y-85387477D01*
X118614000Y-85387467D01*
X118618281Y-85344001D01*
X118614000Y-85300535D01*
X118614000Y-84117466D01*
X118618281Y-84073999D01*
X118614000Y-84030533D01*
X118614000Y-84030523D01*
X118601195Y-83900510D01*
X118550589Y-83733687D01*
X118468411Y-83579941D01*
X118408067Y-83506412D01*
X118385532Y-83478953D01*
X118385530Y-83478951D01*
X118357817Y-83445183D01*
X118324049Y-83417470D01*
X116998017Y-82091439D01*
X117005000Y-82056335D01*
X117005000Y-81773665D01*
X116949853Y-81496426D01*
X116841680Y-81235273D01*
X116684637Y-81000241D01*
X116678049Y-80993653D01*
X118829952Y-80993653D01*
X118985962Y-81309214D01*
X119360745Y-81500020D01*
X119765551Y-81614044D01*
X120184824Y-81646902D01*
X120602451Y-81597334D01*
X121002383Y-81467243D01*
X121298038Y-81309214D01*
X121454048Y-80993653D01*
X120142000Y-79681605D01*
X118829952Y-80993653D01*
X116678049Y-80993653D01*
X116484759Y-80800363D01*
X116249727Y-80643320D01*
X115988574Y-80535147D01*
X115711335Y-80480000D01*
X115428665Y-80480000D01*
X115151426Y-80535147D01*
X114890273Y-80643320D01*
X114655241Y-80800363D01*
X114455363Y-81000241D01*
X114298320Y-81235273D01*
X114190147Y-81496426D01*
X114135000Y-81773665D01*
X114135000Y-82056335D01*
X114190147Y-82333574D01*
X114298320Y-82594727D01*
X114455363Y-82829759D01*
X114655241Y-83029637D01*
X114890273Y-83186680D01*
X115151426Y-83294853D01*
X115428665Y-83350000D01*
X115711335Y-83350000D01*
X115746439Y-83343017D01*
X116844001Y-84440580D01*
X116844000Y-84977421D01*
X116623130Y-85198291D01*
X116568853Y-84925426D01*
X116460680Y-84664273D01*
X116303637Y-84429241D01*
X116103759Y-84229363D01*
X115868727Y-84072320D01*
X115607574Y-83964147D01*
X115330335Y-83909000D01*
X115047665Y-83909000D01*
X115012561Y-83915983D01*
X113534000Y-82437422D01*
X113534000Y-80202578D01*
X114191754Y-79544824D01*
X117997098Y-79544824D01*
X118046666Y-79962451D01*
X118176757Y-80362383D01*
X118334786Y-80658038D01*
X118650347Y-80814048D01*
X119962395Y-79502000D01*
X120321605Y-79502000D01*
X121633653Y-80814048D01*
X121949214Y-80658038D01*
X122140020Y-80283255D01*
X122254044Y-79878449D01*
X122286902Y-79459176D01*
X122237334Y-79041549D01*
X122107243Y-78641617D01*
X121949214Y-78345962D01*
X121633653Y-78189952D01*
X120321605Y-79502000D01*
X119962395Y-79502000D01*
X118650347Y-78189952D01*
X118334786Y-78345962D01*
X118143980Y-78720745D01*
X118029956Y-79125551D01*
X117997098Y-79544824D01*
X114191754Y-79544824D01*
X114558045Y-79178533D01*
X114591816Y-79150818D01*
X114619531Y-79117047D01*
X115393561Y-78343017D01*
X115428665Y-78350000D01*
X115711335Y-78350000D01*
X115988574Y-78294853D01*
X116249727Y-78186680D01*
X116484759Y-78029637D01*
X116684637Y-77829759D01*
X116841680Y-77594727D01*
X116949853Y-77333574D01*
X116968058Y-77242052D01*
X117052063Y-77367774D01*
G37*
G04 #@! TD.AperFunction*
D28*
X89929941Y-75841589D02*
X89913618Y-75854985D01*
X89828953Y-75924468D01*
X89828951Y-75924470D01*
X89795183Y-75952183D01*
X89767470Y-75985951D01*
X88389494Y-77363928D01*
X86511000Y-77363928D01*
X86386518Y-77376188D01*
X86266820Y-77412498D01*
X86156506Y-77471463D01*
X86059815Y-77550815D01*
X85980463Y-77647506D01*
X85921498Y-77757820D01*
X85885188Y-77877518D01*
X85872928Y-78002000D01*
X85872928Y-81002000D01*
X85885188Y-81126482D01*
X85921498Y-81246180D01*
X85941714Y-81284000D01*
X84099504Y-81284000D01*
X84243048Y-80993653D01*
X82931000Y-79681605D01*
X81618952Y-80993653D01*
X81762496Y-81284000D01*
X72133071Y-81284000D01*
X72089602Y-81279719D01*
X72046133Y-81284000D01*
X72046125Y-81284000D01*
X71916112Y-81296805D01*
X71749289Y-81347411D01*
X71595543Y-81429589D01*
X71494555Y-81512468D01*
X71494553Y-81512470D01*
X71460785Y-81540183D01*
X71433072Y-81573951D01*
X68873958Y-84133066D01*
X68873953Y-84133070D01*
X68606171Y-84400853D01*
X68489497Y-84226238D01*
X68425919Y-84162660D01*
X71832561Y-80756017D01*
X71867665Y-80763000D01*
X72150335Y-80763000D01*
X72427574Y-80707853D01*
X72688727Y-80599680D01*
X72923759Y-80442637D01*
X73123637Y-80242759D01*
X73201212Y-80126659D01*
X73312059Y-80067411D01*
X73446817Y-79956817D01*
X73474534Y-79923044D01*
X73852754Y-79544824D01*
X80786098Y-79544824D01*
X80835666Y-79962451D01*
X80965757Y-80362383D01*
X81123786Y-80658038D01*
X81439347Y-80814048D01*
X82751395Y-79502000D01*
X83110605Y-79502000D01*
X84422653Y-80814048D01*
X84738214Y-80658038D01*
X84929020Y-80283255D01*
X85043044Y-79878449D01*
X85075902Y-79459176D01*
X85026334Y-79041549D01*
X84896243Y-78641617D01*
X84738214Y-78345962D01*
X84422653Y-78189952D01*
X83110605Y-79502000D01*
X82751395Y-79502000D01*
X81439347Y-78189952D01*
X81123786Y-78345962D01*
X80932980Y-78720745D01*
X80818956Y-79125551D01*
X80786098Y-79544824D01*
X73852754Y-79544824D01*
X74997507Y-78400072D01*
X75984000Y-78400072D01*
X76108482Y-78387812D01*
X76228180Y-78351502D01*
X76338494Y-78292537D01*
X76435185Y-78213185D01*
X76514537Y-78116494D01*
X76573502Y-78006180D01*
X76609812Y-77886482D01*
X76613701Y-77847000D01*
X76843479Y-77847000D01*
X76863363Y-77876759D01*
X77063241Y-78076637D01*
X77298273Y-78233680D01*
X77559426Y-78341853D01*
X77836665Y-78397000D01*
X78119335Y-78397000D01*
X78396574Y-78341853D01*
X78657727Y-78233680D01*
X78892759Y-78076637D01*
X78959049Y-78010347D01*
X81618952Y-78010347D01*
X82931000Y-79322395D01*
X84243048Y-78010347D01*
X84087038Y-77694786D01*
X83712255Y-77503980D01*
X83307449Y-77389956D01*
X82888176Y-77357098D01*
X82470549Y-77406666D01*
X82070617Y-77536757D01*
X81774962Y-77694786D01*
X81618952Y-78010347D01*
X78959049Y-78010347D01*
X79092637Y-77876759D01*
X79249680Y-77641727D01*
X79357853Y-77380574D01*
X79413000Y-77103335D01*
X79413000Y-76820665D01*
X79357853Y-76543426D01*
X79249680Y-76282273D01*
X79092637Y-76047241D01*
X78892759Y-75847363D01*
X78799426Y-75785000D01*
X90035813Y-75785000D01*
X89929941Y-75841589D01*
G04 #@! TA.AperFunction,Conductor*
D29*
G36*
X89929941Y-75841589D02*
G01*
X89913618Y-75854985D01*
X89828953Y-75924468D01*
X89828951Y-75924470D01*
X89795183Y-75952183D01*
X89767470Y-75985951D01*
X88389494Y-77363928D01*
X86511000Y-77363928D01*
X86386518Y-77376188D01*
X86266820Y-77412498D01*
X86156506Y-77471463D01*
X86059815Y-77550815D01*
X85980463Y-77647506D01*
X85921498Y-77757820D01*
X85885188Y-77877518D01*
X85872928Y-78002000D01*
X85872928Y-81002000D01*
X85885188Y-81126482D01*
X85921498Y-81246180D01*
X85941714Y-81284000D01*
X84099504Y-81284000D01*
X84243048Y-80993653D01*
X82931000Y-79681605D01*
X81618952Y-80993653D01*
X81762496Y-81284000D01*
X72133071Y-81284000D01*
X72089602Y-81279719D01*
X72046133Y-81284000D01*
X72046125Y-81284000D01*
X71916112Y-81296805D01*
X71749289Y-81347411D01*
X71595543Y-81429589D01*
X71494555Y-81512468D01*
X71494553Y-81512470D01*
X71460785Y-81540183D01*
X71433072Y-81573951D01*
X68873958Y-84133066D01*
X68873953Y-84133070D01*
X68606171Y-84400853D01*
X68489497Y-84226238D01*
X68425919Y-84162660D01*
X71832561Y-80756017D01*
X71867665Y-80763000D01*
X72150335Y-80763000D01*
X72427574Y-80707853D01*
X72688727Y-80599680D01*
X72923759Y-80442637D01*
X73123637Y-80242759D01*
X73201212Y-80126659D01*
X73312059Y-80067411D01*
X73446817Y-79956817D01*
X73474534Y-79923044D01*
X73852754Y-79544824D01*
X80786098Y-79544824D01*
X80835666Y-79962451D01*
X80965757Y-80362383D01*
X81123786Y-80658038D01*
X81439347Y-80814048D01*
X82751395Y-79502000D01*
X83110605Y-79502000D01*
X84422653Y-80814048D01*
X84738214Y-80658038D01*
X84929020Y-80283255D01*
X85043044Y-79878449D01*
X85075902Y-79459176D01*
X85026334Y-79041549D01*
X84896243Y-78641617D01*
X84738214Y-78345962D01*
X84422653Y-78189952D01*
X83110605Y-79502000D01*
X82751395Y-79502000D01*
X81439347Y-78189952D01*
X81123786Y-78345962D01*
X80932980Y-78720745D01*
X80818956Y-79125551D01*
X80786098Y-79544824D01*
X73852754Y-79544824D01*
X74997507Y-78400072D01*
X75984000Y-78400072D01*
X76108482Y-78387812D01*
X76228180Y-78351502D01*
X76338494Y-78292537D01*
X76435185Y-78213185D01*
X76514537Y-78116494D01*
X76573502Y-78006180D01*
X76609812Y-77886482D01*
X76613701Y-77847000D01*
X76843479Y-77847000D01*
X76863363Y-77876759D01*
X77063241Y-78076637D01*
X77298273Y-78233680D01*
X77559426Y-78341853D01*
X77836665Y-78397000D01*
X78119335Y-78397000D01*
X78396574Y-78341853D01*
X78657727Y-78233680D01*
X78892759Y-78076637D01*
X78959049Y-78010347D01*
X81618952Y-78010347D01*
X82931000Y-79322395D01*
X84243048Y-78010347D01*
X84087038Y-77694786D01*
X83712255Y-77503980D01*
X83307449Y-77389956D01*
X82888176Y-77357098D01*
X82470549Y-77406666D01*
X82070617Y-77536757D01*
X81774962Y-77694786D01*
X81618952Y-78010347D01*
X78959049Y-78010347D01*
X79092637Y-77876759D01*
X79249680Y-77641727D01*
X79357853Y-77380574D01*
X79413000Y-77103335D01*
X79413000Y-76820665D01*
X79357853Y-76543426D01*
X79249680Y-76282273D01*
X79092637Y-76047241D01*
X78892759Y-75847363D01*
X78799426Y-75785000D01*
X90035813Y-75785000D01*
X89929941Y-75841589D01*
G37*
G04 #@! TD.AperFunction*
D28*
X97586506Y-77471463D02*
X97489815Y-77550815D01*
X97410463Y-77647506D01*
X97351498Y-77757820D01*
X97315188Y-77877518D01*
X97302928Y-78002000D01*
X97306000Y-79216250D01*
X97464750Y-79375000D01*
X99314000Y-79375000D01*
X99314000Y-79355000D01*
X99568000Y-79355000D01*
X99568000Y-79375000D01*
X101417250Y-79375000D01*
X101576000Y-79216250D01*
X101579072Y-78002000D01*
X101566812Y-77877518D01*
X101530502Y-77757820D01*
X101471537Y-77647506D01*
X101392185Y-77550815D01*
X101295494Y-77471463D01*
X101285274Y-77466000D01*
X103011928Y-77466000D01*
X103011928Y-78072000D01*
X103024188Y-78196482D01*
X103060498Y-78316180D01*
X103119463Y-78426494D01*
X103198815Y-78523185D01*
X103295506Y-78602537D01*
X103405820Y-78661502D01*
X103525518Y-78697812D01*
X103650000Y-78710072D01*
X103807349Y-78710072D01*
X101578911Y-80938510D01*
X101576000Y-79787750D01*
X101417250Y-79629000D01*
X99568000Y-79629000D01*
X99568000Y-79649000D01*
X99314000Y-79649000D01*
X99314000Y-79629000D01*
X97464750Y-79629000D01*
X97306000Y-79787750D01*
X97302928Y-81002000D01*
X97315188Y-81126482D01*
X97351498Y-81246180D01*
X97371714Y-81284000D01*
X95536947Y-81284000D01*
X95721983Y-81160363D01*
X96019363Y-80862983D01*
X96253012Y-80513302D01*
X96413953Y-80124756D01*
X96496000Y-79712279D01*
X96496000Y-79291721D01*
X96413953Y-78879244D01*
X96253012Y-78490698D01*
X96019363Y-78141017D01*
X95721983Y-77843637D01*
X95372302Y-77609988D01*
X95024684Y-77466000D01*
X97596726Y-77466000D01*
X97586506Y-77471463D01*
G04 #@! TA.AperFunction,Conductor*
D29*
G36*
X97586506Y-77471463D02*
G01*
X97489815Y-77550815D01*
X97410463Y-77647506D01*
X97351498Y-77757820D01*
X97315188Y-77877518D01*
X97302928Y-78002000D01*
X97306000Y-79216250D01*
X97464750Y-79375000D01*
X99314000Y-79375000D01*
X99314000Y-79355000D01*
X99568000Y-79355000D01*
X99568000Y-79375000D01*
X101417250Y-79375000D01*
X101576000Y-79216250D01*
X101579072Y-78002000D01*
X101566812Y-77877518D01*
X101530502Y-77757820D01*
X101471537Y-77647506D01*
X101392185Y-77550815D01*
X101295494Y-77471463D01*
X101285274Y-77466000D01*
X103011928Y-77466000D01*
X103011928Y-78072000D01*
X103024188Y-78196482D01*
X103060498Y-78316180D01*
X103119463Y-78426494D01*
X103198815Y-78523185D01*
X103295506Y-78602537D01*
X103405820Y-78661502D01*
X103525518Y-78697812D01*
X103650000Y-78710072D01*
X103807349Y-78710072D01*
X101578911Y-80938510D01*
X101576000Y-79787750D01*
X101417250Y-79629000D01*
X99568000Y-79629000D01*
X99568000Y-79649000D01*
X99314000Y-79649000D01*
X99314000Y-79629000D01*
X97464750Y-79629000D01*
X97306000Y-79787750D01*
X97302928Y-81002000D01*
X97315188Y-81126482D01*
X97351498Y-81246180D01*
X97371714Y-81284000D01*
X95536947Y-81284000D01*
X95721983Y-81160363D01*
X96019363Y-80862983D01*
X96253012Y-80513302D01*
X96413953Y-80124756D01*
X96496000Y-79712279D01*
X96496000Y-79291721D01*
X96413953Y-78879244D01*
X96253012Y-78490698D01*
X96019363Y-78141017D01*
X95721983Y-77843637D01*
X95372302Y-77609988D01*
X95024684Y-77466000D01*
X97596726Y-77466000D01*
X97586506Y-77471463D01*
G37*
G04 #@! TD.AperFunction*
G04 #@! TD*
M02*
