M48
; DRILL file {KiCad (5.1.7)-1} date 04/13/21 18:52:19
; FORMAT={-:-/ absolute / inch / decimal}
; #@! TF.CreationDate,2021-04-13T18:52:19-05:00
; #@! TF.GenerationSoftware,Kicad,Pcbnew,(5.1.7)-1
; #@! TF.FileFunction,Plated,1,2,PTH
FMAT,2
INCH
T1C0.0157
T2C0.0287
T3C0.0295
T4C0.0315
T5C0.0394
T6C0.0433
T7C0.1063
%
G90
G05
T1
X3.35Y-3.875
X3.5561Y-4.6561
X3.635Y-3.41
X3.82Y-3.1
X4.0Y-3.15
X4.545Y-3.585
X4.795Y-3.695
X4.835Y-4.115
X5.85Y-3.55
X5.85Y-3.75
T2
X4.0563Y-3.72
X4.0563Y-3.82
X4.0563Y-3.92
X4.0563Y-4.02
X4.0563Y-4.12
X4.0563Y-4.22
X4.0563Y-4.32
X4.3689Y-3.72
X4.3689Y-3.82
X4.3689Y-3.92
X4.3689Y-4.02
X4.3689Y-4.12
X4.3689Y-4.22
X4.3689Y-4.32
T3
X4.57Y-3.71
X4.62Y-3.71
X4.67Y-3.71
X3.7552Y-3.71
X3.8052Y-3.71
X3.8552Y-3.71
T4
X2.95Y-4.1
X3.35Y-4.1
X4.5Y-3.88
X4.5Y-4.28
X5.0175Y-3.945
X5.0175Y-4.245
X2.95Y-4.23
X3.35Y-4.23
X4.52Y-3.3071
X4.62Y-3.5071
X4.72Y-3.3071
X5.5957Y-4.41
X5.5957Y-4.6069
X3.0731Y-3.9257
X3.27Y-3.9257
X5.7Y-3.92
X5.7Y-4.22
X4.46Y-4.53
X4.86Y-4.53
X3.0352Y-3.3071
X3.1352Y-3.5071
X3.2352Y-3.3071
X3.46Y-4.08
X3.46Y-4.48
X2.7531Y-3.9257
X2.95Y-3.9257
X5.1143Y-4.0931
X5.1143Y-4.29
X2.95Y-4.49
X3.35Y-4.49
X5.19Y-3.3071
X5.29Y-3.5071
X5.39Y-3.3071
X5.1931Y-3.9257
X5.39Y-3.9257
X2.4331Y-3.9257
X2.63Y-3.9257
X3.9557Y-4.24
X3.9557Y-4.4369
X4.9038Y-3.945
X4.9038Y-4.245
X2.95Y-4.62
X3.35Y-4.62
X4.63Y-3.88
X4.63Y-4.28
X3.7052Y-3.3071
X3.8052Y-3.5071
X3.9052Y-3.3071
X3.9557Y-3.91
X3.9557Y-4.1069
X5.2257Y-4.41
X5.2257Y-4.6069
X3.28Y-3.05
X3.68Y-3.05
X2.95Y-4.36
X3.35Y-4.36
X4.76Y-3.88
X4.76Y-4.28
T5
X2.6791Y-4.5276
X2.7791Y-4.5276
X5.55Y-3.1102
X5.65Y-3.1102
X5.75Y-3.1102
X5.725Y-3.28
X5.725Y-3.38
X5.725Y-3.48
X5.575Y-3.28
X5.575Y-3.38
X5.575Y-3.48
X4.955Y-3.2494
X4.955Y-3.84
X4.1392Y-3.28
X4.1392Y-3.38
X4.1392Y-3.48
X2.6791Y-3.1102
X2.7791Y-3.1102
X3.47Y-3.2494
X3.47Y-3.84
X5.9843Y-3.7
X5.9843Y-3.8
X5.9843Y-3.9
X5.9843Y-4.0
X4.2892Y-3.28
X4.2892Y-3.38
X4.2892Y-3.48
X5.09Y-3.11
X4.1142Y-3.1102
X4.2142Y-3.1102
X4.3142Y-3.1102
X4.1142Y-4.5276
X4.2142Y-4.5276
X4.3142Y-4.5276
X4.79Y-3.11
X4.89Y-3.11
X5.9843Y-4.2126
X5.9843Y-4.3126
T6
X5.82Y-3.93
X5.82Y-4.33
T7
X5.9843Y-3.1496
X2.4409Y-3.1496
X2.4409Y-4.5276
X5.9843Y-4.5276
T0
M30
