M48
; DRILL file {KiCad (5.1.7)-1} date 12/28/21 16:37:36
; FORMAT={-:-/ absolute / inch / decimal}
; #@! TF.CreationDate,2021-12-28T16:37:36-06:00
; #@! TF.GenerationSoftware,Kicad,Pcbnew,(5.1.7)-1
; #@! TF.FileFunction,Plated,1,2,PTH
FMAT,2
INCH
T1C0.0157
T2C0.0287
T3C0.0295
T4C0.0315
T5C0.0394
T6C0.0433
T7C0.0598
%
G90
G05
T1
X2.905Y-3.755
X3.01Y-3.705
X3.035Y-3.53
X3.5Y-4.28
X3.615Y-4.205
X3.77Y-3.0
X3.875Y-4.4
X4.155Y-3.84
X4.405Y-3.14
X4.405Y-3.275
X4.575Y-3.685
X4.605Y-3.29
X4.625Y-4.215
X4.735Y-4.455
X4.795Y-3.55
X5.035Y-3.195
X5.13Y-4.255
X5.15Y-4.035
X5.165Y-3.555
X5.46Y-3.74
X5.725Y-3.48
X6.115Y-3.745
T2
X4.9087Y-3.69
X4.9087Y-3.79
X4.9087Y-3.89
X4.9087Y-3.99
X4.9087Y-4.09
X4.9087Y-4.19
X4.9087Y-4.29
X5.2213Y-3.69
X5.2213Y-3.79
X5.2213Y-3.89
X5.2213Y-3.99
X5.2213Y-4.09
X5.2213Y-4.19
X5.2213Y-4.29
T3
X5.38Y-3.86
X5.38Y-3.91
X5.38Y-3.96
X4.16Y-4.24
X4.21Y-4.24
X4.26Y-4.24
X3.915Y-3.69
X3.915Y-3.74
X3.915Y-3.79
X5.6Y-4.235
X5.65Y-4.235
X5.7Y-4.235
X5.355Y-3.63
X5.355Y-3.68
X5.355Y-3.73
X2.865Y-4.04
X2.915Y-4.04
X2.965Y-4.04
T4
X5.33Y-4.07
X5.33Y-4.47
X2.96Y-3.03
X2.96Y-3.33
X4.52Y-3.99
X4.52Y-4.39
X4.535Y-3.36
X4.935Y-3.36
X4.55Y-3.0281
X4.55Y-3.225
X5.5931Y-4.385
X5.79Y-4.385
X2.835Y-3.1231
X2.835Y-3.32
X3.07Y-3.03
X3.07Y-3.33
X3.2Y-3.8416
X3.2Y-3.94
X2.83Y-4.23
X3.0269Y-4.23
X5.46Y-4.265
X5.46Y-4.4619
X4.655Y-4.1231
X4.655Y-4.32
X3.97Y-4.03
X3.97Y-4.43
X3.8031Y-3.37
X4.0Y-3.37
X3.48Y-3.37
X3.6769Y-3.37
X5.9131Y-4.3457
X6.11Y-4.3457
X5.53Y-3.68
X5.53Y-4.08
X4.33Y-3.68
X4.33Y-4.08
X2.835Y-3.425
X2.835Y-3.825
X2.455Y-4.16
X2.655Y-4.06
X2.655Y-4.26
X4.79Y-3.465
X4.79Y-3.865
X3.2Y-3.5616
X3.2Y-3.66
X3.5631Y-3.8557
X3.76Y-3.8557
X2.97Y-3.425
X2.97Y-3.825
X4.52Y-3.475
X4.52Y-3.875
X4.655Y-3.81
X4.655Y-4.0069
X4.215Y-3.68
X4.215Y-3.98
X5.77Y-3.68
X5.77Y-4.08
X2.455Y-3.33
X2.655Y-3.23
X2.655Y-3.43
X4.82Y-4.475
X5.22Y-4.475
X4.905Y-3.5
X5.305Y-3.5
X2.455Y-3.745
X2.655Y-3.645
X2.655Y-3.845
X4.79Y-3.96
X4.79Y-4.36
X4.655Y-3.49
X4.655Y-3.6869
X4.1Y-3.68
X4.1Y-4.08
X5.65Y-3.68
X5.65Y-3.98
T5
X5.575Y-3.21
X5.575Y-3.31
X5.575Y-3.41
X5.6Y-3.555
X5.7Y-3.555
X2.505Y-3.055
X2.605Y-3.055
X4.165Y-3.56
X4.265Y-3.56
X4.1392Y-3.21
X4.1392Y-3.31
X4.1392Y-3.41
X4.1142Y-4.4369
X4.2142Y-4.4369
X4.3142Y-4.4369
X2.5Y-4.4369
X2.6Y-4.4369
X4.2892Y-3.21
X4.2892Y-3.31
X4.2892Y-3.41
X4.1142Y-3.0402
X4.2142Y-3.0402
X4.3142Y-3.0402
X5.725Y-3.21
X5.725Y-3.31
X5.725Y-3.41
X5.55Y-3.0402
X5.65Y-3.0402
X5.75Y-3.0402
T6
X5.04Y-3.36
X5.44Y-3.36
T7
X6.0Y-3.215
X6.0Y-3.415
X6.0Y-3.615
X6.0Y-3.815
X4.73Y-3.13
X4.93Y-3.13
X5.155Y-3.13
X5.355Y-3.13
X3.715Y-3.13
X3.915Y-3.13
X3.265Y-3.13
X3.465Y-3.13
T0
M30
