G04 #@! TF.GenerationSoftware,KiCad,Pcbnew,(5.1.7)-1*
G04 #@! TF.CreationDate,2021-12-28T16:37:34-06:00*
G04 #@! TF.ProjectId,GuitarBoard,47756974-6172-4426-9f61-72642e6b6963,rev?*
G04 #@! TF.SameCoordinates,Original*
G04 #@! TF.FileFunction,Soldermask,Bot*
G04 #@! TF.FilePolarity,Negative*
%FSLAX46Y46*%
G04 Gerber Fmt 4.6, Leading zero omitted, Abs format (unit mm)*
G04 Created by KiCad (PCBNEW (5.1.7)-1) date 2021-12-28 16:37:34*
%MOMM*%
%LPD*%
G01*
G04 APERTURE LIST*
%ADD10C,1.440000*%
%ADD11R,2.200000X2.200000*%
%ADD12O,2.200000X2.200000*%
%ADD13R,1.600000X1.600000*%
%ADD14O,1.600000X1.600000*%
%ADD15R,1.700000X1.700000*%
%ADD16O,1.700000X1.700000*%
%ADD17O,1.050000X1.500000*%
%ADD18R,1.050000X1.500000*%
%ADD19C,1.600000*%
%ADD20O,1.500000X1.050000*%
%ADD21R,1.500000X1.050000*%
%ADD22C,3.000000*%
%ADD23R,3.000000X3.000000*%
%ADD24R,1.130000X1.130000*%
%ADD25C,1.130000*%
G04 APERTURE END LIST*
D10*
G04 #@! TO.C,RV2*
X67437000Y-82042000D03*
X62357000Y-84582000D03*
X67437000Y-87122000D03*
G04 #@! TD*
D11*
G04 #@! TO.C,D7*
X128016000Y-85344000D03*
D12*
X138176000Y-85344000D03*
G04 #@! TD*
D13*
G04 #@! TO.C,D3*
X77978000Y-84582000D03*
D14*
X77978000Y-76962000D03*
G04 #@! TD*
G04 #@! TO.C,D4*
X75184000Y-84582000D03*
D13*
X75184000Y-76962000D03*
G04 #@! TD*
D15*
G04 #@! TO.C,J1*
X104500000Y-112698000D03*
D16*
X107040000Y-112698000D03*
X109580000Y-112698000D03*
G04 #@! TD*
D15*
G04 #@! TO.C,J2*
X63500000Y-112698000D03*
D16*
X66040000Y-112698000D03*
G04 #@! TD*
D17*
G04 #@! TO.C,Q1*
X74041000Y-102616000D03*
X75311000Y-102616000D03*
D18*
X72771000Y-102616000D03*
G04 #@! TD*
D19*
G04 #@! TO.C,R2*
X75438000Y-97155000D03*
D14*
X75438000Y-86995000D03*
G04 #@! TD*
G04 #@! TO.C,R3*
X72009000Y-86995000D03*
D19*
X72009000Y-97155000D03*
G04 #@! TD*
D16*
G04 #@! TO.C,RV3*
X140970000Y-77222000D03*
X143510000Y-77222000D03*
D15*
X146050000Y-77222000D03*
G04 #@! TD*
G04 #@! TO.C,RV4*
X104500000Y-77222000D03*
D16*
X107040000Y-77222000D03*
X109580000Y-77222000D03*
G04 #@! TD*
D10*
G04 #@! TO.C,RV1*
X67437000Y-97663000D03*
X62357000Y-95123000D03*
X67437000Y-92583000D03*
G04 #@! TD*
D16*
G04 #@! TO.C,SW5*
X63627000Y-77597000D03*
D15*
X66167000Y-77597000D03*
G04 #@! TD*
D16*
G04 #@! TO.C,SW1*
X141605000Y-81534000D03*
X141605000Y-84074000D03*
D15*
X141605000Y-86614000D03*
G04 #@! TD*
G04 #@! TO.C,SW2*
X145415000Y-86614000D03*
D16*
X145415000Y-84074000D03*
X145415000Y-81534000D03*
G04 #@! TD*
G04 #@! TO.C,SW3*
X105135000Y-81534000D03*
X105135000Y-84074000D03*
D15*
X105135000Y-86614000D03*
G04 #@! TD*
G04 #@! TO.C,SW4*
X108945000Y-86614000D03*
D16*
X108945000Y-84074000D03*
X108945000Y-81534000D03*
G04 #@! TD*
D19*
G04 #@! TO.C,C1*
X150194000Y-110382000D03*
X155194000Y-110382000D03*
G04 #@! TD*
G04 #@! TO.C,C4*
X95504000Y-97936000D03*
X90504000Y-97936000D03*
G04 #@! TD*
D14*
G04 #@! TO.C,D1*
X143510000Y-101092000D03*
D13*
X143510000Y-93472000D03*
G04 #@! TD*
G04 #@! TO.C,D5*
X107061000Y-93472000D03*
D14*
X107061000Y-101092000D03*
G04 #@! TD*
D18*
G04 #@! TO.C,Q2*
X142240000Y-107569000D03*
D17*
X144780000Y-107569000D03*
X143510000Y-107569000D03*
G04 #@! TD*
D20*
G04 #@! TO.C,Q3*
X136017000Y-93472000D03*
X136017000Y-94742000D03*
D21*
X136017000Y-92202000D03*
G04 #@! TD*
D18*
G04 #@! TO.C,Q4*
X105664000Y-107696000D03*
D17*
X108204000Y-107696000D03*
X106934000Y-107696000D03*
G04 #@! TD*
D20*
G04 #@! TO.C,Q5*
X99441000Y-94996000D03*
X99441000Y-96266000D03*
D21*
X99441000Y-93726000D03*
G04 #@! TD*
D19*
G04 #@! TO.C,R1*
X146558000Y-103632000D03*
D14*
X146558000Y-93472000D03*
G04 #@! TD*
D19*
G04 #@! TO.C,R4*
X140462000Y-93472000D03*
D14*
X140462000Y-103632000D03*
G04 #@! TD*
G04 #@! TO.C,R5*
X109982000Y-93472000D03*
D19*
X109982000Y-103632000D03*
G04 #@! TD*
D14*
G04 #@! TO.C,R6*
X104140000Y-103632000D03*
D19*
X104140000Y-93472000D03*
G04 #@! TD*
D15*
G04 #@! TO.C,D2*
X142240000Y-90297000D03*
D16*
X144780000Y-90297000D03*
G04 #@! TD*
G04 #@! TO.C,D6*
X108331000Y-90424000D03*
D15*
X105791000Y-90424000D03*
G04 #@! TD*
D22*
G04 #@! TO.C,BT1*
X130937000Y-79502000D03*
D23*
X136017000Y-79502000D03*
G04 #@! TD*
D24*
G04 #@! TO.C,IC1*
X124681000Y-93726000D03*
D25*
X124681000Y-96266000D03*
X124681000Y-98806000D03*
X124681000Y-101346000D03*
X124681000Y-103886000D03*
X124681000Y-106426000D03*
X124681000Y-108966000D03*
X132621000Y-108966000D03*
X132621000Y-106426000D03*
X132621000Y-103886000D03*
X132621000Y-101346000D03*
X132621000Y-98806000D03*
X132621000Y-96266000D03*
X132621000Y-93726000D03*
G04 #@! TD*
D22*
G04 #@! TO.C,J3*
X82931000Y-79502000D03*
D23*
X88011000Y-79502000D03*
G04 #@! TD*
G04 #@! TO.C,J4*
X125222000Y-79502000D03*
D22*
X120142000Y-79502000D03*
G04 #@! TD*
D23*
G04 #@! TO.C,J5*
X99441000Y-79502000D03*
D22*
X94361000Y-79502000D03*
G04 #@! TD*
D20*
G04 #@! TO.C,Q6*
X136652000Y-99314000D03*
X136652000Y-98044000D03*
D21*
X136652000Y-100584000D03*
G04 #@! TD*
D19*
G04 #@! TO.C,R7*
X115189000Y-85344000D03*
D14*
X125349000Y-85344000D03*
G04 #@! TD*
G04 #@! TO.C,R8*
X121666000Y-100584000D03*
D19*
X121666000Y-110744000D03*
G04 #@! TD*
G04 #@! TO.C,R9*
X121666000Y-88011000D03*
D14*
X121666000Y-98171000D03*
G04 #@! TD*
G04 #@! TO.C,R10*
X114808000Y-88265000D03*
D19*
X114808000Y-98425000D03*
G04 #@! TD*
G04 #@! TO.C,R11*
X134747000Y-88900000D03*
D14*
X124587000Y-88900000D03*
G04 #@! TD*
G04 #@! TO.C,R12*
X122428000Y-113665000D03*
D19*
X132588000Y-113665000D03*
G04 #@! TD*
G04 #@! TO.C,R13*
X100838000Y-112522000D03*
D14*
X100838000Y-102362000D03*
G04 #@! TD*
G04 #@! TO.C,R14*
X114808000Y-111506000D03*
D19*
X114808000Y-101346000D03*
G04 #@! TD*
G04 #@! TO.C,R15*
X135382000Y-103378000D03*
D14*
X135382000Y-113538000D03*
G04 #@! TD*
D10*
G04 #@! TO.C,RV5*
X67437000Y-108204000D03*
X62357000Y-105664000D03*
X67437000Y-103124000D03*
G04 #@! TD*
D19*
G04 #@! TO.C,C2*
X71882000Y-107442000D03*
X76882000Y-107442000D03*
G04 #@! TD*
G04 #@! TO.C,C3*
X72009000Y-79328000D03*
X72009000Y-84328000D03*
G04 #@! TD*
G04 #@! TO.C,C5*
X101600000Y-85598000D03*
X96600000Y-85598000D03*
G04 #@! TD*
G04 #@! TO.C,C6*
X115570000Y-76915000D03*
X115570000Y-81915000D03*
G04 #@! TD*
G04 #@! TO.C,C7*
X118237000Y-109728000D03*
X118237000Y-104728000D03*
G04 #@! TD*
G04 #@! TO.C,C8*
X118237000Y-96774000D03*
X118237000Y-101774000D03*
G04 #@! TD*
G04 #@! TO.C,C9*
X118237000Y-93646000D03*
X118237000Y-88646000D03*
G04 #@! TD*
G04 #@! TO.C,C10*
X81280000Y-90464000D03*
D13*
X81280000Y-92964000D03*
G04 #@! TD*
D19*
G04 #@! TO.C,C11*
X138684000Y-108331000D03*
X138684000Y-113331000D03*
G04 #@! TD*
G04 #@! TO.C,C12*
X142066000Y-111379000D03*
X147066000Y-111379000D03*
G04 #@! TD*
D13*
G04 #@! TO.C,C13*
X81280000Y-100076000D03*
D19*
X81280000Y-97576000D03*
G04 #@! TD*
D22*
G04 #@! TO.C,J6*
X152400000Y-91821000D03*
X152400000Y-86741000D03*
D23*
X152400000Y-96901000D03*
D22*
X152400000Y-81661000D03*
G04 #@! TD*
D19*
G04 #@! TO.C,C14*
X88392000Y-85598000D03*
X93392000Y-85598000D03*
G04 #@! TD*
M02*
