G04 #@! TF.GenerationSoftware,KiCad,Pcbnew,(5.1.7)-1*
G04 #@! TF.CreationDate,2021-07-20T19:52:43-05:00*
G04 #@! TF.ProjectId,jfetTester,6a666574-5465-4737-9465-722e6b696361,rev?*
G04 #@! TF.SameCoordinates,Original*
G04 #@! TF.FileFunction,Legend,Top*
G04 #@! TF.FilePolarity,Positive*
%FSLAX46Y46*%
G04 Gerber Fmt 4.6, Leading zero omitted, Abs format (unit mm)*
G04 Created by KiCad (PCBNEW (5.1.7)-1) date 2021-07-20 19:52:43*
%MOMM*%
%LPD*%
G01*
G04 APERTURE LIST*
%ADD10C,0.300000*%
%ADD11C,0.150000*%
%ADD12C,0.120000*%
G04 APERTURE END LIST*
D10*
X116268571Y-81387142D02*
X117411428Y-81387142D01*
X116840000Y-81958571D02*
X116840000Y-80815714D01*
X127416857Y-104310571D02*
X127416857Y-102810571D01*
X127774000Y-102810571D01*
X127988285Y-102882000D01*
X128131142Y-103024857D01*
X128202571Y-103167714D01*
X128274000Y-103453428D01*
X128274000Y-103667714D01*
X128202571Y-103953428D01*
X128131142Y-104096285D01*
X127988285Y-104239142D01*
X127774000Y-104310571D01*
X127416857Y-104310571D01*
X129702571Y-104310571D02*
X128845428Y-104310571D01*
X129274000Y-104310571D02*
X129274000Y-102810571D01*
X129131142Y-103024857D01*
X128988285Y-103167714D01*
X128845428Y-103239142D01*
X118967428Y-103310571D02*
X118967428Y-104310571D01*
X118610285Y-102739142D02*
X118253142Y-103810571D01*
X119181714Y-103810571D01*
X119753142Y-104167714D02*
X119824571Y-104239142D01*
X119753142Y-104310571D01*
X119681714Y-104239142D01*
X119753142Y-104167714D01*
X119753142Y-104310571D01*
X121181714Y-102810571D02*
X120467428Y-102810571D01*
X120396000Y-103524857D01*
X120467428Y-103453428D01*
X120610285Y-103382000D01*
X120967428Y-103382000D01*
X121110285Y-103453428D01*
X121181714Y-103524857D01*
X121253142Y-103667714D01*
X121253142Y-104024857D01*
X121181714Y-104167714D01*
X121110285Y-104239142D01*
X120967428Y-104310571D01*
X120610285Y-104310571D01*
X120467428Y-104239142D01*
X120396000Y-104167714D01*
X121681714Y-102810571D02*
X122181714Y-104310571D01*
X122681714Y-102810571D01*
D11*
X118199142Y-75271380D02*
X118770571Y-75271380D01*
X118484857Y-76271380D02*
X118484857Y-75271380D01*
X119103904Y-76271380D02*
X119103904Y-75271380D01*
X119532476Y-76271380D02*
X119532476Y-75747571D01*
X119484857Y-75652333D01*
X119389619Y-75604714D01*
X119246761Y-75604714D01*
X119151523Y-75652333D01*
X119103904Y-75699952D01*
X120151523Y-76271380D02*
X120056285Y-76223761D01*
X120008666Y-76176142D01*
X119961047Y-76080904D01*
X119961047Y-75795190D01*
X120008666Y-75699952D01*
X120056285Y-75652333D01*
X120151523Y-75604714D01*
X120294380Y-75604714D01*
X120389619Y-75652333D01*
X120437238Y-75699952D01*
X120484857Y-75795190D01*
X120484857Y-76080904D01*
X120437238Y-76176142D01*
X120389619Y-76223761D01*
X120294380Y-76271380D01*
X120151523Y-76271380D01*
X120913428Y-76271380D02*
X120913428Y-75604714D01*
X120913428Y-75699952D02*
X120961047Y-75652333D01*
X121056285Y-75604714D01*
X121199142Y-75604714D01*
X121294380Y-75652333D01*
X121342000Y-75747571D01*
X121342000Y-76271380D01*
X121342000Y-75747571D02*
X121389619Y-75652333D01*
X121484857Y-75604714D01*
X121627714Y-75604714D01*
X121722952Y-75652333D01*
X121770571Y-75747571D01*
X121770571Y-76271380D01*
X122675333Y-76271380D02*
X122675333Y-75747571D01*
X122627714Y-75652333D01*
X122532476Y-75604714D01*
X122342000Y-75604714D01*
X122246761Y-75652333D01*
X122675333Y-76223761D02*
X122580095Y-76271380D01*
X122342000Y-76271380D01*
X122246761Y-76223761D01*
X122199142Y-76128523D01*
X122199142Y-76033285D01*
X122246761Y-75938047D01*
X122342000Y-75890428D01*
X122580095Y-75890428D01*
X122675333Y-75842809D01*
X123103904Y-76223761D02*
X123199142Y-76271380D01*
X123389619Y-76271380D01*
X123484857Y-76223761D01*
X123532476Y-76128523D01*
X123532476Y-76080904D01*
X123484857Y-75985666D01*
X123389619Y-75938047D01*
X123246761Y-75938047D01*
X123151523Y-75890428D01*
X123103904Y-75795190D01*
X123103904Y-75747571D01*
X123151523Y-75652333D01*
X123246761Y-75604714D01*
X123389619Y-75604714D01*
X123484857Y-75652333D01*
X124722952Y-76271380D02*
X124722952Y-75271380D01*
X125056285Y-75985666D01*
X125389619Y-75271380D01*
X125389619Y-76271380D01*
X126294380Y-76223761D02*
X126199142Y-76271380D01*
X126008666Y-76271380D01*
X125913428Y-76223761D01*
X125865809Y-76176142D01*
X125818190Y-76080904D01*
X125818190Y-75795190D01*
X125865809Y-75699952D01*
X125913428Y-75652333D01*
X126008666Y-75604714D01*
X126199142Y-75604714D01*
X126294380Y-75652333D01*
X126722952Y-76271380D02*
X126722952Y-75271380D01*
X126961047Y-75271380D01*
X127103904Y-75319000D01*
X127199142Y-75414238D01*
X127246761Y-75509476D01*
X127294380Y-75699952D01*
X127294380Y-75842809D01*
X127246761Y-76033285D01*
X127199142Y-76128523D01*
X127103904Y-76223761D01*
X126961047Y-76271380D01*
X126722952Y-76271380D01*
X127865809Y-76271380D02*
X127770571Y-76223761D01*
X127722952Y-76176142D01*
X127675333Y-76080904D01*
X127675333Y-75795190D01*
X127722952Y-75699952D01*
X127770571Y-75652333D01*
X127865809Y-75604714D01*
X128008666Y-75604714D01*
X128103904Y-75652333D01*
X128151523Y-75699952D01*
X128199142Y-75795190D01*
X128199142Y-76080904D01*
X128151523Y-76176142D01*
X128103904Y-76223761D01*
X128008666Y-76271380D01*
X127865809Y-76271380D01*
X128627714Y-75604714D02*
X128627714Y-76271380D01*
X128627714Y-75699952D02*
X128675333Y-75652333D01*
X128770571Y-75604714D01*
X128913428Y-75604714D01*
X129008666Y-75652333D01*
X129056285Y-75747571D01*
X129056285Y-76271380D01*
X129961047Y-76271380D02*
X129961047Y-75747571D01*
X129913428Y-75652333D01*
X129818190Y-75604714D01*
X129627714Y-75604714D01*
X129532476Y-75652333D01*
X129961047Y-76223761D02*
X129865809Y-76271380D01*
X129627714Y-76271380D01*
X129532476Y-76223761D01*
X129484857Y-76128523D01*
X129484857Y-76033285D01*
X129532476Y-75938047D01*
X129627714Y-75890428D01*
X129865809Y-75890428D01*
X129961047Y-75842809D01*
X130865809Y-75604714D02*
X130865809Y-76414238D01*
X130818190Y-76509476D01*
X130770571Y-76557095D01*
X130675333Y-76604714D01*
X130532476Y-76604714D01*
X130437238Y-76557095D01*
X130865809Y-76223761D02*
X130770571Y-76271380D01*
X130580095Y-76271380D01*
X130484857Y-76223761D01*
X130437238Y-76176142D01*
X130389619Y-76080904D01*
X130389619Y-75795190D01*
X130437238Y-75699952D01*
X130484857Y-75652333D01*
X130580095Y-75604714D01*
X130770571Y-75604714D01*
X130865809Y-75652333D01*
X131342000Y-76271380D02*
X131342000Y-75271380D01*
X131770571Y-76271380D02*
X131770571Y-75747571D01*
X131722952Y-75652333D01*
X131627714Y-75604714D01*
X131484857Y-75604714D01*
X131389619Y-75652333D01*
X131342000Y-75699952D01*
X135580095Y-75271380D02*
X135580095Y-75985666D01*
X135532476Y-76128523D01*
X135437238Y-76223761D01*
X135294380Y-76271380D01*
X135199142Y-76271380D01*
X136389619Y-75747571D02*
X136056285Y-75747571D01*
X136056285Y-76271380D02*
X136056285Y-75271380D01*
X136532476Y-75271380D01*
X136913428Y-75747571D02*
X137246761Y-75747571D01*
X137389619Y-76271380D02*
X136913428Y-76271380D01*
X136913428Y-75271380D01*
X137389619Y-75271380D01*
X137675333Y-75271380D02*
X138246761Y-75271380D01*
X137961047Y-76271380D02*
X137961047Y-75271380D01*
X139199142Y-75271380D02*
X139770571Y-75271380D01*
X139484857Y-76271380D02*
X139484857Y-75271380D01*
X140484857Y-76223761D02*
X140389619Y-76271380D01*
X140199142Y-76271380D01*
X140103904Y-76223761D01*
X140056285Y-76128523D01*
X140056285Y-75747571D01*
X140103904Y-75652333D01*
X140199142Y-75604714D01*
X140389619Y-75604714D01*
X140484857Y-75652333D01*
X140532476Y-75747571D01*
X140532476Y-75842809D01*
X140056285Y-75938047D01*
X140913428Y-76223761D02*
X141008666Y-76271380D01*
X141199142Y-76271380D01*
X141294380Y-76223761D01*
X141342000Y-76128523D01*
X141342000Y-76080904D01*
X141294380Y-75985666D01*
X141199142Y-75938047D01*
X141056285Y-75938047D01*
X140961047Y-75890428D01*
X140913428Y-75795190D01*
X140913428Y-75747571D01*
X140961047Y-75652333D01*
X141056285Y-75604714D01*
X141199142Y-75604714D01*
X141294380Y-75652333D01*
X141627714Y-75604714D02*
X142008666Y-75604714D01*
X141770571Y-75271380D02*
X141770571Y-76128523D01*
X141818190Y-76223761D01*
X141913428Y-76271380D01*
X142008666Y-76271380D01*
X142722952Y-76223761D02*
X142627714Y-76271380D01*
X142437238Y-76271380D01*
X142342000Y-76223761D01*
X142294380Y-76128523D01*
X142294380Y-75747571D01*
X142342000Y-75652333D01*
X142437238Y-75604714D01*
X142627714Y-75604714D01*
X142722952Y-75652333D01*
X142770571Y-75747571D01*
X142770571Y-75842809D01*
X142294380Y-75938047D01*
X143199142Y-76271380D02*
X143199142Y-75604714D01*
X143199142Y-75795190D02*
X143246761Y-75699952D01*
X143294380Y-75652333D01*
X143389619Y-75604714D01*
X143484857Y-75604714D01*
X144437238Y-75271380D02*
X144770571Y-76271380D01*
X145103904Y-75271380D01*
X145961047Y-76271380D02*
X145389619Y-76271380D01*
X145675333Y-76271380D02*
X145675333Y-75271380D01*
X145580095Y-75414238D01*
X145484857Y-75509476D01*
X145389619Y-75557095D01*
X146389619Y-76176142D02*
X146437238Y-76223761D01*
X146389619Y-76271380D01*
X146342000Y-76223761D01*
X146389619Y-76176142D01*
X146389619Y-76271380D01*
X147056285Y-75271380D02*
X147151523Y-75271380D01*
X147246761Y-75319000D01*
X147294380Y-75366619D01*
X147342000Y-75461857D01*
X147389619Y-75652333D01*
X147389619Y-75890428D01*
X147342000Y-76080904D01*
X147294380Y-76176142D01*
X147246761Y-76223761D01*
X147151523Y-76271380D01*
X147056285Y-76271380D01*
X146961047Y-76223761D01*
X146913428Y-76176142D01*
X146865809Y-76080904D01*
X146818190Y-75890428D01*
X146818190Y-75652333D01*
X146865809Y-75461857D01*
X146913428Y-75366619D01*
X146961047Y-75319000D01*
X147056285Y-75271380D01*
X158313380Y-101496666D02*
X158313380Y-102068095D01*
X158313380Y-101782380D02*
X157313380Y-101782380D01*
X157456238Y-101877619D01*
X157551476Y-101972857D01*
X157599095Y-102068095D01*
X157313380Y-100877619D02*
X157313380Y-100782380D01*
X157361000Y-100687142D01*
X157408619Y-100639523D01*
X157503857Y-100591904D01*
X157694333Y-100544285D01*
X157932428Y-100544285D01*
X158122904Y-100591904D01*
X158218142Y-100639523D01*
X158265761Y-100687142D01*
X158313380Y-100782380D01*
X158313380Y-100877619D01*
X158265761Y-100972857D01*
X158218142Y-101020476D01*
X158122904Y-101068095D01*
X157932428Y-101115714D01*
X157694333Y-101115714D01*
X157503857Y-101068095D01*
X157408619Y-101020476D01*
X157361000Y-100972857D01*
X157313380Y-100877619D01*
X157313380Y-99925238D02*
X157313380Y-99830000D01*
X157361000Y-99734761D01*
X157408619Y-99687142D01*
X157503857Y-99639523D01*
X157694333Y-99591904D01*
X157932428Y-99591904D01*
X158122904Y-99639523D01*
X158218142Y-99687142D01*
X158265761Y-99734761D01*
X158313380Y-99830000D01*
X158313380Y-99925238D01*
X158265761Y-100020476D01*
X158218142Y-100068095D01*
X158122904Y-100115714D01*
X157932428Y-100163333D01*
X157694333Y-100163333D01*
X157503857Y-100115714D01*
X157408619Y-100068095D01*
X157361000Y-100020476D01*
X157313380Y-99925238D01*
X158313380Y-99163333D02*
X157313380Y-99163333D01*
X158313380Y-98591904D02*
X157741952Y-99020476D01*
X157313380Y-98591904D02*
X157884809Y-99163333D01*
X157646714Y-94003714D02*
X158313380Y-94003714D01*
X157265761Y-94241809D02*
X157980047Y-94479904D01*
X157980047Y-93860857D01*
X157313380Y-93575142D02*
X157313380Y-92908476D01*
X158313380Y-93337047D01*
X158313380Y-92527523D02*
X157313380Y-92527523D01*
X158313380Y-91956095D02*
X157741952Y-92384666D01*
X157313380Y-91956095D02*
X157884809Y-92527523D01*
X158313380Y-86542476D02*
X158313380Y-87113904D01*
X158313380Y-86828190D02*
X157313380Y-86828190D01*
X157456238Y-86923428D01*
X157551476Y-87018666D01*
X157599095Y-87113904D01*
X157313380Y-85923428D02*
X157313380Y-85828190D01*
X157361000Y-85732952D01*
X157408619Y-85685333D01*
X157503857Y-85637714D01*
X157694333Y-85590095D01*
X157932428Y-85590095D01*
X158122904Y-85637714D01*
X158218142Y-85685333D01*
X158265761Y-85732952D01*
X158313380Y-85828190D01*
X158313380Y-85923428D01*
X158265761Y-86018666D01*
X158218142Y-86066285D01*
X158122904Y-86113904D01*
X157932428Y-86161523D01*
X157694333Y-86161523D01*
X157503857Y-86113904D01*
X157408619Y-86066285D01*
X157361000Y-86018666D01*
X157313380Y-85923428D01*
X158313380Y-85161523D02*
X157313380Y-85161523D01*
X158313380Y-84590095D02*
X157741952Y-85018666D01*
X157313380Y-84590095D02*
X157884809Y-85161523D01*
X157408619Y-80494000D02*
X157361000Y-80446380D01*
X157313380Y-80351142D01*
X157313380Y-80113047D01*
X157361000Y-80017809D01*
X157408619Y-79970190D01*
X157503857Y-79922571D01*
X157599095Y-79922571D01*
X157741952Y-79970190D01*
X158313380Y-80541619D01*
X158313380Y-79922571D01*
X158218142Y-79494000D02*
X158265761Y-79446380D01*
X158313380Y-79494000D01*
X158265761Y-79541619D01*
X158218142Y-79494000D01*
X158313380Y-79494000D01*
X157408619Y-79065428D02*
X157361000Y-79017809D01*
X157313380Y-78922571D01*
X157313380Y-78684476D01*
X157361000Y-78589238D01*
X157408619Y-78541619D01*
X157503857Y-78494000D01*
X157599095Y-78494000D01*
X157741952Y-78541619D01*
X158313380Y-79113047D01*
X158313380Y-78494000D01*
X158313380Y-78065428D02*
X157313380Y-78065428D01*
X158313380Y-77494000D02*
X157741952Y-77922571D01*
X157313380Y-77494000D02*
X157884809Y-78065428D01*
D12*
G04 #@! TO.C,BT1*
X115510000Y-79248000D02*
X115510000Y-77918000D01*
X115510000Y-77918000D02*
X116840000Y-77918000D01*
X118110000Y-77918000D02*
X120710000Y-77918000D01*
X120710000Y-80578000D02*
X120710000Y-77918000D01*
X118110000Y-80578000D02*
X120710000Y-80578000D01*
X118110000Y-80578000D02*
X118110000Y-77918000D01*
G04 #@! TO.C,C1*
X121315241Y-96134000D02*
X121315241Y-95504000D01*
X121630241Y-95819000D02*
X121000241Y-95819000D01*
X114889000Y-94382000D02*
X114889000Y-93578000D01*
X114929000Y-94613000D02*
X114929000Y-93347000D01*
X114969000Y-94782000D02*
X114969000Y-93178000D01*
X115009000Y-94920000D02*
X115009000Y-93040000D01*
X115049000Y-95039000D02*
X115049000Y-92921000D01*
X115089000Y-95145000D02*
X115089000Y-92815000D01*
X115129000Y-95242000D02*
X115129000Y-92718000D01*
X115169000Y-95330000D02*
X115169000Y-92630000D01*
X115209000Y-95412000D02*
X115209000Y-92548000D01*
X115249000Y-95489000D02*
X115249000Y-92471000D01*
X115289000Y-95561000D02*
X115289000Y-92399000D01*
X115329000Y-95630000D02*
X115329000Y-92330000D01*
X115369000Y-95694000D02*
X115369000Y-92266000D01*
X115409000Y-95756000D02*
X115409000Y-92204000D01*
X115449000Y-95814000D02*
X115449000Y-92146000D01*
X115489000Y-95870000D02*
X115489000Y-92090000D01*
X115529000Y-95924000D02*
X115529000Y-92036000D01*
X115569000Y-95975000D02*
X115569000Y-91985000D01*
X115609000Y-96024000D02*
X115609000Y-91936000D01*
X115649000Y-96072000D02*
X115649000Y-91888000D01*
X115689000Y-96117000D02*
X115689000Y-91843000D01*
X115729000Y-96162000D02*
X115729000Y-91798000D01*
X115769000Y-96204000D02*
X115769000Y-91756000D01*
X115809000Y-96245000D02*
X115809000Y-91715000D01*
X115849000Y-92940000D02*
X115849000Y-91675000D01*
X115849000Y-96285000D02*
X115849000Y-95020000D01*
X115889000Y-92940000D02*
X115889000Y-91637000D01*
X115889000Y-96323000D02*
X115889000Y-95020000D01*
X115929000Y-92940000D02*
X115929000Y-91600000D01*
X115929000Y-96360000D02*
X115929000Y-95020000D01*
X115969000Y-92940000D02*
X115969000Y-91564000D01*
X115969000Y-96396000D02*
X115969000Y-95020000D01*
X116009000Y-92940000D02*
X116009000Y-91530000D01*
X116009000Y-96430000D02*
X116009000Y-95020000D01*
X116049000Y-92940000D02*
X116049000Y-91496000D01*
X116049000Y-96464000D02*
X116049000Y-95020000D01*
X116089000Y-92940000D02*
X116089000Y-91464000D01*
X116089000Y-96496000D02*
X116089000Y-95020000D01*
X116129000Y-92940000D02*
X116129000Y-91432000D01*
X116129000Y-96528000D02*
X116129000Y-95020000D01*
X116169000Y-92940000D02*
X116169000Y-91402000D01*
X116169000Y-96558000D02*
X116169000Y-95020000D01*
X116209000Y-92940000D02*
X116209000Y-91373000D01*
X116209000Y-96587000D02*
X116209000Y-95020000D01*
X116249000Y-92940000D02*
X116249000Y-91344000D01*
X116249000Y-96616000D02*
X116249000Y-95020000D01*
X116289000Y-92940000D02*
X116289000Y-91316000D01*
X116289000Y-96644000D02*
X116289000Y-95020000D01*
X116329000Y-92940000D02*
X116329000Y-91290000D01*
X116329000Y-96670000D02*
X116329000Y-95020000D01*
X116369000Y-92940000D02*
X116369000Y-91264000D01*
X116369000Y-96696000D02*
X116369000Y-95020000D01*
X116409000Y-92940000D02*
X116409000Y-91238000D01*
X116409000Y-96722000D02*
X116409000Y-95020000D01*
X116449000Y-92940000D02*
X116449000Y-91214000D01*
X116449000Y-96746000D02*
X116449000Y-95020000D01*
X116489000Y-92940000D02*
X116489000Y-91190000D01*
X116489000Y-96770000D02*
X116489000Y-95020000D01*
X116529000Y-92940000D02*
X116529000Y-91168000D01*
X116529000Y-96792000D02*
X116529000Y-95020000D01*
X116569000Y-92940000D02*
X116569000Y-91146000D01*
X116569000Y-96814000D02*
X116569000Y-95020000D01*
X116609000Y-92940000D02*
X116609000Y-91124000D01*
X116609000Y-96836000D02*
X116609000Y-95020000D01*
X116649000Y-92940000D02*
X116649000Y-91104000D01*
X116649000Y-96856000D02*
X116649000Y-95020000D01*
X116689000Y-92940000D02*
X116689000Y-91084000D01*
X116689000Y-96876000D02*
X116689000Y-95020000D01*
X116729000Y-92940000D02*
X116729000Y-91064000D01*
X116729000Y-96896000D02*
X116729000Y-95020000D01*
X116769000Y-92940000D02*
X116769000Y-91046000D01*
X116769000Y-96914000D02*
X116769000Y-95020000D01*
X116809000Y-92940000D02*
X116809000Y-91028000D01*
X116809000Y-96932000D02*
X116809000Y-95020000D01*
X116849000Y-92940000D02*
X116849000Y-91010000D01*
X116849000Y-96950000D02*
X116849000Y-95020000D01*
X116889000Y-92940000D02*
X116889000Y-90994000D01*
X116889000Y-96966000D02*
X116889000Y-95020000D01*
X116929000Y-92940000D02*
X116929000Y-90978000D01*
X116929000Y-96982000D02*
X116929000Y-95020000D01*
X116969000Y-92940000D02*
X116969000Y-90962000D01*
X116969000Y-96998000D02*
X116969000Y-95020000D01*
X117009000Y-92940000D02*
X117009000Y-90947000D01*
X117009000Y-97013000D02*
X117009000Y-95020000D01*
X117049000Y-92940000D02*
X117049000Y-90933000D01*
X117049000Y-97027000D02*
X117049000Y-95020000D01*
X117089000Y-92940000D02*
X117089000Y-90919000D01*
X117089000Y-97041000D02*
X117089000Y-95020000D01*
X117129000Y-92940000D02*
X117129000Y-90906000D01*
X117129000Y-97054000D02*
X117129000Y-95020000D01*
X117169000Y-92940000D02*
X117169000Y-90894000D01*
X117169000Y-97066000D02*
X117169000Y-95020000D01*
X117209000Y-92940000D02*
X117209000Y-90882000D01*
X117209000Y-97078000D02*
X117209000Y-95020000D01*
X117249000Y-92940000D02*
X117249000Y-90870000D01*
X117249000Y-97090000D02*
X117249000Y-95020000D01*
X117289000Y-92940000D02*
X117289000Y-90859000D01*
X117289000Y-97101000D02*
X117289000Y-95020000D01*
X117329000Y-92940000D02*
X117329000Y-90849000D01*
X117329000Y-97111000D02*
X117329000Y-95020000D01*
X117369000Y-92940000D02*
X117369000Y-90839000D01*
X117369000Y-97121000D02*
X117369000Y-95020000D01*
X117409000Y-92940000D02*
X117409000Y-90830000D01*
X117409000Y-97130000D02*
X117409000Y-95020000D01*
X117450000Y-92940000D02*
X117450000Y-90821000D01*
X117450000Y-97139000D02*
X117450000Y-95020000D01*
X117490000Y-92940000D02*
X117490000Y-90813000D01*
X117490000Y-97147000D02*
X117490000Y-95020000D01*
X117530000Y-92940000D02*
X117530000Y-90805000D01*
X117530000Y-97155000D02*
X117530000Y-95020000D01*
X117570000Y-92940000D02*
X117570000Y-90798000D01*
X117570000Y-97162000D02*
X117570000Y-95020000D01*
X117610000Y-92940000D02*
X117610000Y-90791000D01*
X117610000Y-97169000D02*
X117610000Y-95020000D01*
X117650000Y-92940000D02*
X117650000Y-90785000D01*
X117650000Y-97175000D02*
X117650000Y-95020000D01*
X117690000Y-92940000D02*
X117690000Y-90779000D01*
X117690000Y-97181000D02*
X117690000Y-95020000D01*
X117730000Y-92940000D02*
X117730000Y-90774000D01*
X117730000Y-97186000D02*
X117730000Y-95020000D01*
X117770000Y-92940000D02*
X117770000Y-90769000D01*
X117770000Y-97191000D02*
X117770000Y-95020000D01*
X117810000Y-92940000D02*
X117810000Y-90765000D01*
X117810000Y-97195000D02*
X117810000Y-95020000D01*
X117850000Y-92940000D02*
X117850000Y-90762000D01*
X117850000Y-97198000D02*
X117850000Y-95020000D01*
X117890000Y-92940000D02*
X117890000Y-90758000D01*
X117890000Y-97202000D02*
X117890000Y-95020000D01*
X117930000Y-97204000D02*
X117930000Y-90756000D01*
X117970000Y-97207000D02*
X117970000Y-90753000D01*
X118010000Y-97208000D02*
X118010000Y-90752000D01*
X118050000Y-97210000D02*
X118050000Y-90750000D01*
X118090000Y-97210000D02*
X118090000Y-90750000D01*
X118130000Y-97210000D02*
X118130000Y-90750000D01*
X121400000Y-93980000D02*
G75*
G03*
X121400000Y-93980000I-3270000J0D01*
G01*
X121400000Y-93980000D02*
X121400000Y-82980000D01*
X114860000Y-93980000D02*
X114860000Y-82980000D01*
X121400000Y-82980000D02*
X114860000Y-82980000D01*
G04 #@! TO.C,D1*
X155469000Y-76434000D02*
X152379000Y-76434000D01*
X156424000Y-78994000D02*
G75*
G03*
X156424000Y-78994000I-2500000J0D01*
G01*
X153923538Y-81984000D02*
G75*
G03*
X155468830Y-76434000I462J2990000D01*
G01*
X153924462Y-81984000D02*
G75*
G02*
X152379170Y-76434000I-462J2990000D01*
G01*
G04 #@! TO.C,D2*
X153924462Y-89096000D02*
G75*
G02*
X152379170Y-83546000I-462J2990000D01*
G01*
X153923538Y-89096000D02*
G75*
G03*
X155468830Y-83546000I462J2990000D01*
G01*
X156424000Y-86106000D02*
G75*
G03*
X156424000Y-86106000I-2500000J0D01*
G01*
X155469000Y-83546000D02*
X152379000Y-83546000D01*
G04 #@! TO.C,D3*
X155469000Y-90658000D02*
X152379000Y-90658000D01*
X156424000Y-93218000D02*
G75*
G03*
X156424000Y-93218000I-2500000J0D01*
G01*
X153923538Y-96208000D02*
G75*
G03*
X155468830Y-90658000I462J2990000D01*
G01*
X153924462Y-96208000D02*
G75*
G02*
X152379170Y-90658000I-462J2990000D01*
G01*
G04 #@! TO.C,D4*
X153924462Y-103320000D02*
G75*
G02*
X152379170Y-97770000I-462J2990000D01*
G01*
X153923538Y-103320000D02*
G75*
G03*
X155468830Y-97770000I462J2990000D01*
G01*
X156424000Y-100330000D02*
G75*
G03*
X156424000Y-100330000I-2500000J0D01*
G01*
X155469000Y-97770000D02*
X152379000Y-97770000D01*
G04 #@! TO.C,Q1*
X132566000Y-102434000D02*
X136166000Y-102434000D01*
X132527522Y-102422478D02*
G75*
G02*
X134366000Y-97984000I1838478J1838478D01*
G01*
X136204478Y-102422478D02*
G75*
G03*
X134366000Y-97984000I-1838478J1838478D01*
G01*
G04 #@! TO.C,R1*
X134842000Y-92302000D02*
X134842000Y-89562000D01*
X134842000Y-89562000D02*
X128302000Y-89562000D01*
X128302000Y-89562000D02*
X128302000Y-92302000D01*
X128302000Y-92302000D02*
X134842000Y-92302000D01*
X135612000Y-90932000D02*
X134842000Y-90932000D01*
X127532000Y-90932000D02*
X128302000Y-90932000D01*
G04 #@! TO.C,R2*
X135612000Y-94488000D02*
X134842000Y-94488000D01*
X127532000Y-94488000D02*
X128302000Y-94488000D01*
X134842000Y-93118000D02*
X128302000Y-93118000D01*
X134842000Y-95858000D02*
X134842000Y-93118000D01*
X128302000Y-95858000D02*
X134842000Y-95858000D01*
X128302000Y-93118000D02*
X128302000Y-95858000D01*
G04 #@! TO.C,R3*
X124814000Y-80550000D02*
X122074000Y-80550000D01*
X122074000Y-80550000D02*
X122074000Y-87090000D01*
X122074000Y-87090000D02*
X124814000Y-87090000D01*
X124814000Y-87090000D02*
X124814000Y-80550000D01*
X123444000Y-79780000D02*
X123444000Y-80550000D01*
X123444000Y-87860000D02*
X123444000Y-87090000D01*
G04 #@! TO.C,R4*
X140232000Y-79248000D02*
X141002000Y-79248000D01*
X148312000Y-79248000D02*
X147542000Y-79248000D01*
X141002000Y-80618000D02*
X147542000Y-80618000D01*
X141002000Y-77878000D02*
X141002000Y-80618000D01*
X147542000Y-77878000D02*
X141002000Y-77878000D01*
X147542000Y-80618000D02*
X147542000Y-77878000D01*
G04 #@! TO.C,R5*
X147542000Y-87222000D02*
X147542000Y-84482000D01*
X147542000Y-84482000D02*
X141002000Y-84482000D01*
X141002000Y-84482000D02*
X141002000Y-87222000D01*
X141002000Y-87222000D02*
X147542000Y-87222000D01*
X148312000Y-85852000D02*
X147542000Y-85852000D01*
X140232000Y-85852000D02*
X141002000Y-85852000D01*
G04 #@! TO.C,R6*
X140232000Y-92964000D02*
X141002000Y-92964000D01*
X148312000Y-92964000D02*
X147542000Y-92964000D01*
X141002000Y-94334000D02*
X147542000Y-94334000D01*
X141002000Y-91594000D02*
X141002000Y-94334000D01*
X147542000Y-91594000D02*
X141002000Y-91594000D01*
X147542000Y-94334000D02*
X147542000Y-91594000D01*
G04 #@! TO.C,R7*
X140232000Y-100076000D02*
X141002000Y-100076000D01*
X148312000Y-100076000D02*
X147542000Y-100076000D01*
X141002000Y-101446000D02*
X147542000Y-101446000D01*
X141002000Y-98706000D02*
X141002000Y-101446000D01*
X147542000Y-98706000D02*
X141002000Y-98706000D01*
X147542000Y-101446000D02*
X147542000Y-98706000D01*
G04 #@! TO.C,TP1*
X122196000Y-100076000D02*
G75*
G03*
X122196000Y-100076000I-1800000J0D01*
G01*
G04 #@! TO.C,TP2*
X130324000Y-100076000D02*
G75*
G03*
X130324000Y-100076000I-1800000J0D01*
G01*
G04 #@! TO.C,U1*
X136966000Y-77858000D02*
X126686000Y-77858000D01*
X136966000Y-88258000D02*
X136966000Y-77858000D01*
X126686000Y-88258000D02*
X136966000Y-88258000D01*
X126686000Y-77858000D02*
X126686000Y-88258000D01*
X134476000Y-77918000D02*
X132826000Y-77918000D01*
X134476000Y-88198000D02*
X134476000Y-77918000D01*
X129176000Y-88198000D02*
X134476000Y-88198000D01*
X129176000Y-77918000D02*
X129176000Y-88198000D01*
X130826000Y-77918000D02*
X129176000Y-77918000D01*
X132826000Y-77918000D02*
G75*
G02*
X130826000Y-77918000I-1000000J0D01*
G01*
G04 #@! TO.C,BT1*
D11*
X113998571Y-80033714D02*
X114046190Y-79890857D01*
X114093809Y-79843238D01*
X114189047Y-79795619D01*
X114331904Y-79795619D01*
X114427142Y-79843238D01*
X114474761Y-79890857D01*
X114522380Y-79986095D01*
X114522380Y-80367047D01*
X113522380Y-80367047D01*
X113522380Y-80033714D01*
X113570000Y-79938476D01*
X113617619Y-79890857D01*
X113712857Y-79843238D01*
X113808095Y-79843238D01*
X113903333Y-79890857D01*
X113950952Y-79938476D01*
X113998571Y-80033714D01*
X113998571Y-80367047D01*
X113522380Y-79509904D02*
X113522380Y-78938476D01*
X114522380Y-79224190D02*
X113522380Y-79224190D01*
X114522380Y-78081333D02*
X114522380Y-78652761D01*
X114522380Y-78367047D02*
X113522380Y-78367047D01*
X113665238Y-78462285D01*
X113760476Y-78557523D01*
X113808095Y-78652761D01*
G04 #@! TO.C,C1*
X117963333Y-87225142D02*
X117915714Y-87272761D01*
X117772857Y-87320380D01*
X117677619Y-87320380D01*
X117534761Y-87272761D01*
X117439523Y-87177523D01*
X117391904Y-87082285D01*
X117344285Y-86891809D01*
X117344285Y-86748952D01*
X117391904Y-86558476D01*
X117439523Y-86463238D01*
X117534761Y-86368000D01*
X117677619Y-86320380D01*
X117772857Y-86320380D01*
X117915714Y-86368000D01*
X117963333Y-86415619D01*
X118915714Y-87320380D02*
X118344285Y-87320380D01*
X118630000Y-87320380D02*
X118630000Y-86320380D01*
X118534761Y-86463238D01*
X118439523Y-86558476D01*
X118344285Y-86606095D01*
G04 #@! TO.C,Q1*
X134270761Y-97571619D02*
X134175523Y-97524000D01*
X134080285Y-97428761D01*
X133937428Y-97285904D01*
X133842190Y-97238285D01*
X133746952Y-97238285D01*
X133794571Y-97476380D02*
X133699333Y-97428761D01*
X133604095Y-97333523D01*
X133556476Y-97143047D01*
X133556476Y-96809714D01*
X133604095Y-96619238D01*
X133699333Y-96524000D01*
X133794571Y-96476380D01*
X133985047Y-96476380D01*
X134080285Y-96524000D01*
X134175523Y-96619238D01*
X134223142Y-96809714D01*
X134223142Y-97143047D01*
X134175523Y-97333523D01*
X134080285Y-97428761D01*
X133985047Y-97476380D01*
X133794571Y-97476380D01*
X135175523Y-97476380D02*
X134604095Y-97476380D01*
X134889809Y-97476380D02*
X134889809Y-96476380D01*
X134794571Y-96619238D01*
X134699333Y-96714476D01*
X134604095Y-96762095D01*
G04 #@! TO.C,R1*
X131405333Y-91384380D02*
X131072000Y-90908190D01*
X130833904Y-91384380D02*
X130833904Y-90384380D01*
X131214857Y-90384380D01*
X131310095Y-90432000D01*
X131357714Y-90479619D01*
X131405333Y-90574857D01*
X131405333Y-90717714D01*
X131357714Y-90812952D01*
X131310095Y-90860571D01*
X131214857Y-90908190D01*
X130833904Y-90908190D01*
X132357714Y-91384380D02*
X131786285Y-91384380D01*
X132072000Y-91384380D02*
X132072000Y-90384380D01*
X131976761Y-90527238D01*
X131881523Y-90622476D01*
X131786285Y-90670095D01*
G04 #@! TO.C,R2*
X131346332Y-94713379D02*
X131012999Y-94237189D01*
X130774903Y-94713379D02*
X130774903Y-93713379D01*
X131155856Y-93713379D01*
X131251094Y-93760999D01*
X131298713Y-93808618D01*
X131346332Y-93903856D01*
X131346332Y-94046713D01*
X131298713Y-94141951D01*
X131251094Y-94189570D01*
X131155856Y-94237189D01*
X130774903Y-94237189D01*
X131727284Y-93808618D02*
X131774903Y-93760999D01*
X131870141Y-93713379D01*
X132108237Y-93713379D01*
X132203475Y-93760999D01*
X132251094Y-93808618D01*
X132298713Y-93903856D01*
X132298713Y-93999094D01*
X132251094Y-94141951D01*
X131679665Y-94713379D01*
X132298713Y-94713379D01*
G04 #@! TO.C,R3*
X123896380Y-83986666D02*
X123420190Y-84320000D01*
X123896380Y-84558095D02*
X122896380Y-84558095D01*
X122896380Y-84177142D01*
X122944000Y-84081904D01*
X122991619Y-84034285D01*
X123086857Y-83986666D01*
X123229714Y-83986666D01*
X123324952Y-84034285D01*
X123372571Y-84081904D01*
X123420190Y-84177142D01*
X123420190Y-84558095D01*
X122896380Y-83653333D02*
X122896380Y-83034285D01*
X123277333Y-83367619D01*
X123277333Y-83224761D01*
X123324952Y-83129523D01*
X123372571Y-83081904D01*
X123467809Y-83034285D01*
X123705904Y-83034285D01*
X123801142Y-83081904D01*
X123848761Y-83129523D01*
X123896380Y-83224761D01*
X123896380Y-83510476D01*
X123848761Y-83605714D01*
X123801142Y-83653333D01*
G04 #@! TO.C,R4*
X144016334Y-79687381D02*
X143683001Y-79211191D01*
X143444905Y-79687381D02*
X143444905Y-78687381D01*
X143825858Y-78687381D01*
X143921096Y-78735001D01*
X143968715Y-78782620D01*
X144016334Y-78877858D01*
X144016334Y-79020715D01*
X143968715Y-79115953D01*
X143921096Y-79163572D01*
X143825858Y-79211191D01*
X143444905Y-79211191D01*
X144873477Y-79020715D02*
X144873477Y-79687381D01*
X144635381Y-78639762D02*
X144397286Y-79354048D01*
X145016334Y-79354048D01*
G04 #@! TO.C,R5*
X144105333Y-86304380D02*
X143772000Y-85828190D01*
X143533904Y-86304380D02*
X143533904Y-85304380D01*
X143914857Y-85304380D01*
X144010095Y-85352000D01*
X144057714Y-85399619D01*
X144105333Y-85494857D01*
X144105333Y-85637714D01*
X144057714Y-85732952D01*
X144010095Y-85780571D01*
X143914857Y-85828190D01*
X143533904Y-85828190D01*
X145010095Y-85304380D02*
X144533904Y-85304380D01*
X144486285Y-85780571D01*
X144533904Y-85732952D01*
X144629142Y-85685333D01*
X144867238Y-85685333D01*
X144962476Y-85732952D01*
X145010095Y-85780571D01*
X145057714Y-85875809D01*
X145057714Y-86113904D01*
X145010095Y-86209142D01*
X144962476Y-86256761D01*
X144867238Y-86304380D01*
X144629142Y-86304380D01*
X144533904Y-86256761D01*
X144486285Y-86209142D01*
G04 #@! TO.C,R6*
X144105333Y-93416380D02*
X143772000Y-92940190D01*
X143533904Y-93416380D02*
X143533904Y-92416380D01*
X143914857Y-92416380D01*
X144010095Y-92464000D01*
X144057714Y-92511619D01*
X144105333Y-92606857D01*
X144105333Y-92749714D01*
X144057714Y-92844952D01*
X144010095Y-92892571D01*
X143914857Y-92940190D01*
X143533904Y-92940190D01*
X144962476Y-92416380D02*
X144772000Y-92416380D01*
X144676761Y-92464000D01*
X144629142Y-92511619D01*
X144533904Y-92654476D01*
X144486285Y-92844952D01*
X144486285Y-93225904D01*
X144533904Y-93321142D01*
X144581523Y-93368761D01*
X144676761Y-93416380D01*
X144867238Y-93416380D01*
X144962476Y-93368761D01*
X145010095Y-93321142D01*
X145057714Y-93225904D01*
X145057714Y-92987809D01*
X145010095Y-92892571D01*
X144962476Y-92844952D01*
X144867238Y-92797333D01*
X144676761Y-92797333D01*
X144581523Y-92844952D01*
X144533904Y-92892571D01*
X144486285Y-92987809D01*
G04 #@! TO.C,R7*
X144105333Y-100487381D02*
X143772000Y-100011191D01*
X143533904Y-100487381D02*
X143533904Y-99487381D01*
X143914857Y-99487381D01*
X144010095Y-99535001D01*
X144057714Y-99582620D01*
X144105333Y-99677858D01*
X144105333Y-99820715D01*
X144057714Y-99915953D01*
X144010095Y-99963572D01*
X143914857Y-100011191D01*
X143533904Y-100011191D01*
X144438666Y-99487381D02*
X145105333Y-99487381D01*
X144676761Y-100487381D01*
G04 #@! TO.C,U1*
X131064095Y-80224380D02*
X131064095Y-81033904D01*
X131111714Y-81129142D01*
X131159333Y-81176761D01*
X131254571Y-81224380D01*
X131445047Y-81224380D01*
X131540285Y-81176761D01*
X131587904Y-81129142D01*
X131635523Y-81033904D01*
X131635523Y-80224380D01*
X132635523Y-81224380D02*
X132064095Y-81224380D01*
X132349809Y-81224380D02*
X132349809Y-80224380D01*
X132254571Y-80367238D01*
X132159333Y-80462476D01*
X132064095Y-80510095D01*
G04 #@! TD*
M02*
