M48
; DRILL file {KiCad (5.1.7)-1} date 01/02/21 16:42:00
; FORMAT={-:-/ absolute / inch / decimal}
; #@! TF.CreationDate,2021-01-02T16:42:00-06:00
; #@! TF.GenerationSoftware,Kicad,Pcbnew,(5.1.7)-1
; #@! TF.FileFunction,Plated,1,2,PTH
FMAT,2
INCH
T1C0.0157
T2C0.0295
T3C0.0315
T4C0.0354
T5C0.0394
T6C0.0433
T7C0.0984
%
G90
G05
T1
X4.0453Y-4.7653
X4.1437Y-4.763
X4.2421Y-4.7664
X4.3406Y-4.7715
X4.439Y-4.773
X4.5374Y-4.7817
X5.9154Y-4.7667
X6.0138Y-4.4138
X6.0138Y-4.768
X6.1122Y-4.7665
X6.175Y-4.1
X6.2106Y-4.7664
X6.3091Y-4.7633
X6.4075Y-4.7625
T2
X5.025Y-3.6
X5.025Y-3.65
X5.025Y-3.7
X5.225Y-3.6
X5.225Y-3.65
X5.225Y-3.7
T3
X4.85Y-3.65
X4.85Y-4.05
X4.85Y-4.175
X5.25Y-4.175
X5.675Y-4.1
X5.7734Y-4.1
X4.6Y-4.1
X4.6984Y-4.1
X5.128Y-3.1
X5.228Y-3.3
X5.328Y-3.1
X5.5Y-3.725
X5.5Y-4.125
X4.975Y-3.875
X5.375Y-3.875
T4
X4.5374Y-3.7402
X4.5374Y-3.8402
X5.9154Y-3.7402
X5.9154Y-3.8402
T5
X4.439Y-3.4449
X4.5374Y-3.4449
X4.6358Y-3.4449
X6.225Y-3.6
X6.225Y-3.8953
X5.8169Y-3.4449
X5.9154Y-3.4449
X6.0138Y-3.4449
T6
X4.975Y-4.025
X5.375Y-4.025
T7
X3.3602Y-4.8268
X7.0925Y-4.8268
T0
M30
