%TF.GenerationSoftware,KiCad,Pcbnew,(5.1.7)-1*%
%TF.CreationDate,2021-01-07T21:32:01-06:00*%
%TF.ProjectId,ConsolePedalFuzz,436f6e73-6f6c-4655-9065-64616c46757a,rev?*%
%TF.SameCoordinates,Original*%
%TF.FileFunction,Legend,Bot*%
%TF.FilePolarity,Positive*%
%FSLAX46Y46*%
G04 Gerber Fmt 4.6, Leading zero omitted, Abs format (unit mm)*
G04 Created by KiCad (PCBNEW (5.1.7)-1) date 2021-01-07 21:32:01*
%MOMM*%
%LPD*%
G01*
G04 APERTURE LIST*
%ADD10C,0.250000*%
G04 APERTURE END LIST*
D10*
X141151428Y-121642142D02*
X141199047Y-121689761D01*
X141341904Y-121737380D01*
X141437142Y-121737380D01*
X141580000Y-121689761D01*
X141675238Y-121594523D01*
X141722857Y-121499285D01*
X141770476Y-121308809D01*
X141770476Y-121165952D01*
X141722857Y-120975476D01*
X141675238Y-120880238D01*
X141580000Y-120785000D01*
X141437142Y-120737380D01*
X141341904Y-120737380D01*
X141199047Y-120785000D01*
X141151428Y-120832619D01*
X140580000Y-121737380D02*
X140675238Y-121689761D01*
X140722857Y-121642142D01*
X140770476Y-121546904D01*
X140770476Y-121261190D01*
X140722857Y-121165952D01*
X140675238Y-121118333D01*
X140580000Y-121070714D01*
X140437142Y-121070714D01*
X140341904Y-121118333D01*
X140294285Y-121165952D01*
X140246666Y-121261190D01*
X140246666Y-121546904D01*
X140294285Y-121642142D01*
X140341904Y-121689761D01*
X140437142Y-121737380D01*
X140580000Y-121737380D01*
X139818095Y-121070714D02*
X139818095Y-121737380D01*
X139818095Y-121165952D02*
X139770476Y-121118333D01*
X139675238Y-121070714D01*
X139532380Y-121070714D01*
X139437142Y-121118333D01*
X139389523Y-121213571D01*
X139389523Y-121737380D01*
X138960952Y-121689761D02*
X138865714Y-121737380D01*
X138675238Y-121737380D01*
X138580000Y-121689761D01*
X138532380Y-121594523D01*
X138532380Y-121546904D01*
X138580000Y-121451666D01*
X138675238Y-121404047D01*
X138818095Y-121404047D01*
X138913333Y-121356428D01*
X138960952Y-121261190D01*
X138960952Y-121213571D01*
X138913333Y-121118333D01*
X138818095Y-121070714D01*
X138675238Y-121070714D01*
X138580000Y-121118333D01*
X137960952Y-121737380D02*
X138056190Y-121689761D01*
X138103809Y-121642142D01*
X138151428Y-121546904D01*
X138151428Y-121261190D01*
X138103809Y-121165952D01*
X138056190Y-121118333D01*
X137960952Y-121070714D01*
X137818095Y-121070714D01*
X137722857Y-121118333D01*
X137675238Y-121165952D01*
X137627619Y-121261190D01*
X137627619Y-121546904D01*
X137675238Y-121642142D01*
X137722857Y-121689761D01*
X137818095Y-121737380D01*
X137960952Y-121737380D01*
X137056190Y-121737380D02*
X137151428Y-121689761D01*
X137199047Y-121594523D01*
X137199047Y-120737380D01*
X136294285Y-121689761D02*
X136389523Y-121737380D01*
X136580000Y-121737380D01*
X136675238Y-121689761D01*
X136722857Y-121594523D01*
X136722857Y-121213571D01*
X136675238Y-121118333D01*
X136580000Y-121070714D01*
X136389523Y-121070714D01*
X136294285Y-121118333D01*
X136246666Y-121213571D01*
X136246666Y-121308809D01*
X136722857Y-121404047D01*
X135056190Y-121737380D02*
X135056190Y-120737380D01*
X134675238Y-120737380D01*
X134580000Y-120785000D01*
X134532380Y-120832619D01*
X134484761Y-120927857D01*
X134484761Y-121070714D01*
X134532380Y-121165952D01*
X134580000Y-121213571D01*
X134675238Y-121261190D01*
X135056190Y-121261190D01*
X133675238Y-121689761D02*
X133770476Y-121737380D01*
X133960952Y-121737380D01*
X134056190Y-121689761D01*
X134103809Y-121594523D01*
X134103809Y-121213571D01*
X134056190Y-121118333D01*
X133960952Y-121070714D01*
X133770476Y-121070714D01*
X133675238Y-121118333D01*
X133627619Y-121213571D01*
X133627619Y-121308809D01*
X134103809Y-121404047D01*
X132770476Y-121737380D02*
X132770476Y-120737380D01*
X132770476Y-121689761D02*
X132865714Y-121737380D01*
X133056190Y-121737380D01*
X133151428Y-121689761D01*
X133199047Y-121642142D01*
X133246666Y-121546904D01*
X133246666Y-121261190D01*
X133199047Y-121165952D01*
X133151428Y-121118333D01*
X133056190Y-121070714D01*
X132865714Y-121070714D01*
X132770476Y-121118333D01*
X131865714Y-121737380D02*
X131865714Y-121213571D01*
X131913333Y-121118333D01*
X132008571Y-121070714D01*
X132199047Y-121070714D01*
X132294285Y-121118333D01*
X131865714Y-121689761D02*
X131960952Y-121737380D01*
X132199047Y-121737380D01*
X132294285Y-121689761D01*
X132341904Y-121594523D01*
X132341904Y-121499285D01*
X132294285Y-121404047D01*
X132199047Y-121356428D01*
X131960952Y-121356428D01*
X131865714Y-121308809D01*
X131246666Y-121737380D02*
X131341904Y-121689761D01*
X131389523Y-121594523D01*
X131389523Y-120737380D01*
X129770476Y-121213571D02*
X130103809Y-121213571D01*
X130103809Y-121737380D02*
X130103809Y-120737380D01*
X129627619Y-120737380D01*
X128818095Y-121070714D02*
X128818095Y-121737380D01*
X129246666Y-121070714D02*
X129246666Y-121594523D01*
X129199047Y-121689761D01*
X129103809Y-121737380D01*
X128960952Y-121737380D01*
X128865714Y-121689761D01*
X128818095Y-121642142D01*
X128437142Y-121070714D02*
X127913333Y-121070714D01*
X128437142Y-121737380D01*
X127913333Y-121737380D01*
X127627619Y-121070714D02*
X127103809Y-121070714D01*
X127627619Y-121737380D01*
X127103809Y-121737380D01*
X126103809Y-120737380D02*
X125770476Y-121737380D01*
X125437142Y-120737380D01*
X124580000Y-121737380D02*
X125151428Y-121737380D01*
X124865714Y-121737380D02*
X124865714Y-120737380D01*
X124960952Y-120880238D01*
X125056190Y-120975476D01*
X125151428Y-121023095D01*
X124151428Y-121642142D02*
X124103809Y-121689761D01*
X124151428Y-121737380D01*
X124199047Y-121689761D01*
X124151428Y-121642142D01*
X124151428Y-121737380D01*
X123484761Y-120737380D02*
X123389523Y-120737380D01*
X123294285Y-120785000D01*
X123246666Y-120832619D01*
X123199047Y-120927857D01*
X123151428Y-121118333D01*
X123151428Y-121356428D01*
X123199047Y-121546904D01*
X123246666Y-121642142D01*
X123294285Y-121689761D01*
X123389523Y-121737380D01*
X123484761Y-121737380D01*
X123580000Y-121689761D01*
X123627619Y-121642142D01*
X123675238Y-121546904D01*
X123722857Y-121356428D01*
X123722857Y-121118333D01*
X123675238Y-120927857D01*
X123627619Y-120832619D01*
X123580000Y-120785000D01*
X123484761Y-120737380D01*
X146464285Y-110309761D02*
X145321428Y-110309761D01*
X145892857Y-112309761D02*
X145892857Y-110309761D01*
X144654761Y-112309761D02*
X144654761Y-110309761D01*
X143797619Y-112309761D02*
X143797619Y-111262142D01*
X143892857Y-111071666D01*
X144083333Y-110976428D01*
X144369047Y-110976428D01*
X144559523Y-111071666D01*
X144654761Y-111166904D01*
X142559523Y-112309761D02*
X142750000Y-112214523D01*
X142845238Y-112119285D01*
X142940476Y-111928809D01*
X142940476Y-111357380D01*
X142845238Y-111166904D01*
X142750000Y-111071666D01*
X142559523Y-110976428D01*
X142273809Y-110976428D01*
X142083333Y-111071666D01*
X141988095Y-111166904D01*
X141892857Y-111357380D01*
X141892857Y-111928809D01*
X141988095Y-112119285D01*
X142083333Y-112214523D01*
X142273809Y-112309761D01*
X142559523Y-112309761D01*
X141035714Y-112309761D02*
X141035714Y-110976428D01*
X141035714Y-111166904D02*
X140940476Y-111071666D01*
X140750000Y-110976428D01*
X140464285Y-110976428D01*
X140273809Y-111071666D01*
X140178571Y-111262142D01*
X140178571Y-112309761D01*
X140178571Y-111262142D02*
X140083333Y-111071666D01*
X139892857Y-110976428D01*
X139607142Y-110976428D01*
X139416666Y-111071666D01*
X139321428Y-111262142D01*
X139321428Y-112309761D01*
X137511904Y-112309761D02*
X137511904Y-111262142D01*
X137607142Y-111071666D01*
X137797619Y-110976428D01*
X138178571Y-110976428D01*
X138369047Y-111071666D01*
X137511904Y-112214523D02*
X137702380Y-112309761D01*
X138178571Y-112309761D01*
X138369047Y-112214523D01*
X138464285Y-112024047D01*
X138464285Y-111833571D01*
X138369047Y-111643095D01*
X138178571Y-111547857D01*
X137702380Y-111547857D01*
X137511904Y-111452619D01*
X136654761Y-112214523D02*
X136464285Y-112309761D01*
X136083333Y-112309761D01*
X135892857Y-112214523D01*
X135797619Y-112024047D01*
X135797619Y-111928809D01*
X135892857Y-111738333D01*
X136083333Y-111643095D01*
X136369047Y-111643095D01*
X136559523Y-111547857D01*
X136654761Y-111357380D01*
X136654761Y-111262142D01*
X136559523Y-111071666D01*
X136369047Y-110976428D01*
X136083333Y-110976428D01*
X135892857Y-111071666D01*
X133416666Y-112309761D02*
X133416666Y-110309761D01*
X132750000Y-111738333D01*
X132083333Y-110309761D01*
X132083333Y-112309761D01*
X130273809Y-112214523D02*
X130464285Y-112309761D01*
X130845238Y-112309761D01*
X131035714Y-112214523D01*
X131130952Y-112119285D01*
X131226190Y-111928809D01*
X131226190Y-111357380D01*
X131130952Y-111166904D01*
X131035714Y-111071666D01*
X130845238Y-110976428D01*
X130464285Y-110976428D01*
X130273809Y-111071666D01*
X129416666Y-112309761D02*
X129416666Y-110309761D01*
X128940476Y-110309761D01*
X128654761Y-110405000D01*
X128464285Y-110595476D01*
X128369047Y-110785952D01*
X128273809Y-111166904D01*
X128273809Y-111452619D01*
X128369047Y-111833571D01*
X128464285Y-112024047D01*
X128654761Y-112214523D01*
X128940476Y-112309761D01*
X129416666Y-112309761D01*
X127130952Y-112309761D02*
X127321428Y-112214523D01*
X127416666Y-112119285D01*
X127511904Y-111928809D01*
X127511904Y-111357380D01*
X127416666Y-111166904D01*
X127321428Y-111071666D01*
X127130952Y-110976428D01*
X126845238Y-110976428D01*
X126654761Y-111071666D01*
X126559523Y-111166904D01*
X126464285Y-111357380D01*
X126464285Y-111928809D01*
X126559523Y-112119285D01*
X126654761Y-112214523D01*
X126845238Y-112309761D01*
X127130952Y-112309761D01*
X125607142Y-110976428D02*
X125607142Y-112309761D01*
X125607142Y-111166904D02*
X125511904Y-111071666D01*
X125321428Y-110976428D01*
X125035714Y-110976428D01*
X124845238Y-111071666D01*
X124750000Y-111262142D01*
X124750000Y-112309761D01*
X122940476Y-112309761D02*
X122940476Y-111262142D01*
X123035714Y-111071666D01*
X123226190Y-110976428D01*
X123607142Y-110976428D01*
X123797619Y-111071666D01*
X122940476Y-112214523D02*
X123130952Y-112309761D01*
X123607142Y-112309761D01*
X123797619Y-112214523D01*
X123892857Y-112024047D01*
X123892857Y-111833571D01*
X123797619Y-111643095D01*
X123607142Y-111547857D01*
X123130952Y-111547857D01*
X122940476Y-111452619D01*
X121130952Y-110976428D02*
X121130952Y-112595476D01*
X121226190Y-112785952D01*
X121321428Y-112881190D01*
X121511904Y-112976428D01*
X121797619Y-112976428D01*
X121988095Y-112881190D01*
X121130952Y-112214523D02*
X121321428Y-112309761D01*
X121702380Y-112309761D01*
X121892857Y-112214523D01*
X121988095Y-112119285D01*
X122083333Y-111928809D01*
X122083333Y-111357380D01*
X121988095Y-111166904D01*
X121892857Y-111071666D01*
X121702380Y-110976428D01*
X121321428Y-110976428D01*
X121130952Y-111071666D01*
X120178571Y-112309761D02*
X120178571Y-110309761D01*
X119321428Y-112309761D02*
X119321428Y-111262142D01*
X119416666Y-111071666D01*
X119607142Y-110976428D01*
X119892857Y-110976428D01*
X120083333Y-111071666D01*
X120178571Y-111166904D01*
X146750000Y-115559761D02*
X146750000Y-114226428D01*
X146750000Y-114416904D02*
X146654761Y-114321666D01*
X146464285Y-114226428D01*
X146178571Y-114226428D01*
X145988095Y-114321666D01*
X145892857Y-114512142D01*
X145892857Y-115559761D01*
X145892857Y-114512142D02*
X145797619Y-114321666D01*
X145607142Y-114226428D01*
X145321428Y-114226428D01*
X145130952Y-114321666D01*
X145035714Y-114512142D01*
X145035714Y-115559761D01*
X143226190Y-115464523D02*
X143416666Y-115559761D01*
X143797619Y-115559761D01*
X143988095Y-115464523D01*
X144083333Y-115369285D01*
X144178571Y-115178809D01*
X144178571Y-114607380D01*
X144083333Y-114416904D01*
X143988095Y-114321666D01*
X143797619Y-114226428D01*
X143416666Y-114226428D01*
X143226190Y-114321666D01*
X141511904Y-115559761D02*
X141511904Y-113559761D01*
X141511904Y-115464523D02*
X141702380Y-115559761D01*
X142083333Y-115559761D01*
X142273809Y-115464523D01*
X142369047Y-115369285D01*
X142464285Y-115178809D01*
X142464285Y-114607380D01*
X142369047Y-114416904D01*
X142273809Y-114321666D01*
X142083333Y-114226428D01*
X141702380Y-114226428D01*
X141511904Y-114321666D01*
X140273809Y-115559761D02*
X140464285Y-115464523D01*
X140559523Y-115369285D01*
X140654761Y-115178809D01*
X140654761Y-114607380D01*
X140559523Y-114416904D01*
X140464285Y-114321666D01*
X140273809Y-114226428D01*
X139988095Y-114226428D01*
X139797619Y-114321666D01*
X139702380Y-114416904D01*
X139607142Y-114607380D01*
X139607142Y-115178809D01*
X139702380Y-115369285D01*
X139797619Y-115464523D01*
X139988095Y-115559761D01*
X140273809Y-115559761D01*
X138750000Y-114226428D02*
X138750000Y-115559761D01*
X138750000Y-114416904D02*
X138654761Y-114321666D01*
X138464285Y-114226428D01*
X138178571Y-114226428D01*
X137988095Y-114321666D01*
X137892857Y-114512142D01*
X137892857Y-115559761D01*
X136083333Y-115559761D02*
X136083333Y-114512142D01*
X136178571Y-114321666D01*
X136369047Y-114226428D01*
X136750000Y-114226428D01*
X136940476Y-114321666D01*
X136083333Y-115464523D02*
X136273809Y-115559761D01*
X136750000Y-115559761D01*
X136940476Y-115464523D01*
X137035714Y-115274047D01*
X137035714Y-115083571D01*
X136940476Y-114893095D01*
X136750000Y-114797857D01*
X136273809Y-114797857D01*
X136083333Y-114702619D01*
X134273809Y-114226428D02*
X134273809Y-115845476D01*
X134369047Y-116035952D01*
X134464285Y-116131190D01*
X134654761Y-116226428D01*
X134940476Y-116226428D01*
X135130952Y-116131190D01*
X134273809Y-115464523D02*
X134464285Y-115559761D01*
X134845238Y-115559761D01*
X135035714Y-115464523D01*
X135130952Y-115369285D01*
X135226190Y-115178809D01*
X135226190Y-114607380D01*
X135130952Y-114416904D01*
X135035714Y-114321666D01*
X134845238Y-114226428D01*
X134464285Y-114226428D01*
X134273809Y-114321666D01*
X133321428Y-115559761D02*
X133321428Y-113559761D01*
X132464285Y-115559761D02*
X132464285Y-114512142D01*
X132559523Y-114321666D01*
X132750000Y-114226428D01*
X133035714Y-114226428D01*
X133226190Y-114321666D01*
X133321428Y-114416904D01*
X130654761Y-115464523D02*
X130845238Y-115559761D01*
X131226190Y-115559761D01*
X131416666Y-115464523D01*
X131511904Y-115369285D01*
X131607142Y-115178809D01*
X131607142Y-114607380D01*
X131511904Y-114416904D01*
X131416666Y-114321666D01*
X131226190Y-114226428D01*
X130845238Y-114226428D01*
X130654761Y-114321666D01*
X129511904Y-115559761D02*
X129702380Y-115464523D01*
X129797619Y-115369285D01*
X129892857Y-115178809D01*
X129892857Y-114607380D01*
X129797619Y-114416904D01*
X129702380Y-114321666D01*
X129511904Y-114226428D01*
X129226190Y-114226428D01*
X129035714Y-114321666D01*
X128940476Y-114416904D01*
X128845238Y-114607380D01*
X128845238Y-115178809D01*
X128940476Y-115369285D01*
X129035714Y-115464523D01*
X129226190Y-115559761D01*
X129511904Y-115559761D01*
X127988095Y-115559761D02*
X127988095Y-114226428D01*
X127988095Y-114607380D02*
X127892857Y-114416904D01*
X127797619Y-114321666D01*
X127607142Y-114226428D01*
X127416666Y-114226428D01*
X126750000Y-114226428D02*
X126750000Y-116226428D01*
X126750000Y-114321666D02*
X126559523Y-114226428D01*
X126178571Y-114226428D01*
X125988095Y-114321666D01*
X125892857Y-114416904D01*
X125797619Y-114607380D01*
X125797619Y-115178809D01*
X125892857Y-115369285D01*
X125988095Y-115464523D01*
X126178571Y-115559761D01*
X126559523Y-115559761D01*
X126750000Y-115464523D01*
X124940476Y-115369285D02*
X124845238Y-115464523D01*
X124940476Y-115559761D01*
X125035714Y-115464523D01*
X124940476Y-115369285D01*
X124940476Y-115559761D01*
X123130952Y-115464523D02*
X123321428Y-115559761D01*
X123702380Y-115559761D01*
X123892857Y-115464523D01*
X123988095Y-115369285D01*
X124083333Y-115178809D01*
X124083333Y-114607380D01*
X123988095Y-114416904D01*
X123892857Y-114321666D01*
X123702380Y-114226428D01*
X123321428Y-114226428D01*
X123130952Y-114321666D01*
X121988095Y-115559761D02*
X122178571Y-115464523D01*
X122273809Y-115369285D01*
X122369047Y-115178809D01*
X122369047Y-114607380D01*
X122273809Y-114416904D01*
X122178571Y-114321666D01*
X121988095Y-114226428D01*
X121702380Y-114226428D01*
X121511904Y-114321666D01*
X121416666Y-114416904D01*
X121321428Y-114607380D01*
X121321428Y-115178809D01*
X121416666Y-115369285D01*
X121511904Y-115464523D01*
X121702380Y-115559761D01*
X121988095Y-115559761D01*
X120464285Y-115559761D02*
X120464285Y-114226428D01*
X120464285Y-114416904D02*
X120369047Y-114321666D01*
X120178571Y-114226428D01*
X119892857Y-114226428D01*
X119702380Y-114321666D01*
X119607142Y-114512142D01*
X119607142Y-115559761D01*
X119607142Y-114512142D02*
X119511904Y-114321666D01*
X119321428Y-114226428D01*
X119035714Y-114226428D01*
X118845238Y-114321666D01*
X118750000Y-114512142D01*
X118750000Y-115559761D01*
M02*
