G04 #@! TF.GenerationSoftware,KiCad,Pcbnew,(5.1.7)-1*
G04 #@! TF.CreationDate,2021-02-06T12:52:47-06:00*
G04 #@! TF.ProjectId,ConsolePedalFuzz,436f6e73-6f6c-4655-9065-64616c46757a,rev?*
G04 #@! TF.SameCoordinates,Original*
G04 #@! TF.FileFunction,Legend,Top*
G04 #@! TF.FilePolarity,Positive*
%FSLAX46Y46*%
G04 Gerber Fmt 4.6, Leading zero omitted, Abs format (unit mm)*
G04 Created by KiCad (PCBNEW (5.1.7)-1) date 2021-02-06 12:52:47*
%MOMM*%
%LPD*%
G01*
G04 APERTURE LIST*
%ADD10C,0.150000*%
%ADD11C,0.250000*%
%ADD12C,0.120000*%
G04 APERTURE END LIST*
D10*
X128684857Y-81041142D02*
X128684857Y-81684000D01*
X128642000Y-81812571D01*
X128556285Y-81898285D01*
X128427714Y-81941142D01*
X128342000Y-81941142D01*
X129542000Y-81941142D02*
X129113428Y-81941142D01*
X129113428Y-81041142D01*
X130356285Y-81855428D02*
X130313428Y-81898285D01*
X130184857Y-81941142D01*
X130099142Y-81941142D01*
X129970571Y-81898285D01*
X129884857Y-81812571D01*
X129842000Y-81726857D01*
X129799142Y-81555428D01*
X129799142Y-81426857D01*
X129842000Y-81255428D01*
X129884857Y-81169714D01*
X129970571Y-81084000D01*
X130099142Y-81041142D01*
X130184857Y-81041142D01*
X130313428Y-81084000D01*
X130356285Y-81126857D01*
X130999142Y-81041142D02*
X130999142Y-81684000D01*
X130956285Y-81812571D01*
X130870571Y-81898285D01*
X130742000Y-81941142D01*
X130656285Y-81941142D01*
X131856285Y-81941142D02*
X131427714Y-81941142D01*
X131427714Y-81041142D01*
X132670571Y-81855428D02*
X132627714Y-81898285D01*
X132499142Y-81941142D01*
X132413428Y-81941142D01*
X132284857Y-81898285D01*
X132199142Y-81812571D01*
X132156285Y-81726857D01*
X132113428Y-81555428D01*
X132113428Y-81426857D01*
X132156285Y-81255428D01*
X132199142Y-81169714D01*
X132284857Y-81084000D01*
X132413428Y-81041142D01*
X132499142Y-81041142D01*
X132627714Y-81084000D01*
X132670571Y-81126857D01*
X133313428Y-81041142D02*
X133313428Y-81684000D01*
X133270571Y-81812571D01*
X133184857Y-81898285D01*
X133056285Y-81941142D01*
X132970571Y-81941142D01*
X134170571Y-81941142D02*
X133742000Y-81941142D01*
X133742000Y-81041142D01*
X134984857Y-81855428D02*
X134942000Y-81898285D01*
X134813428Y-81941142D01*
X134727714Y-81941142D01*
X134599142Y-81898285D01*
X134513428Y-81812571D01*
X134470571Y-81726857D01*
X134427714Y-81555428D01*
X134427714Y-81426857D01*
X134470571Y-81255428D01*
X134513428Y-81169714D01*
X134599142Y-81084000D01*
X134727714Y-81041142D01*
X134813428Y-81041142D01*
X134942000Y-81084000D01*
X134984857Y-81126857D01*
X135627714Y-81041142D02*
X135627714Y-81684000D01*
X135584857Y-81812571D01*
X135499142Y-81898285D01*
X135370571Y-81941142D01*
X135284857Y-81941142D01*
X136484857Y-81941142D02*
X136056285Y-81941142D01*
X136056285Y-81041142D01*
X137299142Y-81855428D02*
X137256285Y-81898285D01*
X137127714Y-81941142D01*
X137042000Y-81941142D01*
X136913428Y-81898285D01*
X136827714Y-81812571D01*
X136784857Y-81726857D01*
X136742000Y-81555428D01*
X136742000Y-81426857D01*
X136784857Y-81255428D01*
X136827714Y-81169714D01*
X136913428Y-81084000D01*
X137042000Y-81041142D01*
X137127714Y-81041142D01*
X137256285Y-81084000D01*
X137299142Y-81126857D01*
X147621904Y-72247142D02*
X146955238Y-72247142D01*
X146955238Y-73294761D02*
X146955238Y-71294761D01*
X147907619Y-71294761D01*
X149526666Y-71961428D02*
X149526666Y-73294761D01*
X148669523Y-71961428D02*
X148669523Y-73009047D01*
X148764761Y-73199523D01*
X148955238Y-73294761D01*
X149240952Y-73294761D01*
X149431428Y-73199523D01*
X149526666Y-73104285D01*
X150288571Y-71961428D02*
X151336190Y-71961428D01*
X150288571Y-73294761D01*
X151336190Y-73294761D01*
X151907619Y-71961428D02*
X152955238Y-71961428D01*
X151907619Y-73294761D01*
X152955238Y-73294761D01*
X110379523Y-71294761D02*
X111046190Y-73294761D01*
X111712857Y-71294761D01*
X112665238Y-73294761D02*
X112474761Y-73199523D01*
X112379523Y-73104285D01*
X112284285Y-72913809D01*
X112284285Y-72342380D01*
X112379523Y-72151904D01*
X112474761Y-72056666D01*
X112665238Y-71961428D01*
X112950952Y-71961428D01*
X113141428Y-72056666D01*
X113236666Y-72151904D01*
X113331904Y-72342380D01*
X113331904Y-72913809D01*
X113236666Y-73104285D01*
X113141428Y-73199523D01*
X112950952Y-73294761D01*
X112665238Y-73294761D01*
X114474761Y-73294761D02*
X114284285Y-73199523D01*
X114189047Y-73009047D01*
X114189047Y-71294761D01*
X116093809Y-71961428D02*
X116093809Y-73294761D01*
X115236666Y-71961428D02*
X115236666Y-73009047D01*
X115331904Y-73199523D01*
X115522380Y-73294761D01*
X115808095Y-73294761D01*
X115998571Y-73199523D01*
X116093809Y-73104285D01*
X117046190Y-73294761D02*
X117046190Y-71961428D01*
X117046190Y-72151904D02*
X117141428Y-72056666D01*
X117331904Y-71961428D01*
X117617619Y-71961428D01*
X117808095Y-72056666D01*
X117903333Y-72247142D01*
X117903333Y-73294761D01*
X117903333Y-72247142D02*
X117998571Y-72056666D01*
X118189047Y-71961428D01*
X118474761Y-71961428D01*
X118665238Y-72056666D01*
X118760476Y-72247142D01*
X118760476Y-73294761D01*
X120474761Y-73199523D02*
X120284285Y-73294761D01*
X119903333Y-73294761D01*
X119712857Y-73199523D01*
X119617619Y-73009047D01*
X119617619Y-72247142D01*
X119712857Y-72056666D01*
X119903333Y-71961428D01*
X120284285Y-71961428D01*
X120474761Y-72056666D01*
X120570000Y-72247142D01*
X120570000Y-72437619D01*
X119617619Y-72628095D01*
D11*
X119679285Y-121820714D02*
X119607857Y-121892142D01*
X119393571Y-121963571D01*
X119250714Y-121963571D01*
X119036428Y-121892142D01*
X118893571Y-121749285D01*
X118822142Y-121606428D01*
X118750714Y-121320714D01*
X118750714Y-121106428D01*
X118822142Y-120820714D01*
X118893571Y-120677857D01*
X119036428Y-120535000D01*
X119250714Y-120463571D01*
X119393571Y-120463571D01*
X119607857Y-120535000D01*
X119679285Y-120606428D01*
X120536428Y-121963571D02*
X120393571Y-121892142D01*
X120322142Y-121820714D01*
X120250714Y-121677857D01*
X120250714Y-121249285D01*
X120322142Y-121106428D01*
X120393571Y-121035000D01*
X120536428Y-120963571D01*
X120750714Y-120963571D01*
X120893571Y-121035000D01*
X120965000Y-121106428D01*
X121036428Y-121249285D01*
X121036428Y-121677857D01*
X120965000Y-121820714D01*
X120893571Y-121892142D01*
X120750714Y-121963571D01*
X120536428Y-121963571D01*
X121679285Y-120963571D02*
X121679285Y-121963571D01*
X121679285Y-121106428D02*
X121750714Y-121035000D01*
X121893571Y-120963571D01*
X122107857Y-120963571D01*
X122250714Y-121035000D01*
X122322142Y-121177857D01*
X122322142Y-121963571D01*
X122965000Y-121892142D02*
X123107857Y-121963571D01*
X123393571Y-121963571D01*
X123536428Y-121892142D01*
X123607857Y-121749285D01*
X123607857Y-121677857D01*
X123536428Y-121535000D01*
X123393571Y-121463571D01*
X123179285Y-121463571D01*
X123036428Y-121392142D01*
X122965000Y-121249285D01*
X122965000Y-121177857D01*
X123036428Y-121035000D01*
X123179285Y-120963571D01*
X123393571Y-120963571D01*
X123536428Y-121035000D01*
X124465000Y-121963571D02*
X124322142Y-121892142D01*
X124250714Y-121820714D01*
X124179285Y-121677857D01*
X124179285Y-121249285D01*
X124250714Y-121106428D01*
X124322142Y-121035000D01*
X124465000Y-120963571D01*
X124679285Y-120963571D01*
X124822142Y-121035000D01*
X124893571Y-121106428D01*
X124965000Y-121249285D01*
X124965000Y-121677857D01*
X124893571Y-121820714D01*
X124822142Y-121892142D01*
X124679285Y-121963571D01*
X124465000Y-121963571D01*
X125822142Y-121963571D02*
X125679285Y-121892142D01*
X125607857Y-121749285D01*
X125607857Y-120463571D01*
X126965000Y-121892142D02*
X126822142Y-121963571D01*
X126536428Y-121963571D01*
X126393571Y-121892142D01*
X126322142Y-121749285D01*
X126322142Y-121177857D01*
X126393571Y-121035000D01*
X126536428Y-120963571D01*
X126822142Y-120963571D01*
X126965000Y-121035000D01*
X127036428Y-121177857D01*
X127036428Y-121320714D01*
X126322142Y-121463571D01*
X128822142Y-121963571D02*
X128822142Y-120463571D01*
X129393571Y-120463571D01*
X129536428Y-120535000D01*
X129607857Y-120606428D01*
X129679285Y-120749285D01*
X129679285Y-120963571D01*
X129607857Y-121106428D01*
X129536428Y-121177857D01*
X129393571Y-121249285D01*
X128822142Y-121249285D01*
X130893571Y-121892142D02*
X130750714Y-121963571D01*
X130465000Y-121963571D01*
X130322142Y-121892142D01*
X130250714Y-121749285D01*
X130250714Y-121177857D01*
X130322142Y-121035000D01*
X130465000Y-120963571D01*
X130750714Y-120963571D01*
X130893571Y-121035000D01*
X130965000Y-121177857D01*
X130965000Y-121320714D01*
X130250714Y-121463571D01*
X132250714Y-121963571D02*
X132250714Y-120463571D01*
X132250714Y-121892142D02*
X132107857Y-121963571D01*
X131822142Y-121963571D01*
X131679285Y-121892142D01*
X131607857Y-121820714D01*
X131536428Y-121677857D01*
X131536428Y-121249285D01*
X131607857Y-121106428D01*
X131679285Y-121035000D01*
X131822142Y-120963571D01*
X132107857Y-120963571D01*
X132250714Y-121035000D01*
X133607857Y-121963571D02*
X133607857Y-121177857D01*
X133536428Y-121035000D01*
X133393571Y-120963571D01*
X133107857Y-120963571D01*
X132965000Y-121035000D01*
X133607857Y-121892142D02*
X133465000Y-121963571D01*
X133107857Y-121963571D01*
X132965000Y-121892142D01*
X132893571Y-121749285D01*
X132893571Y-121606428D01*
X132965000Y-121463571D01*
X133107857Y-121392142D01*
X133465000Y-121392142D01*
X133607857Y-121320714D01*
X134536428Y-121963571D02*
X134393571Y-121892142D01*
X134322142Y-121749285D01*
X134322142Y-120463571D01*
X136750714Y-121177857D02*
X136250714Y-121177857D01*
X136250714Y-121963571D02*
X136250714Y-120463571D01*
X136965000Y-120463571D01*
X138179285Y-120963571D02*
X138179285Y-121963571D01*
X137536428Y-120963571D02*
X137536428Y-121749285D01*
X137607857Y-121892142D01*
X137750714Y-121963571D01*
X137965000Y-121963571D01*
X138107857Y-121892142D01*
X138179285Y-121820714D01*
X138750714Y-120963571D02*
X139536428Y-120963571D01*
X138750714Y-121963571D01*
X139536428Y-121963571D01*
X139965000Y-120963571D02*
X140750714Y-120963571D01*
X139965000Y-121963571D01*
X140750714Y-121963571D01*
X142250714Y-120463571D02*
X142750714Y-121963571D01*
X143250714Y-120463571D01*
X144536428Y-121963571D02*
X143679285Y-121963571D01*
X144107857Y-121963571D02*
X144107857Y-120463571D01*
X143965000Y-120677857D01*
X143822142Y-120820714D01*
X143679285Y-120892142D01*
X145179285Y-121820714D02*
X145250714Y-121892142D01*
X145179285Y-121963571D01*
X145107857Y-121892142D01*
X145179285Y-121820714D01*
X145179285Y-121963571D01*
X146679285Y-121963571D02*
X145822142Y-121963571D01*
X146250714Y-121963571D02*
X146250714Y-120463571D01*
X146107857Y-120677857D01*
X145965000Y-120820714D01*
X145822142Y-120892142D01*
X86941761Y-117854285D02*
X86941761Y-116711428D01*
X88941761Y-117282857D02*
X86941761Y-117282857D01*
X88941761Y-116044761D02*
X86941761Y-116044761D01*
X88941761Y-115187619D02*
X87894142Y-115187619D01*
X87703666Y-115282857D01*
X87608428Y-115473333D01*
X87608428Y-115759047D01*
X87703666Y-115949523D01*
X87798904Y-116044761D01*
X88941761Y-113949523D02*
X88846523Y-114140000D01*
X88751285Y-114235238D01*
X88560809Y-114330476D01*
X87989380Y-114330476D01*
X87798904Y-114235238D01*
X87703666Y-114140000D01*
X87608428Y-113949523D01*
X87608428Y-113663809D01*
X87703666Y-113473333D01*
X87798904Y-113378095D01*
X87989380Y-113282857D01*
X88560809Y-113282857D01*
X88751285Y-113378095D01*
X88846523Y-113473333D01*
X88941761Y-113663809D01*
X88941761Y-113949523D01*
X88941761Y-112425714D02*
X87608428Y-112425714D01*
X87798904Y-112425714D02*
X87703666Y-112330476D01*
X87608428Y-112140000D01*
X87608428Y-111854285D01*
X87703666Y-111663809D01*
X87894142Y-111568571D01*
X88941761Y-111568571D01*
X87894142Y-111568571D02*
X87703666Y-111473333D01*
X87608428Y-111282857D01*
X87608428Y-110997142D01*
X87703666Y-110806666D01*
X87894142Y-110711428D01*
X88941761Y-110711428D01*
X88941761Y-108901904D02*
X87894142Y-108901904D01*
X87703666Y-108997142D01*
X87608428Y-109187619D01*
X87608428Y-109568571D01*
X87703666Y-109759047D01*
X88846523Y-108901904D02*
X88941761Y-109092380D01*
X88941761Y-109568571D01*
X88846523Y-109759047D01*
X88656047Y-109854285D01*
X88465571Y-109854285D01*
X88275095Y-109759047D01*
X88179857Y-109568571D01*
X88179857Y-109092380D01*
X88084619Y-108901904D01*
X88846523Y-108044761D02*
X88941761Y-107854285D01*
X88941761Y-107473333D01*
X88846523Y-107282857D01*
X88656047Y-107187619D01*
X88560809Y-107187619D01*
X88370333Y-107282857D01*
X88275095Y-107473333D01*
X88275095Y-107759047D01*
X88179857Y-107949523D01*
X87989380Y-108044761D01*
X87894142Y-108044761D01*
X87703666Y-107949523D01*
X87608428Y-107759047D01*
X87608428Y-107473333D01*
X87703666Y-107282857D01*
X88941761Y-104806666D02*
X86941761Y-104806666D01*
X88370333Y-104140000D01*
X86941761Y-103473333D01*
X88941761Y-103473333D01*
X88846523Y-101663809D02*
X88941761Y-101854285D01*
X88941761Y-102235238D01*
X88846523Y-102425714D01*
X88751285Y-102520952D01*
X88560809Y-102616190D01*
X87989380Y-102616190D01*
X87798904Y-102520952D01*
X87703666Y-102425714D01*
X87608428Y-102235238D01*
X87608428Y-101854285D01*
X87703666Y-101663809D01*
X88941761Y-100806666D02*
X86941761Y-100806666D01*
X86941761Y-100330476D01*
X87037000Y-100044761D01*
X87227476Y-99854285D01*
X87417952Y-99759047D01*
X87798904Y-99663809D01*
X88084619Y-99663809D01*
X88465571Y-99759047D01*
X88656047Y-99854285D01*
X88846523Y-100044761D01*
X88941761Y-100330476D01*
X88941761Y-100806666D01*
X88941761Y-98520952D02*
X88846523Y-98711428D01*
X88751285Y-98806666D01*
X88560809Y-98901904D01*
X87989380Y-98901904D01*
X87798904Y-98806666D01*
X87703666Y-98711428D01*
X87608428Y-98520952D01*
X87608428Y-98235238D01*
X87703666Y-98044761D01*
X87798904Y-97949523D01*
X87989380Y-97854285D01*
X88560809Y-97854285D01*
X88751285Y-97949523D01*
X88846523Y-98044761D01*
X88941761Y-98235238D01*
X88941761Y-98520952D01*
X87608428Y-96997142D02*
X88941761Y-96997142D01*
X87798904Y-96997142D02*
X87703666Y-96901904D01*
X87608428Y-96711428D01*
X87608428Y-96425714D01*
X87703666Y-96235238D01*
X87894142Y-96140000D01*
X88941761Y-96140000D01*
X88941761Y-94330476D02*
X87894142Y-94330476D01*
X87703666Y-94425714D01*
X87608428Y-94616190D01*
X87608428Y-94997142D01*
X87703666Y-95187619D01*
X88846523Y-94330476D02*
X88941761Y-94520952D01*
X88941761Y-94997142D01*
X88846523Y-95187619D01*
X88656047Y-95282857D01*
X88465571Y-95282857D01*
X88275095Y-95187619D01*
X88179857Y-94997142D01*
X88179857Y-94520952D01*
X88084619Y-94330476D01*
X87608428Y-92520952D02*
X89227476Y-92520952D01*
X89417952Y-92616190D01*
X89513190Y-92711428D01*
X89608428Y-92901904D01*
X89608428Y-93187619D01*
X89513190Y-93378095D01*
X88846523Y-92520952D02*
X88941761Y-92711428D01*
X88941761Y-93092380D01*
X88846523Y-93282857D01*
X88751285Y-93378095D01*
X88560809Y-93473333D01*
X87989380Y-93473333D01*
X87798904Y-93378095D01*
X87703666Y-93282857D01*
X87608428Y-93092380D01*
X87608428Y-92711428D01*
X87703666Y-92520952D01*
X88941761Y-91568571D02*
X86941761Y-91568571D01*
X88941761Y-90711428D02*
X87894142Y-90711428D01*
X87703666Y-90806666D01*
X87608428Y-90997142D01*
X87608428Y-91282857D01*
X87703666Y-91473333D01*
X87798904Y-91568571D01*
X92191761Y-118140000D02*
X90858428Y-118140000D01*
X91048904Y-118140000D02*
X90953666Y-118044761D01*
X90858428Y-117854285D01*
X90858428Y-117568571D01*
X90953666Y-117378095D01*
X91144142Y-117282857D01*
X92191761Y-117282857D01*
X91144142Y-117282857D02*
X90953666Y-117187619D01*
X90858428Y-116997142D01*
X90858428Y-116711428D01*
X90953666Y-116520952D01*
X91144142Y-116425714D01*
X92191761Y-116425714D01*
X92096523Y-114616190D02*
X92191761Y-114806666D01*
X92191761Y-115187619D01*
X92096523Y-115378095D01*
X92001285Y-115473333D01*
X91810809Y-115568571D01*
X91239380Y-115568571D01*
X91048904Y-115473333D01*
X90953666Y-115378095D01*
X90858428Y-115187619D01*
X90858428Y-114806666D01*
X90953666Y-114616190D01*
X92191761Y-112901904D02*
X90191761Y-112901904D01*
X92096523Y-112901904D02*
X92191761Y-113092380D01*
X92191761Y-113473333D01*
X92096523Y-113663809D01*
X92001285Y-113759047D01*
X91810809Y-113854285D01*
X91239380Y-113854285D01*
X91048904Y-113759047D01*
X90953666Y-113663809D01*
X90858428Y-113473333D01*
X90858428Y-113092380D01*
X90953666Y-112901904D01*
X92191761Y-111663809D02*
X92096523Y-111854285D01*
X92001285Y-111949523D01*
X91810809Y-112044761D01*
X91239380Y-112044761D01*
X91048904Y-111949523D01*
X90953666Y-111854285D01*
X90858428Y-111663809D01*
X90858428Y-111378095D01*
X90953666Y-111187619D01*
X91048904Y-111092380D01*
X91239380Y-110997142D01*
X91810809Y-110997142D01*
X92001285Y-111092380D01*
X92096523Y-111187619D01*
X92191761Y-111378095D01*
X92191761Y-111663809D01*
X90858428Y-110140000D02*
X92191761Y-110140000D01*
X91048904Y-110140000D02*
X90953666Y-110044761D01*
X90858428Y-109854285D01*
X90858428Y-109568571D01*
X90953666Y-109378095D01*
X91144142Y-109282857D01*
X92191761Y-109282857D01*
X92191761Y-107473333D02*
X91144142Y-107473333D01*
X90953666Y-107568571D01*
X90858428Y-107759047D01*
X90858428Y-108140000D01*
X90953666Y-108330476D01*
X92096523Y-107473333D02*
X92191761Y-107663809D01*
X92191761Y-108140000D01*
X92096523Y-108330476D01*
X91906047Y-108425714D01*
X91715571Y-108425714D01*
X91525095Y-108330476D01*
X91429857Y-108140000D01*
X91429857Y-107663809D01*
X91334619Y-107473333D01*
X90858428Y-105663809D02*
X92477476Y-105663809D01*
X92667952Y-105759047D01*
X92763190Y-105854285D01*
X92858428Y-106044761D01*
X92858428Y-106330476D01*
X92763190Y-106520952D01*
X92096523Y-105663809D02*
X92191761Y-105854285D01*
X92191761Y-106235238D01*
X92096523Y-106425714D01*
X92001285Y-106520952D01*
X91810809Y-106616190D01*
X91239380Y-106616190D01*
X91048904Y-106520952D01*
X90953666Y-106425714D01*
X90858428Y-106235238D01*
X90858428Y-105854285D01*
X90953666Y-105663809D01*
X92191761Y-104711428D02*
X90191761Y-104711428D01*
X92191761Y-103854285D02*
X91144142Y-103854285D01*
X90953666Y-103949523D01*
X90858428Y-104140000D01*
X90858428Y-104425714D01*
X90953666Y-104616190D01*
X91048904Y-104711428D01*
X92096523Y-102044761D02*
X92191761Y-102235238D01*
X92191761Y-102616190D01*
X92096523Y-102806666D01*
X92001285Y-102901904D01*
X91810809Y-102997142D01*
X91239380Y-102997142D01*
X91048904Y-102901904D01*
X90953666Y-102806666D01*
X90858428Y-102616190D01*
X90858428Y-102235238D01*
X90953666Y-102044761D01*
X92191761Y-100901904D02*
X92096523Y-101092380D01*
X92001285Y-101187619D01*
X91810809Y-101282857D01*
X91239380Y-101282857D01*
X91048904Y-101187619D01*
X90953666Y-101092380D01*
X90858428Y-100901904D01*
X90858428Y-100616190D01*
X90953666Y-100425714D01*
X91048904Y-100330476D01*
X91239380Y-100235238D01*
X91810809Y-100235238D01*
X92001285Y-100330476D01*
X92096523Y-100425714D01*
X92191761Y-100616190D01*
X92191761Y-100901904D01*
X92191761Y-99378095D02*
X90858428Y-99378095D01*
X91239380Y-99378095D02*
X91048904Y-99282857D01*
X90953666Y-99187619D01*
X90858428Y-98997142D01*
X90858428Y-98806666D01*
X90858428Y-98140000D02*
X92858428Y-98140000D01*
X90953666Y-98140000D02*
X90858428Y-97949523D01*
X90858428Y-97568571D01*
X90953666Y-97378095D01*
X91048904Y-97282857D01*
X91239380Y-97187619D01*
X91810809Y-97187619D01*
X92001285Y-97282857D01*
X92096523Y-97378095D01*
X92191761Y-97568571D01*
X92191761Y-97949523D01*
X92096523Y-98140000D01*
X92001285Y-96330476D02*
X92096523Y-96235238D01*
X92191761Y-96330476D01*
X92096523Y-96425714D01*
X92001285Y-96330476D01*
X92191761Y-96330476D01*
X92096523Y-94520952D02*
X92191761Y-94711428D01*
X92191761Y-95092380D01*
X92096523Y-95282857D01*
X92001285Y-95378095D01*
X91810809Y-95473333D01*
X91239380Y-95473333D01*
X91048904Y-95378095D01*
X90953666Y-95282857D01*
X90858428Y-95092380D01*
X90858428Y-94711428D01*
X90953666Y-94520952D01*
X92191761Y-93378095D02*
X92096523Y-93568571D01*
X92001285Y-93663809D01*
X91810809Y-93759047D01*
X91239380Y-93759047D01*
X91048904Y-93663809D01*
X90953666Y-93568571D01*
X90858428Y-93378095D01*
X90858428Y-93092380D01*
X90953666Y-92901904D01*
X91048904Y-92806666D01*
X91239380Y-92711428D01*
X91810809Y-92711428D01*
X92001285Y-92806666D01*
X92096523Y-92901904D01*
X92191761Y-93092380D01*
X92191761Y-93378095D01*
X92191761Y-91854285D02*
X90858428Y-91854285D01*
X91048904Y-91854285D02*
X90953666Y-91759047D01*
X90858428Y-91568571D01*
X90858428Y-91282857D01*
X90953666Y-91092380D01*
X91144142Y-90997142D01*
X92191761Y-90997142D01*
X91144142Y-90997142D02*
X90953666Y-90901904D01*
X90858428Y-90711428D01*
X90858428Y-90425714D01*
X90953666Y-90235238D01*
X91144142Y-90140000D01*
X92191761Y-90140000D01*
D12*
G04 #@! TO.C,D1*
X117750000Y-96270000D02*
G75*
G03*
X117750000Y-96270000I-2500000J0D01*
G01*
X116795000Y-93710000D02*
X113705000Y-93710000D01*
X115249538Y-99260000D02*
G75*
G03*
X116794830Y-93710000I462J2990000D01*
G01*
X115250462Y-99260000D02*
G75*
G02*
X113705170Y-93710000I-462J2990000D01*
G01*
G04 #@! TO.C,D2*
X151795000Y-93710000D02*
X148705000Y-93710000D01*
X152750000Y-96270000D02*
G75*
G03*
X152750000Y-96270000I-2500000J0D01*
G01*
X150250462Y-99260000D02*
G75*
G02*
X148705170Y-93710000I-462J2990000D01*
G01*
X150249538Y-99260000D02*
G75*
G03*
X151794830Y-93710000I462J2990000D01*
G01*
G04 #@! TO.C,Q1*
X133278000Y-89386000D02*
X133278000Y-92986000D01*
X133289522Y-89347522D02*
G75*
G02*
X137728000Y-91186000I1838478J-1838478D01*
G01*
X133289522Y-93024478D02*
G75*
G03*
X137728000Y-91186000I1838478J1838478D01*
G01*
G04 #@! TO.C,Q2*
X132152000Y-92986000D02*
X132152000Y-89386000D01*
X132140478Y-89347522D02*
G75*
G03*
X127702000Y-91186000I-1838478J-1838478D01*
G01*
X132140478Y-93024478D02*
G75*
G02*
X127702000Y-91186000I-1838478J1838478D01*
G01*
G04 #@! TO.C,RV1*
X145280000Y-86620000D02*
X145280000Y-82755000D01*
X145280000Y-78245000D02*
X145280000Y-74380000D01*
X155220000Y-86620000D02*
X155220000Y-82755000D01*
X155220000Y-78245000D02*
X155220000Y-74380000D01*
X145280000Y-86620000D02*
X146879000Y-86620000D01*
X148621000Y-86620000D02*
X149380000Y-86620000D01*
X151121000Y-86620000D02*
X151880000Y-86620000D01*
X153620000Y-86620000D02*
X155220000Y-86620000D01*
X145280000Y-74380000D02*
X155220000Y-74380000D01*
G04 #@! TO.C,RV2*
X110280000Y-74380000D02*
X120220000Y-74380000D01*
X118620000Y-86620000D02*
X120220000Y-86620000D01*
X116121000Y-86620000D02*
X116880000Y-86620000D01*
X113621000Y-86620000D02*
X114380000Y-86620000D01*
X110280000Y-86620000D02*
X111879000Y-86620000D01*
X120220000Y-78245000D02*
X120220000Y-74380000D01*
X120220000Y-86620000D02*
X120220000Y-82755000D01*
X110280000Y-78245000D02*
X110280000Y-74380000D01*
X110280000Y-86620000D02*
X110280000Y-82755000D01*
G04 #@! TO.C,C2*
X111410000Y-101774000D02*
X122150000Y-101774000D01*
X111410000Y-107014000D02*
X122150000Y-107014000D01*
X111410000Y-101774000D02*
X111410000Y-107014000D01*
X122150000Y-101774000D02*
X122150000Y-107014000D01*
G04 #@! TO.C,R1*
X128548000Y-102362000D02*
X129318000Y-102362000D01*
X136628000Y-102362000D02*
X135858000Y-102362000D01*
X129318000Y-103732000D02*
X135858000Y-103732000D01*
X129318000Y-100992000D02*
X129318000Y-103732000D01*
X135858000Y-100992000D02*
X129318000Y-100992000D01*
X135858000Y-103732000D02*
X135858000Y-100992000D01*
G04 #@! TO.C,R2*
X135858000Y-100430000D02*
X135858000Y-97690000D01*
X135858000Y-97690000D02*
X129318000Y-97690000D01*
X129318000Y-97690000D02*
X129318000Y-100430000D01*
X129318000Y-100430000D02*
X135858000Y-100430000D01*
X136628000Y-99060000D02*
X135858000Y-99060000D01*
X128548000Y-99060000D02*
X129318000Y-99060000D01*
G04 #@! TO.C,R3*
X139092000Y-103600000D02*
X141832000Y-103600000D01*
X141832000Y-103600000D02*
X141832000Y-97060000D01*
X141832000Y-97060000D02*
X139092000Y-97060000D01*
X139092000Y-97060000D02*
X139092000Y-103600000D01*
X140462000Y-104370000D02*
X140462000Y-103600000D01*
X140462000Y-96290000D02*
X140462000Y-97060000D01*
G04 #@! TO.C,R4*
X135858000Y-97128000D02*
X135858000Y-94388000D01*
X135858000Y-94388000D02*
X129318000Y-94388000D01*
X129318000Y-94388000D02*
X129318000Y-97128000D01*
X129318000Y-97128000D02*
X135858000Y-97128000D01*
X136628000Y-95758000D02*
X135858000Y-95758000D01*
X128548000Y-95758000D02*
X129318000Y-95758000D01*
G04 #@! TO.C,RV3*
X137675000Y-76510000D02*
X137675000Y-86280000D01*
X127905000Y-76510000D02*
X127905000Y-86280000D01*
X137675000Y-76510000D02*
X127905000Y-76510000D01*
X137675000Y-86280000D02*
X127905000Y-86280000D01*
G04 #@! TO.C,C1*
X165000000Y-107746000D02*
X165000000Y-105806000D01*
X165000000Y-92626000D02*
X165000000Y-94566000D01*
X162380000Y-98166000D02*
X162380000Y-105806000D01*
X163280000Y-97266000D02*
X162380000Y-98166000D01*
X162380000Y-96366000D02*
X163280000Y-97266000D01*
X162380000Y-94566000D02*
X162380000Y-96366000D01*
X167620000Y-98166000D02*
X167620000Y-105806000D01*
X166720000Y-97266000D02*
X167620000Y-98166000D01*
X167620000Y-96366000D02*
X166720000Y-97266000D01*
X167620000Y-94566000D02*
X167620000Y-96366000D01*
X167620000Y-105806000D02*
X162380000Y-105806000D01*
X167620000Y-94566000D02*
X162380000Y-94566000D01*
X168500000Y-93366000D02*
X166700000Y-93366000D01*
X167600000Y-92466000D02*
X167600000Y-94266000D01*
G04 #@! TO.C,C3*
X100500000Y-107746000D02*
X100500000Y-105806000D01*
X100500000Y-92626000D02*
X100500000Y-94566000D01*
X97380000Y-98166000D02*
X97380000Y-105806000D01*
X98280000Y-97266000D02*
X97380000Y-98166000D01*
X97380000Y-96366000D02*
X98280000Y-97266000D01*
X97380000Y-94566000D02*
X97380000Y-96366000D01*
X103620000Y-98166000D02*
X103620000Y-105806000D01*
X102720000Y-97266000D02*
X103620000Y-98166000D01*
X103620000Y-96366000D02*
X102720000Y-97266000D01*
X103620000Y-94566000D02*
X103620000Y-96366000D01*
X103620000Y-105806000D02*
X97380000Y-105806000D01*
X103620000Y-94566000D02*
X97380000Y-94566000D01*
X104000000Y-93366000D02*
X102200000Y-93366000D01*
X103100000Y-92466000D02*
X103100000Y-94266000D01*
G04 #@! TO.C,Q1*
D10*
X135032761Y-87923619D02*
X134937523Y-87876000D01*
X134842285Y-87780761D01*
X134699428Y-87637904D01*
X134604190Y-87590285D01*
X134508952Y-87590285D01*
X134556571Y-87828380D02*
X134461333Y-87780761D01*
X134366095Y-87685523D01*
X134318476Y-87495047D01*
X134318476Y-87161714D01*
X134366095Y-86971238D01*
X134461333Y-86876000D01*
X134556571Y-86828380D01*
X134747047Y-86828380D01*
X134842285Y-86876000D01*
X134937523Y-86971238D01*
X134985142Y-87161714D01*
X134985142Y-87495047D01*
X134937523Y-87685523D01*
X134842285Y-87780761D01*
X134747047Y-87828380D01*
X134556571Y-87828380D01*
X135937523Y-87828380D02*
X135366095Y-87828380D01*
X135651809Y-87828380D02*
X135651809Y-86828380D01*
X135556571Y-86971238D01*
X135461333Y-87066476D01*
X135366095Y-87114095D01*
G04 #@! TO.C,Q2*
X130206761Y-87923619D02*
X130111523Y-87876000D01*
X130016285Y-87780761D01*
X129873428Y-87637904D01*
X129778190Y-87590285D01*
X129682952Y-87590285D01*
X129730571Y-87828380D02*
X129635333Y-87780761D01*
X129540095Y-87685523D01*
X129492476Y-87495047D01*
X129492476Y-87161714D01*
X129540095Y-86971238D01*
X129635333Y-86876000D01*
X129730571Y-86828380D01*
X129921047Y-86828380D01*
X130016285Y-86876000D01*
X130111523Y-86971238D01*
X130159142Y-87161714D01*
X130159142Y-87495047D01*
X130111523Y-87685523D01*
X130016285Y-87780761D01*
X129921047Y-87828380D01*
X129730571Y-87828380D01*
X130540095Y-86923619D02*
X130587714Y-86876000D01*
X130682952Y-86828380D01*
X130921047Y-86828380D01*
X131016285Y-86876000D01*
X131063904Y-86923619D01*
X131111523Y-87018857D01*
X131111523Y-87114095D01*
X131063904Y-87256952D01*
X130492476Y-87828380D01*
X131111523Y-87828380D01*
G04 #@! TO.C,RV1*
X149654761Y-85412380D02*
X149321428Y-84936190D01*
X149083333Y-85412380D02*
X149083333Y-84412380D01*
X149464285Y-84412380D01*
X149559523Y-84460000D01*
X149607142Y-84507619D01*
X149654761Y-84602857D01*
X149654761Y-84745714D01*
X149607142Y-84840952D01*
X149559523Y-84888571D01*
X149464285Y-84936190D01*
X149083333Y-84936190D01*
X149940476Y-84412380D02*
X150273809Y-85412380D01*
X150607142Y-84412380D01*
X151464285Y-85412380D02*
X150892857Y-85412380D01*
X151178571Y-85412380D02*
X151178571Y-84412380D01*
X151083333Y-84555238D01*
X150988095Y-84650476D01*
X150892857Y-84698095D01*
G04 #@! TO.C,RV2*
X114654761Y-85412380D02*
X114321428Y-84936190D01*
X114083333Y-85412380D02*
X114083333Y-84412380D01*
X114464285Y-84412380D01*
X114559523Y-84460000D01*
X114607142Y-84507619D01*
X114654761Y-84602857D01*
X114654761Y-84745714D01*
X114607142Y-84840952D01*
X114559523Y-84888571D01*
X114464285Y-84936190D01*
X114083333Y-84936190D01*
X114940476Y-84412380D02*
X115273809Y-85412380D01*
X115607142Y-84412380D01*
X115892857Y-84507619D02*
X115940476Y-84460000D01*
X116035714Y-84412380D01*
X116273809Y-84412380D01*
X116369047Y-84460000D01*
X116416666Y-84507619D01*
X116464285Y-84602857D01*
X116464285Y-84698095D01*
X116416666Y-84840952D01*
X115845238Y-85412380D01*
X116464285Y-85412380D01*
G04 #@! TO.C,C2*
X116673333Y-104751142D02*
X116625714Y-104798761D01*
X116482857Y-104846380D01*
X116387619Y-104846380D01*
X116244761Y-104798761D01*
X116149523Y-104703523D01*
X116101904Y-104608285D01*
X116054285Y-104417809D01*
X116054285Y-104274952D01*
X116101904Y-104084476D01*
X116149523Y-103989238D01*
X116244761Y-103894000D01*
X116387619Y-103846380D01*
X116482857Y-103846380D01*
X116625714Y-103894000D01*
X116673333Y-103941619D01*
X117054285Y-103941619D02*
X117101904Y-103894000D01*
X117197142Y-103846380D01*
X117435238Y-103846380D01*
X117530476Y-103894000D01*
X117578095Y-103941619D01*
X117625714Y-104036857D01*
X117625714Y-104132095D01*
X117578095Y-104274952D01*
X117006666Y-104846380D01*
X117625714Y-104846380D01*
G04 #@! TO.C,R1*
X132421333Y-102814380D02*
X132088000Y-102338190D01*
X131849904Y-102814380D02*
X131849904Y-101814380D01*
X132230857Y-101814380D01*
X132326095Y-101862000D01*
X132373714Y-101909619D01*
X132421333Y-102004857D01*
X132421333Y-102147714D01*
X132373714Y-102242952D01*
X132326095Y-102290571D01*
X132230857Y-102338190D01*
X131849904Y-102338190D01*
X133373714Y-102814380D02*
X132802285Y-102814380D01*
X133088000Y-102814380D02*
X133088000Y-101814380D01*
X132992761Y-101957238D01*
X132897523Y-102052476D01*
X132802285Y-102100095D01*
G04 #@! TO.C,R2*
X132421333Y-99639380D02*
X132088000Y-99163190D01*
X131849904Y-99639380D02*
X131849904Y-98639380D01*
X132230857Y-98639380D01*
X132326095Y-98687000D01*
X132373714Y-98734619D01*
X132421333Y-98829857D01*
X132421333Y-98972714D01*
X132373714Y-99067952D01*
X132326095Y-99115571D01*
X132230857Y-99163190D01*
X131849904Y-99163190D01*
X132802285Y-98734619D02*
X132849904Y-98687000D01*
X132945142Y-98639380D01*
X133183238Y-98639380D01*
X133278476Y-98687000D01*
X133326095Y-98734619D01*
X133373714Y-98829857D01*
X133373714Y-98925095D01*
X133326095Y-99067952D01*
X132754666Y-99639380D01*
X133373714Y-99639380D01*
G04 #@! TO.C,R3*
X140914380Y-100496666D02*
X140438190Y-100830000D01*
X140914380Y-101068095D02*
X139914380Y-101068095D01*
X139914380Y-100687142D01*
X139962000Y-100591904D01*
X140009619Y-100544285D01*
X140104857Y-100496666D01*
X140247714Y-100496666D01*
X140342952Y-100544285D01*
X140390571Y-100591904D01*
X140438190Y-100687142D01*
X140438190Y-101068095D01*
X139914380Y-100163333D02*
X139914380Y-99544285D01*
X140295333Y-99877619D01*
X140295333Y-99734761D01*
X140342952Y-99639523D01*
X140390571Y-99591904D01*
X140485809Y-99544285D01*
X140723904Y-99544285D01*
X140819142Y-99591904D01*
X140866761Y-99639523D01*
X140914380Y-99734761D01*
X140914380Y-100020476D01*
X140866761Y-100115714D01*
X140819142Y-100163333D01*
G04 #@! TO.C,R4*
X132421333Y-96210380D02*
X132088000Y-95734190D01*
X131849904Y-96210380D02*
X131849904Y-95210380D01*
X132230857Y-95210380D01*
X132326095Y-95258000D01*
X132373714Y-95305619D01*
X132421333Y-95400857D01*
X132421333Y-95543714D01*
X132373714Y-95638952D01*
X132326095Y-95686571D01*
X132230857Y-95734190D01*
X131849904Y-95734190D01*
X133278476Y-95543714D02*
X133278476Y-96210380D01*
X133040380Y-95162761D02*
X132802285Y-95877047D01*
X133421333Y-95877047D01*
G04 #@! TO.C,RV3*
X132119761Y-77922380D02*
X131786428Y-77446190D01*
X131548333Y-77922380D02*
X131548333Y-76922380D01*
X131929285Y-76922380D01*
X132024523Y-76970000D01*
X132072142Y-77017619D01*
X132119761Y-77112857D01*
X132119761Y-77255714D01*
X132072142Y-77350952D01*
X132024523Y-77398571D01*
X131929285Y-77446190D01*
X131548333Y-77446190D01*
X132405476Y-76922380D02*
X132738809Y-77922380D01*
X133072142Y-76922380D01*
X133310238Y-76922380D02*
X133929285Y-76922380D01*
X133595952Y-77303333D01*
X133738809Y-77303333D01*
X133834047Y-77350952D01*
X133881666Y-77398571D01*
X133929285Y-77493809D01*
X133929285Y-77731904D01*
X133881666Y-77827142D01*
X133834047Y-77874761D01*
X133738809Y-77922380D01*
X133453095Y-77922380D01*
X133357857Y-77874761D01*
X133310238Y-77827142D01*
G04 #@! TO.C,C1*
X164933333Y-100543142D02*
X164885714Y-100590761D01*
X164742857Y-100638380D01*
X164647619Y-100638380D01*
X164504761Y-100590761D01*
X164409523Y-100495523D01*
X164361904Y-100400285D01*
X164314285Y-100209809D01*
X164314285Y-100066952D01*
X164361904Y-99876476D01*
X164409523Y-99781238D01*
X164504761Y-99686000D01*
X164647619Y-99638380D01*
X164742857Y-99638380D01*
X164885714Y-99686000D01*
X164933333Y-99733619D01*
X165885714Y-100638380D02*
X165314285Y-100638380D01*
X165600000Y-100638380D02*
X165600000Y-99638380D01*
X165504761Y-99781238D01*
X165409523Y-99876476D01*
X165314285Y-99924095D01*
G04 #@! TO.C,C3*
X100163333Y-100543142D02*
X100115714Y-100590761D01*
X99972857Y-100638380D01*
X99877619Y-100638380D01*
X99734761Y-100590761D01*
X99639523Y-100495523D01*
X99591904Y-100400285D01*
X99544285Y-100209809D01*
X99544285Y-100066952D01*
X99591904Y-99876476D01*
X99639523Y-99781238D01*
X99734761Y-99686000D01*
X99877619Y-99638380D01*
X99972857Y-99638380D01*
X100115714Y-99686000D01*
X100163333Y-99733619D01*
X100496666Y-99638380D02*
X101115714Y-99638380D01*
X100782380Y-100019333D01*
X100925238Y-100019333D01*
X101020476Y-100066952D01*
X101068095Y-100114571D01*
X101115714Y-100209809D01*
X101115714Y-100447904D01*
X101068095Y-100543142D01*
X101020476Y-100590761D01*
X100925238Y-100638380D01*
X100639523Y-100638380D01*
X100544285Y-100590761D01*
X100496666Y-100543142D01*
G04 #@! TD*
M02*
