M48
; DRILL file {KiCad (5.1.7)-1} date 09/25/21 21:03:28
; FORMAT={-:-/ absolute / inch / decimal}
; #@! TF.CreationDate,2021-09-25T21:03:28-05:00
; #@! TF.GenerationSoftware,Kicad,Pcbnew,(5.1.7)-1
; #@! TF.FileFunction,Plated,1,2,PTH
FMAT,2
INCH
T1C0.0157
T2C0.0295
T3C0.0315
T4C0.0354
T5C0.0394
T6C0.0472
T7C0.0984
%
G90
G05
T1
X4.04Y-4.76
X4.14Y-4.76
X4.24Y-4.76
X4.34Y-4.76
X4.44Y-4.12
X4.44Y-4.76
X4.5Y-4.22
X4.5Y-4.46
X4.54Y-4.76
X5.08Y-3.34
X5.14Y-3.78
X5.92Y-4.76
X6.02Y-4.76
X6.12Y-4.76
X6.22Y-4.76
X6.32Y-4.76
X6.42Y-4.76
T2
X5.13Y-3.54
X5.13Y-3.59
X5.13Y-3.64
X5.32Y-3.54
X5.32Y-3.59
X5.32Y-3.64
T3
X5.53Y-3.75
X5.53Y-4.15
X5.02Y-3.9
X5.42Y-3.9
X4.439Y-4.0043
X4.6358Y-4.0043
X5.02Y-4.03
X5.42Y-4.03
X5.02Y-3.77
X5.42Y-3.77
X5.128Y-3.1
X5.228Y-3.3
X5.328Y-3.1
T4
X5.9154Y-3.7402
X5.9154Y-3.8402
X4.5374Y-3.7402
X4.5374Y-3.8402
T5
X4.439Y-3.4449
X4.5374Y-3.4449
X4.6358Y-3.4449
X5.8169Y-3.4449
X5.9154Y-3.4449
X6.0138Y-3.4449
T6
X3.9567Y-3.59
X3.9567Y-4.2987
X6.4961Y-3.59
X6.4961Y-4.2987
T7
X7.0925Y-4.8268
X3.3602Y-4.8268
T0
M30
