%TF.GenerationSoftware,KiCad,Pcbnew,(5.1.7)-1*%
%TF.CreationDate,2021-01-02T16:42:09-06:00*%
%TF.ProjectId,ConsolePedalFuzz,436f6e73-6f6c-4655-9065-64616c46757a,rev?*%
%TF.SameCoordinates,Original*%
%TF.FileFunction,Copper,L2,Bot*%
%TF.FilePolarity,Positive*%
%FSLAX46Y46*%
G04 Gerber Fmt 4.6, Leading zero omitted, Abs format (unit mm)*
G04 Created by KiCad (PCBNEW (5.1.7)-1) date 2021-01-02 16:42:09*
%MOMM*%
%LPD*%
G01*
G04 APERTURE LIST*
%TA.AperFunction,ComponentPad*%
%ADD10R,1.800000X1.800000*%
%TD*%
%TA.AperFunction,ComponentPad*%
%ADD11C,1.800000*%
%TD*%
%TA.AperFunction,ConnectorPad*%
%ADD12R,1.500000X7.000000*%
%TD*%
%TA.AperFunction,ComponentPad*%
%ADD13C,5.000000*%
%TD*%
%TA.AperFunction,ComponentPad*%
%ADD14O,1.500000X1.050000*%
%TD*%
%TA.AperFunction,ComponentPad*%
%ADD15R,1.500000X1.050000*%
%TD*%
%TA.AperFunction,WasherPad*%
%ADD16C,4.000000*%
%TD*%
%TA.AperFunction,ComponentPad*%
%ADD17R,1.600000X1.600000*%
%TD*%
%TA.AperFunction,ComponentPad*%
%ADD18C,1.600000*%
%TD*%
%TA.AperFunction,ComponentPad*%
%ADD19C,2.000000*%
%TD*%
%TA.AperFunction,ComponentPad*%
%ADD20R,2.200000X2.200000*%
%TD*%
%TA.AperFunction,ComponentPad*%
%ADD21O,2.200000X2.200000*%
%TD*%
%TA.AperFunction,ComponentPad*%
%ADD22O,1.600000X1.600000*%
%TD*%
%TA.AperFunction,ComponentPad*%
%ADD23C,1.440000*%
%TD*%
%TA.AperFunction,ViaPad*%
%ADD24C,0.800000*%
%TD*%
%TA.AperFunction,Conductor*%
%ADD25C,0.500000*%
%TD*%
%TA.AperFunction,Conductor*%
%ADD26C,0.254000*%
%TD*%
%TA.AperFunction,Conductor*%
%ADD27C,0.100000*%
%TD*%
G04 APERTURE END LIST*
D10*
%TO.P,D1,1*%
%TO.N,Net-(D1-Pad1)*%
X115250000Y-95000000D03*
D11*
%TO.P,D1,2*%
%TO.N,/LEDPower*%
X115250000Y-97540000D03*
%TD*%
%TO.P,D2,2*%
%TO.N,/LEDPower*%
X150250000Y-97540000D03*
D10*
%TO.P,D2,1*%
%TO.N,Net-(D1-Pad1)*%
X150250000Y-95000000D03*
%TD*%
D12*
%TO.P,J1,26*%
%TO.N,GND*%
X102715000Y-126000000D03*
%TO.P,J1,27*%
X105215000Y-126000000D03*
%TO.P,J1,28*%
%TO.N,/Input*%
X107715000Y-126000000D03*
%TO.P,J1,29*%
%TO.N,/Output*%
X110215000Y-126000000D03*
%TO.P,J1,30*%
%TO.N,+9V*%
X112715000Y-126000000D03*
%TO.P,J1,31*%
%TO.N,/LEDPower*%
X115215000Y-126000000D03*
%TO.P,J1,32*%
%TO.N,N/C*%
X117715000Y-126000000D03*
%TO.P,J1,33*%
X120215000Y-126000000D03*
%TO.P,J1,34*%
X122715000Y-126000000D03*
%TO.P,J1,35*%
X125215000Y-126000000D03*
%TO.P,J1,36*%
X127715000Y-126000000D03*
%TO.P,J1,37*%
X130215000Y-126000000D03*
%TO.P,J1,38*%
X132715000Y-126000000D03*
%TO.P,J1,39*%
X135215000Y-126000000D03*
%TO.P,J1,40*%
X137715000Y-126000000D03*
%TO.P,J1,41*%
X140215000Y-126000000D03*
%TO.P,J1,42*%
X142715000Y-126000000D03*
%TO.P,J1,43*%
X145215000Y-126000000D03*
%TO.P,J1,44*%
X147715000Y-126000000D03*
%TO.P,J1,45*%
%TO.N,/LEDPower*%
X150215000Y-126000000D03*
%TO.P,J1,46*%
%TO.N,+9V*%
X152715000Y-126000000D03*
%TO.P,J1,47*%
%TO.N,/Output*%
X155215000Y-126000000D03*
%TO.P,J1,48*%
%TO.N,/Input*%
X157715000Y-126000000D03*
%TO.P,J1,49*%
%TO.N,GND*%
X160215000Y-126000000D03*
%TO.P,J1,50*%
X162715000Y-126000000D03*
%TD*%
D13*
%TO.P,H1,1*%
%TO.N,GND*%
X85350000Y-122600000D03*
%TD*%
%TO.P,H2,1*%
%TO.N,GND*%
X180150000Y-122600000D03*
%TD*%
D14*
%TO.P,Q1,2*%
%TO.N,Net-(C1-Pad1)*%
X132715000Y-92710000D03*
%TO.P,Q1,3*%
%TO.N,Net-(Q1-Pad3)*%
X132715000Y-93980000D03*
D15*
%TO.P,Q1,1*%
%TO.N,GND*%
X132715000Y-91440000D03*
%TD*%
%TO.P,Q2,1*%
%TO.N,Net-(Q2-Pad1)*%
X127635000Y-93980000D03*
D14*
%TO.P,Q2,3*%
%TO.N,Net-(Q2-Pad3)*%
X127635000Y-91440000D03*
%TO.P,Q2,2*%
%TO.N,Net-(Q1-Pad3)*%
X127635000Y-92710000D03*
%TD*%
D16*
%TO.P,RV1,*%
%TO.N,*%
X119650000Y-80500000D03*
X110850000Y-80500000D03*
D11*
%TO.P,RV1,1*%
%TO.N,Net-(Q2-Pad1)*%
X117750000Y-87500000D03*
%TO.P,RV1,2*%
%TO.N,Net-(C3-Pad1)*%
X115250000Y-87500000D03*
%TO.P,RV1,3*%
%TO.N,GND*%
X112750000Y-87500000D03*
%TD*%
%TO.P,RV2,3*%
%TO.N,GND*%
X147750000Y-87500000D03*
%TO.P,RV2,2*%
%TO.N,/Output*%
X150250000Y-87500000D03*
%TO.P,RV2,1*%
%TO.N,Net-(C2-Pad1)*%
X152750000Y-87500000D03*
D16*
%TO.P,RV2,*%
%TO.N,*%
X145850000Y-80500000D03*
X154650000Y-80500000D03*
%TD*%
D17*
%TO.P,C1,1*%
%TO.N,Net-(C1-Pad1)*%
X144145000Y-104140000D03*
D18*
%TO.P,C1,2*%
%TO.N,/Input*%
X146645000Y-104140000D03*
%TD*%
D19*
%TO.P,C2,1*%
%TO.N,Net-(C2-Pad1)*%
X158115000Y-91440000D03*
%TO.P,C2,2*%
%TO.N,Net-(C2-Pad2)*%
X158115000Y-98940000D03*
%TD*%
D17*
%TO.P,C3,1*%
%TO.N,Net-(C3-Pad1)*%
X116840000Y-104140000D03*
D18*
%TO.P,C3,2*%
%TO.N,GND*%
X119340000Y-104140000D03*
%TD*%
D20*
%TO.P,D3,1*%
%TO.N,Net-(D3-Pad1)*%
X126365000Y-102235000D03*
D21*
%TO.P,D3,2*%
%TO.N,+9V*%
X136525000Y-102235000D03*
%TD*%
D22*
%TO.P,R1,2*%
%TO.N,Net-(D3-Pad1)*%
X123190000Y-102870000D03*
D18*
%TO.P,R1,1*%
%TO.N,Net-(Q1-Pad3)*%
X123190000Y-92710000D03*
%TD*%
%TO.P,R2,1*%
%TO.N,Net-(C2-Pad2)*%
X133350000Y-106045000D03*
D22*
%TO.P,R2,2*%
%TO.N,Net-(D3-Pad1)*%
X123190000Y-106045000D03*
%TD*%
D18*
%TO.P,R3,1*%
%TO.N,GND*%
X139700000Y-104775000D03*
D22*
%TO.P,R3,2*%
%TO.N,Net-(D1-Pad1)*%
X139700000Y-94615000D03*
%TD*%
D18*
%TO.P,R4,1*%
%TO.N,Net-(C1-Pad1)*%
X136525000Y-98425000D03*
D22*
%TO.P,R4,2*%
%TO.N,Net-(Q2-Pad1)*%
X126365000Y-98425000D03*
%TD*%
D23*
%TO.P,RV3,3*%
%TO.N,N/C*%
X135330000Y-78740000D03*
%TO.P,RV3,2*%
%TO.N,Net-(Q2-Pad3)*%
X132790000Y-83820000D03*
%TO.P,RV3,1*%
%TO.N,Net-(C2-Pad2)*%
X130250000Y-78740000D03*
%TD*%
D24*
%TO.N,GND*%
X105250000Y-120979000D03*
X160250000Y-120988000D03*
X102750000Y-121038000D03*
X162750000Y-120967000D03*
%TO.N,/LEDPower*%
X115250000Y-121454000D03*
X150250000Y-121073000D03*
%TO.N,/Input*%
X107750000Y-121066000D03*
X157750000Y-121066000D03*
X156845000Y-104140000D03*
%TO.N,/Output*%
X110250000Y-121195000D03*
X155250000Y-121068000D03*
%TO.N,+9V*%
X112750000Y-121235000D03*
X152750000Y-121108000D03*
X152750000Y-112110000D03*
%TD*%
D25*
%TO.N,GND*%
X105250000Y-126000000D02*
X105250000Y-120979000D01*
X160250000Y-126000000D02*
X160250000Y-120988000D01*
X157384969Y-118122969D02*
X160250000Y-120988000D01*
X108106031Y-118122969D02*
X157384969Y-118122969D01*
X105250000Y-120979000D02*
X108106031Y-118122969D01*
X102750000Y-126000000D02*
X102750000Y-121038000D01*
X162750000Y-120967000D02*
X162750000Y-126000000D01*
X162729000Y-120988000D02*
X162750000Y-120967000D01*
X160250000Y-120988000D02*
X162729000Y-120988000D01*
X105191000Y-121038000D02*
X105250000Y-120979000D01*
X102750000Y-121038000D02*
X105191000Y-121038000D01*
%TO.N,Net-(C1-Pad1)*%
X138430000Y-98425000D02*
X144145000Y-104140000D01*
X136525000Y-98425000D02*
X138430000Y-98425000D01*
%TO.N,Net-(C2-Pad2)*%
X150615000Y-91440000D02*
X147320000Y-91440000D01*
X158115000Y-98940000D02*
X150615000Y-91440000D01*
X137234997Y-95865001D02*
X142894999Y-95865001D01*
X142894999Y-95865001D02*
X147320000Y-91440000D01*
X135274999Y-97824999D02*
X137234997Y-95865001D01*
X135274999Y-99025001D02*
X135274999Y-97824999D01*
X135924999Y-99675001D02*
X135274999Y-99025001D01*
X140034520Y-101019482D02*
X138690039Y-99675001D01*
X135009002Y-106045000D02*
X140034520Y-101019482D01*
X138690039Y-99675001D02*
X135924999Y-99675001D01*
X133350000Y-106045000D02*
X135009002Y-106045000D01*
%TO.N,/LEDPower*%
X115250000Y-126000000D02*
X115250000Y-121454000D01*
X150250000Y-121073000D02*
X150250000Y-126000000D01*
X149869000Y-121454000D02*
X150250000Y-121073000D01*
X115250000Y-121454000D02*
X149869000Y-121454000D01*
%TO.N,/Input*%
X107750000Y-121066000D02*
X107750000Y-126000000D01*
X157750000Y-121066000D02*
X157750000Y-126000000D01*
X155506979Y-118822979D02*
X157750000Y-121066000D01*
X109993021Y-118822979D02*
X155506979Y-118822979D01*
X107750000Y-121066000D02*
X109993021Y-118822979D01*
X156845000Y-104140000D02*
X146645000Y-104140000D01*
%TO.N,/Output*%
X110250000Y-121195000D02*
X110250000Y-126000000D01*
X155250000Y-121068000D02*
X155250000Y-126000000D01*
X153704989Y-119522989D02*
X155250000Y-121068000D01*
X111922011Y-119522989D02*
X153704989Y-119522989D01*
X110250000Y-121195000D02*
X111922011Y-119522989D01*
%TO.N,+9V*%
X112750000Y-121235000D02*
X112750000Y-126000000D01*
X152750000Y-121108000D02*
X152750000Y-126000000D01*
X151864999Y-120222999D02*
X152750000Y-121108000D01*
X113762001Y-120222999D02*
X151864999Y-120222999D01*
X112750000Y-121235000D02*
X113762001Y-120222999D01*
X134969366Y-102235000D02*
X136525000Y-102235000D01*
X132099999Y-105104367D02*
X134969366Y-102235000D01*
X137564998Y-112110000D02*
X132099999Y-106645001D01*
X132099999Y-106645001D02*
X132099999Y-105104367D01*
X152750000Y-112110000D02*
X137564998Y-112110000D01*
%TD*%
D26*
%TO.N,GND*%
X181323001Y-90823000D02*
X179433252Y-90823000D01*
X179400000Y-90819725D01*
X179366748Y-90823000D01*
X179267285Y-90832796D01*
X179139670Y-90871508D01*
X179022059Y-90934372D01*
X178918973Y-91018973D01*
X178834372Y-91122059D01*
X178771508Y-91239670D01*
X178732796Y-91367285D01*
X178719725Y-91500000D01*
X178723001Y-91533262D01*
X178723000Y-92966747D01*
X178719725Y-93000000D01*
X178732796Y-93132715D01*
X178771508Y-93260330D01*
X178834372Y-93377941D01*
X178918973Y-93481027D01*
X179022059Y-93565628D01*
X179139670Y-93628492D01*
X179267285Y-93667204D01*
X179400000Y-93680275D01*
X179433252Y-93677000D01*
X181323000Y-93677000D01*
X181323001Y-98966738D01*
X181319725Y-99000000D01*
X181332796Y-99132715D01*
X181371508Y-99260330D01*
X181434372Y-99377941D01*
X181518973Y-99481027D01*
X181622059Y-99565628D01*
X181739670Y-99628492D01*
X181823001Y-99653770D01*
X181823000Y-125323000D01*
X177177000Y-125323000D01*
X177177000Y-119533252D01*
X177180275Y-119500000D01*
X177167204Y-119367285D01*
X177128492Y-119239670D01*
X177065628Y-119122059D01*
X176981027Y-119018973D01*
X176877941Y-118934372D01*
X176760330Y-118871508D01*
X176632715Y-118832796D01*
X176533252Y-118823000D01*
X176500000Y-118819725D01*
X176466748Y-118823000D01*
X165033252Y-118823000D01*
X165000000Y-118819725D01*
X164966748Y-118823000D01*
X164867285Y-118832796D01*
X164739670Y-118871508D01*
X164622059Y-118934372D01*
X164518973Y-119018973D01*
X164434372Y-119122059D01*
X164371508Y-119239670D01*
X164332796Y-119367285D01*
X164319725Y-119500000D01*
X164323001Y-119533262D01*
X164323001Y-121793000D01*
X158627000Y-121793000D01*
X158627000Y-121602027D01*
X158660115Y-121552467D01*
X158737533Y-121365565D01*
X158777000Y-121167151D01*
X158777000Y-120964849D01*
X158737533Y-120766435D01*
X158660115Y-120579533D01*
X158547723Y-120411326D01*
X158404674Y-120268277D01*
X158236467Y-120155885D01*
X158049565Y-120078467D01*
X157991103Y-120066838D01*
X156157576Y-118233311D01*
X156130112Y-118199846D01*
X155996571Y-118090252D01*
X155844216Y-118008817D01*
X155678901Y-117958669D01*
X155550058Y-117945979D01*
X155506979Y-117941736D01*
X155463900Y-117945979D01*
X110036100Y-117945979D01*
X109993021Y-117941736D01*
X109821098Y-117958669D01*
X109655784Y-118008817D01*
X109503429Y-118090252D01*
X109369888Y-118199846D01*
X109342424Y-118233311D01*
X107508897Y-120066838D01*
X107450435Y-120078467D01*
X107263533Y-120155885D01*
X107095326Y-120268277D01*
X106952277Y-120411326D01*
X106839885Y-120579533D01*
X106762467Y-120766435D01*
X106723000Y-120964849D01*
X106723000Y-121167151D01*
X106762467Y-121365565D01*
X106839885Y-121552467D01*
X106873000Y-121602027D01*
X106873000Y-121793000D01*
X101177000Y-121793000D01*
X101177000Y-119533252D01*
X101180275Y-119500000D01*
X101167204Y-119367285D01*
X101128492Y-119239670D01*
X101065628Y-119122059D01*
X100981027Y-119018973D01*
X100877941Y-118934372D01*
X100760330Y-118871508D01*
X100632715Y-118832796D01*
X100533252Y-118823000D01*
X100500000Y-118819725D01*
X100466748Y-118823000D01*
X89033252Y-118823000D01*
X89000000Y-118819725D01*
X88966748Y-118823000D01*
X88867285Y-118832796D01*
X88739670Y-118871508D01*
X88622059Y-118934372D01*
X88518973Y-119018973D01*
X88434372Y-119122059D01*
X88371508Y-119239670D01*
X88332796Y-119367285D01*
X88319725Y-119500000D01*
X88323000Y-119533252D01*
X88323001Y-125323000D01*
X83177000Y-125323000D01*
X83177000Y-105904453D01*
X121763000Y-105904453D01*
X121763000Y-106185547D01*
X121817838Y-106461241D01*
X121925409Y-106720938D01*
X122081576Y-106954660D01*
X122280340Y-107153424D01*
X122514062Y-107309591D01*
X122773759Y-107417162D01*
X123049453Y-107472000D01*
X123330547Y-107472000D01*
X123606241Y-107417162D01*
X123865938Y-107309591D01*
X124099660Y-107153424D01*
X124298424Y-106954660D01*
X124454591Y-106720938D01*
X124562162Y-106461241D01*
X124617000Y-106185547D01*
X124617000Y-105904453D01*
X124562162Y-105628759D01*
X124454591Y-105369062D01*
X124298424Y-105135340D01*
X124267451Y-105104367D01*
X131218756Y-105104367D01*
X131223000Y-105147456D01*
X131222999Y-106601921D01*
X131218756Y-106645001D01*
X131235689Y-106816922D01*
X131285837Y-106982237D01*
X131367272Y-107134592D01*
X131476866Y-107268134D01*
X131510331Y-107295598D01*
X136914401Y-112699668D01*
X136941865Y-112733133D01*
X137075406Y-112842727D01*
X137197006Y-112907723D01*
X137227761Y-112924162D01*
X137393075Y-112974310D01*
X137564998Y-112991243D01*
X137608077Y-112987000D01*
X152213973Y-112987000D01*
X152263533Y-113020115D01*
X152450435Y-113097533D01*
X152648849Y-113137000D01*
X152851151Y-113137000D01*
X153049565Y-113097533D01*
X153236467Y-113020115D01*
X153404674Y-112907723D01*
X153547723Y-112764674D01*
X153660115Y-112596467D01*
X153737533Y-112409565D01*
X153777000Y-112211151D01*
X153777000Y-112008849D01*
X153737533Y-111810435D01*
X153660115Y-111623533D01*
X153547723Y-111455326D01*
X153404674Y-111312277D01*
X153236467Y-111199885D01*
X153049565Y-111122467D01*
X152851151Y-111083000D01*
X152648849Y-111083000D01*
X152450435Y-111122467D01*
X152263533Y-111199885D01*
X152213973Y-111233000D01*
X137928263Y-111233000D01*
X134011029Y-107315766D01*
X134025938Y-107309591D01*
X134259660Y-107153424D01*
X134458424Y-106954660D01*
X134480247Y-106922000D01*
X134965923Y-106922000D01*
X135009002Y-106926243D01*
X135052081Y-106922000D01*
X135180924Y-106909310D01*
X135346239Y-106859162D01*
X135498594Y-106777727D01*
X135632135Y-106668133D01*
X135659599Y-106634668D01*
X136526565Y-105767702D01*
X138886903Y-105767702D01*
X138958486Y-106011671D01*
X139213996Y-106132571D01*
X139488184Y-106201300D01*
X139770512Y-106215217D01*
X140050130Y-106173787D01*
X140316292Y-106078603D01*
X140441514Y-106011671D01*
X140513097Y-105767702D01*
X139700000Y-104954605D01*
X138886903Y-105767702D01*
X136526565Y-105767702D01*
X137448755Y-104845512D01*
X138259783Y-104845512D01*
X138301213Y-105125130D01*
X138396397Y-105391292D01*
X138463329Y-105516514D01*
X138707298Y-105588097D01*
X139520395Y-104775000D01*
X139879605Y-104775000D01*
X140692702Y-105588097D01*
X140936671Y-105516514D01*
X141057571Y-105261004D01*
X141126300Y-104986816D01*
X141140217Y-104704488D01*
X141098787Y-104424870D01*
X141003603Y-104158708D01*
X140936671Y-104033486D01*
X140692702Y-103961903D01*
X139879605Y-104775000D01*
X139520395Y-104775000D01*
X138707298Y-103961903D01*
X138463329Y-104033486D01*
X138342429Y-104288996D01*
X138273700Y-104563184D01*
X138259783Y-104845512D01*
X137448755Y-104845512D01*
X138511969Y-103782298D01*
X138886903Y-103782298D01*
X139700000Y-104595395D01*
X140513097Y-103782298D01*
X140441514Y-103538329D01*
X140186004Y-103417429D01*
X139911816Y-103348700D01*
X139629488Y-103334783D01*
X139349870Y-103376213D01*
X139083708Y-103471397D01*
X138958486Y-103538329D01*
X138886903Y-103782298D01*
X138511969Y-103782298D01*
X140529501Y-101764766D01*
X142714967Y-103950232D01*
X142714967Y-104940000D01*
X142727073Y-105062913D01*
X142762925Y-105181103D01*
X142821147Y-105290028D01*
X142899499Y-105385501D01*
X142994972Y-105463853D01*
X143103897Y-105522075D01*
X143222087Y-105557927D01*
X143345000Y-105570033D01*
X144945000Y-105570033D01*
X145067913Y-105557927D01*
X145186103Y-105522075D01*
X145295028Y-105463853D01*
X145390501Y-105385501D01*
X145468853Y-105290028D01*
X145527075Y-105181103D01*
X145559879Y-105072963D01*
X145735340Y-105248424D01*
X145969062Y-105404591D01*
X146228759Y-105512162D01*
X146504453Y-105567000D01*
X146785547Y-105567000D01*
X147061241Y-105512162D01*
X147320938Y-105404591D01*
X147554660Y-105248424D01*
X147753424Y-105049660D01*
X147775247Y-105017000D01*
X156308973Y-105017000D01*
X156358533Y-105050115D01*
X156545435Y-105127533D01*
X156743849Y-105167000D01*
X156946151Y-105167000D01*
X157144565Y-105127533D01*
X157331467Y-105050115D01*
X157499674Y-104937723D01*
X157642723Y-104794674D01*
X157755115Y-104626467D01*
X157832533Y-104439565D01*
X157872000Y-104241151D01*
X157872000Y-104038849D01*
X157832533Y-103840435D01*
X157755115Y-103653533D01*
X157642723Y-103485326D01*
X157499674Y-103342277D01*
X157331467Y-103229885D01*
X157144565Y-103152467D01*
X156946151Y-103113000D01*
X156743849Y-103113000D01*
X156545435Y-103152467D01*
X156358533Y-103229885D01*
X156308973Y-103263000D01*
X147775247Y-103263000D01*
X147753424Y-103230340D01*
X147554660Y-103031576D01*
X147320938Y-102875409D01*
X147061241Y-102767838D01*
X146785547Y-102713000D01*
X146504453Y-102713000D01*
X146228759Y-102767838D01*
X145969062Y-102875409D01*
X145735340Y-103031576D01*
X145559879Y-103207037D01*
X145527075Y-103098897D01*
X145468853Y-102989972D01*
X145390501Y-102894499D01*
X145295028Y-102816147D01*
X145186103Y-102757925D01*
X145067913Y-102722073D01*
X144945000Y-102709967D01*
X143955232Y-102709967D01*
X139080597Y-97835332D01*
X139053133Y-97801867D01*
X138919592Y-97692273D01*
X138767237Y-97610838D01*
X138601922Y-97560690D01*
X138473079Y-97548000D01*
X138430000Y-97543757D01*
X138386921Y-97548000D01*
X137655247Y-97548000D01*
X137633424Y-97515340D01*
X137434660Y-97316576D01*
X137200938Y-97160409D01*
X137186030Y-97154234D01*
X137598263Y-96742001D01*
X142851920Y-96742001D01*
X142894999Y-96746244D01*
X142938078Y-96742001D01*
X143066921Y-96729311D01*
X143232236Y-96679163D01*
X143384591Y-96597728D01*
X143518132Y-96488134D01*
X143545596Y-96454669D01*
X147683265Y-92317000D01*
X150251735Y-92317000D01*
X151560554Y-93625819D01*
X151500028Y-93576147D01*
X151391103Y-93517925D01*
X151272913Y-93482073D01*
X151150000Y-93469967D01*
X149350000Y-93469967D01*
X149227087Y-93482073D01*
X149108897Y-93517925D01*
X148999972Y-93576147D01*
X148904499Y-93654499D01*
X148826147Y-93749972D01*
X148767925Y-93858897D01*
X148732073Y-93977087D01*
X148719967Y-94100000D01*
X148719967Y-95900000D01*
X148732073Y-96022913D01*
X148767925Y-96141103D01*
X148826147Y-96250028D01*
X148904499Y-96345501D01*
X148999972Y-96423853D01*
X149108897Y-96482075D01*
X149139221Y-96491274D01*
X149063901Y-96566594D01*
X148896790Y-96816694D01*
X148781681Y-97094590D01*
X148723000Y-97389604D01*
X148723000Y-97690396D01*
X148781681Y-97985410D01*
X148896790Y-98263306D01*
X149063901Y-98513406D01*
X149276594Y-98726099D01*
X149526694Y-98893210D01*
X149804590Y-99008319D01*
X150099604Y-99067000D01*
X150400396Y-99067000D01*
X150695410Y-99008319D01*
X150973306Y-98893210D01*
X151223406Y-98726099D01*
X151436099Y-98513406D01*
X151603210Y-98263306D01*
X151718319Y-97985410D01*
X151777000Y-97690396D01*
X151777000Y-97389604D01*
X151718319Y-97094590D01*
X151603210Y-96816694D01*
X151436099Y-96566594D01*
X151360779Y-96491274D01*
X151391103Y-96482075D01*
X151500028Y-96423853D01*
X151595501Y-96345501D01*
X151673853Y-96250028D01*
X151732075Y-96141103D01*
X151767927Y-96022913D01*
X151780033Y-95900000D01*
X151780033Y-94100000D01*
X151767927Y-93977087D01*
X151732075Y-93858897D01*
X151673853Y-93749972D01*
X151624181Y-93689446D01*
X156525577Y-98590842D01*
X156488000Y-98779755D01*
X156488000Y-99100245D01*
X156550525Y-99414578D01*
X156673172Y-99710673D01*
X156851227Y-99977152D01*
X157077848Y-100203773D01*
X157344327Y-100381828D01*
X157640422Y-100504475D01*
X157954755Y-100567000D01*
X158275245Y-100567000D01*
X158589578Y-100504475D01*
X158885673Y-100381828D01*
X159152152Y-100203773D01*
X159378773Y-99977152D01*
X159556828Y-99710673D01*
X159679475Y-99414578D01*
X159742000Y-99100245D01*
X159742000Y-98779755D01*
X159679475Y-98465422D01*
X159556828Y-98169327D01*
X159378773Y-97902848D01*
X159152152Y-97676227D01*
X158885673Y-97498172D01*
X158589578Y-97375525D01*
X158275245Y-97313000D01*
X157954755Y-97313000D01*
X157765842Y-97350577D01*
X151695020Y-91279755D01*
X156488000Y-91279755D01*
X156488000Y-91600245D01*
X156550525Y-91914578D01*
X156673172Y-92210673D01*
X156851227Y-92477152D01*
X157077848Y-92703773D01*
X157344327Y-92881828D01*
X157640422Y-93004475D01*
X157954755Y-93067000D01*
X158275245Y-93067000D01*
X158589578Y-93004475D01*
X158885673Y-92881828D01*
X159152152Y-92703773D01*
X159378773Y-92477152D01*
X159556828Y-92210673D01*
X159679475Y-91914578D01*
X159742000Y-91600245D01*
X159742000Y-91279755D01*
X159679475Y-90965422D01*
X159556828Y-90669327D01*
X159378773Y-90402848D01*
X159152152Y-90176227D01*
X158885673Y-89998172D01*
X158589578Y-89875525D01*
X158275245Y-89813000D01*
X157954755Y-89813000D01*
X157640422Y-89875525D01*
X157344327Y-89998172D01*
X157077848Y-90176227D01*
X156851227Y-90402848D01*
X156673172Y-90669327D01*
X156550525Y-90965422D01*
X156488000Y-91279755D01*
X151695020Y-91279755D01*
X151265597Y-90850332D01*
X151238133Y-90816867D01*
X151104592Y-90707273D01*
X150952237Y-90625838D01*
X150786922Y-90575690D01*
X150658079Y-90563000D01*
X150615000Y-90558757D01*
X150571921Y-90563000D01*
X147363069Y-90563000D01*
X147319999Y-90558758D01*
X147276930Y-90563000D01*
X147276921Y-90563000D01*
X147148078Y-90575690D01*
X146982763Y-90625838D01*
X146830408Y-90707273D01*
X146696867Y-90816867D01*
X146669403Y-90850332D01*
X142531734Y-94988001D01*
X141080763Y-94988001D01*
X141127000Y-94755547D01*
X141127000Y-94474453D01*
X141072162Y-94198759D01*
X140964591Y-93939062D01*
X140808424Y-93705340D01*
X140609660Y-93506576D01*
X140375938Y-93350409D01*
X140116241Y-93242838D01*
X139840547Y-93188000D01*
X139559453Y-93188000D01*
X139283759Y-93242838D01*
X139024062Y-93350409D01*
X138790340Y-93506576D01*
X138591576Y-93705340D01*
X138435409Y-93939062D01*
X138327838Y-94198759D01*
X138273000Y-94474453D01*
X138273000Y-94755547D01*
X138319237Y-94988001D01*
X137278076Y-94988001D01*
X137234997Y-94983758D01*
X137063074Y-95000691D01*
X136902309Y-95049459D01*
X136897760Y-95050839D01*
X136745405Y-95132274D01*
X136611864Y-95241868D01*
X136584405Y-95275327D01*
X134685326Y-97174407D01*
X134651867Y-97201866D01*
X134624408Y-97235325D01*
X134624405Y-97235328D01*
X134542273Y-97335407D01*
X134460837Y-97487763D01*
X134410689Y-97653077D01*
X134393756Y-97824999D01*
X134398000Y-97868088D01*
X134397999Y-98981921D01*
X134393756Y-99025001D01*
X134409555Y-99185408D01*
X134410689Y-99196922D01*
X134460837Y-99362237D01*
X134542272Y-99514592D01*
X134651866Y-99648134D01*
X134685330Y-99675597D01*
X135274406Y-100264674D01*
X135301866Y-100298134D01*
X135435407Y-100407728D01*
X135476720Y-100429810D01*
X135587762Y-100489163D01*
X135753076Y-100539311D01*
X135924999Y-100556244D01*
X135968078Y-100552001D01*
X136133699Y-100552001D01*
X136021253Y-100574368D01*
X135706959Y-100704553D01*
X135424102Y-100893552D01*
X135183552Y-101134102D01*
X135033948Y-101358000D01*
X135012445Y-101358000D01*
X134969366Y-101353757D01*
X134797443Y-101370690D01*
X134644916Y-101416959D01*
X134632129Y-101420838D01*
X134479774Y-101502273D01*
X134346233Y-101611867D01*
X134318774Y-101645326D01*
X131510326Y-104453775D01*
X131476867Y-104481234D01*
X131449408Y-104514693D01*
X131449405Y-104514696D01*
X131367273Y-104614775D01*
X131285837Y-104767131D01*
X131235689Y-104932445D01*
X131218756Y-105104367D01*
X124267451Y-105104367D01*
X124099660Y-104936576D01*
X123865938Y-104780409D01*
X123606241Y-104672838D01*
X123330547Y-104618000D01*
X123049453Y-104618000D01*
X122773759Y-104672838D01*
X122514062Y-104780409D01*
X122280340Y-104936576D01*
X122081576Y-105135340D01*
X121925409Y-105369062D01*
X121817838Y-105628759D01*
X121763000Y-105904453D01*
X83177000Y-105904453D01*
X83177000Y-103340000D01*
X115409967Y-103340000D01*
X115409967Y-104940000D01*
X115422073Y-105062913D01*
X115457925Y-105181103D01*
X115516147Y-105290028D01*
X115594499Y-105385501D01*
X115689972Y-105463853D01*
X115798897Y-105522075D01*
X115917087Y-105557927D01*
X116040000Y-105570033D01*
X117640000Y-105570033D01*
X117762913Y-105557927D01*
X117881103Y-105522075D01*
X117990028Y-105463853D01*
X118085501Y-105385501D01*
X118163853Y-105290028D01*
X118222075Y-105181103D01*
X118236757Y-105132702D01*
X118526903Y-105132702D01*
X118598486Y-105376671D01*
X118853996Y-105497571D01*
X119128184Y-105566300D01*
X119410512Y-105580217D01*
X119690130Y-105538787D01*
X119956292Y-105443603D01*
X120081514Y-105376671D01*
X120153097Y-105132702D01*
X119340000Y-104319605D01*
X118526903Y-105132702D01*
X118236757Y-105132702D01*
X118257927Y-105062913D01*
X118270033Y-104940000D01*
X118270033Y-104930427D01*
X118347298Y-104953097D01*
X119160395Y-104140000D01*
X119519605Y-104140000D01*
X120332702Y-104953097D01*
X120576671Y-104881514D01*
X120697571Y-104626004D01*
X120766300Y-104351816D01*
X120780217Y-104069488D01*
X120738787Y-103789870D01*
X120643603Y-103523708D01*
X120576671Y-103398486D01*
X120332702Y-103326903D01*
X119519605Y-104140000D01*
X119160395Y-104140000D01*
X118347298Y-103326903D01*
X118270033Y-103349573D01*
X118270033Y-103340000D01*
X118257927Y-103217087D01*
X118236758Y-103147298D01*
X118526903Y-103147298D01*
X119340000Y-103960395D01*
X120153097Y-103147298D01*
X120081514Y-102903329D01*
X119826004Y-102782429D01*
X119614662Y-102729453D01*
X121763000Y-102729453D01*
X121763000Y-103010547D01*
X121817838Y-103286241D01*
X121925409Y-103545938D01*
X122081576Y-103779660D01*
X122280340Y-103978424D01*
X122514062Y-104134591D01*
X122773759Y-104242162D01*
X123049453Y-104297000D01*
X123330547Y-104297000D01*
X123606241Y-104242162D01*
X123865938Y-104134591D01*
X124099660Y-103978424D01*
X124298424Y-103779660D01*
X124454591Y-103545938D01*
X124562162Y-103286241D01*
X124617000Y-103010547D01*
X124617000Y-102729453D01*
X124562162Y-102453759D01*
X124454591Y-102194062D01*
X124298424Y-101960340D01*
X124099660Y-101761576D01*
X123865938Y-101605409D01*
X123606241Y-101497838D01*
X123330547Y-101443000D01*
X123049453Y-101443000D01*
X122773759Y-101497838D01*
X122514062Y-101605409D01*
X122280340Y-101761576D01*
X122081576Y-101960340D01*
X121925409Y-102194062D01*
X121817838Y-102453759D01*
X121763000Y-102729453D01*
X119614662Y-102729453D01*
X119551816Y-102713700D01*
X119269488Y-102699783D01*
X118989870Y-102741213D01*
X118723708Y-102836397D01*
X118598486Y-102903329D01*
X118526903Y-103147298D01*
X118236758Y-103147298D01*
X118222075Y-103098897D01*
X118163853Y-102989972D01*
X118085501Y-102894499D01*
X117990028Y-102816147D01*
X117881103Y-102757925D01*
X117762913Y-102722073D01*
X117640000Y-102709967D01*
X116040000Y-102709967D01*
X115917087Y-102722073D01*
X115798897Y-102757925D01*
X115689972Y-102816147D01*
X115594499Y-102894499D01*
X115516147Y-102989972D01*
X115457925Y-103098897D01*
X115422073Y-103217087D01*
X115409967Y-103340000D01*
X83177000Y-103340000D01*
X83177000Y-101135000D01*
X124634967Y-101135000D01*
X124634967Y-103335000D01*
X124647073Y-103457913D01*
X124682925Y-103576103D01*
X124741147Y-103685028D01*
X124819499Y-103780501D01*
X124914972Y-103858853D01*
X125023897Y-103917075D01*
X125142087Y-103952927D01*
X125265000Y-103965033D01*
X127465000Y-103965033D01*
X127587913Y-103952927D01*
X127706103Y-103917075D01*
X127815028Y-103858853D01*
X127910501Y-103780501D01*
X127988853Y-103685028D01*
X128047075Y-103576103D01*
X128082927Y-103457913D01*
X128095033Y-103335000D01*
X128095033Y-101135000D01*
X128082927Y-101012087D01*
X128047075Y-100893897D01*
X127988853Y-100784972D01*
X127910501Y-100689499D01*
X127815028Y-100611147D01*
X127706103Y-100552925D01*
X127587913Y-100517073D01*
X127465000Y-100504967D01*
X125265000Y-100504967D01*
X125142087Y-100517073D01*
X125023897Y-100552925D01*
X124914972Y-100611147D01*
X124819499Y-100689499D01*
X124741147Y-100784972D01*
X124682925Y-100893897D01*
X124647073Y-101012087D01*
X124634967Y-101135000D01*
X83177000Y-101135000D01*
X83177000Y-98177000D01*
X83466748Y-98177000D01*
X83500000Y-98180275D01*
X83533252Y-98177000D01*
X83632715Y-98167204D01*
X83760330Y-98128492D01*
X83877941Y-98065628D01*
X83981027Y-97981027D01*
X84065628Y-97877941D01*
X84128492Y-97760330D01*
X84167204Y-97632715D01*
X84180275Y-97500000D01*
X84177000Y-97466748D01*
X84177000Y-95177000D01*
X85966748Y-95177000D01*
X86000000Y-95180275D01*
X86033252Y-95177000D01*
X86132715Y-95167204D01*
X86260330Y-95128492D01*
X86377941Y-95065628D01*
X86481027Y-94981027D01*
X86565628Y-94877941D01*
X86628492Y-94760330D01*
X86667204Y-94632715D01*
X86680275Y-94500000D01*
X86677000Y-94466748D01*
X86677000Y-94100000D01*
X113719967Y-94100000D01*
X113719967Y-95900000D01*
X113732073Y-96022913D01*
X113767925Y-96141103D01*
X113826147Y-96250028D01*
X113904499Y-96345501D01*
X113999972Y-96423853D01*
X114108897Y-96482075D01*
X114139221Y-96491274D01*
X114063901Y-96566594D01*
X113896790Y-96816694D01*
X113781681Y-97094590D01*
X113723000Y-97389604D01*
X113723000Y-97690396D01*
X113781681Y-97985410D01*
X113896790Y-98263306D01*
X114063901Y-98513406D01*
X114276594Y-98726099D01*
X114526694Y-98893210D01*
X114804590Y-99008319D01*
X115099604Y-99067000D01*
X115400396Y-99067000D01*
X115695410Y-99008319D01*
X115973306Y-98893210D01*
X116223406Y-98726099D01*
X116436099Y-98513406D01*
X116589080Y-98284453D01*
X124938000Y-98284453D01*
X124938000Y-98565547D01*
X124992838Y-98841241D01*
X125100409Y-99100938D01*
X125256576Y-99334660D01*
X125455340Y-99533424D01*
X125689062Y-99689591D01*
X125948759Y-99797162D01*
X126224453Y-99852000D01*
X126505547Y-99852000D01*
X126781241Y-99797162D01*
X127040938Y-99689591D01*
X127274660Y-99533424D01*
X127473424Y-99334660D01*
X127629591Y-99100938D01*
X127737162Y-98841241D01*
X127792000Y-98565547D01*
X127792000Y-98284453D01*
X127737162Y-98008759D01*
X127629591Y-97749062D01*
X127473424Y-97515340D01*
X127274660Y-97316576D01*
X127040938Y-97160409D01*
X126781241Y-97052838D01*
X126505547Y-96998000D01*
X126224453Y-96998000D01*
X125948759Y-97052838D01*
X125689062Y-97160409D01*
X125455340Y-97316576D01*
X125256576Y-97515340D01*
X125100409Y-97749062D01*
X124992838Y-98008759D01*
X124938000Y-98284453D01*
X116589080Y-98284453D01*
X116603210Y-98263306D01*
X116718319Y-97985410D01*
X116777000Y-97690396D01*
X116777000Y-97389604D01*
X116718319Y-97094590D01*
X116603210Y-96816694D01*
X116436099Y-96566594D01*
X116360779Y-96491274D01*
X116391103Y-96482075D01*
X116500028Y-96423853D01*
X116595501Y-96345501D01*
X116673853Y-96250028D01*
X116732075Y-96141103D01*
X116767927Y-96022913D01*
X116780033Y-95900000D01*
X116780033Y-94100000D01*
X116767927Y-93977087D01*
X116732075Y-93858897D01*
X116673853Y-93749972D01*
X116595501Y-93654499D01*
X116500028Y-93576147D01*
X116391103Y-93517925D01*
X116272913Y-93482073D01*
X116150000Y-93469967D01*
X114350000Y-93469967D01*
X114227087Y-93482073D01*
X114108897Y-93517925D01*
X113999972Y-93576147D01*
X113904499Y-93654499D01*
X113826147Y-93749972D01*
X113767925Y-93858897D01*
X113732073Y-93977087D01*
X113719967Y-94100000D01*
X86677000Y-94100000D01*
X86677000Y-93033251D01*
X86680275Y-93000000D01*
X86667204Y-92867285D01*
X86628492Y-92739670D01*
X86565628Y-92622059D01*
X86522456Y-92569453D01*
X121763000Y-92569453D01*
X121763000Y-92850547D01*
X121817838Y-93126241D01*
X121925409Y-93385938D01*
X122081576Y-93619660D01*
X122280340Y-93818424D01*
X122514062Y-93974591D01*
X122773759Y-94082162D01*
X123049453Y-94137000D01*
X123330547Y-94137000D01*
X123606241Y-94082162D01*
X123865938Y-93974591D01*
X124099660Y-93818424D01*
X124298424Y-93619660D01*
X124454591Y-93385938D01*
X124562162Y-93126241D01*
X124617000Y-92850547D01*
X124617000Y-92569453D01*
X124562162Y-92293759D01*
X124454591Y-92034062D01*
X124298424Y-91800340D01*
X124099660Y-91601576D01*
X123865938Y-91445409D01*
X123852880Y-91440000D01*
X126252426Y-91440000D01*
X126274668Y-91665831D01*
X126340541Y-91882984D01*
X126443175Y-92075000D01*
X126340541Y-92267016D01*
X126274668Y-92484169D01*
X126252426Y-92710000D01*
X126274668Y-92935831D01*
X126338710Y-93146948D01*
X126302925Y-93213897D01*
X126267073Y-93332087D01*
X126254967Y-93455000D01*
X126254967Y-94505000D01*
X126267073Y-94627913D01*
X126302925Y-94746103D01*
X126361147Y-94855028D01*
X126439499Y-94950501D01*
X126534972Y-95028853D01*
X126643897Y-95087075D01*
X126762087Y-95122927D01*
X126885000Y-95135033D01*
X128385000Y-95135033D01*
X128507913Y-95122927D01*
X128626103Y-95087075D01*
X128735028Y-95028853D01*
X128830501Y-94950501D01*
X128908853Y-94855028D01*
X128967075Y-94746103D01*
X129002927Y-94627913D01*
X129015033Y-94505000D01*
X129015033Y-93455000D01*
X129002927Y-93332087D01*
X128967075Y-93213897D01*
X128931290Y-93146948D01*
X128995332Y-92935831D01*
X129017574Y-92710000D01*
X128995332Y-92484169D01*
X128929459Y-92267016D01*
X128826825Y-92075000D01*
X128885620Y-91965000D01*
X131326928Y-91965000D01*
X131339188Y-92089482D01*
X131375498Y-92209180D01*
X131415426Y-92283878D01*
X131354668Y-92484169D01*
X131332426Y-92710000D01*
X131354668Y-92935831D01*
X131420541Y-93152984D01*
X131523175Y-93345000D01*
X131420541Y-93537016D01*
X131354668Y-93754169D01*
X131332426Y-93980000D01*
X131354668Y-94205831D01*
X131420541Y-94422984D01*
X131527512Y-94623114D01*
X131671472Y-94798528D01*
X131846886Y-94942488D01*
X132047016Y-95049459D01*
X132264169Y-95115332D01*
X132433405Y-95132000D01*
X132996595Y-95132000D01*
X133165831Y-95115332D01*
X133382984Y-95049459D01*
X133583114Y-94942488D01*
X133758528Y-94798528D01*
X133902488Y-94623114D01*
X134009459Y-94422984D01*
X134075332Y-94205831D01*
X134097574Y-93980000D01*
X134075332Y-93754169D01*
X134009459Y-93537016D01*
X133906825Y-93345000D01*
X134009459Y-93152984D01*
X134075332Y-92935831D01*
X134097574Y-92710000D01*
X134075332Y-92484169D01*
X134014574Y-92283878D01*
X134054502Y-92209180D01*
X134090812Y-92089482D01*
X134103072Y-91965000D01*
X134100000Y-91725750D01*
X133941250Y-91567000D01*
X133087975Y-91567000D01*
X132996595Y-91558000D01*
X132433405Y-91558000D01*
X132342025Y-91567000D01*
X131488750Y-91567000D01*
X131330000Y-91725750D01*
X131326928Y-91965000D01*
X128885620Y-91965000D01*
X128929459Y-91882984D01*
X128995332Y-91665831D01*
X129017574Y-91440000D01*
X128995332Y-91214169D01*
X128929459Y-90997016D01*
X128885621Y-90915000D01*
X131326928Y-90915000D01*
X131330000Y-91154250D01*
X131488750Y-91313000D01*
X132588000Y-91313000D01*
X132588000Y-90438750D01*
X132842000Y-90438750D01*
X132842000Y-91313000D01*
X133941250Y-91313000D01*
X134100000Y-91154250D01*
X134103072Y-90915000D01*
X134090812Y-90790518D01*
X134054502Y-90670820D01*
X133995537Y-90560506D01*
X133916185Y-90463815D01*
X133819494Y-90384463D01*
X133709180Y-90325498D01*
X133589482Y-90289188D01*
X133465000Y-90276928D01*
X133000750Y-90280000D01*
X132842000Y-90438750D01*
X132588000Y-90438750D01*
X132429250Y-90280000D01*
X131965000Y-90276928D01*
X131840518Y-90289188D01*
X131720820Y-90325498D01*
X131610506Y-90384463D01*
X131513815Y-90463815D01*
X131434463Y-90560506D01*
X131375498Y-90670820D01*
X131339188Y-90790518D01*
X131326928Y-90915000D01*
X128885621Y-90915000D01*
X128822488Y-90796886D01*
X128678528Y-90621472D01*
X128503114Y-90477512D01*
X128302984Y-90370541D01*
X128085831Y-90304668D01*
X127916595Y-90288000D01*
X127353405Y-90288000D01*
X127184169Y-90304668D01*
X126967016Y-90370541D01*
X126766886Y-90477512D01*
X126591472Y-90621472D01*
X126447512Y-90796886D01*
X126340541Y-90997016D01*
X126274668Y-91214169D01*
X126252426Y-91440000D01*
X123852880Y-91440000D01*
X123606241Y-91337838D01*
X123330547Y-91283000D01*
X123049453Y-91283000D01*
X122773759Y-91337838D01*
X122514062Y-91445409D01*
X122280340Y-91601576D01*
X122081576Y-91800340D01*
X121925409Y-92034062D01*
X121817838Y-92293759D01*
X121763000Y-92569453D01*
X86522456Y-92569453D01*
X86481027Y-92518973D01*
X86377941Y-92434372D01*
X86260330Y-92371508D01*
X86132715Y-92332796D01*
X86033252Y-92323000D01*
X86000000Y-92319725D01*
X85966748Y-92323000D01*
X83177000Y-92323000D01*
X83177000Y-88564080D01*
X111865525Y-88564080D01*
X111949208Y-88818261D01*
X112221775Y-88949158D01*
X112514642Y-89024365D01*
X112816553Y-89040991D01*
X113115907Y-88998397D01*
X113401199Y-88898222D01*
X113550792Y-88818261D01*
X113634475Y-88564080D01*
X112750000Y-87679605D01*
X111865525Y-88564080D01*
X83177000Y-88564080D01*
X83177000Y-87566553D01*
X111209009Y-87566553D01*
X111251603Y-87865907D01*
X111351778Y-88151199D01*
X111431739Y-88300792D01*
X111685920Y-88384475D01*
X112570395Y-87500000D01*
X112929605Y-87500000D01*
X113814080Y-88384475D01*
X113970147Y-88333094D01*
X114063901Y-88473406D01*
X114276594Y-88686099D01*
X114526694Y-88853210D01*
X114804590Y-88968319D01*
X115099604Y-89027000D01*
X115400396Y-89027000D01*
X115695410Y-88968319D01*
X115973306Y-88853210D01*
X116223406Y-88686099D01*
X116436099Y-88473406D01*
X116500000Y-88377771D01*
X116563901Y-88473406D01*
X116776594Y-88686099D01*
X117026694Y-88853210D01*
X117304590Y-88968319D01*
X117599604Y-89027000D01*
X117900396Y-89027000D01*
X118195410Y-88968319D01*
X118473306Y-88853210D01*
X118723406Y-88686099D01*
X118845425Y-88564080D01*
X146865525Y-88564080D01*
X146949208Y-88818261D01*
X147221775Y-88949158D01*
X147514642Y-89024365D01*
X147816553Y-89040991D01*
X148115907Y-88998397D01*
X148401199Y-88898222D01*
X148550792Y-88818261D01*
X148634475Y-88564080D01*
X147750000Y-87679605D01*
X146865525Y-88564080D01*
X118845425Y-88564080D01*
X118936099Y-88473406D01*
X119103210Y-88223306D01*
X119218319Y-87945410D01*
X119277000Y-87650396D01*
X119277000Y-87566553D01*
X146209009Y-87566553D01*
X146251603Y-87865907D01*
X146351778Y-88151199D01*
X146431739Y-88300792D01*
X146685920Y-88384475D01*
X147570395Y-87500000D01*
X147929605Y-87500000D01*
X148814080Y-88384475D01*
X148970147Y-88333094D01*
X149063901Y-88473406D01*
X149276594Y-88686099D01*
X149526694Y-88853210D01*
X149804590Y-88968319D01*
X150099604Y-89027000D01*
X150400396Y-89027000D01*
X150695410Y-88968319D01*
X150973306Y-88853210D01*
X151223406Y-88686099D01*
X151436099Y-88473406D01*
X151500000Y-88377771D01*
X151563901Y-88473406D01*
X151776594Y-88686099D01*
X152026694Y-88853210D01*
X152304590Y-88968319D01*
X152599604Y-89027000D01*
X152900396Y-89027000D01*
X153195410Y-88968319D01*
X153473306Y-88853210D01*
X153723406Y-88686099D01*
X153936099Y-88473406D01*
X154103210Y-88223306D01*
X154218319Y-87945410D01*
X154277000Y-87650396D01*
X154277000Y-87349604D01*
X154218319Y-87054590D01*
X154103210Y-86776694D01*
X153936099Y-86526594D01*
X153723406Y-86313901D01*
X153473306Y-86146790D01*
X153195410Y-86031681D01*
X152900396Y-85973000D01*
X152599604Y-85973000D01*
X152304590Y-86031681D01*
X152026694Y-86146790D01*
X151776594Y-86313901D01*
X151563901Y-86526594D01*
X151500000Y-86622229D01*
X151436099Y-86526594D01*
X151223406Y-86313901D01*
X150973306Y-86146790D01*
X150695410Y-86031681D01*
X150400396Y-85973000D01*
X150099604Y-85973000D01*
X149804590Y-86031681D01*
X149526694Y-86146790D01*
X149276594Y-86313901D01*
X149063901Y-86526594D01*
X148970147Y-86666906D01*
X148814080Y-86615525D01*
X147929605Y-87500000D01*
X147570395Y-87500000D01*
X146685920Y-86615525D01*
X146431739Y-86699208D01*
X146300842Y-86971775D01*
X146225635Y-87264642D01*
X146209009Y-87566553D01*
X119277000Y-87566553D01*
X119277000Y-87349604D01*
X119218319Y-87054590D01*
X119103210Y-86776694D01*
X118936099Y-86526594D01*
X118845425Y-86435920D01*
X146865525Y-86435920D01*
X147750000Y-87320395D01*
X148634475Y-86435920D01*
X148550792Y-86181739D01*
X148278225Y-86050842D01*
X147985358Y-85975635D01*
X147683447Y-85959009D01*
X147384093Y-86001603D01*
X147098801Y-86101778D01*
X146949208Y-86181739D01*
X146865525Y-86435920D01*
X118845425Y-86435920D01*
X118723406Y-86313901D01*
X118473306Y-86146790D01*
X118195410Y-86031681D01*
X117900396Y-85973000D01*
X117599604Y-85973000D01*
X117304590Y-86031681D01*
X117026694Y-86146790D01*
X116776594Y-86313901D01*
X116563901Y-86526594D01*
X116500000Y-86622229D01*
X116436099Y-86526594D01*
X116223406Y-86313901D01*
X115973306Y-86146790D01*
X115695410Y-86031681D01*
X115400396Y-85973000D01*
X115099604Y-85973000D01*
X114804590Y-86031681D01*
X114526694Y-86146790D01*
X114276594Y-86313901D01*
X114063901Y-86526594D01*
X113970147Y-86666906D01*
X113814080Y-86615525D01*
X112929605Y-87500000D01*
X112570395Y-87500000D01*
X111685920Y-86615525D01*
X111431739Y-86699208D01*
X111300842Y-86971775D01*
X111225635Y-87264642D01*
X111209009Y-87566553D01*
X83177000Y-87566553D01*
X83177000Y-86435920D01*
X111865525Y-86435920D01*
X112750000Y-87320395D01*
X113634475Y-86435920D01*
X113550792Y-86181739D01*
X113278225Y-86050842D01*
X112985358Y-85975635D01*
X112683447Y-85959009D01*
X112384093Y-86001603D01*
X112098801Y-86101778D01*
X111949208Y-86181739D01*
X111865525Y-86435920D01*
X83177000Y-86435920D01*
X83177000Y-83687332D01*
X131443000Y-83687332D01*
X131443000Y-83952668D01*
X131494764Y-84212906D01*
X131596304Y-84458044D01*
X131743716Y-84678663D01*
X131931337Y-84866284D01*
X132151956Y-85013696D01*
X132397094Y-85115236D01*
X132657332Y-85167000D01*
X132922668Y-85167000D01*
X133182906Y-85115236D01*
X133428044Y-85013696D01*
X133648663Y-84866284D01*
X133836284Y-84678663D01*
X133983696Y-84458044D01*
X134085236Y-84212906D01*
X134137000Y-83952668D01*
X134137000Y-83687332D01*
X134085236Y-83427094D01*
X133983696Y-83181956D01*
X133836284Y-82961337D01*
X133648663Y-82773716D01*
X133428044Y-82626304D01*
X133182906Y-82524764D01*
X132922668Y-82473000D01*
X132657332Y-82473000D01*
X132397094Y-82524764D01*
X132151956Y-82626304D01*
X131931337Y-82773716D01*
X131743716Y-82961337D01*
X131596304Y-83181956D01*
X131494764Y-83427094D01*
X131443000Y-83687332D01*
X83177000Y-83687332D01*
X83177000Y-80241263D01*
X108223000Y-80241263D01*
X108223000Y-80758737D01*
X108323954Y-81266268D01*
X108521983Y-81744351D01*
X108809476Y-82174615D01*
X109175385Y-82540524D01*
X109605649Y-82828017D01*
X110083732Y-83026046D01*
X110591263Y-83127000D01*
X111108737Y-83127000D01*
X111616268Y-83026046D01*
X112094351Y-82828017D01*
X112524615Y-82540524D01*
X112890524Y-82174615D01*
X113178017Y-81744351D01*
X113376046Y-81266268D01*
X113477000Y-80758737D01*
X113477000Y-80241263D01*
X117023000Y-80241263D01*
X117023000Y-80758737D01*
X117123954Y-81266268D01*
X117321983Y-81744351D01*
X117609476Y-82174615D01*
X117975385Y-82540524D01*
X118405649Y-82828017D01*
X118883732Y-83026046D01*
X119391263Y-83127000D01*
X119908737Y-83127000D01*
X120416268Y-83026046D01*
X120894351Y-82828017D01*
X121324615Y-82540524D01*
X121690524Y-82174615D01*
X121978017Y-81744351D01*
X122176046Y-81266268D01*
X122277000Y-80758737D01*
X122277000Y-80241263D01*
X143223000Y-80241263D01*
X143223000Y-80758737D01*
X143323954Y-81266268D01*
X143521983Y-81744351D01*
X143809476Y-82174615D01*
X144175385Y-82540524D01*
X144605649Y-82828017D01*
X145083732Y-83026046D01*
X145591263Y-83127000D01*
X146108737Y-83127000D01*
X146616268Y-83026046D01*
X147094351Y-82828017D01*
X147524615Y-82540524D01*
X147890524Y-82174615D01*
X148178017Y-81744351D01*
X148376046Y-81266268D01*
X148477000Y-80758737D01*
X148477000Y-80241263D01*
X152023000Y-80241263D01*
X152023000Y-80758737D01*
X152123954Y-81266268D01*
X152321983Y-81744351D01*
X152609476Y-82174615D01*
X152975385Y-82540524D01*
X153405649Y-82828017D01*
X153883732Y-83026046D01*
X154391263Y-83127000D01*
X154908737Y-83127000D01*
X155416268Y-83026046D01*
X155894351Y-82828017D01*
X156324615Y-82540524D01*
X156690524Y-82174615D01*
X156978017Y-81744351D01*
X157176046Y-81266268D01*
X157277000Y-80758737D01*
X157277000Y-80241263D01*
X157176046Y-79733732D01*
X156978017Y-79255649D01*
X156690524Y-78825385D01*
X156324615Y-78459476D01*
X155894351Y-78171983D01*
X155416268Y-77973954D01*
X154908737Y-77873000D01*
X154391263Y-77873000D01*
X153883732Y-77973954D01*
X153405649Y-78171983D01*
X152975385Y-78459476D01*
X152609476Y-78825385D01*
X152321983Y-79255649D01*
X152123954Y-79733732D01*
X152023000Y-80241263D01*
X148477000Y-80241263D01*
X148376046Y-79733732D01*
X148178017Y-79255649D01*
X147890524Y-78825385D01*
X147524615Y-78459476D01*
X147094351Y-78171983D01*
X146616268Y-77973954D01*
X146108737Y-77873000D01*
X145591263Y-77873000D01*
X145083732Y-77973954D01*
X144605649Y-78171983D01*
X144175385Y-78459476D01*
X143809476Y-78825385D01*
X143521983Y-79255649D01*
X143323954Y-79733732D01*
X143223000Y-80241263D01*
X122277000Y-80241263D01*
X122176046Y-79733732D01*
X121978017Y-79255649D01*
X121690524Y-78825385D01*
X121472471Y-78607332D01*
X128903000Y-78607332D01*
X128903000Y-78872668D01*
X128954764Y-79132906D01*
X129056304Y-79378044D01*
X129203716Y-79598663D01*
X129391337Y-79786284D01*
X129611956Y-79933696D01*
X129857094Y-80035236D01*
X130117332Y-80087000D01*
X130382668Y-80087000D01*
X130642906Y-80035236D01*
X130888044Y-79933696D01*
X131108663Y-79786284D01*
X131296284Y-79598663D01*
X131443696Y-79378044D01*
X131545236Y-79132906D01*
X131597000Y-78872668D01*
X131597000Y-78607332D01*
X133983000Y-78607332D01*
X133983000Y-78872668D01*
X134034764Y-79132906D01*
X134136304Y-79378044D01*
X134283716Y-79598663D01*
X134471337Y-79786284D01*
X134691956Y-79933696D01*
X134937094Y-80035236D01*
X135197332Y-80087000D01*
X135462668Y-80087000D01*
X135722906Y-80035236D01*
X135968044Y-79933696D01*
X136188663Y-79786284D01*
X136376284Y-79598663D01*
X136523696Y-79378044D01*
X136625236Y-79132906D01*
X136677000Y-78872668D01*
X136677000Y-78607332D01*
X136625236Y-78347094D01*
X136523696Y-78101956D01*
X136376284Y-77881337D01*
X136188663Y-77693716D01*
X135968044Y-77546304D01*
X135722906Y-77444764D01*
X135462668Y-77393000D01*
X135197332Y-77393000D01*
X134937094Y-77444764D01*
X134691956Y-77546304D01*
X134471337Y-77693716D01*
X134283716Y-77881337D01*
X134136304Y-78101956D01*
X134034764Y-78347094D01*
X133983000Y-78607332D01*
X131597000Y-78607332D01*
X131545236Y-78347094D01*
X131443696Y-78101956D01*
X131296284Y-77881337D01*
X131108663Y-77693716D01*
X130888044Y-77546304D01*
X130642906Y-77444764D01*
X130382668Y-77393000D01*
X130117332Y-77393000D01*
X129857094Y-77444764D01*
X129611956Y-77546304D01*
X129391337Y-77693716D01*
X129203716Y-77881337D01*
X129056304Y-78101956D01*
X128954764Y-78347094D01*
X128903000Y-78607332D01*
X121472471Y-78607332D01*
X121324615Y-78459476D01*
X120894351Y-78171983D01*
X120416268Y-77973954D01*
X119908737Y-77873000D01*
X119391263Y-77873000D01*
X118883732Y-77973954D01*
X118405649Y-78171983D01*
X117975385Y-78459476D01*
X117609476Y-78825385D01*
X117321983Y-79255649D01*
X117123954Y-79733732D01*
X117023000Y-80241263D01*
X113477000Y-80241263D01*
X113376046Y-79733732D01*
X113178017Y-79255649D01*
X112890524Y-78825385D01*
X112524615Y-78459476D01*
X112094351Y-78171983D01*
X111616268Y-77973954D01*
X111108737Y-77873000D01*
X110591263Y-77873000D01*
X110083732Y-77973954D01*
X109605649Y-78171983D01*
X109175385Y-78459476D01*
X108809476Y-78825385D01*
X108521983Y-79255649D01*
X108323954Y-79733732D01*
X108223000Y-80241263D01*
X83177000Y-80241263D01*
X83177000Y-73177000D01*
X83266748Y-73177000D01*
X83300000Y-73180275D01*
X83333252Y-73177000D01*
X83432715Y-73167204D01*
X83560330Y-73128492D01*
X83677941Y-73065628D01*
X83781027Y-72981027D01*
X83865628Y-72877941D01*
X83928492Y-72760330D01*
X83967204Y-72632715D01*
X83980275Y-72500000D01*
X83977000Y-72466748D01*
X83977000Y-70677000D01*
X181323000Y-70677000D01*
X181323001Y-90823000D01*
%TA.AperFunction,Conductor*%
D27*
G36*
X181323001Y-90823000D02*
G01*
X179433252Y-90823000D01*
X179400000Y-90819725D01*
X179366748Y-90823000D01*
X179267285Y-90832796D01*
X179139670Y-90871508D01*
X179022059Y-90934372D01*
X178918973Y-91018973D01*
X178834372Y-91122059D01*
X178771508Y-91239670D01*
X178732796Y-91367285D01*
X178719725Y-91500000D01*
X178723001Y-91533262D01*
X178723000Y-92966747D01*
X178719725Y-93000000D01*
X178732796Y-93132715D01*
X178771508Y-93260330D01*
X178834372Y-93377941D01*
X178918973Y-93481027D01*
X179022059Y-93565628D01*
X179139670Y-93628492D01*
X179267285Y-93667204D01*
X179400000Y-93680275D01*
X179433252Y-93677000D01*
X181323000Y-93677000D01*
X181323001Y-98966738D01*
X181319725Y-99000000D01*
X181332796Y-99132715D01*
X181371508Y-99260330D01*
X181434372Y-99377941D01*
X181518973Y-99481027D01*
X181622059Y-99565628D01*
X181739670Y-99628492D01*
X181823001Y-99653770D01*
X181823000Y-125323000D01*
X177177000Y-125323000D01*
X177177000Y-119533252D01*
X177180275Y-119500000D01*
X177167204Y-119367285D01*
X177128492Y-119239670D01*
X177065628Y-119122059D01*
X176981027Y-119018973D01*
X176877941Y-118934372D01*
X176760330Y-118871508D01*
X176632715Y-118832796D01*
X176533252Y-118823000D01*
X176500000Y-118819725D01*
X176466748Y-118823000D01*
X165033252Y-118823000D01*
X165000000Y-118819725D01*
X164966748Y-118823000D01*
X164867285Y-118832796D01*
X164739670Y-118871508D01*
X164622059Y-118934372D01*
X164518973Y-119018973D01*
X164434372Y-119122059D01*
X164371508Y-119239670D01*
X164332796Y-119367285D01*
X164319725Y-119500000D01*
X164323001Y-119533262D01*
X164323001Y-121793000D01*
X158627000Y-121793000D01*
X158627000Y-121602027D01*
X158660115Y-121552467D01*
X158737533Y-121365565D01*
X158777000Y-121167151D01*
X158777000Y-120964849D01*
X158737533Y-120766435D01*
X158660115Y-120579533D01*
X158547723Y-120411326D01*
X158404674Y-120268277D01*
X158236467Y-120155885D01*
X158049565Y-120078467D01*
X157991103Y-120066838D01*
X156157576Y-118233311D01*
X156130112Y-118199846D01*
X155996571Y-118090252D01*
X155844216Y-118008817D01*
X155678901Y-117958669D01*
X155550058Y-117945979D01*
X155506979Y-117941736D01*
X155463900Y-117945979D01*
X110036100Y-117945979D01*
X109993021Y-117941736D01*
X109821098Y-117958669D01*
X109655784Y-118008817D01*
X109503429Y-118090252D01*
X109369888Y-118199846D01*
X109342424Y-118233311D01*
X107508897Y-120066838D01*
X107450435Y-120078467D01*
X107263533Y-120155885D01*
X107095326Y-120268277D01*
X106952277Y-120411326D01*
X106839885Y-120579533D01*
X106762467Y-120766435D01*
X106723000Y-120964849D01*
X106723000Y-121167151D01*
X106762467Y-121365565D01*
X106839885Y-121552467D01*
X106873000Y-121602027D01*
X106873000Y-121793000D01*
X101177000Y-121793000D01*
X101177000Y-119533252D01*
X101180275Y-119500000D01*
X101167204Y-119367285D01*
X101128492Y-119239670D01*
X101065628Y-119122059D01*
X100981027Y-119018973D01*
X100877941Y-118934372D01*
X100760330Y-118871508D01*
X100632715Y-118832796D01*
X100533252Y-118823000D01*
X100500000Y-118819725D01*
X100466748Y-118823000D01*
X89033252Y-118823000D01*
X89000000Y-118819725D01*
X88966748Y-118823000D01*
X88867285Y-118832796D01*
X88739670Y-118871508D01*
X88622059Y-118934372D01*
X88518973Y-119018973D01*
X88434372Y-119122059D01*
X88371508Y-119239670D01*
X88332796Y-119367285D01*
X88319725Y-119500000D01*
X88323000Y-119533252D01*
X88323001Y-125323000D01*
X83177000Y-125323000D01*
X83177000Y-105904453D01*
X121763000Y-105904453D01*
X121763000Y-106185547D01*
X121817838Y-106461241D01*
X121925409Y-106720938D01*
X122081576Y-106954660D01*
X122280340Y-107153424D01*
X122514062Y-107309591D01*
X122773759Y-107417162D01*
X123049453Y-107472000D01*
X123330547Y-107472000D01*
X123606241Y-107417162D01*
X123865938Y-107309591D01*
X124099660Y-107153424D01*
X124298424Y-106954660D01*
X124454591Y-106720938D01*
X124562162Y-106461241D01*
X124617000Y-106185547D01*
X124617000Y-105904453D01*
X124562162Y-105628759D01*
X124454591Y-105369062D01*
X124298424Y-105135340D01*
X124267451Y-105104367D01*
X131218756Y-105104367D01*
X131223000Y-105147456D01*
X131222999Y-106601921D01*
X131218756Y-106645001D01*
X131235689Y-106816922D01*
X131285837Y-106982237D01*
X131367272Y-107134592D01*
X131476866Y-107268134D01*
X131510331Y-107295598D01*
X136914401Y-112699668D01*
X136941865Y-112733133D01*
X137075406Y-112842727D01*
X137197006Y-112907723D01*
X137227761Y-112924162D01*
X137393075Y-112974310D01*
X137564998Y-112991243D01*
X137608077Y-112987000D01*
X152213973Y-112987000D01*
X152263533Y-113020115D01*
X152450435Y-113097533D01*
X152648849Y-113137000D01*
X152851151Y-113137000D01*
X153049565Y-113097533D01*
X153236467Y-113020115D01*
X153404674Y-112907723D01*
X153547723Y-112764674D01*
X153660115Y-112596467D01*
X153737533Y-112409565D01*
X153777000Y-112211151D01*
X153777000Y-112008849D01*
X153737533Y-111810435D01*
X153660115Y-111623533D01*
X153547723Y-111455326D01*
X153404674Y-111312277D01*
X153236467Y-111199885D01*
X153049565Y-111122467D01*
X152851151Y-111083000D01*
X152648849Y-111083000D01*
X152450435Y-111122467D01*
X152263533Y-111199885D01*
X152213973Y-111233000D01*
X137928263Y-111233000D01*
X134011029Y-107315766D01*
X134025938Y-107309591D01*
X134259660Y-107153424D01*
X134458424Y-106954660D01*
X134480247Y-106922000D01*
X134965923Y-106922000D01*
X135009002Y-106926243D01*
X135052081Y-106922000D01*
X135180924Y-106909310D01*
X135346239Y-106859162D01*
X135498594Y-106777727D01*
X135632135Y-106668133D01*
X135659599Y-106634668D01*
X136526565Y-105767702D01*
X138886903Y-105767702D01*
X138958486Y-106011671D01*
X139213996Y-106132571D01*
X139488184Y-106201300D01*
X139770512Y-106215217D01*
X140050130Y-106173787D01*
X140316292Y-106078603D01*
X140441514Y-106011671D01*
X140513097Y-105767702D01*
X139700000Y-104954605D01*
X138886903Y-105767702D01*
X136526565Y-105767702D01*
X137448755Y-104845512D01*
X138259783Y-104845512D01*
X138301213Y-105125130D01*
X138396397Y-105391292D01*
X138463329Y-105516514D01*
X138707298Y-105588097D01*
X139520395Y-104775000D01*
X139879605Y-104775000D01*
X140692702Y-105588097D01*
X140936671Y-105516514D01*
X141057571Y-105261004D01*
X141126300Y-104986816D01*
X141140217Y-104704488D01*
X141098787Y-104424870D01*
X141003603Y-104158708D01*
X140936671Y-104033486D01*
X140692702Y-103961903D01*
X139879605Y-104775000D01*
X139520395Y-104775000D01*
X138707298Y-103961903D01*
X138463329Y-104033486D01*
X138342429Y-104288996D01*
X138273700Y-104563184D01*
X138259783Y-104845512D01*
X137448755Y-104845512D01*
X138511969Y-103782298D01*
X138886903Y-103782298D01*
X139700000Y-104595395D01*
X140513097Y-103782298D01*
X140441514Y-103538329D01*
X140186004Y-103417429D01*
X139911816Y-103348700D01*
X139629488Y-103334783D01*
X139349870Y-103376213D01*
X139083708Y-103471397D01*
X138958486Y-103538329D01*
X138886903Y-103782298D01*
X138511969Y-103782298D01*
X140529501Y-101764766D01*
X142714967Y-103950232D01*
X142714967Y-104940000D01*
X142727073Y-105062913D01*
X142762925Y-105181103D01*
X142821147Y-105290028D01*
X142899499Y-105385501D01*
X142994972Y-105463853D01*
X143103897Y-105522075D01*
X143222087Y-105557927D01*
X143345000Y-105570033D01*
X144945000Y-105570033D01*
X145067913Y-105557927D01*
X145186103Y-105522075D01*
X145295028Y-105463853D01*
X145390501Y-105385501D01*
X145468853Y-105290028D01*
X145527075Y-105181103D01*
X145559879Y-105072963D01*
X145735340Y-105248424D01*
X145969062Y-105404591D01*
X146228759Y-105512162D01*
X146504453Y-105567000D01*
X146785547Y-105567000D01*
X147061241Y-105512162D01*
X147320938Y-105404591D01*
X147554660Y-105248424D01*
X147753424Y-105049660D01*
X147775247Y-105017000D01*
X156308973Y-105017000D01*
X156358533Y-105050115D01*
X156545435Y-105127533D01*
X156743849Y-105167000D01*
X156946151Y-105167000D01*
X157144565Y-105127533D01*
X157331467Y-105050115D01*
X157499674Y-104937723D01*
X157642723Y-104794674D01*
X157755115Y-104626467D01*
X157832533Y-104439565D01*
X157872000Y-104241151D01*
X157872000Y-104038849D01*
X157832533Y-103840435D01*
X157755115Y-103653533D01*
X157642723Y-103485326D01*
X157499674Y-103342277D01*
X157331467Y-103229885D01*
X157144565Y-103152467D01*
X156946151Y-103113000D01*
X156743849Y-103113000D01*
X156545435Y-103152467D01*
X156358533Y-103229885D01*
X156308973Y-103263000D01*
X147775247Y-103263000D01*
X147753424Y-103230340D01*
X147554660Y-103031576D01*
X147320938Y-102875409D01*
X147061241Y-102767838D01*
X146785547Y-102713000D01*
X146504453Y-102713000D01*
X146228759Y-102767838D01*
X145969062Y-102875409D01*
X145735340Y-103031576D01*
X145559879Y-103207037D01*
X145527075Y-103098897D01*
X145468853Y-102989972D01*
X145390501Y-102894499D01*
X145295028Y-102816147D01*
X145186103Y-102757925D01*
X145067913Y-102722073D01*
X144945000Y-102709967D01*
X143955232Y-102709967D01*
X139080597Y-97835332D01*
X139053133Y-97801867D01*
X138919592Y-97692273D01*
X138767237Y-97610838D01*
X138601922Y-97560690D01*
X138473079Y-97548000D01*
X138430000Y-97543757D01*
X138386921Y-97548000D01*
X137655247Y-97548000D01*
X137633424Y-97515340D01*
X137434660Y-97316576D01*
X137200938Y-97160409D01*
X137186030Y-97154234D01*
X137598263Y-96742001D01*
X142851920Y-96742001D01*
X142894999Y-96746244D01*
X142938078Y-96742001D01*
X143066921Y-96729311D01*
X143232236Y-96679163D01*
X143384591Y-96597728D01*
X143518132Y-96488134D01*
X143545596Y-96454669D01*
X147683265Y-92317000D01*
X150251735Y-92317000D01*
X151560554Y-93625819D01*
X151500028Y-93576147D01*
X151391103Y-93517925D01*
X151272913Y-93482073D01*
X151150000Y-93469967D01*
X149350000Y-93469967D01*
X149227087Y-93482073D01*
X149108897Y-93517925D01*
X148999972Y-93576147D01*
X148904499Y-93654499D01*
X148826147Y-93749972D01*
X148767925Y-93858897D01*
X148732073Y-93977087D01*
X148719967Y-94100000D01*
X148719967Y-95900000D01*
X148732073Y-96022913D01*
X148767925Y-96141103D01*
X148826147Y-96250028D01*
X148904499Y-96345501D01*
X148999972Y-96423853D01*
X149108897Y-96482075D01*
X149139221Y-96491274D01*
X149063901Y-96566594D01*
X148896790Y-96816694D01*
X148781681Y-97094590D01*
X148723000Y-97389604D01*
X148723000Y-97690396D01*
X148781681Y-97985410D01*
X148896790Y-98263306D01*
X149063901Y-98513406D01*
X149276594Y-98726099D01*
X149526694Y-98893210D01*
X149804590Y-99008319D01*
X150099604Y-99067000D01*
X150400396Y-99067000D01*
X150695410Y-99008319D01*
X150973306Y-98893210D01*
X151223406Y-98726099D01*
X151436099Y-98513406D01*
X151603210Y-98263306D01*
X151718319Y-97985410D01*
X151777000Y-97690396D01*
X151777000Y-97389604D01*
X151718319Y-97094590D01*
X151603210Y-96816694D01*
X151436099Y-96566594D01*
X151360779Y-96491274D01*
X151391103Y-96482075D01*
X151500028Y-96423853D01*
X151595501Y-96345501D01*
X151673853Y-96250028D01*
X151732075Y-96141103D01*
X151767927Y-96022913D01*
X151780033Y-95900000D01*
X151780033Y-94100000D01*
X151767927Y-93977087D01*
X151732075Y-93858897D01*
X151673853Y-93749972D01*
X151624181Y-93689446D01*
X156525577Y-98590842D01*
X156488000Y-98779755D01*
X156488000Y-99100245D01*
X156550525Y-99414578D01*
X156673172Y-99710673D01*
X156851227Y-99977152D01*
X157077848Y-100203773D01*
X157344327Y-100381828D01*
X157640422Y-100504475D01*
X157954755Y-100567000D01*
X158275245Y-100567000D01*
X158589578Y-100504475D01*
X158885673Y-100381828D01*
X159152152Y-100203773D01*
X159378773Y-99977152D01*
X159556828Y-99710673D01*
X159679475Y-99414578D01*
X159742000Y-99100245D01*
X159742000Y-98779755D01*
X159679475Y-98465422D01*
X159556828Y-98169327D01*
X159378773Y-97902848D01*
X159152152Y-97676227D01*
X158885673Y-97498172D01*
X158589578Y-97375525D01*
X158275245Y-97313000D01*
X157954755Y-97313000D01*
X157765842Y-97350577D01*
X151695020Y-91279755D01*
X156488000Y-91279755D01*
X156488000Y-91600245D01*
X156550525Y-91914578D01*
X156673172Y-92210673D01*
X156851227Y-92477152D01*
X157077848Y-92703773D01*
X157344327Y-92881828D01*
X157640422Y-93004475D01*
X157954755Y-93067000D01*
X158275245Y-93067000D01*
X158589578Y-93004475D01*
X158885673Y-92881828D01*
X159152152Y-92703773D01*
X159378773Y-92477152D01*
X159556828Y-92210673D01*
X159679475Y-91914578D01*
X159742000Y-91600245D01*
X159742000Y-91279755D01*
X159679475Y-90965422D01*
X159556828Y-90669327D01*
X159378773Y-90402848D01*
X159152152Y-90176227D01*
X158885673Y-89998172D01*
X158589578Y-89875525D01*
X158275245Y-89813000D01*
X157954755Y-89813000D01*
X157640422Y-89875525D01*
X157344327Y-89998172D01*
X157077848Y-90176227D01*
X156851227Y-90402848D01*
X156673172Y-90669327D01*
X156550525Y-90965422D01*
X156488000Y-91279755D01*
X151695020Y-91279755D01*
X151265597Y-90850332D01*
X151238133Y-90816867D01*
X151104592Y-90707273D01*
X150952237Y-90625838D01*
X150786922Y-90575690D01*
X150658079Y-90563000D01*
X150615000Y-90558757D01*
X150571921Y-90563000D01*
X147363069Y-90563000D01*
X147319999Y-90558758D01*
X147276930Y-90563000D01*
X147276921Y-90563000D01*
X147148078Y-90575690D01*
X146982763Y-90625838D01*
X146830408Y-90707273D01*
X146696867Y-90816867D01*
X146669403Y-90850332D01*
X142531734Y-94988001D01*
X141080763Y-94988001D01*
X141127000Y-94755547D01*
X141127000Y-94474453D01*
X141072162Y-94198759D01*
X140964591Y-93939062D01*
X140808424Y-93705340D01*
X140609660Y-93506576D01*
X140375938Y-93350409D01*
X140116241Y-93242838D01*
X139840547Y-93188000D01*
X139559453Y-93188000D01*
X139283759Y-93242838D01*
X139024062Y-93350409D01*
X138790340Y-93506576D01*
X138591576Y-93705340D01*
X138435409Y-93939062D01*
X138327838Y-94198759D01*
X138273000Y-94474453D01*
X138273000Y-94755547D01*
X138319237Y-94988001D01*
X137278076Y-94988001D01*
X137234997Y-94983758D01*
X137063074Y-95000691D01*
X136902309Y-95049459D01*
X136897760Y-95050839D01*
X136745405Y-95132274D01*
X136611864Y-95241868D01*
X136584405Y-95275327D01*
X134685326Y-97174407D01*
X134651867Y-97201866D01*
X134624408Y-97235325D01*
X134624405Y-97235328D01*
X134542273Y-97335407D01*
X134460837Y-97487763D01*
X134410689Y-97653077D01*
X134393756Y-97824999D01*
X134398000Y-97868088D01*
X134397999Y-98981921D01*
X134393756Y-99025001D01*
X134409555Y-99185408D01*
X134410689Y-99196922D01*
X134460837Y-99362237D01*
X134542272Y-99514592D01*
X134651866Y-99648134D01*
X134685330Y-99675597D01*
X135274406Y-100264674D01*
X135301866Y-100298134D01*
X135435407Y-100407728D01*
X135476720Y-100429810D01*
X135587762Y-100489163D01*
X135753076Y-100539311D01*
X135924999Y-100556244D01*
X135968078Y-100552001D01*
X136133699Y-100552001D01*
X136021253Y-100574368D01*
X135706959Y-100704553D01*
X135424102Y-100893552D01*
X135183552Y-101134102D01*
X135033948Y-101358000D01*
X135012445Y-101358000D01*
X134969366Y-101353757D01*
X134797443Y-101370690D01*
X134644916Y-101416959D01*
X134632129Y-101420838D01*
X134479774Y-101502273D01*
X134346233Y-101611867D01*
X134318774Y-101645326D01*
X131510326Y-104453775D01*
X131476867Y-104481234D01*
X131449408Y-104514693D01*
X131449405Y-104514696D01*
X131367273Y-104614775D01*
X131285837Y-104767131D01*
X131235689Y-104932445D01*
X131218756Y-105104367D01*
X124267451Y-105104367D01*
X124099660Y-104936576D01*
X123865938Y-104780409D01*
X123606241Y-104672838D01*
X123330547Y-104618000D01*
X123049453Y-104618000D01*
X122773759Y-104672838D01*
X122514062Y-104780409D01*
X122280340Y-104936576D01*
X122081576Y-105135340D01*
X121925409Y-105369062D01*
X121817838Y-105628759D01*
X121763000Y-105904453D01*
X83177000Y-105904453D01*
X83177000Y-103340000D01*
X115409967Y-103340000D01*
X115409967Y-104940000D01*
X115422073Y-105062913D01*
X115457925Y-105181103D01*
X115516147Y-105290028D01*
X115594499Y-105385501D01*
X115689972Y-105463853D01*
X115798897Y-105522075D01*
X115917087Y-105557927D01*
X116040000Y-105570033D01*
X117640000Y-105570033D01*
X117762913Y-105557927D01*
X117881103Y-105522075D01*
X117990028Y-105463853D01*
X118085501Y-105385501D01*
X118163853Y-105290028D01*
X118222075Y-105181103D01*
X118236757Y-105132702D01*
X118526903Y-105132702D01*
X118598486Y-105376671D01*
X118853996Y-105497571D01*
X119128184Y-105566300D01*
X119410512Y-105580217D01*
X119690130Y-105538787D01*
X119956292Y-105443603D01*
X120081514Y-105376671D01*
X120153097Y-105132702D01*
X119340000Y-104319605D01*
X118526903Y-105132702D01*
X118236757Y-105132702D01*
X118257927Y-105062913D01*
X118270033Y-104940000D01*
X118270033Y-104930427D01*
X118347298Y-104953097D01*
X119160395Y-104140000D01*
X119519605Y-104140000D01*
X120332702Y-104953097D01*
X120576671Y-104881514D01*
X120697571Y-104626004D01*
X120766300Y-104351816D01*
X120780217Y-104069488D01*
X120738787Y-103789870D01*
X120643603Y-103523708D01*
X120576671Y-103398486D01*
X120332702Y-103326903D01*
X119519605Y-104140000D01*
X119160395Y-104140000D01*
X118347298Y-103326903D01*
X118270033Y-103349573D01*
X118270033Y-103340000D01*
X118257927Y-103217087D01*
X118236758Y-103147298D01*
X118526903Y-103147298D01*
X119340000Y-103960395D01*
X120153097Y-103147298D01*
X120081514Y-102903329D01*
X119826004Y-102782429D01*
X119614662Y-102729453D01*
X121763000Y-102729453D01*
X121763000Y-103010547D01*
X121817838Y-103286241D01*
X121925409Y-103545938D01*
X122081576Y-103779660D01*
X122280340Y-103978424D01*
X122514062Y-104134591D01*
X122773759Y-104242162D01*
X123049453Y-104297000D01*
X123330547Y-104297000D01*
X123606241Y-104242162D01*
X123865938Y-104134591D01*
X124099660Y-103978424D01*
X124298424Y-103779660D01*
X124454591Y-103545938D01*
X124562162Y-103286241D01*
X124617000Y-103010547D01*
X124617000Y-102729453D01*
X124562162Y-102453759D01*
X124454591Y-102194062D01*
X124298424Y-101960340D01*
X124099660Y-101761576D01*
X123865938Y-101605409D01*
X123606241Y-101497838D01*
X123330547Y-101443000D01*
X123049453Y-101443000D01*
X122773759Y-101497838D01*
X122514062Y-101605409D01*
X122280340Y-101761576D01*
X122081576Y-101960340D01*
X121925409Y-102194062D01*
X121817838Y-102453759D01*
X121763000Y-102729453D01*
X119614662Y-102729453D01*
X119551816Y-102713700D01*
X119269488Y-102699783D01*
X118989870Y-102741213D01*
X118723708Y-102836397D01*
X118598486Y-102903329D01*
X118526903Y-103147298D01*
X118236758Y-103147298D01*
X118222075Y-103098897D01*
X118163853Y-102989972D01*
X118085501Y-102894499D01*
X117990028Y-102816147D01*
X117881103Y-102757925D01*
X117762913Y-102722073D01*
X117640000Y-102709967D01*
X116040000Y-102709967D01*
X115917087Y-102722073D01*
X115798897Y-102757925D01*
X115689972Y-102816147D01*
X115594499Y-102894499D01*
X115516147Y-102989972D01*
X115457925Y-103098897D01*
X115422073Y-103217087D01*
X115409967Y-103340000D01*
X83177000Y-103340000D01*
X83177000Y-101135000D01*
X124634967Y-101135000D01*
X124634967Y-103335000D01*
X124647073Y-103457913D01*
X124682925Y-103576103D01*
X124741147Y-103685028D01*
X124819499Y-103780501D01*
X124914972Y-103858853D01*
X125023897Y-103917075D01*
X125142087Y-103952927D01*
X125265000Y-103965033D01*
X127465000Y-103965033D01*
X127587913Y-103952927D01*
X127706103Y-103917075D01*
X127815028Y-103858853D01*
X127910501Y-103780501D01*
X127988853Y-103685028D01*
X128047075Y-103576103D01*
X128082927Y-103457913D01*
X128095033Y-103335000D01*
X128095033Y-101135000D01*
X128082927Y-101012087D01*
X128047075Y-100893897D01*
X127988853Y-100784972D01*
X127910501Y-100689499D01*
X127815028Y-100611147D01*
X127706103Y-100552925D01*
X127587913Y-100517073D01*
X127465000Y-100504967D01*
X125265000Y-100504967D01*
X125142087Y-100517073D01*
X125023897Y-100552925D01*
X124914972Y-100611147D01*
X124819499Y-100689499D01*
X124741147Y-100784972D01*
X124682925Y-100893897D01*
X124647073Y-101012087D01*
X124634967Y-101135000D01*
X83177000Y-101135000D01*
X83177000Y-98177000D01*
X83466748Y-98177000D01*
X83500000Y-98180275D01*
X83533252Y-98177000D01*
X83632715Y-98167204D01*
X83760330Y-98128492D01*
X83877941Y-98065628D01*
X83981027Y-97981027D01*
X84065628Y-97877941D01*
X84128492Y-97760330D01*
X84167204Y-97632715D01*
X84180275Y-97500000D01*
X84177000Y-97466748D01*
X84177000Y-95177000D01*
X85966748Y-95177000D01*
X86000000Y-95180275D01*
X86033252Y-95177000D01*
X86132715Y-95167204D01*
X86260330Y-95128492D01*
X86377941Y-95065628D01*
X86481027Y-94981027D01*
X86565628Y-94877941D01*
X86628492Y-94760330D01*
X86667204Y-94632715D01*
X86680275Y-94500000D01*
X86677000Y-94466748D01*
X86677000Y-94100000D01*
X113719967Y-94100000D01*
X113719967Y-95900000D01*
X113732073Y-96022913D01*
X113767925Y-96141103D01*
X113826147Y-96250028D01*
X113904499Y-96345501D01*
X113999972Y-96423853D01*
X114108897Y-96482075D01*
X114139221Y-96491274D01*
X114063901Y-96566594D01*
X113896790Y-96816694D01*
X113781681Y-97094590D01*
X113723000Y-97389604D01*
X113723000Y-97690396D01*
X113781681Y-97985410D01*
X113896790Y-98263306D01*
X114063901Y-98513406D01*
X114276594Y-98726099D01*
X114526694Y-98893210D01*
X114804590Y-99008319D01*
X115099604Y-99067000D01*
X115400396Y-99067000D01*
X115695410Y-99008319D01*
X115973306Y-98893210D01*
X116223406Y-98726099D01*
X116436099Y-98513406D01*
X116589080Y-98284453D01*
X124938000Y-98284453D01*
X124938000Y-98565547D01*
X124992838Y-98841241D01*
X125100409Y-99100938D01*
X125256576Y-99334660D01*
X125455340Y-99533424D01*
X125689062Y-99689591D01*
X125948759Y-99797162D01*
X126224453Y-99852000D01*
X126505547Y-99852000D01*
X126781241Y-99797162D01*
X127040938Y-99689591D01*
X127274660Y-99533424D01*
X127473424Y-99334660D01*
X127629591Y-99100938D01*
X127737162Y-98841241D01*
X127792000Y-98565547D01*
X127792000Y-98284453D01*
X127737162Y-98008759D01*
X127629591Y-97749062D01*
X127473424Y-97515340D01*
X127274660Y-97316576D01*
X127040938Y-97160409D01*
X126781241Y-97052838D01*
X126505547Y-96998000D01*
X126224453Y-96998000D01*
X125948759Y-97052838D01*
X125689062Y-97160409D01*
X125455340Y-97316576D01*
X125256576Y-97515340D01*
X125100409Y-97749062D01*
X124992838Y-98008759D01*
X124938000Y-98284453D01*
X116589080Y-98284453D01*
X116603210Y-98263306D01*
X116718319Y-97985410D01*
X116777000Y-97690396D01*
X116777000Y-97389604D01*
X116718319Y-97094590D01*
X116603210Y-96816694D01*
X116436099Y-96566594D01*
X116360779Y-96491274D01*
X116391103Y-96482075D01*
X116500028Y-96423853D01*
X116595501Y-96345501D01*
X116673853Y-96250028D01*
X116732075Y-96141103D01*
X116767927Y-96022913D01*
X116780033Y-95900000D01*
X116780033Y-94100000D01*
X116767927Y-93977087D01*
X116732075Y-93858897D01*
X116673853Y-93749972D01*
X116595501Y-93654499D01*
X116500028Y-93576147D01*
X116391103Y-93517925D01*
X116272913Y-93482073D01*
X116150000Y-93469967D01*
X114350000Y-93469967D01*
X114227087Y-93482073D01*
X114108897Y-93517925D01*
X113999972Y-93576147D01*
X113904499Y-93654499D01*
X113826147Y-93749972D01*
X113767925Y-93858897D01*
X113732073Y-93977087D01*
X113719967Y-94100000D01*
X86677000Y-94100000D01*
X86677000Y-93033251D01*
X86680275Y-93000000D01*
X86667204Y-92867285D01*
X86628492Y-92739670D01*
X86565628Y-92622059D01*
X86522456Y-92569453D01*
X121763000Y-92569453D01*
X121763000Y-92850547D01*
X121817838Y-93126241D01*
X121925409Y-93385938D01*
X122081576Y-93619660D01*
X122280340Y-93818424D01*
X122514062Y-93974591D01*
X122773759Y-94082162D01*
X123049453Y-94137000D01*
X123330547Y-94137000D01*
X123606241Y-94082162D01*
X123865938Y-93974591D01*
X124099660Y-93818424D01*
X124298424Y-93619660D01*
X124454591Y-93385938D01*
X124562162Y-93126241D01*
X124617000Y-92850547D01*
X124617000Y-92569453D01*
X124562162Y-92293759D01*
X124454591Y-92034062D01*
X124298424Y-91800340D01*
X124099660Y-91601576D01*
X123865938Y-91445409D01*
X123852880Y-91440000D01*
X126252426Y-91440000D01*
X126274668Y-91665831D01*
X126340541Y-91882984D01*
X126443175Y-92075000D01*
X126340541Y-92267016D01*
X126274668Y-92484169D01*
X126252426Y-92710000D01*
X126274668Y-92935831D01*
X126338710Y-93146948D01*
X126302925Y-93213897D01*
X126267073Y-93332087D01*
X126254967Y-93455000D01*
X126254967Y-94505000D01*
X126267073Y-94627913D01*
X126302925Y-94746103D01*
X126361147Y-94855028D01*
X126439499Y-94950501D01*
X126534972Y-95028853D01*
X126643897Y-95087075D01*
X126762087Y-95122927D01*
X126885000Y-95135033D01*
X128385000Y-95135033D01*
X128507913Y-95122927D01*
X128626103Y-95087075D01*
X128735028Y-95028853D01*
X128830501Y-94950501D01*
X128908853Y-94855028D01*
X128967075Y-94746103D01*
X129002927Y-94627913D01*
X129015033Y-94505000D01*
X129015033Y-93455000D01*
X129002927Y-93332087D01*
X128967075Y-93213897D01*
X128931290Y-93146948D01*
X128995332Y-92935831D01*
X129017574Y-92710000D01*
X128995332Y-92484169D01*
X128929459Y-92267016D01*
X128826825Y-92075000D01*
X128885620Y-91965000D01*
X131326928Y-91965000D01*
X131339188Y-92089482D01*
X131375498Y-92209180D01*
X131415426Y-92283878D01*
X131354668Y-92484169D01*
X131332426Y-92710000D01*
X131354668Y-92935831D01*
X131420541Y-93152984D01*
X131523175Y-93345000D01*
X131420541Y-93537016D01*
X131354668Y-93754169D01*
X131332426Y-93980000D01*
X131354668Y-94205831D01*
X131420541Y-94422984D01*
X131527512Y-94623114D01*
X131671472Y-94798528D01*
X131846886Y-94942488D01*
X132047016Y-95049459D01*
X132264169Y-95115332D01*
X132433405Y-95132000D01*
X132996595Y-95132000D01*
X133165831Y-95115332D01*
X133382984Y-95049459D01*
X133583114Y-94942488D01*
X133758528Y-94798528D01*
X133902488Y-94623114D01*
X134009459Y-94422984D01*
X134075332Y-94205831D01*
X134097574Y-93980000D01*
X134075332Y-93754169D01*
X134009459Y-93537016D01*
X133906825Y-93345000D01*
X134009459Y-93152984D01*
X134075332Y-92935831D01*
X134097574Y-92710000D01*
X134075332Y-92484169D01*
X134014574Y-92283878D01*
X134054502Y-92209180D01*
X134090812Y-92089482D01*
X134103072Y-91965000D01*
X134100000Y-91725750D01*
X133941250Y-91567000D01*
X133087975Y-91567000D01*
X132996595Y-91558000D01*
X132433405Y-91558000D01*
X132342025Y-91567000D01*
X131488750Y-91567000D01*
X131330000Y-91725750D01*
X131326928Y-91965000D01*
X128885620Y-91965000D01*
X128929459Y-91882984D01*
X128995332Y-91665831D01*
X129017574Y-91440000D01*
X128995332Y-91214169D01*
X128929459Y-90997016D01*
X128885621Y-90915000D01*
X131326928Y-90915000D01*
X131330000Y-91154250D01*
X131488750Y-91313000D01*
X132588000Y-91313000D01*
X132588000Y-90438750D01*
X132842000Y-90438750D01*
X132842000Y-91313000D01*
X133941250Y-91313000D01*
X134100000Y-91154250D01*
X134103072Y-90915000D01*
X134090812Y-90790518D01*
X134054502Y-90670820D01*
X133995537Y-90560506D01*
X133916185Y-90463815D01*
X133819494Y-90384463D01*
X133709180Y-90325498D01*
X133589482Y-90289188D01*
X133465000Y-90276928D01*
X133000750Y-90280000D01*
X132842000Y-90438750D01*
X132588000Y-90438750D01*
X132429250Y-90280000D01*
X131965000Y-90276928D01*
X131840518Y-90289188D01*
X131720820Y-90325498D01*
X131610506Y-90384463D01*
X131513815Y-90463815D01*
X131434463Y-90560506D01*
X131375498Y-90670820D01*
X131339188Y-90790518D01*
X131326928Y-90915000D01*
X128885621Y-90915000D01*
X128822488Y-90796886D01*
X128678528Y-90621472D01*
X128503114Y-90477512D01*
X128302984Y-90370541D01*
X128085831Y-90304668D01*
X127916595Y-90288000D01*
X127353405Y-90288000D01*
X127184169Y-90304668D01*
X126967016Y-90370541D01*
X126766886Y-90477512D01*
X126591472Y-90621472D01*
X126447512Y-90796886D01*
X126340541Y-90997016D01*
X126274668Y-91214169D01*
X126252426Y-91440000D01*
X123852880Y-91440000D01*
X123606241Y-91337838D01*
X123330547Y-91283000D01*
X123049453Y-91283000D01*
X122773759Y-91337838D01*
X122514062Y-91445409D01*
X122280340Y-91601576D01*
X122081576Y-91800340D01*
X121925409Y-92034062D01*
X121817838Y-92293759D01*
X121763000Y-92569453D01*
X86522456Y-92569453D01*
X86481027Y-92518973D01*
X86377941Y-92434372D01*
X86260330Y-92371508D01*
X86132715Y-92332796D01*
X86033252Y-92323000D01*
X86000000Y-92319725D01*
X85966748Y-92323000D01*
X83177000Y-92323000D01*
X83177000Y-88564080D01*
X111865525Y-88564080D01*
X111949208Y-88818261D01*
X112221775Y-88949158D01*
X112514642Y-89024365D01*
X112816553Y-89040991D01*
X113115907Y-88998397D01*
X113401199Y-88898222D01*
X113550792Y-88818261D01*
X113634475Y-88564080D01*
X112750000Y-87679605D01*
X111865525Y-88564080D01*
X83177000Y-88564080D01*
X83177000Y-87566553D01*
X111209009Y-87566553D01*
X111251603Y-87865907D01*
X111351778Y-88151199D01*
X111431739Y-88300792D01*
X111685920Y-88384475D01*
X112570395Y-87500000D01*
X112929605Y-87500000D01*
X113814080Y-88384475D01*
X113970147Y-88333094D01*
X114063901Y-88473406D01*
X114276594Y-88686099D01*
X114526694Y-88853210D01*
X114804590Y-88968319D01*
X115099604Y-89027000D01*
X115400396Y-89027000D01*
X115695410Y-88968319D01*
X115973306Y-88853210D01*
X116223406Y-88686099D01*
X116436099Y-88473406D01*
X116500000Y-88377771D01*
X116563901Y-88473406D01*
X116776594Y-88686099D01*
X117026694Y-88853210D01*
X117304590Y-88968319D01*
X117599604Y-89027000D01*
X117900396Y-89027000D01*
X118195410Y-88968319D01*
X118473306Y-88853210D01*
X118723406Y-88686099D01*
X118845425Y-88564080D01*
X146865525Y-88564080D01*
X146949208Y-88818261D01*
X147221775Y-88949158D01*
X147514642Y-89024365D01*
X147816553Y-89040991D01*
X148115907Y-88998397D01*
X148401199Y-88898222D01*
X148550792Y-88818261D01*
X148634475Y-88564080D01*
X147750000Y-87679605D01*
X146865525Y-88564080D01*
X118845425Y-88564080D01*
X118936099Y-88473406D01*
X119103210Y-88223306D01*
X119218319Y-87945410D01*
X119277000Y-87650396D01*
X119277000Y-87566553D01*
X146209009Y-87566553D01*
X146251603Y-87865907D01*
X146351778Y-88151199D01*
X146431739Y-88300792D01*
X146685920Y-88384475D01*
X147570395Y-87500000D01*
X147929605Y-87500000D01*
X148814080Y-88384475D01*
X148970147Y-88333094D01*
X149063901Y-88473406D01*
X149276594Y-88686099D01*
X149526694Y-88853210D01*
X149804590Y-88968319D01*
X150099604Y-89027000D01*
X150400396Y-89027000D01*
X150695410Y-88968319D01*
X150973306Y-88853210D01*
X151223406Y-88686099D01*
X151436099Y-88473406D01*
X151500000Y-88377771D01*
X151563901Y-88473406D01*
X151776594Y-88686099D01*
X152026694Y-88853210D01*
X152304590Y-88968319D01*
X152599604Y-89027000D01*
X152900396Y-89027000D01*
X153195410Y-88968319D01*
X153473306Y-88853210D01*
X153723406Y-88686099D01*
X153936099Y-88473406D01*
X154103210Y-88223306D01*
X154218319Y-87945410D01*
X154277000Y-87650396D01*
X154277000Y-87349604D01*
X154218319Y-87054590D01*
X154103210Y-86776694D01*
X153936099Y-86526594D01*
X153723406Y-86313901D01*
X153473306Y-86146790D01*
X153195410Y-86031681D01*
X152900396Y-85973000D01*
X152599604Y-85973000D01*
X152304590Y-86031681D01*
X152026694Y-86146790D01*
X151776594Y-86313901D01*
X151563901Y-86526594D01*
X151500000Y-86622229D01*
X151436099Y-86526594D01*
X151223406Y-86313901D01*
X150973306Y-86146790D01*
X150695410Y-86031681D01*
X150400396Y-85973000D01*
X150099604Y-85973000D01*
X149804590Y-86031681D01*
X149526694Y-86146790D01*
X149276594Y-86313901D01*
X149063901Y-86526594D01*
X148970147Y-86666906D01*
X148814080Y-86615525D01*
X147929605Y-87500000D01*
X147570395Y-87500000D01*
X146685920Y-86615525D01*
X146431739Y-86699208D01*
X146300842Y-86971775D01*
X146225635Y-87264642D01*
X146209009Y-87566553D01*
X119277000Y-87566553D01*
X119277000Y-87349604D01*
X119218319Y-87054590D01*
X119103210Y-86776694D01*
X118936099Y-86526594D01*
X118845425Y-86435920D01*
X146865525Y-86435920D01*
X147750000Y-87320395D01*
X148634475Y-86435920D01*
X148550792Y-86181739D01*
X148278225Y-86050842D01*
X147985358Y-85975635D01*
X147683447Y-85959009D01*
X147384093Y-86001603D01*
X147098801Y-86101778D01*
X146949208Y-86181739D01*
X146865525Y-86435920D01*
X118845425Y-86435920D01*
X118723406Y-86313901D01*
X118473306Y-86146790D01*
X118195410Y-86031681D01*
X117900396Y-85973000D01*
X117599604Y-85973000D01*
X117304590Y-86031681D01*
X117026694Y-86146790D01*
X116776594Y-86313901D01*
X116563901Y-86526594D01*
X116500000Y-86622229D01*
X116436099Y-86526594D01*
X116223406Y-86313901D01*
X115973306Y-86146790D01*
X115695410Y-86031681D01*
X115400396Y-85973000D01*
X115099604Y-85973000D01*
X114804590Y-86031681D01*
X114526694Y-86146790D01*
X114276594Y-86313901D01*
X114063901Y-86526594D01*
X113970147Y-86666906D01*
X113814080Y-86615525D01*
X112929605Y-87500000D01*
X112570395Y-87500000D01*
X111685920Y-86615525D01*
X111431739Y-86699208D01*
X111300842Y-86971775D01*
X111225635Y-87264642D01*
X111209009Y-87566553D01*
X83177000Y-87566553D01*
X83177000Y-86435920D01*
X111865525Y-86435920D01*
X112750000Y-87320395D01*
X113634475Y-86435920D01*
X113550792Y-86181739D01*
X113278225Y-86050842D01*
X112985358Y-85975635D01*
X112683447Y-85959009D01*
X112384093Y-86001603D01*
X112098801Y-86101778D01*
X111949208Y-86181739D01*
X111865525Y-86435920D01*
X83177000Y-86435920D01*
X83177000Y-83687332D01*
X131443000Y-83687332D01*
X131443000Y-83952668D01*
X131494764Y-84212906D01*
X131596304Y-84458044D01*
X131743716Y-84678663D01*
X131931337Y-84866284D01*
X132151956Y-85013696D01*
X132397094Y-85115236D01*
X132657332Y-85167000D01*
X132922668Y-85167000D01*
X133182906Y-85115236D01*
X133428044Y-85013696D01*
X133648663Y-84866284D01*
X133836284Y-84678663D01*
X133983696Y-84458044D01*
X134085236Y-84212906D01*
X134137000Y-83952668D01*
X134137000Y-83687332D01*
X134085236Y-83427094D01*
X133983696Y-83181956D01*
X133836284Y-82961337D01*
X133648663Y-82773716D01*
X133428044Y-82626304D01*
X133182906Y-82524764D01*
X132922668Y-82473000D01*
X132657332Y-82473000D01*
X132397094Y-82524764D01*
X132151956Y-82626304D01*
X131931337Y-82773716D01*
X131743716Y-82961337D01*
X131596304Y-83181956D01*
X131494764Y-83427094D01*
X131443000Y-83687332D01*
X83177000Y-83687332D01*
X83177000Y-80241263D01*
X108223000Y-80241263D01*
X108223000Y-80758737D01*
X108323954Y-81266268D01*
X108521983Y-81744351D01*
X108809476Y-82174615D01*
X109175385Y-82540524D01*
X109605649Y-82828017D01*
X110083732Y-83026046D01*
X110591263Y-83127000D01*
X111108737Y-83127000D01*
X111616268Y-83026046D01*
X112094351Y-82828017D01*
X112524615Y-82540524D01*
X112890524Y-82174615D01*
X113178017Y-81744351D01*
X113376046Y-81266268D01*
X113477000Y-80758737D01*
X113477000Y-80241263D01*
X117023000Y-80241263D01*
X117023000Y-80758737D01*
X117123954Y-81266268D01*
X117321983Y-81744351D01*
X117609476Y-82174615D01*
X117975385Y-82540524D01*
X118405649Y-82828017D01*
X118883732Y-83026046D01*
X119391263Y-83127000D01*
X119908737Y-83127000D01*
X120416268Y-83026046D01*
X120894351Y-82828017D01*
X121324615Y-82540524D01*
X121690524Y-82174615D01*
X121978017Y-81744351D01*
X122176046Y-81266268D01*
X122277000Y-80758737D01*
X122277000Y-80241263D01*
X143223000Y-80241263D01*
X143223000Y-80758737D01*
X143323954Y-81266268D01*
X143521983Y-81744351D01*
X143809476Y-82174615D01*
X144175385Y-82540524D01*
X144605649Y-82828017D01*
X145083732Y-83026046D01*
X145591263Y-83127000D01*
X146108737Y-83127000D01*
X146616268Y-83026046D01*
X147094351Y-82828017D01*
X147524615Y-82540524D01*
X147890524Y-82174615D01*
X148178017Y-81744351D01*
X148376046Y-81266268D01*
X148477000Y-80758737D01*
X148477000Y-80241263D01*
X152023000Y-80241263D01*
X152023000Y-80758737D01*
X152123954Y-81266268D01*
X152321983Y-81744351D01*
X152609476Y-82174615D01*
X152975385Y-82540524D01*
X153405649Y-82828017D01*
X153883732Y-83026046D01*
X154391263Y-83127000D01*
X154908737Y-83127000D01*
X155416268Y-83026046D01*
X155894351Y-82828017D01*
X156324615Y-82540524D01*
X156690524Y-82174615D01*
X156978017Y-81744351D01*
X157176046Y-81266268D01*
X157277000Y-80758737D01*
X157277000Y-80241263D01*
X157176046Y-79733732D01*
X156978017Y-79255649D01*
X156690524Y-78825385D01*
X156324615Y-78459476D01*
X155894351Y-78171983D01*
X155416268Y-77973954D01*
X154908737Y-77873000D01*
X154391263Y-77873000D01*
X153883732Y-77973954D01*
X153405649Y-78171983D01*
X152975385Y-78459476D01*
X152609476Y-78825385D01*
X152321983Y-79255649D01*
X152123954Y-79733732D01*
X152023000Y-80241263D01*
X148477000Y-80241263D01*
X148376046Y-79733732D01*
X148178017Y-79255649D01*
X147890524Y-78825385D01*
X147524615Y-78459476D01*
X147094351Y-78171983D01*
X146616268Y-77973954D01*
X146108737Y-77873000D01*
X145591263Y-77873000D01*
X145083732Y-77973954D01*
X144605649Y-78171983D01*
X144175385Y-78459476D01*
X143809476Y-78825385D01*
X143521983Y-79255649D01*
X143323954Y-79733732D01*
X143223000Y-80241263D01*
X122277000Y-80241263D01*
X122176046Y-79733732D01*
X121978017Y-79255649D01*
X121690524Y-78825385D01*
X121472471Y-78607332D01*
X128903000Y-78607332D01*
X128903000Y-78872668D01*
X128954764Y-79132906D01*
X129056304Y-79378044D01*
X129203716Y-79598663D01*
X129391337Y-79786284D01*
X129611956Y-79933696D01*
X129857094Y-80035236D01*
X130117332Y-80087000D01*
X130382668Y-80087000D01*
X130642906Y-80035236D01*
X130888044Y-79933696D01*
X131108663Y-79786284D01*
X131296284Y-79598663D01*
X131443696Y-79378044D01*
X131545236Y-79132906D01*
X131597000Y-78872668D01*
X131597000Y-78607332D01*
X133983000Y-78607332D01*
X133983000Y-78872668D01*
X134034764Y-79132906D01*
X134136304Y-79378044D01*
X134283716Y-79598663D01*
X134471337Y-79786284D01*
X134691956Y-79933696D01*
X134937094Y-80035236D01*
X135197332Y-80087000D01*
X135462668Y-80087000D01*
X135722906Y-80035236D01*
X135968044Y-79933696D01*
X136188663Y-79786284D01*
X136376284Y-79598663D01*
X136523696Y-79378044D01*
X136625236Y-79132906D01*
X136677000Y-78872668D01*
X136677000Y-78607332D01*
X136625236Y-78347094D01*
X136523696Y-78101956D01*
X136376284Y-77881337D01*
X136188663Y-77693716D01*
X135968044Y-77546304D01*
X135722906Y-77444764D01*
X135462668Y-77393000D01*
X135197332Y-77393000D01*
X134937094Y-77444764D01*
X134691956Y-77546304D01*
X134471337Y-77693716D01*
X134283716Y-77881337D01*
X134136304Y-78101956D01*
X134034764Y-78347094D01*
X133983000Y-78607332D01*
X131597000Y-78607332D01*
X131545236Y-78347094D01*
X131443696Y-78101956D01*
X131296284Y-77881337D01*
X131108663Y-77693716D01*
X130888044Y-77546304D01*
X130642906Y-77444764D01*
X130382668Y-77393000D01*
X130117332Y-77393000D01*
X129857094Y-77444764D01*
X129611956Y-77546304D01*
X129391337Y-77693716D01*
X129203716Y-77881337D01*
X129056304Y-78101956D01*
X128954764Y-78347094D01*
X128903000Y-78607332D01*
X121472471Y-78607332D01*
X121324615Y-78459476D01*
X120894351Y-78171983D01*
X120416268Y-77973954D01*
X119908737Y-77873000D01*
X119391263Y-77873000D01*
X118883732Y-77973954D01*
X118405649Y-78171983D01*
X117975385Y-78459476D01*
X117609476Y-78825385D01*
X117321983Y-79255649D01*
X117123954Y-79733732D01*
X117023000Y-80241263D01*
X113477000Y-80241263D01*
X113376046Y-79733732D01*
X113178017Y-79255649D01*
X112890524Y-78825385D01*
X112524615Y-78459476D01*
X112094351Y-78171983D01*
X111616268Y-77973954D01*
X111108737Y-77873000D01*
X110591263Y-77873000D01*
X110083732Y-77973954D01*
X109605649Y-78171983D01*
X109175385Y-78459476D01*
X108809476Y-78825385D01*
X108521983Y-79255649D01*
X108323954Y-79733732D01*
X108223000Y-80241263D01*
X83177000Y-80241263D01*
X83177000Y-73177000D01*
X83266748Y-73177000D01*
X83300000Y-73180275D01*
X83333252Y-73177000D01*
X83432715Y-73167204D01*
X83560330Y-73128492D01*
X83677941Y-73065628D01*
X83781027Y-72981027D01*
X83865628Y-72877941D01*
X83928492Y-72760330D01*
X83967204Y-72632715D01*
X83980275Y-72500000D01*
X83977000Y-72466748D01*
X83977000Y-70677000D01*
X181323000Y-70677000D01*
X181323001Y-90823000D01*
G37*
%TD.AperFunction*%
%TD*%
M02*
