M48
; DRILL file {KiCad (5.1.7)-1} date 02/28/22 18:55:13
; FORMAT={-:-/ absolute / inch / decimal}
; #@! TF.CreationDate,2022-02-28T18:55:13-06:00
; #@! TF.GenerationSoftware,Kicad,Pcbnew,(5.1.7)-1
; #@! TF.FileFunction,Plated,1,2,PTH
FMAT,2
INCH
T1C0.0157
T2C0.0295
T3C0.0315
T4C0.0354
T5C0.0394
T6C0.0433
T7C0.0984
%
G90
G05
T1
X3.7Y-3.575
X4.0Y-3.475
X4.025Y-3.6
X4.05Y-4.75
X4.1Y-4.6
X4.125Y-4.275
X4.15Y-4.55
X4.15Y-4.75
X4.25Y-4.025
X4.25Y-4.75
X4.3Y-3.975
X4.325Y-4.5
X4.35Y-4.75
X4.375Y-3.9
X4.45Y-4.75
X4.55Y-4.55
X4.55Y-4.75
X4.65Y-3.775
X4.8Y-4.45
X4.825Y-3.275
X4.85Y-4.4
X4.975Y-4.05
X5.225Y-3.025
X5.75Y-4.3
X5.9Y-4.75
X6.0Y-3.4
X6.0Y-4.75
X6.025Y-3.325
X6.075Y-3.7
X6.1Y-4.75
X6.2Y-4.75
X6.225Y-3.425
X6.3Y-4.75
X6.4Y-4.75
X6.55Y-3.925
T2
X4.4874Y-3.5236
X4.5374Y-3.5236
X4.5874Y-3.5236
X5.8654Y-3.5236
X5.9154Y-3.5236
X5.9654Y-3.5236
T3
X4.73Y-3.59
X4.73Y-3.99
X6.8961Y-3.3465
X6.9945Y-3.3465
X6.29Y-2.96
X6.69Y-2.96
X5.575Y-3.59
X5.575Y-3.99
X5.72Y-3.1
X5.72Y-3.5
X3.8067Y-3.515
X3.8067Y-3.615
X3.8067Y-3.715
X3.8067Y-3.815
X3.8067Y-3.915
X3.8067Y-4.015
X3.8067Y-4.115
X4.1067Y-3.515
X4.1067Y-3.615
X4.1067Y-3.715
X4.1067Y-3.815
X4.1067Y-3.915
X4.1067Y-4.015
X4.1067Y-4.115
X5.325Y-4.115
X5.725Y-4.115
X4.73Y-4.11
X5.13Y-4.11
X6.3461Y-3.515
X6.3461Y-3.615
X6.3461Y-3.715
X6.3461Y-3.815
X6.3461Y-3.915
X6.3461Y-4.015
X6.3461Y-4.115
X6.6461Y-3.515
X6.6461Y-3.615
X6.6461Y-3.715
X6.6461Y-3.815
X6.6461Y-3.915
X6.6461Y-4.015
X6.6461Y-4.115
X5.72Y-3.59
X5.72Y-3.99
X5.125Y-3.745
X5.225Y-3.945
X5.325Y-3.745
X4.875Y-3.59
X4.875Y-3.99
X6.21Y-3.595
X6.21Y-3.995
X3.4631Y-3.3557
X3.66Y-3.3557
X6.285Y-4.39
X6.685Y-4.39
X5.8431Y-4.2357
X6.04Y-4.2357
X5.02Y-4.24
X5.42Y-4.24
X6.285Y-4.25
X6.685Y-4.25
X4.73Y-3.1
X4.73Y-3.5
X4.28Y-3.1
X4.28Y-3.5
X4.4081Y-4.2357
X4.605Y-4.2357
X3.4631Y-4.1357
X3.66Y-4.1357
T4
X5.9154Y-3.7402
X5.9154Y-3.8402
X4.5374Y-3.7402
X4.5374Y-3.8402
X5.9154Y-3.1496
X5.9154Y-3.2496
X4.5374Y-3.1496
X4.5374Y-3.2496
T5
X5.1266Y-3.4449
X5.225Y-3.4449
X5.3234Y-3.4449
X5.175Y-2.835
X5.275Y-2.835
T6
X6.3681Y-3.111
X6.3681Y-3.2882
X6.624Y-3.111
X6.624Y-3.2882
X3.8287Y-3.111
X3.8287Y-3.2882
X4.0846Y-3.111
X4.0846Y-3.2882
T7
X7.0925Y-4.8268
X3.3602Y-4.8268
T0
M30
