G04 #@! TF.GenerationSoftware,KiCad,Pcbnew,(5.1.7)-1*
G04 #@! TF.CreationDate,2021-05-26T18:00:40-05:00*
G04 #@! TF.ProjectId,ConsolePedalDual,436f6e73-6f6c-4655-9065-64616c447561,rev?*
G04 #@! TF.SameCoordinates,Original*
G04 #@! TF.FileFunction,Copper,L2,Bot*
G04 #@! TF.FilePolarity,Positive*
%FSLAX46Y46*%
G04 Gerber Fmt 4.6, Leading zero omitted, Abs format (unit mm)*
G04 Created by KiCad (PCBNEW (5.1.7)-1) date 2021-05-26 18:00:40*
%MOMM*%
%LPD*%
G01*
G04 APERTURE LIST*
G04 #@! TA.AperFunction,ComponentPad*
%ADD10C,5.000000*%
G04 #@! TD*
G04 #@! TA.AperFunction,ComponentPad*
%ADD11O,1.700000X1.700000*%
G04 #@! TD*
G04 #@! TA.AperFunction,ComponentPad*
%ADD12R,1.700000X1.700000*%
G04 #@! TD*
G04 #@! TA.AperFunction,ComponentPad*
%ADD13R,1.800000X1.800000*%
G04 #@! TD*
G04 #@! TA.AperFunction,ComponentPad*
%ADD14C,1.800000*%
G04 #@! TD*
G04 #@! TA.AperFunction,ComponentPad*
%ADD15C,1.600000*%
G04 #@! TD*
G04 #@! TA.AperFunction,ComponentPad*
%ADD16O,1.600000X1.600000*%
G04 #@! TD*
G04 #@! TA.AperFunction,ComponentPad*
%ADD17C,2.540000*%
G04 #@! TD*
G04 #@! TA.AperFunction,ComponentPad*
%ADD18R,2.200000X2.200000*%
G04 #@! TD*
G04 #@! TA.AperFunction,ComponentPad*
%ADD19O,2.200000X2.200000*%
G04 #@! TD*
G04 #@! TA.AperFunction,Conductor*
%ADD20C,0.500000*%
G04 #@! TD*
G04 #@! TA.AperFunction,Conductor*
%ADD21C,0.254000*%
G04 #@! TD*
G04 #@! TA.AperFunction,Conductor*
%ADD22C,0.100000*%
G04 #@! TD*
G04 APERTURE END LIST*
D10*
G04 #@! TO.P,H3,1*
G04 #@! TO.N,GND*
X178320000Y-31120000D03*
G04 #@! TD*
D11*
G04 #@! TO.P,BT1,2*
G04 #@! TO.N,Net-(BT1-Pad2)*
X121285000Y-70485000D03*
D12*
G04 #@! TO.P,BT1,1*
G04 #@! TO.N,Net-(BT1-Pad1)*
X121285000Y-67945000D03*
G04 #@! TD*
D13*
G04 #@! TO.P,D1,1*
G04 #@! TO.N,Net-(D1-Pad1)*
X137160000Y-68710000D03*
D14*
G04 #@! TO.P,D1,2*
G04 #@! TO.N,/LEDPower*
X137160000Y-71250000D03*
G04 #@! TD*
D12*
G04 #@! TO.P,J1,1*
G04 #@! TO.N,GND*
X121285000Y-76200000D03*
D11*
G04 #@! TO.P,J1,2*
G04 #@! TO.N,Net-(BT1-Pad2)*
X121285000Y-78740000D03*
G04 #@! TO.P,J1,3*
G04 #@! TO.N,Net-(J1-Pad3)*
X121285000Y-81280000D03*
G04 #@! TD*
D12*
G04 #@! TO.P,J2,1*
G04 #@! TO.N,Net-(J2-Pad1)*
X153035000Y-78740000D03*
D11*
G04 #@! TO.P,J2,2*
G04 #@! TO.N,GND*
X153035000Y-81280000D03*
G04 #@! TD*
D15*
G04 #@! TO.P,R1,1*
G04 #@! TO.N,Net-(D1-Pad1)*
X142240000Y-81915000D03*
D16*
G04 #@! TO.P,R1,2*
G04 #@! TO.N,GND*
X132080000Y-81915000D03*
G04 #@! TD*
D17*
G04 #@! TO.P,S1,P$1*
G04 #@! TO.N,Net-(S1-PadP$1)*
X142458440Y-98778060D03*
G04 #@! TO.P,S1,P$2*
G04 #@! TO.N,Net-(J1-Pad3)*
X142458440Y-93980000D03*
G04 #@! TO.P,S1,P$3*
G04 #@! TO.N,/Input*
X142458440Y-89181940D03*
G04 #@! TO.P,S1,P$4*
G04 #@! TO.N,Net-(S1-PadP$1)*
X137160000Y-98778060D03*
G04 #@! TO.P,S1,P$5*
G04 #@! TO.N,Net-(J2-Pad1)*
X137160000Y-93980000D03*
G04 #@! TO.P,S1,P$6*
G04 #@! TO.N,/Output*
X137160000Y-89181940D03*
G04 #@! TO.P,S1,P$7*
G04 #@! TO.N,N/C*
X131861560Y-98778060D03*
G04 #@! TO.P,S1,P$8*
G04 #@! TO.N,+9V*
X131861560Y-93980000D03*
G04 #@! TO.P,S1,P$9*
G04 #@! TO.N,/LEDPower*
X131861560Y-89181940D03*
G04 #@! TD*
D12*
G04 #@! TO.P,J3,1*
G04 #@! TO.N,GND*
X106750000Y-36830000D03*
D11*
G04 #@! TO.P,J3,2*
X106750000Y-41910000D03*
G04 #@! TO.P,J3,3*
X109290000Y-36830000D03*
G04 #@! TO.P,J3,4*
X109290000Y-41910000D03*
G04 #@! TO.P,J3,5*
G04 #@! TO.N,/Input*
X111830000Y-36830000D03*
G04 #@! TO.P,J3,6*
X111830000Y-41910000D03*
G04 #@! TO.P,J3,7*
G04 #@! TO.N,/SecondFX*
X114370000Y-36830000D03*
G04 #@! TO.P,J3,8*
X114370000Y-41910000D03*
G04 #@! TO.P,J3,9*
G04 #@! TO.N,+9V*
X116910000Y-36830000D03*
G04 #@! TO.P,J3,10*
X116910000Y-41910000D03*
G04 #@! TO.P,J3,11*
G04 #@! TO.N,/LEDPower*
X119450000Y-36830000D03*
G04 #@! TO.P,J3,12*
X119450000Y-41910000D03*
G04 #@! TO.P,J3,13*
G04 #@! TO.N,N/C*
X121990000Y-36830000D03*
G04 #@! TO.P,J3,14*
X121990000Y-41910000D03*
G04 #@! TO.P,J3,15*
X124530000Y-36830000D03*
G04 #@! TO.P,J3,16*
X124530000Y-41910000D03*
G04 #@! TO.P,J3,17*
X127070000Y-36830000D03*
G04 #@! TO.P,J3,18*
X127070000Y-41910000D03*
G04 #@! TO.P,J3,19*
X129610000Y-36830000D03*
G04 #@! TO.P,J3,20*
X129610000Y-41910000D03*
G04 #@! TO.P,J3,21*
X132150000Y-36830000D03*
G04 #@! TO.P,J3,22*
X132150000Y-41910000D03*
G04 #@! TO.P,J3,23*
X134690000Y-36830000D03*
G04 #@! TO.P,J3,24*
X134690000Y-41910000D03*
G04 #@! TO.P,J3,25*
X137230000Y-36830000D03*
G04 #@! TO.P,J3,26*
X137230000Y-41910000D03*
G04 #@! TO.P,J3,27*
X139770000Y-36830000D03*
G04 #@! TO.P,J3,28*
X139770000Y-41910000D03*
G04 #@! TO.P,J3,29*
X142310000Y-36830000D03*
G04 #@! TO.P,J3,30*
X142310000Y-41910000D03*
G04 #@! TO.P,J3,31*
X144850000Y-36830000D03*
G04 #@! TO.P,J3,32*
X144850000Y-41910000D03*
G04 #@! TO.P,J3,33*
X147390000Y-36830000D03*
G04 #@! TO.P,J3,34*
X147390000Y-41910000D03*
G04 #@! TO.P,J3,35*
X149930000Y-36830000D03*
G04 #@! TO.P,J3,36*
X149930000Y-41910000D03*
G04 #@! TO.P,J3,37*
X152470000Y-36830000D03*
G04 #@! TO.P,J3,38*
X152470000Y-41910000D03*
G04 #@! TO.P,J3,39*
G04 #@! TO.N,/LEDPower*
X155010000Y-36830000D03*
G04 #@! TO.P,J3,40*
X155010000Y-41910000D03*
G04 #@! TO.P,J3,41*
G04 #@! TO.N,+9V*
X157550000Y-36830000D03*
G04 #@! TO.P,J3,42*
X157550000Y-41910000D03*
G04 #@! TO.P,J3,43*
G04 #@! TO.N,/SecondFX*
X160090000Y-36830000D03*
G04 #@! TO.P,J3,44*
X160090000Y-41910000D03*
G04 #@! TO.P,J3,45*
G04 #@! TO.N,/Input*
X162630000Y-36830000D03*
G04 #@! TO.P,J3,46*
X162630000Y-41910000D03*
G04 #@! TO.P,J3,47*
G04 #@! TO.N,GND*
X165170000Y-36830000D03*
G04 #@! TO.P,J3,48*
X165170000Y-41910000D03*
G04 #@! TO.P,J3,49*
X167710000Y-36830000D03*
G04 #@! TO.P,J3,50*
X167710000Y-41910000D03*
G04 #@! TD*
D18*
G04 #@! TO.P,D2,1*
G04 #@! TO.N,+9V*
X142240000Y-77470000D03*
D19*
G04 #@! TO.P,D2,2*
G04 #@! TO.N,Net-(BT1-Pad1)*
X132080000Y-77470000D03*
G04 #@! TD*
D12*
G04 #@! TO.P,J4,1*
G04 #@! TO.N,GND*
X106750000Y-20330000D03*
D11*
G04 #@! TO.P,J4,2*
X106750000Y-25410000D03*
G04 #@! TO.P,J4,3*
X109290000Y-20330000D03*
G04 #@! TO.P,J4,4*
X109290000Y-25410000D03*
G04 #@! TO.P,J4,5*
G04 #@! TO.N,/SecondFX*
X111830000Y-20330000D03*
G04 #@! TO.P,J4,6*
X111830000Y-25410000D03*
G04 #@! TO.P,J4,7*
G04 #@! TO.N,/Output*
X114370000Y-20330000D03*
G04 #@! TO.P,J4,8*
X114370000Y-25410000D03*
G04 #@! TO.P,J4,9*
G04 #@! TO.N,+9V*
X116910000Y-20330000D03*
G04 #@! TO.P,J4,10*
X116910000Y-25410000D03*
G04 #@! TO.P,J4,11*
G04 #@! TO.N,/LEDPower*
X119450000Y-20330000D03*
G04 #@! TO.P,J4,12*
X119450000Y-25410000D03*
G04 #@! TO.P,J4,13*
G04 #@! TO.N,N/C*
X121990000Y-20330000D03*
G04 #@! TO.P,J4,14*
X121990000Y-25410000D03*
G04 #@! TO.P,J4,15*
X124530000Y-20330000D03*
G04 #@! TO.P,J4,16*
X124530000Y-25410000D03*
G04 #@! TO.P,J4,17*
X127070000Y-20330000D03*
G04 #@! TO.P,J4,18*
X127070000Y-25410000D03*
G04 #@! TO.P,J4,19*
X129610000Y-20330000D03*
G04 #@! TO.P,J4,20*
X129610000Y-25410000D03*
G04 #@! TO.P,J4,21*
X132150000Y-20330000D03*
G04 #@! TO.P,J4,22*
X132150000Y-25410000D03*
G04 #@! TO.P,J4,23*
X134690000Y-20330000D03*
G04 #@! TO.P,J4,24*
X134690000Y-25410000D03*
G04 #@! TO.P,J4,25*
X137230000Y-20330000D03*
G04 #@! TO.P,J4,26*
X137230000Y-25410000D03*
G04 #@! TO.P,J4,27*
X139770000Y-20330000D03*
G04 #@! TO.P,J4,28*
X139770000Y-25410000D03*
G04 #@! TO.P,J4,29*
X142310000Y-20330000D03*
G04 #@! TO.P,J4,30*
X142310000Y-25410000D03*
G04 #@! TO.P,J4,31*
X144850000Y-20330000D03*
G04 #@! TO.P,J4,32*
X144850000Y-25410000D03*
G04 #@! TO.P,J4,33*
X147390000Y-20330000D03*
G04 #@! TO.P,J4,34*
X147390000Y-25410000D03*
G04 #@! TO.P,J4,35*
X149930000Y-20330000D03*
G04 #@! TO.P,J4,36*
X149930000Y-25410000D03*
G04 #@! TO.P,J4,37*
X152470000Y-20330000D03*
G04 #@! TO.P,J4,38*
X152470000Y-25410000D03*
G04 #@! TO.P,J4,39*
G04 #@! TO.N,/LEDPower*
X155010000Y-20330000D03*
G04 #@! TO.P,J4,40*
X155010000Y-25410000D03*
G04 #@! TO.P,J4,41*
G04 #@! TO.N,+9V*
X157550000Y-20330000D03*
G04 #@! TO.P,J4,42*
X157550000Y-25410000D03*
G04 #@! TO.P,J4,43*
G04 #@! TO.N,/Output*
X160090000Y-20330000D03*
G04 #@! TO.P,J4,44*
X160090000Y-25410000D03*
G04 #@! TO.P,J4,45*
G04 #@! TO.N,/SecondFX*
X162630000Y-20330000D03*
G04 #@! TO.P,J4,46*
X162630000Y-25410000D03*
G04 #@! TO.P,J4,47*
G04 #@! TO.N,GND*
X165170000Y-20330000D03*
G04 #@! TO.P,J4,48*
X165170000Y-25410000D03*
G04 #@! TO.P,J4,49*
X167710000Y-20330000D03*
G04 #@! TO.P,J4,50*
X167710000Y-25410000D03*
G04 #@! TD*
D12*
G04 #@! TO.P,SW1,1*
G04 #@! TO.N,/SecondFX*
X153035000Y-67945000D03*
D11*
G04 #@! TO.P,SW1,2*
G04 #@! TO.N,/Output*
X153035000Y-70485000D03*
G04 #@! TD*
D10*
G04 #@! TO.P,H1,1*
G04 #@! TO.N,GND*
X96000000Y-31120000D03*
G04 #@! TD*
G04 #@! TO.P,H2,1*
G04 #@! TO.N,GND*
X121285000Y-99695000D03*
G04 #@! TD*
G04 #@! TO.P,H4,1*
G04 #@! TO.N,GND*
X153035000Y-99695000D03*
G04 #@! TD*
D20*
G04 #@! TO.N,Net-(D1-Pad1)*
X143790001Y-75340001D02*
X137160000Y-68710000D01*
X143790001Y-80364999D02*
X143790001Y-75340001D01*
X142240000Y-81915000D02*
X143790001Y-80364999D01*
G04 #@! TO.N,/Input*
X135809999Y-82533499D02*
X142458440Y-89181940D01*
X135809999Y-65889999D02*
X135809999Y-82533499D01*
X111830000Y-41910000D02*
X135809999Y-65889999D01*
G04 #@! TO.N,/Output*
X154335001Y-69184999D02*
X154335001Y-47655001D01*
X153035000Y-70485000D02*
X154335001Y-69184999D01*
X169010001Y-34330001D02*
X160090000Y-25410000D01*
X169010001Y-42534001D02*
X169010001Y-34330001D01*
X168334001Y-43210001D02*
X169010001Y-42534001D01*
X158780001Y-43210001D02*
X168334001Y-43210001D01*
X154335001Y-47655001D02*
X158780001Y-43210001D01*
G04 #@! TO.N,/SecondFX*
X140405000Y-67945000D02*
X153035000Y-67945000D01*
X114370000Y-41910000D02*
X140405000Y-67945000D01*
G04 #@! TD*
D21*
G04 #@! TO.N,GND*
X179067192Y-17300578D02*
X179802389Y-17501705D01*
X180490351Y-17829846D01*
X181109331Y-18274628D01*
X181639761Y-18821988D01*
X182064884Y-19454639D01*
X182371251Y-20152561D01*
X182550499Y-20899183D01*
X182598001Y-21546044D01*
X182598000Y-40688382D01*
X182527422Y-41479193D01*
X182326295Y-42214389D01*
X181998152Y-42902355D01*
X181553374Y-43521328D01*
X181006012Y-44051761D01*
X180373362Y-44476883D01*
X179675439Y-44783251D01*
X178928819Y-44962499D01*
X178281970Y-45010000D01*
X160054877Y-45010000D01*
X160020000Y-45006565D01*
X159985123Y-45010000D01*
X159880816Y-45020273D01*
X159746980Y-45060872D01*
X159623637Y-45126800D01*
X159515525Y-45215525D01*
X159426800Y-45323637D01*
X159360872Y-45446980D01*
X159320273Y-45580816D01*
X159306565Y-45720000D01*
X159310000Y-45754877D01*
X159310001Y-100302095D01*
X159238394Y-101211943D01*
X159031870Y-102072180D01*
X158693320Y-102889511D01*
X158231077Y-103643821D01*
X157656530Y-104316530D01*
X156983821Y-104891077D01*
X156229505Y-105353323D01*
X155412181Y-105691869D01*
X154551943Y-105898394D01*
X153642108Y-105970000D01*
X120677892Y-105970000D01*
X119768057Y-105898394D01*
X118907820Y-105691870D01*
X118090489Y-105353320D01*
X117336179Y-104891077D01*
X116663470Y-104316530D01*
X116088923Y-103643821D01*
X115626677Y-102889505D01*
X115288131Y-102072181D01*
X115246350Y-101898148D01*
X119261457Y-101898148D01*
X119537627Y-102316118D01*
X120082557Y-102606649D01*
X120673696Y-102785287D01*
X121288328Y-102845168D01*
X121902831Y-102783990D01*
X122493592Y-102604103D01*
X123032373Y-102316118D01*
X123308543Y-101898148D01*
X151011457Y-101898148D01*
X151287627Y-102316118D01*
X151832557Y-102606649D01*
X152423696Y-102785287D01*
X153038328Y-102845168D01*
X153652831Y-102783990D01*
X154243592Y-102604103D01*
X154782373Y-102316118D01*
X155058543Y-101898148D01*
X153035000Y-99874605D01*
X151011457Y-101898148D01*
X123308543Y-101898148D01*
X121285000Y-99874605D01*
X119261457Y-101898148D01*
X115246350Y-101898148D01*
X115081606Y-101211943D01*
X115010000Y-100302108D01*
X115010000Y-99698328D01*
X118134832Y-99698328D01*
X118196010Y-100312831D01*
X118375897Y-100903592D01*
X118663882Y-101442373D01*
X119081852Y-101718543D01*
X121105395Y-99695000D01*
X121464605Y-99695000D01*
X123488148Y-101718543D01*
X123906118Y-101442373D01*
X124196649Y-100897443D01*
X124375287Y-100306304D01*
X124435168Y-99691672D01*
X124373990Y-99077169D01*
X124225779Y-98590434D01*
X129956560Y-98590434D01*
X129956560Y-98965686D01*
X130029769Y-99333728D01*
X130173371Y-99680416D01*
X130381850Y-99992426D01*
X130647194Y-100257770D01*
X130959204Y-100466249D01*
X131305892Y-100609851D01*
X131673934Y-100683060D01*
X132049186Y-100683060D01*
X132417228Y-100609851D01*
X132763916Y-100466249D01*
X133075926Y-100257770D01*
X133341270Y-99992426D01*
X133549749Y-99680416D01*
X133693351Y-99333728D01*
X133766560Y-98965686D01*
X133766560Y-98590434D01*
X135255000Y-98590434D01*
X135255000Y-98965686D01*
X135328209Y-99333728D01*
X135471811Y-99680416D01*
X135680290Y-99992426D01*
X135945634Y-100257770D01*
X136257644Y-100466249D01*
X136604332Y-100609851D01*
X136972374Y-100683060D01*
X137347626Y-100683060D01*
X137715668Y-100609851D01*
X138062356Y-100466249D01*
X138374366Y-100257770D01*
X138639710Y-99992426D01*
X138848189Y-99680416D01*
X138991791Y-99333728D01*
X139065000Y-98965686D01*
X139065000Y-98590434D01*
X140553440Y-98590434D01*
X140553440Y-98965686D01*
X140626649Y-99333728D01*
X140770251Y-99680416D01*
X140978730Y-99992426D01*
X141244074Y-100257770D01*
X141556084Y-100466249D01*
X141902772Y-100609851D01*
X142270814Y-100683060D01*
X142646066Y-100683060D01*
X143014108Y-100609851D01*
X143360796Y-100466249D01*
X143672806Y-100257770D01*
X143938150Y-99992426D01*
X144134660Y-99698328D01*
X149884832Y-99698328D01*
X149946010Y-100312831D01*
X150125897Y-100903592D01*
X150413882Y-101442373D01*
X150831852Y-101718543D01*
X152855395Y-99695000D01*
X153214605Y-99695000D01*
X155238148Y-101718543D01*
X155656118Y-101442373D01*
X155946649Y-100897443D01*
X156125287Y-100306304D01*
X156185168Y-99691672D01*
X156123990Y-99077169D01*
X155944103Y-98486408D01*
X155656118Y-97947627D01*
X155238148Y-97671457D01*
X153214605Y-99695000D01*
X152855395Y-99695000D01*
X150831852Y-97671457D01*
X150413882Y-97947627D01*
X150123351Y-98492557D01*
X149944713Y-99083696D01*
X149884832Y-99698328D01*
X144134660Y-99698328D01*
X144146629Y-99680416D01*
X144290231Y-99333728D01*
X144363440Y-98965686D01*
X144363440Y-98590434D01*
X144290231Y-98222392D01*
X144146629Y-97875704D01*
X143938150Y-97563694D01*
X143866308Y-97491852D01*
X151011457Y-97491852D01*
X153035000Y-99515395D01*
X155058543Y-97491852D01*
X154782373Y-97073882D01*
X154237443Y-96783351D01*
X153646304Y-96604713D01*
X153031672Y-96544832D01*
X152417169Y-96606010D01*
X151826408Y-96785897D01*
X151287627Y-97073882D01*
X151011457Y-97491852D01*
X143866308Y-97491852D01*
X143672806Y-97298350D01*
X143360796Y-97089871D01*
X143014108Y-96946269D01*
X142646066Y-96873060D01*
X142270814Y-96873060D01*
X141902772Y-96946269D01*
X141556084Y-97089871D01*
X141244074Y-97298350D01*
X140978730Y-97563694D01*
X140770251Y-97875704D01*
X140626649Y-98222392D01*
X140553440Y-98590434D01*
X139065000Y-98590434D01*
X138991791Y-98222392D01*
X138848189Y-97875704D01*
X138639710Y-97563694D01*
X138374366Y-97298350D01*
X138062356Y-97089871D01*
X137715668Y-96946269D01*
X137347626Y-96873060D01*
X136972374Y-96873060D01*
X136604332Y-96946269D01*
X136257644Y-97089871D01*
X135945634Y-97298350D01*
X135680290Y-97563694D01*
X135471811Y-97875704D01*
X135328209Y-98222392D01*
X135255000Y-98590434D01*
X133766560Y-98590434D01*
X133693351Y-98222392D01*
X133549749Y-97875704D01*
X133341270Y-97563694D01*
X133075926Y-97298350D01*
X132763916Y-97089871D01*
X132417228Y-96946269D01*
X132049186Y-96873060D01*
X131673934Y-96873060D01*
X131305892Y-96946269D01*
X130959204Y-97089871D01*
X130647194Y-97298350D01*
X130381850Y-97563694D01*
X130173371Y-97875704D01*
X130029769Y-98222392D01*
X129956560Y-98590434D01*
X124225779Y-98590434D01*
X124194103Y-98486408D01*
X123906118Y-97947627D01*
X123488148Y-97671457D01*
X121464605Y-99695000D01*
X121105395Y-99695000D01*
X119081852Y-97671457D01*
X118663882Y-97947627D01*
X118373351Y-98492557D01*
X118194713Y-99083696D01*
X118134832Y-99698328D01*
X115010000Y-99698328D01*
X115010000Y-97491852D01*
X119261457Y-97491852D01*
X121285000Y-99515395D01*
X123308543Y-97491852D01*
X123032373Y-97073882D01*
X122487443Y-96783351D01*
X121896304Y-96604713D01*
X121281672Y-96544832D01*
X120667169Y-96606010D01*
X120076408Y-96785897D01*
X119537627Y-97073882D01*
X119261457Y-97491852D01*
X115010000Y-97491852D01*
X115010000Y-93792374D01*
X129956560Y-93792374D01*
X129956560Y-94167626D01*
X130029769Y-94535668D01*
X130173371Y-94882356D01*
X130381850Y-95194366D01*
X130647194Y-95459710D01*
X130959204Y-95668189D01*
X131305892Y-95811791D01*
X131673934Y-95885000D01*
X132049186Y-95885000D01*
X132417228Y-95811791D01*
X132763916Y-95668189D01*
X133075926Y-95459710D01*
X133341270Y-95194366D01*
X133549749Y-94882356D01*
X133693351Y-94535668D01*
X133766560Y-94167626D01*
X133766560Y-93792374D01*
X135255000Y-93792374D01*
X135255000Y-94167626D01*
X135328209Y-94535668D01*
X135471811Y-94882356D01*
X135680290Y-95194366D01*
X135945634Y-95459710D01*
X136257644Y-95668189D01*
X136604332Y-95811791D01*
X136972374Y-95885000D01*
X137347626Y-95885000D01*
X137715668Y-95811791D01*
X138062356Y-95668189D01*
X138374366Y-95459710D01*
X138639710Y-95194366D01*
X138848189Y-94882356D01*
X138991791Y-94535668D01*
X139065000Y-94167626D01*
X139065000Y-93792374D01*
X140553440Y-93792374D01*
X140553440Y-94167626D01*
X140626649Y-94535668D01*
X140770251Y-94882356D01*
X140978730Y-95194366D01*
X141244074Y-95459710D01*
X141556084Y-95668189D01*
X141902772Y-95811791D01*
X142270814Y-95885000D01*
X142646066Y-95885000D01*
X143014108Y-95811791D01*
X143360796Y-95668189D01*
X143672806Y-95459710D01*
X143938150Y-95194366D01*
X144146629Y-94882356D01*
X144290231Y-94535668D01*
X144363440Y-94167626D01*
X144363440Y-93792374D01*
X144290231Y-93424332D01*
X144146629Y-93077644D01*
X143938150Y-92765634D01*
X143672806Y-92500290D01*
X143360796Y-92291811D01*
X143014108Y-92148209D01*
X142646066Y-92075000D01*
X142270814Y-92075000D01*
X141902772Y-92148209D01*
X141556084Y-92291811D01*
X141244074Y-92500290D01*
X140978730Y-92765634D01*
X140770251Y-93077644D01*
X140626649Y-93424332D01*
X140553440Y-93792374D01*
X139065000Y-93792374D01*
X138991791Y-93424332D01*
X138848189Y-93077644D01*
X138639710Y-92765634D01*
X138374366Y-92500290D01*
X138062356Y-92291811D01*
X137715668Y-92148209D01*
X137347626Y-92075000D01*
X136972374Y-92075000D01*
X136604332Y-92148209D01*
X136257644Y-92291811D01*
X135945634Y-92500290D01*
X135680290Y-92765634D01*
X135471811Y-93077644D01*
X135328209Y-93424332D01*
X135255000Y-93792374D01*
X133766560Y-93792374D01*
X133693351Y-93424332D01*
X133549749Y-93077644D01*
X133341270Y-92765634D01*
X133075926Y-92500290D01*
X132763916Y-92291811D01*
X132417228Y-92148209D01*
X132049186Y-92075000D01*
X131673934Y-92075000D01*
X131305892Y-92148209D01*
X130959204Y-92291811D01*
X130647194Y-92500290D01*
X130381850Y-92765634D01*
X130173371Y-93077644D01*
X130029769Y-93424332D01*
X129956560Y-93792374D01*
X115010000Y-93792374D01*
X115010000Y-88994314D01*
X129956560Y-88994314D01*
X129956560Y-89369566D01*
X130029769Y-89737608D01*
X130173371Y-90084296D01*
X130381850Y-90396306D01*
X130647194Y-90661650D01*
X130959204Y-90870129D01*
X131305892Y-91013731D01*
X131673934Y-91086940D01*
X132049186Y-91086940D01*
X132417228Y-91013731D01*
X132763916Y-90870129D01*
X133075926Y-90661650D01*
X133341270Y-90396306D01*
X133549749Y-90084296D01*
X133693351Y-89737608D01*
X133766560Y-89369566D01*
X133766560Y-88994314D01*
X135255000Y-88994314D01*
X135255000Y-89369566D01*
X135328209Y-89737608D01*
X135471811Y-90084296D01*
X135680290Y-90396306D01*
X135945634Y-90661650D01*
X136257644Y-90870129D01*
X136604332Y-91013731D01*
X136972374Y-91086940D01*
X137347626Y-91086940D01*
X137715668Y-91013731D01*
X138062356Y-90870129D01*
X138374366Y-90661650D01*
X138639710Y-90396306D01*
X138848189Y-90084296D01*
X138991791Y-89737608D01*
X139065000Y-89369566D01*
X139065000Y-88994314D01*
X138991791Y-88626272D01*
X138848189Y-88279584D01*
X138639710Y-87967574D01*
X138374366Y-87702230D01*
X138062356Y-87493751D01*
X137715668Y-87350149D01*
X137347626Y-87276940D01*
X136972374Y-87276940D01*
X136604332Y-87350149D01*
X136257644Y-87493751D01*
X135945634Y-87702230D01*
X135680290Y-87967574D01*
X135471811Y-88279584D01*
X135328209Y-88626272D01*
X135255000Y-88994314D01*
X133766560Y-88994314D01*
X133693351Y-88626272D01*
X133549749Y-88279584D01*
X133341270Y-87967574D01*
X133075926Y-87702230D01*
X132763916Y-87493751D01*
X132417228Y-87350149D01*
X132049186Y-87276940D01*
X131673934Y-87276940D01*
X131305892Y-87350149D01*
X130959204Y-87493751D01*
X130647194Y-87702230D01*
X130381850Y-87967574D01*
X130173371Y-88279584D01*
X130029769Y-88626272D01*
X129956560Y-88994314D01*
X115010000Y-88994314D01*
X115010000Y-77050000D01*
X119796928Y-77050000D01*
X119809188Y-77174482D01*
X119845498Y-77294180D01*
X119904463Y-77404494D01*
X119983815Y-77501185D01*
X120080506Y-77580537D01*
X120190820Y-77639502D01*
X120263380Y-77661513D01*
X120131525Y-77793368D01*
X119969010Y-78036589D01*
X119857068Y-78306842D01*
X119800000Y-78593740D01*
X119800000Y-78886260D01*
X119857068Y-79173158D01*
X119969010Y-79443411D01*
X120131525Y-79686632D01*
X120338368Y-79893475D01*
X120512760Y-80010000D01*
X120338368Y-80126525D01*
X120131525Y-80333368D01*
X119969010Y-80576589D01*
X119857068Y-80846842D01*
X119800000Y-81133740D01*
X119800000Y-81426260D01*
X119857068Y-81713158D01*
X119969010Y-81983411D01*
X120131525Y-82226632D01*
X120338368Y-82433475D01*
X120581589Y-82595990D01*
X120851842Y-82707932D01*
X121138740Y-82765000D01*
X121431260Y-82765000D01*
X121718158Y-82707932D01*
X121988411Y-82595990D01*
X122231632Y-82433475D01*
X122401068Y-82264039D01*
X130688096Y-82264039D01*
X130728754Y-82398087D01*
X130848963Y-82652420D01*
X131016481Y-82878414D01*
X131224869Y-83067385D01*
X131466119Y-83212070D01*
X131730960Y-83306909D01*
X131953000Y-83185624D01*
X131953000Y-82042000D01*
X132207000Y-82042000D01*
X132207000Y-83185624D01*
X132429040Y-83306909D01*
X132693881Y-83212070D01*
X132935131Y-83067385D01*
X133143519Y-82878414D01*
X133311037Y-82652420D01*
X133431246Y-82398087D01*
X133471904Y-82264039D01*
X133349915Y-82042000D01*
X132207000Y-82042000D01*
X131953000Y-82042000D01*
X130810085Y-82042000D01*
X130688096Y-82264039D01*
X122401068Y-82264039D01*
X122438475Y-82226632D01*
X122600990Y-81983411D01*
X122712932Y-81713158D01*
X122742211Y-81565961D01*
X130688096Y-81565961D01*
X130810085Y-81788000D01*
X131953000Y-81788000D01*
X131953000Y-80644376D01*
X132207000Y-80644376D01*
X132207000Y-81788000D01*
X133349915Y-81788000D01*
X133471904Y-81565961D01*
X133431246Y-81431913D01*
X133311037Y-81177580D01*
X133143519Y-80951586D01*
X132935131Y-80762615D01*
X132693881Y-80617930D01*
X132429040Y-80523091D01*
X132207000Y-80644376D01*
X131953000Y-80644376D01*
X131730960Y-80523091D01*
X131466119Y-80617930D01*
X131224869Y-80762615D01*
X131016481Y-80951586D01*
X130848963Y-81177580D01*
X130728754Y-81431913D01*
X130688096Y-81565961D01*
X122742211Y-81565961D01*
X122770000Y-81426260D01*
X122770000Y-81133740D01*
X122712932Y-80846842D01*
X122600990Y-80576589D01*
X122438475Y-80333368D01*
X122231632Y-80126525D01*
X122057240Y-80010000D01*
X122231632Y-79893475D01*
X122438475Y-79686632D01*
X122600990Y-79443411D01*
X122712932Y-79173158D01*
X122770000Y-78886260D01*
X122770000Y-78593740D01*
X122712932Y-78306842D01*
X122600990Y-78036589D01*
X122438475Y-77793368D01*
X122306620Y-77661513D01*
X122379180Y-77639502D01*
X122489494Y-77580537D01*
X122586185Y-77501185D01*
X122665537Y-77404494D01*
X122721863Y-77299117D01*
X130345000Y-77299117D01*
X130345000Y-77640883D01*
X130411675Y-77976081D01*
X130542463Y-78291831D01*
X130732337Y-78575998D01*
X130974002Y-78817663D01*
X131258169Y-79007537D01*
X131573919Y-79138325D01*
X131909117Y-79205000D01*
X132250883Y-79205000D01*
X132586081Y-79138325D01*
X132901831Y-79007537D01*
X133185998Y-78817663D01*
X133427663Y-78575998D01*
X133617537Y-78291831D01*
X133748325Y-77976081D01*
X133815000Y-77640883D01*
X133815000Y-77299117D01*
X133748325Y-76963919D01*
X133617537Y-76648169D01*
X133427663Y-76364002D01*
X133185998Y-76122337D01*
X132901831Y-75932463D01*
X132586081Y-75801675D01*
X132250883Y-75735000D01*
X131909117Y-75735000D01*
X131573919Y-75801675D01*
X131258169Y-75932463D01*
X130974002Y-76122337D01*
X130732337Y-76364002D01*
X130542463Y-76648169D01*
X130411675Y-76963919D01*
X130345000Y-77299117D01*
X122721863Y-77299117D01*
X122724502Y-77294180D01*
X122760812Y-77174482D01*
X122773072Y-77050000D01*
X122770000Y-76485750D01*
X122611250Y-76327000D01*
X121412000Y-76327000D01*
X121412000Y-76347000D01*
X121158000Y-76347000D01*
X121158000Y-76327000D01*
X119958750Y-76327000D01*
X119800000Y-76485750D01*
X119796928Y-77050000D01*
X115010000Y-77050000D01*
X115010000Y-75350000D01*
X119796928Y-75350000D01*
X119800000Y-75914250D01*
X119958750Y-76073000D01*
X121158000Y-76073000D01*
X121158000Y-74873750D01*
X121412000Y-74873750D01*
X121412000Y-76073000D01*
X122611250Y-76073000D01*
X122770000Y-75914250D01*
X122773072Y-75350000D01*
X122760812Y-75225518D01*
X122724502Y-75105820D01*
X122665537Y-74995506D01*
X122586185Y-74898815D01*
X122489494Y-74819463D01*
X122379180Y-74760498D01*
X122259482Y-74724188D01*
X122135000Y-74711928D01*
X121570750Y-74715000D01*
X121412000Y-74873750D01*
X121158000Y-74873750D01*
X120999250Y-74715000D01*
X120435000Y-74711928D01*
X120310518Y-74724188D01*
X120190820Y-74760498D01*
X120080506Y-74819463D01*
X119983815Y-74898815D01*
X119904463Y-74995506D01*
X119845498Y-75105820D01*
X119809188Y-75225518D01*
X119796928Y-75350000D01*
X115010000Y-75350000D01*
X115010000Y-67095000D01*
X119796928Y-67095000D01*
X119796928Y-68795000D01*
X119809188Y-68919482D01*
X119845498Y-69039180D01*
X119904463Y-69149494D01*
X119983815Y-69246185D01*
X120080506Y-69325537D01*
X120190820Y-69384502D01*
X120263380Y-69406513D01*
X120131525Y-69538368D01*
X119969010Y-69781589D01*
X119857068Y-70051842D01*
X119800000Y-70338740D01*
X119800000Y-70631260D01*
X119857068Y-70918158D01*
X119969010Y-71188411D01*
X120131525Y-71431632D01*
X120338368Y-71638475D01*
X120581589Y-71800990D01*
X120851842Y-71912932D01*
X121138740Y-71970000D01*
X121431260Y-71970000D01*
X121718158Y-71912932D01*
X121988411Y-71800990D01*
X122231632Y-71638475D01*
X122438475Y-71431632D01*
X122600990Y-71188411D01*
X122712932Y-70918158D01*
X122770000Y-70631260D01*
X122770000Y-70338740D01*
X122712932Y-70051842D01*
X122600990Y-69781589D01*
X122438475Y-69538368D01*
X122306620Y-69406513D01*
X122379180Y-69384502D01*
X122489494Y-69325537D01*
X122586185Y-69246185D01*
X122665537Y-69149494D01*
X122724502Y-69039180D01*
X122760812Y-68919482D01*
X122773072Y-68795000D01*
X122773072Y-67095000D01*
X122760812Y-66970518D01*
X122724502Y-66850820D01*
X122665537Y-66740506D01*
X122586185Y-66643815D01*
X122489494Y-66564463D01*
X122379180Y-66505498D01*
X122259482Y-66469188D01*
X122135000Y-66456928D01*
X120435000Y-66456928D01*
X120310518Y-66469188D01*
X120190820Y-66505498D01*
X120080506Y-66564463D01*
X119983815Y-66643815D01*
X119904463Y-66740506D01*
X119845498Y-66850820D01*
X119809188Y-66970518D01*
X119796928Y-67095000D01*
X115010000Y-67095000D01*
X115010000Y-46341578D01*
X134924999Y-66256578D01*
X134925000Y-82490020D01*
X134920718Y-82533499D01*
X134937804Y-82706989D01*
X134988411Y-82873812D01*
X135070589Y-83027558D01*
X135153467Y-83128545D01*
X135153470Y-83128548D01*
X135181183Y-83162316D01*
X135214951Y-83190029D01*
X140633838Y-88608917D01*
X140626649Y-88626272D01*
X140553440Y-88994314D01*
X140553440Y-89369566D01*
X140626649Y-89737608D01*
X140770251Y-90084296D01*
X140978730Y-90396306D01*
X141244074Y-90661650D01*
X141556084Y-90870129D01*
X141902772Y-91013731D01*
X142270814Y-91086940D01*
X142646066Y-91086940D01*
X143014108Y-91013731D01*
X143360796Y-90870129D01*
X143672806Y-90661650D01*
X143938150Y-90396306D01*
X144146629Y-90084296D01*
X144290231Y-89737608D01*
X144363440Y-89369566D01*
X144363440Y-88994314D01*
X144290231Y-88626272D01*
X144146629Y-88279584D01*
X143938150Y-87967574D01*
X143672806Y-87702230D01*
X143360796Y-87493751D01*
X143014108Y-87350149D01*
X142646066Y-87276940D01*
X142270814Y-87276940D01*
X141902772Y-87350149D01*
X141885417Y-87357338D01*
X136694999Y-82166921D01*
X136694999Y-72718862D01*
X136712257Y-72726011D01*
X137008816Y-72785000D01*
X137311184Y-72785000D01*
X137607743Y-72726011D01*
X137887095Y-72610299D01*
X138138505Y-72442312D01*
X138352312Y-72228505D01*
X138520299Y-71977095D01*
X138636011Y-71697743D01*
X138679173Y-71480751D01*
X142905002Y-75706581D01*
X142905002Y-75731928D01*
X141140000Y-75731928D01*
X141015518Y-75744188D01*
X140895820Y-75780498D01*
X140785506Y-75839463D01*
X140688815Y-75918815D01*
X140609463Y-76015506D01*
X140550498Y-76125820D01*
X140514188Y-76245518D01*
X140501928Y-76370000D01*
X140501928Y-78570000D01*
X140514188Y-78694482D01*
X140550498Y-78814180D01*
X140609463Y-78924494D01*
X140688815Y-79021185D01*
X140785506Y-79100537D01*
X140895820Y-79159502D01*
X141015518Y-79195812D01*
X141140000Y-79208072D01*
X142905001Y-79208072D01*
X142905001Y-79998420D01*
X142416439Y-80486983D01*
X142381335Y-80480000D01*
X142098665Y-80480000D01*
X141821426Y-80535147D01*
X141560273Y-80643320D01*
X141325241Y-80800363D01*
X141125363Y-81000241D01*
X140968320Y-81235273D01*
X140860147Y-81496426D01*
X140805000Y-81773665D01*
X140805000Y-82056335D01*
X140860147Y-82333574D01*
X140968320Y-82594727D01*
X141125363Y-82829759D01*
X141325241Y-83029637D01*
X141560273Y-83186680D01*
X141821426Y-83294853D01*
X142098665Y-83350000D01*
X142381335Y-83350000D01*
X142658574Y-83294853D01*
X142919727Y-83186680D01*
X143154759Y-83029637D01*
X143354637Y-82829759D01*
X143511680Y-82594727D01*
X143619853Y-82333574D01*
X143675000Y-82056335D01*
X143675000Y-81773665D01*
X143668017Y-81738561D01*
X143769688Y-81636890D01*
X151593524Y-81636890D01*
X151638175Y-81784099D01*
X151763359Y-82046920D01*
X151937412Y-82280269D01*
X152153645Y-82475178D01*
X152403748Y-82624157D01*
X152678109Y-82721481D01*
X152908000Y-82600814D01*
X152908000Y-81407000D01*
X153162000Y-81407000D01*
X153162000Y-82600814D01*
X153391891Y-82721481D01*
X153666252Y-82624157D01*
X153916355Y-82475178D01*
X154132588Y-82280269D01*
X154306641Y-82046920D01*
X154431825Y-81784099D01*
X154476476Y-81636890D01*
X154355155Y-81407000D01*
X153162000Y-81407000D01*
X152908000Y-81407000D01*
X151714845Y-81407000D01*
X151593524Y-81636890D01*
X143769688Y-81636890D01*
X144385051Y-81021528D01*
X144418818Y-80993816D01*
X144476846Y-80923110D01*
X144529411Y-80859059D01*
X144529412Y-80859058D01*
X144611590Y-80705312D01*
X144662196Y-80538489D01*
X144675001Y-80408476D01*
X144675001Y-80408466D01*
X144679282Y-80365000D01*
X144675001Y-80321534D01*
X144675001Y-77890000D01*
X151546928Y-77890000D01*
X151546928Y-79590000D01*
X151559188Y-79714482D01*
X151595498Y-79834180D01*
X151654463Y-79944494D01*
X151733815Y-80041185D01*
X151830506Y-80120537D01*
X151940820Y-80179502D01*
X152021466Y-80203966D01*
X151937412Y-80279731D01*
X151763359Y-80513080D01*
X151638175Y-80775901D01*
X151593524Y-80923110D01*
X151714845Y-81153000D01*
X152908000Y-81153000D01*
X152908000Y-81133000D01*
X153162000Y-81133000D01*
X153162000Y-81153000D01*
X154355155Y-81153000D01*
X154476476Y-80923110D01*
X154431825Y-80775901D01*
X154306641Y-80513080D01*
X154132588Y-80279731D01*
X154048534Y-80203966D01*
X154129180Y-80179502D01*
X154239494Y-80120537D01*
X154336185Y-80041185D01*
X154415537Y-79944494D01*
X154474502Y-79834180D01*
X154510812Y-79714482D01*
X154523072Y-79590000D01*
X154523072Y-77890000D01*
X154510812Y-77765518D01*
X154474502Y-77645820D01*
X154415537Y-77535506D01*
X154336185Y-77438815D01*
X154239494Y-77359463D01*
X154129180Y-77300498D01*
X154009482Y-77264188D01*
X153885000Y-77251928D01*
X152185000Y-77251928D01*
X152060518Y-77264188D01*
X151940820Y-77300498D01*
X151830506Y-77359463D01*
X151733815Y-77438815D01*
X151654463Y-77535506D01*
X151595498Y-77645820D01*
X151559188Y-77765518D01*
X151546928Y-77890000D01*
X144675001Y-77890000D01*
X144675001Y-75383466D01*
X144679282Y-75340000D01*
X144675001Y-75296534D01*
X144675001Y-75296524D01*
X144662196Y-75166511D01*
X144611590Y-74999688D01*
X144529412Y-74845942D01*
X144505211Y-74816453D01*
X144446533Y-74744954D01*
X144446531Y-74744952D01*
X144418818Y-74711184D01*
X144385050Y-74683471D01*
X138698072Y-68996494D01*
X138698072Y-67810000D01*
X138685812Y-67685518D01*
X138649502Y-67565820D01*
X138590537Y-67455506D01*
X138511185Y-67358815D01*
X138414494Y-67279463D01*
X138304180Y-67220498D01*
X138184482Y-67184188D01*
X138060000Y-67171928D01*
X136694999Y-67171928D01*
X136694999Y-65933468D01*
X136699280Y-65889999D01*
X136694999Y-65846530D01*
X136694999Y-65846522D01*
X136682194Y-65716509D01*
X136631588Y-65549686D01*
X136549410Y-65395940D01*
X136438816Y-65261182D01*
X136405050Y-65233471D01*
X114558230Y-43386652D01*
X114588961Y-43380539D01*
X139748470Y-68540049D01*
X139776183Y-68573817D01*
X139809951Y-68601530D01*
X139809953Y-68601532D01*
X139881452Y-68660210D01*
X139910941Y-68684411D01*
X140064687Y-68766589D01*
X140231510Y-68817195D01*
X140361523Y-68830000D01*
X140361533Y-68830000D01*
X140404999Y-68834281D01*
X140448465Y-68830000D01*
X151550375Y-68830000D01*
X151559188Y-68919482D01*
X151595498Y-69039180D01*
X151654463Y-69149494D01*
X151733815Y-69246185D01*
X151830506Y-69325537D01*
X151940820Y-69384502D01*
X152013380Y-69406513D01*
X151881525Y-69538368D01*
X151719010Y-69781589D01*
X151607068Y-70051842D01*
X151550000Y-70338740D01*
X151550000Y-70631260D01*
X151607068Y-70918158D01*
X151719010Y-71188411D01*
X151881525Y-71431632D01*
X152088368Y-71638475D01*
X152331589Y-71800990D01*
X152601842Y-71912932D01*
X152888740Y-71970000D01*
X153181260Y-71970000D01*
X153468158Y-71912932D01*
X153738411Y-71800990D01*
X153981632Y-71638475D01*
X154188475Y-71431632D01*
X154350990Y-71188411D01*
X154462932Y-70918158D01*
X154520000Y-70631260D01*
X154520000Y-70338740D01*
X154505539Y-70266040D01*
X154930051Y-69841528D01*
X154963818Y-69813816D01*
X154996504Y-69773989D01*
X155074411Y-69679059D01*
X155074412Y-69679058D01*
X155156590Y-69525312D01*
X155207196Y-69358489D01*
X155220001Y-69228476D01*
X155220001Y-69228466D01*
X155224282Y-69185000D01*
X155220001Y-69141533D01*
X155220001Y-48021579D01*
X159146580Y-44095001D01*
X168290532Y-44095001D01*
X168334001Y-44099282D01*
X168377470Y-44095001D01*
X168377478Y-44095001D01*
X168507491Y-44082196D01*
X168674314Y-44031590D01*
X168828060Y-43949412D01*
X168962818Y-43838818D01*
X168990535Y-43805045D01*
X169605051Y-43190530D01*
X169638818Y-43162818D01*
X169679720Y-43112980D01*
X169736765Y-43043470D01*
X169749412Y-43028060D01*
X169831590Y-42874314D01*
X169882196Y-42707491D01*
X169895001Y-42577478D01*
X169895001Y-42577468D01*
X169899282Y-42534002D01*
X169895001Y-42490536D01*
X169895001Y-34373466D01*
X169899282Y-34330000D01*
X169895001Y-34286534D01*
X169895001Y-34286524D01*
X169882196Y-34156511D01*
X169831590Y-33989688D01*
X169749412Y-33835942D01*
X169725211Y-33806453D01*
X169666533Y-33734954D01*
X169666531Y-33734952D01*
X169638818Y-33701184D01*
X169605050Y-33673471D01*
X169254727Y-33323148D01*
X176296457Y-33323148D01*
X176572627Y-33741118D01*
X177117557Y-34031649D01*
X177708696Y-34210287D01*
X178323328Y-34270168D01*
X178937831Y-34208990D01*
X179528592Y-34029103D01*
X180067373Y-33741118D01*
X180343543Y-33323148D01*
X178320000Y-31299605D01*
X176296457Y-33323148D01*
X169254727Y-33323148D01*
X167054907Y-31123328D01*
X175169832Y-31123328D01*
X175231010Y-31737831D01*
X175410897Y-32328592D01*
X175698882Y-32867373D01*
X176116852Y-33143543D01*
X178140395Y-31120000D01*
X178499605Y-31120000D01*
X180523148Y-33143543D01*
X180941118Y-32867373D01*
X181231649Y-32322443D01*
X181410287Y-31731304D01*
X181470168Y-31116672D01*
X181408990Y-30502169D01*
X181229103Y-29911408D01*
X180941118Y-29372627D01*
X180523148Y-29096457D01*
X178499605Y-31120000D01*
X178140395Y-31120000D01*
X176116852Y-29096457D01*
X175698882Y-29372627D01*
X175408351Y-29917557D01*
X175229713Y-30508696D01*
X175169832Y-31123328D01*
X167054907Y-31123328D01*
X164848431Y-28916852D01*
X176296457Y-28916852D01*
X178320000Y-30940395D01*
X180343543Y-28916852D01*
X180067373Y-28498882D01*
X179522443Y-28208351D01*
X178931304Y-28029713D01*
X178316672Y-27969832D01*
X177702169Y-28031010D01*
X177111408Y-28210897D01*
X176572627Y-28498882D01*
X176296457Y-28916852D01*
X164848431Y-28916852D01*
X162818230Y-26886652D01*
X163063158Y-26837932D01*
X163333411Y-26725990D01*
X163576632Y-26563475D01*
X163783475Y-26356632D01*
X163905195Y-26174466D01*
X163974822Y-26291355D01*
X164169731Y-26507588D01*
X164403080Y-26681641D01*
X164665901Y-26806825D01*
X164813110Y-26851476D01*
X165043000Y-26730155D01*
X165043000Y-25537000D01*
X165297000Y-25537000D01*
X165297000Y-26730155D01*
X165526890Y-26851476D01*
X165674099Y-26806825D01*
X165936920Y-26681641D01*
X166170269Y-26507588D01*
X166365178Y-26291355D01*
X166440000Y-26165745D01*
X166514822Y-26291355D01*
X166709731Y-26507588D01*
X166943080Y-26681641D01*
X167205901Y-26806825D01*
X167353110Y-26851476D01*
X167583000Y-26730155D01*
X167583000Y-25537000D01*
X167837000Y-25537000D01*
X167837000Y-26730155D01*
X168066890Y-26851476D01*
X168214099Y-26806825D01*
X168476920Y-26681641D01*
X168710269Y-26507588D01*
X168905178Y-26291355D01*
X169054157Y-26041252D01*
X169151481Y-25766891D01*
X169030814Y-25537000D01*
X167837000Y-25537000D01*
X167583000Y-25537000D01*
X165297000Y-25537000D01*
X165043000Y-25537000D01*
X165023000Y-25537000D01*
X165023000Y-25283000D01*
X165043000Y-25283000D01*
X165043000Y-24089845D01*
X165297000Y-24089845D01*
X165297000Y-25283000D01*
X167583000Y-25283000D01*
X167583000Y-24089845D01*
X167837000Y-24089845D01*
X167837000Y-25283000D01*
X169030814Y-25283000D01*
X169151481Y-25053109D01*
X169054157Y-24778748D01*
X168905178Y-24528645D01*
X168710269Y-24312412D01*
X168476920Y-24138359D01*
X168214099Y-24013175D01*
X168066890Y-23968524D01*
X167837000Y-24089845D01*
X167583000Y-24089845D01*
X167353110Y-23968524D01*
X167205901Y-24013175D01*
X166943080Y-24138359D01*
X166709731Y-24312412D01*
X166514822Y-24528645D01*
X166440000Y-24654255D01*
X166365178Y-24528645D01*
X166170269Y-24312412D01*
X165936920Y-24138359D01*
X165674099Y-24013175D01*
X165526890Y-23968524D01*
X165297000Y-24089845D01*
X165043000Y-24089845D01*
X164813110Y-23968524D01*
X164665901Y-24013175D01*
X164403080Y-24138359D01*
X164169731Y-24312412D01*
X163974822Y-24528645D01*
X163905195Y-24645534D01*
X163783475Y-24463368D01*
X163576632Y-24256525D01*
X163333411Y-24094010D01*
X163063158Y-23982068D01*
X162776260Y-23925000D01*
X162483740Y-23925000D01*
X162196842Y-23982068D01*
X161926589Y-24094010D01*
X161683368Y-24256525D01*
X161476525Y-24463368D01*
X161360000Y-24637760D01*
X161243475Y-24463368D01*
X161036632Y-24256525D01*
X160793411Y-24094010D01*
X160523158Y-23982068D01*
X160236260Y-23925000D01*
X159943740Y-23925000D01*
X159656842Y-23982068D01*
X159386589Y-24094010D01*
X159143368Y-24256525D01*
X158936525Y-24463368D01*
X158820000Y-24637760D01*
X158703475Y-24463368D01*
X158496632Y-24256525D01*
X158253411Y-24094010D01*
X157983158Y-23982068D01*
X157696260Y-23925000D01*
X157403740Y-23925000D01*
X157116842Y-23982068D01*
X156846589Y-24094010D01*
X156603368Y-24256525D01*
X156396525Y-24463368D01*
X156280000Y-24637760D01*
X156163475Y-24463368D01*
X155956632Y-24256525D01*
X155713411Y-24094010D01*
X155443158Y-23982068D01*
X155156260Y-23925000D01*
X154863740Y-23925000D01*
X154576842Y-23982068D01*
X154306589Y-24094010D01*
X154063368Y-24256525D01*
X153856525Y-24463368D01*
X153740000Y-24637760D01*
X153623475Y-24463368D01*
X153416632Y-24256525D01*
X153173411Y-24094010D01*
X152903158Y-23982068D01*
X152616260Y-23925000D01*
X152323740Y-23925000D01*
X152036842Y-23982068D01*
X151766589Y-24094010D01*
X151523368Y-24256525D01*
X151316525Y-24463368D01*
X151200000Y-24637760D01*
X151083475Y-24463368D01*
X150876632Y-24256525D01*
X150633411Y-24094010D01*
X150363158Y-23982068D01*
X150076260Y-23925000D01*
X149783740Y-23925000D01*
X149496842Y-23982068D01*
X149226589Y-24094010D01*
X148983368Y-24256525D01*
X148776525Y-24463368D01*
X148660000Y-24637760D01*
X148543475Y-24463368D01*
X148336632Y-24256525D01*
X148093411Y-24094010D01*
X147823158Y-23982068D01*
X147536260Y-23925000D01*
X147243740Y-23925000D01*
X146956842Y-23982068D01*
X146686589Y-24094010D01*
X146443368Y-24256525D01*
X146236525Y-24463368D01*
X146120000Y-24637760D01*
X146003475Y-24463368D01*
X145796632Y-24256525D01*
X145553411Y-24094010D01*
X145283158Y-23982068D01*
X144996260Y-23925000D01*
X144703740Y-23925000D01*
X144416842Y-23982068D01*
X144146589Y-24094010D01*
X143903368Y-24256525D01*
X143696525Y-24463368D01*
X143580000Y-24637760D01*
X143463475Y-24463368D01*
X143256632Y-24256525D01*
X143013411Y-24094010D01*
X142743158Y-23982068D01*
X142456260Y-23925000D01*
X142163740Y-23925000D01*
X141876842Y-23982068D01*
X141606589Y-24094010D01*
X141363368Y-24256525D01*
X141156525Y-24463368D01*
X141040000Y-24637760D01*
X140923475Y-24463368D01*
X140716632Y-24256525D01*
X140473411Y-24094010D01*
X140203158Y-23982068D01*
X139916260Y-23925000D01*
X139623740Y-23925000D01*
X139336842Y-23982068D01*
X139066589Y-24094010D01*
X138823368Y-24256525D01*
X138616525Y-24463368D01*
X138500000Y-24637760D01*
X138383475Y-24463368D01*
X138176632Y-24256525D01*
X137933411Y-24094010D01*
X137663158Y-23982068D01*
X137376260Y-23925000D01*
X137083740Y-23925000D01*
X136796842Y-23982068D01*
X136526589Y-24094010D01*
X136283368Y-24256525D01*
X136076525Y-24463368D01*
X135960000Y-24637760D01*
X135843475Y-24463368D01*
X135636632Y-24256525D01*
X135393411Y-24094010D01*
X135123158Y-23982068D01*
X134836260Y-23925000D01*
X134543740Y-23925000D01*
X134256842Y-23982068D01*
X133986589Y-24094010D01*
X133743368Y-24256525D01*
X133536525Y-24463368D01*
X133420000Y-24637760D01*
X133303475Y-24463368D01*
X133096632Y-24256525D01*
X132853411Y-24094010D01*
X132583158Y-23982068D01*
X132296260Y-23925000D01*
X132003740Y-23925000D01*
X131716842Y-23982068D01*
X131446589Y-24094010D01*
X131203368Y-24256525D01*
X130996525Y-24463368D01*
X130880000Y-24637760D01*
X130763475Y-24463368D01*
X130556632Y-24256525D01*
X130313411Y-24094010D01*
X130043158Y-23982068D01*
X129756260Y-23925000D01*
X129463740Y-23925000D01*
X129176842Y-23982068D01*
X128906589Y-24094010D01*
X128663368Y-24256525D01*
X128456525Y-24463368D01*
X128340000Y-24637760D01*
X128223475Y-24463368D01*
X128016632Y-24256525D01*
X127773411Y-24094010D01*
X127503158Y-23982068D01*
X127216260Y-23925000D01*
X126923740Y-23925000D01*
X126636842Y-23982068D01*
X126366589Y-24094010D01*
X126123368Y-24256525D01*
X125916525Y-24463368D01*
X125800000Y-24637760D01*
X125683475Y-24463368D01*
X125476632Y-24256525D01*
X125233411Y-24094010D01*
X124963158Y-23982068D01*
X124676260Y-23925000D01*
X124383740Y-23925000D01*
X124096842Y-23982068D01*
X123826589Y-24094010D01*
X123583368Y-24256525D01*
X123376525Y-24463368D01*
X123260000Y-24637760D01*
X123143475Y-24463368D01*
X122936632Y-24256525D01*
X122693411Y-24094010D01*
X122423158Y-23982068D01*
X122136260Y-23925000D01*
X121843740Y-23925000D01*
X121556842Y-23982068D01*
X121286589Y-24094010D01*
X121043368Y-24256525D01*
X120836525Y-24463368D01*
X120720000Y-24637760D01*
X120603475Y-24463368D01*
X120396632Y-24256525D01*
X120153411Y-24094010D01*
X119883158Y-23982068D01*
X119596260Y-23925000D01*
X119303740Y-23925000D01*
X119016842Y-23982068D01*
X118746589Y-24094010D01*
X118503368Y-24256525D01*
X118296525Y-24463368D01*
X118180000Y-24637760D01*
X118063475Y-24463368D01*
X117856632Y-24256525D01*
X117613411Y-24094010D01*
X117343158Y-23982068D01*
X117056260Y-23925000D01*
X116763740Y-23925000D01*
X116476842Y-23982068D01*
X116206589Y-24094010D01*
X115963368Y-24256525D01*
X115756525Y-24463368D01*
X115640000Y-24637760D01*
X115523475Y-24463368D01*
X115316632Y-24256525D01*
X115073411Y-24094010D01*
X114803158Y-23982068D01*
X114516260Y-23925000D01*
X114223740Y-23925000D01*
X113936842Y-23982068D01*
X113666589Y-24094010D01*
X113423368Y-24256525D01*
X113216525Y-24463368D01*
X113100000Y-24637760D01*
X112983475Y-24463368D01*
X112776632Y-24256525D01*
X112533411Y-24094010D01*
X112263158Y-23982068D01*
X111976260Y-23925000D01*
X111683740Y-23925000D01*
X111396842Y-23982068D01*
X111126589Y-24094010D01*
X110883368Y-24256525D01*
X110676525Y-24463368D01*
X110554805Y-24645534D01*
X110485178Y-24528645D01*
X110290269Y-24312412D01*
X110056920Y-24138359D01*
X109794099Y-24013175D01*
X109646890Y-23968524D01*
X109417000Y-24089845D01*
X109417000Y-25283000D01*
X109437000Y-25283000D01*
X109437000Y-25537000D01*
X109417000Y-25537000D01*
X109417000Y-26730155D01*
X109646890Y-26851476D01*
X109794099Y-26806825D01*
X110056920Y-26681641D01*
X110290269Y-26507588D01*
X110485178Y-26291355D01*
X110554805Y-26174466D01*
X110676525Y-26356632D01*
X110883368Y-26563475D01*
X111126589Y-26725990D01*
X111396842Y-26837932D01*
X111683740Y-26895000D01*
X111976260Y-26895000D01*
X112263158Y-26837932D01*
X112533411Y-26725990D01*
X112776632Y-26563475D01*
X112983475Y-26356632D01*
X113100000Y-26182240D01*
X113216525Y-26356632D01*
X113423368Y-26563475D01*
X113666589Y-26725990D01*
X113936842Y-26837932D01*
X114223740Y-26895000D01*
X114516260Y-26895000D01*
X114803158Y-26837932D01*
X115073411Y-26725990D01*
X115316632Y-26563475D01*
X115523475Y-26356632D01*
X115640000Y-26182240D01*
X115756525Y-26356632D01*
X115963368Y-26563475D01*
X116206589Y-26725990D01*
X116476842Y-26837932D01*
X116763740Y-26895000D01*
X117056260Y-26895000D01*
X117343158Y-26837932D01*
X117613411Y-26725990D01*
X117856632Y-26563475D01*
X118063475Y-26356632D01*
X118180000Y-26182240D01*
X118296525Y-26356632D01*
X118503368Y-26563475D01*
X118746589Y-26725990D01*
X119016842Y-26837932D01*
X119303740Y-26895000D01*
X119596260Y-26895000D01*
X119883158Y-26837932D01*
X120153411Y-26725990D01*
X120396632Y-26563475D01*
X120603475Y-26356632D01*
X120720000Y-26182240D01*
X120836525Y-26356632D01*
X121043368Y-26563475D01*
X121286589Y-26725990D01*
X121556842Y-26837932D01*
X121843740Y-26895000D01*
X122136260Y-26895000D01*
X122423158Y-26837932D01*
X122693411Y-26725990D01*
X122936632Y-26563475D01*
X123143475Y-26356632D01*
X123260000Y-26182240D01*
X123376525Y-26356632D01*
X123583368Y-26563475D01*
X123826589Y-26725990D01*
X124096842Y-26837932D01*
X124383740Y-26895000D01*
X124676260Y-26895000D01*
X124963158Y-26837932D01*
X125233411Y-26725990D01*
X125476632Y-26563475D01*
X125683475Y-26356632D01*
X125800000Y-26182240D01*
X125916525Y-26356632D01*
X126123368Y-26563475D01*
X126366589Y-26725990D01*
X126636842Y-26837932D01*
X126923740Y-26895000D01*
X127216260Y-26895000D01*
X127503158Y-26837932D01*
X127773411Y-26725990D01*
X128016632Y-26563475D01*
X128223475Y-26356632D01*
X128340000Y-26182240D01*
X128456525Y-26356632D01*
X128663368Y-26563475D01*
X128906589Y-26725990D01*
X129176842Y-26837932D01*
X129463740Y-26895000D01*
X129756260Y-26895000D01*
X130043158Y-26837932D01*
X130313411Y-26725990D01*
X130556632Y-26563475D01*
X130763475Y-26356632D01*
X130880000Y-26182240D01*
X130996525Y-26356632D01*
X131203368Y-26563475D01*
X131446589Y-26725990D01*
X131716842Y-26837932D01*
X132003740Y-26895000D01*
X132296260Y-26895000D01*
X132583158Y-26837932D01*
X132853411Y-26725990D01*
X133096632Y-26563475D01*
X133303475Y-26356632D01*
X133420000Y-26182240D01*
X133536525Y-26356632D01*
X133743368Y-26563475D01*
X133986589Y-26725990D01*
X134256842Y-26837932D01*
X134543740Y-26895000D01*
X134836260Y-26895000D01*
X135123158Y-26837932D01*
X135393411Y-26725990D01*
X135636632Y-26563475D01*
X135843475Y-26356632D01*
X135960000Y-26182240D01*
X136076525Y-26356632D01*
X136283368Y-26563475D01*
X136526589Y-26725990D01*
X136796842Y-26837932D01*
X137083740Y-26895000D01*
X137376260Y-26895000D01*
X137663158Y-26837932D01*
X137933411Y-26725990D01*
X138176632Y-26563475D01*
X138383475Y-26356632D01*
X138500000Y-26182240D01*
X138616525Y-26356632D01*
X138823368Y-26563475D01*
X139066589Y-26725990D01*
X139336842Y-26837932D01*
X139623740Y-26895000D01*
X139916260Y-26895000D01*
X140203158Y-26837932D01*
X140473411Y-26725990D01*
X140716632Y-26563475D01*
X140923475Y-26356632D01*
X141040000Y-26182240D01*
X141156525Y-26356632D01*
X141363368Y-26563475D01*
X141606589Y-26725990D01*
X141876842Y-26837932D01*
X142163740Y-26895000D01*
X142456260Y-26895000D01*
X142743158Y-26837932D01*
X143013411Y-26725990D01*
X143256632Y-26563475D01*
X143463475Y-26356632D01*
X143580000Y-26182240D01*
X143696525Y-26356632D01*
X143903368Y-26563475D01*
X144146589Y-26725990D01*
X144416842Y-26837932D01*
X144703740Y-26895000D01*
X144996260Y-26895000D01*
X145283158Y-26837932D01*
X145553411Y-26725990D01*
X145796632Y-26563475D01*
X146003475Y-26356632D01*
X146120000Y-26182240D01*
X146236525Y-26356632D01*
X146443368Y-26563475D01*
X146686589Y-26725990D01*
X146956842Y-26837932D01*
X147243740Y-26895000D01*
X147536260Y-26895000D01*
X147823158Y-26837932D01*
X148093411Y-26725990D01*
X148336632Y-26563475D01*
X148543475Y-26356632D01*
X148660000Y-26182240D01*
X148776525Y-26356632D01*
X148983368Y-26563475D01*
X149226589Y-26725990D01*
X149496842Y-26837932D01*
X149783740Y-26895000D01*
X150076260Y-26895000D01*
X150363158Y-26837932D01*
X150633411Y-26725990D01*
X150876632Y-26563475D01*
X151083475Y-26356632D01*
X151200000Y-26182240D01*
X151316525Y-26356632D01*
X151523368Y-26563475D01*
X151766589Y-26725990D01*
X152036842Y-26837932D01*
X152323740Y-26895000D01*
X152616260Y-26895000D01*
X152903158Y-26837932D01*
X153173411Y-26725990D01*
X153416632Y-26563475D01*
X153623475Y-26356632D01*
X153740000Y-26182240D01*
X153856525Y-26356632D01*
X154063368Y-26563475D01*
X154306589Y-26725990D01*
X154576842Y-26837932D01*
X154863740Y-26895000D01*
X155156260Y-26895000D01*
X155443158Y-26837932D01*
X155713411Y-26725990D01*
X155956632Y-26563475D01*
X156163475Y-26356632D01*
X156280000Y-26182240D01*
X156396525Y-26356632D01*
X156603368Y-26563475D01*
X156846589Y-26725990D01*
X157116842Y-26837932D01*
X157403740Y-26895000D01*
X157696260Y-26895000D01*
X157983158Y-26837932D01*
X158253411Y-26725990D01*
X158496632Y-26563475D01*
X158703475Y-26356632D01*
X158820000Y-26182240D01*
X158936525Y-26356632D01*
X159143368Y-26563475D01*
X159386589Y-26725990D01*
X159656842Y-26837932D01*
X159943740Y-26895000D01*
X160236260Y-26895000D01*
X160308961Y-26880539D01*
X168125002Y-34696581D01*
X168125002Y-35406150D01*
X168066890Y-35388524D01*
X167837000Y-35509845D01*
X167837000Y-36703000D01*
X167857000Y-36703000D01*
X167857000Y-36957000D01*
X167837000Y-36957000D01*
X167837000Y-38150155D01*
X168066890Y-38271476D01*
X168125002Y-38253850D01*
X168125001Y-40486150D01*
X168066890Y-40468524D01*
X167837000Y-40589845D01*
X167837000Y-41783000D01*
X167857000Y-41783000D01*
X167857000Y-42037000D01*
X167837000Y-42037000D01*
X167837000Y-42057000D01*
X167583000Y-42057000D01*
X167583000Y-42037000D01*
X165297000Y-42037000D01*
X165297000Y-42057000D01*
X165043000Y-42057000D01*
X165043000Y-42037000D01*
X165023000Y-42037000D01*
X165023000Y-41783000D01*
X165043000Y-41783000D01*
X165043000Y-40589845D01*
X165297000Y-40589845D01*
X165297000Y-41783000D01*
X167583000Y-41783000D01*
X167583000Y-40589845D01*
X167353110Y-40468524D01*
X167205901Y-40513175D01*
X166943080Y-40638359D01*
X166709731Y-40812412D01*
X166514822Y-41028645D01*
X166440000Y-41154255D01*
X166365178Y-41028645D01*
X166170269Y-40812412D01*
X165936920Y-40638359D01*
X165674099Y-40513175D01*
X165526890Y-40468524D01*
X165297000Y-40589845D01*
X165043000Y-40589845D01*
X164813110Y-40468524D01*
X164665901Y-40513175D01*
X164403080Y-40638359D01*
X164169731Y-40812412D01*
X163974822Y-41028645D01*
X163905195Y-41145534D01*
X163783475Y-40963368D01*
X163576632Y-40756525D01*
X163333411Y-40594010D01*
X163063158Y-40482068D01*
X162776260Y-40425000D01*
X162483740Y-40425000D01*
X162196842Y-40482068D01*
X161926589Y-40594010D01*
X161683368Y-40756525D01*
X161476525Y-40963368D01*
X161360000Y-41137760D01*
X161243475Y-40963368D01*
X161036632Y-40756525D01*
X160793411Y-40594010D01*
X160523158Y-40482068D01*
X160236260Y-40425000D01*
X159943740Y-40425000D01*
X159656842Y-40482068D01*
X159386589Y-40594010D01*
X159143368Y-40756525D01*
X158936525Y-40963368D01*
X158820000Y-41137760D01*
X158703475Y-40963368D01*
X158496632Y-40756525D01*
X158253411Y-40594010D01*
X157983158Y-40482068D01*
X157696260Y-40425000D01*
X157403740Y-40425000D01*
X157116842Y-40482068D01*
X156846589Y-40594010D01*
X156603368Y-40756525D01*
X156396525Y-40963368D01*
X156280000Y-41137760D01*
X156163475Y-40963368D01*
X155956632Y-40756525D01*
X155713411Y-40594010D01*
X155443158Y-40482068D01*
X155156260Y-40425000D01*
X154863740Y-40425000D01*
X154576842Y-40482068D01*
X154306589Y-40594010D01*
X154063368Y-40756525D01*
X153856525Y-40963368D01*
X153740000Y-41137760D01*
X153623475Y-40963368D01*
X153416632Y-40756525D01*
X153173411Y-40594010D01*
X152903158Y-40482068D01*
X152616260Y-40425000D01*
X152323740Y-40425000D01*
X152036842Y-40482068D01*
X151766589Y-40594010D01*
X151523368Y-40756525D01*
X151316525Y-40963368D01*
X151200000Y-41137760D01*
X151083475Y-40963368D01*
X150876632Y-40756525D01*
X150633411Y-40594010D01*
X150363158Y-40482068D01*
X150076260Y-40425000D01*
X149783740Y-40425000D01*
X149496842Y-40482068D01*
X149226589Y-40594010D01*
X148983368Y-40756525D01*
X148776525Y-40963368D01*
X148660000Y-41137760D01*
X148543475Y-40963368D01*
X148336632Y-40756525D01*
X148093411Y-40594010D01*
X147823158Y-40482068D01*
X147536260Y-40425000D01*
X147243740Y-40425000D01*
X146956842Y-40482068D01*
X146686589Y-40594010D01*
X146443368Y-40756525D01*
X146236525Y-40963368D01*
X146120000Y-41137760D01*
X146003475Y-40963368D01*
X145796632Y-40756525D01*
X145553411Y-40594010D01*
X145283158Y-40482068D01*
X144996260Y-40425000D01*
X144703740Y-40425000D01*
X144416842Y-40482068D01*
X144146589Y-40594010D01*
X143903368Y-40756525D01*
X143696525Y-40963368D01*
X143580000Y-41137760D01*
X143463475Y-40963368D01*
X143256632Y-40756525D01*
X143013411Y-40594010D01*
X142743158Y-40482068D01*
X142456260Y-40425000D01*
X142163740Y-40425000D01*
X141876842Y-40482068D01*
X141606589Y-40594010D01*
X141363368Y-40756525D01*
X141156525Y-40963368D01*
X141040000Y-41137760D01*
X140923475Y-40963368D01*
X140716632Y-40756525D01*
X140473411Y-40594010D01*
X140203158Y-40482068D01*
X139916260Y-40425000D01*
X139623740Y-40425000D01*
X139336842Y-40482068D01*
X139066589Y-40594010D01*
X138823368Y-40756525D01*
X138616525Y-40963368D01*
X138500000Y-41137760D01*
X138383475Y-40963368D01*
X138176632Y-40756525D01*
X137933411Y-40594010D01*
X137663158Y-40482068D01*
X137376260Y-40425000D01*
X137083740Y-40425000D01*
X136796842Y-40482068D01*
X136526589Y-40594010D01*
X136283368Y-40756525D01*
X136076525Y-40963368D01*
X135960000Y-41137760D01*
X135843475Y-40963368D01*
X135636632Y-40756525D01*
X135393411Y-40594010D01*
X135123158Y-40482068D01*
X134836260Y-40425000D01*
X134543740Y-40425000D01*
X134256842Y-40482068D01*
X133986589Y-40594010D01*
X133743368Y-40756525D01*
X133536525Y-40963368D01*
X133420000Y-41137760D01*
X133303475Y-40963368D01*
X133096632Y-40756525D01*
X132853411Y-40594010D01*
X132583158Y-40482068D01*
X132296260Y-40425000D01*
X132003740Y-40425000D01*
X131716842Y-40482068D01*
X131446589Y-40594010D01*
X131203368Y-40756525D01*
X130996525Y-40963368D01*
X130880000Y-41137760D01*
X130763475Y-40963368D01*
X130556632Y-40756525D01*
X130313411Y-40594010D01*
X130043158Y-40482068D01*
X129756260Y-40425000D01*
X129463740Y-40425000D01*
X129176842Y-40482068D01*
X128906589Y-40594010D01*
X128663368Y-40756525D01*
X128456525Y-40963368D01*
X128340000Y-41137760D01*
X128223475Y-40963368D01*
X128016632Y-40756525D01*
X127773411Y-40594010D01*
X127503158Y-40482068D01*
X127216260Y-40425000D01*
X126923740Y-40425000D01*
X126636842Y-40482068D01*
X126366589Y-40594010D01*
X126123368Y-40756525D01*
X125916525Y-40963368D01*
X125800000Y-41137760D01*
X125683475Y-40963368D01*
X125476632Y-40756525D01*
X125233411Y-40594010D01*
X124963158Y-40482068D01*
X124676260Y-40425000D01*
X124383740Y-40425000D01*
X124096842Y-40482068D01*
X123826589Y-40594010D01*
X123583368Y-40756525D01*
X123376525Y-40963368D01*
X123260000Y-41137760D01*
X123143475Y-40963368D01*
X122936632Y-40756525D01*
X122693411Y-40594010D01*
X122423158Y-40482068D01*
X122136260Y-40425000D01*
X121843740Y-40425000D01*
X121556842Y-40482068D01*
X121286589Y-40594010D01*
X121043368Y-40756525D01*
X120836525Y-40963368D01*
X120720000Y-41137760D01*
X120603475Y-40963368D01*
X120396632Y-40756525D01*
X120153411Y-40594010D01*
X119883158Y-40482068D01*
X119596260Y-40425000D01*
X119303740Y-40425000D01*
X119016842Y-40482068D01*
X118746589Y-40594010D01*
X118503368Y-40756525D01*
X118296525Y-40963368D01*
X118180000Y-41137760D01*
X118063475Y-40963368D01*
X117856632Y-40756525D01*
X117613411Y-40594010D01*
X117343158Y-40482068D01*
X117056260Y-40425000D01*
X116763740Y-40425000D01*
X116476842Y-40482068D01*
X116206589Y-40594010D01*
X115963368Y-40756525D01*
X115756525Y-40963368D01*
X115640000Y-41137760D01*
X115523475Y-40963368D01*
X115316632Y-40756525D01*
X115073411Y-40594010D01*
X114803158Y-40482068D01*
X114516260Y-40425000D01*
X114223740Y-40425000D01*
X113936842Y-40482068D01*
X113666589Y-40594010D01*
X113423368Y-40756525D01*
X113216525Y-40963368D01*
X113100000Y-41137760D01*
X112983475Y-40963368D01*
X112776632Y-40756525D01*
X112533411Y-40594010D01*
X112263158Y-40482068D01*
X111976260Y-40425000D01*
X111683740Y-40425000D01*
X111396842Y-40482068D01*
X111126589Y-40594010D01*
X110883368Y-40756525D01*
X110676525Y-40963368D01*
X110554805Y-41145534D01*
X110485178Y-41028645D01*
X110290269Y-40812412D01*
X110056920Y-40638359D01*
X109794099Y-40513175D01*
X109646890Y-40468524D01*
X109417000Y-40589845D01*
X109417000Y-41783000D01*
X109437000Y-41783000D01*
X109437000Y-42037000D01*
X109417000Y-42037000D01*
X109417000Y-43230155D01*
X109646890Y-43351476D01*
X109794099Y-43306825D01*
X110056920Y-43181641D01*
X110290269Y-43007588D01*
X110485178Y-42791355D01*
X110554805Y-42674466D01*
X110676525Y-42856632D01*
X110883368Y-43063475D01*
X111126589Y-43225990D01*
X111396842Y-43337932D01*
X111683740Y-43395000D01*
X111976260Y-43395000D01*
X112048961Y-43380539D01*
X113678422Y-45010000D01*
X96043618Y-45010000D01*
X95252807Y-44939422D01*
X94517611Y-44738295D01*
X93829645Y-44410152D01*
X93210672Y-43965374D01*
X92680239Y-43418012D01*
X92255117Y-42785362D01*
X92027524Y-42266891D01*
X105308519Y-42266891D01*
X105405843Y-42541252D01*
X105554822Y-42791355D01*
X105749731Y-43007588D01*
X105983080Y-43181641D01*
X106245901Y-43306825D01*
X106393110Y-43351476D01*
X106623000Y-43230155D01*
X106623000Y-42037000D01*
X106877000Y-42037000D01*
X106877000Y-43230155D01*
X107106890Y-43351476D01*
X107254099Y-43306825D01*
X107516920Y-43181641D01*
X107750269Y-43007588D01*
X107945178Y-42791355D01*
X108020000Y-42665745D01*
X108094822Y-42791355D01*
X108289731Y-43007588D01*
X108523080Y-43181641D01*
X108785901Y-43306825D01*
X108933110Y-43351476D01*
X109163000Y-43230155D01*
X109163000Y-42037000D01*
X106877000Y-42037000D01*
X106623000Y-42037000D01*
X105429186Y-42037000D01*
X105308519Y-42266891D01*
X92027524Y-42266891D01*
X91948749Y-42087439D01*
X91820468Y-41553109D01*
X105308519Y-41553109D01*
X105429186Y-41783000D01*
X106623000Y-41783000D01*
X106623000Y-40589845D01*
X106877000Y-40589845D01*
X106877000Y-41783000D01*
X109163000Y-41783000D01*
X109163000Y-40589845D01*
X108933110Y-40468524D01*
X108785901Y-40513175D01*
X108523080Y-40638359D01*
X108289731Y-40812412D01*
X108094822Y-41028645D01*
X108020000Y-41154255D01*
X107945178Y-41028645D01*
X107750269Y-40812412D01*
X107516920Y-40638359D01*
X107254099Y-40513175D01*
X107106890Y-40468524D01*
X106877000Y-40589845D01*
X106623000Y-40589845D01*
X106393110Y-40468524D01*
X106245901Y-40513175D01*
X105983080Y-40638359D01*
X105749731Y-40812412D01*
X105554822Y-41028645D01*
X105405843Y-41278748D01*
X105308519Y-41553109D01*
X91820468Y-41553109D01*
X91769501Y-41340819D01*
X91722000Y-40693970D01*
X91722000Y-37680000D01*
X105261928Y-37680000D01*
X105274188Y-37804482D01*
X105310498Y-37924180D01*
X105369463Y-38034494D01*
X105448815Y-38131185D01*
X105545506Y-38210537D01*
X105655820Y-38269502D01*
X105775518Y-38305812D01*
X105900000Y-38318072D01*
X106464250Y-38315000D01*
X106623000Y-38156250D01*
X106623000Y-36957000D01*
X106877000Y-36957000D01*
X106877000Y-38156250D01*
X107035750Y-38315000D01*
X107600000Y-38318072D01*
X107724482Y-38305812D01*
X107844180Y-38269502D01*
X107954494Y-38210537D01*
X108051185Y-38131185D01*
X108130537Y-38034494D01*
X108189502Y-37924180D01*
X108213966Y-37843534D01*
X108289731Y-37927588D01*
X108523080Y-38101641D01*
X108785901Y-38226825D01*
X108933110Y-38271476D01*
X109163000Y-38150155D01*
X109163000Y-36957000D01*
X106877000Y-36957000D01*
X106623000Y-36957000D01*
X105423750Y-36957000D01*
X105265000Y-37115750D01*
X105261928Y-37680000D01*
X91722000Y-37680000D01*
X91722000Y-35980000D01*
X105261928Y-35980000D01*
X105265000Y-36544250D01*
X105423750Y-36703000D01*
X106623000Y-36703000D01*
X106623000Y-35503750D01*
X106877000Y-35503750D01*
X106877000Y-36703000D01*
X109163000Y-36703000D01*
X109163000Y-35509845D01*
X109417000Y-35509845D01*
X109417000Y-36703000D01*
X109437000Y-36703000D01*
X109437000Y-36957000D01*
X109417000Y-36957000D01*
X109417000Y-38150155D01*
X109646890Y-38271476D01*
X109794099Y-38226825D01*
X110056920Y-38101641D01*
X110290269Y-37927588D01*
X110485178Y-37711355D01*
X110554805Y-37594466D01*
X110676525Y-37776632D01*
X110883368Y-37983475D01*
X111126589Y-38145990D01*
X111396842Y-38257932D01*
X111683740Y-38315000D01*
X111976260Y-38315000D01*
X112263158Y-38257932D01*
X112533411Y-38145990D01*
X112776632Y-37983475D01*
X112983475Y-37776632D01*
X113100000Y-37602240D01*
X113216525Y-37776632D01*
X113423368Y-37983475D01*
X113666589Y-38145990D01*
X113936842Y-38257932D01*
X114223740Y-38315000D01*
X114516260Y-38315000D01*
X114803158Y-38257932D01*
X115073411Y-38145990D01*
X115316632Y-37983475D01*
X115523475Y-37776632D01*
X115640000Y-37602240D01*
X115756525Y-37776632D01*
X115963368Y-37983475D01*
X116206589Y-38145990D01*
X116476842Y-38257932D01*
X116763740Y-38315000D01*
X117056260Y-38315000D01*
X117343158Y-38257932D01*
X117613411Y-38145990D01*
X117856632Y-37983475D01*
X118063475Y-37776632D01*
X118180000Y-37602240D01*
X118296525Y-37776632D01*
X118503368Y-37983475D01*
X118746589Y-38145990D01*
X119016842Y-38257932D01*
X119303740Y-38315000D01*
X119596260Y-38315000D01*
X119883158Y-38257932D01*
X120153411Y-38145990D01*
X120396632Y-37983475D01*
X120603475Y-37776632D01*
X120720000Y-37602240D01*
X120836525Y-37776632D01*
X121043368Y-37983475D01*
X121286589Y-38145990D01*
X121556842Y-38257932D01*
X121843740Y-38315000D01*
X122136260Y-38315000D01*
X122423158Y-38257932D01*
X122693411Y-38145990D01*
X122936632Y-37983475D01*
X123143475Y-37776632D01*
X123260000Y-37602240D01*
X123376525Y-37776632D01*
X123583368Y-37983475D01*
X123826589Y-38145990D01*
X124096842Y-38257932D01*
X124383740Y-38315000D01*
X124676260Y-38315000D01*
X124963158Y-38257932D01*
X125233411Y-38145990D01*
X125476632Y-37983475D01*
X125683475Y-37776632D01*
X125800000Y-37602240D01*
X125916525Y-37776632D01*
X126123368Y-37983475D01*
X126366589Y-38145990D01*
X126636842Y-38257932D01*
X126923740Y-38315000D01*
X127216260Y-38315000D01*
X127503158Y-38257932D01*
X127773411Y-38145990D01*
X128016632Y-37983475D01*
X128223475Y-37776632D01*
X128340000Y-37602240D01*
X128456525Y-37776632D01*
X128663368Y-37983475D01*
X128906589Y-38145990D01*
X129176842Y-38257932D01*
X129463740Y-38315000D01*
X129756260Y-38315000D01*
X130043158Y-38257932D01*
X130313411Y-38145990D01*
X130556632Y-37983475D01*
X130763475Y-37776632D01*
X130880000Y-37602240D01*
X130996525Y-37776632D01*
X131203368Y-37983475D01*
X131446589Y-38145990D01*
X131716842Y-38257932D01*
X132003740Y-38315000D01*
X132296260Y-38315000D01*
X132583158Y-38257932D01*
X132853411Y-38145990D01*
X133096632Y-37983475D01*
X133303475Y-37776632D01*
X133420000Y-37602240D01*
X133536525Y-37776632D01*
X133743368Y-37983475D01*
X133986589Y-38145990D01*
X134256842Y-38257932D01*
X134543740Y-38315000D01*
X134836260Y-38315000D01*
X135123158Y-38257932D01*
X135393411Y-38145990D01*
X135636632Y-37983475D01*
X135843475Y-37776632D01*
X135960000Y-37602240D01*
X136076525Y-37776632D01*
X136283368Y-37983475D01*
X136526589Y-38145990D01*
X136796842Y-38257932D01*
X137083740Y-38315000D01*
X137376260Y-38315000D01*
X137663158Y-38257932D01*
X137933411Y-38145990D01*
X138176632Y-37983475D01*
X138383475Y-37776632D01*
X138500000Y-37602240D01*
X138616525Y-37776632D01*
X138823368Y-37983475D01*
X139066589Y-38145990D01*
X139336842Y-38257932D01*
X139623740Y-38315000D01*
X139916260Y-38315000D01*
X140203158Y-38257932D01*
X140473411Y-38145990D01*
X140716632Y-37983475D01*
X140923475Y-37776632D01*
X141040000Y-37602240D01*
X141156525Y-37776632D01*
X141363368Y-37983475D01*
X141606589Y-38145990D01*
X141876842Y-38257932D01*
X142163740Y-38315000D01*
X142456260Y-38315000D01*
X142743158Y-38257932D01*
X143013411Y-38145990D01*
X143256632Y-37983475D01*
X143463475Y-37776632D01*
X143580000Y-37602240D01*
X143696525Y-37776632D01*
X143903368Y-37983475D01*
X144146589Y-38145990D01*
X144416842Y-38257932D01*
X144703740Y-38315000D01*
X144996260Y-38315000D01*
X145283158Y-38257932D01*
X145553411Y-38145990D01*
X145796632Y-37983475D01*
X146003475Y-37776632D01*
X146120000Y-37602240D01*
X146236525Y-37776632D01*
X146443368Y-37983475D01*
X146686589Y-38145990D01*
X146956842Y-38257932D01*
X147243740Y-38315000D01*
X147536260Y-38315000D01*
X147823158Y-38257932D01*
X148093411Y-38145990D01*
X148336632Y-37983475D01*
X148543475Y-37776632D01*
X148660000Y-37602240D01*
X148776525Y-37776632D01*
X148983368Y-37983475D01*
X149226589Y-38145990D01*
X149496842Y-38257932D01*
X149783740Y-38315000D01*
X150076260Y-38315000D01*
X150363158Y-38257932D01*
X150633411Y-38145990D01*
X150876632Y-37983475D01*
X151083475Y-37776632D01*
X151200000Y-37602240D01*
X151316525Y-37776632D01*
X151523368Y-37983475D01*
X151766589Y-38145990D01*
X152036842Y-38257932D01*
X152323740Y-38315000D01*
X152616260Y-38315000D01*
X152903158Y-38257932D01*
X153173411Y-38145990D01*
X153416632Y-37983475D01*
X153623475Y-37776632D01*
X153740000Y-37602240D01*
X153856525Y-37776632D01*
X154063368Y-37983475D01*
X154306589Y-38145990D01*
X154576842Y-38257932D01*
X154863740Y-38315000D01*
X155156260Y-38315000D01*
X155443158Y-38257932D01*
X155713411Y-38145990D01*
X155956632Y-37983475D01*
X156163475Y-37776632D01*
X156280000Y-37602240D01*
X156396525Y-37776632D01*
X156603368Y-37983475D01*
X156846589Y-38145990D01*
X157116842Y-38257932D01*
X157403740Y-38315000D01*
X157696260Y-38315000D01*
X157983158Y-38257932D01*
X158253411Y-38145990D01*
X158496632Y-37983475D01*
X158703475Y-37776632D01*
X158820000Y-37602240D01*
X158936525Y-37776632D01*
X159143368Y-37983475D01*
X159386589Y-38145990D01*
X159656842Y-38257932D01*
X159943740Y-38315000D01*
X160236260Y-38315000D01*
X160523158Y-38257932D01*
X160793411Y-38145990D01*
X161036632Y-37983475D01*
X161243475Y-37776632D01*
X161360000Y-37602240D01*
X161476525Y-37776632D01*
X161683368Y-37983475D01*
X161926589Y-38145990D01*
X162196842Y-38257932D01*
X162483740Y-38315000D01*
X162776260Y-38315000D01*
X163063158Y-38257932D01*
X163333411Y-38145990D01*
X163576632Y-37983475D01*
X163783475Y-37776632D01*
X163905195Y-37594466D01*
X163974822Y-37711355D01*
X164169731Y-37927588D01*
X164403080Y-38101641D01*
X164665901Y-38226825D01*
X164813110Y-38271476D01*
X165043000Y-38150155D01*
X165043000Y-36957000D01*
X165297000Y-36957000D01*
X165297000Y-38150155D01*
X165526890Y-38271476D01*
X165674099Y-38226825D01*
X165936920Y-38101641D01*
X166170269Y-37927588D01*
X166365178Y-37711355D01*
X166440000Y-37585745D01*
X166514822Y-37711355D01*
X166709731Y-37927588D01*
X166943080Y-38101641D01*
X167205901Y-38226825D01*
X167353110Y-38271476D01*
X167583000Y-38150155D01*
X167583000Y-36957000D01*
X165297000Y-36957000D01*
X165043000Y-36957000D01*
X165023000Y-36957000D01*
X165023000Y-36703000D01*
X165043000Y-36703000D01*
X165043000Y-35509845D01*
X165297000Y-35509845D01*
X165297000Y-36703000D01*
X167583000Y-36703000D01*
X167583000Y-35509845D01*
X167353110Y-35388524D01*
X167205901Y-35433175D01*
X166943080Y-35558359D01*
X166709731Y-35732412D01*
X166514822Y-35948645D01*
X166440000Y-36074255D01*
X166365178Y-35948645D01*
X166170269Y-35732412D01*
X165936920Y-35558359D01*
X165674099Y-35433175D01*
X165526890Y-35388524D01*
X165297000Y-35509845D01*
X165043000Y-35509845D01*
X164813110Y-35388524D01*
X164665901Y-35433175D01*
X164403080Y-35558359D01*
X164169731Y-35732412D01*
X163974822Y-35948645D01*
X163905195Y-36065534D01*
X163783475Y-35883368D01*
X163576632Y-35676525D01*
X163333411Y-35514010D01*
X163063158Y-35402068D01*
X162776260Y-35345000D01*
X162483740Y-35345000D01*
X162196842Y-35402068D01*
X161926589Y-35514010D01*
X161683368Y-35676525D01*
X161476525Y-35883368D01*
X161360000Y-36057760D01*
X161243475Y-35883368D01*
X161036632Y-35676525D01*
X160793411Y-35514010D01*
X160523158Y-35402068D01*
X160236260Y-35345000D01*
X159943740Y-35345000D01*
X159656842Y-35402068D01*
X159386589Y-35514010D01*
X159143368Y-35676525D01*
X158936525Y-35883368D01*
X158820000Y-36057760D01*
X158703475Y-35883368D01*
X158496632Y-35676525D01*
X158253411Y-35514010D01*
X157983158Y-35402068D01*
X157696260Y-35345000D01*
X157403740Y-35345000D01*
X157116842Y-35402068D01*
X156846589Y-35514010D01*
X156603368Y-35676525D01*
X156396525Y-35883368D01*
X156280000Y-36057760D01*
X156163475Y-35883368D01*
X155956632Y-35676525D01*
X155713411Y-35514010D01*
X155443158Y-35402068D01*
X155156260Y-35345000D01*
X154863740Y-35345000D01*
X154576842Y-35402068D01*
X154306589Y-35514010D01*
X154063368Y-35676525D01*
X153856525Y-35883368D01*
X153740000Y-36057760D01*
X153623475Y-35883368D01*
X153416632Y-35676525D01*
X153173411Y-35514010D01*
X152903158Y-35402068D01*
X152616260Y-35345000D01*
X152323740Y-35345000D01*
X152036842Y-35402068D01*
X151766589Y-35514010D01*
X151523368Y-35676525D01*
X151316525Y-35883368D01*
X151200000Y-36057760D01*
X151083475Y-35883368D01*
X150876632Y-35676525D01*
X150633411Y-35514010D01*
X150363158Y-35402068D01*
X150076260Y-35345000D01*
X149783740Y-35345000D01*
X149496842Y-35402068D01*
X149226589Y-35514010D01*
X148983368Y-35676525D01*
X148776525Y-35883368D01*
X148660000Y-36057760D01*
X148543475Y-35883368D01*
X148336632Y-35676525D01*
X148093411Y-35514010D01*
X147823158Y-35402068D01*
X147536260Y-35345000D01*
X147243740Y-35345000D01*
X146956842Y-35402068D01*
X146686589Y-35514010D01*
X146443368Y-35676525D01*
X146236525Y-35883368D01*
X146120000Y-36057760D01*
X146003475Y-35883368D01*
X145796632Y-35676525D01*
X145553411Y-35514010D01*
X145283158Y-35402068D01*
X144996260Y-35345000D01*
X144703740Y-35345000D01*
X144416842Y-35402068D01*
X144146589Y-35514010D01*
X143903368Y-35676525D01*
X143696525Y-35883368D01*
X143580000Y-36057760D01*
X143463475Y-35883368D01*
X143256632Y-35676525D01*
X143013411Y-35514010D01*
X142743158Y-35402068D01*
X142456260Y-35345000D01*
X142163740Y-35345000D01*
X141876842Y-35402068D01*
X141606589Y-35514010D01*
X141363368Y-35676525D01*
X141156525Y-35883368D01*
X141040000Y-36057760D01*
X140923475Y-35883368D01*
X140716632Y-35676525D01*
X140473411Y-35514010D01*
X140203158Y-35402068D01*
X139916260Y-35345000D01*
X139623740Y-35345000D01*
X139336842Y-35402068D01*
X139066589Y-35514010D01*
X138823368Y-35676525D01*
X138616525Y-35883368D01*
X138500000Y-36057760D01*
X138383475Y-35883368D01*
X138176632Y-35676525D01*
X137933411Y-35514010D01*
X137663158Y-35402068D01*
X137376260Y-35345000D01*
X137083740Y-35345000D01*
X136796842Y-35402068D01*
X136526589Y-35514010D01*
X136283368Y-35676525D01*
X136076525Y-35883368D01*
X135960000Y-36057760D01*
X135843475Y-35883368D01*
X135636632Y-35676525D01*
X135393411Y-35514010D01*
X135123158Y-35402068D01*
X134836260Y-35345000D01*
X134543740Y-35345000D01*
X134256842Y-35402068D01*
X133986589Y-35514010D01*
X133743368Y-35676525D01*
X133536525Y-35883368D01*
X133420000Y-36057760D01*
X133303475Y-35883368D01*
X133096632Y-35676525D01*
X132853411Y-35514010D01*
X132583158Y-35402068D01*
X132296260Y-35345000D01*
X132003740Y-35345000D01*
X131716842Y-35402068D01*
X131446589Y-35514010D01*
X131203368Y-35676525D01*
X130996525Y-35883368D01*
X130880000Y-36057760D01*
X130763475Y-35883368D01*
X130556632Y-35676525D01*
X130313411Y-35514010D01*
X130043158Y-35402068D01*
X129756260Y-35345000D01*
X129463740Y-35345000D01*
X129176842Y-35402068D01*
X128906589Y-35514010D01*
X128663368Y-35676525D01*
X128456525Y-35883368D01*
X128340000Y-36057760D01*
X128223475Y-35883368D01*
X128016632Y-35676525D01*
X127773411Y-35514010D01*
X127503158Y-35402068D01*
X127216260Y-35345000D01*
X126923740Y-35345000D01*
X126636842Y-35402068D01*
X126366589Y-35514010D01*
X126123368Y-35676525D01*
X125916525Y-35883368D01*
X125800000Y-36057760D01*
X125683475Y-35883368D01*
X125476632Y-35676525D01*
X125233411Y-35514010D01*
X124963158Y-35402068D01*
X124676260Y-35345000D01*
X124383740Y-35345000D01*
X124096842Y-35402068D01*
X123826589Y-35514010D01*
X123583368Y-35676525D01*
X123376525Y-35883368D01*
X123260000Y-36057760D01*
X123143475Y-35883368D01*
X122936632Y-35676525D01*
X122693411Y-35514010D01*
X122423158Y-35402068D01*
X122136260Y-35345000D01*
X121843740Y-35345000D01*
X121556842Y-35402068D01*
X121286589Y-35514010D01*
X121043368Y-35676525D01*
X120836525Y-35883368D01*
X120720000Y-36057760D01*
X120603475Y-35883368D01*
X120396632Y-35676525D01*
X120153411Y-35514010D01*
X119883158Y-35402068D01*
X119596260Y-35345000D01*
X119303740Y-35345000D01*
X119016842Y-35402068D01*
X118746589Y-35514010D01*
X118503368Y-35676525D01*
X118296525Y-35883368D01*
X118180000Y-36057760D01*
X118063475Y-35883368D01*
X117856632Y-35676525D01*
X117613411Y-35514010D01*
X117343158Y-35402068D01*
X117056260Y-35345000D01*
X116763740Y-35345000D01*
X116476842Y-35402068D01*
X116206589Y-35514010D01*
X115963368Y-35676525D01*
X115756525Y-35883368D01*
X115640000Y-36057760D01*
X115523475Y-35883368D01*
X115316632Y-35676525D01*
X115073411Y-35514010D01*
X114803158Y-35402068D01*
X114516260Y-35345000D01*
X114223740Y-35345000D01*
X113936842Y-35402068D01*
X113666589Y-35514010D01*
X113423368Y-35676525D01*
X113216525Y-35883368D01*
X113100000Y-36057760D01*
X112983475Y-35883368D01*
X112776632Y-35676525D01*
X112533411Y-35514010D01*
X112263158Y-35402068D01*
X111976260Y-35345000D01*
X111683740Y-35345000D01*
X111396842Y-35402068D01*
X111126589Y-35514010D01*
X110883368Y-35676525D01*
X110676525Y-35883368D01*
X110554805Y-36065534D01*
X110485178Y-35948645D01*
X110290269Y-35732412D01*
X110056920Y-35558359D01*
X109794099Y-35433175D01*
X109646890Y-35388524D01*
X109417000Y-35509845D01*
X109163000Y-35509845D01*
X108933110Y-35388524D01*
X108785901Y-35433175D01*
X108523080Y-35558359D01*
X108289731Y-35732412D01*
X108213966Y-35816466D01*
X108189502Y-35735820D01*
X108130537Y-35625506D01*
X108051185Y-35528815D01*
X107954494Y-35449463D01*
X107844180Y-35390498D01*
X107724482Y-35354188D01*
X107600000Y-35341928D01*
X107035750Y-35345000D01*
X106877000Y-35503750D01*
X106623000Y-35503750D01*
X106464250Y-35345000D01*
X105900000Y-35341928D01*
X105775518Y-35354188D01*
X105655820Y-35390498D01*
X105545506Y-35449463D01*
X105448815Y-35528815D01*
X105369463Y-35625506D01*
X105310498Y-35735820D01*
X105274188Y-35855518D01*
X105261928Y-35980000D01*
X91722000Y-35980000D01*
X91722000Y-33323148D01*
X93976457Y-33323148D01*
X94252627Y-33741118D01*
X94797557Y-34031649D01*
X95388696Y-34210287D01*
X96003328Y-34270168D01*
X96617831Y-34208990D01*
X97208592Y-34029103D01*
X97747373Y-33741118D01*
X98023543Y-33323148D01*
X96000000Y-31299605D01*
X93976457Y-33323148D01*
X91722000Y-33323148D01*
X91722000Y-31123328D01*
X92849832Y-31123328D01*
X92911010Y-31737831D01*
X93090897Y-32328592D01*
X93378882Y-32867373D01*
X93796852Y-33143543D01*
X95820395Y-31120000D01*
X96179605Y-31120000D01*
X98203148Y-33143543D01*
X98621118Y-32867373D01*
X98911649Y-32322443D01*
X99090287Y-31731304D01*
X99150168Y-31116672D01*
X99088990Y-30502169D01*
X98909103Y-29911408D01*
X98621118Y-29372627D01*
X98203148Y-29096457D01*
X96179605Y-31120000D01*
X95820395Y-31120000D01*
X93796852Y-29096457D01*
X93378882Y-29372627D01*
X93088351Y-29917557D01*
X92909713Y-30508696D01*
X92849832Y-31123328D01*
X91722000Y-31123328D01*
X91722000Y-28916852D01*
X93976457Y-28916852D01*
X96000000Y-30940395D01*
X98023543Y-28916852D01*
X97747373Y-28498882D01*
X97202443Y-28208351D01*
X96611304Y-28029713D01*
X95996672Y-27969832D01*
X95382169Y-28031010D01*
X94791408Y-28210897D01*
X94252627Y-28498882D01*
X93976457Y-28916852D01*
X91722000Y-28916852D01*
X91722000Y-25766891D01*
X105308519Y-25766891D01*
X105405843Y-26041252D01*
X105554822Y-26291355D01*
X105749731Y-26507588D01*
X105983080Y-26681641D01*
X106245901Y-26806825D01*
X106393110Y-26851476D01*
X106623000Y-26730155D01*
X106623000Y-25537000D01*
X106877000Y-25537000D01*
X106877000Y-26730155D01*
X107106890Y-26851476D01*
X107254099Y-26806825D01*
X107516920Y-26681641D01*
X107750269Y-26507588D01*
X107945178Y-26291355D01*
X108020000Y-26165745D01*
X108094822Y-26291355D01*
X108289731Y-26507588D01*
X108523080Y-26681641D01*
X108785901Y-26806825D01*
X108933110Y-26851476D01*
X109163000Y-26730155D01*
X109163000Y-25537000D01*
X106877000Y-25537000D01*
X106623000Y-25537000D01*
X105429186Y-25537000D01*
X105308519Y-25766891D01*
X91722000Y-25766891D01*
X91722000Y-25053109D01*
X105308519Y-25053109D01*
X105429186Y-25283000D01*
X106623000Y-25283000D01*
X106623000Y-24089845D01*
X106877000Y-24089845D01*
X106877000Y-25283000D01*
X109163000Y-25283000D01*
X109163000Y-24089845D01*
X108933110Y-23968524D01*
X108785901Y-24013175D01*
X108523080Y-24138359D01*
X108289731Y-24312412D01*
X108094822Y-24528645D01*
X108020000Y-24654255D01*
X107945178Y-24528645D01*
X107750269Y-24312412D01*
X107516920Y-24138359D01*
X107254099Y-24013175D01*
X107106890Y-23968524D01*
X106877000Y-24089845D01*
X106623000Y-24089845D01*
X106393110Y-23968524D01*
X106245901Y-24013175D01*
X105983080Y-24138359D01*
X105749731Y-24312412D01*
X105554822Y-24528645D01*
X105405843Y-24778748D01*
X105308519Y-25053109D01*
X91722000Y-25053109D01*
X91722000Y-21551618D01*
X91755166Y-21180000D01*
X105261928Y-21180000D01*
X105274188Y-21304482D01*
X105310498Y-21424180D01*
X105369463Y-21534494D01*
X105448815Y-21631185D01*
X105545506Y-21710537D01*
X105655820Y-21769502D01*
X105775518Y-21805812D01*
X105900000Y-21818072D01*
X106464250Y-21815000D01*
X106623000Y-21656250D01*
X106623000Y-20457000D01*
X106877000Y-20457000D01*
X106877000Y-21656250D01*
X107035750Y-21815000D01*
X107600000Y-21818072D01*
X107724482Y-21805812D01*
X107844180Y-21769502D01*
X107954494Y-21710537D01*
X108051185Y-21631185D01*
X108130537Y-21534494D01*
X108189502Y-21424180D01*
X108213966Y-21343534D01*
X108289731Y-21427588D01*
X108523080Y-21601641D01*
X108785901Y-21726825D01*
X108933110Y-21771476D01*
X109163000Y-21650155D01*
X109163000Y-20457000D01*
X106877000Y-20457000D01*
X106623000Y-20457000D01*
X105423750Y-20457000D01*
X105265000Y-20615750D01*
X105261928Y-21180000D01*
X91755166Y-21180000D01*
X91792578Y-20760808D01*
X91993705Y-20025611D01*
X92253948Y-19480000D01*
X105261928Y-19480000D01*
X105265000Y-20044250D01*
X105423750Y-20203000D01*
X106623000Y-20203000D01*
X106623000Y-19003750D01*
X106877000Y-19003750D01*
X106877000Y-20203000D01*
X109163000Y-20203000D01*
X109163000Y-19009845D01*
X109417000Y-19009845D01*
X109417000Y-20203000D01*
X109437000Y-20203000D01*
X109437000Y-20457000D01*
X109417000Y-20457000D01*
X109417000Y-21650155D01*
X109646890Y-21771476D01*
X109794099Y-21726825D01*
X110056920Y-21601641D01*
X110290269Y-21427588D01*
X110485178Y-21211355D01*
X110554805Y-21094466D01*
X110676525Y-21276632D01*
X110883368Y-21483475D01*
X111126589Y-21645990D01*
X111396842Y-21757932D01*
X111683740Y-21815000D01*
X111976260Y-21815000D01*
X112263158Y-21757932D01*
X112533411Y-21645990D01*
X112776632Y-21483475D01*
X112983475Y-21276632D01*
X113100000Y-21102240D01*
X113216525Y-21276632D01*
X113423368Y-21483475D01*
X113666589Y-21645990D01*
X113936842Y-21757932D01*
X114223740Y-21815000D01*
X114516260Y-21815000D01*
X114803158Y-21757932D01*
X115073411Y-21645990D01*
X115316632Y-21483475D01*
X115523475Y-21276632D01*
X115640000Y-21102240D01*
X115756525Y-21276632D01*
X115963368Y-21483475D01*
X116206589Y-21645990D01*
X116476842Y-21757932D01*
X116763740Y-21815000D01*
X117056260Y-21815000D01*
X117343158Y-21757932D01*
X117613411Y-21645990D01*
X117856632Y-21483475D01*
X118063475Y-21276632D01*
X118180000Y-21102240D01*
X118296525Y-21276632D01*
X118503368Y-21483475D01*
X118746589Y-21645990D01*
X119016842Y-21757932D01*
X119303740Y-21815000D01*
X119596260Y-21815000D01*
X119883158Y-21757932D01*
X120153411Y-21645990D01*
X120396632Y-21483475D01*
X120603475Y-21276632D01*
X120720000Y-21102240D01*
X120836525Y-21276632D01*
X121043368Y-21483475D01*
X121286589Y-21645990D01*
X121556842Y-21757932D01*
X121843740Y-21815000D01*
X122136260Y-21815000D01*
X122423158Y-21757932D01*
X122693411Y-21645990D01*
X122936632Y-21483475D01*
X123143475Y-21276632D01*
X123260000Y-21102240D01*
X123376525Y-21276632D01*
X123583368Y-21483475D01*
X123826589Y-21645990D01*
X124096842Y-21757932D01*
X124383740Y-21815000D01*
X124676260Y-21815000D01*
X124963158Y-21757932D01*
X125233411Y-21645990D01*
X125476632Y-21483475D01*
X125683475Y-21276632D01*
X125800000Y-21102240D01*
X125916525Y-21276632D01*
X126123368Y-21483475D01*
X126366589Y-21645990D01*
X126636842Y-21757932D01*
X126923740Y-21815000D01*
X127216260Y-21815000D01*
X127503158Y-21757932D01*
X127773411Y-21645990D01*
X128016632Y-21483475D01*
X128223475Y-21276632D01*
X128340000Y-21102240D01*
X128456525Y-21276632D01*
X128663368Y-21483475D01*
X128906589Y-21645990D01*
X129176842Y-21757932D01*
X129463740Y-21815000D01*
X129756260Y-21815000D01*
X130043158Y-21757932D01*
X130313411Y-21645990D01*
X130556632Y-21483475D01*
X130763475Y-21276632D01*
X130880000Y-21102240D01*
X130996525Y-21276632D01*
X131203368Y-21483475D01*
X131446589Y-21645990D01*
X131716842Y-21757932D01*
X132003740Y-21815000D01*
X132296260Y-21815000D01*
X132583158Y-21757932D01*
X132853411Y-21645990D01*
X133096632Y-21483475D01*
X133303475Y-21276632D01*
X133420000Y-21102240D01*
X133536525Y-21276632D01*
X133743368Y-21483475D01*
X133986589Y-21645990D01*
X134256842Y-21757932D01*
X134543740Y-21815000D01*
X134836260Y-21815000D01*
X135123158Y-21757932D01*
X135393411Y-21645990D01*
X135636632Y-21483475D01*
X135843475Y-21276632D01*
X135960000Y-21102240D01*
X136076525Y-21276632D01*
X136283368Y-21483475D01*
X136526589Y-21645990D01*
X136796842Y-21757932D01*
X137083740Y-21815000D01*
X137376260Y-21815000D01*
X137663158Y-21757932D01*
X137933411Y-21645990D01*
X138176632Y-21483475D01*
X138383475Y-21276632D01*
X138500000Y-21102240D01*
X138616525Y-21276632D01*
X138823368Y-21483475D01*
X139066589Y-21645990D01*
X139336842Y-21757932D01*
X139623740Y-21815000D01*
X139916260Y-21815000D01*
X140203158Y-21757932D01*
X140473411Y-21645990D01*
X140716632Y-21483475D01*
X140923475Y-21276632D01*
X141040000Y-21102240D01*
X141156525Y-21276632D01*
X141363368Y-21483475D01*
X141606589Y-21645990D01*
X141876842Y-21757932D01*
X142163740Y-21815000D01*
X142456260Y-21815000D01*
X142743158Y-21757932D01*
X143013411Y-21645990D01*
X143256632Y-21483475D01*
X143463475Y-21276632D01*
X143580000Y-21102240D01*
X143696525Y-21276632D01*
X143903368Y-21483475D01*
X144146589Y-21645990D01*
X144416842Y-21757932D01*
X144703740Y-21815000D01*
X144996260Y-21815000D01*
X145283158Y-21757932D01*
X145553411Y-21645990D01*
X145796632Y-21483475D01*
X146003475Y-21276632D01*
X146120000Y-21102240D01*
X146236525Y-21276632D01*
X146443368Y-21483475D01*
X146686589Y-21645990D01*
X146956842Y-21757932D01*
X147243740Y-21815000D01*
X147536260Y-21815000D01*
X147823158Y-21757932D01*
X148093411Y-21645990D01*
X148336632Y-21483475D01*
X148543475Y-21276632D01*
X148660000Y-21102240D01*
X148776525Y-21276632D01*
X148983368Y-21483475D01*
X149226589Y-21645990D01*
X149496842Y-21757932D01*
X149783740Y-21815000D01*
X150076260Y-21815000D01*
X150363158Y-21757932D01*
X150633411Y-21645990D01*
X150876632Y-21483475D01*
X151083475Y-21276632D01*
X151200000Y-21102240D01*
X151316525Y-21276632D01*
X151523368Y-21483475D01*
X151766589Y-21645990D01*
X152036842Y-21757932D01*
X152323740Y-21815000D01*
X152616260Y-21815000D01*
X152903158Y-21757932D01*
X153173411Y-21645990D01*
X153416632Y-21483475D01*
X153623475Y-21276632D01*
X153740000Y-21102240D01*
X153856525Y-21276632D01*
X154063368Y-21483475D01*
X154306589Y-21645990D01*
X154576842Y-21757932D01*
X154863740Y-21815000D01*
X155156260Y-21815000D01*
X155443158Y-21757932D01*
X155713411Y-21645990D01*
X155956632Y-21483475D01*
X156163475Y-21276632D01*
X156280000Y-21102240D01*
X156396525Y-21276632D01*
X156603368Y-21483475D01*
X156846589Y-21645990D01*
X157116842Y-21757932D01*
X157403740Y-21815000D01*
X157696260Y-21815000D01*
X157983158Y-21757932D01*
X158253411Y-21645990D01*
X158496632Y-21483475D01*
X158703475Y-21276632D01*
X158820000Y-21102240D01*
X158936525Y-21276632D01*
X159143368Y-21483475D01*
X159386589Y-21645990D01*
X159656842Y-21757932D01*
X159943740Y-21815000D01*
X160236260Y-21815000D01*
X160523158Y-21757932D01*
X160793411Y-21645990D01*
X161036632Y-21483475D01*
X161243475Y-21276632D01*
X161360000Y-21102240D01*
X161476525Y-21276632D01*
X161683368Y-21483475D01*
X161926589Y-21645990D01*
X162196842Y-21757932D01*
X162483740Y-21815000D01*
X162776260Y-21815000D01*
X163063158Y-21757932D01*
X163333411Y-21645990D01*
X163576632Y-21483475D01*
X163783475Y-21276632D01*
X163905195Y-21094466D01*
X163974822Y-21211355D01*
X164169731Y-21427588D01*
X164403080Y-21601641D01*
X164665901Y-21726825D01*
X164813110Y-21771476D01*
X165043000Y-21650155D01*
X165043000Y-20457000D01*
X165297000Y-20457000D01*
X165297000Y-21650155D01*
X165526890Y-21771476D01*
X165674099Y-21726825D01*
X165936920Y-21601641D01*
X166170269Y-21427588D01*
X166365178Y-21211355D01*
X166440000Y-21085745D01*
X166514822Y-21211355D01*
X166709731Y-21427588D01*
X166943080Y-21601641D01*
X167205901Y-21726825D01*
X167353110Y-21771476D01*
X167583000Y-21650155D01*
X167583000Y-20457000D01*
X167837000Y-20457000D01*
X167837000Y-21650155D01*
X168066890Y-21771476D01*
X168214099Y-21726825D01*
X168476920Y-21601641D01*
X168710269Y-21427588D01*
X168905178Y-21211355D01*
X169054157Y-20961252D01*
X169151481Y-20686891D01*
X169030814Y-20457000D01*
X167837000Y-20457000D01*
X167583000Y-20457000D01*
X165297000Y-20457000D01*
X165043000Y-20457000D01*
X165023000Y-20457000D01*
X165023000Y-20203000D01*
X165043000Y-20203000D01*
X165043000Y-19009845D01*
X165297000Y-19009845D01*
X165297000Y-20203000D01*
X167583000Y-20203000D01*
X167583000Y-19009845D01*
X167837000Y-19009845D01*
X167837000Y-20203000D01*
X169030814Y-20203000D01*
X169151481Y-19973109D01*
X169054157Y-19698748D01*
X168905178Y-19448645D01*
X168710269Y-19232412D01*
X168476920Y-19058359D01*
X168214099Y-18933175D01*
X168066890Y-18888524D01*
X167837000Y-19009845D01*
X167583000Y-19009845D01*
X167353110Y-18888524D01*
X167205901Y-18933175D01*
X166943080Y-19058359D01*
X166709731Y-19232412D01*
X166514822Y-19448645D01*
X166440000Y-19574255D01*
X166365178Y-19448645D01*
X166170269Y-19232412D01*
X165936920Y-19058359D01*
X165674099Y-18933175D01*
X165526890Y-18888524D01*
X165297000Y-19009845D01*
X165043000Y-19009845D01*
X164813110Y-18888524D01*
X164665901Y-18933175D01*
X164403080Y-19058359D01*
X164169731Y-19232412D01*
X163974822Y-19448645D01*
X163905195Y-19565534D01*
X163783475Y-19383368D01*
X163576632Y-19176525D01*
X163333411Y-19014010D01*
X163063158Y-18902068D01*
X162776260Y-18845000D01*
X162483740Y-18845000D01*
X162196842Y-18902068D01*
X161926589Y-19014010D01*
X161683368Y-19176525D01*
X161476525Y-19383368D01*
X161360000Y-19557760D01*
X161243475Y-19383368D01*
X161036632Y-19176525D01*
X160793411Y-19014010D01*
X160523158Y-18902068D01*
X160236260Y-18845000D01*
X159943740Y-18845000D01*
X159656842Y-18902068D01*
X159386589Y-19014010D01*
X159143368Y-19176525D01*
X158936525Y-19383368D01*
X158820000Y-19557760D01*
X158703475Y-19383368D01*
X158496632Y-19176525D01*
X158253411Y-19014010D01*
X157983158Y-18902068D01*
X157696260Y-18845000D01*
X157403740Y-18845000D01*
X157116842Y-18902068D01*
X156846589Y-19014010D01*
X156603368Y-19176525D01*
X156396525Y-19383368D01*
X156280000Y-19557760D01*
X156163475Y-19383368D01*
X155956632Y-19176525D01*
X155713411Y-19014010D01*
X155443158Y-18902068D01*
X155156260Y-18845000D01*
X154863740Y-18845000D01*
X154576842Y-18902068D01*
X154306589Y-19014010D01*
X154063368Y-19176525D01*
X153856525Y-19383368D01*
X153740000Y-19557760D01*
X153623475Y-19383368D01*
X153416632Y-19176525D01*
X153173411Y-19014010D01*
X152903158Y-18902068D01*
X152616260Y-18845000D01*
X152323740Y-18845000D01*
X152036842Y-18902068D01*
X151766589Y-19014010D01*
X151523368Y-19176525D01*
X151316525Y-19383368D01*
X151200000Y-19557760D01*
X151083475Y-19383368D01*
X150876632Y-19176525D01*
X150633411Y-19014010D01*
X150363158Y-18902068D01*
X150076260Y-18845000D01*
X149783740Y-18845000D01*
X149496842Y-18902068D01*
X149226589Y-19014010D01*
X148983368Y-19176525D01*
X148776525Y-19383368D01*
X148660000Y-19557760D01*
X148543475Y-19383368D01*
X148336632Y-19176525D01*
X148093411Y-19014010D01*
X147823158Y-18902068D01*
X147536260Y-18845000D01*
X147243740Y-18845000D01*
X146956842Y-18902068D01*
X146686589Y-19014010D01*
X146443368Y-19176525D01*
X146236525Y-19383368D01*
X146120000Y-19557760D01*
X146003475Y-19383368D01*
X145796632Y-19176525D01*
X145553411Y-19014010D01*
X145283158Y-18902068D01*
X144996260Y-18845000D01*
X144703740Y-18845000D01*
X144416842Y-18902068D01*
X144146589Y-19014010D01*
X143903368Y-19176525D01*
X143696525Y-19383368D01*
X143580000Y-19557760D01*
X143463475Y-19383368D01*
X143256632Y-19176525D01*
X143013411Y-19014010D01*
X142743158Y-18902068D01*
X142456260Y-18845000D01*
X142163740Y-18845000D01*
X141876842Y-18902068D01*
X141606589Y-19014010D01*
X141363368Y-19176525D01*
X141156525Y-19383368D01*
X141040000Y-19557760D01*
X140923475Y-19383368D01*
X140716632Y-19176525D01*
X140473411Y-19014010D01*
X140203158Y-18902068D01*
X139916260Y-18845000D01*
X139623740Y-18845000D01*
X139336842Y-18902068D01*
X139066589Y-19014010D01*
X138823368Y-19176525D01*
X138616525Y-19383368D01*
X138500000Y-19557760D01*
X138383475Y-19383368D01*
X138176632Y-19176525D01*
X137933411Y-19014010D01*
X137663158Y-18902068D01*
X137376260Y-18845000D01*
X137083740Y-18845000D01*
X136796842Y-18902068D01*
X136526589Y-19014010D01*
X136283368Y-19176525D01*
X136076525Y-19383368D01*
X135960000Y-19557760D01*
X135843475Y-19383368D01*
X135636632Y-19176525D01*
X135393411Y-19014010D01*
X135123158Y-18902068D01*
X134836260Y-18845000D01*
X134543740Y-18845000D01*
X134256842Y-18902068D01*
X133986589Y-19014010D01*
X133743368Y-19176525D01*
X133536525Y-19383368D01*
X133420000Y-19557760D01*
X133303475Y-19383368D01*
X133096632Y-19176525D01*
X132853411Y-19014010D01*
X132583158Y-18902068D01*
X132296260Y-18845000D01*
X132003740Y-18845000D01*
X131716842Y-18902068D01*
X131446589Y-19014010D01*
X131203368Y-19176525D01*
X130996525Y-19383368D01*
X130880000Y-19557760D01*
X130763475Y-19383368D01*
X130556632Y-19176525D01*
X130313411Y-19014010D01*
X130043158Y-18902068D01*
X129756260Y-18845000D01*
X129463740Y-18845000D01*
X129176842Y-18902068D01*
X128906589Y-19014010D01*
X128663368Y-19176525D01*
X128456525Y-19383368D01*
X128340000Y-19557760D01*
X128223475Y-19383368D01*
X128016632Y-19176525D01*
X127773411Y-19014010D01*
X127503158Y-18902068D01*
X127216260Y-18845000D01*
X126923740Y-18845000D01*
X126636842Y-18902068D01*
X126366589Y-19014010D01*
X126123368Y-19176525D01*
X125916525Y-19383368D01*
X125800000Y-19557760D01*
X125683475Y-19383368D01*
X125476632Y-19176525D01*
X125233411Y-19014010D01*
X124963158Y-18902068D01*
X124676260Y-18845000D01*
X124383740Y-18845000D01*
X124096842Y-18902068D01*
X123826589Y-19014010D01*
X123583368Y-19176525D01*
X123376525Y-19383368D01*
X123260000Y-19557760D01*
X123143475Y-19383368D01*
X122936632Y-19176525D01*
X122693411Y-19014010D01*
X122423158Y-18902068D01*
X122136260Y-18845000D01*
X121843740Y-18845000D01*
X121556842Y-18902068D01*
X121286589Y-19014010D01*
X121043368Y-19176525D01*
X120836525Y-19383368D01*
X120720000Y-19557760D01*
X120603475Y-19383368D01*
X120396632Y-19176525D01*
X120153411Y-19014010D01*
X119883158Y-18902068D01*
X119596260Y-18845000D01*
X119303740Y-18845000D01*
X119016842Y-18902068D01*
X118746589Y-19014010D01*
X118503368Y-19176525D01*
X118296525Y-19383368D01*
X118180000Y-19557760D01*
X118063475Y-19383368D01*
X117856632Y-19176525D01*
X117613411Y-19014010D01*
X117343158Y-18902068D01*
X117056260Y-18845000D01*
X116763740Y-18845000D01*
X116476842Y-18902068D01*
X116206589Y-19014010D01*
X115963368Y-19176525D01*
X115756525Y-19383368D01*
X115640000Y-19557760D01*
X115523475Y-19383368D01*
X115316632Y-19176525D01*
X115073411Y-19014010D01*
X114803158Y-18902068D01*
X114516260Y-18845000D01*
X114223740Y-18845000D01*
X113936842Y-18902068D01*
X113666589Y-19014010D01*
X113423368Y-19176525D01*
X113216525Y-19383368D01*
X113100000Y-19557760D01*
X112983475Y-19383368D01*
X112776632Y-19176525D01*
X112533411Y-19014010D01*
X112263158Y-18902068D01*
X111976260Y-18845000D01*
X111683740Y-18845000D01*
X111396842Y-18902068D01*
X111126589Y-19014010D01*
X110883368Y-19176525D01*
X110676525Y-19383368D01*
X110554805Y-19565534D01*
X110485178Y-19448645D01*
X110290269Y-19232412D01*
X110056920Y-19058359D01*
X109794099Y-18933175D01*
X109646890Y-18888524D01*
X109417000Y-19009845D01*
X109163000Y-19009845D01*
X108933110Y-18888524D01*
X108785901Y-18933175D01*
X108523080Y-19058359D01*
X108289731Y-19232412D01*
X108213966Y-19316466D01*
X108189502Y-19235820D01*
X108130537Y-19125506D01*
X108051185Y-19028815D01*
X107954494Y-18949463D01*
X107844180Y-18890498D01*
X107724482Y-18854188D01*
X107600000Y-18841928D01*
X107035750Y-18845000D01*
X106877000Y-19003750D01*
X106623000Y-19003750D01*
X106464250Y-18845000D01*
X105900000Y-18841928D01*
X105775518Y-18854188D01*
X105655820Y-18890498D01*
X105545506Y-18949463D01*
X105448815Y-19028815D01*
X105369463Y-19125506D01*
X105310498Y-19235820D01*
X105274188Y-19355518D01*
X105261928Y-19480000D01*
X92253948Y-19480000D01*
X92321846Y-19337649D01*
X92766628Y-18718669D01*
X93313988Y-18188239D01*
X93946639Y-17763116D01*
X94644561Y-17456749D01*
X95391183Y-17277501D01*
X96038030Y-17230000D01*
X178276382Y-17230000D01*
X179067192Y-17300578D01*
G04 #@! TA.AperFunction,Conductor*
D22*
G36*
X179067192Y-17300578D02*
G01*
X179802389Y-17501705D01*
X180490351Y-17829846D01*
X181109331Y-18274628D01*
X181639761Y-18821988D01*
X182064884Y-19454639D01*
X182371251Y-20152561D01*
X182550499Y-20899183D01*
X182598001Y-21546044D01*
X182598000Y-40688382D01*
X182527422Y-41479193D01*
X182326295Y-42214389D01*
X181998152Y-42902355D01*
X181553374Y-43521328D01*
X181006012Y-44051761D01*
X180373362Y-44476883D01*
X179675439Y-44783251D01*
X178928819Y-44962499D01*
X178281970Y-45010000D01*
X160054877Y-45010000D01*
X160020000Y-45006565D01*
X159985123Y-45010000D01*
X159880816Y-45020273D01*
X159746980Y-45060872D01*
X159623637Y-45126800D01*
X159515525Y-45215525D01*
X159426800Y-45323637D01*
X159360872Y-45446980D01*
X159320273Y-45580816D01*
X159306565Y-45720000D01*
X159310000Y-45754877D01*
X159310001Y-100302095D01*
X159238394Y-101211943D01*
X159031870Y-102072180D01*
X158693320Y-102889511D01*
X158231077Y-103643821D01*
X157656530Y-104316530D01*
X156983821Y-104891077D01*
X156229505Y-105353323D01*
X155412181Y-105691869D01*
X154551943Y-105898394D01*
X153642108Y-105970000D01*
X120677892Y-105970000D01*
X119768057Y-105898394D01*
X118907820Y-105691870D01*
X118090489Y-105353320D01*
X117336179Y-104891077D01*
X116663470Y-104316530D01*
X116088923Y-103643821D01*
X115626677Y-102889505D01*
X115288131Y-102072181D01*
X115246350Y-101898148D01*
X119261457Y-101898148D01*
X119537627Y-102316118D01*
X120082557Y-102606649D01*
X120673696Y-102785287D01*
X121288328Y-102845168D01*
X121902831Y-102783990D01*
X122493592Y-102604103D01*
X123032373Y-102316118D01*
X123308543Y-101898148D01*
X151011457Y-101898148D01*
X151287627Y-102316118D01*
X151832557Y-102606649D01*
X152423696Y-102785287D01*
X153038328Y-102845168D01*
X153652831Y-102783990D01*
X154243592Y-102604103D01*
X154782373Y-102316118D01*
X155058543Y-101898148D01*
X153035000Y-99874605D01*
X151011457Y-101898148D01*
X123308543Y-101898148D01*
X121285000Y-99874605D01*
X119261457Y-101898148D01*
X115246350Y-101898148D01*
X115081606Y-101211943D01*
X115010000Y-100302108D01*
X115010000Y-99698328D01*
X118134832Y-99698328D01*
X118196010Y-100312831D01*
X118375897Y-100903592D01*
X118663882Y-101442373D01*
X119081852Y-101718543D01*
X121105395Y-99695000D01*
X121464605Y-99695000D01*
X123488148Y-101718543D01*
X123906118Y-101442373D01*
X124196649Y-100897443D01*
X124375287Y-100306304D01*
X124435168Y-99691672D01*
X124373990Y-99077169D01*
X124225779Y-98590434D01*
X129956560Y-98590434D01*
X129956560Y-98965686D01*
X130029769Y-99333728D01*
X130173371Y-99680416D01*
X130381850Y-99992426D01*
X130647194Y-100257770D01*
X130959204Y-100466249D01*
X131305892Y-100609851D01*
X131673934Y-100683060D01*
X132049186Y-100683060D01*
X132417228Y-100609851D01*
X132763916Y-100466249D01*
X133075926Y-100257770D01*
X133341270Y-99992426D01*
X133549749Y-99680416D01*
X133693351Y-99333728D01*
X133766560Y-98965686D01*
X133766560Y-98590434D01*
X135255000Y-98590434D01*
X135255000Y-98965686D01*
X135328209Y-99333728D01*
X135471811Y-99680416D01*
X135680290Y-99992426D01*
X135945634Y-100257770D01*
X136257644Y-100466249D01*
X136604332Y-100609851D01*
X136972374Y-100683060D01*
X137347626Y-100683060D01*
X137715668Y-100609851D01*
X138062356Y-100466249D01*
X138374366Y-100257770D01*
X138639710Y-99992426D01*
X138848189Y-99680416D01*
X138991791Y-99333728D01*
X139065000Y-98965686D01*
X139065000Y-98590434D01*
X140553440Y-98590434D01*
X140553440Y-98965686D01*
X140626649Y-99333728D01*
X140770251Y-99680416D01*
X140978730Y-99992426D01*
X141244074Y-100257770D01*
X141556084Y-100466249D01*
X141902772Y-100609851D01*
X142270814Y-100683060D01*
X142646066Y-100683060D01*
X143014108Y-100609851D01*
X143360796Y-100466249D01*
X143672806Y-100257770D01*
X143938150Y-99992426D01*
X144134660Y-99698328D01*
X149884832Y-99698328D01*
X149946010Y-100312831D01*
X150125897Y-100903592D01*
X150413882Y-101442373D01*
X150831852Y-101718543D01*
X152855395Y-99695000D01*
X153214605Y-99695000D01*
X155238148Y-101718543D01*
X155656118Y-101442373D01*
X155946649Y-100897443D01*
X156125287Y-100306304D01*
X156185168Y-99691672D01*
X156123990Y-99077169D01*
X155944103Y-98486408D01*
X155656118Y-97947627D01*
X155238148Y-97671457D01*
X153214605Y-99695000D01*
X152855395Y-99695000D01*
X150831852Y-97671457D01*
X150413882Y-97947627D01*
X150123351Y-98492557D01*
X149944713Y-99083696D01*
X149884832Y-99698328D01*
X144134660Y-99698328D01*
X144146629Y-99680416D01*
X144290231Y-99333728D01*
X144363440Y-98965686D01*
X144363440Y-98590434D01*
X144290231Y-98222392D01*
X144146629Y-97875704D01*
X143938150Y-97563694D01*
X143866308Y-97491852D01*
X151011457Y-97491852D01*
X153035000Y-99515395D01*
X155058543Y-97491852D01*
X154782373Y-97073882D01*
X154237443Y-96783351D01*
X153646304Y-96604713D01*
X153031672Y-96544832D01*
X152417169Y-96606010D01*
X151826408Y-96785897D01*
X151287627Y-97073882D01*
X151011457Y-97491852D01*
X143866308Y-97491852D01*
X143672806Y-97298350D01*
X143360796Y-97089871D01*
X143014108Y-96946269D01*
X142646066Y-96873060D01*
X142270814Y-96873060D01*
X141902772Y-96946269D01*
X141556084Y-97089871D01*
X141244074Y-97298350D01*
X140978730Y-97563694D01*
X140770251Y-97875704D01*
X140626649Y-98222392D01*
X140553440Y-98590434D01*
X139065000Y-98590434D01*
X138991791Y-98222392D01*
X138848189Y-97875704D01*
X138639710Y-97563694D01*
X138374366Y-97298350D01*
X138062356Y-97089871D01*
X137715668Y-96946269D01*
X137347626Y-96873060D01*
X136972374Y-96873060D01*
X136604332Y-96946269D01*
X136257644Y-97089871D01*
X135945634Y-97298350D01*
X135680290Y-97563694D01*
X135471811Y-97875704D01*
X135328209Y-98222392D01*
X135255000Y-98590434D01*
X133766560Y-98590434D01*
X133693351Y-98222392D01*
X133549749Y-97875704D01*
X133341270Y-97563694D01*
X133075926Y-97298350D01*
X132763916Y-97089871D01*
X132417228Y-96946269D01*
X132049186Y-96873060D01*
X131673934Y-96873060D01*
X131305892Y-96946269D01*
X130959204Y-97089871D01*
X130647194Y-97298350D01*
X130381850Y-97563694D01*
X130173371Y-97875704D01*
X130029769Y-98222392D01*
X129956560Y-98590434D01*
X124225779Y-98590434D01*
X124194103Y-98486408D01*
X123906118Y-97947627D01*
X123488148Y-97671457D01*
X121464605Y-99695000D01*
X121105395Y-99695000D01*
X119081852Y-97671457D01*
X118663882Y-97947627D01*
X118373351Y-98492557D01*
X118194713Y-99083696D01*
X118134832Y-99698328D01*
X115010000Y-99698328D01*
X115010000Y-97491852D01*
X119261457Y-97491852D01*
X121285000Y-99515395D01*
X123308543Y-97491852D01*
X123032373Y-97073882D01*
X122487443Y-96783351D01*
X121896304Y-96604713D01*
X121281672Y-96544832D01*
X120667169Y-96606010D01*
X120076408Y-96785897D01*
X119537627Y-97073882D01*
X119261457Y-97491852D01*
X115010000Y-97491852D01*
X115010000Y-93792374D01*
X129956560Y-93792374D01*
X129956560Y-94167626D01*
X130029769Y-94535668D01*
X130173371Y-94882356D01*
X130381850Y-95194366D01*
X130647194Y-95459710D01*
X130959204Y-95668189D01*
X131305892Y-95811791D01*
X131673934Y-95885000D01*
X132049186Y-95885000D01*
X132417228Y-95811791D01*
X132763916Y-95668189D01*
X133075926Y-95459710D01*
X133341270Y-95194366D01*
X133549749Y-94882356D01*
X133693351Y-94535668D01*
X133766560Y-94167626D01*
X133766560Y-93792374D01*
X135255000Y-93792374D01*
X135255000Y-94167626D01*
X135328209Y-94535668D01*
X135471811Y-94882356D01*
X135680290Y-95194366D01*
X135945634Y-95459710D01*
X136257644Y-95668189D01*
X136604332Y-95811791D01*
X136972374Y-95885000D01*
X137347626Y-95885000D01*
X137715668Y-95811791D01*
X138062356Y-95668189D01*
X138374366Y-95459710D01*
X138639710Y-95194366D01*
X138848189Y-94882356D01*
X138991791Y-94535668D01*
X139065000Y-94167626D01*
X139065000Y-93792374D01*
X140553440Y-93792374D01*
X140553440Y-94167626D01*
X140626649Y-94535668D01*
X140770251Y-94882356D01*
X140978730Y-95194366D01*
X141244074Y-95459710D01*
X141556084Y-95668189D01*
X141902772Y-95811791D01*
X142270814Y-95885000D01*
X142646066Y-95885000D01*
X143014108Y-95811791D01*
X143360796Y-95668189D01*
X143672806Y-95459710D01*
X143938150Y-95194366D01*
X144146629Y-94882356D01*
X144290231Y-94535668D01*
X144363440Y-94167626D01*
X144363440Y-93792374D01*
X144290231Y-93424332D01*
X144146629Y-93077644D01*
X143938150Y-92765634D01*
X143672806Y-92500290D01*
X143360796Y-92291811D01*
X143014108Y-92148209D01*
X142646066Y-92075000D01*
X142270814Y-92075000D01*
X141902772Y-92148209D01*
X141556084Y-92291811D01*
X141244074Y-92500290D01*
X140978730Y-92765634D01*
X140770251Y-93077644D01*
X140626649Y-93424332D01*
X140553440Y-93792374D01*
X139065000Y-93792374D01*
X138991791Y-93424332D01*
X138848189Y-93077644D01*
X138639710Y-92765634D01*
X138374366Y-92500290D01*
X138062356Y-92291811D01*
X137715668Y-92148209D01*
X137347626Y-92075000D01*
X136972374Y-92075000D01*
X136604332Y-92148209D01*
X136257644Y-92291811D01*
X135945634Y-92500290D01*
X135680290Y-92765634D01*
X135471811Y-93077644D01*
X135328209Y-93424332D01*
X135255000Y-93792374D01*
X133766560Y-93792374D01*
X133693351Y-93424332D01*
X133549749Y-93077644D01*
X133341270Y-92765634D01*
X133075926Y-92500290D01*
X132763916Y-92291811D01*
X132417228Y-92148209D01*
X132049186Y-92075000D01*
X131673934Y-92075000D01*
X131305892Y-92148209D01*
X130959204Y-92291811D01*
X130647194Y-92500290D01*
X130381850Y-92765634D01*
X130173371Y-93077644D01*
X130029769Y-93424332D01*
X129956560Y-93792374D01*
X115010000Y-93792374D01*
X115010000Y-88994314D01*
X129956560Y-88994314D01*
X129956560Y-89369566D01*
X130029769Y-89737608D01*
X130173371Y-90084296D01*
X130381850Y-90396306D01*
X130647194Y-90661650D01*
X130959204Y-90870129D01*
X131305892Y-91013731D01*
X131673934Y-91086940D01*
X132049186Y-91086940D01*
X132417228Y-91013731D01*
X132763916Y-90870129D01*
X133075926Y-90661650D01*
X133341270Y-90396306D01*
X133549749Y-90084296D01*
X133693351Y-89737608D01*
X133766560Y-89369566D01*
X133766560Y-88994314D01*
X135255000Y-88994314D01*
X135255000Y-89369566D01*
X135328209Y-89737608D01*
X135471811Y-90084296D01*
X135680290Y-90396306D01*
X135945634Y-90661650D01*
X136257644Y-90870129D01*
X136604332Y-91013731D01*
X136972374Y-91086940D01*
X137347626Y-91086940D01*
X137715668Y-91013731D01*
X138062356Y-90870129D01*
X138374366Y-90661650D01*
X138639710Y-90396306D01*
X138848189Y-90084296D01*
X138991791Y-89737608D01*
X139065000Y-89369566D01*
X139065000Y-88994314D01*
X138991791Y-88626272D01*
X138848189Y-88279584D01*
X138639710Y-87967574D01*
X138374366Y-87702230D01*
X138062356Y-87493751D01*
X137715668Y-87350149D01*
X137347626Y-87276940D01*
X136972374Y-87276940D01*
X136604332Y-87350149D01*
X136257644Y-87493751D01*
X135945634Y-87702230D01*
X135680290Y-87967574D01*
X135471811Y-88279584D01*
X135328209Y-88626272D01*
X135255000Y-88994314D01*
X133766560Y-88994314D01*
X133693351Y-88626272D01*
X133549749Y-88279584D01*
X133341270Y-87967574D01*
X133075926Y-87702230D01*
X132763916Y-87493751D01*
X132417228Y-87350149D01*
X132049186Y-87276940D01*
X131673934Y-87276940D01*
X131305892Y-87350149D01*
X130959204Y-87493751D01*
X130647194Y-87702230D01*
X130381850Y-87967574D01*
X130173371Y-88279584D01*
X130029769Y-88626272D01*
X129956560Y-88994314D01*
X115010000Y-88994314D01*
X115010000Y-77050000D01*
X119796928Y-77050000D01*
X119809188Y-77174482D01*
X119845498Y-77294180D01*
X119904463Y-77404494D01*
X119983815Y-77501185D01*
X120080506Y-77580537D01*
X120190820Y-77639502D01*
X120263380Y-77661513D01*
X120131525Y-77793368D01*
X119969010Y-78036589D01*
X119857068Y-78306842D01*
X119800000Y-78593740D01*
X119800000Y-78886260D01*
X119857068Y-79173158D01*
X119969010Y-79443411D01*
X120131525Y-79686632D01*
X120338368Y-79893475D01*
X120512760Y-80010000D01*
X120338368Y-80126525D01*
X120131525Y-80333368D01*
X119969010Y-80576589D01*
X119857068Y-80846842D01*
X119800000Y-81133740D01*
X119800000Y-81426260D01*
X119857068Y-81713158D01*
X119969010Y-81983411D01*
X120131525Y-82226632D01*
X120338368Y-82433475D01*
X120581589Y-82595990D01*
X120851842Y-82707932D01*
X121138740Y-82765000D01*
X121431260Y-82765000D01*
X121718158Y-82707932D01*
X121988411Y-82595990D01*
X122231632Y-82433475D01*
X122401068Y-82264039D01*
X130688096Y-82264039D01*
X130728754Y-82398087D01*
X130848963Y-82652420D01*
X131016481Y-82878414D01*
X131224869Y-83067385D01*
X131466119Y-83212070D01*
X131730960Y-83306909D01*
X131953000Y-83185624D01*
X131953000Y-82042000D01*
X132207000Y-82042000D01*
X132207000Y-83185624D01*
X132429040Y-83306909D01*
X132693881Y-83212070D01*
X132935131Y-83067385D01*
X133143519Y-82878414D01*
X133311037Y-82652420D01*
X133431246Y-82398087D01*
X133471904Y-82264039D01*
X133349915Y-82042000D01*
X132207000Y-82042000D01*
X131953000Y-82042000D01*
X130810085Y-82042000D01*
X130688096Y-82264039D01*
X122401068Y-82264039D01*
X122438475Y-82226632D01*
X122600990Y-81983411D01*
X122712932Y-81713158D01*
X122742211Y-81565961D01*
X130688096Y-81565961D01*
X130810085Y-81788000D01*
X131953000Y-81788000D01*
X131953000Y-80644376D01*
X132207000Y-80644376D01*
X132207000Y-81788000D01*
X133349915Y-81788000D01*
X133471904Y-81565961D01*
X133431246Y-81431913D01*
X133311037Y-81177580D01*
X133143519Y-80951586D01*
X132935131Y-80762615D01*
X132693881Y-80617930D01*
X132429040Y-80523091D01*
X132207000Y-80644376D01*
X131953000Y-80644376D01*
X131730960Y-80523091D01*
X131466119Y-80617930D01*
X131224869Y-80762615D01*
X131016481Y-80951586D01*
X130848963Y-81177580D01*
X130728754Y-81431913D01*
X130688096Y-81565961D01*
X122742211Y-81565961D01*
X122770000Y-81426260D01*
X122770000Y-81133740D01*
X122712932Y-80846842D01*
X122600990Y-80576589D01*
X122438475Y-80333368D01*
X122231632Y-80126525D01*
X122057240Y-80010000D01*
X122231632Y-79893475D01*
X122438475Y-79686632D01*
X122600990Y-79443411D01*
X122712932Y-79173158D01*
X122770000Y-78886260D01*
X122770000Y-78593740D01*
X122712932Y-78306842D01*
X122600990Y-78036589D01*
X122438475Y-77793368D01*
X122306620Y-77661513D01*
X122379180Y-77639502D01*
X122489494Y-77580537D01*
X122586185Y-77501185D01*
X122665537Y-77404494D01*
X122721863Y-77299117D01*
X130345000Y-77299117D01*
X130345000Y-77640883D01*
X130411675Y-77976081D01*
X130542463Y-78291831D01*
X130732337Y-78575998D01*
X130974002Y-78817663D01*
X131258169Y-79007537D01*
X131573919Y-79138325D01*
X131909117Y-79205000D01*
X132250883Y-79205000D01*
X132586081Y-79138325D01*
X132901831Y-79007537D01*
X133185998Y-78817663D01*
X133427663Y-78575998D01*
X133617537Y-78291831D01*
X133748325Y-77976081D01*
X133815000Y-77640883D01*
X133815000Y-77299117D01*
X133748325Y-76963919D01*
X133617537Y-76648169D01*
X133427663Y-76364002D01*
X133185998Y-76122337D01*
X132901831Y-75932463D01*
X132586081Y-75801675D01*
X132250883Y-75735000D01*
X131909117Y-75735000D01*
X131573919Y-75801675D01*
X131258169Y-75932463D01*
X130974002Y-76122337D01*
X130732337Y-76364002D01*
X130542463Y-76648169D01*
X130411675Y-76963919D01*
X130345000Y-77299117D01*
X122721863Y-77299117D01*
X122724502Y-77294180D01*
X122760812Y-77174482D01*
X122773072Y-77050000D01*
X122770000Y-76485750D01*
X122611250Y-76327000D01*
X121412000Y-76327000D01*
X121412000Y-76347000D01*
X121158000Y-76347000D01*
X121158000Y-76327000D01*
X119958750Y-76327000D01*
X119800000Y-76485750D01*
X119796928Y-77050000D01*
X115010000Y-77050000D01*
X115010000Y-75350000D01*
X119796928Y-75350000D01*
X119800000Y-75914250D01*
X119958750Y-76073000D01*
X121158000Y-76073000D01*
X121158000Y-74873750D01*
X121412000Y-74873750D01*
X121412000Y-76073000D01*
X122611250Y-76073000D01*
X122770000Y-75914250D01*
X122773072Y-75350000D01*
X122760812Y-75225518D01*
X122724502Y-75105820D01*
X122665537Y-74995506D01*
X122586185Y-74898815D01*
X122489494Y-74819463D01*
X122379180Y-74760498D01*
X122259482Y-74724188D01*
X122135000Y-74711928D01*
X121570750Y-74715000D01*
X121412000Y-74873750D01*
X121158000Y-74873750D01*
X120999250Y-74715000D01*
X120435000Y-74711928D01*
X120310518Y-74724188D01*
X120190820Y-74760498D01*
X120080506Y-74819463D01*
X119983815Y-74898815D01*
X119904463Y-74995506D01*
X119845498Y-75105820D01*
X119809188Y-75225518D01*
X119796928Y-75350000D01*
X115010000Y-75350000D01*
X115010000Y-67095000D01*
X119796928Y-67095000D01*
X119796928Y-68795000D01*
X119809188Y-68919482D01*
X119845498Y-69039180D01*
X119904463Y-69149494D01*
X119983815Y-69246185D01*
X120080506Y-69325537D01*
X120190820Y-69384502D01*
X120263380Y-69406513D01*
X120131525Y-69538368D01*
X119969010Y-69781589D01*
X119857068Y-70051842D01*
X119800000Y-70338740D01*
X119800000Y-70631260D01*
X119857068Y-70918158D01*
X119969010Y-71188411D01*
X120131525Y-71431632D01*
X120338368Y-71638475D01*
X120581589Y-71800990D01*
X120851842Y-71912932D01*
X121138740Y-71970000D01*
X121431260Y-71970000D01*
X121718158Y-71912932D01*
X121988411Y-71800990D01*
X122231632Y-71638475D01*
X122438475Y-71431632D01*
X122600990Y-71188411D01*
X122712932Y-70918158D01*
X122770000Y-70631260D01*
X122770000Y-70338740D01*
X122712932Y-70051842D01*
X122600990Y-69781589D01*
X122438475Y-69538368D01*
X122306620Y-69406513D01*
X122379180Y-69384502D01*
X122489494Y-69325537D01*
X122586185Y-69246185D01*
X122665537Y-69149494D01*
X122724502Y-69039180D01*
X122760812Y-68919482D01*
X122773072Y-68795000D01*
X122773072Y-67095000D01*
X122760812Y-66970518D01*
X122724502Y-66850820D01*
X122665537Y-66740506D01*
X122586185Y-66643815D01*
X122489494Y-66564463D01*
X122379180Y-66505498D01*
X122259482Y-66469188D01*
X122135000Y-66456928D01*
X120435000Y-66456928D01*
X120310518Y-66469188D01*
X120190820Y-66505498D01*
X120080506Y-66564463D01*
X119983815Y-66643815D01*
X119904463Y-66740506D01*
X119845498Y-66850820D01*
X119809188Y-66970518D01*
X119796928Y-67095000D01*
X115010000Y-67095000D01*
X115010000Y-46341578D01*
X134924999Y-66256578D01*
X134925000Y-82490020D01*
X134920718Y-82533499D01*
X134937804Y-82706989D01*
X134988411Y-82873812D01*
X135070589Y-83027558D01*
X135153467Y-83128545D01*
X135153470Y-83128548D01*
X135181183Y-83162316D01*
X135214951Y-83190029D01*
X140633838Y-88608917D01*
X140626649Y-88626272D01*
X140553440Y-88994314D01*
X140553440Y-89369566D01*
X140626649Y-89737608D01*
X140770251Y-90084296D01*
X140978730Y-90396306D01*
X141244074Y-90661650D01*
X141556084Y-90870129D01*
X141902772Y-91013731D01*
X142270814Y-91086940D01*
X142646066Y-91086940D01*
X143014108Y-91013731D01*
X143360796Y-90870129D01*
X143672806Y-90661650D01*
X143938150Y-90396306D01*
X144146629Y-90084296D01*
X144290231Y-89737608D01*
X144363440Y-89369566D01*
X144363440Y-88994314D01*
X144290231Y-88626272D01*
X144146629Y-88279584D01*
X143938150Y-87967574D01*
X143672806Y-87702230D01*
X143360796Y-87493751D01*
X143014108Y-87350149D01*
X142646066Y-87276940D01*
X142270814Y-87276940D01*
X141902772Y-87350149D01*
X141885417Y-87357338D01*
X136694999Y-82166921D01*
X136694999Y-72718862D01*
X136712257Y-72726011D01*
X137008816Y-72785000D01*
X137311184Y-72785000D01*
X137607743Y-72726011D01*
X137887095Y-72610299D01*
X138138505Y-72442312D01*
X138352312Y-72228505D01*
X138520299Y-71977095D01*
X138636011Y-71697743D01*
X138679173Y-71480751D01*
X142905002Y-75706581D01*
X142905002Y-75731928D01*
X141140000Y-75731928D01*
X141015518Y-75744188D01*
X140895820Y-75780498D01*
X140785506Y-75839463D01*
X140688815Y-75918815D01*
X140609463Y-76015506D01*
X140550498Y-76125820D01*
X140514188Y-76245518D01*
X140501928Y-76370000D01*
X140501928Y-78570000D01*
X140514188Y-78694482D01*
X140550498Y-78814180D01*
X140609463Y-78924494D01*
X140688815Y-79021185D01*
X140785506Y-79100537D01*
X140895820Y-79159502D01*
X141015518Y-79195812D01*
X141140000Y-79208072D01*
X142905001Y-79208072D01*
X142905001Y-79998420D01*
X142416439Y-80486983D01*
X142381335Y-80480000D01*
X142098665Y-80480000D01*
X141821426Y-80535147D01*
X141560273Y-80643320D01*
X141325241Y-80800363D01*
X141125363Y-81000241D01*
X140968320Y-81235273D01*
X140860147Y-81496426D01*
X140805000Y-81773665D01*
X140805000Y-82056335D01*
X140860147Y-82333574D01*
X140968320Y-82594727D01*
X141125363Y-82829759D01*
X141325241Y-83029637D01*
X141560273Y-83186680D01*
X141821426Y-83294853D01*
X142098665Y-83350000D01*
X142381335Y-83350000D01*
X142658574Y-83294853D01*
X142919727Y-83186680D01*
X143154759Y-83029637D01*
X143354637Y-82829759D01*
X143511680Y-82594727D01*
X143619853Y-82333574D01*
X143675000Y-82056335D01*
X143675000Y-81773665D01*
X143668017Y-81738561D01*
X143769688Y-81636890D01*
X151593524Y-81636890D01*
X151638175Y-81784099D01*
X151763359Y-82046920D01*
X151937412Y-82280269D01*
X152153645Y-82475178D01*
X152403748Y-82624157D01*
X152678109Y-82721481D01*
X152908000Y-82600814D01*
X152908000Y-81407000D01*
X153162000Y-81407000D01*
X153162000Y-82600814D01*
X153391891Y-82721481D01*
X153666252Y-82624157D01*
X153916355Y-82475178D01*
X154132588Y-82280269D01*
X154306641Y-82046920D01*
X154431825Y-81784099D01*
X154476476Y-81636890D01*
X154355155Y-81407000D01*
X153162000Y-81407000D01*
X152908000Y-81407000D01*
X151714845Y-81407000D01*
X151593524Y-81636890D01*
X143769688Y-81636890D01*
X144385051Y-81021528D01*
X144418818Y-80993816D01*
X144476846Y-80923110D01*
X144529411Y-80859059D01*
X144529412Y-80859058D01*
X144611590Y-80705312D01*
X144662196Y-80538489D01*
X144675001Y-80408476D01*
X144675001Y-80408466D01*
X144679282Y-80365000D01*
X144675001Y-80321534D01*
X144675001Y-77890000D01*
X151546928Y-77890000D01*
X151546928Y-79590000D01*
X151559188Y-79714482D01*
X151595498Y-79834180D01*
X151654463Y-79944494D01*
X151733815Y-80041185D01*
X151830506Y-80120537D01*
X151940820Y-80179502D01*
X152021466Y-80203966D01*
X151937412Y-80279731D01*
X151763359Y-80513080D01*
X151638175Y-80775901D01*
X151593524Y-80923110D01*
X151714845Y-81153000D01*
X152908000Y-81153000D01*
X152908000Y-81133000D01*
X153162000Y-81133000D01*
X153162000Y-81153000D01*
X154355155Y-81153000D01*
X154476476Y-80923110D01*
X154431825Y-80775901D01*
X154306641Y-80513080D01*
X154132588Y-80279731D01*
X154048534Y-80203966D01*
X154129180Y-80179502D01*
X154239494Y-80120537D01*
X154336185Y-80041185D01*
X154415537Y-79944494D01*
X154474502Y-79834180D01*
X154510812Y-79714482D01*
X154523072Y-79590000D01*
X154523072Y-77890000D01*
X154510812Y-77765518D01*
X154474502Y-77645820D01*
X154415537Y-77535506D01*
X154336185Y-77438815D01*
X154239494Y-77359463D01*
X154129180Y-77300498D01*
X154009482Y-77264188D01*
X153885000Y-77251928D01*
X152185000Y-77251928D01*
X152060518Y-77264188D01*
X151940820Y-77300498D01*
X151830506Y-77359463D01*
X151733815Y-77438815D01*
X151654463Y-77535506D01*
X151595498Y-77645820D01*
X151559188Y-77765518D01*
X151546928Y-77890000D01*
X144675001Y-77890000D01*
X144675001Y-75383466D01*
X144679282Y-75340000D01*
X144675001Y-75296534D01*
X144675001Y-75296524D01*
X144662196Y-75166511D01*
X144611590Y-74999688D01*
X144529412Y-74845942D01*
X144505211Y-74816453D01*
X144446533Y-74744954D01*
X144446531Y-74744952D01*
X144418818Y-74711184D01*
X144385050Y-74683471D01*
X138698072Y-68996494D01*
X138698072Y-67810000D01*
X138685812Y-67685518D01*
X138649502Y-67565820D01*
X138590537Y-67455506D01*
X138511185Y-67358815D01*
X138414494Y-67279463D01*
X138304180Y-67220498D01*
X138184482Y-67184188D01*
X138060000Y-67171928D01*
X136694999Y-67171928D01*
X136694999Y-65933468D01*
X136699280Y-65889999D01*
X136694999Y-65846530D01*
X136694999Y-65846522D01*
X136682194Y-65716509D01*
X136631588Y-65549686D01*
X136549410Y-65395940D01*
X136438816Y-65261182D01*
X136405050Y-65233471D01*
X114558230Y-43386652D01*
X114588961Y-43380539D01*
X139748470Y-68540049D01*
X139776183Y-68573817D01*
X139809951Y-68601530D01*
X139809953Y-68601532D01*
X139881452Y-68660210D01*
X139910941Y-68684411D01*
X140064687Y-68766589D01*
X140231510Y-68817195D01*
X140361523Y-68830000D01*
X140361533Y-68830000D01*
X140404999Y-68834281D01*
X140448465Y-68830000D01*
X151550375Y-68830000D01*
X151559188Y-68919482D01*
X151595498Y-69039180D01*
X151654463Y-69149494D01*
X151733815Y-69246185D01*
X151830506Y-69325537D01*
X151940820Y-69384502D01*
X152013380Y-69406513D01*
X151881525Y-69538368D01*
X151719010Y-69781589D01*
X151607068Y-70051842D01*
X151550000Y-70338740D01*
X151550000Y-70631260D01*
X151607068Y-70918158D01*
X151719010Y-71188411D01*
X151881525Y-71431632D01*
X152088368Y-71638475D01*
X152331589Y-71800990D01*
X152601842Y-71912932D01*
X152888740Y-71970000D01*
X153181260Y-71970000D01*
X153468158Y-71912932D01*
X153738411Y-71800990D01*
X153981632Y-71638475D01*
X154188475Y-71431632D01*
X154350990Y-71188411D01*
X154462932Y-70918158D01*
X154520000Y-70631260D01*
X154520000Y-70338740D01*
X154505539Y-70266040D01*
X154930051Y-69841528D01*
X154963818Y-69813816D01*
X154996504Y-69773989D01*
X155074411Y-69679059D01*
X155074412Y-69679058D01*
X155156590Y-69525312D01*
X155207196Y-69358489D01*
X155220001Y-69228476D01*
X155220001Y-69228466D01*
X155224282Y-69185000D01*
X155220001Y-69141533D01*
X155220001Y-48021579D01*
X159146580Y-44095001D01*
X168290532Y-44095001D01*
X168334001Y-44099282D01*
X168377470Y-44095001D01*
X168377478Y-44095001D01*
X168507491Y-44082196D01*
X168674314Y-44031590D01*
X168828060Y-43949412D01*
X168962818Y-43838818D01*
X168990535Y-43805045D01*
X169605051Y-43190530D01*
X169638818Y-43162818D01*
X169679720Y-43112980D01*
X169736765Y-43043470D01*
X169749412Y-43028060D01*
X169831590Y-42874314D01*
X169882196Y-42707491D01*
X169895001Y-42577478D01*
X169895001Y-42577468D01*
X169899282Y-42534002D01*
X169895001Y-42490536D01*
X169895001Y-34373466D01*
X169899282Y-34330000D01*
X169895001Y-34286534D01*
X169895001Y-34286524D01*
X169882196Y-34156511D01*
X169831590Y-33989688D01*
X169749412Y-33835942D01*
X169725211Y-33806453D01*
X169666533Y-33734954D01*
X169666531Y-33734952D01*
X169638818Y-33701184D01*
X169605050Y-33673471D01*
X169254727Y-33323148D01*
X176296457Y-33323148D01*
X176572627Y-33741118D01*
X177117557Y-34031649D01*
X177708696Y-34210287D01*
X178323328Y-34270168D01*
X178937831Y-34208990D01*
X179528592Y-34029103D01*
X180067373Y-33741118D01*
X180343543Y-33323148D01*
X178320000Y-31299605D01*
X176296457Y-33323148D01*
X169254727Y-33323148D01*
X167054907Y-31123328D01*
X175169832Y-31123328D01*
X175231010Y-31737831D01*
X175410897Y-32328592D01*
X175698882Y-32867373D01*
X176116852Y-33143543D01*
X178140395Y-31120000D01*
X178499605Y-31120000D01*
X180523148Y-33143543D01*
X180941118Y-32867373D01*
X181231649Y-32322443D01*
X181410287Y-31731304D01*
X181470168Y-31116672D01*
X181408990Y-30502169D01*
X181229103Y-29911408D01*
X180941118Y-29372627D01*
X180523148Y-29096457D01*
X178499605Y-31120000D01*
X178140395Y-31120000D01*
X176116852Y-29096457D01*
X175698882Y-29372627D01*
X175408351Y-29917557D01*
X175229713Y-30508696D01*
X175169832Y-31123328D01*
X167054907Y-31123328D01*
X164848431Y-28916852D01*
X176296457Y-28916852D01*
X178320000Y-30940395D01*
X180343543Y-28916852D01*
X180067373Y-28498882D01*
X179522443Y-28208351D01*
X178931304Y-28029713D01*
X178316672Y-27969832D01*
X177702169Y-28031010D01*
X177111408Y-28210897D01*
X176572627Y-28498882D01*
X176296457Y-28916852D01*
X164848431Y-28916852D01*
X162818230Y-26886652D01*
X163063158Y-26837932D01*
X163333411Y-26725990D01*
X163576632Y-26563475D01*
X163783475Y-26356632D01*
X163905195Y-26174466D01*
X163974822Y-26291355D01*
X164169731Y-26507588D01*
X164403080Y-26681641D01*
X164665901Y-26806825D01*
X164813110Y-26851476D01*
X165043000Y-26730155D01*
X165043000Y-25537000D01*
X165297000Y-25537000D01*
X165297000Y-26730155D01*
X165526890Y-26851476D01*
X165674099Y-26806825D01*
X165936920Y-26681641D01*
X166170269Y-26507588D01*
X166365178Y-26291355D01*
X166440000Y-26165745D01*
X166514822Y-26291355D01*
X166709731Y-26507588D01*
X166943080Y-26681641D01*
X167205901Y-26806825D01*
X167353110Y-26851476D01*
X167583000Y-26730155D01*
X167583000Y-25537000D01*
X167837000Y-25537000D01*
X167837000Y-26730155D01*
X168066890Y-26851476D01*
X168214099Y-26806825D01*
X168476920Y-26681641D01*
X168710269Y-26507588D01*
X168905178Y-26291355D01*
X169054157Y-26041252D01*
X169151481Y-25766891D01*
X169030814Y-25537000D01*
X167837000Y-25537000D01*
X167583000Y-25537000D01*
X165297000Y-25537000D01*
X165043000Y-25537000D01*
X165023000Y-25537000D01*
X165023000Y-25283000D01*
X165043000Y-25283000D01*
X165043000Y-24089845D01*
X165297000Y-24089845D01*
X165297000Y-25283000D01*
X167583000Y-25283000D01*
X167583000Y-24089845D01*
X167837000Y-24089845D01*
X167837000Y-25283000D01*
X169030814Y-25283000D01*
X169151481Y-25053109D01*
X169054157Y-24778748D01*
X168905178Y-24528645D01*
X168710269Y-24312412D01*
X168476920Y-24138359D01*
X168214099Y-24013175D01*
X168066890Y-23968524D01*
X167837000Y-24089845D01*
X167583000Y-24089845D01*
X167353110Y-23968524D01*
X167205901Y-24013175D01*
X166943080Y-24138359D01*
X166709731Y-24312412D01*
X166514822Y-24528645D01*
X166440000Y-24654255D01*
X166365178Y-24528645D01*
X166170269Y-24312412D01*
X165936920Y-24138359D01*
X165674099Y-24013175D01*
X165526890Y-23968524D01*
X165297000Y-24089845D01*
X165043000Y-24089845D01*
X164813110Y-23968524D01*
X164665901Y-24013175D01*
X164403080Y-24138359D01*
X164169731Y-24312412D01*
X163974822Y-24528645D01*
X163905195Y-24645534D01*
X163783475Y-24463368D01*
X163576632Y-24256525D01*
X163333411Y-24094010D01*
X163063158Y-23982068D01*
X162776260Y-23925000D01*
X162483740Y-23925000D01*
X162196842Y-23982068D01*
X161926589Y-24094010D01*
X161683368Y-24256525D01*
X161476525Y-24463368D01*
X161360000Y-24637760D01*
X161243475Y-24463368D01*
X161036632Y-24256525D01*
X160793411Y-24094010D01*
X160523158Y-23982068D01*
X160236260Y-23925000D01*
X159943740Y-23925000D01*
X159656842Y-23982068D01*
X159386589Y-24094010D01*
X159143368Y-24256525D01*
X158936525Y-24463368D01*
X158820000Y-24637760D01*
X158703475Y-24463368D01*
X158496632Y-24256525D01*
X158253411Y-24094010D01*
X157983158Y-23982068D01*
X157696260Y-23925000D01*
X157403740Y-23925000D01*
X157116842Y-23982068D01*
X156846589Y-24094010D01*
X156603368Y-24256525D01*
X156396525Y-24463368D01*
X156280000Y-24637760D01*
X156163475Y-24463368D01*
X155956632Y-24256525D01*
X155713411Y-24094010D01*
X155443158Y-23982068D01*
X155156260Y-23925000D01*
X154863740Y-23925000D01*
X154576842Y-23982068D01*
X154306589Y-24094010D01*
X154063368Y-24256525D01*
X153856525Y-24463368D01*
X153740000Y-24637760D01*
X153623475Y-24463368D01*
X153416632Y-24256525D01*
X153173411Y-24094010D01*
X152903158Y-23982068D01*
X152616260Y-23925000D01*
X152323740Y-23925000D01*
X152036842Y-23982068D01*
X151766589Y-24094010D01*
X151523368Y-24256525D01*
X151316525Y-24463368D01*
X151200000Y-24637760D01*
X151083475Y-24463368D01*
X150876632Y-24256525D01*
X150633411Y-24094010D01*
X150363158Y-23982068D01*
X150076260Y-23925000D01*
X149783740Y-23925000D01*
X149496842Y-23982068D01*
X149226589Y-24094010D01*
X148983368Y-24256525D01*
X148776525Y-24463368D01*
X148660000Y-24637760D01*
X148543475Y-24463368D01*
X148336632Y-24256525D01*
X148093411Y-24094010D01*
X147823158Y-23982068D01*
X147536260Y-23925000D01*
X147243740Y-23925000D01*
X146956842Y-23982068D01*
X146686589Y-24094010D01*
X146443368Y-24256525D01*
X146236525Y-24463368D01*
X146120000Y-24637760D01*
X146003475Y-24463368D01*
X145796632Y-24256525D01*
X145553411Y-24094010D01*
X145283158Y-23982068D01*
X144996260Y-23925000D01*
X144703740Y-23925000D01*
X144416842Y-23982068D01*
X144146589Y-24094010D01*
X143903368Y-24256525D01*
X143696525Y-24463368D01*
X143580000Y-24637760D01*
X143463475Y-24463368D01*
X143256632Y-24256525D01*
X143013411Y-24094010D01*
X142743158Y-23982068D01*
X142456260Y-23925000D01*
X142163740Y-23925000D01*
X141876842Y-23982068D01*
X141606589Y-24094010D01*
X141363368Y-24256525D01*
X141156525Y-24463368D01*
X141040000Y-24637760D01*
X140923475Y-24463368D01*
X140716632Y-24256525D01*
X140473411Y-24094010D01*
X140203158Y-23982068D01*
X139916260Y-23925000D01*
X139623740Y-23925000D01*
X139336842Y-23982068D01*
X139066589Y-24094010D01*
X138823368Y-24256525D01*
X138616525Y-24463368D01*
X138500000Y-24637760D01*
X138383475Y-24463368D01*
X138176632Y-24256525D01*
X137933411Y-24094010D01*
X137663158Y-23982068D01*
X137376260Y-23925000D01*
X137083740Y-23925000D01*
X136796842Y-23982068D01*
X136526589Y-24094010D01*
X136283368Y-24256525D01*
X136076525Y-24463368D01*
X135960000Y-24637760D01*
X135843475Y-24463368D01*
X135636632Y-24256525D01*
X135393411Y-24094010D01*
X135123158Y-23982068D01*
X134836260Y-23925000D01*
X134543740Y-23925000D01*
X134256842Y-23982068D01*
X133986589Y-24094010D01*
X133743368Y-24256525D01*
X133536525Y-24463368D01*
X133420000Y-24637760D01*
X133303475Y-24463368D01*
X133096632Y-24256525D01*
X132853411Y-24094010D01*
X132583158Y-23982068D01*
X132296260Y-23925000D01*
X132003740Y-23925000D01*
X131716842Y-23982068D01*
X131446589Y-24094010D01*
X131203368Y-24256525D01*
X130996525Y-24463368D01*
X130880000Y-24637760D01*
X130763475Y-24463368D01*
X130556632Y-24256525D01*
X130313411Y-24094010D01*
X130043158Y-23982068D01*
X129756260Y-23925000D01*
X129463740Y-23925000D01*
X129176842Y-23982068D01*
X128906589Y-24094010D01*
X128663368Y-24256525D01*
X128456525Y-24463368D01*
X128340000Y-24637760D01*
X128223475Y-24463368D01*
X128016632Y-24256525D01*
X127773411Y-24094010D01*
X127503158Y-23982068D01*
X127216260Y-23925000D01*
X126923740Y-23925000D01*
X126636842Y-23982068D01*
X126366589Y-24094010D01*
X126123368Y-24256525D01*
X125916525Y-24463368D01*
X125800000Y-24637760D01*
X125683475Y-24463368D01*
X125476632Y-24256525D01*
X125233411Y-24094010D01*
X124963158Y-23982068D01*
X124676260Y-23925000D01*
X124383740Y-23925000D01*
X124096842Y-23982068D01*
X123826589Y-24094010D01*
X123583368Y-24256525D01*
X123376525Y-24463368D01*
X123260000Y-24637760D01*
X123143475Y-24463368D01*
X122936632Y-24256525D01*
X122693411Y-24094010D01*
X122423158Y-23982068D01*
X122136260Y-23925000D01*
X121843740Y-23925000D01*
X121556842Y-23982068D01*
X121286589Y-24094010D01*
X121043368Y-24256525D01*
X120836525Y-24463368D01*
X120720000Y-24637760D01*
X120603475Y-24463368D01*
X120396632Y-24256525D01*
X120153411Y-24094010D01*
X119883158Y-23982068D01*
X119596260Y-23925000D01*
X119303740Y-23925000D01*
X119016842Y-23982068D01*
X118746589Y-24094010D01*
X118503368Y-24256525D01*
X118296525Y-24463368D01*
X118180000Y-24637760D01*
X118063475Y-24463368D01*
X117856632Y-24256525D01*
X117613411Y-24094010D01*
X117343158Y-23982068D01*
X117056260Y-23925000D01*
X116763740Y-23925000D01*
X116476842Y-23982068D01*
X116206589Y-24094010D01*
X115963368Y-24256525D01*
X115756525Y-24463368D01*
X115640000Y-24637760D01*
X115523475Y-24463368D01*
X115316632Y-24256525D01*
X115073411Y-24094010D01*
X114803158Y-23982068D01*
X114516260Y-23925000D01*
X114223740Y-23925000D01*
X113936842Y-23982068D01*
X113666589Y-24094010D01*
X113423368Y-24256525D01*
X113216525Y-24463368D01*
X113100000Y-24637760D01*
X112983475Y-24463368D01*
X112776632Y-24256525D01*
X112533411Y-24094010D01*
X112263158Y-23982068D01*
X111976260Y-23925000D01*
X111683740Y-23925000D01*
X111396842Y-23982068D01*
X111126589Y-24094010D01*
X110883368Y-24256525D01*
X110676525Y-24463368D01*
X110554805Y-24645534D01*
X110485178Y-24528645D01*
X110290269Y-24312412D01*
X110056920Y-24138359D01*
X109794099Y-24013175D01*
X109646890Y-23968524D01*
X109417000Y-24089845D01*
X109417000Y-25283000D01*
X109437000Y-25283000D01*
X109437000Y-25537000D01*
X109417000Y-25537000D01*
X109417000Y-26730155D01*
X109646890Y-26851476D01*
X109794099Y-26806825D01*
X110056920Y-26681641D01*
X110290269Y-26507588D01*
X110485178Y-26291355D01*
X110554805Y-26174466D01*
X110676525Y-26356632D01*
X110883368Y-26563475D01*
X111126589Y-26725990D01*
X111396842Y-26837932D01*
X111683740Y-26895000D01*
X111976260Y-26895000D01*
X112263158Y-26837932D01*
X112533411Y-26725990D01*
X112776632Y-26563475D01*
X112983475Y-26356632D01*
X113100000Y-26182240D01*
X113216525Y-26356632D01*
X113423368Y-26563475D01*
X113666589Y-26725990D01*
X113936842Y-26837932D01*
X114223740Y-26895000D01*
X114516260Y-26895000D01*
X114803158Y-26837932D01*
X115073411Y-26725990D01*
X115316632Y-26563475D01*
X115523475Y-26356632D01*
X115640000Y-26182240D01*
X115756525Y-26356632D01*
X115963368Y-26563475D01*
X116206589Y-26725990D01*
X116476842Y-26837932D01*
X116763740Y-26895000D01*
X117056260Y-26895000D01*
X117343158Y-26837932D01*
X117613411Y-26725990D01*
X117856632Y-26563475D01*
X118063475Y-26356632D01*
X118180000Y-26182240D01*
X118296525Y-26356632D01*
X118503368Y-26563475D01*
X118746589Y-26725990D01*
X119016842Y-26837932D01*
X119303740Y-26895000D01*
X119596260Y-26895000D01*
X119883158Y-26837932D01*
X120153411Y-26725990D01*
X120396632Y-26563475D01*
X120603475Y-26356632D01*
X120720000Y-26182240D01*
X120836525Y-26356632D01*
X121043368Y-26563475D01*
X121286589Y-26725990D01*
X121556842Y-26837932D01*
X121843740Y-26895000D01*
X122136260Y-26895000D01*
X122423158Y-26837932D01*
X122693411Y-26725990D01*
X122936632Y-26563475D01*
X123143475Y-26356632D01*
X123260000Y-26182240D01*
X123376525Y-26356632D01*
X123583368Y-26563475D01*
X123826589Y-26725990D01*
X124096842Y-26837932D01*
X124383740Y-26895000D01*
X124676260Y-26895000D01*
X124963158Y-26837932D01*
X125233411Y-26725990D01*
X125476632Y-26563475D01*
X125683475Y-26356632D01*
X125800000Y-26182240D01*
X125916525Y-26356632D01*
X126123368Y-26563475D01*
X126366589Y-26725990D01*
X126636842Y-26837932D01*
X126923740Y-26895000D01*
X127216260Y-26895000D01*
X127503158Y-26837932D01*
X127773411Y-26725990D01*
X128016632Y-26563475D01*
X128223475Y-26356632D01*
X128340000Y-26182240D01*
X128456525Y-26356632D01*
X128663368Y-26563475D01*
X128906589Y-26725990D01*
X129176842Y-26837932D01*
X129463740Y-26895000D01*
X129756260Y-26895000D01*
X130043158Y-26837932D01*
X130313411Y-26725990D01*
X130556632Y-26563475D01*
X130763475Y-26356632D01*
X130880000Y-26182240D01*
X130996525Y-26356632D01*
X131203368Y-26563475D01*
X131446589Y-26725990D01*
X131716842Y-26837932D01*
X132003740Y-26895000D01*
X132296260Y-26895000D01*
X132583158Y-26837932D01*
X132853411Y-26725990D01*
X133096632Y-26563475D01*
X133303475Y-26356632D01*
X133420000Y-26182240D01*
X133536525Y-26356632D01*
X133743368Y-26563475D01*
X133986589Y-26725990D01*
X134256842Y-26837932D01*
X134543740Y-26895000D01*
X134836260Y-26895000D01*
X135123158Y-26837932D01*
X135393411Y-26725990D01*
X135636632Y-26563475D01*
X135843475Y-26356632D01*
X135960000Y-26182240D01*
X136076525Y-26356632D01*
X136283368Y-26563475D01*
X136526589Y-26725990D01*
X136796842Y-26837932D01*
X137083740Y-26895000D01*
X137376260Y-26895000D01*
X137663158Y-26837932D01*
X137933411Y-26725990D01*
X138176632Y-26563475D01*
X138383475Y-26356632D01*
X138500000Y-26182240D01*
X138616525Y-26356632D01*
X138823368Y-26563475D01*
X139066589Y-26725990D01*
X139336842Y-26837932D01*
X139623740Y-26895000D01*
X139916260Y-26895000D01*
X140203158Y-26837932D01*
X140473411Y-26725990D01*
X140716632Y-26563475D01*
X140923475Y-26356632D01*
X141040000Y-26182240D01*
X141156525Y-26356632D01*
X141363368Y-26563475D01*
X141606589Y-26725990D01*
X141876842Y-26837932D01*
X142163740Y-26895000D01*
X142456260Y-26895000D01*
X142743158Y-26837932D01*
X143013411Y-26725990D01*
X143256632Y-26563475D01*
X143463475Y-26356632D01*
X143580000Y-26182240D01*
X143696525Y-26356632D01*
X143903368Y-26563475D01*
X144146589Y-26725990D01*
X144416842Y-26837932D01*
X144703740Y-26895000D01*
X144996260Y-26895000D01*
X145283158Y-26837932D01*
X145553411Y-26725990D01*
X145796632Y-26563475D01*
X146003475Y-26356632D01*
X146120000Y-26182240D01*
X146236525Y-26356632D01*
X146443368Y-26563475D01*
X146686589Y-26725990D01*
X146956842Y-26837932D01*
X147243740Y-26895000D01*
X147536260Y-26895000D01*
X147823158Y-26837932D01*
X148093411Y-26725990D01*
X148336632Y-26563475D01*
X148543475Y-26356632D01*
X148660000Y-26182240D01*
X148776525Y-26356632D01*
X148983368Y-26563475D01*
X149226589Y-26725990D01*
X149496842Y-26837932D01*
X149783740Y-26895000D01*
X150076260Y-26895000D01*
X150363158Y-26837932D01*
X150633411Y-26725990D01*
X150876632Y-26563475D01*
X151083475Y-26356632D01*
X151200000Y-26182240D01*
X151316525Y-26356632D01*
X151523368Y-26563475D01*
X151766589Y-26725990D01*
X152036842Y-26837932D01*
X152323740Y-26895000D01*
X152616260Y-26895000D01*
X152903158Y-26837932D01*
X153173411Y-26725990D01*
X153416632Y-26563475D01*
X153623475Y-26356632D01*
X153740000Y-26182240D01*
X153856525Y-26356632D01*
X154063368Y-26563475D01*
X154306589Y-26725990D01*
X154576842Y-26837932D01*
X154863740Y-26895000D01*
X155156260Y-26895000D01*
X155443158Y-26837932D01*
X155713411Y-26725990D01*
X155956632Y-26563475D01*
X156163475Y-26356632D01*
X156280000Y-26182240D01*
X156396525Y-26356632D01*
X156603368Y-26563475D01*
X156846589Y-26725990D01*
X157116842Y-26837932D01*
X157403740Y-26895000D01*
X157696260Y-26895000D01*
X157983158Y-26837932D01*
X158253411Y-26725990D01*
X158496632Y-26563475D01*
X158703475Y-26356632D01*
X158820000Y-26182240D01*
X158936525Y-26356632D01*
X159143368Y-26563475D01*
X159386589Y-26725990D01*
X159656842Y-26837932D01*
X159943740Y-26895000D01*
X160236260Y-26895000D01*
X160308961Y-26880539D01*
X168125002Y-34696581D01*
X168125002Y-35406150D01*
X168066890Y-35388524D01*
X167837000Y-35509845D01*
X167837000Y-36703000D01*
X167857000Y-36703000D01*
X167857000Y-36957000D01*
X167837000Y-36957000D01*
X167837000Y-38150155D01*
X168066890Y-38271476D01*
X168125002Y-38253850D01*
X168125001Y-40486150D01*
X168066890Y-40468524D01*
X167837000Y-40589845D01*
X167837000Y-41783000D01*
X167857000Y-41783000D01*
X167857000Y-42037000D01*
X167837000Y-42037000D01*
X167837000Y-42057000D01*
X167583000Y-42057000D01*
X167583000Y-42037000D01*
X165297000Y-42037000D01*
X165297000Y-42057000D01*
X165043000Y-42057000D01*
X165043000Y-42037000D01*
X165023000Y-42037000D01*
X165023000Y-41783000D01*
X165043000Y-41783000D01*
X165043000Y-40589845D01*
X165297000Y-40589845D01*
X165297000Y-41783000D01*
X167583000Y-41783000D01*
X167583000Y-40589845D01*
X167353110Y-40468524D01*
X167205901Y-40513175D01*
X166943080Y-40638359D01*
X166709731Y-40812412D01*
X166514822Y-41028645D01*
X166440000Y-41154255D01*
X166365178Y-41028645D01*
X166170269Y-40812412D01*
X165936920Y-40638359D01*
X165674099Y-40513175D01*
X165526890Y-40468524D01*
X165297000Y-40589845D01*
X165043000Y-40589845D01*
X164813110Y-40468524D01*
X164665901Y-40513175D01*
X164403080Y-40638359D01*
X164169731Y-40812412D01*
X163974822Y-41028645D01*
X163905195Y-41145534D01*
X163783475Y-40963368D01*
X163576632Y-40756525D01*
X163333411Y-40594010D01*
X163063158Y-40482068D01*
X162776260Y-40425000D01*
X162483740Y-40425000D01*
X162196842Y-40482068D01*
X161926589Y-40594010D01*
X161683368Y-40756525D01*
X161476525Y-40963368D01*
X161360000Y-41137760D01*
X161243475Y-40963368D01*
X161036632Y-40756525D01*
X160793411Y-40594010D01*
X160523158Y-40482068D01*
X160236260Y-40425000D01*
X159943740Y-40425000D01*
X159656842Y-40482068D01*
X159386589Y-40594010D01*
X159143368Y-40756525D01*
X158936525Y-40963368D01*
X158820000Y-41137760D01*
X158703475Y-40963368D01*
X158496632Y-40756525D01*
X158253411Y-40594010D01*
X157983158Y-40482068D01*
X157696260Y-40425000D01*
X157403740Y-40425000D01*
X157116842Y-40482068D01*
X156846589Y-40594010D01*
X156603368Y-40756525D01*
X156396525Y-40963368D01*
X156280000Y-41137760D01*
X156163475Y-40963368D01*
X155956632Y-40756525D01*
X155713411Y-40594010D01*
X155443158Y-40482068D01*
X155156260Y-40425000D01*
X154863740Y-40425000D01*
X154576842Y-40482068D01*
X154306589Y-40594010D01*
X154063368Y-40756525D01*
X153856525Y-40963368D01*
X153740000Y-41137760D01*
X153623475Y-40963368D01*
X153416632Y-40756525D01*
X153173411Y-40594010D01*
X152903158Y-40482068D01*
X152616260Y-40425000D01*
X152323740Y-40425000D01*
X152036842Y-40482068D01*
X151766589Y-40594010D01*
X151523368Y-40756525D01*
X151316525Y-40963368D01*
X151200000Y-41137760D01*
X151083475Y-40963368D01*
X150876632Y-40756525D01*
X150633411Y-40594010D01*
X150363158Y-40482068D01*
X150076260Y-40425000D01*
X149783740Y-40425000D01*
X149496842Y-40482068D01*
X149226589Y-40594010D01*
X148983368Y-40756525D01*
X148776525Y-40963368D01*
X148660000Y-41137760D01*
X148543475Y-40963368D01*
X148336632Y-40756525D01*
X148093411Y-40594010D01*
X147823158Y-40482068D01*
X147536260Y-40425000D01*
X147243740Y-40425000D01*
X146956842Y-40482068D01*
X146686589Y-40594010D01*
X146443368Y-40756525D01*
X146236525Y-40963368D01*
X146120000Y-41137760D01*
X146003475Y-40963368D01*
X145796632Y-40756525D01*
X145553411Y-40594010D01*
X145283158Y-40482068D01*
X144996260Y-40425000D01*
X144703740Y-40425000D01*
X144416842Y-40482068D01*
X144146589Y-40594010D01*
X143903368Y-40756525D01*
X143696525Y-40963368D01*
X143580000Y-41137760D01*
X143463475Y-40963368D01*
X143256632Y-40756525D01*
X143013411Y-40594010D01*
X142743158Y-40482068D01*
X142456260Y-40425000D01*
X142163740Y-40425000D01*
X141876842Y-40482068D01*
X141606589Y-40594010D01*
X141363368Y-40756525D01*
X141156525Y-40963368D01*
X141040000Y-41137760D01*
X140923475Y-40963368D01*
X140716632Y-40756525D01*
X140473411Y-40594010D01*
X140203158Y-40482068D01*
X139916260Y-40425000D01*
X139623740Y-40425000D01*
X139336842Y-40482068D01*
X139066589Y-40594010D01*
X138823368Y-40756525D01*
X138616525Y-40963368D01*
X138500000Y-41137760D01*
X138383475Y-40963368D01*
X138176632Y-40756525D01*
X137933411Y-40594010D01*
X137663158Y-40482068D01*
X137376260Y-40425000D01*
X137083740Y-40425000D01*
X136796842Y-40482068D01*
X136526589Y-40594010D01*
X136283368Y-40756525D01*
X136076525Y-40963368D01*
X135960000Y-41137760D01*
X135843475Y-40963368D01*
X135636632Y-40756525D01*
X135393411Y-40594010D01*
X135123158Y-40482068D01*
X134836260Y-40425000D01*
X134543740Y-40425000D01*
X134256842Y-40482068D01*
X133986589Y-40594010D01*
X133743368Y-40756525D01*
X133536525Y-40963368D01*
X133420000Y-41137760D01*
X133303475Y-40963368D01*
X133096632Y-40756525D01*
X132853411Y-40594010D01*
X132583158Y-40482068D01*
X132296260Y-40425000D01*
X132003740Y-40425000D01*
X131716842Y-40482068D01*
X131446589Y-40594010D01*
X131203368Y-40756525D01*
X130996525Y-40963368D01*
X130880000Y-41137760D01*
X130763475Y-40963368D01*
X130556632Y-40756525D01*
X130313411Y-40594010D01*
X130043158Y-40482068D01*
X129756260Y-40425000D01*
X129463740Y-40425000D01*
X129176842Y-40482068D01*
X128906589Y-40594010D01*
X128663368Y-40756525D01*
X128456525Y-40963368D01*
X128340000Y-41137760D01*
X128223475Y-40963368D01*
X128016632Y-40756525D01*
X127773411Y-40594010D01*
X127503158Y-40482068D01*
X127216260Y-40425000D01*
X126923740Y-40425000D01*
X126636842Y-40482068D01*
X126366589Y-40594010D01*
X126123368Y-40756525D01*
X125916525Y-40963368D01*
X125800000Y-41137760D01*
X125683475Y-40963368D01*
X125476632Y-40756525D01*
X125233411Y-40594010D01*
X124963158Y-40482068D01*
X124676260Y-40425000D01*
X124383740Y-40425000D01*
X124096842Y-40482068D01*
X123826589Y-40594010D01*
X123583368Y-40756525D01*
X123376525Y-40963368D01*
X123260000Y-41137760D01*
X123143475Y-40963368D01*
X122936632Y-40756525D01*
X122693411Y-40594010D01*
X122423158Y-40482068D01*
X122136260Y-40425000D01*
X121843740Y-40425000D01*
X121556842Y-40482068D01*
X121286589Y-40594010D01*
X121043368Y-40756525D01*
X120836525Y-40963368D01*
X120720000Y-41137760D01*
X120603475Y-40963368D01*
X120396632Y-40756525D01*
X120153411Y-40594010D01*
X119883158Y-40482068D01*
X119596260Y-40425000D01*
X119303740Y-40425000D01*
X119016842Y-40482068D01*
X118746589Y-40594010D01*
X118503368Y-40756525D01*
X118296525Y-40963368D01*
X118180000Y-41137760D01*
X118063475Y-40963368D01*
X117856632Y-40756525D01*
X117613411Y-40594010D01*
X117343158Y-40482068D01*
X117056260Y-40425000D01*
X116763740Y-40425000D01*
X116476842Y-40482068D01*
X116206589Y-40594010D01*
X115963368Y-40756525D01*
X115756525Y-40963368D01*
X115640000Y-41137760D01*
X115523475Y-40963368D01*
X115316632Y-40756525D01*
X115073411Y-40594010D01*
X114803158Y-40482068D01*
X114516260Y-40425000D01*
X114223740Y-40425000D01*
X113936842Y-40482068D01*
X113666589Y-40594010D01*
X113423368Y-40756525D01*
X113216525Y-40963368D01*
X113100000Y-41137760D01*
X112983475Y-40963368D01*
X112776632Y-40756525D01*
X112533411Y-40594010D01*
X112263158Y-40482068D01*
X111976260Y-40425000D01*
X111683740Y-40425000D01*
X111396842Y-40482068D01*
X111126589Y-40594010D01*
X110883368Y-40756525D01*
X110676525Y-40963368D01*
X110554805Y-41145534D01*
X110485178Y-41028645D01*
X110290269Y-40812412D01*
X110056920Y-40638359D01*
X109794099Y-40513175D01*
X109646890Y-40468524D01*
X109417000Y-40589845D01*
X109417000Y-41783000D01*
X109437000Y-41783000D01*
X109437000Y-42037000D01*
X109417000Y-42037000D01*
X109417000Y-43230155D01*
X109646890Y-43351476D01*
X109794099Y-43306825D01*
X110056920Y-43181641D01*
X110290269Y-43007588D01*
X110485178Y-42791355D01*
X110554805Y-42674466D01*
X110676525Y-42856632D01*
X110883368Y-43063475D01*
X111126589Y-43225990D01*
X111396842Y-43337932D01*
X111683740Y-43395000D01*
X111976260Y-43395000D01*
X112048961Y-43380539D01*
X113678422Y-45010000D01*
X96043618Y-45010000D01*
X95252807Y-44939422D01*
X94517611Y-44738295D01*
X93829645Y-44410152D01*
X93210672Y-43965374D01*
X92680239Y-43418012D01*
X92255117Y-42785362D01*
X92027524Y-42266891D01*
X105308519Y-42266891D01*
X105405843Y-42541252D01*
X105554822Y-42791355D01*
X105749731Y-43007588D01*
X105983080Y-43181641D01*
X106245901Y-43306825D01*
X106393110Y-43351476D01*
X106623000Y-43230155D01*
X106623000Y-42037000D01*
X106877000Y-42037000D01*
X106877000Y-43230155D01*
X107106890Y-43351476D01*
X107254099Y-43306825D01*
X107516920Y-43181641D01*
X107750269Y-43007588D01*
X107945178Y-42791355D01*
X108020000Y-42665745D01*
X108094822Y-42791355D01*
X108289731Y-43007588D01*
X108523080Y-43181641D01*
X108785901Y-43306825D01*
X108933110Y-43351476D01*
X109163000Y-43230155D01*
X109163000Y-42037000D01*
X106877000Y-42037000D01*
X106623000Y-42037000D01*
X105429186Y-42037000D01*
X105308519Y-42266891D01*
X92027524Y-42266891D01*
X91948749Y-42087439D01*
X91820468Y-41553109D01*
X105308519Y-41553109D01*
X105429186Y-41783000D01*
X106623000Y-41783000D01*
X106623000Y-40589845D01*
X106877000Y-40589845D01*
X106877000Y-41783000D01*
X109163000Y-41783000D01*
X109163000Y-40589845D01*
X108933110Y-40468524D01*
X108785901Y-40513175D01*
X108523080Y-40638359D01*
X108289731Y-40812412D01*
X108094822Y-41028645D01*
X108020000Y-41154255D01*
X107945178Y-41028645D01*
X107750269Y-40812412D01*
X107516920Y-40638359D01*
X107254099Y-40513175D01*
X107106890Y-40468524D01*
X106877000Y-40589845D01*
X106623000Y-40589845D01*
X106393110Y-40468524D01*
X106245901Y-40513175D01*
X105983080Y-40638359D01*
X105749731Y-40812412D01*
X105554822Y-41028645D01*
X105405843Y-41278748D01*
X105308519Y-41553109D01*
X91820468Y-41553109D01*
X91769501Y-41340819D01*
X91722000Y-40693970D01*
X91722000Y-37680000D01*
X105261928Y-37680000D01*
X105274188Y-37804482D01*
X105310498Y-37924180D01*
X105369463Y-38034494D01*
X105448815Y-38131185D01*
X105545506Y-38210537D01*
X105655820Y-38269502D01*
X105775518Y-38305812D01*
X105900000Y-38318072D01*
X106464250Y-38315000D01*
X106623000Y-38156250D01*
X106623000Y-36957000D01*
X106877000Y-36957000D01*
X106877000Y-38156250D01*
X107035750Y-38315000D01*
X107600000Y-38318072D01*
X107724482Y-38305812D01*
X107844180Y-38269502D01*
X107954494Y-38210537D01*
X108051185Y-38131185D01*
X108130537Y-38034494D01*
X108189502Y-37924180D01*
X108213966Y-37843534D01*
X108289731Y-37927588D01*
X108523080Y-38101641D01*
X108785901Y-38226825D01*
X108933110Y-38271476D01*
X109163000Y-38150155D01*
X109163000Y-36957000D01*
X106877000Y-36957000D01*
X106623000Y-36957000D01*
X105423750Y-36957000D01*
X105265000Y-37115750D01*
X105261928Y-37680000D01*
X91722000Y-37680000D01*
X91722000Y-35980000D01*
X105261928Y-35980000D01*
X105265000Y-36544250D01*
X105423750Y-36703000D01*
X106623000Y-36703000D01*
X106623000Y-35503750D01*
X106877000Y-35503750D01*
X106877000Y-36703000D01*
X109163000Y-36703000D01*
X109163000Y-35509845D01*
X109417000Y-35509845D01*
X109417000Y-36703000D01*
X109437000Y-36703000D01*
X109437000Y-36957000D01*
X109417000Y-36957000D01*
X109417000Y-38150155D01*
X109646890Y-38271476D01*
X109794099Y-38226825D01*
X110056920Y-38101641D01*
X110290269Y-37927588D01*
X110485178Y-37711355D01*
X110554805Y-37594466D01*
X110676525Y-37776632D01*
X110883368Y-37983475D01*
X111126589Y-38145990D01*
X111396842Y-38257932D01*
X111683740Y-38315000D01*
X111976260Y-38315000D01*
X112263158Y-38257932D01*
X112533411Y-38145990D01*
X112776632Y-37983475D01*
X112983475Y-37776632D01*
X113100000Y-37602240D01*
X113216525Y-37776632D01*
X113423368Y-37983475D01*
X113666589Y-38145990D01*
X113936842Y-38257932D01*
X114223740Y-38315000D01*
X114516260Y-38315000D01*
X114803158Y-38257932D01*
X115073411Y-38145990D01*
X115316632Y-37983475D01*
X115523475Y-37776632D01*
X115640000Y-37602240D01*
X115756525Y-37776632D01*
X115963368Y-37983475D01*
X116206589Y-38145990D01*
X116476842Y-38257932D01*
X116763740Y-38315000D01*
X117056260Y-38315000D01*
X117343158Y-38257932D01*
X117613411Y-38145990D01*
X117856632Y-37983475D01*
X118063475Y-37776632D01*
X118180000Y-37602240D01*
X118296525Y-37776632D01*
X118503368Y-37983475D01*
X118746589Y-38145990D01*
X119016842Y-38257932D01*
X119303740Y-38315000D01*
X119596260Y-38315000D01*
X119883158Y-38257932D01*
X120153411Y-38145990D01*
X120396632Y-37983475D01*
X120603475Y-37776632D01*
X120720000Y-37602240D01*
X120836525Y-37776632D01*
X121043368Y-37983475D01*
X121286589Y-38145990D01*
X121556842Y-38257932D01*
X121843740Y-38315000D01*
X122136260Y-38315000D01*
X122423158Y-38257932D01*
X122693411Y-38145990D01*
X122936632Y-37983475D01*
X123143475Y-37776632D01*
X123260000Y-37602240D01*
X123376525Y-37776632D01*
X123583368Y-37983475D01*
X123826589Y-38145990D01*
X124096842Y-38257932D01*
X124383740Y-38315000D01*
X124676260Y-38315000D01*
X124963158Y-38257932D01*
X125233411Y-38145990D01*
X125476632Y-37983475D01*
X125683475Y-37776632D01*
X125800000Y-37602240D01*
X125916525Y-37776632D01*
X126123368Y-37983475D01*
X126366589Y-38145990D01*
X126636842Y-38257932D01*
X126923740Y-38315000D01*
X127216260Y-38315000D01*
X127503158Y-38257932D01*
X127773411Y-38145990D01*
X128016632Y-37983475D01*
X128223475Y-37776632D01*
X128340000Y-37602240D01*
X128456525Y-37776632D01*
X128663368Y-37983475D01*
X128906589Y-38145990D01*
X129176842Y-38257932D01*
X129463740Y-38315000D01*
X129756260Y-38315000D01*
X130043158Y-38257932D01*
X130313411Y-38145990D01*
X130556632Y-37983475D01*
X130763475Y-37776632D01*
X130880000Y-37602240D01*
X130996525Y-37776632D01*
X131203368Y-37983475D01*
X131446589Y-38145990D01*
X131716842Y-38257932D01*
X132003740Y-38315000D01*
X132296260Y-38315000D01*
X132583158Y-38257932D01*
X132853411Y-38145990D01*
X133096632Y-37983475D01*
X133303475Y-37776632D01*
X133420000Y-37602240D01*
X133536525Y-37776632D01*
X133743368Y-37983475D01*
X133986589Y-38145990D01*
X134256842Y-38257932D01*
X134543740Y-38315000D01*
X134836260Y-38315000D01*
X135123158Y-38257932D01*
X135393411Y-38145990D01*
X135636632Y-37983475D01*
X135843475Y-37776632D01*
X135960000Y-37602240D01*
X136076525Y-37776632D01*
X136283368Y-37983475D01*
X136526589Y-38145990D01*
X136796842Y-38257932D01*
X137083740Y-38315000D01*
X137376260Y-38315000D01*
X137663158Y-38257932D01*
X137933411Y-38145990D01*
X138176632Y-37983475D01*
X138383475Y-37776632D01*
X138500000Y-37602240D01*
X138616525Y-37776632D01*
X138823368Y-37983475D01*
X139066589Y-38145990D01*
X139336842Y-38257932D01*
X139623740Y-38315000D01*
X139916260Y-38315000D01*
X140203158Y-38257932D01*
X140473411Y-38145990D01*
X140716632Y-37983475D01*
X140923475Y-37776632D01*
X141040000Y-37602240D01*
X141156525Y-37776632D01*
X141363368Y-37983475D01*
X141606589Y-38145990D01*
X141876842Y-38257932D01*
X142163740Y-38315000D01*
X142456260Y-38315000D01*
X142743158Y-38257932D01*
X143013411Y-38145990D01*
X143256632Y-37983475D01*
X143463475Y-37776632D01*
X143580000Y-37602240D01*
X143696525Y-37776632D01*
X143903368Y-37983475D01*
X144146589Y-38145990D01*
X144416842Y-38257932D01*
X144703740Y-38315000D01*
X144996260Y-38315000D01*
X145283158Y-38257932D01*
X145553411Y-38145990D01*
X145796632Y-37983475D01*
X146003475Y-37776632D01*
X146120000Y-37602240D01*
X146236525Y-37776632D01*
X146443368Y-37983475D01*
X146686589Y-38145990D01*
X146956842Y-38257932D01*
X147243740Y-38315000D01*
X147536260Y-38315000D01*
X147823158Y-38257932D01*
X148093411Y-38145990D01*
X148336632Y-37983475D01*
X148543475Y-37776632D01*
X148660000Y-37602240D01*
X148776525Y-37776632D01*
X148983368Y-37983475D01*
X149226589Y-38145990D01*
X149496842Y-38257932D01*
X149783740Y-38315000D01*
X150076260Y-38315000D01*
X150363158Y-38257932D01*
X150633411Y-38145990D01*
X150876632Y-37983475D01*
X151083475Y-37776632D01*
X151200000Y-37602240D01*
X151316525Y-37776632D01*
X151523368Y-37983475D01*
X151766589Y-38145990D01*
X152036842Y-38257932D01*
X152323740Y-38315000D01*
X152616260Y-38315000D01*
X152903158Y-38257932D01*
X153173411Y-38145990D01*
X153416632Y-37983475D01*
X153623475Y-37776632D01*
X153740000Y-37602240D01*
X153856525Y-37776632D01*
X154063368Y-37983475D01*
X154306589Y-38145990D01*
X154576842Y-38257932D01*
X154863740Y-38315000D01*
X155156260Y-38315000D01*
X155443158Y-38257932D01*
X155713411Y-38145990D01*
X155956632Y-37983475D01*
X156163475Y-37776632D01*
X156280000Y-37602240D01*
X156396525Y-37776632D01*
X156603368Y-37983475D01*
X156846589Y-38145990D01*
X157116842Y-38257932D01*
X157403740Y-38315000D01*
X157696260Y-38315000D01*
X157983158Y-38257932D01*
X158253411Y-38145990D01*
X158496632Y-37983475D01*
X158703475Y-37776632D01*
X158820000Y-37602240D01*
X158936525Y-37776632D01*
X159143368Y-37983475D01*
X159386589Y-38145990D01*
X159656842Y-38257932D01*
X159943740Y-38315000D01*
X160236260Y-38315000D01*
X160523158Y-38257932D01*
X160793411Y-38145990D01*
X161036632Y-37983475D01*
X161243475Y-37776632D01*
X161360000Y-37602240D01*
X161476525Y-37776632D01*
X161683368Y-37983475D01*
X161926589Y-38145990D01*
X162196842Y-38257932D01*
X162483740Y-38315000D01*
X162776260Y-38315000D01*
X163063158Y-38257932D01*
X163333411Y-38145990D01*
X163576632Y-37983475D01*
X163783475Y-37776632D01*
X163905195Y-37594466D01*
X163974822Y-37711355D01*
X164169731Y-37927588D01*
X164403080Y-38101641D01*
X164665901Y-38226825D01*
X164813110Y-38271476D01*
X165043000Y-38150155D01*
X165043000Y-36957000D01*
X165297000Y-36957000D01*
X165297000Y-38150155D01*
X165526890Y-38271476D01*
X165674099Y-38226825D01*
X165936920Y-38101641D01*
X166170269Y-37927588D01*
X166365178Y-37711355D01*
X166440000Y-37585745D01*
X166514822Y-37711355D01*
X166709731Y-37927588D01*
X166943080Y-38101641D01*
X167205901Y-38226825D01*
X167353110Y-38271476D01*
X167583000Y-38150155D01*
X167583000Y-36957000D01*
X165297000Y-36957000D01*
X165043000Y-36957000D01*
X165023000Y-36957000D01*
X165023000Y-36703000D01*
X165043000Y-36703000D01*
X165043000Y-35509845D01*
X165297000Y-35509845D01*
X165297000Y-36703000D01*
X167583000Y-36703000D01*
X167583000Y-35509845D01*
X167353110Y-35388524D01*
X167205901Y-35433175D01*
X166943080Y-35558359D01*
X166709731Y-35732412D01*
X166514822Y-35948645D01*
X166440000Y-36074255D01*
X166365178Y-35948645D01*
X166170269Y-35732412D01*
X165936920Y-35558359D01*
X165674099Y-35433175D01*
X165526890Y-35388524D01*
X165297000Y-35509845D01*
X165043000Y-35509845D01*
X164813110Y-35388524D01*
X164665901Y-35433175D01*
X164403080Y-35558359D01*
X164169731Y-35732412D01*
X163974822Y-35948645D01*
X163905195Y-36065534D01*
X163783475Y-35883368D01*
X163576632Y-35676525D01*
X163333411Y-35514010D01*
X163063158Y-35402068D01*
X162776260Y-35345000D01*
X162483740Y-35345000D01*
X162196842Y-35402068D01*
X161926589Y-35514010D01*
X161683368Y-35676525D01*
X161476525Y-35883368D01*
X161360000Y-36057760D01*
X161243475Y-35883368D01*
X161036632Y-35676525D01*
X160793411Y-35514010D01*
X160523158Y-35402068D01*
X160236260Y-35345000D01*
X159943740Y-35345000D01*
X159656842Y-35402068D01*
X159386589Y-35514010D01*
X159143368Y-35676525D01*
X158936525Y-35883368D01*
X158820000Y-36057760D01*
X158703475Y-35883368D01*
X158496632Y-35676525D01*
X158253411Y-35514010D01*
X157983158Y-35402068D01*
X157696260Y-35345000D01*
X157403740Y-35345000D01*
X157116842Y-35402068D01*
X156846589Y-35514010D01*
X156603368Y-35676525D01*
X156396525Y-35883368D01*
X156280000Y-36057760D01*
X156163475Y-35883368D01*
X155956632Y-35676525D01*
X155713411Y-35514010D01*
X155443158Y-35402068D01*
X155156260Y-35345000D01*
X154863740Y-35345000D01*
X154576842Y-35402068D01*
X154306589Y-35514010D01*
X154063368Y-35676525D01*
X153856525Y-35883368D01*
X153740000Y-36057760D01*
X153623475Y-35883368D01*
X153416632Y-35676525D01*
X153173411Y-35514010D01*
X152903158Y-35402068D01*
X152616260Y-35345000D01*
X152323740Y-35345000D01*
X152036842Y-35402068D01*
X151766589Y-35514010D01*
X151523368Y-35676525D01*
X151316525Y-35883368D01*
X151200000Y-36057760D01*
X151083475Y-35883368D01*
X150876632Y-35676525D01*
X150633411Y-35514010D01*
X150363158Y-35402068D01*
X150076260Y-35345000D01*
X149783740Y-35345000D01*
X149496842Y-35402068D01*
X149226589Y-35514010D01*
X148983368Y-35676525D01*
X148776525Y-35883368D01*
X148660000Y-36057760D01*
X148543475Y-35883368D01*
X148336632Y-35676525D01*
X148093411Y-35514010D01*
X147823158Y-35402068D01*
X147536260Y-35345000D01*
X147243740Y-35345000D01*
X146956842Y-35402068D01*
X146686589Y-35514010D01*
X146443368Y-35676525D01*
X146236525Y-35883368D01*
X146120000Y-36057760D01*
X146003475Y-35883368D01*
X145796632Y-35676525D01*
X145553411Y-35514010D01*
X145283158Y-35402068D01*
X144996260Y-35345000D01*
X144703740Y-35345000D01*
X144416842Y-35402068D01*
X144146589Y-35514010D01*
X143903368Y-35676525D01*
X143696525Y-35883368D01*
X143580000Y-36057760D01*
X143463475Y-35883368D01*
X143256632Y-35676525D01*
X143013411Y-35514010D01*
X142743158Y-35402068D01*
X142456260Y-35345000D01*
X142163740Y-35345000D01*
X141876842Y-35402068D01*
X141606589Y-35514010D01*
X141363368Y-35676525D01*
X141156525Y-35883368D01*
X141040000Y-36057760D01*
X140923475Y-35883368D01*
X140716632Y-35676525D01*
X140473411Y-35514010D01*
X140203158Y-35402068D01*
X139916260Y-35345000D01*
X139623740Y-35345000D01*
X139336842Y-35402068D01*
X139066589Y-35514010D01*
X138823368Y-35676525D01*
X138616525Y-35883368D01*
X138500000Y-36057760D01*
X138383475Y-35883368D01*
X138176632Y-35676525D01*
X137933411Y-35514010D01*
X137663158Y-35402068D01*
X137376260Y-35345000D01*
X137083740Y-35345000D01*
X136796842Y-35402068D01*
X136526589Y-35514010D01*
X136283368Y-35676525D01*
X136076525Y-35883368D01*
X135960000Y-36057760D01*
X135843475Y-35883368D01*
X135636632Y-35676525D01*
X135393411Y-35514010D01*
X135123158Y-35402068D01*
X134836260Y-35345000D01*
X134543740Y-35345000D01*
X134256842Y-35402068D01*
X133986589Y-35514010D01*
X133743368Y-35676525D01*
X133536525Y-35883368D01*
X133420000Y-36057760D01*
X133303475Y-35883368D01*
X133096632Y-35676525D01*
X132853411Y-35514010D01*
X132583158Y-35402068D01*
X132296260Y-35345000D01*
X132003740Y-35345000D01*
X131716842Y-35402068D01*
X131446589Y-35514010D01*
X131203368Y-35676525D01*
X130996525Y-35883368D01*
X130880000Y-36057760D01*
X130763475Y-35883368D01*
X130556632Y-35676525D01*
X130313411Y-35514010D01*
X130043158Y-35402068D01*
X129756260Y-35345000D01*
X129463740Y-35345000D01*
X129176842Y-35402068D01*
X128906589Y-35514010D01*
X128663368Y-35676525D01*
X128456525Y-35883368D01*
X128340000Y-36057760D01*
X128223475Y-35883368D01*
X128016632Y-35676525D01*
X127773411Y-35514010D01*
X127503158Y-35402068D01*
X127216260Y-35345000D01*
X126923740Y-35345000D01*
X126636842Y-35402068D01*
X126366589Y-35514010D01*
X126123368Y-35676525D01*
X125916525Y-35883368D01*
X125800000Y-36057760D01*
X125683475Y-35883368D01*
X125476632Y-35676525D01*
X125233411Y-35514010D01*
X124963158Y-35402068D01*
X124676260Y-35345000D01*
X124383740Y-35345000D01*
X124096842Y-35402068D01*
X123826589Y-35514010D01*
X123583368Y-35676525D01*
X123376525Y-35883368D01*
X123260000Y-36057760D01*
X123143475Y-35883368D01*
X122936632Y-35676525D01*
X122693411Y-35514010D01*
X122423158Y-35402068D01*
X122136260Y-35345000D01*
X121843740Y-35345000D01*
X121556842Y-35402068D01*
X121286589Y-35514010D01*
X121043368Y-35676525D01*
X120836525Y-35883368D01*
X120720000Y-36057760D01*
X120603475Y-35883368D01*
X120396632Y-35676525D01*
X120153411Y-35514010D01*
X119883158Y-35402068D01*
X119596260Y-35345000D01*
X119303740Y-35345000D01*
X119016842Y-35402068D01*
X118746589Y-35514010D01*
X118503368Y-35676525D01*
X118296525Y-35883368D01*
X118180000Y-36057760D01*
X118063475Y-35883368D01*
X117856632Y-35676525D01*
X117613411Y-35514010D01*
X117343158Y-35402068D01*
X117056260Y-35345000D01*
X116763740Y-35345000D01*
X116476842Y-35402068D01*
X116206589Y-35514010D01*
X115963368Y-35676525D01*
X115756525Y-35883368D01*
X115640000Y-36057760D01*
X115523475Y-35883368D01*
X115316632Y-35676525D01*
X115073411Y-35514010D01*
X114803158Y-35402068D01*
X114516260Y-35345000D01*
X114223740Y-35345000D01*
X113936842Y-35402068D01*
X113666589Y-35514010D01*
X113423368Y-35676525D01*
X113216525Y-35883368D01*
X113100000Y-36057760D01*
X112983475Y-35883368D01*
X112776632Y-35676525D01*
X112533411Y-35514010D01*
X112263158Y-35402068D01*
X111976260Y-35345000D01*
X111683740Y-35345000D01*
X111396842Y-35402068D01*
X111126589Y-35514010D01*
X110883368Y-35676525D01*
X110676525Y-35883368D01*
X110554805Y-36065534D01*
X110485178Y-35948645D01*
X110290269Y-35732412D01*
X110056920Y-35558359D01*
X109794099Y-35433175D01*
X109646890Y-35388524D01*
X109417000Y-35509845D01*
X109163000Y-35509845D01*
X108933110Y-35388524D01*
X108785901Y-35433175D01*
X108523080Y-35558359D01*
X108289731Y-35732412D01*
X108213966Y-35816466D01*
X108189502Y-35735820D01*
X108130537Y-35625506D01*
X108051185Y-35528815D01*
X107954494Y-35449463D01*
X107844180Y-35390498D01*
X107724482Y-35354188D01*
X107600000Y-35341928D01*
X107035750Y-35345000D01*
X106877000Y-35503750D01*
X106623000Y-35503750D01*
X106464250Y-35345000D01*
X105900000Y-35341928D01*
X105775518Y-35354188D01*
X105655820Y-35390498D01*
X105545506Y-35449463D01*
X105448815Y-35528815D01*
X105369463Y-35625506D01*
X105310498Y-35735820D01*
X105274188Y-35855518D01*
X105261928Y-35980000D01*
X91722000Y-35980000D01*
X91722000Y-33323148D01*
X93976457Y-33323148D01*
X94252627Y-33741118D01*
X94797557Y-34031649D01*
X95388696Y-34210287D01*
X96003328Y-34270168D01*
X96617831Y-34208990D01*
X97208592Y-34029103D01*
X97747373Y-33741118D01*
X98023543Y-33323148D01*
X96000000Y-31299605D01*
X93976457Y-33323148D01*
X91722000Y-33323148D01*
X91722000Y-31123328D01*
X92849832Y-31123328D01*
X92911010Y-31737831D01*
X93090897Y-32328592D01*
X93378882Y-32867373D01*
X93796852Y-33143543D01*
X95820395Y-31120000D01*
X96179605Y-31120000D01*
X98203148Y-33143543D01*
X98621118Y-32867373D01*
X98911649Y-32322443D01*
X99090287Y-31731304D01*
X99150168Y-31116672D01*
X99088990Y-30502169D01*
X98909103Y-29911408D01*
X98621118Y-29372627D01*
X98203148Y-29096457D01*
X96179605Y-31120000D01*
X95820395Y-31120000D01*
X93796852Y-29096457D01*
X93378882Y-29372627D01*
X93088351Y-29917557D01*
X92909713Y-30508696D01*
X92849832Y-31123328D01*
X91722000Y-31123328D01*
X91722000Y-28916852D01*
X93976457Y-28916852D01*
X96000000Y-30940395D01*
X98023543Y-28916852D01*
X97747373Y-28498882D01*
X97202443Y-28208351D01*
X96611304Y-28029713D01*
X95996672Y-27969832D01*
X95382169Y-28031010D01*
X94791408Y-28210897D01*
X94252627Y-28498882D01*
X93976457Y-28916852D01*
X91722000Y-28916852D01*
X91722000Y-25766891D01*
X105308519Y-25766891D01*
X105405843Y-26041252D01*
X105554822Y-26291355D01*
X105749731Y-26507588D01*
X105983080Y-26681641D01*
X106245901Y-26806825D01*
X106393110Y-26851476D01*
X106623000Y-26730155D01*
X106623000Y-25537000D01*
X106877000Y-25537000D01*
X106877000Y-26730155D01*
X107106890Y-26851476D01*
X107254099Y-26806825D01*
X107516920Y-26681641D01*
X107750269Y-26507588D01*
X107945178Y-26291355D01*
X108020000Y-26165745D01*
X108094822Y-26291355D01*
X108289731Y-26507588D01*
X108523080Y-26681641D01*
X108785901Y-26806825D01*
X108933110Y-26851476D01*
X109163000Y-26730155D01*
X109163000Y-25537000D01*
X106877000Y-25537000D01*
X106623000Y-25537000D01*
X105429186Y-25537000D01*
X105308519Y-25766891D01*
X91722000Y-25766891D01*
X91722000Y-25053109D01*
X105308519Y-25053109D01*
X105429186Y-25283000D01*
X106623000Y-25283000D01*
X106623000Y-24089845D01*
X106877000Y-24089845D01*
X106877000Y-25283000D01*
X109163000Y-25283000D01*
X109163000Y-24089845D01*
X108933110Y-23968524D01*
X108785901Y-24013175D01*
X108523080Y-24138359D01*
X108289731Y-24312412D01*
X108094822Y-24528645D01*
X108020000Y-24654255D01*
X107945178Y-24528645D01*
X107750269Y-24312412D01*
X107516920Y-24138359D01*
X107254099Y-24013175D01*
X107106890Y-23968524D01*
X106877000Y-24089845D01*
X106623000Y-24089845D01*
X106393110Y-23968524D01*
X106245901Y-24013175D01*
X105983080Y-24138359D01*
X105749731Y-24312412D01*
X105554822Y-24528645D01*
X105405843Y-24778748D01*
X105308519Y-25053109D01*
X91722000Y-25053109D01*
X91722000Y-21551618D01*
X91755166Y-21180000D01*
X105261928Y-21180000D01*
X105274188Y-21304482D01*
X105310498Y-21424180D01*
X105369463Y-21534494D01*
X105448815Y-21631185D01*
X105545506Y-21710537D01*
X105655820Y-21769502D01*
X105775518Y-21805812D01*
X105900000Y-21818072D01*
X106464250Y-21815000D01*
X106623000Y-21656250D01*
X106623000Y-20457000D01*
X106877000Y-20457000D01*
X106877000Y-21656250D01*
X107035750Y-21815000D01*
X107600000Y-21818072D01*
X107724482Y-21805812D01*
X107844180Y-21769502D01*
X107954494Y-21710537D01*
X108051185Y-21631185D01*
X108130537Y-21534494D01*
X108189502Y-21424180D01*
X108213966Y-21343534D01*
X108289731Y-21427588D01*
X108523080Y-21601641D01*
X108785901Y-21726825D01*
X108933110Y-21771476D01*
X109163000Y-21650155D01*
X109163000Y-20457000D01*
X106877000Y-20457000D01*
X106623000Y-20457000D01*
X105423750Y-20457000D01*
X105265000Y-20615750D01*
X105261928Y-21180000D01*
X91755166Y-21180000D01*
X91792578Y-20760808D01*
X91993705Y-20025611D01*
X92253948Y-19480000D01*
X105261928Y-19480000D01*
X105265000Y-20044250D01*
X105423750Y-20203000D01*
X106623000Y-20203000D01*
X106623000Y-19003750D01*
X106877000Y-19003750D01*
X106877000Y-20203000D01*
X109163000Y-20203000D01*
X109163000Y-19009845D01*
X109417000Y-19009845D01*
X109417000Y-20203000D01*
X109437000Y-20203000D01*
X109437000Y-20457000D01*
X109417000Y-20457000D01*
X109417000Y-21650155D01*
X109646890Y-21771476D01*
X109794099Y-21726825D01*
X110056920Y-21601641D01*
X110290269Y-21427588D01*
X110485178Y-21211355D01*
X110554805Y-21094466D01*
X110676525Y-21276632D01*
X110883368Y-21483475D01*
X111126589Y-21645990D01*
X111396842Y-21757932D01*
X111683740Y-21815000D01*
X111976260Y-21815000D01*
X112263158Y-21757932D01*
X112533411Y-21645990D01*
X112776632Y-21483475D01*
X112983475Y-21276632D01*
X113100000Y-21102240D01*
X113216525Y-21276632D01*
X113423368Y-21483475D01*
X113666589Y-21645990D01*
X113936842Y-21757932D01*
X114223740Y-21815000D01*
X114516260Y-21815000D01*
X114803158Y-21757932D01*
X115073411Y-21645990D01*
X115316632Y-21483475D01*
X115523475Y-21276632D01*
X115640000Y-21102240D01*
X115756525Y-21276632D01*
X115963368Y-21483475D01*
X116206589Y-21645990D01*
X116476842Y-21757932D01*
X116763740Y-21815000D01*
X117056260Y-21815000D01*
X117343158Y-21757932D01*
X117613411Y-21645990D01*
X117856632Y-21483475D01*
X118063475Y-21276632D01*
X118180000Y-21102240D01*
X118296525Y-21276632D01*
X118503368Y-21483475D01*
X118746589Y-21645990D01*
X119016842Y-21757932D01*
X119303740Y-21815000D01*
X119596260Y-21815000D01*
X119883158Y-21757932D01*
X120153411Y-21645990D01*
X120396632Y-21483475D01*
X120603475Y-21276632D01*
X120720000Y-21102240D01*
X120836525Y-21276632D01*
X121043368Y-21483475D01*
X121286589Y-21645990D01*
X121556842Y-21757932D01*
X121843740Y-21815000D01*
X122136260Y-21815000D01*
X122423158Y-21757932D01*
X122693411Y-21645990D01*
X122936632Y-21483475D01*
X123143475Y-21276632D01*
X123260000Y-21102240D01*
X123376525Y-21276632D01*
X123583368Y-21483475D01*
X123826589Y-21645990D01*
X124096842Y-21757932D01*
X124383740Y-21815000D01*
X124676260Y-21815000D01*
X124963158Y-21757932D01*
X125233411Y-21645990D01*
X125476632Y-21483475D01*
X125683475Y-21276632D01*
X125800000Y-21102240D01*
X125916525Y-21276632D01*
X126123368Y-21483475D01*
X126366589Y-21645990D01*
X126636842Y-21757932D01*
X126923740Y-21815000D01*
X127216260Y-21815000D01*
X127503158Y-21757932D01*
X127773411Y-21645990D01*
X128016632Y-21483475D01*
X128223475Y-21276632D01*
X128340000Y-21102240D01*
X128456525Y-21276632D01*
X128663368Y-21483475D01*
X128906589Y-21645990D01*
X129176842Y-21757932D01*
X129463740Y-21815000D01*
X129756260Y-21815000D01*
X130043158Y-21757932D01*
X130313411Y-21645990D01*
X130556632Y-21483475D01*
X130763475Y-21276632D01*
X130880000Y-21102240D01*
X130996525Y-21276632D01*
X131203368Y-21483475D01*
X131446589Y-21645990D01*
X131716842Y-21757932D01*
X132003740Y-21815000D01*
X132296260Y-21815000D01*
X132583158Y-21757932D01*
X132853411Y-21645990D01*
X133096632Y-21483475D01*
X133303475Y-21276632D01*
X133420000Y-21102240D01*
X133536525Y-21276632D01*
X133743368Y-21483475D01*
X133986589Y-21645990D01*
X134256842Y-21757932D01*
X134543740Y-21815000D01*
X134836260Y-21815000D01*
X135123158Y-21757932D01*
X135393411Y-21645990D01*
X135636632Y-21483475D01*
X135843475Y-21276632D01*
X135960000Y-21102240D01*
X136076525Y-21276632D01*
X136283368Y-21483475D01*
X136526589Y-21645990D01*
X136796842Y-21757932D01*
X137083740Y-21815000D01*
X137376260Y-21815000D01*
X137663158Y-21757932D01*
X137933411Y-21645990D01*
X138176632Y-21483475D01*
X138383475Y-21276632D01*
X138500000Y-21102240D01*
X138616525Y-21276632D01*
X138823368Y-21483475D01*
X139066589Y-21645990D01*
X139336842Y-21757932D01*
X139623740Y-21815000D01*
X139916260Y-21815000D01*
X140203158Y-21757932D01*
X140473411Y-21645990D01*
X140716632Y-21483475D01*
X140923475Y-21276632D01*
X141040000Y-21102240D01*
X141156525Y-21276632D01*
X141363368Y-21483475D01*
X141606589Y-21645990D01*
X141876842Y-21757932D01*
X142163740Y-21815000D01*
X142456260Y-21815000D01*
X142743158Y-21757932D01*
X143013411Y-21645990D01*
X143256632Y-21483475D01*
X143463475Y-21276632D01*
X143580000Y-21102240D01*
X143696525Y-21276632D01*
X143903368Y-21483475D01*
X144146589Y-21645990D01*
X144416842Y-21757932D01*
X144703740Y-21815000D01*
X144996260Y-21815000D01*
X145283158Y-21757932D01*
X145553411Y-21645990D01*
X145796632Y-21483475D01*
X146003475Y-21276632D01*
X146120000Y-21102240D01*
X146236525Y-21276632D01*
X146443368Y-21483475D01*
X146686589Y-21645990D01*
X146956842Y-21757932D01*
X147243740Y-21815000D01*
X147536260Y-21815000D01*
X147823158Y-21757932D01*
X148093411Y-21645990D01*
X148336632Y-21483475D01*
X148543475Y-21276632D01*
X148660000Y-21102240D01*
X148776525Y-21276632D01*
X148983368Y-21483475D01*
X149226589Y-21645990D01*
X149496842Y-21757932D01*
X149783740Y-21815000D01*
X150076260Y-21815000D01*
X150363158Y-21757932D01*
X150633411Y-21645990D01*
X150876632Y-21483475D01*
X151083475Y-21276632D01*
X151200000Y-21102240D01*
X151316525Y-21276632D01*
X151523368Y-21483475D01*
X151766589Y-21645990D01*
X152036842Y-21757932D01*
X152323740Y-21815000D01*
X152616260Y-21815000D01*
X152903158Y-21757932D01*
X153173411Y-21645990D01*
X153416632Y-21483475D01*
X153623475Y-21276632D01*
X153740000Y-21102240D01*
X153856525Y-21276632D01*
X154063368Y-21483475D01*
X154306589Y-21645990D01*
X154576842Y-21757932D01*
X154863740Y-21815000D01*
X155156260Y-21815000D01*
X155443158Y-21757932D01*
X155713411Y-21645990D01*
X155956632Y-21483475D01*
X156163475Y-21276632D01*
X156280000Y-21102240D01*
X156396525Y-21276632D01*
X156603368Y-21483475D01*
X156846589Y-21645990D01*
X157116842Y-21757932D01*
X157403740Y-21815000D01*
X157696260Y-21815000D01*
X157983158Y-21757932D01*
X158253411Y-21645990D01*
X158496632Y-21483475D01*
X158703475Y-21276632D01*
X158820000Y-21102240D01*
X158936525Y-21276632D01*
X159143368Y-21483475D01*
X159386589Y-21645990D01*
X159656842Y-21757932D01*
X159943740Y-21815000D01*
X160236260Y-21815000D01*
X160523158Y-21757932D01*
X160793411Y-21645990D01*
X161036632Y-21483475D01*
X161243475Y-21276632D01*
X161360000Y-21102240D01*
X161476525Y-21276632D01*
X161683368Y-21483475D01*
X161926589Y-21645990D01*
X162196842Y-21757932D01*
X162483740Y-21815000D01*
X162776260Y-21815000D01*
X163063158Y-21757932D01*
X163333411Y-21645990D01*
X163576632Y-21483475D01*
X163783475Y-21276632D01*
X163905195Y-21094466D01*
X163974822Y-21211355D01*
X164169731Y-21427588D01*
X164403080Y-21601641D01*
X164665901Y-21726825D01*
X164813110Y-21771476D01*
X165043000Y-21650155D01*
X165043000Y-20457000D01*
X165297000Y-20457000D01*
X165297000Y-21650155D01*
X165526890Y-21771476D01*
X165674099Y-21726825D01*
X165936920Y-21601641D01*
X166170269Y-21427588D01*
X166365178Y-21211355D01*
X166440000Y-21085745D01*
X166514822Y-21211355D01*
X166709731Y-21427588D01*
X166943080Y-21601641D01*
X167205901Y-21726825D01*
X167353110Y-21771476D01*
X167583000Y-21650155D01*
X167583000Y-20457000D01*
X167837000Y-20457000D01*
X167837000Y-21650155D01*
X168066890Y-21771476D01*
X168214099Y-21726825D01*
X168476920Y-21601641D01*
X168710269Y-21427588D01*
X168905178Y-21211355D01*
X169054157Y-20961252D01*
X169151481Y-20686891D01*
X169030814Y-20457000D01*
X167837000Y-20457000D01*
X167583000Y-20457000D01*
X165297000Y-20457000D01*
X165043000Y-20457000D01*
X165023000Y-20457000D01*
X165023000Y-20203000D01*
X165043000Y-20203000D01*
X165043000Y-19009845D01*
X165297000Y-19009845D01*
X165297000Y-20203000D01*
X167583000Y-20203000D01*
X167583000Y-19009845D01*
X167837000Y-19009845D01*
X167837000Y-20203000D01*
X169030814Y-20203000D01*
X169151481Y-19973109D01*
X169054157Y-19698748D01*
X168905178Y-19448645D01*
X168710269Y-19232412D01*
X168476920Y-19058359D01*
X168214099Y-18933175D01*
X168066890Y-18888524D01*
X167837000Y-19009845D01*
X167583000Y-19009845D01*
X167353110Y-18888524D01*
X167205901Y-18933175D01*
X166943080Y-19058359D01*
X166709731Y-19232412D01*
X166514822Y-19448645D01*
X166440000Y-19574255D01*
X166365178Y-19448645D01*
X166170269Y-19232412D01*
X165936920Y-19058359D01*
X165674099Y-18933175D01*
X165526890Y-18888524D01*
X165297000Y-19009845D01*
X165043000Y-19009845D01*
X164813110Y-18888524D01*
X164665901Y-18933175D01*
X164403080Y-19058359D01*
X164169731Y-19232412D01*
X163974822Y-19448645D01*
X163905195Y-19565534D01*
X163783475Y-19383368D01*
X163576632Y-19176525D01*
X163333411Y-19014010D01*
X163063158Y-18902068D01*
X162776260Y-18845000D01*
X162483740Y-18845000D01*
X162196842Y-18902068D01*
X161926589Y-19014010D01*
X161683368Y-19176525D01*
X161476525Y-19383368D01*
X161360000Y-19557760D01*
X161243475Y-19383368D01*
X161036632Y-19176525D01*
X160793411Y-19014010D01*
X160523158Y-18902068D01*
X160236260Y-18845000D01*
X159943740Y-18845000D01*
X159656842Y-18902068D01*
X159386589Y-19014010D01*
X159143368Y-19176525D01*
X158936525Y-19383368D01*
X158820000Y-19557760D01*
X158703475Y-19383368D01*
X158496632Y-19176525D01*
X158253411Y-19014010D01*
X157983158Y-18902068D01*
X157696260Y-18845000D01*
X157403740Y-18845000D01*
X157116842Y-18902068D01*
X156846589Y-19014010D01*
X156603368Y-19176525D01*
X156396525Y-19383368D01*
X156280000Y-19557760D01*
X156163475Y-19383368D01*
X155956632Y-19176525D01*
X155713411Y-19014010D01*
X155443158Y-18902068D01*
X155156260Y-18845000D01*
X154863740Y-18845000D01*
X154576842Y-18902068D01*
X154306589Y-19014010D01*
X154063368Y-19176525D01*
X153856525Y-19383368D01*
X153740000Y-19557760D01*
X153623475Y-19383368D01*
X153416632Y-19176525D01*
X153173411Y-19014010D01*
X152903158Y-18902068D01*
X152616260Y-18845000D01*
X152323740Y-18845000D01*
X152036842Y-18902068D01*
X151766589Y-19014010D01*
X151523368Y-19176525D01*
X151316525Y-19383368D01*
X151200000Y-19557760D01*
X151083475Y-19383368D01*
X150876632Y-19176525D01*
X150633411Y-19014010D01*
X150363158Y-18902068D01*
X150076260Y-18845000D01*
X149783740Y-18845000D01*
X149496842Y-18902068D01*
X149226589Y-19014010D01*
X148983368Y-19176525D01*
X148776525Y-19383368D01*
X148660000Y-19557760D01*
X148543475Y-19383368D01*
X148336632Y-19176525D01*
X148093411Y-19014010D01*
X147823158Y-18902068D01*
X147536260Y-18845000D01*
X147243740Y-18845000D01*
X146956842Y-18902068D01*
X146686589Y-19014010D01*
X146443368Y-19176525D01*
X146236525Y-19383368D01*
X146120000Y-19557760D01*
X146003475Y-19383368D01*
X145796632Y-19176525D01*
X145553411Y-19014010D01*
X145283158Y-18902068D01*
X144996260Y-18845000D01*
X144703740Y-18845000D01*
X144416842Y-18902068D01*
X144146589Y-19014010D01*
X143903368Y-19176525D01*
X143696525Y-19383368D01*
X143580000Y-19557760D01*
X143463475Y-19383368D01*
X143256632Y-19176525D01*
X143013411Y-19014010D01*
X142743158Y-18902068D01*
X142456260Y-18845000D01*
X142163740Y-18845000D01*
X141876842Y-18902068D01*
X141606589Y-19014010D01*
X141363368Y-19176525D01*
X141156525Y-19383368D01*
X141040000Y-19557760D01*
X140923475Y-19383368D01*
X140716632Y-19176525D01*
X140473411Y-19014010D01*
X140203158Y-18902068D01*
X139916260Y-18845000D01*
X139623740Y-18845000D01*
X139336842Y-18902068D01*
X139066589Y-19014010D01*
X138823368Y-19176525D01*
X138616525Y-19383368D01*
X138500000Y-19557760D01*
X138383475Y-19383368D01*
X138176632Y-19176525D01*
X137933411Y-19014010D01*
X137663158Y-18902068D01*
X137376260Y-18845000D01*
X137083740Y-18845000D01*
X136796842Y-18902068D01*
X136526589Y-19014010D01*
X136283368Y-19176525D01*
X136076525Y-19383368D01*
X135960000Y-19557760D01*
X135843475Y-19383368D01*
X135636632Y-19176525D01*
X135393411Y-19014010D01*
X135123158Y-18902068D01*
X134836260Y-18845000D01*
X134543740Y-18845000D01*
X134256842Y-18902068D01*
X133986589Y-19014010D01*
X133743368Y-19176525D01*
X133536525Y-19383368D01*
X133420000Y-19557760D01*
X133303475Y-19383368D01*
X133096632Y-19176525D01*
X132853411Y-19014010D01*
X132583158Y-18902068D01*
X132296260Y-18845000D01*
X132003740Y-18845000D01*
X131716842Y-18902068D01*
X131446589Y-19014010D01*
X131203368Y-19176525D01*
X130996525Y-19383368D01*
X130880000Y-19557760D01*
X130763475Y-19383368D01*
X130556632Y-19176525D01*
X130313411Y-19014010D01*
X130043158Y-18902068D01*
X129756260Y-18845000D01*
X129463740Y-18845000D01*
X129176842Y-18902068D01*
X128906589Y-19014010D01*
X128663368Y-19176525D01*
X128456525Y-19383368D01*
X128340000Y-19557760D01*
X128223475Y-19383368D01*
X128016632Y-19176525D01*
X127773411Y-19014010D01*
X127503158Y-18902068D01*
X127216260Y-18845000D01*
X126923740Y-18845000D01*
X126636842Y-18902068D01*
X126366589Y-19014010D01*
X126123368Y-19176525D01*
X125916525Y-19383368D01*
X125800000Y-19557760D01*
X125683475Y-19383368D01*
X125476632Y-19176525D01*
X125233411Y-19014010D01*
X124963158Y-18902068D01*
X124676260Y-18845000D01*
X124383740Y-18845000D01*
X124096842Y-18902068D01*
X123826589Y-19014010D01*
X123583368Y-19176525D01*
X123376525Y-19383368D01*
X123260000Y-19557760D01*
X123143475Y-19383368D01*
X122936632Y-19176525D01*
X122693411Y-19014010D01*
X122423158Y-18902068D01*
X122136260Y-18845000D01*
X121843740Y-18845000D01*
X121556842Y-18902068D01*
X121286589Y-19014010D01*
X121043368Y-19176525D01*
X120836525Y-19383368D01*
X120720000Y-19557760D01*
X120603475Y-19383368D01*
X120396632Y-19176525D01*
X120153411Y-19014010D01*
X119883158Y-18902068D01*
X119596260Y-18845000D01*
X119303740Y-18845000D01*
X119016842Y-18902068D01*
X118746589Y-19014010D01*
X118503368Y-19176525D01*
X118296525Y-19383368D01*
X118180000Y-19557760D01*
X118063475Y-19383368D01*
X117856632Y-19176525D01*
X117613411Y-19014010D01*
X117343158Y-18902068D01*
X117056260Y-18845000D01*
X116763740Y-18845000D01*
X116476842Y-18902068D01*
X116206589Y-19014010D01*
X115963368Y-19176525D01*
X115756525Y-19383368D01*
X115640000Y-19557760D01*
X115523475Y-19383368D01*
X115316632Y-19176525D01*
X115073411Y-19014010D01*
X114803158Y-18902068D01*
X114516260Y-18845000D01*
X114223740Y-18845000D01*
X113936842Y-18902068D01*
X113666589Y-19014010D01*
X113423368Y-19176525D01*
X113216525Y-19383368D01*
X113100000Y-19557760D01*
X112983475Y-19383368D01*
X112776632Y-19176525D01*
X112533411Y-19014010D01*
X112263158Y-18902068D01*
X111976260Y-18845000D01*
X111683740Y-18845000D01*
X111396842Y-18902068D01*
X111126589Y-19014010D01*
X110883368Y-19176525D01*
X110676525Y-19383368D01*
X110554805Y-19565534D01*
X110485178Y-19448645D01*
X110290269Y-19232412D01*
X110056920Y-19058359D01*
X109794099Y-18933175D01*
X109646890Y-18888524D01*
X109417000Y-19009845D01*
X109163000Y-19009845D01*
X108933110Y-18888524D01*
X108785901Y-18933175D01*
X108523080Y-19058359D01*
X108289731Y-19232412D01*
X108213966Y-19316466D01*
X108189502Y-19235820D01*
X108130537Y-19125506D01*
X108051185Y-19028815D01*
X107954494Y-18949463D01*
X107844180Y-18890498D01*
X107724482Y-18854188D01*
X107600000Y-18841928D01*
X107035750Y-18845000D01*
X106877000Y-19003750D01*
X106623000Y-19003750D01*
X106464250Y-18845000D01*
X105900000Y-18841928D01*
X105775518Y-18854188D01*
X105655820Y-18890498D01*
X105545506Y-18949463D01*
X105448815Y-19028815D01*
X105369463Y-19125506D01*
X105310498Y-19235820D01*
X105274188Y-19355518D01*
X105261928Y-19480000D01*
X92253948Y-19480000D01*
X92321846Y-19337649D01*
X92766628Y-18718669D01*
X93313988Y-18188239D01*
X93946639Y-17763116D01*
X94644561Y-17456749D01*
X95391183Y-17277501D01*
X96038030Y-17230000D01*
X178276382Y-17230000D01*
X179067192Y-17300578D01*
G37*
G04 #@! TD.AperFunction*
G04 #@! TD*
M02*
