G04 #@! TF.GenerationSoftware,KiCad,Pcbnew,(5.1.7)-1*
G04 #@! TF.CreationDate,2021-07-27T18:03:22-05:00*
G04 #@! TF.ProjectId,ConsolePedalDual,436f6e73-6f6c-4655-9065-64616c447561,rev?*
G04 #@! TF.SameCoordinates,Original*
G04 #@! TF.FileFunction,Legend,Top*
G04 #@! TF.FilePolarity,Positive*
%FSLAX46Y46*%
G04 Gerber Fmt 4.6, Leading zero omitted, Abs format (unit mm)*
G04 Created by KiCad (PCBNEW (5.1.7)-1) date 2021-07-27 18:03:22*
%MOMM*%
%LPD*%
G01*
G04 APERTURE LIST*
%ADD10C,0.300000*%
%ADD11C,0.250000*%
%ADD12C,0.150000*%
%ADD13C,0.120000*%
%ADD14C,0.203200*%
G04 APERTURE END LIST*
D10*
X114300000Y-53720000D02*
X160020000Y-53720000D01*
D11*
X124160000Y-104929714D02*
X124088571Y-105001142D01*
X123874285Y-105072571D01*
X123731428Y-105072571D01*
X123517142Y-105001142D01*
X123374285Y-104858285D01*
X123302857Y-104715428D01*
X123231428Y-104429714D01*
X123231428Y-104215428D01*
X123302857Y-103929714D01*
X123374285Y-103786857D01*
X123517142Y-103644000D01*
X123731428Y-103572571D01*
X123874285Y-103572571D01*
X124088571Y-103644000D01*
X124160000Y-103715428D01*
X125017142Y-105072571D02*
X124874285Y-105001142D01*
X124802857Y-104929714D01*
X124731428Y-104786857D01*
X124731428Y-104358285D01*
X124802857Y-104215428D01*
X124874285Y-104144000D01*
X125017142Y-104072571D01*
X125231428Y-104072571D01*
X125374285Y-104144000D01*
X125445714Y-104215428D01*
X125517142Y-104358285D01*
X125517142Y-104786857D01*
X125445714Y-104929714D01*
X125374285Y-105001142D01*
X125231428Y-105072571D01*
X125017142Y-105072571D01*
X126160000Y-104072571D02*
X126160000Y-105072571D01*
X126160000Y-104215428D02*
X126231428Y-104144000D01*
X126374285Y-104072571D01*
X126588571Y-104072571D01*
X126731428Y-104144000D01*
X126802857Y-104286857D01*
X126802857Y-105072571D01*
X127445714Y-105001142D02*
X127588571Y-105072571D01*
X127874285Y-105072571D01*
X128017142Y-105001142D01*
X128088571Y-104858285D01*
X128088571Y-104786857D01*
X128017142Y-104644000D01*
X127874285Y-104572571D01*
X127660000Y-104572571D01*
X127517142Y-104501142D01*
X127445714Y-104358285D01*
X127445714Y-104286857D01*
X127517142Y-104144000D01*
X127660000Y-104072571D01*
X127874285Y-104072571D01*
X128017142Y-104144000D01*
X128945714Y-105072571D02*
X128802857Y-105001142D01*
X128731428Y-104929714D01*
X128660000Y-104786857D01*
X128660000Y-104358285D01*
X128731428Y-104215428D01*
X128802857Y-104144000D01*
X128945714Y-104072571D01*
X129160000Y-104072571D01*
X129302857Y-104144000D01*
X129374285Y-104215428D01*
X129445714Y-104358285D01*
X129445714Y-104786857D01*
X129374285Y-104929714D01*
X129302857Y-105001142D01*
X129160000Y-105072571D01*
X128945714Y-105072571D01*
X130302857Y-105072571D02*
X130160000Y-105001142D01*
X130088571Y-104858285D01*
X130088571Y-103572571D01*
X131445714Y-105001142D02*
X131302857Y-105072571D01*
X131017142Y-105072571D01*
X130874285Y-105001142D01*
X130802857Y-104858285D01*
X130802857Y-104286857D01*
X130874285Y-104144000D01*
X131017142Y-104072571D01*
X131302857Y-104072571D01*
X131445714Y-104144000D01*
X131517142Y-104286857D01*
X131517142Y-104429714D01*
X130802857Y-104572571D01*
X133302857Y-105072571D02*
X133302857Y-103572571D01*
X133874285Y-103572571D01*
X134017142Y-103644000D01*
X134088571Y-103715428D01*
X134160000Y-103858285D01*
X134160000Y-104072571D01*
X134088571Y-104215428D01*
X134017142Y-104286857D01*
X133874285Y-104358285D01*
X133302857Y-104358285D01*
X135374285Y-105001142D02*
X135231428Y-105072571D01*
X134945714Y-105072571D01*
X134802857Y-105001142D01*
X134731428Y-104858285D01*
X134731428Y-104286857D01*
X134802857Y-104144000D01*
X134945714Y-104072571D01*
X135231428Y-104072571D01*
X135374285Y-104144000D01*
X135445714Y-104286857D01*
X135445714Y-104429714D01*
X134731428Y-104572571D01*
X136731428Y-105072571D02*
X136731428Y-103572571D01*
X136731428Y-105001142D02*
X136588571Y-105072571D01*
X136302857Y-105072571D01*
X136160000Y-105001142D01*
X136088571Y-104929714D01*
X136017142Y-104786857D01*
X136017142Y-104358285D01*
X136088571Y-104215428D01*
X136160000Y-104144000D01*
X136302857Y-104072571D01*
X136588571Y-104072571D01*
X136731428Y-104144000D01*
X138088571Y-105072571D02*
X138088571Y-104286857D01*
X138017142Y-104144000D01*
X137874285Y-104072571D01*
X137588571Y-104072571D01*
X137445714Y-104144000D01*
X138088571Y-105001142D02*
X137945714Y-105072571D01*
X137588571Y-105072571D01*
X137445714Y-105001142D01*
X137374285Y-104858285D01*
X137374285Y-104715428D01*
X137445714Y-104572571D01*
X137588571Y-104501142D01*
X137945714Y-104501142D01*
X138088571Y-104429714D01*
X139017142Y-105072571D02*
X138874285Y-105001142D01*
X138802857Y-104858285D01*
X138802857Y-103572571D01*
X140731428Y-105072571D02*
X140731428Y-103572571D01*
X141088571Y-103572571D01*
X141302857Y-103644000D01*
X141445714Y-103786857D01*
X141517142Y-103929714D01*
X141588571Y-104215428D01*
X141588571Y-104429714D01*
X141517142Y-104715428D01*
X141445714Y-104858285D01*
X141302857Y-105001142D01*
X141088571Y-105072571D01*
X140731428Y-105072571D01*
X142874285Y-104072571D02*
X142874285Y-105072571D01*
X142231428Y-104072571D02*
X142231428Y-104858285D01*
X142302857Y-105001142D01*
X142445714Y-105072571D01*
X142660000Y-105072571D01*
X142802857Y-105001142D01*
X142874285Y-104929714D01*
X144231428Y-105072571D02*
X144231428Y-104286857D01*
X144160000Y-104144000D01*
X144017142Y-104072571D01*
X143731428Y-104072571D01*
X143588571Y-104144000D01*
X144231428Y-105001142D02*
X144088571Y-105072571D01*
X143731428Y-105072571D01*
X143588571Y-105001142D01*
X143517142Y-104858285D01*
X143517142Y-104715428D01*
X143588571Y-104572571D01*
X143731428Y-104501142D01*
X144088571Y-104501142D01*
X144231428Y-104429714D01*
X145160000Y-105072571D02*
X145017142Y-105001142D01*
X144945714Y-104858285D01*
X144945714Y-103572571D01*
X146660000Y-103572571D02*
X147160000Y-105072571D01*
X147660000Y-103572571D01*
X148945714Y-105072571D02*
X148088571Y-105072571D01*
X148517142Y-105072571D02*
X148517142Y-103572571D01*
X148374285Y-103786857D01*
X148231428Y-103929714D01*
X148088571Y-104001142D01*
X149588571Y-104929714D02*
X149660000Y-105001142D01*
X149588571Y-105072571D01*
X149517142Y-105001142D01*
X149588571Y-104929714D01*
X149588571Y-105072571D01*
X151088571Y-105072571D02*
X150231428Y-105072571D01*
X150660000Y-105072571D02*
X150660000Y-103572571D01*
X150517142Y-103786857D01*
X150374285Y-103929714D01*
X150231428Y-104001142D01*
D12*
X132610952Y-38822380D02*
X132610952Y-39536666D01*
X132563333Y-39679523D01*
X132468095Y-39774761D01*
X132325238Y-39822380D01*
X132230000Y-39822380D01*
X133563333Y-39822380D02*
X133087142Y-39822380D01*
X133087142Y-38822380D01*
X134468095Y-39727142D02*
X134420476Y-39774761D01*
X134277619Y-39822380D01*
X134182380Y-39822380D01*
X134039523Y-39774761D01*
X133944285Y-39679523D01*
X133896666Y-39584285D01*
X133849047Y-39393809D01*
X133849047Y-39250952D01*
X133896666Y-39060476D01*
X133944285Y-38965238D01*
X134039523Y-38870000D01*
X134182380Y-38822380D01*
X134277619Y-38822380D01*
X134420476Y-38870000D01*
X134468095Y-38917619D01*
X135182380Y-38822380D02*
X135182380Y-39536666D01*
X135134761Y-39679523D01*
X135039523Y-39774761D01*
X134896666Y-39822380D01*
X134801428Y-39822380D01*
X136134761Y-39822380D02*
X135658571Y-39822380D01*
X135658571Y-38822380D01*
X137039523Y-39727142D02*
X136991904Y-39774761D01*
X136849047Y-39822380D01*
X136753809Y-39822380D01*
X136610952Y-39774761D01*
X136515714Y-39679523D01*
X136468095Y-39584285D01*
X136420476Y-39393809D01*
X136420476Y-39250952D01*
X136468095Y-39060476D01*
X136515714Y-38965238D01*
X136610952Y-38870000D01*
X136753809Y-38822380D01*
X136849047Y-38822380D01*
X136991904Y-38870000D01*
X137039523Y-38917619D01*
X137753809Y-38822380D02*
X137753809Y-39536666D01*
X137706190Y-39679523D01*
X137610952Y-39774761D01*
X137468095Y-39822380D01*
X137372857Y-39822380D01*
X138706190Y-39822380D02*
X138230000Y-39822380D01*
X138230000Y-38822380D01*
X139610952Y-39727142D02*
X139563333Y-39774761D01*
X139420476Y-39822380D01*
X139325238Y-39822380D01*
X139182380Y-39774761D01*
X139087142Y-39679523D01*
X139039523Y-39584285D01*
X138991904Y-39393809D01*
X138991904Y-39250952D01*
X139039523Y-39060476D01*
X139087142Y-38965238D01*
X139182380Y-38870000D01*
X139325238Y-38822380D01*
X139420476Y-38822380D01*
X139563333Y-38870000D01*
X139610952Y-38917619D01*
X140325238Y-38822380D02*
X140325238Y-39536666D01*
X140277619Y-39679523D01*
X140182380Y-39774761D01*
X140039523Y-39822380D01*
X139944285Y-39822380D01*
X141277619Y-39822380D02*
X140801428Y-39822380D01*
X140801428Y-38822380D01*
X142182380Y-39727142D02*
X142134761Y-39774761D01*
X141991904Y-39822380D01*
X141896666Y-39822380D01*
X141753809Y-39774761D01*
X141658571Y-39679523D01*
X141610952Y-39584285D01*
X141563333Y-39393809D01*
X141563333Y-39250952D01*
X141610952Y-39060476D01*
X141658571Y-38965238D01*
X141753809Y-38870000D01*
X141896666Y-38822380D01*
X141991904Y-38822380D01*
X142134761Y-38870000D01*
X142182380Y-38917619D01*
X114808047Y-62301428D02*
X115569952Y-62301428D01*
X115189000Y-62682380D02*
X115189000Y-61920476D01*
D11*
X126874285Y-47077571D02*
X127731428Y-47077571D01*
X127302857Y-48577571D02*
X127302857Y-47077571D01*
X128231428Y-48577571D02*
X128231428Y-47077571D01*
X128874285Y-48577571D02*
X128874285Y-47791857D01*
X128802857Y-47649000D01*
X128660000Y-47577571D01*
X128445714Y-47577571D01*
X128302857Y-47649000D01*
X128231428Y-47720428D01*
X129802857Y-48577571D02*
X129660000Y-48506142D01*
X129588571Y-48434714D01*
X129517142Y-48291857D01*
X129517142Y-47863285D01*
X129588571Y-47720428D01*
X129660000Y-47649000D01*
X129802857Y-47577571D01*
X130017142Y-47577571D01*
X130160000Y-47649000D01*
X130231428Y-47720428D01*
X130302857Y-47863285D01*
X130302857Y-48291857D01*
X130231428Y-48434714D01*
X130160000Y-48506142D01*
X130017142Y-48577571D01*
X129802857Y-48577571D01*
X130945714Y-48577571D02*
X130945714Y-47577571D01*
X130945714Y-47720428D02*
X131017142Y-47649000D01*
X131160000Y-47577571D01*
X131374285Y-47577571D01*
X131517142Y-47649000D01*
X131588571Y-47791857D01*
X131588571Y-48577571D01*
X131588571Y-47791857D02*
X131660000Y-47649000D01*
X131802857Y-47577571D01*
X132017142Y-47577571D01*
X132160000Y-47649000D01*
X132231428Y-47791857D01*
X132231428Y-48577571D01*
X133588571Y-48577571D02*
X133588571Y-47791857D01*
X133517142Y-47649000D01*
X133374285Y-47577571D01*
X133088571Y-47577571D01*
X132945714Y-47649000D01*
X133588571Y-48506142D02*
X133445714Y-48577571D01*
X133088571Y-48577571D01*
X132945714Y-48506142D01*
X132874285Y-48363285D01*
X132874285Y-48220428D01*
X132945714Y-48077571D01*
X133088571Y-48006142D01*
X133445714Y-48006142D01*
X133588571Y-47934714D01*
X134231428Y-48506142D02*
X134374285Y-48577571D01*
X134660000Y-48577571D01*
X134802857Y-48506142D01*
X134874285Y-48363285D01*
X134874285Y-48291857D01*
X134802857Y-48149000D01*
X134660000Y-48077571D01*
X134445714Y-48077571D01*
X134302857Y-48006142D01*
X134231428Y-47863285D01*
X134231428Y-47791857D01*
X134302857Y-47649000D01*
X134445714Y-47577571D01*
X134660000Y-47577571D01*
X134802857Y-47649000D01*
X136660000Y-48577571D02*
X136660000Y-47077571D01*
X137160000Y-48149000D01*
X137660000Y-47077571D01*
X137660000Y-48577571D01*
X139017142Y-48506142D02*
X138874285Y-48577571D01*
X138588571Y-48577571D01*
X138445714Y-48506142D01*
X138374285Y-48434714D01*
X138302857Y-48291857D01*
X138302857Y-47863285D01*
X138374285Y-47720428D01*
X138445714Y-47649000D01*
X138588571Y-47577571D01*
X138874285Y-47577571D01*
X139017142Y-47649000D01*
X139660000Y-48577571D02*
X139660000Y-47077571D01*
X140017142Y-47077571D01*
X140231428Y-47149000D01*
X140374285Y-47291857D01*
X140445714Y-47434714D01*
X140517142Y-47720428D01*
X140517142Y-47934714D01*
X140445714Y-48220428D01*
X140374285Y-48363285D01*
X140231428Y-48506142D01*
X140017142Y-48577571D01*
X139660000Y-48577571D01*
X141374285Y-48577571D02*
X141231428Y-48506142D01*
X141160000Y-48434714D01*
X141088571Y-48291857D01*
X141088571Y-47863285D01*
X141160000Y-47720428D01*
X141231428Y-47649000D01*
X141374285Y-47577571D01*
X141588571Y-47577571D01*
X141731428Y-47649000D01*
X141802857Y-47720428D01*
X141874285Y-47863285D01*
X141874285Y-48291857D01*
X141802857Y-48434714D01*
X141731428Y-48506142D01*
X141588571Y-48577571D01*
X141374285Y-48577571D01*
X142517142Y-47577571D02*
X142517142Y-48577571D01*
X142517142Y-47720428D02*
X142588571Y-47649000D01*
X142731428Y-47577571D01*
X142945714Y-47577571D01*
X143088571Y-47649000D01*
X143160000Y-47791857D01*
X143160000Y-48577571D01*
X144517142Y-48577571D02*
X144517142Y-47791857D01*
X144445714Y-47649000D01*
X144302857Y-47577571D01*
X144017142Y-47577571D01*
X143874285Y-47649000D01*
X144517142Y-48506142D02*
X144374285Y-48577571D01*
X144017142Y-48577571D01*
X143874285Y-48506142D01*
X143802857Y-48363285D01*
X143802857Y-48220428D01*
X143874285Y-48077571D01*
X144017142Y-48006142D01*
X144374285Y-48006142D01*
X144517142Y-47934714D01*
X145874285Y-47577571D02*
X145874285Y-48791857D01*
X145802857Y-48934714D01*
X145731428Y-49006142D01*
X145588571Y-49077571D01*
X145374285Y-49077571D01*
X145231428Y-49006142D01*
X145874285Y-48506142D02*
X145731428Y-48577571D01*
X145445714Y-48577571D01*
X145302857Y-48506142D01*
X145231428Y-48434714D01*
X145160000Y-48291857D01*
X145160000Y-47863285D01*
X145231428Y-47720428D01*
X145302857Y-47649000D01*
X145445714Y-47577571D01*
X145731428Y-47577571D01*
X145874285Y-47649000D01*
X146588571Y-48577571D02*
X146588571Y-47077571D01*
X147231428Y-48577571D02*
X147231428Y-47791857D01*
X147160000Y-47649000D01*
X147017142Y-47577571D01*
X146802857Y-47577571D01*
X146660000Y-47649000D01*
X146588571Y-47720428D01*
X127481428Y-51006142D02*
X127338571Y-51077571D01*
X127052857Y-51077571D01*
X126910000Y-51006142D01*
X126838571Y-50934714D01*
X126767142Y-50791857D01*
X126767142Y-50363285D01*
X126838571Y-50220428D01*
X126910000Y-50149000D01*
X127052857Y-50077571D01*
X127338571Y-50077571D01*
X127481428Y-50149000D01*
X128338571Y-51077571D02*
X128195714Y-51006142D01*
X128124285Y-50934714D01*
X128052857Y-50791857D01*
X128052857Y-50363285D01*
X128124285Y-50220428D01*
X128195714Y-50149000D01*
X128338571Y-50077571D01*
X128552857Y-50077571D01*
X128695714Y-50149000D01*
X128767142Y-50220428D01*
X128838571Y-50363285D01*
X128838571Y-50791857D01*
X128767142Y-50934714D01*
X128695714Y-51006142D01*
X128552857Y-51077571D01*
X128338571Y-51077571D01*
X129481428Y-50077571D02*
X129481428Y-51077571D01*
X129481428Y-50220428D02*
X129552857Y-50149000D01*
X129695714Y-50077571D01*
X129910000Y-50077571D01*
X130052857Y-50149000D01*
X130124285Y-50291857D01*
X130124285Y-51077571D01*
X130767142Y-51006142D02*
X130910000Y-51077571D01*
X131195714Y-51077571D01*
X131338571Y-51006142D01*
X131410000Y-50863285D01*
X131410000Y-50791857D01*
X131338571Y-50649000D01*
X131195714Y-50577571D01*
X130981428Y-50577571D01*
X130838571Y-50506142D01*
X130767142Y-50363285D01*
X130767142Y-50291857D01*
X130838571Y-50149000D01*
X130981428Y-50077571D01*
X131195714Y-50077571D01*
X131338571Y-50149000D01*
X132267142Y-51077571D02*
X132124285Y-51006142D01*
X132052857Y-50934714D01*
X131981428Y-50791857D01*
X131981428Y-50363285D01*
X132052857Y-50220428D01*
X132124285Y-50149000D01*
X132267142Y-50077571D01*
X132481428Y-50077571D01*
X132624285Y-50149000D01*
X132695714Y-50220428D01*
X132767142Y-50363285D01*
X132767142Y-50791857D01*
X132695714Y-50934714D01*
X132624285Y-51006142D01*
X132481428Y-51077571D01*
X132267142Y-51077571D01*
X133624285Y-51077571D02*
X133481428Y-51006142D01*
X133410000Y-50863285D01*
X133410000Y-49577571D01*
X134767142Y-51006142D02*
X134624285Y-51077571D01*
X134338571Y-51077571D01*
X134195714Y-51006142D01*
X134124285Y-50863285D01*
X134124285Y-50291857D01*
X134195714Y-50149000D01*
X134338571Y-50077571D01*
X134624285Y-50077571D01*
X134767142Y-50149000D01*
X134838571Y-50291857D01*
X134838571Y-50434714D01*
X134124285Y-50577571D01*
X135481428Y-50077571D02*
X135481428Y-51577571D01*
X135481428Y-50149000D02*
X135624285Y-50077571D01*
X135910000Y-50077571D01*
X136052857Y-50149000D01*
X136124285Y-50220428D01*
X136195714Y-50363285D01*
X136195714Y-50791857D01*
X136124285Y-50934714D01*
X136052857Y-51006142D01*
X135910000Y-51077571D01*
X135624285Y-51077571D01*
X135481428Y-51006142D01*
X137410000Y-51006142D02*
X137267142Y-51077571D01*
X136981428Y-51077571D01*
X136838571Y-51006142D01*
X136767142Y-50863285D01*
X136767142Y-50291857D01*
X136838571Y-50149000D01*
X136981428Y-50077571D01*
X137267142Y-50077571D01*
X137410000Y-50149000D01*
X137481428Y-50291857D01*
X137481428Y-50434714D01*
X136767142Y-50577571D01*
X138767142Y-51077571D02*
X138767142Y-49577571D01*
X138767142Y-51006142D02*
X138624285Y-51077571D01*
X138338571Y-51077571D01*
X138195714Y-51006142D01*
X138124285Y-50934714D01*
X138052857Y-50791857D01*
X138052857Y-50363285D01*
X138124285Y-50220428D01*
X138195714Y-50149000D01*
X138338571Y-50077571D01*
X138624285Y-50077571D01*
X138767142Y-50149000D01*
X140124285Y-51077571D02*
X140124285Y-50291857D01*
X140052857Y-50149000D01*
X139910000Y-50077571D01*
X139624285Y-50077571D01*
X139481428Y-50149000D01*
X140124285Y-51006142D02*
X139981428Y-51077571D01*
X139624285Y-51077571D01*
X139481428Y-51006142D01*
X139410000Y-50863285D01*
X139410000Y-50720428D01*
X139481428Y-50577571D01*
X139624285Y-50506142D01*
X139981428Y-50506142D01*
X140124285Y-50434714D01*
X141052857Y-51077571D02*
X140910000Y-51006142D01*
X140838571Y-50863285D01*
X140838571Y-49577571D01*
X141552857Y-51006142D02*
X141695714Y-51077571D01*
X141981428Y-51077571D01*
X142124285Y-51006142D01*
X142195714Y-50863285D01*
X142195714Y-50791857D01*
X142124285Y-50649000D01*
X141981428Y-50577571D01*
X141767142Y-50577571D01*
X141624285Y-50506142D01*
X141552857Y-50363285D01*
X141552857Y-50291857D01*
X141624285Y-50149000D01*
X141767142Y-50077571D01*
X141981428Y-50077571D01*
X142124285Y-50149000D01*
X142838571Y-50934714D02*
X142910000Y-51006142D01*
X142838571Y-51077571D01*
X142767142Y-51006142D01*
X142838571Y-50934714D01*
X142838571Y-51077571D01*
X144195714Y-51006142D02*
X144052857Y-51077571D01*
X143767142Y-51077571D01*
X143624285Y-51006142D01*
X143552857Y-50934714D01*
X143481428Y-50791857D01*
X143481428Y-50363285D01*
X143552857Y-50220428D01*
X143624285Y-50149000D01*
X143767142Y-50077571D01*
X144052857Y-50077571D01*
X144195714Y-50149000D01*
X145052857Y-51077571D02*
X144910000Y-51006142D01*
X144838571Y-50934714D01*
X144767142Y-50791857D01*
X144767142Y-50363285D01*
X144838571Y-50220428D01*
X144910000Y-50149000D01*
X145052857Y-50077571D01*
X145267142Y-50077571D01*
X145410000Y-50149000D01*
X145481428Y-50220428D01*
X145552857Y-50363285D01*
X145552857Y-50791857D01*
X145481428Y-50934714D01*
X145410000Y-51006142D01*
X145267142Y-51077571D01*
X145052857Y-51077571D01*
X146195714Y-51077571D02*
X146195714Y-50077571D01*
X146195714Y-50220428D02*
X146267142Y-50149000D01*
X146410000Y-50077571D01*
X146624285Y-50077571D01*
X146767142Y-50149000D01*
X146838571Y-50291857D01*
X146838571Y-51077571D01*
X146838571Y-50291857D02*
X146910000Y-50149000D01*
X147052857Y-50077571D01*
X147267142Y-50077571D01*
X147410000Y-50149000D01*
X147481428Y-50291857D01*
X147481428Y-51077571D01*
D13*
G04 #@! TO.C,J3*
X105420000Y-43210000D02*
X105420000Y-38100000D01*
X105420000Y-43210000D02*
X169040000Y-43210000D01*
X169040000Y-43210000D02*
X169040000Y-35500000D01*
X108020000Y-35500000D02*
X169040000Y-35500000D01*
X108020000Y-38100000D02*
X108020000Y-35500000D01*
X105420000Y-38100000D02*
X108020000Y-38100000D01*
X105420000Y-35500000D02*
X106750000Y-35500000D01*
X105420000Y-36830000D02*
X105420000Y-35500000D01*
G04 #@! TO.C,BT1*
X116459000Y-61535000D02*
X117789000Y-61535000D01*
X117789000Y-61535000D02*
X117789000Y-62865000D01*
X117789000Y-64135000D02*
X117789000Y-66735000D01*
X115129000Y-66735000D02*
X117789000Y-66735000D01*
X115129000Y-64135000D02*
X115129000Y-66735000D01*
X115129000Y-64135000D02*
X117789000Y-64135000D01*
G04 #@! TO.C,D1*
X139660000Y-79883000D02*
G75*
G03*
X139660000Y-79883000I-2500000J0D01*
G01*
X134600000Y-78338000D02*
X134600000Y-81428000D01*
X140150000Y-79883462D02*
G75*
G03*
X134600000Y-78338170I-2990000J462D01*
G01*
X140150000Y-79882538D02*
G75*
G02*
X134600000Y-81427830I-2990000J-462D01*
G01*
G04 #@! TO.C,J1*
X115129000Y-72009000D02*
X117789000Y-72009000D01*
X115129000Y-72009000D02*
X115129000Y-77149000D01*
X115129000Y-77149000D02*
X117789000Y-77149000D01*
X117789000Y-72009000D02*
X117789000Y-77149000D01*
X117789000Y-69409000D02*
X117789000Y-70739000D01*
X116459000Y-69409000D02*
X117789000Y-69409000D01*
G04 #@! TO.C,J2*
X156531000Y-75057000D02*
X159191000Y-75057000D01*
X156531000Y-75057000D02*
X156531000Y-77657000D01*
X156531000Y-77657000D02*
X159191000Y-77657000D01*
X159191000Y-75057000D02*
X159191000Y-77657000D01*
X159191000Y-72457000D02*
X159191000Y-73787000D01*
X157861000Y-72457000D02*
X159191000Y-72457000D01*
D14*
G04 #@! TO.C,S1*
X147007580Y-102478840D02*
X127312420Y-102478840D01*
X127312420Y-102478840D02*
X127312420Y-85481160D01*
X127312420Y-85481160D02*
X147007580Y-85481160D01*
X147007580Y-85481160D02*
X147007580Y-102478840D01*
D13*
G04 #@! TO.C,J4*
X105420000Y-26710000D02*
X105420000Y-21600000D01*
X105420000Y-26710000D02*
X169040000Y-26710000D01*
X169040000Y-26710000D02*
X169040000Y-19000000D01*
X108020000Y-19000000D02*
X169040000Y-19000000D01*
X108020000Y-21600000D02*
X108020000Y-19000000D01*
X105420000Y-21600000D02*
X108020000Y-21600000D01*
X105420000Y-19000000D02*
X106750000Y-19000000D01*
X105420000Y-20330000D02*
X105420000Y-19000000D01*
G04 #@! TO.C,R2*
X147601000Y-85947000D02*
X150341000Y-85947000D01*
X150341000Y-85947000D02*
X150341000Y-79407000D01*
X150341000Y-79407000D02*
X147601000Y-79407000D01*
X147601000Y-79407000D02*
X147601000Y-85947000D01*
X148971000Y-86717000D02*
X148971000Y-85947000D01*
X148971000Y-78637000D02*
X148971000Y-79407000D01*
G04 #@! TO.C,R6*
X122909000Y-79407000D02*
X120169000Y-79407000D01*
X120169000Y-79407000D02*
X120169000Y-85947000D01*
X120169000Y-85947000D02*
X122909000Y-85947000D01*
X122909000Y-85947000D02*
X122909000Y-79407000D01*
X121539000Y-78637000D02*
X121539000Y-79407000D01*
X121539000Y-86717000D02*
X121539000Y-85947000D01*
G04 #@! TO.C,R8*
X154151000Y-79407000D02*
X151411000Y-79407000D01*
X151411000Y-79407000D02*
X151411000Y-85947000D01*
X151411000Y-85947000D02*
X154151000Y-85947000D01*
X154151000Y-85947000D02*
X154151000Y-79407000D01*
X152781000Y-78637000D02*
X152781000Y-79407000D01*
X152781000Y-86717000D02*
X152781000Y-85947000D01*
G04 #@! TO.C,R9*
X125349000Y-78637000D02*
X125349000Y-79407000D01*
X125349000Y-86717000D02*
X125349000Y-85947000D01*
X123979000Y-79407000D02*
X123979000Y-85947000D01*
X126719000Y-79407000D02*
X123979000Y-79407000D01*
X126719000Y-85947000D02*
X126719000Y-79407000D01*
X123979000Y-85947000D02*
X126719000Y-85947000D01*
G04 #@! TO.C,U1*
X126753000Y-64202000D02*
X126753000Y-74482000D01*
X147313000Y-64202000D02*
X126753000Y-64202000D01*
X147313000Y-74482000D02*
X147313000Y-64202000D01*
X126753000Y-74482000D02*
X147313000Y-74482000D01*
X126813000Y-66692000D02*
X126813000Y-68342000D01*
X147253000Y-66692000D02*
X126813000Y-66692000D01*
X147253000Y-71992000D02*
X147253000Y-66692000D01*
X126813000Y-71992000D02*
X147253000Y-71992000D01*
X126813000Y-70342000D02*
X126813000Y-71992000D01*
X126813000Y-68342000D02*
G75*
G02*
X126813000Y-70342000I0J-1000000D01*
G01*
G04 #@! TO.C,C2*
X119452000Y-87757000D02*
G75*
G03*
X119452000Y-87757000I-2120000J0D01*
G01*
X117332000Y-85677000D02*
X117332000Y-89837000D01*
X117372000Y-85677000D02*
X117372000Y-89837000D01*
X117412000Y-85678000D02*
X117412000Y-89836000D01*
X117452000Y-85680000D02*
X117452000Y-89834000D01*
X117492000Y-85683000D02*
X117492000Y-89831000D01*
X117532000Y-85686000D02*
X117532000Y-86917000D01*
X117532000Y-88597000D02*
X117532000Y-89828000D01*
X117572000Y-85690000D02*
X117572000Y-86917000D01*
X117572000Y-88597000D02*
X117572000Y-89824000D01*
X117612000Y-85695000D02*
X117612000Y-86917000D01*
X117612000Y-88597000D02*
X117612000Y-89819000D01*
X117652000Y-85701000D02*
X117652000Y-86917000D01*
X117652000Y-88597000D02*
X117652000Y-89813000D01*
X117692000Y-85707000D02*
X117692000Y-86917000D01*
X117692000Y-88597000D02*
X117692000Y-89807000D01*
X117732000Y-85715000D02*
X117732000Y-86917000D01*
X117732000Y-88597000D02*
X117732000Y-89799000D01*
X117772000Y-85723000D02*
X117772000Y-86917000D01*
X117772000Y-88597000D02*
X117772000Y-89791000D01*
X117812000Y-85732000D02*
X117812000Y-86917000D01*
X117812000Y-88597000D02*
X117812000Y-89782000D01*
X117852000Y-85741000D02*
X117852000Y-86917000D01*
X117852000Y-88597000D02*
X117852000Y-89773000D01*
X117892000Y-85752000D02*
X117892000Y-86917000D01*
X117892000Y-88597000D02*
X117892000Y-89762000D01*
X117932000Y-85763000D02*
X117932000Y-86917000D01*
X117932000Y-88597000D02*
X117932000Y-89751000D01*
X117972000Y-85775000D02*
X117972000Y-86917000D01*
X117972000Y-88597000D02*
X117972000Y-89739000D01*
X118012000Y-85789000D02*
X118012000Y-86917000D01*
X118012000Y-88597000D02*
X118012000Y-89725000D01*
X118053000Y-85803000D02*
X118053000Y-86917000D01*
X118053000Y-88597000D02*
X118053000Y-89711000D01*
X118093000Y-85817000D02*
X118093000Y-86917000D01*
X118093000Y-88597000D02*
X118093000Y-89697000D01*
X118133000Y-85833000D02*
X118133000Y-86917000D01*
X118133000Y-88597000D02*
X118133000Y-89681000D01*
X118173000Y-85850000D02*
X118173000Y-86917000D01*
X118173000Y-88597000D02*
X118173000Y-89664000D01*
X118213000Y-85868000D02*
X118213000Y-86917000D01*
X118213000Y-88597000D02*
X118213000Y-89646000D01*
X118253000Y-85887000D02*
X118253000Y-86917000D01*
X118253000Y-88597000D02*
X118253000Y-89627000D01*
X118293000Y-85906000D02*
X118293000Y-86917000D01*
X118293000Y-88597000D02*
X118293000Y-89608000D01*
X118333000Y-85927000D02*
X118333000Y-86917000D01*
X118333000Y-88597000D02*
X118333000Y-89587000D01*
X118373000Y-85949000D02*
X118373000Y-86917000D01*
X118373000Y-88597000D02*
X118373000Y-89565000D01*
X118413000Y-85972000D02*
X118413000Y-86917000D01*
X118413000Y-88597000D02*
X118413000Y-89542000D01*
X118453000Y-85997000D02*
X118453000Y-86917000D01*
X118453000Y-88597000D02*
X118453000Y-89517000D01*
X118493000Y-86022000D02*
X118493000Y-86917000D01*
X118493000Y-88597000D02*
X118493000Y-89492000D01*
X118533000Y-86049000D02*
X118533000Y-86917000D01*
X118533000Y-88597000D02*
X118533000Y-89465000D01*
X118573000Y-86077000D02*
X118573000Y-86917000D01*
X118573000Y-88597000D02*
X118573000Y-89437000D01*
X118613000Y-86107000D02*
X118613000Y-86917000D01*
X118613000Y-88597000D02*
X118613000Y-89407000D01*
X118653000Y-86138000D02*
X118653000Y-86917000D01*
X118653000Y-88597000D02*
X118653000Y-89376000D01*
X118693000Y-86170000D02*
X118693000Y-86917000D01*
X118693000Y-88597000D02*
X118693000Y-89344000D01*
X118733000Y-86205000D02*
X118733000Y-86917000D01*
X118733000Y-88597000D02*
X118733000Y-89309000D01*
X118773000Y-86241000D02*
X118773000Y-86917000D01*
X118773000Y-88597000D02*
X118773000Y-89273000D01*
X118813000Y-86279000D02*
X118813000Y-86917000D01*
X118813000Y-88597000D02*
X118813000Y-89235000D01*
X118853000Y-86319000D02*
X118853000Y-86917000D01*
X118853000Y-88597000D02*
X118853000Y-89195000D01*
X118893000Y-86361000D02*
X118893000Y-86917000D01*
X118893000Y-88597000D02*
X118893000Y-89153000D01*
X118933000Y-86406000D02*
X118933000Y-86917000D01*
X118933000Y-88597000D02*
X118933000Y-89108000D01*
X118973000Y-86453000D02*
X118973000Y-86917000D01*
X118973000Y-88597000D02*
X118973000Y-89061000D01*
X119013000Y-86503000D02*
X119013000Y-86917000D01*
X119013000Y-88597000D02*
X119013000Y-89011000D01*
X119053000Y-86557000D02*
X119053000Y-86917000D01*
X119053000Y-88597000D02*
X119053000Y-88957000D01*
X119093000Y-86615000D02*
X119093000Y-86917000D01*
X119093000Y-88597000D02*
X119093000Y-88899000D01*
X119133000Y-86677000D02*
X119133000Y-86917000D01*
X119133000Y-88597000D02*
X119133000Y-88837000D01*
X119173000Y-86744000D02*
X119173000Y-88770000D01*
X119213000Y-86817000D02*
X119213000Y-88697000D01*
X119253000Y-86898000D02*
X119253000Y-88616000D01*
X119293000Y-86989000D02*
X119293000Y-88525000D01*
X119333000Y-87093000D02*
X119333000Y-88421000D01*
X119373000Y-87220000D02*
X119373000Y-88294000D01*
X119413000Y-87387000D02*
X119413000Y-88127000D01*
X115062199Y-86562000D02*
X115462199Y-86562000D01*
X115262199Y-86362000D02*
X115262199Y-86762000D01*
G04 #@! TO.C,C3*
X121993199Y-64899000D02*
X121993199Y-65299000D01*
X121793199Y-65099000D02*
X122193199Y-65099000D01*
X126144000Y-65924000D02*
X126144000Y-66664000D01*
X126104000Y-65757000D02*
X126104000Y-66831000D01*
X126064000Y-65630000D02*
X126064000Y-66958000D01*
X126024000Y-65526000D02*
X126024000Y-67062000D01*
X125984000Y-65435000D02*
X125984000Y-67153000D01*
X125944000Y-65354000D02*
X125944000Y-67234000D01*
X125904000Y-65281000D02*
X125904000Y-67307000D01*
X125864000Y-67134000D02*
X125864000Y-67374000D01*
X125864000Y-65214000D02*
X125864000Y-65454000D01*
X125824000Y-67134000D02*
X125824000Y-67436000D01*
X125824000Y-65152000D02*
X125824000Y-65454000D01*
X125784000Y-67134000D02*
X125784000Y-67494000D01*
X125784000Y-65094000D02*
X125784000Y-65454000D01*
X125744000Y-67134000D02*
X125744000Y-67548000D01*
X125744000Y-65040000D02*
X125744000Y-65454000D01*
X125704000Y-67134000D02*
X125704000Y-67598000D01*
X125704000Y-64990000D02*
X125704000Y-65454000D01*
X125664000Y-67134000D02*
X125664000Y-67645000D01*
X125664000Y-64943000D02*
X125664000Y-65454000D01*
X125624000Y-67134000D02*
X125624000Y-67690000D01*
X125624000Y-64898000D02*
X125624000Y-65454000D01*
X125584000Y-67134000D02*
X125584000Y-67732000D01*
X125584000Y-64856000D02*
X125584000Y-65454000D01*
X125544000Y-67134000D02*
X125544000Y-67772000D01*
X125544000Y-64816000D02*
X125544000Y-65454000D01*
X125504000Y-67134000D02*
X125504000Y-67810000D01*
X125504000Y-64778000D02*
X125504000Y-65454000D01*
X125464000Y-67134000D02*
X125464000Y-67846000D01*
X125464000Y-64742000D02*
X125464000Y-65454000D01*
X125424000Y-67134000D02*
X125424000Y-67881000D01*
X125424000Y-64707000D02*
X125424000Y-65454000D01*
X125384000Y-67134000D02*
X125384000Y-67913000D01*
X125384000Y-64675000D02*
X125384000Y-65454000D01*
X125344000Y-67134000D02*
X125344000Y-67944000D01*
X125344000Y-64644000D02*
X125344000Y-65454000D01*
X125304000Y-67134000D02*
X125304000Y-67974000D01*
X125304000Y-64614000D02*
X125304000Y-65454000D01*
X125264000Y-67134000D02*
X125264000Y-68002000D01*
X125264000Y-64586000D02*
X125264000Y-65454000D01*
X125224000Y-67134000D02*
X125224000Y-68029000D01*
X125224000Y-64559000D02*
X125224000Y-65454000D01*
X125184000Y-67134000D02*
X125184000Y-68054000D01*
X125184000Y-64534000D02*
X125184000Y-65454000D01*
X125144000Y-67134000D02*
X125144000Y-68079000D01*
X125144000Y-64509000D02*
X125144000Y-65454000D01*
X125104000Y-67134000D02*
X125104000Y-68102000D01*
X125104000Y-64486000D02*
X125104000Y-65454000D01*
X125064000Y-67134000D02*
X125064000Y-68124000D01*
X125064000Y-64464000D02*
X125064000Y-65454000D01*
X125024000Y-67134000D02*
X125024000Y-68145000D01*
X125024000Y-64443000D02*
X125024000Y-65454000D01*
X124984000Y-67134000D02*
X124984000Y-68164000D01*
X124984000Y-64424000D02*
X124984000Y-65454000D01*
X124944000Y-67134000D02*
X124944000Y-68183000D01*
X124944000Y-64405000D02*
X124944000Y-65454000D01*
X124904000Y-67134000D02*
X124904000Y-68201000D01*
X124904000Y-64387000D02*
X124904000Y-65454000D01*
X124864000Y-67134000D02*
X124864000Y-68218000D01*
X124864000Y-64370000D02*
X124864000Y-65454000D01*
X124824000Y-67134000D02*
X124824000Y-68234000D01*
X124824000Y-64354000D02*
X124824000Y-65454000D01*
X124784000Y-67134000D02*
X124784000Y-68248000D01*
X124784000Y-64340000D02*
X124784000Y-65454000D01*
X124743000Y-67134000D02*
X124743000Y-68262000D01*
X124743000Y-64326000D02*
X124743000Y-65454000D01*
X124703000Y-67134000D02*
X124703000Y-68276000D01*
X124703000Y-64312000D02*
X124703000Y-65454000D01*
X124663000Y-67134000D02*
X124663000Y-68288000D01*
X124663000Y-64300000D02*
X124663000Y-65454000D01*
X124623000Y-67134000D02*
X124623000Y-68299000D01*
X124623000Y-64289000D02*
X124623000Y-65454000D01*
X124583000Y-67134000D02*
X124583000Y-68310000D01*
X124583000Y-64278000D02*
X124583000Y-65454000D01*
X124543000Y-67134000D02*
X124543000Y-68319000D01*
X124543000Y-64269000D02*
X124543000Y-65454000D01*
X124503000Y-67134000D02*
X124503000Y-68328000D01*
X124503000Y-64260000D02*
X124503000Y-65454000D01*
X124463000Y-67134000D02*
X124463000Y-68336000D01*
X124463000Y-64252000D02*
X124463000Y-65454000D01*
X124423000Y-67134000D02*
X124423000Y-68344000D01*
X124423000Y-64244000D02*
X124423000Y-65454000D01*
X124383000Y-67134000D02*
X124383000Y-68350000D01*
X124383000Y-64238000D02*
X124383000Y-65454000D01*
X124343000Y-67134000D02*
X124343000Y-68356000D01*
X124343000Y-64232000D02*
X124343000Y-65454000D01*
X124303000Y-67134000D02*
X124303000Y-68361000D01*
X124303000Y-64227000D02*
X124303000Y-65454000D01*
X124263000Y-67134000D02*
X124263000Y-68365000D01*
X124263000Y-64223000D02*
X124263000Y-65454000D01*
X124223000Y-64220000D02*
X124223000Y-68368000D01*
X124183000Y-64217000D02*
X124183000Y-68371000D01*
X124143000Y-64215000D02*
X124143000Y-68373000D01*
X124103000Y-64214000D02*
X124103000Y-68374000D01*
X124063000Y-64214000D02*
X124063000Y-68374000D01*
X126183000Y-66294000D02*
G75*
G03*
X126183000Y-66294000I-2120000J0D01*
G01*
G04 #@! TO.C,C4*
X122754000Y-73914000D02*
G75*
G03*
X122754000Y-73914000I-2120000J0D01*
G01*
X120634000Y-71834000D02*
X120634000Y-75994000D01*
X120674000Y-71834000D02*
X120674000Y-75994000D01*
X120714000Y-71835000D02*
X120714000Y-75993000D01*
X120754000Y-71837000D02*
X120754000Y-75991000D01*
X120794000Y-71840000D02*
X120794000Y-75988000D01*
X120834000Y-71843000D02*
X120834000Y-73074000D01*
X120834000Y-74754000D02*
X120834000Y-75985000D01*
X120874000Y-71847000D02*
X120874000Y-73074000D01*
X120874000Y-74754000D02*
X120874000Y-75981000D01*
X120914000Y-71852000D02*
X120914000Y-73074000D01*
X120914000Y-74754000D02*
X120914000Y-75976000D01*
X120954000Y-71858000D02*
X120954000Y-73074000D01*
X120954000Y-74754000D02*
X120954000Y-75970000D01*
X120994000Y-71864000D02*
X120994000Y-73074000D01*
X120994000Y-74754000D02*
X120994000Y-75964000D01*
X121034000Y-71872000D02*
X121034000Y-73074000D01*
X121034000Y-74754000D02*
X121034000Y-75956000D01*
X121074000Y-71880000D02*
X121074000Y-73074000D01*
X121074000Y-74754000D02*
X121074000Y-75948000D01*
X121114000Y-71889000D02*
X121114000Y-73074000D01*
X121114000Y-74754000D02*
X121114000Y-75939000D01*
X121154000Y-71898000D02*
X121154000Y-73074000D01*
X121154000Y-74754000D02*
X121154000Y-75930000D01*
X121194000Y-71909000D02*
X121194000Y-73074000D01*
X121194000Y-74754000D02*
X121194000Y-75919000D01*
X121234000Y-71920000D02*
X121234000Y-73074000D01*
X121234000Y-74754000D02*
X121234000Y-75908000D01*
X121274000Y-71932000D02*
X121274000Y-73074000D01*
X121274000Y-74754000D02*
X121274000Y-75896000D01*
X121314000Y-71946000D02*
X121314000Y-73074000D01*
X121314000Y-74754000D02*
X121314000Y-75882000D01*
X121355000Y-71960000D02*
X121355000Y-73074000D01*
X121355000Y-74754000D02*
X121355000Y-75868000D01*
X121395000Y-71974000D02*
X121395000Y-73074000D01*
X121395000Y-74754000D02*
X121395000Y-75854000D01*
X121435000Y-71990000D02*
X121435000Y-73074000D01*
X121435000Y-74754000D02*
X121435000Y-75838000D01*
X121475000Y-72007000D02*
X121475000Y-73074000D01*
X121475000Y-74754000D02*
X121475000Y-75821000D01*
X121515000Y-72025000D02*
X121515000Y-73074000D01*
X121515000Y-74754000D02*
X121515000Y-75803000D01*
X121555000Y-72044000D02*
X121555000Y-73074000D01*
X121555000Y-74754000D02*
X121555000Y-75784000D01*
X121595000Y-72063000D02*
X121595000Y-73074000D01*
X121595000Y-74754000D02*
X121595000Y-75765000D01*
X121635000Y-72084000D02*
X121635000Y-73074000D01*
X121635000Y-74754000D02*
X121635000Y-75744000D01*
X121675000Y-72106000D02*
X121675000Y-73074000D01*
X121675000Y-74754000D02*
X121675000Y-75722000D01*
X121715000Y-72129000D02*
X121715000Y-73074000D01*
X121715000Y-74754000D02*
X121715000Y-75699000D01*
X121755000Y-72154000D02*
X121755000Y-73074000D01*
X121755000Y-74754000D02*
X121755000Y-75674000D01*
X121795000Y-72179000D02*
X121795000Y-73074000D01*
X121795000Y-74754000D02*
X121795000Y-75649000D01*
X121835000Y-72206000D02*
X121835000Y-73074000D01*
X121835000Y-74754000D02*
X121835000Y-75622000D01*
X121875000Y-72234000D02*
X121875000Y-73074000D01*
X121875000Y-74754000D02*
X121875000Y-75594000D01*
X121915000Y-72264000D02*
X121915000Y-73074000D01*
X121915000Y-74754000D02*
X121915000Y-75564000D01*
X121955000Y-72295000D02*
X121955000Y-73074000D01*
X121955000Y-74754000D02*
X121955000Y-75533000D01*
X121995000Y-72327000D02*
X121995000Y-73074000D01*
X121995000Y-74754000D02*
X121995000Y-75501000D01*
X122035000Y-72362000D02*
X122035000Y-73074000D01*
X122035000Y-74754000D02*
X122035000Y-75466000D01*
X122075000Y-72398000D02*
X122075000Y-73074000D01*
X122075000Y-74754000D02*
X122075000Y-75430000D01*
X122115000Y-72436000D02*
X122115000Y-73074000D01*
X122115000Y-74754000D02*
X122115000Y-75392000D01*
X122155000Y-72476000D02*
X122155000Y-73074000D01*
X122155000Y-74754000D02*
X122155000Y-75352000D01*
X122195000Y-72518000D02*
X122195000Y-73074000D01*
X122195000Y-74754000D02*
X122195000Y-75310000D01*
X122235000Y-72563000D02*
X122235000Y-73074000D01*
X122235000Y-74754000D02*
X122235000Y-75265000D01*
X122275000Y-72610000D02*
X122275000Y-73074000D01*
X122275000Y-74754000D02*
X122275000Y-75218000D01*
X122315000Y-72660000D02*
X122315000Y-73074000D01*
X122315000Y-74754000D02*
X122315000Y-75168000D01*
X122355000Y-72714000D02*
X122355000Y-73074000D01*
X122355000Y-74754000D02*
X122355000Y-75114000D01*
X122395000Y-72772000D02*
X122395000Y-73074000D01*
X122395000Y-74754000D02*
X122395000Y-75056000D01*
X122435000Y-72834000D02*
X122435000Y-73074000D01*
X122435000Y-74754000D02*
X122435000Y-74994000D01*
X122475000Y-72901000D02*
X122475000Y-74927000D01*
X122515000Y-72974000D02*
X122515000Y-74854000D01*
X122555000Y-73055000D02*
X122555000Y-74773000D01*
X122595000Y-73146000D02*
X122595000Y-74682000D01*
X122635000Y-73250000D02*
X122635000Y-74578000D01*
X122675000Y-73377000D02*
X122675000Y-74451000D01*
X122715000Y-73544000D02*
X122715000Y-74284000D01*
X118364199Y-72719000D02*
X118764199Y-72719000D01*
X118564199Y-72519000D02*
X118564199Y-72919000D01*
G04 #@! TO.C,C5*
X155774000Y-73914000D02*
G75*
G03*
X155774000Y-73914000I-2120000J0D01*
G01*
X153654000Y-71834000D02*
X153654000Y-75994000D01*
X153694000Y-71834000D02*
X153694000Y-75994000D01*
X153734000Y-71835000D02*
X153734000Y-75993000D01*
X153774000Y-71837000D02*
X153774000Y-75991000D01*
X153814000Y-71840000D02*
X153814000Y-75988000D01*
X153854000Y-71843000D02*
X153854000Y-73074000D01*
X153854000Y-74754000D02*
X153854000Y-75985000D01*
X153894000Y-71847000D02*
X153894000Y-73074000D01*
X153894000Y-74754000D02*
X153894000Y-75981000D01*
X153934000Y-71852000D02*
X153934000Y-73074000D01*
X153934000Y-74754000D02*
X153934000Y-75976000D01*
X153974000Y-71858000D02*
X153974000Y-73074000D01*
X153974000Y-74754000D02*
X153974000Y-75970000D01*
X154014000Y-71864000D02*
X154014000Y-73074000D01*
X154014000Y-74754000D02*
X154014000Y-75964000D01*
X154054000Y-71872000D02*
X154054000Y-73074000D01*
X154054000Y-74754000D02*
X154054000Y-75956000D01*
X154094000Y-71880000D02*
X154094000Y-73074000D01*
X154094000Y-74754000D02*
X154094000Y-75948000D01*
X154134000Y-71889000D02*
X154134000Y-73074000D01*
X154134000Y-74754000D02*
X154134000Y-75939000D01*
X154174000Y-71898000D02*
X154174000Y-73074000D01*
X154174000Y-74754000D02*
X154174000Y-75930000D01*
X154214000Y-71909000D02*
X154214000Y-73074000D01*
X154214000Y-74754000D02*
X154214000Y-75919000D01*
X154254000Y-71920000D02*
X154254000Y-73074000D01*
X154254000Y-74754000D02*
X154254000Y-75908000D01*
X154294000Y-71932000D02*
X154294000Y-73074000D01*
X154294000Y-74754000D02*
X154294000Y-75896000D01*
X154334000Y-71946000D02*
X154334000Y-73074000D01*
X154334000Y-74754000D02*
X154334000Y-75882000D01*
X154375000Y-71960000D02*
X154375000Y-73074000D01*
X154375000Y-74754000D02*
X154375000Y-75868000D01*
X154415000Y-71974000D02*
X154415000Y-73074000D01*
X154415000Y-74754000D02*
X154415000Y-75854000D01*
X154455000Y-71990000D02*
X154455000Y-73074000D01*
X154455000Y-74754000D02*
X154455000Y-75838000D01*
X154495000Y-72007000D02*
X154495000Y-73074000D01*
X154495000Y-74754000D02*
X154495000Y-75821000D01*
X154535000Y-72025000D02*
X154535000Y-73074000D01*
X154535000Y-74754000D02*
X154535000Y-75803000D01*
X154575000Y-72044000D02*
X154575000Y-73074000D01*
X154575000Y-74754000D02*
X154575000Y-75784000D01*
X154615000Y-72063000D02*
X154615000Y-73074000D01*
X154615000Y-74754000D02*
X154615000Y-75765000D01*
X154655000Y-72084000D02*
X154655000Y-73074000D01*
X154655000Y-74754000D02*
X154655000Y-75744000D01*
X154695000Y-72106000D02*
X154695000Y-73074000D01*
X154695000Y-74754000D02*
X154695000Y-75722000D01*
X154735000Y-72129000D02*
X154735000Y-73074000D01*
X154735000Y-74754000D02*
X154735000Y-75699000D01*
X154775000Y-72154000D02*
X154775000Y-73074000D01*
X154775000Y-74754000D02*
X154775000Y-75674000D01*
X154815000Y-72179000D02*
X154815000Y-73074000D01*
X154815000Y-74754000D02*
X154815000Y-75649000D01*
X154855000Y-72206000D02*
X154855000Y-73074000D01*
X154855000Y-74754000D02*
X154855000Y-75622000D01*
X154895000Y-72234000D02*
X154895000Y-73074000D01*
X154895000Y-74754000D02*
X154895000Y-75594000D01*
X154935000Y-72264000D02*
X154935000Y-73074000D01*
X154935000Y-74754000D02*
X154935000Y-75564000D01*
X154975000Y-72295000D02*
X154975000Y-73074000D01*
X154975000Y-74754000D02*
X154975000Y-75533000D01*
X155015000Y-72327000D02*
X155015000Y-73074000D01*
X155015000Y-74754000D02*
X155015000Y-75501000D01*
X155055000Y-72362000D02*
X155055000Y-73074000D01*
X155055000Y-74754000D02*
X155055000Y-75466000D01*
X155095000Y-72398000D02*
X155095000Y-73074000D01*
X155095000Y-74754000D02*
X155095000Y-75430000D01*
X155135000Y-72436000D02*
X155135000Y-73074000D01*
X155135000Y-74754000D02*
X155135000Y-75392000D01*
X155175000Y-72476000D02*
X155175000Y-73074000D01*
X155175000Y-74754000D02*
X155175000Y-75352000D01*
X155215000Y-72518000D02*
X155215000Y-73074000D01*
X155215000Y-74754000D02*
X155215000Y-75310000D01*
X155255000Y-72563000D02*
X155255000Y-73074000D01*
X155255000Y-74754000D02*
X155255000Y-75265000D01*
X155295000Y-72610000D02*
X155295000Y-73074000D01*
X155295000Y-74754000D02*
X155295000Y-75218000D01*
X155335000Y-72660000D02*
X155335000Y-73074000D01*
X155335000Y-74754000D02*
X155335000Y-75168000D01*
X155375000Y-72714000D02*
X155375000Y-73074000D01*
X155375000Y-74754000D02*
X155375000Y-75114000D01*
X155415000Y-72772000D02*
X155415000Y-73074000D01*
X155415000Y-74754000D02*
X155415000Y-75056000D01*
X155455000Y-72834000D02*
X155455000Y-73074000D01*
X155455000Y-74754000D02*
X155455000Y-74994000D01*
X155495000Y-72901000D02*
X155495000Y-74927000D01*
X155535000Y-72974000D02*
X155535000Y-74854000D01*
X155575000Y-73055000D02*
X155575000Y-74773000D01*
X155615000Y-73146000D02*
X155615000Y-74682000D01*
X155655000Y-73250000D02*
X155655000Y-74578000D01*
X155695000Y-73377000D02*
X155695000Y-74451000D01*
X155735000Y-73544000D02*
X155735000Y-74284000D01*
X151384199Y-72719000D02*
X151784199Y-72719000D01*
X151584199Y-72519000D02*
X151584199Y-72919000D01*
G04 #@! TO.C,C6*
X155013199Y-86362000D02*
X155013199Y-86762000D01*
X154813199Y-86562000D02*
X155213199Y-86562000D01*
X159164000Y-87387000D02*
X159164000Y-88127000D01*
X159124000Y-87220000D02*
X159124000Y-88294000D01*
X159084000Y-87093000D02*
X159084000Y-88421000D01*
X159044000Y-86989000D02*
X159044000Y-88525000D01*
X159004000Y-86898000D02*
X159004000Y-88616000D01*
X158964000Y-86817000D02*
X158964000Y-88697000D01*
X158924000Y-86744000D02*
X158924000Y-88770000D01*
X158884000Y-88597000D02*
X158884000Y-88837000D01*
X158884000Y-86677000D02*
X158884000Y-86917000D01*
X158844000Y-88597000D02*
X158844000Y-88899000D01*
X158844000Y-86615000D02*
X158844000Y-86917000D01*
X158804000Y-88597000D02*
X158804000Y-88957000D01*
X158804000Y-86557000D02*
X158804000Y-86917000D01*
X158764000Y-88597000D02*
X158764000Y-89011000D01*
X158764000Y-86503000D02*
X158764000Y-86917000D01*
X158724000Y-88597000D02*
X158724000Y-89061000D01*
X158724000Y-86453000D02*
X158724000Y-86917000D01*
X158684000Y-88597000D02*
X158684000Y-89108000D01*
X158684000Y-86406000D02*
X158684000Y-86917000D01*
X158644000Y-88597000D02*
X158644000Y-89153000D01*
X158644000Y-86361000D02*
X158644000Y-86917000D01*
X158604000Y-88597000D02*
X158604000Y-89195000D01*
X158604000Y-86319000D02*
X158604000Y-86917000D01*
X158564000Y-88597000D02*
X158564000Y-89235000D01*
X158564000Y-86279000D02*
X158564000Y-86917000D01*
X158524000Y-88597000D02*
X158524000Y-89273000D01*
X158524000Y-86241000D02*
X158524000Y-86917000D01*
X158484000Y-88597000D02*
X158484000Y-89309000D01*
X158484000Y-86205000D02*
X158484000Y-86917000D01*
X158444000Y-88597000D02*
X158444000Y-89344000D01*
X158444000Y-86170000D02*
X158444000Y-86917000D01*
X158404000Y-88597000D02*
X158404000Y-89376000D01*
X158404000Y-86138000D02*
X158404000Y-86917000D01*
X158364000Y-88597000D02*
X158364000Y-89407000D01*
X158364000Y-86107000D02*
X158364000Y-86917000D01*
X158324000Y-88597000D02*
X158324000Y-89437000D01*
X158324000Y-86077000D02*
X158324000Y-86917000D01*
X158284000Y-88597000D02*
X158284000Y-89465000D01*
X158284000Y-86049000D02*
X158284000Y-86917000D01*
X158244000Y-88597000D02*
X158244000Y-89492000D01*
X158244000Y-86022000D02*
X158244000Y-86917000D01*
X158204000Y-88597000D02*
X158204000Y-89517000D01*
X158204000Y-85997000D02*
X158204000Y-86917000D01*
X158164000Y-88597000D02*
X158164000Y-89542000D01*
X158164000Y-85972000D02*
X158164000Y-86917000D01*
X158124000Y-88597000D02*
X158124000Y-89565000D01*
X158124000Y-85949000D02*
X158124000Y-86917000D01*
X158084000Y-88597000D02*
X158084000Y-89587000D01*
X158084000Y-85927000D02*
X158084000Y-86917000D01*
X158044000Y-88597000D02*
X158044000Y-89608000D01*
X158044000Y-85906000D02*
X158044000Y-86917000D01*
X158004000Y-88597000D02*
X158004000Y-89627000D01*
X158004000Y-85887000D02*
X158004000Y-86917000D01*
X157964000Y-88597000D02*
X157964000Y-89646000D01*
X157964000Y-85868000D02*
X157964000Y-86917000D01*
X157924000Y-88597000D02*
X157924000Y-89664000D01*
X157924000Y-85850000D02*
X157924000Y-86917000D01*
X157884000Y-88597000D02*
X157884000Y-89681000D01*
X157884000Y-85833000D02*
X157884000Y-86917000D01*
X157844000Y-88597000D02*
X157844000Y-89697000D01*
X157844000Y-85817000D02*
X157844000Y-86917000D01*
X157804000Y-88597000D02*
X157804000Y-89711000D01*
X157804000Y-85803000D02*
X157804000Y-86917000D01*
X157763000Y-88597000D02*
X157763000Y-89725000D01*
X157763000Y-85789000D02*
X157763000Y-86917000D01*
X157723000Y-88597000D02*
X157723000Y-89739000D01*
X157723000Y-85775000D02*
X157723000Y-86917000D01*
X157683000Y-88597000D02*
X157683000Y-89751000D01*
X157683000Y-85763000D02*
X157683000Y-86917000D01*
X157643000Y-88597000D02*
X157643000Y-89762000D01*
X157643000Y-85752000D02*
X157643000Y-86917000D01*
X157603000Y-88597000D02*
X157603000Y-89773000D01*
X157603000Y-85741000D02*
X157603000Y-86917000D01*
X157563000Y-88597000D02*
X157563000Y-89782000D01*
X157563000Y-85732000D02*
X157563000Y-86917000D01*
X157523000Y-88597000D02*
X157523000Y-89791000D01*
X157523000Y-85723000D02*
X157523000Y-86917000D01*
X157483000Y-88597000D02*
X157483000Y-89799000D01*
X157483000Y-85715000D02*
X157483000Y-86917000D01*
X157443000Y-88597000D02*
X157443000Y-89807000D01*
X157443000Y-85707000D02*
X157443000Y-86917000D01*
X157403000Y-88597000D02*
X157403000Y-89813000D01*
X157403000Y-85701000D02*
X157403000Y-86917000D01*
X157363000Y-88597000D02*
X157363000Y-89819000D01*
X157363000Y-85695000D02*
X157363000Y-86917000D01*
X157323000Y-88597000D02*
X157323000Y-89824000D01*
X157323000Y-85690000D02*
X157323000Y-86917000D01*
X157283000Y-88597000D02*
X157283000Y-89828000D01*
X157283000Y-85686000D02*
X157283000Y-86917000D01*
X157243000Y-85683000D02*
X157243000Y-89831000D01*
X157203000Y-85680000D02*
X157203000Y-89834000D01*
X157163000Y-85678000D02*
X157163000Y-89836000D01*
X157123000Y-85677000D02*
X157123000Y-89837000D01*
X157083000Y-85677000D02*
X157083000Y-89837000D01*
X159203000Y-87757000D02*
G75*
G03*
X159203000Y-87757000I-2120000J0D01*
G01*
G04 #@! TO.C,C7*
X148028199Y-64899000D02*
X148028199Y-65299000D01*
X147828199Y-65099000D02*
X148228199Y-65099000D01*
X152179000Y-65924000D02*
X152179000Y-66664000D01*
X152139000Y-65757000D02*
X152139000Y-66831000D01*
X152099000Y-65630000D02*
X152099000Y-66958000D01*
X152059000Y-65526000D02*
X152059000Y-67062000D01*
X152019000Y-65435000D02*
X152019000Y-67153000D01*
X151979000Y-65354000D02*
X151979000Y-67234000D01*
X151939000Y-65281000D02*
X151939000Y-67307000D01*
X151899000Y-67134000D02*
X151899000Y-67374000D01*
X151899000Y-65214000D02*
X151899000Y-65454000D01*
X151859000Y-67134000D02*
X151859000Y-67436000D01*
X151859000Y-65152000D02*
X151859000Y-65454000D01*
X151819000Y-67134000D02*
X151819000Y-67494000D01*
X151819000Y-65094000D02*
X151819000Y-65454000D01*
X151779000Y-67134000D02*
X151779000Y-67548000D01*
X151779000Y-65040000D02*
X151779000Y-65454000D01*
X151739000Y-67134000D02*
X151739000Y-67598000D01*
X151739000Y-64990000D02*
X151739000Y-65454000D01*
X151699000Y-67134000D02*
X151699000Y-67645000D01*
X151699000Y-64943000D02*
X151699000Y-65454000D01*
X151659000Y-67134000D02*
X151659000Y-67690000D01*
X151659000Y-64898000D02*
X151659000Y-65454000D01*
X151619000Y-67134000D02*
X151619000Y-67732000D01*
X151619000Y-64856000D02*
X151619000Y-65454000D01*
X151579000Y-67134000D02*
X151579000Y-67772000D01*
X151579000Y-64816000D02*
X151579000Y-65454000D01*
X151539000Y-67134000D02*
X151539000Y-67810000D01*
X151539000Y-64778000D02*
X151539000Y-65454000D01*
X151499000Y-67134000D02*
X151499000Y-67846000D01*
X151499000Y-64742000D02*
X151499000Y-65454000D01*
X151459000Y-67134000D02*
X151459000Y-67881000D01*
X151459000Y-64707000D02*
X151459000Y-65454000D01*
X151419000Y-67134000D02*
X151419000Y-67913000D01*
X151419000Y-64675000D02*
X151419000Y-65454000D01*
X151379000Y-67134000D02*
X151379000Y-67944000D01*
X151379000Y-64644000D02*
X151379000Y-65454000D01*
X151339000Y-67134000D02*
X151339000Y-67974000D01*
X151339000Y-64614000D02*
X151339000Y-65454000D01*
X151299000Y-67134000D02*
X151299000Y-68002000D01*
X151299000Y-64586000D02*
X151299000Y-65454000D01*
X151259000Y-67134000D02*
X151259000Y-68029000D01*
X151259000Y-64559000D02*
X151259000Y-65454000D01*
X151219000Y-67134000D02*
X151219000Y-68054000D01*
X151219000Y-64534000D02*
X151219000Y-65454000D01*
X151179000Y-67134000D02*
X151179000Y-68079000D01*
X151179000Y-64509000D02*
X151179000Y-65454000D01*
X151139000Y-67134000D02*
X151139000Y-68102000D01*
X151139000Y-64486000D02*
X151139000Y-65454000D01*
X151099000Y-67134000D02*
X151099000Y-68124000D01*
X151099000Y-64464000D02*
X151099000Y-65454000D01*
X151059000Y-67134000D02*
X151059000Y-68145000D01*
X151059000Y-64443000D02*
X151059000Y-65454000D01*
X151019000Y-67134000D02*
X151019000Y-68164000D01*
X151019000Y-64424000D02*
X151019000Y-65454000D01*
X150979000Y-67134000D02*
X150979000Y-68183000D01*
X150979000Y-64405000D02*
X150979000Y-65454000D01*
X150939000Y-67134000D02*
X150939000Y-68201000D01*
X150939000Y-64387000D02*
X150939000Y-65454000D01*
X150899000Y-67134000D02*
X150899000Y-68218000D01*
X150899000Y-64370000D02*
X150899000Y-65454000D01*
X150859000Y-67134000D02*
X150859000Y-68234000D01*
X150859000Y-64354000D02*
X150859000Y-65454000D01*
X150819000Y-67134000D02*
X150819000Y-68248000D01*
X150819000Y-64340000D02*
X150819000Y-65454000D01*
X150778000Y-67134000D02*
X150778000Y-68262000D01*
X150778000Y-64326000D02*
X150778000Y-65454000D01*
X150738000Y-67134000D02*
X150738000Y-68276000D01*
X150738000Y-64312000D02*
X150738000Y-65454000D01*
X150698000Y-67134000D02*
X150698000Y-68288000D01*
X150698000Y-64300000D02*
X150698000Y-65454000D01*
X150658000Y-67134000D02*
X150658000Y-68299000D01*
X150658000Y-64289000D02*
X150658000Y-65454000D01*
X150618000Y-67134000D02*
X150618000Y-68310000D01*
X150618000Y-64278000D02*
X150618000Y-65454000D01*
X150578000Y-67134000D02*
X150578000Y-68319000D01*
X150578000Y-64269000D02*
X150578000Y-65454000D01*
X150538000Y-67134000D02*
X150538000Y-68328000D01*
X150538000Y-64260000D02*
X150538000Y-65454000D01*
X150498000Y-67134000D02*
X150498000Y-68336000D01*
X150498000Y-64252000D02*
X150498000Y-65454000D01*
X150458000Y-67134000D02*
X150458000Y-68344000D01*
X150458000Y-64244000D02*
X150458000Y-65454000D01*
X150418000Y-67134000D02*
X150418000Y-68350000D01*
X150418000Y-64238000D02*
X150418000Y-65454000D01*
X150378000Y-67134000D02*
X150378000Y-68356000D01*
X150378000Y-64232000D02*
X150378000Y-65454000D01*
X150338000Y-67134000D02*
X150338000Y-68361000D01*
X150338000Y-64227000D02*
X150338000Y-65454000D01*
X150298000Y-67134000D02*
X150298000Y-68365000D01*
X150298000Y-64223000D02*
X150298000Y-65454000D01*
X150258000Y-64220000D02*
X150258000Y-68368000D01*
X150218000Y-64217000D02*
X150218000Y-68371000D01*
X150178000Y-64215000D02*
X150178000Y-68373000D01*
X150138000Y-64214000D02*
X150138000Y-68374000D01*
X150098000Y-64214000D02*
X150098000Y-68374000D01*
X152218000Y-66294000D02*
G75*
G03*
X152218000Y-66294000I-2120000J0D01*
G01*
G04 #@! TO.C,C1*
X146653000Y-60472000D02*
G75*
G03*
X146653000Y-60472000I-3270000J0D01*
G01*
X140153000Y-60472000D02*
X146613000Y-60472000D01*
X140153000Y-60432000D02*
X146613000Y-60432000D01*
X140153000Y-60392000D02*
X146613000Y-60392000D01*
X140155000Y-60352000D02*
X146611000Y-60352000D01*
X140156000Y-60312000D02*
X146610000Y-60312000D01*
X140159000Y-60272000D02*
X146607000Y-60272000D01*
X140161000Y-60232000D02*
X142343000Y-60232000D01*
X144423000Y-60232000D02*
X146605000Y-60232000D01*
X140165000Y-60192000D02*
X142343000Y-60192000D01*
X144423000Y-60192000D02*
X146601000Y-60192000D01*
X140168000Y-60152000D02*
X142343000Y-60152000D01*
X144423000Y-60152000D02*
X146598000Y-60152000D01*
X140172000Y-60112000D02*
X142343000Y-60112000D01*
X144423000Y-60112000D02*
X146594000Y-60112000D01*
X140177000Y-60072000D02*
X142343000Y-60072000D01*
X144423000Y-60072000D02*
X146589000Y-60072000D01*
X140182000Y-60032000D02*
X142343000Y-60032000D01*
X144423000Y-60032000D02*
X146584000Y-60032000D01*
X140188000Y-59992000D02*
X142343000Y-59992000D01*
X144423000Y-59992000D02*
X146578000Y-59992000D01*
X140194000Y-59952000D02*
X142343000Y-59952000D01*
X144423000Y-59952000D02*
X146572000Y-59952000D01*
X140201000Y-59912000D02*
X142343000Y-59912000D01*
X144423000Y-59912000D02*
X146565000Y-59912000D01*
X140208000Y-59872000D02*
X142343000Y-59872000D01*
X144423000Y-59872000D02*
X146558000Y-59872000D01*
X140216000Y-59832000D02*
X142343000Y-59832000D01*
X144423000Y-59832000D02*
X146550000Y-59832000D01*
X140224000Y-59792000D02*
X142343000Y-59792000D01*
X144423000Y-59792000D02*
X146542000Y-59792000D01*
X140233000Y-59751000D02*
X142343000Y-59751000D01*
X144423000Y-59751000D02*
X146533000Y-59751000D01*
X140242000Y-59711000D02*
X142343000Y-59711000D01*
X144423000Y-59711000D02*
X146524000Y-59711000D01*
X140252000Y-59671000D02*
X142343000Y-59671000D01*
X144423000Y-59671000D02*
X146514000Y-59671000D01*
X140262000Y-59631000D02*
X142343000Y-59631000D01*
X144423000Y-59631000D02*
X146504000Y-59631000D01*
X140273000Y-59591000D02*
X142343000Y-59591000D01*
X144423000Y-59591000D02*
X146493000Y-59591000D01*
X140285000Y-59551000D02*
X142343000Y-59551000D01*
X144423000Y-59551000D02*
X146481000Y-59551000D01*
X140297000Y-59511000D02*
X142343000Y-59511000D01*
X144423000Y-59511000D02*
X146469000Y-59511000D01*
X140309000Y-59471000D02*
X142343000Y-59471000D01*
X144423000Y-59471000D02*
X146457000Y-59471000D01*
X140322000Y-59431000D02*
X142343000Y-59431000D01*
X144423000Y-59431000D02*
X146444000Y-59431000D01*
X140336000Y-59391000D02*
X142343000Y-59391000D01*
X144423000Y-59391000D02*
X146430000Y-59391000D01*
X140350000Y-59351000D02*
X142343000Y-59351000D01*
X144423000Y-59351000D02*
X146416000Y-59351000D01*
X140365000Y-59311000D02*
X142343000Y-59311000D01*
X144423000Y-59311000D02*
X146401000Y-59311000D01*
X140381000Y-59271000D02*
X142343000Y-59271000D01*
X144423000Y-59271000D02*
X146385000Y-59271000D01*
X140397000Y-59231000D02*
X142343000Y-59231000D01*
X144423000Y-59231000D02*
X146369000Y-59231000D01*
X140413000Y-59191000D02*
X142343000Y-59191000D01*
X144423000Y-59191000D02*
X146353000Y-59191000D01*
X140431000Y-59151000D02*
X142343000Y-59151000D01*
X144423000Y-59151000D02*
X146335000Y-59151000D01*
X140449000Y-59111000D02*
X142343000Y-59111000D01*
X144423000Y-59111000D02*
X146317000Y-59111000D01*
X140467000Y-59071000D02*
X142343000Y-59071000D01*
X144423000Y-59071000D02*
X146299000Y-59071000D01*
X140487000Y-59031000D02*
X142343000Y-59031000D01*
X144423000Y-59031000D02*
X146279000Y-59031000D01*
X140507000Y-58991000D02*
X142343000Y-58991000D01*
X144423000Y-58991000D02*
X146259000Y-58991000D01*
X140527000Y-58951000D02*
X142343000Y-58951000D01*
X144423000Y-58951000D02*
X146239000Y-58951000D01*
X140549000Y-58911000D02*
X142343000Y-58911000D01*
X144423000Y-58911000D02*
X146217000Y-58911000D01*
X140571000Y-58871000D02*
X142343000Y-58871000D01*
X144423000Y-58871000D02*
X146195000Y-58871000D01*
X140593000Y-58831000D02*
X142343000Y-58831000D01*
X144423000Y-58831000D02*
X146173000Y-58831000D01*
X140617000Y-58791000D02*
X142343000Y-58791000D01*
X144423000Y-58791000D02*
X146149000Y-58791000D01*
X140641000Y-58751000D02*
X142343000Y-58751000D01*
X144423000Y-58751000D02*
X146125000Y-58751000D01*
X140667000Y-58711000D02*
X142343000Y-58711000D01*
X144423000Y-58711000D02*
X146099000Y-58711000D01*
X140693000Y-58671000D02*
X142343000Y-58671000D01*
X144423000Y-58671000D02*
X146073000Y-58671000D01*
X140719000Y-58631000D02*
X142343000Y-58631000D01*
X144423000Y-58631000D02*
X146047000Y-58631000D01*
X140747000Y-58591000D02*
X142343000Y-58591000D01*
X144423000Y-58591000D02*
X146019000Y-58591000D01*
X140776000Y-58551000D02*
X142343000Y-58551000D01*
X144423000Y-58551000D02*
X145990000Y-58551000D01*
X140805000Y-58511000D02*
X142343000Y-58511000D01*
X144423000Y-58511000D02*
X145961000Y-58511000D01*
X140835000Y-58471000D02*
X142343000Y-58471000D01*
X144423000Y-58471000D02*
X145931000Y-58471000D01*
X140867000Y-58431000D02*
X142343000Y-58431000D01*
X144423000Y-58431000D02*
X145899000Y-58431000D01*
X140899000Y-58391000D02*
X142343000Y-58391000D01*
X144423000Y-58391000D02*
X145867000Y-58391000D01*
X140933000Y-58351000D02*
X142343000Y-58351000D01*
X144423000Y-58351000D02*
X145833000Y-58351000D01*
X140967000Y-58311000D02*
X142343000Y-58311000D01*
X144423000Y-58311000D02*
X145799000Y-58311000D01*
X141003000Y-58271000D02*
X142343000Y-58271000D01*
X144423000Y-58271000D02*
X145763000Y-58271000D01*
X141040000Y-58231000D02*
X142343000Y-58231000D01*
X144423000Y-58231000D02*
X145726000Y-58231000D01*
X141078000Y-58191000D02*
X142343000Y-58191000D01*
X144423000Y-58191000D02*
X145688000Y-58191000D01*
X141118000Y-58151000D02*
X145648000Y-58151000D01*
X141159000Y-58111000D02*
X145607000Y-58111000D01*
X141201000Y-58071000D02*
X145565000Y-58071000D01*
X141246000Y-58031000D02*
X145520000Y-58031000D01*
X141291000Y-57991000D02*
X145475000Y-57991000D01*
X141339000Y-57951000D02*
X145427000Y-57951000D01*
X141388000Y-57911000D02*
X145378000Y-57911000D01*
X141439000Y-57871000D02*
X145327000Y-57871000D01*
X141493000Y-57831000D02*
X145273000Y-57831000D01*
X141549000Y-57791000D02*
X145217000Y-57791000D01*
X141607000Y-57751000D02*
X145159000Y-57751000D01*
X141669000Y-57711000D02*
X145097000Y-57711000D01*
X141733000Y-57671000D02*
X145033000Y-57671000D01*
X141802000Y-57631000D02*
X144964000Y-57631000D01*
X141874000Y-57591000D02*
X144892000Y-57591000D01*
X141951000Y-57551000D02*
X144815000Y-57551000D01*
X142033000Y-57511000D02*
X144733000Y-57511000D01*
X142121000Y-57471000D02*
X144645000Y-57471000D01*
X142218000Y-57431000D02*
X144548000Y-57431000D01*
X142324000Y-57391000D02*
X144442000Y-57391000D01*
X142443000Y-57351000D02*
X144323000Y-57351000D01*
X142581000Y-57311000D02*
X144185000Y-57311000D01*
X142750000Y-57271000D02*
X144016000Y-57271000D01*
X142981000Y-57231000D02*
X143785000Y-57231000D01*
X141544000Y-63972241D02*
X141544000Y-63342241D01*
X141229000Y-63657241D02*
X141859000Y-63657241D01*
G04 #@! TO.C,BT1*
D12*
X115673285Y-60023571D02*
X115816142Y-60071190D01*
X115863761Y-60118809D01*
X115911380Y-60214047D01*
X115911380Y-60356904D01*
X115863761Y-60452142D01*
X115816142Y-60499761D01*
X115720904Y-60547380D01*
X115339952Y-60547380D01*
X115339952Y-59547380D01*
X115673285Y-59547380D01*
X115768523Y-59595000D01*
X115816142Y-59642619D01*
X115863761Y-59737857D01*
X115863761Y-59833095D01*
X115816142Y-59928333D01*
X115768523Y-59975952D01*
X115673285Y-60023571D01*
X115339952Y-60023571D01*
X116197095Y-59547380D02*
X116768523Y-59547380D01*
X116482809Y-60547380D02*
X116482809Y-59547380D01*
X117625666Y-60547380D02*
X117054238Y-60547380D01*
X117339952Y-60547380D02*
X117339952Y-59547380D01*
X117244714Y-59690238D01*
X117149476Y-59785476D01*
X117054238Y-59833095D01*
G04 #@! TO.C,J1*
X116125666Y-67421380D02*
X116125666Y-68135666D01*
X116078047Y-68278523D01*
X115982809Y-68373761D01*
X115839952Y-68421380D01*
X115744714Y-68421380D01*
X117125666Y-68421380D02*
X116554238Y-68421380D01*
X116839952Y-68421380D02*
X116839952Y-67421380D01*
X116744714Y-67564238D01*
X116649476Y-67659476D01*
X116554238Y-67707095D01*
G04 #@! TO.C,J2*
X157527666Y-70469380D02*
X157527666Y-71183666D01*
X157480047Y-71326523D01*
X157384809Y-71421761D01*
X157241952Y-71469380D01*
X157146714Y-71469380D01*
X157956238Y-70564619D02*
X158003857Y-70517000D01*
X158099095Y-70469380D01*
X158337190Y-70469380D01*
X158432428Y-70517000D01*
X158480047Y-70564619D01*
X158527666Y-70659857D01*
X158527666Y-70755095D01*
X158480047Y-70897952D01*
X157908619Y-71469380D01*
X158527666Y-71469380D01*
G04 #@! TO.C,R2*
X149423380Y-82843666D02*
X148947190Y-83177000D01*
X149423380Y-83415095D02*
X148423380Y-83415095D01*
X148423380Y-83034142D01*
X148471000Y-82938904D01*
X148518619Y-82891285D01*
X148613857Y-82843666D01*
X148756714Y-82843666D01*
X148851952Y-82891285D01*
X148899571Y-82938904D01*
X148947190Y-83034142D01*
X148947190Y-83415095D01*
X148518619Y-82462714D02*
X148471000Y-82415095D01*
X148423380Y-82319857D01*
X148423380Y-82081761D01*
X148471000Y-81986523D01*
X148518619Y-81938904D01*
X148613857Y-81891285D01*
X148709095Y-81891285D01*
X148851952Y-81938904D01*
X149423380Y-82510333D01*
X149423380Y-81891285D01*
G04 #@! TO.C,R6*
X121991380Y-82843666D02*
X121515190Y-83177000D01*
X121991380Y-83415095D02*
X120991380Y-83415095D01*
X120991380Y-83034142D01*
X121039000Y-82938904D01*
X121086619Y-82891285D01*
X121181857Y-82843666D01*
X121324714Y-82843666D01*
X121419952Y-82891285D01*
X121467571Y-82938904D01*
X121515190Y-83034142D01*
X121515190Y-83415095D01*
X120991380Y-81986523D02*
X120991380Y-82177000D01*
X121039000Y-82272238D01*
X121086619Y-82319857D01*
X121229476Y-82415095D01*
X121419952Y-82462714D01*
X121800904Y-82462714D01*
X121896142Y-82415095D01*
X121943761Y-82367476D01*
X121991380Y-82272238D01*
X121991380Y-82081761D01*
X121943761Y-81986523D01*
X121896142Y-81938904D01*
X121800904Y-81891285D01*
X121562809Y-81891285D01*
X121467571Y-81938904D01*
X121419952Y-81986523D01*
X121372333Y-82081761D01*
X121372333Y-82272238D01*
X121419952Y-82367476D01*
X121467571Y-82415095D01*
X121562809Y-82462714D01*
G04 #@! TO.C,R8*
X153225381Y-82805665D02*
X152749191Y-83138999D01*
X153225381Y-83377094D02*
X152225381Y-83377094D01*
X152225381Y-82996141D01*
X152273001Y-82900903D01*
X152320620Y-82853284D01*
X152415858Y-82805665D01*
X152558715Y-82805665D01*
X152653953Y-82853284D01*
X152701572Y-82900903D01*
X152749191Y-82996141D01*
X152749191Y-83377094D01*
X152653953Y-82234237D02*
X152606334Y-82329475D01*
X152558715Y-82377094D01*
X152463477Y-82424713D01*
X152415858Y-82424713D01*
X152320620Y-82377094D01*
X152273001Y-82329475D01*
X152225381Y-82234237D01*
X152225381Y-82043760D01*
X152273001Y-81948522D01*
X152320620Y-81900903D01*
X152415858Y-81853284D01*
X152463477Y-81853284D01*
X152558715Y-81900903D01*
X152606334Y-81948522D01*
X152653953Y-82043760D01*
X152653953Y-82234237D01*
X152701572Y-82329475D01*
X152749191Y-82377094D01*
X152844429Y-82424713D01*
X153034905Y-82424713D01*
X153130143Y-82377094D01*
X153177762Y-82329475D01*
X153225381Y-82234237D01*
X153225381Y-82043760D01*
X153177762Y-81948522D01*
X153130143Y-81900903D01*
X153034905Y-81853284D01*
X152844429Y-81853284D01*
X152749191Y-81900903D01*
X152701572Y-81948522D01*
X152653953Y-82043760D01*
G04 #@! TO.C,R9*
X125801380Y-82843666D02*
X125325190Y-83177000D01*
X125801380Y-83415095D02*
X124801380Y-83415095D01*
X124801380Y-83034142D01*
X124849000Y-82938904D01*
X124896619Y-82891285D01*
X124991857Y-82843666D01*
X125134714Y-82843666D01*
X125229952Y-82891285D01*
X125277571Y-82938904D01*
X125325190Y-83034142D01*
X125325190Y-83415095D01*
X125801380Y-82367476D02*
X125801380Y-82177000D01*
X125753761Y-82081761D01*
X125706142Y-82034142D01*
X125563285Y-81938904D01*
X125372809Y-81891285D01*
X124991857Y-81891285D01*
X124896619Y-81938904D01*
X124849000Y-81986523D01*
X124801380Y-82081761D01*
X124801380Y-82272238D01*
X124849000Y-82367476D01*
X124896619Y-82415095D01*
X124991857Y-82462714D01*
X125229952Y-82462714D01*
X125325190Y-82415095D01*
X125372809Y-82367476D01*
X125420428Y-82272238D01*
X125420428Y-82081761D01*
X125372809Y-81986523D01*
X125325190Y-81938904D01*
X125229952Y-81891285D01*
G04 #@! TO.C,U1*
X136144095Y-68794380D02*
X136144095Y-69603904D01*
X136191714Y-69699142D01*
X136239333Y-69746761D01*
X136334571Y-69794380D01*
X136525047Y-69794380D01*
X136620285Y-69746761D01*
X136667904Y-69699142D01*
X136715523Y-69603904D01*
X136715523Y-68794380D01*
X137715523Y-69794380D02*
X137144095Y-69794380D01*
X137429809Y-69794380D02*
X137429809Y-68794380D01*
X137334571Y-68937238D01*
X137239333Y-69032476D01*
X137144095Y-69080095D01*
G04 #@! TO.C,C2*
X117165333Y-91289142D02*
X117117714Y-91336761D01*
X116974857Y-91384380D01*
X116879619Y-91384380D01*
X116736761Y-91336761D01*
X116641523Y-91241523D01*
X116593904Y-91146285D01*
X116546285Y-90955809D01*
X116546285Y-90812952D01*
X116593904Y-90622476D01*
X116641523Y-90527238D01*
X116736761Y-90432000D01*
X116879619Y-90384380D01*
X116974857Y-90384380D01*
X117117714Y-90432000D01*
X117165333Y-90479619D01*
X117546285Y-90479619D02*
X117593904Y-90432000D01*
X117689142Y-90384380D01*
X117927238Y-90384380D01*
X118022476Y-90432000D01*
X118070095Y-90479619D01*
X118117714Y-90574857D01*
X118117714Y-90670095D01*
X118070095Y-90812952D01*
X117498666Y-91384380D01*
X118117714Y-91384380D01*
G04 #@! TO.C,C3*
X123896333Y-63401142D02*
X123848714Y-63448761D01*
X123705857Y-63496380D01*
X123610619Y-63496380D01*
X123467761Y-63448761D01*
X123372523Y-63353523D01*
X123324904Y-63258285D01*
X123277285Y-63067809D01*
X123277285Y-62924952D01*
X123324904Y-62734476D01*
X123372523Y-62639238D01*
X123467761Y-62544000D01*
X123610619Y-62496380D01*
X123705857Y-62496380D01*
X123848714Y-62544000D01*
X123896333Y-62591619D01*
X124229666Y-62496380D02*
X124848714Y-62496380D01*
X124515380Y-62877333D01*
X124658238Y-62877333D01*
X124753476Y-62924952D01*
X124801095Y-62972571D01*
X124848714Y-63067809D01*
X124848714Y-63305904D01*
X124801095Y-63401142D01*
X124753476Y-63448761D01*
X124658238Y-63496380D01*
X124372523Y-63496380D01*
X124277285Y-63448761D01*
X124229666Y-63401142D01*
G04 #@! TO.C,C4*
X120467333Y-71021142D02*
X120419714Y-71068761D01*
X120276857Y-71116380D01*
X120181619Y-71116380D01*
X120038761Y-71068761D01*
X119943523Y-70973523D01*
X119895904Y-70878285D01*
X119848285Y-70687809D01*
X119848285Y-70544952D01*
X119895904Y-70354476D01*
X119943523Y-70259238D01*
X120038761Y-70164000D01*
X120181619Y-70116380D01*
X120276857Y-70116380D01*
X120419714Y-70164000D01*
X120467333Y-70211619D01*
X121324476Y-70449714D02*
X121324476Y-71116380D01*
X121086380Y-70068761D02*
X120848285Y-70783047D01*
X121467333Y-70783047D01*
G04 #@! TO.C,C5*
X153487333Y-71021142D02*
X153439714Y-71068761D01*
X153296857Y-71116380D01*
X153201619Y-71116380D01*
X153058761Y-71068761D01*
X152963523Y-70973523D01*
X152915904Y-70878285D01*
X152868285Y-70687809D01*
X152868285Y-70544952D01*
X152915904Y-70354476D01*
X152963523Y-70259238D01*
X153058761Y-70164000D01*
X153201619Y-70116380D01*
X153296857Y-70116380D01*
X153439714Y-70164000D01*
X153487333Y-70211619D01*
X154392095Y-70116380D02*
X153915904Y-70116380D01*
X153868285Y-70592571D01*
X153915904Y-70544952D01*
X154011142Y-70497333D01*
X154249238Y-70497333D01*
X154344476Y-70544952D01*
X154392095Y-70592571D01*
X154439714Y-70687809D01*
X154439714Y-70925904D01*
X154392095Y-71021142D01*
X154344476Y-71068761D01*
X154249238Y-71116380D01*
X154011142Y-71116380D01*
X153915904Y-71068761D01*
X153868285Y-71021142D01*
G04 #@! TO.C,C6*
X156932333Y-91289142D02*
X156884714Y-91336761D01*
X156741857Y-91384380D01*
X156646619Y-91384380D01*
X156503761Y-91336761D01*
X156408523Y-91241523D01*
X156360904Y-91146285D01*
X156313285Y-90955809D01*
X156313285Y-90812952D01*
X156360904Y-90622476D01*
X156408523Y-90527238D01*
X156503761Y-90432000D01*
X156646619Y-90384380D01*
X156741857Y-90384380D01*
X156884714Y-90432000D01*
X156932333Y-90479619D01*
X157789476Y-90384380D02*
X157599000Y-90384380D01*
X157503761Y-90432000D01*
X157456142Y-90479619D01*
X157360904Y-90622476D01*
X157313285Y-90812952D01*
X157313285Y-91193904D01*
X157360904Y-91289142D01*
X157408523Y-91336761D01*
X157503761Y-91384380D01*
X157694238Y-91384380D01*
X157789476Y-91336761D01*
X157837095Y-91289142D01*
X157884714Y-91193904D01*
X157884714Y-90955809D01*
X157837095Y-90860571D01*
X157789476Y-90812952D01*
X157694238Y-90765333D01*
X157503761Y-90765333D01*
X157408523Y-90812952D01*
X157360904Y-90860571D01*
X157313285Y-90955809D01*
G04 #@! TO.C,C7*
X149931333Y-63401142D02*
X149883714Y-63448761D01*
X149740857Y-63496380D01*
X149645619Y-63496380D01*
X149502761Y-63448761D01*
X149407523Y-63353523D01*
X149359904Y-63258285D01*
X149312285Y-63067809D01*
X149312285Y-62924952D01*
X149359904Y-62734476D01*
X149407523Y-62639238D01*
X149502761Y-62544000D01*
X149645619Y-62496380D01*
X149740857Y-62496380D01*
X149883714Y-62544000D01*
X149931333Y-62591619D01*
X150264666Y-62496380D02*
X150931333Y-62496380D01*
X150502761Y-63496380D01*
G04 #@! TO.C,C1*
X138771333Y-60809142D02*
X138723714Y-60856761D01*
X138580857Y-60904380D01*
X138485619Y-60904380D01*
X138342761Y-60856761D01*
X138247523Y-60761523D01*
X138199904Y-60666285D01*
X138152285Y-60475809D01*
X138152285Y-60332952D01*
X138199904Y-60142476D01*
X138247523Y-60047238D01*
X138342761Y-59952000D01*
X138485619Y-59904380D01*
X138580857Y-59904380D01*
X138723714Y-59952000D01*
X138771333Y-59999619D01*
X139723714Y-60904380D02*
X139152285Y-60904380D01*
X139438000Y-60904380D02*
X139438000Y-59904380D01*
X139342761Y-60047238D01*
X139247523Y-60142476D01*
X139152285Y-60190095D01*
G04 #@! TD*
M02*
