G04 #@! TF.GenerationSoftware,KiCad,Pcbnew,(5.1.7)-1*
G04 #@! TF.CreationDate,2021-05-26T18:00:41-05:00*
G04 #@! TF.ProjectId,ConsolePedalDual,436f6e73-6f6c-4655-9065-64616c447561,rev?*
G04 #@! TF.SameCoordinates,Original*
G04 #@! TF.FileFunction,Legend,Bot*
G04 #@! TF.FilePolarity,Positive*
%FSLAX46Y46*%
G04 Gerber Fmt 4.6, Leading zero omitted, Abs format (unit mm)*
G04 Created by KiCad (PCBNEW (5.1.7)-1) date 2021-05-26 18:00:41*
%MOMM*%
%LPD*%
G01*
G04 APERTURE LIST*
%ADD10C,0.250000*%
G04 APERTURE END LIST*
D10*
X116740714Y-73360000D02*
X116812142Y-73288571D01*
X116883571Y-73074285D01*
X116883571Y-72931428D01*
X116812142Y-72717142D01*
X116669285Y-72574285D01*
X116526428Y-72502857D01*
X116240714Y-72431428D01*
X116026428Y-72431428D01*
X115740714Y-72502857D01*
X115597857Y-72574285D01*
X115455000Y-72717142D01*
X115383571Y-72931428D01*
X115383571Y-73074285D01*
X115455000Y-73288571D01*
X115526428Y-73360000D01*
X116883571Y-74217142D02*
X116812142Y-74074285D01*
X116740714Y-74002857D01*
X116597857Y-73931428D01*
X116169285Y-73931428D01*
X116026428Y-74002857D01*
X115955000Y-74074285D01*
X115883571Y-74217142D01*
X115883571Y-74431428D01*
X115955000Y-74574285D01*
X116026428Y-74645714D01*
X116169285Y-74717142D01*
X116597857Y-74717142D01*
X116740714Y-74645714D01*
X116812142Y-74574285D01*
X116883571Y-74431428D01*
X116883571Y-74217142D01*
X115883571Y-75360000D02*
X116883571Y-75360000D01*
X116026428Y-75360000D02*
X115955000Y-75431428D01*
X115883571Y-75574285D01*
X115883571Y-75788571D01*
X115955000Y-75931428D01*
X116097857Y-76002857D01*
X116883571Y-76002857D01*
X116812142Y-76645714D02*
X116883571Y-76788571D01*
X116883571Y-77074285D01*
X116812142Y-77217142D01*
X116669285Y-77288571D01*
X116597857Y-77288571D01*
X116455000Y-77217142D01*
X116383571Y-77074285D01*
X116383571Y-76860000D01*
X116312142Y-76717142D01*
X116169285Y-76645714D01*
X116097857Y-76645714D01*
X115955000Y-76717142D01*
X115883571Y-76860000D01*
X115883571Y-77074285D01*
X115955000Y-77217142D01*
X116883571Y-78145714D02*
X116812142Y-78002857D01*
X116740714Y-77931428D01*
X116597857Y-77860000D01*
X116169285Y-77860000D01*
X116026428Y-77931428D01*
X115955000Y-78002857D01*
X115883571Y-78145714D01*
X115883571Y-78360000D01*
X115955000Y-78502857D01*
X116026428Y-78574285D01*
X116169285Y-78645714D01*
X116597857Y-78645714D01*
X116740714Y-78574285D01*
X116812142Y-78502857D01*
X116883571Y-78360000D01*
X116883571Y-78145714D01*
X116883571Y-79502857D02*
X116812142Y-79360000D01*
X116669285Y-79288571D01*
X115383571Y-79288571D01*
X116812142Y-80645714D02*
X116883571Y-80502857D01*
X116883571Y-80217142D01*
X116812142Y-80074285D01*
X116669285Y-80002857D01*
X116097857Y-80002857D01*
X115955000Y-80074285D01*
X115883571Y-80217142D01*
X115883571Y-80502857D01*
X115955000Y-80645714D01*
X116097857Y-80717142D01*
X116240714Y-80717142D01*
X116383571Y-80002857D01*
X116883571Y-82502857D02*
X115383571Y-82502857D01*
X115383571Y-83074285D01*
X115455000Y-83217142D01*
X115526428Y-83288571D01*
X115669285Y-83360000D01*
X115883571Y-83360000D01*
X116026428Y-83288571D01*
X116097857Y-83217142D01*
X116169285Y-83074285D01*
X116169285Y-82502857D01*
X116812142Y-84574285D02*
X116883571Y-84431428D01*
X116883571Y-84145714D01*
X116812142Y-84002857D01*
X116669285Y-83931428D01*
X116097857Y-83931428D01*
X115955000Y-84002857D01*
X115883571Y-84145714D01*
X115883571Y-84431428D01*
X115955000Y-84574285D01*
X116097857Y-84645714D01*
X116240714Y-84645714D01*
X116383571Y-83931428D01*
X116883571Y-85931428D02*
X115383571Y-85931428D01*
X116812142Y-85931428D02*
X116883571Y-85788571D01*
X116883571Y-85502857D01*
X116812142Y-85360000D01*
X116740714Y-85288571D01*
X116597857Y-85217142D01*
X116169285Y-85217142D01*
X116026428Y-85288571D01*
X115955000Y-85360000D01*
X115883571Y-85502857D01*
X115883571Y-85788571D01*
X115955000Y-85931428D01*
X116883571Y-87288571D02*
X116097857Y-87288571D01*
X115955000Y-87217142D01*
X115883571Y-87074285D01*
X115883571Y-86788571D01*
X115955000Y-86645714D01*
X116812142Y-87288571D02*
X116883571Y-87145714D01*
X116883571Y-86788571D01*
X116812142Y-86645714D01*
X116669285Y-86574285D01*
X116526428Y-86574285D01*
X116383571Y-86645714D01*
X116312142Y-86788571D01*
X116312142Y-87145714D01*
X116240714Y-87288571D01*
X116883571Y-88217142D02*
X116812142Y-88074285D01*
X116669285Y-88002857D01*
X115383571Y-88002857D01*
X116883571Y-89931428D02*
X115383571Y-89931428D01*
X115383571Y-90288571D01*
X115455000Y-90502857D01*
X115597857Y-90645714D01*
X115740714Y-90717142D01*
X116026428Y-90788571D01*
X116240714Y-90788571D01*
X116526428Y-90717142D01*
X116669285Y-90645714D01*
X116812142Y-90502857D01*
X116883571Y-90288571D01*
X116883571Y-89931428D01*
X115883571Y-92074285D02*
X116883571Y-92074285D01*
X115883571Y-91431428D02*
X116669285Y-91431428D01*
X116812142Y-91502857D01*
X116883571Y-91645714D01*
X116883571Y-91860000D01*
X116812142Y-92002857D01*
X116740714Y-92074285D01*
X116883571Y-93431428D02*
X116097857Y-93431428D01*
X115955000Y-93360000D01*
X115883571Y-93217142D01*
X115883571Y-92931428D01*
X115955000Y-92788571D01*
X116812142Y-93431428D02*
X116883571Y-93288571D01*
X116883571Y-92931428D01*
X116812142Y-92788571D01*
X116669285Y-92717142D01*
X116526428Y-92717142D01*
X116383571Y-92788571D01*
X116312142Y-92931428D01*
X116312142Y-93288571D01*
X116240714Y-93431428D01*
X116883571Y-94360000D02*
X116812142Y-94217142D01*
X116669285Y-94145714D01*
X115383571Y-94145714D01*
X115383571Y-95860000D02*
X116883571Y-96360000D01*
X115383571Y-96860000D01*
X116883571Y-98145714D02*
X116883571Y-97288571D01*
X116883571Y-97717142D02*
X115383571Y-97717142D01*
X115597857Y-97574285D01*
X115740714Y-97431428D01*
X115812142Y-97288571D01*
X116740714Y-98788571D02*
X116812142Y-98860000D01*
X116883571Y-98788571D01*
X116812142Y-98717142D01*
X116740714Y-98788571D01*
X116883571Y-98788571D01*
X115383571Y-99788571D02*
X115383571Y-99931428D01*
X115455000Y-100074285D01*
X115526428Y-100145714D01*
X115669285Y-100217142D01*
X115955000Y-100288571D01*
X116312142Y-100288571D01*
X116597857Y-100217142D01*
X116740714Y-100145714D01*
X116812142Y-100074285D01*
X116883571Y-99931428D01*
X116883571Y-99788571D01*
X116812142Y-99645714D01*
X116740714Y-99574285D01*
X116597857Y-99502857D01*
X116312142Y-99431428D01*
X115955000Y-99431428D01*
X115669285Y-99502857D01*
X115526428Y-99574285D01*
X115455000Y-99645714D01*
X115383571Y-99788571D01*
X115403571Y-44959285D02*
X115403571Y-45816428D01*
X116903571Y-45387857D02*
X115403571Y-45387857D01*
X116903571Y-46316428D02*
X115403571Y-46316428D01*
X116903571Y-46959285D02*
X116117857Y-46959285D01*
X115975000Y-46887857D01*
X115903571Y-46745000D01*
X115903571Y-46530714D01*
X115975000Y-46387857D01*
X116046428Y-46316428D01*
X116903571Y-47887857D02*
X116832142Y-47745000D01*
X116760714Y-47673571D01*
X116617857Y-47602142D01*
X116189285Y-47602142D01*
X116046428Y-47673571D01*
X115975000Y-47745000D01*
X115903571Y-47887857D01*
X115903571Y-48102142D01*
X115975000Y-48245000D01*
X116046428Y-48316428D01*
X116189285Y-48387857D01*
X116617857Y-48387857D01*
X116760714Y-48316428D01*
X116832142Y-48245000D01*
X116903571Y-48102142D01*
X116903571Y-47887857D01*
X116903571Y-49030714D02*
X115903571Y-49030714D01*
X116046428Y-49030714D02*
X115975000Y-49102142D01*
X115903571Y-49245000D01*
X115903571Y-49459285D01*
X115975000Y-49602142D01*
X116117857Y-49673571D01*
X116903571Y-49673571D01*
X116117857Y-49673571D02*
X115975000Y-49745000D01*
X115903571Y-49887857D01*
X115903571Y-50102142D01*
X115975000Y-50245000D01*
X116117857Y-50316428D01*
X116903571Y-50316428D01*
X116903571Y-51673571D02*
X116117857Y-51673571D01*
X115975000Y-51602142D01*
X115903571Y-51459285D01*
X115903571Y-51173571D01*
X115975000Y-51030714D01*
X116832142Y-51673571D02*
X116903571Y-51530714D01*
X116903571Y-51173571D01*
X116832142Y-51030714D01*
X116689285Y-50959285D01*
X116546428Y-50959285D01*
X116403571Y-51030714D01*
X116332142Y-51173571D01*
X116332142Y-51530714D01*
X116260714Y-51673571D01*
X116832142Y-52316428D02*
X116903571Y-52459285D01*
X116903571Y-52745000D01*
X116832142Y-52887857D01*
X116689285Y-52959285D01*
X116617857Y-52959285D01*
X116475000Y-52887857D01*
X116403571Y-52745000D01*
X116403571Y-52530714D01*
X116332142Y-52387857D01*
X116189285Y-52316428D01*
X116117857Y-52316428D01*
X115975000Y-52387857D01*
X115903571Y-52530714D01*
X115903571Y-52745000D01*
X115975000Y-52887857D01*
X116903571Y-54745000D02*
X115403571Y-54745000D01*
X116475000Y-55245000D01*
X115403571Y-55745000D01*
X116903571Y-55745000D01*
X116832142Y-57102142D02*
X116903571Y-56959285D01*
X116903571Y-56673571D01*
X116832142Y-56530714D01*
X116760714Y-56459285D01*
X116617857Y-56387857D01*
X116189285Y-56387857D01*
X116046428Y-56459285D01*
X115975000Y-56530714D01*
X115903571Y-56673571D01*
X115903571Y-56959285D01*
X115975000Y-57102142D01*
X116903571Y-57745000D02*
X115403571Y-57745000D01*
X115403571Y-58102142D01*
X115475000Y-58316428D01*
X115617857Y-58459285D01*
X115760714Y-58530714D01*
X116046428Y-58602142D01*
X116260714Y-58602142D01*
X116546428Y-58530714D01*
X116689285Y-58459285D01*
X116832142Y-58316428D01*
X116903571Y-58102142D01*
X116903571Y-57745000D01*
X116903571Y-59459285D02*
X116832142Y-59316428D01*
X116760714Y-59245000D01*
X116617857Y-59173571D01*
X116189285Y-59173571D01*
X116046428Y-59245000D01*
X115975000Y-59316428D01*
X115903571Y-59459285D01*
X115903571Y-59673571D01*
X115975000Y-59816428D01*
X116046428Y-59887857D01*
X116189285Y-59959285D01*
X116617857Y-59959285D01*
X116760714Y-59887857D01*
X116832142Y-59816428D01*
X116903571Y-59673571D01*
X116903571Y-59459285D01*
X115903571Y-60602142D02*
X116903571Y-60602142D01*
X116046428Y-60602142D02*
X115975000Y-60673571D01*
X115903571Y-60816428D01*
X115903571Y-61030714D01*
X115975000Y-61173571D01*
X116117857Y-61245000D01*
X116903571Y-61245000D01*
X116903571Y-62602142D02*
X116117857Y-62602142D01*
X115975000Y-62530714D01*
X115903571Y-62387857D01*
X115903571Y-62102142D01*
X115975000Y-61959285D01*
X116832142Y-62602142D02*
X116903571Y-62459285D01*
X116903571Y-62102142D01*
X116832142Y-61959285D01*
X116689285Y-61887857D01*
X116546428Y-61887857D01*
X116403571Y-61959285D01*
X116332142Y-62102142D01*
X116332142Y-62459285D01*
X116260714Y-62602142D01*
X115903571Y-63959285D02*
X117117857Y-63959285D01*
X117260714Y-63887857D01*
X117332142Y-63816428D01*
X117403571Y-63673571D01*
X117403571Y-63459285D01*
X117332142Y-63316428D01*
X116832142Y-63959285D02*
X116903571Y-63816428D01*
X116903571Y-63530714D01*
X116832142Y-63387857D01*
X116760714Y-63316428D01*
X116617857Y-63245000D01*
X116189285Y-63245000D01*
X116046428Y-63316428D01*
X115975000Y-63387857D01*
X115903571Y-63530714D01*
X115903571Y-63816428D01*
X115975000Y-63959285D01*
X116903571Y-64673571D02*
X115403571Y-64673571D01*
X116903571Y-65316428D02*
X116117857Y-65316428D01*
X115975000Y-65245000D01*
X115903571Y-65102142D01*
X115903571Y-64887857D01*
X115975000Y-64745000D01*
X116046428Y-64673571D01*
X119403571Y-44745000D02*
X118403571Y-44745000D01*
X118546428Y-44745000D02*
X118475000Y-44816428D01*
X118403571Y-44959285D01*
X118403571Y-45173571D01*
X118475000Y-45316428D01*
X118617857Y-45387857D01*
X119403571Y-45387857D01*
X118617857Y-45387857D02*
X118475000Y-45459285D01*
X118403571Y-45602142D01*
X118403571Y-45816428D01*
X118475000Y-45959285D01*
X118617857Y-46030714D01*
X119403571Y-46030714D01*
X119332142Y-47387857D02*
X119403571Y-47245000D01*
X119403571Y-46959285D01*
X119332142Y-46816428D01*
X119260714Y-46745000D01*
X119117857Y-46673571D01*
X118689285Y-46673571D01*
X118546428Y-46745000D01*
X118475000Y-46816428D01*
X118403571Y-46959285D01*
X118403571Y-47245000D01*
X118475000Y-47387857D01*
X119403571Y-48673571D02*
X117903571Y-48673571D01*
X119332142Y-48673571D02*
X119403571Y-48530714D01*
X119403571Y-48245000D01*
X119332142Y-48102142D01*
X119260714Y-48030714D01*
X119117857Y-47959285D01*
X118689285Y-47959285D01*
X118546428Y-48030714D01*
X118475000Y-48102142D01*
X118403571Y-48245000D01*
X118403571Y-48530714D01*
X118475000Y-48673571D01*
X119403571Y-49602142D02*
X119332142Y-49459285D01*
X119260714Y-49387857D01*
X119117857Y-49316428D01*
X118689285Y-49316428D01*
X118546428Y-49387857D01*
X118475000Y-49459285D01*
X118403571Y-49602142D01*
X118403571Y-49816428D01*
X118475000Y-49959285D01*
X118546428Y-50030714D01*
X118689285Y-50102142D01*
X119117857Y-50102142D01*
X119260714Y-50030714D01*
X119332142Y-49959285D01*
X119403571Y-49816428D01*
X119403571Y-49602142D01*
X118403571Y-50745000D02*
X119403571Y-50745000D01*
X118546428Y-50745000D02*
X118475000Y-50816428D01*
X118403571Y-50959285D01*
X118403571Y-51173571D01*
X118475000Y-51316428D01*
X118617857Y-51387857D01*
X119403571Y-51387857D01*
X119403571Y-52745000D02*
X118617857Y-52745000D01*
X118475000Y-52673571D01*
X118403571Y-52530714D01*
X118403571Y-52245000D01*
X118475000Y-52102142D01*
X119332142Y-52745000D02*
X119403571Y-52602142D01*
X119403571Y-52245000D01*
X119332142Y-52102142D01*
X119189285Y-52030714D01*
X119046428Y-52030714D01*
X118903571Y-52102142D01*
X118832142Y-52245000D01*
X118832142Y-52602142D01*
X118760714Y-52745000D01*
X118403571Y-54102142D02*
X119617857Y-54102142D01*
X119760714Y-54030714D01*
X119832142Y-53959285D01*
X119903571Y-53816428D01*
X119903571Y-53602142D01*
X119832142Y-53459285D01*
X119332142Y-54102142D02*
X119403571Y-53959285D01*
X119403571Y-53673571D01*
X119332142Y-53530714D01*
X119260714Y-53459285D01*
X119117857Y-53387857D01*
X118689285Y-53387857D01*
X118546428Y-53459285D01*
X118475000Y-53530714D01*
X118403571Y-53673571D01*
X118403571Y-53959285D01*
X118475000Y-54102142D01*
X119403571Y-54816428D02*
X117903571Y-54816428D01*
X119403571Y-55459285D02*
X118617857Y-55459285D01*
X118475000Y-55387857D01*
X118403571Y-55245000D01*
X118403571Y-55030714D01*
X118475000Y-54887857D01*
X118546428Y-54816428D01*
X119332142Y-56816428D02*
X119403571Y-56673571D01*
X119403571Y-56387857D01*
X119332142Y-56245000D01*
X119260714Y-56173571D01*
X119117857Y-56102142D01*
X118689285Y-56102142D01*
X118546428Y-56173571D01*
X118475000Y-56245000D01*
X118403571Y-56387857D01*
X118403571Y-56673571D01*
X118475000Y-56816428D01*
X119403571Y-57673571D02*
X119332142Y-57530714D01*
X119260714Y-57459285D01*
X119117857Y-57387857D01*
X118689285Y-57387857D01*
X118546428Y-57459285D01*
X118475000Y-57530714D01*
X118403571Y-57673571D01*
X118403571Y-57887857D01*
X118475000Y-58030714D01*
X118546428Y-58102142D01*
X118689285Y-58173571D01*
X119117857Y-58173571D01*
X119260714Y-58102142D01*
X119332142Y-58030714D01*
X119403571Y-57887857D01*
X119403571Y-57673571D01*
X119403571Y-58816428D02*
X118403571Y-58816428D01*
X118689285Y-58816428D02*
X118546428Y-58887857D01*
X118475000Y-58959285D01*
X118403571Y-59102142D01*
X118403571Y-59245000D01*
X118403571Y-59745000D02*
X119903571Y-59745000D01*
X118475000Y-59745000D02*
X118403571Y-59887857D01*
X118403571Y-60173571D01*
X118475000Y-60316428D01*
X118546428Y-60387857D01*
X118689285Y-60459285D01*
X119117857Y-60459285D01*
X119260714Y-60387857D01*
X119332142Y-60316428D01*
X119403571Y-60173571D01*
X119403571Y-59887857D01*
X119332142Y-59745000D01*
X119260714Y-61102142D02*
X119332142Y-61173571D01*
X119403571Y-61102142D01*
X119332142Y-61030714D01*
X119260714Y-61102142D01*
X119403571Y-61102142D01*
X119332142Y-62459285D02*
X119403571Y-62316428D01*
X119403571Y-62030714D01*
X119332142Y-61887857D01*
X119260714Y-61816428D01*
X119117857Y-61745000D01*
X118689285Y-61745000D01*
X118546428Y-61816428D01*
X118475000Y-61887857D01*
X118403571Y-62030714D01*
X118403571Y-62316428D01*
X118475000Y-62459285D01*
X119403571Y-63316428D02*
X119332142Y-63173571D01*
X119260714Y-63102142D01*
X119117857Y-63030714D01*
X118689285Y-63030714D01*
X118546428Y-63102142D01*
X118475000Y-63173571D01*
X118403571Y-63316428D01*
X118403571Y-63530714D01*
X118475000Y-63673571D01*
X118546428Y-63745000D01*
X118689285Y-63816428D01*
X119117857Y-63816428D01*
X119260714Y-63745000D01*
X119332142Y-63673571D01*
X119403571Y-63530714D01*
X119403571Y-63316428D01*
X119403571Y-64459285D02*
X118403571Y-64459285D01*
X118546428Y-64459285D02*
X118475000Y-64530714D01*
X118403571Y-64673571D01*
X118403571Y-64887857D01*
X118475000Y-65030714D01*
X118617857Y-65102142D01*
X119403571Y-65102142D01*
X118617857Y-65102142D02*
X118475000Y-65173571D01*
X118403571Y-65316428D01*
X118403571Y-65530714D01*
X118475000Y-65673571D01*
X118617857Y-65745000D01*
X119403571Y-65745000D01*
M02*
