G04 #@! TF.GenerationSoftware,KiCad,Pcbnew,(5.1.7)-1*
G04 #@! TF.CreationDate,2021-09-17T20:37:10-05:00*
G04 #@! TF.ProjectId,ConsolePedalDual,436f6e73-6f6c-4655-9065-64616c447561,rev?*
G04 #@! TF.SameCoordinates,Original*
G04 #@! TF.FileFunction,Legend,Bot*
G04 #@! TF.FilePolarity,Positive*
%FSLAX46Y46*%
G04 Gerber Fmt 4.6, Leading zero omitted, Abs format (unit mm)*
G04 Created by KiCad (PCBNEW (5.1.7)-1) date 2021-09-17 20:37:10*
%MOMM*%
%LPD*%
G01*
G04 APERTURE LIST*
%ADD10C,0.300000*%
%ADD11C,0.250000*%
%ADD12C,0.120000*%
%ADD13C,0.150000*%
G04 APERTURE END LIST*
D10*
X114300000Y-53720000D02*
X160020000Y-53720000D01*
D11*
X150160000Y-104929714D02*
X150231428Y-105001142D01*
X150445714Y-105072571D01*
X150588571Y-105072571D01*
X150802857Y-105001142D01*
X150945714Y-104858285D01*
X151017142Y-104715428D01*
X151088571Y-104429714D01*
X151088571Y-104215428D01*
X151017142Y-103929714D01*
X150945714Y-103786857D01*
X150802857Y-103644000D01*
X150588571Y-103572571D01*
X150445714Y-103572571D01*
X150231428Y-103644000D01*
X150160000Y-103715428D01*
X149302857Y-105072571D02*
X149445714Y-105001142D01*
X149517142Y-104929714D01*
X149588571Y-104786857D01*
X149588571Y-104358285D01*
X149517142Y-104215428D01*
X149445714Y-104144000D01*
X149302857Y-104072571D01*
X149088571Y-104072571D01*
X148945714Y-104144000D01*
X148874285Y-104215428D01*
X148802857Y-104358285D01*
X148802857Y-104786857D01*
X148874285Y-104929714D01*
X148945714Y-105001142D01*
X149088571Y-105072571D01*
X149302857Y-105072571D01*
X148160000Y-104072571D02*
X148160000Y-105072571D01*
X148160000Y-104215428D02*
X148088571Y-104144000D01*
X147945714Y-104072571D01*
X147731428Y-104072571D01*
X147588571Y-104144000D01*
X147517142Y-104286857D01*
X147517142Y-105072571D01*
X146874285Y-105001142D02*
X146731428Y-105072571D01*
X146445714Y-105072571D01*
X146302857Y-105001142D01*
X146231428Y-104858285D01*
X146231428Y-104786857D01*
X146302857Y-104644000D01*
X146445714Y-104572571D01*
X146660000Y-104572571D01*
X146802857Y-104501142D01*
X146874285Y-104358285D01*
X146874285Y-104286857D01*
X146802857Y-104144000D01*
X146660000Y-104072571D01*
X146445714Y-104072571D01*
X146302857Y-104144000D01*
X145374285Y-105072571D02*
X145517142Y-105001142D01*
X145588571Y-104929714D01*
X145660000Y-104786857D01*
X145660000Y-104358285D01*
X145588571Y-104215428D01*
X145517142Y-104144000D01*
X145374285Y-104072571D01*
X145160000Y-104072571D01*
X145017142Y-104144000D01*
X144945714Y-104215428D01*
X144874285Y-104358285D01*
X144874285Y-104786857D01*
X144945714Y-104929714D01*
X145017142Y-105001142D01*
X145160000Y-105072571D01*
X145374285Y-105072571D01*
X144017142Y-105072571D02*
X144160000Y-105001142D01*
X144231428Y-104858285D01*
X144231428Y-103572571D01*
X142874285Y-105001142D02*
X143017142Y-105072571D01*
X143302857Y-105072571D01*
X143445714Y-105001142D01*
X143517142Y-104858285D01*
X143517142Y-104286857D01*
X143445714Y-104144000D01*
X143302857Y-104072571D01*
X143017142Y-104072571D01*
X142874285Y-104144000D01*
X142802857Y-104286857D01*
X142802857Y-104429714D01*
X143517142Y-104572571D01*
X141017142Y-105072571D02*
X141017142Y-103572571D01*
X140445714Y-103572571D01*
X140302857Y-103644000D01*
X140231428Y-103715428D01*
X140160000Y-103858285D01*
X140160000Y-104072571D01*
X140231428Y-104215428D01*
X140302857Y-104286857D01*
X140445714Y-104358285D01*
X141017142Y-104358285D01*
X138945714Y-105001142D02*
X139088571Y-105072571D01*
X139374285Y-105072571D01*
X139517142Y-105001142D01*
X139588571Y-104858285D01*
X139588571Y-104286857D01*
X139517142Y-104144000D01*
X139374285Y-104072571D01*
X139088571Y-104072571D01*
X138945714Y-104144000D01*
X138874285Y-104286857D01*
X138874285Y-104429714D01*
X139588571Y-104572571D01*
X137588571Y-105072571D02*
X137588571Y-103572571D01*
X137588571Y-105001142D02*
X137731428Y-105072571D01*
X138017142Y-105072571D01*
X138160000Y-105001142D01*
X138231428Y-104929714D01*
X138302857Y-104786857D01*
X138302857Y-104358285D01*
X138231428Y-104215428D01*
X138160000Y-104144000D01*
X138017142Y-104072571D01*
X137731428Y-104072571D01*
X137588571Y-104144000D01*
X136231428Y-105072571D02*
X136231428Y-104286857D01*
X136302857Y-104144000D01*
X136445714Y-104072571D01*
X136731428Y-104072571D01*
X136874285Y-104144000D01*
X136231428Y-105001142D02*
X136374285Y-105072571D01*
X136731428Y-105072571D01*
X136874285Y-105001142D01*
X136945714Y-104858285D01*
X136945714Y-104715428D01*
X136874285Y-104572571D01*
X136731428Y-104501142D01*
X136374285Y-104501142D01*
X136231428Y-104429714D01*
X135302857Y-105072571D02*
X135445714Y-105001142D01*
X135517142Y-104858285D01*
X135517142Y-103572571D01*
X133588571Y-105072571D02*
X133588571Y-103572571D01*
X133231428Y-103572571D01*
X133017142Y-103644000D01*
X132874285Y-103786857D01*
X132802857Y-103929714D01*
X132731428Y-104215428D01*
X132731428Y-104429714D01*
X132802857Y-104715428D01*
X132874285Y-104858285D01*
X133017142Y-105001142D01*
X133231428Y-105072571D01*
X133588571Y-105072571D01*
X131445714Y-104072571D02*
X131445714Y-105072571D01*
X132088571Y-104072571D02*
X132088571Y-104858285D01*
X132017142Y-105001142D01*
X131874285Y-105072571D01*
X131660000Y-105072571D01*
X131517142Y-105001142D01*
X131445714Y-104929714D01*
X130088571Y-105072571D02*
X130088571Y-104286857D01*
X130160000Y-104144000D01*
X130302857Y-104072571D01*
X130588571Y-104072571D01*
X130731428Y-104144000D01*
X130088571Y-105001142D02*
X130231428Y-105072571D01*
X130588571Y-105072571D01*
X130731428Y-105001142D01*
X130802857Y-104858285D01*
X130802857Y-104715428D01*
X130731428Y-104572571D01*
X130588571Y-104501142D01*
X130231428Y-104501142D01*
X130088571Y-104429714D01*
X129160000Y-105072571D02*
X129302857Y-105001142D01*
X129374285Y-104858285D01*
X129374285Y-103572571D01*
X127660000Y-103572571D02*
X127160000Y-105072571D01*
X126660000Y-103572571D01*
X125374285Y-105072571D02*
X126231428Y-105072571D01*
X125802857Y-105072571D02*
X125802857Y-103572571D01*
X125945714Y-103786857D01*
X126088571Y-103929714D01*
X126231428Y-104001142D01*
X124731428Y-104929714D02*
X124660000Y-105001142D01*
X124731428Y-105072571D01*
X124802857Y-105001142D01*
X124731428Y-104929714D01*
X124731428Y-105072571D01*
X124088571Y-103715428D02*
X124017142Y-103644000D01*
X123874285Y-103572571D01*
X123517142Y-103572571D01*
X123374285Y-103644000D01*
X123302857Y-103715428D01*
X123231428Y-103858285D01*
X123231428Y-104001142D01*
X123302857Y-104215428D01*
X124160000Y-105072571D01*
X123231428Y-105072571D01*
X147445714Y-47077571D02*
X146588571Y-47077571D01*
X147017142Y-48577571D02*
X147017142Y-47077571D01*
X146088571Y-48577571D02*
X146088571Y-47077571D01*
X145445714Y-48577571D02*
X145445714Y-47791857D01*
X145517142Y-47649000D01*
X145660000Y-47577571D01*
X145874285Y-47577571D01*
X146017142Y-47649000D01*
X146088571Y-47720428D01*
X144517142Y-48577571D02*
X144660000Y-48506142D01*
X144731428Y-48434714D01*
X144802857Y-48291857D01*
X144802857Y-47863285D01*
X144731428Y-47720428D01*
X144660000Y-47649000D01*
X144517142Y-47577571D01*
X144302857Y-47577571D01*
X144160000Y-47649000D01*
X144088571Y-47720428D01*
X144017142Y-47863285D01*
X144017142Y-48291857D01*
X144088571Y-48434714D01*
X144160000Y-48506142D01*
X144302857Y-48577571D01*
X144517142Y-48577571D01*
X143374285Y-48577571D02*
X143374285Y-47577571D01*
X143374285Y-47720428D02*
X143302857Y-47649000D01*
X143160000Y-47577571D01*
X142945714Y-47577571D01*
X142802857Y-47649000D01*
X142731428Y-47791857D01*
X142731428Y-48577571D01*
X142731428Y-47791857D02*
X142660000Y-47649000D01*
X142517142Y-47577571D01*
X142302857Y-47577571D01*
X142160000Y-47649000D01*
X142088571Y-47791857D01*
X142088571Y-48577571D01*
X140731428Y-48577571D02*
X140731428Y-47791857D01*
X140802857Y-47649000D01*
X140945714Y-47577571D01*
X141231428Y-47577571D01*
X141374285Y-47649000D01*
X140731428Y-48506142D02*
X140874285Y-48577571D01*
X141231428Y-48577571D01*
X141374285Y-48506142D01*
X141445714Y-48363285D01*
X141445714Y-48220428D01*
X141374285Y-48077571D01*
X141231428Y-48006142D01*
X140874285Y-48006142D01*
X140731428Y-47934714D01*
X140088571Y-48506142D02*
X139945714Y-48577571D01*
X139660000Y-48577571D01*
X139517142Y-48506142D01*
X139445714Y-48363285D01*
X139445714Y-48291857D01*
X139517142Y-48149000D01*
X139660000Y-48077571D01*
X139874285Y-48077571D01*
X140017142Y-48006142D01*
X140088571Y-47863285D01*
X140088571Y-47791857D01*
X140017142Y-47649000D01*
X139874285Y-47577571D01*
X139660000Y-47577571D01*
X139517142Y-47649000D01*
X137660000Y-48577571D02*
X137660000Y-47077571D01*
X137160000Y-48149000D01*
X136660000Y-47077571D01*
X136660000Y-48577571D01*
X135302857Y-48506142D02*
X135445714Y-48577571D01*
X135731428Y-48577571D01*
X135874285Y-48506142D01*
X135945714Y-48434714D01*
X136017142Y-48291857D01*
X136017142Y-47863285D01*
X135945714Y-47720428D01*
X135874285Y-47649000D01*
X135731428Y-47577571D01*
X135445714Y-47577571D01*
X135302857Y-47649000D01*
X134660000Y-48577571D02*
X134660000Y-47077571D01*
X134302857Y-47077571D01*
X134088571Y-47149000D01*
X133945714Y-47291857D01*
X133874285Y-47434714D01*
X133802857Y-47720428D01*
X133802857Y-47934714D01*
X133874285Y-48220428D01*
X133945714Y-48363285D01*
X134088571Y-48506142D01*
X134302857Y-48577571D01*
X134660000Y-48577571D01*
X132945714Y-48577571D02*
X133088571Y-48506142D01*
X133160000Y-48434714D01*
X133231428Y-48291857D01*
X133231428Y-47863285D01*
X133160000Y-47720428D01*
X133088571Y-47649000D01*
X132945714Y-47577571D01*
X132731428Y-47577571D01*
X132588571Y-47649000D01*
X132517142Y-47720428D01*
X132445714Y-47863285D01*
X132445714Y-48291857D01*
X132517142Y-48434714D01*
X132588571Y-48506142D01*
X132731428Y-48577571D01*
X132945714Y-48577571D01*
X131802857Y-47577571D02*
X131802857Y-48577571D01*
X131802857Y-47720428D02*
X131731428Y-47649000D01*
X131588571Y-47577571D01*
X131374285Y-47577571D01*
X131231428Y-47649000D01*
X131160000Y-47791857D01*
X131160000Y-48577571D01*
X129802857Y-48577571D02*
X129802857Y-47791857D01*
X129874285Y-47649000D01*
X130017142Y-47577571D01*
X130302857Y-47577571D01*
X130445714Y-47649000D01*
X129802857Y-48506142D02*
X129945714Y-48577571D01*
X130302857Y-48577571D01*
X130445714Y-48506142D01*
X130517142Y-48363285D01*
X130517142Y-48220428D01*
X130445714Y-48077571D01*
X130302857Y-48006142D01*
X129945714Y-48006142D01*
X129802857Y-47934714D01*
X128445714Y-47577571D02*
X128445714Y-48791857D01*
X128517142Y-48934714D01*
X128588571Y-49006142D01*
X128731428Y-49077571D01*
X128945714Y-49077571D01*
X129088571Y-49006142D01*
X128445714Y-48506142D02*
X128588571Y-48577571D01*
X128874285Y-48577571D01*
X129017142Y-48506142D01*
X129088571Y-48434714D01*
X129160000Y-48291857D01*
X129160000Y-47863285D01*
X129088571Y-47720428D01*
X129017142Y-47649000D01*
X128874285Y-47577571D01*
X128588571Y-47577571D01*
X128445714Y-47649000D01*
X127731428Y-48577571D02*
X127731428Y-47077571D01*
X127088571Y-48577571D02*
X127088571Y-47791857D01*
X127160000Y-47649000D01*
X127302857Y-47577571D01*
X127517142Y-47577571D01*
X127660000Y-47649000D01*
X127731428Y-47720428D01*
X146838571Y-51006142D02*
X146981428Y-51077571D01*
X147267142Y-51077571D01*
X147410000Y-51006142D01*
X147481428Y-50934714D01*
X147552857Y-50791857D01*
X147552857Y-50363285D01*
X147481428Y-50220428D01*
X147410000Y-50149000D01*
X147267142Y-50077571D01*
X146981428Y-50077571D01*
X146838571Y-50149000D01*
X145981428Y-51077571D02*
X146124285Y-51006142D01*
X146195714Y-50934714D01*
X146267142Y-50791857D01*
X146267142Y-50363285D01*
X146195714Y-50220428D01*
X146124285Y-50149000D01*
X145981428Y-50077571D01*
X145767142Y-50077571D01*
X145624285Y-50149000D01*
X145552857Y-50220428D01*
X145481428Y-50363285D01*
X145481428Y-50791857D01*
X145552857Y-50934714D01*
X145624285Y-51006142D01*
X145767142Y-51077571D01*
X145981428Y-51077571D01*
X144838571Y-50077571D02*
X144838571Y-51077571D01*
X144838571Y-50220428D02*
X144767142Y-50149000D01*
X144624285Y-50077571D01*
X144410000Y-50077571D01*
X144267142Y-50149000D01*
X144195714Y-50291857D01*
X144195714Y-51077571D01*
X143552857Y-51006142D02*
X143410000Y-51077571D01*
X143124285Y-51077571D01*
X142981428Y-51006142D01*
X142910000Y-50863285D01*
X142910000Y-50791857D01*
X142981428Y-50649000D01*
X143124285Y-50577571D01*
X143338571Y-50577571D01*
X143481428Y-50506142D01*
X143552857Y-50363285D01*
X143552857Y-50291857D01*
X143481428Y-50149000D01*
X143338571Y-50077571D01*
X143124285Y-50077571D01*
X142981428Y-50149000D01*
X142052857Y-51077571D02*
X142195714Y-51006142D01*
X142267142Y-50934714D01*
X142338571Y-50791857D01*
X142338571Y-50363285D01*
X142267142Y-50220428D01*
X142195714Y-50149000D01*
X142052857Y-50077571D01*
X141838571Y-50077571D01*
X141695714Y-50149000D01*
X141624285Y-50220428D01*
X141552857Y-50363285D01*
X141552857Y-50791857D01*
X141624285Y-50934714D01*
X141695714Y-51006142D01*
X141838571Y-51077571D01*
X142052857Y-51077571D01*
X140695714Y-51077571D02*
X140838571Y-51006142D01*
X140910000Y-50863285D01*
X140910000Y-49577571D01*
X139552857Y-51006142D02*
X139695714Y-51077571D01*
X139981428Y-51077571D01*
X140124285Y-51006142D01*
X140195714Y-50863285D01*
X140195714Y-50291857D01*
X140124285Y-50149000D01*
X139981428Y-50077571D01*
X139695714Y-50077571D01*
X139552857Y-50149000D01*
X139481428Y-50291857D01*
X139481428Y-50434714D01*
X140195714Y-50577571D01*
X138838571Y-50077571D02*
X138838571Y-51577571D01*
X138838571Y-50149000D02*
X138695714Y-50077571D01*
X138410000Y-50077571D01*
X138267142Y-50149000D01*
X138195714Y-50220428D01*
X138124285Y-50363285D01*
X138124285Y-50791857D01*
X138195714Y-50934714D01*
X138267142Y-51006142D01*
X138410000Y-51077571D01*
X138695714Y-51077571D01*
X138838571Y-51006142D01*
X136910000Y-51006142D02*
X137052857Y-51077571D01*
X137338571Y-51077571D01*
X137481428Y-51006142D01*
X137552857Y-50863285D01*
X137552857Y-50291857D01*
X137481428Y-50149000D01*
X137338571Y-50077571D01*
X137052857Y-50077571D01*
X136910000Y-50149000D01*
X136838571Y-50291857D01*
X136838571Y-50434714D01*
X137552857Y-50577571D01*
X135552857Y-51077571D02*
X135552857Y-49577571D01*
X135552857Y-51006142D02*
X135695714Y-51077571D01*
X135981428Y-51077571D01*
X136124285Y-51006142D01*
X136195714Y-50934714D01*
X136267142Y-50791857D01*
X136267142Y-50363285D01*
X136195714Y-50220428D01*
X136124285Y-50149000D01*
X135981428Y-50077571D01*
X135695714Y-50077571D01*
X135552857Y-50149000D01*
X134195714Y-51077571D02*
X134195714Y-50291857D01*
X134267142Y-50149000D01*
X134410000Y-50077571D01*
X134695714Y-50077571D01*
X134838571Y-50149000D01*
X134195714Y-51006142D02*
X134338571Y-51077571D01*
X134695714Y-51077571D01*
X134838571Y-51006142D01*
X134910000Y-50863285D01*
X134910000Y-50720428D01*
X134838571Y-50577571D01*
X134695714Y-50506142D01*
X134338571Y-50506142D01*
X134195714Y-50434714D01*
X133267142Y-51077571D02*
X133410000Y-51006142D01*
X133481428Y-50863285D01*
X133481428Y-49577571D01*
X132767142Y-51006142D02*
X132624285Y-51077571D01*
X132338571Y-51077571D01*
X132195714Y-51006142D01*
X132124285Y-50863285D01*
X132124285Y-50791857D01*
X132195714Y-50649000D01*
X132338571Y-50577571D01*
X132552857Y-50577571D01*
X132695714Y-50506142D01*
X132767142Y-50363285D01*
X132767142Y-50291857D01*
X132695714Y-50149000D01*
X132552857Y-50077571D01*
X132338571Y-50077571D01*
X132195714Y-50149000D01*
X131481428Y-50934714D02*
X131410000Y-51006142D01*
X131481428Y-51077571D01*
X131552857Y-51006142D01*
X131481428Y-50934714D01*
X131481428Y-51077571D01*
X130124285Y-51006142D02*
X130267142Y-51077571D01*
X130552857Y-51077571D01*
X130695714Y-51006142D01*
X130767142Y-50934714D01*
X130838571Y-50791857D01*
X130838571Y-50363285D01*
X130767142Y-50220428D01*
X130695714Y-50149000D01*
X130552857Y-50077571D01*
X130267142Y-50077571D01*
X130124285Y-50149000D01*
X129267142Y-51077571D02*
X129410000Y-51006142D01*
X129481428Y-50934714D01*
X129552857Y-50791857D01*
X129552857Y-50363285D01*
X129481428Y-50220428D01*
X129410000Y-50149000D01*
X129267142Y-50077571D01*
X129052857Y-50077571D01*
X128910000Y-50149000D01*
X128838571Y-50220428D01*
X128767142Y-50363285D01*
X128767142Y-50791857D01*
X128838571Y-50934714D01*
X128910000Y-51006142D01*
X129052857Y-51077571D01*
X129267142Y-51077571D01*
X128124285Y-51077571D02*
X128124285Y-50077571D01*
X128124285Y-50220428D02*
X128052857Y-50149000D01*
X127910000Y-50077571D01*
X127695714Y-50077571D01*
X127552857Y-50149000D01*
X127481428Y-50291857D01*
X127481428Y-51077571D01*
X127481428Y-50291857D02*
X127410000Y-50149000D01*
X127267142Y-50077571D01*
X127052857Y-50077571D01*
X126910000Y-50149000D01*
X126838571Y-50291857D01*
X126838571Y-51077571D01*
D12*
G04 #@! TO.C,R1*
X133120000Y-83185000D02*
X133890000Y-83185000D01*
X141200000Y-83185000D02*
X140430000Y-83185000D01*
X133890000Y-81815000D02*
X140430000Y-81815000D01*
X133890000Y-84555000D02*
X133890000Y-81815000D01*
X140430000Y-84555000D02*
X133890000Y-84555000D01*
X140430000Y-81815000D02*
X140430000Y-84555000D01*
G04 #@! TO.C,D2*
X139227000Y-75111000D02*
X139227000Y-78051000D01*
X138987000Y-75111000D02*
X138987000Y-78051000D01*
X139107000Y-75111000D02*
X139107000Y-78051000D01*
X133547000Y-76581000D02*
X134567000Y-76581000D01*
X141027000Y-76581000D02*
X140007000Y-76581000D01*
X134567000Y-75111000D02*
X140007000Y-75111000D01*
X134567000Y-78051000D02*
X134567000Y-75111000D01*
X140007000Y-78051000D02*
X134567000Y-78051000D01*
X140007000Y-75111000D02*
X140007000Y-78051000D01*
G04 #@! TO.C,R3*
X154146000Y-82196000D02*
X154146000Y-84936000D01*
X154146000Y-84936000D02*
X147606000Y-84936000D01*
X147606000Y-84936000D02*
X147606000Y-82196000D01*
X147606000Y-82196000D02*
X154146000Y-82196000D01*
X154916000Y-83566000D02*
X154146000Y-83566000D01*
X146836000Y-83566000D02*
X147606000Y-83566000D01*
G04 #@! TO.C,R4*
X119404000Y-83693000D02*
X120174000Y-83693000D01*
X127484000Y-83693000D02*
X126714000Y-83693000D01*
X120174000Y-82323000D02*
X126714000Y-82323000D01*
X120174000Y-85063000D02*
X120174000Y-82323000D01*
X126714000Y-85063000D02*
X120174000Y-85063000D01*
X126714000Y-82323000D02*
X126714000Y-85063000D01*
G04 #@! TO.C,R5*
X126714000Y-78894000D02*
X126714000Y-81634000D01*
X126714000Y-81634000D02*
X120174000Y-81634000D01*
X120174000Y-81634000D02*
X120174000Y-78894000D01*
X120174000Y-78894000D02*
X126714000Y-78894000D01*
X127484000Y-80264000D02*
X126714000Y-80264000D01*
X119404000Y-80264000D02*
X120174000Y-80264000D01*
G04 #@! TO.C,R7*
X147606000Y-81253000D02*
X147606000Y-78513000D01*
X147606000Y-78513000D02*
X154146000Y-78513000D01*
X154146000Y-78513000D02*
X154146000Y-81253000D01*
X154146000Y-81253000D02*
X147606000Y-81253000D01*
X146836000Y-79883000D02*
X147606000Y-79883000D01*
X154916000Y-79883000D02*
X154146000Y-79883000D01*
G04 #@! TO.C,R1*
D13*
X137326666Y-83637380D02*
X137660000Y-83161190D01*
X137898095Y-83637380D02*
X137898095Y-82637380D01*
X137517142Y-82637380D01*
X137421904Y-82685000D01*
X137374285Y-82732619D01*
X137326666Y-82827857D01*
X137326666Y-82970714D01*
X137374285Y-83065952D01*
X137421904Y-83113571D01*
X137517142Y-83161190D01*
X137898095Y-83161190D01*
X136374285Y-83637380D02*
X136945714Y-83637380D01*
X136660000Y-83637380D02*
X136660000Y-82637380D01*
X136755238Y-82780238D01*
X136850476Y-82875476D01*
X136945714Y-82923095D01*
G04 #@! TO.C,D2*
X138025095Y-77033380D02*
X138025095Y-76033380D01*
X137787000Y-76033380D01*
X137644142Y-76081000D01*
X137548904Y-76176238D01*
X137501285Y-76271476D01*
X137453666Y-76461952D01*
X137453666Y-76604809D01*
X137501285Y-76795285D01*
X137548904Y-76890523D01*
X137644142Y-76985761D01*
X137787000Y-77033380D01*
X138025095Y-77033380D01*
X137072714Y-76128619D02*
X137025095Y-76081000D01*
X136929857Y-76033380D01*
X136691761Y-76033380D01*
X136596523Y-76081000D01*
X136548904Y-76128619D01*
X136501285Y-76223857D01*
X136501285Y-76319095D01*
X136548904Y-76461952D01*
X137120333Y-77033380D01*
X136501285Y-77033380D01*
G04 #@! TO.C,R3*
X150915666Y-84018380D02*
X151249000Y-83542190D01*
X151487095Y-84018380D02*
X151487095Y-83018380D01*
X151106142Y-83018380D01*
X151010904Y-83066000D01*
X150963285Y-83113619D01*
X150915666Y-83208857D01*
X150915666Y-83351714D01*
X150963285Y-83446952D01*
X151010904Y-83494571D01*
X151106142Y-83542190D01*
X151487095Y-83542190D01*
X150582333Y-83018380D02*
X149963285Y-83018380D01*
X150296619Y-83399333D01*
X150153761Y-83399333D01*
X150058523Y-83446952D01*
X150010904Y-83494571D01*
X149963285Y-83589809D01*
X149963285Y-83827904D01*
X150010904Y-83923142D01*
X150058523Y-83970761D01*
X150153761Y-84018380D01*
X150439476Y-84018380D01*
X150534714Y-83970761D01*
X150582333Y-83923142D01*
G04 #@! TO.C,R4*
X123610666Y-84145380D02*
X123944000Y-83669190D01*
X124182095Y-84145380D02*
X124182095Y-83145380D01*
X123801142Y-83145380D01*
X123705904Y-83193000D01*
X123658285Y-83240619D01*
X123610666Y-83335857D01*
X123610666Y-83478714D01*
X123658285Y-83573952D01*
X123705904Y-83621571D01*
X123801142Y-83669190D01*
X124182095Y-83669190D01*
X122753523Y-83478714D02*
X122753523Y-84145380D01*
X122991619Y-83097761D02*
X123229714Y-83812047D01*
X122610666Y-83812047D01*
G04 #@! TO.C,R5*
X123610666Y-80716380D02*
X123944000Y-80240190D01*
X124182095Y-80716380D02*
X124182095Y-79716380D01*
X123801142Y-79716380D01*
X123705904Y-79764000D01*
X123658285Y-79811619D01*
X123610666Y-79906857D01*
X123610666Y-80049714D01*
X123658285Y-80144952D01*
X123705904Y-80192571D01*
X123801142Y-80240190D01*
X124182095Y-80240190D01*
X122705904Y-79716380D02*
X123182095Y-79716380D01*
X123229714Y-80192571D01*
X123182095Y-80144952D01*
X123086857Y-80097333D01*
X122848761Y-80097333D01*
X122753523Y-80144952D01*
X122705904Y-80192571D01*
X122658285Y-80287809D01*
X122658285Y-80525904D01*
X122705904Y-80621142D01*
X122753523Y-80668761D01*
X122848761Y-80716380D01*
X123086857Y-80716380D01*
X123182095Y-80668761D01*
X123229714Y-80621142D01*
G04 #@! TO.C,R7*
X151004665Y-80341381D02*
X151337999Y-79865191D01*
X151576094Y-80341381D02*
X151576094Y-79341381D01*
X151195141Y-79341381D01*
X151099903Y-79389001D01*
X151052284Y-79436620D01*
X151004665Y-79531858D01*
X151004665Y-79674715D01*
X151052284Y-79769953D01*
X151099903Y-79817572D01*
X151195141Y-79865191D01*
X151576094Y-79865191D01*
X150671332Y-79341381D02*
X150004665Y-79341381D01*
X150433237Y-80341381D01*
G04 #@! TD*
M02*
