M48
; DRILL file {KiCad (5.1.7)-1} date 05/30/21 15:58:06
; FORMAT={-:-/ absolute / inch / decimal}
; #@! TF.CreationDate,2021-05-30T15:58:06-05:00
; #@! TF.GenerationSoftware,Kicad,Pcbnew,(5.1.7)-1
; #@! TF.FileFunction,Plated,1,4,PTH
FMAT,2
INCH
T1C0.0157
T2C0.0295
T3C0.0315
T4C0.0354
T5C0.0394
T6C0.0433
T7C0.0984
%
G90
G05
T1
X3.4Y-3.59
X3.54Y-3.22
X3.65Y-3.67
X3.92Y-3.44
X4.0453Y-4.7653
X4.05Y-3.87
X4.14Y-4.31
X4.1437Y-4.763
X4.2421Y-4.7664
X4.3406Y-4.7715
X4.35Y-2.87
X4.439Y-4.773
X4.5374Y-4.7817
X4.55Y-2.83
X4.55Y-3.13
X4.6208Y-3.8108
X4.85Y-4.57
X4.95Y-3.27
X4.97Y-4.42
X5.22Y-3.09
X5.28Y-3.1
X5.84Y-3.44
X5.88Y-3.98
X5.9154Y-4.7667
X6.0138Y-4.768
X6.1122Y-4.7665
X6.2106Y-4.7664
X6.27Y-4.6
X6.3091Y-4.7633
X6.34Y-4.55
X6.4075Y-4.7625
X6.46Y-3.85
X6.46Y-3.85
X6.5124Y-3.6224
X6.52Y-3.25
X6.87Y-3.47
X7.0Y-3.69
T2
X6.34Y-3.72
X6.39Y-3.72
X6.44Y-3.72
T3
X6.7831Y-3.4743
X6.98Y-3.4743
X4.38Y-3.59
X4.6753Y-3.59
X4.46Y-3.35
X4.86Y-3.35
X5.55Y-3.08
X5.95Y-3.08
X3.5131Y-3.9057
X3.71Y-3.9057
X5.02Y-3.48
X5.42Y-3.48
X3.8331Y-4.0243
X4.03Y-4.0243
X6.7831Y-3.8257
X6.98Y-3.8257
X3.41Y-3.35
X3.81Y-3.35
X6.1913Y-4.42
X6.27Y-4.42
X5.5413Y-3.86
X5.62Y-3.86
X5.075Y-3.65
X5.075Y-3.75
X5.075Y-3.85
X5.075Y-3.95
X5.075Y-4.05
X5.075Y-4.15
X5.075Y-4.25
X5.075Y-4.35
X5.375Y-3.65
X5.375Y-3.75
X5.375Y-3.85
X5.375Y-3.95
X5.375Y-4.05
X5.375Y-4.15
X5.375Y-4.25
X5.375Y-4.35
X5.55Y-3.34
X5.95Y-3.34
X5.55Y-2.95
X5.95Y-2.95
X6.4631Y-3.9343
X6.66Y-3.9343
X6.1331Y-3.9343
X6.33Y-3.9343
X6.63Y-3.09
X7.03Y-3.09
X3.41Y-3.22
X3.81Y-3.22
X6.63Y-2.83
X7.03Y-2.83
X5.76Y-3.59
X6.0553Y-3.59
X3.5131Y-4.3757
X3.71Y-4.3757
X3.8816Y-4.38
X3.98Y-4.38
X5.59Y-4.0813
X5.59Y-4.16
X6.5116Y-4.29
X6.61Y-4.29
X6.63Y-3.22
X7.03Y-3.22
X3.41Y-3.09
X3.81Y-3.09
X3.5131Y-4.0243
X3.71Y-4.0243
X4.2016Y-4.38
X4.3Y-4.38
X4.46Y-3.22
X4.86Y-3.22
X4.46Y-2.96
X4.86Y-2.96
X3.41Y-2.96
X3.81Y-2.96
X5.55Y-2.8268
X5.95Y-2.8268
X3.5131Y-3.5543
X3.71Y-3.5543
X4.86Y-4.07
X4.86Y-4.1487
X4.8113Y-3.86
X4.89Y-3.86
X3.41Y-2.83
X3.81Y-2.83
X4.46Y-3.09
X4.86Y-3.09
X6.63Y-2.96
X7.03Y-2.96
X6.7831Y-3.9343
X6.98Y-3.9343
X4.1531Y-4.0243
X4.35Y-4.0243
X6.7831Y-4.2857
X6.98Y-4.2857
X3.9Y-3.57
X3.9Y-3.67
X3.9Y-3.77
X3.9Y-3.87
X4.2Y-3.57
X4.2Y-3.67
X4.2Y-3.77
X4.2Y-3.87
X4.46Y-2.83
X4.86Y-2.83
X6.63Y-3.35
X7.03Y-3.35
X5.55Y-3.21
X5.95Y-3.21
T4
X4.5374Y-3.7402
X4.5374Y-3.8402
X5.9154Y-3.7402
X5.9154Y-3.8402
T5
X5.1266Y-3.285
X5.225Y-3.285
X5.3234Y-3.285
X6.2093Y-3.285
X6.3077Y-3.285
X6.4061Y-3.285
X4.0409Y-3.285
X4.1393Y-3.285
X4.2378Y-3.285
T6
X6.1Y-3.44
X6.5Y-3.44
T7
X3.3602Y-4.8268
X7.0925Y-4.8268
T0
M30
