M48
; DRILL file {KiCad (5.1.10)-1} date 07/19/21 15:36:05
; FORMAT={-:-/ absolute / inch / decimal}
; #@! TF.CreationDate,2021-07-19T15:36:05-05:00
; #@! TF.GenerationSoftware,Kicad,Pcbnew,(5.1.10)-1
; #@! TF.FileFunction,Plated,1,2,PTH
FMAT,2
INCH
T1C0.0157
T2C0.0295
T3C0.0315
T4C0.0354
T5C0.0394
T6C0.0984
%
G90
G05
T1
X3.495Y-3.455
X3.545Y-4.145
X3.57Y-3.9
X3.598Y-3.238
X3.7814Y-4.1186
X3.795Y-3.775
X3.8475Y-4.3575
X3.85Y-3.945
X3.91Y-3.805
X3.97Y-3.66
X4.03Y-4.215
X4.045Y-3.94
X4.0453Y-4.7653
X4.1026Y-3.6424
X4.1298Y-3.8152
X4.135Y-3.94
X4.1437Y-4.763
X4.235Y-3.95
X4.2421Y-4.7664
X4.29Y-4.21
X4.34Y-3.55
X4.3406Y-4.7715
X4.375Y-3.235
X4.38Y-4.545
X4.39Y-4.42
X4.439Y-4.773
X4.5374Y-4.7817
X4.6275Y-3.4325
X4.67Y-3.77
X4.725Y-4.545
X4.745Y-3.68
X4.75Y-4.09
X4.78Y-2.9
X4.99Y-3.95
X5.49Y-3.805
X5.49Y-3.85
X5.705Y-3.68
X5.85Y-3.405
X5.9154Y-4.7667
X6.0138Y-4.768
X6.1122Y-4.7665
X6.1275Y-3.4225
X6.17Y-3.91
X6.17Y-3.96
X6.2106Y-4.7664
X6.3091Y-4.7633
X6.4075Y-4.7625
X6.74Y-3.19
X6.849Y-3.249
T2
X6.2577Y-3.7902
X6.3077Y-3.7902
X6.3577Y-3.7902
T3
X5.02Y-3.46
X5.075Y-3.65
X5.075Y-3.75
X5.075Y-3.85
X5.075Y-3.95
X5.075Y-4.05
X5.075Y-4.15
X5.075Y-4.25
X5.075Y-4.35
X5.375Y-3.65
X5.375Y-3.75
X5.375Y-3.85
X5.375Y-3.95
X5.375Y-4.05
X5.375Y-4.15
X5.375Y-4.25
X5.375Y-4.35
X5.42Y-3.46
T4
X4.5374Y-3.7402
X4.5374Y-3.8402
X5.9154Y-3.7402
X5.9154Y-3.8402
T5
X4.0409Y-3.285
X4.1393Y-3.285
X4.2378Y-3.285
X5.1266Y-3.285
X5.225Y-3.285
X5.3234Y-3.285
X6.2093Y-3.285
X6.3077Y-3.285
X6.4061Y-3.285
T6
X3.3602Y-4.8268
X7.0925Y-4.8268
T0
M30
