G04 #@! TF.GenerationSoftware,KiCad,Pcbnew,(5.1.10)-1*
G04 #@! TF.CreationDate,2021-07-19T15:36:03-05:00*
G04 #@! TF.ProjectId,ConsolePedalDelaySMT,436f6e73-6f6c-4655-9065-64616c44656c,rev?*
G04 #@! TF.SameCoordinates,Original*
G04 #@! TF.FileFunction,Paste,Top*
G04 #@! TF.FilePolarity,Positive*
%FSLAX46Y46*%
G04 Gerber Fmt 4.6, Leading zero omitted, Abs format (unit mm)*
G04 Created by KiCad (PCBNEW (5.1.10)-1) date 2021-07-19 15:36:03*
%MOMM*%
%LPD*%
G01*
G04 APERTURE LIST*
%ADD10R,0.900000X1.200000*%
G04 APERTURE END LIST*
G04 #@! TO.C,C19*
G36*
G01*
X125910000Y-110777000D02*
X125910000Y-111727000D01*
G75*
G02*
X125660000Y-111977000I-250000J0D01*
G01*
X125160000Y-111977000D01*
G75*
G02*
X124910000Y-111727000I0J250000D01*
G01*
X124910000Y-110777000D01*
G75*
G02*
X125160000Y-110527000I250000J0D01*
G01*
X125660000Y-110527000D01*
G75*
G02*
X125910000Y-110777000I0J-250000D01*
G01*
G37*
G36*
G01*
X124010000Y-110777000D02*
X124010000Y-111727000D01*
G75*
G02*
X123760000Y-111977000I-250000J0D01*
G01*
X123260000Y-111977000D01*
G75*
G02*
X123010000Y-111727000I0J250000D01*
G01*
X123010000Y-110777000D01*
G75*
G02*
X123260000Y-110527000I250000J0D01*
G01*
X123760000Y-110527000D01*
G75*
G02*
X124010000Y-110777000I0J-250000D01*
G01*
G37*
G04 #@! TD*
G04 #@! TO.C,C1*
G36*
G01*
X93276000Y-93759000D02*
X93276000Y-94709000D01*
G75*
G02*
X93026000Y-94959000I-250000J0D01*
G01*
X92526000Y-94959000D01*
G75*
G02*
X92276000Y-94709000I0J250000D01*
G01*
X92276000Y-93759000D01*
G75*
G02*
X92526000Y-93509000I250000J0D01*
G01*
X93026000Y-93509000D01*
G75*
G02*
X93276000Y-93759000I0J-250000D01*
G01*
G37*
G36*
G01*
X95176000Y-93759000D02*
X95176000Y-94709000D01*
G75*
G02*
X94926000Y-94959000I-250000J0D01*
G01*
X94426000Y-94959000D01*
G75*
G02*
X94176000Y-94709000I0J250000D01*
G01*
X94176000Y-93759000D01*
G75*
G02*
X94426000Y-93509000I250000J0D01*
G01*
X94926000Y-93509000D01*
G75*
G02*
X95176000Y-93759000I0J-250000D01*
G01*
G37*
G04 #@! TD*
G04 #@! TO.C,C2*
G36*
G01*
X97102000Y-106012000D02*
X97102000Y-105062000D01*
G75*
G02*
X97352000Y-104812000I250000J0D01*
G01*
X97852000Y-104812000D01*
G75*
G02*
X98102000Y-105062000I0J-250000D01*
G01*
X98102000Y-106012000D01*
G75*
G02*
X97852000Y-106262000I-250000J0D01*
G01*
X97352000Y-106262000D01*
G75*
G02*
X97102000Y-106012000I0J250000D01*
G01*
G37*
G36*
G01*
X99002000Y-106012000D02*
X99002000Y-105062000D01*
G75*
G02*
X99252000Y-104812000I250000J0D01*
G01*
X99752000Y-104812000D01*
G75*
G02*
X100002000Y-105062000I0J-250000D01*
G01*
X100002000Y-106012000D01*
G75*
G02*
X99752000Y-106262000I-250000J0D01*
G01*
X99252000Y-106262000D01*
G75*
G02*
X99002000Y-106012000I0J250000D01*
G01*
G37*
G04 #@! TD*
G04 #@! TO.C,C3*
G36*
G01*
X105606000Y-91153000D02*
X105606000Y-90203000D01*
G75*
G02*
X105856000Y-89953000I250000J0D01*
G01*
X106356000Y-89953000D01*
G75*
G02*
X106606000Y-90203000I0J-250000D01*
G01*
X106606000Y-91153000D01*
G75*
G02*
X106356000Y-91403000I-250000J0D01*
G01*
X105856000Y-91403000D01*
G75*
G02*
X105606000Y-91153000I0J250000D01*
G01*
G37*
G36*
G01*
X103706000Y-91153000D02*
X103706000Y-90203000D01*
G75*
G02*
X103956000Y-89953000I250000J0D01*
G01*
X104456000Y-89953000D01*
G75*
G02*
X104706000Y-90203000I0J-250000D01*
G01*
X104706000Y-91153000D01*
G75*
G02*
X104456000Y-91403000I-250000J0D01*
G01*
X103956000Y-91403000D01*
G75*
G02*
X103706000Y-91153000I0J250000D01*
G01*
G37*
G04 #@! TD*
G04 #@! TO.C,C4*
G36*
G01*
X147015000Y-75389000D02*
X145915000Y-75389000D01*
G75*
G02*
X145665000Y-75139000I0J250000D01*
G01*
X145665000Y-72139000D01*
G75*
G02*
X145915000Y-71889000I250000J0D01*
G01*
X147015000Y-71889000D01*
G75*
G02*
X147265000Y-72139000I0J-250000D01*
G01*
X147265000Y-75139000D01*
G75*
G02*
X147015000Y-75389000I-250000J0D01*
G01*
G37*
G36*
G01*
X147015000Y-80989000D02*
X145915000Y-80989000D01*
G75*
G02*
X145665000Y-80739000I0J250000D01*
G01*
X145665000Y-77739000D01*
G75*
G02*
X145915000Y-77489000I250000J0D01*
G01*
X147015000Y-77489000D01*
G75*
G02*
X147265000Y-77739000I0J-250000D01*
G01*
X147265000Y-80739000D01*
G75*
G02*
X147015000Y-80989000I-250000J0D01*
G01*
G37*
G04 #@! TD*
G04 #@! TO.C,C5*
G36*
G01*
X104479000Y-101876000D02*
X105579000Y-101876000D01*
G75*
G02*
X105829000Y-102126000I0J-250000D01*
G01*
X105829000Y-105126000D01*
G75*
G02*
X105579000Y-105376000I-250000J0D01*
G01*
X104479000Y-105376000D01*
G75*
G02*
X104229000Y-105126000I0J250000D01*
G01*
X104229000Y-102126000D01*
G75*
G02*
X104479000Y-101876000I250000J0D01*
G01*
G37*
G36*
G01*
X104479000Y-107476000D02*
X105579000Y-107476000D01*
G75*
G02*
X105829000Y-107726000I0J-250000D01*
G01*
X105829000Y-110726000D01*
G75*
G02*
X105579000Y-110976000I-250000J0D01*
G01*
X104479000Y-110976000D01*
G75*
G02*
X104229000Y-110726000I0J250000D01*
G01*
X104229000Y-107726000D01*
G75*
G02*
X104479000Y-107476000I250000J0D01*
G01*
G37*
G04 #@! TD*
G04 #@! TO.C,C6*
G36*
G01*
X95176000Y-97823000D02*
X95176000Y-98773000D01*
G75*
G02*
X94926000Y-99023000I-250000J0D01*
G01*
X94426000Y-99023000D01*
G75*
G02*
X94176000Y-98773000I0J250000D01*
G01*
X94176000Y-97823000D01*
G75*
G02*
X94426000Y-97573000I250000J0D01*
G01*
X94926000Y-97573000D01*
G75*
G02*
X95176000Y-97823000I0J-250000D01*
G01*
G37*
G36*
G01*
X93276000Y-97823000D02*
X93276000Y-98773000D01*
G75*
G02*
X93026000Y-99023000I-250000J0D01*
G01*
X92526000Y-99023000D01*
G75*
G02*
X92276000Y-98773000I0J250000D01*
G01*
X92276000Y-97823000D01*
G75*
G02*
X92526000Y-97573000I250000J0D01*
G01*
X93026000Y-97573000D01*
G75*
G02*
X93276000Y-97823000I0J-250000D01*
G01*
G37*
G04 #@! TD*
G04 #@! TO.C,C7*
G36*
G01*
X92276000Y-109568000D02*
X92276000Y-108618000D01*
G75*
G02*
X92526000Y-108368000I250000J0D01*
G01*
X93026000Y-108368000D01*
G75*
G02*
X93276000Y-108618000I0J-250000D01*
G01*
X93276000Y-109568000D01*
G75*
G02*
X93026000Y-109818000I-250000J0D01*
G01*
X92526000Y-109818000D01*
G75*
G02*
X92276000Y-109568000I0J250000D01*
G01*
G37*
G36*
G01*
X94176000Y-109568000D02*
X94176000Y-108618000D01*
G75*
G02*
X94426000Y-108368000I250000J0D01*
G01*
X94926000Y-108368000D01*
G75*
G02*
X95176000Y-108618000I0J-250000D01*
G01*
X95176000Y-109568000D01*
G75*
G02*
X94926000Y-109818000I-250000J0D01*
G01*
X94426000Y-109818000D01*
G75*
G02*
X94176000Y-109568000I0J250000D01*
G01*
G37*
G04 #@! TD*
G04 #@! TO.C,C8*
G36*
G01*
X139987000Y-102812000D02*
X140937000Y-102812000D01*
G75*
G02*
X141187000Y-103062000I0J-250000D01*
G01*
X141187000Y-103562000D01*
G75*
G02*
X140937000Y-103812000I-250000J0D01*
G01*
X139987000Y-103812000D01*
G75*
G02*
X139737000Y-103562000I0J250000D01*
G01*
X139737000Y-103062000D01*
G75*
G02*
X139987000Y-102812000I250000J0D01*
G01*
G37*
G36*
G01*
X139987000Y-100912000D02*
X140937000Y-100912000D01*
G75*
G02*
X141187000Y-101162000I0J-250000D01*
G01*
X141187000Y-101662000D01*
G75*
G02*
X140937000Y-101912000I-250000J0D01*
G01*
X139987000Y-101912000D01*
G75*
G02*
X139737000Y-101662000I0J250000D01*
G01*
X139737000Y-101162000D01*
G75*
G02*
X139987000Y-100912000I250000J0D01*
G01*
G37*
G04 #@! TD*
G04 #@! TO.C,C9*
G36*
G01*
X139987000Y-106876000D02*
X140937000Y-106876000D01*
G75*
G02*
X141187000Y-107126000I0J-250000D01*
G01*
X141187000Y-107626000D01*
G75*
G02*
X140937000Y-107876000I-250000J0D01*
G01*
X139987000Y-107876000D01*
G75*
G02*
X139737000Y-107626000I0J250000D01*
G01*
X139737000Y-107126000D01*
G75*
G02*
X139987000Y-106876000I250000J0D01*
G01*
G37*
G36*
G01*
X139987000Y-104976000D02*
X140937000Y-104976000D01*
G75*
G02*
X141187000Y-105226000I0J-250000D01*
G01*
X141187000Y-105726000D01*
G75*
G02*
X140937000Y-105976000I-250000J0D01*
G01*
X139987000Y-105976000D01*
G75*
G02*
X139737000Y-105726000I0J250000D01*
G01*
X139737000Y-105226000D01*
G75*
G02*
X139987000Y-104976000I250000J0D01*
G01*
G37*
G04 #@! TD*
G04 #@! TO.C,C10*
G36*
G01*
X139987000Y-110940000D02*
X140937000Y-110940000D01*
G75*
G02*
X141187000Y-111190000I0J-250000D01*
G01*
X141187000Y-111690000D01*
G75*
G02*
X140937000Y-111940000I-250000J0D01*
G01*
X139987000Y-111940000D01*
G75*
G02*
X139737000Y-111690000I0J250000D01*
G01*
X139737000Y-111190000D01*
G75*
G02*
X139987000Y-110940000I250000J0D01*
G01*
G37*
G36*
G01*
X139987000Y-109040000D02*
X140937000Y-109040000D01*
G75*
G02*
X141187000Y-109290000I0J-250000D01*
G01*
X141187000Y-109790000D01*
G75*
G02*
X140937000Y-110040000I-250000J0D01*
G01*
X139987000Y-110040000D01*
G75*
G02*
X139737000Y-109790000I0J250000D01*
G01*
X139737000Y-109290000D01*
G75*
G02*
X139987000Y-109040000I250000J0D01*
G01*
G37*
G04 #@! TD*
G04 #@! TO.C,C11*
G36*
G01*
X163248000Y-88552000D02*
X163248000Y-89502000D01*
G75*
G02*
X162998000Y-89752000I-250000J0D01*
G01*
X162498000Y-89752000D01*
G75*
G02*
X162248000Y-89502000I0J250000D01*
G01*
X162248000Y-88552000D01*
G75*
G02*
X162498000Y-88302000I250000J0D01*
G01*
X162998000Y-88302000D01*
G75*
G02*
X163248000Y-88552000I0J-250000D01*
G01*
G37*
G36*
G01*
X161348000Y-88552000D02*
X161348000Y-89502000D01*
G75*
G02*
X161098000Y-89752000I-250000J0D01*
G01*
X160598000Y-89752000D01*
G75*
G02*
X160348000Y-89502000I0J250000D01*
G01*
X160348000Y-88552000D01*
G75*
G02*
X160598000Y-88302000I250000J0D01*
G01*
X161098000Y-88302000D01*
G75*
G02*
X161348000Y-88552000I0J-250000D01*
G01*
G37*
G04 #@! TD*
G04 #@! TO.C,C12*
G36*
G01*
X177767000Y-88191000D02*
X176817000Y-88191000D01*
G75*
G02*
X176567000Y-87941000I0J250000D01*
G01*
X176567000Y-87441000D01*
G75*
G02*
X176817000Y-87191000I250000J0D01*
G01*
X177767000Y-87191000D01*
G75*
G02*
X178017000Y-87441000I0J-250000D01*
G01*
X178017000Y-87941000D01*
G75*
G02*
X177767000Y-88191000I-250000J0D01*
G01*
G37*
G36*
G01*
X177767000Y-86291000D02*
X176817000Y-86291000D01*
G75*
G02*
X176567000Y-86041000I0J250000D01*
G01*
X176567000Y-85541000D01*
G75*
G02*
X176817000Y-85291000I250000J0D01*
G01*
X177767000Y-85291000D01*
G75*
G02*
X178017000Y-85541000I0J-250000D01*
G01*
X178017000Y-86041000D01*
G75*
G02*
X177767000Y-86291000I-250000J0D01*
G01*
G37*
G04 #@! TD*
G04 #@! TO.C,C13*
G36*
G01*
X174515000Y-75389000D02*
X173415000Y-75389000D01*
G75*
G02*
X173165000Y-75139000I0J250000D01*
G01*
X173165000Y-72139000D01*
G75*
G02*
X173415000Y-71889000I250000J0D01*
G01*
X174515000Y-71889000D01*
G75*
G02*
X174765000Y-72139000I0J-250000D01*
G01*
X174765000Y-75139000D01*
G75*
G02*
X174515000Y-75389000I-250000J0D01*
G01*
G37*
G36*
G01*
X174515000Y-80989000D02*
X173415000Y-80989000D01*
G75*
G02*
X173165000Y-80739000I0J250000D01*
G01*
X173165000Y-77739000D01*
G75*
G02*
X173415000Y-77489000I250000J0D01*
G01*
X174515000Y-77489000D01*
G75*
G02*
X174765000Y-77739000I0J-250000D01*
G01*
X174765000Y-80739000D01*
G75*
G02*
X174515000Y-80989000I-250000J0D01*
G01*
G37*
G04 #@! TD*
G04 #@! TO.C,C14*
G36*
G01*
X119515000Y-80989000D02*
X118415000Y-80989000D01*
G75*
G02*
X118165000Y-80739000I0J250000D01*
G01*
X118165000Y-77739000D01*
G75*
G02*
X118415000Y-77489000I250000J0D01*
G01*
X119515000Y-77489000D01*
G75*
G02*
X119765000Y-77739000I0J-250000D01*
G01*
X119765000Y-80739000D01*
G75*
G02*
X119515000Y-80989000I-250000J0D01*
G01*
G37*
G36*
G01*
X119515000Y-75389000D02*
X118415000Y-75389000D01*
G75*
G02*
X118165000Y-75139000I0J250000D01*
G01*
X118165000Y-72139000D01*
G75*
G02*
X118415000Y-71889000I250000J0D01*
G01*
X119515000Y-71889000D01*
G75*
G02*
X119765000Y-72139000I0J-250000D01*
G01*
X119765000Y-75139000D01*
G75*
G02*
X119515000Y-75389000I-250000J0D01*
G01*
G37*
G04 #@! TD*
G04 #@! TO.C,C15*
G36*
G01*
X173449000Y-92514000D02*
X172499000Y-92514000D01*
G75*
G02*
X172249000Y-92264000I0J250000D01*
G01*
X172249000Y-91764000D01*
G75*
G02*
X172499000Y-91514000I250000J0D01*
G01*
X173449000Y-91514000D01*
G75*
G02*
X173699000Y-91764000I0J-250000D01*
G01*
X173699000Y-92264000D01*
G75*
G02*
X173449000Y-92514000I-250000J0D01*
G01*
G37*
G36*
G01*
X173449000Y-94414000D02*
X172499000Y-94414000D01*
G75*
G02*
X172249000Y-94164000I0J250000D01*
G01*
X172249000Y-93664000D01*
G75*
G02*
X172499000Y-93414000I250000J0D01*
G01*
X173449000Y-93414000D01*
G75*
G02*
X173699000Y-93664000I0J-250000D01*
G01*
X173699000Y-94164000D01*
G75*
G02*
X173449000Y-94414000I-250000J0D01*
G01*
G37*
G04 #@! TD*
G04 #@! TO.C,C16*
G36*
G01*
X145997000Y-111600000D02*
X145997000Y-110650000D01*
G75*
G02*
X146247000Y-110400000I250000J0D01*
G01*
X146747000Y-110400000D01*
G75*
G02*
X146997000Y-110650000I0J-250000D01*
G01*
X146997000Y-111600000D01*
G75*
G02*
X146747000Y-111850000I-250000J0D01*
G01*
X146247000Y-111850000D01*
G75*
G02*
X145997000Y-111600000I0J250000D01*
G01*
G37*
G36*
G01*
X147897000Y-111600000D02*
X147897000Y-110650000D01*
G75*
G02*
X148147000Y-110400000I250000J0D01*
G01*
X148647000Y-110400000D01*
G75*
G02*
X148897000Y-110650000I0J-250000D01*
G01*
X148897000Y-111600000D01*
G75*
G02*
X148647000Y-111850000I-250000J0D01*
G01*
X148147000Y-111850000D01*
G75*
G02*
X147897000Y-111600000I0J250000D01*
G01*
G37*
G04 #@! TD*
G04 #@! TO.C,C17*
G36*
G01*
X122386000Y-90165000D02*
X123486000Y-90165000D01*
G75*
G02*
X123736000Y-90415000I0J-250000D01*
G01*
X123736000Y-93415000D01*
G75*
G02*
X123486000Y-93665000I-250000J0D01*
G01*
X122386000Y-93665000D01*
G75*
G02*
X122136000Y-93415000I0J250000D01*
G01*
X122136000Y-90415000D01*
G75*
G02*
X122386000Y-90165000I250000J0D01*
G01*
G37*
G36*
G01*
X122386000Y-95565000D02*
X123486000Y-95565000D01*
G75*
G02*
X123736000Y-95815000I0J-250000D01*
G01*
X123736000Y-98815000D01*
G75*
G02*
X123486000Y-99065000I-250000J0D01*
G01*
X122386000Y-99065000D01*
G75*
G02*
X122136000Y-98815000I0J250000D01*
G01*
X122136000Y-95815000D01*
G75*
G02*
X122386000Y-95565000I250000J0D01*
G01*
G37*
G04 #@! TD*
G04 #@! TO.C,C18*
G36*
G01*
X124010000Y-106459000D02*
X124010000Y-107409000D01*
G75*
G02*
X123760000Y-107659000I-250000J0D01*
G01*
X123260000Y-107659000D01*
G75*
G02*
X123010000Y-107409000I0J250000D01*
G01*
X123010000Y-106459000D01*
G75*
G02*
X123260000Y-106209000I250000J0D01*
G01*
X123760000Y-106209000D01*
G75*
G02*
X124010000Y-106459000I0J-250000D01*
G01*
G37*
G36*
G01*
X125910000Y-106459000D02*
X125910000Y-107409000D01*
G75*
G02*
X125660000Y-107659000I-250000J0D01*
G01*
X125160000Y-107659000D01*
G75*
G02*
X124910000Y-107409000I0J250000D01*
G01*
X124910000Y-106459000D01*
G75*
G02*
X125160000Y-106209000I250000J0D01*
G01*
X125660000Y-106209000D01*
G75*
G02*
X125910000Y-106459000I0J-250000D01*
G01*
G37*
G04 #@! TD*
G04 #@! TO.C,C20*
G36*
G01*
X141944000Y-90065000D02*
X143044000Y-90065000D01*
G75*
G02*
X143294000Y-90315000I0J-250000D01*
G01*
X143294000Y-93315000D01*
G75*
G02*
X143044000Y-93565000I-250000J0D01*
G01*
X141944000Y-93565000D01*
G75*
G02*
X141694000Y-93315000I0J250000D01*
G01*
X141694000Y-90315000D01*
G75*
G02*
X141944000Y-90065000I250000J0D01*
G01*
G37*
G36*
G01*
X141944000Y-95665000D02*
X143044000Y-95665000D01*
G75*
G02*
X143294000Y-95915000I0J-250000D01*
G01*
X143294000Y-98915000D01*
G75*
G02*
X143044000Y-99165000I-250000J0D01*
G01*
X141944000Y-99165000D01*
G75*
G02*
X141694000Y-98915000I0J250000D01*
G01*
X141694000Y-95915000D01*
G75*
G02*
X141944000Y-95665000I250000J0D01*
G01*
G37*
G04 #@! TD*
G04 #@! TO.C,C21*
G36*
G01*
X91939000Y-75489000D02*
X90839000Y-75489000D01*
G75*
G02*
X90589000Y-75239000I0J250000D01*
G01*
X90589000Y-72239000D01*
G75*
G02*
X90839000Y-71989000I250000J0D01*
G01*
X91939000Y-71989000D01*
G75*
G02*
X92189000Y-72239000I0J-250000D01*
G01*
X92189000Y-75239000D01*
G75*
G02*
X91939000Y-75489000I-250000J0D01*
G01*
G37*
G36*
G01*
X91939000Y-80889000D02*
X90839000Y-80889000D01*
G75*
G02*
X90589000Y-80639000I0J250000D01*
G01*
X90589000Y-77639000D01*
G75*
G02*
X90839000Y-77389000I250000J0D01*
G01*
X91939000Y-77389000D01*
G75*
G02*
X92189000Y-77639000I0J-250000D01*
G01*
X92189000Y-80639000D01*
G75*
G02*
X91939000Y-80889000I-250000J0D01*
G01*
G37*
G04 #@! TD*
G04 #@! TO.C,C22*
G36*
G01*
X159724000Y-101976000D02*
X160824000Y-101976000D01*
G75*
G02*
X161074000Y-102226000I0J-250000D01*
G01*
X161074000Y-105226000D01*
G75*
G02*
X160824000Y-105476000I-250000J0D01*
G01*
X159724000Y-105476000D01*
G75*
G02*
X159474000Y-105226000I0J250000D01*
G01*
X159474000Y-102226000D01*
G75*
G02*
X159724000Y-101976000I250000J0D01*
G01*
G37*
G36*
G01*
X159724000Y-107376000D02*
X160824000Y-107376000D01*
G75*
G02*
X161074000Y-107626000I0J-250000D01*
G01*
X161074000Y-110626000D01*
G75*
G02*
X160824000Y-110876000I-250000J0D01*
G01*
X159724000Y-110876000D01*
G75*
G02*
X159474000Y-110626000I0J250000D01*
G01*
X159474000Y-107626000D01*
G75*
G02*
X159724000Y-107376000I250000J0D01*
G01*
G37*
G04 #@! TD*
D10*
G04 #@! TO.C,D1*
X116839000Y-107061000D03*
X113539000Y-107061000D03*
G04 #@! TD*
G04 #@! TO.C,R1*
G36*
G01*
X99777000Y-98023000D02*
X99777000Y-98573000D01*
G75*
G02*
X99577000Y-98773000I-200000J0D01*
G01*
X99177000Y-98773000D01*
G75*
G02*
X98977000Y-98573000I0J200000D01*
G01*
X98977000Y-98023000D01*
G75*
G02*
X99177000Y-97823000I200000J0D01*
G01*
X99577000Y-97823000D01*
G75*
G02*
X99777000Y-98023000I0J-200000D01*
G01*
G37*
G36*
G01*
X98127000Y-98023000D02*
X98127000Y-98573000D01*
G75*
G02*
X97927000Y-98773000I-200000J0D01*
G01*
X97527000Y-98773000D01*
G75*
G02*
X97327000Y-98573000I0J200000D01*
G01*
X97327000Y-98023000D01*
G75*
G02*
X97527000Y-97823000I200000J0D01*
G01*
X97927000Y-97823000D01*
G75*
G02*
X98127000Y-98023000I0J-200000D01*
G01*
G37*
G04 #@! TD*
G04 #@! TO.C,R2*
G36*
G01*
X97327000Y-94509000D02*
X97327000Y-93959000D01*
G75*
G02*
X97527000Y-93759000I200000J0D01*
G01*
X97927000Y-93759000D01*
G75*
G02*
X98127000Y-93959000I0J-200000D01*
G01*
X98127000Y-94509000D01*
G75*
G02*
X97927000Y-94709000I-200000J0D01*
G01*
X97527000Y-94709000D01*
G75*
G02*
X97327000Y-94509000I0J200000D01*
G01*
G37*
G36*
G01*
X98977000Y-94509000D02*
X98977000Y-93959000D01*
G75*
G02*
X99177000Y-93759000I200000J0D01*
G01*
X99577000Y-93759000D01*
G75*
G02*
X99777000Y-93959000I0J-200000D01*
G01*
X99777000Y-94509000D01*
G75*
G02*
X99577000Y-94709000I-200000J0D01*
G01*
X99177000Y-94709000D01*
G75*
G02*
X98977000Y-94509000I0J200000D01*
G01*
G37*
G04 #@! TD*
G04 #@! TO.C,R3*
G36*
G01*
X94951000Y-101706000D02*
X94951000Y-102256000D01*
G75*
G02*
X94751000Y-102456000I-200000J0D01*
G01*
X94351000Y-102456000D01*
G75*
G02*
X94151000Y-102256000I0J200000D01*
G01*
X94151000Y-101706000D01*
G75*
G02*
X94351000Y-101506000I200000J0D01*
G01*
X94751000Y-101506000D01*
G75*
G02*
X94951000Y-101706000I0J-200000D01*
G01*
G37*
G36*
G01*
X93301000Y-101706000D02*
X93301000Y-102256000D01*
G75*
G02*
X93101000Y-102456000I-200000J0D01*
G01*
X92701000Y-102456000D01*
G75*
G02*
X92501000Y-102256000I0J200000D01*
G01*
X92501000Y-101706000D01*
G75*
G02*
X92701000Y-101506000I200000J0D01*
G01*
X93101000Y-101506000D01*
G75*
G02*
X93301000Y-101706000I0J-200000D01*
G01*
G37*
G04 #@! TD*
G04 #@! TO.C,R4*
G36*
G01*
X111550000Y-102256000D02*
X111550000Y-101706000D01*
G75*
G02*
X111750000Y-101506000I200000J0D01*
G01*
X112150000Y-101506000D01*
G75*
G02*
X112350000Y-101706000I0J-200000D01*
G01*
X112350000Y-102256000D01*
G75*
G02*
X112150000Y-102456000I-200000J0D01*
G01*
X111750000Y-102456000D01*
G75*
G02*
X111550000Y-102256000I0J200000D01*
G01*
G37*
G36*
G01*
X109900000Y-102256000D02*
X109900000Y-101706000D01*
G75*
G02*
X110100000Y-101506000I200000J0D01*
G01*
X110500000Y-101506000D01*
G75*
G02*
X110700000Y-101706000I0J-200000D01*
G01*
X110700000Y-102256000D01*
G75*
G02*
X110500000Y-102456000I-200000J0D01*
G01*
X110100000Y-102456000D01*
G75*
G02*
X109900000Y-102256000I0J200000D01*
G01*
G37*
G04 #@! TD*
G04 #@! TO.C,R5*
G36*
G01*
X103931000Y-87397000D02*
X103931000Y-86847000D01*
G75*
G02*
X104131000Y-86647000I200000J0D01*
G01*
X104531000Y-86647000D01*
G75*
G02*
X104731000Y-86847000I0J-200000D01*
G01*
X104731000Y-87397000D01*
G75*
G02*
X104531000Y-87597000I-200000J0D01*
G01*
X104131000Y-87597000D01*
G75*
G02*
X103931000Y-87397000I0J200000D01*
G01*
G37*
G36*
G01*
X105581000Y-87397000D02*
X105581000Y-86847000D01*
G75*
G02*
X105781000Y-86647000I200000J0D01*
G01*
X106181000Y-86647000D01*
G75*
G02*
X106381000Y-86847000I0J-200000D01*
G01*
X106381000Y-87397000D01*
G75*
G02*
X106181000Y-87597000I-200000J0D01*
G01*
X105781000Y-87597000D01*
G75*
G02*
X105581000Y-87397000I0J200000D01*
G01*
G37*
G04 #@! TD*
G04 #@! TO.C,R6*
G36*
G01*
X150793000Y-84222000D02*
X150793000Y-83672000D01*
G75*
G02*
X150993000Y-83472000I200000J0D01*
G01*
X151393000Y-83472000D01*
G75*
G02*
X151593000Y-83672000I0J-200000D01*
G01*
X151593000Y-84222000D01*
G75*
G02*
X151393000Y-84422000I-200000J0D01*
G01*
X150993000Y-84422000D01*
G75*
G02*
X150793000Y-84222000I0J200000D01*
G01*
G37*
G36*
G01*
X149143000Y-84222000D02*
X149143000Y-83672000D01*
G75*
G02*
X149343000Y-83472000I200000J0D01*
G01*
X149743000Y-83472000D01*
G75*
G02*
X149943000Y-83672000I0J-200000D01*
G01*
X149943000Y-84222000D01*
G75*
G02*
X149743000Y-84422000I-200000J0D01*
G01*
X149343000Y-84422000D01*
G75*
G02*
X149143000Y-84222000I0J200000D01*
G01*
G37*
G04 #@! TD*
G04 #@! TO.C,R7*
G36*
G01*
X98977000Y-109368000D02*
X98977000Y-108818000D01*
G75*
G02*
X99177000Y-108618000I200000J0D01*
G01*
X99577000Y-108618000D01*
G75*
G02*
X99777000Y-108818000I0J-200000D01*
G01*
X99777000Y-109368000D01*
G75*
G02*
X99577000Y-109568000I-200000J0D01*
G01*
X99177000Y-109568000D01*
G75*
G02*
X98977000Y-109368000I0J200000D01*
G01*
G37*
G36*
G01*
X97327000Y-109368000D02*
X97327000Y-108818000D01*
G75*
G02*
X97527000Y-108618000I200000J0D01*
G01*
X97927000Y-108618000D01*
G75*
G02*
X98127000Y-108818000I0J-200000D01*
G01*
X98127000Y-109368000D01*
G75*
G02*
X97927000Y-109568000I-200000J0D01*
G01*
X97527000Y-109568000D01*
G75*
G02*
X97327000Y-109368000I0J200000D01*
G01*
G37*
G04 #@! TD*
G04 #@! TO.C,R8*
G36*
G01*
X92501000Y-105812000D02*
X92501000Y-105262000D01*
G75*
G02*
X92701000Y-105062000I200000J0D01*
G01*
X93101000Y-105062000D01*
G75*
G02*
X93301000Y-105262000I0J-200000D01*
G01*
X93301000Y-105812000D01*
G75*
G02*
X93101000Y-106012000I-200000J0D01*
G01*
X92701000Y-106012000D01*
G75*
G02*
X92501000Y-105812000I0J200000D01*
G01*
G37*
G36*
G01*
X94151000Y-105812000D02*
X94151000Y-105262000D01*
G75*
G02*
X94351000Y-105062000I200000J0D01*
G01*
X94751000Y-105062000D01*
G75*
G02*
X94951000Y-105262000I0J-200000D01*
G01*
X94951000Y-105812000D01*
G75*
G02*
X94751000Y-106012000I-200000J0D01*
G01*
X94351000Y-106012000D01*
G75*
G02*
X94151000Y-105812000I0J200000D01*
G01*
G37*
G04 #@! TD*
G04 #@! TO.C,R9*
G36*
G01*
X97327000Y-112670000D02*
X97327000Y-112120000D01*
G75*
G02*
X97527000Y-111920000I200000J0D01*
G01*
X97927000Y-111920000D01*
G75*
G02*
X98127000Y-112120000I0J-200000D01*
G01*
X98127000Y-112670000D01*
G75*
G02*
X97927000Y-112870000I-200000J0D01*
G01*
X97527000Y-112870000D01*
G75*
G02*
X97327000Y-112670000I0J200000D01*
G01*
G37*
G36*
G01*
X98977000Y-112670000D02*
X98977000Y-112120000D01*
G75*
G02*
X99177000Y-111920000I200000J0D01*
G01*
X99577000Y-111920000D01*
G75*
G02*
X99777000Y-112120000I0J-200000D01*
G01*
X99777000Y-112670000D01*
G75*
G02*
X99577000Y-112870000I-200000J0D01*
G01*
X99177000Y-112870000D01*
G75*
G02*
X98977000Y-112670000I0J200000D01*
G01*
G37*
G04 #@! TD*
G04 #@! TO.C,R10*
G36*
G01*
X156889000Y-89302000D02*
X156889000Y-88752000D01*
G75*
G02*
X157089000Y-88552000I200000J0D01*
G01*
X157489000Y-88552000D01*
G75*
G02*
X157689000Y-88752000I0J-200000D01*
G01*
X157689000Y-89302000D01*
G75*
G02*
X157489000Y-89502000I-200000J0D01*
G01*
X157089000Y-89502000D01*
G75*
G02*
X156889000Y-89302000I0J200000D01*
G01*
G37*
G36*
G01*
X155239000Y-89302000D02*
X155239000Y-88752000D01*
G75*
G02*
X155439000Y-88552000I200000J0D01*
G01*
X155839000Y-88552000D01*
G75*
G02*
X156039000Y-88752000I0J-200000D01*
G01*
X156039000Y-89302000D01*
G75*
G02*
X155839000Y-89502000I-200000J0D01*
G01*
X155439000Y-89502000D01*
G75*
G02*
X155239000Y-89302000I0J200000D01*
G01*
G37*
G04 #@! TD*
G04 #@! TO.C,R11*
G36*
G01*
X146222000Y-103780000D02*
X146222000Y-103230000D01*
G75*
G02*
X146422000Y-103030000I200000J0D01*
G01*
X146822000Y-103030000D01*
G75*
G02*
X147022000Y-103230000I0J-200000D01*
G01*
X147022000Y-103780000D01*
G75*
G02*
X146822000Y-103980000I-200000J0D01*
G01*
X146422000Y-103980000D01*
G75*
G02*
X146222000Y-103780000I0J200000D01*
G01*
G37*
G36*
G01*
X147872000Y-103780000D02*
X147872000Y-103230000D01*
G75*
G02*
X148072000Y-103030000I200000J0D01*
G01*
X148472000Y-103030000D01*
G75*
G02*
X148672000Y-103230000I0J-200000D01*
G01*
X148672000Y-103780000D01*
G75*
G02*
X148472000Y-103980000I-200000J0D01*
G01*
X148072000Y-103980000D01*
G75*
G02*
X147872000Y-103780000I0J200000D01*
G01*
G37*
G04 #@! TD*
G04 #@! TO.C,R12*
G36*
G01*
X147872000Y-106066000D02*
X147872000Y-105516000D01*
G75*
G02*
X148072000Y-105316000I200000J0D01*
G01*
X148472000Y-105316000D01*
G75*
G02*
X148672000Y-105516000I0J-200000D01*
G01*
X148672000Y-106066000D01*
G75*
G02*
X148472000Y-106266000I-200000J0D01*
G01*
X148072000Y-106266000D01*
G75*
G02*
X147872000Y-106066000I0J200000D01*
G01*
G37*
G36*
G01*
X146222000Y-106066000D02*
X146222000Y-105516000D01*
G75*
G02*
X146422000Y-105316000I200000J0D01*
G01*
X146822000Y-105316000D01*
G75*
G02*
X147022000Y-105516000I0J-200000D01*
G01*
X147022000Y-106066000D01*
G75*
G02*
X146822000Y-106266000I-200000J0D01*
G01*
X146422000Y-106266000D01*
G75*
G02*
X146222000Y-106066000I0J200000D01*
G01*
G37*
G04 #@! TD*
G04 #@! TO.C,R13*
G36*
G01*
X118789000Y-85365000D02*
X118789000Y-84815000D01*
G75*
G02*
X118989000Y-84615000I200000J0D01*
G01*
X119389000Y-84615000D01*
G75*
G02*
X119589000Y-84815000I0J-200000D01*
G01*
X119589000Y-85365000D01*
G75*
G02*
X119389000Y-85565000I-200000J0D01*
G01*
X118989000Y-85565000D01*
G75*
G02*
X118789000Y-85365000I0J200000D01*
G01*
G37*
G36*
G01*
X117139000Y-85365000D02*
X117139000Y-84815000D01*
G75*
G02*
X117339000Y-84615000I200000J0D01*
G01*
X117739000Y-84615000D01*
G75*
G02*
X117939000Y-84815000I0J-200000D01*
G01*
X117939000Y-85365000D01*
G75*
G02*
X117739000Y-85565000I-200000J0D01*
G01*
X117339000Y-85565000D01*
G75*
G02*
X117139000Y-85365000I0J200000D01*
G01*
G37*
G04 #@! TD*
G04 #@! TO.C,R14*
G36*
G01*
X172699000Y-85389000D02*
X173249000Y-85389000D01*
G75*
G02*
X173449000Y-85589000I0J-200000D01*
G01*
X173449000Y-85989000D01*
G75*
G02*
X173249000Y-86189000I-200000J0D01*
G01*
X172699000Y-86189000D01*
G75*
G02*
X172499000Y-85989000I0J200000D01*
G01*
X172499000Y-85589000D01*
G75*
G02*
X172699000Y-85389000I200000J0D01*
G01*
G37*
G36*
G01*
X172699000Y-87039000D02*
X173249000Y-87039000D01*
G75*
G02*
X173449000Y-87239000I0J-200000D01*
G01*
X173449000Y-87639000D01*
G75*
G02*
X173249000Y-87839000I-200000J0D01*
G01*
X172699000Y-87839000D01*
G75*
G02*
X172499000Y-87639000I0J200000D01*
G01*
X172499000Y-87239000D01*
G75*
G02*
X172699000Y-87039000I200000J0D01*
G01*
G37*
G04 #@! TD*
G04 #@! TO.C,R15*
G36*
G01*
X102063000Y-86847000D02*
X102063000Y-87397000D01*
G75*
G02*
X101863000Y-87597000I-200000J0D01*
G01*
X101463000Y-87597000D01*
G75*
G02*
X101263000Y-87397000I0J200000D01*
G01*
X101263000Y-86847000D01*
G75*
G02*
X101463000Y-86647000I200000J0D01*
G01*
X101863000Y-86647000D01*
G75*
G02*
X102063000Y-86847000I0J-200000D01*
G01*
G37*
G36*
G01*
X100413000Y-86847000D02*
X100413000Y-87397000D01*
G75*
G02*
X100213000Y-87597000I-200000J0D01*
G01*
X99813000Y-87597000D01*
G75*
G02*
X99613000Y-87397000I0J200000D01*
G01*
X99613000Y-86847000D01*
G75*
G02*
X99813000Y-86647000I200000J0D01*
G01*
X100213000Y-86647000D01*
G75*
G02*
X100413000Y-86847000I0J-200000D01*
G01*
G37*
G04 #@! TD*
G04 #@! TO.C,R16*
G36*
G01*
X147022000Y-108056000D02*
X147022000Y-108606000D01*
G75*
G02*
X146822000Y-108806000I-200000J0D01*
G01*
X146422000Y-108806000D01*
G75*
G02*
X146222000Y-108606000I0J200000D01*
G01*
X146222000Y-108056000D01*
G75*
G02*
X146422000Y-107856000I200000J0D01*
G01*
X146822000Y-107856000D01*
G75*
G02*
X147022000Y-108056000I0J-200000D01*
G01*
G37*
G36*
G01*
X148672000Y-108056000D02*
X148672000Y-108606000D01*
G75*
G02*
X148472000Y-108806000I-200000J0D01*
G01*
X148072000Y-108806000D01*
G75*
G02*
X147872000Y-108606000I0J200000D01*
G01*
X147872000Y-108056000D01*
G75*
G02*
X148072000Y-107856000I200000J0D01*
G01*
X148472000Y-107856000D01*
G75*
G02*
X148672000Y-108056000I0J-200000D01*
G01*
G37*
G04 #@! TD*
G04 #@! TO.C,R17*
G36*
G01*
X124035000Y-102595000D02*
X124035000Y-103145000D01*
G75*
G02*
X123835000Y-103345000I-200000J0D01*
G01*
X123435000Y-103345000D01*
G75*
G02*
X123235000Y-103145000I0J200000D01*
G01*
X123235000Y-102595000D01*
G75*
G02*
X123435000Y-102395000I200000J0D01*
G01*
X123835000Y-102395000D01*
G75*
G02*
X124035000Y-102595000I0J-200000D01*
G01*
G37*
G36*
G01*
X125685000Y-102595000D02*
X125685000Y-103145000D01*
G75*
G02*
X125485000Y-103345000I-200000J0D01*
G01*
X125085000Y-103345000D01*
G75*
G02*
X124885000Y-103145000I0J200000D01*
G01*
X124885000Y-102595000D01*
G75*
G02*
X125085000Y-102395000I200000J0D01*
G01*
X125485000Y-102395000D01*
G75*
G02*
X125685000Y-102595000I0J-200000D01*
G01*
G37*
G04 #@! TD*
G04 #@! TO.C,R18*
G36*
G01*
X115614000Y-102256000D02*
X115614000Y-101706000D01*
G75*
G02*
X115814000Y-101506000I200000J0D01*
G01*
X116214000Y-101506000D01*
G75*
G02*
X116414000Y-101706000I0J-200000D01*
G01*
X116414000Y-102256000D01*
G75*
G02*
X116214000Y-102456000I-200000J0D01*
G01*
X115814000Y-102456000D01*
G75*
G02*
X115614000Y-102256000I0J200000D01*
G01*
G37*
G36*
G01*
X113964000Y-102256000D02*
X113964000Y-101706000D01*
G75*
G02*
X114164000Y-101506000I200000J0D01*
G01*
X114564000Y-101506000D01*
G75*
G02*
X114764000Y-101706000I0J-200000D01*
G01*
X114764000Y-102256000D01*
G75*
G02*
X114564000Y-102456000I-200000J0D01*
G01*
X114164000Y-102456000D01*
G75*
G02*
X113964000Y-102256000I0J200000D01*
G01*
G37*
G04 #@! TD*
G04 #@! TO.C,R19*
G36*
G01*
X110215000Y-95168000D02*
X110765000Y-95168000D01*
G75*
G02*
X110965000Y-95368000I0J-200000D01*
G01*
X110965000Y-95768000D01*
G75*
G02*
X110765000Y-95968000I-200000J0D01*
G01*
X110215000Y-95968000D01*
G75*
G02*
X110015000Y-95768000I0J200000D01*
G01*
X110015000Y-95368000D01*
G75*
G02*
X110215000Y-95168000I200000J0D01*
G01*
G37*
G36*
G01*
X110215000Y-96818000D02*
X110765000Y-96818000D01*
G75*
G02*
X110965000Y-97018000I0J-200000D01*
G01*
X110965000Y-97418000D01*
G75*
G02*
X110765000Y-97618000I-200000J0D01*
G01*
X110215000Y-97618000D01*
G75*
G02*
X110015000Y-97418000I0J200000D01*
G01*
X110015000Y-97018000D01*
G75*
G02*
X110215000Y-96818000I200000J0D01*
G01*
G37*
G04 #@! TD*
G04 #@! TO.C,R20*
G36*
G01*
X98127000Y-101706000D02*
X98127000Y-102256000D01*
G75*
G02*
X97927000Y-102456000I-200000J0D01*
G01*
X97527000Y-102456000D01*
G75*
G02*
X97327000Y-102256000I0J200000D01*
G01*
X97327000Y-101706000D01*
G75*
G02*
X97527000Y-101506000I200000J0D01*
G01*
X97927000Y-101506000D01*
G75*
G02*
X98127000Y-101706000I0J-200000D01*
G01*
G37*
G36*
G01*
X99777000Y-101706000D02*
X99777000Y-102256000D01*
G75*
G02*
X99577000Y-102456000I-200000J0D01*
G01*
X99177000Y-102456000D01*
G75*
G02*
X98977000Y-102256000I0J200000D01*
G01*
X98977000Y-101706000D01*
G75*
G02*
X99177000Y-101506000I200000J0D01*
G01*
X99577000Y-101506000D01*
G75*
G02*
X99777000Y-101706000I0J-200000D01*
G01*
G37*
G04 #@! TD*
G04 #@! TO.C,U1*
G36*
G01*
X101689000Y-94515000D02*
X101689000Y-94215000D01*
G75*
G02*
X101839000Y-94065000I150000J0D01*
G01*
X103489000Y-94065000D01*
G75*
G02*
X103639000Y-94215000I0J-150000D01*
G01*
X103639000Y-94515000D01*
G75*
G02*
X103489000Y-94665000I-150000J0D01*
G01*
X101839000Y-94665000D01*
G75*
G02*
X101689000Y-94515000I0J150000D01*
G01*
G37*
G36*
G01*
X101689000Y-95785000D02*
X101689000Y-95485000D01*
G75*
G02*
X101839000Y-95335000I150000J0D01*
G01*
X103489000Y-95335000D01*
G75*
G02*
X103639000Y-95485000I0J-150000D01*
G01*
X103639000Y-95785000D01*
G75*
G02*
X103489000Y-95935000I-150000J0D01*
G01*
X101839000Y-95935000D01*
G75*
G02*
X101689000Y-95785000I0J150000D01*
G01*
G37*
G36*
G01*
X101689000Y-97055000D02*
X101689000Y-96755000D01*
G75*
G02*
X101839000Y-96605000I150000J0D01*
G01*
X103489000Y-96605000D01*
G75*
G02*
X103639000Y-96755000I0J-150000D01*
G01*
X103639000Y-97055000D01*
G75*
G02*
X103489000Y-97205000I-150000J0D01*
G01*
X101839000Y-97205000D01*
G75*
G02*
X101689000Y-97055000I0J150000D01*
G01*
G37*
G36*
G01*
X101689000Y-98325000D02*
X101689000Y-98025000D01*
G75*
G02*
X101839000Y-97875000I150000J0D01*
G01*
X103489000Y-97875000D01*
G75*
G02*
X103639000Y-98025000I0J-150000D01*
G01*
X103639000Y-98325000D01*
G75*
G02*
X103489000Y-98475000I-150000J0D01*
G01*
X101839000Y-98475000D01*
G75*
G02*
X101689000Y-98325000I0J150000D01*
G01*
G37*
G36*
G01*
X106639000Y-98325000D02*
X106639000Y-98025000D01*
G75*
G02*
X106789000Y-97875000I150000J0D01*
G01*
X108439000Y-97875000D01*
G75*
G02*
X108589000Y-98025000I0J-150000D01*
G01*
X108589000Y-98325000D01*
G75*
G02*
X108439000Y-98475000I-150000J0D01*
G01*
X106789000Y-98475000D01*
G75*
G02*
X106639000Y-98325000I0J150000D01*
G01*
G37*
G36*
G01*
X106639000Y-97055000D02*
X106639000Y-96755000D01*
G75*
G02*
X106789000Y-96605000I150000J0D01*
G01*
X108439000Y-96605000D01*
G75*
G02*
X108589000Y-96755000I0J-150000D01*
G01*
X108589000Y-97055000D01*
G75*
G02*
X108439000Y-97205000I-150000J0D01*
G01*
X106789000Y-97205000D01*
G75*
G02*
X106639000Y-97055000I0J150000D01*
G01*
G37*
G36*
G01*
X106639000Y-95785000D02*
X106639000Y-95485000D01*
G75*
G02*
X106789000Y-95335000I150000J0D01*
G01*
X108439000Y-95335000D01*
G75*
G02*
X108589000Y-95485000I0J-150000D01*
G01*
X108589000Y-95785000D01*
G75*
G02*
X108439000Y-95935000I-150000J0D01*
G01*
X106789000Y-95935000D01*
G75*
G02*
X106639000Y-95785000I0J150000D01*
G01*
G37*
G36*
G01*
X106639000Y-94515000D02*
X106639000Y-94215000D01*
G75*
G02*
X106789000Y-94065000I150000J0D01*
G01*
X108439000Y-94065000D01*
G75*
G02*
X108589000Y-94215000I0J-150000D01*
G01*
X108589000Y-94515000D01*
G75*
G02*
X108439000Y-94665000I-150000J0D01*
G01*
X106789000Y-94665000D01*
G75*
G02*
X106639000Y-94515000I0J150000D01*
G01*
G37*
G04 #@! TD*
M02*
