G04 #@! TF.GenerationSoftware,KiCad,Pcbnew,(5.1.7)-1*
G04 #@! TF.CreationDate,2022-04-10T16:59:05-05:00*
G04 #@! TF.ProjectId,ConsolePedal8BitarSMT,436f6e73-6f6c-4655-9065-64616c384269,rev?*
G04 #@! TF.SameCoordinates,Original*
G04 #@! TF.FileFunction,Soldermask,Bot*
G04 #@! TF.FilePolarity,Negative*
%FSLAX46Y46*%
G04 Gerber Fmt 4.6, Leading zero omitted, Abs format (unit mm)*
G04 Created by KiCad (PCBNEW (5.1.7)-1) date 2022-04-10 16:59:05*
%MOMM*%
%LPD*%
G01*
G04 APERTURE LIST*
%ADD10R,1.800000X1.800000*%
%ADD11C,1.800000*%
%ADD12C,5.000000*%
%ADD13C,1.600000*%
%ADD14O,1.600000X1.600000*%
%ADD15R,1.130000X1.130000*%
%ADD16C,1.130000*%
%ADD17C,4.000000*%
%ADD18R,1.500000X7.000000*%
%ADD19C,0.254000*%
%ADD20C,0.100000*%
G04 APERTURE END LIST*
D10*
G04 #@! TO.C,D1*
X115250000Y-95000000D03*
D11*
X115250000Y-97540000D03*
G04 #@! TD*
G04 #@! TO.C,D2*
X150250000Y-97540000D03*
D10*
X150250000Y-95000000D03*
G04 #@! TD*
D12*
G04 #@! TO.C,H1*
X85350000Y-122600000D03*
G04 #@! TD*
G04 #@! TO.C,H2*
X180150000Y-122600000D03*
G04 #@! TD*
D13*
G04 #@! TO.C,R3*
X95215000Y-101350000D03*
D14*
X95215000Y-91190000D03*
G04 #@! TD*
D15*
G04 #@! TO.C,IC1*
X104380000Y-84470000D03*
D16*
X106920000Y-84470000D03*
X109460000Y-84470000D03*
X112000000Y-84470000D03*
X114540000Y-84470000D03*
X117080000Y-84470000D03*
X119620000Y-84470000D03*
X119620000Y-76530000D03*
X117080000Y-76530000D03*
X114540000Y-76530000D03*
X112000000Y-76530000D03*
X109460000Y-76530000D03*
X106920000Y-76530000D03*
X104380000Y-76530000D03*
G04 #@! TD*
D11*
G04 #@! TO.C,RV1*
X130215000Y-87500000D03*
X132715000Y-87500000D03*
X135215000Y-87500000D03*
D17*
X128315000Y-80500000D03*
X137115000Y-80500000D03*
G04 #@! TD*
D18*
G04 #@! TO.C,J1*
X163195000Y-126000000D03*
X160655000Y-126000000D03*
X158115000Y-126000000D03*
X155575000Y-126000000D03*
X153035000Y-126000000D03*
X150495000Y-126000000D03*
X147955000Y-126000000D03*
X145415000Y-126000000D03*
X142875000Y-126000000D03*
X140335000Y-126000000D03*
X137795000Y-126000000D03*
X135255000Y-126000000D03*
X132715000Y-126000000D03*
X130175000Y-126000000D03*
X127635000Y-126000000D03*
X125095000Y-126000000D03*
X122555000Y-126000000D03*
X120015000Y-126000000D03*
X117475000Y-126000000D03*
X114935000Y-126000000D03*
X112395000Y-126000000D03*
X109855000Y-126000000D03*
X107315000Y-126000000D03*
X104775000Y-126000000D03*
X102235000Y-126000000D03*
G04 #@! TD*
D13*
G04 #@! TO.C,R11*
X170215000Y-101350000D03*
D14*
X170215000Y-91190000D03*
G04 #@! TD*
D19*
X165480000Y-129000000D02*
X164480000Y-130000000D01*
X101020000Y-130000000D01*
X100020000Y-129000000D01*
X100020000Y-123063000D01*
X165480000Y-123063000D01*
X165480000Y-129000000D01*
D20*
G36*
X165480000Y-129000000D02*
G01*
X164480000Y-130000000D01*
X101020000Y-130000000D01*
X100020000Y-129000000D01*
X100020000Y-123063000D01*
X165480000Y-123063000D01*
X165480000Y-129000000D01*
G37*
D19*
X89000000Y-126000000D02*
X82500000Y-126000000D01*
X82500000Y-119761000D01*
X89000000Y-119761000D01*
X89000000Y-126000000D01*
D20*
G36*
X89000000Y-126000000D02*
G01*
X82500000Y-126000000D01*
X82500000Y-119761000D01*
X89000000Y-119761000D01*
X89000000Y-126000000D01*
G37*
D19*
X182499000Y-126000000D02*
X176500000Y-126000000D01*
X176500000Y-119761000D01*
X182499000Y-119761000D01*
X182499000Y-126000000D01*
D20*
G36*
X182499000Y-126000000D02*
G01*
X176500000Y-126000000D01*
X176500000Y-119761000D01*
X182499000Y-119761000D01*
X182499000Y-126000000D01*
G37*
M02*
