M48
; DRILL file {KiCad (5.1.7)-1} date 04/10/22 16:59:06
; FORMAT={-:-/ absolute / inch / decimal}
; #@! TF.CreationDate,2022-04-10T16:59:06-05:00
; #@! TF.GenerationSoftware,Kicad,Pcbnew,(5.1.7)-1
; #@! TF.FileFunction,Plated,1,2,PTH
FMAT,2
INCH
T1C0.0157
T2C0.0287
T3C0.0315
T4C0.0354
T5C0.0394
T6C0.0984
%
G90
G05
T1
X3.75Y-3.39
X4.04Y-4.76
X4.11Y-3.23
X4.14Y-4.76
X4.17Y-4.1
X4.24Y-4.76
X4.29Y-3.11
X4.32Y-4.47
X4.34Y-4.76
X4.35Y-4.4
X4.44Y-4.76
X4.46Y-4.18
X4.46Y-4.39
X4.54Y-4.76
X4.7492Y-4.1008
X4.75Y-3.83
X4.81Y-4.24
X4.87Y-3.69
X5.05Y-4.12
X5.1276Y-4.0124
X5.21Y-4.39
X5.25Y-4.27
X5.3Y-3.87
X5.34Y-3.67
X5.41Y-4.12
X5.41Y-4.23
X5.41Y-4.38
X5.46Y-4.06
X5.55Y-3.83
X5.7Y-4.16
X5.7792Y-4.1008
X5.83Y-4.54
X5.92Y-4.76
X5.99Y-4.53
X6.02Y-4.76
X6.12Y-4.41
X6.12Y-4.76
X6.13Y-3.96
X6.22Y-4.76
X6.32Y-4.76
X6.42Y-4.76
T2
X4.1094Y-3.013
X4.1094Y-3.3256
X4.2094Y-3.013
X4.2094Y-3.3256
X4.3094Y-3.013
X4.3094Y-3.3256
X4.4094Y-3.013
X4.4094Y-3.3256
X4.5094Y-3.013
X4.5094Y-3.3256
X4.6094Y-3.013
X4.6094Y-3.3256
X4.7094Y-3.013
X4.7094Y-3.3256
T3
X3.7486Y-3.5902
X3.7486Y-3.9902
X6.7014Y-3.5902
X6.7014Y-3.9902
T4
X5.9154Y-3.7402
X5.9154Y-3.8402
X4.5374Y-3.7402
X4.5374Y-3.8402
T5
X5.1266Y-3.4449
X5.225Y-3.4449
X5.3234Y-3.4449
T6
X7.0925Y-4.8268
X3.3602Y-4.8268
T0
M30
