G04 #@! TF.GenerationSoftware,KiCad,Pcbnew,(5.1.7)-1*
G04 #@! TF.CreationDate,2021-10-10T20:00:40-05:00*
G04 #@! TF.ProjectId,DrOctaveFuzz,44724f63-7461-4766-9546-757a7a2e6b69,rev?*
G04 #@! TF.SameCoordinates,Original*
G04 #@! TF.FileFunction,Legend,Bot*
G04 #@! TF.FilePolarity,Positive*
%FSLAX46Y46*%
G04 Gerber Fmt 4.6, Leading zero omitted, Abs format (unit mm)*
G04 Created by KiCad (PCBNEW (5.1.7)-1) date 2021-10-10 20:00:40*
%MOMM*%
%LPD*%
G01*
G04 APERTURE LIST*
%ADD10C,0.250000*%
%ADD11C,0.120000*%
%ADD12C,0.150000*%
G04 APERTURE END LIST*
D10*
X144392857Y-121963571D02*
X144392857Y-120463571D01*
X144035714Y-120463571D01*
X143821428Y-120535000D01*
X143678571Y-120677857D01*
X143607142Y-120820714D01*
X143535714Y-121106428D01*
X143535714Y-121320714D01*
X143607142Y-121606428D01*
X143678571Y-121749285D01*
X143821428Y-121892142D01*
X144035714Y-121963571D01*
X144392857Y-121963571D01*
X142892857Y-121963571D02*
X142892857Y-120963571D01*
X142892857Y-121249285D02*
X142821428Y-121106428D01*
X142750000Y-121035000D01*
X142607142Y-120963571D01*
X142464285Y-120963571D01*
X141964285Y-121820714D02*
X141892857Y-121892142D01*
X141964285Y-121963571D01*
X142035714Y-121892142D01*
X141964285Y-121820714D01*
X141964285Y-121963571D01*
X139821428Y-120463571D02*
X139535714Y-120463571D01*
X139392857Y-120535000D01*
X139250000Y-120677857D01*
X139178571Y-120963571D01*
X139178571Y-121463571D01*
X139250000Y-121749285D01*
X139392857Y-121892142D01*
X139535714Y-121963571D01*
X139821428Y-121963571D01*
X139964285Y-121892142D01*
X140107142Y-121749285D01*
X140178571Y-121463571D01*
X140178571Y-120963571D01*
X140107142Y-120677857D01*
X139964285Y-120535000D01*
X139821428Y-120463571D01*
X137892857Y-121892142D02*
X138035714Y-121963571D01*
X138321428Y-121963571D01*
X138464285Y-121892142D01*
X138535714Y-121820714D01*
X138607142Y-121677857D01*
X138607142Y-121249285D01*
X138535714Y-121106428D01*
X138464285Y-121035000D01*
X138321428Y-120963571D01*
X138035714Y-120963571D01*
X137892857Y-121035000D01*
X137464285Y-120963571D02*
X136892857Y-120963571D01*
X137250000Y-120463571D02*
X137250000Y-121749285D01*
X137178571Y-121892142D01*
X137035714Y-121963571D01*
X136892857Y-121963571D01*
X135750000Y-121963571D02*
X135750000Y-121177857D01*
X135821428Y-121035000D01*
X135964285Y-120963571D01*
X136250000Y-120963571D01*
X136392857Y-121035000D01*
X135750000Y-121892142D02*
X135892857Y-121963571D01*
X136250000Y-121963571D01*
X136392857Y-121892142D01*
X136464285Y-121749285D01*
X136464285Y-121606428D01*
X136392857Y-121463571D01*
X136250000Y-121392142D01*
X135892857Y-121392142D01*
X135750000Y-121320714D01*
X135178571Y-120963571D02*
X134821428Y-121963571D01*
X134464285Y-120963571D01*
X133321428Y-121892142D02*
X133464285Y-121963571D01*
X133750000Y-121963571D01*
X133892857Y-121892142D01*
X133964285Y-121749285D01*
X133964285Y-121177857D01*
X133892857Y-121035000D01*
X133750000Y-120963571D01*
X133464285Y-120963571D01*
X133321428Y-121035000D01*
X133250000Y-121177857D01*
X133250000Y-121320714D01*
X133964285Y-121463571D01*
X130964285Y-121177857D02*
X131464285Y-121177857D01*
X131464285Y-121963571D02*
X131464285Y-120463571D01*
X130750000Y-120463571D01*
X129535714Y-120963571D02*
X129535714Y-121963571D01*
X130178571Y-120963571D02*
X130178571Y-121749285D01*
X130107142Y-121892142D01*
X129964285Y-121963571D01*
X129750000Y-121963571D01*
X129607142Y-121892142D01*
X129535714Y-121820714D01*
X128964285Y-120963571D02*
X128178571Y-120963571D01*
X128964285Y-121963571D01*
X128178571Y-121963571D01*
X127750000Y-120963571D02*
X126964285Y-120963571D01*
X127750000Y-121963571D01*
X126964285Y-121963571D01*
X125464285Y-120463571D02*
X124964285Y-121963571D01*
X124464285Y-120463571D01*
X123178571Y-121963571D02*
X124035714Y-121963571D01*
X123607142Y-121963571D02*
X123607142Y-120463571D01*
X123750000Y-120677857D01*
X123892857Y-120820714D01*
X124035714Y-120892142D01*
X122535714Y-121820714D02*
X122464285Y-121892142D01*
X122535714Y-121963571D01*
X122607142Y-121892142D01*
X122535714Y-121820714D01*
X122535714Y-121963571D01*
X121535714Y-120463571D02*
X121392857Y-120463571D01*
X121250000Y-120535000D01*
X121178571Y-120606428D01*
X121107142Y-120749285D01*
X121035714Y-121035000D01*
X121035714Y-121392142D01*
X121107142Y-121677857D01*
X121178571Y-121820714D01*
X121250000Y-121892142D01*
X121392857Y-121963571D01*
X121535714Y-121963571D01*
X121678571Y-121892142D01*
X121750000Y-121820714D01*
X121821428Y-121677857D01*
X121892857Y-121392142D01*
X121892857Y-121035000D01*
X121821428Y-120749285D01*
X121750000Y-120606428D01*
X121678571Y-120535000D01*
X121535714Y-120463571D01*
X146429285Y-113103761D02*
X145286428Y-113103761D01*
X145857857Y-115103761D02*
X145857857Y-113103761D01*
X144619761Y-115103761D02*
X144619761Y-113103761D01*
X143762619Y-115103761D02*
X143762619Y-114056142D01*
X143857857Y-113865666D01*
X144048333Y-113770428D01*
X144334047Y-113770428D01*
X144524523Y-113865666D01*
X144619761Y-113960904D01*
X142524523Y-115103761D02*
X142715000Y-115008523D01*
X142810238Y-114913285D01*
X142905476Y-114722809D01*
X142905476Y-114151380D01*
X142810238Y-113960904D01*
X142715000Y-113865666D01*
X142524523Y-113770428D01*
X142238809Y-113770428D01*
X142048333Y-113865666D01*
X141953095Y-113960904D01*
X141857857Y-114151380D01*
X141857857Y-114722809D01*
X141953095Y-114913285D01*
X142048333Y-115008523D01*
X142238809Y-115103761D01*
X142524523Y-115103761D01*
X141000714Y-115103761D02*
X141000714Y-113770428D01*
X141000714Y-113960904D02*
X140905476Y-113865666D01*
X140715000Y-113770428D01*
X140429285Y-113770428D01*
X140238809Y-113865666D01*
X140143571Y-114056142D01*
X140143571Y-115103761D01*
X140143571Y-114056142D02*
X140048333Y-113865666D01*
X139857857Y-113770428D01*
X139572142Y-113770428D01*
X139381666Y-113865666D01*
X139286428Y-114056142D01*
X139286428Y-115103761D01*
X137476904Y-115103761D02*
X137476904Y-114056142D01*
X137572142Y-113865666D01*
X137762619Y-113770428D01*
X138143571Y-113770428D01*
X138334047Y-113865666D01*
X137476904Y-115008523D02*
X137667380Y-115103761D01*
X138143571Y-115103761D01*
X138334047Y-115008523D01*
X138429285Y-114818047D01*
X138429285Y-114627571D01*
X138334047Y-114437095D01*
X138143571Y-114341857D01*
X137667380Y-114341857D01*
X137476904Y-114246619D01*
X136619761Y-115008523D02*
X136429285Y-115103761D01*
X136048333Y-115103761D01*
X135857857Y-115008523D01*
X135762619Y-114818047D01*
X135762619Y-114722809D01*
X135857857Y-114532333D01*
X136048333Y-114437095D01*
X136334047Y-114437095D01*
X136524523Y-114341857D01*
X136619761Y-114151380D01*
X136619761Y-114056142D01*
X136524523Y-113865666D01*
X136334047Y-113770428D01*
X136048333Y-113770428D01*
X135857857Y-113865666D01*
X133381666Y-115103761D02*
X133381666Y-113103761D01*
X132715000Y-114532333D01*
X132048333Y-113103761D01*
X132048333Y-115103761D01*
X130238809Y-115008523D02*
X130429285Y-115103761D01*
X130810238Y-115103761D01*
X131000714Y-115008523D01*
X131095952Y-114913285D01*
X131191190Y-114722809D01*
X131191190Y-114151380D01*
X131095952Y-113960904D01*
X131000714Y-113865666D01*
X130810238Y-113770428D01*
X130429285Y-113770428D01*
X130238809Y-113865666D01*
X129381666Y-115103761D02*
X129381666Y-113103761D01*
X128905476Y-113103761D01*
X128619761Y-113199000D01*
X128429285Y-113389476D01*
X128334047Y-113579952D01*
X128238809Y-113960904D01*
X128238809Y-114246619D01*
X128334047Y-114627571D01*
X128429285Y-114818047D01*
X128619761Y-115008523D01*
X128905476Y-115103761D01*
X129381666Y-115103761D01*
X127095952Y-115103761D02*
X127286428Y-115008523D01*
X127381666Y-114913285D01*
X127476904Y-114722809D01*
X127476904Y-114151380D01*
X127381666Y-113960904D01*
X127286428Y-113865666D01*
X127095952Y-113770428D01*
X126810238Y-113770428D01*
X126619761Y-113865666D01*
X126524523Y-113960904D01*
X126429285Y-114151380D01*
X126429285Y-114722809D01*
X126524523Y-114913285D01*
X126619761Y-115008523D01*
X126810238Y-115103761D01*
X127095952Y-115103761D01*
X125572142Y-113770428D02*
X125572142Y-115103761D01*
X125572142Y-113960904D02*
X125476904Y-113865666D01*
X125286428Y-113770428D01*
X125000714Y-113770428D01*
X124810238Y-113865666D01*
X124715000Y-114056142D01*
X124715000Y-115103761D01*
X122905476Y-115103761D02*
X122905476Y-114056142D01*
X123000714Y-113865666D01*
X123191190Y-113770428D01*
X123572142Y-113770428D01*
X123762619Y-113865666D01*
X122905476Y-115008523D02*
X123095952Y-115103761D01*
X123572142Y-115103761D01*
X123762619Y-115008523D01*
X123857857Y-114818047D01*
X123857857Y-114627571D01*
X123762619Y-114437095D01*
X123572142Y-114341857D01*
X123095952Y-114341857D01*
X122905476Y-114246619D01*
X121095952Y-113770428D02*
X121095952Y-115389476D01*
X121191190Y-115579952D01*
X121286428Y-115675190D01*
X121476904Y-115770428D01*
X121762619Y-115770428D01*
X121953095Y-115675190D01*
X121095952Y-115008523D02*
X121286428Y-115103761D01*
X121667380Y-115103761D01*
X121857857Y-115008523D01*
X121953095Y-114913285D01*
X122048333Y-114722809D01*
X122048333Y-114151380D01*
X121953095Y-113960904D01*
X121857857Y-113865666D01*
X121667380Y-113770428D01*
X121286428Y-113770428D01*
X121095952Y-113865666D01*
X120143571Y-115103761D02*
X120143571Y-113103761D01*
X119286428Y-115103761D02*
X119286428Y-114056142D01*
X119381666Y-113865666D01*
X119572142Y-113770428D01*
X119857857Y-113770428D01*
X120048333Y-113865666D01*
X120143571Y-113960904D01*
X145619761Y-118258523D02*
X145810238Y-118353761D01*
X146191190Y-118353761D01*
X146381666Y-118258523D01*
X146476904Y-118163285D01*
X146572142Y-117972809D01*
X146572142Y-117401380D01*
X146476904Y-117210904D01*
X146381666Y-117115666D01*
X146191190Y-117020428D01*
X145810238Y-117020428D01*
X145619761Y-117115666D01*
X144476904Y-118353761D02*
X144667380Y-118258523D01*
X144762619Y-118163285D01*
X144857857Y-117972809D01*
X144857857Y-117401380D01*
X144762619Y-117210904D01*
X144667380Y-117115666D01*
X144476904Y-117020428D01*
X144191190Y-117020428D01*
X144000714Y-117115666D01*
X143905476Y-117210904D01*
X143810238Y-117401380D01*
X143810238Y-117972809D01*
X143905476Y-118163285D01*
X144000714Y-118258523D01*
X144191190Y-118353761D01*
X144476904Y-118353761D01*
X142953095Y-117020428D02*
X142953095Y-118353761D01*
X142953095Y-117210904D02*
X142857857Y-117115666D01*
X142667380Y-117020428D01*
X142381666Y-117020428D01*
X142191190Y-117115666D01*
X142095952Y-117306142D01*
X142095952Y-118353761D01*
X141238809Y-118258523D02*
X141048333Y-118353761D01*
X140667380Y-118353761D01*
X140476904Y-118258523D01*
X140381666Y-118068047D01*
X140381666Y-117972809D01*
X140476904Y-117782333D01*
X140667380Y-117687095D01*
X140953095Y-117687095D01*
X141143571Y-117591857D01*
X141238809Y-117401380D01*
X141238809Y-117306142D01*
X141143571Y-117115666D01*
X140953095Y-117020428D01*
X140667380Y-117020428D01*
X140476904Y-117115666D01*
X139238809Y-118353761D02*
X139429285Y-118258523D01*
X139524523Y-118163285D01*
X139619761Y-117972809D01*
X139619761Y-117401380D01*
X139524523Y-117210904D01*
X139429285Y-117115666D01*
X139238809Y-117020428D01*
X138953095Y-117020428D01*
X138762619Y-117115666D01*
X138667380Y-117210904D01*
X138572142Y-117401380D01*
X138572142Y-117972809D01*
X138667380Y-118163285D01*
X138762619Y-118258523D01*
X138953095Y-118353761D01*
X139238809Y-118353761D01*
X137429285Y-118353761D02*
X137619761Y-118258523D01*
X137715000Y-118068047D01*
X137715000Y-116353761D01*
X135905476Y-118258523D02*
X136095952Y-118353761D01*
X136476904Y-118353761D01*
X136667380Y-118258523D01*
X136762619Y-118068047D01*
X136762619Y-117306142D01*
X136667380Y-117115666D01*
X136476904Y-117020428D01*
X136095952Y-117020428D01*
X135905476Y-117115666D01*
X135810238Y-117306142D01*
X135810238Y-117496619D01*
X136762619Y-117687095D01*
X134953095Y-117020428D02*
X134953095Y-119020428D01*
X134953095Y-117115666D02*
X134762619Y-117020428D01*
X134381666Y-117020428D01*
X134191190Y-117115666D01*
X134095952Y-117210904D01*
X134000714Y-117401380D01*
X134000714Y-117972809D01*
X134095952Y-118163285D01*
X134191190Y-118258523D01*
X134381666Y-118353761D01*
X134762619Y-118353761D01*
X134953095Y-118258523D01*
X132381666Y-118258523D02*
X132572142Y-118353761D01*
X132953095Y-118353761D01*
X133143571Y-118258523D01*
X133238809Y-118068047D01*
X133238809Y-117306142D01*
X133143571Y-117115666D01*
X132953095Y-117020428D01*
X132572142Y-117020428D01*
X132381666Y-117115666D01*
X132286428Y-117306142D01*
X132286428Y-117496619D01*
X133238809Y-117687095D01*
X130572142Y-118353761D02*
X130572142Y-116353761D01*
X130572142Y-118258523D02*
X130762619Y-118353761D01*
X131143571Y-118353761D01*
X131334047Y-118258523D01*
X131429285Y-118163285D01*
X131524523Y-117972809D01*
X131524523Y-117401380D01*
X131429285Y-117210904D01*
X131334047Y-117115666D01*
X131143571Y-117020428D01*
X130762619Y-117020428D01*
X130572142Y-117115666D01*
X128762619Y-118353761D02*
X128762619Y-117306142D01*
X128857857Y-117115666D01*
X129048333Y-117020428D01*
X129429285Y-117020428D01*
X129619761Y-117115666D01*
X128762619Y-118258523D02*
X128953095Y-118353761D01*
X129429285Y-118353761D01*
X129619761Y-118258523D01*
X129715000Y-118068047D01*
X129715000Y-117877571D01*
X129619761Y-117687095D01*
X129429285Y-117591857D01*
X128953095Y-117591857D01*
X128762619Y-117496619D01*
X127524523Y-118353761D02*
X127715000Y-118258523D01*
X127810238Y-118068047D01*
X127810238Y-116353761D01*
X126857857Y-118258523D02*
X126667380Y-118353761D01*
X126286428Y-118353761D01*
X126095952Y-118258523D01*
X126000714Y-118068047D01*
X126000714Y-117972809D01*
X126095952Y-117782333D01*
X126286428Y-117687095D01*
X126572142Y-117687095D01*
X126762619Y-117591857D01*
X126857857Y-117401380D01*
X126857857Y-117306142D01*
X126762619Y-117115666D01*
X126572142Y-117020428D01*
X126286428Y-117020428D01*
X126095952Y-117115666D01*
X125143571Y-118163285D02*
X125048333Y-118258523D01*
X125143571Y-118353761D01*
X125238809Y-118258523D01*
X125143571Y-118163285D01*
X125143571Y-118353761D01*
X123334047Y-118258523D02*
X123524523Y-118353761D01*
X123905476Y-118353761D01*
X124095952Y-118258523D01*
X124191190Y-118163285D01*
X124286428Y-117972809D01*
X124286428Y-117401380D01*
X124191190Y-117210904D01*
X124095952Y-117115666D01*
X123905476Y-117020428D01*
X123524523Y-117020428D01*
X123334047Y-117115666D01*
X122191190Y-118353761D02*
X122381666Y-118258523D01*
X122476904Y-118163285D01*
X122572142Y-117972809D01*
X122572142Y-117401380D01*
X122476904Y-117210904D01*
X122381666Y-117115666D01*
X122191190Y-117020428D01*
X121905476Y-117020428D01*
X121715000Y-117115666D01*
X121619761Y-117210904D01*
X121524523Y-117401380D01*
X121524523Y-117972809D01*
X121619761Y-118163285D01*
X121715000Y-118258523D01*
X121905476Y-118353761D01*
X122191190Y-118353761D01*
X120667380Y-118353761D02*
X120667380Y-117020428D01*
X120667380Y-117210904D02*
X120572142Y-117115666D01*
X120381666Y-117020428D01*
X120095952Y-117020428D01*
X119905476Y-117115666D01*
X119810238Y-117306142D01*
X119810238Y-118353761D01*
X119810238Y-117306142D02*
X119715000Y-117115666D01*
X119524523Y-117020428D01*
X119238809Y-117020428D01*
X119048333Y-117115666D01*
X118953095Y-117306142D01*
X118953095Y-118353761D01*
D11*
G04 #@! TO.C,R8*
X146328000Y-88011000D02*
X147098000Y-88011000D01*
X154408000Y-88011000D02*
X153638000Y-88011000D01*
X147098000Y-86641000D02*
X153638000Y-86641000D01*
X147098000Y-89381000D02*
X147098000Y-86641000D01*
X153638000Y-89381000D02*
X147098000Y-89381000D01*
X153638000Y-86641000D02*
X153638000Y-89381000D01*
G04 #@! TO.C,R1*
X119356000Y-104140000D02*
X118586000Y-104140000D01*
X111276000Y-104140000D02*
X112046000Y-104140000D01*
X118586000Y-105510000D02*
X112046000Y-105510000D01*
X118586000Y-102770000D02*
X118586000Y-105510000D01*
X112046000Y-102770000D02*
X118586000Y-102770000D01*
X112046000Y-105510000D02*
X112046000Y-102770000D01*
G04 #@! TO.C,R2*
X118332000Y-87403000D02*
X118332000Y-90143000D01*
X118332000Y-90143000D02*
X111792000Y-90143000D01*
X111792000Y-90143000D02*
X111792000Y-87403000D01*
X111792000Y-87403000D02*
X118332000Y-87403000D01*
X119102000Y-88773000D02*
X118332000Y-88773000D01*
X111022000Y-88773000D02*
X111792000Y-88773000D01*
G04 #@! TO.C,R3*
X154154000Y-107061000D02*
X153384000Y-107061000D01*
X146074000Y-107061000D02*
X146844000Y-107061000D01*
X153384000Y-108431000D02*
X146844000Y-108431000D01*
X153384000Y-105691000D02*
X153384000Y-108431000D01*
X146844000Y-105691000D02*
X153384000Y-105691000D01*
X146844000Y-108431000D02*
X146844000Y-105691000D01*
G04 #@! TO.C,R6*
X146074000Y-103886000D02*
X146844000Y-103886000D01*
X154154000Y-103886000D02*
X153384000Y-103886000D01*
X146844000Y-102516000D02*
X153384000Y-102516000D01*
X146844000Y-105256000D02*
X146844000Y-102516000D01*
X153384000Y-105256000D02*
X146844000Y-105256000D01*
X153384000Y-102516000D02*
X153384000Y-105256000D01*
G04 #@! TO.C,R8*
D12*
X150534666Y-88463380D02*
X150868000Y-87987190D01*
X151106095Y-88463380D02*
X151106095Y-87463380D01*
X150725142Y-87463380D01*
X150629904Y-87511000D01*
X150582285Y-87558619D01*
X150534666Y-87653857D01*
X150534666Y-87796714D01*
X150582285Y-87891952D01*
X150629904Y-87939571D01*
X150725142Y-87987190D01*
X151106095Y-87987190D01*
X149963238Y-87891952D02*
X150058476Y-87844333D01*
X150106095Y-87796714D01*
X150153714Y-87701476D01*
X150153714Y-87653857D01*
X150106095Y-87558619D01*
X150058476Y-87511000D01*
X149963238Y-87463380D01*
X149772761Y-87463380D01*
X149677523Y-87511000D01*
X149629904Y-87558619D01*
X149582285Y-87653857D01*
X149582285Y-87701476D01*
X149629904Y-87796714D01*
X149677523Y-87844333D01*
X149772761Y-87891952D01*
X149963238Y-87891952D01*
X150058476Y-87939571D01*
X150106095Y-87987190D01*
X150153714Y-88082428D01*
X150153714Y-88272904D01*
X150106095Y-88368142D01*
X150058476Y-88415761D01*
X149963238Y-88463380D01*
X149772761Y-88463380D01*
X149677523Y-88415761D01*
X149629904Y-88368142D01*
X149582285Y-88272904D01*
X149582285Y-88082428D01*
X149629904Y-87987190D01*
X149677523Y-87939571D01*
X149772761Y-87891952D01*
G04 #@! TO.C,R1*
X115482666Y-104564381D02*
X115816000Y-104088191D01*
X116054095Y-104564381D02*
X116054095Y-103564381D01*
X115673142Y-103564381D01*
X115577904Y-103612001D01*
X115530285Y-103659620D01*
X115482666Y-103754858D01*
X115482666Y-103897715D01*
X115530285Y-103992953D01*
X115577904Y-104040572D01*
X115673142Y-104088191D01*
X116054095Y-104088191D01*
X114530285Y-104564381D02*
X115101714Y-104564381D01*
X114816000Y-104564381D02*
X114816000Y-103564381D01*
X114911238Y-103707239D01*
X115006476Y-103802477D01*
X115101714Y-103850096D01*
G04 #@! TO.C,R2*
X115228666Y-89239379D02*
X115562000Y-88763189D01*
X115800095Y-89239379D02*
X115800095Y-88239379D01*
X115419142Y-88239379D01*
X115323904Y-88286999D01*
X115276285Y-88334618D01*
X115228666Y-88429856D01*
X115228666Y-88572713D01*
X115276285Y-88667951D01*
X115323904Y-88715570D01*
X115419142Y-88763189D01*
X115800095Y-88763189D01*
X114847714Y-88334618D02*
X114800095Y-88286999D01*
X114704857Y-88239379D01*
X114466761Y-88239379D01*
X114371523Y-88286999D01*
X114323904Y-88334618D01*
X114276285Y-88429856D01*
X114276285Y-88525094D01*
X114323904Y-88667951D01*
X114895333Y-89239379D01*
X114276285Y-89239379D01*
G04 #@! TO.C,R3*
X150280666Y-107513381D02*
X150614000Y-107037191D01*
X150852095Y-107513381D02*
X150852095Y-106513381D01*
X150471142Y-106513381D01*
X150375904Y-106561001D01*
X150328285Y-106608620D01*
X150280666Y-106703858D01*
X150280666Y-106846715D01*
X150328285Y-106941953D01*
X150375904Y-106989572D01*
X150471142Y-107037191D01*
X150852095Y-107037191D01*
X149947333Y-106513381D02*
X149328285Y-106513381D01*
X149661619Y-106894334D01*
X149518761Y-106894334D01*
X149423523Y-106941953D01*
X149375904Y-106989572D01*
X149328285Y-107084810D01*
X149328285Y-107322905D01*
X149375904Y-107418143D01*
X149423523Y-107465762D01*
X149518761Y-107513381D01*
X149804476Y-107513381D01*
X149899714Y-107465762D01*
X149947333Y-107418143D01*
G04 #@! TO.C,R6*
X150280666Y-104337379D02*
X150614000Y-103861189D01*
X150852095Y-104337379D02*
X150852095Y-103337379D01*
X150471142Y-103337379D01*
X150375904Y-103384999D01*
X150328285Y-103432618D01*
X150280666Y-103527856D01*
X150280666Y-103670713D01*
X150328285Y-103765951D01*
X150375904Y-103813570D01*
X150471142Y-103861189D01*
X150852095Y-103861189D01*
X149423523Y-103337379D02*
X149614000Y-103337379D01*
X149709238Y-103384999D01*
X149756857Y-103432618D01*
X149852095Y-103575475D01*
X149899714Y-103765951D01*
X149899714Y-104146903D01*
X149852095Y-104242141D01*
X149804476Y-104289760D01*
X149709238Y-104337379D01*
X149518761Y-104337379D01*
X149423523Y-104289760D01*
X149375904Y-104242141D01*
X149328285Y-104146903D01*
X149328285Y-103908808D01*
X149375904Y-103813570D01*
X149423523Y-103765951D01*
X149518761Y-103718332D01*
X149709238Y-103718332D01*
X149804476Y-103765951D01*
X149852095Y-103813570D01*
X149899714Y-103908808D01*
G04 #@! TD*
M02*
