G04 #@! TF.GenerationSoftware,KiCad,Pcbnew,(5.1.7)-1*
G04 #@! TF.CreationDate,2021-07-20T19:06:59-05:00*
G04 #@! TF.ProjectId,ConsolePedalPhaser,436f6e73-6f6c-4655-9065-64616c506861,rev?*
G04 #@! TF.SameCoordinates,Original*
G04 #@! TF.FileFunction,Legend,Top*
G04 #@! TF.FilePolarity,Positive*
%FSLAX46Y46*%
G04 Gerber Fmt 4.6, Leading zero omitted, Abs format (unit mm)*
G04 Created by KiCad (PCBNEW (5.1.7)-1) date 2021-07-20 19:06:59*
%MOMM*%
%LPD*%
G01*
G04 APERTURE LIST*
%ADD10C,0.150000*%
%ADD11C,0.250000*%
%ADD12C,0.120000*%
G04 APERTURE END LIST*
D10*
X128430857Y-83581142D02*
X128430857Y-84224000D01*
X128388000Y-84352571D01*
X128302285Y-84438285D01*
X128173714Y-84481142D01*
X128088000Y-84481142D01*
X129288000Y-84481142D02*
X128859428Y-84481142D01*
X128859428Y-83581142D01*
X130102285Y-84395428D02*
X130059428Y-84438285D01*
X129930857Y-84481142D01*
X129845142Y-84481142D01*
X129716571Y-84438285D01*
X129630857Y-84352571D01*
X129588000Y-84266857D01*
X129545142Y-84095428D01*
X129545142Y-83966857D01*
X129588000Y-83795428D01*
X129630857Y-83709714D01*
X129716571Y-83624000D01*
X129845142Y-83581142D01*
X129930857Y-83581142D01*
X130059428Y-83624000D01*
X130102285Y-83666857D01*
X130745142Y-83581142D02*
X130745142Y-84224000D01*
X130702285Y-84352571D01*
X130616571Y-84438285D01*
X130488000Y-84481142D01*
X130402285Y-84481142D01*
X131602285Y-84481142D02*
X131173714Y-84481142D01*
X131173714Y-83581142D01*
X132416571Y-84395428D02*
X132373714Y-84438285D01*
X132245142Y-84481142D01*
X132159428Y-84481142D01*
X132030857Y-84438285D01*
X131945142Y-84352571D01*
X131902285Y-84266857D01*
X131859428Y-84095428D01*
X131859428Y-83966857D01*
X131902285Y-83795428D01*
X131945142Y-83709714D01*
X132030857Y-83624000D01*
X132159428Y-83581142D01*
X132245142Y-83581142D01*
X132373714Y-83624000D01*
X132416571Y-83666857D01*
X133059428Y-83581142D02*
X133059428Y-84224000D01*
X133016571Y-84352571D01*
X132930857Y-84438285D01*
X132802285Y-84481142D01*
X132716571Y-84481142D01*
X133916571Y-84481142D02*
X133488000Y-84481142D01*
X133488000Y-83581142D01*
X134730857Y-84395428D02*
X134688000Y-84438285D01*
X134559428Y-84481142D01*
X134473714Y-84481142D01*
X134345142Y-84438285D01*
X134259428Y-84352571D01*
X134216571Y-84266857D01*
X134173714Y-84095428D01*
X134173714Y-83966857D01*
X134216571Y-83795428D01*
X134259428Y-83709714D01*
X134345142Y-83624000D01*
X134473714Y-83581142D01*
X134559428Y-83581142D01*
X134688000Y-83624000D01*
X134730857Y-83666857D01*
X135373714Y-83581142D02*
X135373714Y-84224000D01*
X135330857Y-84352571D01*
X135245142Y-84438285D01*
X135116571Y-84481142D01*
X135030857Y-84481142D01*
X136230857Y-84481142D02*
X135802285Y-84481142D01*
X135802285Y-83581142D01*
X137045142Y-84395428D02*
X137002285Y-84438285D01*
X136873714Y-84481142D01*
X136788000Y-84481142D01*
X136659428Y-84438285D01*
X136573714Y-84352571D01*
X136530857Y-84266857D01*
X136488000Y-84095428D01*
X136488000Y-83966857D01*
X136530857Y-83795428D01*
X136573714Y-83709714D01*
X136659428Y-83624000D01*
X136788000Y-83581142D01*
X136873714Y-83581142D01*
X137002285Y-83624000D01*
X137045142Y-83666857D01*
D11*
X118393571Y-121820714D02*
X118322142Y-121892142D01*
X118107857Y-121963571D01*
X117965000Y-121963571D01*
X117750714Y-121892142D01*
X117607857Y-121749285D01*
X117536428Y-121606428D01*
X117465000Y-121320714D01*
X117465000Y-121106428D01*
X117536428Y-120820714D01*
X117607857Y-120677857D01*
X117750714Y-120535000D01*
X117965000Y-120463571D01*
X118107857Y-120463571D01*
X118322142Y-120535000D01*
X118393571Y-120606428D01*
X119250714Y-121963571D02*
X119107857Y-121892142D01*
X119036428Y-121820714D01*
X118965000Y-121677857D01*
X118965000Y-121249285D01*
X119036428Y-121106428D01*
X119107857Y-121035000D01*
X119250714Y-120963571D01*
X119465000Y-120963571D01*
X119607857Y-121035000D01*
X119679285Y-121106428D01*
X119750714Y-121249285D01*
X119750714Y-121677857D01*
X119679285Y-121820714D01*
X119607857Y-121892142D01*
X119465000Y-121963571D01*
X119250714Y-121963571D01*
X120393571Y-120963571D02*
X120393571Y-121963571D01*
X120393571Y-121106428D02*
X120465000Y-121035000D01*
X120607857Y-120963571D01*
X120822142Y-120963571D01*
X120965000Y-121035000D01*
X121036428Y-121177857D01*
X121036428Y-121963571D01*
X121679285Y-121892142D02*
X121822142Y-121963571D01*
X122107857Y-121963571D01*
X122250714Y-121892142D01*
X122322142Y-121749285D01*
X122322142Y-121677857D01*
X122250714Y-121535000D01*
X122107857Y-121463571D01*
X121893571Y-121463571D01*
X121750714Y-121392142D01*
X121679285Y-121249285D01*
X121679285Y-121177857D01*
X121750714Y-121035000D01*
X121893571Y-120963571D01*
X122107857Y-120963571D01*
X122250714Y-121035000D01*
X123179285Y-121963571D02*
X123036428Y-121892142D01*
X122965000Y-121820714D01*
X122893571Y-121677857D01*
X122893571Y-121249285D01*
X122965000Y-121106428D01*
X123036428Y-121035000D01*
X123179285Y-120963571D01*
X123393571Y-120963571D01*
X123536428Y-121035000D01*
X123607857Y-121106428D01*
X123679285Y-121249285D01*
X123679285Y-121677857D01*
X123607857Y-121820714D01*
X123536428Y-121892142D01*
X123393571Y-121963571D01*
X123179285Y-121963571D01*
X124536428Y-121963571D02*
X124393571Y-121892142D01*
X124322142Y-121749285D01*
X124322142Y-120463571D01*
X125679285Y-121892142D02*
X125536428Y-121963571D01*
X125250714Y-121963571D01*
X125107857Y-121892142D01*
X125036428Y-121749285D01*
X125036428Y-121177857D01*
X125107857Y-121035000D01*
X125250714Y-120963571D01*
X125536428Y-120963571D01*
X125679285Y-121035000D01*
X125750714Y-121177857D01*
X125750714Y-121320714D01*
X125036428Y-121463571D01*
X127536428Y-121963571D02*
X127536428Y-120463571D01*
X128107857Y-120463571D01*
X128250714Y-120535000D01*
X128322142Y-120606428D01*
X128393571Y-120749285D01*
X128393571Y-120963571D01*
X128322142Y-121106428D01*
X128250714Y-121177857D01*
X128107857Y-121249285D01*
X127536428Y-121249285D01*
X129607857Y-121892142D02*
X129465000Y-121963571D01*
X129179285Y-121963571D01*
X129036428Y-121892142D01*
X128965000Y-121749285D01*
X128965000Y-121177857D01*
X129036428Y-121035000D01*
X129179285Y-120963571D01*
X129465000Y-120963571D01*
X129607857Y-121035000D01*
X129679285Y-121177857D01*
X129679285Y-121320714D01*
X128965000Y-121463571D01*
X130965000Y-121963571D02*
X130965000Y-120463571D01*
X130965000Y-121892142D02*
X130822142Y-121963571D01*
X130536428Y-121963571D01*
X130393571Y-121892142D01*
X130322142Y-121820714D01*
X130250714Y-121677857D01*
X130250714Y-121249285D01*
X130322142Y-121106428D01*
X130393571Y-121035000D01*
X130536428Y-120963571D01*
X130822142Y-120963571D01*
X130965000Y-121035000D01*
X132322142Y-121963571D02*
X132322142Y-121177857D01*
X132250714Y-121035000D01*
X132107857Y-120963571D01*
X131822142Y-120963571D01*
X131679285Y-121035000D01*
X132322142Y-121892142D02*
X132179285Y-121963571D01*
X131822142Y-121963571D01*
X131679285Y-121892142D01*
X131607857Y-121749285D01*
X131607857Y-121606428D01*
X131679285Y-121463571D01*
X131822142Y-121392142D01*
X132179285Y-121392142D01*
X132322142Y-121320714D01*
X133250714Y-121963571D02*
X133107857Y-121892142D01*
X133036428Y-121749285D01*
X133036428Y-120463571D01*
X134965000Y-121963571D02*
X134965000Y-120463571D01*
X135536428Y-120463571D01*
X135679285Y-120535000D01*
X135750714Y-120606428D01*
X135822142Y-120749285D01*
X135822142Y-120963571D01*
X135750714Y-121106428D01*
X135679285Y-121177857D01*
X135536428Y-121249285D01*
X134965000Y-121249285D01*
X136465000Y-121963571D02*
X136465000Y-120463571D01*
X137107857Y-121963571D02*
X137107857Y-121177857D01*
X137036428Y-121035000D01*
X136893571Y-120963571D01*
X136679285Y-120963571D01*
X136536428Y-121035000D01*
X136465000Y-121106428D01*
X138465000Y-121963571D02*
X138465000Y-121177857D01*
X138393571Y-121035000D01*
X138250714Y-120963571D01*
X137965000Y-120963571D01*
X137822142Y-121035000D01*
X138465000Y-121892142D02*
X138322142Y-121963571D01*
X137965000Y-121963571D01*
X137822142Y-121892142D01*
X137750714Y-121749285D01*
X137750714Y-121606428D01*
X137822142Y-121463571D01*
X137965000Y-121392142D01*
X138322142Y-121392142D01*
X138465000Y-121320714D01*
X139107857Y-121892142D02*
X139250714Y-121963571D01*
X139536428Y-121963571D01*
X139679285Y-121892142D01*
X139750714Y-121749285D01*
X139750714Y-121677857D01*
X139679285Y-121535000D01*
X139536428Y-121463571D01*
X139322142Y-121463571D01*
X139179285Y-121392142D01*
X139107857Y-121249285D01*
X139107857Y-121177857D01*
X139179285Y-121035000D01*
X139322142Y-120963571D01*
X139536428Y-120963571D01*
X139679285Y-121035000D01*
X140965000Y-121892142D02*
X140822142Y-121963571D01*
X140536428Y-121963571D01*
X140393571Y-121892142D01*
X140322142Y-121749285D01*
X140322142Y-121177857D01*
X140393571Y-121035000D01*
X140536428Y-120963571D01*
X140822142Y-120963571D01*
X140965000Y-121035000D01*
X141036428Y-121177857D01*
X141036428Y-121320714D01*
X140322142Y-121463571D01*
X141679285Y-121963571D02*
X141679285Y-120963571D01*
X141679285Y-121249285D02*
X141750714Y-121106428D01*
X141822142Y-121035000D01*
X141965000Y-120963571D01*
X142107857Y-120963571D01*
X143536428Y-120463571D02*
X144036428Y-121963571D01*
X144536428Y-120463571D01*
X145822142Y-121963571D02*
X144965000Y-121963571D01*
X145393571Y-121963571D02*
X145393571Y-120463571D01*
X145250714Y-120677857D01*
X145107857Y-120820714D01*
X144965000Y-120892142D01*
X146465000Y-121820714D02*
X146536428Y-121892142D01*
X146465000Y-121963571D01*
X146393571Y-121892142D01*
X146465000Y-121820714D01*
X146465000Y-121963571D01*
X147465000Y-120463571D02*
X147607857Y-120463571D01*
X147750714Y-120535000D01*
X147822142Y-120606428D01*
X147893571Y-120749285D01*
X147965000Y-121035000D01*
X147965000Y-121392142D01*
X147893571Y-121677857D01*
X147822142Y-121820714D01*
X147750714Y-121892142D01*
X147607857Y-121963571D01*
X147465000Y-121963571D01*
X147322142Y-121892142D01*
X147250714Y-121820714D01*
X147179285Y-121677857D01*
X147107857Y-121392142D01*
X147107857Y-121035000D01*
X147179285Y-120749285D01*
X147250714Y-120606428D01*
X147322142Y-120535000D01*
X147465000Y-120463571D01*
X119000714Y-111071761D02*
X120143571Y-111071761D01*
X119572142Y-113071761D02*
X119572142Y-111071761D01*
X120810238Y-113071761D02*
X120810238Y-111071761D01*
X121667380Y-113071761D02*
X121667380Y-112024142D01*
X121572142Y-111833666D01*
X121381666Y-111738428D01*
X121095952Y-111738428D01*
X120905476Y-111833666D01*
X120810238Y-111928904D01*
X122905476Y-113071761D02*
X122715000Y-112976523D01*
X122619761Y-112881285D01*
X122524523Y-112690809D01*
X122524523Y-112119380D01*
X122619761Y-111928904D01*
X122715000Y-111833666D01*
X122905476Y-111738428D01*
X123191190Y-111738428D01*
X123381666Y-111833666D01*
X123476904Y-111928904D01*
X123572142Y-112119380D01*
X123572142Y-112690809D01*
X123476904Y-112881285D01*
X123381666Y-112976523D01*
X123191190Y-113071761D01*
X122905476Y-113071761D01*
X124429285Y-113071761D02*
X124429285Y-111738428D01*
X124429285Y-111928904D02*
X124524523Y-111833666D01*
X124715000Y-111738428D01*
X125000714Y-111738428D01*
X125191190Y-111833666D01*
X125286428Y-112024142D01*
X125286428Y-113071761D01*
X125286428Y-112024142D02*
X125381666Y-111833666D01*
X125572142Y-111738428D01*
X125857857Y-111738428D01*
X126048333Y-111833666D01*
X126143571Y-112024142D01*
X126143571Y-113071761D01*
X127953095Y-113071761D02*
X127953095Y-112024142D01*
X127857857Y-111833666D01*
X127667380Y-111738428D01*
X127286428Y-111738428D01*
X127095952Y-111833666D01*
X127953095Y-112976523D02*
X127762619Y-113071761D01*
X127286428Y-113071761D01*
X127095952Y-112976523D01*
X127000714Y-112786047D01*
X127000714Y-112595571D01*
X127095952Y-112405095D01*
X127286428Y-112309857D01*
X127762619Y-112309857D01*
X127953095Y-112214619D01*
X128810238Y-112976523D02*
X129000714Y-113071761D01*
X129381666Y-113071761D01*
X129572142Y-112976523D01*
X129667380Y-112786047D01*
X129667380Y-112690809D01*
X129572142Y-112500333D01*
X129381666Y-112405095D01*
X129095952Y-112405095D01*
X128905476Y-112309857D01*
X128810238Y-112119380D01*
X128810238Y-112024142D01*
X128905476Y-111833666D01*
X129095952Y-111738428D01*
X129381666Y-111738428D01*
X129572142Y-111833666D01*
X132048333Y-113071761D02*
X132048333Y-111071761D01*
X132715000Y-112500333D01*
X133381666Y-111071761D01*
X133381666Y-113071761D01*
X135191190Y-112976523D02*
X135000714Y-113071761D01*
X134619761Y-113071761D01*
X134429285Y-112976523D01*
X134334047Y-112881285D01*
X134238809Y-112690809D01*
X134238809Y-112119380D01*
X134334047Y-111928904D01*
X134429285Y-111833666D01*
X134619761Y-111738428D01*
X135000714Y-111738428D01*
X135191190Y-111833666D01*
X136048333Y-113071761D02*
X136048333Y-111071761D01*
X136524523Y-111071761D01*
X136810238Y-111167000D01*
X137000714Y-111357476D01*
X137095952Y-111547952D01*
X137191190Y-111928904D01*
X137191190Y-112214619D01*
X137095952Y-112595571D01*
X137000714Y-112786047D01*
X136810238Y-112976523D01*
X136524523Y-113071761D01*
X136048333Y-113071761D01*
X138334047Y-113071761D02*
X138143571Y-112976523D01*
X138048333Y-112881285D01*
X137953095Y-112690809D01*
X137953095Y-112119380D01*
X138048333Y-111928904D01*
X138143571Y-111833666D01*
X138334047Y-111738428D01*
X138619761Y-111738428D01*
X138810238Y-111833666D01*
X138905476Y-111928904D01*
X139000714Y-112119380D01*
X139000714Y-112690809D01*
X138905476Y-112881285D01*
X138810238Y-112976523D01*
X138619761Y-113071761D01*
X138334047Y-113071761D01*
X139857857Y-111738428D02*
X139857857Y-113071761D01*
X139857857Y-111928904D02*
X139953095Y-111833666D01*
X140143571Y-111738428D01*
X140429285Y-111738428D01*
X140619761Y-111833666D01*
X140715000Y-112024142D01*
X140715000Y-113071761D01*
X142524523Y-113071761D02*
X142524523Y-112024142D01*
X142429285Y-111833666D01*
X142238809Y-111738428D01*
X141857857Y-111738428D01*
X141667380Y-111833666D01*
X142524523Y-112976523D02*
X142334047Y-113071761D01*
X141857857Y-113071761D01*
X141667380Y-112976523D01*
X141572142Y-112786047D01*
X141572142Y-112595571D01*
X141667380Y-112405095D01*
X141857857Y-112309857D01*
X142334047Y-112309857D01*
X142524523Y-112214619D01*
X144334047Y-111738428D02*
X144334047Y-113357476D01*
X144238809Y-113547952D01*
X144143571Y-113643190D01*
X143953095Y-113738428D01*
X143667380Y-113738428D01*
X143476904Y-113643190D01*
X144334047Y-112976523D02*
X144143571Y-113071761D01*
X143762619Y-113071761D01*
X143572142Y-112976523D01*
X143476904Y-112881285D01*
X143381666Y-112690809D01*
X143381666Y-112119380D01*
X143476904Y-111928904D01*
X143572142Y-111833666D01*
X143762619Y-111738428D01*
X144143571Y-111738428D01*
X144334047Y-111833666D01*
X145286428Y-113071761D02*
X145286428Y-111071761D01*
X146143571Y-113071761D02*
X146143571Y-112024142D01*
X146048333Y-111833666D01*
X145857857Y-111738428D01*
X145572142Y-111738428D01*
X145381666Y-111833666D01*
X145286428Y-111928904D01*
X119810238Y-116226523D02*
X119619761Y-116321761D01*
X119238809Y-116321761D01*
X119048333Y-116226523D01*
X118953095Y-116131285D01*
X118857857Y-115940809D01*
X118857857Y-115369380D01*
X118953095Y-115178904D01*
X119048333Y-115083666D01*
X119238809Y-114988428D01*
X119619761Y-114988428D01*
X119810238Y-115083666D01*
X120953095Y-116321761D02*
X120762619Y-116226523D01*
X120667380Y-116131285D01*
X120572142Y-115940809D01*
X120572142Y-115369380D01*
X120667380Y-115178904D01*
X120762619Y-115083666D01*
X120953095Y-114988428D01*
X121238809Y-114988428D01*
X121429285Y-115083666D01*
X121524523Y-115178904D01*
X121619761Y-115369380D01*
X121619761Y-115940809D01*
X121524523Y-116131285D01*
X121429285Y-116226523D01*
X121238809Y-116321761D01*
X120953095Y-116321761D01*
X122476904Y-114988428D02*
X122476904Y-116321761D01*
X122476904Y-115178904D02*
X122572142Y-115083666D01*
X122762619Y-114988428D01*
X123048333Y-114988428D01*
X123238809Y-115083666D01*
X123334047Y-115274142D01*
X123334047Y-116321761D01*
X124191190Y-116226523D02*
X124381666Y-116321761D01*
X124762619Y-116321761D01*
X124953095Y-116226523D01*
X125048333Y-116036047D01*
X125048333Y-115940809D01*
X124953095Y-115750333D01*
X124762619Y-115655095D01*
X124476904Y-115655095D01*
X124286428Y-115559857D01*
X124191190Y-115369380D01*
X124191190Y-115274142D01*
X124286428Y-115083666D01*
X124476904Y-114988428D01*
X124762619Y-114988428D01*
X124953095Y-115083666D01*
X126191190Y-116321761D02*
X126000714Y-116226523D01*
X125905476Y-116131285D01*
X125810238Y-115940809D01*
X125810238Y-115369380D01*
X125905476Y-115178904D01*
X126000714Y-115083666D01*
X126191190Y-114988428D01*
X126476904Y-114988428D01*
X126667380Y-115083666D01*
X126762619Y-115178904D01*
X126857857Y-115369380D01*
X126857857Y-115940809D01*
X126762619Y-116131285D01*
X126667380Y-116226523D01*
X126476904Y-116321761D01*
X126191190Y-116321761D01*
X128000714Y-116321761D02*
X127810238Y-116226523D01*
X127715000Y-116036047D01*
X127715000Y-114321761D01*
X129524523Y-116226523D02*
X129334047Y-116321761D01*
X128953095Y-116321761D01*
X128762619Y-116226523D01*
X128667380Y-116036047D01*
X128667380Y-115274142D01*
X128762619Y-115083666D01*
X128953095Y-114988428D01*
X129334047Y-114988428D01*
X129524523Y-115083666D01*
X129619761Y-115274142D01*
X129619761Y-115464619D01*
X128667380Y-115655095D01*
X130476904Y-114988428D02*
X130476904Y-116988428D01*
X130476904Y-115083666D02*
X130667380Y-114988428D01*
X131048333Y-114988428D01*
X131238809Y-115083666D01*
X131334047Y-115178904D01*
X131429285Y-115369380D01*
X131429285Y-115940809D01*
X131334047Y-116131285D01*
X131238809Y-116226523D01*
X131048333Y-116321761D01*
X130667380Y-116321761D01*
X130476904Y-116226523D01*
X133048333Y-116226523D02*
X132857857Y-116321761D01*
X132476904Y-116321761D01*
X132286428Y-116226523D01*
X132191190Y-116036047D01*
X132191190Y-115274142D01*
X132286428Y-115083666D01*
X132476904Y-114988428D01*
X132857857Y-114988428D01*
X133048333Y-115083666D01*
X133143571Y-115274142D01*
X133143571Y-115464619D01*
X132191190Y-115655095D01*
X134857857Y-116321761D02*
X134857857Y-114321761D01*
X134857857Y-116226523D02*
X134667380Y-116321761D01*
X134286428Y-116321761D01*
X134095952Y-116226523D01*
X134000714Y-116131285D01*
X133905476Y-115940809D01*
X133905476Y-115369380D01*
X134000714Y-115178904D01*
X134095952Y-115083666D01*
X134286428Y-114988428D01*
X134667380Y-114988428D01*
X134857857Y-115083666D01*
X136667380Y-116321761D02*
X136667380Y-115274142D01*
X136572142Y-115083666D01*
X136381666Y-114988428D01*
X136000714Y-114988428D01*
X135810238Y-115083666D01*
X136667380Y-116226523D02*
X136476904Y-116321761D01*
X136000714Y-116321761D01*
X135810238Y-116226523D01*
X135715000Y-116036047D01*
X135715000Y-115845571D01*
X135810238Y-115655095D01*
X136000714Y-115559857D01*
X136476904Y-115559857D01*
X136667380Y-115464619D01*
X137905476Y-116321761D02*
X137715000Y-116226523D01*
X137619761Y-116036047D01*
X137619761Y-114321761D01*
X138572142Y-116226523D02*
X138762619Y-116321761D01*
X139143571Y-116321761D01*
X139334047Y-116226523D01*
X139429285Y-116036047D01*
X139429285Y-115940809D01*
X139334047Y-115750333D01*
X139143571Y-115655095D01*
X138857857Y-115655095D01*
X138667380Y-115559857D01*
X138572142Y-115369380D01*
X138572142Y-115274142D01*
X138667380Y-115083666D01*
X138857857Y-114988428D01*
X139143571Y-114988428D01*
X139334047Y-115083666D01*
X140286428Y-116131285D02*
X140381666Y-116226523D01*
X140286428Y-116321761D01*
X140191190Y-116226523D01*
X140286428Y-116131285D01*
X140286428Y-116321761D01*
X142095952Y-116226523D02*
X141905476Y-116321761D01*
X141524523Y-116321761D01*
X141334047Y-116226523D01*
X141238809Y-116131285D01*
X141143571Y-115940809D01*
X141143571Y-115369380D01*
X141238809Y-115178904D01*
X141334047Y-115083666D01*
X141524523Y-114988428D01*
X141905476Y-114988428D01*
X142095952Y-115083666D01*
X143238809Y-116321761D02*
X143048333Y-116226523D01*
X142953095Y-116131285D01*
X142857857Y-115940809D01*
X142857857Y-115369380D01*
X142953095Y-115178904D01*
X143048333Y-115083666D01*
X143238809Y-114988428D01*
X143524523Y-114988428D01*
X143715000Y-115083666D01*
X143810238Y-115178904D01*
X143905476Y-115369380D01*
X143905476Y-115940809D01*
X143810238Y-116131285D01*
X143715000Y-116226523D01*
X143524523Y-116321761D01*
X143238809Y-116321761D01*
X144762619Y-116321761D02*
X144762619Y-114988428D01*
X144762619Y-115178904D02*
X144857857Y-115083666D01*
X145048333Y-114988428D01*
X145334047Y-114988428D01*
X145524523Y-115083666D01*
X145619761Y-115274142D01*
X145619761Y-116321761D01*
X145619761Y-115274142D02*
X145715000Y-115083666D01*
X145905476Y-114988428D01*
X146191190Y-114988428D01*
X146381666Y-115083666D01*
X146476904Y-115274142D01*
X146476904Y-116321761D01*
D12*
G04 #@! TO.C,D3*
X117750000Y-96270000D02*
G75*
G03*
X117750000Y-96270000I-2500000J0D01*
G01*
X116795000Y-93710000D02*
X113705000Y-93710000D01*
X115249538Y-99260000D02*
G75*
G03*
X116794830Y-93710000I462J2990000D01*
G01*
X115250462Y-99260000D02*
G75*
G02*
X113705170Y-93710000I-462J2990000D01*
G01*
G04 #@! TO.C,D4*
X151795000Y-93710000D02*
X148705000Y-93710000D01*
X152750000Y-96270000D02*
G75*
G03*
X152750000Y-96270000I-2500000J0D01*
G01*
X150250462Y-99260000D02*
G75*
G02*
X148705170Y-93710000I-462J2990000D01*
G01*
X150249538Y-99260000D02*
G75*
G03*
X151794830Y-93710000I462J2990000D01*
G01*
G04 #@! TO.C,R29*
X166084000Y-100176000D02*
X166084000Y-97436000D01*
X166084000Y-97436000D02*
X159544000Y-97436000D01*
X159544000Y-97436000D02*
X159544000Y-100176000D01*
X159544000Y-100176000D02*
X166084000Y-100176000D01*
X166854000Y-98806000D02*
X166084000Y-98806000D01*
X158774000Y-98806000D02*
X159544000Y-98806000D01*
G04 #@! TO.C,C2*
X93422000Y-83412000D02*
X85982000Y-83412000D01*
X93422000Y-74922000D02*
X85982000Y-74922000D01*
X93422000Y-83412000D02*
X93422000Y-74922000D01*
X85982000Y-83412000D02*
X85982000Y-74922000D01*
G04 #@! TO.C,C4*
X153874000Y-110844000D02*
X146434000Y-110844000D01*
X153874000Y-102354000D02*
X146434000Y-102354000D01*
X153874000Y-110844000D02*
X153874000Y-102354000D01*
X146434000Y-110844000D02*
X146434000Y-102354000D01*
G04 #@! TO.C,C5*
X111382000Y-110844000D02*
X111382000Y-102354000D01*
X118822000Y-110844000D02*
X118822000Y-102354000D01*
X118822000Y-102354000D02*
X111382000Y-102354000D01*
X118822000Y-110844000D02*
X111382000Y-110844000D01*
G04 #@! TO.C,C7*
X153435241Y-83434000D02*
X153435241Y-82804000D01*
X153750241Y-83119000D02*
X153120241Y-83119000D01*
X147009000Y-81682000D02*
X147009000Y-80878000D01*
X147049000Y-81913000D02*
X147049000Y-80647000D01*
X147089000Y-82082000D02*
X147089000Y-80478000D01*
X147129000Y-82220000D02*
X147129000Y-80340000D01*
X147169000Y-82339000D02*
X147169000Y-80221000D01*
X147209000Y-82445000D02*
X147209000Y-80115000D01*
X147249000Y-82542000D02*
X147249000Y-80018000D01*
X147289000Y-82630000D02*
X147289000Y-79930000D01*
X147329000Y-82712000D02*
X147329000Y-79848000D01*
X147369000Y-82789000D02*
X147369000Y-79771000D01*
X147409000Y-82861000D02*
X147409000Y-79699000D01*
X147449000Y-82930000D02*
X147449000Y-79630000D01*
X147489000Y-82994000D02*
X147489000Y-79566000D01*
X147529000Y-83056000D02*
X147529000Y-79504000D01*
X147569000Y-83114000D02*
X147569000Y-79446000D01*
X147609000Y-83170000D02*
X147609000Y-79390000D01*
X147649000Y-83224000D02*
X147649000Y-79336000D01*
X147689000Y-83275000D02*
X147689000Y-79285000D01*
X147729000Y-83324000D02*
X147729000Y-79236000D01*
X147769000Y-83372000D02*
X147769000Y-79188000D01*
X147809000Y-83417000D02*
X147809000Y-79143000D01*
X147849000Y-83462000D02*
X147849000Y-79098000D01*
X147889000Y-83504000D02*
X147889000Y-79056000D01*
X147929000Y-83545000D02*
X147929000Y-79015000D01*
X147969000Y-80240000D02*
X147969000Y-78975000D01*
X147969000Y-83585000D02*
X147969000Y-82320000D01*
X148009000Y-80240000D02*
X148009000Y-78937000D01*
X148009000Y-83623000D02*
X148009000Y-82320000D01*
X148049000Y-80240000D02*
X148049000Y-78900000D01*
X148049000Y-83660000D02*
X148049000Y-82320000D01*
X148089000Y-80240000D02*
X148089000Y-78864000D01*
X148089000Y-83696000D02*
X148089000Y-82320000D01*
X148129000Y-80240000D02*
X148129000Y-78830000D01*
X148129000Y-83730000D02*
X148129000Y-82320000D01*
X148169000Y-80240000D02*
X148169000Y-78796000D01*
X148169000Y-83764000D02*
X148169000Y-82320000D01*
X148209000Y-80240000D02*
X148209000Y-78764000D01*
X148209000Y-83796000D02*
X148209000Y-82320000D01*
X148249000Y-80240000D02*
X148249000Y-78732000D01*
X148249000Y-83828000D02*
X148249000Y-82320000D01*
X148289000Y-80240000D02*
X148289000Y-78702000D01*
X148289000Y-83858000D02*
X148289000Y-82320000D01*
X148329000Y-80240000D02*
X148329000Y-78673000D01*
X148329000Y-83887000D02*
X148329000Y-82320000D01*
X148369000Y-80240000D02*
X148369000Y-78644000D01*
X148369000Y-83916000D02*
X148369000Y-82320000D01*
X148409000Y-80240000D02*
X148409000Y-78616000D01*
X148409000Y-83944000D02*
X148409000Y-82320000D01*
X148449000Y-80240000D02*
X148449000Y-78590000D01*
X148449000Y-83970000D02*
X148449000Y-82320000D01*
X148489000Y-80240000D02*
X148489000Y-78564000D01*
X148489000Y-83996000D02*
X148489000Y-82320000D01*
X148529000Y-80240000D02*
X148529000Y-78538000D01*
X148529000Y-84022000D02*
X148529000Y-82320000D01*
X148569000Y-80240000D02*
X148569000Y-78514000D01*
X148569000Y-84046000D02*
X148569000Y-82320000D01*
X148609000Y-80240000D02*
X148609000Y-78490000D01*
X148609000Y-84070000D02*
X148609000Y-82320000D01*
X148649000Y-80240000D02*
X148649000Y-78468000D01*
X148649000Y-84092000D02*
X148649000Y-82320000D01*
X148689000Y-80240000D02*
X148689000Y-78446000D01*
X148689000Y-84114000D02*
X148689000Y-82320000D01*
X148729000Y-80240000D02*
X148729000Y-78424000D01*
X148729000Y-84136000D02*
X148729000Y-82320000D01*
X148769000Y-80240000D02*
X148769000Y-78404000D01*
X148769000Y-84156000D02*
X148769000Y-82320000D01*
X148809000Y-80240000D02*
X148809000Y-78384000D01*
X148809000Y-84176000D02*
X148809000Y-82320000D01*
X148849000Y-80240000D02*
X148849000Y-78364000D01*
X148849000Y-84196000D02*
X148849000Y-82320000D01*
X148889000Y-80240000D02*
X148889000Y-78346000D01*
X148889000Y-84214000D02*
X148889000Y-82320000D01*
X148929000Y-80240000D02*
X148929000Y-78328000D01*
X148929000Y-84232000D02*
X148929000Y-82320000D01*
X148969000Y-80240000D02*
X148969000Y-78310000D01*
X148969000Y-84250000D02*
X148969000Y-82320000D01*
X149009000Y-80240000D02*
X149009000Y-78294000D01*
X149009000Y-84266000D02*
X149009000Y-82320000D01*
X149049000Y-80240000D02*
X149049000Y-78278000D01*
X149049000Y-84282000D02*
X149049000Y-82320000D01*
X149089000Y-80240000D02*
X149089000Y-78262000D01*
X149089000Y-84298000D02*
X149089000Y-82320000D01*
X149129000Y-80240000D02*
X149129000Y-78247000D01*
X149129000Y-84313000D02*
X149129000Y-82320000D01*
X149169000Y-80240000D02*
X149169000Y-78233000D01*
X149169000Y-84327000D02*
X149169000Y-82320000D01*
X149209000Y-80240000D02*
X149209000Y-78219000D01*
X149209000Y-84341000D02*
X149209000Y-82320000D01*
X149249000Y-80240000D02*
X149249000Y-78206000D01*
X149249000Y-84354000D02*
X149249000Y-82320000D01*
X149289000Y-80240000D02*
X149289000Y-78194000D01*
X149289000Y-84366000D02*
X149289000Y-82320000D01*
X149329000Y-80240000D02*
X149329000Y-78182000D01*
X149329000Y-84378000D02*
X149329000Y-82320000D01*
X149369000Y-80240000D02*
X149369000Y-78170000D01*
X149369000Y-84390000D02*
X149369000Y-82320000D01*
X149409000Y-80240000D02*
X149409000Y-78159000D01*
X149409000Y-84401000D02*
X149409000Y-82320000D01*
X149449000Y-80240000D02*
X149449000Y-78149000D01*
X149449000Y-84411000D02*
X149449000Y-82320000D01*
X149489000Y-80240000D02*
X149489000Y-78139000D01*
X149489000Y-84421000D02*
X149489000Y-82320000D01*
X149529000Y-80240000D02*
X149529000Y-78130000D01*
X149529000Y-84430000D02*
X149529000Y-82320000D01*
X149570000Y-80240000D02*
X149570000Y-78121000D01*
X149570000Y-84439000D02*
X149570000Y-82320000D01*
X149610000Y-80240000D02*
X149610000Y-78113000D01*
X149610000Y-84447000D02*
X149610000Y-82320000D01*
X149650000Y-80240000D02*
X149650000Y-78105000D01*
X149650000Y-84455000D02*
X149650000Y-82320000D01*
X149690000Y-80240000D02*
X149690000Y-78098000D01*
X149690000Y-84462000D02*
X149690000Y-82320000D01*
X149730000Y-80240000D02*
X149730000Y-78091000D01*
X149730000Y-84469000D02*
X149730000Y-82320000D01*
X149770000Y-80240000D02*
X149770000Y-78085000D01*
X149770000Y-84475000D02*
X149770000Y-82320000D01*
X149810000Y-80240000D02*
X149810000Y-78079000D01*
X149810000Y-84481000D02*
X149810000Y-82320000D01*
X149850000Y-80240000D02*
X149850000Y-78074000D01*
X149850000Y-84486000D02*
X149850000Y-82320000D01*
X149890000Y-80240000D02*
X149890000Y-78069000D01*
X149890000Y-84491000D02*
X149890000Y-82320000D01*
X149930000Y-80240000D02*
X149930000Y-78065000D01*
X149930000Y-84495000D02*
X149930000Y-82320000D01*
X149970000Y-80240000D02*
X149970000Y-78062000D01*
X149970000Y-84498000D02*
X149970000Y-82320000D01*
X150010000Y-80240000D02*
X150010000Y-78058000D01*
X150010000Y-84502000D02*
X150010000Y-82320000D01*
X150050000Y-84504000D02*
X150050000Y-78056000D01*
X150090000Y-84507000D02*
X150090000Y-78053000D01*
X150130000Y-84508000D02*
X150130000Y-78052000D01*
X150170000Y-84510000D02*
X150170000Y-78050000D01*
X150210000Y-84510000D02*
X150210000Y-78050000D01*
X150250000Y-84510000D02*
X150250000Y-78050000D01*
X153520000Y-81280000D02*
G75*
G03*
X153520000Y-81280000I-3270000J0D01*
G01*
X153520000Y-81280000D02*
X153520000Y-70280000D01*
X146980000Y-81280000D02*
X146980000Y-70280000D01*
X153520000Y-70280000D02*
X146980000Y-70280000D01*
G04 #@! TO.C,C8*
X172071500Y-83412000D02*
X172071500Y-74922000D01*
X179511500Y-83412000D02*
X179511500Y-74922000D01*
X179511500Y-74922000D02*
X172071500Y-74922000D01*
X179511500Y-83412000D02*
X172071500Y-83412000D01*
G04 #@! TO.C,C10*
X118520000Y-70280000D02*
X111980000Y-70280000D01*
X111980000Y-81280000D02*
X111980000Y-70280000D01*
X118520000Y-81280000D02*
X118520000Y-70280000D01*
X118520000Y-81280000D02*
G75*
G03*
X118520000Y-81280000I-3270000J0D01*
G01*
X115250000Y-84510000D02*
X115250000Y-78050000D01*
X115210000Y-84510000D02*
X115210000Y-78050000D01*
X115170000Y-84510000D02*
X115170000Y-78050000D01*
X115130000Y-84508000D02*
X115130000Y-78052000D01*
X115090000Y-84507000D02*
X115090000Y-78053000D01*
X115050000Y-84504000D02*
X115050000Y-78056000D01*
X115010000Y-84502000D02*
X115010000Y-82320000D01*
X115010000Y-80240000D02*
X115010000Y-78058000D01*
X114970000Y-84498000D02*
X114970000Y-82320000D01*
X114970000Y-80240000D02*
X114970000Y-78062000D01*
X114930000Y-84495000D02*
X114930000Y-82320000D01*
X114930000Y-80240000D02*
X114930000Y-78065000D01*
X114890000Y-84491000D02*
X114890000Y-82320000D01*
X114890000Y-80240000D02*
X114890000Y-78069000D01*
X114850000Y-84486000D02*
X114850000Y-82320000D01*
X114850000Y-80240000D02*
X114850000Y-78074000D01*
X114810000Y-84481000D02*
X114810000Y-82320000D01*
X114810000Y-80240000D02*
X114810000Y-78079000D01*
X114770000Y-84475000D02*
X114770000Y-82320000D01*
X114770000Y-80240000D02*
X114770000Y-78085000D01*
X114730000Y-84469000D02*
X114730000Y-82320000D01*
X114730000Y-80240000D02*
X114730000Y-78091000D01*
X114690000Y-84462000D02*
X114690000Y-82320000D01*
X114690000Y-80240000D02*
X114690000Y-78098000D01*
X114650000Y-84455000D02*
X114650000Y-82320000D01*
X114650000Y-80240000D02*
X114650000Y-78105000D01*
X114610000Y-84447000D02*
X114610000Y-82320000D01*
X114610000Y-80240000D02*
X114610000Y-78113000D01*
X114570000Y-84439000D02*
X114570000Y-82320000D01*
X114570000Y-80240000D02*
X114570000Y-78121000D01*
X114529000Y-84430000D02*
X114529000Y-82320000D01*
X114529000Y-80240000D02*
X114529000Y-78130000D01*
X114489000Y-84421000D02*
X114489000Y-82320000D01*
X114489000Y-80240000D02*
X114489000Y-78139000D01*
X114449000Y-84411000D02*
X114449000Y-82320000D01*
X114449000Y-80240000D02*
X114449000Y-78149000D01*
X114409000Y-84401000D02*
X114409000Y-82320000D01*
X114409000Y-80240000D02*
X114409000Y-78159000D01*
X114369000Y-84390000D02*
X114369000Y-82320000D01*
X114369000Y-80240000D02*
X114369000Y-78170000D01*
X114329000Y-84378000D02*
X114329000Y-82320000D01*
X114329000Y-80240000D02*
X114329000Y-78182000D01*
X114289000Y-84366000D02*
X114289000Y-82320000D01*
X114289000Y-80240000D02*
X114289000Y-78194000D01*
X114249000Y-84354000D02*
X114249000Y-82320000D01*
X114249000Y-80240000D02*
X114249000Y-78206000D01*
X114209000Y-84341000D02*
X114209000Y-82320000D01*
X114209000Y-80240000D02*
X114209000Y-78219000D01*
X114169000Y-84327000D02*
X114169000Y-82320000D01*
X114169000Y-80240000D02*
X114169000Y-78233000D01*
X114129000Y-84313000D02*
X114129000Y-82320000D01*
X114129000Y-80240000D02*
X114129000Y-78247000D01*
X114089000Y-84298000D02*
X114089000Y-82320000D01*
X114089000Y-80240000D02*
X114089000Y-78262000D01*
X114049000Y-84282000D02*
X114049000Y-82320000D01*
X114049000Y-80240000D02*
X114049000Y-78278000D01*
X114009000Y-84266000D02*
X114009000Y-82320000D01*
X114009000Y-80240000D02*
X114009000Y-78294000D01*
X113969000Y-84250000D02*
X113969000Y-82320000D01*
X113969000Y-80240000D02*
X113969000Y-78310000D01*
X113929000Y-84232000D02*
X113929000Y-82320000D01*
X113929000Y-80240000D02*
X113929000Y-78328000D01*
X113889000Y-84214000D02*
X113889000Y-82320000D01*
X113889000Y-80240000D02*
X113889000Y-78346000D01*
X113849000Y-84196000D02*
X113849000Y-82320000D01*
X113849000Y-80240000D02*
X113849000Y-78364000D01*
X113809000Y-84176000D02*
X113809000Y-82320000D01*
X113809000Y-80240000D02*
X113809000Y-78384000D01*
X113769000Y-84156000D02*
X113769000Y-82320000D01*
X113769000Y-80240000D02*
X113769000Y-78404000D01*
X113729000Y-84136000D02*
X113729000Y-82320000D01*
X113729000Y-80240000D02*
X113729000Y-78424000D01*
X113689000Y-84114000D02*
X113689000Y-82320000D01*
X113689000Y-80240000D02*
X113689000Y-78446000D01*
X113649000Y-84092000D02*
X113649000Y-82320000D01*
X113649000Y-80240000D02*
X113649000Y-78468000D01*
X113609000Y-84070000D02*
X113609000Y-82320000D01*
X113609000Y-80240000D02*
X113609000Y-78490000D01*
X113569000Y-84046000D02*
X113569000Y-82320000D01*
X113569000Y-80240000D02*
X113569000Y-78514000D01*
X113529000Y-84022000D02*
X113529000Y-82320000D01*
X113529000Y-80240000D02*
X113529000Y-78538000D01*
X113489000Y-83996000D02*
X113489000Y-82320000D01*
X113489000Y-80240000D02*
X113489000Y-78564000D01*
X113449000Y-83970000D02*
X113449000Y-82320000D01*
X113449000Y-80240000D02*
X113449000Y-78590000D01*
X113409000Y-83944000D02*
X113409000Y-82320000D01*
X113409000Y-80240000D02*
X113409000Y-78616000D01*
X113369000Y-83916000D02*
X113369000Y-82320000D01*
X113369000Y-80240000D02*
X113369000Y-78644000D01*
X113329000Y-83887000D02*
X113329000Y-82320000D01*
X113329000Y-80240000D02*
X113329000Y-78673000D01*
X113289000Y-83858000D02*
X113289000Y-82320000D01*
X113289000Y-80240000D02*
X113289000Y-78702000D01*
X113249000Y-83828000D02*
X113249000Y-82320000D01*
X113249000Y-80240000D02*
X113249000Y-78732000D01*
X113209000Y-83796000D02*
X113209000Y-82320000D01*
X113209000Y-80240000D02*
X113209000Y-78764000D01*
X113169000Y-83764000D02*
X113169000Y-82320000D01*
X113169000Y-80240000D02*
X113169000Y-78796000D01*
X113129000Y-83730000D02*
X113129000Y-82320000D01*
X113129000Y-80240000D02*
X113129000Y-78830000D01*
X113089000Y-83696000D02*
X113089000Y-82320000D01*
X113089000Y-80240000D02*
X113089000Y-78864000D01*
X113049000Y-83660000D02*
X113049000Y-82320000D01*
X113049000Y-80240000D02*
X113049000Y-78900000D01*
X113009000Y-83623000D02*
X113009000Y-82320000D01*
X113009000Y-80240000D02*
X113009000Y-78937000D01*
X112969000Y-83585000D02*
X112969000Y-82320000D01*
X112969000Y-80240000D02*
X112969000Y-78975000D01*
X112929000Y-83545000D02*
X112929000Y-79015000D01*
X112889000Y-83504000D02*
X112889000Y-79056000D01*
X112849000Y-83462000D02*
X112849000Y-79098000D01*
X112809000Y-83417000D02*
X112809000Y-79143000D01*
X112769000Y-83372000D02*
X112769000Y-79188000D01*
X112729000Y-83324000D02*
X112729000Y-79236000D01*
X112689000Y-83275000D02*
X112689000Y-79285000D01*
X112649000Y-83224000D02*
X112649000Y-79336000D01*
X112609000Y-83170000D02*
X112609000Y-79390000D01*
X112569000Y-83114000D02*
X112569000Y-79446000D01*
X112529000Y-83056000D02*
X112529000Y-79504000D01*
X112489000Y-82994000D02*
X112489000Y-79566000D01*
X112449000Y-82930000D02*
X112449000Y-79630000D01*
X112409000Y-82861000D02*
X112409000Y-79699000D01*
X112369000Y-82789000D02*
X112369000Y-79771000D01*
X112329000Y-82712000D02*
X112329000Y-79848000D01*
X112289000Y-82630000D02*
X112289000Y-79930000D01*
X112249000Y-82542000D02*
X112249000Y-80018000D01*
X112209000Y-82445000D02*
X112209000Y-80115000D01*
X112169000Y-82339000D02*
X112169000Y-80221000D01*
X112129000Y-82220000D02*
X112129000Y-80340000D01*
X112089000Y-82082000D02*
X112089000Y-80478000D01*
X112049000Y-81913000D02*
X112049000Y-80647000D01*
X112009000Y-81682000D02*
X112009000Y-80878000D01*
X118750241Y-83119000D02*
X118120241Y-83119000D01*
X118435241Y-83434000D02*
X118435241Y-82804000D01*
G04 #@! TO.C,D1*
X175968000Y-104468000D02*
X173028000Y-104468000D01*
X173028000Y-104468000D02*
X173028000Y-109908000D01*
X173028000Y-109908000D02*
X175968000Y-109908000D01*
X175968000Y-109908000D02*
X175968000Y-104468000D01*
X174498000Y-103448000D02*
X174498000Y-104468000D01*
X174498000Y-110928000D02*
X174498000Y-109908000D01*
X175968000Y-105368000D02*
X173028000Y-105368000D01*
X175968000Y-105488000D02*
X173028000Y-105488000D01*
X175968000Y-105248000D02*
X173028000Y-105248000D01*
G04 #@! TO.C,D2*
X130468000Y-71016000D02*
X130468000Y-73256000D01*
X130468000Y-73256000D02*
X134708000Y-73256000D01*
X134708000Y-73256000D02*
X134708000Y-71016000D01*
X134708000Y-71016000D02*
X130468000Y-71016000D01*
X129818000Y-72136000D02*
X130468000Y-72136000D01*
X135358000Y-72136000D02*
X134708000Y-72136000D01*
X131188000Y-71016000D02*
X131188000Y-73256000D01*
X131308000Y-71016000D02*
X131308000Y-73256000D01*
X131068000Y-71016000D02*
X131068000Y-73256000D01*
G04 #@! TO.C,Q1*
X120628000Y-78812000D02*
X124228000Y-78812000D01*
X124266478Y-78800478D02*
G75*
G03*
X122428000Y-74362000I-1838478J1838478D01*
G01*
X120589522Y-78800478D02*
G75*
G02*
X122428000Y-74362000I1838478J1838478D01*
G01*
G04 #@! TO.C,Q2*
X141456000Y-78812000D02*
X145056000Y-78812000D01*
X141417522Y-78800478D02*
G75*
G02*
X143256000Y-74362000I1838478J1838478D01*
G01*
X145094478Y-78800478D02*
G75*
G03*
X143256000Y-74362000I-1838478J1838478D01*
G01*
G04 #@! TO.C,Q3*
X121390000Y-97862000D02*
X124990000Y-97862000D01*
X121351522Y-97850478D02*
G75*
G02*
X123190000Y-93412000I1838478J1838478D01*
G01*
X125028478Y-97850478D02*
G75*
G03*
X123190000Y-93412000I-1838478J1838478D01*
G01*
G04 #@! TO.C,Q4*
X140694000Y-97862000D02*
X144294000Y-97862000D01*
X140655522Y-97850478D02*
G75*
G02*
X142494000Y-93412000I1838478J1838478D01*
G01*
X144332478Y-97850478D02*
G75*
G03*
X142494000Y-93412000I-1838478J1838478D01*
G01*
G04 #@! TO.C,Q5*
X121390000Y-108022000D02*
X124990000Y-108022000D01*
X125028478Y-108010478D02*
G75*
G03*
X123190000Y-103572000I-1838478J1838478D01*
G01*
X121351522Y-108010478D02*
G75*
G02*
X123190000Y-103572000I1838478J1838478D01*
G01*
G04 #@! TO.C,R1*
X99445000Y-71020000D02*
X99445000Y-73760000D01*
X99445000Y-73760000D02*
X105985000Y-73760000D01*
X105985000Y-73760000D02*
X105985000Y-71020000D01*
X105985000Y-71020000D02*
X99445000Y-71020000D01*
X98675000Y-72390000D02*
X99445000Y-72390000D01*
X106755000Y-72390000D02*
X105985000Y-72390000D01*
G04 #@! TO.C,R2*
X98675000Y-75692000D02*
X99445000Y-75692000D01*
X106755000Y-75692000D02*
X105985000Y-75692000D01*
X99445000Y-77062000D02*
X105985000Y-77062000D01*
X99445000Y-74322000D02*
X99445000Y-77062000D01*
X105985000Y-74322000D02*
X99445000Y-74322000D01*
X105985000Y-77062000D02*
X105985000Y-74322000D01*
G04 #@! TO.C,R3*
X98675000Y-78994000D02*
X99445000Y-78994000D01*
X106755000Y-78994000D02*
X105985000Y-78994000D01*
X99445000Y-80364000D02*
X105985000Y-80364000D01*
X99445000Y-77624000D02*
X99445000Y-80364000D01*
X105985000Y-77624000D02*
X99445000Y-77624000D01*
X105985000Y-80364000D02*
X105985000Y-77624000D01*
G04 #@! TO.C,R4*
X99409500Y-80989500D02*
X99409500Y-83729500D01*
X99409500Y-83729500D02*
X105949500Y-83729500D01*
X105949500Y-83729500D02*
X105949500Y-80989500D01*
X105949500Y-80989500D02*
X99409500Y-80989500D01*
X98639500Y-82359500D02*
X99409500Y-82359500D01*
X106719500Y-82359500D02*
X105949500Y-82359500D01*
G04 #@! TO.C,R5*
X98576000Y-85598000D02*
X99346000Y-85598000D01*
X106656000Y-85598000D02*
X105886000Y-85598000D01*
X99346000Y-86968000D02*
X105886000Y-86968000D01*
X99346000Y-84228000D02*
X99346000Y-86968000D01*
X105886000Y-84228000D02*
X99346000Y-84228000D01*
X105886000Y-86968000D02*
X105886000Y-84228000D01*
G04 #@! TO.C,R6*
X99346000Y-87530000D02*
X99346000Y-90270000D01*
X99346000Y-90270000D02*
X105886000Y-90270000D01*
X105886000Y-90270000D02*
X105886000Y-87530000D01*
X105886000Y-87530000D02*
X99346000Y-87530000D01*
X98576000Y-88900000D02*
X99346000Y-88900000D01*
X106656000Y-88900000D02*
X105886000Y-88900000D01*
G04 #@! TO.C,R7*
X99346000Y-90832000D02*
X99346000Y-93572000D01*
X99346000Y-93572000D02*
X105886000Y-93572000D01*
X105886000Y-93572000D02*
X105886000Y-90832000D01*
X105886000Y-90832000D02*
X99346000Y-90832000D01*
X98576000Y-92202000D02*
X99346000Y-92202000D01*
X106656000Y-92202000D02*
X105886000Y-92202000D01*
G04 #@! TO.C,R8*
X106656000Y-95504000D02*
X105886000Y-95504000D01*
X98576000Y-95504000D02*
X99346000Y-95504000D01*
X105886000Y-94134000D02*
X99346000Y-94134000D01*
X105886000Y-96874000D02*
X105886000Y-94134000D01*
X99346000Y-96874000D02*
X105886000Y-96874000D01*
X99346000Y-94134000D02*
X99346000Y-96874000D01*
G04 #@! TO.C,R9*
X105886000Y-100176000D02*
X105886000Y-97436000D01*
X105886000Y-97436000D02*
X99346000Y-97436000D01*
X99346000Y-97436000D02*
X99346000Y-100176000D01*
X99346000Y-100176000D02*
X105886000Y-100176000D01*
X106656000Y-98806000D02*
X105886000Y-98806000D01*
X98576000Y-98806000D02*
X99346000Y-98806000D01*
G04 #@! TO.C,R10*
X93118000Y-97504000D02*
X95858000Y-97504000D01*
X95858000Y-97504000D02*
X95858000Y-90964000D01*
X95858000Y-90964000D02*
X93118000Y-90964000D01*
X93118000Y-90964000D02*
X93118000Y-97504000D01*
X94488000Y-98274000D02*
X94488000Y-97504000D01*
X94488000Y-90194000D02*
X94488000Y-90964000D01*
G04 #@! TO.C,R11*
X111276000Y-86614000D02*
X112046000Y-86614000D01*
X119356000Y-86614000D02*
X118586000Y-86614000D01*
X112046000Y-87984000D02*
X118586000Y-87984000D01*
X112046000Y-85244000D02*
X112046000Y-87984000D01*
X118586000Y-85244000D02*
X112046000Y-85244000D01*
X118586000Y-87984000D02*
X118586000Y-85244000D01*
G04 #@! TO.C,R12*
X92556000Y-90964000D02*
X89816000Y-90964000D01*
X89816000Y-90964000D02*
X89816000Y-97504000D01*
X89816000Y-97504000D02*
X92556000Y-97504000D01*
X92556000Y-97504000D02*
X92556000Y-90964000D01*
X91186000Y-90194000D02*
X91186000Y-90964000D01*
X91186000Y-98274000D02*
X91186000Y-97504000D01*
G04 #@! TO.C,R13*
X92556000Y-103664000D02*
X89816000Y-103664000D01*
X89816000Y-103664000D02*
X89816000Y-110204000D01*
X89816000Y-110204000D02*
X92556000Y-110204000D01*
X92556000Y-110204000D02*
X92556000Y-103664000D01*
X91186000Y-102894000D02*
X91186000Y-103664000D01*
X91186000Y-110974000D02*
X91186000Y-110204000D01*
G04 #@! TO.C,R14*
X94488000Y-102894000D02*
X94488000Y-103664000D01*
X94488000Y-110974000D02*
X94488000Y-110204000D01*
X93118000Y-103664000D02*
X93118000Y-110204000D01*
X95858000Y-103664000D02*
X93118000Y-103664000D01*
X95858000Y-110204000D02*
X95858000Y-103664000D01*
X93118000Y-110204000D02*
X95858000Y-110204000D01*
G04 #@! TO.C,R15*
X169572000Y-110204000D02*
X172312000Y-110204000D01*
X172312000Y-110204000D02*
X172312000Y-103664000D01*
X172312000Y-103664000D02*
X169572000Y-103664000D01*
X169572000Y-103664000D02*
X169572000Y-110204000D01*
X170942000Y-110974000D02*
X170942000Y-110204000D01*
X170942000Y-102894000D02*
X170942000Y-103664000D01*
G04 #@! TO.C,R16*
X119356000Y-90424000D02*
X118586000Y-90424000D01*
X111276000Y-90424000D02*
X112046000Y-90424000D01*
X118586000Y-89054000D02*
X112046000Y-89054000D01*
X118586000Y-91794000D02*
X118586000Y-89054000D01*
X112046000Y-91794000D02*
X118586000Y-91794000D01*
X112046000Y-89054000D02*
X112046000Y-91794000D01*
G04 #@! TO.C,R17*
X153384000Y-91794000D02*
X153384000Y-89054000D01*
X153384000Y-89054000D02*
X146844000Y-89054000D01*
X146844000Y-89054000D02*
X146844000Y-91794000D01*
X146844000Y-91794000D02*
X153384000Y-91794000D01*
X154154000Y-90424000D02*
X153384000Y-90424000D01*
X146074000Y-90424000D02*
X146844000Y-90424000D01*
G04 #@! TO.C,R18*
X174244000Y-90194000D02*
X174244000Y-90964000D01*
X174244000Y-98274000D02*
X174244000Y-97504000D01*
X172874000Y-90964000D02*
X172874000Y-97504000D01*
X175614000Y-90964000D02*
X172874000Y-90964000D01*
X175614000Y-97504000D02*
X175614000Y-90964000D01*
X172874000Y-97504000D02*
X175614000Y-97504000D01*
G04 #@! TO.C,R19*
X170942000Y-90194000D02*
X170942000Y-90964000D01*
X170942000Y-98274000D02*
X170942000Y-97504000D01*
X169572000Y-90964000D02*
X169572000Y-97504000D01*
X172312000Y-90964000D02*
X169572000Y-90964000D01*
X172312000Y-97504000D02*
X172312000Y-90964000D01*
X169572000Y-97504000D02*
X172312000Y-97504000D01*
G04 #@! TO.C,R20*
X146844000Y-85244000D02*
X146844000Y-87984000D01*
X146844000Y-87984000D02*
X153384000Y-87984000D01*
X153384000Y-87984000D02*
X153384000Y-85244000D01*
X153384000Y-85244000D02*
X146844000Y-85244000D01*
X146074000Y-86614000D02*
X146844000Y-86614000D01*
X154154000Y-86614000D02*
X153384000Y-86614000D01*
G04 #@! TO.C,R21*
X166854000Y-72390000D02*
X166084000Y-72390000D01*
X158774000Y-72390000D02*
X159544000Y-72390000D01*
X166084000Y-71020000D02*
X159544000Y-71020000D01*
X166084000Y-73760000D02*
X166084000Y-71020000D01*
X159544000Y-73760000D02*
X166084000Y-73760000D01*
X159544000Y-71020000D02*
X159544000Y-73760000D01*
G04 #@! TO.C,R22*
X166854000Y-75692000D02*
X166084000Y-75692000D01*
X158774000Y-75692000D02*
X159544000Y-75692000D01*
X166084000Y-74322000D02*
X159544000Y-74322000D01*
X166084000Y-77062000D02*
X166084000Y-74322000D01*
X159544000Y-77062000D02*
X166084000Y-77062000D01*
X159544000Y-74322000D02*
X159544000Y-77062000D01*
G04 #@! TO.C,R23*
X166854000Y-78994000D02*
X166084000Y-78994000D01*
X158774000Y-78994000D02*
X159544000Y-78994000D01*
X166084000Y-77624000D02*
X159544000Y-77624000D01*
X166084000Y-80364000D02*
X166084000Y-77624000D01*
X159544000Y-80364000D02*
X166084000Y-80364000D01*
X159544000Y-77624000D02*
X159544000Y-80364000D01*
G04 #@! TO.C,R24*
X159544000Y-80926000D02*
X159544000Y-83666000D01*
X159544000Y-83666000D02*
X166084000Y-83666000D01*
X166084000Y-83666000D02*
X166084000Y-80926000D01*
X166084000Y-80926000D02*
X159544000Y-80926000D01*
X158774000Y-82296000D02*
X159544000Y-82296000D01*
X166854000Y-82296000D02*
X166084000Y-82296000D01*
G04 #@! TO.C,R25*
X166854000Y-85598000D02*
X166084000Y-85598000D01*
X158774000Y-85598000D02*
X159544000Y-85598000D01*
X166084000Y-84228000D02*
X159544000Y-84228000D01*
X166084000Y-86968000D02*
X166084000Y-84228000D01*
X159544000Y-86968000D02*
X166084000Y-86968000D01*
X159544000Y-84228000D02*
X159544000Y-86968000D01*
G04 #@! TO.C,R26*
X159544000Y-87530000D02*
X159544000Y-90270000D01*
X159544000Y-90270000D02*
X166084000Y-90270000D01*
X166084000Y-90270000D02*
X166084000Y-87530000D01*
X166084000Y-87530000D02*
X159544000Y-87530000D01*
X158774000Y-88900000D02*
X159544000Y-88900000D01*
X166854000Y-88900000D02*
X166084000Y-88900000D01*
G04 #@! TO.C,R27*
X159544000Y-90832000D02*
X159544000Y-93572000D01*
X159544000Y-93572000D02*
X166084000Y-93572000D01*
X166084000Y-93572000D02*
X166084000Y-90832000D01*
X166084000Y-90832000D02*
X159544000Y-90832000D01*
X158774000Y-92202000D02*
X159544000Y-92202000D01*
X166854000Y-92202000D02*
X166084000Y-92202000D01*
G04 #@! TO.C,R28*
X166854000Y-95504000D02*
X166084000Y-95504000D01*
X158774000Y-95504000D02*
X159544000Y-95504000D01*
X166084000Y-94134000D02*
X159544000Y-94134000D01*
X166084000Y-96874000D02*
X166084000Y-94134000D01*
X159544000Y-96874000D02*
X166084000Y-96874000D01*
X159544000Y-94134000D02*
X159544000Y-96874000D01*
G04 #@! TO.C,RV1*
X127745000Y-86620000D02*
X127745000Y-82755000D01*
X127745000Y-78245000D02*
X127745000Y-74380000D01*
X137685000Y-86620000D02*
X137685000Y-82755000D01*
X137685000Y-78245000D02*
X137685000Y-74380000D01*
X127745000Y-86620000D02*
X129344000Y-86620000D01*
X131086000Y-86620000D02*
X131845000Y-86620000D01*
X133586000Y-86620000D02*
X134345000Y-86620000D01*
X136085000Y-86620000D02*
X137685000Y-86620000D01*
X127745000Y-74380000D02*
X137685000Y-74380000D01*
G04 #@! TO.C,U1*
X107855000Y-101610000D02*
X97575000Y-101610000D01*
X107855000Y-112010000D02*
X107855000Y-101610000D01*
X97575000Y-112010000D02*
X107855000Y-112010000D01*
X97575000Y-101610000D02*
X97575000Y-112010000D01*
X105365000Y-101670000D02*
X103715000Y-101670000D01*
X105365000Y-111950000D02*
X105365000Y-101670000D01*
X100065000Y-111950000D02*
X105365000Y-111950000D01*
X100065000Y-101670000D02*
X100065000Y-111950000D01*
X101715000Y-101670000D02*
X100065000Y-101670000D01*
X103715000Y-101670000D02*
G75*
G02*
X101715000Y-101670000I-1000000J0D01*
G01*
G04 #@! TO.C,U2*
X131715000Y-99762000D02*
X130065000Y-99762000D01*
X130065000Y-99762000D02*
X130065000Y-110042000D01*
X130065000Y-110042000D02*
X135365000Y-110042000D01*
X135365000Y-110042000D02*
X135365000Y-99762000D01*
X135365000Y-99762000D02*
X133715000Y-99762000D01*
X127575000Y-99702000D02*
X127575000Y-110102000D01*
X127575000Y-110102000D02*
X137855000Y-110102000D01*
X137855000Y-110102000D02*
X137855000Y-99702000D01*
X137855000Y-99702000D02*
X127575000Y-99702000D01*
X133715000Y-99762000D02*
G75*
G02*
X131715000Y-99762000I-1000000J0D01*
G01*
G04 #@! TO.C,U3*
X161715000Y-101670000D02*
X160065000Y-101670000D01*
X160065000Y-101670000D02*
X160065000Y-111950000D01*
X160065000Y-111950000D02*
X165365000Y-111950000D01*
X165365000Y-111950000D02*
X165365000Y-101670000D01*
X165365000Y-101670000D02*
X163715000Y-101670000D01*
X157575000Y-101610000D02*
X157575000Y-112010000D01*
X157575000Y-112010000D02*
X167855000Y-112010000D01*
X167855000Y-112010000D02*
X167855000Y-101610000D01*
X167855000Y-101610000D02*
X157575000Y-101610000D01*
X163715000Y-101670000D02*
G75*
G02*
X161715000Y-101670000I-1000000J0D01*
G01*
G04 #@! TO.C,RV2*
X137600000Y-98980000D02*
X127830000Y-98980000D01*
X137600000Y-89210000D02*
X127830000Y-89210000D01*
X127830000Y-89210000D02*
X127830000Y-98980000D01*
X137600000Y-89210000D02*
X137600000Y-98980000D01*
G04 #@! TO.C,R29*
D10*
X162171142Y-99258380D02*
X161837809Y-98782190D01*
X161599714Y-99258380D02*
X161599714Y-98258380D01*
X161980666Y-98258380D01*
X162075904Y-98306000D01*
X162123523Y-98353619D01*
X162171142Y-98448857D01*
X162171142Y-98591714D01*
X162123523Y-98686952D01*
X162075904Y-98734571D01*
X161980666Y-98782190D01*
X161599714Y-98782190D01*
X162552095Y-98353619D02*
X162599714Y-98306000D01*
X162694952Y-98258380D01*
X162933047Y-98258380D01*
X163028285Y-98306000D01*
X163075904Y-98353619D01*
X163123523Y-98448857D01*
X163123523Y-98544095D01*
X163075904Y-98686952D01*
X162504476Y-99258380D01*
X163123523Y-99258380D01*
X163599714Y-99258380D02*
X163790190Y-99258380D01*
X163885428Y-99210761D01*
X163933047Y-99163142D01*
X164028285Y-99020285D01*
X164075904Y-98829809D01*
X164075904Y-98448857D01*
X164028285Y-98353619D01*
X163980666Y-98306000D01*
X163885428Y-98258380D01*
X163694952Y-98258380D01*
X163599714Y-98306000D01*
X163552095Y-98353619D01*
X163504476Y-98448857D01*
X163504476Y-98686952D01*
X163552095Y-98782190D01*
X163599714Y-98829809D01*
X163694952Y-98877428D01*
X163885428Y-98877428D01*
X163980666Y-98829809D01*
X164028285Y-98782190D01*
X164075904Y-98686952D01*
G04 #@! TO.C,C2*
X89535333Y-79859142D02*
X89487714Y-79906761D01*
X89344857Y-79954380D01*
X89249619Y-79954380D01*
X89106761Y-79906761D01*
X89011523Y-79811523D01*
X88963904Y-79716285D01*
X88916285Y-79525809D01*
X88916285Y-79382952D01*
X88963904Y-79192476D01*
X89011523Y-79097238D01*
X89106761Y-79002000D01*
X89249619Y-78954380D01*
X89344857Y-78954380D01*
X89487714Y-79002000D01*
X89535333Y-79049619D01*
X89916285Y-79049619D02*
X89963904Y-79002000D01*
X90059142Y-78954380D01*
X90297238Y-78954380D01*
X90392476Y-79002000D01*
X90440095Y-79049619D01*
X90487714Y-79144857D01*
X90487714Y-79240095D01*
X90440095Y-79382952D01*
X89868666Y-79954380D01*
X90487714Y-79954380D01*
G04 #@! TO.C,C4*
X149987333Y-107291142D02*
X149939714Y-107338761D01*
X149796857Y-107386380D01*
X149701619Y-107386380D01*
X149558761Y-107338761D01*
X149463523Y-107243523D01*
X149415904Y-107148285D01*
X149368285Y-106957809D01*
X149368285Y-106814952D01*
X149415904Y-106624476D01*
X149463523Y-106529238D01*
X149558761Y-106434000D01*
X149701619Y-106386380D01*
X149796857Y-106386380D01*
X149939714Y-106434000D01*
X149987333Y-106481619D01*
X150844476Y-106719714D02*
X150844476Y-107386380D01*
X150606380Y-106338761D02*
X150368285Y-107053047D01*
X150987333Y-107053047D01*
G04 #@! TO.C,C5*
X114935333Y-107291142D02*
X114887714Y-107338761D01*
X114744857Y-107386380D01*
X114649619Y-107386380D01*
X114506761Y-107338761D01*
X114411523Y-107243523D01*
X114363904Y-107148285D01*
X114316285Y-106957809D01*
X114316285Y-106814952D01*
X114363904Y-106624476D01*
X114411523Y-106529238D01*
X114506761Y-106434000D01*
X114649619Y-106386380D01*
X114744857Y-106386380D01*
X114887714Y-106434000D01*
X114935333Y-106481619D01*
X115840095Y-106386380D02*
X115363904Y-106386380D01*
X115316285Y-106862571D01*
X115363904Y-106814952D01*
X115459142Y-106767333D01*
X115697238Y-106767333D01*
X115792476Y-106814952D01*
X115840095Y-106862571D01*
X115887714Y-106957809D01*
X115887714Y-107195904D01*
X115840095Y-107291142D01*
X115792476Y-107338761D01*
X115697238Y-107386380D01*
X115459142Y-107386380D01*
X115363904Y-107338761D01*
X115316285Y-107291142D01*
G04 #@! TO.C,C7*
X150063333Y-73001142D02*
X150015714Y-73048761D01*
X149872857Y-73096380D01*
X149777619Y-73096380D01*
X149634761Y-73048761D01*
X149539523Y-72953523D01*
X149491904Y-72858285D01*
X149444285Y-72667809D01*
X149444285Y-72524952D01*
X149491904Y-72334476D01*
X149539523Y-72239238D01*
X149634761Y-72144000D01*
X149777619Y-72096380D01*
X149872857Y-72096380D01*
X150015714Y-72144000D01*
X150063333Y-72191619D01*
X150396666Y-72096380D02*
X151063333Y-72096380D01*
X150634761Y-73096380D01*
G04 #@! TO.C,C8*
X175624833Y-79859142D02*
X175577214Y-79906761D01*
X175434357Y-79954380D01*
X175339119Y-79954380D01*
X175196261Y-79906761D01*
X175101023Y-79811523D01*
X175053404Y-79716285D01*
X175005785Y-79525809D01*
X175005785Y-79382952D01*
X175053404Y-79192476D01*
X175101023Y-79097238D01*
X175196261Y-79002000D01*
X175339119Y-78954380D01*
X175434357Y-78954380D01*
X175577214Y-79002000D01*
X175624833Y-79049619D01*
X176196261Y-79382952D02*
X176101023Y-79335333D01*
X176053404Y-79287714D01*
X176005785Y-79192476D01*
X176005785Y-79144857D01*
X176053404Y-79049619D01*
X176101023Y-79002000D01*
X176196261Y-78954380D01*
X176386738Y-78954380D01*
X176481976Y-79002000D01*
X176529595Y-79049619D01*
X176577214Y-79144857D01*
X176577214Y-79192476D01*
X176529595Y-79287714D01*
X176481976Y-79335333D01*
X176386738Y-79382952D01*
X176196261Y-79382952D01*
X176101023Y-79430571D01*
X176053404Y-79478190D01*
X176005785Y-79573428D01*
X176005785Y-79763904D01*
X176053404Y-79859142D01*
X176101023Y-79906761D01*
X176196261Y-79954380D01*
X176386738Y-79954380D01*
X176481976Y-79906761D01*
X176529595Y-79859142D01*
X176577214Y-79763904D01*
X176577214Y-79573428D01*
X176529595Y-79478190D01*
X176481976Y-79430571D01*
X176386738Y-79382952D01*
G04 #@! TO.C,C10*
X114607142Y-73001142D02*
X114559523Y-73048761D01*
X114416666Y-73096380D01*
X114321428Y-73096380D01*
X114178571Y-73048761D01*
X114083333Y-72953523D01*
X114035714Y-72858285D01*
X113988095Y-72667809D01*
X113988095Y-72524952D01*
X114035714Y-72334476D01*
X114083333Y-72239238D01*
X114178571Y-72144000D01*
X114321428Y-72096380D01*
X114416666Y-72096380D01*
X114559523Y-72144000D01*
X114607142Y-72191619D01*
X115559523Y-73096380D02*
X114988095Y-73096380D01*
X115273809Y-73096380D02*
X115273809Y-72096380D01*
X115178571Y-72239238D01*
X115083333Y-72334476D01*
X114988095Y-72382095D01*
X116178571Y-72096380D02*
X116273809Y-72096380D01*
X116369047Y-72144000D01*
X116416666Y-72191619D01*
X116464285Y-72286857D01*
X116511904Y-72477333D01*
X116511904Y-72715428D01*
X116464285Y-72905904D01*
X116416666Y-73001142D01*
X116369047Y-73048761D01*
X116273809Y-73096380D01*
X116178571Y-73096380D01*
X116083333Y-73048761D01*
X116035714Y-73001142D01*
X115988095Y-72905904D01*
X115940476Y-72715428D01*
X115940476Y-72477333D01*
X115988095Y-72286857D01*
X116035714Y-72191619D01*
X116083333Y-72144000D01*
X116178571Y-72096380D01*
G04 #@! TO.C,D1*
X174797381Y-108267094D02*
X173797381Y-108267094D01*
X173797381Y-108028999D01*
X173845001Y-107886141D01*
X173940239Y-107790903D01*
X174035477Y-107743284D01*
X174225953Y-107695665D01*
X174368810Y-107695665D01*
X174559286Y-107743284D01*
X174654524Y-107790903D01*
X174749762Y-107886141D01*
X174797381Y-108028999D01*
X174797381Y-108267094D01*
X174797381Y-106743284D02*
X174797381Y-107314713D01*
X174797381Y-107028999D02*
X173797381Y-107028999D01*
X173940239Y-107124237D01*
X174035477Y-107219475D01*
X174083096Y-107314713D01*
G04 #@! TO.C,D2*
X131986903Y-72527379D02*
X131986903Y-71527379D01*
X132224999Y-71527379D01*
X132367856Y-71574999D01*
X132463094Y-71670237D01*
X132510713Y-71765475D01*
X132558332Y-71955951D01*
X132558332Y-72098808D01*
X132510713Y-72289284D01*
X132463094Y-72384522D01*
X132367856Y-72479760D01*
X132224999Y-72527379D01*
X131986903Y-72527379D01*
X132939284Y-71622618D02*
X132986903Y-71574999D01*
X133082141Y-71527379D01*
X133320237Y-71527379D01*
X133415475Y-71574999D01*
X133463094Y-71622618D01*
X133510713Y-71717856D01*
X133510713Y-71813094D01*
X133463094Y-71955951D01*
X132891665Y-72527379D01*
X133510713Y-72527379D01*
G04 #@! TO.C,Q1*
X122332761Y-73949619D02*
X122237523Y-73902000D01*
X122142285Y-73806761D01*
X121999428Y-73663904D01*
X121904190Y-73616285D01*
X121808952Y-73616285D01*
X121856571Y-73854380D02*
X121761333Y-73806761D01*
X121666095Y-73711523D01*
X121618476Y-73521047D01*
X121618476Y-73187714D01*
X121666095Y-72997238D01*
X121761333Y-72902000D01*
X121856571Y-72854380D01*
X122047047Y-72854380D01*
X122142285Y-72902000D01*
X122237523Y-72997238D01*
X122285142Y-73187714D01*
X122285142Y-73521047D01*
X122237523Y-73711523D01*
X122142285Y-73806761D01*
X122047047Y-73854380D01*
X121856571Y-73854380D01*
X123237523Y-73854380D02*
X122666095Y-73854380D01*
X122951809Y-73854380D02*
X122951809Y-72854380D01*
X122856571Y-72997238D01*
X122761333Y-73092476D01*
X122666095Y-73140095D01*
G04 #@! TO.C,Q2*
X143160761Y-73949619D02*
X143065523Y-73902000D01*
X142970285Y-73806761D01*
X142827428Y-73663904D01*
X142732190Y-73616285D01*
X142636952Y-73616285D01*
X142684571Y-73854380D02*
X142589333Y-73806761D01*
X142494095Y-73711523D01*
X142446476Y-73521047D01*
X142446476Y-73187714D01*
X142494095Y-72997238D01*
X142589333Y-72902000D01*
X142684571Y-72854380D01*
X142875047Y-72854380D01*
X142970285Y-72902000D01*
X143065523Y-72997238D01*
X143113142Y-73187714D01*
X143113142Y-73521047D01*
X143065523Y-73711523D01*
X142970285Y-73806761D01*
X142875047Y-73854380D01*
X142684571Y-73854380D01*
X143494095Y-72949619D02*
X143541714Y-72902000D01*
X143636952Y-72854380D01*
X143875047Y-72854380D01*
X143970285Y-72902000D01*
X144017904Y-72949619D01*
X144065523Y-73044857D01*
X144065523Y-73140095D01*
X144017904Y-73282952D01*
X143446476Y-73854380D01*
X144065523Y-73854380D01*
G04 #@! TO.C,Q3*
X123094761Y-92999619D02*
X122999523Y-92952000D01*
X122904285Y-92856761D01*
X122761428Y-92713904D01*
X122666190Y-92666285D01*
X122570952Y-92666285D01*
X122618571Y-92904380D02*
X122523333Y-92856761D01*
X122428095Y-92761523D01*
X122380476Y-92571047D01*
X122380476Y-92237714D01*
X122428095Y-92047238D01*
X122523333Y-91952000D01*
X122618571Y-91904380D01*
X122809047Y-91904380D01*
X122904285Y-91952000D01*
X122999523Y-92047238D01*
X123047142Y-92237714D01*
X123047142Y-92571047D01*
X122999523Y-92761523D01*
X122904285Y-92856761D01*
X122809047Y-92904380D01*
X122618571Y-92904380D01*
X123380476Y-91904380D02*
X123999523Y-91904380D01*
X123666190Y-92285333D01*
X123809047Y-92285333D01*
X123904285Y-92332952D01*
X123951904Y-92380571D01*
X123999523Y-92475809D01*
X123999523Y-92713904D01*
X123951904Y-92809142D01*
X123904285Y-92856761D01*
X123809047Y-92904380D01*
X123523333Y-92904380D01*
X123428095Y-92856761D01*
X123380476Y-92809142D01*
G04 #@! TO.C,Q4*
X142398761Y-92999619D02*
X142303523Y-92952000D01*
X142208285Y-92856761D01*
X142065428Y-92713904D01*
X141970190Y-92666285D01*
X141874952Y-92666285D01*
X141922571Y-92904380D02*
X141827333Y-92856761D01*
X141732095Y-92761523D01*
X141684476Y-92571047D01*
X141684476Y-92237714D01*
X141732095Y-92047238D01*
X141827333Y-91952000D01*
X141922571Y-91904380D01*
X142113047Y-91904380D01*
X142208285Y-91952000D01*
X142303523Y-92047238D01*
X142351142Y-92237714D01*
X142351142Y-92571047D01*
X142303523Y-92761523D01*
X142208285Y-92856761D01*
X142113047Y-92904380D01*
X141922571Y-92904380D01*
X143208285Y-92237714D02*
X143208285Y-92904380D01*
X142970190Y-91856761D02*
X142732095Y-92571047D01*
X143351142Y-92571047D01*
G04 #@! TO.C,Q5*
X123094761Y-103159619D02*
X122999523Y-103112000D01*
X122904285Y-103016761D01*
X122761428Y-102873904D01*
X122666190Y-102826285D01*
X122570952Y-102826285D01*
X122618571Y-103064380D02*
X122523333Y-103016761D01*
X122428095Y-102921523D01*
X122380476Y-102731047D01*
X122380476Y-102397714D01*
X122428095Y-102207238D01*
X122523333Y-102112000D01*
X122618571Y-102064380D01*
X122809047Y-102064380D01*
X122904285Y-102112000D01*
X122999523Y-102207238D01*
X123047142Y-102397714D01*
X123047142Y-102731047D01*
X122999523Y-102921523D01*
X122904285Y-103016761D01*
X122809047Y-103064380D01*
X122618571Y-103064380D01*
X123951904Y-102064380D02*
X123475714Y-102064380D01*
X123428095Y-102540571D01*
X123475714Y-102492952D01*
X123570952Y-102445333D01*
X123809047Y-102445333D01*
X123904285Y-102492952D01*
X123951904Y-102540571D01*
X123999523Y-102635809D01*
X123999523Y-102873904D01*
X123951904Y-102969142D01*
X123904285Y-103016761D01*
X123809047Y-103064380D01*
X123570952Y-103064380D01*
X123475714Y-103016761D01*
X123428095Y-102969142D01*
G04 #@! TO.C,R1*
X102548333Y-72715379D02*
X102215000Y-72239189D01*
X101976904Y-72715379D02*
X101976904Y-71715379D01*
X102357857Y-71715379D01*
X102453095Y-71762999D01*
X102500714Y-71810618D01*
X102548333Y-71905856D01*
X102548333Y-72048713D01*
X102500714Y-72143951D01*
X102453095Y-72191570D01*
X102357857Y-72239189D01*
X101976904Y-72239189D01*
X103500714Y-72715379D02*
X102929285Y-72715379D01*
X103215000Y-72715379D02*
X103215000Y-71715379D01*
X103119761Y-71858237D01*
X103024523Y-71953475D01*
X102929285Y-72001094D01*
G04 #@! TO.C,R2*
X102548333Y-76243381D02*
X102215000Y-75767191D01*
X101976904Y-76243381D02*
X101976904Y-75243381D01*
X102357857Y-75243381D01*
X102453095Y-75291001D01*
X102500714Y-75338620D01*
X102548333Y-75433858D01*
X102548333Y-75576715D01*
X102500714Y-75671953D01*
X102453095Y-75719572D01*
X102357857Y-75767191D01*
X101976904Y-75767191D01*
X102929285Y-75338620D02*
X102976904Y-75291001D01*
X103072142Y-75243381D01*
X103310238Y-75243381D01*
X103405476Y-75291001D01*
X103453095Y-75338620D01*
X103500714Y-75433858D01*
X103500714Y-75529096D01*
X103453095Y-75671953D01*
X102881666Y-76243381D01*
X103500714Y-76243381D01*
G04 #@! TO.C,R3*
X102548333Y-79379381D02*
X102215000Y-78903191D01*
X101976904Y-79379381D02*
X101976904Y-78379381D01*
X102357857Y-78379381D01*
X102453095Y-78427001D01*
X102500714Y-78474620D01*
X102548333Y-78569858D01*
X102548333Y-78712715D01*
X102500714Y-78807953D01*
X102453095Y-78855572D01*
X102357857Y-78903191D01*
X101976904Y-78903191D01*
X102881666Y-78379381D02*
X103500714Y-78379381D01*
X103167380Y-78760334D01*
X103310238Y-78760334D01*
X103405476Y-78807953D01*
X103453095Y-78855572D01*
X103500714Y-78950810D01*
X103500714Y-79188905D01*
X103453095Y-79284143D01*
X103405476Y-79331762D01*
X103310238Y-79379381D01*
X103024523Y-79379381D01*
X102929285Y-79331762D01*
X102881666Y-79284143D01*
G04 #@! TO.C,R4*
X102512833Y-82726879D02*
X102179500Y-82250689D01*
X101941404Y-82726879D02*
X101941404Y-81726879D01*
X102322357Y-81726879D01*
X102417595Y-81774499D01*
X102465214Y-81822118D01*
X102512833Y-81917356D01*
X102512833Y-82060213D01*
X102465214Y-82155451D01*
X102417595Y-82203070D01*
X102322357Y-82250689D01*
X101941404Y-82250689D01*
X103369976Y-82060213D02*
X103369976Y-82726879D01*
X103131880Y-81679260D02*
X102893785Y-82393546D01*
X103512833Y-82393546D01*
G04 #@! TO.C,R5*
X102418334Y-85983381D02*
X102085001Y-85507191D01*
X101846905Y-85983381D02*
X101846905Y-84983381D01*
X102227858Y-84983381D01*
X102323096Y-85031001D01*
X102370715Y-85078620D01*
X102418334Y-85173858D01*
X102418334Y-85316715D01*
X102370715Y-85411953D01*
X102323096Y-85459572D01*
X102227858Y-85507191D01*
X101846905Y-85507191D01*
X103323096Y-84983381D02*
X102846905Y-84983381D01*
X102799286Y-85459572D01*
X102846905Y-85411953D01*
X102942143Y-85364334D01*
X103180239Y-85364334D01*
X103275477Y-85411953D01*
X103323096Y-85459572D01*
X103370715Y-85554810D01*
X103370715Y-85792905D01*
X103323096Y-85888143D01*
X103275477Y-85935762D01*
X103180239Y-85983381D01*
X102942143Y-85983381D01*
X102846905Y-85935762D01*
X102799286Y-85888143D01*
G04 #@! TO.C,R6*
X102449333Y-89179379D02*
X102116000Y-88703189D01*
X101877904Y-89179379D02*
X101877904Y-88179379D01*
X102258857Y-88179379D01*
X102354095Y-88226999D01*
X102401714Y-88274618D01*
X102449333Y-88369856D01*
X102449333Y-88512713D01*
X102401714Y-88607951D01*
X102354095Y-88655570D01*
X102258857Y-88703189D01*
X101877904Y-88703189D01*
X103306476Y-88179379D02*
X103116000Y-88179379D01*
X103020761Y-88226999D01*
X102973142Y-88274618D01*
X102877904Y-88417475D01*
X102830285Y-88607951D01*
X102830285Y-88988903D01*
X102877904Y-89084141D01*
X102925523Y-89131760D01*
X103020761Y-89179379D01*
X103211238Y-89179379D01*
X103306476Y-89131760D01*
X103354095Y-89084141D01*
X103401714Y-88988903D01*
X103401714Y-88750808D01*
X103354095Y-88655570D01*
X103306476Y-88607951D01*
X103211238Y-88560332D01*
X103020761Y-88560332D01*
X102925523Y-88607951D01*
X102877904Y-88655570D01*
X102830285Y-88750808D01*
G04 #@! TO.C,R7*
X102449333Y-92541379D02*
X102116000Y-92065189D01*
X101877904Y-92541379D02*
X101877904Y-91541379D01*
X102258857Y-91541379D01*
X102354095Y-91588999D01*
X102401714Y-91636618D01*
X102449333Y-91731856D01*
X102449333Y-91874713D01*
X102401714Y-91969951D01*
X102354095Y-92017570D01*
X102258857Y-92065189D01*
X101877904Y-92065189D01*
X102782666Y-91541379D02*
X103449333Y-91541379D01*
X103020761Y-92541379D01*
G04 #@! TO.C,R8*
X102449333Y-96111379D02*
X102116000Y-95635189D01*
X101877904Y-96111379D02*
X101877904Y-95111379D01*
X102258857Y-95111379D01*
X102354095Y-95158999D01*
X102401714Y-95206618D01*
X102449333Y-95301856D01*
X102449333Y-95444713D01*
X102401714Y-95539951D01*
X102354095Y-95587570D01*
X102258857Y-95635189D01*
X101877904Y-95635189D01*
X103020761Y-95539951D02*
X102925523Y-95492332D01*
X102877904Y-95444713D01*
X102830285Y-95349475D01*
X102830285Y-95301856D01*
X102877904Y-95206618D01*
X102925523Y-95158999D01*
X103020761Y-95111379D01*
X103211238Y-95111379D01*
X103306476Y-95158999D01*
X103354095Y-95206618D01*
X103401714Y-95301856D01*
X103401714Y-95349475D01*
X103354095Y-95444713D01*
X103306476Y-95492332D01*
X103211238Y-95539951D01*
X103020761Y-95539951D01*
X102925523Y-95587570D01*
X102877904Y-95635189D01*
X102830285Y-95730427D01*
X102830285Y-95920903D01*
X102877904Y-96016141D01*
X102925523Y-96063760D01*
X103020761Y-96111379D01*
X103211238Y-96111379D01*
X103306476Y-96063760D01*
X103354095Y-96016141D01*
X103401714Y-95920903D01*
X103401714Y-95730427D01*
X103354095Y-95635189D01*
X103306476Y-95587570D01*
X103211238Y-95539951D01*
G04 #@! TO.C,R9*
X102449333Y-99287381D02*
X102116000Y-98811191D01*
X101877904Y-99287381D02*
X101877904Y-98287381D01*
X102258857Y-98287381D01*
X102354095Y-98335001D01*
X102401714Y-98382620D01*
X102449333Y-98477858D01*
X102449333Y-98620715D01*
X102401714Y-98715953D01*
X102354095Y-98763572D01*
X102258857Y-98811191D01*
X101877904Y-98811191D01*
X102925523Y-99287381D02*
X103116000Y-99287381D01*
X103211238Y-99239762D01*
X103258857Y-99192143D01*
X103354095Y-99049286D01*
X103401714Y-98858810D01*
X103401714Y-98477858D01*
X103354095Y-98382620D01*
X103306476Y-98335001D01*
X103211238Y-98287381D01*
X103020761Y-98287381D01*
X102925523Y-98335001D01*
X102877904Y-98382620D01*
X102830285Y-98477858D01*
X102830285Y-98715953D01*
X102877904Y-98811191D01*
X102925523Y-98858810D01*
X103020761Y-98906429D01*
X103211238Y-98906429D01*
X103306476Y-98858810D01*
X103354095Y-98811191D01*
X103401714Y-98715953D01*
G04 #@! TO.C,R10*
X94939379Y-94876857D02*
X94463189Y-95210190D01*
X94939379Y-95448285D02*
X93939379Y-95448285D01*
X93939379Y-95067333D01*
X93986999Y-94972095D01*
X94034618Y-94924476D01*
X94129856Y-94876857D01*
X94272713Y-94876857D01*
X94367951Y-94924476D01*
X94415570Y-94972095D01*
X94463189Y-95067333D01*
X94463189Y-95448285D01*
X94939379Y-93924476D02*
X94939379Y-94495904D01*
X94939379Y-94210190D02*
X93939379Y-94210190D01*
X94082237Y-94305428D01*
X94177475Y-94400666D01*
X94225094Y-94495904D01*
X93939379Y-93305428D02*
X93939379Y-93210190D01*
X93986999Y-93114952D01*
X94034618Y-93067333D01*
X94129856Y-93019714D01*
X94320332Y-92972095D01*
X94558427Y-92972095D01*
X94748903Y-93019714D01*
X94844141Y-93067333D01*
X94891760Y-93114952D01*
X94939379Y-93210190D01*
X94939379Y-93305428D01*
X94891760Y-93400666D01*
X94844141Y-93448285D01*
X94748903Y-93495904D01*
X94558427Y-93543523D01*
X94320332Y-93543523D01*
X94129856Y-93495904D01*
X94034618Y-93448285D01*
X93986999Y-93400666D01*
X93939379Y-93305428D01*
G04 #@! TO.C,R11*
X114688143Y-87137381D02*
X114354810Y-86661191D01*
X114116715Y-87137381D02*
X114116715Y-86137381D01*
X114497667Y-86137381D01*
X114592905Y-86185001D01*
X114640524Y-86232620D01*
X114688143Y-86327858D01*
X114688143Y-86470715D01*
X114640524Y-86565953D01*
X114592905Y-86613572D01*
X114497667Y-86661191D01*
X114116715Y-86661191D01*
X115640524Y-87137381D02*
X115069096Y-87137381D01*
X115354810Y-87137381D02*
X115354810Y-86137381D01*
X115259572Y-86280239D01*
X115164334Y-86375477D01*
X115069096Y-86423096D01*
X116592905Y-87137381D02*
X116021477Y-87137381D01*
X116307191Y-87137381D02*
X116307191Y-86137381D01*
X116211953Y-86280239D01*
X116116715Y-86375477D01*
X116021477Y-86423096D01*
G04 #@! TO.C,R12*
X91737381Y-94876857D02*
X91261191Y-95210190D01*
X91737381Y-95448285D02*
X90737381Y-95448285D01*
X90737381Y-95067333D01*
X90785001Y-94972095D01*
X90832620Y-94924476D01*
X90927858Y-94876857D01*
X91070715Y-94876857D01*
X91165953Y-94924476D01*
X91213572Y-94972095D01*
X91261191Y-95067333D01*
X91261191Y-95448285D01*
X91737381Y-93924476D02*
X91737381Y-94495904D01*
X91737381Y-94210190D02*
X90737381Y-94210190D01*
X90880239Y-94305428D01*
X90975477Y-94400666D01*
X91023096Y-94495904D01*
X90832620Y-93543523D02*
X90785001Y-93495904D01*
X90737381Y-93400666D01*
X90737381Y-93162571D01*
X90785001Y-93067333D01*
X90832620Y-93019714D01*
X90927858Y-92972095D01*
X91023096Y-92972095D01*
X91165953Y-93019714D01*
X91737381Y-93591142D01*
X91737381Y-92972095D01*
G04 #@! TO.C,R13*
X91695381Y-107576857D02*
X91219191Y-107910190D01*
X91695381Y-108148285D02*
X90695381Y-108148285D01*
X90695381Y-107767333D01*
X90743001Y-107672095D01*
X90790620Y-107624476D01*
X90885858Y-107576857D01*
X91028715Y-107576857D01*
X91123953Y-107624476D01*
X91171572Y-107672095D01*
X91219191Y-107767333D01*
X91219191Y-108148285D01*
X91695381Y-106624476D02*
X91695381Y-107195904D01*
X91695381Y-106910190D02*
X90695381Y-106910190D01*
X90838239Y-107005428D01*
X90933477Y-107100666D01*
X90981096Y-107195904D01*
X90695381Y-106291142D02*
X90695381Y-105672095D01*
X91076334Y-106005428D01*
X91076334Y-105862571D01*
X91123953Y-105767333D01*
X91171572Y-105719714D01*
X91266810Y-105672095D01*
X91504905Y-105672095D01*
X91600143Y-105719714D01*
X91647762Y-105767333D01*
X91695381Y-105862571D01*
X91695381Y-106148285D01*
X91647762Y-106243523D01*
X91600143Y-106291142D01*
G04 #@! TO.C,R14*
X94795379Y-107576857D02*
X94319189Y-107910190D01*
X94795379Y-108148285D02*
X93795379Y-108148285D01*
X93795379Y-107767333D01*
X93842999Y-107672095D01*
X93890618Y-107624476D01*
X93985856Y-107576857D01*
X94128713Y-107576857D01*
X94223951Y-107624476D01*
X94271570Y-107672095D01*
X94319189Y-107767333D01*
X94319189Y-108148285D01*
X94795379Y-106624476D02*
X94795379Y-107195904D01*
X94795379Y-106910190D02*
X93795379Y-106910190D01*
X93938237Y-107005428D01*
X94033475Y-107100666D01*
X94081094Y-107195904D01*
X94128713Y-105767333D02*
X94795379Y-105767333D01*
X93747760Y-106005428D02*
X94462046Y-106243523D01*
X94462046Y-105624476D01*
G04 #@! TO.C,R15*
X171407379Y-107576857D02*
X170931189Y-107910190D01*
X171407379Y-108148285D02*
X170407379Y-108148285D01*
X170407379Y-107767333D01*
X170454999Y-107672095D01*
X170502618Y-107624476D01*
X170597856Y-107576857D01*
X170740713Y-107576857D01*
X170835951Y-107624476D01*
X170883570Y-107672095D01*
X170931189Y-107767333D01*
X170931189Y-108148285D01*
X171407379Y-106624476D02*
X171407379Y-107195904D01*
X171407379Y-106910190D02*
X170407379Y-106910190D01*
X170550237Y-107005428D01*
X170645475Y-107100666D01*
X170693094Y-107195904D01*
X170407379Y-105719714D02*
X170407379Y-106195904D01*
X170883570Y-106243523D01*
X170835951Y-106195904D01*
X170788332Y-106100666D01*
X170788332Y-105862571D01*
X170835951Y-105767333D01*
X170883570Y-105719714D01*
X170978808Y-105672095D01*
X171216903Y-105672095D01*
X171312141Y-105719714D01*
X171359760Y-105767333D01*
X171407379Y-105862571D01*
X171407379Y-106100666D01*
X171359760Y-106195904D01*
X171312141Y-106243523D01*
G04 #@! TO.C,R16*
X114673142Y-90745379D02*
X114339809Y-90269189D01*
X114101714Y-90745379D02*
X114101714Y-89745379D01*
X114482666Y-89745379D01*
X114577904Y-89792999D01*
X114625523Y-89840618D01*
X114673142Y-89935856D01*
X114673142Y-90078713D01*
X114625523Y-90173951D01*
X114577904Y-90221570D01*
X114482666Y-90269189D01*
X114101714Y-90269189D01*
X115625523Y-90745379D02*
X115054095Y-90745379D01*
X115339809Y-90745379D02*
X115339809Y-89745379D01*
X115244571Y-89888237D01*
X115149333Y-89983475D01*
X115054095Y-90031094D01*
X116482666Y-89745379D02*
X116292190Y-89745379D01*
X116196952Y-89792999D01*
X116149333Y-89840618D01*
X116054095Y-89983475D01*
X116006476Y-90173951D01*
X116006476Y-90554903D01*
X116054095Y-90650141D01*
X116101714Y-90697760D01*
X116196952Y-90745379D01*
X116387428Y-90745379D01*
X116482666Y-90697760D01*
X116530285Y-90650141D01*
X116577904Y-90554903D01*
X116577904Y-90316808D01*
X116530285Y-90221570D01*
X116482666Y-90173951D01*
X116387428Y-90126332D01*
X116196952Y-90126332D01*
X116101714Y-90173951D01*
X116054095Y-90221570D01*
X116006476Y-90316808D01*
G04 #@! TO.C,R17*
X149471142Y-90919381D02*
X149137809Y-90443191D01*
X148899714Y-90919381D02*
X148899714Y-89919381D01*
X149280666Y-89919381D01*
X149375904Y-89967001D01*
X149423523Y-90014620D01*
X149471142Y-90109858D01*
X149471142Y-90252715D01*
X149423523Y-90347953D01*
X149375904Y-90395572D01*
X149280666Y-90443191D01*
X148899714Y-90443191D01*
X150423523Y-90919381D02*
X149852095Y-90919381D01*
X150137809Y-90919381D02*
X150137809Y-89919381D01*
X150042571Y-90062239D01*
X149947333Y-90157477D01*
X149852095Y-90205096D01*
X150756857Y-89919381D02*
X151423523Y-89919381D01*
X150994952Y-90919381D01*
G04 #@! TO.C,R18*
X174611379Y-94876857D02*
X174135189Y-95210190D01*
X174611379Y-95448285D02*
X173611379Y-95448285D01*
X173611379Y-95067333D01*
X173658999Y-94972095D01*
X173706618Y-94924476D01*
X173801856Y-94876857D01*
X173944713Y-94876857D01*
X174039951Y-94924476D01*
X174087570Y-94972095D01*
X174135189Y-95067333D01*
X174135189Y-95448285D01*
X174611379Y-93924476D02*
X174611379Y-94495904D01*
X174611379Y-94210190D02*
X173611379Y-94210190D01*
X173754237Y-94305428D01*
X173849475Y-94400666D01*
X173897094Y-94495904D01*
X174039951Y-93353047D02*
X173992332Y-93448285D01*
X173944713Y-93495904D01*
X173849475Y-93543523D01*
X173801856Y-93543523D01*
X173706618Y-93495904D01*
X173658999Y-93448285D01*
X173611379Y-93353047D01*
X173611379Y-93162571D01*
X173658999Y-93067333D01*
X173706618Y-93019714D01*
X173801856Y-92972095D01*
X173849475Y-92972095D01*
X173944713Y-93019714D01*
X173992332Y-93067333D01*
X174039951Y-93162571D01*
X174039951Y-93353047D01*
X174087570Y-93448285D01*
X174135189Y-93495904D01*
X174230427Y-93543523D01*
X174420903Y-93543523D01*
X174516141Y-93495904D01*
X174563760Y-93448285D01*
X174611379Y-93353047D01*
X174611379Y-93162571D01*
X174563760Y-93067333D01*
X174516141Y-93019714D01*
X174420903Y-92972095D01*
X174230427Y-92972095D01*
X174135189Y-93019714D01*
X174087570Y-93067333D01*
X174039951Y-93162571D01*
G04 #@! TO.C,R19*
X171393379Y-94876857D02*
X170917189Y-95210190D01*
X171393379Y-95448285D02*
X170393379Y-95448285D01*
X170393379Y-95067333D01*
X170440999Y-94972095D01*
X170488618Y-94924476D01*
X170583856Y-94876857D01*
X170726713Y-94876857D01*
X170821951Y-94924476D01*
X170869570Y-94972095D01*
X170917189Y-95067333D01*
X170917189Y-95448285D01*
X171393379Y-93924476D02*
X171393379Y-94495904D01*
X171393379Y-94210190D02*
X170393379Y-94210190D01*
X170536237Y-94305428D01*
X170631475Y-94400666D01*
X170679094Y-94495904D01*
X171393379Y-93448285D02*
X171393379Y-93257809D01*
X171345760Y-93162571D01*
X171298141Y-93114952D01*
X171155284Y-93019714D01*
X170964808Y-92972095D01*
X170583856Y-92972095D01*
X170488618Y-93019714D01*
X170440999Y-93067333D01*
X170393379Y-93162571D01*
X170393379Y-93353047D01*
X170440999Y-93448285D01*
X170488618Y-93495904D01*
X170583856Y-93543523D01*
X170821951Y-93543523D01*
X170917189Y-93495904D01*
X170964808Y-93448285D01*
X171012427Y-93353047D01*
X171012427Y-93162571D01*
X170964808Y-93067333D01*
X170917189Y-93019714D01*
X170821951Y-92972095D01*
G04 #@! TO.C,R20*
X149508141Y-87161379D02*
X149174808Y-86685189D01*
X148936713Y-87161379D02*
X148936713Y-86161379D01*
X149317665Y-86161379D01*
X149412903Y-86208999D01*
X149460522Y-86256618D01*
X149508141Y-86351856D01*
X149508141Y-86494713D01*
X149460522Y-86589951D01*
X149412903Y-86637570D01*
X149317665Y-86685189D01*
X148936713Y-86685189D01*
X149889094Y-86256618D02*
X149936713Y-86208999D01*
X150031951Y-86161379D01*
X150270046Y-86161379D01*
X150365284Y-86208999D01*
X150412903Y-86256618D01*
X150460522Y-86351856D01*
X150460522Y-86447094D01*
X150412903Y-86589951D01*
X149841475Y-87161379D01*
X150460522Y-87161379D01*
X151079570Y-86161379D02*
X151174808Y-86161379D01*
X151270046Y-86208999D01*
X151317665Y-86256618D01*
X151365284Y-86351856D01*
X151412903Y-86542332D01*
X151412903Y-86780427D01*
X151365284Y-86970903D01*
X151317665Y-87066141D01*
X151270046Y-87113760D01*
X151174808Y-87161379D01*
X151079570Y-87161379D01*
X150984332Y-87113760D01*
X150936713Y-87066141D01*
X150889094Y-86970903D01*
X150841475Y-86780427D01*
X150841475Y-86542332D01*
X150889094Y-86351856D01*
X150936713Y-86256618D01*
X150984332Y-86208999D01*
X151079570Y-86161379D01*
G04 #@! TO.C,R21*
X162171142Y-72855379D02*
X161837809Y-72379189D01*
X161599714Y-72855379D02*
X161599714Y-71855379D01*
X161980666Y-71855379D01*
X162075904Y-71902999D01*
X162123523Y-71950618D01*
X162171142Y-72045856D01*
X162171142Y-72188713D01*
X162123523Y-72283951D01*
X162075904Y-72331570D01*
X161980666Y-72379189D01*
X161599714Y-72379189D01*
X162552095Y-71950618D02*
X162599714Y-71902999D01*
X162694952Y-71855379D01*
X162933047Y-71855379D01*
X163028285Y-71902999D01*
X163075904Y-71950618D01*
X163123523Y-72045856D01*
X163123523Y-72141094D01*
X163075904Y-72283951D01*
X162504476Y-72855379D01*
X163123523Y-72855379D01*
X164075904Y-72855379D02*
X163504476Y-72855379D01*
X163790190Y-72855379D02*
X163790190Y-71855379D01*
X163694952Y-71998237D01*
X163599714Y-72093475D01*
X163504476Y-72141094D01*
G04 #@! TO.C,R22*
X162171142Y-76239379D02*
X161837809Y-75763189D01*
X161599714Y-76239379D02*
X161599714Y-75239379D01*
X161980666Y-75239379D01*
X162075904Y-75286999D01*
X162123523Y-75334618D01*
X162171142Y-75429856D01*
X162171142Y-75572713D01*
X162123523Y-75667951D01*
X162075904Y-75715570D01*
X161980666Y-75763189D01*
X161599714Y-75763189D01*
X162552095Y-75334618D02*
X162599714Y-75286999D01*
X162694952Y-75239379D01*
X162933047Y-75239379D01*
X163028285Y-75286999D01*
X163075904Y-75334618D01*
X163123523Y-75429856D01*
X163123523Y-75525094D01*
X163075904Y-75667951D01*
X162504476Y-76239379D01*
X163123523Y-76239379D01*
X163504476Y-75334618D02*
X163552095Y-75286999D01*
X163647333Y-75239379D01*
X163885428Y-75239379D01*
X163980666Y-75286999D01*
X164028285Y-75334618D01*
X164075904Y-75429856D01*
X164075904Y-75525094D01*
X164028285Y-75667951D01*
X163456857Y-76239379D01*
X164075904Y-76239379D01*
G04 #@! TO.C,R23*
X162171142Y-79473379D02*
X161837809Y-78997189D01*
X161599714Y-79473379D02*
X161599714Y-78473379D01*
X161980666Y-78473379D01*
X162075904Y-78520999D01*
X162123523Y-78568618D01*
X162171142Y-78663856D01*
X162171142Y-78806713D01*
X162123523Y-78901951D01*
X162075904Y-78949570D01*
X161980666Y-78997189D01*
X161599714Y-78997189D01*
X162552095Y-78568618D02*
X162599714Y-78520999D01*
X162694952Y-78473379D01*
X162933047Y-78473379D01*
X163028285Y-78520999D01*
X163075904Y-78568618D01*
X163123523Y-78663856D01*
X163123523Y-78759094D01*
X163075904Y-78901951D01*
X162504476Y-79473379D01*
X163123523Y-79473379D01*
X163456857Y-78473379D02*
X164075904Y-78473379D01*
X163742571Y-78854332D01*
X163885428Y-78854332D01*
X163980666Y-78901951D01*
X164028285Y-78949570D01*
X164075904Y-79044808D01*
X164075904Y-79282903D01*
X164028285Y-79378141D01*
X163980666Y-79425760D01*
X163885428Y-79473379D01*
X163599714Y-79473379D01*
X163504476Y-79425760D01*
X163456857Y-79378141D01*
G04 #@! TO.C,R24*
X162171142Y-82829379D02*
X161837809Y-82353189D01*
X161599714Y-82829379D02*
X161599714Y-81829379D01*
X161980666Y-81829379D01*
X162075904Y-81876999D01*
X162123523Y-81924618D01*
X162171142Y-82019856D01*
X162171142Y-82162713D01*
X162123523Y-82257951D01*
X162075904Y-82305570D01*
X161980666Y-82353189D01*
X161599714Y-82353189D01*
X162552095Y-81924618D02*
X162599714Y-81876999D01*
X162694952Y-81829379D01*
X162933047Y-81829379D01*
X163028285Y-81876999D01*
X163075904Y-81924618D01*
X163123523Y-82019856D01*
X163123523Y-82115094D01*
X163075904Y-82257951D01*
X162504476Y-82829379D01*
X163123523Y-82829379D01*
X163980666Y-82162713D02*
X163980666Y-82829379D01*
X163742571Y-81781760D02*
X163504476Y-82496046D01*
X164123523Y-82496046D01*
G04 #@! TO.C,R25*
X162171142Y-85979379D02*
X161837809Y-85503189D01*
X161599714Y-85979379D02*
X161599714Y-84979379D01*
X161980666Y-84979379D01*
X162075904Y-85026999D01*
X162123523Y-85074618D01*
X162171142Y-85169856D01*
X162171142Y-85312713D01*
X162123523Y-85407951D01*
X162075904Y-85455570D01*
X161980666Y-85503189D01*
X161599714Y-85503189D01*
X162552095Y-85074618D02*
X162599714Y-85026999D01*
X162694952Y-84979379D01*
X162933047Y-84979379D01*
X163028285Y-85026999D01*
X163075904Y-85074618D01*
X163123523Y-85169856D01*
X163123523Y-85265094D01*
X163075904Y-85407951D01*
X162504476Y-85979379D01*
X163123523Y-85979379D01*
X164028285Y-84979379D02*
X163552095Y-84979379D01*
X163504476Y-85455570D01*
X163552095Y-85407951D01*
X163647333Y-85360332D01*
X163885428Y-85360332D01*
X163980666Y-85407951D01*
X164028285Y-85455570D01*
X164075904Y-85550808D01*
X164075904Y-85788903D01*
X164028285Y-85884141D01*
X163980666Y-85931760D01*
X163885428Y-85979379D01*
X163647333Y-85979379D01*
X163552095Y-85931760D01*
X163504476Y-85884141D01*
G04 #@! TO.C,R26*
X162112141Y-89253379D02*
X161778808Y-88777189D01*
X161540713Y-89253379D02*
X161540713Y-88253379D01*
X161921665Y-88253379D01*
X162016903Y-88300999D01*
X162064522Y-88348618D01*
X162112141Y-88443856D01*
X162112141Y-88586713D01*
X162064522Y-88681951D01*
X162016903Y-88729570D01*
X161921665Y-88777189D01*
X161540713Y-88777189D01*
X162493094Y-88348618D02*
X162540713Y-88300999D01*
X162635951Y-88253379D01*
X162874046Y-88253379D01*
X162969284Y-88300999D01*
X163016903Y-88348618D01*
X163064522Y-88443856D01*
X163064522Y-88539094D01*
X163016903Y-88681951D01*
X162445475Y-89253379D01*
X163064522Y-89253379D01*
X163921665Y-88253379D02*
X163731189Y-88253379D01*
X163635951Y-88300999D01*
X163588332Y-88348618D01*
X163493094Y-88491475D01*
X163445475Y-88681951D01*
X163445475Y-89062903D01*
X163493094Y-89158141D01*
X163540713Y-89205760D01*
X163635951Y-89253379D01*
X163826427Y-89253379D01*
X163921665Y-89205760D01*
X163969284Y-89158141D01*
X164016903Y-89062903D01*
X164016903Y-88824808D01*
X163969284Y-88729570D01*
X163921665Y-88681951D01*
X163826427Y-88634332D01*
X163635951Y-88634332D01*
X163540713Y-88681951D01*
X163493094Y-88729570D01*
X163445475Y-88824808D01*
G04 #@! TO.C,R27*
X162158141Y-92527379D02*
X161824808Y-92051189D01*
X161586713Y-92527379D02*
X161586713Y-91527379D01*
X161967665Y-91527379D01*
X162062903Y-91574999D01*
X162110522Y-91622618D01*
X162158141Y-91717856D01*
X162158141Y-91860713D01*
X162110522Y-91955951D01*
X162062903Y-92003570D01*
X161967665Y-92051189D01*
X161586713Y-92051189D01*
X162539094Y-91622618D02*
X162586713Y-91574999D01*
X162681951Y-91527379D01*
X162920046Y-91527379D01*
X163015284Y-91574999D01*
X163062903Y-91622618D01*
X163110522Y-91717856D01*
X163110522Y-91813094D01*
X163062903Y-91955951D01*
X162491475Y-92527379D01*
X163110522Y-92527379D01*
X163443856Y-91527379D02*
X164110522Y-91527379D01*
X163681951Y-92527379D01*
G04 #@! TO.C,R28*
X162171142Y-95843379D02*
X161837809Y-95367189D01*
X161599714Y-95843379D02*
X161599714Y-94843379D01*
X161980666Y-94843379D01*
X162075904Y-94890999D01*
X162123523Y-94938618D01*
X162171142Y-95033856D01*
X162171142Y-95176713D01*
X162123523Y-95271951D01*
X162075904Y-95319570D01*
X161980666Y-95367189D01*
X161599714Y-95367189D01*
X162552095Y-94938618D02*
X162599714Y-94890999D01*
X162694952Y-94843379D01*
X162933047Y-94843379D01*
X163028285Y-94890999D01*
X163075904Y-94938618D01*
X163123523Y-95033856D01*
X163123523Y-95129094D01*
X163075904Y-95271951D01*
X162504476Y-95843379D01*
X163123523Y-95843379D01*
X163694952Y-95271951D02*
X163599714Y-95224332D01*
X163552095Y-95176713D01*
X163504476Y-95081475D01*
X163504476Y-95033856D01*
X163552095Y-94938618D01*
X163599714Y-94890999D01*
X163694952Y-94843379D01*
X163885428Y-94843379D01*
X163980666Y-94890999D01*
X164028285Y-94938618D01*
X164075904Y-95033856D01*
X164075904Y-95081475D01*
X164028285Y-95176713D01*
X163980666Y-95224332D01*
X163885428Y-95271951D01*
X163694952Y-95271951D01*
X163599714Y-95319570D01*
X163552095Y-95367189D01*
X163504476Y-95462427D01*
X163504476Y-95652903D01*
X163552095Y-95748141D01*
X163599714Y-95795760D01*
X163694952Y-95843379D01*
X163885428Y-95843379D01*
X163980666Y-95795760D01*
X164028285Y-95748141D01*
X164075904Y-95652903D01*
X164075904Y-95462427D01*
X164028285Y-95367189D01*
X163980666Y-95319570D01*
X163885428Y-95271951D01*
G04 #@! TO.C,RV1*
X132119761Y-80952380D02*
X131786428Y-80476190D01*
X131548333Y-80952380D02*
X131548333Y-79952380D01*
X131929285Y-79952380D01*
X132024523Y-80000000D01*
X132072142Y-80047619D01*
X132119761Y-80142857D01*
X132119761Y-80285714D01*
X132072142Y-80380952D01*
X132024523Y-80428571D01*
X131929285Y-80476190D01*
X131548333Y-80476190D01*
X132405476Y-79952380D02*
X132738809Y-80952380D01*
X133072142Y-79952380D01*
X133929285Y-80952380D02*
X133357857Y-80952380D01*
X133643571Y-80952380D02*
X133643571Y-79952380D01*
X133548333Y-80095238D01*
X133453095Y-80190476D01*
X133357857Y-80238095D01*
G04 #@! TO.C,U1*
X101953095Y-106613379D02*
X101953095Y-107422903D01*
X102000714Y-107518141D01*
X102048333Y-107565760D01*
X102143571Y-107613379D01*
X102334047Y-107613379D01*
X102429285Y-107565760D01*
X102476904Y-107518141D01*
X102524523Y-107422903D01*
X102524523Y-106613379D01*
X103524523Y-107613379D02*
X102953095Y-107613379D01*
X103238809Y-107613379D02*
X103238809Y-106613379D01*
X103143571Y-106756237D01*
X103048333Y-106851475D01*
X102953095Y-106899094D01*
G04 #@! TO.C,U2*
X131953095Y-104705379D02*
X131953095Y-105514903D01*
X132000714Y-105610141D01*
X132048333Y-105657760D01*
X132143571Y-105705379D01*
X132334047Y-105705379D01*
X132429285Y-105657760D01*
X132476904Y-105610141D01*
X132524523Y-105514903D01*
X132524523Y-104705379D01*
X132953095Y-104800618D02*
X133000714Y-104752999D01*
X133095952Y-104705379D01*
X133334047Y-104705379D01*
X133429285Y-104752999D01*
X133476904Y-104800618D01*
X133524523Y-104895856D01*
X133524523Y-104991094D01*
X133476904Y-105133951D01*
X132905476Y-105705379D01*
X133524523Y-105705379D01*
G04 #@! TO.C,U3*
X161996094Y-106613379D02*
X161996094Y-107422903D01*
X162043713Y-107518141D01*
X162091332Y-107565760D01*
X162186570Y-107613379D01*
X162377046Y-107613379D01*
X162472284Y-107565760D01*
X162519903Y-107518141D01*
X162567522Y-107422903D01*
X162567522Y-106613379D01*
X162948475Y-106613379D02*
X163567522Y-106613379D01*
X163234189Y-106994332D01*
X163377046Y-106994332D01*
X163472284Y-107041951D01*
X163519903Y-107089570D01*
X163567522Y-107184808D01*
X163567522Y-107422903D01*
X163519903Y-107518141D01*
X163472284Y-107565760D01*
X163377046Y-107613379D01*
X163091332Y-107613379D01*
X162996094Y-107565760D01*
X162948475Y-107518141D01*
G04 #@! TO.C,RV2*
X132119761Y-94547380D02*
X131786428Y-94071190D01*
X131548333Y-94547380D02*
X131548333Y-93547380D01*
X131929285Y-93547380D01*
X132024523Y-93595000D01*
X132072142Y-93642619D01*
X132119761Y-93737857D01*
X132119761Y-93880714D01*
X132072142Y-93975952D01*
X132024523Y-94023571D01*
X131929285Y-94071190D01*
X131548333Y-94071190D01*
X132405476Y-93547380D02*
X132738809Y-94547380D01*
X133072142Y-93547380D01*
X133357857Y-93642619D02*
X133405476Y-93595000D01*
X133500714Y-93547380D01*
X133738809Y-93547380D01*
X133834047Y-93595000D01*
X133881666Y-93642619D01*
X133929285Y-93737857D01*
X133929285Y-93833095D01*
X133881666Y-93975952D01*
X133310238Y-94547380D01*
X133929285Y-94547380D01*
G04 #@! TD*
M02*
