M48
; DRILL file {KiCad (5.1.7)-1} date 07/20/21 19:07:00
; FORMAT={-:-/ absolute / inch / decimal}
; #@! TF.CreationDate,2021-07-20T19:07:00-05:00
; #@! TF.GenerationSoftware,Kicad,Pcbnew,(5.1.7)-1
; #@! TF.FileFunction,Plated,1,4,PTH
FMAT,2
INCH
T1C0.0157
T2C0.0295
T3C0.0315
T4C0.0354
T5C0.0394
T6C0.0433
T7C0.0984
%
G90
G05
T1
X4.0453Y-4.7653
X4.115Y-4.545
X4.1437Y-4.763
X4.2421Y-4.7664
X4.3406Y-4.7715
X4.439Y-4.773
X4.5374Y-4.7817
X5.8Y-3.28
X5.9154Y-4.7667
X6.0138Y-4.768
X6.1122Y-4.7665
X6.12Y-3.68
X6.2106Y-4.7664
X6.3091Y-4.7633
X6.4075Y-4.7625
T2
X4.77Y-3.03
X4.82Y-3.03
X4.87Y-3.03
X4.8Y-3.78
X4.85Y-3.78
X4.9Y-3.78
X5.59Y-3.03
X5.64Y-3.03
X5.69Y-3.03
X4.8Y-4.18
X4.85Y-4.18
X4.9Y-4.18
X5.56Y-3.78
X5.61Y-3.78
X5.66Y-3.78
T3
X6.73Y-4.01
X6.73Y-4.41
X3.8439Y-2.98
X4.2439Y-2.98
X5.8661Y-3.2
X5.9646Y-3.2
X3.4331Y-3.2457
X3.63Y-3.2457
X6.86Y-3.51
X6.86Y-3.91
X6.21Y-3.11
X6.61Y-3.11
X3.72Y-3.51
X3.72Y-3.91
X3.8439Y-2.85
X4.2439Y-2.85
X6.2561Y-4.0551
X6.2561Y-4.1551
X6.2561Y-4.2551
X6.2561Y-4.3551
X6.5561Y-4.0551
X6.5561Y-4.1551
X6.5561Y-4.2551
X6.5561Y-4.3551
X4.4331Y-3.9703
X4.63Y-3.9703
X6.21Y-2.98
X6.61Y-2.98
X5.71Y-3.41
X6.11Y-3.41
X3.59Y-3.51
X3.59Y-3.91
X3.8939Y-4.0551
X3.8939Y-4.1551
X3.8939Y-4.2551
X3.8939Y-4.3551
X4.1939Y-4.0551
X4.1939Y-4.1551
X4.1939Y-4.2551
X4.1939Y-4.3551
X4.4331Y-4.3257
X4.63Y-4.3257
X6.21Y-2.85
X6.61Y-2.85
X6.8225Y-3.2457
X7.0194Y-3.2457
X3.84Y-3.5
X4.24Y-3.5
X3.72Y-4.01
X3.72Y-4.41
X3.84Y-3.76
X4.24Y-3.76
X5.125Y-3.6
X5.225Y-3.8
X5.325Y-3.6
X5.8131Y-3.9703
X6.01Y-3.9703
X6.73Y-3.51
X6.73Y-3.91
X5.07Y-2.84
X5.37Y-2.84
X6.8231Y-2.8743
X7.02Y-2.8743
X4.34Y-3.56
X4.74Y-3.56
X3.84Y-3.37
X4.24Y-3.37
X3.59Y-4.01
X3.59Y-4.41
X3.84Y-3.63
X4.24Y-3.63
X6.21Y-3.76
X6.61Y-3.76
X5.075Y-3.98
X5.075Y-4.08
X5.075Y-4.18
X5.075Y-4.28
X5.375Y-3.98
X5.375Y-4.08
X5.375Y-4.18
X5.375Y-4.28
X3.4331Y-2.8743
X3.63Y-2.8743
X6.21Y-3.5
X6.61Y-3.5
X4.4882Y-3.2
X4.5866Y-3.2
X4.34Y-3.41
X4.74Y-3.41
X3.8425Y-3.2425
X4.2425Y-3.2425
X5.71Y-3.56
X6.11Y-3.56
X6.21Y-3.63
X6.61Y-3.63
X6.21Y-3.89
X6.61Y-3.89
X6.21Y-3.37
X6.61Y-3.37
X3.84Y-3.89
X4.24Y-3.89
X3.8439Y-3.11
X4.2439Y-3.11
X5.8131Y-4.3257
X6.01Y-4.3257
X6.21Y-3.24
X6.61Y-3.24
T4
X5.9154Y-3.7402
X5.9154Y-3.8402
X4.5374Y-3.7402
X4.5374Y-3.8402
T5
X5.1266Y-3.4449
X5.225Y-3.4449
X5.3234Y-3.4449
T6
X6.87Y-4.02
X6.87Y-4.42
T7
X3.3602Y-4.8268
X7.0925Y-4.8268
T0
M30
