G04 #@! TF.GenerationSoftware,KiCad,Pcbnew,(5.1.7)-1*
G04 #@! TF.CreationDate,2021-12-23T16:21:14-06:00*
G04 #@! TF.ProjectId,FmReceiverCartridge,466d5265-6365-4697-9665-724361727472,rev?*
G04 #@! TF.SameCoordinates,Original*
G04 #@! TF.FileFunction,Soldermask,Bot*
G04 #@! TF.FilePolarity,Negative*
%FSLAX46Y46*%
G04 Gerber Fmt 4.6, Leading zero omitted, Abs format (unit mm)*
G04 Created by KiCad (PCBNEW (5.1.7)-1) date 2021-12-23 16:21:14*
%MOMM*%
%LPD*%
G01*
G04 APERTURE LIST*
%ADD10C,1.600000*%
%ADD11O,1.600000X1.600000*%
%ADD12R,1.800000X1.800000*%
%ADD13C,1.800000*%
%ADD14C,5.000000*%
%ADD15R,1.500000X7.000000*%
%ADD16C,4.000000*%
%ADD17C,1.300000*%
%ADD18R,1.600000X1.600000*%
%ADD19R,1.700000X1.700000*%
%ADD20O,1.700000X1.700000*%
%ADD21O,1.050000X1.500000*%
%ADD22R,1.050000X1.500000*%
%ADD23C,0.254000*%
%ADD24C,0.100000*%
G04 APERTURE END LIST*
D10*
G04 #@! TO.C,R11*
X110250000Y-101346000D03*
D11*
X110250000Y-91186000D03*
G04 #@! TD*
D12*
G04 #@! TO.C,D4*
X115250000Y-95000000D03*
D13*
X115250000Y-97540000D03*
G04 #@! TD*
G04 #@! TO.C,D5*
X150250000Y-97540000D03*
D12*
X150250000Y-95000000D03*
G04 #@! TD*
D14*
G04 #@! TO.C,H1*
X85350000Y-122600000D03*
G04 #@! TD*
G04 #@! TO.C,H2*
X180150000Y-122600000D03*
G04 #@! TD*
D15*
G04 #@! TO.C,J2*
X163230000Y-126000000D03*
X160690000Y-126000000D03*
X158150000Y-126000000D03*
X155610000Y-126000000D03*
X153070000Y-126000000D03*
X150530000Y-126000000D03*
X147990000Y-126000000D03*
X145450000Y-126000000D03*
X142910000Y-126000000D03*
X140370000Y-126000000D03*
X137830000Y-126000000D03*
X135290000Y-126000000D03*
X132750000Y-126000000D03*
X130210000Y-126000000D03*
X127670000Y-126000000D03*
X125130000Y-126000000D03*
X122590000Y-126000000D03*
X120050000Y-126000000D03*
X117510000Y-126000000D03*
X114970000Y-126000000D03*
X112430000Y-126000000D03*
X109890000Y-126000000D03*
X107350000Y-126000000D03*
X104810000Y-126000000D03*
X102270000Y-126000000D03*
G04 #@! TD*
D10*
G04 #@! TO.C,C4*
X92456000Y-84728000D03*
X87456000Y-84728000D03*
G04 #@! TD*
G04 #@! TO.C,C5*
X87456000Y-108096000D03*
X92456000Y-108096000D03*
G04 #@! TD*
D13*
G04 #@! TO.C,D1*
X115250000Y-82540000D03*
D12*
X115250000Y-80000000D03*
G04 #@! TD*
G04 #@! TO.C,D2*
X150250000Y-80000000D03*
D13*
X150250000Y-82540000D03*
G04 #@! TD*
D11*
G04 #@! TO.C,R4*
X110250000Y-78740000D03*
D10*
X110250000Y-88900000D03*
G04 #@! TD*
G04 #@! TO.C,R5*
X155250000Y-88900000D03*
D11*
X155250000Y-78740000D03*
G04 #@! TD*
D10*
G04 #@! TO.C,R12*
X155250000Y-91186000D03*
D11*
X155250000Y-101346000D03*
G04 #@! TD*
D10*
G04 #@! TO.C,C1*
X98000000Y-98660000D03*
X103000000Y-98660000D03*
G04 #@! TD*
D11*
G04 #@! TO.C,R1*
X145375000Y-90932000D03*
D10*
X135215000Y-90932000D03*
G04 #@! TD*
G04 #@! TO.C,R2*
X120055000Y-90932000D03*
D11*
X130215000Y-90932000D03*
G04 #@! TD*
D13*
G04 #@! TO.C,RV1*
X130215000Y-87500000D03*
X132715000Y-87500000D03*
X135215000Y-87500000D03*
D16*
X128315000Y-80500000D03*
X137115000Y-80500000D03*
G04 #@! TD*
D17*
G04 #@! TO.C,SW1*
X102500000Y-78770000D03*
X100500000Y-78770000D03*
X98500000Y-78770000D03*
X102500000Y-83770000D03*
X100500000Y-83770000D03*
X98500000Y-83770000D03*
G04 #@! TD*
G04 #@! TO.C,SW2*
X163000000Y-83770000D03*
X165000000Y-83770000D03*
X167000000Y-83770000D03*
X163000000Y-78770000D03*
X165000000Y-78770000D03*
X167000000Y-78770000D03*
G04 #@! TD*
D18*
G04 #@! TO.C,U1*
X116205000Y-108712000D03*
D11*
X149225000Y-101092000D03*
X118745000Y-108712000D03*
X146685000Y-101092000D03*
X121285000Y-108712000D03*
X144145000Y-101092000D03*
X123825000Y-108712000D03*
X141605000Y-101092000D03*
X126365000Y-108712000D03*
X139065000Y-101092000D03*
X128905000Y-108712000D03*
X136525000Y-101092000D03*
X131445000Y-108712000D03*
X133985000Y-101092000D03*
X133985000Y-108712000D03*
X131445000Y-101092000D03*
X136525000Y-108712000D03*
X128905000Y-101092000D03*
X139065000Y-108712000D03*
X126365000Y-101092000D03*
X141605000Y-108712000D03*
X123825000Y-101092000D03*
X144145000Y-108712000D03*
X121285000Y-101092000D03*
X146685000Y-108712000D03*
X118745000Y-101092000D03*
X149225000Y-108712000D03*
X116205000Y-101092000D03*
G04 #@! TD*
D19*
G04 #@! TO.C,U2*
X172720000Y-90932000D03*
D20*
X172720000Y-93472000D03*
X172720000Y-96012000D03*
X172720000Y-98552000D03*
X172720000Y-101092000D03*
X172720000Y-103632000D03*
X172720000Y-106172000D03*
X172720000Y-108712000D03*
X172720000Y-111252000D03*
X172720000Y-113792000D03*
G04 #@! TD*
D21*
G04 #@! TO.C,U3*
X100500000Y-92456000D03*
X99230000Y-92456000D03*
D22*
X101770000Y-92456000D03*
G04 #@! TD*
D23*
X165480000Y-129000000D02*
X164480000Y-130000000D01*
X101020000Y-130000000D01*
X100203000Y-129183000D01*
X100203000Y-123063000D01*
X165480000Y-123063000D01*
X165480000Y-129000000D01*
D24*
G36*
X165480000Y-129000000D02*
G01*
X164480000Y-130000000D01*
X101020000Y-130000000D01*
X100203000Y-129183000D01*
X100203000Y-123063000D01*
X165480000Y-123063000D01*
X165480000Y-129000000D01*
G37*
D23*
X89000000Y-126000000D02*
X82500000Y-126000000D01*
X82500000Y-119507000D01*
X89000000Y-119507000D01*
X89000000Y-126000000D01*
D24*
G36*
X89000000Y-126000000D02*
G01*
X82500000Y-126000000D01*
X82500000Y-119507000D01*
X89000000Y-119507000D01*
X89000000Y-126000000D01*
G37*
D23*
X182499000Y-126000000D02*
X176500000Y-126000000D01*
X176500000Y-119507000D01*
X182499000Y-119507000D01*
X182499000Y-126000000D01*
D24*
G36*
X182499000Y-126000000D02*
G01*
X176500000Y-126000000D01*
X176500000Y-119507000D01*
X182499000Y-119507000D01*
X182499000Y-126000000D01*
G37*
M02*
