G04 #@! TF.GenerationSoftware,KiCad,Pcbnew,(5.1.7)-1*
G04 #@! TF.CreationDate,2021-12-23T16:21:14-06:00*
G04 #@! TF.ProjectId,FmReceiverCartridge,466d5265-6365-4697-9665-724361727472,rev?*
G04 #@! TF.SameCoordinates,Original*
G04 #@! TF.FileFunction,Legend,Top*
G04 #@! TF.FilePolarity,Positive*
%FSLAX46Y46*%
G04 Gerber Fmt 4.6, Leading zero omitted, Abs format (unit mm)*
G04 Created by KiCad (PCBNEW (5.1.7)-1) date 2021-12-23 16:21:14*
%MOMM*%
%LPD*%
G01*
G04 APERTURE LIST*
%ADD10C,0.150000*%
%ADD11C,0.250000*%
%ADD12C,0.120000*%
%ADD13C,0.200000*%
%ADD14C,0.100000*%
%ADD15C,0.254000*%
G04 APERTURE END LIST*
D10*
X128557857Y-104409142D02*
X128557857Y-105052000D01*
X128515000Y-105180571D01*
X128429285Y-105266285D01*
X128300714Y-105309142D01*
X128215000Y-105309142D01*
X129415000Y-105309142D02*
X128986428Y-105309142D01*
X128986428Y-104409142D01*
X130229285Y-105223428D02*
X130186428Y-105266285D01*
X130057857Y-105309142D01*
X129972142Y-105309142D01*
X129843571Y-105266285D01*
X129757857Y-105180571D01*
X129715000Y-105094857D01*
X129672142Y-104923428D01*
X129672142Y-104794857D01*
X129715000Y-104623428D01*
X129757857Y-104537714D01*
X129843571Y-104452000D01*
X129972142Y-104409142D01*
X130057857Y-104409142D01*
X130186428Y-104452000D01*
X130229285Y-104494857D01*
X130872142Y-104409142D02*
X130872142Y-105052000D01*
X130829285Y-105180571D01*
X130743571Y-105266285D01*
X130615000Y-105309142D01*
X130529285Y-105309142D01*
X131729285Y-105309142D02*
X131300714Y-105309142D01*
X131300714Y-104409142D01*
X132543571Y-105223428D02*
X132500714Y-105266285D01*
X132372142Y-105309142D01*
X132286428Y-105309142D01*
X132157857Y-105266285D01*
X132072142Y-105180571D01*
X132029285Y-105094857D01*
X131986428Y-104923428D01*
X131986428Y-104794857D01*
X132029285Y-104623428D01*
X132072142Y-104537714D01*
X132157857Y-104452000D01*
X132286428Y-104409142D01*
X132372142Y-104409142D01*
X132500714Y-104452000D01*
X132543571Y-104494857D01*
X133186428Y-104409142D02*
X133186428Y-105052000D01*
X133143571Y-105180571D01*
X133057857Y-105266285D01*
X132929285Y-105309142D01*
X132843571Y-105309142D01*
X134043571Y-105309142D02*
X133615000Y-105309142D01*
X133615000Y-104409142D01*
X134857857Y-105223428D02*
X134815000Y-105266285D01*
X134686428Y-105309142D01*
X134600714Y-105309142D01*
X134472142Y-105266285D01*
X134386428Y-105180571D01*
X134343571Y-105094857D01*
X134300714Y-104923428D01*
X134300714Y-104794857D01*
X134343571Y-104623428D01*
X134386428Y-104537714D01*
X134472142Y-104452000D01*
X134600714Y-104409142D01*
X134686428Y-104409142D01*
X134815000Y-104452000D01*
X134857857Y-104494857D01*
X135500714Y-104409142D02*
X135500714Y-105052000D01*
X135457857Y-105180571D01*
X135372142Y-105266285D01*
X135243571Y-105309142D01*
X135157857Y-105309142D01*
X136357857Y-105309142D02*
X135929285Y-105309142D01*
X135929285Y-104409142D01*
X137172142Y-105223428D02*
X137129285Y-105266285D01*
X137000714Y-105309142D01*
X136915000Y-105309142D01*
X136786428Y-105266285D01*
X136700714Y-105180571D01*
X136657857Y-105094857D01*
X136615000Y-104923428D01*
X136615000Y-104794857D01*
X136657857Y-104623428D01*
X136700714Y-104537714D01*
X136786428Y-104452000D01*
X136915000Y-104409142D01*
X137000714Y-104409142D01*
X137129285Y-104452000D01*
X137172142Y-104494857D01*
D11*
X123821428Y-121177857D02*
X123321428Y-121177857D01*
X123321428Y-121963571D02*
X123321428Y-120463571D01*
X124035714Y-120463571D01*
X124607142Y-121963571D02*
X124607142Y-120463571D01*
X125107142Y-121535000D01*
X125607142Y-120463571D01*
X125607142Y-121963571D01*
X128321428Y-121963571D02*
X127821428Y-121249285D01*
X127464285Y-121963571D02*
X127464285Y-120463571D01*
X128035714Y-120463571D01*
X128178571Y-120535000D01*
X128250000Y-120606428D01*
X128321428Y-120749285D01*
X128321428Y-120963571D01*
X128250000Y-121106428D01*
X128178571Y-121177857D01*
X128035714Y-121249285D01*
X127464285Y-121249285D01*
X129535714Y-121892142D02*
X129392857Y-121963571D01*
X129107142Y-121963571D01*
X128964285Y-121892142D01*
X128892857Y-121749285D01*
X128892857Y-121177857D01*
X128964285Y-121035000D01*
X129107142Y-120963571D01*
X129392857Y-120963571D01*
X129535714Y-121035000D01*
X129607142Y-121177857D01*
X129607142Y-121320714D01*
X128892857Y-121463571D01*
X130892857Y-121892142D02*
X130750000Y-121963571D01*
X130464285Y-121963571D01*
X130321428Y-121892142D01*
X130250000Y-121820714D01*
X130178571Y-121677857D01*
X130178571Y-121249285D01*
X130250000Y-121106428D01*
X130321428Y-121035000D01*
X130464285Y-120963571D01*
X130750000Y-120963571D01*
X130892857Y-121035000D01*
X132107142Y-121892142D02*
X131964285Y-121963571D01*
X131678571Y-121963571D01*
X131535714Y-121892142D01*
X131464285Y-121749285D01*
X131464285Y-121177857D01*
X131535714Y-121035000D01*
X131678571Y-120963571D01*
X131964285Y-120963571D01*
X132107142Y-121035000D01*
X132178571Y-121177857D01*
X132178571Y-121320714D01*
X131464285Y-121463571D01*
X132821428Y-121963571D02*
X132821428Y-120963571D01*
X132821428Y-120463571D02*
X132750000Y-120535000D01*
X132821428Y-120606428D01*
X132892857Y-120535000D01*
X132821428Y-120463571D01*
X132821428Y-120606428D01*
X133392857Y-120963571D02*
X133750000Y-121963571D01*
X134107142Y-120963571D01*
X135250000Y-121892142D02*
X135107142Y-121963571D01*
X134821428Y-121963571D01*
X134678571Y-121892142D01*
X134607142Y-121749285D01*
X134607142Y-121177857D01*
X134678571Y-121035000D01*
X134821428Y-120963571D01*
X135107142Y-120963571D01*
X135250000Y-121035000D01*
X135321428Y-121177857D01*
X135321428Y-121320714D01*
X134607142Y-121463571D01*
X135964285Y-121963571D02*
X135964285Y-120963571D01*
X135964285Y-121249285D02*
X136035714Y-121106428D01*
X136107142Y-121035000D01*
X136250000Y-120963571D01*
X136392857Y-120963571D01*
X137821428Y-120463571D02*
X138321428Y-121963571D01*
X138821428Y-120463571D01*
X140107142Y-121963571D02*
X139250000Y-121963571D01*
X139678571Y-121963571D02*
X139678571Y-120463571D01*
X139535714Y-120677857D01*
X139392857Y-120820714D01*
X139250000Y-120892142D01*
X140750000Y-121820714D02*
X140821428Y-121892142D01*
X140750000Y-121963571D01*
X140678571Y-121892142D01*
X140750000Y-121820714D01*
X140750000Y-121963571D01*
X141750000Y-120463571D02*
X141892857Y-120463571D01*
X142035714Y-120535000D01*
X142107142Y-120606428D01*
X142178571Y-120749285D01*
X142250000Y-121035000D01*
X142250000Y-121392142D01*
X142178571Y-121677857D01*
X142107142Y-121820714D01*
X142035714Y-121892142D01*
X141892857Y-121963571D01*
X141750000Y-121963571D01*
X141607142Y-121892142D01*
X141535714Y-121820714D01*
X141464285Y-121677857D01*
X141392857Y-121392142D01*
X141392857Y-121035000D01*
X141464285Y-120749285D01*
X141535714Y-120606428D01*
X141607142Y-120535000D01*
X141750000Y-120463571D01*
X119000714Y-113103761D02*
X120143571Y-113103761D01*
X119572142Y-115103761D02*
X119572142Y-113103761D01*
X120810238Y-115103761D02*
X120810238Y-113103761D01*
X121667380Y-115103761D02*
X121667380Y-114056142D01*
X121572142Y-113865666D01*
X121381666Y-113770428D01*
X121095952Y-113770428D01*
X120905476Y-113865666D01*
X120810238Y-113960904D01*
X122905476Y-115103761D02*
X122715000Y-115008523D01*
X122619761Y-114913285D01*
X122524523Y-114722809D01*
X122524523Y-114151380D01*
X122619761Y-113960904D01*
X122715000Y-113865666D01*
X122905476Y-113770428D01*
X123191190Y-113770428D01*
X123381666Y-113865666D01*
X123476904Y-113960904D01*
X123572142Y-114151380D01*
X123572142Y-114722809D01*
X123476904Y-114913285D01*
X123381666Y-115008523D01*
X123191190Y-115103761D01*
X122905476Y-115103761D01*
X124429285Y-115103761D02*
X124429285Y-113770428D01*
X124429285Y-113960904D02*
X124524523Y-113865666D01*
X124715000Y-113770428D01*
X125000714Y-113770428D01*
X125191190Y-113865666D01*
X125286428Y-114056142D01*
X125286428Y-115103761D01*
X125286428Y-114056142D02*
X125381666Y-113865666D01*
X125572142Y-113770428D01*
X125857857Y-113770428D01*
X126048333Y-113865666D01*
X126143571Y-114056142D01*
X126143571Y-115103761D01*
X127953095Y-115103761D02*
X127953095Y-114056142D01*
X127857857Y-113865666D01*
X127667380Y-113770428D01*
X127286428Y-113770428D01*
X127095952Y-113865666D01*
X127953095Y-115008523D02*
X127762619Y-115103761D01*
X127286428Y-115103761D01*
X127095952Y-115008523D01*
X127000714Y-114818047D01*
X127000714Y-114627571D01*
X127095952Y-114437095D01*
X127286428Y-114341857D01*
X127762619Y-114341857D01*
X127953095Y-114246619D01*
X128810238Y-115008523D02*
X129000714Y-115103761D01*
X129381666Y-115103761D01*
X129572142Y-115008523D01*
X129667380Y-114818047D01*
X129667380Y-114722809D01*
X129572142Y-114532333D01*
X129381666Y-114437095D01*
X129095952Y-114437095D01*
X128905476Y-114341857D01*
X128810238Y-114151380D01*
X128810238Y-114056142D01*
X128905476Y-113865666D01*
X129095952Y-113770428D01*
X129381666Y-113770428D01*
X129572142Y-113865666D01*
X132048333Y-115103761D02*
X132048333Y-113103761D01*
X132715000Y-114532333D01*
X133381666Y-113103761D01*
X133381666Y-115103761D01*
X135191190Y-115008523D02*
X135000714Y-115103761D01*
X134619761Y-115103761D01*
X134429285Y-115008523D01*
X134334047Y-114913285D01*
X134238809Y-114722809D01*
X134238809Y-114151380D01*
X134334047Y-113960904D01*
X134429285Y-113865666D01*
X134619761Y-113770428D01*
X135000714Y-113770428D01*
X135191190Y-113865666D01*
X136048333Y-115103761D02*
X136048333Y-113103761D01*
X136524523Y-113103761D01*
X136810238Y-113199000D01*
X137000714Y-113389476D01*
X137095952Y-113579952D01*
X137191190Y-113960904D01*
X137191190Y-114246619D01*
X137095952Y-114627571D01*
X137000714Y-114818047D01*
X136810238Y-115008523D01*
X136524523Y-115103761D01*
X136048333Y-115103761D01*
X138334047Y-115103761D02*
X138143571Y-115008523D01*
X138048333Y-114913285D01*
X137953095Y-114722809D01*
X137953095Y-114151380D01*
X138048333Y-113960904D01*
X138143571Y-113865666D01*
X138334047Y-113770428D01*
X138619761Y-113770428D01*
X138810238Y-113865666D01*
X138905476Y-113960904D01*
X139000714Y-114151380D01*
X139000714Y-114722809D01*
X138905476Y-114913285D01*
X138810238Y-115008523D01*
X138619761Y-115103761D01*
X138334047Y-115103761D01*
X139857857Y-113770428D02*
X139857857Y-115103761D01*
X139857857Y-113960904D02*
X139953095Y-113865666D01*
X140143571Y-113770428D01*
X140429285Y-113770428D01*
X140619761Y-113865666D01*
X140715000Y-114056142D01*
X140715000Y-115103761D01*
X142524523Y-115103761D02*
X142524523Y-114056142D01*
X142429285Y-113865666D01*
X142238809Y-113770428D01*
X141857857Y-113770428D01*
X141667380Y-113865666D01*
X142524523Y-115008523D02*
X142334047Y-115103761D01*
X141857857Y-115103761D01*
X141667380Y-115008523D01*
X141572142Y-114818047D01*
X141572142Y-114627571D01*
X141667380Y-114437095D01*
X141857857Y-114341857D01*
X142334047Y-114341857D01*
X142524523Y-114246619D01*
X144334047Y-113770428D02*
X144334047Y-115389476D01*
X144238809Y-115579952D01*
X144143571Y-115675190D01*
X143953095Y-115770428D01*
X143667380Y-115770428D01*
X143476904Y-115675190D01*
X144334047Y-115008523D02*
X144143571Y-115103761D01*
X143762619Y-115103761D01*
X143572142Y-115008523D01*
X143476904Y-114913285D01*
X143381666Y-114722809D01*
X143381666Y-114151380D01*
X143476904Y-113960904D01*
X143572142Y-113865666D01*
X143762619Y-113770428D01*
X144143571Y-113770428D01*
X144334047Y-113865666D01*
X145286428Y-115103761D02*
X145286428Y-113103761D01*
X146143571Y-115103761D02*
X146143571Y-114056142D01*
X146048333Y-113865666D01*
X145857857Y-113770428D01*
X145572142Y-113770428D01*
X145381666Y-113865666D01*
X145286428Y-113960904D01*
X119810238Y-118258523D02*
X119619761Y-118353761D01*
X119238809Y-118353761D01*
X119048333Y-118258523D01*
X118953095Y-118163285D01*
X118857857Y-117972809D01*
X118857857Y-117401380D01*
X118953095Y-117210904D01*
X119048333Y-117115666D01*
X119238809Y-117020428D01*
X119619761Y-117020428D01*
X119810238Y-117115666D01*
X120953095Y-118353761D02*
X120762619Y-118258523D01*
X120667380Y-118163285D01*
X120572142Y-117972809D01*
X120572142Y-117401380D01*
X120667380Y-117210904D01*
X120762619Y-117115666D01*
X120953095Y-117020428D01*
X121238809Y-117020428D01*
X121429285Y-117115666D01*
X121524523Y-117210904D01*
X121619761Y-117401380D01*
X121619761Y-117972809D01*
X121524523Y-118163285D01*
X121429285Y-118258523D01*
X121238809Y-118353761D01*
X120953095Y-118353761D01*
X122476904Y-117020428D02*
X122476904Y-118353761D01*
X122476904Y-117210904D02*
X122572142Y-117115666D01*
X122762619Y-117020428D01*
X123048333Y-117020428D01*
X123238809Y-117115666D01*
X123334047Y-117306142D01*
X123334047Y-118353761D01*
X124191190Y-118258523D02*
X124381666Y-118353761D01*
X124762619Y-118353761D01*
X124953095Y-118258523D01*
X125048333Y-118068047D01*
X125048333Y-117972809D01*
X124953095Y-117782333D01*
X124762619Y-117687095D01*
X124476904Y-117687095D01*
X124286428Y-117591857D01*
X124191190Y-117401380D01*
X124191190Y-117306142D01*
X124286428Y-117115666D01*
X124476904Y-117020428D01*
X124762619Y-117020428D01*
X124953095Y-117115666D01*
X126191190Y-118353761D02*
X126000714Y-118258523D01*
X125905476Y-118163285D01*
X125810238Y-117972809D01*
X125810238Y-117401380D01*
X125905476Y-117210904D01*
X126000714Y-117115666D01*
X126191190Y-117020428D01*
X126476904Y-117020428D01*
X126667380Y-117115666D01*
X126762619Y-117210904D01*
X126857857Y-117401380D01*
X126857857Y-117972809D01*
X126762619Y-118163285D01*
X126667380Y-118258523D01*
X126476904Y-118353761D01*
X126191190Y-118353761D01*
X128000714Y-118353761D02*
X127810238Y-118258523D01*
X127715000Y-118068047D01*
X127715000Y-116353761D01*
X129524523Y-118258523D02*
X129334047Y-118353761D01*
X128953095Y-118353761D01*
X128762619Y-118258523D01*
X128667380Y-118068047D01*
X128667380Y-117306142D01*
X128762619Y-117115666D01*
X128953095Y-117020428D01*
X129334047Y-117020428D01*
X129524523Y-117115666D01*
X129619761Y-117306142D01*
X129619761Y-117496619D01*
X128667380Y-117687095D01*
X130476904Y-117020428D02*
X130476904Y-119020428D01*
X130476904Y-117115666D02*
X130667380Y-117020428D01*
X131048333Y-117020428D01*
X131238809Y-117115666D01*
X131334047Y-117210904D01*
X131429285Y-117401380D01*
X131429285Y-117972809D01*
X131334047Y-118163285D01*
X131238809Y-118258523D01*
X131048333Y-118353761D01*
X130667380Y-118353761D01*
X130476904Y-118258523D01*
X133048333Y-118258523D02*
X132857857Y-118353761D01*
X132476904Y-118353761D01*
X132286428Y-118258523D01*
X132191190Y-118068047D01*
X132191190Y-117306142D01*
X132286428Y-117115666D01*
X132476904Y-117020428D01*
X132857857Y-117020428D01*
X133048333Y-117115666D01*
X133143571Y-117306142D01*
X133143571Y-117496619D01*
X132191190Y-117687095D01*
X134857857Y-118353761D02*
X134857857Y-116353761D01*
X134857857Y-118258523D02*
X134667380Y-118353761D01*
X134286428Y-118353761D01*
X134095952Y-118258523D01*
X134000714Y-118163285D01*
X133905476Y-117972809D01*
X133905476Y-117401380D01*
X134000714Y-117210904D01*
X134095952Y-117115666D01*
X134286428Y-117020428D01*
X134667380Y-117020428D01*
X134857857Y-117115666D01*
X136667380Y-118353761D02*
X136667380Y-117306142D01*
X136572142Y-117115666D01*
X136381666Y-117020428D01*
X136000714Y-117020428D01*
X135810238Y-117115666D01*
X136667380Y-118258523D02*
X136476904Y-118353761D01*
X136000714Y-118353761D01*
X135810238Y-118258523D01*
X135715000Y-118068047D01*
X135715000Y-117877571D01*
X135810238Y-117687095D01*
X136000714Y-117591857D01*
X136476904Y-117591857D01*
X136667380Y-117496619D01*
X137905476Y-118353761D02*
X137715000Y-118258523D01*
X137619761Y-118068047D01*
X137619761Y-116353761D01*
X138572142Y-118258523D02*
X138762619Y-118353761D01*
X139143571Y-118353761D01*
X139334047Y-118258523D01*
X139429285Y-118068047D01*
X139429285Y-117972809D01*
X139334047Y-117782333D01*
X139143571Y-117687095D01*
X138857857Y-117687095D01*
X138667380Y-117591857D01*
X138572142Y-117401380D01*
X138572142Y-117306142D01*
X138667380Y-117115666D01*
X138857857Y-117020428D01*
X139143571Y-117020428D01*
X139334047Y-117115666D01*
X140286428Y-118163285D02*
X140381666Y-118258523D01*
X140286428Y-118353761D01*
X140191190Y-118258523D01*
X140286428Y-118163285D01*
X140286428Y-118353761D01*
X142095952Y-118258523D02*
X141905476Y-118353761D01*
X141524523Y-118353761D01*
X141334047Y-118258523D01*
X141238809Y-118163285D01*
X141143571Y-117972809D01*
X141143571Y-117401380D01*
X141238809Y-117210904D01*
X141334047Y-117115666D01*
X141524523Y-117020428D01*
X141905476Y-117020428D01*
X142095952Y-117115666D01*
X143238809Y-118353761D02*
X143048333Y-118258523D01*
X142953095Y-118163285D01*
X142857857Y-117972809D01*
X142857857Y-117401380D01*
X142953095Y-117210904D01*
X143048333Y-117115666D01*
X143238809Y-117020428D01*
X143524523Y-117020428D01*
X143715000Y-117115666D01*
X143810238Y-117210904D01*
X143905476Y-117401380D01*
X143905476Y-117972809D01*
X143810238Y-118163285D01*
X143715000Y-118258523D01*
X143524523Y-118353761D01*
X143238809Y-118353761D01*
X144762619Y-118353761D02*
X144762619Y-117020428D01*
X144762619Y-117210904D02*
X144857857Y-117115666D01*
X145048333Y-117020428D01*
X145334047Y-117020428D01*
X145524523Y-117115666D01*
X145619761Y-117306142D01*
X145619761Y-118353761D01*
X145619761Y-117306142D02*
X145715000Y-117115666D01*
X145905476Y-117020428D01*
X146191190Y-117020428D01*
X146381666Y-117115666D01*
X146476904Y-117306142D01*
X146476904Y-118353761D01*
D12*
G04 #@! TO.C,R11*
X110250000Y-92226000D02*
X110250000Y-92996000D01*
X110250000Y-100306000D02*
X110250000Y-99536000D01*
X108880000Y-92996000D02*
X108880000Y-99536000D01*
X111620000Y-92996000D02*
X108880000Y-92996000D01*
X111620000Y-99536000D02*
X111620000Y-92996000D01*
X108880000Y-99536000D02*
X111620000Y-99536000D01*
G04 #@! TO.C,D4*
X116795000Y-93710000D02*
X113705000Y-93710000D01*
X117750000Y-96270000D02*
G75*
G03*
X117750000Y-96270000I-2500000J0D01*
G01*
X115249538Y-99260000D02*
G75*
G03*
X116794830Y-93710000I462J2990000D01*
G01*
X115250462Y-99260000D02*
G75*
G02*
X113705170Y-93710000I-462J2990000D01*
G01*
G04 #@! TO.C,D5*
X152750000Y-96270000D02*
G75*
G03*
X152750000Y-96270000I-2500000J0D01*
G01*
X151795000Y-93710000D02*
X148705000Y-93710000D01*
X150250462Y-99260000D02*
G75*
G02*
X148705170Y-93710000I-462J2990000D01*
G01*
X150249538Y-99260000D02*
G75*
G03*
X151794830Y-93710000I462J2990000D01*
G01*
G04 #@! TO.C,C4*
X93676000Y-85698000D02*
X86236000Y-85698000D01*
X93676000Y-77208000D02*
X86236000Y-77208000D01*
X93676000Y-85698000D02*
X93676000Y-77208000D01*
X86236000Y-85698000D02*
X86236000Y-77208000D01*
G04 #@! TO.C,C5*
X86236000Y-109066000D02*
X86236000Y-100576000D01*
X93676000Y-109066000D02*
X93676000Y-100576000D01*
X93676000Y-100576000D02*
X86236000Y-100576000D01*
X93676000Y-109066000D02*
X86236000Y-109066000D01*
G04 #@! TO.C,D1*
X117750000Y-81270000D02*
G75*
G03*
X117750000Y-81270000I-2500000J0D01*
G01*
X116795000Y-78710000D02*
X113705000Y-78710000D01*
X115250462Y-84260000D02*
G75*
G02*
X113705170Y-78710000I-462J2990000D01*
G01*
X115249538Y-84260000D02*
G75*
G03*
X116794830Y-78710000I462J2990000D01*
G01*
G04 #@! TO.C,D2*
X151795000Y-78710000D02*
X148705000Y-78710000D01*
X152750000Y-81270000D02*
G75*
G03*
X152750000Y-81270000I-2500000J0D01*
G01*
X150249538Y-84260000D02*
G75*
G03*
X151794830Y-78710000I462J2990000D01*
G01*
X150250462Y-84260000D02*
G75*
G02*
X148705170Y-78710000I-462J2990000D01*
G01*
G04 #@! TO.C,R4*
X108880000Y-87090000D02*
X111620000Y-87090000D01*
X111620000Y-87090000D02*
X111620000Y-80550000D01*
X111620000Y-80550000D02*
X108880000Y-80550000D01*
X108880000Y-80550000D02*
X108880000Y-87090000D01*
X110250000Y-87860000D02*
X110250000Y-87090000D01*
X110250000Y-79780000D02*
X110250000Y-80550000D01*
G04 #@! TO.C,R5*
X155250000Y-79780000D02*
X155250000Y-80550000D01*
X155250000Y-87860000D02*
X155250000Y-87090000D01*
X153880000Y-80550000D02*
X153880000Y-87090000D01*
X156620000Y-80550000D02*
X153880000Y-80550000D01*
X156620000Y-87090000D02*
X156620000Y-80550000D01*
X153880000Y-87090000D02*
X156620000Y-87090000D01*
G04 #@! TO.C,R12*
X155250000Y-100306000D02*
X155250000Y-99536000D01*
X155250000Y-92226000D02*
X155250000Y-92996000D01*
X156620000Y-99536000D02*
X156620000Y-92996000D01*
X153880000Y-99536000D02*
X156620000Y-99536000D01*
X153880000Y-92996000D02*
X153880000Y-99536000D01*
X156620000Y-92996000D02*
X153880000Y-92996000D01*
G04 #@! TO.C,C1*
X104220000Y-97690000D02*
X104220000Y-108980000D01*
X96780000Y-97690000D02*
X96780000Y-108980000D01*
X96780000Y-108980000D02*
X104220000Y-108980000D01*
X96780000Y-97690000D02*
X104220000Y-97690000D01*
G04 #@! TO.C,R1*
X137025000Y-89562000D02*
X137025000Y-92302000D01*
X137025000Y-92302000D02*
X143565000Y-92302000D01*
X143565000Y-92302000D02*
X143565000Y-89562000D01*
X143565000Y-89562000D02*
X137025000Y-89562000D01*
X136255000Y-90932000D02*
X137025000Y-90932000D01*
X144335000Y-90932000D02*
X143565000Y-90932000D01*
G04 #@! TO.C,R2*
X129175000Y-90932000D02*
X128405000Y-90932000D01*
X121095000Y-90932000D02*
X121865000Y-90932000D01*
X128405000Y-89562000D02*
X121865000Y-89562000D01*
X128405000Y-92302000D02*
X128405000Y-89562000D01*
X121865000Y-92302000D02*
X128405000Y-92302000D01*
X121865000Y-89562000D02*
X121865000Y-92302000D01*
G04 #@! TO.C,RV1*
X127745000Y-74380000D02*
X137685000Y-74380000D01*
X136085000Y-86620000D02*
X137685000Y-86620000D01*
X133586000Y-86620000D02*
X134345000Y-86620000D01*
X131086000Y-86620000D02*
X131845000Y-86620000D01*
X127745000Y-86620000D02*
X129344000Y-86620000D01*
X137685000Y-78245000D02*
X137685000Y-74380000D01*
X137685000Y-86620000D02*
X137685000Y-82755000D01*
X127745000Y-78245000D02*
X127745000Y-74380000D01*
X127745000Y-86620000D02*
X127745000Y-82755000D01*
D13*
G04 #@! TO.C,SW1*
X98400000Y-85270000D02*
G75*
G03*
X98600000Y-85270000I100000J0D01*
G01*
X98600000Y-85270000D02*
G75*
G03*
X98400000Y-85270000I-100000J0D01*
G01*
D14*
X97000000Y-77770000D02*
X104000000Y-77770000D01*
X104000000Y-77770000D02*
X104000000Y-84770000D01*
X104000000Y-84770000D02*
X97000000Y-84770000D01*
X97000000Y-84770000D02*
X97000000Y-77770000D01*
D13*
X98400000Y-85270000D02*
X98400000Y-85270000D01*
X98600000Y-85270000D02*
X98600000Y-85270000D01*
G04 #@! TO.C,SW2*
X163100000Y-85270000D02*
X163100000Y-85270000D01*
X162900000Y-85270000D02*
X162900000Y-85270000D01*
D14*
X161500000Y-84770000D02*
X161500000Y-77770000D01*
X168500000Y-84770000D02*
X161500000Y-84770000D01*
X168500000Y-77770000D02*
X168500000Y-84770000D01*
X161500000Y-77770000D02*
X168500000Y-77770000D01*
D13*
X163100000Y-85270000D02*
G75*
G03*
X162900000Y-85270000I-100000J0D01*
G01*
X162900000Y-85270000D02*
G75*
G03*
X163100000Y-85270000I100000J0D01*
G01*
D12*
G04 #@! TO.C,U1*
X114875000Y-102252000D02*
X114875000Y-103902000D01*
X150555000Y-102252000D02*
X114875000Y-102252000D01*
X150555000Y-107552000D02*
X150555000Y-102252000D01*
X114875000Y-107552000D02*
X150555000Y-107552000D01*
X114875000Y-105902000D02*
X114875000Y-107552000D01*
X114875000Y-103902000D02*
G75*
G02*
X114875000Y-105902000I0J-1000000D01*
G01*
G04 #@! TO.C,U2*
X159710000Y-89352000D02*
X174300000Y-89352000D01*
X159710000Y-89352000D02*
X159710000Y-115372000D01*
X159710000Y-115372000D02*
X174300000Y-115372000D01*
X174300000Y-89352000D02*
X174300000Y-115372000D01*
G04 #@! TO.C,U3*
X102300000Y-90606000D02*
X98700000Y-90606000D01*
X102338478Y-90617522D02*
G75*
G02*
X100500000Y-95056000I-1838478J-1838478D01*
G01*
X98661522Y-90617522D02*
G75*
G03*
X100500000Y-95056000I1838478J-1838478D01*
G01*
G04 #@! TO.C,R11*
D10*
X110702380Y-96908857D02*
X110226190Y-97242190D01*
X110702380Y-97480285D02*
X109702380Y-97480285D01*
X109702380Y-97099333D01*
X109750000Y-97004095D01*
X109797619Y-96956476D01*
X109892857Y-96908857D01*
X110035714Y-96908857D01*
X110130952Y-96956476D01*
X110178571Y-97004095D01*
X110226190Y-97099333D01*
X110226190Y-97480285D01*
X110702380Y-95956476D02*
X110702380Y-96527904D01*
X110702380Y-96242190D02*
X109702380Y-96242190D01*
X109845238Y-96337428D01*
X109940476Y-96432666D01*
X109988095Y-96527904D01*
X110702380Y-95004095D02*
X110702380Y-95575523D01*
X110702380Y-95289809D02*
X109702380Y-95289809D01*
X109845238Y-95385047D01*
X109940476Y-95480285D01*
X109988095Y-95575523D01*
G04 #@! TO.C,C4*
X89789333Y-82145142D02*
X89741714Y-82192761D01*
X89598857Y-82240380D01*
X89503619Y-82240380D01*
X89360761Y-82192761D01*
X89265523Y-82097523D01*
X89217904Y-82002285D01*
X89170285Y-81811809D01*
X89170285Y-81668952D01*
X89217904Y-81478476D01*
X89265523Y-81383238D01*
X89360761Y-81288000D01*
X89503619Y-81240380D01*
X89598857Y-81240380D01*
X89741714Y-81288000D01*
X89789333Y-81335619D01*
X90646476Y-81573714D02*
X90646476Y-82240380D01*
X90408380Y-81192761D02*
X90170285Y-81907047D01*
X90789333Y-81907047D01*
G04 #@! TO.C,C5*
X89789333Y-105513142D02*
X89741714Y-105560761D01*
X89598857Y-105608380D01*
X89503619Y-105608380D01*
X89360761Y-105560761D01*
X89265523Y-105465523D01*
X89217904Y-105370285D01*
X89170285Y-105179809D01*
X89170285Y-105036952D01*
X89217904Y-104846476D01*
X89265523Y-104751238D01*
X89360761Y-104656000D01*
X89503619Y-104608380D01*
X89598857Y-104608380D01*
X89741714Y-104656000D01*
X89789333Y-104703619D01*
X90694095Y-104608380D02*
X90217904Y-104608380D01*
X90170285Y-105084571D01*
X90217904Y-105036952D01*
X90313142Y-104989333D01*
X90551238Y-104989333D01*
X90646476Y-105036952D01*
X90694095Y-105084571D01*
X90741714Y-105179809D01*
X90741714Y-105417904D01*
X90694095Y-105513142D01*
X90646476Y-105560761D01*
X90551238Y-105608380D01*
X90313142Y-105608380D01*
X90217904Y-105560761D01*
X90170285Y-105513142D01*
G04 #@! TO.C,R4*
X110702379Y-83986666D02*
X110226189Y-84320000D01*
X110702379Y-84558095D02*
X109702379Y-84558095D01*
X109702379Y-84177142D01*
X109749999Y-84081904D01*
X109797618Y-84034285D01*
X109892856Y-83986666D01*
X110035713Y-83986666D01*
X110130951Y-84034285D01*
X110178570Y-84081904D01*
X110226189Y-84177142D01*
X110226189Y-84558095D01*
X110035713Y-83129523D02*
X110702379Y-83129523D01*
X109654760Y-83367619D02*
X110369046Y-83605714D01*
X110369046Y-82986666D01*
G04 #@! TO.C,R5*
X155702379Y-83986666D02*
X155226189Y-84320000D01*
X155702379Y-84558095D02*
X154702379Y-84558095D01*
X154702379Y-84177142D01*
X154749999Y-84081904D01*
X154797618Y-84034285D01*
X154892856Y-83986666D01*
X155035713Y-83986666D01*
X155130951Y-84034285D01*
X155178570Y-84081904D01*
X155226189Y-84177142D01*
X155226189Y-84558095D01*
X154702379Y-83081904D02*
X154702379Y-83558095D01*
X155178570Y-83605714D01*
X155130951Y-83558095D01*
X155083332Y-83462857D01*
X155083332Y-83224761D01*
X155130951Y-83129523D01*
X155178570Y-83081904D01*
X155273808Y-83034285D01*
X155511903Y-83034285D01*
X155607141Y-83081904D01*
X155654760Y-83129523D01*
X155702379Y-83224761D01*
X155702379Y-83462857D01*
X155654760Y-83558095D01*
X155607141Y-83605714D01*
G04 #@! TO.C,R12*
X155802381Y-96908857D02*
X155326191Y-97242190D01*
X155802381Y-97480285D02*
X154802381Y-97480285D01*
X154802381Y-97099333D01*
X154850001Y-97004095D01*
X154897620Y-96956476D01*
X154992858Y-96908857D01*
X155135715Y-96908857D01*
X155230953Y-96956476D01*
X155278572Y-97004095D01*
X155326191Y-97099333D01*
X155326191Y-97480285D01*
X155802381Y-95956476D02*
X155802381Y-96527904D01*
X155802381Y-96242190D02*
X154802381Y-96242190D01*
X154945239Y-96337428D01*
X155040477Y-96432666D01*
X155088096Y-96527904D01*
X154897620Y-95575523D02*
X154850001Y-95527904D01*
X154802381Y-95432666D01*
X154802381Y-95194571D01*
X154850001Y-95099333D01*
X154897620Y-95051714D01*
X154992858Y-95004095D01*
X155088096Y-95004095D01*
X155230953Y-95051714D01*
X155802381Y-95623142D01*
X155802381Y-95004095D01*
G04 #@! TO.C,C1*
X100333333Y-101957142D02*
X100285714Y-102004761D01*
X100142857Y-102052380D01*
X100047619Y-102052380D01*
X99904761Y-102004761D01*
X99809523Y-101909523D01*
X99761904Y-101814285D01*
X99714285Y-101623809D01*
X99714285Y-101480952D01*
X99761904Y-101290476D01*
X99809523Y-101195238D01*
X99904761Y-101100000D01*
X100047619Y-101052380D01*
X100142857Y-101052380D01*
X100285714Y-101100000D01*
X100333333Y-101147619D01*
X101285714Y-102052380D02*
X100714285Y-102052380D01*
X101000000Y-102052380D02*
X101000000Y-101052380D01*
X100904761Y-101195238D01*
X100809523Y-101290476D01*
X100714285Y-101338095D01*
G04 #@! TO.C,R1*
X140128333Y-91245379D02*
X139795000Y-90769189D01*
X139556904Y-91245379D02*
X139556904Y-90245379D01*
X139937857Y-90245379D01*
X140033095Y-90292999D01*
X140080714Y-90340618D01*
X140128333Y-90435856D01*
X140128333Y-90578713D01*
X140080714Y-90673951D01*
X140033095Y-90721570D01*
X139937857Y-90769189D01*
X139556904Y-90769189D01*
X141080714Y-91245379D02*
X140509285Y-91245379D01*
X140795000Y-91245379D02*
X140795000Y-90245379D01*
X140699761Y-90388237D01*
X140604523Y-90483475D01*
X140509285Y-90531094D01*
G04 #@! TO.C,R2*
X124968333Y-91257379D02*
X124635000Y-90781189D01*
X124396904Y-91257379D02*
X124396904Y-90257379D01*
X124777857Y-90257379D01*
X124873095Y-90304999D01*
X124920714Y-90352618D01*
X124968333Y-90447856D01*
X124968333Y-90590713D01*
X124920714Y-90685951D01*
X124873095Y-90733570D01*
X124777857Y-90781189D01*
X124396904Y-90781189D01*
X125349285Y-90352618D02*
X125396904Y-90304999D01*
X125492142Y-90257379D01*
X125730238Y-90257379D01*
X125825476Y-90304999D01*
X125873095Y-90352618D01*
X125920714Y-90447856D01*
X125920714Y-90543094D01*
X125873095Y-90685951D01*
X125301666Y-91257379D01*
X125920714Y-91257379D01*
G04 #@! TO.C,RV1*
X132119761Y-80952380D02*
X131786428Y-80476190D01*
X131548333Y-80952380D02*
X131548333Y-79952380D01*
X131929285Y-79952380D01*
X132024523Y-80000000D01*
X132072142Y-80047619D01*
X132119761Y-80142857D01*
X132119761Y-80285714D01*
X132072142Y-80380952D01*
X132024523Y-80428571D01*
X131929285Y-80476190D01*
X131548333Y-80476190D01*
X132405476Y-79952380D02*
X132738809Y-80952380D01*
X133072142Y-79952380D01*
X133929285Y-80952380D02*
X133357857Y-80952380D01*
X133643571Y-80952380D02*
X133643571Y-79952380D01*
X133548333Y-80095238D01*
X133453095Y-80190476D01*
X133357857Y-80238095D01*
G04 #@! TO.C,SW1*
D15*
X98806666Y-81784047D02*
X98988095Y-81844523D01*
X99290476Y-81844523D01*
X99411428Y-81784047D01*
X99471904Y-81723571D01*
X99532380Y-81602619D01*
X99532380Y-81481666D01*
X99471904Y-81360714D01*
X99411428Y-81300238D01*
X99290476Y-81239761D01*
X99048571Y-81179285D01*
X98927619Y-81118809D01*
X98867142Y-81058333D01*
X98806666Y-80937380D01*
X98806666Y-80816428D01*
X98867142Y-80695476D01*
X98927619Y-80635000D01*
X99048571Y-80574523D01*
X99350952Y-80574523D01*
X99532380Y-80635000D01*
X99955714Y-80574523D02*
X100258095Y-81844523D01*
X100500000Y-80937380D01*
X100741904Y-81844523D01*
X101044285Y-80574523D01*
X102193333Y-81844523D02*
X101467619Y-81844523D01*
X101830476Y-81844523D02*
X101830476Y-80574523D01*
X101709523Y-80755952D01*
X101588571Y-80876904D01*
X101467619Y-80937380D01*
G04 #@! TO.C,SW2*
X163306666Y-81784047D02*
X163488095Y-81844523D01*
X163790476Y-81844523D01*
X163911428Y-81784047D01*
X163971904Y-81723571D01*
X164032380Y-81602619D01*
X164032380Y-81481666D01*
X163971904Y-81360714D01*
X163911428Y-81300238D01*
X163790476Y-81239761D01*
X163548571Y-81179285D01*
X163427619Y-81118809D01*
X163367142Y-81058333D01*
X163306666Y-80937380D01*
X163306666Y-80816428D01*
X163367142Y-80695476D01*
X163427619Y-80635000D01*
X163548571Y-80574523D01*
X163850952Y-80574523D01*
X164032380Y-80635000D01*
X164455714Y-80574523D02*
X164758095Y-81844523D01*
X165000000Y-80937380D01*
X165241904Y-81844523D01*
X165544285Y-80574523D01*
X165967619Y-80695476D02*
X166028095Y-80635000D01*
X166149047Y-80574523D01*
X166451428Y-80574523D01*
X166572380Y-80635000D01*
X166632857Y-80695476D01*
X166693333Y-80816428D01*
X166693333Y-80937380D01*
X166632857Y-81118809D01*
X165907142Y-81844523D01*
X166693333Y-81844523D01*
G04 #@! TO.C,U1*
D10*
X113327380Y-105663904D02*
X114136904Y-105663904D01*
X114232142Y-105616285D01*
X114279761Y-105568666D01*
X114327380Y-105473428D01*
X114327380Y-105282952D01*
X114279761Y-105187714D01*
X114232142Y-105140095D01*
X114136904Y-105092476D01*
X113327380Y-105092476D01*
X114327380Y-104092476D02*
X114327380Y-104663904D01*
X114327380Y-104378190D02*
X113327380Y-104378190D01*
X113470238Y-104473428D01*
X113565476Y-104568666D01*
X113613095Y-104663904D01*
G04 #@! TO.C,U2*
X166243095Y-87614380D02*
X166243095Y-88423904D01*
X166290714Y-88519142D01*
X166338333Y-88566761D01*
X166433571Y-88614380D01*
X166624047Y-88614380D01*
X166719285Y-88566761D01*
X166766904Y-88519142D01*
X166814523Y-88423904D01*
X166814523Y-87614380D01*
X167243095Y-87709619D02*
X167290714Y-87662000D01*
X167385952Y-87614380D01*
X167624047Y-87614380D01*
X167719285Y-87662000D01*
X167766904Y-87709619D01*
X167814523Y-87804857D01*
X167814523Y-87900095D01*
X167766904Y-88042952D01*
X167195476Y-88614380D01*
X167814523Y-88614380D01*
X167409761Y-108004857D02*
X167457380Y-107862000D01*
X167457380Y-107623904D01*
X167409761Y-107528666D01*
X167362142Y-107481047D01*
X167266904Y-107433428D01*
X167171666Y-107433428D01*
X167076428Y-107481047D01*
X167028809Y-107528666D01*
X166981190Y-107623904D01*
X166933571Y-107814380D01*
X166885952Y-107909619D01*
X166838333Y-107957238D01*
X166743095Y-108004857D01*
X166647857Y-108004857D01*
X166552619Y-107957238D01*
X166505000Y-107909619D01*
X166457380Y-107814380D01*
X166457380Y-107576285D01*
X166505000Y-107433428D01*
X167457380Y-107004857D02*
X166790714Y-107004857D01*
X166457380Y-107004857D02*
X166505000Y-107052476D01*
X166552619Y-107004857D01*
X166505000Y-106957238D01*
X166457380Y-107004857D01*
X166552619Y-107004857D01*
X166790714Y-106100095D02*
X167457380Y-106100095D01*
X166409761Y-106338190D02*
X167124047Y-106576285D01*
X167124047Y-105957238D01*
X166457380Y-105671523D02*
X166457380Y-105004857D01*
X167457380Y-105433428D01*
X166457380Y-104433428D02*
X166457380Y-104338190D01*
X166505000Y-104242952D01*
X166552619Y-104195333D01*
X166647857Y-104147714D01*
X166838333Y-104100095D01*
X167076428Y-104100095D01*
X167266904Y-104147714D01*
X167362142Y-104195333D01*
X167409761Y-104242952D01*
X167457380Y-104338190D01*
X167457380Y-104433428D01*
X167409761Y-104528666D01*
X167362142Y-104576285D01*
X167266904Y-104623904D01*
X167076428Y-104671523D01*
X166838333Y-104671523D01*
X166647857Y-104623904D01*
X166552619Y-104576285D01*
X166505000Y-104528666D01*
X166457380Y-104433428D01*
X167457380Y-103766761D02*
X166790714Y-103242952D01*
X166790714Y-103766761D02*
X167457380Y-103242952D01*
X166933571Y-102528666D02*
X166981190Y-102385809D01*
X167028809Y-102338190D01*
X167124047Y-102290571D01*
X167266904Y-102290571D01*
X167362142Y-102338190D01*
X167409761Y-102385809D01*
X167457380Y-102481047D01*
X167457380Y-102862000D01*
X166457380Y-102862000D01*
X166457380Y-102528666D01*
X166505000Y-102433428D01*
X166552619Y-102385809D01*
X166647857Y-102338190D01*
X166743095Y-102338190D01*
X166838333Y-102385809D01*
X166885952Y-102433428D01*
X166933571Y-102528666D01*
X166933571Y-102862000D01*
X167457380Y-101862000D02*
X166790714Y-101862000D01*
X166981190Y-101862000D02*
X166885952Y-101814380D01*
X166838333Y-101766761D01*
X166790714Y-101671523D01*
X166790714Y-101576285D01*
X167409761Y-100862000D02*
X167457380Y-100957238D01*
X167457380Y-101147714D01*
X167409761Y-101242952D01*
X167314523Y-101290571D01*
X166933571Y-101290571D01*
X166838333Y-101242952D01*
X166790714Y-101147714D01*
X166790714Y-100957238D01*
X166838333Y-100862000D01*
X166933571Y-100814380D01*
X167028809Y-100814380D01*
X167124047Y-101290571D01*
X167457380Y-99957238D02*
X166933571Y-99957238D01*
X166838333Y-100004857D01*
X166790714Y-100100095D01*
X166790714Y-100290571D01*
X166838333Y-100385809D01*
X167409761Y-99957238D02*
X167457380Y-100052476D01*
X167457380Y-100290571D01*
X167409761Y-100385809D01*
X167314523Y-100433428D01*
X167219285Y-100433428D01*
X167124047Y-100385809D01*
X167076428Y-100290571D01*
X167076428Y-100052476D01*
X167028809Y-99957238D01*
X167457380Y-99481047D02*
X166457380Y-99481047D01*
X167076428Y-99385809D02*
X167457380Y-99100095D01*
X166790714Y-99100095D02*
X167171666Y-99481047D01*
X167457380Y-98528666D02*
X167409761Y-98623904D01*
X167362142Y-98671523D01*
X167266904Y-98719142D01*
X166981190Y-98719142D01*
X166885952Y-98671523D01*
X166838333Y-98623904D01*
X166790714Y-98528666D01*
X166790714Y-98385809D01*
X166838333Y-98290571D01*
X166885952Y-98242952D01*
X166981190Y-98195333D01*
X167266904Y-98195333D01*
X167362142Y-98242952D01*
X167409761Y-98290571D01*
X167457380Y-98385809D01*
X167457380Y-98528666D01*
X166790714Y-97338190D02*
X167457380Y-97338190D01*
X166790714Y-97766761D02*
X167314523Y-97766761D01*
X167409761Y-97719142D01*
X167457380Y-97623904D01*
X167457380Y-97481047D01*
X167409761Y-97385809D01*
X167362142Y-97338190D01*
X166790714Y-97004857D02*
X166790714Y-96623904D01*
X166457380Y-96862000D02*
X167314523Y-96862000D01*
X167409761Y-96814380D01*
X167457380Y-96719142D01*
X167457380Y-96623904D01*
G04 #@! TO.C,U3*
X99738095Y-89114380D02*
X99738095Y-89923904D01*
X99785714Y-90019142D01*
X99833333Y-90066761D01*
X99928571Y-90114380D01*
X100119047Y-90114380D01*
X100214285Y-90066761D01*
X100261904Y-90019142D01*
X100309523Y-89923904D01*
X100309523Y-89114380D01*
X100690476Y-89114380D02*
X101309523Y-89114380D01*
X100976190Y-89495333D01*
X101119047Y-89495333D01*
X101214285Y-89542952D01*
X101261904Y-89590571D01*
X101309523Y-89685809D01*
X101309523Y-89923904D01*
X101261904Y-90019142D01*
X101214285Y-90066761D01*
X101119047Y-90114380D01*
X100833333Y-90114380D01*
X100738095Y-90066761D01*
X100690476Y-90019142D01*
G04 #@! TD*
M02*
