G04 #@! TF.GenerationSoftware,KiCad,Pcbnew,(5.1.7)-1*
G04 #@! TF.CreationDate,2021-08-29T16:11:20-05:00*
G04 #@! TF.ProjectId,ConsolePedalWah,436f6e73-6f6c-4655-9065-64616c576168,rev?*
G04 #@! TF.SameCoordinates,Original*
G04 #@! TF.FileFunction,Copper,L2,Bot*
G04 #@! TF.FilePolarity,Positive*
%FSLAX46Y46*%
G04 Gerber Fmt 4.6, Leading zero omitted, Abs format (unit mm)*
G04 Created by KiCad (PCBNEW (5.1.7)-1) date 2021-08-29 16:11:20*
%MOMM*%
%LPD*%
G01*
G04 APERTURE LIST*
G04 #@! TA.AperFunction,ComponentPad*
%ADD10R,1.800000X1.800000*%
G04 #@! TD*
G04 #@! TA.AperFunction,ComponentPad*
%ADD11C,1.800000*%
G04 #@! TD*
G04 #@! TA.AperFunction,ConnectorPad*
%ADD12R,1.500000X7.000000*%
G04 #@! TD*
G04 #@! TA.AperFunction,ComponentPad*
%ADD13C,5.000000*%
G04 #@! TD*
G04 #@! TA.AperFunction,ComponentPad*
%ADD14C,1.600000*%
G04 #@! TD*
G04 #@! TA.AperFunction,ComponentPad*
%ADD15O,1.600000X1.600000*%
G04 #@! TD*
G04 #@! TA.AperFunction,ComponentPad*
%ADD16O,1.500000X1.050000*%
G04 #@! TD*
G04 #@! TA.AperFunction,ComponentPad*
%ADD17R,1.500000X1.050000*%
G04 #@! TD*
G04 #@! TA.AperFunction,WasherPad*
%ADD18C,4.000000*%
G04 #@! TD*
G04 #@! TA.AperFunction,ComponentPad*
%ADD19R,1.600000X1.600000*%
G04 #@! TD*
G04 #@! TA.AperFunction,ViaPad*
%ADD20C,0.800000*%
G04 #@! TD*
G04 #@! TA.AperFunction,Conductor*
%ADD21C,0.500000*%
G04 #@! TD*
G04 #@! TA.AperFunction,Conductor*
%ADD22C,0.254000*%
G04 #@! TD*
G04 #@! TA.AperFunction,Conductor*
%ADD23C,0.100000*%
G04 #@! TD*
G04 APERTURE END LIST*
D10*
G04 #@! TO.P,D1,1*
G04 #@! TO.N,Net-(D1-Pad1)*
X115250000Y-95000000D03*
D11*
G04 #@! TO.P,D1,2*
G04 #@! TO.N,/LEDPower*
X115250000Y-97540000D03*
G04 #@! TD*
G04 #@! TO.P,D2,2*
G04 #@! TO.N,/LEDPower*
X150250000Y-97540000D03*
D10*
G04 #@! TO.P,D2,1*
G04 #@! TO.N,Net-(D1-Pad1)*
X150250000Y-95000000D03*
G04 #@! TD*
D12*
G04 #@! TO.P,J1,26*
G04 #@! TO.N,GND*
X102715000Y-126000000D03*
G04 #@! TO.P,J1,27*
X105215000Y-126000000D03*
G04 #@! TO.P,J1,28*
G04 #@! TO.N,/Input*
X107715000Y-126000000D03*
G04 #@! TO.P,J1,29*
G04 #@! TO.N,/Output*
X110215000Y-126000000D03*
G04 #@! TO.P,J1,30*
G04 #@! TO.N,+9V*
X112715000Y-126000000D03*
G04 #@! TO.P,J1,31*
G04 #@! TO.N,/LEDPower*
X115215000Y-126000000D03*
G04 #@! TO.P,J1,32*
G04 #@! TO.N,N/C*
X117715000Y-126000000D03*
G04 #@! TO.P,J1,33*
X120215000Y-126000000D03*
G04 #@! TO.P,J1,34*
X122715000Y-126000000D03*
G04 #@! TO.P,J1,35*
X125215000Y-126000000D03*
G04 #@! TO.P,J1,36*
X127715000Y-126000000D03*
G04 #@! TO.P,J1,37*
X130215000Y-126000000D03*
G04 #@! TO.P,J1,38*
X132715000Y-126000000D03*
G04 #@! TO.P,J1,39*
X135215000Y-126000000D03*
G04 #@! TO.P,J1,40*
X137715000Y-126000000D03*
G04 #@! TO.P,J1,41*
X140215000Y-126000000D03*
G04 #@! TO.P,J1,42*
X142715000Y-126000000D03*
G04 #@! TO.P,J1,43*
X145215000Y-126000000D03*
G04 #@! TO.P,J1,44*
X147715000Y-126000000D03*
G04 #@! TO.P,J1,45*
G04 #@! TO.N,/LEDPower*
X150215000Y-126000000D03*
G04 #@! TO.P,J1,46*
G04 #@! TO.N,+9V*
X152715000Y-126000000D03*
G04 #@! TO.P,J1,47*
G04 #@! TO.N,/Output*
X155215000Y-126000000D03*
G04 #@! TO.P,J1,48*
G04 #@! TO.N,/Input*
X157715000Y-126000000D03*
G04 #@! TO.P,J1,49*
G04 #@! TO.N,GND*
X160215000Y-126000000D03*
G04 #@! TO.P,J1,50*
X162715000Y-126000000D03*
G04 #@! TD*
D13*
G04 #@! TO.P,H1,1*
G04 #@! TO.N,GND*
X85350000Y-122600000D03*
G04 #@! TD*
G04 #@! TO.P,H2,1*
G04 #@! TO.N,GND*
X180150000Y-122600000D03*
G04 #@! TD*
D14*
G04 #@! TO.P,R8,1*
G04 #@! TO.N,GND*
X120650000Y-75565000D03*
D15*
G04 #@! TO.P,R8,2*
G04 #@! TO.N,Net-(D1-Pad1)*
X120650000Y-85725000D03*
G04 #@! TD*
D14*
G04 #@! TO.P,C1,1*
G04 #@! TO.N,Net-(C1-Pad1)*
X109220000Y-99460000D03*
G04 #@! TO.P,C1,2*
G04 #@! TO.N,/Input*
X104220000Y-99460000D03*
G04 #@! TD*
G04 #@! TO.P,C2,1*
G04 #@! TO.N,Net-(C2-Pad1)*
X128905000Y-72136000D03*
D15*
G04 #@! TO.P,C2,2*
G04 #@! TO.N,Net-(C2-Pad2)*
X136405000Y-72136000D03*
G04 #@! TD*
D14*
G04 #@! TO.P,C4,2*
G04 #@! TO.N,Net-(C4-Pad2)*
X121365000Y-99460000D03*
G04 #@! TO.P,C4,1*
G04 #@! TO.N,Net-(C2-Pad2)*
X126365000Y-99460000D03*
G04 #@! TD*
G04 #@! TO.P,C5,1*
G04 #@! TO.N,/Output*
X161925000Y-99460000D03*
G04 #@! TO.P,C5,2*
G04 #@! TO.N,Net-(C4-Pad2)*
X156925000Y-99460000D03*
G04 #@! TD*
D16*
G04 #@! TO.P,Q1,2*
G04 #@! TO.N,Net-(C2-Pad1)*
X140970000Y-97155000D03*
G04 #@! TO.P,Q1,3*
G04 #@! TO.N,Net-(C4-Pad2)*
X140970000Y-98425000D03*
D17*
G04 #@! TO.P,Q1,1*
G04 #@! TO.N,Net-(C3-Pad1)*
X140970000Y-95885000D03*
G04 #@! TD*
D14*
G04 #@! TO.P,R1,1*
G04 #@! TO.N,GND*
X114300000Y-104140000D03*
D15*
G04 #@! TO.P,R1,2*
G04 #@! TO.N,/Input*
X104140000Y-104140000D03*
G04 #@! TD*
G04 #@! TO.P,R2,2*
G04 #@! TO.N,Net-(C4-Pad2)*
X114300000Y-81280000D03*
D14*
G04 #@! TO.P,R2,1*
G04 #@! TO.N,+9V*
X104140000Y-81280000D03*
G04 #@! TD*
D15*
G04 #@! TO.P,R3,2*
G04 #@! TO.N,Net-(C2-Pad1)*
X114300000Y-88265000D03*
D14*
G04 #@! TO.P,R3,1*
G04 #@! TO.N,Net-(C1-Pad1)*
X104140000Y-88265000D03*
G04 #@! TD*
G04 #@! TO.P,R4,1*
G04 #@! TO.N,Net-(C4-Pad2)*
X144780000Y-85725000D03*
D15*
G04 #@! TO.P,R4,2*
G04 #@! TO.N,Net-(C2-Pad1)*
X144780000Y-75565000D03*
G04 #@! TD*
D14*
G04 #@! TO.P,R5,1*
G04 #@! TO.N,Net-(C2-Pad1)*
X151765000Y-88900000D03*
D15*
G04 #@! TO.P,R5,2*
G04 #@! TO.N,GND*
X161925000Y-88900000D03*
G04 #@! TD*
D14*
G04 #@! TO.P,R6,1*
G04 #@! TO.N,GND*
X161925000Y-104140000D03*
D15*
G04 #@! TO.P,R6,2*
G04 #@! TO.N,Net-(C3-Pad1)*
X151765000Y-104140000D03*
G04 #@! TD*
G04 #@! TO.P,R7,2*
G04 #@! TO.N,GND*
X161925000Y-81280000D03*
D14*
G04 #@! TO.P,R7,1*
G04 #@! TO.N,/Output*
X151765000Y-81280000D03*
G04 #@! TD*
D11*
G04 #@! TO.P,RV1,3*
G04 #@! TO.N,GND*
X130215000Y-87500000D03*
G04 #@! TO.P,RV1,2*
G04 #@! TO.N,Net-(C2-Pad2)*
X132715000Y-87500000D03*
G04 #@! TO.P,RV1,1*
X135215000Y-87500000D03*
D18*
G04 #@! TO.P,RV1,*
G04 #@! TO.N,*
X128315000Y-80500000D03*
X137115000Y-80500000D03*
G04 #@! TD*
D19*
G04 #@! TO.P,C3,1*
G04 #@! TO.N,Net-(C3-Pad1)*
X131445000Y-97790000D03*
D14*
G04 #@! TO.P,C3,2*
G04 #@! TO.N,GND*
X133945000Y-97790000D03*
G04 #@! TD*
D20*
G04 #@! TO.N,GND*
X105250000Y-120979000D03*
X160250000Y-120988000D03*
X102750000Y-121038000D03*
X162750000Y-120967000D03*
G04 #@! TO.N,/LEDPower*
X115250000Y-121454000D03*
X150250000Y-121073000D03*
G04 #@! TO.N,/Input*
X107750000Y-121066000D03*
X157750000Y-121066000D03*
G04 #@! TO.N,/Output*
X110250000Y-121195000D03*
X155250000Y-121068000D03*
G04 #@! TO.N,+9V*
X112750000Y-121235000D03*
X152750000Y-121108000D03*
G04 #@! TD*
D21*
G04 #@! TO.N,GND*
X105250000Y-126000000D02*
X105250000Y-120979000D01*
X160250000Y-126000000D02*
X160250000Y-120988000D01*
X157384969Y-118122969D02*
X160250000Y-120988000D01*
X108106031Y-118122969D02*
X157384969Y-118122969D01*
X105250000Y-120979000D02*
X108106031Y-118122969D01*
X102750000Y-126000000D02*
X102750000Y-121038000D01*
X162750000Y-120967000D02*
X162750000Y-126000000D01*
X162729000Y-120988000D02*
X162750000Y-120967000D01*
X160250000Y-120988000D02*
X162729000Y-120988000D01*
X105191000Y-121038000D02*
X105250000Y-120979000D01*
X102750000Y-121038000D02*
X105191000Y-121038000D01*
G04 #@! TO.N,/LEDPower*
X115250000Y-126000000D02*
X115250000Y-121454000D01*
X150250000Y-121073000D02*
X150250000Y-126000000D01*
X149869000Y-121454000D02*
X150250000Y-121073000D01*
X115250000Y-121454000D02*
X149869000Y-121454000D01*
G04 #@! TO.N,/Input*
X107750000Y-121066000D02*
X107750000Y-126000000D01*
X157750000Y-121066000D02*
X157750000Y-126000000D01*
X155506979Y-118822979D02*
X157750000Y-121066000D01*
X109993021Y-118822979D02*
X155506979Y-118822979D01*
X107750000Y-121066000D02*
X109993021Y-118822979D01*
G04 #@! TO.N,/Output*
X110250000Y-121195000D02*
X110250000Y-126000000D01*
X155250000Y-121068000D02*
X155250000Y-126000000D01*
X153704989Y-119522989D02*
X155250000Y-121068000D01*
X111922011Y-119522989D02*
X153704989Y-119522989D01*
X110250000Y-121195000D02*
X111922011Y-119522989D01*
G04 #@! TO.N,+9V*
X112750000Y-121235000D02*
X112750000Y-126000000D01*
X152750000Y-121108000D02*
X152750000Y-126000000D01*
X151864999Y-120222999D02*
X152750000Y-121108000D01*
X113762001Y-120222999D02*
X151864999Y-120222999D01*
X112750000Y-121235000D02*
X113762001Y-120222999D01*
G04 #@! TO.N,Net-(D1-Pad1)*
X121900001Y-84474999D02*
X120650000Y-85725000D01*
X145380001Y-84474999D02*
X121900001Y-84474999D01*
X150250000Y-89344998D02*
X145380001Y-84474999D01*
X150250000Y-95000000D02*
X150250000Y-89344998D01*
G04 #@! TO.N,Net-(C2-Pad1)*
X132334000Y-75565000D02*
X144780000Y-75565000D01*
X128905000Y-72136000D02*
X132334000Y-75565000D01*
G04 #@! TO.N,Net-(C3-Pad1)*
X140636128Y-95885000D02*
X140970000Y-95885000D01*
X139769990Y-96751138D02*
X140636128Y-95885000D01*
X139769990Y-98828862D02*
X139769990Y-96751138D01*
X145081128Y-104140000D02*
X139769990Y-98828862D01*
X151765000Y-104140000D02*
X145081128Y-104140000D01*
G04 #@! TO.N,Net-(C4-Pad2)*
X144780000Y-95865000D02*
X144780000Y-85725000D01*
X142220000Y-98425000D02*
X144780000Y-95865000D01*
X140970000Y-98425000D02*
X142220000Y-98425000D01*
G04 #@! TD*
D22*
G04 #@! TO.N,GND*
X181323001Y-90823000D02*
X179433252Y-90823000D01*
X179400000Y-90819725D01*
X179366748Y-90823000D01*
X179267285Y-90832796D01*
X179139670Y-90871508D01*
X179022059Y-90934372D01*
X178918973Y-91018973D01*
X178834372Y-91122059D01*
X178771508Y-91239670D01*
X178732796Y-91367285D01*
X178719725Y-91500000D01*
X178723001Y-91533262D01*
X178723000Y-92966747D01*
X178719725Y-93000000D01*
X178732796Y-93132715D01*
X178771508Y-93260330D01*
X178834372Y-93377941D01*
X178918973Y-93481027D01*
X179022059Y-93565628D01*
X179139670Y-93628492D01*
X179267285Y-93667204D01*
X179400000Y-93680275D01*
X179433252Y-93677000D01*
X181323000Y-93677000D01*
X181323001Y-98966738D01*
X181319725Y-99000000D01*
X181332796Y-99132715D01*
X181371508Y-99260330D01*
X181434372Y-99377941D01*
X181518973Y-99481027D01*
X181622059Y-99565628D01*
X181739670Y-99628492D01*
X181823001Y-99653770D01*
X181823000Y-125323000D01*
X177177000Y-125323000D01*
X177177000Y-119533252D01*
X177180275Y-119500000D01*
X177167204Y-119367285D01*
X177128492Y-119239670D01*
X177065628Y-119122059D01*
X176981027Y-119018973D01*
X176877941Y-118934372D01*
X176760330Y-118871508D01*
X176632715Y-118832796D01*
X176533252Y-118823000D01*
X176500000Y-118819725D01*
X176466748Y-118823000D01*
X165033252Y-118823000D01*
X165000000Y-118819725D01*
X164966748Y-118823000D01*
X164867285Y-118832796D01*
X164739670Y-118871508D01*
X164622059Y-118934372D01*
X164518973Y-119018973D01*
X164434372Y-119122059D01*
X164371508Y-119239670D01*
X164332796Y-119367285D01*
X164319725Y-119500000D01*
X164323001Y-119533262D01*
X164323001Y-121793000D01*
X158627000Y-121793000D01*
X158627000Y-121602027D01*
X158660115Y-121552467D01*
X158737533Y-121365565D01*
X158777000Y-121167151D01*
X158777000Y-120964849D01*
X158737533Y-120766435D01*
X158660115Y-120579533D01*
X158547723Y-120411326D01*
X158404674Y-120268277D01*
X158236467Y-120155885D01*
X158049565Y-120078467D01*
X157991103Y-120066838D01*
X156157576Y-118233311D01*
X156130112Y-118199846D01*
X155996571Y-118090252D01*
X155844216Y-118008817D01*
X155678901Y-117958669D01*
X155550058Y-117945979D01*
X155506979Y-117941736D01*
X155463900Y-117945979D01*
X110036100Y-117945979D01*
X109993021Y-117941736D01*
X109821098Y-117958669D01*
X109655784Y-118008817D01*
X109503429Y-118090252D01*
X109369888Y-118199846D01*
X109342424Y-118233311D01*
X107508897Y-120066838D01*
X107450435Y-120078467D01*
X107263533Y-120155885D01*
X107095326Y-120268277D01*
X106952277Y-120411326D01*
X106839885Y-120579533D01*
X106762467Y-120766435D01*
X106723000Y-120964849D01*
X106723000Y-121167151D01*
X106762467Y-121365565D01*
X106839885Y-121552467D01*
X106873000Y-121602027D01*
X106873000Y-121793000D01*
X101177000Y-121793000D01*
X101177000Y-119533252D01*
X101180275Y-119500000D01*
X101167204Y-119367285D01*
X101128492Y-119239670D01*
X101065628Y-119122059D01*
X100981027Y-119018973D01*
X100877941Y-118934372D01*
X100760330Y-118871508D01*
X100632715Y-118832796D01*
X100533252Y-118823000D01*
X100500000Y-118819725D01*
X100466748Y-118823000D01*
X89033252Y-118823000D01*
X89000000Y-118819725D01*
X88966748Y-118823000D01*
X88867285Y-118832796D01*
X88739670Y-118871508D01*
X88622059Y-118934372D01*
X88518973Y-119018973D01*
X88434372Y-119122059D01*
X88371508Y-119239670D01*
X88332796Y-119367285D01*
X88319725Y-119500000D01*
X88323000Y-119533252D01*
X88323001Y-125323000D01*
X83177000Y-125323000D01*
X83177000Y-103999453D01*
X102713000Y-103999453D01*
X102713000Y-104280547D01*
X102767838Y-104556241D01*
X102875409Y-104815938D01*
X103031576Y-105049660D01*
X103230340Y-105248424D01*
X103464062Y-105404591D01*
X103723759Y-105512162D01*
X103999453Y-105567000D01*
X104280547Y-105567000D01*
X104556241Y-105512162D01*
X104815938Y-105404591D01*
X105049660Y-105248424D01*
X105165382Y-105132702D01*
X113486903Y-105132702D01*
X113558486Y-105376671D01*
X113813996Y-105497571D01*
X114088184Y-105566300D01*
X114370512Y-105580217D01*
X114650130Y-105538787D01*
X114916292Y-105443603D01*
X115041514Y-105376671D01*
X115113097Y-105132702D01*
X114300000Y-104319605D01*
X113486903Y-105132702D01*
X105165382Y-105132702D01*
X105248424Y-105049660D01*
X105404591Y-104815938D01*
X105512162Y-104556241D01*
X105567000Y-104280547D01*
X105567000Y-104210512D01*
X112859783Y-104210512D01*
X112901213Y-104490130D01*
X112996397Y-104756292D01*
X113063329Y-104881514D01*
X113307298Y-104953097D01*
X114120395Y-104140000D01*
X114479605Y-104140000D01*
X115292702Y-104953097D01*
X115536671Y-104881514D01*
X115657571Y-104626004D01*
X115726300Y-104351816D01*
X115740217Y-104069488D01*
X115698787Y-103789870D01*
X115603603Y-103523708D01*
X115536671Y-103398486D01*
X115292702Y-103326903D01*
X114479605Y-104140000D01*
X114120395Y-104140000D01*
X113307298Y-103326903D01*
X113063329Y-103398486D01*
X112942429Y-103653996D01*
X112873700Y-103928184D01*
X112859783Y-104210512D01*
X105567000Y-104210512D01*
X105567000Y-103999453D01*
X105512162Y-103723759D01*
X105404591Y-103464062D01*
X105248424Y-103230340D01*
X105165382Y-103147298D01*
X113486903Y-103147298D01*
X114300000Y-103960395D01*
X115113097Y-103147298D01*
X115041514Y-102903329D01*
X114786004Y-102782429D01*
X114511816Y-102713700D01*
X114229488Y-102699783D01*
X113949870Y-102741213D01*
X113683708Y-102836397D01*
X113558486Y-102903329D01*
X113486903Y-103147298D01*
X105165382Y-103147298D01*
X105049660Y-103031576D01*
X104815938Y-102875409D01*
X104556241Y-102767838D01*
X104280547Y-102713000D01*
X103999453Y-102713000D01*
X103723759Y-102767838D01*
X103464062Y-102875409D01*
X103230340Y-103031576D01*
X103031576Y-103230340D01*
X102875409Y-103464062D01*
X102767838Y-103723759D01*
X102713000Y-103999453D01*
X83177000Y-103999453D01*
X83177000Y-99319453D01*
X102793000Y-99319453D01*
X102793000Y-99600547D01*
X102847838Y-99876241D01*
X102955409Y-100135938D01*
X103111576Y-100369660D01*
X103310340Y-100568424D01*
X103544062Y-100724591D01*
X103803759Y-100832162D01*
X104079453Y-100887000D01*
X104360547Y-100887000D01*
X104636241Y-100832162D01*
X104895938Y-100724591D01*
X105129660Y-100568424D01*
X105328424Y-100369660D01*
X105484591Y-100135938D01*
X105592162Y-99876241D01*
X105647000Y-99600547D01*
X105647000Y-99319453D01*
X107793000Y-99319453D01*
X107793000Y-99600547D01*
X107847838Y-99876241D01*
X107955409Y-100135938D01*
X108111576Y-100369660D01*
X108310340Y-100568424D01*
X108544062Y-100724591D01*
X108803759Y-100832162D01*
X109079453Y-100887000D01*
X109360547Y-100887000D01*
X109636241Y-100832162D01*
X109895938Y-100724591D01*
X110129660Y-100568424D01*
X110328424Y-100369660D01*
X110484591Y-100135938D01*
X110592162Y-99876241D01*
X110647000Y-99600547D01*
X110647000Y-99319453D01*
X119938000Y-99319453D01*
X119938000Y-99600547D01*
X119992838Y-99876241D01*
X120100409Y-100135938D01*
X120256576Y-100369660D01*
X120455340Y-100568424D01*
X120689062Y-100724591D01*
X120948759Y-100832162D01*
X121224453Y-100887000D01*
X121505547Y-100887000D01*
X121781241Y-100832162D01*
X122040938Y-100724591D01*
X122274660Y-100568424D01*
X122473424Y-100369660D01*
X122629591Y-100135938D01*
X122737162Y-99876241D01*
X122792000Y-99600547D01*
X122792000Y-99319453D01*
X124938000Y-99319453D01*
X124938000Y-99600547D01*
X124992838Y-99876241D01*
X125100409Y-100135938D01*
X125256576Y-100369660D01*
X125455340Y-100568424D01*
X125689062Y-100724591D01*
X125948759Y-100832162D01*
X126224453Y-100887000D01*
X126505547Y-100887000D01*
X126781241Y-100832162D01*
X127040938Y-100724591D01*
X127274660Y-100568424D01*
X127473424Y-100369660D01*
X127629591Y-100135938D01*
X127737162Y-99876241D01*
X127792000Y-99600547D01*
X127792000Y-99319453D01*
X127737162Y-99043759D01*
X127629591Y-98784062D01*
X127473424Y-98550340D01*
X127274660Y-98351576D01*
X127040938Y-98195409D01*
X126781241Y-98087838D01*
X126505547Y-98033000D01*
X126224453Y-98033000D01*
X125948759Y-98087838D01*
X125689062Y-98195409D01*
X125455340Y-98351576D01*
X125256576Y-98550340D01*
X125100409Y-98784062D01*
X124992838Y-99043759D01*
X124938000Y-99319453D01*
X122792000Y-99319453D01*
X122737162Y-99043759D01*
X122629591Y-98784062D01*
X122473424Y-98550340D01*
X122274660Y-98351576D01*
X122040938Y-98195409D01*
X121781241Y-98087838D01*
X121505547Y-98033000D01*
X121224453Y-98033000D01*
X120948759Y-98087838D01*
X120689062Y-98195409D01*
X120455340Y-98351576D01*
X120256576Y-98550340D01*
X120100409Y-98784062D01*
X119992838Y-99043759D01*
X119938000Y-99319453D01*
X110647000Y-99319453D01*
X110592162Y-99043759D01*
X110484591Y-98784062D01*
X110328424Y-98550340D01*
X110129660Y-98351576D01*
X109895938Y-98195409D01*
X109636241Y-98087838D01*
X109360547Y-98033000D01*
X109079453Y-98033000D01*
X108803759Y-98087838D01*
X108544062Y-98195409D01*
X108310340Y-98351576D01*
X108111576Y-98550340D01*
X107955409Y-98784062D01*
X107847838Y-99043759D01*
X107793000Y-99319453D01*
X105647000Y-99319453D01*
X105592162Y-99043759D01*
X105484591Y-98784062D01*
X105328424Y-98550340D01*
X105129660Y-98351576D01*
X104895938Y-98195409D01*
X104636241Y-98087838D01*
X104360547Y-98033000D01*
X104079453Y-98033000D01*
X103803759Y-98087838D01*
X103544062Y-98195409D01*
X103310340Y-98351576D01*
X103111576Y-98550340D01*
X102955409Y-98784062D01*
X102847838Y-99043759D01*
X102793000Y-99319453D01*
X83177000Y-99319453D01*
X83177000Y-98177000D01*
X83466748Y-98177000D01*
X83500000Y-98180275D01*
X83533252Y-98177000D01*
X83632715Y-98167204D01*
X83760330Y-98128492D01*
X83877941Y-98065628D01*
X83981027Y-97981027D01*
X84065628Y-97877941D01*
X84128492Y-97760330D01*
X84167204Y-97632715D01*
X84180275Y-97500000D01*
X84177000Y-97466748D01*
X84177000Y-95177000D01*
X85966748Y-95177000D01*
X86000000Y-95180275D01*
X86033252Y-95177000D01*
X86132715Y-95167204D01*
X86260330Y-95128492D01*
X86377941Y-95065628D01*
X86481027Y-94981027D01*
X86565628Y-94877941D01*
X86628492Y-94760330D01*
X86667204Y-94632715D01*
X86680275Y-94500000D01*
X86677000Y-94466748D01*
X86677000Y-94100000D01*
X113719967Y-94100000D01*
X113719967Y-95900000D01*
X113732073Y-96022913D01*
X113767925Y-96141103D01*
X113826147Y-96250028D01*
X113904499Y-96345501D01*
X113999972Y-96423853D01*
X114108897Y-96482075D01*
X114139221Y-96491274D01*
X114063901Y-96566594D01*
X113896790Y-96816694D01*
X113781681Y-97094590D01*
X113723000Y-97389604D01*
X113723000Y-97690396D01*
X113781681Y-97985410D01*
X113896790Y-98263306D01*
X114063901Y-98513406D01*
X114276594Y-98726099D01*
X114526694Y-98893210D01*
X114804590Y-99008319D01*
X115099604Y-99067000D01*
X115400396Y-99067000D01*
X115695410Y-99008319D01*
X115973306Y-98893210D01*
X116223406Y-98726099D01*
X116436099Y-98513406D01*
X116603210Y-98263306D01*
X116718319Y-97985410D01*
X116777000Y-97690396D01*
X116777000Y-97389604D01*
X116718319Y-97094590D01*
X116674997Y-96990000D01*
X130014967Y-96990000D01*
X130014967Y-98590000D01*
X130027073Y-98712913D01*
X130062925Y-98831103D01*
X130121147Y-98940028D01*
X130199499Y-99035501D01*
X130294972Y-99113853D01*
X130403897Y-99172075D01*
X130522087Y-99207927D01*
X130645000Y-99220033D01*
X132245000Y-99220033D01*
X132367913Y-99207927D01*
X132486103Y-99172075D01*
X132595028Y-99113853D01*
X132690501Y-99035501D01*
X132768853Y-98940028D01*
X132827075Y-98831103D01*
X132841757Y-98782702D01*
X133131903Y-98782702D01*
X133203486Y-99026671D01*
X133458996Y-99147571D01*
X133733184Y-99216300D01*
X134015512Y-99230217D01*
X134295130Y-99188787D01*
X134561292Y-99093603D01*
X134686514Y-99026671D01*
X134758097Y-98782702D01*
X133945000Y-97969605D01*
X133131903Y-98782702D01*
X132841757Y-98782702D01*
X132862927Y-98712913D01*
X132875033Y-98590000D01*
X132875033Y-98580427D01*
X132952298Y-98603097D01*
X133765395Y-97790000D01*
X134124605Y-97790000D01*
X134937702Y-98603097D01*
X135181671Y-98531514D01*
X135302571Y-98276004D01*
X135371300Y-98001816D01*
X135385217Y-97719488D01*
X135343787Y-97439870D01*
X135248603Y-97173708D01*
X135181671Y-97048486D01*
X134937702Y-96976903D01*
X134124605Y-97790000D01*
X133765395Y-97790000D01*
X132952298Y-96976903D01*
X132875033Y-96999573D01*
X132875033Y-96990000D01*
X132862927Y-96867087D01*
X132841758Y-96797298D01*
X133131903Y-96797298D01*
X133945000Y-97610395D01*
X134758097Y-96797298D01*
X134686514Y-96553329D01*
X134431004Y-96432429D01*
X134156816Y-96363700D01*
X133874488Y-96349783D01*
X133594870Y-96391213D01*
X133328708Y-96486397D01*
X133203486Y-96553329D01*
X133131903Y-96797298D01*
X132841758Y-96797298D01*
X132827075Y-96748897D01*
X132768853Y-96639972D01*
X132690501Y-96544499D01*
X132595028Y-96466147D01*
X132486103Y-96407925D01*
X132367913Y-96372073D01*
X132245000Y-96359967D01*
X130645000Y-96359967D01*
X130522087Y-96372073D01*
X130403897Y-96407925D01*
X130294972Y-96466147D01*
X130199499Y-96544499D01*
X130121147Y-96639972D01*
X130062925Y-96748897D01*
X130027073Y-96867087D01*
X130014967Y-96990000D01*
X116674997Y-96990000D01*
X116603210Y-96816694D01*
X116436099Y-96566594D01*
X116360779Y-96491274D01*
X116391103Y-96482075D01*
X116500028Y-96423853D01*
X116595501Y-96345501D01*
X116673853Y-96250028D01*
X116732075Y-96141103D01*
X116767927Y-96022913D01*
X116780033Y-95900000D01*
X116780033Y-94100000D01*
X116767927Y-93977087D01*
X116732075Y-93858897D01*
X116673853Y-93749972D01*
X116595501Y-93654499D01*
X116500028Y-93576147D01*
X116391103Y-93517925D01*
X116272913Y-93482073D01*
X116150000Y-93469967D01*
X114350000Y-93469967D01*
X114227087Y-93482073D01*
X114108897Y-93517925D01*
X113999972Y-93576147D01*
X113904499Y-93654499D01*
X113826147Y-93749972D01*
X113767925Y-93858897D01*
X113732073Y-93977087D01*
X113719967Y-94100000D01*
X86677000Y-94100000D01*
X86677000Y-93033251D01*
X86680275Y-93000000D01*
X86667204Y-92867285D01*
X86628492Y-92739670D01*
X86565628Y-92622059D01*
X86481027Y-92518973D01*
X86377941Y-92434372D01*
X86260330Y-92371508D01*
X86132715Y-92332796D01*
X86033252Y-92323000D01*
X86000000Y-92319725D01*
X85966748Y-92323000D01*
X83177000Y-92323000D01*
X83177000Y-88124453D01*
X102713000Y-88124453D01*
X102713000Y-88405547D01*
X102767838Y-88681241D01*
X102875409Y-88940938D01*
X103031576Y-89174660D01*
X103230340Y-89373424D01*
X103464062Y-89529591D01*
X103723759Y-89637162D01*
X103999453Y-89692000D01*
X104280547Y-89692000D01*
X104556241Y-89637162D01*
X104815938Y-89529591D01*
X105049660Y-89373424D01*
X105248424Y-89174660D01*
X105404591Y-88940938D01*
X105512162Y-88681241D01*
X105567000Y-88405547D01*
X105567000Y-88124453D01*
X112873000Y-88124453D01*
X112873000Y-88405547D01*
X112927838Y-88681241D01*
X113035409Y-88940938D01*
X113191576Y-89174660D01*
X113390340Y-89373424D01*
X113624062Y-89529591D01*
X113883759Y-89637162D01*
X114159453Y-89692000D01*
X114440547Y-89692000D01*
X114716241Y-89637162D01*
X114975938Y-89529591D01*
X115209660Y-89373424D01*
X115408424Y-89174660D01*
X115564591Y-88940938D01*
X115672162Y-88681241D01*
X115695466Y-88564080D01*
X129330525Y-88564080D01*
X129414208Y-88818261D01*
X129686775Y-88949158D01*
X129979642Y-89024365D01*
X130281553Y-89040991D01*
X130580907Y-88998397D01*
X130866199Y-88898222D01*
X131015792Y-88818261D01*
X131099475Y-88564080D01*
X130215000Y-87679605D01*
X129330525Y-88564080D01*
X115695466Y-88564080D01*
X115727000Y-88405547D01*
X115727000Y-88124453D01*
X115672162Y-87848759D01*
X115564591Y-87589062D01*
X115549552Y-87566553D01*
X128674009Y-87566553D01*
X128716603Y-87865907D01*
X128816778Y-88151199D01*
X128896739Y-88300792D01*
X129150920Y-88384475D01*
X130035395Y-87500000D01*
X130394605Y-87500000D01*
X131279080Y-88384475D01*
X131435147Y-88333094D01*
X131528901Y-88473406D01*
X131741594Y-88686099D01*
X131991694Y-88853210D01*
X132269590Y-88968319D01*
X132564604Y-89027000D01*
X132865396Y-89027000D01*
X133160410Y-88968319D01*
X133438306Y-88853210D01*
X133688406Y-88686099D01*
X133901099Y-88473406D01*
X133965000Y-88377771D01*
X134028901Y-88473406D01*
X134241594Y-88686099D01*
X134491694Y-88853210D01*
X134769590Y-88968319D01*
X135064604Y-89027000D01*
X135365396Y-89027000D01*
X135660410Y-88968319D01*
X135938306Y-88853210D01*
X136188406Y-88686099D01*
X136401099Y-88473406D01*
X136568210Y-88223306D01*
X136683319Y-87945410D01*
X136742000Y-87650396D01*
X136742000Y-87349604D01*
X136683319Y-87054590D01*
X136568210Y-86776694D01*
X136401099Y-86526594D01*
X136188406Y-86313901D01*
X135938306Y-86146790D01*
X135660410Y-86031681D01*
X135365396Y-85973000D01*
X135064604Y-85973000D01*
X134769590Y-86031681D01*
X134491694Y-86146790D01*
X134241594Y-86313901D01*
X134028901Y-86526594D01*
X133965000Y-86622229D01*
X133901099Y-86526594D01*
X133688406Y-86313901D01*
X133438306Y-86146790D01*
X133160410Y-86031681D01*
X132865396Y-85973000D01*
X132564604Y-85973000D01*
X132269590Y-86031681D01*
X131991694Y-86146790D01*
X131741594Y-86313901D01*
X131528901Y-86526594D01*
X131435147Y-86666906D01*
X131279080Y-86615525D01*
X130394605Y-87500000D01*
X130035395Y-87500000D01*
X129150920Y-86615525D01*
X128896739Y-86699208D01*
X128765842Y-86971775D01*
X128690635Y-87264642D01*
X128674009Y-87566553D01*
X115549552Y-87566553D01*
X115408424Y-87355340D01*
X115209660Y-87156576D01*
X114975938Y-87000409D01*
X114716241Y-86892838D01*
X114440547Y-86838000D01*
X114159453Y-86838000D01*
X113883759Y-86892838D01*
X113624062Y-87000409D01*
X113390340Y-87156576D01*
X113191576Y-87355340D01*
X113035409Y-87589062D01*
X112927838Y-87848759D01*
X112873000Y-88124453D01*
X105567000Y-88124453D01*
X105512162Y-87848759D01*
X105404591Y-87589062D01*
X105248424Y-87355340D01*
X105049660Y-87156576D01*
X104815938Y-87000409D01*
X104556241Y-86892838D01*
X104280547Y-86838000D01*
X103999453Y-86838000D01*
X103723759Y-86892838D01*
X103464062Y-87000409D01*
X103230340Y-87156576D01*
X103031576Y-87355340D01*
X102875409Y-87589062D01*
X102767838Y-87848759D01*
X102713000Y-88124453D01*
X83177000Y-88124453D01*
X83177000Y-85584453D01*
X119223000Y-85584453D01*
X119223000Y-85865547D01*
X119277838Y-86141241D01*
X119385409Y-86400938D01*
X119541576Y-86634660D01*
X119740340Y-86833424D01*
X119974062Y-86989591D01*
X120233759Y-87097162D01*
X120509453Y-87152000D01*
X120790547Y-87152000D01*
X121066241Y-87097162D01*
X121325938Y-86989591D01*
X121559660Y-86833424D01*
X121758424Y-86634660D01*
X121891216Y-86435920D01*
X129330525Y-86435920D01*
X130215000Y-87320395D01*
X131099475Y-86435920D01*
X131015792Y-86181739D01*
X130743225Y-86050842D01*
X130450358Y-85975635D01*
X130148447Y-85959009D01*
X129849093Y-86001603D01*
X129563801Y-86101778D01*
X129414208Y-86181739D01*
X129330525Y-86435920D01*
X121891216Y-86435920D01*
X121914591Y-86400938D01*
X122022162Y-86141241D01*
X122077000Y-85865547D01*
X122077000Y-85584453D01*
X122069337Y-85545928D01*
X122263266Y-85351999D01*
X143399237Y-85351999D01*
X143353000Y-85584453D01*
X143353000Y-85865547D01*
X143407838Y-86141241D01*
X143515409Y-86400938D01*
X143671576Y-86634660D01*
X143870340Y-86833424D01*
X143903001Y-86855247D01*
X143903000Y-95501735D01*
X142343354Y-97061381D01*
X142330332Y-96929169D01*
X142266290Y-96718052D01*
X142302075Y-96651103D01*
X142337927Y-96532913D01*
X142350033Y-96410000D01*
X142350033Y-95360000D01*
X142337927Y-95237087D01*
X142302075Y-95118897D01*
X142243853Y-95009972D01*
X142165501Y-94914499D01*
X142070028Y-94836147D01*
X141961103Y-94777925D01*
X141842913Y-94742073D01*
X141720000Y-94729967D01*
X140220000Y-94729967D01*
X140097087Y-94742073D01*
X139978897Y-94777925D01*
X139869972Y-94836147D01*
X139774499Y-94914499D01*
X139696147Y-95009972D01*
X139637925Y-95118897D01*
X139602073Y-95237087D01*
X139589967Y-95360000D01*
X139589967Y-95690895D01*
X139180317Y-96100546D01*
X139146858Y-96128005D01*
X139119399Y-96161464D01*
X139119396Y-96161467D01*
X139037264Y-96261546D01*
X138955828Y-96413902D01*
X138905680Y-96579216D01*
X138888747Y-96751138D01*
X138892991Y-96794227D01*
X138892990Y-98785782D01*
X138888747Y-98828862D01*
X138905680Y-99000784D01*
X138945701Y-99132715D01*
X138955828Y-99166098D01*
X139037263Y-99318453D01*
X139146857Y-99451995D01*
X139180322Y-99479459D01*
X144430531Y-104729668D01*
X144457995Y-104763133D01*
X144591536Y-104872727D01*
X144743891Y-104954162D01*
X144909206Y-105004310D01*
X145038049Y-105017000D01*
X145038058Y-105017000D01*
X145081127Y-105021242D01*
X145124197Y-105017000D01*
X150634753Y-105017000D01*
X150656576Y-105049660D01*
X150855340Y-105248424D01*
X151089062Y-105404591D01*
X151348759Y-105512162D01*
X151624453Y-105567000D01*
X151905547Y-105567000D01*
X152181241Y-105512162D01*
X152440938Y-105404591D01*
X152674660Y-105248424D01*
X152790382Y-105132702D01*
X161111903Y-105132702D01*
X161183486Y-105376671D01*
X161438996Y-105497571D01*
X161713184Y-105566300D01*
X161995512Y-105580217D01*
X162275130Y-105538787D01*
X162541292Y-105443603D01*
X162666514Y-105376671D01*
X162738097Y-105132702D01*
X161925000Y-104319605D01*
X161111903Y-105132702D01*
X152790382Y-105132702D01*
X152873424Y-105049660D01*
X153029591Y-104815938D01*
X153137162Y-104556241D01*
X153192000Y-104280547D01*
X153192000Y-104210512D01*
X160484783Y-104210512D01*
X160526213Y-104490130D01*
X160621397Y-104756292D01*
X160688329Y-104881514D01*
X160932298Y-104953097D01*
X161745395Y-104140000D01*
X162104605Y-104140000D01*
X162917702Y-104953097D01*
X163161671Y-104881514D01*
X163282571Y-104626004D01*
X163351300Y-104351816D01*
X163365217Y-104069488D01*
X163323787Y-103789870D01*
X163228603Y-103523708D01*
X163161671Y-103398486D01*
X162917702Y-103326903D01*
X162104605Y-104140000D01*
X161745395Y-104140000D01*
X160932298Y-103326903D01*
X160688329Y-103398486D01*
X160567429Y-103653996D01*
X160498700Y-103928184D01*
X160484783Y-104210512D01*
X153192000Y-104210512D01*
X153192000Y-103999453D01*
X153137162Y-103723759D01*
X153029591Y-103464062D01*
X152873424Y-103230340D01*
X152790382Y-103147298D01*
X161111903Y-103147298D01*
X161925000Y-103960395D01*
X162738097Y-103147298D01*
X162666514Y-102903329D01*
X162411004Y-102782429D01*
X162136816Y-102713700D01*
X161854488Y-102699783D01*
X161574870Y-102741213D01*
X161308708Y-102836397D01*
X161183486Y-102903329D01*
X161111903Y-103147298D01*
X152790382Y-103147298D01*
X152674660Y-103031576D01*
X152440938Y-102875409D01*
X152181241Y-102767838D01*
X151905547Y-102713000D01*
X151624453Y-102713000D01*
X151348759Y-102767838D01*
X151089062Y-102875409D01*
X150855340Y-103031576D01*
X150656576Y-103230340D01*
X150634753Y-103263000D01*
X145444393Y-103263000D01*
X141662662Y-99481269D01*
X141838114Y-99387488D01*
X141921013Y-99319453D01*
X155498000Y-99319453D01*
X155498000Y-99600547D01*
X155552838Y-99876241D01*
X155660409Y-100135938D01*
X155816576Y-100369660D01*
X156015340Y-100568424D01*
X156249062Y-100724591D01*
X156508759Y-100832162D01*
X156784453Y-100887000D01*
X157065547Y-100887000D01*
X157341241Y-100832162D01*
X157600938Y-100724591D01*
X157834660Y-100568424D01*
X158033424Y-100369660D01*
X158189591Y-100135938D01*
X158297162Y-99876241D01*
X158352000Y-99600547D01*
X158352000Y-99319453D01*
X160498000Y-99319453D01*
X160498000Y-99600547D01*
X160552838Y-99876241D01*
X160660409Y-100135938D01*
X160816576Y-100369660D01*
X161015340Y-100568424D01*
X161249062Y-100724591D01*
X161508759Y-100832162D01*
X161784453Y-100887000D01*
X162065547Y-100887000D01*
X162341241Y-100832162D01*
X162600938Y-100724591D01*
X162834660Y-100568424D01*
X163033424Y-100369660D01*
X163189591Y-100135938D01*
X163297162Y-99876241D01*
X163352000Y-99600547D01*
X163352000Y-99319453D01*
X163297162Y-99043759D01*
X163189591Y-98784062D01*
X163033424Y-98550340D01*
X162834660Y-98351576D01*
X162600938Y-98195409D01*
X162341241Y-98087838D01*
X162065547Y-98033000D01*
X161784453Y-98033000D01*
X161508759Y-98087838D01*
X161249062Y-98195409D01*
X161015340Y-98351576D01*
X160816576Y-98550340D01*
X160660409Y-98784062D01*
X160552838Y-99043759D01*
X160498000Y-99319453D01*
X158352000Y-99319453D01*
X158297162Y-99043759D01*
X158189591Y-98784062D01*
X158033424Y-98550340D01*
X157834660Y-98351576D01*
X157600938Y-98195409D01*
X157341241Y-98087838D01*
X157065547Y-98033000D01*
X156784453Y-98033000D01*
X156508759Y-98087838D01*
X156249062Y-98195409D01*
X156015340Y-98351576D01*
X155816576Y-98550340D01*
X155660409Y-98784062D01*
X155552838Y-99043759D01*
X155498000Y-99319453D01*
X141921013Y-99319453D01*
X141942280Y-99302000D01*
X142176921Y-99302000D01*
X142220000Y-99306243D01*
X142263079Y-99302000D01*
X142391922Y-99289310D01*
X142557237Y-99239162D01*
X142709592Y-99157727D01*
X142843133Y-99048133D01*
X142870597Y-99014668D01*
X145369669Y-96515596D01*
X145403133Y-96488133D01*
X145512727Y-96354592D01*
X145594162Y-96202237D01*
X145644310Y-96036922D01*
X145657000Y-95908079D01*
X145657000Y-95908078D01*
X145661243Y-95865000D01*
X145657000Y-95821921D01*
X145657000Y-86855247D01*
X145689660Y-86833424D01*
X145888424Y-86634660D01*
X146044591Y-86400938D01*
X146050766Y-86386029D01*
X149373001Y-89708264D01*
X149373000Y-93469967D01*
X149350000Y-93469967D01*
X149227087Y-93482073D01*
X149108897Y-93517925D01*
X148999972Y-93576147D01*
X148904499Y-93654499D01*
X148826147Y-93749972D01*
X148767925Y-93858897D01*
X148732073Y-93977087D01*
X148719967Y-94100000D01*
X148719967Y-95900000D01*
X148732073Y-96022913D01*
X148767925Y-96141103D01*
X148826147Y-96250028D01*
X148904499Y-96345501D01*
X148999972Y-96423853D01*
X149108897Y-96482075D01*
X149139221Y-96491274D01*
X149063901Y-96566594D01*
X148896790Y-96816694D01*
X148781681Y-97094590D01*
X148723000Y-97389604D01*
X148723000Y-97690396D01*
X148781681Y-97985410D01*
X148896790Y-98263306D01*
X149063901Y-98513406D01*
X149276594Y-98726099D01*
X149526694Y-98893210D01*
X149804590Y-99008319D01*
X150099604Y-99067000D01*
X150400396Y-99067000D01*
X150695410Y-99008319D01*
X150973306Y-98893210D01*
X151223406Y-98726099D01*
X151436099Y-98513406D01*
X151603210Y-98263306D01*
X151718319Y-97985410D01*
X151777000Y-97690396D01*
X151777000Y-97389604D01*
X151718319Y-97094590D01*
X151603210Y-96816694D01*
X151436099Y-96566594D01*
X151360779Y-96491274D01*
X151391103Y-96482075D01*
X151500028Y-96423853D01*
X151595501Y-96345501D01*
X151673853Y-96250028D01*
X151732075Y-96141103D01*
X151767927Y-96022913D01*
X151780033Y-95900000D01*
X151780033Y-94100000D01*
X151767927Y-93977087D01*
X151732075Y-93858897D01*
X151673853Y-93749972D01*
X151595501Y-93654499D01*
X151500028Y-93576147D01*
X151391103Y-93517925D01*
X151272913Y-93482073D01*
X151150000Y-93469967D01*
X151127000Y-93469967D01*
X151127000Y-90180306D01*
X151348759Y-90272162D01*
X151624453Y-90327000D01*
X151905547Y-90327000D01*
X152181241Y-90272162D01*
X152440938Y-90164591D01*
X152674660Y-90008424D01*
X152873424Y-89809660D01*
X153029591Y-89575938D01*
X153137162Y-89316241D01*
X153150529Y-89249039D01*
X160533096Y-89249039D01*
X160573754Y-89383087D01*
X160693963Y-89637420D01*
X160861481Y-89863414D01*
X161069869Y-90052385D01*
X161311119Y-90197070D01*
X161575960Y-90291909D01*
X161798000Y-90170624D01*
X161798000Y-89027000D01*
X162052000Y-89027000D01*
X162052000Y-90170624D01*
X162274040Y-90291909D01*
X162538881Y-90197070D01*
X162780131Y-90052385D01*
X162988519Y-89863414D01*
X163156037Y-89637420D01*
X163276246Y-89383087D01*
X163316904Y-89249039D01*
X163194915Y-89027000D01*
X162052000Y-89027000D01*
X161798000Y-89027000D01*
X160655085Y-89027000D01*
X160533096Y-89249039D01*
X153150529Y-89249039D01*
X153192000Y-89040547D01*
X153192000Y-88759453D01*
X153150530Y-88550961D01*
X160533096Y-88550961D01*
X160655085Y-88773000D01*
X161798000Y-88773000D01*
X161798000Y-87629376D01*
X162052000Y-87629376D01*
X162052000Y-88773000D01*
X163194915Y-88773000D01*
X163316904Y-88550961D01*
X163276246Y-88416913D01*
X163156037Y-88162580D01*
X162988519Y-87936586D01*
X162780131Y-87747615D01*
X162538881Y-87602930D01*
X162274040Y-87508091D01*
X162052000Y-87629376D01*
X161798000Y-87629376D01*
X161575960Y-87508091D01*
X161311119Y-87602930D01*
X161069869Y-87747615D01*
X160861481Y-87936586D01*
X160693963Y-88162580D01*
X160573754Y-88416913D01*
X160533096Y-88550961D01*
X153150530Y-88550961D01*
X153137162Y-88483759D01*
X153029591Y-88224062D01*
X152873424Y-87990340D01*
X152674660Y-87791576D01*
X152440938Y-87635409D01*
X152181241Y-87527838D01*
X151905547Y-87473000D01*
X151624453Y-87473000D01*
X151348759Y-87527838D01*
X151089062Y-87635409D01*
X150855340Y-87791576D01*
X150656576Y-87990340D01*
X150500409Y-88224062D01*
X150462016Y-88316749D01*
X146030598Y-83885331D01*
X146003134Y-83851866D01*
X145869593Y-83742272D01*
X145717238Y-83660837D01*
X145551923Y-83610689D01*
X145423080Y-83597999D01*
X145380001Y-83593756D01*
X145336922Y-83597999D01*
X121943070Y-83597999D01*
X121900000Y-83593757D01*
X121856931Y-83597999D01*
X121856922Y-83597999D01*
X121728079Y-83610689D01*
X121562764Y-83660837D01*
X121410409Y-83742272D01*
X121276868Y-83851866D01*
X121249404Y-83885331D01*
X120829072Y-84305663D01*
X120790547Y-84298000D01*
X120509453Y-84298000D01*
X120233759Y-84352838D01*
X119974062Y-84460409D01*
X119740340Y-84616576D01*
X119541576Y-84815340D01*
X119385409Y-85049062D01*
X119277838Y-85308759D01*
X119223000Y-85584453D01*
X83177000Y-85584453D01*
X83177000Y-81139453D01*
X102713000Y-81139453D01*
X102713000Y-81420547D01*
X102767838Y-81696241D01*
X102875409Y-81955938D01*
X103031576Y-82189660D01*
X103230340Y-82388424D01*
X103464062Y-82544591D01*
X103723759Y-82652162D01*
X103999453Y-82707000D01*
X104280547Y-82707000D01*
X104556241Y-82652162D01*
X104815938Y-82544591D01*
X105049660Y-82388424D01*
X105248424Y-82189660D01*
X105404591Y-81955938D01*
X105512162Y-81696241D01*
X105567000Y-81420547D01*
X105567000Y-81139453D01*
X112873000Y-81139453D01*
X112873000Y-81420547D01*
X112927838Y-81696241D01*
X113035409Y-81955938D01*
X113191576Y-82189660D01*
X113390340Y-82388424D01*
X113624062Y-82544591D01*
X113883759Y-82652162D01*
X114159453Y-82707000D01*
X114440547Y-82707000D01*
X114716241Y-82652162D01*
X114975938Y-82544591D01*
X115209660Y-82388424D01*
X115408424Y-82189660D01*
X115564591Y-81955938D01*
X115672162Y-81696241D01*
X115727000Y-81420547D01*
X115727000Y-81139453D01*
X115672162Y-80863759D01*
X115564591Y-80604062D01*
X115408424Y-80370340D01*
X115279347Y-80241263D01*
X125688000Y-80241263D01*
X125688000Y-80758737D01*
X125788954Y-81266268D01*
X125986983Y-81744351D01*
X126274476Y-82174615D01*
X126640385Y-82540524D01*
X127070649Y-82828017D01*
X127548732Y-83026046D01*
X128056263Y-83127000D01*
X128573737Y-83127000D01*
X129081268Y-83026046D01*
X129559351Y-82828017D01*
X129989615Y-82540524D01*
X130355524Y-82174615D01*
X130643017Y-81744351D01*
X130841046Y-81266268D01*
X130942000Y-80758737D01*
X130942000Y-80241263D01*
X134488000Y-80241263D01*
X134488000Y-80758737D01*
X134588954Y-81266268D01*
X134786983Y-81744351D01*
X135074476Y-82174615D01*
X135440385Y-82540524D01*
X135870649Y-82828017D01*
X136348732Y-83026046D01*
X136856263Y-83127000D01*
X137373737Y-83127000D01*
X137881268Y-83026046D01*
X138359351Y-82828017D01*
X138789615Y-82540524D01*
X139155524Y-82174615D01*
X139443017Y-81744351D01*
X139641046Y-81266268D01*
X139666271Y-81139453D01*
X150338000Y-81139453D01*
X150338000Y-81420547D01*
X150392838Y-81696241D01*
X150500409Y-81955938D01*
X150656576Y-82189660D01*
X150855340Y-82388424D01*
X151089062Y-82544591D01*
X151348759Y-82652162D01*
X151624453Y-82707000D01*
X151905547Y-82707000D01*
X152181241Y-82652162D01*
X152440938Y-82544591D01*
X152674660Y-82388424D01*
X152873424Y-82189660D01*
X153029591Y-81955938D01*
X153137162Y-81696241D01*
X153150529Y-81629039D01*
X160533096Y-81629039D01*
X160573754Y-81763087D01*
X160693963Y-82017420D01*
X160861481Y-82243414D01*
X161069869Y-82432385D01*
X161311119Y-82577070D01*
X161575960Y-82671909D01*
X161798000Y-82550624D01*
X161798000Y-81407000D01*
X162052000Y-81407000D01*
X162052000Y-82550624D01*
X162274040Y-82671909D01*
X162538881Y-82577070D01*
X162780131Y-82432385D01*
X162988519Y-82243414D01*
X163156037Y-82017420D01*
X163276246Y-81763087D01*
X163316904Y-81629039D01*
X163194915Y-81407000D01*
X162052000Y-81407000D01*
X161798000Y-81407000D01*
X160655085Y-81407000D01*
X160533096Y-81629039D01*
X153150529Y-81629039D01*
X153192000Y-81420547D01*
X153192000Y-81139453D01*
X153150530Y-80930961D01*
X160533096Y-80930961D01*
X160655085Y-81153000D01*
X161798000Y-81153000D01*
X161798000Y-80009376D01*
X162052000Y-80009376D01*
X162052000Y-81153000D01*
X163194915Y-81153000D01*
X163316904Y-80930961D01*
X163276246Y-80796913D01*
X163156037Y-80542580D01*
X162988519Y-80316586D01*
X162780131Y-80127615D01*
X162538881Y-79982930D01*
X162274040Y-79888091D01*
X162052000Y-80009376D01*
X161798000Y-80009376D01*
X161575960Y-79888091D01*
X161311119Y-79982930D01*
X161069869Y-80127615D01*
X160861481Y-80316586D01*
X160693963Y-80542580D01*
X160573754Y-80796913D01*
X160533096Y-80930961D01*
X153150530Y-80930961D01*
X153137162Y-80863759D01*
X153029591Y-80604062D01*
X152873424Y-80370340D01*
X152674660Y-80171576D01*
X152440938Y-80015409D01*
X152181241Y-79907838D01*
X151905547Y-79853000D01*
X151624453Y-79853000D01*
X151348759Y-79907838D01*
X151089062Y-80015409D01*
X150855340Y-80171576D01*
X150656576Y-80370340D01*
X150500409Y-80604062D01*
X150392838Y-80863759D01*
X150338000Y-81139453D01*
X139666271Y-81139453D01*
X139742000Y-80758737D01*
X139742000Y-80241263D01*
X139641046Y-79733732D01*
X139443017Y-79255649D01*
X139155524Y-78825385D01*
X138789615Y-78459476D01*
X138359351Y-78171983D01*
X137881268Y-77973954D01*
X137373737Y-77873000D01*
X136856263Y-77873000D01*
X136348732Y-77973954D01*
X135870649Y-78171983D01*
X135440385Y-78459476D01*
X135074476Y-78825385D01*
X134786983Y-79255649D01*
X134588954Y-79733732D01*
X134488000Y-80241263D01*
X130942000Y-80241263D01*
X130841046Y-79733732D01*
X130643017Y-79255649D01*
X130355524Y-78825385D01*
X129989615Y-78459476D01*
X129559351Y-78171983D01*
X129081268Y-77973954D01*
X128573737Y-77873000D01*
X128056263Y-77873000D01*
X127548732Y-77973954D01*
X127070649Y-78171983D01*
X126640385Y-78459476D01*
X126274476Y-78825385D01*
X125986983Y-79255649D01*
X125788954Y-79733732D01*
X125688000Y-80241263D01*
X115279347Y-80241263D01*
X115209660Y-80171576D01*
X114975938Y-80015409D01*
X114716241Y-79907838D01*
X114440547Y-79853000D01*
X114159453Y-79853000D01*
X113883759Y-79907838D01*
X113624062Y-80015409D01*
X113390340Y-80171576D01*
X113191576Y-80370340D01*
X113035409Y-80604062D01*
X112927838Y-80863759D01*
X112873000Y-81139453D01*
X105567000Y-81139453D01*
X105512162Y-80863759D01*
X105404591Y-80604062D01*
X105248424Y-80370340D01*
X105049660Y-80171576D01*
X104815938Y-80015409D01*
X104556241Y-79907838D01*
X104280547Y-79853000D01*
X103999453Y-79853000D01*
X103723759Y-79907838D01*
X103464062Y-80015409D01*
X103230340Y-80171576D01*
X103031576Y-80370340D01*
X102875409Y-80604062D01*
X102767838Y-80863759D01*
X102713000Y-81139453D01*
X83177000Y-81139453D01*
X83177000Y-76557702D01*
X119836903Y-76557702D01*
X119908486Y-76801671D01*
X120163996Y-76922571D01*
X120438184Y-76991300D01*
X120720512Y-77005217D01*
X121000130Y-76963787D01*
X121266292Y-76868603D01*
X121391514Y-76801671D01*
X121463097Y-76557702D01*
X120650000Y-75744605D01*
X119836903Y-76557702D01*
X83177000Y-76557702D01*
X83177000Y-75635512D01*
X119209783Y-75635512D01*
X119251213Y-75915130D01*
X119346397Y-76181292D01*
X119413329Y-76306514D01*
X119657298Y-76378097D01*
X120470395Y-75565000D01*
X120829605Y-75565000D01*
X121642702Y-76378097D01*
X121886671Y-76306514D01*
X122007571Y-76051004D01*
X122076300Y-75776816D01*
X122090217Y-75494488D01*
X122048787Y-75214870D01*
X121953603Y-74948708D01*
X121886671Y-74823486D01*
X121642702Y-74751903D01*
X120829605Y-75565000D01*
X120470395Y-75565000D01*
X119657298Y-74751903D01*
X119413329Y-74823486D01*
X119292429Y-75078996D01*
X119223700Y-75353184D01*
X119209783Y-75635512D01*
X83177000Y-75635512D01*
X83177000Y-74572298D01*
X119836903Y-74572298D01*
X120650000Y-75385395D01*
X121463097Y-74572298D01*
X121391514Y-74328329D01*
X121136004Y-74207429D01*
X120861816Y-74138700D01*
X120579488Y-74124783D01*
X120299870Y-74166213D01*
X120033708Y-74261397D01*
X119908486Y-74328329D01*
X119836903Y-74572298D01*
X83177000Y-74572298D01*
X83177000Y-73177000D01*
X83266748Y-73177000D01*
X83300000Y-73180275D01*
X83333252Y-73177000D01*
X83432715Y-73167204D01*
X83560330Y-73128492D01*
X83677941Y-73065628D01*
X83781027Y-72981027D01*
X83865628Y-72877941D01*
X83928492Y-72760330D01*
X83967204Y-72632715D01*
X83980275Y-72500000D01*
X83977000Y-72466748D01*
X83977000Y-71995453D01*
X127478000Y-71995453D01*
X127478000Y-72276547D01*
X127532838Y-72552241D01*
X127640409Y-72811938D01*
X127796576Y-73045660D01*
X127995340Y-73244424D01*
X128229062Y-73400591D01*
X128488759Y-73508162D01*
X128764453Y-73563000D01*
X129045547Y-73563000D01*
X129084072Y-73555337D01*
X131683403Y-76154668D01*
X131710867Y-76188133D01*
X131844408Y-76297727D01*
X131996763Y-76379162D01*
X132162078Y-76429310D01*
X132290921Y-76442000D01*
X132290930Y-76442000D01*
X132333999Y-76446242D01*
X132377069Y-76442000D01*
X143649753Y-76442000D01*
X143671576Y-76474660D01*
X143870340Y-76673424D01*
X144104062Y-76829591D01*
X144363759Y-76937162D01*
X144639453Y-76992000D01*
X144920547Y-76992000D01*
X145196241Y-76937162D01*
X145455938Y-76829591D01*
X145689660Y-76673424D01*
X145888424Y-76474660D01*
X146044591Y-76240938D01*
X146152162Y-75981241D01*
X146207000Y-75705547D01*
X146207000Y-75424453D01*
X146152162Y-75148759D01*
X146044591Y-74889062D01*
X145888424Y-74655340D01*
X145689660Y-74456576D01*
X145455938Y-74300409D01*
X145196241Y-74192838D01*
X144920547Y-74138000D01*
X144639453Y-74138000D01*
X144363759Y-74192838D01*
X144104062Y-74300409D01*
X143870340Y-74456576D01*
X143671576Y-74655340D01*
X143649753Y-74688000D01*
X132697265Y-74688000D01*
X130324337Y-72315072D01*
X130332000Y-72276547D01*
X130332000Y-71995453D01*
X134978000Y-71995453D01*
X134978000Y-72276547D01*
X135032838Y-72552241D01*
X135140409Y-72811938D01*
X135296576Y-73045660D01*
X135495340Y-73244424D01*
X135729062Y-73400591D01*
X135988759Y-73508162D01*
X136264453Y-73563000D01*
X136545547Y-73563000D01*
X136821241Y-73508162D01*
X137080938Y-73400591D01*
X137314660Y-73244424D01*
X137513424Y-73045660D01*
X137669591Y-72811938D01*
X137777162Y-72552241D01*
X137832000Y-72276547D01*
X137832000Y-71995453D01*
X137777162Y-71719759D01*
X137669591Y-71460062D01*
X137513424Y-71226340D01*
X137314660Y-71027576D01*
X137080938Y-70871409D01*
X136821241Y-70763838D01*
X136545547Y-70709000D01*
X136264453Y-70709000D01*
X135988759Y-70763838D01*
X135729062Y-70871409D01*
X135495340Y-71027576D01*
X135296576Y-71226340D01*
X135140409Y-71460062D01*
X135032838Y-71719759D01*
X134978000Y-71995453D01*
X130332000Y-71995453D01*
X130277162Y-71719759D01*
X130169591Y-71460062D01*
X130013424Y-71226340D01*
X129814660Y-71027576D01*
X129580938Y-70871409D01*
X129321241Y-70763838D01*
X129045547Y-70709000D01*
X128764453Y-70709000D01*
X128488759Y-70763838D01*
X128229062Y-70871409D01*
X127995340Y-71027576D01*
X127796576Y-71226340D01*
X127640409Y-71460062D01*
X127532838Y-71719759D01*
X127478000Y-71995453D01*
X83977000Y-71995453D01*
X83977000Y-70677000D01*
X181323000Y-70677000D01*
X181323001Y-90823000D01*
G04 #@! TA.AperFunction,Conductor*
D23*
G36*
X181323001Y-90823000D02*
G01*
X179433252Y-90823000D01*
X179400000Y-90819725D01*
X179366748Y-90823000D01*
X179267285Y-90832796D01*
X179139670Y-90871508D01*
X179022059Y-90934372D01*
X178918973Y-91018973D01*
X178834372Y-91122059D01*
X178771508Y-91239670D01*
X178732796Y-91367285D01*
X178719725Y-91500000D01*
X178723001Y-91533262D01*
X178723000Y-92966747D01*
X178719725Y-93000000D01*
X178732796Y-93132715D01*
X178771508Y-93260330D01*
X178834372Y-93377941D01*
X178918973Y-93481027D01*
X179022059Y-93565628D01*
X179139670Y-93628492D01*
X179267285Y-93667204D01*
X179400000Y-93680275D01*
X179433252Y-93677000D01*
X181323000Y-93677000D01*
X181323001Y-98966738D01*
X181319725Y-99000000D01*
X181332796Y-99132715D01*
X181371508Y-99260330D01*
X181434372Y-99377941D01*
X181518973Y-99481027D01*
X181622059Y-99565628D01*
X181739670Y-99628492D01*
X181823001Y-99653770D01*
X181823000Y-125323000D01*
X177177000Y-125323000D01*
X177177000Y-119533252D01*
X177180275Y-119500000D01*
X177167204Y-119367285D01*
X177128492Y-119239670D01*
X177065628Y-119122059D01*
X176981027Y-119018973D01*
X176877941Y-118934372D01*
X176760330Y-118871508D01*
X176632715Y-118832796D01*
X176533252Y-118823000D01*
X176500000Y-118819725D01*
X176466748Y-118823000D01*
X165033252Y-118823000D01*
X165000000Y-118819725D01*
X164966748Y-118823000D01*
X164867285Y-118832796D01*
X164739670Y-118871508D01*
X164622059Y-118934372D01*
X164518973Y-119018973D01*
X164434372Y-119122059D01*
X164371508Y-119239670D01*
X164332796Y-119367285D01*
X164319725Y-119500000D01*
X164323001Y-119533262D01*
X164323001Y-121793000D01*
X158627000Y-121793000D01*
X158627000Y-121602027D01*
X158660115Y-121552467D01*
X158737533Y-121365565D01*
X158777000Y-121167151D01*
X158777000Y-120964849D01*
X158737533Y-120766435D01*
X158660115Y-120579533D01*
X158547723Y-120411326D01*
X158404674Y-120268277D01*
X158236467Y-120155885D01*
X158049565Y-120078467D01*
X157991103Y-120066838D01*
X156157576Y-118233311D01*
X156130112Y-118199846D01*
X155996571Y-118090252D01*
X155844216Y-118008817D01*
X155678901Y-117958669D01*
X155550058Y-117945979D01*
X155506979Y-117941736D01*
X155463900Y-117945979D01*
X110036100Y-117945979D01*
X109993021Y-117941736D01*
X109821098Y-117958669D01*
X109655784Y-118008817D01*
X109503429Y-118090252D01*
X109369888Y-118199846D01*
X109342424Y-118233311D01*
X107508897Y-120066838D01*
X107450435Y-120078467D01*
X107263533Y-120155885D01*
X107095326Y-120268277D01*
X106952277Y-120411326D01*
X106839885Y-120579533D01*
X106762467Y-120766435D01*
X106723000Y-120964849D01*
X106723000Y-121167151D01*
X106762467Y-121365565D01*
X106839885Y-121552467D01*
X106873000Y-121602027D01*
X106873000Y-121793000D01*
X101177000Y-121793000D01*
X101177000Y-119533252D01*
X101180275Y-119500000D01*
X101167204Y-119367285D01*
X101128492Y-119239670D01*
X101065628Y-119122059D01*
X100981027Y-119018973D01*
X100877941Y-118934372D01*
X100760330Y-118871508D01*
X100632715Y-118832796D01*
X100533252Y-118823000D01*
X100500000Y-118819725D01*
X100466748Y-118823000D01*
X89033252Y-118823000D01*
X89000000Y-118819725D01*
X88966748Y-118823000D01*
X88867285Y-118832796D01*
X88739670Y-118871508D01*
X88622059Y-118934372D01*
X88518973Y-119018973D01*
X88434372Y-119122059D01*
X88371508Y-119239670D01*
X88332796Y-119367285D01*
X88319725Y-119500000D01*
X88323000Y-119533252D01*
X88323001Y-125323000D01*
X83177000Y-125323000D01*
X83177000Y-103999453D01*
X102713000Y-103999453D01*
X102713000Y-104280547D01*
X102767838Y-104556241D01*
X102875409Y-104815938D01*
X103031576Y-105049660D01*
X103230340Y-105248424D01*
X103464062Y-105404591D01*
X103723759Y-105512162D01*
X103999453Y-105567000D01*
X104280547Y-105567000D01*
X104556241Y-105512162D01*
X104815938Y-105404591D01*
X105049660Y-105248424D01*
X105165382Y-105132702D01*
X113486903Y-105132702D01*
X113558486Y-105376671D01*
X113813996Y-105497571D01*
X114088184Y-105566300D01*
X114370512Y-105580217D01*
X114650130Y-105538787D01*
X114916292Y-105443603D01*
X115041514Y-105376671D01*
X115113097Y-105132702D01*
X114300000Y-104319605D01*
X113486903Y-105132702D01*
X105165382Y-105132702D01*
X105248424Y-105049660D01*
X105404591Y-104815938D01*
X105512162Y-104556241D01*
X105567000Y-104280547D01*
X105567000Y-104210512D01*
X112859783Y-104210512D01*
X112901213Y-104490130D01*
X112996397Y-104756292D01*
X113063329Y-104881514D01*
X113307298Y-104953097D01*
X114120395Y-104140000D01*
X114479605Y-104140000D01*
X115292702Y-104953097D01*
X115536671Y-104881514D01*
X115657571Y-104626004D01*
X115726300Y-104351816D01*
X115740217Y-104069488D01*
X115698787Y-103789870D01*
X115603603Y-103523708D01*
X115536671Y-103398486D01*
X115292702Y-103326903D01*
X114479605Y-104140000D01*
X114120395Y-104140000D01*
X113307298Y-103326903D01*
X113063329Y-103398486D01*
X112942429Y-103653996D01*
X112873700Y-103928184D01*
X112859783Y-104210512D01*
X105567000Y-104210512D01*
X105567000Y-103999453D01*
X105512162Y-103723759D01*
X105404591Y-103464062D01*
X105248424Y-103230340D01*
X105165382Y-103147298D01*
X113486903Y-103147298D01*
X114300000Y-103960395D01*
X115113097Y-103147298D01*
X115041514Y-102903329D01*
X114786004Y-102782429D01*
X114511816Y-102713700D01*
X114229488Y-102699783D01*
X113949870Y-102741213D01*
X113683708Y-102836397D01*
X113558486Y-102903329D01*
X113486903Y-103147298D01*
X105165382Y-103147298D01*
X105049660Y-103031576D01*
X104815938Y-102875409D01*
X104556241Y-102767838D01*
X104280547Y-102713000D01*
X103999453Y-102713000D01*
X103723759Y-102767838D01*
X103464062Y-102875409D01*
X103230340Y-103031576D01*
X103031576Y-103230340D01*
X102875409Y-103464062D01*
X102767838Y-103723759D01*
X102713000Y-103999453D01*
X83177000Y-103999453D01*
X83177000Y-99319453D01*
X102793000Y-99319453D01*
X102793000Y-99600547D01*
X102847838Y-99876241D01*
X102955409Y-100135938D01*
X103111576Y-100369660D01*
X103310340Y-100568424D01*
X103544062Y-100724591D01*
X103803759Y-100832162D01*
X104079453Y-100887000D01*
X104360547Y-100887000D01*
X104636241Y-100832162D01*
X104895938Y-100724591D01*
X105129660Y-100568424D01*
X105328424Y-100369660D01*
X105484591Y-100135938D01*
X105592162Y-99876241D01*
X105647000Y-99600547D01*
X105647000Y-99319453D01*
X107793000Y-99319453D01*
X107793000Y-99600547D01*
X107847838Y-99876241D01*
X107955409Y-100135938D01*
X108111576Y-100369660D01*
X108310340Y-100568424D01*
X108544062Y-100724591D01*
X108803759Y-100832162D01*
X109079453Y-100887000D01*
X109360547Y-100887000D01*
X109636241Y-100832162D01*
X109895938Y-100724591D01*
X110129660Y-100568424D01*
X110328424Y-100369660D01*
X110484591Y-100135938D01*
X110592162Y-99876241D01*
X110647000Y-99600547D01*
X110647000Y-99319453D01*
X119938000Y-99319453D01*
X119938000Y-99600547D01*
X119992838Y-99876241D01*
X120100409Y-100135938D01*
X120256576Y-100369660D01*
X120455340Y-100568424D01*
X120689062Y-100724591D01*
X120948759Y-100832162D01*
X121224453Y-100887000D01*
X121505547Y-100887000D01*
X121781241Y-100832162D01*
X122040938Y-100724591D01*
X122274660Y-100568424D01*
X122473424Y-100369660D01*
X122629591Y-100135938D01*
X122737162Y-99876241D01*
X122792000Y-99600547D01*
X122792000Y-99319453D01*
X124938000Y-99319453D01*
X124938000Y-99600547D01*
X124992838Y-99876241D01*
X125100409Y-100135938D01*
X125256576Y-100369660D01*
X125455340Y-100568424D01*
X125689062Y-100724591D01*
X125948759Y-100832162D01*
X126224453Y-100887000D01*
X126505547Y-100887000D01*
X126781241Y-100832162D01*
X127040938Y-100724591D01*
X127274660Y-100568424D01*
X127473424Y-100369660D01*
X127629591Y-100135938D01*
X127737162Y-99876241D01*
X127792000Y-99600547D01*
X127792000Y-99319453D01*
X127737162Y-99043759D01*
X127629591Y-98784062D01*
X127473424Y-98550340D01*
X127274660Y-98351576D01*
X127040938Y-98195409D01*
X126781241Y-98087838D01*
X126505547Y-98033000D01*
X126224453Y-98033000D01*
X125948759Y-98087838D01*
X125689062Y-98195409D01*
X125455340Y-98351576D01*
X125256576Y-98550340D01*
X125100409Y-98784062D01*
X124992838Y-99043759D01*
X124938000Y-99319453D01*
X122792000Y-99319453D01*
X122737162Y-99043759D01*
X122629591Y-98784062D01*
X122473424Y-98550340D01*
X122274660Y-98351576D01*
X122040938Y-98195409D01*
X121781241Y-98087838D01*
X121505547Y-98033000D01*
X121224453Y-98033000D01*
X120948759Y-98087838D01*
X120689062Y-98195409D01*
X120455340Y-98351576D01*
X120256576Y-98550340D01*
X120100409Y-98784062D01*
X119992838Y-99043759D01*
X119938000Y-99319453D01*
X110647000Y-99319453D01*
X110592162Y-99043759D01*
X110484591Y-98784062D01*
X110328424Y-98550340D01*
X110129660Y-98351576D01*
X109895938Y-98195409D01*
X109636241Y-98087838D01*
X109360547Y-98033000D01*
X109079453Y-98033000D01*
X108803759Y-98087838D01*
X108544062Y-98195409D01*
X108310340Y-98351576D01*
X108111576Y-98550340D01*
X107955409Y-98784062D01*
X107847838Y-99043759D01*
X107793000Y-99319453D01*
X105647000Y-99319453D01*
X105592162Y-99043759D01*
X105484591Y-98784062D01*
X105328424Y-98550340D01*
X105129660Y-98351576D01*
X104895938Y-98195409D01*
X104636241Y-98087838D01*
X104360547Y-98033000D01*
X104079453Y-98033000D01*
X103803759Y-98087838D01*
X103544062Y-98195409D01*
X103310340Y-98351576D01*
X103111576Y-98550340D01*
X102955409Y-98784062D01*
X102847838Y-99043759D01*
X102793000Y-99319453D01*
X83177000Y-99319453D01*
X83177000Y-98177000D01*
X83466748Y-98177000D01*
X83500000Y-98180275D01*
X83533252Y-98177000D01*
X83632715Y-98167204D01*
X83760330Y-98128492D01*
X83877941Y-98065628D01*
X83981027Y-97981027D01*
X84065628Y-97877941D01*
X84128492Y-97760330D01*
X84167204Y-97632715D01*
X84180275Y-97500000D01*
X84177000Y-97466748D01*
X84177000Y-95177000D01*
X85966748Y-95177000D01*
X86000000Y-95180275D01*
X86033252Y-95177000D01*
X86132715Y-95167204D01*
X86260330Y-95128492D01*
X86377941Y-95065628D01*
X86481027Y-94981027D01*
X86565628Y-94877941D01*
X86628492Y-94760330D01*
X86667204Y-94632715D01*
X86680275Y-94500000D01*
X86677000Y-94466748D01*
X86677000Y-94100000D01*
X113719967Y-94100000D01*
X113719967Y-95900000D01*
X113732073Y-96022913D01*
X113767925Y-96141103D01*
X113826147Y-96250028D01*
X113904499Y-96345501D01*
X113999972Y-96423853D01*
X114108897Y-96482075D01*
X114139221Y-96491274D01*
X114063901Y-96566594D01*
X113896790Y-96816694D01*
X113781681Y-97094590D01*
X113723000Y-97389604D01*
X113723000Y-97690396D01*
X113781681Y-97985410D01*
X113896790Y-98263306D01*
X114063901Y-98513406D01*
X114276594Y-98726099D01*
X114526694Y-98893210D01*
X114804590Y-99008319D01*
X115099604Y-99067000D01*
X115400396Y-99067000D01*
X115695410Y-99008319D01*
X115973306Y-98893210D01*
X116223406Y-98726099D01*
X116436099Y-98513406D01*
X116603210Y-98263306D01*
X116718319Y-97985410D01*
X116777000Y-97690396D01*
X116777000Y-97389604D01*
X116718319Y-97094590D01*
X116674997Y-96990000D01*
X130014967Y-96990000D01*
X130014967Y-98590000D01*
X130027073Y-98712913D01*
X130062925Y-98831103D01*
X130121147Y-98940028D01*
X130199499Y-99035501D01*
X130294972Y-99113853D01*
X130403897Y-99172075D01*
X130522087Y-99207927D01*
X130645000Y-99220033D01*
X132245000Y-99220033D01*
X132367913Y-99207927D01*
X132486103Y-99172075D01*
X132595028Y-99113853D01*
X132690501Y-99035501D01*
X132768853Y-98940028D01*
X132827075Y-98831103D01*
X132841757Y-98782702D01*
X133131903Y-98782702D01*
X133203486Y-99026671D01*
X133458996Y-99147571D01*
X133733184Y-99216300D01*
X134015512Y-99230217D01*
X134295130Y-99188787D01*
X134561292Y-99093603D01*
X134686514Y-99026671D01*
X134758097Y-98782702D01*
X133945000Y-97969605D01*
X133131903Y-98782702D01*
X132841757Y-98782702D01*
X132862927Y-98712913D01*
X132875033Y-98590000D01*
X132875033Y-98580427D01*
X132952298Y-98603097D01*
X133765395Y-97790000D01*
X134124605Y-97790000D01*
X134937702Y-98603097D01*
X135181671Y-98531514D01*
X135302571Y-98276004D01*
X135371300Y-98001816D01*
X135385217Y-97719488D01*
X135343787Y-97439870D01*
X135248603Y-97173708D01*
X135181671Y-97048486D01*
X134937702Y-96976903D01*
X134124605Y-97790000D01*
X133765395Y-97790000D01*
X132952298Y-96976903D01*
X132875033Y-96999573D01*
X132875033Y-96990000D01*
X132862927Y-96867087D01*
X132841758Y-96797298D01*
X133131903Y-96797298D01*
X133945000Y-97610395D01*
X134758097Y-96797298D01*
X134686514Y-96553329D01*
X134431004Y-96432429D01*
X134156816Y-96363700D01*
X133874488Y-96349783D01*
X133594870Y-96391213D01*
X133328708Y-96486397D01*
X133203486Y-96553329D01*
X133131903Y-96797298D01*
X132841758Y-96797298D01*
X132827075Y-96748897D01*
X132768853Y-96639972D01*
X132690501Y-96544499D01*
X132595028Y-96466147D01*
X132486103Y-96407925D01*
X132367913Y-96372073D01*
X132245000Y-96359967D01*
X130645000Y-96359967D01*
X130522087Y-96372073D01*
X130403897Y-96407925D01*
X130294972Y-96466147D01*
X130199499Y-96544499D01*
X130121147Y-96639972D01*
X130062925Y-96748897D01*
X130027073Y-96867087D01*
X130014967Y-96990000D01*
X116674997Y-96990000D01*
X116603210Y-96816694D01*
X116436099Y-96566594D01*
X116360779Y-96491274D01*
X116391103Y-96482075D01*
X116500028Y-96423853D01*
X116595501Y-96345501D01*
X116673853Y-96250028D01*
X116732075Y-96141103D01*
X116767927Y-96022913D01*
X116780033Y-95900000D01*
X116780033Y-94100000D01*
X116767927Y-93977087D01*
X116732075Y-93858897D01*
X116673853Y-93749972D01*
X116595501Y-93654499D01*
X116500028Y-93576147D01*
X116391103Y-93517925D01*
X116272913Y-93482073D01*
X116150000Y-93469967D01*
X114350000Y-93469967D01*
X114227087Y-93482073D01*
X114108897Y-93517925D01*
X113999972Y-93576147D01*
X113904499Y-93654499D01*
X113826147Y-93749972D01*
X113767925Y-93858897D01*
X113732073Y-93977087D01*
X113719967Y-94100000D01*
X86677000Y-94100000D01*
X86677000Y-93033251D01*
X86680275Y-93000000D01*
X86667204Y-92867285D01*
X86628492Y-92739670D01*
X86565628Y-92622059D01*
X86481027Y-92518973D01*
X86377941Y-92434372D01*
X86260330Y-92371508D01*
X86132715Y-92332796D01*
X86033252Y-92323000D01*
X86000000Y-92319725D01*
X85966748Y-92323000D01*
X83177000Y-92323000D01*
X83177000Y-88124453D01*
X102713000Y-88124453D01*
X102713000Y-88405547D01*
X102767838Y-88681241D01*
X102875409Y-88940938D01*
X103031576Y-89174660D01*
X103230340Y-89373424D01*
X103464062Y-89529591D01*
X103723759Y-89637162D01*
X103999453Y-89692000D01*
X104280547Y-89692000D01*
X104556241Y-89637162D01*
X104815938Y-89529591D01*
X105049660Y-89373424D01*
X105248424Y-89174660D01*
X105404591Y-88940938D01*
X105512162Y-88681241D01*
X105567000Y-88405547D01*
X105567000Y-88124453D01*
X112873000Y-88124453D01*
X112873000Y-88405547D01*
X112927838Y-88681241D01*
X113035409Y-88940938D01*
X113191576Y-89174660D01*
X113390340Y-89373424D01*
X113624062Y-89529591D01*
X113883759Y-89637162D01*
X114159453Y-89692000D01*
X114440547Y-89692000D01*
X114716241Y-89637162D01*
X114975938Y-89529591D01*
X115209660Y-89373424D01*
X115408424Y-89174660D01*
X115564591Y-88940938D01*
X115672162Y-88681241D01*
X115695466Y-88564080D01*
X129330525Y-88564080D01*
X129414208Y-88818261D01*
X129686775Y-88949158D01*
X129979642Y-89024365D01*
X130281553Y-89040991D01*
X130580907Y-88998397D01*
X130866199Y-88898222D01*
X131015792Y-88818261D01*
X131099475Y-88564080D01*
X130215000Y-87679605D01*
X129330525Y-88564080D01*
X115695466Y-88564080D01*
X115727000Y-88405547D01*
X115727000Y-88124453D01*
X115672162Y-87848759D01*
X115564591Y-87589062D01*
X115549552Y-87566553D01*
X128674009Y-87566553D01*
X128716603Y-87865907D01*
X128816778Y-88151199D01*
X128896739Y-88300792D01*
X129150920Y-88384475D01*
X130035395Y-87500000D01*
X130394605Y-87500000D01*
X131279080Y-88384475D01*
X131435147Y-88333094D01*
X131528901Y-88473406D01*
X131741594Y-88686099D01*
X131991694Y-88853210D01*
X132269590Y-88968319D01*
X132564604Y-89027000D01*
X132865396Y-89027000D01*
X133160410Y-88968319D01*
X133438306Y-88853210D01*
X133688406Y-88686099D01*
X133901099Y-88473406D01*
X133965000Y-88377771D01*
X134028901Y-88473406D01*
X134241594Y-88686099D01*
X134491694Y-88853210D01*
X134769590Y-88968319D01*
X135064604Y-89027000D01*
X135365396Y-89027000D01*
X135660410Y-88968319D01*
X135938306Y-88853210D01*
X136188406Y-88686099D01*
X136401099Y-88473406D01*
X136568210Y-88223306D01*
X136683319Y-87945410D01*
X136742000Y-87650396D01*
X136742000Y-87349604D01*
X136683319Y-87054590D01*
X136568210Y-86776694D01*
X136401099Y-86526594D01*
X136188406Y-86313901D01*
X135938306Y-86146790D01*
X135660410Y-86031681D01*
X135365396Y-85973000D01*
X135064604Y-85973000D01*
X134769590Y-86031681D01*
X134491694Y-86146790D01*
X134241594Y-86313901D01*
X134028901Y-86526594D01*
X133965000Y-86622229D01*
X133901099Y-86526594D01*
X133688406Y-86313901D01*
X133438306Y-86146790D01*
X133160410Y-86031681D01*
X132865396Y-85973000D01*
X132564604Y-85973000D01*
X132269590Y-86031681D01*
X131991694Y-86146790D01*
X131741594Y-86313901D01*
X131528901Y-86526594D01*
X131435147Y-86666906D01*
X131279080Y-86615525D01*
X130394605Y-87500000D01*
X130035395Y-87500000D01*
X129150920Y-86615525D01*
X128896739Y-86699208D01*
X128765842Y-86971775D01*
X128690635Y-87264642D01*
X128674009Y-87566553D01*
X115549552Y-87566553D01*
X115408424Y-87355340D01*
X115209660Y-87156576D01*
X114975938Y-87000409D01*
X114716241Y-86892838D01*
X114440547Y-86838000D01*
X114159453Y-86838000D01*
X113883759Y-86892838D01*
X113624062Y-87000409D01*
X113390340Y-87156576D01*
X113191576Y-87355340D01*
X113035409Y-87589062D01*
X112927838Y-87848759D01*
X112873000Y-88124453D01*
X105567000Y-88124453D01*
X105512162Y-87848759D01*
X105404591Y-87589062D01*
X105248424Y-87355340D01*
X105049660Y-87156576D01*
X104815938Y-87000409D01*
X104556241Y-86892838D01*
X104280547Y-86838000D01*
X103999453Y-86838000D01*
X103723759Y-86892838D01*
X103464062Y-87000409D01*
X103230340Y-87156576D01*
X103031576Y-87355340D01*
X102875409Y-87589062D01*
X102767838Y-87848759D01*
X102713000Y-88124453D01*
X83177000Y-88124453D01*
X83177000Y-85584453D01*
X119223000Y-85584453D01*
X119223000Y-85865547D01*
X119277838Y-86141241D01*
X119385409Y-86400938D01*
X119541576Y-86634660D01*
X119740340Y-86833424D01*
X119974062Y-86989591D01*
X120233759Y-87097162D01*
X120509453Y-87152000D01*
X120790547Y-87152000D01*
X121066241Y-87097162D01*
X121325938Y-86989591D01*
X121559660Y-86833424D01*
X121758424Y-86634660D01*
X121891216Y-86435920D01*
X129330525Y-86435920D01*
X130215000Y-87320395D01*
X131099475Y-86435920D01*
X131015792Y-86181739D01*
X130743225Y-86050842D01*
X130450358Y-85975635D01*
X130148447Y-85959009D01*
X129849093Y-86001603D01*
X129563801Y-86101778D01*
X129414208Y-86181739D01*
X129330525Y-86435920D01*
X121891216Y-86435920D01*
X121914591Y-86400938D01*
X122022162Y-86141241D01*
X122077000Y-85865547D01*
X122077000Y-85584453D01*
X122069337Y-85545928D01*
X122263266Y-85351999D01*
X143399237Y-85351999D01*
X143353000Y-85584453D01*
X143353000Y-85865547D01*
X143407838Y-86141241D01*
X143515409Y-86400938D01*
X143671576Y-86634660D01*
X143870340Y-86833424D01*
X143903001Y-86855247D01*
X143903000Y-95501735D01*
X142343354Y-97061381D01*
X142330332Y-96929169D01*
X142266290Y-96718052D01*
X142302075Y-96651103D01*
X142337927Y-96532913D01*
X142350033Y-96410000D01*
X142350033Y-95360000D01*
X142337927Y-95237087D01*
X142302075Y-95118897D01*
X142243853Y-95009972D01*
X142165501Y-94914499D01*
X142070028Y-94836147D01*
X141961103Y-94777925D01*
X141842913Y-94742073D01*
X141720000Y-94729967D01*
X140220000Y-94729967D01*
X140097087Y-94742073D01*
X139978897Y-94777925D01*
X139869972Y-94836147D01*
X139774499Y-94914499D01*
X139696147Y-95009972D01*
X139637925Y-95118897D01*
X139602073Y-95237087D01*
X139589967Y-95360000D01*
X139589967Y-95690895D01*
X139180317Y-96100546D01*
X139146858Y-96128005D01*
X139119399Y-96161464D01*
X139119396Y-96161467D01*
X139037264Y-96261546D01*
X138955828Y-96413902D01*
X138905680Y-96579216D01*
X138888747Y-96751138D01*
X138892991Y-96794227D01*
X138892990Y-98785782D01*
X138888747Y-98828862D01*
X138905680Y-99000784D01*
X138945701Y-99132715D01*
X138955828Y-99166098D01*
X139037263Y-99318453D01*
X139146857Y-99451995D01*
X139180322Y-99479459D01*
X144430531Y-104729668D01*
X144457995Y-104763133D01*
X144591536Y-104872727D01*
X144743891Y-104954162D01*
X144909206Y-105004310D01*
X145038049Y-105017000D01*
X145038058Y-105017000D01*
X145081127Y-105021242D01*
X145124197Y-105017000D01*
X150634753Y-105017000D01*
X150656576Y-105049660D01*
X150855340Y-105248424D01*
X151089062Y-105404591D01*
X151348759Y-105512162D01*
X151624453Y-105567000D01*
X151905547Y-105567000D01*
X152181241Y-105512162D01*
X152440938Y-105404591D01*
X152674660Y-105248424D01*
X152790382Y-105132702D01*
X161111903Y-105132702D01*
X161183486Y-105376671D01*
X161438996Y-105497571D01*
X161713184Y-105566300D01*
X161995512Y-105580217D01*
X162275130Y-105538787D01*
X162541292Y-105443603D01*
X162666514Y-105376671D01*
X162738097Y-105132702D01*
X161925000Y-104319605D01*
X161111903Y-105132702D01*
X152790382Y-105132702D01*
X152873424Y-105049660D01*
X153029591Y-104815938D01*
X153137162Y-104556241D01*
X153192000Y-104280547D01*
X153192000Y-104210512D01*
X160484783Y-104210512D01*
X160526213Y-104490130D01*
X160621397Y-104756292D01*
X160688329Y-104881514D01*
X160932298Y-104953097D01*
X161745395Y-104140000D01*
X162104605Y-104140000D01*
X162917702Y-104953097D01*
X163161671Y-104881514D01*
X163282571Y-104626004D01*
X163351300Y-104351816D01*
X163365217Y-104069488D01*
X163323787Y-103789870D01*
X163228603Y-103523708D01*
X163161671Y-103398486D01*
X162917702Y-103326903D01*
X162104605Y-104140000D01*
X161745395Y-104140000D01*
X160932298Y-103326903D01*
X160688329Y-103398486D01*
X160567429Y-103653996D01*
X160498700Y-103928184D01*
X160484783Y-104210512D01*
X153192000Y-104210512D01*
X153192000Y-103999453D01*
X153137162Y-103723759D01*
X153029591Y-103464062D01*
X152873424Y-103230340D01*
X152790382Y-103147298D01*
X161111903Y-103147298D01*
X161925000Y-103960395D01*
X162738097Y-103147298D01*
X162666514Y-102903329D01*
X162411004Y-102782429D01*
X162136816Y-102713700D01*
X161854488Y-102699783D01*
X161574870Y-102741213D01*
X161308708Y-102836397D01*
X161183486Y-102903329D01*
X161111903Y-103147298D01*
X152790382Y-103147298D01*
X152674660Y-103031576D01*
X152440938Y-102875409D01*
X152181241Y-102767838D01*
X151905547Y-102713000D01*
X151624453Y-102713000D01*
X151348759Y-102767838D01*
X151089062Y-102875409D01*
X150855340Y-103031576D01*
X150656576Y-103230340D01*
X150634753Y-103263000D01*
X145444393Y-103263000D01*
X141662662Y-99481269D01*
X141838114Y-99387488D01*
X141921013Y-99319453D01*
X155498000Y-99319453D01*
X155498000Y-99600547D01*
X155552838Y-99876241D01*
X155660409Y-100135938D01*
X155816576Y-100369660D01*
X156015340Y-100568424D01*
X156249062Y-100724591D01*
X156508759Y-100832162D01*
X156784453Y-100887000D01*
X157065547Y-100887000D01*
X157341241Y-100832162D01*
X157600938Y-100724591D01*
X157834660Y-100568424D01*
X158033424Y-100369660D01*
X158189591Y-100135938D01*
X158297162Y-99876241D01*
X158352000Y-99600547D01*
X158352000Y-99319453D01*
X160498000Y-99319453D01*
X160498000Y-99600547D01*
X160552838Y-99876241D01*
X160660409Y-100135938D01*
X160816576Y-100369660D01*
X161015340Y-100568424D01*
X161249062Y-100724591D01*
X161508759Y-100832162D01*
X161784453Y-100887000D01*
X162065547Y-100887000D01*
X162341241Y-100832162D01*
X162600938Y-100724591D01*
X162834660Y-100568424D01*
X163033424Y-100369660D01*
X163189591Y-100135938D01*
X163297162Y-99876241D01*
X163352000Y-99600547D01*
X163352000Y-99319453D01*
X163297162Y-99043759D01*
X163189591Y-98784062D01*
X163033424Y-98550340D01*
X162834660Y-98351576D01*
X162600938Y-98195409D01*
X162341241Y-98087838D01*
X162065547Y-98033000D01*
X161784453Y-98033000D01*
X161508759Y-98087838D01*
X161249062Y-98195409D01*
X161015340Y-98351576D01*
X160816576Y-98550340D01*
X160660409Y-98784062D01*
X160552838Y-99043759D01*
X160498000Y-99319453D01*
X158352000Y-99319453D01*
X158297162Y-99043759D01*
X158189591Y-98784062D01*
X158033424Y-98550340D01*
X157834660Y-98351576D01*
X157600938Y-98195409D01*
X157341241Y-98087838D01*
X157065547Y-98033000D01*
X156784453Y-98033000D01*
X156508759Y-98087838D01*
X156249062Y-98195409D01*
X156015340Y-98351576D01*
X155816576Y-98550340D01*
X155660409Y-98784062D01*
X155552838Y-99043759D01*
X155498000Y-99319453D01*
X141921013Y-99319453D01*
X141942280Y-99302000D01*
X142176921Y-99302000D01*
X142220000Y-99306243D01*
X142263079Y-99302000D01*
X142391922Y-99289310D01*
X142557237Y-99239162D01*
X142709592Y-99157727D01*
X142843133Y-99048133D01*
X142870597Y-99014668D01*
X145369669Y-96515596D01*
X145403133Y-96488133D01*
X145512727Y-96354592D01*
X145594162Y-96202237D01*
X145644310Y-96036922D01*
X145657000Y-95908079D01*
X145657000Y-95908078D01*
X145661243Y-95865000D01*
X145657000Y-95821921D01*
X145657000Y-86855247D01*
X145689660Y-86833424D01*
X145888424Y-86634660D01*
X146044591Y-86400938D01*
X146050766Y-86386029D01*
X149373001Y-89708264D01*
X149373000Y-93469967D01*
X149350000Y-93469967D01*
X149227087Y-93482073D01*
X149108897Y-93517925D01*
X148999972Y-93576147D01*
X148904499Y-93654499D01*
X148826147Y-93749972D01*
X148767925Y-93858897D01*
X148732073Y-93977087D01*
X148719967Y-94100000D01*
X148719967Y-95900000D01*
X148732073Y-96022913D01*
X148767925Y-96141103D01*
X148826147Y-96250028D01*
X148904499Y-96345501D01*
X148999972Y-96423853D01*
X149108897Y-96482075D01*
X149139221Y-96491274D01*
X149063901Y-96566594D01*
X148896790Y-96816694D01*
X148781681Y-97094590D01*
X148723000Y-97389604D01*
X148723000Y-97690396D01*
X148781681Y-97985410D01*
X148896790Y-98263306D01*
X149063901Y-98513406D01*
X149276594Y-98726099D01*
X149526694Y-98893210D01*
X149804590Y-99008319D01*
X150099604Y-99067000D01*
X150400396Y-99067000D01*
X150695410Y-99008319D01*
X150973306Y-98893210D01*
X151223406Y-98726099D01*
X151436099Y-98513406D01*
X151603210Y-98263306D01*
X151718319Y-97985410D01*
X151777000Y-97690396D01*
X151777000Y-97389604D01*
X151718319Y-97094590D01*
X151603210Y-96816694D01*
X151436099Y-96566594D01*
X151360779Y-96491274D01*
X151391103Y-96482075D01*
X151500028Y-96423853D01*
X151595501Y-96345501D01*
X151673853Y-96250028D01*
X151732075Y-96141103D01*
X151767927Y-96022913D01*
X151780033Y-95900000D01*
X151780033Y-94100000D01*
X151767927Y-93977087D01*
X151732075Y-93858897D01*
X151673853Y-93749972D01*
X151595501Y-93654499D01*
X151500028Y-93576147D01*
X151391103Y-93517925D01*
X151272913Y-93482073D01*
X151150000Y-93469967D01*
X151127000Y-93469967D01*
X151127000Y-90180306D01*
X151348759Y-90272162D01*
X151624453Y-90327000D01*
X151905547Y-90327000D01*
X152181241Y-90272162D01*
X152440938Y-90164591D01*
X152674660Y-90008424D01*
X152873424Y-89809660D01*
X153029591Y-89575938D01*
X153137162Y-89316241D01*
X153150529Y-89249039D01*
X160533096Y-89249039D01*
X160573754Y-89383087D01*
X160693963Y-89637420D01*
X160861481Y-89863414D01*
X161069869Y-90052385D01*
X161311119Y-90197070D01*
X161575960Y-90291909D01*
X161798000Y-90170624D01*
X161798000Y-89027000D01*
X162052000Y-89027000D01*
X162052000Y-90170624D01*
X162274040Y-90291909D01*
X162538881Y-90197070D01*
X162780131Y-90052385D01*
X162988519Y-89863414D01*
X163156037Y-89637420D01*
X163276246Y-89383087D01*
X163316904Y-89249039D01*
X163194915Y-89027000D01*
X162052000Y-89027000D01*
X161798000Y-89027000D01*
X160655085Y-89027000D01*
X160533096Y-89249039D01*
X153150529Y-89249039D01*
X153192000Y-89040547D01*
X153192000Y-88759453D01*
X153150530Y-88550961D01*
X160533096Y-88550961D01*
X160655085Y-88773000D01*
X161798000Y-88773000D01*
X161798000Y-87629376D01*
X162052000Y-87629376D01*
X162052000Y-88773000D01*
X163194915Y-88773000D01*
X163316904Y-88550961D01*
X163276246Y-88416913D01*
X163156037Y-88162580D01*
X162988519Y-87936586D01*
X162780131Y-87747615D01*
X162538881Y-87602930D01*
X162274040Y-87508091D01*
X162052000Y-87629376D01*
X161798000Y-87629376D01*
X161575960Y-87508091D01*
X161311119Y-87602930D01*
X161069869Y-87747615D01*
X160861481Y-87936586D01*
X160693963Y-88162580D01*
X160573754Y-88416913D01*
X160533096Y-88550961D01*
X153150530Y-88550961D01*
X153137162Y-88483759D01*
X153029591Y-88224062D01*
X152873424Y-87990340D01*
X152674660Y-87791576D01*
X152440938Y-87635409D01*
X152181241Y-87527838D01*
X151905547Y-87473000D01*
X151624453Y-87473000D01*
X151348759Y-87527838D01*
X151089062Y-87635409D01*
X150855340Y-87791576D01*
X150656576Y-87990340D01*
X150500409Y-88224062D01*
X150462016Y-88316749D01*
X146030598Y-83885331D01*
X146003134Y-83851866D01*
X145869593Y-83742272D01*
X145717238Y-83660837D01*
X145551923Y-83610689D01*
X145423080Y-83597999D01*
X145380001Y-83593756D01*
X145336922Y-83597999D01*
X121943070Y-83597999D01*
X121900000Y-83593757D01*
X121856931Y-83597999D01*
X121856922Y-83597999D01*
X121728079Y-83610689D01*
X121562764Y-83660837D01*
X121410409Y-83742272D01*
X121276868Y-83851866D01*
X121249404Y-83885331D01*
X120829072Y-84305663D01*
X120790547Y-84298000D01*
X120509453Y-84298000D01*
X120233759Y-84352838D01*
X119974062Y-84460409D01*
X119740340Y-84616576D01*
X119541576Y-84815340D01*
X119385409Y-85049062D01*
X119277838Y-85308759D01*
X119223000Y-85584453D01*
X83177000Y-85584453D01*
X83177000Y-81139453D01*
X102713000Y-81139453D01*
X102713000Y-81420547D01*
X102767838Y-81696241D01*
X102875409Y-81955938D01*
X103031576Y-82189660D01*
X103230340Y-82388424D01*
X103464062Y-82544591D01*
X103723759Y-82652162D01*
X103999453Y-82707000D01*
X104280547Y-82707000D01*
X104556241Y-82652162D01*
X104815938Y-82544591D01*
X105049660Y-82388424D01*
X105248424Y-82189660D01*
X105404591Y-81955938D01*
X105512162Y-81696241D01*
X105567000Y-81420547D01*
X105567000Y-81139453D01*
X112873000Y-81139453D01*
X112873000Y-81420547D01*
X112927838Y-81696241D01*
X113035409Y-81955938D01*
X113191576Y-82189660D01*
X113390340Y-82388424D01*
X113624062Y-82544591D01*
X113883759Y-82652162D01*
X114159453Y-82707000D01*
X114440547Y-82707000D01*
X114716241Y-82652162D01*
X114975938Y-82544591D01*
X115209660Y-82388424D01*
X115408424Y-82189660D01*
X115564591Y-81955938D01*
X115672162Y-81696241D01*
X115727000Y-81420547D01*
X115727000Y-81139453D01*
X115672162Y-80863759D01*
X115564591Y-80604062D01*
X115408424Y-80370340D01*
X115279347Y-80241263D01*
X125688000Y-80241263D01*
X125688000Y-80758737D01*
X125788954Y-81266268D01*
X125986983Y-81744351D01*
X126274476Y-82174615D01*
X126640385Y-82540524D01*
X127070649Y-82828017D01*
X127548732Y-83026046D01*
X128056263Y-83127000D01*
X128573737Y-83127000D01*
X129081268Y-83026046D01*
X129559351Y-82828017D01*
X129989615Y-82540524D01*
X130355524Y-82174615D01*
X130643017Y-81744351D01*
X130841046Y-81266268D01*
X130942000Y-80758737D01*
X130942000Y-80241263D01*
X134488000Y-80241263D01*
X134488000Y-80758737D01*
X134588954Y-81266268D01*
X134786983Y-81744351D01*
X135074476Y-82174615D01*
X135440385Y-82540524D01*
X135870649Y-82828017D01*
X136348732Y-83026046D01*
X136856263Y-83127000D01*
X137373737Y-83127000D01*
X137881268Y-83026046D01*
X138359351Y-82828017D01*
X138789615Y-82540524D01*
X139155524Y-82174615D01*
X139443017Y-81744351D01*
X139641046Y-81266268D01*
X139666271Y-81139453D01*
X150338000Y-81139453D01*
X150338000Y-81420547D01*
X150392838Y-81696241D01*
X150500409Y-81955938D01*
X150656576Y-82189660D01*
X150855340Y-82388424D01*
X151089062Y-82544591D01*
X151348759Y-82652162D01*
X151624453Y-82707000D01*
X151905547Y-82707000D01*
X152181241Y-82652162D01*
X152440938Y-82544591D01*
X152674660Y-82388424D01*
X152873424Y-82189660D01*
X153029591Y-81955938D01*
X153137162Y-81696241D01*
X153150529Y-81629039D01*
X160533096Y-81629039D01*
X160573754Y-81763087D01*
X160693963Y-82017420D01*
X160861481Y-82243414D01*
X161069869Y-82432385D01*
X161311119Y-82577070D01*
X161575960Y-82671909D01*
X161798000Y-82550624D01*
X161798000Y-81407000D01*
X162052000Y-81407000D01*
X162052000Y-82550624D01*
X162274040Y-82671909D01*
X162538881Y-82577070D01*
X162780131Y-82432385D01*
X162988519Y-82243414D01*
X163156037Y-82017420D01*
X163276246Y-81763087D01*
X163316904Y-81629039D01*
X163194915Y-81407000D01*
X162052000Y-81407000D01*
X161798000Y-81407000D01*
X160655085Y-81407000D01*
X160533096Y-81629039D01*
X153150529Y-81629039D01*
X153192000Y-81420547D01*
X153192000Y-81139453D01*
X153150530Y-80930961D01*
X160533096Y-80930961D01*
X160655085Y-81153000D01*
X161798000Y-81153000D01*
X161798000Y-80009376D01*
X162052000Y-80009376D01*
X162052000Y-81153000D01*
X163194915Y-81153000D01*
X163316904Y-80930961D01*
X163276246Y-80796913D01*
X163156037Y-80542580D01*
X162988519Y-80316586D01*
X162780131Y-80127615D01*
X162538881Y-79982930D01*
X162274040Y-79888091D01*
X162052000Y-80009376D01*
X161798000Y-80009376D01*
X161575960Y-79888091D01*
X161311119Y-79982930D01*
X161069869Y-80127615D01*
X160861481Y-80316586D01*
X160693963Y-80542580D01*
X160573754Y-80796913D01*
X160533096Y-80930961D01*
X153150530Y-80930961D01*
X153137162Y-80863759D01*
X153029591Y-80604062D01*
X152873424Y-80370340D01*
X152674660Y-80171576D01*
X152440938Y-80015409D01*
X152181241Y-79907838D01*
X151905547Y-79853000D01*
X151624453Y-79853000D01*
X151348759Y-79907838D01*
X151089062Y-80015409D01*
X150855340Y-80171576D01*
X150656576Y-80370340D01*
X150500409Y-80604062D01*
X150392838Y-80863759D01*
X150338000Y-81139453D01*
X139666271Y-81139453D01*
X139742000Y-80758737D01*
X139742000Y-80241263D01*
X139641046Y-79733732D01*
X139443017Y-79255649D01*
X139155524Y-78825385D01*
X138789615Y-78459476D01*
X138359351Y-78171983D01*
X137881268Y-77973954D01*
X137373737Y-77873000D01*
X136856263Y-77873000D01*
X136348732Y-77973954D01*
X135870649Y-78171983D01*
X135440385Y-78459476D01*
X135074476Y-78825385D01*
X134786983Y-79255649D01*
X134588954Y-79733732D01*
X134488000Y-80241263D01*
X130942000Y-80241263D01*
X130841046Y-79733732D01*
X130643017Y-79255649D01*
X130355524Y-78825385D01*
X129989615Y-78459476D01*
X129559351Y-78171983D01*
X129081268Y-77973954D01*
X128573737Y-77873000D01*
X128056263Y-77873000D01*
X127548732Y-77973954D01*
X127070649Y-78171983D01*
X126640385Y-78459476D01*
X126274476Y-78825385D01*
X125986983Y-79255649D01*
X125788954Y-79733732D01*
X125688000Y-80241263D01*
X115279347Y-80241263D01*
X115209660Y-80171576D01*
X114975938Y-80015409D01*
X114716241Y-79907838D01*
X114440547Y-79853000D01*
X114159453Y-79853000D01*
X113883759Y-79907838D01*
X113624062Y-80015409D01*
X113390340Y-80171576D01*
X113191576Y-80370340D01*
X113035409Y-80604062D01*
X112927838Y-80863759D01*
X112873000Y-81139453D01*
X105567000Y-81139453D01*
X105512162Y-80863759D01*
X105404591Y-80604062D01*
X105248424Y-80370340D01*
X105049660Y-80171576D01*
X104815938Y-80015409D01*
X104556241Y-79907838D01*
X104280547Y-79853000D01*
X103999453Y-79853000D01*
X103723759Y-79907838D01*
X103464062Y-80015409D01*
X103230340Y-80171576D01*
X103031576Y-80370340D01*
X102875409Y-80604062D01*
X102767838Y-80863759D01*
X102713000Y-81139453D01*
X83177000Y-81139453D01*
X83177000Y-76557702D01*
X119836903Y-76557702D01*
X119908486Y-76801671D01*
X120163996Y-76922571D01*
X120438184Y-76991300D01*
X120720512Y-77005217D01*
X121000130Y-76963787D01*
X121266292Y-76868603D01*
X121391514Y-76801671D01*
X121463097Y-76557702D01*
X120650000Y-75744605D01*
X119836903Y-76557702D01*
X83177000Y-76557702D01*
X83177000Y-75635512D01*
X119209783Y-75635512D01*
X119251213Y-75915130D01*
X119346397Y-76181292D01*
X119413329Y-76306514D01*
X119657298Y-76378097D01*
X120470395Y-75565000D01*
X120829605Y-75565000D01*
X121642702Y-76378097D01*
X121886671Y-76306514D01*
X122007571Y-76051004D01*
X122076300Y-75776816D01*
X122090217Y-75494488D01*
X122048787Y-75214870D01*
X121953603Y-74948708D01*
X121886671Y-74823486D01*
X121642702Y-74751903D01*
X120829605Y-75565000D01*
X120470395Y-75565000D01*
X119657298Y-74751903D01*
X119413329Y-74823486D01*
X119292429Y-75078996D01*
X119223700Y-75353184D01*
X119209783Y-75635512D01*
X83177000Y-75635512D01*
X83177000Y-74572298D01*
X119836903Y-74572298D01*
X120650000Y-75385395D01*
X121463097Y-74572298D01*
X121391514Y-74328329D01*
X121136004Y-74207429D01*
X120861816Y-74138700D01*
X120579488Y-74124783D01*
X120299870Y-74166213D01*
X120033708Y-74261397D01*
X119908486Y-74328329D01*
X119836903Y-74572298D01*
X83177000Y-74572298D01*
X83177000Y-73177000D01*
X83266748Y-73177000D01*
X83300000Y-73180275D01*
X83333252Y-73177000D01*
X83432715Y-73167204D01*
X83560330Y-73128492D01*
X83677941Y-73065628D01*
X83781027Y-72981027D01*
X83865628Y-72877941D01*
X83928492Y-72760330D01*
X83967204Y-72632715D01*
X83980275Y-72500000D01*
X83977000Y-72466748D01*
X83977000Y-71995453D01*
X127478000Y-71995453D01*
X127478000Y-72276547D01*
X127532838Y-72552241D01*
X127640409Y-72811938D01*
X127796576Y-73045660D01*
X127995340Y-73244424D01*
X128229062Y-73400591D01*
X128488759Y-73508162D01*
X128764453Y-73563000D01*
X129045547Y-73563000D01*
X129084072Y-73555337D01*
X131683403Y-76154668D01*
X131710867Y-76188133D01*
X131844408Y-76297727D01*
X131996763Y-76379162D01*
X132162078Y-76429310D01*
X132290921Y-76442000D01*
X132290930Y-76442000D01*
X132333999Y-76446242D01*
X132377069Y-76442000D01*
X143649753Y-76442000D01*
X143671576Y-76474660D01*
X143870340Y-76673424D01*
X144104062Y-76829591D01*
X144363759Y-76937162D01*
X144639453Y-76992000D01*
X144920547Y-76992000D01*
X145196241Y-76937162D01*
X145455938Y-76829591D01*
X145689660Y-76673424D01*
X145888424Y-76474660D01*
X146044591Y-76240938D01*
X146152162Y-75981241D01*
X146207000Y-75705547D01*
X146207000Y-75424453D01*
X146152162Y-75148759D01*
X146044591Y-74889062D01*
X145888424Y-74655340D01*
X145689660Y-74456576D01*
X145455938Y-74300409D01*
X145196241Y-74192838D01*
X144920547Y-74138000D01*
X144639453Y-74138000D01*
X144363759Y-74192838D01*
X144104062Y-74300409D01*
X143870340Y-74456576D01*
X143671576Y-74655340D01*
X143649753Y-74688000D01*
X132697265Y-74688000D01*
X130324337Y-72315072D01*
X130332000Y-72276547D01*
X130332000Y-71995453D01*
X134978000Y-71995453D01*
X134978000Y-72276547D01*
X135032838Y-72552241D01*
X135140409Y-72811938D01*
X135296576Y-73045660D01*
X135495340Y-73244424D01*
X135729062Y-73400591D01*
X135988759Y-73508162D01*
X136264453Y-73563000D01*
X136545547Y-73563000D01*
X136821241Y-73508162D01*
X137080938Y-73400591D01*
X137314660Y-73244424D01*
X137513424Y-73045660D01*
X137669591Y-72811938D01*
X137777162Y-72552241D01*
X137832000Y-72276547D01*
X137832000Y-71995453D01*
X137777162Y-71719759D01*
X137669591Y-71460062D01*
X137513424Y-71226340D01*
X137314660Y-71027576D01*
X137080938Y-70871409D01*
X136821241Y-70763838D01*
X136545547Y-70709000D01*
X136264453Y-70709000D01*
X135988759Y-70763838D01*
X135729062Y-70871409D01*
X135495340Y-71027576D01*
X135296576Y-71226340D01*
X135140409Y-71460062D01*
X135032838Y-71719759D01*
X134978000Y-71995453D01*
X130332000Y-71995453D01*
X130277162Y-71719759D01*
X130169591Y-71460062D01*
X130013424Y-71226340D01*
X129814660Y-71027576D01*
X129580938Y-70871409D01*
X129321241Y-70763838D01*
X129045547Y-70709000D01*
X128764453Y-70709000D01*
X128488759Y-70763838D01*
X128229062Y-70871409D01*
X127995340Y-71027576D01*
X127796576Y-71226340D01*
X127640409Y-71460062D01*
X127532838Y-71719759D01*
X127478000Y-71995453D01*
X83977000Y-71995453D01*
X83977000Y-70677000D01*
X181323000Y-70677000D01*
X181323001Y-90823000D01*
G37*
G04 #@! TD.AperFunction*
G04 #@! TD*
M02*
