M48
; DRILL file {KiCad (5.1.7)-1} date 04/09/22 18:00:21
; FORMAT={-:-/ absolute / inch / decimal}
; #@! TF.CreationDate,2022-04-09T18:00:21-05:00
; #@! TF.GenerationSoftware,Kicad,Pcbnew,(5.1.7)-1
; #@! TF.FileFunction,Plated,1,2,PTH
FMAT,2
INCH
T1C0.0157
T2C0.0315
T3C0.0354
T4C0.0394
T5C0.0984
%
G90
G05
T1
X4.04Y-4.76
X4.14Y-4.76
X4.24Y-4.76
X4.34Y-4.51
X4.34Y-4.76
X4.44Y-4.76
X4.54Y-4.76
X4.55Y-4.55
X5.26Y-4.34
X5.27Y-4.21
X5.48Y-4.13
X5.78Y-4.08
X5.78Y-4.18
X5.92Y-4.55
X5.92Y-4.76
X6.02Y-4.76
X6.12Y-4.76
X6.22Y-4.76
X6.32Y-4.76
X6.42Y-4.76
T2
X3.75Y-3.5902
X3.75Y-3.9902
X5.128Y-3.1
X5.228Y-3.3
X5.328Y-3.1
X6.7028Y-3.5902
X6.7028Y-3.9902
T3
X5.9154Y-3.7402
X5.9154Y-3.8402
X4.5374Y-3.7402
X4.5374Y-3.8402
T4
X4.439Y-3.4449
X4.5374Y-3.4449
X4.6358Y-3.4449
X5.8169Y-3.4449
X5.9154Y-3.4449
X6.0138Y-3.4449
T5
X7.0925Y-4.8268
X3.3602Y-4.8268
T0
M30
