G04 #@! TF.GenerationSoftware,KiCad,Pcbnew,(5.1.7)-1*
G04 #@! TF.CreationDate,2022-04-10T16:21:18-05:00*
G04 #@! TF.ProjectId,ConsolePedalFuzzSMT,436f6e73-6f6c-4655-9065-64616c46757a,rev?*
G04 #@! TF.SameCoordinates,Original*
G04 #@! TF.FileFunction,Copper,L1,Top*
G04 #@! TF.FilePolarity,Positive*
%FSLAX46Y46*%
G04 Gerber Fmt 4.6, Leading zero omitted, Abs format (unit mm)*
G04 Created by KiCad (PCBNEW (5.1.7)-1) date 2022-04-10 16:21:18*
%MOMM*%
%LPD*%
G01*
G04 APERTURE LIST*
G04 #@! TA.AperFunction,ComponentPad*
%ADD10R,1.800000X1.800000*%
G04 #@! TD*
G04 #@! TA.AperFunction,ComponentPad*
%ADD11C,1.800000*%
G04 #@! TD*
G04 #@! TA.AperFunction,ComponentPad*
%ADD12C,5.000000*%
G04 #@! TD*
G04 #@! TA.AperFunction,WasherPad*
%ADD13C,4.000000*%
G04 #@! TD*
G04 #@! TA.AperFunction,ComponentPad*
%ADD14C,1.600000*%
G04 #@! TD*
G04 #@! TA.AperFunction,ComponentPad*
%ADD15O,1.600000X1.600000*%
G04 #@! TD*
G04 #@! TA.AperFunction,ComponentPad*
%ADD16C,1.440000*%
G04 #@! TD*
G04 #@! TA.AperFunction,ConnectorPad*
%ADD17R,1.500000X7.000000*%
G04 #@! TD*
G04 #@! TA.AperFunction,SMDPad,CuDef*
%ADD18R,0.800000X0.900000*%
G04 #@! TD*
G04 #@! TA.AperFunction,ViaPad*
%ADD19C,0.800000*%
G04 #@! TD*
G04 #@! TA.AperFunction,Conductor*
%ADD20C,0.500000*%
G04 #@! TD*
G04 #@! TA.AperFunction,Conductor*
%ADD21C,0.254000*%
G04 #@! TD*
G04 #@! TA.AperFunction,Conductor*
%ADD22C,0.100000*%
G04 #@! TD*
G04 APERTURE END LIST*
D10*
G04 #@! TO.P,D1,1*
G04 #@! TO.N,Net-(D1-Pad1)*
X115250000Y-95000000D03*
D11*
G04 #@! TO.P,D1,2*
G04 #@! TO.N,/LEDPower*
X115250000Y-97540000D03*
G04 #@! TD*
G04 #@! TO.P,D2,2*
G04 #@! TO.N,/LEDPower*
X150250000Y-97540000D03*
D10*
G04 #@! TO.P,D2,1*
G04 #@! TO.N,Net-(D2-Pad1)*
X150250000Y-95000000D03*
G04 #@! TD*
D12*
G04 #@! TO.P,H1,1*
G04 #@! TO.N,GND*
X85350000Y-122600000D03*
G04 #@! TD*
G04 #@! TO.P,H2,1*
G04 #@! TO.N,GND*
X180150000Y-122600000D03*
G04 #@! TD*
D13*
G04 #@! TO.P,RV1,*
G04 #@! TO.N,*
X154650000Y-80500000D03*
X145850000Y-80500000D03*
D11*
G04 #@! TO.P,RV1,1*
G04 #@! TO.N,Net-(Q2-Pad2)*
X152750000Y-87500000D03*
G04 #@! TO.P,RV1,2*
G04 #@! TO.N,Net-(C3-Pad1)*
X150250000Y-87500000D03*
G04 #@! TO.P,RV1,3*
G04 #@! TO.N,GND*
X147750000Y-87500000D03*
G04 #@! TD*
G04 #@! TO.P,RV2,3*
G04 #@! TO.N,GND*
X112750000Y-87500000D03*
G04 #@! TO.P,RV2,2*
G04 #@! TO.N,/Output*
X115250000Y-87500000D03*
G04 #@! TO.P,RV2,1*
G04 #@! TO.N,Net-(C2-Pad1)*
X117750000Y-87500000D03*
D13*
G04 #@! TO.P,RV2,*
G04 #@! TO.N,*
X110850000Y-80500000D03*
X119650000Y-80500000D03*
G04 #@! TD*
D14*
G04 #@! TO.P,R3,1*
G04 #@! TO.N,GND*
X170250000Y-101350000D03*
D15*
G04 #@! TO.P,R3,2*
G04 #@! TO.N,Net-(D2-Pad1)*
X170250000Y-91190000D03*
G04 #@! TD*
D16*
G04 #@! TO.P,RV3,3*
G04 #@! TO.N,N/C*
X135330000Y-78740000D03*
G04 #@! TO.P,RV3,2*
G04 #@! TO.N,Net-(Q2-Pad3)*
X132790000Y-83820000D03*
G04 #@! TO.P,RV3,1*
G04 #@! TO.N,Net-(C2-Pad2)*
X130250000Y-78740000D03*
G04 #@! TD*
D17*
G04 #@! TO.P,J1,25*
G04 #@! TO.N,GND*
X163195000Y-126000000D03*
G04 #@! TO.P,J1,24*
X160655000Y-126000000D03*
G04 #@! TO.P,J1,23*
G04 #@! TO.N,/Input*
X158115000Y-126000000D03*
G04 #@! TO.P,J1,22*
G04 #@! TO.N,/Output*
X155575000Y-126000000D03*
G04 #@! TO.P,J1,21*
G04 #@! TO.N,+9V*
X153035000Y-126000000D03*
G04 #@! TO.P,J1,20*
G04 #@! TO.N,/LEDPower*
X150495000Y-126000000D03*
G04 #@! TO.P,J1,19*
G04 #@! TO.N,N/C*
X147955000Y-126000000D03*
G04 #@! TO.P,J1,18*
X145415000Y-126000000D03*
G04 #@! TO.P,J1,17*
X142875000Y-126000000D03*
G04 #@! TO.P,J1,16*
X140335000Y-126000000D03*
G04 #@! TO.P,J1,15*
X137795000Y-126000000D03*
G04 #@! TO.P,J1,14*
X135255000Y-126000000D03*
G04 #@! TO.P,J1,13*
X132715000Y-126000000D03*
G04 #@! TO.P,J1,12*
X130175000Y-126000000D03*
G04 #@! TO.P,J1,11*
X127635000Y-126000000D03*
G04 #@! TO.P,J1,10*
X125095000Y-126000000D03*
G04 #@! TO.P,J1,9*
X122555000Y-126000000D03*
G04 #@! TO.P,J1,8*
X120015000Y-126000000D03*
G04 #@! TO.P,J1,7*
X117475000Y-126000000D03*
G04 #@! TO.P,J1,6*
G04 #@! TO.N,/LEDPower*
X114935000Y-126000000D03*
G04 #@! TO.P,J1,5*
G04 #@! TO.N,+9V*
X112395000Y-126000000D03*
G04 #@! TO.P,J1,4*
G04 #@! TO.N,/Output*
X109855000Y-126000000D03*
G04 #@! TO.P,J1,3*
G04 #@! TO.N,/Input*
X107315000Y-126000000D03*
G04 #@! TO.P,J1,2*
G04 #@! TO.N,GND*
X104775000Y-126000000D03*
G04 #@! TO.P,J1,1*
X102235000Y-126000000D03*
G04 #@! TD*
G04 #@! TO.P,C1,2*
G04 #@! TO.N,/Input*
G04 #@! TA.AperFunction,SMDPad,CuDef*
G36*
G01*
X94700000Y-81550000D02*
X95800000Y-81550000D01*
G75*
G02*
X96050000Y-81800000I0J-250000D01*
G01*
X96050000Y-84800000D01*
G75*
G02*
X95800000Y-85050000I-250000J0D01*
G01*
X94700000Y-85050000D01*
G75*
G02*
X94450000Y-84800000I0J250000D01*
G01*
X94450000Y-81800000D01*
G75*
G02*
X94700000Y-81550000I250000J0D01*
G01*
G37*
G04 #@! TD.AperFunction*
G04 #@! TO.P,C1,1*
G04 #@! TO.N,Net-(C1-Pad1)*
G04 #@! TA.AperFunction,SMDPad,CuDef*
G36*
G01*
X94700000Y-75950000D02*
X95800000Y-75950000D01*
G75*
G02*
X96050000Y-76200000I0J-250000D01*
G01*
X96050000Y-79200000D01*
G75*
G02*
X95800000Y-79450000I-250000J0D01*
G01*
X94700000Y-79450000D01*
G75*
G02*
X94450000Y-79200000I0J250000D01*
G01*
X94450000Y-76200000D01*
G75*
G02*
X94700000Y-75950000I250000J0D01*
G01*
G37*
G04 #@! TD.AperFunction*
G04 #@! TD*
G04 #@! TO.P,C2,1*
G04 #@! TO.N,Net-(C2-Pad1)*
G04 #@! TA.AperFunction,SMDPad,CuDef*
G36*
G01*
X126525000Y-96520000D02*
X126525000Y-96020000D01*
G75*
G02*
X126750000Y-95795000I225000J0D01*
G01*
X127200000Y-95795000D01*
G75*
G02*
X127425000Y-96020000I0J-225000D01*
G01*
X127425000Y-96520000D01*
G75*
G02*
X127200000Y-96745000I-225000J0D01*
G01*
X126750000Y-96745000D01*
G75*
G02*
X126525000Y-96520000I0J225000D01*
G01*
G37*
G04 #@! TD.AperFunction*
G04 #@! TO.P,C2,2*
G04 #@! TO.N,Net-(C2-Pad2)*
G04 #@! TA.AperFunction,SMDPad,CuDef*
G36*
G01*
X128075000Y-96520000D02*
X128075000Y-96020000D01*
G75*
G02*
X128300000Y-95795000I225000J0D01*
G01*
X128750000Y-95795000D01*
G75*
G02*
X128975000Y-96020000I0J-225000D01*
G01*
X128975000Y-96520000D01*
G75*
G02*
X128750000Y-96745000I-225000J0D01*
G01*
X128300000Y-96745000D01*
G75*
G02*
X128075000Y-96520000I0J225000D01*
G01*
G37*
G04 #@! TD.AperFunction*
G04 #@! TD*
G04 #@! TO.P,C3,1*
G04 #@! TO.N,Net-(C3-Pad1)*
G04 #@! TA.AperFunction,SMDPad,CuDef*
G36*
G01*
X169700000Y-75950000D02*
X170800000Y-75950000D01*
G75*
G02*
X171050000Y-76200000I0J-250000D01*
G01*
X171050000Y-79200000D01*
G75*
G02*
X170800000Y-79450000I-250000J0D01*
G01*
X169700000Y-79450000D01*
G75*
G02*
X169450000Y-79200000I0J250000D01*
G01*
X169450000Y-76200000D01*
G75*
G02*
X169700000Y-75950000I250000J0D01*
G01*
G37*
G04 #@! TD.AperFunction*
G04 #@! TO.P,C3,2*
G04 #@! TO.N,GND*
G04 #@! TA.AperFunction,SMDPad,CuDef*
G36*
G01*
X169700000Y-81550000D02*
X170800000Y-81550000D01*
G75*
G02*
X171050000Y-81800000I0J-250000D01*
G01*
X171050000Y-84800000D01*
G75*
G02*
X170800000Y-85050000I-250000J0D01*
G01*
X169700000Y-85050000D01*
G75*
G02*
X169450000Y-84800000I0J250000D01*
G01*
X169450000Y-81800000D01*
G75*
G02*
X169700000Y-81550000I250000J0D01*
G01*
G37*
G04 #@! TD.AperFunction*
G04 #@! TD*
D18*
G04 #@! TO.P,Q1,1*
G04 #@! TO.N,Net-(C1-Pad1)*
X116200000Y-106000000D03*
G04 #@! TO.P,Q1,2*
G04 #@! TO.N,GND*
X114300000Y-106000000D03*
G04 #@! TO.P,Q1,3*
G04 #@! TO.N,Net-(Q1-Pad3)*
X115250000Y-108000000D03*
G04 #@! TD*
G04 #@! TO.P,Q2,3*
G04 #@! TO.N,Net-(Q2-Pad3)*
X150250000Y-108000000D03*
G04 #@! TO.P,Q2,2*
G04 #@! TO.N,Net-(Q2-Pad2)*
X149300000Y-106000000D03*
G04 #@! TO.P,Q2,1*
G04 #@! TO.N,Net-(Q1-Pad3)*
X151200000Y-106000000D03*
G04 #@! TD*
G04 #@! TO.P,R1,2*
G04 #@! TO.N,+9V*
G04 #@! TA.AperFunction,SMDPad,CuDef*
G36*
G01*
X137325000Y-106725000D02*
X137325000Y-107275000D01*
G75*
G02*
X137125000Y-107475000I-200000J0D01*
G01*
X136725000Y-107475000D01*
G75*
G02*
X136525000Y-107275000I0J200000D01*
G01*
X136525000Y-106725000D01*
G75*
G02*
X136725000Y-106525000I200000J0D01*
G01*
X137125000Y-106525000D01*
G75*
G02*
X137325000Y-106725000I0J-200000D01*
G01*
G37*
G04 #@! TD.AperFunction*
G04 #@! TO.P,R1,1*
G04 #@! TO.N,Net-(Q1-Pad3)*
G04 #@! TA.AperFunction,SMDPad,CuDef*
G36*
G01*
X138975000Y-106725000D02*
X138975000Y-107275000D01*
G75*
G02*
X138775000Y-107475000I-200000J0D01*
G01*
X138375000Y-107475000D01*
G75*
G02*
X138175000Y-107275000I0J200000D01*
G01*
X138175000Y-106725000D01*
G75*
G02*
X138375000Y-106525000I200000J0D01*
G01*
X138775000Y-106525000D01*
G75*
G02*
X138975000Y-106725000I0J-200000D01*
G01*
G37*
G04 #@! TD.AperFunction*
G04 #@! TD*
G04 #@! TO.P,R2,1*
G04 #@! TO.N,Net-(C2-Pad2)*
G04 #@! TA.AperFunction,SMDPad,CuDef*
G36*
G01*
X136525000Y-96545000D02*
X136525000Y-95995000D01*
G75*
G02*
X136725000Y-95795000I200000J0D01*
G01*
X137125000Y-95795000D01*
G75*
G02*
X137325000Y-95995000I0J-200000D01*
G01*
X137325000Y-96545000D01*
G75*
G02*
X137125000Y-96745000I-200000J0D01*
G01*
X136725000Y-96745000D01*
G75*
G02*
X136525000Y-96545000I0J200000D01*
G01*
G37*
G04 #@! TD.AperFunction*
G04 #@! TO.P,R2,2*
G04 #@! TO.N,+9V*
G04 #@! TA.AperFunction,SMDPad,CuDef*
G36*
G01*
X138175000Y-96545000D02*
X138175000Y-95995000D01*
G75*
G02*
X138375000Y-95795000I200000J0D01*
G01*
X138775000Y-95795000D01*
G75*
G02*
X138975000Y-95995000I0J-200000D01*
G01*
X138975000Y-96545000D01*
G75*
G02*
X138775000Y-96745000I-200000J0D01*
G01*
X138375000Y-96745000D01*
G75*
G02*
X138175000Y-96545000I0J200000D01*
G01*
G37*
G04 #@! TD.AperFunction*
G04 #@! TD*
G04 #@! TO.P,R4,2*
G04 #@! TO.N,Net-(Q2-Pad2)*
G04 #@! TA.AperFunction,SMDPad,CuDef*
G36*
G01*
X128175000Y-107275000D02*
X128175000Y-106725000D01*
G75*
G02*
X128375000Y-106525000I200000J0D01*
G01*
X128775000Y-106525000D01*
G75*
G02*
X128975000Y-106725000I0J-200000D01*
G01*
X128975000Y-107275000D01*
G75*
G02*
X128775000Y-107475000I-200000J0D01*
G01*
X128375000Y-107475000D01*
G75*
G02*
X128175000Y-107275000I0J200000D01*
G01*
G37*
G04 #@! TD.AperFunction*
G04 #@! TO.P,R4,1*
G04 #@! TO.N,Net-(C1-Pad1)*
G04 #@! TA.AperFunction,SMDPad,CuDef*
G36*
G01*
X126525000Y-107275000D02*
X126525000Y-106725000D01*
G75*
G02*
X126725000Y-106525000I200000J0D01*
G01*
X127125000Y-106525000D01*
G75*
G02*
X127325000Y-106725000I0J-200000D01*
G01*
X127325000Y-107275000D01*
G75*
G02*
X127125000Y-107475000I-200000J0D01*
G01*
X126725000Y-107475000D01*
G75*
G02*
X126525000Y-107275000I0J200000D01*
G01*
G37*
G04 #@! TD.AperFunction*
G04 #@! TD*
D14*
G04 #@! TO.P,R5,1*
G04 #@! TO.N,Net-(D1-Pad1)*
X95250000Y-91190000D03*
D15*
G04 #@! TO.P,R5,2*
G04 #@! TO.N,GND*
X95250000Y-101350000D03*
G04 #@! TD*
G04 #@! TO.P,R6,1*
G04 #@! TO.N,Net-(D1-Pad1)*
G04 #@! TA.AperFunction,SMDPad,CuDef*
G36*
G01*
X104975000Y-95045000D02*
X105525000Y-95045000D01*
G75*
G02*
X105725000Y-95245000I0J-200000D01*
G01*
X105725000Y-95645000D01*
G75*
G02*
X105525000Y-95845000I-200000J0D01*
G01*
X104975000Y-95845000D01*
G75*
G02*
X104775000Y-95645000I0J200000D01*
G01*
X104775000Y-95245000D01*
G75*
G02*
X104975000Y-95045000I200000J0D01*
G01*
G37*
G04 #@! TD.AperFunction*
G04 #@! TO.P,R6,2*
G04 #@! TO.N,GND*
G04 #@! TA.AperFunction,SMDPad,CuDef*
G36*
G01*
X104975000Y-96695000D02*
X105525000Y-96695000D01*
G75*
G02*
X105725000Y-96895000I0J-200000D01*
G01*
X105725000Y-97295000D01*
G75*
G02*
X105525000Y-97495000I-200000J0D01*
G01*
X104975000Y-97495000D01*
G75*
G02*
X104775000Y-97295000I0J200000D01*
G01*
X104775000Y-96895000D01*
G75*
G02*
X104975000Y-96695000I200000J0D01*
G01*
G37*
G04 #@! TD.AperFunction*
G04 #@! TD*
G04 #@! TO.P,R7,2*
G04 #@! TO.N,Net-(D2-Pad1)*
G04 #@! TA.AperFunction,SMDPad,CuDef*
G36*
G01*
X160525000Y-95845000D02*
X159975000Y-95845000D01*
G75*
G02*
X159775000Y-95645000I0J200000D01*
G01*
X159775000Y-95245000D01*
G75*
G02*
X159975000Y-95045000I200000J0D01*
G01*
X160525000Y-95045000D01*
G75*
G02*
X160725000Y-95245000I0J-200000D01*
G01*
X160725000Y-95645000D01*
G75*
G02*
X160525000Y-95845000I-200000J0D01*
G01*
G37*
G04 #@! TD.AperFunction*
G04 #@! TO.P,R7,1*
G04 #@! TO.N,GND*
G04 #@! TA.AperFunction,SMDPad,CuDef*
G36*
G01*
X160525000Y-97495000D02*
X159975000Y-97495000D01*
G75*
G02*
X159775000Y-97295000I0J200000D01*
G01*
X159775000Y-96895000D01*
G75*
G02*
X159975000Y-96695000I200000J0D01*
G01*
X160525000Y-96695000D01*
G75*
G02*
X160725000Y-96895000I0J-200000D01*
G01*
X160725000Y-97295000D01*
G75*
G02*
X160525000Y-97495000I-200000J0D01*
G01*
G37*
G04 #@! TD.AperFunction*
G04 #@! TD*
G04 #@! TO.P,R8,1*
G04 #@! TO.N,Net-(Q2-Pad3)*
G04 #@! TA.AperFunction,SMDPad,CuDef*
G36*
G01*
X133940000Y-90725000D02*
X133940000Y-91275000D01*
G75*
G02*
X133740000Y-91475000I-200000J0D01*
G01*
X133340000Y-91475000D01*
G75*
G02*
X133140000Y-91275000I0J200000D01*
G01*
X133140000Y-90725000D01*
G75*
G02*
X133340000Y-90525000I200000J0D01*
G01*
X133740000Y-90525000D01*
G75*
G02*
X133940000Y-90725000I0J-200000D01*
G01*
G37*
G04 #@! TD.AperFunction*
G04 #@! TO.P,R8,2*
G04 #@! TO.N,Net-(C2-Pad2)*
G04 #@! TA.AperFunction,SMDPad,CuDef*
G36*
G01*
X132290000Y-90725000D02*
X132290000Y-91275000D01*
G75*
G02*
X132090000Y-91475000I-200000J0D01*
G01*
X131690000Y-91475000D01*
G75*
G02*
X131490000Y-91275000I0J200000D01*
G01*
X131490000Y-90725000D01*
G75*
G02*
X131690000Y-90525000I200000J0D01*
G01*
X132090000Y-90525000D01*
G75*
G02*
X132290000Y-90725000I0J-200000D01*
G01*
G37*
G04 #@! TD.AperFunction*
G04 #@! TD*
D19*
G04 #@! TO.N,GND*
X105156000Y-120904000D03*
X102616000Y-120904000D03*
X160528000Y-120904000D03*
X163068000Y-120904000D03*
G04 #@! TO.N,/LEDPower*
X115316000Y-120904000D03*
X150368000Y-120904000D03*
X150368000Y-115570000D03*
X115570000Y-115570000D03*
G04 #@! TO.N,/Input*
X107696000Y-120904000D03*
X157988000Y-120904000D03*
G04 #@! TO.N,/Output*
X110236000Y-120904000D03*
X155448000Y-120904000D03*
X110236000Y-114554000D03*
G04 #@! TO.N,+9V*
X112776000Y-120904000D03*
X152908000Y-120904000D03*
G04 #@! TO.N,Net-(Q1-Pad3)*
X146812000Y-103632000D03*
X139192000Y-104902000D03*
X133604000Y-110236000D03*
G04 #@! TO.N,Net-(Q2-Pad2)*
X146812000Y-106172000D03*
X133858000Y-106934000D03*
G04 #@! TD*
D20*
G04 #@! TO.N,GND*
X104775000Y-121285000D02*
X105156000Y-120904000D01*
X104775000Y-126000000D02*
X104775000Y-121285000D01*
X102235000Y-121285000D02*
X102616000Y-120904000D01*
X102235000Y-126000000D02*
X102235000Y-121285000D01*
X160655000Y-121031000D02*
X160528000Y-120904000D01*
X160655000Y-126000000D02*
X160655000Y-121031000D01*
X163195000Y-121031000D02*
X163068000Y-120904000D01*
X163195000Y-126000000D02*
X163195000Y-121031000D01*
G04 #@! TO.N,Net-(C1-Pad1)*
X125925000Y-106000000D02*
X126925000Y-107000000D01*
X116200000Y-106000000D02*
X125925000Y-106000000D01*
X116200000Y-106000000D02*
X116200000Y-103510000D01*
X116200000Y-103510000D02*
X119888000Y-99822000D01*
X119888000Y-99822000D02*
X119888000Y-94742000D01*
X119888000Y-94742000D02*
X116078000Y-90932000D01*
X116078000Y-90932000D02*
X110998000Y-90932000D01*
X97766000Y-77700000D02*
X95250000Y-77700000D01*
X110998000Y-90932000D02*
X97766000Y-77700000D01*
G04 #@! TO.N,Net-(C2-Pad2)*
X131890000Y-91000000D02*
X131890000Y-87948000D01*
X130250000Y-86308000D02*
X130250000Y-78740000D01*
X131890000Y-87948000D02*
X130250000Y-86308000D01*
X128525000Y-94365000D02*
X131890000Y-91000000D01*
X128525000Y-96270000D02*
X128525000Y-94365000D01*
X136925000Y-96035000D02*
X131890000Y-91000000D01*
X136925000Y-96270000D02*
X136925000Y-96035000D01*
G04 #@! TO.N,Net-(C2-Pad1)*
X126520000Y-96270000D02*
X117750000Y-87500000D01*
X126975000Y-96270000D02*
X126520000Y-96270000D01*
G04 #@! TO.N,/LEDPower*
X114935000Y-121285000D02*
X115316000Y-120904000D01*
X114935000Y-126000000D02*
X114935000Y-121285000D01*
X150495000Y-121031000D02*
X150368000Y-120904000D01*
X150495000Y-126000000D02*
X150495000Y-121031000D01*
X150368000Y-115570000D02*
X150368000Y-120904000D01*
X115316000Y-115824000D02*
X115570000Y-115570000D01*
X115316000Y-120904000D02*
X115316000Y-115824000D01*
G04 #@! TO.N,/Input*
X107315000Y-121285000D02*
X107696000Y-120904000D01*
X107315000Y-126000000D02*
X107315000Y-121285000D01*
X158115000Y-121031000D02*
X157988000Y-120904000D01*
X158115000Y-126000000D02*
X158115000Y-121031000D01*
X95250000Y-83300000D02*
X90170000Y-88380000D01*
X90170000Y-88380000D02*
X90170000Y-105918000D01*
X90170000Y-105918000D02*
X99314000Y-115062000D01*
X99314000Y-115062000D02*
X105156000Y-115062000D01*
X107696000Y-117602000D02*
X107696000Y-120904000D01*
X105156000Y-115062000D02*
X107696000Y-117602000D01*
G04 #@! TO.N,/Output*
X109855000Y-121285000D02*
X110236000Y-120904000D01*
X109855000Y-126000000D02*
X109855000Y-121285000D01*
X155575000Y-121031000D02*
X155448000Y-120904000D01*
X155575000Y-126000000D02*
X155575000Y-121031000D01*
X110236000Y-120904000D02*
X110236000Y-114554000D01*
G04 #@! TO.N,+9V*
X112395000Y-121285000D02*
X112776000Y-120904000D01*
X112395000Y-126000000D02*
X112395000Y-121285000D01*
X153035000Y-121031000D02*
X152908000Y-120904000D01*
X153035000Y-126000000D02*
X153035000Y-121031000D01*
X138575000Y-96270000D02*
X138575000Y-100439000D01*
X136925000Y-102089000D02*
X136925000Y-107000000D01*
X138575000Y-100439000D02*
X136925000Y-102089000D01*
X152908000Y-120904000D02*
X152908000Y-113284000D01*
X152908000Y-113284000D02*
X151638000Y-112014000D01*
X151638000Y-112014000D02*
X138684000Y-112014000D01*
X136925000Y-110255000D02*
X136925000Y-107000000D01*
X138684000Y-112014000D02*
X136925000Y-110255000D01*
G04 #@! TO.N,Net-(D1-Pad1)*
X100995000Y-91190000D02*
X105250000Y-95445000D01*
X95250000Y-91190000D02*
X100995000Y-91190000D01*
X114805000Y-95445000D02*
X115250000Y-95000000D01*
X105250000Y-95445000D02*
X114805000Y-95445000D01*
G04 #@! TO.N,Net-(C3-Pad1)*
X150250000Y-87500000D02*
X150250000Y-85970000D01*
X150250000Y-85970000D02*
X151638000Y-84582000D01*
X151638000Y-84582000D02*
X157988000Y-84582000D01*
X164870000Y-77700000D02*
X170250000Y-77700000D01*
X157988000Y-84582000D02*
X164870000Y-77700000D01*
G04 #@! TO.N,Net-(Q1-Pad3)*
X151200000Y-106000000D02*
X151200000Y-104464000D01*
X150368000Y-103632000D02*
X146812000Y-103632000D01*
X151200000Y-104464000D02*
X150368000Y-103632000D01*
X138575000Y-105519000D02*
X139192000Y-104902000D01*
X138575000Y-107000000D02*
X138575000Y-105519000D01*
X115250000Y-108000000D02*
X122478000Y-108000000D01*
X124714000Y-110236000D02*
X133604000Y-110236000D01*
X122478000Y-108000000D02*
X124714000Y-110236000D01*
G04 #@! TO.N,Net-(Q2-Pad3)*
X133540000Y-84570000D02*
X132790000Y-83820000D01*
X133540000Y-91000000D02*
X133540000Y-84570000D01*
X133540000Y-91000000D02*
X138244000Y-91000000D01*
X138244000Y-91000000D02*
X141986000Y-94742000D01*
X141986000Y-94742000D02*
X141986000Y-107950000D01*
X141986000Y-107950000D02*
X144018000Y-109982000D01*
X148268000Y-109982000D02*
X150250000Y-108000000D01*
X144018000Y-109982000D02*
X148268000Y-109982000D01*
G04 #@! TO.N,Net-(D2-Pad1)*
X164505000Y-91190000D02*
X160250000Y-95445000D01*
X170250000Y-91190000D02*
X164505000Y-91190000D01*
X159805000Y-95000000D02*
X160250000Y-95445000D01*
X150250000Y-95000000D02*
X159805000Y-95000000D01*
G04 #@! TO.N,Net-(Q2-Pad2)*
X146984000Y-106000000D02*
X146812000Y-106172000D01*
X149300000Y-106000000D02*
X146984000Y-106000000D01*
X133792000Y-107000000D02*
X133858000Y-106934000D01*
X128575000Y-107000000D02*
X133792000Y-107000000D01*
X146812000Y-106172000D02*
X146050000Y-106172000D01*
X146050000Y-106172000D02*
X144526000Y-104648000D01*
X144526000Y-104648000D02*
X144526000Y-94996000D01*
X144526000Y-94996000D02*
X148336000Y-91186000D01*
X148336000Y-91186000D02*
X151130000Y-91186000D01*
X152750000Y-89566000D02*
X152750000Y-87500000D01*
X151130000Y-91186000D02*
X152750000Y-89566000D01*
G04 #@! TD*
D21*
G04 #@! TO.N,GND*
X181323001Y-90823000D02*
X179433252Y-90823000D01*
X179400000Y-90819725D01*
X179366748Y-90823000D01*
X179267285Y-90832796D01*
X179139670Y-90871508D01*
X179022059Y-90934372D01*
X178918973Y-91018973D01*
X178834372Y-91122059D01*
X178771508Y-91239670D01*
X178732796Y-91367285D01*
X178719725Y-91500000D01*
X178723001Y-91533262D01*
X178723000Y-92966747D01*
X178719725Y-93000000D01*
X178732796Y-93132715D01*
X178771508Y-93260330D01*
X178834372Y-93377941D01*
X178918973Y-93481027D01*
X179022059Y-93565628D01*
X179139670Y-93628492D01*
X179267285Y-93667204D01*
X179400000Y-93680275D01*
X179433252Y-93677000D01*
X181323000Y-93677000D01*
X181323001Y-98966738D01*
X181319725Y-99000000D01*
X181332796Y-99132715D01*
X181371508Y-99260330D01*
X181434372Y-99377941D01*
X181518973Y-99481027D01*
X181622059Y-99565628D01*
X181739670Y-99628492D01*
X181823001Y-99653770D01*
X181823000Y-125323000D01*
X177177000Y-125323000D01*
X177177000Y-119533252D01*
X177180275Y-119500000D01*
X177167204Y-119367285D01*
X177128492Y-119239670D01*
X177065628Y-119122059D01*
X176981027Y-119018973D01*
X176877941Y-118934372D01*
X176760330Y-118871508D01*
X176632715Y-118832796D01*
X176533252Y-118823000D01*
X176500000Y-118819725D01*
X176466748Y-118823000D01*
X165513252Y-118823000D01*
X165480000Y-118819725D01*
X165446748Y-118823000D01*
X165347285Y-118832796D01*
X165219670Y-118871508D01*
X165102059Y-118934372D01*
X164998973Y-119018973D01*
X164914372Y-119122059D01*
X164851508Y-119239670D01*
X164812796Y-119367285D01*
X164799725Y-119500000D01*
X164803001Y-119533262D01*
X164803001Y-121793000D01*
X158992000Y-121793000D01*
X158992000Y-121120780D01*
X159015000Y-121005151D01*
X159015000Y-120802849D01*
X158975533Y-120604435D01*
X158898115Y-120417533D01*
X158785723Y-120249326D01*
X158642674Y-120106277D01*
X158474467Y-119993885D01*
X158287565Y-119916467D01*
X158089151Y-119877000D01*
X157886849Y-119877000D01*
X157688435Y-119916467D01*
X157501533Y-119993885D01*
X157333326Y-120106277D01*
X157190277Y-120249326D01*
X157077885Y-120417533D01*
X157000467Y-120604435D01*
X156961000Y-120802849D01*
X156961000Y-121005151D01*
X157000467Y-121203565D01*
X157077885Y-121390467D01*
X157190277Y-121558674D01*
X157238001Y-121606398D01*
X157238001Y-121793000D01*
X156452000Y-121793000D01*
X156452000Y-121120780D01*
X156475000Y-121005151D01*
X156475000Y-120802849D01*
X156435533Y-120604435D01*
X156358115Y-120417533D01*
X156245723Y-120249326D01*
X156102674Y-120106277D01*
X155934467Y-119993885D01*
X155747565Y-119916467D01*
X155549151Y-119877000D01*
X155346849Y-119877000D01*
X155148435Y-119916467D01*
X154961533Y-119993885D01*
X154793326Y-120106277D01*
X154650277Y-120249326D01*
X154537885Y-120417533D01*
X154460467Y-120604435D01*
X154421000Y-120802849D01*
X154421000Y-121005151D01*
X154460467Y-121203565D01*
X154537885Y-121390467D01*
X154650277Y-121558674D01*
X154698001Y-121606398D01*
X154698001Y-121793000D01*
X153912000Y-121793000D01*
X153912000Y-121120780D01*
X153935000Y-121005151D01*
X153935000Y-120802849D01*
X153895533Y-120604435D01*
X153818115Y-120417533D01*
X153785000Y-120367973D01*
X153785000Y-113327069D01*
X153789242Y-113283999D01*
X153785000Y-113240930D01*
X153785000Y-113240921D01*
X153772310Y-113112078D01*
X153722162Y-112946763D01*
X153640727Y-112794408D01*
X153531133Y-112660867D01*
X153497668Y-112633403D01*
X152288594Y-111424329D01*
X152261133Y-111390867D01*
X152127592Y-111281273D01*
X151975237Y-111199838D01*
X151809922Y-111149690D01*
X151681079Y-111137000D01*
X151638000Y-111132757D01*
X151594921Y-111137000D01*
X139047265Y-111137000D01*
X137802000Y-109891735D01*
X137802000Y-107873347D01*
X137913858Y-107965147D01*
X138057360Y-108041851D01*
X138213069Y-108089084D01*
X138375000Y-108105033D01*
X138775000Y-108105033D01*
X138936931Y-108089084D01*
X139092640Y-108041851D01*
X139236142Y-107965147D01*
X139361922Y-107861922D01*
X139465147Y-107736142D01*
X139541851Y-107592640D01*
X139589084Y-107436931D01*
X139605033Y-107275000D01*
X139605033Y-106725000D01*
X139589084Y-106563069D01*
X139541851Y-106407360D01*
X139465147Y-106263858D01*
X139452000Y-106247838D01*
X139452000Y-105897403D01*
X139491565Y-105889533D01*
X139678467Y-105812115D01*
X139846674Y-105699723D01*
X139989723Y-105556674D01*
X140102115Y-105388467D01*
X140179533Y-105201565D01*
X140219000Y-105003151D01*
X140219000Y-104800849D01*
X140179533Y-104602435D01*
X140102115Y-104415533D01*
X139989723Y-104247326D01*
X139846674Y-104104277D01*
X139678467Y-103991885D01*
X139491565Y-103914467D01*
X139293151Y-103875000D01*
X139090849Y-103875000D01*
X138892435Y-103914467D01*
X138705533Y-103991885D01*
X138537326Y-104104277D01*
X138394277Y-104247326D01*
X138281885Y-104415533D01*
X138204467Y-104602435D01*
X138192838Y-104660896D01*
X137985327Y-104868408D01*
X137951868Y-104895867D01*
X137924409Y-104929326D01*
X137924406Y-104929329D01*
X137842274Y-105029408D01*
X137802000Y-105104755D01*
X137802000Y-102452265D01*
X139164668Y-101089597D01*
X139198133Y-101062133D01*
X139307727Y-100928592D01*
X139389162Y-100776237D01*
X139439310Y-100610922D01*
X139452000Y-100482079D01*
X139452000Y-100482070D01*
X139456242Y-100439001D01*
X139452000Y-100395931D01*
X139452000Y-97022162D01*
X139465147Y-97006142D01*
X139541851Y-96862640D01*
X139589084Y-96706931D01*
X139605033Y-96545000D01*
X139605033Y-95995000D01*
X139589084Y-95833069D01*
X139541851Y-95677360D01*
X139465147Y-95533858D01*
X139361922Y-95408078D01*
X139236142Y-95304853D01*
X139092640Y-95228149D01*
X138936931Y-95180916D01*
X138775000Y-95164967D01*
X138375000Y-95164967D01*
X138213069Y-95180916D01*
X138057360Y-95228149D01*
X137913858Y-95304853D01*
X137788078Y-95408078D01*
X137750000Y-95454476D01*
X137711922Y-95408078D01*
X137586142Y-95304853D01*
X137442640Y-95228149D01*
X137321740Y-95191475D01*
X134132241Y-92001976D01*
X134201142Y-91965147D01*
X134308549Y-91877000D01*
X137880735Y-91877000D01*
X141109000Y-95105265D01*
X141109001Y-107906910D01*
X141104757Y-107950000D01*
X141121690Y-108121922D01*
X141171838Y-108287236D01*
X141253274Y-108439592D01*
X141335406Y-108539671D01*
X141335409Y-108539674D01*
X141362868Y-108573133D01*
X141396327Y-108600592D01*
X143367408Y-110571674D01*
X143394867Y-110605133D01*
X143528408Y-110714727D01*
X143584280Y-110744591D01*
X143680763Y-110796162D01*
X143846077Y-110846310D01*
X144018000Y-110863243D01*
X144061079Y-110859000D01*
X148224921Y-110859000D01*
X148268000Y-110863243D01*
X148311079Y-110859000D01*
X148439922Y-110846310D01*
X148605237Y-110796162D01*
X148757592Y-110714727D01*
X148891133Y-110605133D01*
X148918597Y-110571668D01*
X150410232Y-109080033D01*
X150650000Y-109080033D01*
X150772913Y-109067927D01*
X150891103Y-109032075D01*
X151000028Y-108973853D01*
X151095501Y-108895501D01*
X151173853Y-108800028D01*
X151232075Y-108691103D01*
X151267927Y-108572913D01*
X151280033Y-108450000D01*
X151280033Y-107550000D01*
X151267927Y-107427087D01*
X151232075Y-107308897D01*
X151173853Y-107199972D01*
X151095501Y-107104499D01*
X151065689Y-107080033D01*
X151600000Y-107080033D01*
X151722913Y-107067927D01*
X151841103Y-107032075D01*
X151950028Y-106973853D01*
X152045501Y-106895501D01*
X152123853Y-106800028D01*
X152182075Y-106691103D01*
X152217927Y-106572913D01*
X152230033Y-106450000D01*
X152230033Y-105550000D01*
X152217927Y-105427087D01*
X152182075Y-105308897D01*
X152123853Y-105199972D01*
X152077000Y-105142881D01*
X152077000Y-104507079D01*
X152081243Y-104464000D01*
X152064310Y-104292077D01*
X152014162Y-104126763D01*
X151993356Y-104087838D01*
X151932727Y-103974408D01*
X151823133Y-103840867D01*
X151789668Y-103813403D01*
X151018597Y-103042332D01*
X150991133Y-103008867D01*
X150857592Y-102899273D01*
X150705237Y-102817838D01*
X150539922Y-102767690D01*
X150411079Y-102755000D01*
X150368000Y-102750757D01*
X150324921Y-102755000D01*
X147348027Y-102755000D01*
X147298467Y-102721885D01*
X147111565Y-102644467D01*
X146913151Y-102605000D01*
X146710849Y-102605000D01*
X146512435Y-102644467D01*
X146325533Y-102721885D01*
X146157326Y-102834277D01*
X146014277Y-102977326D01*
X145901885Y-103145533D01*
X145824467Y-103332435D01*
X145785000Y-103530849D01*
X145785000Y-103733151D01*
X145824467Y-103931565D01*
X145901885Y-104118467D01*
X146014277Y-104286674D01*
X146157326Y-104429723D01*
X146325533Y-104542115D01*
X146512435Y-104619533D01*
X146710849Y-104659000D01*
X146913151Y-104659000D01*
X147111565Y-104619533D01*
X147298467Y-104542115D01*
X147348027Y-104509000D01*
X150004735Y-104509000D01*
X150323001Y-104827266D01*
X150323001Y-105142880D01*
X150276147Y-105199972D01*
X150250000Y-105248889D01*
X150223853Y-105199972D01*
X150145501Y-105104499D01*
X150050028Y-105026147D01*
X149941103Y-104967925D01*
X149822913Y-104932073D01*
X149700000Y-104919967D01*
X148900000Y-104919967D01*
X148777087Y-104932073D01*
X148658897Y-104967925D01*
X148549972Y-105026147D01*
X148454499Y-105104499D01*
X148439316Y-105123000D01*
X147027079Y-105123000D01*
X146984000Y-105118757D01*
X146812077Y-105135690D01*
X146781387Y-105145000D01*
X146710849Y-105145000D01*
X146512435Y-105184467D01*
X146364153Y-105245888D01*
X145403000Y-104284735D01*
X145403000Y-102342702D01*
X169436903Y-102342702D01*
X169508486Y-102586671D01*
X169763996Y-102707571D01*
X170038184Y-102776300D01*
X170320512Y-102790217D01*
X170600130Y-102748787D01*
X170866292Y-102653603D01*
X170991514Y-102586671D01*
X171063097Y-102342702D01*
X170250000Y-101529605D01*
X169436903Y-102342702D01*
X145403000Y-102342702D01*
X145403000Y-101420512D01*
X168809783Y-101420512D01*
X168851213Y-101700130D01*
X168946397Y-101966292D01*
X169013329Y-102091514D01*
X169257298Y-102163097D01*
X170070395Y-101350000D01*
X170429605Y-101350000D01*
X171242702Y-102163097D01*
X171486671Y-102091514D01*
X171607571Y-101836004D01*
X171676300Y-101561816D01*
X171690217Y-101279488D01*
X171648787Y-100999870D01*
X171553603Y-100733708D01*
X171486671Y-100608486D01*
X171242702Y-100536903D01*
X170429605Y-101350000D01*
X170070395Y-101350000D01*
X169257298Y-100536903D01*
X169013329Y-100608486D01*
X168892429Y-100863996D01*
X168823700Y-101138184D01*
X168809783Y-101420512D01*
X145403000Y-101420512D01*
X145403000Y-100357298D01*
X169436903Y-100357298D01*
X170250000Y-101170395D01*
X171063097Y-100357298D01*
X170991514Y-100113329D01*
X170736004Y-99992429D01*
X170461816Y-99923700D01*
X170179488Y-99909783D01*
X169899870Y-99951213D01*
X169633708Y-100046397D01*
X169508486Y-100113329D01*
X169436903Y-100357298D01*
X145403000Y-100357298D01*
X145403000Y-95359265D01*
X146662265Y-94100000D01*
X148719967Y-94100000D01*
X148719967Y-95900000D01*
X148732073Y-96022913D01*
X148767925Y-96141103D01*
X148826147Y-96250028D01*
X148904499Y-96345501D01*
X148999972Y-96423853D01*
X149108897Y-96482075D01*
X149139221Y-96491274D01*
X149063901Y-96566594D01*
X148896790Y-96816694D01*
X148781681Y-97094590D01*
X148723000Y-97389604D01*
X148723000Y-97690396D01*
X148781681Y-97985410D01*
X148896790Y-98263306D01*
X149063901Y-98513406D01*
X149276594Y-98726099D01*
X149526694Y-98893210D01*
X149804590Y-99008319D01*
X150099604Y-99067000D01*
X150400396Y-99067000D01*
X150695410Y-99008319D01*
X150973306Y-98893210D01*
X151223406Y-98726099D01*
X151436099Y-98513406D01*
X151603210Y-98263306D01*
X151718319Y-97985410D01*
X151777000Y-97690396D01*
X151777000Y-97495000D01*
X159136928Y-97495000D01*
X159149188Y-97619482D01*
X159185498Y-97739180D01*
X159244463Y-97849494D01*
X159323815Y-97946185D01*
X159420506Y-98025537D01*
X159530820Y-98084502D01*
X159650518Y-98120812D01*
X159775000Y-98133072D01*
X159964250Y-98130000D01*
X160123000Y-97971250D01*
X160123000Y-97222000D01*
X160377000Y-97222000D01*
X160377000Y-97971250D01*
X160535750Y-98130000D01*
X160725000Y-98133072D01*
X160849482Y-98120812D01*
X160969180Y-98084502D01*
X161079494Y-98025537D01*
X161176185Y-97946185D01*
X161255537Y-97849494D01*
X161314502Y-97739180D01*
X161350812Y-97619482D01*
X161363072Y-97495000D01*
X161360000Y-97380750D01*
X161201250Y-97222000D01*
X160377000Y-97222000D01*
X160123000Y-97222000D01*
X159298750Y-97222000D01*
X159140000Y-97380750D01*
X159136928Y-97495000D01*
X151777000Y-97495000D01*
X151777000Y-97389604D01*
X151718319Y-97094590D01*
X151603210Y-96816694D01*
X151436099Y-96566594D01*
X151360779Y-96491274D01*
X151391103Y-96482075D01*
X151500028Y-96423853D01*
X151595501Y-96345501D01*
X151673853Y-96250028D01*
X151732075Y-96141103D01*
X151767927Y-96022913D01*
X151780033Y-95900000D01*
X151780033Y-95877000D01*
X159182171Y-95877000D01*
X159208149Y-95962640D01*
X159284853Y-96106142D01*
X159368047Y-96207515D01*
X159323815Y-96243815D01*
X159244463Y-96340506D01*
X159185498Y-96450820D01*
X159149188Y-96570518D01*
X159136928Y-96695000D01*
X159140000Y-96809250D01*
X159298750Y-96968000D01*
X160123000Y-96968000D01*
X160123000Y-96948000D01*
X160377000Y-96948000D01*
X160377000Y-96968000D01*
X161201250Y-96968000D01*
X161360000Y-96809250D01*
X161363072Y-96695000D01*
X161350812Y-96570518D01*
X161314502Y-96450820D01*
X161255537Y-96340506D01*
X161176185Y-96243815D01*
X161131953Y-96207515D01*
X161215147Y-96106142D01*
X161291851Y-95962640D01*
X161339084Y-95806931D01*
X161355033Y-95645000D01*
X161355033Y-95580232D01*
X164868265Y-92067000D01*
X169119753Y-92067000D01*
X169141576Y-92099660D01*
X169340340Y-92298424D01*
X169574062Y-92454591D01*
X169833759Y-92562162D01*
X170109453Y-92617000D01*
X170390547Y-92617000D01*
X170666241Y-92562162D01*
X170925938Y-92454591D01*
X171159660Y-92298424D01*
X171358424Y-92099660D01*
X171514591Y-91865938D01*
X171622162Y-91606241D01*
X171677000Y-91330547D01*
X171677000Y-91049453D01*
X171622162Y-90773759D01*
X171514591Y-90514062D01*
X171358424Y-90280340D01*
X171159660Y-90081576D01*
X170925938Y-89925409D01*
X170666241Y-89817838D01*
X170390547Y-89763000D01*
X170109453Y-89763000D01*
X169833759Y-89817838D01*
X169574062Y-89925409D01*
X169340340Y-90081576D01*
X169141576Y-90280340D01*
X169119753Y-90313000D01*
X164548079Y-90313000D01*
X164505000Y-90308757D01*
X164333077Y-90325690D01*
X164254897Y-90349406D01*
X164167763Y-90375838D01*
X164015408Y-90457273D01*
X163881867Y-90566867D01*
X163854403Y-90600332D01*
X160224778Y-94229957D01*
X160142237Y-94185838D01*
X159976922Y-94135690D01*
X159848079Y-94123000D01*
X159805000Y-94118757D01*
X159761921Y-94123000D01*
X151780033Y-94123000D01*
X151780033Y-94100000D01*
X151767927Y-93977087D01*
X151732075Y-93858897D01*
X151673853Y-93749972D01*
X151595501Y-93654499D01*
X151500028Y-93576147D01*
X151391103Y-93517925D01*
X151272913Y-93482073D01*
X151150000Y-93469967D01*
X149350000Y-93469967D01*
X149227087Y-93482073D01*
X149108897Y-93517925D01*
X148999972Y-93576147D01*
X148904499Y-93654499D01*
X148826147Y-93749972D01*
X148767925Y-93858897D01*
X148732073Y-93977087D01*
X148719967Y-94100000D01*
X146662265Y-94100000D01*
X148699265Y-92063000D01*
X151086921Y-92063000D01*
X151130000Y-92067243D01*
X151173079Y-92063000D01*
X151301922Y-92050310D01*
X151467237Y-92000162D01*
X151619592Y-91918727D01*
X151753133Y-91809133D01*
X151780597Y-91775668D01*
X153339675Y-90216591D01*
X153373133Y-90189133D01*
X153416993Y-90135690D01*
X153454019Y-90090573D01*
X153482727Y-90055592D01*
X153564162Y-89903237D01*
X153614310Y-89737922D01*
X153627000Y-89609079D01*
X153627000Y-89609078D01*
X153631243Y-89566000D01*
X153627000Y-89522921D01*
X153627000Y-88750515D01*
X153723406Y-88686099D01*
X153936099Y-88473406D01*
X154103210Y-88223306D01*
X154218319Y-87945410D01*
X154277000Y-87650396D01*
X154277000Y-87349604D01*
X154218319Y-87054590D01*
X154103210Y-86776694D01*
X153936099Y-86526594D01*
X153723406Y-86313901D01*
X153473306Y-86146790D01*
X153195410Y-86031681D01*
X152900396Y-85973000D01*
X152599604Y-85973000D01*
X152304590Y-86031681D01*
X152026694Y-86146790D01*
X151776594Y-86313901D01*
X151563901Y-86526594D01*
X151500000Y-86622229D01*
X151436099Y-86526594D01*
X151223406Y-86313901D01*
X151177223Y-86283042D01*
X152001265Y-85459000D01*
X157944921Y-85459000D01*
X157988000Y-85463243D01*
X158031079Y-85459000D01*
X158159922Y-85446310D01*
X158325237Y-85396162D01*
X158477592Y-85314727D01*
X158611133Y-85205133D01*
X158638597Y-85171668D01*
X158760265Y-85050000D01*
X168811928Y-85050000D01*
X168824188Y-85174482D01*
X168860498Y-85294180D01*
X168919463Y-85404494D01*
X168998815Y-85501185D01*
X169095506Y-85580537D01*
X169205820Y-85639502D01*
X169325518Y-85675812D01*
X169450000Y-85688072D01*
X169964250Y-85685000D01*
X170123000Y-85526250D01*
X170123000Y-83427000D01*
X170377000Y-83427000D01*
X170377000Y-85526250D01*
X170535750Y-85685000D01*
X171050000Y-85688072D01*
X171174482Y-85675812D01*
X171294180Y-85639502D01*
X171404494Y-85580537D01*
X171501185Y-85501185D01*
X171580537Y-85404494D01*
X171639502Y-85294180D01*
X171675812Y-85174482D01*
X171688072Y-85050000D01*
X171685000Y-83585750D01*
X171526250Y-83427000D01*
X170377000Y-83427000D01*
X170123000Y-83427000D01*
X168973750Y-83427000D01*
X168815000Y-83585750D01*
X168811928Y-85050000D01*
X158760265Y-85050000D01*
X162260265Y-81550000D01*
X168811928Y-81550000D01*
X168815000Y-83014250D01*
X168973750Y-83173000D01*
X170123000Y-83173000D01*
X170123000Y-81073750D01*
X170377000Y-81073750D01*
X170377000Y-83173000D01*
X171526250Y-83173000D01*
X171685000Y-83014250D01*
X171688072Y-81550000D01*
X171675812Y-81425518D01*
X171639502Y-81305820D01*
X171580537Y-81195506D01*
X171501185Y-81098815D01*
X171404494Y-81019463D01*
X171294180Y-80960498D01*
X171174482Y-80924188D01*
X171050000Y-80911928D01*
X170535750Y-80915000D01*
X170377000Y-81073750D01*
X170123000Y-81073750D01*
X169964250Y-80915000D01*
X169450000Y-80911928D01*
X169325518Y-80924188D01*
X169205820Y-80960498D01*
X169095506Y-81019463D01*
X168998815Y-81098815D01*
X168919463Y-81195506D01*
X168860498Y-81305820D01*
X168824188Y-81425518D01*
X168811928Y-81550000D01*
X162260265Y-81550000D01*
X165233266Y-78577000D01*
X168819967Y-78577000D01*
X168819967Y-79200000D01*
X168836877Y-79371686D01*
X168886956Y-79536774D01*
X168968279Y-79688920D01*
X169077723Y-79822277D01*
X169211080Y-79931721D01*
X169363226Y-80013044D01*
X169528314Y-80063123D01*
X169700000Y-80080033D01*
X170800000Y-80080033D01*
X170971686Y-80063123D01*
X171136774Y-80013044D01*
X171288920Y-79931721D01*
X171422277Y-79822277D01*
X171531721Y-79688920D01*
X171613044Y-79536774D01*
X171663123Y-79371686D01*
X171680033Y-79200000D01*
X171680033Y-76200000D01*
X171663123Y-76028314D01*
X171613044Y-75863226D01*
X171531721Y-75711080D01*
X171422277Y-75577723D01*
X171288920Y-75468279D01*
X171136774Y-75386956D01*
X170971686Y-75336877D01*
X170800000Y-75319967D01*
X169700000Y-75319967D01*
X169528314Y-75336877D01*
X169363226Y-75386956D01*
X169211080Y-75468279D01*
X169077723Y-75577723D01*
X168968279Y-75711080D01*
X168886956Y-75863226D01*
X168836877Y-76028314D01*
X168819967Y-76200000D01*
X168819967Y-76823000D01*
X164913079Y-76823000D01*
X164870000Y-76818757D01*
X164698077Y-76835690D01*
X164532763Y-76885838D01*
X164380408Y-76967273D01*
X164246867Y-77076867D01*
X164219408Y-77110326D01*
X157624735Y-83705000D01*
X151681069Y-83705000D01*
X151637999Y-83700758D01*
X151594930Y-83705000D01*
X151594921Y-83705000D01*
X151466078Y-83717690D01*
X151300763Y-83767838D01*
X151148408Y-83849273D01*
X151014867Y-83958867D01*
X150987406Y-83992329D01*
X149660327Y-85319408D01*
X149626868Y-85346867D01*
X149599409Y-85380326D01*
X149599406Y-85380329D01*
X149517274Y-85480408D01*
X149435838Y-85632764D01*
X149385690Y-85798078D01*
X149368757Y-85970000D01*
X149373001Y-86013089D01*
X149373001Y-86249484D01*
X149276594Y-86313901D01*
X149063901Y-86526594D01*
X148970147Y-86666906D01*
X148814080Y-86615525D01*
X147929605Y-87500000D01*
X148814080Y-88384475D01*
X148970147Y-88333094D01*
X149063901Y-88473406D01*
X149276594Y-88686099D01*
X149526694Y-88853210D01*
X149804590Y-88968319D01*
X150099604Y-89027000D01*
X150400396Y-89027000D01*
X150695410Y-88968319D01*
X150973306Y-88853210D01*
X151223406Y-88686099D01*
X151436099Y-88473406D01*
X151500000Y-88377771D01*
X151563901Y-88473406D01*
X151776594Y-88686099D01*
X151873000Y-88750516D01*
X151873000Y-89202734D01*
X150766735Y-90309000D01*
X148379079Y-90309000D01*
X148336000Y-90304757D01*
X148164077Y-90321690D01*
X148072711Y-90349406D01*
X147998763Y-90371838D01*
X147846408Y-90453273D01*
X147712867Y-90562867D01*
X147685406Y-90596329D01*
X143936327Y-94345408D01*
X143902868Y-94372867D01*
X143875409Y-94406326D01*
X143875406Y-94406329D01*
X143793274Y-94506408D01*
X143711838Y-94658764D01*
X143661690Y-94824078D01*
X143644757Y-94996000D01*
X143649001Y-95039090D01*
X143649000Y-104604920D01*
X143644757Y-104648000D01*
X143661690Y-104819922D01*
X143689600Y-104911928D01*
X143711838Y-104985236D01*
X143793273Y-105137591D01*
X143902867Y-105271133D01*
X143936332Y-105298597D01*
X145399403Y-106761668D01*
X145426867Y-106795133D01*
X145560408Y-106904727D01*
X145712763Y-106986162D01*
X145878078Y-107036310D01*
X146006921Y-107049000D01*
X146006930Y-107049000D01*
X146049999Y-107053242D01*
X146093069Y-107049000D01*
X146275973Y-107049000D01*
X146325533Y-107082115D01*
X146512435Y-107159533D01*
X146710849Y-107199000D01*
X146913151Y-107199000D01*
X147111565Y-107159533D01*
X147298467Y-107082115D01*
X147466674Y-106969723D01*
X147559397Y-106877000D01*
X148439316Y-106877000D01*
X148454499Y-106895501D01*
X148549972Y-106973853D01*
X148658897Y-107032075D01*
X148777087Y-107067927D01*
X148900000Y-107080033D01*
X149434311Y-107080033D01*
X149404499Y-107104499D01*
X149326147Y-107199972D01*
X149267925Y-107308897D01*
X149232073Y-107427087D01*
X149219967Y-107550000D01*
X149219967Y-107789768D01*
X147904735Y-109105000D01*
X144381266Y-109105000D01*
X142863000Y-107586735D01*
X142863000Y-94785076D01*
X142867243Y-94741999D01*
X142863000Y-94698921D01*
X142850310Y-94570078D01*
X142800162Y-94404763D01*
X142718727Y-94252408D01*
X142609133Y-94118867D01*
X142575669Y-94091404D01*
X138894597Y-90410332D01*
X138867133Y-90376867D01*
X138733592Y-90267273D01*
X138581237Y-90185838D01*
X138415922Y-90135690D01*
X138287079Y-90123000D01*
X138244000Y-90118757D01*
X138200921Y-90123000D01*
X134417000Y-90123000D01*
X134417000Y-88564080D01*
X146865525Y-88564080D01*
X146949208Y-88818261D01*
X147221775Y-88949158D01*
X147514642Y-89024365D01*
X147816553Y-89040991D01*
X148115907Y-88998397D01*
X148401199Y-88898222D01*
X148550792Y-88818261D01*
X148634475Y-88564080D01*
X147750000Y-87679605D01*
X146865525Y-88564080D01*
X134417000Y-88564080D01*
X134417000Y-87566553D01*
X146209009Y-87566553D01*
X146251603Y-87865907D01*
X146351778Y-88151199D01*
X146431739Y-88300792D01*
X146685920Y-88384475D01*
X147570395Y-87500000D01*
X146685920Y-86615525D01*
X146431739Y-86699208D01*
X146300842Y-86971775D01*
X146225635Y-87264642D01*
X146209009Y-87566553D01*
X134417000Y-87566553D01*
X134417000Y-86435920D01*
X146865525Y-86435920D01*
X147750000Y-87320395D01*
X148634475Y-86435920D01*
X148550792Y-86181739D01*
X148278225Y-86050842D01*
X147985358Y-85975635D01*
X147683447Y-85959009D01*
X147384093Y-86001603D01*
X147098801Y-86101778D01*
X146949208Y-86181739D01*
X146865525Y-86435920D01*
X134417000Y-86435920D01*
X134417000Y-84613076D01*
X134421243Y-84569999D01*
X134410216Y-84458044D01*
X134404310Y-84398078D01*
X134354162Y-84232763D01*
X134272727Y-84080408D01*
X134163133Y-83946867D01*
X134137000Y-83925420D01*
X134137000Y-83687332D01*
X134085236Y-83427094D01*
X133983696Y-83181956D01*
X133836284Y-82961337D01*
X133648663Y-82773716D01*
X133428044Y-82626304D01*
X133182906Y-82524764D01*
X132922668Y-82473000D01*
X132657332Y-82473000D01*
X132397094Y-82524764D01*
X132151956Y-82626304D01*
X131931337Y-82773716D01*
X131743716Y-82961337D01*
X131596304Y-83181956D01*
X131494764Y-83427094D01*
X131443000Y-83687332D01*
X131443000Y-83952668D01*
X131494764Y-84212906D01*
X131596304Y-84458044D01*
X131743716Y-84678663D01*
X131931337Y-84866284D01*
X132151956Y-85013696D01*
X132397094Y-85115236D01*
X132657332Y-85167000D01*
X132663001Y-85167000D01*
X132663001Y-87533755D01*
X132622727Y-87458408D01*
X132513133Y-87324867D01*
X132479668Y-87297403D01*
X131127000Y-85944735D01*
X131127000Y-80241263D01*
X143223000Y-80241263D01*
X143223000Y-80758737D01*
X143323954Y-81266268D01*
X143521983Y-81744351D01*
X143809476Y-82174615D01*
X144175385Y-82540524D01*
X144605649Y-82828017D01*
X145083732Y-83026046D01*
X145591263Y-83127000D01*
X146108737Y-83127000D01*
X146616268Y-83026046D01*
X147094351Y-82828017D01*
X147524615Y-82540524D01*
X147890524Y-82174615D01*
X148178017Y-81744351D01*
X148376046Y-81266268D01*
X148477000Y-80758737D01*
X148477000Y-80241263D01*
X152023000Y-80241263D01*
X152023000Y-80758737D01*
X152123954Y-81266268D01*
X152321983Y-81744351D01*
X152609476Y-82174615D01*
X152975385Y-82540524D01*
X153405649Y-82828017D01*
X153883732Y-83026046D01*
X154391263Y-83127000D01*
X154908737Y-83127000D01*
X155416268Y-83026046D01*
X155894351Y-82828017D01*
X156324615Y-82540524D01*
X156690524Y-82174615D01*
X156978017Y-81744351D01*
X157176046Y-81266268D01*
X157277000Y-80758737D01*
X157277000Y-80241263D01*
X157176046Y-79733732D01*
X156978017Y-79255649D01*
X156690524Y-78825385D01*
X156324615Y-78459476D01*
X155894351Y-78171983D01*
X155416268Y-77973954D01*
X154908737Y-77873000D01*
X154391263Y-77873000D01*
X153883732Y-77973954D01*
X153405649Y-78171983D01*
X152975385Y-78459476D01*
X152609476Y-78825385D01*
X152321983Y-79255649D01*
X152123954Y-79733732D01*
X152023000Y-80241263D01*
X148477000Y-80241263D01*
X148376046Y-79733732D01*
X148178017Y-79255649D01*
X147890524Y-78825385D01*
X147524615Y-78459476D01*
X147094351Y-78171983D01*
X146616268Y-77973954D01*
X146108737Y-77873000D01*
X145591263Y-77873000D01*
X145083732Y-77973954D01*
X144605649Y-78171983D01*
X144175385Y-78459476D01*
X143809476Y-78825385D01*
X143521983Y-79255649D01*
X143323954Y-79733732D01*
X143223000Y-80241263D01*
X131127000Y-80241263D01*
X131127000Y-79767947D01*
X131296284Y-79598663D01*
X131443696Y-79378044D01*
X131545236Y-79132906D01*
X131597000Y-78872668D01*
X131597000Y-78607332D01*
X133983000Y-78607332D01*
X133983000Y-78872668D01*
X134034764Y-79132906D01*
X134136304Y-79378044D01*
X134283716Y-79598663D01*
X134471337Y-79786284D01*
X134691956Y-79933696D01*
X134937094Y-80035236D01*
X135197332Y-80087000D01*
X135462668Y-80087000D01*
X135722906Y-80035236D01*
X135968044Y-79933696D01*
X136188663Y-79786284D01*
X136376284Y-79598663D01*
X136523696Y-79378044D01*
X136625236Y-79132906D01*
X136677000Y-78872668D01*
X136677000Y-78607332D01*
X136625236Y-78347094D01*
X136523696Y-78101956D01*
X136376284Y-77881337D01*
X136188663Y-77693716D01*
X135968044Y-77546304D01*
X135722906Y-77444764D01*
X135462668Y-77393000D01*
X135197332Y-77393000D01*
X134937094Y-77444764D01*
X134691956Y-77546304D01*
X134471337Y-77693716D01*
X134283716Y-77881337D01*
X134136304Y-78101956D01*
X134034764Y-78347094D01*
X133983000Y-78607332D01*
X131597000Y-78607332D01*
X131545236Y-78347094D01*
X131443696Y-78101956D01*
X131296284Y-77881337D01*
X131108663Y-77693716D01*
X130888044Y-77546304D01*
X130642906Y-77444764D01*
X130382668Y-77393000D01*
X130117332Y-77393000D01*
X129857094Y-77444764D01*
X129611956Y-77546304D01*
X129391337Y-77693716D01*
X129203716Y-77881337D01*
X129056304Y-78101956D01*
X128954764Y-78347094D01*
X128903000Y-78607332D01*
X128903000Y-78872668D01*
X128954764Y-79132906D01*
X129056304Y-79378044D01*
X129203716Y-79598663D01*
X129373001Y-79767948D01*
X129373000Y-86264920D01*
X129368757Y-86308000D01*
X129373000Y-86351078D01*
X129385690Y-86479921D01*
X129435838Y-86645236D01*
X129517273Y-86797591D01*
X129626867Y-86931133D01*
X129660332Y-86958597D01*
X131013001Y-88311266D01*
X131013000Y-90247838D01*
X130999853Y-90263858D01*
X130923149Y-90407360D01*
X130875916Y-90563069D01*
X130859967Y-90725000D01*
X130859967Y-90789768D01*
X127935327Y-93714408D01*
X127901868Y-93741867D01*
X127874409Y-93775326D01*
X127874406Y-93775329D01*
X127792274Y-93875408D01*
X127710838Y-94027764D01*
X127660690Y-94193078D01*
X127643757Y-94365000D01*
X127648001Y-94408089D01*
X127648001Y-95294618D01*
X127527207Y-95230053D01*
X127366809Y-95181396D01*
X127200000Y-95164967D01*
X126750000Y-95164967D01*
X126663730Y-95173464D01*
X119254380Y-87764115D01*
X119277000Y-87650396D01*
X119277000Y-87349604D01*
X119218319Y-87054590D01*
X119103210Y-86776694D01*
X118936099Y-86526594D01*
X118723406Y-86313901D01*
X118473306Y-86146790D01*
X118195410Y-86031681D01*
X117900396Y-85973000D01*
X117599604Y-85973000D01*
X117304590Y-86031681D01*
X117026694Y-86146790D01*
X116776594Y-86313901D01*
X116563901Y-86526594D01*
X116500000Y-86622229D01*
X116436099Y-86526594D01*
X116223406Y-86313901D01*
X115973306Y-86146790D01*
X115695410Y-86031681D01*
X115400396Y-85973000D01*
X115099604Y-85973000D01*
X114804590Y-86031681D01*
X114526694Y-86146790D01*
X114276594Y-86313901D01*
X114063901Y-86526594D01*
X113970147Y-86666906D01*
X113814080Y-86615525D01*
X112929605Y-87500000D01*
X113814080Y-88384475D01*
X113970147Y-88333094D01*
X114063901Y-88473406D01*
X114276594Y-88686099D01*
X114526694Y-88853210D01*
X114804590Y-88968319D01*
X115099604Y-89027000D01*
X115400396Y-89027000D01*
X115695410Y-88968319D01*
X115973306Y-88853210D01*
X116223406Y-88686099D01*
X116436099Y-88473406D01*
X116500000Y-88377771D01*
X116563901Y-88473406D01*
X116776594Y-88686099D01*
X117026694Y-88853210D01*
X117304590Y-88968319D01*
X117599604Y-89027000D01*
X117900396Y-89027000D01*
X118014115Y-89004380D01*
X125869408Y-96859674D01*
X125896867Y-96893133D01*
X126030408Y-97002727D01*
X126057083Y-97016985D01*
X126145400Y-97124600D01*
X126274969Y-97230934D01*
X126422793Y-97309947D01*
X126583191Y-97358604D01*
X126750000Y-97375033D01*
X127200000Y-97375033D01*
X127366809Y-97358604D01*
X127527207Y-97309947D01*
X127675031Y-97230934D01*
X127750000Y-97169409D01*
X127824969Y-97230934D01*
X127972793Y-97309947D01*
X128133191Y-97358604D01*
X128300000Y-97375033D01*
X128750000Y-97375033D01*
X128916809Y-97358604D01*
X129077207Y-97309947D01*
X129225031Y-97230934D01*
X129354600Y-97124600D01*
X129460934Y-96995031D01*
X129539947Y-96847207D01*
X129588604Y-96686809D01*
X129605033Y-96520000D01*
X129605033Y-96020000D01*
X129588604Y-95853191D01*
X129539947Y-95692793D01*
X129460934Y-95544969D01*
X129402000Y-95473157D01*
X129402000Y-94728265D01*
X131890000Y-92240265D01*
X135894967Y-96245232D01*
X135894967Y-96545000D01*
X135910916Y-96706931D01*
X135958149Y-96862640D01*
X136034853Y-97006142D01*
X136138078Y-97131922D01*
X136263858Y-97235147D01*
X136407360Y-97311851D01*
X136563069Y-97359084D01*
X136725000Y-97375033D01*
X137125000Y-97375033D01*
X137286931Y-97359084D01*
X137442640Y-97311851D01*
X137586142Y-97235147D01*
X137698000Y-97143347D01*
X137698001Y-100075734D01*
X136335332Y-101438403D01*
X136301867Y-101465867D01*
X136192273Y-101599409D01*
X136138437Y-101700130D01*
X136110838Y-101751764D01*
X136060690Y-101917078D01*
X136043757Y-102089000D01*
X136048000Y-102132080D01*
X136048001Y-106247837D01*
X136034853Y-106263858D01*
X135958149Y-106407360D01*
X135910916Y-106563069D01*
X135894967Y-106725000D01*
X135894967Y-107275000D01*
X135910916Y-107436931D01*
X135958149Y-107592640D01*
X136034853Y-107736142D01*
X136048001Y-107752163D01*
X136048000Y-110211920D01*
X136043757Y-110255000D01*
X136048000Y-110298078D01*
X136060690Y-110426921D01*
X136110838Y-110592236D01*
X136192273Y-110744591D01*
X136301867Y-110878133D01*
X136335332Y-110905597D01*
X138033403Y-112603668D01*
X138060867Y-112637133D01*
X138194408Y-112746727D01*
X138346763Y-112828162D01*
X138512077Y-112878310D01*
X138684000Y-112895243D01*
X138727079Y-112891000D01*
X151274735Y-112891000D01*
X152031001Y-113647266D01*
X152031000Y-120367973D01*
X151997885Y-120417533D01*
X151920467Y-120604435D01*
X151881000Y-120802849D01*
X151881000Y-121005151D01*
X151920467Y-121203565D01*
X151997885Y-121390467D01*
X152110277Y-121558674D01*
X152158001Y-121606398D01*
X152158001Y-121793000D01*
X151372000Y-121793000D01*
X151372000Y-121120780D01*
X151395000Y-121005151D01*
X151395000Y-120802849D01*
X151355533Y-120604435D01*
X151278115Y-120417533D01*
X151245000Y-120367973D01*
X151245000Y-116106027D01*
X151278115Y-116056467D01*
X151355533Y-115869565D01*
X151395000Y-115671151D01*
X151395000Y-115468849D01*
X151355533Y-115270435D01*
X151278115Y-115083533D01*
X151165723Y-114915326D01*
X151022674Y-114772277D01*
X150854467Y-114659885D01*
X150667565Y-114582467D01*
X150469151Y-114543000D01*
X150266849Y-114543000D01*
X150068435Y-114582467D01*
X149881533Y-114659885D01*
X149713326Y-114772277D01*
X149570277Y-114915326D01*
X149457885Y-115083533D01*
X149380467Y-115270435D01*
X149341000Y-115468849D01*
X149341000Y-115671151D01*
X149380467Y-115869565D01*
X149457885Y-116056467D01*
X149491000Y-116106027D01*
X149491001Y-120367971D01*
X149457885Y-120417533D01*
X149380467Y-120604435D01*
X149341000Y-120802849D01*
X149341000Y-121005151D01*
X149380467Y-121203565D01*
X149457885Y-121390467D01*
X149570277Y-121558674D01*
X149618001Y-121606398D01*
X149618001Y-121793000D01*
X115834068Y-121793000D01*
X115970674Y-121701723D01*
X116113723Y-121558674D01*
X116226115Y-121390467D01*
X116303533Y-121203565D01*
X116343000Y-121005151D01*
X116343000Y-120802849D01*
X116303533Y-120604435D01*
X116226115Y-120417533D01*
X116193000Y-120367973D01*
X116193000Y-116388887D01*
X116224674Y-116367723D01*
X116367723Y-116224674D01*
X116480115Y-116056467D01*
X116557533Y-115869565D01*
X116597000Y-115671151D01*
X116597000Y-115468849D01*
X116557533Y-115270435D01*
X116480115Y-115083533D01*
X116367723Y-114915326D01*
X116224674Y-114772277D01*
X116056467Y-114659885D01*
X115869565Y-114582467D01*
X115671151Y-114543000D01*
X115468849Y-114543000D01*
X115270435Y-114582467D01*
X115083533Y-114659885D01*
X114915326Y-114772277D01*
X114772277Y-114915326D01*
X114659885Y-115083533D01*
X114582467Y-115270435D01*
X114561721Y-115374730D01*
X114501838Y-115486764D01*
X114451690Y-115652078D01*
X114434757Y-115824000D01*
X114439001Y-115867089D01*
X114439000Y-120367973D01*
X114405885Y-120417533D01*
X114328467Y-120604435D01*
X114318053Y-120656791D01*
X114311868Y-120661867D01*
X114284409Y-120695326D01*
X114284406Y-120695329D01*
X114202274Y-120795408D01*
X114120838Y-120947764D01*
X114070690Y-121113078D01*
X114053757Y-121285000D01*
X114058001Y-121328089D01*
X114058001Y-121793000D01*
X113294068Y-121793000D01*
X113430674Y-121701723D01*
X113573723Y-121558674D01*
X113686115Y-121390467D01*
X113763533Y-121203565D01*
X113803000Y-121005151D01*
X113803000Y-120802849D01*
X113763533Y-120604435D01*
X113686115Y-120417533D01*
X113573723Y-120249326D01*
X113430674Y-120106277D01*
X113262467Y-119993885D01*
X113075565Y-119916467D01*
X112877151Y-119877000D01*
X112674849Y-119877000D01*
X112476435Y-119916467D01*
X112289533Y-119993885D01*
X112121326Y-120106277D01*
X111978277Y-120249326D01*
X111865885Y-120417533D01*
X111788467Y-120604435D01*
X111778053Y-120656791D01*
X111771868Y-120661867D01*
X111744409Y-120695326D01*
X111744406Y-120695329D01*
X111662274Y-120795408D01*
X111580838Y-120947764D01*
X111530690Y-121113078D01*
X111513757Y-121285000D01*
X111518001Y-121328089D01*
X111518001Y-121793000D01*
X110754068Y-121793000D01*
X110890674Y-121701723D01*
X111033723Y-121558674D01*
X111146115Y-121390467D01*
X111223533Y-121203565D01*
X111263000Y-121005151D01*
X111263000Y-120802849D01*
X111223533Y-120604435D01*
X111146115Y-120417533D01*
X111113000Y-120367973D01*
X111113000Y-115090027D01*
X111146115Y-115040467D01*
X111223533Y-114853565D01*
X111263000Y-114655151D01*
X111263000Y-114452849D01*
X111223533Y-114254435D01*
X111146115Y-114067533D01*
X111033723Y-113899326D01*
X110890674Y-113756277D01*
X110722467Y-113643885D01*
X110535565Y-113566467D01*
X110337151Y-113527000D01*
X110134849Y-113527000D01*
X109936435Y-113566467D01*
X109749533Y-113643885D01*
X109581326Y-113756277D01*
X109438277Y-113899326D01*
X109325885Y-114067533D01*
X109248467Y-114254435D01*
X109209000Y-114452849D01*
X109209000Y-114655151D01*
X109248467Y-114853565D01*
X109325885Y-115040467D01*
X109359001Y-115090029D01*
X109359000Y-120367973D01*
X109325885Y-120417533D01*
X109248467Y-120604435D01*
X109238053Y-120656791D01*
X109231868Y-120661867D01*
X109204409Y-120695326D01*
X109204406Y-120695329D01*
X109122274Y-120795408D01*
X109040838Y-120947764D01*
X108990690Y-121113078D01*
X108973757Y-121285000D01*
X108978001Y-121328089D01*
X108978001Y-121793000D01*
X108214068Y-121793000D01*
X108350674Y-121701723D01*
X108493723Y-121558674D01*
X108606115Y-121390467D01*
X108683533Y-121203565D01*
X108723000Y-121005151D01*
X108723000Y-120802849D01*
X108683533Y-120604435D01*
X108606115Y-120417533D01*
X108573000Y-120367973D01*
X108573000Y-117645069D01*
X108577242Y-117601999D01*
X108573000Y-117558930D01*
X108573000Y-117558921D01*
X108560310Y-117430078D01*
X108510162Y-117264763D01*
X108428727Y-117112408D01*
X108319133Y-116978867D01*
X108285669Y-116951404D01*
X105806597Y-114472332D01*
X105779133Y-114438867D01*
X105645592Y-114329273D01*
X105493237Y-114247838D01*
X105327922Y-114197690D01*
X105199079Y-114185000D01*
X105156000Y-114180757D01*
X105112921Y-114185000D01*
X99677266Y-114185000D01*
X91942266Y-106450000D01*
X113261928Y-106450000D01*
X113274188Y-106574482D01*
X113310498Y-106694180D01*
X113369463Y-106804494D01*
X113448815Y-106901185D01*
X113545506Y-106980537D01*
X113655820Y-107039502D01*
X113775518Y-107075812D01*
X113900000Y-107088072D01*
X114014250Y-107085000D01*
X114173000Y-106926250D01*
X114173000Y-106127000D01*
X113423750Y-106127000D01*
X113265000Y-106285750D01*
X113261928Y-106450000D01*
X91942266Y-106450000D01*
X91047000Y-105554735D01*
X91047000Y-105550000D01*
X113261928Y-105550000D01*
X113265000Y-105714250D01*
X113423750Y-105873000D01*
X114173000Y-105873000D01*
X114173000Y-105073750D01*
X114014250Y-104915000D01*
X113900000Y-104911928D01*
X113775518Y-104924188D01*
X113655820Y-104960498D01*
X113545506Y-105019463D01*
X113448815Y-105098815D01*
X113369463Y-105195506D01*
X113310498Y-105305820D01*
X113274188Y-105425518D01*
X113261928Y-105550000D01*
X91047000Y-105550000D01*
X91047000Y-101699040D01*
X93858091Y-101699040D01*
X93952930Y-101963881D01*
X94097615Y-102205131D01*
X94286586Y-102413519D01*
X94512580Y-102581037D01*
X94766913Y-102701246D01*
X94900961Y-102741904D01*
X95123000Y-102619915D01*
X95123000Y-101477000D01*
X95377000Y-101477000D01*
X95377000Y-102619915D01*
X95599039Y-102741904D01*
X95733087Y-102701246D01*
X95987420Y-102581037D01*
X96213414Y-102413519D01*
X96402385Y-102205131D01*
X96547070Y-101963881D01*
X96641909Y-101699040D01*
X96520624Y-101477000D01*
X95377000Y-101477000D01*
X95123000Y-101477000D01*
X93979376Y-101477000D01*
X93858091Y-101699040D01*
X91047000Y-101699040D01*
X91047000Y-101000960D01*
X93858091Y-101000960D01*
X93979376Y-101223000D01*
X95123000Y-101223000D01*
X95123000Y-100080085D01*
X95377000Y-100080085D01*
X95377000Y-101223000D01*
X96520624Y-101223000D01*
X96641909Y-101000960D01*
X96547070Y-100736119D01*
X96402385Y-100494869D01*
X96213414Y-100286481D01*
X95987420Y-100118963D01*
X95733087Y-99998754D01*
X95599039Y-99958096D01*
X95377000Y-100080085D01*
X95123000Y-100080085D01*
X94900961Y-99958096D01*
X94766913Y-99998754D01*
X94512580Y-100118963D01*
X94286586Y-100286481D01*
X94097615Y-100494869D01*
X93952930Y-100736119D01*
X93858091Y-101000960D01*
X91047000Y-101000960D01*
X91047000Y-97495000D01*
X104136928Y-97495000D01*
X104149188Y-97619482D01*
X104185498Y-97739180D01*
X104244463Y-97849494D01*
X104323815Y-97946185D01*
X104420506Y-98025537D01*
X104530820Y-98084502D01*
X104650518Y-98120812D01*
X104775000Y-98133072D01*
X104964250Y-98130000D01*
X105123000Y-97971250D01*
X105123000Y-97222000D01*
X105377000Y-97222000D01*
X105377000Y-97971250D01*
X105535750Y-98130000D01*
X105725000Y-98133072D01*
X105849482Y-98120812D01*
X105969180Y-98084502D01*
X106079494Y-98025537D01*
X106176185Y-97946185D01*
X106255537Y-97849494D01*
X106314502Y-97739180D01*
X106350812Y-97619482D01*
X106363072Y-97495000D01*
X106360000Y-97380750D01*
X106201250Y-97222000D01*
X105377000Y-97222000D01*
X105123000Y-97222000D01*
X104298750Y-97222000D01*
X104140000Y-97380750D01*
X104136928Y-97495000D01*
X91047000Y-97495000D01*
X91047000Y-91049453D01*
X93823000Y-91049453D01*
X93823000Y-91330547D01*
X93877838Y-91606241D01*
X93985409Y-91865938D01*
X94141576Y-92099660D01*
X94340340Y-92298424D01*
X94574062Y-92454591D01*
X94833759Y-92562162D01*
X95109453Y-92617000D01*
X95390547Y-92617000D01*
X95666241Y-92562162D01*
X95925938Y-92454591D01*
X96159660Y-92298424D01*
X96358424Y-92099660D01*
X96380247Y-92067000D01*
X100631735Y-92067000D01*
X104144967Y-95580232D01*
X104144967Y-95645000D01*
X104160916Y-95806931D01*
X104208149Y-95962640D01*
X104284853Y-96106142D01*
X104368047Y-96207515D01*
X104323815Y-96243815D01*
X104244463Y-96340506D01*
X104185498Y-96450820D01*
X104149188Y-96570518D01*
X104136928Y-96695000D01*
X104140000Y-96809250D01*
X104298750Y-96968000D01*
X105123000Y-96968000D01*
X105123000Y-96948000D01*
X105377000Y-96948000D01*
X105377000Y-96968000D01*
X106201250Y-96968000D01*
X106360000Y-96809250D01*
X106363072Y-96695000D01*
X106350812Y-96570518D01*
X106314502Y-96450820D01*
X106255537Y-96340506D01*
X106240350Y-96322000D01*
X113885212Y-96322000D01*
X113904499Y-96345501D01*
X113999972Y-96423853D01*
X114108897Y-96482075D01*
X114139221Y-96491274D01*
X114063901Y-96566594D01*
X113896790Y-96816694D01*
X113781681Y-97094590D01*
X113723000Y-97389604D01*
X113723000Y-97690396D01*
X113781681Y-97985410D01*
X113896790Y-98263306D01*
X114063901Y-98513406D01*
X114276594Y-98726099D01*
X114526694Y-98893210D01*
X114804590Y-99008319D01*
X115099604Y-99067000D01*
X115400396Y-99067000D01*
X115695410Y-99008319D01*
X115973306Y-98893210D01*
X116223406Y-98726099D01*
X116436099Y-98513406D01*
X116603210Y-98263306D01*
X116718319Y-97985410D01*
X116777000Y-97690396D01*
X116777000Y-97389604D01*
X116718319Y-97094590D01*
X116603210Y-96816694D01*
X116436099Y-96566594D01*
X116360779Y-96491274D01*
X116391103Y-96482075D01*
X116500028Y-96423853D01*
X116595501Y-96345501D01*
X116673853Y-96250028D01*
X116732075Y-96141103D01*
X116767927Y-96022913D01*
X116780033Y-95900000D01*
X116780033Y-94100000D01*
X116767927Y-93977087D01*
X116732075Y-93858897D01*
X116673853Y-93749972D01*
X116595501Y-93654499D01*
X116500028Y-93576147D01*
X116391103Y-93517925D01*
X116272913Y-93482073D01*
X116150000Y-93469967D01*
X114350000Y-93469967D01*
X114227087Y-93482073D01*
X114108897Y-93517925D01*
X113999972Y-93576147D01*
X113904499Y-93654499D01*
X113826147Y-93749972D01*
X113767925Y-93858897D01*
X113732073Y-93977087D01*
X113719967Y-94100000D01*
X113719967Y-94568000D01*
X106002162Y-94568000D01*
X105986142Y-94554853D01*
X105842640Y-94478149D01*
X105686931Y-94430916D01*
X105525000Y-94414967D01*
X105460232Y-94414967D01*
X101645597Y-90600332D01*
X101618133Y-90566867D01*
X101484592Y-90457273D01*
X101332237Y-90375838D01*
X101166922Y-90325690D01*
X101038079Y-90313000D01*
X100995000Y-90308757D01*
X100951921Y-90313000D01*
X96380247Y-90313000D01*
X96358424Y-90280340D01*
X96159660Y-90081576D01*
X95925938Y-89925409D01*
X95666241Y-89817838D01*
X95390547Y-89763000D01*
X95109453Y-89763000D01*
X94833759Y-89817838D01*
X94574062Y-89925409D01*
X94340340Y-90081576D01*
X94141576Y-90280340D01*
X93985409Y-90514062D01*
X93877838Y-90773759D01*
X93823000Y-91049453D01*
X91047000Y-91049453D01*
X91047000Y-88743265D01*
X94242012Y-85548254D01*
X94363226Y-85613044D01*
X94528314Y-85663123D01*
X94700000Y-85680033D01*
X95800000Y-85680033D01*
X95971686Y-85663123D01*
X96136774Y-85613044D01*
X96288920Y-85531721D01*
X96422277Y-85422277D01*
X96531721Y-85288920D01*
X96613044Y-85136774D01*
X96663123Y-84971686D01*
X96680033Y-84800000D01*
X96680033Y-81800000D01*
X96663123Y-81628314D01*
X96613044Y-81463226D01*
X96531721Y-81311080D01*
X96422277Y-81177723D01*
X96288920Y-81068279D01*
X96136774Y-80986956D01*
X95971686Y-80936877D01*
X95800000Y-80919967D01*
X94700000Y-80919967D01*
X94528314Y-80936877D01*
X94363226Y-80986956D01*
X94211080Y-81068279D01*
X94077723Y-81177723D01*
X93968279Y-81311080D01*
X93886956Y-81463226D01*
X93836877Y-81628314D01*
X93819967Y-81800000D01*
X93819967Y-83489767D01*
X89580332Y-87729403D01*
X89546867Y-87756867D01*
X89437273Y-87890409D01*
X89384259Y-87989592D01*
X89355838Y-88042764D01*
X89305690Y-88208078D01*
X89288757Y-88380000D01*
X89293000Y-88423080D01*
X89293001Y-105874910D01*
X89288757Y-105918000D01*
X89305690Y-106089922D01*
X89355838Y-106255236D01*
X89437274Y-106407592D01*
X89519406Y-106507671D01*
X89519409Y-106507674D01*
X89546868Y-106541133D01*
X89580327Y-106568592D01*
X98663408Y-115651674D01*
X98690867Y-115685133D01*
X98824408Y-115794727D01*
X98964421Y-115869565D01*
X98976763Y-115876162D01*
X99142077Y-115926310D01*
X99314000Y-115943243D01*
X99357079Y-115939000D01*
X104792735Y-115939000D01*
X106819000Y-117965265D01*
X106819001Y-120367972D01*
X106785885Y-120417533D01*
X106708467Y-120604435D01*
X106698053Y-120656791D01*
X106691868Y-120661867D01*
X106664409Y-120695326D01*
X106664406Y-120695329D01*
X106582274Y-120795408D01*
X106500838Y-120947764D01*
X106450690Y-121113078D01*
X106433757Y-121285000D01*
X106438001Y-121328089D01*
X106438001Y-121793000D01*
X100697000Y-121793000D01*
X100697000Y-119533252D01*
X100700275Y-119500000D01*
X100687204Y-119367285D01*
X100648492Y-119239670D01*
X100585628Y-119122059D01*
X100501027Y-119018973D01*
X100397941Y-118934372D01*
X100280330Y-118871508D01*
X100152715Y-118832796D01*
X100053252Y-118823000D01*
X100020000Y-118819725D01*
X99986748Y-118823000D01*
X89033252Y-118823000D01*
X89000000Y-118819725D01*
X88966748Y-118823000D01*
X88867285Y-118832796D01*
X88739670Y-118871508D01*
X88622059Y-118934372D01*
X88518973Y-119018973D01*
X88434372Y-119122059D01*
X88371508Y-119239670D01*
X88332796Y-119367285D01*
X88319725Y-119500000D01*
X88323000Y-119533252D01*
X88323001Y-125323000D01*
X83177000Y-125323000D01*
X83177000Y-98177000D01*
X83466748Y-98177000D01*
X83500000Y-98180275D01*
X83533252Y-98177000D01*
X83632715Y-98167204D01*
X83760330Y-98128492D01*
X83877941Y-98065628D01*
X83981027Y-97981027D01*
X84065628Y-97877941D01*
X84128492Y-97760330D01*
X84167204Y-97632715D01*
X84180275Y-97500000D01*
X84177000Y-97466748D01*
X84177000Y-95177000D01*
X85966748Y-95177000D01*
X86000000Y-95180275D01*
X86033252Y-95177000D01*
X86132715Y-95167204D01*
X86260330Y-95128492D01*
X86377941Y-95065628D01*
X86481027Y-94981027D01*
X86565628Y-94877941D01*
X86628492Y-94760330D01*
X86667204Y-94632715D01*
X86680275Y-94500000D01*
X86677000Y-94466748D01*
X86677000Y-93033251D01*
X86680275Y-93000000D01*
X86667204Y-92867285D01*
X86628492Y-92739670D01*
X86565628Y-92622059D01*
X86481027Y-92518973D01*
X86377941Y-92434372D01*
X86260330Y-92371508D01*
X86132715Y-92332796D01*
X86033252Y-92323000D01*
X86000000Y-92319725D01*
X85966748Y-92323000D01*
X83177000Y-92323000D01*
X83177000Y-76200000D01*
X93819967Y-76200000D01*
X93819967Y-79200000D01*
X93836877Y-79371686D01*
X93886956Y-79536774D01*
X93968279Y-79688920D01*
X94077723Y-79822277D01*
X94211080Y-79931721D01*
X94363226Y-80013044D01*
X94528314Y-80063123D01*
X94700000Y-80080033D01*
X95800000Y-80080033D01*
X95971686Y-80063123D01*
X96136774Y-80013044D01*
X96288920Y-79931721D01*
X96422277Y-79822277D01*
X96531721Y-79688920D01*
X96613044Y-79536774D01*
X96663123Y-79371686D01*
X96680033Y-79200000D01*
X96680033Y-78577000D01*
X97402735Y-78577000D01*
X110347408Y-91521674D01*
X110374867Y-91555133D01*
X110408326Y-91582592D01*
X110408328Y-91582594D01*
X110437142Y-91606241D01*
X110508408Y-91664727D01*
X110635628Y-91732727D01*
X110660763Y-91746162D01*
X110826077Y-91796310D01*
X110998000Y-91813243D01*
X111041079Y-91809000D01*
X115714735Y-91809000D01*
X119011001Y-95105266D01*
X119011000Y-99458735D01*
X115610327Y-102859408D01*
X115576868Y-102886867D01*
X115549409Y-102920326D01*
X115549406Y-102920329D01*
X115467274Y-103020408D01*
X115385838Y-103172764D01*
X115335690Y-103338078D01*
X115318757Y-103510000D01*
X115323001Y-103553089D01*
X115323000Y-105142881D01*
X115276147Y-105199972D01*
X115254536Y-105240404D01*
X115230537Y-105195506D01*
X115151185Y-105098815D01*
X115054494Y-105019463D01*
X114944180Y-104960498D01*
X114824482Y-104924188D01*
X114700000Y-104911928D01*
X114585750Y-104915000D01*
X114427000Y-105073750D01*
X114427000Y-105873000D01*
X114447000Y-105873000D01*
X114447000Y-106127000D01*
X114427000Y-106127000D01*
X114427000Y-106926250D01*
X114517518Y-107016768D01*
X114499972Y-107026147D01*
X114404499Y-107104499D01*
X114326147Y-107199972D01*
X114267925Y-107308897D01*
X114232073Y-107427087D01*
X114219967Y-107550000D01*
X114219967Y-108450000D01*
X114232073Y-108572913D01*
X114267925Y-108691103D01*
X114326147Y-108800028D01*
X114404499Y-108895501D01*
X114499972Y-108973853D01*
X114608897Y-109032075D01*
X114727087Y-109067927D01*
X114850000Y-109080033D01*
X115650000Y-109080033D01*
X115772913Y-109067927D01*
X115891103Y-109032075D01*
X116000028Y-108973853D01*
X116095501Y-108895501D01*
X116110684Y-108877000D01*
X122114735Y-108877000D01*
X124063403Y-110825668D01*
X124090867Y-110859133D01*
X124129300Y-110890674D01*
X124224408Y-110968727D01*
X124376763Y-111050162D01*
X124542077Y-111100310D01*
X124714000Y-111117243D01*
X124757079Y-111113000D01*
X133067973Y-111113000D01*
X133117533Y-111146115D01*
X133304435Y-111223533D01*
X133502849Y-111263000D01*
X133705151Y-111263000D01*
X133903565Y-111223533D01*
X134090467Y-111146115D01*
X134258674Y-111033723D01*
X134401723Y-110890674D01*
X134514115Y-110722467D01*
X134591533Y-110535565D01*
X134631000Y-110337151D01*
X134631000Y-110134849D01*
X134591533Y-109936435D01*
X134514115Y-109749533D01*
X134401723Y-109581326D01*
X134258674Y-109438277D01*
X134090467Y-109325885D01*
X133903565Y-109248467D01*
X133705151Y-109209000D01*
X133502849Y-109209000D01*
X133304435Y-109248467D01*
X133117533Y-109325885D01*
X133067973Y-109359000D01*
X125077265Y-109359000D01*
X123128597Y-107410332D01*
X123101133Y-107376867D01*
X122967592Y-107267273D01*
X122815237Y-107185838D01*
X122649922Y-107135690D01*
X122521079Y-107123000D01*
X122478000Y-107118757D01*
X122434921Y-107123000D01*
X116110684Y-107123000D01*
X116095501Y-107104499D01*
X116065689Y-107080033D01*
X116600000Y-107080033D01*
X116722913Y-107067927D01*
X116841103Y-107032075D01*
X116950028Y-106973853D01*
X117045501Y-106895501D01*
X117060684Y-106877000D01*
X125561735Y-106877000D01*
X125894967Y-107210232D01*
X125894967Y-107275000D01*
X125910916Y-107436931D01*
X125958149Y-107592640D01*
X126034853Y-107736142D01*
X126138078Y-107861922D01*
X126263858Y-107965147D01*
X126407360Y-108041851D01*
X126563069Y-108089084D01*
X126725000Y-108105033D01*
X127125000Y-108105033D01*
X127286931Y-108089084D01*
X127442640Y-108041851D01*
X127586142Y-107965147D01*
X127711922Y-107861922D01*
X127750000Y-107815524D01*
X127788078Y-107861922D01*
X127913858Y-107965147D01*
X128057360Y-108041851D01*
X128213069Y-108089084D01*
X128375000Y-108105033D01*
X128775000Y-108105033D01*
X128936931Y-108089084D01*
X129092640Y-108041851D01*
X129236142Y-107965147D01*
X129343549Y-107877000D01*
X133450924Y-107877000D01*
X133558435Y-107921533D01*
X133756849Y-107961000D01*
X133959151Y-107961000D01*
X134157565Y-107921533D01*
X134344467Y-107844115D01*
X134512674Y-107731723D01*
X134655723Y-107588674D01*
X134768115Y-107420467D01*
X134845533Y-107233565D01*
X134885000Y-107035151D01*
X134885000Y-106832849D01*
X134845533Y-106634435D01*
X134768115Y-106447533D01*
X134655723Y-106279326D01*
X134512674Y-106136277D01*
X134344467Y-106023885D01*
X134157565Y-105946467D01*
X133959151Y-105907000D01*
X133756849Y-105907000D01*
X133558435Y-105946467D01*
X133371533Y-106023885D01*
X133223196Y-106123000D01*
X129343549Y-106123000D01*
X129236142Y-106034853D01*
X129092640Y-105958149D01*
X128936931Y-105910916D01*
X128775000Y-105894967D01*
X128375000Y-105894967D01*
X128213069Y-105910916D01*
X128057360Y-105958149D01*
X127913858Y-106034853D01*
X127788078Y-106138078D01*
X127750000Y-106184476D01*
X127711922Y-106138078D01*
X127586142Y-106034853D01*
X127442640Y-105958149D01*
X127286931Y-105910916D01*
X127125000Y-105894967D01*
X127060232Y-105894967D01*
X126575597Y-105410332D01*
X126548133Y-105376867D01*
X126414592Y-105267273D01*
X126262237Y-105185838D01*
X126096922Y-105135690D01*
X125968079Y-105123000D01*
X125925000Y-105118757D01*
X125881921Y-105123000D01*
X117077000Y-105123000D01*
X117077000Y-103873265D01*
X120477669Y-100472596D01*
X120511133Y-100445133D01*
X120620727Y-100311592D01*
X120702162Y-100159237D01*
X120736392Y-100046397D01*
X120752310Y-99993923D01*
X120769243Y-99822000D01*
X120765000Y-99778921D01*
X120765000Y-94785079D01*
X120769243Y-94742000D01*
X120752310Y-94570077D01*
X120702162Y-94404763D01*
X120626534Y-94263273D01*
X120620727Y-94252408D01*
X120511133Y-94118867D01*
X120477668Y-94091403D01*
X116728597Y-90342332D01*
X116701133Y-90308867D01*
X116567592Y-90199273D01*
X116415237Y-90117838D01*
X116249922Y-90067690D01*
X116127090Y-90055592D01*
X116078000Y-90050757D01*
X116034921Y-90055000D01*
X111361266Y-90055000D01*
X109870346Y-88564080D01*
X111865525Y-88564080D01*
X111949208Y-88818261D01*
X112221775Y-88949158D01*
X112514642Y-89024365D01*
X112816553Y-89040991D01*
X113115907Y-88998397D01*
X113401199Y-88898222D01*
X113550792Y-88818261D01*
X113634475Y-88564080D01*
X112750000Y-87679605D01*
X111865525Y-88564080D01*
X109870346Y-88564080D01*
X108872819Y-87566553D01*
X111209009Y-87566553D01*
X111251603Y-87865907D01*
X111351778Y-88151199D01*
X111431739Y-88300792D01*
X111685920Y-88384475D01*
X112570395Y-87500000D01*
X111685920Y-86615525D01*
X111431739Y-86699208D01*
X111300842Y-86971775D01*
X111225635Y-87264642D01*
X111209009Y-87566553D01*
X108872819Y-87566553D01*
X107742186Y-86435920D01*
X111865525Y-86435920D01*
X112750000Y-87320395D01*
X113634475Y-86435920D01*
X113550792Y-86181739D01*
X113278225Y-86050842D01*
X112985358Y-85975635D01*
X112683447Y-85959009D01*
X112384093Y-86001603D01*
X112098801Y-86101778D01*
X111949208Y-86181739D01*
X111865525Y-86435920D01*
X107742186Y-86435920D01*
X101547529Y-80241263D01*
X108223000Y-80241263D01*
X108223000Y-80758737D01*
X108323954Y-81266268D01*
X108521983Y-81744351D01*
X108809476Y-82174615D01*
X109175385Y-82540524D01*
X109605649Y-82828017D01*
X110083732Y-83026046D01*
X110591263Y-83127000D01*
X111108737Y-83127000D01*
X111616268Y-83026046D01*
X112094351Y-82828017D01*
X112524615Y-82540524D01*
X112890524Y-82174615D01*
X113178017Y-81744351D01*
X113376046Y-81266268D01*
X113477000Y-80758737D01*
X113477000Y-80241263D01*
X117023000Y-80241263D01*
X117023000Y-80758737D01*
X117123954Y-81266268D01*
X117321983Y-81744351D01*
X117609476Y-82174615D01*
X117975385Y-82540524D01*
X118405649Y-82828017D01*
X118883732Y-83026046D01*
X119391263Y-83127000D01*
X119908737Y-83127000D01*
X120416268Y-83026046D01*
X120894351Y-82828017D01*
X121324615Y-82540524D01*
X121690524Y-82174615D01*
X121978017Y-81744351D01*
X122176046Y-81266268D01*
X122277000Y-80758737D01*
X122277000Y-80241263D01*
X122176046Y-79733732D01*
X121978017Y-79255649D01*
X121690524Y-78825385D01*
X121324615Y-78459476D01*
X120894351Y-78171983D01*
X120416268Y-77973954D01*
X119908737Y-77873000D01*
X119391263Y-77873000D01*
X118883732Y-77973954D01*
X118405649Y-78171983D01*
X117975385Y-78459476D01*
X117609476Y-78825385D01*
X117321983Y-79255649D01*
X117123954Y-79733732D01*
X117023000Y-80241263D01*
X113477000Y-80241263D01*
X113376046Y-79733732D01*
X113178017Y-79255649D01*
X112890524Y-78825385D01*
X112524615Y-78459476D01*
X112094351Y-78171983D01*
X111616268Y-77973954D01*
X111108737Y-77873000D01*
X110591263Y-77873000D01*
X110083732Y-77973954D01*
X109605649Y-78171983D01*
X109175385Y-78459476D01*
X108809476Y-78825385D01*
X108521983Y-79255649D01*
X108323954Y-79733732D01*
X108223000Y-80241263D01*
X101547529Y-80241263D01*
X98416597Y-77110332D01*
X98389133Y-77076867D01*
X98255592Y-76967273D01*
X98103237Y-76885838D01*
X97937922Y-76835690D01*
X97809079Y-76823000D01*
X97766000Y-76818757D01*
X97722921Y-76823000D01*
X96680033Y-76823000D01*
X96680033Y-76200000D01*
X96663123Y-76028314D01*
X96613044Y-75863226D01*
X96531721Y-75711080D01*
X96422277Y-75577723D01*
X96288920Y-75468279D01*
X96136774Y-75386956D01*
X95971686Y-75336877D01*
X95800000Y-75319967D01*
X94700000Y-75319967D01*
X94528314Y-75336877D01*
X94363226Y-75386956D01*
X94211080Y-75468279D01*
X94077723Y-75577723D01*
X93968279Y-75711080D01*
X93886956Y-75863226D01*
X93836877Y-76028314D01*
X93819967Y-76200000D01*
X83177000Y-76200000D01*
X83177000Y-73177000D01*
X83266748Y-73177000D01*
X83300000Y-73180275D01*
X83333252Y-73177000D01*
X83432715Y-73167204D01*
X83560330Y-73128492D01*
X83677941Y-73065628D01*
X83781027Y-72981027D01*
X83865628Y-72877941D01*
X83928492Y-72760330D01*
X83967204Y-72632715D01*
X83980275Y-72500000D01*
X83977000Y-72466748D01*
X83977000Y-70677000D01*
X181323000Y-70677000D01*
X181323001Y-90823000D01*
G04 #@! TA.AperFunction,Conductor*
D22*
G36*
X181323001Y-90823000D02*
G01*
X179433252Y-90823000D01*
X179400000Y-90819725D01*
X179366748Y-90823000D01*
X179267285Y-90832796D01*
X179139670Y-90871508D01*
X179022059Y-90934372D01*
X178918973Y-91018973D01*
X178834372Y-91122059D01*
X178771508Y-91239670D01*
X178732796Y-91367285D01*
X178719725Y-91500000D01*
X178723001Y-91533262D01*
X178723000Y-92966747D01*
X178719725Y-93000000D01*
X178732796Y-93132715D01*
X178771508Y-93260330D01*
X178834372Y-93377941D01*
X178918973Y-93481027D01*
X179022059Y-93565628D01*
X179139670Y-93628492D01*
X179267285Y-93667204D01*
X179400000Y-93680275D01*
X179433252Y-93677000D01*
X181323000Y-93677000D01*
X181323001Y-98966738D01*
X181319725Y-99000000D01*
X181332796Y-99132715D01*
X181371508Y-99260330D01*
X181434372Y-99377941D01*
X181518973Y-99481027D01*
X181622059Y-99565628D01*
X181739670Y-99628492D01*
X181823001Y-99653770D01*
X181823000Y-125323000D01*
X177177000Y-125323000D01*
X177177000Y-119533252D01*
X177180275Y-119500000D01*
X177167204Y-119367285D01*
X177128492Y-119239670D01*
X177065628Y-119122059D01*
X176981027Y-119018973D01*
X176877941Y-118934372D01*
X176760330Y-118871508D01*
X176632715Y-118832796D01*
X176533252Y-118823000D01*
X176500000Y-118819725D01*
X176466748Y-118823000D01*
X165513252Y-118823000D01*
X165480000Y-118819725D01*
X165446748Y-118823000D01*
X165347285Y-118832796D01*
X165219670Y-118871508D01*
X165102059Y-118934372D01*
X164998973Y-119018973D01*
X164914372Y-119122059D01*
X164851508Y-119239670D01*
X164812796Y-119367285D01*
X164799725Y-119500000D01*
X164803001Y-119533262D01*
X164803001Y-121793000D01*
X158992000Y-121793000D01*
X158992000Y-121120780D01*
X159015000Y-121005151D01*
X159015000Y-120802849D01*
X158975533Y-120604435D01*
X158898115Y-120417533D01*
X158785723Y-120249326D01*
X158642674Y-120106277D01*
X158474467Y-119993885D01*
X158287565Y-119916467D01*
X158089151Y-119877000D01*
X157886849Y-119877000D01*
X157688435Y-119916467D01*
X157501533Y-119993885D01*
X157333326Y-120106277D01*
X157190277Y-120249326D01*
X157077885Y-120417533D01*
X157000467Y-120604435D01*
X156961000Y-120802849D01*
X156961000Y-121005151D01*
X157000467Y-121203565D01*
X157077885Y-121390467D01*
X157190277Y-121558674D01*
X157238001Y-121606398D01*
X157238001Y-121793000D01*
X156452000Y-121793000D01*
X156452000Y-121120780D01*
X156475000Y-121005151D01*
X156475000Y-120802849D01*
X156435533Y-120604435D01*
X156358115Y-120417533D01*
X156245723Y-120249326D01*
X156102674Y-120106277D01*
X155934467Y-119993885D01*
X155747565Y-119916467D01*
X155549151Y-119877000D01*
X155346849Y-119877000D01*
X155148435Y-119916467D01*
X154961533Y-119993885D01*
X154793326Y-120106277D01*
X154650277Y-120249326D01*
X154537885Y-120417533D01*
X154460467Y-120604435D01*
X154421000Y-120802849D01*
X154421000Y-121005151D01*
X154460467Y-121203565D01*
X154537885Y-121390467D01*
X154650277Y-121558674D01*
X154698001Y-121606398D01*
X154698001Y-121793000D01*
X153912000Y-121793000D01*
X153912000Y-121120780D01*
X153935000Y-121005151D01*
X153935000Y-120802849D01*
X153895533Y-120604435D01*
X153818115Y-120417533D01*
X153785000Y-120367973D01*
X153785000Y-113327069D01*
X153789242Y-113283999D01*
X153785000Y-113240930D01*
X153785000Y-113240921D01*
X153772310Y-113112078D01*
X153722162Y-112946763D01*
X153640727Y-112794408D01*
X153531133Y-112660867D01*
X153497668Y-112633403D01*
X152288594Y-111424329D01*
X152261133Y-111390867D01*
X152127592Y-111281273D01*
X151975237Y-111199838D01*
X151809922Y-111149690D01*
X151681079Y-111137000D01*
X151638000Y-111132757D01*
X151594921Y-111137000D01*
X139047265Y-111137000D01*
X137802000Y-109891735D01*
X137802000Y-107873347D01*
X137913858Y-107965147D01*
X138057360Y-108041851D01*
X138213069Y-108089084D01*
X138375000Y-108105033D01*
X138775000Y-108105033D01*
X138936931Y-108089084D01*
X139092640Y-108041851D01*
X139236142Y-107965147D01*
X139361922Y-107861922D01*
X139465147Y-107736142D01*
X139541851Y-107592640D01*
X139589084Y-107436931D01*
X139605033Y-107275000D01*
X139605033Y-106725000D01*
X139589084Y-106563069D01*
X139541851Y-106407360D01*
X139465147Y-106263858D01*
X139452000Y-106247838D01*
X139452000Y-105897403D01*
X139491565Y-105889533D01*
X139678467Y-105812115D01*
X139846674Y-105699723D01*
X139989723Y-105556674D01*
X140102115Y-105388467D01*
X140179533Y-105201565D01*
X140219000Y-105003151D01*
X140219000Y-104800849D01*
X140179533Y-104602435D01*
X140102115Y-104415533D01*
X139989723Y-104247326D01*
X139846674Y-104104277D01*
X139678467Y-103991885D01*
X139491565Y-103914467D01*
X139293151Y-103875000D01*
X139090849Y-103875000D01*
X138892435Y-103914467D01*
X138705533Y-103991885D01*
X138537326Y-104104277D01*
X138394277Y-104247326D01*
X138281885Y-104415533D01*
X138204467Y-104602435D01*
X138192838Y-104660896D01*
X137985327Y-104868408D01*
X137951868Y-104895867D01*
X137924409Y-104929326D01*
X137924406Y-104929329D01*
X137842274Y-105029408D01*
X137802000Y-105104755D01*
X137802000Y-102452265D01*
X139164668Y-101089597D01*
X139198133Y-101062133D01*
X139307727Y-100928592D01*
X139389162Y-100776237D01*
X139439310Y-100610922D01*
X139452000Y-100482079D01*
X139452000Y-100482070D01*
X139456242Y-100439001D01*
X139452000Y-100395931D01*
X139452000Y-97022162D01*
X139465147Y-97006142D01*
X139541851Y-96862640D01*
X139589084Y-96706931D01*
X139605033Y-96545000D01*
X139605033Y-95995000D01*
X139589084Y-95833069D01*
X139541851Y-95677360D01*
X139465147Y-95533858D01*
X139361922Y-95408078D01*
X139236142Y-95304853D01*
X139092640Y-95228149D01*
X138936931Y-95180916D01*
X138775000Y-95164967D01*
X138375000Y-95164967D01*
X138213069Y-95180916D01*
X138057360Y-95228149D01*
X137913858Y-95304853D01*
X137788078Y-95408078D01*
X137750000Y-95454476D01*
X137711922Y-95408078D01*
X137586142Y-95304853D01*
X137442640Y-95228149D01*
X137321740Y-95191475D01*
X134132241Y-92001976D01*
X134201142Y-91965147D01*
X134308549Y-91877000D01*
X137880735Y-91877000D01*
X141109000Y-95105265D01*
X141109001Y-107906910D01*
X141104757Y-107950000D01*
X141121690Y-108121922D01*
X141171838Y-108287236D01*
X141253274Y-108439592D01*
X141335406Y-108539671D01*
X141335409Y-108539674D01*
X141362868Y-108573133D01*
X141396327Y-108600592D01*
X143367408Y-110571674D01*
X143394867Y-110605133D01*
X143528408Y-110714727D01*
X143584280Y-110744591D01*
X143680763Y-110796162D01*
X143846077Y-110846310D01*
X144018000Y-110863243D01*
X144061079Y-110859000D01*
X148224921Y-110859000D01*
X148268000Y-110863243D01*
X148311079Y-110859000D01*
X148439922Y-110846310D01*
X148605237Y-110796162D01*
X148757592Y-110714727D01*
X148891133Y-110605133D01*
X148918597Y-110571668D01*
X150410232Y-109080033D01*
X150650000Y-109080033D01*
X150772913Y-109067927D01*
X150891103Y-109032075D01*
X151000028Y-108973853D01*
X151095501Y-108895501D01*
X151173853Y-108800028D01*
X151232075Y-108691103D01*
X151267927Y-108572913D01*
X151280033Y-108450000D01*
X151280033Y-107550000D01*
X151267927Y-107427087D01*
X151232075Y-107308897D01*
X151173853Y-107199972D01*
X151095501Y-107104499D01*
X151065689Y-107080033D01*
X151600000Y-107080033D01*
X151722913Y-107067927D01*
X151841103Y-107032075D01*
X151950028Y-106973853D01*
X152045501Y-106895501D01*
X152123853Y-106800028D01*
X152182075Y-106691103D01*
X152217927Y-106572913D01*
X152230033Y-106450000D01*
X152230033Y-105550000D01*
X152217927Y-105427087D01*
X152182075Y-105308897D01*
X152123853Y-105199972D01*
X152077000Y-105142881D01*
X152077000Y-104507079D01*
X152081243Y-104464000D01*
X152064310Y-104292077D01*
X152014162Y-104126763D01*
X151993356Y-104087838D01*
X151932727Y-103974408D01*
X151823133Y-103840867D01*
X151789668Y-103813403D01*
X151018597Y-103042332D01*
X150991133Y-103008867D01*
X150857592Y-102899273D01*
X150705237Y-102817838D01*
X150539922Y-102767690D01*
X150411079Y-102755000D01*
X150368000Y-102750757D01*
X150324921Y-102755000D01*
X147348027Y-102755000D01*
X147298467Y-102721885D01*
X147111565Y-102644467D01*
X146913151Y-102605000D01*
X146710849Y-102605000D01*
X146512435Y-102644467D01*
X146325533Y-102721885D01*
X146157326Y-102834277D01*
X146014277Y-102977326D01*
X145901885Y-103145533D01*
X145824467Y-103332435D01*
X145785000Y-103530849D01*
X145785000Y-103733151D01*
X145824467Y-103931565D01*
X145901885Y-104118467D01*
X146014277Y-104286674D01*
X146157326Y-104429723D01*
X146325533Y-104542115D01*
X146512435Y-104619533D01*
X146710849Y-104659000D01*
X146913151Y-104659000D01*
X147111565Y-104619533D01*
X147298467Y-104542115D01*
X147348027Y-104509000D01*
X150004735Y-104509000D01*
X150323001Y-104827266D01*
X150323001Y-105142880D01*
X150276147Y-105199972D01*
X150250000Y-105248889D01*
X150223853Y-105199972D01*
X150145501Y-105104499D01*
X150050028Y-105026147D01*
X149941103Y-104967925D01*
X149822913Y-104932073D01*
X149700000Y-104919967D01*
X148900000Y-104919967D01*
X148777087Y-104932073D01*
X148658897Y-104967925D01*
X148549972Y-105026147D01*
X148454499Y-105104499D01*
X148439316Y-105123000D01*
X147027079Y-105123000D01*
X146984000Y-105118757D01*
X146812077Y-105135690D01*
X146781387Y-105145000D01*
X146710849Y-105145000D01*
X146512435Y-105184467D01*
X146364153Y-105245888D01*
X145403000Y-104284735D01*
X145403000Y-102342702D01*
X169436903Y-102342702D01*
X169508486Y-102586671D01*
X169763996Y-102707571D01*
X170038184Y-102776300D01*
X170320512Y-102790217D01*
X170600130Y-102748787D01*
X170866292Y-102653603D01*
X170991514Y-102586671D01*
X171063097Y-102342702D01*
X170250000Y-101529605D01*
X169436903Y-102342702D01*
X145403000Y-102342702D01*
X145403000Y-101420512D01*
X168809783Y-101420512D01*
X168851213Y-101700130D01*
X168946397Y-101966292D01*
X169013329Y-102091514D01*
X169257298Y-102163097D01*
X170070395Y-101350000D01*
X170429605Y-101350000D01*
X171242702Y-102163097D01*
X171486671Y-102091514D01*
X171607571Y-101836004D01*
X171676300Y-101561816D01*
X171690217Y-101279488D01*
X171648787Y-100999870D01*
X171553603Y-100733708D01*
X171486671Y-100608486D01*
X171242702Y-100536903D01*
X170429605Y-101350000D01*
X170070395Y-101350000D01*
X169257298Y-100536903D01*
X169013329Y-100608486D01*
X168892429Y-100863996D01*
X168823700Y-101138184D01*
X168809783Y-101420512D01*
X145403000Y-101420512D01*
X145403000Y-100357298D01*
X169436903Y-100357298D01*
X170250000Y-101170395D01*
X171063097Y-100357298D01*
X170991514Y-100113329D01*
X170736004Y-99992429D01*
X170461816Y-99923700D01*
X170179488Y-99909783D01*
X169899870Y-99951213D01*
X169633708Y-100046397D01*
X169508486Y-100113329D01*
X169436903Y-100357298D01*
X145403000Y-100357298D01*
X145403000Y-95359265D01*
X146662265Y-94100000D01*
X148719967Y-94100000D01*
X148719967Y-95900000D01*
X148732073Y-96022913D01*
X148767925Y-96141103D01*
X148826147Y-96250028D01*
X148904499Y-96345501D01*
X148999972Y-96423853D01*
X149108897Y-96482075D01*
X149139221Y-96491274D01*
X149063901Y-96566594D01*
X148896790Y-96816694D01*
X148781681Y-97094590D01*
X148723000Y-97389604D01*
X148723000Y-97690396D01*
X148781681Y-97985410D01*
X148896790Y-98263306D01*
X149063901Y-98513406D01*
X149276594Y-98726099D01*
X149526694Y-98893210D01*
X149804590Y-99008319D01*
X150099604Y-99067000D01*
X150400396Y-99067000D01*
X150695410Y-99008319D01*
X150973306Y-98893210D01*
X151223406Y-98726099D01*
X151436099Y-98513406D01*
X151603210Y-98263306D01*
X151718319Y-97985410D01*
X151777000Y-97690396D01*
X151777000Y-97495000D01*
X159136928Y-97495000D01*
X159149188Y-97619482D01*
X159185498Y-97739180D01*
X159244463Y-97849494D01*
X159323815Y-97946185D01*
X159420506Y-98025537D01*
X159530820Y-98084502D01*
X159650518Y-98120812D01*
X159775000Y-98133072D01*
X159964250Y-98130000D01*
X160123000Y-97971250D01*
X160123000Y-97222000D01*
X160377000Y-97222000D01*
X160377000Y-97971250D01*
X160535750Y-98130000D01*
X160725000Y-98133072D01*
X160849482Y-98120812D01*
X160969180Y-98084502D01*
X161079494Y-98025537D01*
X161176185Y-97946185D01*
X161255537Y-97849494D01*
X161314502Y-97739180D01*
X161350812Y-97619482D01*
X161363072Y-97495000D01*
X161360000Y-97380750D01*
X161201250Y-97222000D01*
X160377000Y-97222000D01*
X160123000Y-97222000D01*
X159298750Y-97222000D01*
X159140000Y-97380750D01*
X159136928Y-97495000D01*
X151777000Y-97495000D01*
X151777000Y-97389604D01*
X151718319Y-97094590D01*
X151603210Y-96816694D01*
X151436099Y-96566594D01*
X151360779Y-96491274D01*
X151391103Y-96482075D01*
X151500028Y-96423853D01*
X151595501Y-96345501D01*
X151673853Y-96250028D01*
X151732075Y-96141103D01*
X151767927Y-96022913D01*
X151780033Y-95900000D01*
X151780033Y-95877000D01*
X159182171Y-95877000D01*
X159208149Y-95962640D01*
X159284853Y-96106142D01*
X159368047Y-96207515D01*
X159323815Y-96243815D01*
X159244463Y-96340506D01*
X159185498Y-96450820D01*
X159149188Y-96570518D01*
X159136928Y-96695000D01*
X159140000Y-96809250D01*
X159298750Y-96968000D01*
X160123000Y-96968000D01*
X160123000Y-96948000D01*
X160377000Y-96948000D01*
X160377000Y-96968000D01*
X161201250Y-96968000D01*
X161360000Y-96809250D01*
X161363072Y-96695000D01*
X161350812Y-96570518D01*
X161314502Y-96450820D01*
X161255537Y-96340506D01*
X161176185Y-96243815D01*
X161131953Y-96207515D01*
X161215147Y-96106142D01*
X161291851Y-95962640D01*
X161339084Y-95806931D01*
X161355033Y-95645000D01*
X161355033Y-95580232D01*
X164868265Y-92067000D01*
X169119753Y-92067000D01*
X169141576Y-92099660D01*
X169340340Y-92298424D01*
X169574062Y-92454591D01*
X169833759Y-92562162D01*
X170109453Y-92617000D01*
X170390547Y-92617000D01*
X170666241Y-92562162D01*
X170925938Y-92454591D01*
X171159660Y-92298424D01*
X171358424Y-92099660D01*
X171514591Y-91865938D01*
X171622162Y-91606241D01*
X171677000Y-91330547D01*
X171677000Y-91049453D01*
X171622162Y-90773759D01*
X171514591Y-90514062D01*
X171358424Y-90280340D01*
X171159660Y-90081576D01*
X170925938Y-89925409D01*
X170666241Y-89817838D01*
X170390547Y-89763000D01*
X170109453Y-89763000D01*
X169833759Y-89817838D01*
X169574062Y-89925409D01*
X169340340Y-90081576D01*
X169141576Y-90280340D01*
X169119753Y-90313000D01*
X164548079Y-90313000D01*
X164505000Y-90308757D01*
X164333077Y-90325690D01*
X164254897Y-90349406D01*
X164167763Y-90375838D01*
X164015408Y-90457273D01*
X163881867Y-90566867D01*
X163854403Y-90600332D01*
X160224778Y-94229957D01*
X160142237Y-94185838D01*
X159976922Y-94135690D01*
X159848079Y-94123000D01*
X159805000Y-94118757D01*
X159761921Y-94123000D01*
X151780033Y-94123000D01*
X151780033Y-94100000D01*
X151767927Y-93977087D01*
X151732075Y-93858897D01*
X151673853Y-93749972D01*
X151595501Y-93654499D01*
X151500028Y-93576147D01*
X151391103Y-93517925D01*
X151272913Y-93482073D01*
X151150000Y-93469967D01*
X149350000Y-93469967D01*
X149227087Y-93482073D01*
X149108897Y-93517925D01*
X148999972Y-93576147D01*
X148904499Y-93654499D01*
X148826147Y-93749972D01*
X148767925Y-93858897D01*
X148732073Y-93977087D01*
X148719967Y-94100000D01*
X146662265Y-94100000D01*
X148699265Y-92063000D01*
X151086921Y-92063000D01*
X151130000Y-92067243D01*
X151173079Y-92063000D01*
X151301922Y-92050310D01*
X151467237Y-92000162D01*
X151619592Y-91918727D01*
X151753133Y-91809133D01*
X151780597Y-91775668D01*
X153339675Y-90216591D01*
X153373133Y-90189133D01*
X153416993Y-90135690D01*
X153454019Y-90090573D01*
X153482727Y-90055592D01*
X153564162Y-89903237D01*
X153614310Y-89737922D01*
X153627000Y-89609079D01*
X153627000Y-89609078D01*
X153631243Y-89566000D01*
X153627000Y-89522921D01*
X153627000Y-88750515D01*
X153723406Y-88686099D01*
X153936099Y-88473406D01*
X154103210Y-88223306D01*
X154218319Y-87945410D01*
X154277000Y-87650396D01*
X154277000Y-87349604D01*
X154218319Y-87054590D01*
X154103210Y-86776694D01*
X153936099Y-86526594D01*
X153723406Y-86313901D01*
X153473306Y-86146790D01*
X153195410Y-86031681D01*
X152900396Y-85973000D01*
X152599604Y-85973000D01*
X152304590Y-86031681D01*
X152026694Y-86146790D01*
X151776594Y-86313901D01*
X151563901Y-86526594D01*
X151500000Y-86622229D01*
X151436099Y-86526594D01*
X151223406Y-86313901D01*
X151177223Y-86283042D01*
X152001265Y-85459000D01*
X157944921Y-85459000D01*
X157988000Y-85463243D01*
X158031079Y-85459000D01*
X158159922Y-85446310D01*
X158325237Y-85396162D01*
X158477592Y-85314727D01*
X158611133Y-85205133D01*
X158638597Y-85171668D01*
X158760265Y-85050000D01*
X168811928Y-85050000D01*
X168824188Y-85174482D01*
X168860498Y-85294180D01*
X168919463Y-85404494D01*
X168998815Y-85501185D01*
X169095506Y-85580537D01*
X169205820Y-85639502D01*
X169325518Y-85675812D01*
X169450000Y-85688072D01*
X169964250Y-85685000D01*
X170123000Y-85526250D01*
X170123000Y-83427000D01*
X170377000Y-83427000D01*
X170377000Y-85526250D01*
X170535750Y-85685000D01*
X171050000Y-85688072D01*
X171174482Y-85675812D01*
X171294180Y-85639502D01*
X171404494Y-85580537D01*
X171501185Y-85501185D01*
X171580537Y-85404494D01*
X171639502Y-85294180D01*
X171675812Y-85174482D01*
X171688072Y-85050000D01*
X171685000Y-83585750D01*
X171526250Y-83427000D01*
X170377000Y-83427000D01*
X170123000Y-83427000D01*
X168973750Y-83427000D01*
X168815000Y-83585750D01*
X168811928Y-85050000D01*
X158760265Y-85050000D01*
X162260265Y-81550000D01*
X168811928Y-81550000D01*
X168815000Y-83014250D01*
X168973750Y-83173000D01*
X170123000Y-83173000D01*
X170123000Y-81073750D01*
X170377000Y-81073750D01*
X170377000Y-83173000D01*
X171526250Y-83173000D01*
X171685000Y-83014250D01*
X171688072Y-81550000D01*
X171675812Y-81425518D01*
X171639502Y-81305820D01*
X171580537Y-81195506D01*
X171501185Y-81098815D01*
X171404494Y-81019463D01*
X171294180Y-80960498D01*
X171174482Y-80924188D01*
X171050000Y-80911928D01*
X170535750Y-80915000D01*
X170377000Y-81073750D01*
X170123000Y-81073750D01*
X169964250Y-80915000D01*
X169450000Y-80911928D01*
X169325518Y-80924188D01*
X169205820Y-80960498D01*
X169095506Y-81019463D01*
X168998815Y-81098815D01*
X168919463Y-81195506D01*
X168860498Y-81305820D01*
X168824188Y-81425518D01*
X168811928Y-81550000D01*
X162260265Y-81550000D01*
X165233266Y-78577000D01*
X168819967Y-78577000D01*
X168819967Y-79200000D01*
X168836877Y-79371686D01*
X168886956Y-79536774D01*
X168968279Y-79688920D01*
X169077723Y-79822277D01*
X169211080Y-79931721D01*
X169363226Y-80013044D01*
X169528314Y-80063123D01*
X169700000Y-80080033D01*
X170800000Y-80080033D01*
X170971686Y-80063123D01*
X171136774Y-80013044D01*
X171288920Y-79931721D01*
X171422277Y-79822277D01*
X171531721Y-79688920D01*
X171613044Y-79536774D01*
X171663123Y-79371686D01*
X171680033Y-79200000D01*
X171680033Y-76200000D01*
X171663123Y-76028314D01*
X171613044Y-75863226D01*
X171531721Y-75711080D01*
X171422277Y-75577723D01*
X171288920Y-75468279D01*
X171136774Y-75386956D01*
X170971686Y-75336877D01*
X170800000Y-75319967D01*
X169700000Y-75319967D01*
X169528314Y-75336877D01*
X169363226Y-75386956D01*
X169211080Y-75468279D01*
X169077723Y-75577723D01*
X168968279Y-75711080D01*
X168886956Y-75863226D01*
X168836877Y-76028314D01*
X168819967Y-76200000D01*
X168819967Y-76823000D01*
X164913079Y-76823000D01*
X164870000Y-76818757D01*
X164698077Y-76835690D01*
X164532763Y-76885838D01*
X164380408Y-76967273D01*
X164246867Y-77076867D01*
X164219408Y-77110326D01*
X157624735Y-83705000D01*
X151681069Y-83705000D01*
X151637999Y-83700758D01*
X151594930Y-83705000D01*
X151594921Y-83705000D01*
X151466078Y-83717690D01*
X151300763Y-83767838D01*
X151148408Y-83849273D01*
X151014867Y-83958867D01*
X150987406Y-83992329D01*
X149660327Y-85319408D01*
X149626868Y-85346867D01*
X149599409Y-85380326D01*
X149599406Y-85380329D01*
X149517274Y-85480408D01*
X149435838Y-85632764D01*
X149385690Y-85798078D01*
X149368757Y-85970000D01*
X149373001Y-86013089D01*
X149373001Y-86249484D01*
X149276594Y-86313901D01*
X149063901Y-86526594D01*
X148970147Y-86666906D01*
X148814080Y-86615525D01*
X147929605Y-87500000D01*
X148814080Y-88384475D01*
X148970147Y-88333094D01*
X149063901Y-88473406D01*
X149276594Y-88686099D01*
X149526694Y-88853210D01*
X149804590Y-88968319D01*
X150099604Y-89027000D01*
X150400396Y-89027000D01*
X150695410Y-88968319D01*
X150973306Y-88853210D01*
X151223406Y-88686099D01*
X151436099Y-88473406D01*
X151500000Y-88377771D01*
X151563901Y-88473406D01*
X151776594Y-88686099D01*
X151873000Y-88750516D01*
X151873000Y-89202734D01*
X150766735Y-90309000D01*
X148379079Y-90309000D01*
X148336000Y-90304757D01*
X148164077Y-90321690D01*
X148072711Y-90349406D01*
X147998763Y-90371838D01*
X147846408Y-90453273D01*
X147712867Y-90562867D01*
X147685406Y-90596329D01*
X143936327Y-94345408D01*
X143902868Y-94372867D01*
X143875409Y-94406326D01*
X143875406Y-94406329D01*
X143793274Y-94506408D01*
X143711838Y-94658764D01*
X143661690Y-94824078D01*
X143644757Y-94996000D01*
X143649001Y-95039090D01*
X143649000Y-104604920D01*
X143644757Y-104648000D01*
X143661690Y-104819922D01*
X143689600Y-104911928D01*
X143711838Y-104985236D01*
X143793273Y-105137591D01*
X143902867Y-105271133D01*
X143936332Y-105298597D01*
X145399403Y-106761668D01*
X145426867Y-106795133D01*
X145560408Y-106904727D01*
X145712763Y-106986162D01*
X145878078Y-107036310D01*
X146006921Y-107049000D01*
X146006930Y-107049000D01*
X146049999Y-107053242D01*
X146093069Y-107049000D01*
X146275973Y-107049000D01*
X146325533Y-107082115D01*
X146512435Y-107159533D01*
X146710849Y-107199000D01*
X146913151Y-107199000D01*
X147111565Y-107159533D01*
X147298467Y-107082115D01*
X147466674Y-106969723D01*
X147559397Y-106877000D01*
X148439316Y-106877000D01*
X148454499Y-106895501D01*
X148549972Y-106973853D01*
X148658897Y-107032075D01*
X148777087Y-107067927D01*
X148900000Y-107080033D01*
X149434311Y-107080033D01*
X149404499Y-107104499D01*
X149326147Y-107199972D01*
X149267925Y-107308897D01*
X149232073Y-107427087D01*
X149219967Y-107550000D01*
X149219967Y-107789768D01*
X147904735Y-109105000D01*
X144381266Y-109105000D01*
X142863000Y-107586735D01*
X142863000Y-94785076D01*
X142867243Y-94741999D01*
X142863000Y-94698921D01*
X142850310Y-94570078D01*
X142800162Y-94404763D01*
X142718727Y-94252408D01*
X142609133Y-94118867D01*
X142575669Y-94091404D01*
X138894597Y-90410332D01*
X138867133Y-90376867D01*
X138733592Y-90267273D01*
X138581237Y-90185838D01*
X138415922Y-90135690D01*
X138287079Y-90123000D01*
X138244000Y-90118757D01*
X138200921Y-90123000D01*
X134417000Y-90123000D01*
X134417000Y-88564080D01*
X146865525Y-88564080D01*
X146949208Y-88818261D01*
X147221775Y-88949158D01*
X147514642Y-89024365D01*
X147816553Y-89040991D01*
X148115907Y-88998397D01*
X148401199Y-88898222D01*
X148550792Y-88818261D01*
X148634475Y-88564080D01*
X147750000Y-87679605D01*
X146865525Y-88564080D01*
X134417000Y-88564080D01*
X134417000Y-87566553D01*
X146209009Y-87566553D01*
X146251603Y-87865907D01*
X146351778Y-88151199D01*
X146431739Y-88300792D01*
X146685920Y-88384475D01*
X147570395Y-87500000D01*
X146685920Y-86615525D01*
X146431739Y-86699208D01*
X146300842Y-86971775D01*
X146225635Y-87264642D01*
X146209009Y-87566553D01*
X134417000Y-87566553D01*
X134417000Y-86435920D01*
X146865525Y-86435920D01*
X147750000Y-87320395D01*
X148634475Y-86435920D01*
X148550792Y-86181739D01*
X148278225Y-86050842D01*
X147985358Y-85975635D01*
X147683447Y-85959009D01*
X147384093Y-86001603D01*
X147098801Y-86101778D01*
X146949208Y-86181739D01*
X146865525Y-86435920D01*
X134417000Y-86435920D01*
X134417000Y-84613076D01*
X134421243Y-84569999D01*
X134410216Y-84458044D01*
X134404310Y-84398078D01*
X134354162Y-84232763D01*
X134272727Y-84080408D01*
X134163133Y-83946867D01*
X134137000Y-83925420D01*
X134137000Y-83687332D01*
X134085236Y-83427094D01*
X133983696Y-83181956D01*
X133836284Y-82961337D01*
X133648663Y-82773716D01*
X133428044Y-82626304D01*
X133182906Y-82524764D01*
X132922668Y-82473000D01*
X132657332Y-82473000D01*
X132397094Y-82524764D01*
X132151956Y-82626304D01*
X131931337Y-82773716D01*
X131743716Y-82961337D01*
X131596304Y-83181956D01*
X131494764Y-83427094D01*
X131443000Y-83687332D01*
X131443000Y-83952668D01*
X131494764Y-84212906D01*
X131596304Y-84458044D01*
X131743716Y-84678663D01*
X131931337Y-84866284D01*
X132151956Y-85013696D01*
X132397094Y-85115236D01*
X132657332Y-85167000D01*
X132663001Y-85167000D01*
X132663001Y-87533755D01*
X132622727Y-87458408D01*
X132513133Y-87324867D01*
X132479668Y-87297403D01*
X131127000Y-85944735D01*
X131127000Y-80241263D01*
X143223000Y-80241263D01*
X143223000Y-80758737D01*
X143323954Y-81266268D01*
X143521983Y-81744351D01*
X143809476Y-82174615D01*
X144175385Y-82540524D01*
X144605649Y-82828017D01*
X145083732Y-83026046D01*
X145591263Y-83127000D01*
X146108737Y-83127000D01*
X146616268Y-83026046D01*
X147094351Y-82828017D01*
X147524615Y-82540524D01*
X147890524Y-82174615D01*
X148178017Y-81744351D01*
X148376046Y-81266268D01*
X148477000Y-80758737D01*
X148477000Y-80241263D01*
X152023000Y-80241263D01*
X152023000Y-80758737D01*
X152123954Y-81266268D01*
X152321983Y-81744351D01*
X152609476Y-82174615D01*
X152975385Y-82540524D01*
X153405649Y-82828017D01*
X153883732Y-83026046D01*
X154391263Y-83127000D01*
X154908737Y-83127000D01*
X155416268Y-83026046D01*
X155894351Y-82828017D01*
X156324615Y-82540524D01*
X156690524Y-82174615D01*
X156978017Y-81744351D01*
X157176046Y-81266268D01*
X157277000Y-80758737D01*
X157277000Y-80241263D01*
X157176046Y-79733732D01*
X156978017Y-79255649D01*
X156690524Y-78825385D01*
X156324615Y-78459476D01*
X155894351Y-78171983D01*
X155416268Y-77973954D01*
X154908737Y-77873000D01*
X154391263Y-77873000D01*
X153883732Y-77973954D01*
X153405649Y-78171983D01*
X152975385Y-78459476D01*
X152609476Y-78825385D01*
X152321983Y-79255649D01*
X152123954Y-79733732D01*
X152023000Y-80241263D01*
X148477000Y-80241263D01*
X148376046Y-79733732D01*
X148178017Y-79255649D01*
X147890524Y-78825385D01*
X147524615Y-78459476D01*
X147094351Y-78171983D01*
X146616268Y-77973954D01*
X146108737Y-77873000D01*
X145591263Y-77873000D01*
X145083732Y-77973954D01*
X144605649Y-78171983D01*
X144175385Y-78459476D01*
X143809476Y-78825385D01*
X143521983Y-79255649D01*
X143323954Y-79733732D01*
X143223000Y-80241263D01*
X131127000Y-80241263D01*
X131127000Y-79767947D01*
X131296284Y-79598663D01*
X131443696Y-79378044D01*
X131545236Y-79132906D01*
X131597000Y-78872668D01*
X131597000Y-78607332D01*
X133983000Y-78607332D01*
X133983000Y-78872668D01*
X134034764Y-79132906D01*
X134136304Y-79378044D01*
X134283716Y-79598663D01*
X134471337Y-79786284D01*
X134691956Y-79933696D01*
X134937094Y-80035236D01*
X135197332Y-80087000D01*
X135462668Y-80087000D01*
X135722906Y-80035236D01*
X135968044Y-79933696D01*
X136188663Y-79786284D01*
X136376284Y-79598663D01*
X136523696Y-79378044D01*
X136625236Y-79132906D01*
X136677000Y-78872668D01*
X136677000Y-78607332D01*
X136625236Y-78347094D01*
X136523696Y-78101956D01*
X136376284Y-77881337D01*
X136188663Y-77693716D01*
X135968044Y-77546304D01*
X135722906Y-77444764D01*
X135462668Y-77393000D01*
X135197332Y-77393000D01*
X134937094Y-77444764D01*
X134691956Y-77546304D01*
X134471337Y-77693716D01*
X134283716Y-77881337D01*
X134136304Y-78101956D01*
X134034764Y-78347094D01*
X133983000Y-78607332D01*
X131597000Y-78607332D01*
X131545236Y-78347094D01*
X131443696Y-78101956D01*
X131296284Y-77881337D01*
X131108663Y-77693716D01*
X130888044Y-77546304D01*
X130642906Y-77444764D01*
X130382668Y-77393000D01*
X130117332Y-77393000D01*
X129857094Y-77444764D01*
X129611956Y-77546304D01*
X129391337Y-77693716D01*
X129203716Y-77881337D01*
X129056304Y-78101956D01*
X128954764Y-78347094D01*
X128903000Y-78607332D01*
X128903000Y-78872668D01*
X128954764Y-79132906D01*
X129056304Y-79378044D01*
X129203716Y-79598663D01*
X129373001Y-79767948D01*
X129373000Y-86264920D01*
X129368757Y-86308000D01*
X129373000Y-86351078D01*
X129385690Y-86479921D01*
X129435838Y-86645236D01*
X129517273Y-86797591D01*
X129626867Y-86931133D01*
X129660332Y-86958597D01*
X131013001Y-88311266D01*
X131013000Y-90247838D01*
X130999853Y-90263858D01*
X130923149Y-90407360D01*
X130875916Y-90563069D01*
X130859967Y-90725000D01*
X130859967Y-90789768D01*
X127935327Y-93714408D01*
X127901868Y-93741867D01*
X127874409Y-93775326D01*
X127874406Y-93775329D01*
X127792274Y-93875408D01*
X127710838Y-94027764D01*
X127660690Y-94193078D01*
X127643757Y-94365000D01*
X127648001Y-94408089D01*
X127648001Y-95294618D01*
X127527207Y-95230053D01*
X127366809Y-95181396D01*
X127200000Y-95164967D01*
X126750000Y-95164967D01*
X126663730Y-95173464D01*
X119254380Y-87764115D01*
X119277000Y-87650396D01*
X119277000Y-87349604D01*
X119218319Y-87054590D01*
X119103210Y-86776694D01*
X118936099Y-86526594D01*
X118723406Y-86313901D01*
X118473306Y-86146790D01*
X118195410Y-86031681D01*
X117900396Y-85973000D01*
X117599604Y-85973000D01*
X117304590Y-86031681D01*
X117026694Y-86146790D01*
X116776594Y-86313901D01*
X116563901Y-86526594D01*
X116500000Y-86622229D01*
X116436099Y-86526594D01*
X116223406Y-86313901D01*
X115973306Y-86146790D01*
X115695410Y-86031681D01*
X115400396Y-85973000D01*
X115099604Y-85973000D01*
X114804590Y-86031681D01*
X114526694Y-86146790D01*
X114276594Y-86313901D01*
X114063901Y-86526594D01*
X113970147Y-86666906D01*
X113814080Y-86615525D01*
X112929605Y-87500000D01*
X113814080Y-88384475D01*
X113970147Y-88333094D01*
X114063901Y-88473406D01*
X114276594Y-88686099D01*
X114526694Y-88853210D01*
X114804590Y-88968319D01*
X115099604Y-89027000D01*
X115400396Y-89027000D01*
X115695410Y-88968319D01*
X115973306Y-88853210D01*
X116223406Y-88686099D01*
X116436099Y-88473406D01*
X116500000Y-88377771D01*
X116563901Y-88473406D01*
X116776594Y-88686099D01*
X117026694Y-88853210D01*
X117304590Y-88968319D01*
X117599604Y-89027000D01*
X117900396Y-89027000D01*
X118014115Y-89004380D01*
X125869408Y-96859674D01*
X125896867Y-96893133D01*
X126030408Y-97002727D01*
X126057083Y-97016985D01*
X126145400Y-97124600D01*
X126274969Y-97230934D01*
X126422793Y-97309947D01*
X126583191Y-97358604D01*
X126750000Y-97375033D01*
X127200000Y-97375033D01*
X127366809Y-97358604D01*
X127527207Y-97309947D01*
X127675031Y-97230934D01*
X127750000Y-97169409D01*
X127824969Y-97230934D01*
X127972793Y-97309947D01*
X128133191Y-97358604D01*
X128300000Y-97375033D01*
X128750000Y-97375033D01*
X128916809Y-97358604D01*
X129077207Y-97309947D01*
X129225031Y-97230934D01*
X129354600Y-97124600D01*
X129460934Y-96995031D01*
X129539947Y-96847207D01*
X129588604Y-96686809D01*
X129605033Y-96520000D01*
X129605033Y-96020000D01*
X129588604Y-95853191D01*
X129539947Y-95692793D01*
X129460934Y-95544969D01*
X129402000Y-95473157D01*
X129402000Y-94728265D01*
X131890000Y-92240265D01*
X135894967Y-96245232D01*
X135894967Y-96545000D01*
X135910916Y-96706931D01*
X135958149Y-96862640D01*
X136034853Y-97006142D01*
X136138078Y-97131922D01*
X136263858Y-97235147D01*
X136407360Y-97311851D01*
X136563069Y-97359084D01*
X136725000Y-97375033D01*
X137125000Y-97375033D01*
X137286931Y-97359084D01*
X137442640Y-97311851D01*
X137586142Y-97235147D01*
X137698000Y-97143347D01*
X137698001Y-100075734D01*
X136335332Y-101438403D01*
X136301867Y-101465867D01*
X136192273Y-101599409D01*
X136138437Y-101700130D01*
X136110838Y-101751764D01*
X136060690Y-101917078D01*
X136043757Y-102089000D01*
X136048000Y-102132080D01*
X136048001Y-106247837D01*
X136034853Y-106263858D01*
X135958149Y-106407360D01*
X135910916Y-106563069D01*
X135894967Y-106725000D01*
X135894967Y-107275000D01*
X135910916Y-107436931D01*
X135958149Y-107592640D01*
X136034853Y-107736142D01*
X136048001Y-107752163D01*
X136048000Y-110211920D01*
X136043757Y-110255000D01*
X136048000Y-110298078D01*
X136060690Y-110426921D01*
X136110838Y-110592236D01*
X136192273Y-110744591D01*
X136301867Y-110878133D01*
X136335332Y-110905597D01*
X138033403Y-112603668D01*
X138060867Y-112637133D01*
X138194408Y-112746727D01*
X138346763Y-112828162D01*
X138512077Y-112878310D01*
X138684000Y-112895243D01*
X138727079Y-112891000D01*
X151274735Y-112891000D01*
X152031001Y-113647266D01*
X152031000Y-120367973D01*
X151997885Y-120417533D01*
X151920467Y-120604435D01*
X151881000Y-120802849D01*
X151881000Y-121005151D01*
X151920467Y-121203565D01*
X151997885Y-121390467D01*
X152110277Y-121558674D01*
X152158001Y-121606398D01*
X152158001Y-121793000D01*
X151372000Y-121793000D01*
X151372000Y-121120780D01*
X151395000Y-121005151D01*
X151395000Y-120802849D01*
X151355533Y-120604435D01*
X151278115Y-120417533D01*
X151245000Y-120367973D01*
X151245000Y-116106027D01*
X151278115Y-116056467D01*
X151355533Y-115869565D01*
X151395000Y-115671151D01*
X151395000Y-115468849D01*
X151355533Y-115270435D01*
X151278115Y-115083533D01*
X151165723Y-114915326D01*
X151022674Y-114772277D01*
X150854467Y-114659885D01*
X150667565Y-114582467D01*
X150469151Y-114543000D01*
X150266849Y-114543000D01*
X150068435Y-114582467D01*
X149881533Y-114659885D01*
X149713326Y-114772277D01*
X149570277Y-114915326D01*
X149457885Y-115083533D01*
X149380467Y-115270435D01*
X149341000Y-115468849D01*
X149341000Y-115671151D01*
X149380467Y-115869565D01*
X149457885Y-116056467D01*
X149491000Y-116106027D01*
X149491001Y-120367971D01*
X149457885Y-120417533D01*
X149380467Y-120604435D01*
X149341000Y-120802849D01*
X149341000Y-121005151D01*
X149380467Y-121203565D01*
X149457885Y-121390467D01*
X149570277Y-121558674D01*
X149618001Y-121606398D01*
X149618001Y-121793000D01*
X115834068Y-121793000D01*
X115970674Y-121701723D01*
X116113723Y-121558674D01*
X116226115Y-121390467D01*
X116303533Y-121203565D01*
X116343000Y-121005151D01*
X116343000Y-120802849D01*
X116303533Y-120604435D01*
X116226115Y-120417533D01*
X116193000Y-120367973D01*
X116193000Y-116388887D01*
X116224674Y-116367723D01*
X116367723Y-116224674D01*
X116480115Y-116056467D01*
X116557533Y-115869565D01*
X116597000Y-115671151D01*
X116597000Y-115468849D01*
X116557533Y-115270435D01*
X116480115Y-115083533D01*
X116367723Y-114915326D01*
X116224674Y-114772277D01*
X116056467Y-114659885D01*
X115869565Y-114582467D01*
X115671151Y-114543000D01*
X115468849Y-114543000D01*
X115270435Y-114582467D01*
X115083533Y-114659885D01*
X114915326Y-114772277D01*
X114772277Y-114915326D01*
X114659885Y-115083533D01*
X114582467Y-115270435D01*
X114561721Y-115374730D01*
X114501838Y-115486764D01*
X114451690Y-115652078D01*
X114434757Y-115824000D01*
X114439001Y-115867089D01*
X114439000Y-120367973D01*
X114405885Y-120417533D01*
X114328467Y-120604435D01*
X114318053Y-120656791D01*
X114311868Y-120661867D01*
X114284409Y-120695326D01*
X114284406Y-120695329D01*
X114202274Y-120795408D01*
X114120838Y-120947764D01*
X114070690Y-121113078D01*
X114053757Y-121285000D01*
X114058001Y-121328089D01*
X114058001Y-121793000D01*
X113294068Y-121793000D01*
X113430674Y-121701723D01*
X113573723Y-121558674D01*
X113686115Y-121390467D01*
X113763533Y-121203565D01*
X113803000Y-121005151D01*
X113803000Y-120802849D01*
X113763533Y-120604435D01*
X113686115Y-120417533D01*
X113573723Y-120249326D01*
X113430674Y-120106277D01*
X113262467Y-119993885D01*
X113075565Y-119916467D01*
X112877151Y-119877000D01*
X112674849Y-119877000D01*
X112476435Y-119916467D01*
X112289533Y-119993885D01*
X112121326Y-120106277D01*
X111978277Y-120249326D01*
X111865885Y-120417533D01*
X111788467Y-120604435D01*
X111778053Y-120656791D01*
X111771868Y-120661867D01*
X111744409Y-120695326D01*
X111744406Y-120695329D01*
X111662274Y-120795408D01*
X111580838Y-120947764D01*
X111530690Y-121113078D01*
X111513757Y-121285000D01*
X111518001Y-121328089D01*
X111518001Y-121793000D01*
X110754068Y-121793000D01*
X110890674Y-121701723D01*
X111033723Y-121558674D01*
X111146115Y-121390467D01*
X111223533Y-121203565D01*
X111263000Y-121005151D01*
X111263000Y-120802849D01*
X111223533Y-120604435D01*
X111146115Y-120417533D01*
X111113000Y-120367973D01*
X111113000Y-115090027D01*
X111146115Y-115040467D01*
X111223533Y-114853565D01*
X111263000Y-114655151D01*
X111263000Y-114452849D01*
X111223533Y-114254435D01*
X111146115Y-114067533D01*
X111033723Y-113899326D01*
X110890674Y-113756277D01*
X110722467Y-113643885D01*
X110535565Y-113566467D01*
X110337151Y-113527000D01*
X110134849Y-113527000D01*
X109936435Y-113566467D01*
X109749533Y-113643885D01*
X109581326Y-113756277D01*
X109438277Y-113899326D01*
X109325885Y-114067533D01*
X109248467Y-114254435D01*
X109209000Y-114452849D01*
X109209000Y-114655151D01*
X109248467Y-114853565D01*
X109325885Y-115040467D01*
X109359001Y-115090029D01*
X109359000Y-120367973D01*
X109325885Y-120417533D01*
X109248467Y-120604435D01*
X109238053Y-120656791D01*
X109231868Y-120661867D01*
X109204409Y-120695326D01*
X109204406Y-120695329D01*
X109122274Y-120795408D01*
X109040838Y-120947764D01*
X108990690Y-121113078D01*
X108973757Y-121285000D01*
X108978001Y-121328089D01*
X108978001Y-121793000D01*
X108214068Y-121793000D01*
X108350674Y-121701723D01*
X108493723Y-121558674D01*
X108606115Y-121390467D01*
X108683533Y-121203565D01*
X108723000Y-121005151D01*
X108723000Y-120802849D01*
X108683533Y-120604435D01*
X108606115Y-120417533D01*
X108573000Y-120367973D01*
X108573000Y-117645069D01*
X108577242Y-117601999D01*
X108573000Y-117558930D01*
X108573000Y-117558921D01*
X108560310Y-117430078D01*
X108510162Y-117264763D01*
X108428727Y-117112408D01*
X108319133Y-116978867D01*
X108285669Y-116951404D01*
X105806597Y-114472332D01*
X105779133Y-114438867D01*
X105645592Y-114329273D01*
X105493237Y-114247838D01*
X105327922Y-114197690D01*
X105199079Y-114185000D01*
X105156000Y-114180757D01*
X105112921Y-114185000D01*
X99677266Y-114185000D01*
X91942266Y-106450000D01*
X113261928Y-106450000D01*
X113274188Y-106574482D01*
X113310498Y-106694180D01*
X113369463Y-106804494D01*
X113448815Y-106901185D01*
X113545506Y-106980537D01*
X113655820Y-107039502D01*
X113775518Y-107075812D01*
X113900000Y-107088072D01*
X114014250Y-107085000D01*
X114173000Y-106926250D01*
X114173000Y-106127000D01*
X113423750Y-106127000D01*
X113265000Y-106285750D01*
X113261928Y-106450000D01*
X91942266Y-106450000D01*
X91047000Y-105554735D01*
X91047000Y-105550000D01*
X113261928Y-105550000D01*
X113265000Y-105714250D01*
X113423750Y-105873000D01*
X114173000Y-105873000D01*
X114173000Y-105073750D01*
X114014250Y-104915000D01*
X113900000Y-104911928D01*
X113775518Y-104924188D01*
X113655820Y-104960498D01*
X113545506Y-105019463D01*
X113448815Y-105098815D01*
X113369463Y-105195506D01*
X113310498Y-105305820D01*
X113274188Y-105425518D01*
X113261928Y-105550000D01*
X91047000Y-105550000D01*
X91047000Y-101699040D01*
X93858091Y-101699040D01*
X93952930Y-101963881D01*
X94097615Y-102205131D01*
X94286586Y-102413519D01*
X94512580Y-102581037D01*
X94766913Y-102701246D01*
X94900961Y-102741904D01*
X95123000Y-102619915D01*
X95123000Y-101477000D01*
X95377000Y-101477000D01*
X95377000Y-102619915D01*
X95599039Y-102741904D01*
X95733087Y-102701246D01*
X95987420Y-102581037D01*
X96213414Y-102413519D01*
X96402385Y-102205131D01*
X96547070Y-101963881D01*
X96641909Y-101699040D01*
X96520624Y-101477000D01*
X95377000Y-101477000D01*
X95123000Y-101477000D01*
X93979376Y-101477000D01*
X93858091Y-101699040D01*
X91047000Y-101699040D01*
X91047000Y-101000960D01*
X93858091Y-101000960D01*
X93979376Y-101223000D01*
X95123000Y-101223000D01*
X95123000Y-100080085D01*
X95377000Y-100080085D01*
X95377000Y-101223000D01*
X96520624Y-101223000D01*
X96641909Y-101000960D01*
X96547070Y-100736119D01*
X96402385Y-100494869D01*
X96213414Y-100286481D01*
X95987420Y-100118963D01*
X95733087Y-99998754D01*
X95599039Y-99958096D01*
X95377000Y-100080085D01*
X95123000Y-100080085D01*
X94900961Y-99958096D01*
X94766913Y-99998754D01*
X94512580Y-100118963D01*
X94286586Y-100286481D01*
X94097615Y-100494869D01*
X93952930Y-100736119D01*
X93858091Y-101000960D01*
X91047000Y-101000960D01*
X91047000Y-97495000D01*
X104136928Y-97495000D01*
X104149188Y-97619482D01*
X104185498Y-97739180D01*
X104244463Y-97849494D01*
X104323815Y-97946185D01*
X104420506Y-98025537D01*
X104530820Y-98084502D01*
X104650518Y-98120812D01*
X104775000Y-98133072D01*
X104964250Y-98130000D01*
X105123000Y-97971250D01*
X105123000Y-97222000D01*
X105377000Y-97222000D01*
X105377000Y-97971250D01*
X105535750Y-98130000D01*
X105725000Y-98133072D01*
X105849482Y-98120812D01*
X105969180Y-98084502D01*
X106079494Y-98025537D01*
X106176185Y-97946185D01*
X106255537Y-97849494D01*
X106314502Y-97739180D01*
X106350812Y-97619482D01*
X106363072Y-97495000D01*
X106360000Y-97380750D01*
X106201250Y-97222000D01*
X105377000Y-97222000D01*
X105123000Y-97222000D01*
X104298750Y-97222000D01*
X104140000Y-97380750D01*
X104136928Y-97495000D01*
X91047000Y-97495000D01*
X91047000Y-91049453D01*
X93823000Y-91049453D01*
X93823000Y-91330547D01*
X93877838Y-91606241D01*
X93985409Y-91865938D01*
X94141576Y-92099660D01*
X94340340Y-92298424D01*
X94574062Y-92454591D01*
X94833759Y-92562162D01*
X95109453Y-92617000D01*
X95390547Y-92617000D01*
X95666241Y-92562162D01*
X95925938Y-92454591D01*
X96159660Y-92298424D01*
X96358424Y-92099660D01*
X96380247Y-92067000D01*
X100631735Y-92067000D01*
X104144967Y-95580232D01*
X104144967Y-95645000D01*
X104160916Y-95806931D01*
X104208149Y-95962640D01*
X104284853Y-96106142D01*
X104368047Y-96207515D01*
X104323815Y-96243815D01*
X104244463Y-96340506D01*
X104185498Y-96450820D01*
X104149188Y-96570518D01*
X104136928Y-96695000D01*
X104140000Y-96809250D01*
X104298750Y-96968000D01*
X105123000Y-96968000D01*
X105123000Y-96948000D01*
X105377000Y-96948000D01*
X105377000Y-96968000D01*
X106201250Y-96968000D01*
X106360000Y-96809250D01*
X106363072Y-96695000D01*
X106350812Y-96570518D01*
X106314502Y-96450820D01*
X106255537Y-96340506D01*
X106240350Y-96322000D01*
X113885212Y-96322000D01*
X113904499Y-96345501D01*
X113999972Y-96423853D01*
X114108897Y-96482075D01*
X114139221Y-96491274D01*
X114063901Y-96566594D01*
X113896790Y-96816694D01*
X113781681Y-97094590D01*
X113723000Y-97389604D01*
X113723000Y-97690396D01*
X113781681Y-97985410D01*
X113896790Y-98263306D01*
X114063901Y-98513406D01*
X114276594Y-98726099D01*
X114526694Y-98893210D01*
X114804590Y-99008319D01*
X115099604Y-99067000D01*
X115400396Y-99067000D01*
X115695410Y-99008319D01*
X115973306Y-98893210D01*
X116223406Y-98726099D01*
X116436099Y-98513406D01*
X116603210Y-98263306D01*
X116718319Y-97985410D01*
X116777000Y-97690396D01*
X116777000Y-97389604D01*
X116718319Y-97094590D01*
X116603210Y-96816694D01*
X116436099Y-96566594D01*
X116360779Y-96491274D01*
X116391103Y-96482075D01*
X116500028Y-96423853D01*
X116595501Y-96345501D01*
X116673853Y-96250028D01*
X116732075Y-96141103D01*
X116767927Y-96022913D01*
X116780033Y-95900000D01*
X116780033Y-94100000D01*
X116767927Y-93977087D01*
X116732075Y-93858897D01*
X116673853Y-93749972D01*
X116595501Y-93654499D01*
X116500028Y-93576147D01*
X116391103Y-93517925D01*
X116272913Y-93482073D01*
X116150000Y-93469967D01*
X114350000Y-93469967D01*
X114227087Y-93482073D01*
X114108897Y-93517925D01*
X113999972Y-93576147D01*
X113904499Y-93654499D01*
X113826147Y-93749972D01*
X113767925Y-93858897D01*
X113732073Y-93977087D01*
X113719967Y-94100000D01*
X113719967Y-94568000D01*
X106002162Y-94568000D01*
X105986142Y-94554853D01*
X105842640Y-94478149D01*
X105686931Y-94430916D01*
X105525000Y-94414967D01*
X105460232Y-94414967D01*
X101645597Y-90600332D01*
X101618133Y-90566867D01*
X101484592Y-90457273D01*
X101332237Y-90375838D01*
X101166922Y-90325690D01*
X101038079Y-90313000D01*
X100995000Y-90308757D01*
X100951921Y-90313000D01*
X96380247Y-90313000D01*
X96358424Y-90280340D01*
X96159660Y-90081576D01*
X95925938Y-89925409D01*
X95666241Y-89817838D01*
X95390547Y-89763000D01*
X95109453Y-89763000D01*
X94833759Y-89817838D01*
X94574062Y-89925409D01*
X94340340Y-90081576D01*
X94141576Y-90280340D01*
X93985409Y-90514062D01*
X93877838Y-90773759D01*
X93823000Y-91049453D01*
X91047000Y-91049453D01*
X91047000Y-88743265D01*
X94242012Y-85548254D01*
X94363226Y-85613044D01*
X94528314Y-85663123D01*
X94700000Y-85680033D01*
X95800000Y-85680033D01*
X95971686Y-85663123D01*
X96136774Y-85613044D01*
X96288920Y-85531721D01*
X96422277Y-85422277D01*
X96531721Y-85288920D01*
X96613044Y-85136774D01*
X96663123Y-84971686D01*
X96680033Y-84800000D01*
X96680033Y-81800000D01*
X96663123Y-81628314D01*
X96613044Y-81463226D01*
X96531721Y-81311080D01*
X96422277Y-81177723D01*
X96288920Y-81068279D01*
X96136774Y-80986956D01*
X95971686Y-80936877D01*
X95800000Y-80919967D01*
X94700000Y-80919967D01*
X94528314Y-80936877D01*
X94363226Y-80986956D01*
X94211080Y-81068279D01*
X94077723Y-81177723D01*
X93968279Y-81311080D01*
X93886956Y-81463226D01*
X93836877Y-81628314D01*
X93819967Y-81800000D01*
X93819967Y-83489767D01*
X89580332Y-87729403D01*
X89546867Y-87756867D01*
X89437273Y-87890409D01*
X89384259Y-87989592D01*
X89355838Y-88042764D01*
X89305690Y-88208078D01*
X89288757Y-88380000D01*
X89293000Y-88423080D01*
X89293001Y-105874910D01*
X89288757Y-105918000D01*
X89305690Y-106089922D01*
X89355838Y-106255236D01*
X89437274Y-106407592D01*
X89519406Y-106507671D01*
X89519409Y-106507674D01*
X89546868Y-106541133D01*
X89580327Y-106568592D01*
X98663408Y-115651674D01*
X98690867Y-115685133D01*
X98824408Y-115794727D01*
X98964421Y-115869565D01*
X98976763Y-115876162D01*
X99142077Y-115926310D01*
X99314000Y-115943243D01*
X99357079Y-115939000D01*
X104792735Y-115939000D01*
X106819000Y-117965265D01*
X106819001Y-120367972D01*
X106785885Y-120417533D01*
X106708467Y-120604435D01*
X106698053Y-120656791D01*
X106691868Y-120661867D01*
X106664409Y-120695326D01*
X106664406Y-120695329D01*
X106582274Y-120795408D01*
X106500838Y-120947764D01*
X106450690Y-121113078D01*
X106433757Y-121285000D01*
X106438001Y-121328089D01*
X106438001Y-121793000D01*
X100697000Y-121793000D01*
X100697000Y-119533252D01*
X100700275Y-119500000D01*
X100687204Y-119367285D01*
X100648492Y-119239670D01*
X100585628Y-119122059D01*
X100501027Y-119018973D01*
X100397941Y-118934372D01*
X100280330Y-118871508D01*
X100152715Y-118832796D01*
X100053252Y-118823000D01*
X100020000Y-118819725D01*
X99986748Y-118823000D01*
X89033252Y-118823000D01*
X89000000Y-118819725D01*
X88966748Y-118823000D01*
X88867285Y-118832796D01*
X88739670Y-118871508D01*
X88622059Y-118934372D01*
X88518973Y-119018973D01*
X88434372Y-119122059D01*
X88371508Y-119239670D01*
X88332796Y-119367285D01*
X88319725Y-119500000D01*
X88323000Y-119533252D01*
X88323001Y-125323000D01*
X83177000Y-125323000D01*
X83177000Y-98177000D01*
X83466748Y-98177000D01*
X83500000Y-98180275D01*
X83533252Y-98177000D01*
X83632715Y-98167204D01*
X83760330Y-98128492D01*
X83877941Y-98065628D01*
X83981027Y-97981027D01*
X84065628Y-97877941D01*
X84128492Y-97760330D01*
X84167204Y-97632715D01*
X84180275Y-97500000D01*
X84177000Y-97466748D01*
X84177000Y-95177000D01*
X85966748Y-95177000D01*
X86000000Y-95180275D01*
X86033252Y-95177000D01*
X86132715Y-95167204D01*
X86260330Y-95128492D01*
X86377941Y-95065628D01*
X86481027Y-94981027D01*
X86565628Y-94877941D01*
X86628492Y-94760330D01*
X86667204Y-94632715D01*
X86680275Y-94500000D01*
X86677000Y-94466748D01*
X86677000Y-93033251D01*
X86680275Y-93000000D01*
X86667204Y-92867285D01*
X86628492Y-92739670D01*
X86565628Y-92622059D01*
X86481027Y-92518973D01*
X86377941Y-92434372D01*
X86260330Y-92371508D01*
X86132715Y-92332796D01*
X86033252Y-92323000D01*
X86000000Y-92319725D01*
X85966748Y-92323000D01*
X83177000Y-92323000D01*
X83177000Y-76200000D01*
X93819967Y-76200000D01*
X93819967Y-79200000D01*
X93836877Y-79371686D01*
X93886956Y-79536774D01*
X93968279Y-79688920D01*
X94077723Y-79822277D01*
X94211080Y-79931721D01*
X94363226Y-80013044D01*
X94528314Y-80063123D01*
X94700000Y-80080033D01*
X95800000Y-80080033D01*
X95971686Y-80063123D01*
X96136774Y-80013044D01*
X96288920Y-79931721D01*
X96422277Y-79822277D01*
X96531721Y-79688920D01*
X96613044Y-79536774D01*
X96663123Y-79371686D01*
X96680033Y-79200000D01*
X96680033Y-78577000D01*
X97402735Y-78577000D01*
X110347408Y-91521674D01*
X110374867Y-91555133D01*
X110408326Y-91582592D01*
X110408328Y-91582594D01*
X110437142Y-91606241D01*
X110508408Y-91664727D01*
X110635628Y-91732727D01*
X110660763Y-91746162D01*
X110826077Y-91796310D01*
X110998000Y-91813243D01*
X111041079Y-91809000D01*
X115714735Y-91809000D01*
X119011001Y-95105266D01*
X119011000Y-99458735D01*
X115610327Y-102859408D01*
X115576868Y-102886867D01*
X115549409Y-102920326D01*
X115549406Y-102920329D01*
X115467274Y-103020408D01*
X115385838Y-103172764D01*
X115335690Y-103338078D01*
X115318757Y-103510000D01*
X115323001Y-103553089D01*
X115323000Y-105142881D01*
X115276147Y-105199972D01*
X115254536Y-105240404D01*
X115230537Y-105195506D01*
X115151185Y-105098815D01*
X115054494Y-105019463D01*
X114944180Y-104960498D01*
X114824482Y-104924188D01*
X114700000Y-104911928D01*
X114585750Y-104915000D01*
X114427000Y-105073750D01*
X114427000Y-105873000D01*
X114447000Y-105873000D01*
X114447000Y-106127000D01*
X114427000Y-106127000D01*
X114427000Y-106926250D01*
X114517518Y-107016768D01*
X114499972Y-107026147D01*
X114404499Y-107104499D01*
X114326147Y-107199972D01*
X114267925Y-107308897D01*
X114232073Y-107427087D01*
X114219967Y-107550000D01*
X114219967Y-108450000D01*
X114232073Y-108572913D01*
X114267925Y-108691103D01*
X114326147Y-108800028D01*
X114404499Y-108895501D01*
X114499972Y-108973853D01*
X114608897Y-109032075D01*
X114727087Y-109067927D01*
X114850000Y-109080033D01*
X115650000Y-109080033D01*
X115772913Y-109067927D01*
X115891103Y-109032075D01*
X116000028Y-108973853D01*
X116095501Y-108895501D01*
X116110684Y-108877000D01*
X122114735Y-108877000D01*
X124063403Y-110825668D01*
X124090867Y-110859133D01*
X124129300Y-110890674D01*
X124224408Y-110968727D01*
X124376763Y-111050162D01*
X124542077Y-111100310D01*
X124714000Y-111117243D01*
X124757079Y-111113000D01*
X133067973Y-111113000D01*
X133117533Y-111146115D01*
X133304435Y-111223533D01*
X133502849Y-111263000D01*
X133705151Y-111263000D01*
X133903565Y-111223533D01*
X134090467Y-111146115D01*
X134258674Y-111033723D01*
X134401723Y-110890674D01*
X134514115Y-110722467D01*
X134591533Y-110535565D01*
X134631000Y-110337151D01*
X134631000Y-110134849D01*
X134591533Y-109936435D01*
X134514115Y-109749533D01*
X134401723Y-109581326D01*
X134258674Y-109438277D01*
X134090467Y-109325885D01*
X133903565Y-109248467D01*
X133705151Y-109209000D01*
X133502849Y-109209000D01*
X133304435Y-109248467D01*
X133117533Y-109325885D01*
X133067973Y-109359000D01*
X125077265Y-109359000D01*
X123128597Y-107410332D01*
X123101133Y-107376867D01*
X122967592Y-107267273D01*
X122815237Y-107185838D01*
X122649922Y-107135690D01*
X122521079Y-107123000D01*
X122478000Y-107118757D01*
X122434921Y-107123000D01*
X116110684Y-107123000D01*
X116095501Y-107104499D01*
X116065689Y-107080033D01*
X116600000Y-107080033D01*
X116722913Y-107067927D01*
X116841103Y-107032075D01*
X116950028Y-106973853D01*
X117045501Y-106895501D01*
X117060684Y-106877000D01*
X125561735Y-106877000D01*
X125894967Y-107210232D01*
X125894967Y-107275000D01*
X125910916Y-107436931D01*
X125958149Y-107592640D01*
X126034853Y-107736142D01*
X126138078Y-107861922D01*
X126263858Y-107965147D01*
X126407360Y-108041851D01*
X126563069Y-108089084D01*
X126725000Y-108105033D01*
X127125000Y-108105033D01*
X127286931Y-108089084D01*
X127442640Y-108041851D01*
X127586142Y-107965147D01*
X127711922Y-107861922D01*
X127750000Y-107815524D01*
X127788078Y-107861922D01*
X127913858Y-107965147D01*
X128057360Y-108041851D01*
X128213069Y-108089084D01*
X128375000Y-108105033D01*
X128775000Y-108105033D01*
X128936931Y-108089084D01*
X129092640Y-108041851D01*
X129236142Y-107965147D01*
X129343549Y-107877000D01*
X133450924Y-107877000D01*
X133558435Y-107921533D01*
X133756849Y-107961000D01*
X133959151Y-107961000D01*
X134157565Y-107921533D01*
X134344467Y-107844115D01*
X134512674Y-107731723D01*
X134655723Y-107588674D01*
X134768115Y-107420467D01*
X134845533Y-107233565D01*
X134885000Y-107035151D01*
X134885000Y-106832849D01*
X134845533Y-106634435D01*
X134768115Y-106447533D01*
X134655723Y-106279326D01*
X134512674Y-106136277D01*
X134344467Y-106023885D01*
X134157565Y-105946467D01*
X133959151Y-105907000D01*
X133756849Y-105907000D01*
X133558435Y-105946467D01*
X133371533Y-106023885D01*
X133223196Y-106123000D01*
X129343549Y-106123000D01*
X129236142Y-106034853D01*
X129092640Y-105958149D01*
X128936931Y-105910916D01*
X128775000Y-105894967D01*
X128375000Y-105894967D01*
X128213069Y-105910916D01*
X128057360Y-105958149D01*
X127913858Y-106034853D01*
X127788078Y-106138078D01*
X127750000Y-106184476D01*
X127711922Y-106138078D01*
X127586142Y-106034853D01*
X127442640Y-105958149D01*
X127286931Y-105910916D01*
X127125000Y-105894967D01*
X127060232Y-105894967D01*
X126575597Y-105410332D01*
X126548133Y-105376867D01*
X126414592Y-105267273D01*
X126262237Y-105185838D01*
X126096922Y-105135690D01*
X125968079Y-105123000D01*
X125925000Y-105118757D01*
X125881921Y-105123000D01*
X117077000Y-105123000D01*
X117077000Y-103873265D01*
X120477669Y-100472596D01*
X120511133Y-100445133D01*
X120620727Y-100311592D01*
X120702162Y-100159237D01*
X120736392Y-100046397D01*
X120752310Y-99993923D01*
X120769243Y-99822000D01*
X120765000Y-99778921D01*
X120765000Y-94785079D01*
X120769243Y-94742000D01*
X120752310Y-94570077D01*
X120702162Y-94404763D01*
X120626534Y-94263273D01*
X120620727Y-94252408D01*
X120511133Y-94118867D01*
X120477668Y-94091403D01*
X116728597Y-90342332D01*
X116701133Y-90308867D01*
X116567592Y-90199273D01*
X116415237Y-90117838D01*
X116249922Y-90067690D01*
X116127090Y-90055592D01*
X116078000Y-90050757D01*
X116034921Y-90055000D01*
X111361266Y-90055000D01*
X109870346Y-88564080D01*
X111865525Y-88564080D01*
X111949208Y-88818261D01*
X112221775Y-88949158D01*
X112514642Y-89024365D01*
X112816553Y-89040991D01*
X113115907Y-88998397D01*
X113401199Y-88898222D01*
X113550792Y-88818261D01*
X113634475Y-88564080D01*
X112750000Y-87679605D01*
X111865525Y-88564080D01*
X109870346Y-88564080D01*
X108872819Y-87566553D01*
X111209009Y-87566553D01*
X111251603Y-87865907D01*
X111351778Y-88151199D01*
X111431739Y-88300792D01*
X111685920Y-88384475D01*
X112570395Y-87500000D01*
X111685920Y-86615525D01*
X111431739Y-86699208D01*
X111300842Y-86971775D01*
X111225635Y-87264642D01*
X111209009Y-87566553D01*
X108872819Y-87566553D01*
X107742186Y-86435920D01*
X111865525Y-86435920D01*
X112750000Y-87320395D01*
X113634475Y-86435920D01*
X113550792Y-86181739D01*
X113278225Y-86050842D01*
X112985358Y-85975635D01*
X112683447Y-85959009D01*
X112384093Y-86001603D01*
X112098801Y-86101778D01*
X111949208Y-86181739D01*
X111865525Y-86435920D01*
X107742186Y-86435920D01*
X101547529Y-80241263D01*
X108223000Y-80241263D01*
X108223000Y-80758737D01*
X108323954Y-81266268D01*
X108521983Y-81744351D01*
X108809476Y-82174615D01*
X109175385Y-82540524D01*
X109605649Y-82828017D01*
X110083732Y-83026046D01*
X110591263Y-83127000D01*
X111108737Y-83127000D01*
X111616268Y-83026046D01*
X112094351Y-82828017D01*
X112524615Y-82540524D01*
X112890524Y-82174615D01*
X113178017Y-81744351D01*
X113376046Y-81266268D01*
X113477000Y-80758737D01*
X113477000Y-80241263D01*
X117023000Y-80241263D01*
X117023000Y-80758737D01*
X117123954Y-81266268D01*
X117321983Y-81744351D01*
X117609476Y-82174615D01*
X117975385Y-82540524D01*
X118405649Y-82828017D01*
X118883732Y-83026046D01*
X119391263Y-83127000D01*
X119908737Y-83127000D01*
X120416268Y-83026046D01*
X120894351Y-82828017D01*
X121324615Y-82540524D01*
X121690524Y-82174615D01*
X121978017Y-81744351D01*
X122176046Y-81266268D01*
X122277000Y-80758737D01*
X122277000Y-80241263D01*
X122176046Y-79733732D01*
X121978017Y-79255649D01*
X121690524Y-78825385D01*
X121324615Y-78459476D01*
X120894351Y-78171983D01*
X120416268Y-77973954D01*
X119908737Y-77873000D01*
X119391263Y-77873000D01*
X118883732Y-77973954D01*
X118405649Y-78171983D01*
X117975385Y-78459476D01*
X117609476Y-78825385D01*
X117321983Y-79255649D01*
X117123954Y-79733732D01*
X117023000Y-80241263D01*
X113477000Y-80241263D01*
X113376046Y-79733732D01*
X113178017Y-79255649D01*
X112890524Y-78825385D01*
X112524615Y-78459476D01*
X112094351Y-78171983D01*
X111616268Y-77973954D01*
X111108737Y-77873000D01*
X110591263Y-77873000D01*
X110083732Y-77973954D01*
X109605649Y-78171983D01*
X109175385Y-78459476D01*
X108809476Y-78825385D01*
X108521983Y-79255649D01*
X108323954Y-79733732D01*
X108223000Y-80241263D01*
X101547529Y-80241263D01*
X98416597Y-77110332D01*
X98389133Y-77076867D01*
X98255592Y-76967273D01*
X98103237Y-76885838D01*
X97937922Y-76835690D01*
X97809079Y-76823000D01*
X97766000Y-76818757D01*
X97722921Y-76823000D01*
X96680033Y-76823000D01*
X96680033Y-76200000D01*
X96663123Y-76028314D01*
X96613044Y-75863226D01*
X96531721Y-75711080D01*
X96422277Y-75577723D01*
X96288920Y-75468279D01*
X96136774Y-75386956D01*
X95971686Y-75336877D01*
X95800000Y-75319967D01*
X94700000Y-75319967D01*
X94528314Y-75336877D01*
X94363226Y-75386956D01*
X94211080Y-75468279D01*
X94077723Y-75577723D01*
X93968279Y-75711080D01*
X93886956Y-75863226D01*
X93836877Y-76028314D01*
X93819967Y-76200000D01*
X83177000Y-76200000D01*
X83177000Y-73177000D01*
X83266748Y-73177000D01*
X83300000Y-73180275D01*
X83333252Y-73177000D01*
X83432715Y-73167204D01*
X83560330Y-73128492D01*
X83677941Y-73065628D01*
X83781027Y-72981027D01*
X83865628Y-72877941D01*
X83928492Y-72760330D01*
X83967204Y-72632715D01*
X83980275Y-72500000D01*
X83977000Y-72466748D01*
X83977000Y-70677000D01*
X181323000Y-70677000D01*
X181323001Y-90823000D01*
G37*
G04 #@! TD.AperFunction*
G04 #@! TD*
M02*
