G04 #@! TF.GenerationSoftware,KiCad,Pcbnew,(5.1.7)-1*
G04 #@! TF.CreationDate,2022-04-09T18:00:20-05:00*
G04 #@! TF.ProjectId,ConsolePedalFuzzSMT,436f6e73-6f6c-4655-9065-64616c46757a,rev?*
G04 #@! TF.SameCoordinates,Original*
G04 #@! TF.FileFunction,Legend,Top*
G04 #@! TF.FilePolarity,Positive*
%FSLAX46Y46*%
G04 Gerber Fmt 4.6, Leading zero omitted, Abs format (unit mm)*
G04 Created by KiCad (PCBNEW (5.1.7)-1) date 2022-04-09 18:00:20*
%MOMM*%
%LPD*%
G01*
G04 APERTURE LIST*
%ADD10C,0.150000*%
%ADD11C,0.250000*%
%ADD12C,0.120000*%
G04 APERTURE END LIST*
D10*
X111158857Y-84089142D02*
X111158857Y-84732000D01*
X111116000Y-84860571D01*
X111030285Y-84946285D01*
X110901714Y-84989142D01*
X110816000Y-84989142D01*
X112016000Y-84989142D02*
X111587428Y-84989142D01*
X111587428Y-84089142D01*
X112830285Y-84903428D02*
X112787428Y-84946285D01*
X112658857Y-84989142D01*
X112573142Y-84989142D01*
X112444571Y-84946285D01*
X112358857Y-84860571D01*
X112316000Y-84774857D01*
X112273142Y-84603428D01*
X112273142Y-84474857D01*
X112316000Y-84303428D01*
X112358857Y-84217714D01*
X112444571Y-84132000D01*
X112573142Y-84089142D01*
X112658857Y-84089142D01*
X112787428Y-84132000D01*
X112830285Y-84174857D01*
X113473142Y-84089142D02*
X113473142Y-84732000D01*
X113430285Y-84860571D01*
X113344571Y-84946285D01*
X113216000Y-84989142D01*
X113130285Y-84989142D01*
X114330285Y-84989142D02*
X113901714Y-84989142D01*
X113901714Y-84089142D01*
X115144571Y-84903428D02*
X115101714Y-84946285D01*
X114973142Y-84989142D01*
X114887428Y-84989142D01*
X114758857Y-84946285D01*
X114673142Y-84860571D01*
X114630285Y-84774857D01*
X114587428Y-84603428D01*
X114587428Y-84474857D01*
X114630285Y-84303428D01*
X114673142Y-84217714D01*
X114758857Y-84132000D01*
X114887428Y-84089142D01*
X114973142Y-84089142D01*
X115101714Y-84132000D01*
X115144571Y-84174857D01*
X115787428Y-84089142D02*
X115787428Y-84732000D01*
X115744571Y-84860571D01*
X115658857Y-84946285D01*
X115530285Y-84989142D01*
X115444571Y-84989142D01*
X116644571Y-84989142D02*
X116216000Y-84989142D01*
X116216000Y-84089142D01*
X117458857Y-84903428D02*
X117416000Y-84946285D01*
X117287428Y-84989142D01*
X117201714Y-84989142D01*
X117073142Y-84946285D01*
X116987428Y-84860571D01*
X116944571Y-84774857D01*
X116901714Y-84603428D01*
X116901714Y-84474857D01*
X116944571Y-84303428D01*
X116987428Y-84217714D01*
X117073142Y-84132000D01*
X117201714Y-84089142D01*
X117287428Y-84089142D01*
X117416000Y-84132000D01*
X117458857Y-84174857D01*
X118101714Y-84089142D02*
X118101714Y-84732000D01*
X118058857Y-84860571D01*
X117973142Y-84946285D01*
X117844571Y-84989142D01*
X117758857Y-84989142D01*
X118958857Y-84989142D02*
X118530285Y-84989142D01*
X118530285Y-84089142D01*
X119773142Y-84903428D02*
X119730285Y-84946285D01*
X119601714Y-84989142D01*
X119516000Y-84989142D01*
X119387428Y-84946285D01*
X119301714Y-84860571D01*
X119258857Y-84774857D01*
X119216000Y-84603428D01*
X119216000Y-84474857D01*
X119258857Y-84303428D01*
X119301714Y-84217714D01*
X119387428Y-84132000D01*
X119516000Y-84089142D01*
X119601714Y-84089142D01*
X119730285Y-84132000D01*
X119773142Y-84174857D01*
D11*
X148011904Y-89857142D02*
X147345238Y-89857142D01*
X147345238Y-90904761D02*
X147345238Y-88904761D01*
X148297619Y-88904761D01*
X149916666Y-89571428D02*
X149916666Y-90904761D01*
X149059523Y-89571428D02*
X149059523Y-90619047D01*
X149154761Y-90809523D01*
X149345238Y-90904761D01*
X149630952Y-90904761D01*
X149821428Y-90809523D01*
X149916666Y-90714285D01*
X150678571Y-89571428D02*
X151726190Y-89571428D01*
X150678571Y-90904761D01*
X151726190Y-90904761D01*
X152297619Y-89571428D02*
X153345238Y-89571428D01*
X152297619Y-90904761D01*
X153345238Y-90904761D01*
X110059523Y-88904761D02*
X110726190Y-90904761D01*
X111392857Y-88904761D01*
X112345238Y-90904761D02*
X112154761Y-90809523D01*
X112059523Y-90714285D01*
X111964285Y-90523809D01*
X111964285Y-89952380D01*
X112059523Y-89761904D01*
X112154761Y-89666666D01*
X112345238Y-89571428D01*
X112630952Y-89571428D01*
X112821428Y-89666666D01*
X112916666Y-89761904D01*
X113011904Y-89952380D01*
X113011904Y-90523809D01*
X112916666Y-90714285D01*
X112821428Y-90809523D01*
X112630952Y-90904761D01*
X112345238Y-90904761D01*
X114154761Y-90904761D02*
X113964285Y-90809523D01*
X113869047Y-90619047D01*
X113869047Y-88904761D01*
X115773809Y-89571428D02*
X115773809Y-90904761D01*
X114916666Y-89571428D02*
X114916666Y-90619047D01*
X115011904Y-90809523D01*
X115202380Y-90904761D01*
X115488095Y-90904761D01*
X115678571Y-90809523D01*
X115773809Y-90714285D01*
X116726190Y-90904761D02*
X116726190Y-89571428D01*
X116726190Y-89761904D02*
X116821428Y-89666666D01*
X117011904Y-89571428D01*
X117297619Y-89571428D01*
X117488095Y-89666666D01*
X117583333Y-89857142D01*
X117583333Y-90904761D01*
X117583333Y-89857142D02*
X117678571Y-89666666D01*
X117869047Y-89571428D01*
X118154761Y-89571428D01*
X118345238Y-89666666D01*
X118440476Y-89857142D01*
X118440476Y-90904761D01*
X120154761Y-90809523D02*
X119964285Y-90904761D01*
X119583333Y-90904761D01*
X119392857Y-90809523D01*
X119297619Y-90619047D01*
X119297619Y-89857142D01*
X119392857Y-89666666D01*
X119583333Y-89571428D01*
X119964285Y-89571428D01*
X120154761Y-89666666D01*
X120250000Y-89857142D01*
X120250000Y-90047619D01*
X119297619Y-90238095D01*
X125322142Y-121177857D02*
X124822142Y-121177857D01*
X124822142Y-121963571D02*
X124822142Y-120463571D01*
X125536428Y-120463571D01*
X126750714Y-120963571D02*
X126750714Y-121963571D01*
X126107857Y-120963571D02*
X126107857Y-121749285D01*
X126179285Y-121892142D01*
X126322142Y-121963571D01*
X126536428Y-121963571D01*
X126679285Y-121892142D01*
X126750714Y-121820714D01*
X127322142Y-120963571D02*
X128107857Y-120963571D01*
X127322142Y-121963571D01*
X128107857Y-121963571D01*
X128536428Y-120963571D02*
X129322142Y-120963571D01*
X128536428Y-121963571D01*
X129322142Y-121963571D01*
X130965000Y-121892142D02*
X131179285Y-121963571D01*
X131536428Y-121963571D01*
X131679285Y-121892142D01*
X131750714Y-121820714D01*
X131822142Y-121677857D01*
X131822142Y-121535000D01*
X131750714Y-121392142D01*
X131679285Y-121320714D01*
X131536428Y-121249285D01*
X131250714Y-121177857D01*
X131107857Y-121106428D01*
X131036428Y-121035000D01*
X130965000Y-120892142D01*
X130965000Y-120749285D01*
X131036428Y-120606428D01*
X131107857Y-120535000D01*
X131250714Y-120463571D01*
X131607857Y-120463571D01*
X131822142Y-120535000D01*
X132465000Y-121963571D02*
X132465000Y-120463571D01*
X132965000Y-121535000D01*
X133465000Y-120463571D01*
X133465000Y-121963571D01*
X133965000Y-120463571D02*
X134822142Y-120463571D01*
X134393571Y-121963571D02*
X134393571Y-120463571D01*
X136250714Y-120463571D02*
X136750714Y-121963571D01*
X137250714Y-120463571D01*
X138536428Y-121963571D02*
X137679285Y-121963571D01*
X138107857Y-121963571D02*
X138107857Y-120463571D01*
X137965000Y-120677857D01*
X137822142Y-120820714D01*
X137679285Y-120892142D01*
X139179285Y-121820714D02*
X139250714Y-121892142D01*
X139179285Y-121963571D01*
X139107857Y-121892142D01*
X139179285Y-121820714D01*
X139179285Y-121963571D01*
X140179285Y-120463571D02*
X140322142Y-120463571D01*
X140465000Y-120535000D01*
X140536428Y-120606428D01*
X140607857Y-120749285D01*
X140679285Y-121035000D01*
X140679285Y-121392142D01*
X140607857Y-121677857D01*
X140536428Y-121820714D01*
X140465000Y-121892142D01*
X140322142Y-121963571D01*
X140179285Y-121963571D01*
X140036428Y-121892142D01*
X139965000Y-121820714D01*
X139893571Y-121677857D01*
X139822142Y-121392142D01*
X139822142Y-121035000D01*
X139893571Y-120749285D01*
X139965000Y-120606428D01*
X140036428Y-120535000D01*
X140179285Y-120463571D01*
X119000714Y-113103761D02*
X120143571Y-113103761D01*
X119572142Y-115103761D02*
X119572142Y-113103761D01*
X120810238Y-115103761D02*
X120810238Y-113103761D01*
X121667380Y-115103761D02*
X121667380Y-114056142D01*
X121572142Y-113865666D01*
X121381666Y-113770428D01*
X121095952Y-113770428D01*
X120905476Y-113865666D01*
X120810238Y-113960904D01*
X122905476Y-115103761D02*
X122715000Y-115008523D01*
X122619761Y-114913285D01*
X122524523Y-114722809D01*
X122524523Y-114151380D01*
X122619761Y-113960904D01*
X122715000Y-113865666D01*
X122905476Y-113770428D01*
X123191190Y-113770428D01*
X123381666Y-113865666D01*
X123476904Y-113960904D01*
X123572142Y-114151380D01*
X123572142Y-114722809D01*
X123476904Y-114913285D01*
X123381666Y-115008523D01*
X123191190Y-115103761D01*
X122905476Y-115103761D01*
X124429285Y-115103761D02*
X124429285Y-113770428D01*
X124429285Y-113960904D02*
X124524523Y-113865666D01*
X124715000Y-113770428D01*
X125000714Y-113770428D01*
X125191190Y-113865666D01*
X125286428Y-114056142D01*
X125286428Y-115103761D01*
X125286428Y-114056142D02*
X125381666Y-113865666D01*
X125572142Y-113770428D01*
X125857857Y-113770428D01*
X126048333Y-113865666D01*
X126143571Y-114056142D01*
X126143571Y-115103761D01*
X127953095Y-115103761D02*
X127953095Y-114056142D01*
X127857857Y-113865666D01*
X127667380Y-113770428D01*
X127286428Y-113770428D01*
X127095952Y-113865666D01*
X127953095Y-115008523D02*
X127762619Y-115103761D01*
X127286428Y-115103761D01*
X127095952Y-115008523D01*
X127000714Y-114818047D01*
X127000714Y-114627571D01*
X127095952Y-114437095D01*
X127286428Y-114341857D01*
X127762619Y-114341857D01*
X127953095Y-114246619D01*
X128810238Y-115008523D02*
X129000714Y-115103761D01*
X129381666Y-115103761D01*
X129572142Y-115008523D01*
X129667380Y-114818047D01*
X129667380Y-114722809D01*
X129572142Y-114532333D01*
X129381666Y-114437095D01*
X129095952Y-114437095D01*
X128905476Y-114341857D01*
X128810238Y-114151380D01*
X128810238Y-114056142D01*
X128905476Y-113865666D01*
X129095952Y-113770428D01*
X129381666Y-113770428D01*
X129572142Y-113865666D01*
X132048333Y-115103761D02*
X132048333Y-113103761D01*
X132715000Y-114532333D01*
X133381666Y-113103761D01*
X133381666Y-115103761D01*
X135191190Y-115008523D02*
X135000714Y-115103761D01*
X134619761Y-115103761D01*
X134429285Y-115008523D01*
X134334047Y-114913285D01*
X134238809Y-114722809D01*
X134238809Y-114151380D01*
X134334047Y-113960904D01*
X134429285Y-113865666D01*
X134619761Y-113770428D01*
X135000714Y-113770428D01*
X135191190Y-113865666D01*
X136048333Y-115103761D02*
X136048333Y-113103761D01*
X136524523Y-113103761D01*
X136810238Y-113199000D01*
X137000714Y-113389476D01*
X137095952Y-113579952D01*
X137191190Y-113960904D01*
X137191190Y-114246619D01*
X137095952Y-114627571D01*
X137000714Y-114818047D01*
X136810238Y-115008523D01*
X136524523Y-115103761D01*
X136048333Y-115103761D01*
X138334047Y-115103761D02*
X138143571Y-115008523D01*
X138048333Y-114913285D01*
X137953095Y-114722809D01*
X137953095Y-114151380D01*
X138048333Y-113960904D01*
X138143571Y-113865666D01*
X138334047Y-113770428D01*
X138619761Y-113770428D01*
X138810238Y-113865666D01*
X138905476Y-113960904D01*
X139000714Y-114151380D01*
X139000714Y-114722809D01*
X138905476Y-114913285D01*
X138810238Y-115008523D01*
X138619761Y-115103761D01*
X138334047Y-115103761D01*
X139857857Y-113770428D02*
X139857857Y-115103761D01*
X139857857Y-113960904D02*
X139953095Y-113865666D01*
X140143571Y-113770428D01*
X140429285Y-113770428D01*
X140619761Y-113865666D01*
X140715000Y-114056142D01*
X140715000Y-115103761D01*
X142524523Y-115103761D02*
X142524523Y-114056142D01*
X142429285Y-113865666D01*
X142238809Y-113770428D01*
X141857857Y-113770428D01*
X141667380Y-113865666D01*
X142524523Y-115008523D02*
X142334047Y-115103761D01*
X141857857Y-115103761D01*
X141667380Y-115008523D01*
X141572142Y-114818047D01*
X141572142Y-114627571D01*
X141667380Y-114437095D01*
X141857857Y-114341857D01*
X142334047Y-114341857D01*
X142524523Y-114246619D01*
X144334047Y-113770428D02*
X144334047Y-115389476D01*
X144238809Y-115579952D01*
X144143571Y-115675190D01*
X143953095Y-115770428D01*
X143667380Y-115770428D01*
X143476904Y-115675190D01*
X144334047Y-115008523D02*
X144143571Y-115103761D01*
X143762619Y-115103761D01*
X143572142Y-115008523D01*
X143476904Y-114913285D01*
X143381666Y-114722809D01*
X143381666Y-114151380D01*
X143476904Y-113960904D01*
X143572142Y-113865666D01*
X143762619Y-113770428D01*
X144143571Y-113770428D01*
X144334047Y-113865666D01*
X145286428Y-115103761D02*
X145286428Y-113103761D01*
X146143571Y-115103761D02*
X146143571Y-114056142D01*
X146048333Y-113865666D01*
X145857857Y-113770428D01*
X145572142Y-113770428D01*
X145381666Y-113865666D01*
X145286428Y-113960904D01*
X119810238Y-118258523D02*
X119619761Y-118353761D01*
X119238809Y-118353761D01*
X119048333Y-118258523D01*
X118953095Y-118163285D01*
X118857857Y-117972809D01*
X118857857Y-117401380D01*
X118953095Y-117210904D01*
X119048333Y-117115666D01*
X119238809Y-117020428D01*
X119619761Y-117020428D01*
X119810238Y-117115666D01*
X120953095Y-118353761D02*
X120762619Y-118258523D01*
X120667380Y-118163285D01*
X120572142Y-117972809D01*
X120572142Y-117401380D01*
X120667380Y-117210904D01*
X120762619Y-117115666D01*
X120953095Y-117020428D01*
X121238809Y-117020428D01*
X121429285Y-117115666D01*
X121524523Y-117210904D01*
X121619761Y-117401380D01*
X121619761Y-117972809D01*
X121524523Y-118163285D01*
X121429285Y-118258523D01*
X121238809Y-118353761D01*
X120953095Y-118353761D01*
X122476904Y-117020428D02*
X122476904Y-118353761D01*
X122476904Y-117210904D02*
X122572142Y-117115666D01*
X122762619Y-117020428D01*
X123048333Y-117020428D01*
X123238809Y-117115666D01*
X123334047Y-117306142D01*
X123334047Y-118353761D01*
X124191190Y-118258523D02*
X124381666Y-118353761D01*
X124762619Y-118353761D01*
X124953095Y-118258523D01*
X125048333Y-118068047D01*
X125048333Y-117972809D01*
X124953095Y-117782333D01*
X124762619Y-117687095D01*
X124476904Y-117687095D01*
X124286428Y-117591857D01*
X124191190Y-117401380D01*
X124191190Y-117306142D01*
X124286428Y-117115666D01*
X124476904Y-117020428D01*
X124762619Y-117020428D01*
X124953095Y-117115666D01*
X126191190Y-118353761D02*
X126000714Y-118258523D01*
X125905476Y-118163285D01*
X125810238Y-117972809D01*
X125810238Y-117401380D01*
X125905476Y-117210904D01*
X126000714Y-117115666D01*
X126191190Y-117020428D01*
X126476904Y-117020428D01*
X126667380Y-117115666D01*
X126762619Y-117210904D01*
X126857857Y-117401380D01*
X126857857Y-117972809D01*
X126762619Y-118163285D01*
X126667380Y-118258523D01*
X126476904Y-118353761D01*
X126191190Y-118353761D01*
X128000714Y-118353761D02*
X127810238Y-118258523D01*
X127715000Y-118068047D01*
X127715000Y-116353761D01*
X129524523Y-118258523D02*
X129334047Y-118353761D01*
X128953095Y-118353761D01*
X128762619Y-118258523D01*
X128667380Y-118068047D01*
X128667380Y-117306142D01*
X128762619Y-117115666D01*
X128953095Y-117020428D01*
X129334047Y-117020428D01*
X129524523Y-117115666D01*
X129619761Y-117306142D01*
X129619761Y-117496619D01*
X128667380Y-117687095D01*
X130476904Y-117020428D02*
X130476904Y-119020428D01*
X130476904Y-117115666D02*
X130667380Y-117020428D01*
X131048333Y-117020428D01*
X131238809Y-117115666D01*
X131334047Y-117210904D01*
X131429285Y-117401380D01*
X131429285Y-117972809D01*
X131334047Y-118163285D01*
X131238809Y-118258523D01*
X131048333Y-118353761D01*
X130667380Y-118353761D01*
X130476904Y-118258523D01*
X133048333Y-118258523D02*
X132857857Y-118353761D01*
X132476904Y-118353761D01*
X132286428Y-118258523D01*
X132191190Y-118068047D01*
X132191190Y-117306142D01*
X132286428Y-117115666D01*
X132476904Y-117020428D01*
X132857857Y-117020428D01*
X133048333Y-117115666D01*
X133143571Y-117306142D01*
X133143571Y-117496619D01*
X132191190Y-117687095D01*
X134857857Y-118353761D02*
X134857857Y-116353761D01*
X134857857Y-118258523D02*
X134667380Y-118353761D01*
X134286428Y-118353761D01*
X134095952Y-118258523D01*
X134000714Y-118163285D01*
X133905476Y-117972809D01*
X133905476Y-117401380D01*
X134000714Y-117210904D01*
X134095952Y-117115666D01*
X134286428Y-117020428D01*
X134667380Y-117020428D01*
X134857857Y-117115666D01*
X136667380Y-118353761D02*
X136667380Y-117306142D01*
X136572142Y-117115666D01*
X136381666Y-117020428D01*
X136000714Y-117020428D01*
X135810238Y-117115666D01*
X136667380Y-118258523D02*
X136476904Y-118353761D01*
X136000714Y-118353761D01*
X135810238Y-118258523D01*
X135715000Y-118068047D01*
X135715000Y-117877571D01*
X135810238Y-117687095D01*
X136000714Y-117591857D01*
X136476904Y-117591857D01*
X136667380Y-117496619D01*
X137905476Y-118353761D02*
X137715000Y-118258523D01*
X137619761Y-118068047D01*
X137619761Y-116353761D01*
X138572142Y-118258523D02*
X138762619Y-118353761D01*
X139143571Y-118353761D01*
X139334047Y-118258523D01*
X139429285Y-118068047D01*
X139429285Y-117972809D01*
X139334047Y-117782333D01*
X139143571Y-117687095D01*
X138857857Y-117687095D01*
X138667380Y-117591857D01*
X138572142Y-117401380D01*
X138572142Y-117306142D01*
X138667380Y-117115666D01*
X138857857Y-117020428D01*
X139143571Y-117020428D01*
X139334047Y-117115666D01*
X140286428Y-118163285D02*
X140381666Y-118258523D01*
X140286428Y-118353761D01*
X140191190Y-118258523D01*
X140286428Y-118163285D01*
X140286428Y-118353761D01*
X142095952Y-118258523D02*
X141905476Y-118353761D01*
X141524523Y-118353761D01*
X141334047Y-118258523D01*
X141238809Y-118163285D01*
X141143571Y-117972809D01*
X141143571Y-117401380D01*
X141238809Y-117210904D01*
X141334047Y-117115666D01*
X141524523Y-117020428D01*
X141905476Y-117020428D01*
X142095952Y-117115666D01*
X143238809Y-118353761D02*
X143048333Y-118258523D01*
X142953095Y-118163285D01*
X142857857Y-117972809D01*
X142857857Y-117401380D01*
X142953095Y-117210904D01*
X143048333Y-117115666D01*
X143238809Y-117020428D01*
X143524523Y-117020428D01*
X143715000Y-117115666D01*
X143810238Y-117210904D01*
X143905476Y-117401380D01*
X143905476Y-117972809D01*
X143810238Y-118163285D01*
X143715000Y-118258523D01*
X143524523Y-118353761D01*
X143238809Y-118353761D01*
X144762619Y-118353761D02*
X144762619Y-117020428D01*
X144762619Y-117210904D02*
X144857857Y-117115666D01*
X145048333Y-117020428D01*
X145334047Y-117020428D01*
X145524523Y-117115666D01*
X145619761Y-117306142D01*
X145619761Y-118353761D01*
X145619761Y-117306142D02*
X145715000Y-117115666D01*
X145905476Y-117020428D01*
X146191190Y-117020428D01*
X146381666Y-117115666D01*
X146476904Y-117306142D01*
X146476904Y-118353761D01*
D12*
G04 #@! TO.C,D1*
X117750000Y-96270000D02*
G75*
G03*
X117750000Y-96270000I-2500000J0D01*
G01*
X116795000Y-93710000D02*
X113705000Y-93710000D01*
X115249538Y-99260000D02*
G75*
G03*
X116794830Y-93710000I462J2990000D01*
G01*
X115250462Y-99260000D02*
G75*
G02*
X113705170Y-93710000I-462J2990000D01*
G01*
G04 #@! TO.C,D2*
X151795000Y-93710000D02*
X148705000Y-93710000D01*
X152750000Y-96270000D02*
G75*
G03*
X152750000Y-96270000I-2500000J0D01*
G01*
X150250462Y-99260000D02*
G75*
G02*
X148705170Y-93710000I-462J2990000D01*
G01*
X150249538Y-99260000D02*
G75*
G03*
X151794830Y-93710000I462J2990000D01*
G01*
G04 #@! TO.C,RV1*
X145280000Y-86620000D02*
X145280000Y-82755000D01*
X145280000Y-78245000D02*
X145280000Y-74380000D01*
X155220000Y-86620000D02*
X155220000Y-82755000D01*
X155220000Y-78245000D02*
X155220000Y-74380000D01*
X145280000Y-86620000D02*
X146879000Y-86620000D01*
X148621000Y-86620000D02*
X149380000Y-86620000D01*
X151121000Y-86620000D02*
X151880000Y-86620000D01*
X153620000Y-86620000D02*
X155220000Y-86620000D01*
X145280000Y-74380000D02*
X155220000Y-74380000D01*
G04 #@! TO.C,RV2*
X110280000Y-74380000D02*
X120220000Y-74380000D01*
X118620000Y-86620000D02*
X120220000Y-86620000D01*
X116121000Y-86620000D02*
X116880000Y-86620000D01*
X113621000Y-86620000D02*
X114380000Y-86620000D01*
X110280000Y-86620000D02*
X111879000Y-86620000D01*
X120220000Y-78245000D02*
X120220000Y-74380000D01*
X120220000Y-86620000D02*
X120220000Y-82755000D01*
X110280000Y-78245000D02*
X110280000Y-74380000D01*
X110280000Y-86620000D02*
X110280000Y-82755000D01*
G04 #@! TO.C,R3*
X168880000Y-99540000D02*
X171620000Y-99540000D01*
X171620000Y-99540000D02*
X171620000Y-93000000D01*
X171620000Y-93000000D02*
X168880000Y-93000000D01*
X168880000Y-93000000D02*
X168880000Y-99540000D01*
X170250000Y-100310000D02*
X170250000Y-99540000D01*
X170250000Y-92230000D02*
X170250000Y-93000000D01*
G04 #@! TO.C,RV3*
X137675000Y-76510000D02*
X137675000Y-86280000D01*
X127905000Y-76510000D02*
X127905000Y-86280000D01*
X137675000Y-76510000D02*
X127905000Y-76510000D01*
X137675000Y-86280000D02*
X127905000Y-86280000D01*
G04 #@! TO.C,C1*
X97491250Y-76456250D02*
X96703750Y-76456250D01*
X97097500Y-76062500D02*
X97097500Y-76850000D01*
X92904437Y-77090000D02*
X91840000Y-78154437D01*
X97595563Y-77090000D02*
X98660000Y-78154437D01*
X97595563Y-77090000D02*
X96310000Y-77090000D01*
X92904437Y-77090000D02*
X94190000Y-77090000D01*
X91840000Y-78154437D02*
X91840000Y-83910000D01*
X98660000Y-78154437D02*
X98660000Y-83910000D01*
X98660000Y-83910000D02*
X96310000Y-83910000D01*
X91840000Y-83910000D02*
X94190000Y-83910000D01*
G04 #@! TO.C,C2*
X127609420Y-95760000D02*
X127890580Y-95760000D01*
X127609420Y-96780000D02*
X127890580Y-96780000D01*
G04 #@! TO.C,C3*
X166840000Y-83910000D02*
X169190000Y-83910000D01*
X173660000Y-83910000D02*
X171310000Y-83910000D01*
X173660000Y-78154437D02*
X173660000Y-83910000D01*
X166840000Y-78154437D02*
X166840000Y-83910000D01*
X167904437Y-77090000D02*
X169190000Y-77090000D01*
X172595563Y-77090000D02*
X171310000Y-77090000D01*
X172595563Y-77090000D02*
X173660000Y-78154437D01*
X167904437Y-77090000D02*
X166840000Y-78154437D01*
X172097500Y-76062500D02*
X172097500Y-76850000D01*
X172491250Y-76456250D02*
X171703750Y-76456250D01*
G04 #@! TO.C,Q1*
X113670000Y-107760000D02*
X114600000Y-107760000D01*
X116830000Y-107760000D02*
X115900000Y-107760000D01*
X116830000Y-107760000D02*
X116830000Y-105600000D01*
X113670000Y-107760000D02*
X113670000Y-106300000D01*
G04 #@! TO.C,Q2*
X148670000Y-107760000D02*
X148670000Y-106300000D01*
X151830000Y-107760000D02*
X151830000Y-105600000D01*
X151830000Y-107760000D02*
X150900000Y-107760000D01*
X148670000Y-107760000D02*
X149600000Y-107760000D01*
G04 #@! TO.C,R1*
X137987258Y-106477500D02*
X137512742Y-106477500D01*
X137987258Y-107522500D02*
X137512742Y-107522500D01*
G04 #@! TO.C,R2*
X137512742Y-95747500D02*
X137987258Y-95747500D01*
X137512742Y-96792500D02*
X137987258Y-96792500D01*
G04 #@! TO.C,R4*
X127512742Y-107522500D02*
X127987258Y-107522500D01*
X127512742Y-106477500D02*
X127987258Y-106477500D01*
G04 #@! TO.C,R5*
X96620000Y-93000000D02*
X93880000Y-93000000D01*
X93880000Y-93000000D02*
X93880000Y-99540000D01*
X93880000Y-99540000D02*
X96620000Y-99540000D01*
X96620000Y-99540000D02*
X96620000Y-93000000D01*
X95250000Y-92230000D02*
X95250000Y-93000000D01*
X95250000Y-100310000D02*
X95250000Y-99540000D01*
G04 #@! TO.C,R6*
X105772500Y-96032742D02*
X105772500Y-96507258D01*
X104727500Y-96032742D02*
X104727500Y-96507258D01*
G04 #@! TO.C,R7*
X160772500Y-96507258D02*
X160772500Y-96032742D01*
X159727500Y-96507258D02*
X159727500Y-96032742D01*
G04 #@! TO.C,R8*
X132952258Y-91522500D02*
X132477742Y-91522500D01*
X132952258Y-90477500D02*
X132477742Y-90477500D01*
G04 #@! TO.C,RV1*
D10*
X149654761Y-76952380D02*
X149321428Y-76476190D01*
X149083333Y-76952380D02*
X149083333Y-75952380D01*
X149464285Y-75952380D01*
X149559523Y-76000000D01*
X149607142Y-76047619D01*
X149654761Y-76142857D01*
X149654761Y-76285714D01*
X149607142Y-76380952D01*
X149559523Y-76428571D01*
X149464285Y-76476190D01*
X149083333Y-76476190D01*
X149940476Y-75952380D02*
X150273809Y-76952380D01*
X150607142Y-75952380D01*
X151464285Y-76952380D02*
X150892857Y-76952380D01*
X151178571Y-76952380D02*
X151178571Y-75952380D01*
X151083333Y-76095238D01*
X150988095Y-76190476D01*
X150892857Y-76238095D01*
G04 #@! TO.C,RV2*
X114654761Y-76952380D02*
X114321428Y-76476190D01*
X114083333Y-76952380D02*
X114083333Y-75952380D01*
X114464285Y-75952380D01*
X114559523Y-76000000D01*
X114607142Y-76047619D01*
X114654761Y-76142857D01*
X114654761Y-76285714D01*
X114607142Y-76380952D01*
X114559523Y-76428571D01*
X114464285Y-76476190D01*
X114083333Y-76476190D01*
X114940476Y-75952380D02*
X115273809Y-76952380D01*
X115607142Y-75952380D01*
X115892857Y-76047619D02*
X115940476Y-76000000D01*
X116035714Y-75952380D01*
X116273809Y-75952380D01*
X116369047Y-76000000D01*
X116416666Y-76047619D01*
X116464285Y-76142857D01*
X116464285Y-76238095D01*
X116416666Y-76380952D01*
X115845238Y-76952380D01*
X116464285Y-76952380D01*
G04 #@! TO.C,R3*
X170702380Y-96436666D02*
X170226190Y-96770000D01*
X170702380Y-97008095D02*
X169702380Y-97008095D01*
X169702380Y-96627142D01*
X169750000Y-96531904D01*
X169797619Y-96484285D01*
X169892857Y-96436666D01*
X170035714Y-96436666D01*
X170130952Y-96484285D01*
X170178571Y-96531904D01*
X170226190Y-96627142D01*
X170226190Y-97008095D01*
X169702380Y-96103333D02*
X169702380Y-95484285D01*
X170083333Y-95817619D01*
X170083333Y-95674761D01*
X170130952Y-95579523D01*
X170178571Y-95531904D01*
X170273809Y-95484285D01*
X170511904Y-95484285D01*
X170607142Y-95531904D01*
X170654761Y-95579523D01*
X170702380Y-95674761D01*
X170702380Y-95960476D01*
X170654761Y-96055714D01*
X170607142Y-96103333D01*
G04 #@! TO.C,RV3*
X132194761Y-81732380D02*
X131861428Y-81256190D01*
X131623333Y-81732380D02*
X131623333Y-80732380D01*
X132004285Y-80732380D01*
X132099523Y-80780000D01*
X132147142Y-80827619D01*
X132194761Y-80922857D01*
X132194761Y-81065714D01*
X132147142Y-81160952D01*
X132099523Y-81208571D01*
X132004285Y-81256190D01*
X131623333Y-81256190D01*
X132480476Y-80732380D02*
X132813809Y-81732380D01*
X133147142Y-80732380D01*
X133385238Y-80732380D02*
X134004285Y-80732380D01*
X133670952Y-81113333D01*
X133813809Y-81113333D01*
X133909047Y-81160952D01*
X133956666Y-81208571D01*
X134004285Y-81303809D01*
X134004285Y-81541904D01*
X133956666Y-81637142D01*
X133909047Y-81684761D01*
X133813809Y-81732380D01*
X133528095Y-81732380D01*
X133432857Y-81684761D01*
X133385238Y-81637142D01*
G04 #@! TO.C,C1*
X95083333Y-74357142D02*
X95035714Y-74404761D01*
X94892857Y-74452380D01*
X94797619Y-74452380D01*
X94654761Y-74404761D01*
X94559523Y-74309523D01*
X94511904Y-74214285D01*
X94464285Y-74023809D01*
X94464285Y-73880952D01*
X94511904Y-73690476D01*
X94559523Y-73595238D01*
X94654761Y-73500000D01*
X94797619Y-73452380D01*
X94892857Y-73452380D01*
X95035714Y-73500000D01*
X95083333Y-73547619D01*
X96035714Y-74452380D02*
X95464285Y-74452380D01*
X95750000Y-74452380D02*
X95750000Y-73452380D01*
X95654761Y-73595238D01*
X95559523Y-73690476D01*
X95464285Y-73738095D01*
G04 #@! TO.C,C2*
X127583333Y-95197142D02*
X127535714Y-95244761D01*
X127392857Y-95292380D01*
X127297619Y-95292380D01*
X127154761Y-95244761D01*
X127059523Y-95149523D01*
X127011904Y-95054285D01*
X126964285Y-94863809D01*
X126964285Y-94720952D01*
X127011904Y-94530476D01*
X127059523Y-94435238D01*
X127154761Y-94340000D01*
X127297619Y-94292380D01*
X127392857Y-94292380D01*
X127535714Y-94340000D01*
X127583333Y-94387619D01*
X127964285Y-94387619D02*
X128011904Y-94340000D01*
X128107142Y-94292380D01*
X128345238Y-94292380D01*
X128440476Y-94340000D01*
X128488095Y-94387619D01*
X128535714Y-94482857D01*
X128535714Y-94578095D01*
X128488095Y-94720952D01*
X127916666Y-95292380D01*
X128535714Y-95292380D01*
G04 #@! TO.C,C3*
X170083333Y-74357142D02*
X170035714Y-74404761D01*
X169892857Y-74452380D01*
X169797619Y-74452380D01*
X169654761Y-74404761D01*
X169559523Y-74309523D01*
X169511904Y-74214285D01*
X169464285Y-74023809D01*
X169464285Y-73880952D01*
X169511904Y-73690476D01*
X169559523Y-73595238D01*
X169654761Y-73500000D01*
X169797619Y-73452380D01*
X169892857Y-73452380D01*
X170035714Y-73500000D01*
X170083333Y-73547619D01*
X170416666Y-73452380D02*
X171035714Y-73452380D01*
X170702380Y-73833333D01*
X170845238Y-73833333D01*
X170940476Y-73880952D01*
X170988095Y-73928571D01*
X171035714Y-74023809D01*
X171035714Y-74261904D01*
X170988095Y-74357142D01*
X170940476Y-74404761D01*
X170845238Y-74452380D01*
X170559523Y-74452380D01*
X170464285Y-74404761D01*
X170416666Y-74357142D01*
G04 #@! TO.C,Q1*
X115154761Y-104547619D02*
X115059523Y-104500000D01*
X114964285Y-104404761D01*
X114821428Y-104261904D01*
X114726190Y-104214285D01*
X114630952Y-104214285D01*
X114678571Y-104452380D02*
X114583333Y-104404761D01*
X114488095Y-104309523D01*
X114440476Y-104119047D01*
X114440476Y-103785714D01*
X114488095Y-103595238D01*
X114583333Y-103500000D01*
X114678571Y-103452380D01*
X114869047Y-103452380D01*
X114964285Y-103500000D01*
X115059523Y-103595238D01*
X115107142Y-103785714D01*
X115107142Y-104119047D01*
X115059523Y-104309523D01*
X114964285Y-104404761D01*
X114869047Y-104452380D01*
X114678571Y-104452380D01*
X116059523Y-104452380D02*
X115488095Y-104452380D01*
X115773809Y-104452380D02*
X115773809Y-103452380D01*
X115678571Y-103595238D01*
X115583333Y-103690476D01*
X115488095Y-103738095D01*
G04 #@! TO.C,Q2*
X150154761Y-104547619D02*
X150059523Y-104500000D01*
X149964285Y-104404761D01*
X149821428Y-104261904D01*
X149726190Y-104214285D01*
X149630952Y-104214285D01*
X149678571Y-104452380D02*
X149583333Y-104404761D01*
X149488095Y-104309523D01*
X149440476Y-104119047D01*
X149440476Y-103785714D01*
X149488095Y-103595238D01*
X149583333Y-103500000D01*
X149678571Y-103452380D01*
X149869047Y-103452380D01*
X149964285Y-103500000D01*
X150059523Y-103595238D01*
X150107142Y-103785714D01*
X150107142Y-104119047D01*
X150059523Y-104309523D01*
X149964285Y-104404761D01*
X149869047Y-104452380D01*
X149678571Y-104452380D01*
X150488095Y-103547619D02*
X150535714Y-103500000D01*
X150630952Y-103452380D01*
X150869047Y-103452380D01*
X150964285Y-103500000D01*
X151011904Y-103547619D01*
X151059523Y-103642857D01*
X151059523Y-103738095D01*
X151011904Y-103880952D01*
X150440476Y-104452380D01*
X151059523Y-104452380D01*
G04 #@! TO.C,R1*
X137583333Y-105952380D02*
X137250000Y-105476190D01*
X137011904Y-105952380D02*
X137011904Y-104952380D01*
X137392857Y-104952380D01*
X137488095Y-105000000D01*
X137535714Y-105047619D01*
X137583333Y-105142857D01*
X137583333Y-105285714D01*
X137535714Y-105380952D01*
X137488095Y-105428571D01*
X137392857Y-105476190D01*
X137011904Y-105476190D01*
X138535714Y-105952380D02*
X137964285Y-105952380D01*
X138250000Y-105952380D02*
X138250000Y-104952380D01*
X138154761Y-105095238D01*
X138059523Y-105190476D01*
X137964285Y-105238095D01*
G04 #@! TO.C,R2*
X137583333Y-95292380D02*
X137250000Y-94816190D01*
X137011904Y-95292380D02*
X137011904Y-94292380D01*
X137392857Y-94292380D01*
X137488095Y-94340000D01*
X137535714Y-94387619D01*
X137583333Y-94482857D01*
X137583333Y-94625714D01*
X137535714Y-94720952D01*
X137488095Y-94768571D01*
X137392857Y-94816190D01*
X137011904Y-94816190D01*
X137964285Y-94387619D02*
X138011904Y-94340000D01*
X138107142Y-94292380D01*
X138345238Y-94292380D01*
X138440476Y-94340000D01*
X138488095Y-94387619D01*
X138535714Y-94482857D01*
X138535714Y-94578095D01*
X138488095Y-94720952D01*
X137916666Y-95292380D01*
X138535714Y-95292380D01*
G04 #@! TO.C,R4*
X127583333Y-105952380D02*
X127250000Y-105476190D01*
X127011904Y-105952380D02*
X127011904Y-104952380D01*
X127392857Y-104952380D01*
X127488095Y-105000000D01*
X127535714Y-105047619D01*
X127583333Y-105142857D01*
X127583333Y-105285714D01*
X127535714Y-105380952D01*
X127488095Y-105428571D01*
X127392857Y-105476190D01*
X127011904Y-105476190D01*
X128440476Y-105285714D02*
X128440476Y-105952380D01*
X128202380Y-104904761D02*
X127964285Y-105619047D01*
X128583333Y-105619047D01*
G04 #@! TO.C,R5*
X95703381Y-96377665D02*
X95227191Y-96710999D01*
X95703381Y-96949094D02*
X94703381Y-96949094D01*
X94703381Y-96568141D01*
X94751001Y-96472903D01*
X94798620Y-96425284D01*
X94893858Y-96377665D01*
X95036715Y-96377665D01*
X95131953Y-96425284D01*
X95179572Y-96472903D01*
X95227191Y-96568141D01*
X95227191Y-96949094D01*
X94703381Y-95472903D02*
X94703381Y-95949094D01*
X95179572Y-95996713D01*
X95131953Y-95949094D01*
X95084334Y-95853856D01*
X95084334Y-95615760D01*
X95131953Y-95520522D01*
X95179572Y-95472903D01*
X95274810Y-95425284D01*
X95512905Y-95425284D01*
X95608143Y-95472903D01*
X95655762Y-95520522D01*
X95703381Y-95615760D01*
X95703381Y-95853856D01*
X95655762Y-95949094D01*
X95608143Y-95996713D01*
G04 #@! TO.C,R6*
X105083333Y-94202380D02*
X104750000Y-93726190D01*
X104511904Y-94202380D02*
X104511904Y-93202380D01*
X104892857Y-93202380D01*
X104988095Y-93250000D01*
X105035714Y-93297619D01*
X105083333Y-93392857D01*
X105083333Y-93535714D01*
X105035714Y-93630952D01*
X104988095Y-93678571D01*
X104892857Y-93726190D01*
X104511904Y-93726190D01*
X105940476Y-93202380D02*
X105750000Y-93202380D01*
X105654761Y-93250000D01*
X105607142Y-93297619D01*
X105511904Y-93440476D01*
X105464285Y-93630952D01*
X105464285Y-94011904D01*
X105511904Y-94107142D01*
X105559523Y-94154761D01*
X105654761Y-94202380D01*
X105845238Y-94202380D01*
X105940476Y-94154761D01*
X105988095Y-94107142D01*
X106035714Y-94011904D01*
X106035714Y-93773809D01*
X105988095Y-93678571D01*
X105940476Y-93630952D01*
X105845238Y-93583333D01*
X105654761Y-93583333D01*
X105559523Y-93630952D01*
X105511904Y-93678571D01*
X105464285Y-93773809D01*
G04 #@! TO.C,R7*
X160083333Y-94202380D02*
X159750000Y-93726190D01*
X159511904Y-94202380D02*
X159511904Y-93202380D01*
X159892857Y-93202380D01*
X159988095Y-93250000D01*
X160035714Y-93297619D01*
X160083333Y-93392857D01*
X160083333Y-93535714D01*
X160035714Y-93630952D01*
X159988095Y-93678571D01*
X159892857Y-93726190D01*
X159511904Y-93726190D01*
X160416666Y-93202380D02*
X161083333Y-93202380D01*
X160654761Y-94202380D01*
G04 #@! TO.C,R8*
X132548333Y-89952380D02*
X132215000Y-89476190D01*
X131976904Y-89952380D02*
X131976904Y-88952380D01*
X132357857Y-88952380D01*
X132453095Y-89000000D01*
X132500714Y-89047619D01*
X132548333Y-89142857D01*
X132548333Y-89285714D01*
X132500714Y-89380952D01*
X132453095Y-89428571D01*
X132357857Y-89476190D01*
X131976904Y-89476190D01*
X133119761Y-89380952D02*
X133024523Y-89333333D01*
X132976904Y-89285714D01*
X132929285Y-89190476D01*
X132929285Y-89142857D01*
X132976904Y-89047619D01*
X133024523Y-89000000D01*
X133119761Y-88952380D01*
X133310238Y-88952380D01*
X133405476Y-89000000D01*
X133453095Y-89047619D01*
X133500714Y-89142857D01*
X133500714Y-89190476D01*
X133453095Y-89285714D01*
X133405476Y-89333333D01*
X133310238Y-89380952D01*
X133119761Y-89380952D01*
X133024523Y-89428571D01*
X132976904Y-89476190D01*
X132929285Y-89571428D01*
X132929285Y-89761904D01*
X132976904Y-89857142D01*
X133024523Y-89904761D01*
X133119761Y-89952380D01*
X133310238Y-89952380D01*
X133405476Y-89904761D01*
X133453095Y-89857142D01*
X133500714Y-89761904D01*
X133500714Y-89571428D01*
X133453095Y-89476190D01*
X133405476Y-89428571D01*
X133310238Y-89380952D01*
G04 #@! TD*
M02*
