G04 #@! TF.GenerationSoftware,KiCad,Pcbnew,(5.1.7)-1*
G04 #@! TF.CreationDate,2022-04-10T16:21:18-05:00*
G04 #@! TF.ProjectId,ConsolePedalFuzzSMT,436f6e73-6f6c-4655-9065-64616c46757a,rev?*
G04 #@! TF.SameCoordinates,Original*
G04 #@! TF.FileFunction,Paste,Top*
G04 #@! TF.FilePolarity,Positive*
%FSLAX46Y46*%
G04 Gerber Fmt 4.6, Leading zero omitted, Abs format (unit mm)*
G04 Created by KiCad (PCBNEW (5.1.7)-1) date 2022-04-10 16:21:18*
%MOMM*%
%LPD*%
G01*
G04 APERTURE LIST*
%ADD10R,0.800000X0.900000*%
G04 APERTURE END LIST*
G04 #@! TO.C,C1*
G36*
G01*
X94700000Y-81550000D02*
X95800000Y-81550000D01*
G75*
G02*
X96050000Y-81800000I0J-250000D01*
G01*
X96050000Y-84800000D01*
G75*
G02*
X95800000Y-85050000I-250000J0D01*
G01*
X94700000Y-85050000D01*
G75*
G02*
X94450000Y-84800000I0J250000D01*
G01*
X94450000Y-81800000D01*
G75*
G02*
X94700000Y-81550000I250000J0D01*
G01*
G37*
G36*
G01*
X94700000Y-75950000D02*
X95800000Y-75950000D01*
G75*
G02*
X96050000Y-76200000I0J-250000D01*
G01*
X96050000Y-79200000D01*
G75*
G02*
X95800000Y-79450000I-250000J0D01*
G01*
X94700000Y-79450000D01*
G75*
G02*
X94450000Y-79200000I0J250000D01*
G01*
X94450000Y-76200000D01*
G75*
G02*
X94700000Y-75950000I250000J0D01*
G01*
G37*
G04 #@! TD*
G04 #@! TO.C,C2*
G36*
G01*
X126525000Y-96520000D02*
X126525000Y-96020000D01*
G75*
G02*
X126750000Y-95795000I225000J0D01*
G01*
X127200000Y-95795000D01*
G75*
G02*
X127425000Y-96020000I0J-225000D01*
G01*
X127425000Y-96520000D01*
G75*
G02*
X127200000Y-96745000I-225000J0D01*
G01*
X126750000Y-96745000D01*
G75*
G02*
X126525000Y-96520000I0J225000D01*
G01*
G37*
G36*
G01*
X128075000Y-96520000D02*
X128075000Y-96020000D01*
G75*
G02*
X128300000Y-95795000I225000J0D01*
G01*
X128750000Y-95795000D01*
G75*
G02*
X128975000Y-96020000I0J-225000D01*
G01*
X128975000Y-96520000D01*
G75*
G02*
X128750000Y-96745000I-225000J0D01*
G01*
X128300000Y-96745000D01*
G75*
G02*
X128075000Y-96520000I0J225000D01*
G01*
G37*
G04 #@! TD*
G04 #@! TO.C,C3*
G36*
G01*
X169700000Y-75950000D02*
X170800000Y-75950000D01*
G75*
G02*
X171050000Y-76200000I0J-250000D01*
G01*
X171050000Y-79200000D01*
G75*
G02*
X170800000Y-79450000I-250000J0D01*
G01*
X169700000Y-79450000D01*
G75*
G02*
X169450000Y-79200000I0J250000D01*
G01*
X169450000Y-76200000D01*
G75*
G02*
X169700000Y-75950000I250000J0D01*
G01*
G37*
G36*
G01*
X169700000Y-81550000D02*
X170800000Y-81550000D01*
G75*
G02*
X171050000Y-81800000I0J-250000D01*
G01*
X171050000Y-84800000D01*
G75*
G02*
X170800000Y-85050000I-250000J0D01*
G01*
X169700000Y-85050000D01*
G75*
G02*
X169450000Y-84800000I0J250000D01*
G01*
X169450000Y-81800000D01*
G75*
G02*
X169700000Y-81550000I250000J0D01*
G01*
G37*
G04 #@! TD*
D10*
G04 #@! TO.C,Q1*
X116200000Y-106000000D03*
X114300000Y-106000000D03*
X115250000Y-108000000D03*
G04 #@! TD*
G04 #@! TO.C,Q2*
X150250000Y-108000000D03*
X149300000Y-106000000D03*
X151200000Y-106000000D03*
G04 #@! TD*
G04 #@! TO.C,R1*
G36*
G01*
X137325000Y-106725000D02*
X137325000Y-107275000D01*
G75*
G02*
X137125000Y-107475000I-200000J0D01*
G01*
X136725000Y-107475000D01*
G75*
G02*
X136525000Y-107275000I0J200000D01*
G01*
X136525000Y-106725000D01*
G75*
G02*
X136725000Y-106525000I200000J0D01*
G01*
X137125000Y-106525000D01*
G75*
G02*
X137325000Y-106725000I0J-200000D01*
G01*
G37*
G36*
G01*
X138975000Y-106725000D02*
X138975000Y-107275000D01*
G75*
G02*
X138775000Y-107475000I-200000J0D01*
G01*
X138375000Y-107475000D01*
G75*
G02*
X138175000Y-107275000I0J200000D01*
G01*
X138175000Y-106725000D01*
G75*
G02*
X138375000Y-106525000I200000J0D01*
G01*
X138775000Y-106525000D01*
G75*
G02*
X138975000Y-106725000I0J-200000D01*
G01*
G37*
G04 #@! TD*
G04 #@! TO.C,R2*
G36*
G01*
X136525000Y-96545000D02*
X136525000Y-95995000D01*
G75*
G02*
X136725000Y-95795000I200000J0D01*
G01*
X137125000Y-95795000D01*
G75*
G02*
X137325000Y-95995000I0J-200000D01*
G01*
X137325000Y-96545000D01*
G75*
G02*
X137125000Y-96745000I-200000J0D01*
G01*
X136725000Y-96745000D01*
G75*
G02*
X136525000Y-96545000I0J200000D01*
G01*
G37*
G36*
G01*
X138175000Y-96545000D02*
X138175000Y-95995000D01*
G75*
G02*
X138375000Y-95795000I200000J0D01*
G01*
X138775000Y-95795000D01*
G75*
G02*
X138975000Y-95995000I0J-200000D01*
G01*
X138975000Y-96545000D01*
G75*
G02*
X138775000Y-96745000I-200000J0D01*
G01*
X138375000Y-96745000D01*
G75*
G02*
X138175000Y-96545000I0J200000D01*
G01*
G37*
G04 #@! TD*
G04 #@! TO.C,R4*
G36*
G01*
X128175000Y-107275000D02*
X128175000Y-106725000D01*
G75*
G02*
X128375000Y-106525000I200000J0D01*
G01*
X128775000Y-106525000D01*
G75*
G02*
X128975000Y-106725000I0J-200000D01*
G01*
X128975000Y-107275000D01*
G75*
G02*
X128775000Y-107475000I-200000J0D01*
G01*
X128375000Y-107475000D01*
G75*
G02*
X128175000Y-107275000I0J200000D01*
G01*
G37*
G36*
G01*
X126525000Y-107275000D02*
X126525000Y-106725000D01*
G75*
G02*
X126725000Y-106525000I200000J0D01*
G01*
X127125000Y-106525000D01*
G75*
G02*
X127325000Y-106725000I0J-200000D01*
G01*
X127325000Y-107275000D01*
G75*
G02*
X127125000Y-107475000I-200000J0D01*
G01*
X126725000Y-107475000D01*
G75*
G02*
X126525000Y-107275000I0J200000D01*
G01*
G37*
G04 #@! TD*
G04 #@! TO.C,R6*
G36*
G01*
X104975000Y-95045000D02*
X105525000Y-95045000D01*
G75*
G02*
X105725000Y-95245000I0J-200000D01*
G01*
X105725000Y-95645000D01*
G75*
G02*
X105525000Y-95845000I-200000J0D01*
G01*
X104975000Y-95845000D01*
G75*
G02*
X104775000Y-95645000I0J200000D01*
G01*
X104775000Y-95245000D01*
G75*
G02*
X104975000Y-95045000I200000J0D01*
G01*
G37*
G36*
G01*
X104975000Y-96695000D02*
X105525000Y-96695000D01*
G75*
G02*
X105725000Y-96895000I0J-200000D01*
G01*
X105725000Y-97295000D01*
G75*
G02*
X105525000Y-97495000I-200000J0D01*
G01*
X104975000Y-97495000D01*
G75*
G02*
X104775000Y-97295000I0J200000D01*
G01*
X104775000Y-96895000D01*
G75*
G02*
X104975000Y-96695000I200000J0D01*
G01*
G37*
G04 #@! TD*
G04 #@! TO.C,R7*
G36*
G01*
X160525000Y-95845000D02*
X159975000Y-95845000D01*
G75*
G02*
X159775000Y-95645000I0J200000D01*
G01*
X159775000Y-95245000D01*
G75*
G02*
X159975000Y-95045000I200000J0D01*
G01*
X160525000Y-95045000D01*
G75*
G02*
X160725000Y-95245000I0J-200000D01*
G01*
X160725000Y-95645000D01*
G75*
G02*
X160525000Y-95845000I-200000J0D01*
G01*
G37*
G36*
G01*
X160525000Y-97495000D02*
X159975000Y-97495000D01*
G75*
G02*
X159775000Y-97295000I0J200000D01*
G01*
X159775000Y-96895000D01*
G75*
G02*
X159975000Y-96695000I200000J0D01*
G01*
X160525000Y-96695000D01*
G75*
G02*
X160725000Y-96895000I0J-200000D01*
G01*
X160725000Y-97295000D01*
G75*
G02*
X160525000Y-97495000I-200000J0D01*
G01*
G37*
G04 #@! TD*
G04 #@! TO.C,R8*
G36*
G01*
X133940000Y-90725000D02*
X133940000Y-91275000D01*
G75*
G02*
X133740000Y-91475000I-200000J0D01*
G01*
X133340000Y-91475000D01*
G75*
G02*
X133140000Y-91275000I0J200000D01*
G01*
X133140000Y-90725000D01*
G75*
G02*
X133340000Y-90525000I200000J0D01*
G01*
X133740000Y-90525000D01*
G75*
G02*
X133940000Y-90725000I0J-200000D01*
G01*
G37*
G36*
G01*
X132290000Y-90725000D02*
X132290000Y-91275000D01*
G75*
G02*
X132090000Y-91475000I-200000J0D01*
G01*
X131690000Y-91475000D01*
G75*
G02*
X131490000Y-91275000I0J200000D01*
G01*
X131490000Y-90725000D01*
G75*
G02*
X131690000Y-90525000I200000J0D01*
G01*
X132090000Y-90525000D01*
G75*
G02*
X132290000Y-90725000I0J-200000D01*
G01*
G37*
G04 #@! TD*
M02*
