M48
; DRILL file {KiCad (5.1.7)-1} date 10/05/21 16:32:55
; FORMAT={-:-/ absolute / inch / decimal}
; #@! TF.CreationDate,2021-10-05T16:32:55-05:00
; #@! TF.GenerationSoftware,Kicad,Pcbnew,(5.1.7)-1
; #@! TF.FileFunction,Plated,1,2,PTH
FMAT,2
INCH
T1C0.0157
T2C0.0295
T3C0.0315
T4C0.0354
T5C0.0394
T6C0.0433
T7C0.0984
%
G90
G05
T1
X3.35Y-3.05
X3.35Y-3.45
X3.55Y-2.85
X3.85Y-4.15
X4.025Y-3.96
X4.04Y-4.76
X4.075Y-4.325
X4.14Y-4.76
X4.225Y-4.575
X4.24Y-4.76
X4.25Y-4.375
X4.28Y-2.8
X4.34Y-4.075
X4.34Y-4.76
X4.365Y-3.535
X4.44Y-4.76
X4.45Y-4.375
X4.475Y-2.875
X4.5Y-3.1
X4.525Y-2.875
X4.525Y-3.625
X4.525Y-3.975
X4.54Y-4.76
X4.575Y-3.1
X4.675Y-4.425
X4.77Y-3.375
X4.94Y-3.28
X5.17Y-2.895
X5.29Y-4.54
X5.4Y-3.95
X5.6Y-4.45
X5.61Y-2.845
X5.65Y-4.215
X5.675Y-4.45
X5.775Y-4.275
X5.92Y-4.76
X5.9755Y-4.085
X6.02Y-4.76
X6.105Y-4.015
X6.12Y-4.76
X6.125Y-4.375
X6.16Y-4.015
X6.175Y-4.375
X6.18Y-4.625
X6.22Y-4.76
X6.275Y-4.475
X6.285Y-3.87
X6.3Y-4.025
X6.32Y-4.76
X6.35Y-4.025
X6.38Y-3.845
X6.4Y-3.605
X6.42Y-4.76
X6.725Y-3.975
X6.85Y-3.975
T2
X6.1713Y-3.79
X6.2213Y-3.79
X6.2713Y-3.79
X5.175Y-3.995
X5.225Y-3.995
X5.275Y-3.995
X4.1823Y-3.79
X4.2323Y-3.79
X4.2823Y-3.79
T3
X6.8602Y-3.6748
X6.8602Y-4.0748
X3.9862Y-4.17
X3.9862Y-4.57
X4.2657Y-4.2717
X4.2657Y-4.4685
X6.3386Y-4.17
X6.3386Y-4.57
X6.9744Y-4.2717
X6.9744Y-4.4685
X4.7638Y-3.6748
X4.7638Y-4.0748
X3.9862Y-3.6748
X3.9862Y-4.0748
X4.9264Y-3.4795
X4.9264Y-3.7795
X5.0264Y-3.4795
X5.0264Y-3.7795
X5.1264Y-3.4795
X5.1264Y-3.7795
X5.2264Y-3.4795
X5.2264Y-3.7795
X5.3264Y-3.4795
X5.3264Y-3.7795
X5.4264Y-3.4795
X5.4264Y-3.7795
X5.5264Y-3.4795
X5.5264Y-3.7795
X3.498Y-3.2283
X3.5768Y-3.2283
X5.689Y-3.6748
X5.689Y-4.0748
X5.565Y-2.935
X5.565Y-3.335
X3.5925Y-3.6748
X3.5925Y-4.0748
X6.0728Y-4.17
X6.0728Y-4.57
X5.025Y-4.28
X5.425Y-4.28
X4.1142Y-4.17
X4.1142Y-4.57
X5.128Y-4.3957
X5.3248Y-4.3957
X3.7205Y-3.6748
X3.7205Y-4.0748
X3.7539Y-3.2283
X3.8524Y-3.2283
X4.8878Y-2.935
X4.8878Y-3.335
X4.3799Y-4.17
X4.3799Y-4.57
X3.7205Y-4.17
X3.7205Y-4.57
X6.187Y-4.2717
X6.187Y-4.4685
X4.5079Y-4.17
X4.5079Y-4.57
X5.7654Y-2.8445
X6.0654Y-2.8445
X5.9449Y-4.17
X5.9449Y-4.57
X5.025Y-4.155
X5.425Y-4.155
X3.5925Y-4.17
X3.5925Y-4.57
X6.5807Y-4.2717
X6.5807Y-4.4685
X6.2854Y-3.2283
X6.3839Y-3.2283
X6.6004Y-3.2283
X6.6988Y-3.2283
X5.0764Y-2.865
X5.0764Y-2.965
X5.0764Y-3.065
X5.0764Y-3.165
X5.3764Y-2.865
X5.3764Y-2.965
X5.3764Y-3.065
X5.3764Y-3.165
X6.7323Y-3.6748
X6.7323Y-4.0748
X4.3874Y-2.8445
X4.6874Y-2.8445
X6.8957Y-3.2283
X6.9744Y-3.2283
X3.872Y-4.2717
X3.872Y-4.4685
X6.4665Y-4.17
X6.4665Y-4.57
X6.7323Y-4.17
X6.7323Y-4.57
X4.0689Y-3.2283
X4.1673Y-3.2283
X3.4783Y-4.2717
X3.4783Y-4.4685
X6.4665Y-3.6748
X6.4665Y-4.0748
X6.8602Y-4.17
X6.8602Y-4.57
T4
X4.5374Y-3.7402
X4.5374Y-3.8402
X5.9154Y-3.7402
X5.9154Y-3.8402
T5
X4.439Y-3.4449
X4.5374Y-3.4449
X4.6358Y-3.4449
X5.8169Y-3.4449
X5.9154Y-3.4449
X6.0138Y-3.4449
T6
X5.0264Y-3.335
X5.4264Y-3.335
T7
X7.0925Y-4.8268
X3.3602Y-4.8268
T0
M30
