G04 #@! TF.GenerationSoftware,KiCad,Pcbnew,(5.1.7)-1*
G04 #@! TF.CreationDate,2022-03-27T19:42:16-05:00*
G04 #@! TF.ProjectId,ConsolePedalBlueSoxSMT,436f6e73-6f6c-4655-9065-64616c426c75,rev?*
G04 #@! TF.SameCoordinates,Original*
G04 #@! TF.FileFunction,Legend,Top*
G04 #@! TF.FilePolarity,Positive*
%FSLAX46Y46*%
G04 Gerber Fmt 4.6, Leading zero omitted, Abs format (unit mm)*
G04 Created by KiCad (PCBNEW (5.1.7)-1) date 2022-03-27 19:42:16*
%MOMM*%
%LPD*%
G01*
G04 APERTURE LIST*
%ADD10C,0.150000*%
%ADD11C,0.250000*%
%ADD12C,0.120000*%
G04 APERTURE END LIST*
D10*
X152469047Y-73071428D02*
X153230952Y-73071428D01*
X147269047Y-73071428D02*
X148030952Y-73071428D01*
X147650000Y-73452380D02*
X147650000Y-72690476D01*
X112269047Y-73071428D02*
X113030952Y-73071428D01*
X117469047Y-73071428D02*
X118230952Y-73071428D01*
X117850000Y-73452380D02*
X117850000Y-72690476D01*
D11*
X147202380Y-90662142D02*
X147488095Y-90757380D01*
X147583333Y-90852619D01*
X147678571Y-91043095D01*
X147678571Y-91328809D01*
X147583333Y-91519285D01*
X147488095Y-91614523D01*
X147297619Y-91709761D01*
X146535714Y-91709761D01*
X146535714Y-89709761D01*
X147202380Y-89709761D01*
X147392857Y-89805000D01*
X147488095Y-89900238D01*
X147583333Y-90090714D01*
X147583333Y-90281190D01*
X147488095Y-90471666D01*
X147392857Y-90566904D01*
X147202380Y-90662142D01*
X146535714Y-90662142D01*
X148821428Y-91709761D02*
X148630952Y-91614523D01*
X148535714Y-91424047D01*
X148535714Y-89709761D01*
X150345238Y-91614523D02*
X150154761Y-91709761D01*
X149773809Y-91709761D01*
X149583333Y-91614523D01*
X149488095Y-91424047D01*
X149488095Y-90662142D01*
X149583333Y-90471666D01*
X149773809Y-90376428D01*
X150154761Y-90376428D01*
X150345238Y-90471666D01*
X150440476Y-90662142D01*
X150440476Y-90852619D01*
X149488095Y-91043095D01*
X151297619Y-90376428D02*
X151297619Y-91709761D01*
X151297619Y-90566904D02*
X151392857Y-90471666D01*
X151583333Y-90376428D01*
X151869047Y-90376428D01*
X152059523Y-90471666D01*
X152154761Y-90662142D01*
X152154761Y-91709761D01*
X153964285Y-91709761D02*
X153964285Y-89709761D01*
X153964285Y-91614523D02*
X153773809Y-91709761D01*
X153392857Y-91709761D01*
X153202380Y-91614523D01*
X153107142Y-91519285D01*
X153011904Y-91328809D01*
X153011904Y-90757380D01*
X153107142Y-90566904D01*
X153202380Y-90471666D01*
X153392857Y-90376428D01*
X153773809Y-90376428D01*
X153964285Y-90471666D01*
X110059523Y-89709761D02*
X110726190Y-91709761D01*
X111392857Y-89709761D01*
X112345238Y-91709761D02*
X112154761Y-91614523D01*
X112059523Y-91519285D01*
X111964285Y-91328809D01*
X111964285Y-90757380D01*
X112059523Y-90566904D01*
X112154761Y-90471666D01*
X112345238Y-90376428D01*
X112630952Y-90376428D01*
X112821428Y-90471666D01*
X112916666Y-90566904D01*
X113011904Y-90757380D01*
X113011904Y-91328809D01*
X112916666Y-91519285D01*
X112821428Y-91614523D01*
X112630952Y-91709761D01*
X112345238Y-91709761D01*
X114154761Y-91709761D02*
X113964285Y-91614523D01*
X113869047Y-91424047D01*
X113869047Y-89709761D01*
X115773809Y-90376428D02*
X115773809Y-91709761D01*
X114916666Y-90376428D02*
X114916666Y-91424047D01*
X115011904Y-91614523D01*
X115202380Y-91709761D01*
X115488095Y-91709761D01*
X115678571Y-91614523D01*
X115773809Y-91519285D01*
X116726190Y-91709761D02*
X116726190Y-90376428D01*
X116726190Y-90566904D02*
X116821428Y-90471666D01*
X117011904Y-90376428D01*
X117297619Y-90376428D01*
X117488095Y-90471666D01*
X117583333Y-90662142D01*
X117583333Y-91709761D01*
X117583333Y-90662142D02*
X117678571Y-90471666D01*
X117869047Y-90376428D01*
X118154761Y-90376428D01*
X118345238Y-90471666D01*
X118440476Y-90662142D01*
X118440476Y-91709761D01*
X120154761Y-91614523D02*
X119964285Y-91709761D01*
X119583333Y-91709761D01*
X119392857Y-91614523D01*
X119297619Y-91424047D01*
X119297619Y-90662142D01*
X119392857Y-90471666D01*
X119583333Y-90376428D01*
X119964285Y-90376428D01*
X120154761Y-90471666D01*
X120250000Y-90662142D01*
X120250000Y-90852619D01*
X119297619Y-91043095D01*
D10*
X111158857Y-76723142D02*
X111158857Y-77366000D01*
X111116000Y-77494571D01*
X111030285Y-77580285D01*
X110901714Y-77623142D01*
X110816000Y-77623142D01*
X112016000Y-77623142D02*
X111587428Y-77623142D01*
X111587428Y-76723142D01*
X112830285Y-77537428D02*
X112787428Y-77580285D01*
X112658857Y-77623142D01*
X112573142Y-77623142D01*
X112444571Y-77580285D01*
X112358857Y-77494571D01*
X112316000Y-77408857D01*
X112273142Y-77237428D01*
X112273142Y-77108857D01*
X112316000Y-76937428D01*
X112358857Y-76851714D01*
X112444571Y-76766000D01*
X112573142Y-76723142D01*
X112658857Y-76723142D01*
X112787428Y-76766000D01*
X112830285Y-76808857D01*
X113473142Y-76723142D02*
X113473142Y-77366000D01*
X113430285Y-77494571D01*
X113344571Y-77580285D01*
X113216000Y-77623142D01*
X113130285Y-77623142D01*
X114330285Y-77623142D02*
X113901714Y-77623142D01*
X113901714Y-76723142D01*
X115144571Y-77537428D02*
X115101714Y-77580285D01*
X114973142Y-77623142D01*
X114887428Y-77623142D01*
X114758857Y-77580285D01*
X114673142Y-77494571D01*
X114630285Y-77408857D01*
X114587428Y-77237428D01*
X114587428Y-77108857D01*
X114630285Y-76937428D01*
X114673142Y-76851714D01*
X114758857Y-76766000D01*
X114887428Y-76723142D01*
X114973142Y-76723142D01*
X115101714Y-76766000D01*
X115144571Y-76808857D01*
X115787428Y-76723142D02*
X115787428Y-77366000D01*
X115744571Y-77494571D01*
X115658857Y-77580285D01*
X115530285Y-77623142D01*
X115444571Y-77623142D01*
X116644571Y-77623142D02*
X116216000Y-77623142D01*
X116216000Y-76723142D01*
X117458857Y-77537428D02*
X117416000Y-77580285D01*
X117287428Y-77623142D01*
X117201714Y-77623142D01*
X117073142Y-77580285D01*
X116987428Y-77494571D01*
X116944571Y-77408857D01*
X116901714Y-77237428D01*
X116901714Y-77108857D01*
X116944571Y-76937428D01*
X116987428Y-76851714D01*
X117073142Y-76766000D01*
X117201714Y-76723142D01*
X117287428Y-76723142D01*
X117416000Y-76766000D01*
X117458857Y-76808857D01*
X118101714Y-76723142D02*
X118101714Y-77366000D01*
X118058857Y-77494571D01*
X117973142Y-77580285D01*
X117844571Y-77623142D01*
X117758857Y-77623142D01*
X118958857Y-77623142D02*
X118530285Y-77623142D01*
X118530285Y-76723142D01*
X119773142Y-77537428D02*
X119730285Y-77580285D01*
X119601714Y-77623142D01*
X119516000Y-77623142D01*
X119387428Y-77580285D01*
X119301714Y-77494571D01*
X119258857Y-77408857D01*
X119216000Y-77237428D01*
X119216000Y-77108857D01*
X119258857Y-76937428D01*
X119301714Y-76851714D01*
X119387428Y-76766000D01*
X119516000Y-76723142D01*
X119601714Y-76723142D01*
X119730285Y-76766000D01*
X119773142Y-76808857D01*
D11*
X122857142Y-121177857D02*
X123071428Y-121249285D01*
X123142857Y-121320714D01*
X123214285Y-121463571D01*
X123214285Y-121677857D01*
X123142857Y-121820714D01*
X123071428Y-121892142D01*
X122928571Y-121963571D01*
X122357142Y-121963571D01*
X122357142Y-120463571D01*
X122857142Y-120463571D01*
X123000000Y-120535000D01*
X123071428Y-120606428D01*
X123142857Y-120749285D01*
X123142857Y-120892142D01*
X123071428Y-121035000D01*
X123000000Y-121106428D01*
X122857142Y-121177857D01*
X122357142Y-121177857D01*
X124071428Y-121963571D02*
X123928571Y-121892142D01*
X123857142Y-121749285D01*
X123857142Y-120463571D01*
X125285714Y-120963571D02*
X125285714Y-121963571D01*
X124642857Y-120963571D02*
X124642857Y-121749285D01*
X124714285Y-121892142D01*
X124857142Y-121963571D01*
X125071428Y-121963571D01*
X125214285Y-121892142D01*
X125285714Y-121820714D01*
X126571428Y-121892142D02*
X126428571Y-121963571D01*
X126142857Y-121963571D01*
X126000000Y-121892142D01*
X125928571Y-121749285D01*
X125928571Y-121177857D01*
X126000000Y-121035000D01*
X126142857Y-120963571D01*
X126428571Y-120963571D01*
X126571428Y-121035000D01*
X126642857Y-121177857D01*
X126642857Y-121320714D01*
X125928571Y-121463571D01*
X128357142Y-121892142D02*
X128571428Y-121963571D01*
X128928571Y-121963571D01*
X129071428Y-121892142D01*
X129142857Y-121820714D01*
X129214285Y-121677857D01*
X129214285Y-121535000D01*
X129142857Y-121392142D01*
X129071428Y-121320714D01*
X128928571Y-121249285D01*
X128642857Y-121177857D01*
X128500000Y-121106428D01*
X128428571Y-121035000D01*
X128357142Y-120892142D01*
X128357142Y-120749285D01*
X128428571Y-120606428D01*
X128500000Y-120535000D01*
X128642857Y-120463571D01*
X129000000Y-120463571D01*
X129214285Y-120535000D01*
X130071428Y-121963571D02*
X129928571Y-121892142D01*
X129857142Y-121820714D01*
X129785714Y-121677857D01*
X129785714Y-121249285D01*
X129857142Y-121106428D01*
X129928571Y-121035000D01*
X130071428Y-120963571D01*
X130285714Y-120963571D01*
X130428571Y-121035000D01*
X130500000Y-121106428D01*
X130571428Y-121249285D01*
X130571428Y-121677857D01*
X130500000Y-121820714D01*
X130428571Y-121892142D01*
X130285714Y-121963571D01*
X130071428Y-121963571D01*
X131071428Y-121963571D02*
X131857142Y-120963571D01*
X131071428Y-120963571D02*
X131857142Y-121963571D01*
X133500000Y-121892142D02*
X133714285Y-121963571D01*
X134071428Y-121963571D01*
X134214285Y-121892142D01*
X134285714Y-121820714D01*
X134357142Y-121677857D01*
X134357142Y-121535000D01*
X134285714Y-121392142D01*
X134214285Y-121320714D01*
X134071428Y-121249285D01*
X133785714Y-121177857D01*
X133642857Y-121106428D01*
X133571428Y-121035000D01*
X133500000Y-120892142D01*
X133500000Y-120749285D01*
X133571428Y-120606428D01*
X133642857Y-120535000D01*
X133785714Y-120463571D01*
X134142857Y-120463571D01*
X134357142Y-120535000D01*
X135000000Y-121963571D02*
X135000000Y-120463571D01*
X135500000Y-121535000D01*
X136000000Y-120463571D01*
X136000000Y-121963571D01*
X136500000Y-120463571D02*
X137357142Y-120463571D01*
X136928571Y-121963571D02*
X136928571Y-120463571D01*
X138785714Y-120463571D02*
X139285714Y-121963571D01*
X139785714Y-120463571D01*
X141071428Y-121963571D02*
X140214285Y-121963571D01*
X140642857Y-121963571D02*
X140642857Y-120463571D01*
X140500000Y-120677857D01*
X140357142Y-120820714D01*
X140214285Y-120892142D01*
X141714285Y-121820714D02*
X141785714Y-121892142D01*
X141714285Y-121963571D01*
X141642857Y-121892142D01*
X141714285Y-121820714D01*
X141714285Y-121963571D01*
X142714285Y-120463571D02*
X142857142Y-120463571D01*
X143000000Y-120535000D01*
X143071428Y-120606428D01*
X143142857Y-120749285D01*
X143214285Y-121035000D01*
X143214285Y-121392142D01*
X143142857Y-121677857D01*
X143071428Y-121820714D01*
X143000000Y-121892142D01*
X142857142Y-121963571D01*
X142714285Y-121963571D01*
X142571428Y-121892142D01*
X142500000Y-121820714D01*
X142428571Y-121677857D01*
X142357142Y-121392142D01*
X142357142Y-121035000D01*
X142428571Y-120749285D01*
X142500000Y-120606428D01*
X142571428Y-120535000D01*
X142714285Y-120463571D01*
X119000714Y-113103761D02*
X120143571Y-113103761D01*
X119572142Y-115103761D02*
X119572142Y-113103761D01*
X120810238Y-115103761D02*
X120810238Y-113103761D01*
X121667380Y-115103761D02*
X121667380Y-114056142D01*
X121572142Y-113865666D01*
X121381666Y-113770428D01*
X121095952Y-113770428D01*
X120905476Y-113865666D01*
X120810238Y-113960904D01*
X122905476Y-115103761D02*
X122715000Y-115008523D01*
X122619761Y-114913285D01*
X122524523Y-114722809D01*
X122524523Y-114151380D01*
X122619761Y-113960904D01*
X122715000Y-113865666D01*
X122905476Y-113770428D01*
X123191190Y-113770428D01*
X123381666Y-113865666D01*
X123476904Y-113960904D01*
X123572142Y-114151380D01*
X123572142Y-114722809D01*
X123476904Y-114913285D01*
X123381666Y-115008523D01*
X123191190Y-115103761D01*
X122905476Y-115103761D01*
X124429285Y-115103761D02*
X124429285Y-113770428D01*
X124429285Y-113960904D02*
X124524523Y-113865666D01*
X124715000Y-113770428D01*
X125000714Y-113770428D01*
X125191190Y-113865666D01*
X125286428Y-114056142D01*
X125286428Y-115103761D01*
X125286428Y-114056142D02*
X125381666Y-113865666D01*
X125572142Y-113770428D01*
X125857857Y-113770428D01*
X126048333Y-113865666D01*
X126143571Y-114056142D01*
X126143571Y-115103761D01*
X127953095Y-115103761D02*
X127953095Y-114056142D01*
X127857857Y-113865666D01*
X127667380Y-113770428D01*
X127286428Y-113770428D01*
X127095952Y-113865666D01*
X127953095Y-115008523D02*
X127762619Y-115103761D01*
X127286428Y-115103761D01*
X127095952Y-115008523D01*
X127000714Y-114818047D01*
X127000714Y-114627571D01*
X127095952Y-114437095D01*
X127286428Y-114341857D01*
X127762619Y-114341857D01*
X127953095Y-114246619D01*
X128810238Y-115008523D02*
X129000714Y-115103761D01*
X129381666Y-115103761D01*
X129572142Y-115008523D01*
X129667380Y-114818047D01*
X129667380Y-114722809D01*
X129572142Y-114532333D01*
X129381666Y-114437095D01*
X129095952Y-114437095D01*
X128905476Y-114341857D01*
X128810238Y-114151380D01*
X128810238Y-114056142D01*
X128905476Y-113865666D01*
X129095952Y-113770428D01*
X129381666Y-113770428D01*
X129572142Y-113865666D01*
X132048333Y-115103761D02*
X132048333Y-113103761D01*
X132715000Y-114532333D01*
X133381666Y-113103761D01*
X133381666Y-115103761D01*
X135191190Y-115008523D02*
X135000714Y-115103761D01*
X134619761Y-115103761D01*
X134429285Y-115008523D01*
X134334047Y-114913285D01*
X134238809Y-114722809D01*
X134238809Y-114151380D01*
X134334047Y-113960904D01*
X134429285Y-113865666D01*
X134619761Y-113770428D01*
X135000714Y-113770428D01*
X135191190Y-113865666D01*
X136048333Y-115103761D02*
X136048333Y-113103761D01*
X136524523Y-113103761D01*
X136810238Y-113199000D01*
X137000714Y-113389476D01*
X137095952Y-113579952D01*
X137191190Y-113960904D01*
X137191190Y-114246619D01*
X137095952Y-114627571D01*
X137000714Y-114818047D01*
X136810238Y-115008523D01*
X136524523Y-115103761D01*
X136048333Y-115103761D01*
X138334047Y-115103761D02*
X138143571Y-115008523D01*
X138048333Y-114913285D01*
X137953095Y-114722809D01*
X137953095Y-114151380D01*
X138048333Y-113960904D01*
X138143571Y-113865666D01*
X138334047Y-113770428D01*
X138619761Y-113770428D01*
X138810238Y-113865666D01*
X138905476Y-113960904D01*
X139000714Y-114151380D01*
X139000714Y-114722809D01*
X138905476Y-114913285D01*
X138810238Y-115008523D01*
X138619761Y-115103761D01*
X138334047Y-115103761D01*
X139857857Y-113770428D02*
X139857857Y-115103761D01*
X139857857Y-113960904D02*
X139953095Y-113865666D01*
X140143571Y-113770428D01*
X140429285Y-113770428D01*
X140619761Y-113865666D01*
X140715000Y-114056142D01*
X140715000Y-115103761D01*
X142524523Y-115103761D02*
X142524523Y-114056142D01*
X142429285Y-113865666D01*
X142238809Y-113770428D01*
X141857857Y-113770428D01*
X141667380Y-113865666D01*
X142524523Y-115008523D02*
X142334047Y-115103761D01*
X141857857Y-115103761D01*
X141667380Y-115008523D01*
X141572142Y-114818047D01*
X141572142Y-114627571D01*
X141667380Y-114437095D01*
X141857857Y-114341857D01*
X142334047Y-114341857D01*
X142524523Y-114246619D01*
X144334047Y-113770428D02*
X144334047Y-115389476D01*
X144238809Y-115579952D01*
X144143571Y-115675190D01*
X143953095Y-115770428D01*
X143667380Y-115770428D01*
X143476904Y-115675190D01*
X144334047Y-115008523D02*
X144143571Y-115103761D01*
X143762619Y-115103761D01*
X143572142Y-115008523D01*
X143476904Y-114913285D01*
X143381666Y-114722809D01*
X143381666Y-114151380D01*
X143476904Y-113960904D01*
X143572142Y-113865666D01*
X143762619Y-113770428D01*
X144143571Y-113770428D01*
X144334047Y-113865666D01*
X145286428Y-115103761D02*
X145286428Y-113103761D01*
X146143571Y-115103761D02*
X146143571Y-114056142D01*
X146048333Y-113865666D01*
X145857857Y-113770428D01*
X145572142Y-113770428D01*
X145381666Y-113865666D01*
X145286428Y-113960904D01*
X119810238Y-118258523D02*
X119619761Y-118353761D01*
X119238809Y-118353761D01*
X119048333Y-118258523D01*
X118953095Y-118163285D01*
X118857857Y-117972809D01*
X118857857Y-117401380D01*
X118953095Y-117210904D01*
X119048333Y-117115666D01*
X119238809Y-117020428D01*
X119619761Y-117020428D01*
X119810238Y-117115666D01*
X120953095Y-118353761D02*
X120762619Y-118258523D01*
X120667380Y-118163285D01*
X120572142Y-117972809D01*
X120572142Y-117401380D01*
X120667380Y-117210904D01*
X120762619Y-117115666D01*
X120953095Y-117020428D01*
X121238809Y-117020428D01*
X121429285Y-117115666D01*
X121524523Y-117210904D01*
X121619761Y-117401380D01*
X121619761Y-117972809D01*
X121524523Y-118163285D01*
X121429285Y-118258523D01*
X121238809Y-118353761D01*
X120953095Y-118353761D01*
X122476904Y-117020428D02*
X122476904Y-118353761D01*
X122476904Y-117210904D02*
X122572142Y-117115666D01*
X122762619Y-117020428D01*
X123048333Y-117020428D01*
X123238809Y-117115666D01*
X123334047Y-117306142D01*
X123334047Y-118353761D01*
X124191190Y-118258523D02*
X124381666Y-118353761D01*
X124762619Y-118353761D01*
X124953095Y-118258523D01*
X125048333Y-118068047D01*
X125048333Y-117972809D01*
X124953095Y-117782333D01*
X124762619Y-117687095D01*
X124476904Y-117687095D01*
X124286428Y-117591857D01*
X124191190Y-117401380D01*
X124191190Y-117306142D01*
X124286428Y-117115666D01*
X124476904Y-117020428D01*
X124762619Y-117020428D01*
X124953095Y-117115666D01*
X126191190Y-118353761D02*
X126000714Y-118258523D01*
X125905476Y-118163285D01*
X125810238Y-117972809D01*
X125810238Y-117401380D01*
X125905476Y-117210904D01*
X126000714Y-117115666D01*
X126191190Y-117020428D01*
X126476904Y-117020428D01*
X126667380Y-117115666D01*
X126762619Y-117210904D01*
X126857857Y-117401380D01*
X126857857Y-117972809D01*
X126762619Y-118163285D01*
X126667380Y-118258523D01*
X126476904Y-118353761D01*
X126191190Y-118353761D01*
X128000714Y-118353761D02*
X127810238Y-118258523D01*
X127715000Y-118068047D01*
X127715000Y-116353761D01*
X129524523Y-118258523D02*
X129334047Y-118353761D01*
X128953095Y-118353761D01*
X128762619Y-118258523D01*
X128667380Y-118068047D01*
X128667380Y-117306142D01*
X128762619Y-117115666D01*
X128953095Y-117020428D01*
X129334047Y-117020428D01*
X129524523Y-117115666D01*
X129619761Y-117306142D01*
X129619761Y-117496619D01*
X128667380Y-117687095D01*
X130476904Y-117020428D02*
X130476904Y-119020428D01*
X130476904Y-117115666D02*
X130667380Y-117020428D01*
X131048333Y-117020428D01*
X131238809Y-117115666D01*
X131334047Y-117210904D01*
X131429285Y-117401380D01*
X131429285Y-117972809D01*
X131334047Y-118163285D01*
X131238809Y-118258523D01*
X131048333Y-118353761D01*
X130667380Y-118353761D01*
X130476904Y-118258523D01*
X133048333Y-118258523D02*
X132857857Y-118353761D01*
X132476904Y-118353761D01*
X132286428Y-118258523D01*
X132191190Y-118068047D01*
X132191190Y-117306142D01*
X132286428Y-117115666D01*
X132476904Y-117020428D01*
X132857857Y-117020428D01*
X133048333Y-117115666D01*
X133143571Y-117306142D01*
X133143571Y-117496619D01*
X132191190Y-117687095D01*
X134857857Y-118353761D02*
X134857857Y-116353761D01*
X134857857Y-118258523D02*
X134667380Y-118353761D01*
X134286428Y-118353761D01*
X134095952Y-118258523D01*
X134000714Y-118163285D01*
X133905476Y-117972809D01*
X133905476Y-117401380D01*
X134000714Y-117210904D01*
X134095952Y-117115666D01*
X134286428Y-117020428D01*
X134667380Y-117020428D01*
X134857857Y-117115666D01*
X136667380Y-118353761D02*
X136667380Y-117306142D01*
X136572142Y-117115666D01*
X136381666Y-117020428D01*
X136000714Y-117020428D01*
X135810238Y-117115666D01*
X136667380Y-118258523D02*
X136476904Y-118353761D01*
X136000714Y-118353761D01*
X135810238Y-118258523D01*
X135715000Y-118068047D01*
X135715000Y-117877571D01*
X135810238Y-117687095D01*
X136000714Y-117591857D01*
X136476904Y-117591857D01*
X136667380Y-117496619D01*
X137905476Y-118353761D02*
X137715000Y-118258523D01*
X137619761Y-118068047D01*
X137619761Y-116353761D01*
X138572142Y-118258523D02*
X138762619Y-118353761D01*
X139143571Y-118353761D01*
X139334047Y-118258523D01*
X139429285Y-118068047D01*
X139429285Y-117972809D01*
X139334047Y-117782333D01*
X139143571Y-117687095D01*
X138857857Y-117687095D01*
X138667380Y-117591857D01*
X138572142Y-117401380D01*
X138572142Y-117306142D01*
X138667380Y-117115666D01*
X138857857Y-117020428D01*
X139143571Y-117020428D01*
X139334047Y-117115666D01*
X140286428Y-118163285D02*
X140381666Y-118258523D01*
X140286428Y-118353761D01*
X140191190Y-118258523D01*
X140286428Y-118163285D01*
X140286428Y-118353761D01*
X142095952Y-118258523D02*
X141905476Y-118353761D01*
X141524523Y-118353761D01*
X141334047Y-118258523D01*
X141238809Y-118163285D01*
X141143571Y-117972809D01*
X141143571Y-117401380D01*
X141238809Y-117210904D01*
X141334047Y-117115666D01*
X141524523Y-117020428D01*
X141905476Y-117020428D01*
X142095952Y-117115666D01*
X143238809Y-118353761D02*
X143048333Y-118258523D01*
X142953095Y-118163285D01*
X142857857Y-117972809D01*
X142857857Y-117401380D01*
X142953095Y-117210904D01*
X143048333Y-117115666D01*
X143238809Y-117020428D01*
X143524523Y-117020428D01*
X143715000Y-117115666D01*
X143810238Y-117210904D01*
X143905476Y-117401380D01*
X143905476Y-117972809D01*
X143810238Y-118163285D01*
X143715000Y-118258523D01*
X143524523Y-118353761D01*
X143238809Y-118353761D01*
X144762619Y-118353761D02*
X144762619Y-117020428D01*
X144762619Y-117210904D02*
X144857857Y-117115666D01*
X145048333Y-117020428D01*
X145334047Y-117020428D01*
X145524523Y-117115666D01*
X145619761Y-117306142D01*
X145619761Y-118353761D01*
X145619761Y-117306142D02*
X145715000Y-117115666D01*
X145905476Y-117020428D01*
X146191190Y-117020428D01*
X146381666Y-117115666D01*
X146476904Y-117306142D01*
X146476904Y-118353761D01*
D12*
G04 #@! TO.C,R21*
X111980000Y-100630000D02*
X111980000Y-103370000D01*
X111980000Y-103370000D02*
X118520000Y-103370000D01*
X118520000Y-103370000D02*
X118520000Y-100630000D01*
X118520000Y-100630000D02*
X111980000Y-100630000D01*
X111210000Y-102000000D02*
X111980000Y-102000000D01*
X119290000Y-102000000D02*
X118520000Y-102000000D01*
G04 #@! TO.C,D3*
X117750000Y-96270000D02*
G75*
G03*
X117750000Y-96270000I-2500000J0D01*
G01*
X116795000Y-93710000D02*
X113705000Y-93710000D01*
X115249538Y-99260000D02*
G75*
G03*
X116794830Y-93710000I462J2990000D01*
G01*
X115250462Y-99260000D02*
G75*
G02*
X113705170Y-93710000I-462J2990000D01*
G01*
G04 #@! TO.C,D4*
X151795000Y-93710000D02*
X148705000Y-93710000D01*
X152750000Y-96270000D02*
G75*
G03*
X152750000Y-96270000I-2500000J0D01*
G01*
X150250462Y-99260000D02*
G75*
G02*
X148705170Y-93710000I-462J2990000D01*
G01*
X150249538Y-99260000D02*
G75*
G03*
X151794830Y-93710000I462J2990000D01*
G01*
G04 #@! TO.C,RV1*
X145280000Y-86620000D02*
X145280000Y-82755000D01*
X145280000Y-78245000D02*
X145280000Y-74380000D01*
X155220000Y-86620000D02*
X155220000Y-82755000D01*
X155220000Y-78245000D02*
X155220000Y-74380000D01*
X145280000Y-86620000D02*
X146879000Y-86620000D01*
X148621000Y-86620000D02*
X149380000Y-86620000D01*
X151121000Y-86620000D02*
X151880000Y-86620000D01*
X153620000Y-86620000D02*
X155220000Y-86620000D01*
X145280000Y-74380000D02*
X155220000Y-74380000D01*
G04 #@! TO.C,RV2*
X110280000Y-74380000D02*
X120220000Y-74380000D01*
X118620000Y-86620000D02*
X120220000Y-86620000D01*
X116121000Y-86620000D02*
X116880000Y-86620000D01*
X113621000Y-86620000D02*
X114380000Y-86620000D01*
X110280000Y-86620000D02*
X111879000Y-86620000D01*
X120220000Y-78245000D02*
X120220000Y-74380000D01*
X120220000Y-86620000D02*
X120220000Y-82755000D01*
X110280000Y-78245000D02*
X110280000Y-74380000D01*
X110280000Y-86620000D02*
X110280000Y-82755000D01*
G04 #@! TO.C,C1*
X101740000Y-106859420D02*
X101740000Y-107140580D01*
X102760000Y-106859420D02*
X102760000Y-107140580D01*
G04 #@! TO.C,C2*
X124990000Y-83452580D02*
X124990000Y-83171420D01*
X126010000Y-83452580D02*
X126010000Y-83171420D01*
G04 #@! TO.C,C3*
X124260000Y-78140580D02*
X124260000Y-77859420D01*
X123240000Y-78140580D02*
X123240000Y-77859420D01*
G04 #@! TO.C,C4*
X104660000Y-77750000D02*
X104160000Y-77750000D01*
X104410000Y-77500000D02*
X104410000Y-78000000D01*
X101654437Y-78240000D02*
X100590000Y-79304437D01*
X104045563Y-78240000D02*
X105110000Y-79304437D01*
X104045563Y-78240000D02*
X103910000Y-78240000D01*
X101654437Y-78240000D02*
X101790000Y-78240000D01*
X100590000Y-79304437D02*
X100590000Y-82760000D01*
X105110000Y-79304437D02*
X105110000Y-82760000D01*
X105110000Y-82760000D02*
X103910000Y-82760000D01*
X100590000Y-82760000D02*
X101790000Y-82760000D01*
G04 #@! TO.C,C5*
X137609420Y-72490000D02*
X137890580Y-72490000D01*
X137609420Y-73510000D02*
X137890580Y-73510000D01*
G04 #@! TO.C,C6*
X88590000Y-82760000D02*
X89790000Y-82760000D01*
X93110000Y-82760000D02*
X91910000Y-82760000D01*
X93110000Y-79304437D02*
X93110000Y-82760000D01*
X88590000Y-79304437D02*
X88590000Y-82760000D01*
X89654437Y-78240000D02*
X89790000Y-78240000D01*
X92045563Y-78240000D02*
X91910000Y-78240000D01*
X92045563Y-78240000D02*
X93110000Y-79304437D01*
X89654437Y-78240000D02*
X88590000Y-79304437D01*
X92410000Y-77500000D02*
X92410000Y-78000000D01*
X92660000Y-77750000D02*
X92160000Y-77750000D01*
G04 #@! TO.C,C7*
X164460000Y-77750000D02*
X163960000Y-77750000D01*
X164210000Y-77500000D02*
X164210000Y-78000000D01*
X161454437Y-78240000D02*
X160390000Y-79304437D01*
X163845563Y-78240000D02*
X164910000Y-79304437D01*
X163845563Y-78240000D02*
X163710000Y-78240000D01*
X161454437Y-78240000D02*
X161590000Y-78240000D01*
X160390000Y-79304437D02*
X160390000Y-82760000D01*
X164910000Y-79304437D02*
X164910000Y-82760000D01*
X164910000Y-82760000D02*
X163710000Y-82760000D01*
X160390000Y-82760000D02*
X161590000Y-82760000D01*
G04 #@! TO.C,C8*
X137240000Y-107140580D02*
X137240000Y-106859420D01*
X138260000Y-107140580D02*
X138260000Y-106859420D01*
G04 #@! TO.C,C9*
X142240000Y-106859420D02*
X142240000Y-107140580D01*
X143260000Y-106859420D02*
X143260000Y-107140580D01*
G04 #@! TO.C,C10*
X126740000Y-78140580D02*
X126740000Y-77859420D01*
X127760000Y-78140580D02*
X127760000Y-77859420D01*
G04 #@! TO.C,C100*
X176891250Y-76456250D02*
X176103750Y-76456250D01*
X176497500Y-76062500D02*
X176497500Y-76850000D01*
X172304437Y-77090000D02*
X171240000Y-78154437D01*
X176995563Y-77090000D02*
X178060000Y-78154437D01*
X176995563Y-77090000D02*
X175710000Y-77090000D01*
X172304437Y-77090000D02*
X173590000Y-77090000D01*
X171240000Y-78154437D02*
X171240000Y-83910000D01*
X178060000Y-78154437D02*
X178060000Y-83910000D01*
X178060000Y-83910000D02*
X175710000Y-83910000D01*
X171240000Y-83910000D02*
X173590000Y-83910000D01*
G04 #@! TO.C,C101*
X120990000Y-98260000D02*
X122190000Y-98260000D01*
X125510000Y-98260000D02*
X124310000Y-98260000D01*
X125510000Y-94804437D02*
X125510000Y-98260000D01*
X120990000Y-94804437D02*
X120990000Y-98260000D01*
X122054437Y-93740000D02*
X122190000Y-93740000D01*
X124445563Y-93740000D02*
X124310000Y-93740000D01*
X124445563Y-93740000D02*
X125510000Y-94804437D01*
X122054437Y-93740000D02*
X120990000Y-94804437D01*
X124810000Y-93000000D02*
X124810000Y-93500000D01*
X125060000Y-93250000D02*
X124560000Y-93250000D01*
G04 #@! TO.C,C102*
X144060000Y-93250000D02*
X143560000Y-93250000D01*
X143810000Y-93000000D02*
X143810000Y-93500000D01*
X141054437Y-93740000D02*
X139990000Y-94804437D01*
X143445563Y-93740000D02*
X144510000Y-94804437D01*
X143445563Y-93740000D02*
X143310000Y-93740000D01*
X141054437Y-93740000D02*
X141190000Y-93740000D01*
X139990000Y-94804437D02*
X139990000Y-98260000D01*
X144510000Y-94804437D02*
X144510000Y-98260000D01*
X144510000Y-98260000D02*
X143310000Y-98260000D01*
X139990000Y-98260000D02*
X141190000Y-98260000D01*
G04 #@! TO.C,C103*
X123260000Y-107140580D02*
X123260000Y-106859420D01*
X122240000Y-107140580D02*
X122240000Y-106859420D01*
G04 #@! TO.C,D1*
X151750000Y-73850000D02*
X151750000Y-72150000D01*
X151750000Y-72150000D02*
X149200000Y-72150000D01*
X151750000Y-73850000D02*
X149200000Y-73850000D01*
G04 #@! TO.C,D2*
X113750000Y-72150000D02*
X116300000Y-72150000D01*
X113750000Y-73850000D02*
X116300000Y-73850000D01*
X113750000Y-72150000D02*
X113750000Y-73850000D01*
G04 #@! TO.C,IC1*
X128315000Y-96000000D02*
X128315000Y-99450000D01*
X128315000Y-96000000D02*
X128315000Y-94050000D01*
X137185000Y-96000000D02*
X137185000Y-97950000D01*
X137185000Y-96000000D02*
X137185000Y-94050000D01*
G04 #@! TO.C,Q1*
X95670000Y-96760000D02*
X96600000Y-96760000D01*
X98830000Y-96760000D02*
X97900000Y-96760000D01*
X98830000Y-96760000D02*
X98830000Y-94600000D01*
X95670000Y-96760000D02*
X95670000Y-95300000D01*
G04 #@! TO.C,Q2*
X131170000Y-107760000D02*
X131170000Y-106300000D01*
X134330000Y-107760000D02*
X134330000Y-105600000D01*
X134330000Y-107760000D02*
X133400000Y-107760000D01*
X131170000Y-107760000D02*
X132100000Y-107760000D01*
G04 #@! TO.C,Q3*
X166670000Y-96760000D02*
X166670000Y-95300000D01*
X169830000Y-96760000D02*
X169830000Y-94600000D01*
X169830000Y-96760000D02*
X168900000Y-96760000D01*
X166670000Y-96760000D02*
X167600000Y-96760000D01*
G04 #@! TO.C,R1*
X91727500Y-107237258D02*
X91727500Y-106762742D01*
X92772500Y-107237258D02*
X92772500Y-106762742D01*
G04 #@! TO.C,R2*
X96727500Y-106762742D02*
X96727500Y-107237258D01*
X97772500Y-106762742D02*
X97772500Y-107237258D01*
G04 #@! TO.C,R3*
X102772500Y-96237258D02*
X102772500Y-95762742D01*
X101727500Y-96237258D02*
X101727500Y-95762742D01*
G04 #@! TO.C,R4*
X106727500Y-106762742D02*
X106727500Y-107237258D01*
X107772500Y-106762742D02*
X107772500Y-107237258D01*
G04 #@! TO.C,R5*
X127512742Y-73522500D02*
X127987258Y-73522500D01*
X127512742Y-72477500D02*
X127987258Y-72477500D01*
G04 #@! TO.C,R6*
X132987258Y-82977500D02*
X132512742Y-82977500D01*
X132987258Y-84022500D02*
X132512742Y-84022500D01*
G04 #@! TO.C,R7*
X137727500Y-78237258D02*
X137727500Y-77762742D01*
X138772500Y-78237258D02*
X138772500Y-77762742D01*
G04 #@! TO.C,R8*
X141227500Y-77762742D02*
X141227500Y-78237258D01*
X142272500Y-77762742D02*
X142272500Y-78237258D01*
G04 #@! TO.C,R9*
X107772500Y-95762742D02*
X107772500Y-96237258D01*
X106727500Y-95762742D02*
X106727500Y-96237258D01*
G04 #@! TO.C,R10*
X91727500Y-95762742D02*
X91727500Y-96237258D01*
X92772500Y-95762742D02*
X92772500Y-96237258D01*
G04 #@! TO.C,R11*
X140522500Y-83262742D02*
X140522500Y-83737258D01*
X139477500Y-83262742D02*
X139477500Y-83737258D01*
G04 #@! TO.C,R12*
X140522500Y-88762742D02*
X140522500Y-89237258D01*
X139477500Y-88762742D02*
X139477500Y-89237258D01*
G04 #@! TO.C,R13*
X163772500Y-96237258D02*
X163772500Y-95762742D01*
X162727500Y-96237258D02*
X162727500Y-95762742D01*
G04 #@! TO.C,R14*
X157727500Y-95762742D02*
X157727500Y-96237258D01*
X158772500Y-95762742D02*
X158772500Y-96237258D01*
G04 #@! TO.C,R15*
X157727500Y-107237258D02*
X157727500Y-106762742D01*
X158772500Y-107237258D02*
X158772500Y-106762742D01*
G04 #@! TO.C,R16*
X162727500Y-106762742D02*
X162727500Y-107237258D01*
X163772500Y-106762742D02*
X163772500Y-107237258D01*
G04 #@! TO.C,R17*
X168772500Y-106762742D02*
X168772500Y-107237258D01*
X167727500Y-106762742D02*
X167727500Y-107237258D01*
G04 #@! TO.C,R18*
X172727500Y-106762742D02*
X172727500Y-107237258D01*
X173772500Y-106762742D02*
X173772500Y-107237258D01*
G04 #@! TO.C,R19*
X172727500Y-96237258D02*
X172727500Y-95762742D01*
X173772500Y-96237258D02*
X173772500Y-95762742D01*
G04 #@! TO.C,R20*
X128272500Y-106762742D02*
X128272500Y-107237258D01*
X127227500Y-106762742D02*
X127227500Y-107237258D01*
G04 #@! TO.C,R22*
X154290000Y-102000000D02*
X153520000Y-102000000D01*
X146210000Y-102000000D02*
X146980000Y-102000000D01*
X153520000Y-100630000D02*
X146980000Y-100630000D01*
X153520000Y-103370000D02*
X153520000Y-100630000D01*
X146980000Y-103370000D02*
X153520000Y-103370000D01*
X146980000Y-100630000D02*
X146980000Y-103370000D01*
G04 #@! TO.C,R101*
X130487258Y-89522500D02*
X130012742Y-89522500D01*
X130487258Y-88477500D02*
X130012742Y-88477500D01*
G04 #@! TO.C,R102*
X135487258Y-88477500D02*
X135012742Y-88477500D01*
X135487258Y-89522500D02*
X135012742Y-89522500D01*
G04 #@! TO.C,R103*
X124977500Y-89237258D02*
X124977500Y-88762742D01*
X126022500Y-89237258D02*
X126022500Y-88762742D01*
G04 #@! TO.C,U1*
X132750000Y-75440000D02*
X129300000Y-75440000D01*
X132750000Y-75440000D02*
X134700000Y-75440000D01*
X132750000Y-80560000D02*
X130800000Y-80560000D01*
X132750000Y-80560000D02*
X134700000Y-80560000D01*
G04 #@! TO.C,R21*
D10*
X114607142Y-102452380D02*
X114273809Y-101976190D01*
X114035714Y-102452380D02*
X114035714Y-101452380D01*
X114416666Y-101452380D01*
X114511904Y-101500000D01*
X114559523Y-101547619D01*
X114607142Y-101642857D01*
X114607142Y-101785714D01*
X114559523Y-101880952D01*
X114511904Y-101928571D01*
X114416666Y-101976190D01*
X114035714Y-101976190D01*
X114988095Y-101547619D02*
X115035714Y-101500000D01*
X115130952Y-101452380D01*
X115369047Y-101452380D01*
X115464285Y-101500000D01*
X115511904Y-101547619D01*
X115559523Y-101642857D01*
X115559523Y-101738095D01*
X115511904Y-101880952D01*
X114940476Y-102452380D01*
X115559523Y-102452380D01*
X116511904Y-102452380D02*
X115940476Y-102452380D01*
X116226190Y-102452380D02*
X116226190Y-101452380D01*
X116130952Y-101595238D01*
X116035714Y-101690476D01*
X115940476Y-101738095D01*
G04 #@! TO.C,RV1*
X149654761Y-80952380D02*
X149321428Y-80476190D01*
X149083333Y-80952380D02*
X149083333Y-79952380D01*
X149464285Y-79952380D01*
X149559523Y-80000000D01*
X149607142Y-80047619D01*
X149654761Y-80142857D01*
X149654761Y-80285714D01*
X149607142Y-80380952D01*
X149559523Y-80428571D01*
X149464285Y-80476190D01*
X149083333Y-80476190D01*
X149940476Y-79952380D02*
X150273809Y-80952380D01*
X150607142Y-79952380D01*
X151464285Y-80952380D02*
X150892857Y-80952380D01*
X151178571Y-80952380D02*
X151178571Y-79952380D01*
X151083333Y-80095238D01*
X150988095Y-80190476D01*
X150892857Y-80238095D01*
G04 #@! TO.C,RV2*
X114654761Y-80952380D02*
X114321428Y-80476190D01*
X114083333Y-80952380D02*
X114083333Y-79952380D01*
X114464285Y-79952380D01*
X114559523Y-80000000D01*
X114607142Y-80047619D01*
X114654761Y-80142857D01*
X114654761Y-80285714D01*
X114607142Y-80380952D01*
X114559523Y-80428571D01*
X114464285Y-80476190D01*
X114083333Y-80476190D01*
X114940476Y-79952380D02*
X115273809Y-80952380D01*
X115607142Y-79952380D01*
X115892857Y-80047619D02*
X115940476Y-80000000D01*
X116035714Y-79952380D01*
X116273809Y-79952380D01*
X116369047Y-80000000D01*
X116416666Y-80047619D01*
X116464285Y-80142857D01*
X116464285Y-80238095D01*
X116416666Y-80380952D01*
X115845238Y-80952380D01*
X116464285Y-80952380D01*
G04 #@! TO.C,C1*
X102083333Y-104817142D02*
X102035714Y-104864761D01*
X101892857Y-104912380D01*
X101797619Y-104912380D01*
X101654761Y-104864761D01*
X101559523Y-104769523D01*
X101511904Y-104674285D01*
X101464285Y-104483809D01*
X101464285Y-104340952D01*
X101511904Y-104150476D01*
X101559523Y-104055238D01*
X101654761Y-103960000D01*
X101797619Y-103912380D01*
X101892857Y-103912380D01*
X102035714Y-103960000D01*
X102083333Y-104007619D01*
X103035714Y-104912380D02*
X102464285Y-104912380D01*
X102750000Y-104912380D02*
X102750000Y-103912380D01*
X102654761Y-104055238D01*
X102559523Y-104150476D01*
X102464285Y-104198095D01*
G04 #@! TO.C,C2*
X125333333Y-81129142D02*
X125285714Y-81176761D01*
X125142857Y-81224380D01*
X125047619Y-81224380D01*
X124904761Y-81176761D01*
X124809523Y-81081523D01*
X124761904Y-80986285D01*
X124714285Y-80795809D01*
X124714285Y-80652952D01*
X124761904Y-80462476D01*
X124809523Y-80367238D01*
X124904761Y-80272000D01*
X125047619Y-80224380D01*
X125142857Y-80224380D01*
X125285714Y-80272000D01*
X125333333Y-80319619D01*
X125714285Y-80319619D02*
X125761904Y-80272000D01*
X125857142Y-80224380D01*
X126095238Y-80224380D01*
X126190476Y-80272000D01*
X126238095Y-80319619D01*
X126285714Y-80414857D01*
X126285714Y-80510095D01*
X126238095Y-80652952D01*
X125666666Y-81224380D01*
X126285714Y-81224380D01*
G04 #@! TO.C,C3*
X123583333Y-75817142D02*
X123535714Y-75864761D01*
X123392857Y-75912380D01*
X123297619Y-75912380D01*
X123154761Y-75864761D01*
X123059523Y-75769523D01*
X123011904Y-75674285D01*
X122964285Y-75483809D01*
X122964285Y-75340952D01*
X123011904Y-75150476D01*
X123059523Y-75055238D01*
X123154761Y-74960000D01*
X123297619Y-74912380D01*
X123392857Y-74912380D01*
X123535714Y-74960000D01*
X123583333Y-75007619D01*
X123916666Y-74912380D02*
X124535714Y-74912380D01*
X124202380Y-75293333D01*
X124345238Y-75293333D01*
X124440476Y-75340952D01*
X124488095Y-75388571D01*
X124535714Y-75483809D01*
X124535714Y-75721904D01*
X124488095Y-75817142D01*
X124440476Y-75864761D01*
X124345238Y-75912380D01*
X124059523Y-75912380D01*
X123964285Y-75864761D01*
X123916666Y-75817142D01*
G04 #@! TO.C,C4*
X102683333Y-76049142D02*
X102635714Y-76096761D01*
X102492857Y-76144380D01*
X102397619Y-76144380D01*
X102254761Y-76096761D01*
X102159523Y-76001523D01*
X102111904Y-75906285D01*
X102064285Y-75715809D01*
X102064285Y-75572952D01*
X102111904Y-75382476D01*
X102159523Y-75287238D01*
X102254761Y-75192000D01*
X102397619Y-75144380D01*
X102492857Y-75144380D01*
X102635714Y-75192000D01*
X102683333Y-75239619D01*
X103540476Y-75477714D02*
X103540476Y-76144380D01*
X103302380Y-75096761D02*
X103064285Y-75811047D01*
X103683333Y-75811047D01*
G04 #@! TO.C,C5*
X137583333Y-71927142D02*
X137535714Y-71974761D01*
X137392857Y-72022380D01*
X137297619Y-72022380D01*
X137154761Y-71974761D01*
X137059523Y-71879523D01*
X137011904Y-71784285D01*
X136964285Y-71593809D01*
X136964285Y-71450952D01*
X137011904Y-71260476D01*
X137059523Y-71165238D01*
X137154761Y-71070000D01*
X137297619Y-71022380D01*
X137392857Y-71022380D01*
X137535714Y-71070000D01*
X137583333Y-71117619D01*
X138488095Y-71022380D02*
X138011904Y-71022380D01*
X137964285Y-71498571D01*
X138011904Y-71450952D01*
X138107142Y-71403333D01*
X138345238Y-71403333D01*
X138440476Y-71450952D01*
X138488095Y-71498571D01*
X138535714Y-71593809D01*
X138535714Y-71831904D01*
X138488095Y-71927142D01*
X138440476Y-71974761D01*
X138345238Y-72022380D01*
X138107142Y-72022380D01*
X138011904Y-71974761D01*
X137964285Y-71927142D01*
G04 #@! TO.C,C6*
X90683333Y-76049142D02*
X90635714Y-76096761D01*
X90492857Y-76144380D01*
X90397619Y-76144380D01*
X90254761Y-76096761D01*
X90159523Y-76001523D01*
X90111904Y-75906285D01*
X90064285Y-75715809D01*
X90064285Y-75572952D01*
X90111904Y-75382476D01*
X90159523Y-75287238D01*
X90254761Y-75192000D01*
X90397619Y-75144380D01*
X90492857Y-75144380D01*
X90635714Y-75192000D01*
X90683333Y-75239619D01*
X91540476Y-75144380D02*
X91350000Y-75144380D01*
X91254761Y-75192000D01*
X91207142Y-75239619D01*
X91111904Y-75382476D01*
X91064285Y-75572952D01*
X91064285Y-75953904D01*
X91111904Y-76049142D01*
X91159523Y-76096761D01*
X91254761Y-76144380D01*
X91445238Y-76144380D01*
X91540476Y-76096761D01*
X91588095Y-76049142D01*
X91635714Y-75953904D01*
X91635714Y-75715809D01*
X91588095Y-75620571D01*
X91540476Y-75572952D01*
X91445238Y-75525333D01*
X91254761Y-75525333D01*
X91159523Y-75572952D01*
X91111904Y-75620571D01*
X91064285Y-75715809D01*
G04 #@! TO.C,C7*
X162483333Y-76049142D02*
X162435714Y-76096761D01*
X162292857Y-76144380D01*
X162197619Y-76144380D01*
X162054761Y-76096761D01*
X161959523Y-76001523D01*
X161911904Y-75906285D01*
X161864285Y-75715809D01*
X161864285Y-75572952D01*
X161911904Y-75382476D01*
X161959523Y-75287238D01*
X162054761Y-75192000D01*
X162197619Y-75144380D01*
X162292857Y-75144380D01*
X162435714Y-75192000D01*
X162483333Y-75239619D01*
X162816666Y-75144380D02*
X163483333Y-75144380D01*
X163054761Y-76144380D01*
G04 #@! TO.C,C8*
X137583333Y-104817142D02*
X137535714Y-104864761D01*
X137392857Y-104912380D01*
X137297619Y-104912380D01*
X137154761Y-104864761D01*
X137059523Y-104769523D01*
X137011904Y-104674285D01*
X136964285Y-104483809D01*
X136964285Y-104340952D01*
X137011904Y-104150476D01*
X137059523Y-104055238D01*
X137154761Y-103960000D01*
X137297619Y-103912380D01*
X137392857Y-103912380D01*
X137535714Y-103960000D01*
X137583333Y-104007619D01*
X138154761Y-104340952D02*
X138059523Y-104293333D01*
X138011904Y-104245714D01*
X137964285Y-104150476D01*
X137964285Y-104102857D01*
X138011904Y-104007619D01*
X138059523Y-103960000D01*
X138154761Y-103912380D01*
X138345238Y-103912380D01*
X138440476Y-103960000D01*
X138488095Y-104007619D01*
X138535714Y-104102857D01*
X138535714Y-104150476D01*
X138488095Y-104245714D01*
X138440476Y-104293333D01*
X138345238Y-104340952D01*
X138154761Y-104340952D01*
X138059523Y-104388571D01*
X138011904Y-104436190D01*
X137964285Y-104531428D01*
X137964285Y-104721904D01*
X138011904Y-104817142D01*
X138059523Y-104864761D01*
X138154761Y-104912380D01*
X138345238Y-104912380D01*
X138440476Y-104864761D01*
X138488095Y-104817142D01*
X138535714Y-104721904D01*
X138535714Y-104531428D01*
X138488095Y-104436190D01*
X138440476Y-104388571D01*
X138345238Y-104340952D01*
G04 #@! TO.C,C9*
X142583333Y-104817142D02*
X142535714Y-104864761D01*
X142392857Y-104912380D01*
X142297619Y-104912380D01*
X142154761Y-104864761D01*
X142059523Y-104769523D01*
X142011904Y-104674285D01*
X141964285Y-104483809D01*
X141964285Y-104340952D01*
X142011904Y-104150476D01*
X142059523Y-104055238D01*
X142154761Y-103960000D01*
X142297619Y-103912380D01*
X142392857Y-103912380D01*
X142535714Y-103960000D01*
X142583333Y-104007619D01*
X143059523Y-104912380D02*
X143250000Y-104912380D01*
X143345238Y-104864761D01*
X143392857Y-104817142D01*
X143488095Y-104674285D01*
X143535714Y-104483809D01*
X143535714Y-104102857D01*
X143488095Y-104007619D01*
X143440476Y-103960000D01*
X143345238Y-103912380D01*
X143154761Y-103912380D01*
X143059523Y-103960000D01*
X143011904Y-104007619D01*
X142964285Y-104102857D01*
X142964285Y-104340952D01*
X143011904Y-104436190D01*
X143059523Y-104483809D01*
X143154761Y-104531428D01*
X143345238Y-104531428D01*
X143440476Y-104483809D01*
X143488095Y-104436190D01*
X143535714Y-104340952D01*
G04 #@! TO.C,C10*
X126607142Y-75817142D02*
X126559523Y-75864761D01*
X126416666Y-75912380D01*
X126321428Y-75912380D01*
X126178571Y-75864761D01*
X126083333Y-75769523D01*
X126035714Y-75674285D01*
X125988095Y-75483809D01*
X125988095Y-75340952D01*
X126035714Y-75150476D01*
X126083333Y-75055238D01*
X126178571Y-74960000D01*
X126321428Y-74912380D01*
X126416666Y-74912380D01*
X126559523Y-74960000D01*
X126607142Y-75007619D01*
X127559523Y-75912380D02*
X126988095Y-75912380D01*
X127273809Y-75912380D02*
X127273809Y-74912380D01*
X127178571Y-75055238D01*
X127083333Y-75150476D01*
X126988095Y-75198095D01*
X128178571Y-74912380D02*
X128273809Y-74912380D01*
X128369047Y-74960000D01*
X128416666Y-75007619D01*
X128464285Y-75102857D01*
X128511904Y-75293333D01*
X128511904Y-75531428D01*
X128464285Y-75721904D01*
X128416666Y-75817142D01*
X128369047Y-75864761D01*
X128273809Y-75912380D01*
X128178571Y-75912380D01*
X128083333Y-75864761D01*
X128035714Y-75817142D01*
X127988095Y-75721904D01*
X127940476Y-75531428D01*
X127940476Y-75293333D01*
X127988095Y-75102857D01*
X128035714Y-75007619D01*
X128083333Y-74960000D01*
X128178571Y-74912380D01*
G04 #@! TO.C,C100*
X173530952Y-75033142D02*
X173483333Y-75080761D01*
X173340476Y-75128380D01*
X173245238Y-75128380D01*
X173102380Y-75080761D01*
X173007142Y-74985523D01*
X172959523Y-74890285D01*
X172911904Y-74699809D01*
X172911904Y-74556952D01*
X172959523Y-74366476D01*
X173007142Y-74271238D01*
X173102380Y-74176000D01*
X173245238Y-74128380D01*
X173340476Y-74128380D01*
X173483333Y-74176000D01*
X173530952Y-74223619D01*
X174483333Y-75128380D02*
X173911904Y-75128380D01*
X174197619Y-75128380D02*
X174197619Y-74128380D01*
X174102380Y-74271238D01*
X174007142Y-74366476D01*
X173911904Y-74414095D01*
X175102380Y-74128380D02*
X175197619Y-74128380D01*
X175292857Y-74176000D01*
X175340476Y-74223619D01*
X175388095Y-74318857D01*
X175435714Y-74509333D01*
X175435714Y-74747428D01*
X175388095Y-74937904D01*
X175340476Y-75033142D01*
X175292857Y-75080761D01*
X175197619Y-75128380D01*
X175102380Y-75128380D01*
X175007142Y-75080761D01*
X174959523Y-75033142D01*
X174911904Y-74937904D01*
X174864285Y-74747428D01*
X174864285Y-74509333D01*
X174911904Y-74318857D01*
X174959523Y-74223619D01*
X175007142Y-74176000D01*
X175102380Y-74128380D01*
X176054761Y-74128380D02*
X176150000Y-74128380D01*
X176245238Y-74176000D01*
X176292857Y-74223619D01*
X176340476Y-74318857D01*
X176388095Y-74509333D01*
X176388095Y-74747428D01*
X176340476Y-74937904D01*
X176292857Y-75033142D01*
X176245238Y-75080761D01*
X176150000Y-75128380D01*
X176054761Y-75128380D01*
X175959523Y-75080761D01*
X175911904Y-75033142D01*
X175864285Y-74937904D01*
X175816666Y-74747428D01*
X175816666Y-74509333D01*
X175864285Y-74318857D01*
X175911904Y-74223619D01*
X175959523Y-74176000D01*
X176054761Y-74128380D01*
G04 #@! TO.C,C101*
X122130952Y-91857142D02*
X122083333Y-91904761D01*
X121940476Y-91952380D01*
X121845238Y-91952380D01*
X121702380Y-91904761D01*
X121607142Y-91809523D01*
X121559523Y-91714285D01*
X121511904Y-91523809D01*
X121511904Y-91380952D01*
X121559523Y-91190476D01*
X121607142Y-91095238D01*
X121702380Y-91000000D01*
X121845238Y-90952380D01*
X121940476Y-90952380D01*
X122083333Y-91000000D01*
X122130952Y-91047619D01*
X123083333Y-91952380D02*
X122511904Y-91952380D01*
X122797619Y-91952380D02*
X122797619Y-90952380D01*
X122702380Y-91095238D01*
X122607142Y-91190476D01*
X122511904Y-91238095D01*
X123702380Y-90952380D02*
X123797619Y-90952380D01*
X123892857Y-91000000D01*
X123940476Y-91047619D01*
X123988095Y-91142857D01*
X124035714Y-91333333D01*
X124035714Y-91571428D01*
X123988095Y-91761904D01*
X123940476Y-91857142D01*
X123892857Y-91904761D01*
X123797619Y-91952380D01*
X123702380Y-91952380D01*
X123607142Y-91904761D01*
X123559523Y-91857142D01*
X123511904Y-91761904D01*
X123464285Y-91571428D01*
X123464285Y-91333333D01*
X123511904Y-91142857D01*
X123559523Y-91047619D01*
X123607142Y-91000000D01*
X123702380Y-90952380D01*
X124988095Y-91952380D02*
X124416666Y-91952380D01*
X124702380Y-91952380D02*
X124702380Y-90952380D01*
X124607142Y-91095238D01*
X124511904Y-91190476D01*
X124416666Y-91238095D01*
G04 #@! TO.C,C102*
X141130952Y-91857142D02*
X141083333Y-91904761D01*
X140940476Y-91952380D01*
X140845238Y-91952380D01*
X140702380Y-91904761D01*
X140607142Y-91809523D01*
X140559523Y-91714285D01*
X140511904Y-91523809D01*
X140511904Y-91380952D01*
X140559523Y-91190476D01*
X140607142Y-91095238D01*
X140702380Y-91000000D01*
X140845238Y-90952380D01*
X140940476Y-90952380D01*
X141083333Y-91000000D01*
X141130952Y-91047619D01*
X142083333Y-91952380D02*
X141511904Y-91952380D01*
X141797619Y-91952380D02*
X141797619Y-90952380D01*
X141702380Y-91095238D01*
X141607142Y-91190476D01*
X141511904Y-91238095D01*
X142702380Y-90952380D02*
X142797619Y-90952380D01*
X142892857Y-91000000D01*
X142940476Y-91047619D01*
X142988095Y-91142857D01*
X143035714Y-91333333D01*
X143035714Y-91571428D01*
X142988095Y-91761904D01*
X142940476Y-91857142D01*
X142892857Y-91904761D01*
X142797619Y-91952380D01*
X142702380Y-91952380D01*
X142607142Y-91904761D01*
X142559523Y-91857142D01*
X142511904Y-91761904D01*
X142464285Y-91571428D01*
X142464285Y-91333333D01*
X142511904Y-91142857D01*
X142559523Y-91047619D01*
X142607142Y-91000000D01*
X142702380Y-90952380D01*
X143416666Y-91047619D02*
X143464285Y-91000000D01*
X143559523Y-90952380D01*
X143797619Y-90952380D01*
X143892857Y-91000000D01*
X143940476Y-91047619D01*
X143988095Y-91142857D01*
X143988095Y-91238095D01*
X143940476Y-91380952D01*
X143369047Y-91952380D01*
X143988095Y-91952380D01*
G04 #@! TO.C,C103*
X121630952Y-104817142D02*
X121583333Y-104864761D01*
X121440476Y-104912380D01*
X121345238Y-104912380D01*
X121202380Y-104864761D01*
X121107142Y-104769523D01*
X121059523Y-104674285D01*
X121011904Y-104483809D01*
X121011904Y-104340952D01*
X121059523Y-104150476D01*
X121107142Y-104055238D01*
X121202380Y-103960000D01*
X121345238Y-103912380D01*
X121440476Y-103912380D01*
X121583333Y-103960000D01*
X121630952Y-104007619D01*
X122583333Y-104912380D02*
X122011904Y-104912380D01*
X122297619Y-104912380D02*
X122297619Y-103912380D01*
X122202380Y-104055238D01*
X122107142Y-104150476D01*
X122011904Y-104198095D01*
X123202380Y-103912380D02*
X123297619Y-103912380D01*
X123392857Y-103960000D01*
X123440476Y-104007619D01*
X123488095Y-104102857D01*
X123535714Y-104293333D01*
X123535714Y-104531428D01*
X123488095Y-104721904D01*
X123440476Y-104817142D01*
X123392857Y-104864761D01*
X123297619Y-104912380D01*
X123202380Y-104912380D01*
X123107142Y-104864761D01*
X123059523Y-104817142D01*
X123011904Y-104721904D01*
X122964285Y-104531428D01*
X122964285Y-104293333D01*
X123011904Y-104102857D01*
X123059523Y-104007619D01*
X123107142Y-103960000D01*
X123202380Y-103912380D01*
X123869047Y-103912380D02*
X124488095Y-103912380D01*
X124154761Y-104293333D01*
X124297619Y-104293333D01*
X124392857Y-104340952D01*
X124440476Y-104388571D01*
X124488095Y-104483809D01*
X124488095Y-104721904D01*
X124440476Y-104817142D01*
X124392857Y-104864761D01*
X124297619Y-104912380D01*
X124011904Y-104912380D01*
X123916666Y-104864761D01*
X123869047Y-104817142D01*
G04 #@! TO.C,D1*
X149511904Y-71572380D02*
X149511904Y-70572380D01*
X149750000Y-70572380D01*
X149892857Y-70620000D01*
X149988095Y-70715238D01*
X150035714Y-70810476D01*
X150083333Y-71000952D01*
X150083333Y-71143809D01*
X150035714Y-71334285D01*
X149988095Y-71429523D01*
X149892857Y-71524761D01*
X149750000Y-71572380D01*
X149511904Y-71572380D01*
X151035714Y-71572380D02*
X150464285Y-71572380D01*
X150750000Y-71572380D02*
X150750000Y-70572380D01*
X150654761Y-70715238D01*
X150559523Y-70810476D01*
X150464285Y-70858095D01*
G04 #@! TO.C,D2*
X114511904Y-71602380D02*
X114511904Y-70602380D01*
X114750000Y-70602380D01*
X114892857Y-70650000D01*
X114988095Y-70745238D01*
X115035714Y-70840476D01*
X115083333Y-71030952D01*
X115083333Y-71173809D01*
X115035714Y-71364285D01*
X114988095Y-71459523D01*
X114892857Y-71554761D01*
X114750000Y-71602380D01*
X114511904Y-71602380D01*
X115464285Y-70697619D02*
X115511904Y-70650000D01*
X115607142Y-70602380D01*
X115845238Y-70602380D01*
X115940476Y-70650000D01*
X115988095Y-70697619D01*
X116035714Y-70792857D01*
X116035714Y-70888095D01*
X115988095Y-71030952D01*
X115416666Y-71602380D01*
X116035714Y-71602380D01*
G04 #@! TO.C,IC1*
X127922380Y-99528190D02*
X126922380Y-99528190D01*
X127827142Y-98480571D02*
X127874761Y-98528190D01*
X127922380Y-98671047D01*
X127922380Y-98766285D01*
X127874761Y-98909142D01*
X127779523Y-99004380D01*
X127684285Y-99052000D01*
X127493809Y-99099619D01*
X127350952Y-99099619D01*
X127160476Y-99052000D01*
X127065238Y-99004380D01*
X126970000Y-98909142D01*
X126922380Y-98766285D01*
X126922380Y-98671047D01*
X126970000Y-98528190D01*
X127017619Y-98480571D01*
X127922380Y-97528190D02*
X127922380Y-98099619D01*
X127922380Y-97813904D02*
X126922380Y-97813904D01*
X127065238Y-97909142D01*
X127160476Y-98004380D01*
X127208095Y-98099619D01*
G04 #@! TO.C,Q1*
X97154761Y-94007619D02*
X97059523Y-93960000D01*
X96964285Y-93864761D01*
X96821428Y-93721904D01*
X96726190Y-93674285D01*
X96630952Y-93674285D01*
X96678571Y-93912380D02*
X96583333Y-93864761D01*
X96488095Y-93769523D01*
X96440476Y-93579047D01*
X96440476Y-93245714D01*
X96488095Y-93055238D01*
X96583333Y-92960000D01*
X96678571Y-92912380D01*
X96869047Y-92912380D01*
X96964285Y-92960000D01*
X97059523Y-93055238D01*
X97107142Y-93245714D01*
X97107142Y-93579047D01*
X97059523Y-93769523D01*
X96964285Y-93864761D01*
X96869047Y-93912380D01*
X96678571Y-93912380D01*
X98059523Y-93912380D02*
X97488095Y-93912380D01*
X97773809Y-93912380D02*
X97773809Y-92912380D01*
X97678571Y-93055238D01*
X97583333Y-93150476D01*
X97488095Y-93198095D01*
G04 #@! TO.C,Q2*
X132654761Y-105007619D02*
X132559523Y-104960000D01*
X132464285Y-104864761D01*
X132321428Y-104721904D01*
X132226190Y-104674285D01*
X132130952Y-104674285D01*
X132178571Y-104912380D02*
X132083333Y-104864761D01*
X131988095Y-104769523D01*
X131940476Y-104579047D01*
X131940476Y-104245714D01*
X131988095Y-104055238D01*
X132083333Y-103960000D01*
X132178571Y-103912380D01*
X132369047Y-103912380D01*
X132464285Y-103960000D01*
X132559523Y-104055238D01*
X132607142Y-104245714D01*
X132607142Y-104579047D01*
X132559523Y-104769523D01*
X132464285Y-104864761D01*
X132369047Y-104912380D01*
X132178571Y-104912380D01*
X132988095Y-104007619D02*
X133035714Y-103960000D01*
X133130952Y-103912380D01*
X133369047Y-103912380D01*
X133464285Y-103960000D01*
X133511904Y-104007619D01*
X133559523Y-104102857D01*
X133559523Y-104198095D01*
X133511904Y-104340952D01*
X132940476Y-104912380D01*
X133559523Y-104912380D01*
G04 #@! TO.C,Q3*
X168154761Y-94007619D02*
X168059523Y-93960000D01*
X167964285Y-93864761D01*
X167821428Y-93721904D01*
X167726190Y-93674285D01*
X167630952Y-93674285D01*
X167678571Y-93912380D02*
X167583333Y-93864761D01*
X167488095Y-93769523D01*
X167440476Y-93579047D01*
X167440476Y-93245714D01*
X167488095Y-93055238D01*
X167583333Y-92960000D01*
X167678571Y-92912380D01*
X167869047Y-92912380D01*
X167964285Y-92960000D01*
X168059523Y-93055238D01*
X168107142Y-93245714D01*
X168107142Y-93579047D01*
X168059523Y-93769523D01*
X167964285Y-93864761D01*
X167869047Y-93912380D01*
X167678571Y-93912380D01*
X168440476Y-92912380D02*
X169059523Y-92912380D01*
X168726190Y-93293333D01*
X168869047Y-93293333D01*
X168964285Y-93340952D01*
X169011904Y-93388571D01*
X169059523Y-93483809D01*
X169059523Y-93721904D01*
X169011904Y-93817142D01*
X168964285Y-93864761D01*
X168869047Y-93912380D01*
X168583333Y-93912380D01*
X168488095Y-93864761D01*
X168440476Y-93817142D01*
G04 #@! TO.C,R1*
X92083333Y-104912380D02*
X91750000Y-104436190D01*
X91511904Y-104912380D02*
X91511904Y-103912380D01*
X91892857Y-103912380D01*
X91988095Y-103960000D01*
X92035714Y-104007619D01*
X92083333Y-104102857D01*
X92083333Y-104245714D01*
X92035714Y-104340952D01*
X91988095Y-104388571D01*
X91892857Y-104436190D01*
X91511904Y-104436190D01*
X93035714Y-104912380D02*
X92464285Y-104912380D01*
X92750000Y-104912380D02*
X92750000Y-103912380D01*
X92654761Y-104055238D01*
X92559523Y-104150476D01*
X92464285Y-104198095D01*
G04 #@! TO.C,R2*
X97083333Y-104912380D02*
X96750000Y-104436190D01*
X96511904Y-104912380D02*
X96511904Y-103912380D01*
X96892857Y-103912380D01*
X96988095Y-103960000D01*
X97035714Y-104007619D01*
X97083333Y-104102857D01*
X97083333Y-104245714D01*
X97035714Y-104340952D01*
X96988095Y-104388571D01*
X96892857Y-104436190D01*
X96511904Y-104436190D01*
X97464285Y-104007619D02*
X97511904Y-103960000D01*
X97607142Y-103912380D01*
X97845238Y-103912380D01*
X97940476Y-103960000D01*
X97988095Y-104007619D01*
X98035714Y-104102857D01*
X98035714Y-104198095D01*
X97988095Y-104340952D01*
X97416666Y-104912380D01*
X98035714Y-104912380D01*
G04 #@! TO.C,R3*
X102083333Y-93912380D02*
X101750000Y-93436190D01*
X101511904Y-93912380D02*
X101511904Y-92912380D01*
X101892857Y-92912380D01*
X101988095Y-92960000D01*
X102035714Y-93007619D01*
X102083333Y-93102857D01*
X102083333Y-93245714D01*
X102035714Y-93340952D01*
X101988095Y-93388571D01*
X101892857Y-93436190D01*
X101511904Y-93436190D01*
X102416666Y-92912380D02*
X103035714Y-92912380D01*
X102702380Y-93293333D01*
X102845238Y-93293333D01*
X102940476Y-93340952D01*
X102988095Y-93388571D01*
X103035714Y-93483809D01*
X103035714Y-93721904D01*
X102988095Y-93817142D01*
X102940476Y-93864761D01*
X102845238Y-93912380D01*
X102559523Y-93912380D01*
X102464285Y-93864761D01*
X102416666Y-93817142D01*
G04 #@! TO.C,R4*
X107083333Y-104912380D02*
X106750000Y-104436190D01*
X106511904Y-104912380D02*
X106511904Y-103912380D01*
X106892857Y-103912380D01*
X106988095Y-103960000D01*
X107035714Y-104007619D01*
X107083333Y-104102857D01*
X107083333Y-104245714D01*
X107035714Y-104340952D01*
X106988095Y-104388571D01*
X106892857Y-104436190D01*
X106511904Y-104436190D01*
X107940476Y-104245714D02*
X107940476Y-104912380D01*
X107702380Y-103864761D02*
X107464285Y-104579047D01*
X108083333Y-104579047D01*
G04 #@! TO.C,R5*
X127583333Y-72022380D02*
X127250000Y-71546190D01*
X127011904Y-72022380D02*
X127011904Y-71022380D01*
X127392857Y-71022380D01*
X127488095Y-71070000D01*
X127535714Y-71117619D01*
X127583333Y-71212857D01*
X127583333Y-71355714D01*
X127535714Y-71450952D01*
X127488095Y-71498571D01*
X127392857Y-71546190D01*
X127011904Y-71546190D01*
X128488095Y-71022380D02*
X128011904Y-71022380D01*
X127964285Y-71498571D01*
X128011904Y-71450952D01*
X128107142Y-71403333D01*
X128345238Y-71403333D01*
X128440476Y-71450952D01*
X128488095Y-71498571D01*
X128535714Y-71593809D01*
X128535714Y-71831904D01*
X128488095Y-71927142D01*
X128440476Y-71974761D01*
X128345238Y-72022380D01*
X128107142Y-72022380D01*
X128011904Y-71974761D01*
X127964285Y-71927142D01*
G04 #@! TO.C,R6*
X132583333Y-82428380D02*
X132250000Y-81952190D01*
X132011904Y-82428380D02*
X132011904Y-81428380D01*
X132392857Y-81428380D01*
X132488095Y-81476000D01*
X132535714Y-81523619D01*
X132583333Y-81618857D01*
X132583333Y-81761714D01*
X132535714Y-81856952D01*
X132488095Y-81904571D01*
X132392857Y-81952190D01*
X132011904Y-81952190D01*
X133440476Y-81428380D02*
X133250000Y-81428380D01*
X133154761Y-81476000D01*
X133107142Y-81523619D01*
X133011904Y-81666476D01*
X132964285Y-81856952D01*
X132964285Y-82237904D01*
X133011904Y-82333142D01*
X133059523Y-82380761D01*
X133154761Y-82428380D01*
X133345238Y-82428380D01*
X133440476Y-82380761D01*
X133488095Y-82333142D01*
X133535714Y-82237904D01*
X133535714Y-81999809D01*
X133488095Y-81904571D01*
X133440476Y-81856952D01*
X133345238Y-81809333D01*
X133154761Y-81809333D01*
X133059523Y-81856952D01*
X133011904Y-81904571D01*
X132964285Y-81999809D01*
G04 #@! TO.C,R7*
X138083333Y-75912380D02*
X137750000Y-75436190D01*
X137511904Y-75912380D02*
X137511904Y-74912380D01*
X137892857Y-74912380D01*
X137988095Y-74960000D01*
X138035714Y-75007619D01*
X138083333Y-75102857D01*
X138083333Y-75245714D01*
X138035714Y-75340952D01*
X137988095Y-75388571D01*
X137892857Y-75436190D01*
X137511904Y-75436190D01*
X138416666Y-74912380D02*
X139083333Y-74912380D01*
X138654761Y-75912380D01*
G04 #@! TO.C,R8*
X141583333Y-75912380D02*
X141250000Y-75436190D01*
X141011904Y-75912380D02*
X141011904Y-74912380D01*
X141392857Y-74912380D01*
X141488095Y-74960000D01*
X141535714Y-75007619D01*
X141583333Y-75102857D01*
X141583333Y-75245714D01*
X141535714Y-75340952D01*
X141488095Y-75388571D01*
X141392857Y-75436190D01*
X141011904Y-75436190D01*
X142154761Y-75340952D02*
X142059523Y-75293333D01*
X142011904Y-75245714D01*
X141964285Y-75150476D01*
X141964285Y-75102857D01*
X142011904Y-75007619D01*
X142059523Y-74960000D01*
X142154761Y-74912380D01*
X142345238Y-74912380D01*
X142440476Y-74960000D01*
X142488095Y-75007619D01*
X142535714Y-75102857D01*
X142535714Y-75150476D01*
X142488095Y-75245714D01*
X142440476Y-75293333D01*
X142345238Y-75340952D01*
X142154761Y-75340952D01*
X142059523Y-75388571D01*
X142011904Y-75436190D01*
X141964285Y-75531428D01*
X141964285Y-75721904D01*
X142011904Y-75817142D01*
X142059523Y-75864761D01*
X142154761Y-75912380D01*
X142345238Y-75912380D01*
X142440476Y-75864761D01*
X142488095Y-75817142D01*
X142535714Y-75721904D01*
X142535714Y-75531428D01*
X142488095Y-75436190D01*
X142440476Y-75388571D01*
X142345238Y-75340952D01*
G04 #@! TO.C,R9*
X107083333Y-93912380D02*
X106750000Y-93436190D01*
X106511904Y-93912380D02*
X106511904Y-92912380D01*
X106892857Y-92912380D01*
X106988095Y-92960000D01*
X107035714Y-93007619D01*
X107083333Y-93102857D01*
X107083333Y-93245714D01*
X107035714Y-93340952D01*
X106988095Y-93388571D01*
X106892857Y-93436190D01*
X106511904Y-93436190D01*
X107559523Y-93912380D02*
X107750000Y-93912380D01*
X107845238Y-93864761D01*
X107892857Y-93817142D01*
X107988095Y-93674285D01*
X108035714Y-93483809D01*
X108035714Y-93102857D01*
X107988095Y-93007619D01*
X107940476Y-92960000D01*
X107845238Y-92912380D01*
X107654761Y-92912380D01*
X107559523Y-92960000D01*
X107511904Y-93007619D01*
X107464285Y-93102857D01*
X107464285Y-93340952D01*
X107511904Y-93436190D01*
X107559523Y-93483809D01*
X107654761Y-93531428D01*
X107845238Y-93531428D01*
X107940476Y-93483809D01*
X107988095Y-93436190D01*
X108035714Y-93340952D01*
G04 #@! TO.C,R10*
X91607142Y-93912380D02*
X91273809Y-93436190D01*
X91035714Y-93912380D02*
X91035714Y-92912380D01*
X91416666Y-92912380D01*
X91511904Y-92960000D01*
X91559523Y-93007619D01*
X91607142Y-93102857D01*
X91607142Y-93245714D01*
X91559523Y-93340952D01*
X91511904Y-93388571D01*
X91416666Y-93436190D01*
X91035714Y-93436190D01*
X92559523Y-93912380D02*
X91988095Y-93912380D01*
X92273809Y-93912380D02*
X92273809Y-92912380D01*
X92178571Y-93055238D01*
X92083333Y-93150476D01*
X91988095Y-93198095D01*
X93178571Y-92912380D02*
X93273809Y-92912380D01*
X93369047Y-92960000D01*
X93416666Y-93007619D01*
X93464285Y-93102857D01*
X93511904Y-93293333D01*
X93511904Y-93531428D01*
X93464285Y-93721904D01*
X93416666Y-93817142D01*
X93369047Y-93864761D01*
X93273809Y-93912380D01*
X93178571Y-93912380D01*
X93083333Y-93864761D01*
X93035714Y-93817142D01*
X92988095Y-93721904D01*
X92940476Y-93531428D01*
X92940476Y-93293333D01*
X92988095Y-93102857D01*
X93035714Y-93007619D01*
X93083333Y-92960000D01*
X93178571Y-92912380D01*
G04 #@! TO.C,R11*
X139357142Y-81793380D02*
X139023809Y-81317190D01*
X138785714Y-81793380D02*
X138785714Y-80793380D01*
X139166666Y-80793380D01*
X139261904Y-80841000D01*
X139309523Y-80888619D01*
X139357142Y-80983857D01*
X139357142Y-81126714D01*
X139309523Y-81221952D01*
X139261904Y-81269571D01*
X139166666Y-81317190D01*
X138785714Y-81317190D01*
X140309523Y-81793380D02*
X139738095Y-81793380D01*
X140023809Y-81793380D02*
X140023809Y-80793380D01*
X139928571Y-80936238D01*
X139833333Y-81031476D01*
X139738095Y-81079095D01*
X141261904Y-81793380D02*
X140690476Y-81793380D01*
X140976190Y-81793380D02*
X140976190Y-80793380D01*
X140880952Y-80936238D01*
X140785714Y-81031476D01*
X140690476Y-81079095D01*
G04 #@! TO.C,R12*
X139357142Y-87293380D02*
X139023809Y-86817190D01*
X138785714Y-87293380D02*
X138785714Y-86293380D01*
X139166666Y-86293380D01*
X139261904Y-86341000D01*
X139309523Y-86388619D01*
X139357142Y-86483857D01*
X139357142Y-86626714D01*
X139309523Y-86721952D01*
X139261904Y-86769571D01*
X139166666Y-86817190D01*
X138785714Y-86817190D01*
X140309523Y-87293380D02*
X139738095Y-87293380D01*
X140023809Y-87293380D02*
X140023809Y-86293380D01*
X139928571Y-86436238D01*
X139833333Y-86531476D01*
X139738095Y-86579095D01*
X140690476Y-86388619D02*
X140738095Y-86341000D01*
X140833333Y-86293380D01*
X141071428Y-86293380D01*
X141166666Y-86341000D01*
X141214285Y-86388619D01*
X141261904Y-86483857D01*
X141261904Y-86579095D01*
X141214285Y-86721952D01*
X140642857Y-87293380D01*
X141261904Y-87293380D01*
G04 #@! TO.C,R13*
X162607142Y-93912380D02*
X162273809Y-93436190D01*
X162035714Y-93912380D02*
X162035714Y-92912380D01*
X162416666Y-92912380D01*
X162511904Y-92960000D01*
X162559523Y-93007619D01*
X162607142Y-93102857D01*
X162607142Y-93245714D01*
X162559523Y-93340952D01*
X162511904Y-93388571D01*
X162416666Y-93436190D01*
X162035714Y-93436190D01*
X163559523Y-93912380D02*
X162988095Y-93912380D01*
X163273809Y-93912380D02*
X163273809Y-92912380D01*
X163178571Y-93055238D01*
X163083333Y-93150476D01*
X162988095Y-93198095D01*
X163892857Y-92912380D02*
X164511904Y-92912380D01*
X164178571Y-93293333D01*
X164321428Y-93293333D01*
X164416666Y-93340952D01*
X164464285Y-93388571D01*
X164511904Y-93483809D01*
X164511904Y-93721904D01*
X164464285Y-93817142D01*
X164416666Y-93864761D01*
X164321428Y-93912380D01*
X164035714Y-93912380D01*
X163940476Y-93864761D01*
X163892857Y-93817142D01*
G04 #@! TO.C,R14*
X157607142Y-93912380D02*
X157273809Y-93436190D01*
X157035714Y-93912380D02*
X157035714Y-92912380D01*
X157416666Y-92912380D01*
X157511904Y-92960000D01*
X157559523Y-93007619D01*
X157607142Y-93102857D01*
X157607142Y-93245714D01*
X157559523Y-93340952D01*
X157511904Y-93388571D01*
X157416666Y-93436190D01*
X157035714Y-93436190D01*
X158559523Y-93912380D02*
X157988095Y-93912380D01*
X158273809Y-93912380D02*
X158273809Y-92912380D01*
X158178571Y-93055238D01*
X158083333Y-93150476D01*
X157988095Y-93198095D01*
X159416666Y-93245714D02*
X159416666Y-93912380D01*
X159178571Y-92864761D02*
X158940476Y-93579047D01*
X159559523Y-93579047D01*
G04 #@! TO.C,R15*
X157607142Y-104912380D02*
X157273809Y-104436190D01*
X157035714Y-104912380D02*
X157035714Y-103912380D01*
X157416666Y-103912380D01*
X157511904Y-103960000D01*
X157559523Y-104007619D01*
X157607142Y-104102857D01*
X157607142Y-104245714D01*
X157559523Y-104340952D01*
X157511904Y-104388571D01*
X157416666Y-104436190D01*
X157035714Y-104436190D01*
X158559523Y-104912380D02*
X157988095Y-104912380D01*
X158273809Y-104912380D02*
X158273809Y-103912380D01*
X158178571Y-104055238D01*
X158083333Y-104150476D01*
X157988095Y-104198095D01*
X159464285Y-103912380D02*
X158988095Y-103912380D01*
X158940476Y-104388571D01*
X158988095Y-104340952D01*
X159083333Y-104293333D01*
X159321428Y-104293333D01*
X159416666Y-104340952D01*
X159464285Y-104388571D01*
X159511904Y-104483809D01*
X159511904Y-104721904D01*
X159464285Y-104817142D01*
X159416666Y-104864761D01*
X159321428Y-104912380D01*
X159083333Y-104912380D01*
X158988095Y-104864761D01*
X158940476Y-104817142D01*
G04 #@! TO.C,R16*
X162607142Y-104912380D02*
X162273809Y-104436190D01*
X162035714Y-104912380D02*
X162035714Y-103912380D01*
X162416666Y-103912380D01*
X162511904Y-103960000D01*
X162559523Y-104007619D01*
X162607142Y-104102857D01*
X162607142Y-104245714D01*
X162559523Y-104340952D01*
X162511904Y-104388571D01*
X162416666Y-104436190D01*
X162035714Y-104436190D01*
X163559523Y-104912380D02*
X162988095Y-104912380D01*
X163273809Y-104912380D02*
X163273809Y-103912380D01*
X163178571Y-104055238D01*
X163083333Y-104150476D01*
X162988095Y-104198095D01*
X164416666Y-103912380D02*
X164226190Y-103912380D01*
X164130952Y-103960000D01*
X164083333Y-104007619D01*
X163988095Y-104150476D01*
X163940476Y-104340952D01*
X163940476Y-104721904D01*
X163988095Y-104817142D01*
X164035714Y-104864761D01*
X164130952Y-104912380D01*
X164321428Y-104912380D01*
X164416666Y-104864761D01*
X164464285Y-104817142D01*
X164511904Y-104721904D01*
X164511904Y-104483809D01*
X164464285Y-104388571D01*
X164416666Y-104340952D01*
X164321428Y-104293333D01*
X164130952Y-104293333D01*
X164035714Y-104340952D01*
X163988095Y-104388571D01*
X163940476Y-104483809D01*
G04 #@! TO.C,R17*
X167607142Y-104912380D02*
X167273809Y-104436190D01*
X167035714Y-104912380D02*
X167035714Y-103912380D01*
X167416666Y-103912380D01*
X167511904Y-103960000D01*
X167559523Y-104007619D01*
X167607142Y-104102857D01*
X167607142Y-104245714D01*
X167559523Y-104340952D01*
X167511904Y-104388571D01*
X167416666Y-104436190D01*
X167035714Y-104436190D01*
X168559523Y-104912380D02*
X167988095Y-104912380D01*
X168273809Y-104912380D02*
X168273809Y-103912380D01*
X168178571Y-104055238D01*
X168083333Y-104150476D01*
X167988095Y-104198095D01*
X168892857Y-103912380D02*
X169559523Y-103912380D01*
X169130952Y-104912380D01*
G04 #@! TO.C,R18*
X172607142Y-104912380D02*
X172273809Y-104436190D01*
X172035714Y-104912380D02*
X172035714Y-103912380D01*
X172416666Y-103912380D01*
X172511904Y-103960000D01*
X172559523Y-104007619D01*
X172607142Y-104102857D01*
X172607142Y-104245714D01*
X172559523Y-104340952D01*
X172511904Y-104388571D01*
X172416666Y-104436190D01*
X172035714Y-104436190D01*
X173559523Y-104912380D02*
X172988095Y-104912380D01*
X173273809Y-104912380D02*
X173273809Y-103912380D01*
X173178571Y-104055238D01*
X173083333Y-104150476D01*
X172988095Y-104198095D01*
X174130952Y-104340952D02*
X174035714Y-104293333D01*
X173988095Y-104245714D01*
X173940476Y-104150476D01*
X173940476Y-104102857D01*
X173988095Y-104007619D01*
X174035714Y-103960000D01*
X174130952Y-103912380D01*
X174321428Y-103912380D01*
X174416666Y-103960000D01*
X174464285Y-104007619D01*
X174511904Y-104102857D01*
X174511904Y-104150476D01*
X174464285Y-104245714D01*
X174416666Y-104293333D01*
X174321428Y-104340952D01*
X174130952Y-104340952D01*
X174035714Y-104388571D01*
X173988095Y-104436190D01*
X173940476Y-104531428D01*
X173940476Y-104721904D01*
X173988095Y-104817142D01*
X174035714Y-104864761D01*
X174130952Y-104912380D01*
X174321428Y-104912380D01*
X174416666Y-104864761D01*
X174464285Y-104817142D01*
X174511904Y-104721904D01*
X174511904Y-104531428D01*
X174464285Y-104436190D01*
X174416666Y-104388571D01*
X174321428Y-104340952D01*
G04 #@! TO.C,R19*
X172607142Y-93912380D02*
X172273809Y-93436190D01*
X172035714Y-93912380D02*
X172035714Y-92912380D01*
X172416666Y-92912380D01*
X172511904Y-92960000D01*
X172559523Y-93007619D01*
X172607142Y-93102857D01*
X172607142Y-93245714D01*
X172559523Y-93340952D01*
X172511904Y-93388571D01*
X172416666Y-93436190D01*
X172035714Y-93436190D01*
X173559523Y-93912380D02*
X172988095Y-93912380D01*
X173273809Y-93912380D02*
X173273809Y-92912380D01*
X173178571Y-93055238D01*
X173083333Y-93150476D01*
X172988095Y-93198095D01*
X174035714Y-93912380D02*
X174226190Y-93912380D01*
X174321428Y-93864761D01*
X174369047Y-93817142D01*
X174464285Y-93674285D01*
X174511904Y-93483809D01*
X174511904Y-93102857D01*
X174464285Y-93007619D01*
X174416666Y-92960000D01*
X174321428Y-92912380D01*
X174130952Y-92912380D01*
X174035714Y-92960000D01*
X173988095Y-93007619D01*
X173940476Y-93102857D01*
X173940476Y-93340952D01*
X173988095Y-93436190D01*
X174035714Y-93483809D01*
X174130952Y-93531428D01*
X174321428Y-93531428D01*
X174416666Y-93483809D01*
X174464285Y-93436190D01*
X174511904Y-93340952D01*
G04 #@! TO.C,R20*
X127107142Y-104912380D02*
X126773809Y-104436190D01*
X126535714Y-104912380D02*
X126535714Y-103912380D01*
X126916666Y-103912380D01*
X127011904Y-103960000D01*
X127059523Y-104007619D01*
X127107142Y-104102857D01*
X127107142Y-104245714D01*
X127059523Y-104340952D01*
X127011904Y-104388571D01*
X126916666Y-104436190D01*
X126535714Y-104436190D01*
X127488095Y-104007619D02*
X127535714Y-103960000D01*
X127630952Y-103912380D01*
X127869047Y-103912380D01*
X127964285Y-103960000D01*
X128011904Y-104007619D01*
X128059523Y-104102857D01*
X128059523Y-104198095D01*
X128011904Y-104340952D01*
X127440476Y-104912380D01*
X128059523Y-104912380D01*
X128678571Y-103912380D02*
X128773809Y-103912380D01*
X128869047Y-103960000D01*
X128916666Y-104007619D01*
X128964285Y-104102857D01*
X129011904Y-104293333D01*
X129011904Y-104531428D01*
X128964285Y-104721904D01*
X128916666Y-104817142D01*
X128869047Y-104864761D01*
X128773809Y-104912380D01*
X128678571Y-104912380D01*
X128583333Y-104864761D01*
X128535714Y-104817142D01*
X128488095Y-104721904D01*
X128440476Y-104531428D01*
X128440476Y-104293333D01*
X128488095Y-104102857D01*
X128535714Y-104007619D01*
X128583333Y-103960000D01*
X128678571Y-103912380D01*
G04 #@! TO.C,R22*
X149548141Y-102451379D02*
X149214808Y-101975189D01*
X148976713Y-102451379D02*
X148976713Y-101451379D01*
X149357665Y-101451379D01*
X149452903Y-101498999D01*
X149500522Y-101546618D01*
X149548141Y-101641856D01*
X149548141Y-101784713D01*
X149500522Y-101879951D01*
X149452903Y-101927570D01*
X149357665Y-101975189D01*
X148976713Y-101975189D01*
X149929094Y-101546618D02*
X149976713Y-101498999D01*
X150071951Y-101451379D01*
X150310046Y-101451379D01*
X150405284Y-101498999D01*
X150452903Y-101546618D01*
X150500522Y-101641856D01*
X150500522Y-101737094D01*
X150452903Y-101879951D01*
X149881475Y-102451379D01*
X150500522Y-102451379D01*
X150881475Y-101546618D02*
X150929094Y-101498999D01*
X151024332Y-101451379D01*
X151262427Y-101451379D01*
X151357665Y-101498999D01*
X151405284Y-101546618D01*
X151452903Y-101641856D01*
X151452903Y-101737094D01*
X151405284Y-101879951D01*
X150833856Y-102451379D01*
X151452903Y-102451379D01*
G04 #@! TO.C,R101*
X129130952Y-87928380D02*
X128797619Y-87452190D01*
X128559523Y-87928380D02*
X128559523Y-86928380D01*
X128940476Y-86928380D01*
X129035714Y-86976000D01*
X129083333Y-87023619D01*
X129130952Y-87118857D01*
X129130952Y-87261714D01*
X129083333Y-87356952D01*
X129035714Y-87404571D01*
X128940476Y-87452190D01*
X128559523Y-87452190D01*
X130083333Y-87928380D02*
X129511904Y-87928380D01*
X129797619Y-87928380D02*
X129797619Y-86928380D01*
X129702380Y-87071238D01*
X129607142Y-87166476D01*
X129511904Y-87214095D01*
X130702380Y-86928380D02*
X130797619Y-86928380D01*
X130892857Y-86976000D01*
X130940476Y-87023619D01*
X130988095Y-87118857D01*
X131035714Y-87309333D01*
X131035714Y-87547428D01*
X130988095Y-87737904D01*
X130940476Y-87833142D01*
X130892857Y-87880761D01*
X130797619Y-87928380D01*
X130702380Y-87928380D01*
X130607142Y-87880761D01*
X130559523Y-87833142D01*
X130511904Y-87737904D01*
X130464285Y-87547428D01*
X130464285Y-87309333D01*
X130511904Y-87118857D01*
X130559523Y-87023619D01*
X130607142Y-86976000D01*
X130702380Y-86928380D01*
X131988095Y-87928380D02*
X131416666Y-87928380D01*
X131702380Y-87928380D02*
X131702380Y-86928380D01*
X131607142Y-87071238D01*
X131511904Y-87166476D01*
X131416666Y-87214095D01*
G04 #@! TO.C,R102*
X134130952Y-87928380D02*
X133797619Y-87452190D01*
X133559523Y-87928380D02*
X133559523Y-86928380D01*
X133940476Y-86928380D01*
X134035714Y-86976000D01*
X134083333Y-87023619D01*
X134130952Y-87118857D01*
X134130952Y-87261714D01*
X134083333Y-87356952D01*
X134035714Y-87404571D01*
X133940476Y-87452190D01*
X133559523Y-87452190D01*
X135083333Y-87928380D02*
X134511904Y-87928380D01*
X134797619Y-87928380D02*
X134797619Y-86928380D01*
X134702380Y-87071238D01*
X134607142Y-87166476D01*
X134511904Y-87214095D01*
X135702380Y-86928380D02*
X135797619Y-86928380D01*
X135892857Y-86976000D01*
X135940476Y-87023619D01*
X135988095Y-87118857D01*
X136035714Y-87309333D01*
X136035714Y-87547428D01*
X135988095Y-87737904D01*
X135940476Y-87833142D01*
X135892857Y-87880761D01*
X135797619Y-87928380D01*
X135702380Y-87928380D01*
X135607142Y-87880761D01*
X135559523Y-87833142D01*
X135511904Y-87737904D01*
X135464285Y-87547428D01*
X135464285Y-87309333D01*
X135511904Y-87118857D01*
X135559523Y-87023619D01*
X135607142Y-86976000D01*
X135702380Y-86928380D01*
X136416666Y-87023619D02*
X136464285Y-86976000D01*
X136559523Y-86928380D01*
X136797619Y-86928380D01*
X136892857Y-86976000D01*
X136940476Y-87023619D01*
X136988095Y-87118857D01*
X136988095Y-87214095D01*
X136940476Y-87356952D01*
X136369047Y-87928380D01*
X136988095Y-87928380D01*
G04 #@! TO.C,R103*
X124380952Y-86912380D02*
X124047619Y-86436190D01*
X123809523Y-86912380D02*
X123809523Y-85912380D01*
X124190476Y-85912380D01*
X124285714Y-85960000D01*
X124333333Y-86007619D01*
X124380952Y-86102857D01*
X124380952Y-86245714D01*
X124333333Y-86340952D01*
X124285714Y-86388571D01*
X124190476Y-86436190D01*
X123809523Y-86436190D01*
X125333333Y-86912380D02*
X124761904Y-86912380D01*
X125047619Y-86912380D02*
X125047619Y-85912380D01*
X124952380Y-86055238D01*
X124857142Y-86150476D01*
X124761904Y-86198095D01*
X125952380Y-85912380D02*
X126047619Y-85912380D01*
X126142857Y-85960000D01*
X126190476Y-86007619D01*
X126238095Y-86102857D01*
X126285714Y-86293333D01*
X126285714Y-86531428D01*
X126238095Y-86721904D01*
X126190476Y-86817142D01*
X126142857Y-86864761D01*
X126047619Y-86912380D01*
X125952380Y-86912380D01*
X125857142Y-86864761D01*
X125809523Y-86817142D01*
X125761904Y-86721904D01*
X125714285Y-86531428D01*
X125714285Y-86293333D01*
X125761904Y-86102857D01*
X125809523Y-86007619D01*
X125857142Y-85960000D01*
X125952380Y-85912380D01*
X126619047Y-85912380D02*
X127238095Y-85912380D01*
X126904761Y-86293333D01*
X127047619Y-86293333D01*
X127142857Y-86340952D01*
X127190476Y-86388571D01*
X127238095Y-86483809D01*
X127238095Y-86721904D01*
X127190476Y-86817142D01*
X127142857Y-86864761D01*
X127047619Y-86912380D01*
X126761904Y-86912380D01*
X126666666Y-86864761D01*
X126619047Y-86817142D01*
G04 #@! TO.C,U1*
X131988095Y-74052380D02*
X131988095Y-74861904D01*
X132035714Y-74957142D01*
X132083333Y-75004761D01*
X132178571Y-75052380D01*
X132369047Y-75052380D01*
X132464285Y-75004761D01*
X132511904Y-74957142D01*
X132559523Y-74861904D01*
X132559523Y-74052380D01*
X133559523Y-75052380D02*
X132988095Y-75052380D01*
X133273809Y-75052380D02*
X133273809Y-74052380D01*
X133178571Y-74195238D01*
X133083333Y-74290476D01*
X132988095Y-74338095D01*
G04 #@! TD*
M02*
