%TF.GenerationSoftware,KiCad,Pcbnew,(5.1.7)-1*%
%TF.CreationDate,2020-10-26T20:25:05-05:00*%
%TF.ProjectId,MuffPi,4d756666-5069-42e6-9b69-6361645f7063,rev?*%
%TF.SameCoordinates,Original*%
%TF.FileFunction,Legend,Bot*%
%TF.FilePolarity,Positive*%
%FSLAX46Y46*%
G04 Gerber Fmt 4.6, Leading zero omitted, Abs format (unit mm)*
G04 Created by KiCad (PCBNEW (5.1.7)-1) date 2020-10-26 20:25:05*
%MOMM*%
%LPD*%
G01*
G04 APERTURE LIST*
%ADD10C,0.250000*%
G04 APERTURE END LIST*
D10*
X114207500Y-101443571D02*
X114064642Y-101491190D01*
X114017023Y-101538809D01*
X113969404Y-101634047D01*
X113969404Y-101776904D01*
X114017023Y-101872142D01*
X114064642Y-101919761D01*
X114159880Y-101967380D01*
X114540833Y-101967380D01*
X114540833Y-100967380D01*
X114207500Y-100967380D01*
X114112261Y-101015000D01*
X114064642Y-101062619D01*
X114017023Y-101157857D01*
X114017023Y-101253095D01*
X114064642Y-101348333D01*
X114112261Y-101395952D01*
X114207500Y-101443571D01*
X114540833Y-101443571D01*
X113540833Y-101967380D02*
X113540833Y-101300714D01*
X113540833Y-100967380D02*
X113588452Y-101015000D01*
X113540833Y-101062619D01*
X113493214Y-101015000D01*
X113540833Y-100967380D01*
X113540833Y-101062619D01*
X112636071Y-101300714D02*
X112636071Y-102110238D01*
X112683690Y-102205476D01*
X112731309Y-102253095D01*
X112826547Y-102300714D01*
X112969404Y-102300714D01*
X113064642Y-102253095D01*
X112636071Y-101919761D02*
X112731309Y-101967380D01*
X112921785Y-101967380D01*
X113017023Y-101919761D01*
X113064642Y-101872142D01*
X113112261Y-101776904D01*
X113112261Y-101491190D01*
X113064642Y-101395952D01*
X113017023Y-101348333D01*
X112921785Y-101300714D01*
X112731309Y-101300714D01*
X112636071Y-101348333D01*
X111397976Y-101967380D02*
X111397976Y-100967380D01*
X111064642Y-101681666D01*
X110731309Y-100967380D01*
X110731309Y-101967380D01*
X109826547Y-101300714D02*
X109826547Y-101967380D01*
X110255119Y-101300714D02*
X110255119Y-101824523D01*
X110207500Y-101919761D01*
X110112261Y-101967380D01*
X109969404Y-101967380D01*
X109874166Y-101919761D01*
X109826547Y-101872142D01*
X109493214Y-101300714D02*
X109112261Y-101300714D01*
X109350357Y-101967380D02*
X109350357Y-101110238D01*
X109302738Y-101015000D01*
X109207500Y-100967380D01*
X109112261Y-100967380D01*
X108921785Y-101300714D02*
X108540833Y-101300714D01*
X108778928Y-101967380D02*
X108778928Y-101110238D01*
X108731309Y-101015000D01*
X108636071Y-100967380D01*
X108540833Y-100967380D01*
X107445595Y-101967380D02*
X107445595Y-100967380D01*
X107064642Y-100967380D01*
X106969404Y-101015000D01*
X106921785Y-101062619D01*
X106874166Y-101157857D01*
X106874166Y-101300714D01*
X106921785Y-101395952D01*
X106969404Y-101443571D01*
X107064642Y-101491190D01*
X107445595Y-101491190D01*
X106445595Y-101967380D02*
X106445595Y-101300714D01*
X106445595Y-100967380D02*
X106493214Y-101015000D01*
X106445595Y-101062619D01*
X106397976Y-101015000D01*
X106445595Y-100967380D01*
X106445595Y-101062619D01*
X109350357Y-102717380D02*
X109017023Y-103717380D01*
X108683690Y-102717380D01*
X107826547Y-103717380D02*
X108397976Y-103717380D01*
X108112261Y-103717380D02*
X108112261Y-102717380D01*
X108207500Y-102860238D01*
X108302738Y-102955476D01*
X108397976Y-103003095D01*
X107397976Y-103622142D02*
X107350357Y-103669761D01*
X107397976Y-103717380D01*
X107445595Y-103669761D01*
X107397976Y-103622142D01*
X107397976Y-103717380D01*
X106731309Y-102717380D02*
X106636071Y-102717380D01*
X106540833Y-102765000D01*
X106493214Y-102812619D01*
X106445595Y-102907857D01*
X106397976Y-103098333D01*
X106397976Y-103336428D01*
X106445595Y-103526904D01*
X106493214Y-103622142D01*
X106540833Y-103669761D01*
X106636071Y-103717380D01*
X106731309Y-103717380D01*
X106826547Y-103669761D01*
X106874166Y-103622142D01*
X106921785Y-103526904D01*
X106969404Y-103336428D01*
X106969404Y-103098333D01*
X106921785Y-102907857D01*
X106874166Y-102812619D01*
X106826547Y-102765000D01*
X106731309Y-102717380D01*
X120017023Y-104467380D02*
X119445595Y-104467380D01*
X119731309Y-105467380D02*
X119731309Y-104467380D01*
X119112261Y-105467380D02*
X119112261Y-104467380D01*
X118683690Y-105467380D02*
X118683690Y-104943571D01*
X118731309Y-104848333D01*
X118826547Y-104800714D01*
X118969404Y-104800714D01*
X119064642Y-104848333D01*
X119112261Y-104895952D01*
X118064642Y-105467380D02*
X118159880Y-105419761D01*
X118207500Y-105372142D01*
X118255119Y-105276904D01*
X118255119Y-104991190D01*
X118207500Y-104895952D01*
X118159880Y-104848333D01*
X118064642Y-104800714D01*
X117921785Y-104800714D01*
X117826547Y-104848333D01*
X117778928Y-104895952D01*
X117731309Y-104991190D01*
X117731309Y-105276904D01*
X117778928Y-105372142D01*
X117826547Y-105419761D01*
X117921785Y-105467380D01*
X118064642Y-105467380D01*
X117302738Y-105467380D02*
X117302738Y-104800714D01*
X117302738Y-104895952D02*
X117255119Y-104848333D01*
X117159880Y-104800714D01*
X117017023Y-104800714D01*
X116921785Y-104848333D01*
X116874166Y-104943571D01*
X116874166Y-105467380D01*
X116874166Y-104943571D02*
X116826547Y-104848333D01*
X116731309Y-104800714D01*
X116588452Y-104800714D01*
X116493214Y-104848333D01*
X116445595Y-104943571D01*
X116445595Y-105467380D01*
X115540833Y-105467380D02*
X115540833Y-104943571D01*
X115588452Y-104848333D01*
X115683690Y-104800714D01*
X115874166Y-104800714D01*
X115969404Y-104848333D01*
X115540833Y-105419761D02*
X115636071Y-105467380D01*
X115874166Y-105467380D01*
X115969404Y-105419761D01*
X116017023Y-105324523D01*
X116017023Y-105229285D01*
X115969404Y-105134047D01*
X115874166Y-105086428D01*
X115636071Y-105086428D01*
X115540833Y-105038809D01*
X115112261Y-105419761D02*
X115017023Y-105467380D01*
X114826547Y-105467380D01*
X114731309Y-105419761D01*
X114683690Y-105324523D01*
X114683690Y-105276904D01*
X114731309Y-105181666D01*
X114826547Y-105134047D01*
X114969404Y-105134047D01*
X115064642Y-105086428D01*
X115112261Y-104991190D01*
X115112261Y-104943571D01*
X115064642Y-104848333D01*
X114969404Y-104800714D01*
X114826547Y-104800714D01*
X114731309Y-104848333D01*
X113493214Y-105467380D02*
X113493214Y-104467380D01*
X113159880Y-105181666D01*
X112826547Y-104467380D01*
X112826547Y-105467380D01*
X111921785Y-105419761D02*
X112017023Y-105467380D01*
X112207500Y-105467380D01*
X112302738Y-105419761D01*
X112350357Y-105372142D01*
X112397976Y-105276904D01*
X112397976Y-104991190D01*
X112350357Y-104895952D01*
X112302738Y-104848333D01*
X112207500Y-104800714D01*
X112017023Y-104800714D01*
X111921785Y-104848333D01*
X111493214Y-105467380D02*
X111493214Y-104467380D01*
X111255119Y-104467380D01*
X111112261Y-104515000D01*
X111017023Y-104610238D01*
X110969404Y-104705476D01*
X110921785Y-104895952D01*
X110921785Y-105038809D01*
X110969404Y-105229285D01*
X111017023Y-105324523D01*
X111112261Y-105419761D01*
X111255119Y-105467380D01*
X111493214Y-105467380D01*
X110350357Y-105467380D02*
X110445595Y-105419761D01*
X110493214Y-105372142D01*
X110540833Y-105276904D01*
X110540833Y-104991190D01*
X110493214Y-104895952D01*
X110445595Y-104848333D01*
X110350357Y-104800714D01*
X110207500Y-104800714D01*
X110112261Y-104848333D01*
X110064642Y-104895952D01*
X110017023Y-104991190D01*
X110017023Y-105276904D01*
X110064642Y-105372142D01*
X110112261Y-105419761D01*
X110207500Y-105467380D01*
X110350357Y-105467380D01*
X109588452Y-104800714D02*
X109588452Y-105467380D01*
X109588452Y-104895952D02*
X109540833Y-104848333D01*
X109445595Y-104800714D01*
X109302738Y-104800714D01*
X109207500Y-104848333D01*
X109159880Y-104943571D01*
X109159880Y-105467380D01*
X108255119Y-105467380D02*
X108255119Y-104943571D01*
X108302738Y-104848333D01*
X108397976Y-104800714D01*
X108588452Y-104800714D01*
X108683690Y-104848333D01*
X108255119Y-105419761D02*
X108350357Y-105467380D01*
X108588452Y-105467380D01*
X108683690Y-105419761D01*
X108731309Y-105324523D01*
X108731309Y-105229285D01*
X108683690Y-105134047D01*
X108588452Y-105086428D01*
X108350357Y-105086428D01*
X108255119Y-105038809D01*
X107350357Y-104800714D02*
X107350357Y-105610238D01*
X107397976Y-105705476D01*
X107445595Y-105753095D01*
X107540833Y-105800714D01*
X107683690Y-105800714D01*
X107778928Y-105753095D01*
X107350357Y-105419761D02*
X107445595Y-105467380D01*
X107636071Y-105467380D01*
X107731309Y-105419761D01*
X107778928Y-105372142D01*
X107826547Y-105276904D01*
X107826547Y-104991190D01*
X107778928Y-104895952D01*
X107731309Y-104848333D01*
X107636071Y-104800714D01*
X107445595Y-104800714D01*
X107350357Y-104848333D01*
X106874166Y-105467380D02*
X106874166Y-104467380D01*
X106445595Y-105467380D02*
X106445595Y-104943571D01*
X106493214Y-104848333D01*
X106588452Y-104800714D01*
X106731309Y-104800714D01*
X106826547Y-104848333D01*
X106874166Y-104895952D01*
X120445595Y-107217380D02*
X120445595Y-106550714D01*
X120445595Y-106645952D02*
X120397976Y-106598333D01*
X120302738Y-106550714D01*
X120159880Y-106550714D01*
X120064642Y-106598333D01*
X120017023Y-106693571D01*
X120017023Y-107217380D01*
X120017023Y-106693571D02*
X119969404Y-106598333D01*
X119874166Y-106550714D01*
X119731309Y-106550714D01*
X119636071Y-106598333D01*
X119588452Y-106693571D01*
X119588452Y-107217380D01*
X118683690Y-107169761D02*
X118778928Y-107217380D01*
X118969404Y-107217380D01*
X119064642Y-107169761D01*
X119112261Y-107122142D01*
X119159880Y-107026904D01*
X119159880Y-106741190D01*
X119112261Y-106645952D01*
X119064642Y-106598333D01*
X118969404Y-106550714D01*
X118778928Y-106550714D01*
X118683690Y-106598333D01*
X117826547Y-107217380D02*
X117826547Y-106217380D01*
X117826547Y-107169761D02*
X117921785Y-107217380D01*
X118112261Y-107217380D01*
X118207500Y-107169761D01*
X118255119Y-107122142D01*
X118302738Y-107026904D01*
X118302738Y-106741190D01*
X118255119Y-106645952D01*
X118207500Y-106598333D01*
X118112261Y-106550714D01*
X117921785Y-106550714D01*
X117826547Y-106598333D01*
X117207500Y-107217380D02*
X117302738Y-107169761D01*
X117350357Y-107122142D01*
X117397976Y-107026904D01*
X117397976Y-106741190D01*
X117350357Y-106645952D01*
X117302738Y-106598333D01*
X117207500Y-106550714D01*
X117064642Y-106550714D01*
X116969404Y-106598333D01*
X116921785Y-106645952D01*
X116874166Y-106741190D01*
X116874166Y-107026904D01*
X116921785Y-107122142D01*
X116969404Y-107169761D01*
X117064642Y-107217380D01*
X117207500Y-107217380D01*
X116445595Y-106550714D02*
X116445595Y-107217380D01*
X116445595Y-106645952D02*
X116397976Y-106598333D01*
X116302738Y-106550714D01*
X116159880Y-106550714D01*
X116064642Y-106598333D01*
X116017023Y-106693571D01*
X116017023Y-107217380D01*
X115112261Y-107217380D02*
X115112261Y-106693571D01*
X115159880Y-106598333D01*
X115255119Y-106550714D01*
X115445595Y-106550714D01*
X115540833Y-106598333D01*
X115112261Y-107169761D02*
X115207500Y-107217380D01*
X115445595Y-107217380D01*
X115540833Y-107169761D01*
X115588452Y-107074523D01*
X115588452Y-106979285D01*
X115540833Y-106884047D01*
X115445595Y-106836428D01*
X115207500Y-106836428D01*
X115112261Y-106788809D01*
X114207500Y-106550714D02*
X114207500Y-107360238D01*
X114255119Y-107455476D01*
X114302738Y-107503095D01*
X114397976Y-107550714D01*
X114540833Y-107550714D01*
X114636071Y-107503095D01*
X114207500Y-107169761D02*
X114302738Y-107217380D01*
X114493214Y-107217380D01*
X114588452Y-107169761D01*
X114636071Y-107122142D01*
X114683690Y-107026904D01*
X114683690Y-106741190D01*
X114636071Y-106645952D01*
X114588452Y-106598333D01*
X114493214Y-106550714D01*
X114302738Y-106550714D01*
X114207500Y-106598333D01*
X113731309Y-107217380D02*
X113731309Y-106217380D01*
X113302738Y-107217380D02*
X113302738Y-106693571D01*
X113350357Y-106598333D01*
X113445595Y-106550714D01*
X113588452Y-106550714D01*
X113683690Y-106598333D01*
X113731309Y-106645952D01*
X112397976Y-107169761D02*
X112493214Y-107217380D01*
X112683690Y-107217380D01*
X112778928Y-107169761D01*
X112826547Y-107122142D01*
X112874166Y-107026904D01*
X112874166Y-106741190D01*
X112826547Y-106645952D01*
X112778928Y-106598333D01*
X112683690Y-106550714D01*
X112493214Y-106550714D01*
X112397976Y-106598333D01*
X111826547Y-107217380D02*
X111921785Y-107169761D01*
X111969404Y-107122142D01*
X112017023Y-107026904D01*
X112017023Y-106741190D01*
X111969404Y-106645952D01*
X111921785Y-106598333D01*
X111826547Y-106550714D01*
X111683690Y-106550714D01*
X111588452Y-106598333D01*
X111540833Y-106645952D01*
X111493214Y-106741190D01*
X111493214Y-107026904D01*
X111540833Y-107122142D01*
X111588452Y-107169761D01*
X111683690Y-107217380D01*
X111826547Y-107217380D01*
X111064642Y-107217380D02*
X111064642Y-106550714D01*
X111064642Y-106741190D02*
X111017023Y-106645952D01*
X110969404Y-106598333D01*
X110874166Y-106550714D01*
X110778928Y-106550714D01*
X110445595Y-106550714D02*
X110445595Y-107550714D01*
X110445595Y-106598333D02*
X110350357Y-106550714D01*
X110159880Y-106550714D01*
X110064642Y-106598333D01*
X110017023Y-106645952D01*
X109969404Y-106741190D01*
X109969404Y-107026904D01*
X110017023Y-107122142D01*
X110064642Y-107169761D01*
X110159880Y-107217380D01*
X110350357Y-107217380D01*
X110445595Y-107169761D01*
X109540833Y-107122142D02*
X109493214Y-107169761D01*
X109540833Y-107217380D01*
X109588452Y-107169761D01*
X109540833Y-107122142D01*
X109540833Y-107217380D01*
X108636071Y-107169761D02*
X108731309Y-107217380D01*
X108921785Y-107217380D01*
X109017023Y-107169761D01*
X109064642Y-107122142D01*
X109112261Y-107026904D01*
X109112261Y-106741190D01*
X109064642Y-106645952D01*
X109017023Y-106598333D01*
X108921785Y-106550714D01*
X108731309Y-106550714D01*
X108636071Y-106598333D01*
X108064642Y-107217380D02*
X108159880Y-107169761D01*
X108207500Y-107122142D01*
X108255119Y-107026904D01*
X108255119Y-106741190D01*
X108207500Y-106645952D01*
X108159880Y-106598333D01*
X108064642Y-106550714D01*
X107921785Y-106550714D01*
X107826547Y-106598333D01*
X107778928Y-106645952D01*
X107731309Y-106741190D01*
X107731309Y-107026904D01*
X107778928Y-107122142D01*
X107826547Y-107169761D01*
X107921785Y-107217380D01*
X108064642Y-107217380D01*
X107302738Y-107217380D02*
X107302738Y-106550714D01*
X107302738Y-106645952D02*
X107255119Y-106598333D01*
X107159880Y-106550714D01*
X107017023Y-106550714D01*
X106921785Y-106598333D01*
X106874166Y-106693571D01*
X106874166Y-107217380D01*
X106874166Y-106693571D02*
X106826547Y-106598333D01*
X106731309Y-106550714D01*
X106588452Y-106550714D01*
X106493214Y-106598333D01*
X106445595Y-106693571D01*
X106445595Y-107217380D01*
M02*
