%TF.GenerationSoftware,KiCad,Pcbnew,(5.1.7)-1*%
%TF.CreationDate,2020-10-26T20:25:05-05:00*%
%TF.ProjectId,MuffPi,4d756666-5069-42e6-9b69-6361645f7063,rev?*%
%TF.SameCoordinates,Original*%
%TF.FileFunction,Legend,Top*%
%TF.FilePolarity,Positive*%
%FSLAX46Y46*%
G04 Gerber Fmt 4.6, Leading zero omitted, Abs format (unit mm)*
G04 Created by KiCad (PCBNEW (5.1.7)-1) date 2020-10-26 20:25:05*
%MOMM*%
%LPD*%
G01*
G04 APERTURE LIST*
%ADD10C,0.150000*%
%ADD11C,0.250000*%
%ADD12C,0.120000*%
G04 APERTURE END LIST*
D10*
X104394047Y-81986428D02*
X105155952Y-81986428D01*
X104775000Y-82367380D02*
X104775000Y-81605476D01*
X150804523Y-108942142D02*
X150756904Y-108989761D01*
X150614047Y-109037380D01*
X150518809Y-109037380D01*
X150375952Y-108989761D01*
X150280714Y-108894523D01*
X150233095Y-108799285D01*
X150185476Y-108608809D01*
X150185476Y-108465952D01*
X150233095Y-108275476D01*
X150280714Y-108180238D01*
X150375952Y-108085000D01*
X150518809Y-108037380D01*
X150614047Y-108037380D01*
X150756904Y-108085000D01*
X150804523Y-108132619D01*
X142549523Y-108942142D02*
X142501904Y-108989761D01*
X142359047Y-109037380D01*
X142263809Y-109037380D01*
X142120952Y-108989761D01*
X142025714Y-108894523D01*
X141978095Y-108799285D01*
X141930476Y-108608809D01*
X141930476Y-108465952D01*
X141978095Y-108275476D01*
X142025714Y-108180238D01*
X142120952Y-108085000D01*
X142263809Y-108037380D01*
X142359047Y-108037380D01*
X142501904Y-108085000D01*
X142549523Y-108132619D01*
X136517142Y-109037380D02*
X136040952Y-109037380D01*
X136040952Y-108037380D01*
X136850476Y-108513571D02*
X137183809Y-108513571D01*
X137326666Y-109037380D02*
X136850476Y-109037380D01*
X136850476Y-108037380D01*
X137326666Y-108037380D01*
X137755238Y-109037380D02*
X137755238Y-108037380D01*
X137993333Y-108037380D01*
X138136190Y-108085000D01*
X138231428Y-108180238D01*
X138279047Y-108275476D01*
X138326666Y-108465952D01*
X138326666Y-108608809D01*
X138279047Y-108799285D01*
X138231428Y-108894523D01*
X138136190Y-108989761D01*
X137993333Y-109037380D01*
X137755238Y-109037380D01*
D11*
X106778928Y-101443571D02*
X106921785Y-101491190D01*
X106969404Y-101538809D01*
X107017023Y-101634047D01*
X107017023Y-101776904D01*
X106969404Y-101872142D01*
X106921785Y-101919761D01*
X106826547Y-101967380D01*
X106445595Y-101967380D01*
X106445595Y-100967380D01*
X106778928Y-100967380D01*
X106874166Y-101015000D01*
X106921785Y-101062619D01*
X106969404Y-101157857D01*
X106969404Y-101253095D01*
X106921785Y-101348333D01*
X106874166Y-101395952D01*
X106778928Y-101443571D01*
X106445595Y-101443571D01*
X107445595Y-101967380D02*
X107445595Y-101300714D01*
X107445595Y-100967380D02*
X107397976Y-101015000D01*
X107445595Y-101062619D01*
X107493214Y-101015000D01*
X107445595Y-100967380D01*
X107445595Y-101062619D01*
X108350357Y-101300714D02*
X108350357Y-102110238D01*
X108302738Y-102205476D01*
X108255119Y-102253095D01*
X108159880Y-102300714D01*
X108017023Y-102300714D01*
X107921785Y-102253095D01*
X108350357Y-101919761D02*
X108255119Y-101967380D01*
X108064642Y-101967380D01*
X107969404Y-101919761D01*
X107921785Y-101872142D01*
X107874166Y-101776904D01*
X107874166Y-101491190D01*
X107921785Y-101395952D01*
X107969404Y-101348333D01*
X108064642Y-101300714D01*
X108255119Y-101300714D01*
X108350357Y-101348333D01*
X109588452Y-101967380D02*
X109588452Y-100967380D01*
X109921785Y-101681666D01*
X110255119Y-100967380D01*
X110255119Y-101967380D01*
X111159880Y-101300714D02*
X111159880Y-101967380D01*
X110731309Y-101300714D02*
X110731309Y-101824523D01*
X110778928Y-101919761D01*
X110874166Y-101967380D01*
X111017023Y-101967380D01*
X111112261Y-101919761D01*
X111159880Y-101872142D01*
X111493214Y-101300714D02*
X111874166Y-101300714D01*
X111636071Y-101967380D02*
X111636071Y-101110238D01*
X111683690Y-101015000D01*
X111778928Y-100967380D01*
X111874166Y-100967380D01*
X112064642Y-101300714D02*
X112445595Y-101300714D01*
X112207500Y-101967380D02*
X112207500Y-101110238D01*
X112255119Y-101015000D01*
X112350357Y-100967380D01*
X112445595Y-100967380D01*
X113540833Y-101967380D02*
X113540833Y-100967380D01*
X113921785Y-100967380D01*
X114017023Y-101015000D01*
X114064642Y-101062619D01*
X114112261Y-101157857D01*
X114112261Y-101300714D01*
X114064642Y-101395952D01*
X114017023Y-101443571D01*
X113921785Y-101491190D01*
X113540833Y-101491190D01*
X114540833Y-101967380D02*
X114540833Y-101300714D01*
X114540833Y-100967380D02*
X114493214Y-101015000D01*
X114540833Y-101062619D01*
X114588452Y-101015000D01*
X114540833Y-100967380D01*
X114540833Y-101062619D01*
X106302738Y-102717380D02*
X106636071Y-103717380D01*
X106969404Y-102717380D01*
X107826547Y-103717380D02*
X107255119Y-103717380D01*
X107540833Y-103717380D02*
X107540833Y-102717380D01*
X107445595Y-102860238D01*
X107350357Y-102955476D01*
X107255119Y-103003095D01*
X108255119Y-103622142D02*
X108302738Y-103669761D01*
X108255119Y-103717380D01*
X108207500Y-103669761D01*
X108255119Y-103622142D01*
X108255119Y-103717380D01*
X108921785Y-102717380D02*
X109017023Y-102717380D01*
X109112261Y-102765000D01*
X109159880Y-102812619D01*
X109207500Y-102907857D01*
X109255119Y-103098333D01*
X109255119Y-103336428D01*
X109207500Y-103526904D01*
X109159880Y-103622142D01*
X109112261Y-103669761D01*
X109017023Y-103717380D01*
X108921785Y-103717380D01*
X108826547Y-103669761D01*
X108778928Y-103622142D01*
X108731309Y-103526904D01*
X108683690Y-103336428D01*
X108683690Y-103098333D01*
X108731309Y-102907857D01*
X108778928Y-102812619D01*
X108826547Y-102765000D01*
X108921785Y-102717380D01*
X106302738Y-104467380D02*
X106874166Y-104467380D01*
X106588452Y-105467380D02*
X106588452Y-104467380D01*
X107207500Y-105467380D02*
X107207500Y-104467380D01*
X107636071Y-105467380D02*
X107636071Y-104943571D01*
X107588452Y-104848333D01*
X107493214Y-104800714D01*
X107350357Y-104800714D01*
X107255119Y-104848333D01*
X107207500Y-104895952D01*
X108255119Y-105467380D02*
X108159880Y-105419761D01*
X108112261Y-105372142D01*
X108064642Y-105276904D01*
X108064642Y-104991190D01*
X108112261Y-104895952D01*
X108159880Y-104848333D01*
X108255119Y-104800714D01*
X108397976Y-104800714D01*
X108493214Y-104848333D01*
X108540833Y-104895952D01*
X108588452Y-104991190D01*
X108588452Y-105276904D01*
X108540833Y-105372142D01*
X108493214Y-105419761D01*
X108397976Y-105467380D01*
X108255119Y-105467380D01*
X109017023Y-105467380D02*
X109017023Y-104800714D01*
X109017023Y-104895952D02*
X109064642Y-104848333D01*
X109159880Y-104800714D01*
X109302738Y-104800714D01*
X109397976Y-104848333D01*
X109445595Y-104943571D01*
X109445595Y-105467380D01*
X109445595Y-104943571D02*
X109493214Y-104848333D01*
X109588452Y-104800714D01*
X109731309Y-104800714D01*
X109826547Y-104848333D01*
X109874166Y-104943571D01*
X109874166Y-105467380D01*
X110778928Y-105467380D02*
X110778928Y-104943571D01*
X110731309Y-104848333D01*
X110636071Y-104800714D01*
X110445595Y-104800714D01*
X110350357Y-104848333D01*
X110778928Y-105419761D02*
X110683690Y-105467380D01*
X110445595Y-105467380D01*
X110350357Y-105419761D01*
X110302738Y-105324523D01*
X110302738Y-105229285D01*
X110350357Y-105134047D01*
X110445595Y-105086428D01*
X110683690Y-105086428D01*
X110778928Y-105038809D01*
X111207500Y-105419761D02*
X111302738Y-105467380D01*
X111493214Y-105467380D01*
X111588452Y-105419761D01*
X111636071Y-105324523D01*
X111636071Y-105276904D01*
X111588452Y-105181666D01*
X111493214Y-105134047D01*
X111350357Y-105134047D01*
X111255119Y-105086428D01*
X111207500Y-104991190D01*
X111207500Y-104943571D01*
X111255119Y-104848333D01*
X111350357Y-104800714D01*
X111493214Y-104800714D01*
X111588452Y-104848333D01*
X112826547Y-105467380D02*
X112826547Y-104467380D01*
X113159880Y-105181666D01*
X113493214Y-104467380D01*
X113493214Y-105467380D01*
X114397976Y-105419761D02*
X114302738Y-105467380D01*
X114112261Y-105467380D01*
X114017023Y-105419761D01*
X113969404Y-105372142D01*
X113921785Y-105276904D01*
X113921785Y-104991190D01*
X113969404Y-104895952D01*
X114017023Y-104848333D01*
X114112261Y-104800714D01*
X114302738Y-104800714D01*
X114397976Y-104848333D01*
X114826547Y-105467380D02*
X114826547Y-104467380D01*
X115064642Y-104467380D01*
X115207500Y-104515000D01*
X115302738Y-104610238D01*
X115350357Y-104705476D01*
X115397976Y-104895952D01*
X115397976Y-105038809D01*
X115350357Y-105229285D01*
X115302738Y-105324523D01*
X115207500Y-105419761D01*
X115064642Y-105467380D01*
X114826547Y-105467380D01*
X115969404Y-105467380D02*
X115874166Y-105419761D01*
X115826547Y-105372142D01*
X115778928Y-105276904D01*
X115778928Y-104991190D01*
X115826547Y-104895952D01*
X115874166Y-104848333D01*
X115969404Y-104800714D01*
X116112261Y-104800714D01*
X116207500Y-104848333D01*
X116255119Y-104895952D01*
X116302738Y-104991190D01*
X116302738Y-105276904D01*
X116255119Y-105372142D01*
X116207500Y-105419761D01*
X116112261Y-105467380D01*
X115969404Y-105467380D01*
X116731309Y-104800714D02*
X116731309Y-105467380D01*
X116731309Y-104895952D02*
X116778928Y-104848333D01*
X116874166Y-104800714D01*
X117017023Y-104800714D01*
X117112261Y-104848333D01*
X117159880Y-104943571D01*
X117159880Y-105467380D01*
X118064642Y-105467380D02*
X118064642Y-104943571D01*
X118017023Y-104848333D01*
X117921785Y-104800714D01*
X117731309Y-104800714D01*
X117636071Y-104848333D01*
X118064642Y-105419761D02*
X117969404Y-105467380D01*
X117731309Y-105467380D01*
X117636071Y-105419761D01*
X117588452Y-105324523D01*
X117588452Y-105229285D01*
X117636071Y-105134047D01*
X117731309Y-105086428D01*
X117969404Y-105086428D01*
X118064642Y-105038809D01*
X118969404Y-104800714D02*
X118969404Y-105610238D01*
X118921785Y-105705476D01*
X118874166Y-105753095D01*
X118778928Y-105800714D01*
X118636071Y-105800714D01*
X118540833Y-105753095D01*
X118969404Y-105419761D02*
X118874166Y-105467380D01*
X118683690Y-105467380D01*
X118588452Y-105419761D01*
X118540833Y-105372142D01*
X118493214Y-105276904D01*
X118493214Y-104991190D01*
X118540833Y-104895952D01*
X118588452Y-104848333D01*
X118683690Y-104800714D01*
X118874166Y-104800714D01*
X118969404Y-104848333D01*
X119445595Y-105467380D02*
X119445595Y-104467380D01*
X119874166Y-105467380D02*
X119874166Y-104943571D01*
X119826547Y-104848333D01*
X119731309Y-104800714D01*
X119588452Y-104800714D01*
X119493214Y-104848333D01*
X119445595Y-104895952D01*
X106445595Y-107217380D02*
X106445595Y-106550714D01*
X106445595Y-106645952D02*
X106493214Y-106598333D01*
X106588452Y-106550714D01*
X106731309Y-106550714D01*
X106826547Y-106598333D01*
X106874166Y-106693571D01*
X106874166Y-107217380D01*
X106874166Y-106693571D02*
X106921785Y-106598333D01*
X107017023Y-106550714D01*
X107159880Y-106550714D01*
X107255119Y-106598333D01*
X107302738Y-106693571D01*
X107302738Y-107217380D01*
X108207500Y-107169761D02*
X108112261Y-107217380D01*
X107921785Y-107217380D01*
X107826547Y-107169761D01*
X107778928Y-107122142D01*
X107731309Y-107026904D01*
X107731309Y-106741190D01*
X107778928Y-106645952D01*
X107826547Y-106598333D01*
X107921785Y-106550714D01*
X108112261Y-106550714D01*
X108207500Y-106598333D01*
X109064642Y-107217380D02*
X109064642Y-106217380D01*
X109064642Y-107169761D02*
X108969404Y-107217380D01*
X108778928Y-107217380D01*
X108683690Y-107169761D01*
X108636071Y-107122142D01*
X108588452Y-107026904D01*
X108588452Y-106741190D01*
X108636071Y-106645952D01*
X108683690Y-106598333D01*
X108778928Y-106550714D01*
X108969404Y-106550714D01*
X109064642Y-106598333D01*
X109683690Y-107217380D02*
X109588452Y-107169761D01*
X109540833Y-107122142D01*
X109493214Y-107026904D01*
X109493214Y-106741190D01*
X109540833Y-106645952D01*
X109588452Y-106598333D01*
X109683690Y-106550714D01*
X109826547Y-106550714D01*
X109921785Y-106598333D01*
X109969404Y-106645952D01*
X110017023Y-106741190D01*
X110017023Y-107026904D01*
X109969404Y-107122142D01*
X109921785Y-107169761D01*
X109826547Y-107217380D01*
X109683690Y-107217380D01*
X110445595Y-106550714D02*
X110445595Y-107217380D01*
X110445595Y-106645952D02*
X110493214Y-106598333D01*
X110588452Y-106550714D01*
X110731309Y-106550714D01*
X110826547Y-106598333D01*
X110874166Y-106693571D01*
X110874166Y-107217380D01*
X111778928Y-107217380D02*
X111778928Y-106693571D01*
X111731309Y-106598333D01*
X111636071Y-106550714D01*
X111445595Y-106550714D01*
X111350357Y-106598333D01*
X111778928Y-107169761D02*
X111683690Y-107217380D01*
X111445595Y-107217380D01*
X111350357Y-107169761D01*
X111302738Y-107074523D01*
X111302738Y-106979285D01*
X111350357Y-106884047D01*
X111445595Y-106836428D01*
X111683690Y-106836428D01*
X111778928Y-106788809D01*
X112683690Y-106550714D02*
X112683690Y-107360238D01*
X112636071Y-107455476D01*
X112588452Y-107503095D01*
X112493214Y-107550714D01*
X112350357Y-107550714D01*
X112255119Y-107503095D01*
X112683690Y-107169761D02*
X112588452Y-107217380D01*
X112397976Y-107217380D01*
X112302738Y-107169761D01*
X112255119Y-107122142D01*
X112207500Y-107026904D01*
X112207500Y-106741190D01*
X112255119Y-106645952D01*
X112302738Y-106598333D01*
X112397976Y-106550714D01*
X112588452Y-106550714D01*
X112683690Y-106598333D01*
X113159880Y-107217380D02*
X113159880Y-106217380D01*
X113588452Y-107217380D02*
X113588452Y-106693571D01*
X113540833Y-106598333D01*
X113445595Y-106550714D01*
X113302738Y-106550714D01*
X113207500Y-106598333D01*
X113159880Y-106645952D01*
X114493214Y-107169761D02*
X114397976Y-107217380D01*
X114207500Y-107217380D01*
X114112261Y-107169761D01*
X114064642Y-107122142D01*
X114017023Y-107026904D01*
X114017023Y-106741190D01*
X114064642Y-106645952D01*
X114112261Y-106598333D01*
X114207500Y-106550714D01*
X114397976Y-106550714D01*
X114493214Y-106598333D01*
X115064642Y-107217380D02*
X114969404Y-107169761D01*
X114921785Y-107122142D01*
X114874166Y-107026904D01*
X114874166Y-106741190D01*
X114921785Y-106645952D01*
X114969404Y-106598333D01*
X115064642Y-106550714D01*
X115207500Y-106550714D01*
X115302738Y-106598333D01*
X115350357Y-106645952D01*
X115397976Y-106741190D01*
X115397976Y-107026904D01*
X115350357Y-107122142D01*
X115302738Y-107169761D01*
X115207500Y-107217380D01*
X115064642Y-107217380D01*
X115826547Y-107217380D02*
X115826547Y-106550714D01*
X115826547Y-106741190D02*
X115874166Y-106645952D01*
X115921785Y-106598333D01*
X116017023Y-106550714D01*
X116112261Y-106550714D01*
X116445595Y-106550714D02*
X116445595Y-107550714D01*
X116445595Y-106598333D02*
X116540833Y-106550714D01*
X116731309Y-106550714D01*
X116826547Y-106598333D01*
X116874166Y-106645952D01*
X116921785Y-106741190D01*
X116921785Y-107026904D01*
X116874166Y-107122142D01*
X116826547Y-107169761D01*
X116731309Y-107217380D01*
X116540833Y-107217380D01*
X116445595Y-107169761D01*
X117350357Y-107122142D02*
X117397976Y-107169761D01*
X117350357Y-107217380D01*
X117302738Y-107169761D01*
X117350357Y-107122142D01*
X117350357Y-107217380D01*
X118255119Y-107169761D02*
X118159880Y-107217380D01*
X117969404Y-107217380D01*
X117874166Y-107169761D01*
X117826547Y-107122142D01*
X117778928Y-107026904D01*
X117778928Y-106741190D01*
X117826547Y-106645952D01*
X117874166Y-106598333D01*
X117969404Y-106550714D01*
X118159880Y-106550714D01*
X118255119Y-106598333D01*
X118826547Y-107217380D02*
X118731309Y-107169761D01*
X118683690Y-107122142D01*
X118636071Y-107026904D01*
X118636071Y-106741190D01*
X118683690Y-106645952D01*
X118731309Y-106598333D01*
X118826547Y-106550714D01*
X118969404Y-106550714D01*
X119064642Y-106598333D01*
X119112261Y-106645952D01*
X119159880Y-106741190D01*
X119159880Y-107026904D01*
X119112261Y-107122142D01*
X119064642Y-107169761D01*
X118969404Y-107217380D01*
X118826547Y-107217380D01*
X119588452Y-107217380D02*
X119588452Y-106550714D01*
X119588452Y-106645952D02*
X119636071Y-106598333D01*
X119731309Y-106550714D01*
X119874166Y-106550714D01*
X119969404Y-106598333D01*
X120017023Y-106693571D01*
X120017023Y-107217380D01*
X120017023Y-106693571D02*
X120064642Y-106598333D01*
X120159880Y-106550714D01*
X120302738Y-106550714D01*
X120397976Y-106598333D01*
X120445595Y-106693571D01*
X120445595Y-107217380D01*
D12*
%TO.C,SW3*%
X147530000Y-107740000D02*
X147530000Y-106680000D01*
X148590000Y-107740000D02*
X147530000Y-107740000D01*
X149590000Y-107740000D02*
X149590000Y-105620000D01*
X149590000Y-105620000D02*
X151650000Y-105620000D01*
X149590000Y-107740000D02*
X151650000Y-107740000D01*
X151650000Y-107740000D02*
X151650000Y-105620000D01*
%TO.C,R20*%
X110895000Y-88900000D02*
X111665000Y-88900000D01*
X118975000Y-88900000D02*
X118205000Y-88900000D01*
X111665000Y-90270000D02*
X118205000Y-90270000D01*
X111665000Y-87530000D02*
X111665000Y-90270000D01*
X118205000Y-87530000D02*
X111665000Y-87530000D01*
X118205000Y-90270000D02*
X118205000Y-87530000D01*
%TO.C,BT1*%
X105620000Y-80855000D02*
X106680000Y-80855000D01*
X105620000Y-81915000D02*
X105620000Y-80855000D01*
X105620000Y-82915000D02*
X107740000Y-82915000D01*
X107740000Y-82915000D02*
X107740000Y-84975000D01*
X105620000Y-82915000D02*
X105620000Y-84975000D01*
X105620000Y-84975000D02*
X107740000Y-84975000D01*
%TO.C,C1*%
X107735000Y-72500000D02*
X108050000Y-72500000D01*
X105310000Y-72500000D02*
X105625000Y-72500000D01*
X107735000Y-77440000D02*
X108050000Y-77440000D01*
X105310000Y-77440000D02*
X105625000Y-77440000D01*
X108050000Y-77440000D02*
X108050000Y-72500000D01*
X105310000Y-77440000D02*
X105310000Y-72500000D01*
%TO.C,C2*%
X114578000Y-83493000D02*
X110038000Y-83493000D01*
X114578000Y-81353000D02*
X110038000Y-81353000D01*
X114578000Y-83493000D02*
X114578000Y-83478000D01*
X114578000Y-81368000D02*
X114578000Y-81353000D01*
X110038000Y-83493000D02*
X110038000Y-83478000D01*
X110038000Y-81368000D02*
X110038000Y-81353000D01*
%TO.C,C3*%
X122665000Y-71970000D02*
X122665000Y-71655000D01*
X122665000Y-74395000D02*
X122665000Y-74080000D01*
X127605000Y-71970000D02*
X127605000Y-71655000D01*
X127605000Y-74395000D02*
X127605000Y-74080000D01*
X127605000Y-71655000D02*
X122665000Y-71655000D01*
X127605000Y-74395000D02*
X122665000Y-74395000D01*
%TO.C,C4*%
X130285000Y-71970000D02*
X130285000Y-71655000D01*
X130285000Y-74395000D02*
X130285000Y-74080000D01*
X135225000Y-71970000D02*
X135225000Y-71655000D01*
X135225000Y-74395000D02*
X135225000Y-74080000D01*
X135225000Y-71655000D02*
X130285000Y-71655000D01*
X135225000Y-74395000D02*
X130285000Y-74395000D01*
%TO.C,C5*%
X147474000Y-80742000D02*
X147474000Y-75802000D01*
X150214000Y-80742000D02*
X150214000Y-75802000D01*
X147474000Y-80742000D02*
X147789000Y-80742000D01*
X149899000Y-80742000D02*
X150214000Y-80742000D01*
X147474000Y-75802000D02*
X147789000Y-75802000D01*
X149899000Y-75802000D02*
X150214000Y-75802000D01*
%TO.C,C6*%
X135565000Y-81495000D02*
X135565000Y-81480000D01*
X135565000Y-83620000D02*
X135565000Y-83605000D01*
X140105000Y-81495000D02*
X140105000Y-81480000D01*
X140105000Y-83620000D02*
X140105000Y-83605000D01*
X140105000Y-81480000D02*
X135565000Y-81480000D01*
X140105000Y-83620000D02*
X135565000Y-83620000D01*
%TO.C,C7*%
X138965000Y-99030000D02*
X138965000Y-94090000D01*
X141705000Y-99030000D02*
X141705000Y-94090000D01*
X138965000Y-99030000D02*
X139280000Y-99030000D01*
X141390000Y-99030000D02*
X141705000Y-99030000D01*
X138965000Y-94090000D02*
X139280000Y-94090000D01*
X141390000Y-94090000D02*
X141705000Y-94090000D01*
%TO.C,C8*%
X148170000Y-88790000D02*
X147855000Y-88790000D01*
X150595000Y-88790000D02*
X150280000Y-88790000D01*
X148170000Y-83850000D02*
X147855000Y-83850000D01*
X150595000Y-83850000D02*
X150280000Y-83850000D01*
X147855000Y-83850000D02*
X147855000Y-88790000D01*
X150595000Y-83850000D02*
X150595000Y-88790000D01*
%TO.C,C9*%
X137485000Y-101385000D02*
X137485000Y-101400000D01*
X137485000Y-99260000D02*
X137485000Y-99275000D01*
X132945000Y-101385000D02*
X132945000Y-101400000D01*
X132945000Y-99260000D02*
X132945000Y-99275000D01*
X132945000Y-101400000D02*
X137485000Y-101400000D01*
X132945000Y-99260000D02*
X137485000Y-99260000D01*
%TO.C,C10*%
X125325000Y-97355000D02*
X129865000Y-97355000D01*
X125325000Y-99495000D02*
X129865000Y-99495000D01*
X125325000Y-97355000D02*
X125325000Y-97370000D01*
X125325000Y-99480000D02*
X125325000Y-99495000D01*
X129865000Y-97355000D02*
X129865000Y-97370000D01*
X129865000Y-99480000D02*
X129865000Y-99495000D01*
%TO.C,C11*%
X110165000Y-97370000D02*
X110165000Y-97355000D01*
X110165000Y-99495000D02*
X110165000Y-99480000D01*
X114705000Y-97370000D02*
X114705000Y-97355000D01*
X114705000Y-99495000D02*
X114705000Y-99480000D01*
X114705000Y-97355000D02*
X110165000Y-97355000D01*
X114705000Y-99495000D02*
X110165000Y-99495000D01*
%TO.C,C12*%
X137825000Y-71655000D02*
X142765000Y-71655000D01*
X137825000Y-74395000D02*
X142765000Y-74395000D01*
X137825000Y-71655000D02*
X137825000Y-71970000D01*
X137825000Y-74080000D02*
X137825000Y-74395000D01*
X142765000Y-71655000D02*
X142765000Y-71970000D01*
X142765000Y-74080000D02*
X142765000Y-74395000D01*
%TO.C,C13*%
X117505000Y-97055000D02*
X122445000Y-97055000D01*
X117505000Y-99795000D02*
X122445000Y-99795000D01*
X117505000Y-97055000D02*
X117505000Y-97370000D01*
X117505000Y-99480000D02*
X117505000Y-99795000D01*
X122445000Y-97055000D02*
X122445000Y-97370000D01*
X122445000Y-99480000D02*
X122445000Y-99795000D01*
%TO.C,D1*%
X136945000Y-87780000D02*
X136945000Y-90020000D01*
X136945000Y-90020000D02*
X141185000Y-90020000D01*
X141185000Y-90020000D02*
X141185000Y-87780000D01*
X141185000Y-87780000D02*
X136945000Y-87780000D01*
X136295000Y-88900000D02*
X136945000Y-88900000D01*
X141835000Y-88900000D02*
X141185000Y-88900000D01*
X137665000Y-87780000D02*
X137665000Y-90020000D01*
X137785000Y-87780000D02*
X137785000Y-90020000D01*
X137545000Y-87780000D02*
X137545000Y-90020000D01*
%TO.C,D2*%
X140585000Y-92560000D02*
X140585000Y-90320000D01*
X140345000Y-92560000D02*
X140345000Y-90320000D01*
X140465000Y-92560000D02*
X140465000Y-90320000D01*
X136295000Y-91440000D02*
X136945000Y-91440000D01*
X141835000Y-91440000D02*
X141185000Y-91440000D01*
X136945000Y-92560000D02*
X141185000Y-92560000D01*
X136945000Y-90320000D02*
X136945000Y-92560000D01*
X141185000Y-90320000D02*
X136945000Y-90320000D01*
X141185000Y-92560000D02*
X141185000Y-90320000D01*
%TO.C,D3*%
X150645000Y-97370000D02*
X152885000Y-97370000D01*
X152885000Y-97370000D02*
X152885000Y-93130000D01*
X152885000Y-93130000D02*
X150645000Y-93130000D01*
X150645000Y-93130000D02*
X150645000Y-97370000D01*
X151765000Y-98020000D02*
X151765000Y-97370000D01*
X151765000Y-92480000D02*
X151765000Y-93130000D01*
X150645000Y-96650000D02*
X152885000Y-96650000D01*
X150645000Y-96530000D02*
X152885000Y-96530000D01*
X150645000Y-96770000D02*
X152885000Y-96770000D01*
%TO.C,D4*%
X150345000Y-93730000D02*
X148105000Y-93730000D01*
X150345000Y-93970000D02*
X148105000Y-93970000D01*
X150345000Y-93850000D02*
X148105000Y-93850000D01*
X149225000Y-98020000D02*
X149225000Y-97370000D01*
X149225000Y-92480000D02*
X149225000Y-93130000D01*
X150345000Y-97370000D02*
X150345000Y-93130000D01*
X148105000Y-97370000D02*
X150345000Y-97370000D01*
X148105000Y-93130000D02*
X148105000Y-97370000D01*
X150345000Y-93130000D02*
X148105000Y-93130000D01*
%TO.C,D5*%
X115915000Y-103315000D02*
X115915000Y-103471000D01*
X115915000Y-100999000D02*
X115915000Y-101155000D01*
X119147335Y-101156392D02*
G75*
G03*
X115915000Y-100999484I-1672335J-1078608D01*
G01*
X119147335Y-103313608D02*
G75*
G02*
X115915000Y-103470516I-1672335J1078608D01*
G01*
X118516130Y-101155163D02*
G75*
G03*
X116434039Y-101155000I-1041130J-1079837D01*
G01*
X118516130Y-103314837D02*
G75*
G02*
X116434039Y-103315000I-1041130J1079837D01*
G01*
%TO.C,J1*%
X105620000Y-87205000D02*
X106680000Y-87205000D01*
X105620000Y-88265000D02*
X105620000Y-87205000D01*
X105620000Y-89265000D02*
X107740000Y-89265000D01*
X107740000Y-89265000D02*
X107740000Y-93325000D01*
X105620000Y-89265000D02*
X105620000Y-93325000D01*
X105620000Y-93325000D02*
X107740000Y-93325000D01*
%TO.C,J2*%
X153460000Y-88055000D02*
X152400000Y-88055000D01*
X153460000Y-86995000D02*
X153460000Y-88055000D01*
X153460000Y-85995000D02*
X151340000Y-85995000D01*
X151340000Y-85995000D02*
X151340000Y-83935000D01*
X153460000Y-85995000D02*
X153460000Y-83935000D01*
X153460000Y-83935000D02*
X151340000Y-83935000D01*
%TO.C,Q1*%
X105515000Y-71065000D02*
X109115000Y-71065000D01*
X105476522Y-71053478D02*
G75*
G02*
X107315000Y-66615000I1838478J1838478D01*
G01*
X109153478Y-71053478D02*
G75*
G03*
X107315000Y-66615000I-1838478J1838478D01*
G01*
%TO.C,Q2*%
X148485000Y-69905000D02*
X144885000Y-69905000D01*
X144846522Y-69916522D02*
G75*
G03*
X146685000Y-74355000I1838478J-1838478D01*
G01*
X148523478Y-69916522D02*
G75*
G02*
X146685000Y-74355000I-1838478J-1838478D01*
G01*
%TO.C,Q3*%
X134040000Y-94085000D02*
X134040000Y-97685000D01*
X134051522Y-97723478D02*
G75*
G03*
X138490000Y-95885000I1838478J1838478D01*
G01*
X134051522Y-94046522D02*
G75*
G02*
X138490000Y-95885000I1838478J-1838478D01*
G01*
%TO.C,Q4*%
X124990000Y-100385000D02*
X121390000Y-100385000D01*
X125028478Y-100396522D02*
G75*
G02*
X123190000Y-104835000I-1838478J-1838478D01*
G01*
X121351522Y-100396522D02*
G75*
G03*
X123190000Y-104835000I1838478J-1838478D01*
G01*
%TO.C,R1*%
X111665000Y-71655000D02*
X111665000Y-74395000D01*
X111665000Y-74395000D02*
X118205000Y-74395000D01*
X118205000Y-74395000D02*
X118205000Y-71655000D01*
X118205000Y-71655000D02*
X111665000Y-71655000D01*
X110895000Y-73025000D02*
X111665000Y-73025000D01*
X118975000Y-73025000D02*
X118205000Y-73025000D01*
%TO.C,R2*%
X118205000Y-80745000D02*
X118205000Y-78005000D01*
X118205000Y-78005000D02*
X111665000Y-78005000D01*
X111665000Y-78005000D02*
X111665000Y-80745000D01*
X111665000Y-80745000D02*
X118205000Y-80745000D01*
X118975000Y-79375000D02*
X118205000Y-79375000D01*
X110895000Y-79375000D02*
X111665000Y-79375000D01*
%TO.C,R3*%
X111665000Y-74830000D02*
X111665000Y-77570000D01*
X111665000Y-77570000D02*
X118205000Y-77570000D01*
X118205000Y-77570000D02*
X118205000Y-74830000D01*
X118205000Y-74830000D02*
X111665000Y-74830000D01*
X110895000Y-76200000D02*
X111665000Y-76200000D01*
X118975000Y-76200000D02*
X118205000Y-76200000D01*
%TO.C,R4*%
X124365000Y-74830000D02*
X124365000Y-77570000D01*
X124365000Y-77570000D02*
X130905000Y-77570000D01*
X130905000Y-77570000D02*
X130905000Y-74830000D01*
X130905000Y-74830000D02*
X124365000Y-74830000D01*
X123595000Y-76200000D02*
X124365000Y-76200000D01*
X131675000Y-76200000D02*
X130905000Y-76200000D01*
%TO.C,R5*%
X112800000Y-66675000D02*
X113570000Y-66675000D01*
X120880000Y-66675000D02*
X120110000Y-66675000D01*
X113570000Y-68045000D02*
X120110000Y-68045000D01*
X113570000Y-65305000D02*
X113570000Y-68045000D01*
X120110000Y-65305000D02*
X113570000Y-65305000D01*
X120110000Y-68045000D02*
X120110000Y-65305000D01*
%TO.C,R6*%
X120880000Y-69850000D02*
X120110000Y-69850000D01*
X112800000Y-69850000D02*
X113570000Y-69850000D01*
X120110000Y-68480000D02*
X113570000Y-68480000D01*
X120110000Y-71220000D02*
X120110000Y-68480000D01*
X113570000Y-71220000D02*
X120110000Y-71220000D01*
X113570000Y-68480000D02*
X113570000Y-71220000D01*
%TO.C,R7*%
X144375000Y-76200000D02*
X143605000Y-76200000D01*
X136295000Y-76200000D02*
X137065000Y-76200000D01*
X143605000Y-74830000D02*
X137065000Y-74830000D01*
X143605000Y-77570000D02*
X143605000Y-74830000D01*
X137065000Y-77570000D02*
X143605000Y-77570000D01*
X137065000Y-74830000D02*
X137065000Y-77570000D01*
%TO.C,R8*%
X143605000Y-80745000D02*
X143605000Y-78005000D01*
X143605000Y-78005000D02*
X137065000Y-78005000D01*
X137065000Y-78005000D02*
X137065000Y-80745000D01*
X137065000Y-80745000D02*
X143605000Y-80745000D01*
X144375000Y-79375000D02*
X143605000Y-79375000D01*
X136295000Y-79375000D02*
X137065000Y-79375000D01*
%TO.C,R9*%
X137065000Y-84355000D02*
X137065000Y-87095000D01*
X137065000Y-87095000D02*
X143605000Y-87095000D01*
X143605000Y-87095000D02*
X143605000Y-84355000D01*
X143605000Y-84355000D02*
X137065000Y-84355000D01*
X136295000Y-85725000D02*
X137065000Y-85725000D01*
X144375000Y-85725000D02*
X143605000Y-85725000D01*
%TO.C,R10*%
X123595000Y-79375000D02*
X124365000Y-79375000D01*
X131675000Y-79375000D02*
X130905000Y-79375000D01*
X124365000Y-80745000D02*
X130905000Y-80745000D01*
X124365000Y-78005000D02*
X124365000Y-80745000D01*
X130905000Y-78005000D02*
X124365000Y-78005000D01*
X130905000Y-80745000D02*
X130905000Y-78005000D01*
%TO.C,R11*%
X152146000Y-80240000D02*
X152146000Y-79470000D01*
X152146000Y-72160000D02*
X152146000Y-72930000D01*
X153516000Y-79470000D02*
X153516000Y-72930000D01*
X150776000Y-79470000D02*
X153516000Y-79470000D01*
X150776000Y-72930000D02*
X150776000Y-79470000D01*
X153516000Y-72930000D02*
X150776000Y-72930000D01*
%TO.C,R12*%
X146050000Y-89940000D02*
X146050000Y-90710000D01*
X146050000Y-98020000D02*
X146050000Y-97250000D01*
X144680000Y-90710000D02*
X144680000Y-97250000D01*
X147420000Y-90710000D02*
X144680000Y-90710000D01*
X147420000Y-97250000D02*
X147420000Y-90710000D01*
X144680000Y-97250000D02*
X147420000Y-97250000D01*
%TO.C,R13*%
X130905000Y-96620000D02*
X130905000Y-93880000D01*
X130905000Y-93880000D02*
X124365000Y-93880000D01*
X124365000Y-93880000D02*
X124365000Y-96620000D01*
X124365000Y-96620000D02*
X130905000Y-96620000D01*
X131675000Y-95250000D02*
X130905000Y-95250000D01*
X123595000Y-95250000D02*
X124365000Y-95250000D01*
%TO.C,R14*%
X135350000Y-104875000D02*
X135350000Y-102135000D01*
X135350000Y-102135000D02*
X128810000Y-102135000D01*
X128810000Y-102135000D02*
X128810000Y-104875000D01*
X128810000Y-104875000D02*
X135350000Y-104875000D01*
X136120000Y-103505000D02*
X135350000Y-103505000D01*
X128040000Y-103505000D02*
X128810000Y-103505000D01*
%TO.C,R15*%
X130905000Y-93445000D02*
X130905000Y-90705000D01*
X130905000Y-90705000D02*
X124365000Y-90705000D01*
X124365000Y-90705000D02*
X124365000Y-93445000D01*
X124365000Y-93445000D02*
X130905000Y-93445000D01*
X131675000Y-92075000D02*
X130905000Y-92075000D01*
X123595000Y-92075000D02*
X124365000Y-92075000D01*
%TO.C,R16*%
X123595000Y-82550000D02*
X124365000Y-82550000D01*
X131675000Y-82550000D02*
X130905000Y-82550000D01*
X124365000Y-83920000D02*
X130905000Y-83920000D01*
X124365000Y-81180000D02*
X124365000Y-83920000D01*
X130905000Y-81180000D02*
X124365000Y-81180000D01*
X130905000Y-83920000D02*
X130905000Y-81180000D01*
%TO.C,R17*%
X118205000Y-87095000D02*
X118205000Y-84355000D01*
X118205000Y-84355000D02*
X111665000Y-84355000D01*
X111665000Y-84355000D02*
X111665000Y-87095000D01*
X111665000Y-87095000D02*
X118205000Y-87095000D01*
X118975000Y-85725000D02*
X118205000Y-85725000D01*
X110895000Y-85725000D02*
X111665000Y-85725000D01*
%TO.C,R18*%
X118975000Y-92075000D02*
X118205000Y-92075000D01*
X110895000Y-92075000D02*
X111665000Y-92075000D01*
X118205000Y-90705000D02*
X111665000Y-90705000D01*
X118205000Y-93445000D02*
X118205000Y-90705000D01*
X111665000Y-93445000D02*
X118205000Y-93445000D01*
X111665000Y-90705000D02*
X111665000Y-93445000D01*
%TO.C,R19*%
X130905000Y-87095000D02*
X130905000Y-84355000D01*
X130905000Y-84355000D02*
X124365000Y-84355000D01*
X124365000Y-84355000D02*
X124365000Y-87095000D01*
X124365000Y-87095000D02*
X130905000Y-87095000D01*
X131675000Y-85725000D02*
X130905000Y-85725000D01*
X123595000Y-85725000D02*
X124365000Y-85725000D01*
%TO.C,R21*%
X123595000Y-88900000D02*
X124365000Y-88900000D01*
X131675000Y-88900000D02*
X130905000Y-88900000D01*
X124365000Y-90270000D02*
X130905000Y-90270000D01*
X124365000Y-87530000D02*
X124365000Y-90270000D01*
X130905000Y-87530000D02*
X124365000Y-87530000D01*
X130905000Y-90270000D02*
X130905000Y-87530000D01*
%TO.C,R22*%
X149455000Y-102235000D02*
X148685000Y-102235000D01*
X141375000Y-102235000D02*
X142145000Y-102235000D01*
X148685000Y-100865000D02*
X142145000Y-100865000D01*
X148685000Y-103605000D02*
X148685000Y-100865000D01*
X142145000Y-103605000D02*
X148685000Y-103605000D01*
X142145000Y-100865000D02*
X142145000Y-103605000D01*
%TO.C,R23*%
X118975000Y-95250000D02*
X118205000Y-95250000D01*
X110895000Y-95250000D02*
X111665000Y-95250000D01*
X118205000Y-93880000D02*
X111665000Y-93880000D01*
X118205000Y-96620000D02*
X118205000Y-93880000D01*
X111665000Y-96620000D02*
X118205000Y-96620000D01*
X111665000Y-93880000D02*
X111665000Y-96620000D01*
%TO.C,SUST1*%
X123845000Y-65615000D02*
X123845000Y-67735000D01*
X127905000Y-65615000D02*
X123845000Y-65615000D01*
X127905000Y-67735000D02*
X123845000Y-67735000D01*
X127905000Y-65615000D02*
X127905000Y-67735000D01*
X128905000Y-65615000D02*
X129965000Y-65615000D01*
X129965000Y-65615000D02*
X129965000Y-66675000D01*
%TO.C,SW1*%
X138950000Y-107740000D02*
X138950000Y-105620000D01*
X136890000Y-107740000D02*
X138950000Y-107740000D01*
X136890000Y-105620000D02*
X138950000Y-105620000D01*
X136890000Y-107740000D02*
X136890000Y-105620000D01*
X135890000Y-107740000D02*
X134830000Y-107740000D01*
X134830000Y-107740000D02*
X134830000Y-106680000D01*
%TO.C,SW2*%
X145300000Y-107740000D02*
X145300000Y-105620000D01*
X143240000Y-107740000D02*
X145300000Y-107740000D01*
X143240000Y-105620000D02*
X145300000Y-105620000D01*
X143240000Y-107740000D02*
X143240000Y-105620000D01*
X142240000Y-107740000D02*
X141180000Y-107740000D01*
X141180000Y-107740000D02*
X141180000Y-106680000D01*
%TO.C,TONE1*%
X137140000Y-67735000D02*
X137140000Y-65615000D01*
X133080000Y-67735000D02*
X137140000Y-67735000D01*
X133080000Y-65615000D02*
X137140000Y-65615000D01*
X133080000Y-67735000D02*
X133080000Y-65615000D01*
X132080000Y-67735000D02*
X131020000Y-67735000D01*
X131020000Y-67735000D02*
X131020000Y-66675000D01*
%TO.C,VOL1*%
X144570000Y-65615000D02*
X144570000Y-66675000D01*
X143510000Y-65615000D02*
X144570000Y-65615000D01*
X142510000Y-65615000D02*
X142510000Y-67735000D01*
X142510000Y-67735000D02*
X138450000Y-67735000D01*
X142510000Y-65615000D02*
X138450000Y-65615000D01*
X138450000Y-65615000D02*
X138450000Y-67735000D01*
%TO.C,SW3*%
D10*
X146934761Y-108013333D02*
X146982380Y-107870476D01*
X146982380Y-107632380D01*
X146934761Y-107537142D01*
X146887142Y-107489523D01*
X146791904Y-107441904D01*
X146696666Y-107441904D01*
X146601428Y-107489523D01*
X146553809Y-107537142D01*
X146506190Y-107632380D01*
X146458571Y-107822857D01*
X146410952Y-107918095D01*
X146363333Y-107965714D01*
X146268095Y-108013333D01*
X146172857Y-108013333D01*
X146077619Y-107965714D01*
X146030000Y-107918095D01*
X145982380Y-107822857D01*
X145982380Y-107584761D01*
X146030000Y-107441904D01*
X145982380Y-107108571D02*
X146982380Y-106870476D01*
X146268095Y-106680000D01*
X146982380Y-106489523D01*
X145982380Y-106251428D01*
X145982380Y-105965714D02*
X145982380Y-105346666D01*
X146363333Y-105680000D01*
X146363333Y-105537142D01*
X146410952Y-105441904D01*
X146458571Y-105394285D01*
X146553809Y-105346666D01*
X146791904Y-105346666D01*
X146887142Y-105394285D01*
X146934761Y-105441904D01*
X146982380Y-105537142D01*
X146982380Y-105822857D01*
X146934761Y-105918095D01*
X146887142Y-105965714D01*
%TO.C,R20*%
X114292142Y-89297381D02*
X113958809Y-88821191D01*
X113720714Y-89297381D02*
X113720714Y-88297381D01*
X114101666Y-88297381D01*
X114196904Y-88345001D01*
X114244523Y-88392620D01*
X114292142Y-88487858D01*
X114292142Y-88630715D01*
X114244523Y-88725953D01*
X114196904Y-88773572D01*
X114101666Y-88821191D01*
X113720714Y-88821191D01*
X114673095Y-88392620D02*
X114720714Y-88345001D01*
X114815952Y-88297381D01*
X115054047Y-88297381D01*
X115149285Y-88345001D01*
X115196904Y-88392620D01*
X115244523Y-88487858D01*
X115244523Y-88583096D01*
X115196904Y-88725953D01*
X114625476Y-89297381D01*
X115244523Y-89297381D01*
X115863571Y-88297381D02*
X115958809Y-88297381D01*
X116054047Y-88345001D01*
X116101666Y-88392620D01*
X116149285Y-88487858D01*
X116196904Y-88678334D01*
X116196904Y-88916429D01*
X116149285Y-89106905D01*
X116101666Y-89202143D01*
X116054047Y-89249762D01*
X115958809Y-89297381D01*
X115863571Y-89297381D01*
X115768333Y-89249762D01*
X115720714Y-89202143D01*
X115673095Y-89106905D01*
X115625476Y-88916429D01*
X115625476Y-88678334D01*
X115673095Y-88487858D01*
X115720714Y-88392620D01*
X115768333Y-88345001D01*
X115863571Y-88297381D01*
%TO.C,BT1*%
X105894285Y-79783571D02*
X106037142Y-79831190D01*
X106084761Y-79878809D01*
X106132380Y-79974047D01*
X106132380Y-80116904D01*
X106084761Y-80212142D01*
X106037142Y-80259761D01*
X105941904Y-80307380D01*
X105560952Y-80307380D01*
X105560952Y-79307380D01*
X105894285Y-79307380D01*
X105989523Y-79355000D01*
X106037142Y-79402619D01*
X106084761Y-79497857D01*
X106084761Y-79593095D01*
X106037142Y-79688333D01*
X105989523Y-79735952D01*
X105894285Y-79783571D01*
X105560952Y-79783571D01*
X106418095Y-79307380D02*
X106989523Y-79307380D01*
X106703809Y-80307380D02*
X106703809Y-79307380D01*
X107846666Y-80307380D02*
X107275238Y-80307380D01*
X107560952Y-80307380D02*
X107560952Y-79307380D01*
X107465714Y-79450238D01*
X107370476Y-79545476D01*
X107275238Y-79593095D01*
%TO.C,C1*%
X107197141Y-75136666D02*
X107244760Y-75184285D01*
X107292379Y-75327142D01*
X107292379Y-75422380D01*
X107244760Y-75565238D01*
X107149522Y-75660476D01*
X107054284Y-75708095D01*
X106863808Y-75755714D01*
X106720951Y-75755714D01*
X106530475Y-75708095D01*
X106435237Y-75660476D01*
X106339999Y-75565238D01*
X106292379Y-75422380D01*
X106292379Y-75327142D01*
X106339999Y-75184285D01*
X106387618Y-75136666D01*
X107292379Y-74184285D02*
X107292379Y-74755714D01*
X107292379Y-74470000D02*
X106292379Y-74470000D01*
X106435237Y-74565238D01*
X106530475Y-74660476D01*
X106578094Y-74755714D01*
%TO.C,C2*%
X112141333Y-82510143D02*
X112093714Y-82557762D01*
X111950857Y-82605381D01*
X111855619Y-82605381D01*
X111712761Y-82557762D01*
X111617523Y-82462524D01*
X111569904Y-82367286D01*
X111522285Y-82176810D01*
X111522285Y-82033953D01*
X111569904Y-81843477D01*
X111617523Y-81748239D01*
X111712761Y-81653001D01*
X111855619Y-81605381D01*
X111950857Y-81605381D01*
X112093714Y-81653001D01*
X112141333Y-81700620D01*
X112522285Y-81700620D02*
X112569904Y-81653001D01*
X112665142Y-81605381D01*
X112903238Y-81605381D01*
X112998476Y-81653001D01*
X113046095Y-81700620D01*
X113093714Y-81795858D01*
X113093714Y-81891096D01*
X113046095Y-82033953D01*
X112474666Y-82605381D01*
X113093714Y-82605381D01*
%TO.C,C3*%
X124968333Y-73807143D02*
X124920714Y-73854762D01*
X124777857Y-73902381D01*
X124682619Y-73902381D01*
X124539761Y-73854762D01*
X124444523Y-73759524D01*
X124396904Y-73664286D01*
X124349285Y-73473810D01*
X124349285Y-73330953D01*
X124396904Y-73140477D01*
X124444523Y-73045239D01*
X124539761Y-72950001D01*
X124682619Y-72902381D01*
X124777857Y-72902381D01*
X124920714Y-72950001D01*
X124968333Y-72997620D01*
X125301666Y-72902381D02*
X125920714Y-72902381D01*
X125587380Y-73283334D01*
X125730238Y-73283334D01*
X125825476Y-73330953D01*
X125873095Y-73378572D01*
X125920714Y-73473810D01*
X125920714Y-73711905D01*
X125873095Y-73807143D01*
X125825476Y-73854762D01*
X125730238Y-73902381D01*
X125444523Y-73902381D01*
X125349285Y-73854762D01*
X125301666Y-73807143D01*
%TO.C,C4*%
X132588333Y-73567143D02*
X132540714Y-73614762D01*
X132397857Y-73662381D01*
X132302619Y-73662381D01*
X132159761Y-73614762D01*
X132064523Y-73519524D01*
X132016904Y-73424286D01*
X131969285Y-73233810D01*
X131969285Y-73090953D01*
X132016904Y-72900477D01*
X132064523Y-72805239D01*
X132159761Y-72710001D01*
X132302619Y-72662381D01*
X132397857Y-72662381D01*
X132540714Y-72710001D01*
X132588333Y-72757620D01*
X133445476Y-72995715D02*
X133445476Y-73662381D01*
X133207380Y-72614762D02*
X132969285Y-73329048D01*
X133588333Y-73329048D01*
%TO.C,C5*%
X149121141Y-78438666D02*
X149168760Y-78486285D01*
X149216379Y-78629142D01*
X149216379Y-78724380D01*
X149168760Y-78867238D01*
X149073522Y-78962476D01*
X148978284Y-79010095D01*
X148787808Y-79057714D01*
X148644951Y-79057714D01*
X148454475Y-79010095D01*
X148359237Y-78962476D01*
X148263999Y-78867238D01*
X148216379Y-78724380D01*
X148216379Y-78629142D01*
X148263999Y-78486285D01*
X148311618Y-78438666D01*
X148216379Y-77533904D02*
X148216379Y-78010095D01*
X148692570Y-78057714D01*
X148644951Y-78010095D01*
X148597332Y-77914857D01*
X148597332Y-77676761D01*
X148644951Y-77581523D01*
X148692570Y-77533904D01*
X148787808Y-77486285D01*
X149025903Y-77486285D01*
X149121141Y-77533904D01*
X149168760Y-77581523D01*
X149216379Y-77676761D01*
X149216379Y-77914857D01*
X149168760Y-78010095D01*
X149121141Y-78057714D01*
%TO.C,C6*%
X137668333Y-82912143D02*
X137620714Y-82959762D01*
X137477857Y-83007381D01*
X137382619Y-83007381D01*
X137239761Y-82959762D01*
X137144523Y-82864524D01*
X137096904Y-82769286D01*
X137049285Y-82578810D01*
X137049285Y-82435953D01*
X137096904Y-82245477D01*
X137144523Y-82150239D01*
X137239761Y-82055001D01*
X137382619Y-82007381D01*
X137477857Y-82007381D01*
X137620714Y-82055001D01*
X137668333Y-82102620D01*
X138525476Y-82007381D02*
X138335000Y-82007381D01*
X138239761Y-82055001D01*
X138192142Y-82102620D01*
X138096904Y-82245477D01*
X138049285Y-82435953D01*
X138049285Y-82816905D01*
X138096904Y-82912143D01*
X138144523Y-82959762D01*
X138239761Y-83007381D01*
X138430238Y-83007381D01*
X138525476Y-82959762D01*
X138573095Y-82912143D01*
X138620714Y-82816905D01*
X138620714Y-82578810D01*
X138573095Y-82483572D01*
X138525476Y-82435953D01*
X138430238Y-82388334D01*
X138239761Y-82388334D01*
X138144523Y-82435953D01*
X138096904Y-82483572D01*
X138049285Y-82578810D01*
%TO.C,C7*%
X140747141Y-96726666D02*
X140794760Y-96774285D01*
X140842379Y-96917142D01*
X140842379Y-97012380D01*
X140794760Y-97155238D01*
X140699522Y-97250476D01*
X140604284Y-97298095D01*
X140413808Y-97345714D01*
X140270951Y-97345714D01*
X140080475Y-97298095D01*
X139985237Y-97250476D01*
X139889999Y-97155238D01*
X139842379Y-97012380D01*
X139842379Y-96917142D01*
X139889999Y-96774285D01*
X139937618Y-96726666D01*
X139842379Y-96393333D02*
X139842379Y-95726666D01*
X140842379Y-96155238D01*
%TO.C,C8*%
X149422143Y-86486666D02*
X149469762Y-86534285D01*
X149517381Y-86677142D01*
X149517381Y-86772380D01*
X149469762Y-86915238D01*
X149374524Y-87010476D01*
X149279286Y-87058095D01*
X149088810Y-87105714D01*
X148945953Y-87105714D01*
X148755477Y-87058095D01*
X148660239Y-87010476D01*
X148565001Y-86915238D01*
X148517381Y-86772380D01*
X148517381Y-86677142D01*
X148565001Y-86534285D01*
X148612620Y-86486666D01*
X148945953Y-85915238D02*
X148898334Y-86010476D01*
X148850715Y-86058095D01*
X148755477Y-86105714D01*
X148707858Y-86105714D01*
X148612620Y-86058095D01*
X148565001Y-86010476D01*
X148517381Y-85915238D01*
X148517381Y-85724761D01*
X148565001Y-85629523D01*
X148612620Y-85581904D01*
X148707858Y-85534285D01*
X148755477Y-85534285D01*
X148850715Y-85581904D01*
X148898334Y-85629523D01*
X148945953Y-85724761D01*
X148945953Y-85915238D01*
X148993572Y-86010476D01*
X149041191Y-86058095D01*
X149136429Y-86105714D01*
X149326905Y-86105714D01*
X149422143Y-86058095D01*
X149469762Y-86010476D01*
X149517381Y-85915238D01*
X149517381Y-85724761D01*
X149469762Y-85629523D01*
X149422143Y-85581904D01*
X149326905Y-85534285D01*
X149136429Y-85534285D01*
X149041191Y-85581904D01*
X148993572Y-85629523D01*
X148945953Y-85724761D01*
%TO.C,C9*%
X135048333Y-100652141D02*
X135000714Y-100699760D01*
X134857857Y-100747379D01*
X134762619Y-100747379D01*
X134619761Y-100699760D01*
X134524523Y-100604522D01*
X134476904Y-100509284D01*
X134429285Y-100318808D01*
X134429285Y-100175951D01*
X134476904Y-99985475D01*
X134524523Y-99890237D01*
X134619761Y-99794999D01*
X134762619Y-99747379D01*
X134857857Y-99747379D01*
X135000714Y-99794999D01*
X135048333Y-99842618D01*
X135524523Y-100747379D02*
X135715000Y-100747379D01*
X135810238Y-100699760D01*
X135857857Y-100652141D01*
X135953095Y-100509284D01*
X136000714Y-100318808D01*
X136000714Y-99937856D01*
X135953095Y-99842618D01*
X135905476Y-99794999D01*
X135810238Y-99747379D01*
X135619761Y-99747379D01*
X135524523Y-99794999D01*
X135476904Y-99842618D01*
X135429285Y-99937856D01*
X135429285Y-100175951D01*
X135476904Y-100271189D01*
X135524523Y-100318808D01*
X135619761Y-100366427D01*
X135810238Y-100366427D01*
X135905476Y-100318808D01*
X135953095Y-100271189D01*
X136000714Y-100175951D01*
%TO.C,C10*%
X126952142Y-98387141D02*
X126904523Y-98434760D01*
X126761666Y-98482379D01*
X126666428Y-98482379D01*
X126523571Y-98434760D01*
X126428333Y-98339522D01*
X126380714Y-98244284D01*
X126333095Y-98053808D01*
X126333095Y-97910951D01*
X126380714Y-97720475D01*
X126428333Y-97625237D01*
X126523571Y-97529999D01*
X126666428Y-97482379D01*
X126761666Y-97482379D01*
X126904523Y-97529999D01*
X126952142Y-97577618D01*
X127904523Y-98482379D02*
X127333095Y-98482379D01*
X127618809Y-98482379D02*
X127618809Y-97482379D01*
X127523571Y-97625237D01*
X127428333Y-97720475D01*
X127333095Y-97768094D01*
X128523571Y-97482379D02*
X128618809Y-97482379D01*
X128714047Y-97529999D01*
X128761666Y-97577618D01*
X128809285Y-97672856D01*
X128856904Y-97863332D01*
X128856904Y-98101427D01*
X128809285Y-98291903D01*
X128761666Y-98387141D01*
X128714047Y-98434760D01*
X128618809Y-98482379D01*
X128523571Y-98482379D01*
X128428333Y-98434760D01*
X128380714Y-98387141D01*
X128333095Y-98291903D01*
X128285476Y-98101427D01*
X128285476Y-97863332D01*
X128333095Y-97672856D01*
X128380714Y-97577618D01*
X128428333Y-97529999D01*
X128523571Y-97482379D01*
%TO.C,C11*%
X111792142Y-98752143D02*
X111744523Y-98799762D01*
X111601666Y-98847381D01*
X111506428Y-98847381D01*
X111363571Y-98799762D01*
X111268333Y-98704524D01*
X111220714Y-98609286D01*
X111173095Y-98418810D01*
X111173095Y-98275953D01*
X111220714Y-98085477D01*
X111268333Y-97990239D01*
X111363571Y-97895001D01*
X111506428Y-97847381D01*
X111601666Y-97847381D01*
X111744523Y-97895001D01*
X111792142Y-97942620D01*
X112744523Y-98847381D02*
X112173095Y-98847381D01*
X112458809Y-98847381D02*
X112458809Y-97847381D01*
X112363571Y-97990239D01*
X112268333Y-98085477D01*
X112173095Y-98133096D01*
X113696904Y-98847381D02*
X113125476Y-98847381D01*
X113411190Y-98847381D02*
X113411190Y-97847381D01*
X113315952Y-97990239D01*
X113220714Y-98085477D01*
X113125476Y-98133096D01*
%TO.C,C12*%
X139652142Y-73387141D02*
X139604523Y-73434760D01*
X139461666Y-73482379D01*
X139366428Y-73482379D01*
X139223571Y-73434760D01*
X139128333Y-73339522D01*
X139080714Y-73244284D01*
X139033095Y-73053808D01*
X139033095Y-72910951D01*
X139080714Y-72720475D01*
X139128333Y-72625237D01*
X139223571Y-72529999D01*
X139366428Y-72482379D01*
X139461666Y-72482379D01*
X139604523Y-72529999D01*
X139652142Y-72577618D01*
X140604523Y-73482379D02*
X140033095Y-73482379D01*
X140318809Y-73482379D02*
X140318809Y-72482379D01*
X140223571Y-72625237D01*
X140128333Y-72720475D01*
X140033095Y-72768094D01*
X140985476Y-72577618D02*
X141033095Y-72529999D01*
X141128333Y-72482379D01*
X141366428Y-72482379D01*
X141461666Y-72529999D01*
X141509285Y-72577618D01*
X141556904Y-72672856D01*
X141556904Y-72768094D01*
X141509285Y-72910951D01*
X140937857Y-73482379D01*
X141556904Y-73482379D01*
%TO.C,C13*%
X119332142Y-98512141D02*
X119284523Y-98559760D01*
X119141666Y-98607379D01*
X119046428Y-98607379D01*
X118903571Y-98559760D01*
X118808333Y-98464522D01*
X118760714Y-98369284D01*
X118713095Y-98178808D01*
X118713095Y-98035951D01*
X118760714Y-97845475D01*
X118808333Y-97750237D01*
X118903571Y-97654999D01*
X119046428Y-97607379D01*
X119141666Y-97607379D01*
X119284523Y-97654999D01*
X119332142Y-97702618D01*
X120284523Y-98607379D02*
X119713095Y-98607379D01*
X119998809Y-98607379D02*
X119998809Y-97607379D01*
X119903571Y-97750237D01*
X119808333Y-97845475D01*
X119713095Y-97893094D01*
X120617857Y-97607379D02*
X121236904Y-97607379D01*
X120903571Y-97988332D01*
X121046428Y-97988332D01*
X121141666Y-98035951D01*
X121189285Y-98083570D01*
X121236904Y-98178808D01*
X121236904Y-98416903D01*
X121189285Y-98512141D01*
X121141666Y-98559760D01*
X121046428Y-98607379D01*
X120760714Y-98607379D01*
X120665476Y-98559760D01*
X120617857Y-98512141D01*
%TO.C,D1*%
X138596903Y-89502379D02*
X138596903Y-88502379D01*
X138834999Y-88502379D01*
X138977856Y-88549999D01*
X139073094Y-88645237D01*
X139120713Y-88740475D01*
X139168332Y-88930951D01*
X139168332Y-89073808D01*
X139120713Y-89264284D01*
X139073094Y-89359522D01*
X138977856Y-89454760D01*
X138834999Y-89502379D01*
X138596903Y-89502379D01*
X140120713Y-89502379D02*
X139549284Y-89502379D01*
X139834999Y-89502379D02*
X139834999Y-88502379D01*
X139739760Y-88645237D01*
X139644522Y-88740475D01*
X139549284Y-88788094D01*
%TO.C,D2*%
X138081905Y-91962381D02*
X138081905Y-90962381D01*
X138320001Y-90962381D01*
X138462858Y-91010001D01*
X138558096Y-91105239D01*
X138605715Y-91200477D01*
X138653334Y-91390953D01*
X138653334Y-91533810D01*
X138605715Y-91724286D01*
X138558096Y-91819524D01*
X138462858Y-91914762D01*
X138320001Y-91962381D01*
X138081905Y-91962381D01*
X139034286Y-91057620D02*
X139081905Y-91010001D01*
X139177143Y-90962381D01*
X139415239Y-90962381D01*
X139510477Y-91010001D01*
X139558096Y-91057620D01*
X139605715Y-91152858D01*
X139605715Y-91248096D01*
X139558096Y-91390953D01*
X138986667Y-91962381D01*
X139605715Y-91962381D01*
%TO.C,D3*%
X152212379Y-95988095D02*
X151212379Y-95988095D01*
X151212379Y-95750000D01*
X151259999Y-95607142D01*
X151355237Y-95511904D01*
X151450475Y-95464285D01*
X151640951Y-95416666D01*
X151783808Y-95416666D01*
X151974284Y-95464285D01*
X152069522Y-95511904D01*
X152164760Y-95607142D01*
X152212379Y-95750000D01*
X152212379Y-95988095D01*
X151212379Y-95083333D02*
X151212379Y-94464285D01*
X151593332Y-94797619D01*
X151593332Y-94654761D01*
X151640951Y-94559523D01*
X151688570Y-94511904D01*
X151783808Y-94464285D01*
X152021903Y-94464285D01*
X152117141Y-94511904D01*
X152164760Y-94559523D01*
X152212379Y-94654761D01*
X152212379Y-94940476D01*
X152164760Y-95035714D01*
X152117141Y-95083333D01*
%TO.C,D4*%
X150007381Y-95988095D02*
X149007381Y-95988095D01*
X149007381Y-95750000D01*
X149055001Y-95607142D01*
X149150239Y-95511904D01*
X149245477Y-95464285D01*
X149435953Y-95416666D01*
X149578810Y-95416666D01*
X149769286Y-95464285D01*
X149864524Y-95511904D01*
X149959762Y-95607142D01*
X150007381Y-95750000D01*
X150007381Y-95988095D01*
X149340715Y-94559523D02*
X150007381Y-94559523D01*
X148959762Y-94797619D02*
X149674048Y-95035714D01*
X149674048Y-94416666D01*
%TO.C,J1*%
X106346666Y-85657380D02*
X106346666Y-86371666D01*
X106299047Y-86514523D01*
X106203809Y-86609761D01*
X106060952Y-86657380D01*
X105965714Y-86657380D01*
X107346666Y-86657380D02*
X106775238Y-86657380D01*
X107060952Y-86657380D02*
X107060952Y-85657380D01*
X106965714Y-85800238D01*
X106870476Y-85895476D01*
X106775238Y-85943095D01*
%TO.C,J2*%
X152066666Y-88507380D02*
X152066666Y-89221666D01*
X152019047Y-89364523D01*
X151923809Y-89459761D01*
X151780952Y-89507380D01*
X151685714Y-89507380D01*
X152495238Y-88602619D02*
X152542857Y-88555000D01*
X152638095Y-88507380D01*
X152876190Y-88507380D01*
X152971428Y-88555000D01*
X153019047Y-88602619D01*
X153066666Y-88697857D01*
X153066666Y-88793095D01*
X153019047Y-88935952D01*
X152447619Y-89507380D01*
X153066666Y-89507380D01*
%TO.C,Q1*%
X107219761Y-67847618D02*
X107124523Y-67799999D01*
X107029285Y-67704760D01*
X106886428Y-67561903D01*
X106791190Y-67514284D01*
X106695952Y-67514284D01*
X106743571Y-67752379D02*
X106648333Y-67704760D01*
X106553095Y-67609522D01*
X106505476Y-67419046D01*
X106505476Y-67085713D01*
X106553095Y-66895237D01*
X106648333Y-66799999D01*
X106743571Y-66752379D01*
X106934047Y-66752379D01*
X107029285Y-66799999D01*
X107124523Y-66895237D01*
X107172142Y-67085713D01*
X107172142Y-67419046D01*
X107124523Y-67609522D01*
X107029285Y-67704760D01*
X106934047Y-67752379D01*
X106743571Y-67752379D01*
X108124523Y-67752379D02*
X107553095Y-67752379D01*
X107838809Y-67752379D02*
X107838809Y-66752379D01*
X107743571Y-66895237D01*
X107648333Y-66990475D01*
X107553095Y-67038094D01*
%TO.C,Q2*%
X146589761Y-74292620D02*
X146494523Y-74245001D01*
X146399285Y-74149762D01*
X146256428Y-74006905D01*
X146161190Y-73959286D01*
X146065952Y-73959286D01*
X146113571Y-74197381D02*
X146018333Y-74149762D01*
X145923095Y-74054524D01*
X145875476Y-73864048D01*
X145875476Y-73530715D01*
X145923095Y-73340239D01*
X146018333Y-73245001D01*
X146113571Y-73197381D01*
X146304047Y-73197381D01*
X146399285Y-73245001D01*
X146494523Y-73340239D01*
X146542142Y-73530715D01*
X146542142Y-73864048D01*
X146494523Y-74054524D01*
X146399285Y-74149762D01*
X146304047Y-74197381D01*
X146113571Y-74197381D01*
X146923095Y-73292620D02*
X146970714Y-73245001D01*
X147065952Y-73197381D01*
X147304047Y-73197381D01*
X147399285Y-73245001D01*
X147446904Y-73292620D01*
X147494523Y-73387858D01*
X147494523Y-73483096D01*
X147446904Y-73625953D01*
X146875476Y-74197381D01*
X147494523Y-74197381D01*
%TO.C,Q3*%
X138177620Y-95980238D02*
X138130001Y-96075476D01*
X138034762Y-96170714D01*
X137891905Y-96313571D01*
X137844286Y-96408809D01*
X137844286Y-96504047D01*
X138082381Y-96456428D02*
X138034762Y-96551666D01*
X137939524Y-96646904D01*
X137749048Y-96694523D01*
X137415715Y-96694523D01*
X137225239Y-96646904D01*
X137130001Y-96551666D01*
X137082381Y-96456428D01*
X137082381Y-96265952D01*
X137130001Y-96170714D01*
X137225239Y-96075476D01*
X137415715Y-96027857D01*
X137749048Y-96027857D01*
X137939524Y-96075476D01*
X138034762Y-96170714D01*
X138082381Y-96265952D01*
X138082381Y-96456428D01*
X137082381Y-95694523D02*
X137082381Y-95075476D01*
X137463334Y-95408809D01*
X137463334Y-95265952D01*
X137510953Y-95170714D01*
X137558572Y-95123095D01*
X137653810Y-95075476D01*
X137891905Y-95075476D01*
X137987143Y-95123095D01*
X138034762Y-95170714D01*
X138082381Y-95265952D01*
X138082381Y-95551666D01*
X138034762Y-95646904D01*
X137987143Y-95694523D01*
%TO.C,Q4*%
X123049762Y-104762620D02*
X122954524Y-104715001D01*
X122859286Y-104619762D01*
X122716429Y-104476905D01*
X122621191Y-104429286D01*
X122525953Y-104429286D01*
X122573572Y-104667381D02*
X122478334Y-104619762D01*
X122383096Y-104524524D01*
X122335477Y-104334048D01*
X122335477Y-104000715D01*
X122383096Y-103810239D01*
X122478334Y-103715001D01*
X122573572Y-103667381D01*
X122764048Y-103667381D01*
X122859286Y-103715001D01*
X122954524Y-103810239D01*
X123002143Y-104000715D01*
X123002143Y-104334048D01*
X122954524Y-104524524D01*
X122859286Y-104619762D01*
X122764048Y-104667381D01*
X122573572Y-104667381D01*
X123859286Y-104000715D02*
X123859286Y-104667381D01*
X123621191Y-103619762D02*
X123383096Y-104334048D01*
X124002143Y-104334048D01*
%TO.C,R1*%
X114768333Y-73732381D02*
X114435000Y-73256191D01*
X114196904Y-73732381D02*
X114196904Y-72732381D01*
X114577857Y-72732381D01*
X114673095Y-72780001D01*
X114720714Y-72827620D01*
X114768333Y-72922858D01*
X114768333Y-73065715D01*
X114720714Y-73160953D01*
X114673095Y-73208572D01*
X114577857Y-73256191D01*
X114196904Y-73256191D01*
X115720714Y-73732381D02*
X115149285Y-73732381D01*
X115435000Y-73732381D02*
X115435000Y-72732381D01*
X115339761Y-72875239D01*
X115244523Y-72970477D01*
X115149285Y-73018096D01*
%TO.C,R2*%
X114768333Y-79827380D02*
X114435000Y-79351190D01*
X114196904Y-79827380D02*
X114196904Y-78827380D01*
X114577857Y-78827380D01*
X114673095Y-78875000D01*
X114720714Y-78922619D01*
X114768333Y-79017857D01*
X114768333Y-79160714D01*
X114720714Y-79255952D01*
X114673095Y-79303571D01*
X114577857Y-79351190D01*
X114196904Y-79351190D01*
X115149285Y-78922619D02*
X115196904Y-78875000D01*
X115292142Y-78827380D01*
X115530238Y-78827380D01*
X115625476Y-78875000D01*
X115673095Y-78922619D01*
X115720714Y-79017857D01*
X115720714Y-79113095D01*
X115673095Y-79255952D01*
X115101666Y-79827380D01*
X115720714Y-79827380D01*
%TO.C,R3*%
X114768333Y-76552379D02*
X114435000Y-76076189D01*
X114196904Y-76552379D02*
X114196904Y-75552379D01*
X114577857Y-75552379D01*
X114673095Y-75599999D01*
X114720714Y-75647618D01*
X114768333Y-75742856D01*
X114768333Y-75885713D01*
X114720714Y-75980951D01*
X114673095Y-76028570D01*
X114577857Y-76076189D01*
X114196904Y-76076189D01*
X115101666Y-75552379D02*
X115720714Y-75552379D01*
X115387380Y-75933332D01*
X115530238Y-75933332D01*
X115625476Y-75980951D01*
X115673095Y-76028570D01*
X115720714Y-76123808D01*
X115720714Y-76361903D01*
X115673095Y-76457141D01*
X115625476Y-76504760D01*
X115530238Y-76552379D01*
X115244523Y-76552379D01*
X115149285Y-76504760D01*
X115101666Y-76457141D01*
%TO.C,R4*%
X127468333Y-76397379D02*
X127135000Y-75921189D01*
X126896904Y-76397379D02*
X126896904Y-75397379D01*
X127277857Y-75397379D01*
X127373095Y-75444999D01*
X127420714Y-75492618D01*
X127468333Y-75587856D01*
X127468333Y-75730713D01*
X127420714Y-75825951D01*
X127373095Y-75873570D01*
X127277857Y-75921189D01*
X126896904Y-75921189D01*
X128325476Y-75730713D02*
X128325476Y-76397379D01*
X128087380Y-75349760D02*
X127849285Y-76064046D01*
X128468333Y-76064046D01*
%TO.C,R5*%
X116673333Y-67072381D02*
X116340000Y-66596191D01*
X116101904Y-67072381D02*
X116101904Y-66072381D01*
X116482857Y-66072381D01*
X116578095Y-66120001D01*
X116625714Y-66167620D01*
X116673333Y-66262858D01*
X116673333Y-66405715D01*
X116625714Y-66500953D01*
X116578095Y-66548572D01*
X116482857Y-66596191D01*
X116101904Y-66596191D01*
X117578095Y-66072381D02*
X117101904Y-66072381D01*
X117054285Y-66548572D01*
X117101904Y-66500953D01*
X117197142Y-66453334D01*
X117435238Y-66453334D01*
X117530476Y-66500953D01*
X117578095Y-66548572D01*
X117625714Y-66643810D01*
X117625714Y-66881905D01*
X117578095Y-66977143D01*
X117530476Y-67024762D01*
X117435238Y-67072381D01*
X117197142Y-67072381D01*
X117101904Y-67024762D01*
X117054285Y-66977143D01*
%TO.C,R6*%
X116673333Y-70302380D02*
X116340000Y-69826190D01*
X116101904Y-70302380D02*
X116101904Y-69302380D01*
X116482857Y-69302380D01*
X116578095Y-69350000D01*
X116625714Y-69397619D01*
X116673333Y-69492857D01*
X116673333Y-69635714D01*
X116625714Y-69730952D01*
X116578095Y-69778571D01*
X116482857Y-69826190D01*
X116101904Y-69826190D01*
X117530476Y-69302380D02*
X117340000Y-69302380D01*
X117244761Y-69350000D01*
X117197142Y-69397619D01*
X117101904Y-69540476D01*
X117054285Y-69730952D01*
X117054285Y-70111904D01*
X117101904Y-70207142D01*
X117149523Y-70254761D01*
X117244761Y-70302380D01*
X117435238Y-70302380D01*
X117530476Y-70254761D01*
X117578095Y-70207142D01*
X117625714Y-70111904D01*
X117625714Y-69873809D01*
X117578095Y-69778571D01*
X117530476Y-69730952D01*
X117435238Y-69683333D01*
X117244761Y-69683333D01*
X117149523Y-69730952D01*
X117101904Y-69778571D01*
X117054285Y-69873809D01*
%TO.C,R7*%
X140168333Y-76467379D02*
X139835000Y-75991189D01*
X139596904Y-76467379D02*
X139596904Y-75467379D01*
X139977857Y-75467379D01*
X140073095Y-75514999D01*
X140120714Y-75562618D01*
X140168333Y-75657856D01*
X140168333Y-75800713D01*
X140120714Y-75895951D01*
X140073095Y-75943570D01*
X139977857Y-75991189D01*
X139596904Y-75991189D01*
X140501666Y-75467379D02*
X141168333Y-75467379D01*
X140739761Y-76467379D01*
%TO.C,R8*%
X140168333Y-79927381D02*
X139835000Y-79451191D01*
X139596904Y-79927381D02*
X139596904Y-78927381D01*
X139977857Y-78927381D01*
X140073095Y-78975001D01*
X140120714Y-79022620D01*
X140168333Y-79117858D01*
X140168333Y-79260715D01*
X140120714Y-79355953D01*
X140073095Y-79403572D01*
X139977857Y-79451191D01*
X139596904Y-79451191D01*
X140739761Y-79355953D02*
X140644523Y-79308334D01*
X140596904Y-79260715D01*
X140549285Y-79165477D01*
X140549285Y-79117858D01*
X140596904Y-79022620D01*
X140644523Y-78975001D01*
X140739761Y-78927381D01*
X140930238Y-78927381D01*
X141025476Y-78975001D01*
X141073095Y-79022620D01*
X141120714Y-79117858D01*
X141120714Y-79165477D01*
X141073095Y-79260715D01*
X141025476Y-79308334D01*
X140930238Y-79355953D01*
X140739761Y-79355953D01*
X140644523Y-79403572D01*
X140596904Y-79451191D01*
X140549285Y-79546429D01*
X140549285Y-79736905D01*
X140596904Y-79832143D01*
X140644523Y-79879762D01*
X140739761Y-79927381D01*
X140930238Y-79927381D01*
X141025476Y-79879762D01*
X141073095Y-79832143D01*
X141120714Y-79736905D01*
X141120714Y-79546429D01*
X141073095Y-79451191D01*
X141025476Y-79403572D01*
X140930238Y-79355953D01*
%TO.C,R9*%
X140168333Y-86147379D02*
X139835000Y-85671189D01*
X139596904Y-86147379D02*
X139596904Y-85147379D01*
X139977857Y-85147379D01*
X140073095Y-85194999D01*
X140120714Y-85242618D01*
X140168333Y-85337856D01*
X140168333Y-85480713D01*
X140120714Y-85575951D01*
X140073095Y-85623570D01*
X139977857Y-85671189D01*
X139596904Y-85671189D01*
X140644523Y-86147379D02*
X140835000Y-86147379D01*
X140930238Y-86099760D01*
X140977857Y-86052141D01*
X141073095Y-85909284D01*
X141120714Y-85718808D01*
X141120714Y-85337856D01*
X141073095Y-85242618D01*
X141025476Y-85194999D01*
X140930238Y-85147379D01*
X140739761Y-85147379D01*
X140644523Y-85194999D01*
X140596904Y-85242618D01*
X140549285Y-85337856D01*
X140549285Y-85575951D01*
X140596904Y-85671189D01*
X140644523Y-85718808D01*
X140739761Y-85766427D01*
X140930238Y-85766427D01*
X141025476Y-85718808D01*
X141073095Y-85671189D01*
X141120714Y-85575951D01*
%TO.C,R10*%
X126992142Y-80252381D02*
X126658809Y-79776191D01*
X126420714Y-80252381D02*
X126420714Y-79252381D01*
X126801666Y-79252381D01*
X126896904Y-79300001D01*
X126944523Y-79347620D01*
X126992142Y-79442858D01*
X126992142Y-79585715D01*
X126944523Y-79680953D01*
X126896904Y-79728572D01*
X126801666Y-79776191D01*
X126420714Y-79776191D01*
X127944523Y-80252381D02*
X127373095Y-80252381D01*
X127658809Y-80252381D02*
X127658809Y-79252381D01*
X127563571Y-79395239D01*
X127468333Y-79490477D01*
X127373095Y-79538096D01*
X128563571Y-79252381D02*
X128658809Y-79252381D01*
X128754047Y-79300001D01*
X128801666Y-79347620D01*
X128849285Y-79442858D01*
X128896904Y-79633334D01*
X128896904Y-79871429D01*
X128849285Y-80061905D01*
X128801666Y-80157143D01*
X128754047Y-80204762D01*
X128658809Y-80252381D01*
X128563571Y-80252381D01*
X128468333Y-80204762D01*
X128420714Y-80157143D01*
X128373095Y-80061905D01*
X128325476Y-79871429D01*
X128325476Y-79633334D01*
X128373095Y-79442858D01*
X128420714Y-79347620D01*
X128468333Y-79300001D01*
X128563571Y-79252381D01*
%TO.C,R11*%
X152938381Y-76842857D02*
X152462191Y-77176190D01*
X152938381Y-77414285D02*
X151938381Y-77414285D01*
X151938381Y-77033333D01*
X151986001Y-76938095D01*
X152033620Y-76890476D01*
X152128858Y-76842857D01*
X152271715Y-76842857D01*
X152366953Y-76890476D01*
X152414572Y-76938095D01*
X152462191Y-77033333D01*
X152462191Y-77414285D01*
X152938381Y-75890476D02*
X152938381Y-76461904D01*
X152938381Y-76176190D02*
X151938381Y-76176190D01*
X152081239Y-76271428D01*
X152176477Y-76366666D01*
X152224096Y-76461904D01*
X152938381Y-74938095D02*
X152938381Y-75509523D01*
X152938381Y-75223809D02*
X151938381Y-75223809D01*
X152081239Y-75319047D01*
X152176477Y-75414285D01*
X152224096Y-75509523D01*
%TO.C,R12*%
X146642379Y-94622857D02*
X146166189Y-94956190D01*
X146642379Y-95194285D02*
X145642379Y-95194285D01*
X145642379Y-94813333D01*
X145689999Y-94718095D01*
X145737618Y-94670476D01*
X145832856Y-94622857D01*
X145975713Y-94622857D01*
X146070951Y-94670476D01*
X146118570Y-94718095D01*
X146166189Y-94813333D01*
X146166189Y-95194285D01*
X146642379Y-93670476D02*
X146642379Y-94241904D01*
X146642379Y-93956190D02*
X145642379Y-93956190D01*
X145785237Y-94051428D01*
X145880475Y-94146666D01*
X145928094Y-94241904D01*
X145737618Y-93289523D02*
X145689999Y-93241904D01*
X145642379Y-93146666D01*
X145642379Y-92908571D01*
X145689999Y-92813333D01*
X145737618Y-92765714D01*
X145832856Y-92718095D01*
X145928094Y-92718095D01*
X146070951Y-92765714D01*
X146642379Y-93337142D01*
X146642379Y-92718095D01*
%TO.C,R13*%
X126992142Y-95732381D02*
X126658809Y-95256191D01*
X126420714Y-95732381D02*
X126420714Y-94732381D01*
X126801666Y-94732381D01*
X126896904Y-94780001D01*
X126944523Y-94827620D01*
X126992142Y-94922858D01*
X126992142Y-95065715D01*
X126944523Y-95160953D01*
X126896904Y-95208572D01*
X126801666Y-95256191D01*
X126420714Y-95256191D01*
X127944523Y-95732381D02*
X127373095Y-95732381D01*
X127658809Y-95732381D02*
X127658809Y-94732381D01*
X127563571Y-94875239D01*
X127468333Y-94970477D01*
X127373095Y-95018096D01*
X128277857Y-94732381D02*
X128896904Y-94732381D01*
X128563571Y-95113334D01*
X128706428Y-95113334D01*
X128801666Y-95160953D01*
X128849285Y-95208572D01*
X128896904Y-95303810D01*
X128896904Y-95541905D01*
X128849285Y-95637143D01*
X128801666Y-95684762D01*
X128706428Y-95732381D01*
X128420714Y-95732381D01*
X128325476Y-95684762D01*
X128277857Y-95637143D01*
%TO.C,R14*%
X131437142Y-104227381D02*
X131103809Y-103751191D01*
X130865714Y-104227381D02*
X130865714Y-103227381D01*
X131246666Y-103227381D01*
X131341904Y-103275001D01*
X131389523Y-103322620D01*
X131437142Y-103417858D01*
X131437142Y-103560715D01*
X131389523Y-103655953D01*
X131341904Y-103703572D01*
X131246666Y-103751191D01*
X130865714Y-103751191D01*
X132389523Y-104227381D02*
X131818095Y-104227381D01*
X132103809Y-104227381D02*
X132103809Y-103227381D01*
X132008571Y-103370239D01*
X131913333Y-103465477D01*
X131818095Y-103513096D01*
X133246666Y-103560715D02*
X133246666Y-104227381D01*
X133008571Y-103179762D02*
X132770476Y-103894048D01*
X133389523Y-103894048D01*
%TO.C,R15*%
X126992142Y-92387381D02*
X126658809Y-91911191D01*
X126420714Y-92387381D02*
X126420714Y-91387381D01*
X126801666Y-91387381D01*
X126896904Y-91435001D01*
X126944523Y-91482620D01*
X126992142Y-91577858D01*
X126992142Y-91720715D01*
X126944523Y-91815953D01*
X126896904Y-91863572D01*
X126801666Y-91911191D01*
X126420714Y-91911191D01*
X127944523Y-92387381D02*
X127373095Y-92387381D01*
X127658809Y-92387381D02*
X127658809Y-91387381D01*
X127563571Y-91530239D01*
X127468333Y-91625477D01*
X127373095Y-91673096D01*
X128849285Y-91387381D02*
X128373095Y-91387381D01*
X128325476Y-91863572D01*
X128373095Y-91815953D01*
X128468333Y-91768334D01*
X128706428Y-91768334D01*
X128801666Y-91815953D01*
X128849285Y-91863572D01*
X128896904Y-91958810D01*
X128896904Y-92196905D01*
X128849285Y-92292143D01*
X128801666Y-92339762D01*
X128706428Y-92387381D01*
X128468333Y-92387381D01*
X128373095Y-92339762D01*
X128325476Y-92292143D01*
%TO.C,R16*%
X126992142Y-82792381D02*
X126658809Y-82316191D01*
X126420714Y-82792381D02*
X126420714Y-81792381D01*
X126801666Y-81792381D01*
X126896904Y-81840001D01*
X126944523Y-81887620D01*
X126992142Y-81982858D01*
X126992142Y-82125715D01*
X126944523Y-82220953D01*
X126896904Y-82268572D01*
X126801666Y-82316191D01*
X126420714Y-82316191D01*
X127944523Y-82792381D02*
X127373095Y-82792381D01*
X127658809Y-82792381D02*
X127658809Y-81792381D01*
X127563571Y-81935239D01*
X127468333Y-82030477D01*
X127373095Y-82078096D01*
X128801666Y-81792381D02*
X128611190Y-81792381D01*
X128515952Y-81840001D01*
X128468333Y-81887620D01*
X128373095Y-82030477D01*
X128325476Y-82220953D01*
X128325476Y-82601905D01*
X128373095Y-82697143D01*
X128420714Y-82744762D01*
X128515952Y-82792381D01*
X128706428Y-82792381D01*
X128801666Y-82744762D01*
X128849285Y-82697143D01*
X128896904Y-82601905D01*
X128896904Y-82363810D01*
X128849285Y-82268572D01*
X128801666Y-82220953D01*
X128706428Y-82173334D01*
X128515952Y-82173334D01*
X128420714Y-82220953D01*
X128373095Y-82268572D01*
X128325476Y-82363810D01*
%TO.C,R17*%
X114292142Y-86517381D02*
X113958809Y-86041191D01*
X113720714Y-86517381D02*
X113720714Y-85517381D01*
X114101666Y-85517381D01*
X114196904Y-85565001D01*
X114244523Y-85612620D01*
X114292142Y-85707858D01*
X114292142Y-85850715D01*
X114244523Y-85945953D01*
X114196904Y-85993572D01*
X114101666Y-86041191D01*
X113720714Y-86041191D01*
X115244523Y-86517381D02*
X114673095Y-86517381D01*
X114958809Y-86517381D02*
X114958809Y-85517381D01*
X114863571Y-85660239D01*
X114768333Y-85755477D01*
X114673095Y-85803096D01*
X115577857Y-85517381D02*
X116244523Y-85517381D01*
X115815952Y-86517381D01*
%TO.C,R18*%
X114292142Y-92342379D02*
X113958809Y-91866189D01*
X113720714Y-92342379D02*
X113720714Y-91342379D01*
X114101666Y-91342379D01*
X114196904Y-91389999D01*
X114244523Y-91437618D01*
X114292142Y-91532856D01*
X114292142Y-91675713D01*
X114244523Y-91770951D01*
X114196904Y-91818570D01*
X114101666Y-91866189D01*
X113720714Y-91866189D01*
X115244523Y-92342379D02*
X114673095Y-92342379D01*
X114958809Y-92342379D02*
X114958809Y-91342379D01*
X114863571Y-91485237D01*
X114768333Y-91580475D01*
X114673095Y-91628094D01*
X115815952Y-91770951D02*
X115720714Y-91723332D01*
X115673095Y-91675713D01*
X115625476Y-91580475D01*
X115625476Y-91532856D01*
X115673095Y-91437618D01*
X115720714Y-91389999D01*
X115815952Y-91342379D01*
X116006428Y-91342379D01*
X116101666Y-91389999D01*
X116149285Y-91437618D01*
X116196904Y-91532856D01*
X116196904Y-91580475D01*
X116149285Y-91675713D01*
X116101666Y-91723332D01*
X116006428Y-91770951D01*
X115815952Y-91770951D01*
X115720714Y-91818570D01*
X115673095Y-91866189D01*
X115625476Y-91961427D01*
X115625476Y-92151903D01*
X115673095Y-92247141D01*
X115720714Y-92294760D01*
X115815952Y-92342379D01*
X116006428Y-92342379D01*
X116101666Y-92294760D01*
X116149285Y-92247141D01*
X116196904Y-92151903D01*
X116196904Y-91961427D01*
X116149285Y-91866189D01*
X116101666Y-91818570D01*
X116006428Y-91770951D01*
%TO.C,R19*%
X126992142Y-86432381D02*
X126658809Y-85956191D01*
X126420714Y-86432381D02*
X126420714Y-85432381D01*
X126801666Y-85432381D01*
X126896904Y-85480001D01*
X126944523Y-85527620D01*
X126992142Y-85622858D01*
X126992142Y-85765715D01*
X126944523Y-85860953D01*
X126896904Y-85908572D01*
X126801666Y-85956191D01*
X126420714Y-85956191D01*
X127944523Y-86432381D02*
X127373095Y-86432381D01*
X127658809Y-86432381D02*
X127658809Y-85432381D01*
X127563571Y-85575239D01*
X127468333Y-85670477D01*
X127373095Y-85718096D01*
X128420714Y-86432381D02*
X128611190Y-86432381D01*
X128706428Y-86384762D01*
X128754047Y-86337143D01*
X128849285Y-86194286D01*
X128896904Y-86003810D01*
X128896904Y-85622858D01*
X128849285Y-85527620D01*
X128801666Y-85480001D01*
X128706428Y-85432381D01*
X128515952Y-85432381D01*
X128420714Y-85480001D01*
X128373095Y-85527620D01*
X128325476Y-85622858D01*
X128325476Y-85860953D01*
X128373095Y-85956191D01*
X128420714Y-86003810D01*
X128515952Y-86051429D01*
X128706428Y-86051429D01*
X128801666Y-86003810D01*
X128849285Y-85956191D01*
X128896904Y-85860953D01*
%TO.C,R21*%
X126992142Y-89692381D02*
X126658809Y-89216191D01*
X126420714Y-89692381D02*
X126420714Y-88692381D01*
X126801666Y-88692381D01*
X126896904Y-88740001D01*
X126944523Y-88787620D01*
X126992142Y-88882858D01*
X126992142Y-89025715D01*
X126944523Y-89120953D01*
X126896904Y-89168572D01*
X126801666Y-89216191D01*
X126420714Y-89216191D01*
X127373095Y-88787620D02*
X127420714Y-88740001D01*
X127515952Y-88692381D01*
X127754047Y-88692381D01*
X127849285Y-88740001D01*
X127896904Y-88787620D01*
X127944523Y-88882858D01*
X127944523Y-88978096D01*
X127896904Y-89120953D01*
X127325476Y-89692381D01*
X127944523Y-89692381D01*
X128896904Y-89692381D02*
X128325476Y-89692381D01*
X128611190Y-89692381D02*
X128611190Y-88692381D01*
X128515952Y-88835239D01*
X128420714Y-88930477D01*
X128325476Y-88978096D01*
%TO.C,R22*%
X144772142Y-102687380D02*
X144438809Y-102211190D01*
X144200714Y-102687380D02*
X144200714Y-101687380D01*
X144581666Y-101687380D01*
X144676904Y-101735000D01*
X144724523Y-101782619D01*
X144772142Y-101877857D01*
X144772142Y-102020714D01*
X144724523Y-102115952D01*
X144676904Y-102163571D01*
X144581666Y-102211190D01*
X144200714Y-102211190D01*
X145153095Y-101782619D02*
X145200714Y-101735000D01*
X145295952Y-101687380D01*
X145534047Y-101687380D01*
X145629285Y-101735000D01*
X145676904Y-101782619D01*
X145724523Y-101877857D01*
X145724523Y-101973095D01*
X145676904Y-102115952D01*
X145105476Y-102687380D01*
X145724523Y-102687380D01*
X146105476Y-101782619D02*
X146153095Y-101735000D01*
X146248333Y-101687380D01*
X146486428Y-101687380D01*
X146581666Y-101735000D01*
X146629285Y-101782619D01*
X146676904Y-101877857D01*
X146676904Y-101973095D01*
X146629285Y-102115952D01*
X146057857Y-102687380D01*
X146676904Y-102687380D01*
%TO.C,R23*%
X114292142Y-95602379D02*
X113958809Y-95126189D01*
X113720714Y-95602379D02*
X113720714Y-94602379D01*
X114101666Y-94602379D01*
X114196904Y-94649999D01*
X114244523Y-94697618D01*
X114292142Y-94792856D01*
X114292142Y-94935713D01*
X114244523Y-95030951D01*
X114196904Y-95078570D01*
X114101666Y-95126189D01*
X113720714Y-95126189D01*
X114673095Y-94697618D02*
X114720714Y-94649999D01*
X114815952Y-94602379D01*
X115054047Y-94602379D01*
X115149285Y-94649999D01*
X115196904Y-94697618D01*
X115244523Y-94792856D01*
X115244523Y-94888094D01*
X115196904Y-95030951D01*
X114625476Y-95602379D01*
X115244523Y-95602379D01*
X115577857Y-94602379D02*
X116196904Y-94602379D01*
X115863571Y-94983332D01*
X116006428Y-94983332D01*
X116101666Y-95030951D01*
X116149285Y-95078570D01*
X116196904Y-95173808D01*
X116196904Y-95411903D01*
X116149285Y-95507141D01*
X116101666Y-95554760D01*
X116006428Y-95602379D01*
X115720714Y-95602379D01*
X115625476Y-95554760D01*
X115577857Y-95507141D01*
%TO.C,SUST1*%
X124857142Y-68984761D02*
X125000000Y-69032380D01*
X125238095Y-69032380D01*
X125333333Y-68984761D01*
X125380952Y-68937142D01*
X125428571Y-68841904D01*
X125428571Y-68746666D01*
X125380952Y-68651428D01*
X125333333Y-68603809D01*
X125238095Y-68556190D01*
X125047619Y-68508571D01*
X124952380Y-68460952D01*
X124904761Y-68413333D01*
X124857142Y-68318095D01*
X124857142Y-68222857D01*
X124904761Y-68127619D01*
X124952380Y-68080000D01*
X125047619Y-68032380D01*
X125285714Y-68032380D01*
X125428571Y-68080000D01*
X125857142Y-68032380D02*
X125857142Y-68841904D01*
X125904761Y-68937142D01*
X125952380Y-68984761D01*
X126047619Y-69032380D01*
X126238095Y-69032380D01*
X126333333Y-68984761D01*
X126380952Y-68937142D01*
X126428571Y-68841904D01*
X126428571Y-68032380D01*
X126857142Y-68984761D02*
X127000000Y-69032380D01*
X127238095Y-69032380D01*
X127333333Y-68984761D01*
X127380952Y-68937142D01*
X127428571Y-68841904D01*
X127428571Y-68746666D01*
X127380952Y-68651428D01*
X127333333Y-68603809D01*
X127238095Y-68556190D01*
X127047619Y-68508571D01*
X126952380Y-68460952D01*
X126904761Y-68413333D01*
X126857142Y-68318095D01*
X126857142Y-68222857D01*
X126904761Y-68127619D01*
X126952380Y-68080000D01*
X127047619Y-68032380D01*
X127285714Y-68032380D01*
X127428571Y-68080000D01*
X127714285Y-68032380D02*
X128285714Y-68032380D01*
X128000000Y-69032380D02*
X128000000Y-68032380D01*
X129142857Y-69032380D02*
X128571428Y-69032380D01*
X128857142Y-69032380D02*
X128857142Y-68032380D01*
X128761904Y-68175238D01*
X128666666Y-68270476D01*
X128571428Y-68318095D01*
%TO.C,SW1*%
X134234761Y-108013333D02*
X134282380Y-107870476D01*
X134282380Y-107632380D01*
X134234761Y-107537142D01*
X134187142Y-107489523D01*
X134091904Y-107441904D01*
X133996666Y-107441904D01*
X133901428Y-107489523D01*
X133853809Y-107537142D01*
X133806190Y-107632380D01*
X133758571Y-107822857D01*
X133710952Y-107918095D01*
X133663333Y-107965714D01*
X133568095Y-108013333D01*
X133472857Y-108013333D01*
X133377619Y-107965714D01*
X133330000Y-107918095D01*
X133282380Y-107822857D01*
X133282380Y-107584761D01*
X133330000Y-107441904D01*
X133282380Y-107108571D02*
X134282380Y-106870476D01*
X133568095Y-106680000D01*
X134282380Y-106489523D01*
X133282380Y-106251428D01*
X134282380Y-105346666D02*
X134282380Y-105918095D01*
X134282380Y-105632380D02*
X133282380Y-105632380D01*
X133425238Y-105727619D01*
X133520476Y-105822857D01*
X133568095Y-105918095D01*
%TO.C,SW2*%
X140584761Y-108013333D02*
X140632380Y-107870476D01*
X140632380Y-107632380D01*
X140584761Y-107537142D01*
X140537142Y-107489523D01*
X140441904Y-107441904D01*
X140346666Y-107441904D01*
X140251428Y-107489523D01*
X140203809Y-107537142D01*
X140156190Y-107632380D01*
X140108571Y-107822857D01*
X140060952Y-107918095D01*
X140013333Y-107965714D01*
X139918095Y-108013333D01*
X139822857Y-108013333D01*
X139727619Y-107965714D01*
X139680000Y-107918095D01*
X139632380Y-107822857D01*
X139632380Y-107584761D01*
X139680000Y-107441904D01*
X139632380Y-107108571D02*
X140632380Y-106870476D01*
X139918095Y-106680000D01*
X140632380Y-106489523D01*
X139632380Y-106251428D01*
X139727619Y-105918095D02*
X139680000Y-105870476D01*
X139632380Y-105775238D01*
X139632380Y-105537142D01*
X139680000Y-105441904D01*
X139727619Y-105394285D01*
X139822857Y-105346666D01*
X139918095Y-105346666D01*
X140060952Y-105394285D01*
X140632380Y-105965714D01*
X140632380Y-105346666D01*
%TO.C,TONE1*%
X131723095Y-68032380D02*
X132294523Y-68032380D01*
X132008809Y-69032380D02*
X132008809Y-68032380D01*
X132818333Y-68032380D02*
X133008809Y-68032380D01*
X133104047Y-68080000D01*
X133199285Y-68175238D01*
X133246904Y-68365714D01*
X133246904Y-68699047D01*
X133199285Y-68889523D01*
X133104047Y-68984761D01*
X133008809Y-69032380D01*
X132818333Y-69032380D01*
X132723095Y-68984761D01*
X132627857Y-68889523D01*
X132580238Y-68699047D01*
X132580238Y-68365714D01*
X132627857Y-68175238D01*
X132723095Y-68080000D01*
X132818333Y-68032380D01*
X133675476Y-69032380D02*
X133675476Y-68032380D01*
X134246904Y-69032380D01*
X134246904Y-68032380D01*
X134723095Y-68508571D02*
X135056428Y-68508571D01*
X135199285Y-69032380D02*
X134723095Y-69032380D01*
X134723095Y-68032380D01*
X135199285Y-68032380D01*
X136151666Y-69032380D02*
X135580238Y-69032380D01*
X135865952Y-69032380D02*
X135865952Y-68032380D01*
X135770714Y-68175238D01*
X135675476Y-68270476D01*
X135580238Y-68318095D01*
%TO.C,VOL1*%
X139866904Y-68032380D02*
X140200238Y-69032380D01*
X140533571Y-68032380D01*
X141057380Y-68032380D02*
X141247857Y-68032380D01*
X141343095Y-68080000D01*
X141438333Y-68175238D01*
X141485952Y-68365714D01*
X141485952Y-68699047D01*
X141438333Y-68889523D01*
X141343095Y-68984761D01*
X141247857Y-69032380D01*
X141057380Y-69032380D01*
X140962142Y-68984761D01*
X140866904Y-68889523D01*
X140819285Y-68699047D01*
X140819285Y-68365714D01*
X140866904Y-68175238D01*
X140962142Y-68080000D01*
X141057380Y-68032380D01*
X142390714Y-69032380D02*
X141914523Y-69032380D01*
X141914523Y-68032380D01*
X143247857Y-69032380D02*
X142676428Y-69032380D01*
X142962142Y-69032380D02*
X142962142Y-68032380D01*
X142866904Y-68175238D01*
X142771666Y-68270476D01*
X142676428Y-68318095D01*
%TD*%
M02*
