G04 #@! TF.GenerationSoftware,KiCad,Pcbnew,(5.1.10)-1*
G04 #@! TF.CreationDate,2021-08-18T22:26:20-05:00*
G04 #@! TF.ProjectId,ConsolePedalPhaserSMT,436f6e73-6f6c-4655-9065-64616c506861,rev?*
G04 #@! TF.SameCoordinates,Original*
G04 #@! TF.FileFunction,Paste,Top*
G04 #@! TF.FilePolarity,Positive*
%FSLAX46Y46*%
G04 Gerber Fmt 4.6, Leading zero omitted, Abs format (unit mm)*
G04 Created by KiCad (PCBNEW (5.1.10)-1) date 2021-08-18 22:26:20*
%MOMM*%
%LPD*%
G01*
G04 APERTURE LIST*
%ADD10R,0.900000X1.200000*%
%ADD11R,0.600000X0.450000*%
G04 APERTURE END LIST*
G04 #@! TO.C,C1*
G36*
G01*
X95967000Y-100334000D02*
X95967000Y-100834000D01*
G75*
G02*
X95742000Y-101059000I-225000J0D01*
G01*
X95292000Y-101059000D01*
G75*
G02*
X95067000Y-100834000I0J225000D01*
G01*
X95067000Y-100334000D01*
G75*
G02*
X95292000Y-100109000I225000J0D01*
G01*
X95742000Y-100109000D01*
G75*
G02*
X95967000Y-100334000I0J-225000D01*
G01*
G37*
G36*
G01*
X94417000Y-100334000D02*
X94417000Y-100834000D01*
G75*
G02*
X94192000Y-101059000I-225000J0D01*
G01*
X93742000Y-101059000D01*
G75*
G02*
X93517000Y-100834000I0J225000D01*
G01*
X93517000Y-100334000D01*
G75*
G02*
X93742000Y-100109000I225000J0D01*
G01*
X94192000Y-100109000D01*
G75*
G02*
X94417000Y-100334000I0J-225000D01*
G01*
G37*
G04 #@! TD*
G04 #@! TO.C,C2*
G36*
G01*
X116541000Y-101858000D02*
X116541000Y-102358000D01*
G75*
G02*
X116316000Y-102583000I-225000J0D01*
G01*
X115866000Y-102583000D01*
G75*
G02*
X115641000Y-102358000I0J225000D01*
G01*
X115641000Y-101858000D01*
G75*
G02*
X115866000Y-101633000I225000J0D01*
G01*
X116316000Y-101633000D01*
G75*
G02*
X116541000Y-101858000I0J-225000D01*
G01*
G37*
G36*
G01*
X114991000Y-101858000D02*
X114991000Y-102358000D01*
G75*
G02*
X114766000Y-102583000I-225000J0D01*
G01*
X114316000Y-102583000D01*
G75*
G02*
X114091000Y-102358000I0J225000D01*
G01*
X114091000Y-101858000D01*
G75*
G02*
X114316000Y-101633000I225000J0D01*
G01*
X114766000Y-101633000D01*
G75*
G02*
X114991000Y-101858000I0J-225000D01*
G01*
G37*
G04 #@! TD*
G04 #@! TO.C,C3*
G36*
G01*
X125013000Y-105914000D02*
X125013000Y-105414000D01*
G75*
G02*
X125238000Y-105189000I225000J0D01*
G01*
X125688000Y-105189000D01*
G75*
G02*
X125913000Y-105414000I0J-225000D01*
G01*
X125913000Y-105914000D01*
G75*
G02*
X125688000Y-106139000I-225000J0D01*
G01*
X125238000Y-106139000D01*
G75*
G02*
X125013000Y-105914000I0J225000D01*
G01*
G37*
G36*
G01*
X126563000Y-105914000D02*
X126563000Y-105414000D01*
G75*
G02*
X126788000Y-105189000I225000J0D01*
G01*
X127238000Y-105189000D01*
G75*
G02*
X127463000Y-105414000I0J-225000D01*
G01*
X127463000Y-105914000D01*
G75*
G02*
X127238000Y-106139000I-225000J0D01*
G01*
X126788000Y-106139000D01*
G75*
G02*
X126563000Y-105914000I0J225000D01*
G01*
G37*
G04 #@! TD*
G04 #@! TO.C,C4*
G36*
G01*
X149925000Y-106684000D02*
X149925000Y-107184000D01*
G75*
G02*
X149700000Y-107409000I-225000J0D01*
G01*
X149250000Y-107409000D01*
G75*
G02*
X149025000Y-107184000I0J225000D01*
G01*
X149025000Y-106684000D01*
G75*
G02*
X149250000Y-106459000I225000J0D01*
G01*
X149700000Y-106459000D01*
G75*
G02*
X149925000Y-106684000I0J-225000D01*
G01*
G37*
G36*
G01*
X151475000Y-106684000D02*
X151475000Y-107184000D01*
G75*
G02*
X151250000Y-107409000I-225000J0D01*
G01*
X150800000Y-107409000D01*
G75*
G02*
X150575000Y-107184000I0J225000D01*
G01*
X150575000Y-106684000D01*
G75*
G02*
X150800000Y-106459000I225000J0D01*
G01*
X151250000Y-106459000D01*
G75*
G02*
X151475000Y-106684000I0J-225000D01*
G01*
G37*
G04 #@! TD*
G04 #@! TO.C,C5*
G36*
G01*
X162390000Y-107700000D02*
X162390000Y-108200000D01*
G75*
G02*
X162165000Y-108425000I-225000J0D01*
G01*
X161715000Y-108425000D01*
G75*
G02*
X161490000Y-108200000I0J225000D01*
G01*
X161490000Y-107700000D01*
G75*
G02*
X161715000Y-107475000I225000J0D01*
G01*
X162165000Y-107475000D01*
G75*
G02*
X162390000Y-107700000I0J-225000D01*
G01*
G37*
G36*
G01*
X163940000Y-107700000D02*
X163940000Y-108200000D01*
G75*
G02*
X163715000Y-108425000I-225000J0D01*
G01*
X163265000Y-108425000D01*
G75*
G02*
X163040000Y-108200000I0J225000D01*
G01*
X163040000Y-107700000D01*
G75*
G02*
X163265000Y-107475000I225000J0D01*
G01*
X163715000Y-107475000D01*
G75*
G02*
X163940000Y-107700000I0J-225000D01*
G01*
G37*
G04 #@! TD*
G04 #@! TO.C,C6*
G36*
G01*
X103040000Y-81022000D02*
X103040000Y-80522000D01*
G75*
G02*
X103265000Y-80297000I225000J0D01*
G01*
X103715000Y-80297000D01*
G75*
G02*
X103940000Y-80522000I0J-225000D01*
G01*
X103940000Y-81022000D01*
G75*
G02*
X103715000Y-81247000I-225000J0D01*
G01*
X103265000Y-81247000D01*
G75*
G02*
X103040000Y-81022000I0J225000D01*
G01*
G37*
G36*
G01*
X101490000Y-81022000D02*
X101490000Y-80522000D01*
G75*
G02*
X101715000Y-80297000I225000J0D01*
G01*
X102165000Y-80297000D01*
G75*
G02*
X102390000Y-80522000I0J-225000D01*
G01*
X102390000Y-81022000D01*
G75*
G02*
X102165000Y-81247000I-225000J0D01*
G01*
X101715000Y-81247000D01*
G75*
G02*
X101490000Y-81022000I0J225000D01*
G01*
G37*
G04 #@! TD*
G04 #@! TO.C,C7*
G36*
G01*
X149700000Y-81898000D02*
X150800000Y-81898000D01*
G75*
G02*
X151050000Y-82148000I0J-250000D01*
G01*
X151050000Y-84648000D01*
G75*
G02*
X150800000Y-84898000I-250000J0D01*
G01*
X149700000Y-84898000D01*
G75*
G02*
X149450000Y-84648000I0J250000D01*
G01*
X149450000Y-82148000D01*
G75*
G02*
X149700000Y-81898000I250000J0D01*
G01*
G37*
G36*
G01*
X149700000Y-86298000D02*
X150800000Y-86298000D01*
G75*
G02*
X151050000Y-86548000I0J-250000D01*
G01*
X151050000Y-89048000D01*
G75*
G02*
X150800000Y-89298000I-250000J0D01*
G01*
X149700000Y-89298000D01*
G75*
G02*
X149450000Y-89048000I0J250000D01*
G01*
X149450000Y-86548000D01*
G75*
G02*
X149700000Y-86298000I250000J0D01*
G01*
G37*
G04 #@! TD*
G04 #@! TO.C,C8*
G36*
G01*
X122045000Y-102520000D02*
X122045000Y-102020000D01*
G75*
G02*
X122270000Y-101795000I225000J0D01*
G01*
X122720000Y-101795000D01*
G75*
G02*
X122945000Y-102020000I0J-225000D01*
G01*
X122945000Y-102520000D01*
G75*
G02*
X122720000Y-102745000I-225000J0D01*
G01*
X122270000Y-102745000D01*
G75*
G02*
X122045000Y-102520000I0J225000D01*
G01*
G37*
G36*
G01*
X123595000Y-102520000D02*
X123595000Y-102020000D01*
G75*
G02*
X123820000Y-101795000I225000J0D01*
G01*
X124270000Y-101795000D01*
G75*
G02*
X124495000Y-102020000I0J-225000D01*
G01*
X124495000Y-102520000D01*
G75*
G02*
X124270000Y-102745000I-225000J0D01*
G01*
X123820000Y-102745000D01*
G75*
G02*
X123595000Y-102520000I0J225000D01*
G01*
G37*
G04 #@! TD*
G04 #@! TO.C,C9*
G36*
G01*
X102545000Y-97286000D02*
X102545000Y-97786000D01*
G75*
G02*
X102320000Y-98011000I-225000J0D01*
G01*
X101870000Y-98011000D01*
G75*
G02*
X101645000Y-97786000I0J225000D01*
G01*
X101645000Y-97286000D01*
G75*
G02*
X101870000Y-97061000I225000J0D01*
G01*
X102320000Y-97061000D01*
G75*
G02*
X102545000Y-97286000I0J-225000D01*
G01*
G37*
G36*
G01*
X104095000Y-97286000D02*
X104095000Y-97786000D01*
G75*
G02*
X103870000Y-98011000I-225000J0D01*
G01*
X103420000Y-98011000D01*
G75*
G02*
X103195000Y-97786000I0J225000D01*
G01*
X103195000Y-97286000D01*
G75*
G02*
X103420000Y-97061000I225000J0D01*
G01*
X103870000Y-97061000D01*
G75*
G02*
X104095000Y-97286000I0J-225000D01*
G01*
G37*
G04 #@! TD*
G04 #@! TO.C,C10*
G36*
G01*
X114700000Y-86552000D02*
X115800000Y-86552000D01*
G75*
G02*
X116050000Y-86802000I0J-250000D01*
G01*
X116050000Y-89302000D01*
G75*
G02*
X115800000Y-89552000I-250000J0D01*
G01*
X114700000Y-89552000D01*
G75*
G02*
X114450000Y-89302000I0J250000D01*
G01*
X114450000Y-86802000D01*
G75*
G02*
X114700000Y-86552000I250000J0D01*
G01*
G37*
G36*
G01*
X114700000Y-82152000D02*
X115800000Y-82152000D01*
G75*
G02*
X116050000Y-82402000I0J-250000D01*
G01*
X116050000Y-84902000D01*
G75*
G02*
X115800000Y-85152000I-250000J0D01*
G01*
X114700000Y-85152000D01*
G75*
G02*
X114450000Y-84902000I0J250000D01*
G01*
X114450000Y-82402000D01*
G75*
G02*
X114700000Y-82152000I250000J0D01*
G01*
G37*
G04 #@! TD*
D10*
G04 #@! TO.C,D1*
X124920000Y-85090000D03*
X121620000Y-85090000D03*
G04 #@! TD*
D11*
G04 #@! TO.C,D2*
X143290000Y-85090000D03*
X141190000Y-85090000D03*
G04 #@! TD*
G04 #@! TO.C,R1*
G36*
G01*
X95167000Y-105177000D02*
X95167000Y-104627000D01*
G75*
G02*
X95367000Y-104427000I200000J0D01*
G01*
X95767000Y-104427000D01*
G75*
G02*
X95967000Y-104627000I0J-200000D01*
G01*
X95967000Y-105177000D01*
G75*
G02*
X95767000Y-105377000I-200000J0D01*
G01*
X95367000Y-105377000D01*
G75*
G02*
X95167000Y-105177000I0J200000D01*
G01*
G37*
G36*
G01*
X93517000Y-105177000D02*
X93517000Y-104627000D01*
G75*
G02*
X93717000Y-104427000I200000J0D01*
G01*
X94117000Y-104427000D01*
G75*
G02*
X94317000Y-104627000I0J-200000D01*
G01*
X94317000Y-105177000D01*
G75*
G02*
X94117000Y-105377000I-200000J0D01*
G01*
X93717000Y-105377000D01*
G75*
G02*
X93517000Y-105177000I0J200000D01*
G01*
G37*
G04 #@! TD*
G04 #@! TO.C,R2*
G36*
G01*
X97327000Y-97811000D02*
X97327000Y-97261000D01*
G75*
G02*
X97527000Y-97061000I200000J0D01*
G01*
X97927000Y-97061000D01*
G75*
G02*
X98127000Y-97261000I0J-200000D01*
G01*
X98127000Y-97811000D01*
G75*
G02*
X97927000Y-98011000I-200000J0D01*
G01*
X97527000Y-98011000D01*
G75*
G02*
X97327000Y-97811000I0J200000D01*
G01*
G37*
G36*
G01*
X98977000Y-97811000D02*
X98977000Y-97261000D01*
G75*
G02*
X99177000Y-97061000I200000J0D01*
G01*
X99577000Y-97061000D01*
G75*
G02*
X99777000Y-97261000I0J-200000D01*
G01*
X99777000Y-97811000D01*
G75*
G02*
X99577000Y-98011000I-200000J0D01*
G01*
X99177000Y-98011000D01*
G75*
G02*
X98977000Y-97811000I0J200000D01*
G01*
G37*
G04 #@! TD*
G04 #@! TO.C,R3*
G36*
G01*
X98127000Y-93959000D02*
X98127000Y-94509000D01*
G75*
G02*
X97927000Y-94709000I-200000J0D01*
G01*
X97527000Y-94709000D01*
G75*
G02*
X97327000Y-94509000I0J200000D01*
G01*
X97327000Y-93959000D01*
G75*
G02*
X97527000Y-93759000I200000J0D01*
G01*
X97927000Y-93759000D01*
G75*
G02*
X98127000Y-93959000I0J-200000D01*
G01*
G37*
G36*
G01*
X99777000Y-93959000D02*
X99777000Y-94509000D01*
G75*
G02*
X99577000Y-94709000I-200000J0D01*
G01*
X99177000Y-94709000D01*
G75*
G02*
X98977000Y-94509000I0J200000D01*
G01*
X98977000Y-93959000D01*
G75*
G02*
X99177000Y-93759000I200000J0D01*
G01*
X99577000Y-93759000D01*
G75*
G02*
X99777000Y-93959000I0J-200000D01*
G01*
G37*
G04 #@! TD*
G04 #@! TO.C,R4*
G36*
G01*
X116541000Y-105389000D02*
X116541000Y-105939000D01*
G75*
G02*
X116341000Y-106139000I-200000J0D01*
G01*
X115941000Y-106139000D01*
G75*
G02*
X115741000Y-105939000I0J200000D01*
G01*
X115741000Y-105389000D01*
G75*
G02*
X115941000Y-105189000I200000J0D01*
G01*
X116341000Y-105189000D01*
G75*
G02*
X116541000Y-105389000I0J-200000D01*
G01*
G37*
G36*
G01*
X114891000Y-105389000D02*
X114891000Y-105939000D01*
G75*
G02*
X114691000Y-106139000I-200000J0D01*
G01*
X114291000Y-106139000D01*
G75*
G02*
X114091000Y-105939000I0J200000D01*
G01*
X114091000Y-105389000D01*
G75*
G02*
X114291000Y-105189000I200000J0D01*
G01*
X114691000Y-105189000D01*
G75*
G02*
X114891000Y-105389000I0J-200000D01*
G01*
G37*
G04 #@! TD*
G04 #@! TO.C,R5*
G36*
G01*
X120629000Y-107867000D02*
X121179000Y-107867000D01*
G75*
G02*
X121379000Y-108067000I0J-200000D01*
G01*
X121379000Y-108467000D01*
G75*
G02*
X121179000Y-108667000I-200000J0D01*
G01*
X120629000Y-108667000D01*
G75*
G02*
X120429000Y-108467000I0J200000D01*
G01*
X120429000Y-108067000D01*
G75*
G02*
X120629000Y-107867000I200000J0D01*
G01*
G37*
G36*
G01*
X120629000Y-106217000D02*
X121179000Y-106217000D01*
G75*
G02*
X121379000Y-106417000I0J-200000D01*
G01*
X121379000Y-106817000D01*
G75*
G02*
X121179000Y-107017000I-200000J0D01*
G01*
X120629000Y-107017000D01*
G75*
G02*
X120429000Y-106817000I0J200000D01*
G01*
X120429000Y-106417000D01*
G75*
G02*
X120629000Y-106217000I200000J0D01*
G01*
G37*
G04 #@! TD*
G04 #@! TO.C,R6*
G36*
G01*
X122045000Y-91775000D02*
X122045000Y-91225000D01*
G75*
G02*
X122245000Y-91025000I200000J0D01*
G01*
X122645000Y-91025000D01*
G75*
G02*
X122845000Y-91225000I0J-200000D01*
G01*
X122845000Y-91775000D01*
G75*
G02*
X122645000Y-91975000I-200000J0D01*
G01*
X122245000Y-91975000D01*
G75*
G02*
X122045000Y-91775000I0J200000D01*
G01*
G37*
G36*
G01*
X123695000Y-91775000D02*
X123695000Y-91225000D01*
G75*
G02*
X123895000Y-91025000I200000J0D01*
G01*
X124295000Y-91025000D01*
G75*
G02*
X124495000Y-91225000I0J-200000D01*
G01*
X124495000Y-91775000D01*
G75*
G02*
X124295000Y-91975000I-200000J0D01*
G01*
X123895000Y-91975000D01*
G75*
G02*
X123695000Y-91775000I0J200000D01*
G01*
G37*
G04 #@! TD*
G04 #@! TO.C,R7*
G36*
G01*
X141005000Y-91775000D02*
X141005000Y-91225000D01*
G75*
G02*
X141205000Y-91025000I200000J0D01*
G01*
X141605000Y-91025000D01*
G75*
G02*
X141805000Y-91225000I0J-200000D01*
G01*
X141805000Y-91775000D01*
G75*
G02*
X141605000Y-91975000I-200000J0D01*
G01*
X141205000Y-91975000D01*
G75*
G02*
X141005000Y-91775000I0J200000D01*
G01*
G37*
G36*
G01*
X142655000Y-91775000D02*
X142655000Y-91225000D01*
G75*
G02*
X142855000Y-91025000I200000J0D01*
G01*
X143255000Y-91025000D01*
G75*
G02*
X143455000Y-91225000I0J-200000D01*
G01*
X143455000Y-91775000D01*
G75*
G02*
X143255000Y-91975000I-200000J0D01*
G01*
X142855000Y-91975000D01*
G75*
G02*
X142655000Y-91775000I0J200000D01*
G01*
G37*
G04 #@! TD*
G04 #@! TO.C,R8*
G36*
G01*
X126663000Y-110003000D02*
X126663000Y-109453000D01*
G75*
G02*
X126863000Y-109253000I200000J0D01*
G01*
X127263000Y-109253000D01*
G75*
G02*
X127463000Y-109453000I0J-200000D01*
G01*
X127463000Y-110003000D01*
G75*
G02*
X127263000Y-110203000I-200000J0D01*
G01*
X126863000Y-110203000D01*
G75*
G02*
X126663000Y-110003000I0J200000D01*
G01*
G37*
G36*
G01*
X125013000Y-110003000D02*
X125013000Y-109453000D01*
G75*
G02*
X125213000Y-109253000I200000J0D01*
G01*
X125613000Y-109253000D01*
G75*
G02*
X125813000Y-109453000I0J-200000D01*
G01*
X125813000Y-110003000D01*
G75*
G02*
X125613000Y-110203000I-200000J0D01*
G01*
X125213000Y-110203000D01*
G75*
G02*
X125013000Y-110003000I0J200000D01*
G01*
G37*
G04 #@! TD*
G04 #@! TO.C,R9*
G36*
G01*
X140229000Y-110191000D02*
X139679000Y-110191000D01*
G75*
G02*
X139479000Y-109991000I0J200000D01*
G01*
X139479000Y-109591000D01*
G75*
G02*
X139679000Y-109391000I200000J0D01*
G01*
X140229000Y-109391000D01*
G75*
G02*
X140429000Y-109591000I0J-200000D01*
G01*
X140429000Y-109991000D01*
G75*
G02*
X140229000Y-110191000I-200000J0D01*
G01*
G37*
G36*
G01*
X140229000Y-108541000D02*
X139679000Y-108541000D01*
G75*
G02*
X139479000Y-108341000I0J200000D01*
G01*
X139479000Y-107941000D01*
G75*
G02*
X139679000Y-107741000I200000J0D01*
G01*
X140229000Y-107741000D01*
G75*
G02*
X140429000Y-107941000I0J-200000D01*
G01*
X140429000Y-108341000D01*
G75*
G02*
X140229000Y-108541000I-200000J0D01*
G01*
G37*
G04 #@! TD*
G04 #@! TO.C,R10*
G36*
G01*
X150675000Y-102383000D02*
X150675000Y-101833000D01*
G75*
G02*
X150875000Y-101633000I200000J0D01*
G01*
X151275000Y-101633000D01*
G75*
G02*
X151475000Y-101833000I0J-200000D01*
G01*
X151475000Y-102383000D01*
G75*
G02*
X151275000Y-102583000I-200000J0D01*
G01*
X150875000Y-102583000D01*
G75*
G02*
X150675000Y-102383000I0J200000D01*
G01*
G37*
G36*
G01*
X149025000Y-102383000D02*
X149025000Y-101833000D01*
G75*
G02*
X149225000Y-101633000I200000J0D01*
G01*
X149625000Y-101633000D01*
G75*
G02*
X149825000Y-101833000I0J-200000D01*
G01*
X149825000Y-102383000D01*
G75*
G02*
X149625000Y-102583000I-200000J0D01*
G01*
X149225000Y-102583000D01*
G75*
G02*
X149025000Y-102383000I0J200000D01*
G01*
G37*
G04 #@! TD*
G04 #@! TO.C,R11*
G36*
G01*
X163140000Y-92223000D02*
X163140000Y-91673000D01*
G75*
G02*
X163340000Y-91473000I200000J0D01*
G01*
X163740000Y-91473000D01*
G75*
G02*
X163940000Y-91673000I0J-200000D01*
G01*
X163940000Y-92223000D01*
G75*
G02*
X163740000Y-92423000I-200000J0D01*
G01*
X163340000Y-92423000D01*
G75*
G02*
X163140000Y-92223000I0J200000D01*
G01*
G37*
G36*
G01*
X161490000Y-92223000D02*
X161490000Y-91673000D01*
G75*
G02*
X161690000Y-91473000I200000J0D01*
G01*
X162090000Y-91473000D01*
G75*
G02*
X162290000Y-91673000I0J-200000D01*
G01*
X162290000Y-92223000D01*
G75*
G02*
X162090000Y-92423000I-200000J0D01*
G01*
X161690000Y-92423000D01*
G75*
G02*
X161490000Y-92223000I0J200000D01*
G01*
G37*
G04 #@! TD*
G04 #@! TO.C,R12*
G36*
G01*
X154223000Y-102383000D02*
X154223000Y-101833000D01*
G75*
G02*
X154423000Y-101633000I200000J0D01*
G01*
X154823000Y-101633000D01*
G75*
G02*
X155023000Y-101833000I0J-200000D01*
G01*
X155023000Y-102383000D01*
G75*
G02*
X154823000Y-102583000I-200000J0D01*
G01*
X154423000Y-102583000D01*
G75*
G02*
X154223000Y-102383000I0J200000D01*
G01*
G37*
G36*
G01*
X155873000Y-102383000D02*
X155873000Y-101833000D01*
G75*
G02*
X156073000Y-101633000I200000J0D01*
G01*
X156473000Y-101633000D01*
G75*
G02*
X156673000Y-101833000I0J-200000D01*
G01*
X156673000Y-102383000D01*
G75*
G02*
X156473000Y-102583000I-200000J0D01*
G01*
X156073000Y-102583000D01*
G75*
G02*
X155873000Y-102383000I0J200000D01*
G01*
G37*
G04 #@! TD*
G04 #@! TO.C,R13*
G36*
G01*
X170201000Y-107017000D02*
X169651000Y-107017000D01*
G75*
G02*
X169451000Y-106817000I0J200000D01*
G01*
X169451000Y-106417000D01*
G75*
G02*
X169651000Y-106217000I200000J0D01*
G01*
X170201000Y-106217000D01*
G75*
G02*
X170401000Y-106417000I0J-200000D01*
G01*
X170401000Y-106817000D01*
G75*
G02*
X170201000Y-107017000I-200000J0D01*
G01*
G37*
G36*
G01*
X170201000Y-108667000D02*
X169651000Y-108667000D01*
G75*
G02*
X169451000Y-108467000I0J200000D01*
G01*
X169451000Y-108067000D01*
G75*
G02*
X169651000Y-107867000I200000J0D01*
G01*
X170201000Y-107867000D01*
G75*
G02*
X170401000Y-108067000I0J-200000D01*
G01*
X170401000Y-108467000D01*
G75*
G02*
X170201000Y-108667000I-200000J0D01*
G01*
G37*
G04 #@! TD*
G04 #@! TO.C,R14*
G36*
G01*
X170201000Y-102825000D02*
X169651000Y-102825000D01*
G75*
G02*
X169451000Y-102625000I0J200000D01*
G01*
X169451000Y-102225000D01*
G75*
G02*
X169651000Y-102025000I200000J0D01*
G01*
X170201000Y-102025000D01*
G75*
G02*
X170401000Y-102225000I0J-200000D01*
G01*
X170401000Y-102625000D01*
G75*
G02*
X170201000Y-102825000I-200000J0D01*
G01*
G37*
G36*
G01*
X170201000Y-101175000D02*
X169651000Y-101175000D01*
G75*
G02*
X169451000Y-100975000I0J200000D01*
G01*
X169451000Y-100575000D01*
G75*
G02*
X169651000Y-100375000I200000J0D01*
G01*
X170201000Y-100375000D01*
G75*
G02*
X170401000Y-100575000I0J-200000D01*
G01*
X170401000Y-100975000D01*
G75*
G02*
X170201000Y-101175000I-200000J0D01*
G01*
G37*
G04 #@! TD*
G04 #@! TO.C,R15*
G36*
G01*
X161490000Y-81047000D02*
X161490000Y-80497000D01*
G75*
G02*
X161690000Y-80297000I200000J0D01*
G01*
X162090000Y-80297000D01*
G75*
G02*
X162290000Y-80497000I0J-200000D01*
G01*
X162290000Y-81047000D01*
G75*
G02*
X162090000Y-81247000I-200000J0D01*
G01*
X161690000Y-81247000D01*
G75*
G02*
X161490000Y-81047000I0J200000D01*
G01*
G37*
G36*
G01*
X163140000Y-81047000D02*
X163140000Y-80497000D01*
G75*
G02*
X163340000Y-80297000I200000J0D01*
G01*
X163740000Y-80297000D01*
G75*
G02*
X163940000Y-80497000I0J-200000D01*
G01*
X163940000Y-81047000D01*
G75*
G02*
X163740000Y-81247000I-200000J0D01*
G01*
X163340000Y-81247000D01*
G75*
G02*
X163140000Y-81047000I0J200000D01*
G01*
G37*
G04 #@! TD*
G04 #@! TO.C,R16*
G36*
G01*
X104095000Y-90657000D02*
X104095000Y-91207000D01*
G75*
G02*
X103895000Y-91407000I-200000J0D01*
G01*
X103495000Y-91407000D01*
G75*
G02*
X103295000Y-91207000I0J200000D01*
G01*
X103295000Y-90657000D01*
G75*
G02*
X103495000Y-90457000I200000J0D01*
G01*
X103895000Y-90457000D01*
G75*
G02*
X104095000Y-90657000I0J-200000D01*
G01*
G37*
G36*
G01*
X102445000Y-90657000D02*
X102445000Y-91207000D01*
G75*
G02*
X102245000Y-91407000I-200000J0D01*
G01*
X101845000Y-91407000D01*
G75*
G02*
X101645000Y-91207000I0J200000D01*
G01*
X101645000Y-90657000D01*
G75*
G02*
X101845000Y-90457000I200000J0D01*
G01*
X102245000Y-90457000D01*
G75*
G02*
X102445000Y-90657000I0J-200000D01*
G01*
G37*
G04 #@! TD*
G04 #@! TO.C,R17*
G36*
G01*
X98977000Y-91207000D02*
X98977000Y-90657000D01*
G75*
G02*
X99177000Y-90457000I200000J0D01*
G01*
X99577000Y-90457000D01*
G75*
G02*
X99777000Y-90657000I0J-200000D01*
G01*
X99777000Y-91207000D01*
G75*
G02*
X99577000Y-91407000I-200000J0D01*
G01*
X99177000Y-91407000D01*
G75*
G02*
X98977000Y-91207000I0J200000D01*
G01*
G37*
G36*
G01*
X97327000Y-91207000D02*
X97327000Y-90657000D01*
G75*
G02*
X97527000Y-90457000I200000J0D01*
G01*
X97927000Y-90457000D01*
G75*
G02*
X98127000Y-90657000I0J-200000D01*
G01*
X98127000Y-91207000D01*
G75*
G02*
X97927000Y-91407000I-200000J0D01*
G01*
X97527000Y-91407000D01*
G75*
G02*
X97327000Y-91207000I0J200000D01*
G01*
G37*
G04 #@! TD*
G04 #@! TO.C,R18*
G36*
G01*
X103295000Y-94509000D02*
X103295000Y-93959000D01*
G75*
G02*
X103495000Y-93759000I200000J0D01*
G01*
X103895000Y-93759000D01*
G75*
G02*
X104095000Y-93959000I0J-200000D01*
G01*
X104095000Y-94509000D01*
G75*
G02*
X103895000Y-94709000I-200000J0D01*
G01*
X103495000Y-94709000D01*
G75*
G02*
X103295000Y-94509000I0J200000D01*
G01*
G37*
G36*
G01*
X101645000Y-94509000D02*
X101645000Y-93959000D01*
G75*
G02*
X101845000Y-93759000I200000J0D01*
G01*
X102245000Y-93759000D01*
G75*
G02*
X102445000Y-93959000I0J-200000D01*
G01*
X102445000Y-94509000D01*
G75*
G02*
X102245000Y-94709000I-200000J0D01*
G01*
X101845000Y-94709000D01*
G75*
G02*
X101645000Y-94509000I0J200000D01*
G01*
G37*
G04 #@! TD*
G04 #@! TO.C,R19*
G36*
G01*
X154223000Y-107209000D02*
X154223000Y-106659000D01*
G75*
G02*
X154423000Y-106459000I200000J0D01*
G01*
X154823000Y-106459000D01*
G75*
G02*
X155023000Y-106659000I0J-200000D01*
G01*
X155023000Y-107209000D01*
G75*
G02*
X154823000Y-107409000I-200000J0D01*
G01*
X154423000Y-107409000D01*
G75*
G02*
X154223000Y-107209000I0J200000D01*
G01*
G37*
G36*
G01*
X155873000Y-107209000D02*
X155873000Y-106659000D01*
G75*
G02*
X156073000Y-106459000I200000J0D01*
G01*
X156473000Y-106459000D01*
G75*
G02*
X156673000Y-106659000I0J-200000D01*
G01*
X156673000Y-107209000D01*
G75*
G02*
X156473000Y-107409000I-200000J0D01*
G01*
X156073000Y-107409000D01*
G75*
G02*
X155873000Y-107209000I0J200000D01*
G01*
G37*
G04 #@! TD*
G04 #@! TO.C,R20*
G36*
G01*
X142665000Y-103907000D02*
X142665000Y-103357000D01*
G75*
G02*
X142865000Y-103157000I200000J0D01*
G01*
X143265000Y-103157000D01*
G75*
G02*
X143465000Y-103357000I0J-200000D01*
G01*
X143465000Y-103907000D01*
G75*
G02*
X143265000Y-104107000I-200000J0D01*
G01*
X142865000Y-104107000D01*
G75*
G02*
X142665000Y-103907000I0J200000D01*
G01*
G37*
G36*
G01*
X141015000Y-103907000D02*
X141015000Y-103357000D01*
G75*
G02*
X141215000Y-103157000I200000J0D01*
G01*
X141615000Y-103157000D01*
G75*
G02*
X141815000Y-103357000I0J-200000D01*
G01*
X141815000Y-103907000D01*
G75*
G02*
X141615000Y-104107000I-200000J0D01*
G01*
X141215000Y-104107000D01*
G75*
G02*
X141015000Y-103907000I0J200000D01*
G01*
G37*
G04 #@! TD*
G04 #@! TO.C,R21*
G36*
G01*
X157181000Y-85323000D02*
X157181000Y-85873000D01*
G75*
G02*
X156981000Y-86073000I-200000J0D01*
G01*
X156581000Y-86073000D01*
G75*
G02*
X156381000Y-85873000I0J200000D01*
G01*
X156381000Y-85323000D01*
G75*
G02*
X156581000Y-85123000I200000J0D01*
G01*
X156981000Y-85123000D01*
G75*
G02*
X157181000Y-85323000I0J-200000D01*
G01*
G37*
G36*
G01*
X155531000Y-85323000D02*
X155531000Y-85873000D01*
G75*
G02*
X155331000Y-86073000I-200000J0D01*
G01*
X154931000Y-86073000D01*
G75*
G02*
X154731000Y-85873000I0J200000D01*
G01*
X154731000Y-85323000D01*
G75*
G02*
X154931000Y-85123000I200000J0D01*
G01*
X155331000Y-85123000D01*
G75*
G02*
X155531000Y-85323000I0J-200000D01*
G01*
G37*
G04 #@! TD*
G04 #@! TO.C,R22*
G36*
G01*
X142655000Y-100859000D02*
X142655000Y-100309000D01*
G75*
G02*
X142855000Y-100109000I200000J0D01*
G01*
X143255000Y-100109000D01*
G75*
G02*
X143455000Y-100309000I0J-200000D01*
G01*
X143455000Y-100859000D01*
G75*
G02*
X143255000Y-101059000I-200000J0D01*
G01*
X142855000Y-101059000D01*
G75*
G02*
X142655000Y-100859000I0J200000D01*
G01*
G37*
G36*
G01*
X141005000Y-100859000D02*
X141005000Y-100309000D01*
G75*
G02*
X141205000Y-100109000I200000J0D01*
G01*
X141605000Y-100109000D01*
G75*
G02*
X141805000Y-100309000I0J-200000D01*
G01*
X141805000Y-100859000D01*
G75*
G02*
X141605000Y-101059000I-200000J0D01*
G01*
X141205000Y-101059000D01*
G75*
G02*
X141005000Y-100859000I0J200000D01*
G01*
G37*
G04 #@! TD*
G04 #@! TO.C,R23*
G36*
G01*
X149025000Y-79269000D02*
X149025000Y-78719000D01*
G75*
G02*
X149225000Y-78519000I200000J0D01*
G01*
X149625000Y-78519000D01*
G75*
G02*
X149825000Y-78719000I0J-200000D01*
G01*
X149825000Y-79269000D01*
G75*
G02*
X149625000Y-79469000I-200000J0D01*
G01*
X149225000Y-79469000D01*
G75*
G02*
X149025000Y-79269000I0J200000D01*
G01*
G37*
G36*
G01*
X150675000Y-79269000D02*
X150675000Y-78719000D01*
G75*
G02*
X150875000Y-78519000I200000J0D01*
G01*
X151275000Y-78519000D01*
G75*
G02*
X151475000Y-78719000I0J-200000D01*
G01*
X151475000Y-79269000D01*
G75*
G02*
X151275000Y-79469000I-200000J0D01*
G01*
X150875000Y-79469000D01*
G75*
G02*
X150675000Y-79269000I0J200000D01*
G01*
G37*
G04 #@! TD*
G04 #@! TO.C,R24*
G36*
G01*
X107613000Y-94509000D02*
X107613000Y-93959000D01*
G75*
G02*
X107813000Y-93759000I200000J0D01*
G01*
X108213000Y-93759000D01*
G75*
G02*
X108413000Y-93959000I0J-200000D01*
G01*
X108413000Y-94509000D01*
G75*
G02*
X108213000Y-94709000I-200000J0D01*
G01*
X107813000Y-94709000D01*
G75*
G02*
X107613000Y-94509000I0J200000D01*
G01*
G37*
G36*
G01*
X105963000Y-94509000D02*
X105963000Y-93959000D01*
G75*
G02*
X106163000Y-93759000I200000J0D01*
G01*
X106563000Y-93759000D01*
G75*
G02*
X106763000Y-93959000I0J-200000D01*
G01*
X106763000Y-94509000D01*
G75*
G02*
X106563000Y-94709000I-200000J0D01*
G01*
X106163000Y-94709000D01*
G75*
G02*
X105963000Y-94509000I0J200000D01*
G01*
G37*
G04 #@! TD*
G04 #@! TO.C,R25*
G36*
G01*
X109391000Y-100859000D02*
X109391000Y-100309000D01*
G75*
G02*
X109591000Y-100109000I200000J0D01*
G01*
X109991000Y-100109000D01*
G75*
G02*
X110191000Y-100309000I0J-200000D01*
G01*
X110191000Y-100859000D01*
G75*
G02*
X109991000Y-101059000I-200000J0D01*
G01*
X109591000Y-101059000D01*
G75*
G02*
X109391000Y-100859000I0J200000D01*
G01*
G37*
G36*
G01*
X107741000Y-100859000D02*
X107741000Y-100309000D01*
G75*
G02*
X107941000Y-100109000I200000J0D01*
G01*
X108341000Y-100109000D01*
G75*
G02*
X108541000Y-100309000I0J-200000D01*
G01*
X108541000Y-100859000D01*
G75*
G02*
X108341000Y-101059000I-200000J0D01*
G01*
X107941000Y-101059000D01*
G75*
G02*
X107741000Y-100859000I0J200000D01*
G01*
G37*
G04 #@! TD*
G04 #@! TO.C,R26*
G36*
G01*
X107741000Y-104923000D02*
X107741000Y-104373000D01*
G75*
G02*
X107941000Y-104173000I200000J0D01*
G01*
X108341000Y-104173000D01*
G75*
G02*
X108541000Y-104373000I0J-200000D01*
G01*
X108541000Y-104923000D01*
G75*
G02*
X108341000Y-105123000I-200000J0D01*
G01*
X107941000Y-105123000D01*
G75*
G02*
X107741000Y-104923000I0J200000D01*
G01*
G37*
G36*
G01*
X109391000Y-104923000D02*
X109391000Y-104373000D01*
G75*
G02*
X109591000Y-104173000I200000J0D01*
G01*
X109991000Y-104173000D01*
G75*
G02*
X110191000Y-104373000I0J-200000D01*
G01*
X110191000Y-104923000D01*
G75*
G02*
X109991000Y-105123000I-200000J0D01*
G01*
X109591000Y-105123000D01*
G75*
G02*
X109391000Y-104923000I0J200000D01*
G01*
G37*
G04 #@! TD*
G04 #@! TO.C,R27*
G36*
G01*
X105963000Y-91207000D02*
X105963000Y-90657000D01*
G75*
G02*
X106163000Y-90457000I200000J0D01*
G01*
X106563000Y-90457000D01*
G75*
G02*
X106763000Y-90657000I0J-200000D01*
G01*
X106763000Y-91207000D01*
G75*
G02*
X106563000Y-91407000I-200000J0D01*
G01*
X106163000Y-91407000D01*
G75*
G02*
X105963000Y-91207000I0J200000D01*
G01*
G37*
G36*
G01*
X107613000Y-91207000D02*
X107613000Y-90657000D01*
G75*
G02*
X107813000Y-90457000I200000J0D01*
G01*
X108213000Y-90457000D01*
G75*
G02*
X108413000Y-90657000I0J-200000D01*
G01*
X108413000Y-91207000D01*
G75*
G02*
X108213000Y-91407000I-200000J0D01*
G01*
X107813000Y-91407000D01*
G75*
G02*
X107613000Y-91207000I0J200000D01*
G01*
G37*
G04 #@! TD*
G04 #@! TO.C,R28*
G36*
G01*
X144759000Y-109391000D02*
X145309000Y-109391000D01*
G75*
G02*
X145509000Y-109591000I0J-200000D01*
G01*
X145509000Y-109991000D01*
G75*
G02*
X145309000Y-110191000I-200000J0D01*
G01*
X144759000Y-110191000D01*
G75*
G02*
X144559000Y-109991000I0J200000D01*
G01*
X144559000Y-109591000D01*
G75*
G02*
X144759000Y-109391000I200000J0D01*
G01*
G37*
G36*
G01*
X144759000Y-107741000D02*
X145309000Y-107741000D01*
G75*
G02*
X145509000Y-107941000I0J-200000D01*
G01*
X145509000Y-108341000D01*
G75*
G02*
X145309000Y-108541000I-200000J0D01*
G01*
X144759000Y-108541000D01*
G75*
G02*
X144559000Y-108341000I0J200000D01*
G01*
X144559000Y-107941000D01*
G75*
G02*
X144759000Y-107741000I200000J0D01*
G01*
G37*
G04 #@! TD*
G04 #@! TO.C,U1*
G36*
G01*
X99265000Y-100941000D02*
X99265000Y-100641000D01*
G75*
G02*
X99415000Y-100491000I150000J0D01*
G01*
X101065000Y-100491000D01*
G75*
G02*
X101215000Y-100641000I0J-150000D01*
G01*
X101215000Y-100941000D01*
G75*
G02*
X101065000Y-101091000I-150000J0D01*
G01*
X99415000Y-101091000D01*
G75*
G02*
X99265000Y-100941000I0J150000D01*
G01*
G37*
G36*
G01*
X99265000Y-102211000D02*
X99265000Y-101911000D01*
G75*
G02*
X99415000Y-101761000I150000J0D01*
G01*
X101065000Y-101761000D01*
G75*
G02*
X101215000Y-101911000I0J-150000D01*
G01*
X101215000Y-102211000D01*
G75*
G02*
X101065000Y-102361000I-150000J0D01*
G01*
X99415000Y-102361000D01*
G75*
G02*
X99265000Y-102211000I0J150000D01*
G01*
G37*
G36*
G01*
X99265000Y-103481000D02*
X99265000Y-103181000D01*
G75*
G02*
X99415000Y-103031000I150000J0D01*
G01*
X101065000Y-103031000D01*
G75*
G02*
X101215000Y-103181000I0J-150000D01*
G01*
X101215000Y-103481000D01*
G75*
G02*
X101065000Y-103631000I-150000J0D01*
G01*
X99415000Y-103631000D01*
G75*
G02*
X99265000Y-103481000I0J150000D01*
G01*
G37*
G36*
G01*
X99265000Y-104751000D02*
X99265000Y-104451000D01*
G75*
G02*
X99415000Y-104301000I150000J0D01*
G01*
X101065000Y-104301000D01*
G75*
G02*
X101215000Y-104451000I0J-150000D01*
G01*
X101215000Y-104751000D01*
G75*
G02*
X101065000Y-104901000I-150000J0D01*
G01*
X99415000Y-104901000D01*
G75*
G02*
X99265000Y-104751000I0J150000D01*
G01*
G37*
G36*
G01*
X104215000Y-104751000D02*
X104215000Y-104451000D01*
G75*
G02*
X104365000Y-104301000I150000J0D01*
G01*
X106015000Y-104301000D01*
G75*
G02*
X106165000Y-104451000I0J-150000D01*
G01*
X106165000Y-104751000D01*
G75*
G02*
X106015000Y-104901000I-150000J0D01*
G01*
X104365000Y-104901000D01*
G75*
G02*
X104215000Y-104751000I0J150000D01*
G01*
G37*
G36*
G01*
X104215000Y-103481000D02*
X104215000Y-103181000D01*
G75*
G02*
X104365000Y-103031000I150000J0D01*
G01*
X106015000Y-103031000D01*
G75*
G02*
X106165000Y-103181000I0J-150000D01*
G01*
X106165000Y-103481000D01*
G75*
G02*
X106015000Y-103631000I-150000J0D01*
G01*
X104365000Y-103631000D01*
G75*
G02*
X104215000Y-103481000I0J150000D01*
G01*
G37*
G36*
G01*
X104215000Y-102211000D02*
X104215000Y-101911000D01*
G75*
G02*
X104365000Y-101761000I150000J0D01*
G01*
X106015000Y-101761000D01*
G75*
G02*
X106165000Y-101911000I0J-150000D01*
G01*
X106165000Y-102211000D01*
G75*
G02*
X106015000Y-102361000I-150000J0D01*
G01*
X104365000Y-102361000D01*
G75*
G02*
X104215000Y-102211000I0J150000D01*
G01*
G37*
G36*
G01*
X104215000Y-100941000D02*
X104215000Y-100641000D01*
G75*
G02*
X104365000Y-100491000I150000J0D01*
G01*
X106015000Y-100491000D01*
G75*
G02*
X106165000Y-100641000I0J-150000D01*
G01*
X106165000Y-100941000D01*
G75*
G02*
X106015000Y-101091000I-150000J0D01*
G01*
X104365000Y-101091000D01*
G75*
G02*
X104215000Y-100941000I0J150000D01*
G01*
G37*
G04 #@! TD*
G04 #@! TO.C,U2*
G36*
G01*
X134215000Y-105941000D02*
X134215000Y-105641000D01*
G75*
G02*
X134365000Y-105491000I150000J0D01*
G01*
X136015000Y-105491000D01*
G75*
G02*
X136165000Y-105641000I0J-150000D01*
G01*
X136165000Y-105941000D01*
G75*
G02*
X136015000Y-106091000I-150000J0D01*
G01*
X134365000Y-106091000D01*
G75*
G02*
X134215000Y-105941000I0J150000D01*
G01*
G37*
G36*
G01*
X134215000Y-107211000D02*
X134215000Y-106911000D01*
G75*
G02*
X134365000Y-106761000I150000J0D01*
G01*
X136015000Y-106761000D01*
G75*
G02*
X136165000Y-106911000I0J-150000D01*
G01*
X136165000Y-107211000D01*
G75*
G02*
X136015000Y-107361000I-150000J0D01*
G01*
X134365000Y-107361000D01*
G75*
G02*
X134215000Y-107211000I0J150000D01*
G01*
G37*
G36*
G01*
X134215000Y-108481000D02*
X134215000Y-108181000D01*
G75*
G02*
X134365000Y-108031000I150000J0D01*
G01*
X136015000Y-108031000D01*
G75*
G02*
X136165000Y-108181000I0J-150000D01*
G01*
X136165000Y-108481000D01*
G75*
G02*
X136015000Y-108631000I-150000J0D01*
G01*
X134365000Y-108631000D01*
G75*
G02*
X134215000Y-108481000I0J150000D01*
G01*
G37*
G36*
G01*
X134215000Y-109751000D02*
X134215000Y-109451000D01*
G75*
G02*
X134365000Y-109301000I150000J0D01*
G01*
X136015000Y-109301000D01*
G75*
G02*
X136165000Y-109451000I0J-150000D01*
G01*
X136165000Y-109751000D01*
G75*
G02*
X136015000Y-109901000I-150000J0D01*
G01*
X134365000Y-109901000D01*
G75*
G02*
X134215000Y-109751000I0J150000D01*
G01*
G37*
G36*
G01*
X129265000Y-109751000D02*
X129265000Y-109451000D01*
G75*
G02*
X129415000Y-109301000I150000J0D01*
G01*
X131065000Y-109301000D01*
G75*
G02*
X131215000Y-109451000I0J-150000D01*
G01*
X131215000Y-109751000D01*
G75*
G02*
X131065000Y-109901000I-150000J0D01*
G01*
X129415000Y-109901000D01*
G75*
G02*
X129265000Y-109751000I0J150000D01*
G01*
G37*
G36*
G01*
X129265000Y-108481000D02*
X129265000Y-108181000D01*
G75*
G02*
X129415000Y-108031000I150000J0D01*
G01*
X131065000Y-108031000D01*
G75*
G02*
X131215000Y-108181000I0J-150000D01*
G01*
X131215000Y-108481000D01*
G75*
G02*
X131065000Y-108631000I-150000J0D01*
G01*
X129415000Y-108631000D01*
G75*
G02*
X129265000Y-108481000I0J150000D01*
G01*
G37*
G36*
G01*
X129265000Y-107211000D02*
X129265000Y-106911000D01*
G75*
G02*
X129415000Y-106761000I150000J0D01*
G01*
X131065000Y-106761000D01*
G75*
G02*
X131215000Y-106911000I0J-150000D01*
G01*
X131215000Y-107211000D01*
G75*
G02*
X131065000Y-107361000I-150000J0D01*
G01*
X129415000Y-107361000D01*
G75*
G02*
X129265000Y-107211000I0J150000D01*
G01*
G37*
G36*
G01*
X129265000Y-105941000D02*
X129265000Y-105641000D01*
G75*
G02*
X129415000Y-105491000I150000J0D01*
G01*
X131065000Y-105491000D01*
G75*
G02*
X131215000Y-105641000I0J-150000D01*
G01*
X131215000Y-105941000D01*
G75*
G02*
X131065000Y-106091000I-150000J0D01*
G01*
X129415000Y-106091000D01*
G75*
G02*
X129265000Y-105941000I0J150000D01*
G01*
G37*
G04 #@! TD*
G04 #@! TO.C,U3*
G36*
G01*
X159265000Y-100941000D02*
X159265000Y-100641000D01*
G75*
G02*
X159415000Y-100491000I150000J0D01*
G01*
X161065000Y-100491000D01*
G75*
G02*
X161215000Y-100641000I0J-150000D01*
G01*
X161215000Y-100941000D01*
G75*
G02*
X161065000Y-101091000I-150000J0D01*
G01*
X159415000Y-101091000D01*
G75*
G02*
X159265000Y-100941000I0J150000D01*
G01*
G37*
G36*
G01*
X159265000Y-102211000D02*
X159265000Y-101911000D01*
G75*
G02*
X159415000Y-101761000I150000J0D01*
G01*
X161065000Y-101761000D01*
G75*
G02*
X161215000Y-101911000I0J-150000D01*
G01*
X161215000Y-102211000D01*
G75*
G02*
X161065000Y-102361000I-150000J0D01*
G01*
X159415000Y-102361000D01*
G75*
G02*
X159265000Y-102211000I0J150000D01*
G01*
G37*
G36*
G01*
X159265000Y-103481000D02*
X159265000Y-103181000D01*
G75*
G02*
X159415000Y-103031000I150000J0D01*
G01*
X161065000Y-103031000D01*
G75*
G02*
X161215000Y-103181000I0J-150000D01*
G01*
X161215000Y-103481000D01*
G75*
G02*
X161065000Y-103631000I-150000J0D01*
G01*
X159415000Y-103631000D01*
G75*
G02*
X159265000Y-103481000I0J150000D01*
G01*
G37*
G36*
G01*
X159265000Y-104751000D02*
X159265000Y-104451000D01*
G75*
G02*
X159415000Y-104301000I150000J0D01*
G01*
X161065000Y-104301000D01*
G75*
G02*
X161215000Y-104451000I0J-150000D01*
G01*
X161215000Y-104751000D01*
G75*
G02*
X161065000Y-104901000I-150000J0D01*
G01*
X159415000Y-104901000D01*
G75*
G02*
X159265000Y-104751000I0J150000D01*
G01*
G37*
G36*
G01*
X164215000Y-104751000D02*
X164215000Y-104451000D01*
G75*
G02*
X164365000Y-104301000I150000J0D01*
G01*
X166015000Y-104301000D01*
G75*
G02*
X166165000Y-104451000I0J-150000D01*
G01*
X166165000Y-104751000D01*
G75*
G02*
X166015000Y-104901000I-150000J0D01*
G01*
X164365000Y-104901000D01*
G75*
G02*
X164215000Y-104751000I0J150000D01*
G01*
G37*
G36*
G01*
X164215000Y-103481000D02*
X164215000Y-103181000D01*
G75*
G02*
X164365000Y-103031000I150000J0D01*
G01*
X166015000Y-103031000D01*
G75*
G02*
X166165000Y-103181000I0J-150000D01*
G01*
X166165000Y-103481000D01*
G75*
G02*
X166015000Y-103631000I-150000J0D01*
G01*
X164365000Y-103631000D01*
G75*
G02*
X164215000Y-103481000I0J150000D01*
G01*
G37*
G36*
G01*
X164215000Y-102211000D02*
X164215000Y-101911000D01*
G75*
G02*
X164365000Y-101761000I150000J0D01*
G01*
X166015000Y-101761000D01*
G75*
G02*
X166165000Y-101911000I0J-150000D01*
G01*
X166165000Y-102211000D01*
G75*
G02*
X166015000Y-102361000I-150000J0D01*
G01*
X164365000Y-102361000D01*
G75*
G02*
X164215000Y-102211000I0J150000D01*
G01*
G37*
G36*
G01*
X164215000Y-100941000D02*
X164215000Y-100641000D01*
G75*
G02*
X164365000Y-100491000I150000J0D01*
G01*
X166015000Y-100491000D01*
G75*
G02*
X166165000Y-100641000I0J-150000D01*
G01*
X166165000Y-100941000D01*
G75*
G02*
X166015000Y-101091000I-150000J0D01*
G01*
X164365000Y-101091000D01*
G75*
G02*
X164215000Y-100941000I0J150000D01*
G01*
G37*
G04 #@! TD*
M02*
