G04 #@! TF.GenerationSoftware,KiCad,Pcbnew,(5.1.10)-1*
G04 #@! TF.CreationDate,2021-08-18T22:26:20-05:00*
G04 #@! TF.ProjectId,ConsolePedalPhaserSMT,436f6e73-6f6c-4655-9065-64616c506861,rev?*
G04 #@! TF.SameCoordinates,Original*
G04 #@! TF.FileFunction,Legend,Bot*
G04 #@! TF.FilePolarity,Positive*
%FSLAX46Y46*%
G04 Gerber Fmt 4.6, Leading zero omitted, Abs format (unit mm)*
G04 Created by KiCad (PCBNEW (5.1.10)-1) date 2021-08-18 22:26:20*
%MOMM*%
%LPD*%
G01*
G04 APERTURE LIST*
%ADD10C,0.250000*%
%ADD11C,0.010000*%
G04 APERTURE END LIST*
D10*
X149115714Y-121820714D02*
X149187142Y-121892142D01*
X149401428Y-121963571D01*
X149544285Y-121963571D01*
X149758571Y-121892142D01*
X149901428Y-121749285D01*
X149972857Y-121606428D01*
X150044285Y-121320714D01*
X150044285Y-121106428D01*
X149972857Y-120820714D01*
X149901428Y-120677857D01*
X149758571Y-120535000D01*
X149544285Y-120463571D01*
X149401428Y-120463571D01*
X149187142Y-120535000D01*
X149115714Y-120606428D01*
X148258571Y-121963571D02*
X148401428Y-121892142D01*
X148472857Y-121820714D01*
X148544285Y-121677857D01*
X148544285Y-121249285D01*
X148472857Y-121106428D01*
X148401428Y-121035000D01*
X148258571Y-120963571D01*
X148044285Y-120963571D01*
X147901428Y-121035000D01*
X147830000Y-121106428D01*
X147758571Y-121249285D01*
X147758571Y-121677857D01*
X147830000Y-121820714D01*
X147901428Y-121892142D01*
X148044285Y-121963571D01*
X148258571Y-121963571D01*
X147115714Y-120963571D02*
X147115714Y-121963571D01*
X147115714Y-121106428D02*
X147044285Y-121035000D01*
X146901428Y-120963571D01*
X146687142Y-120963571D01*
X146544285Y-121035000D01*
X146472857Y-121177857D01*
X146472857Y-121963571D01*
X145830000Y-121892142D02*
X145687142Y-121963571D01*
X145401428Y-121963571D01*
X145258571Y-121892142D01*
X145187142Y-121749285D01*
X145187142Y-121677857D01*
X145258571Y-121535000D01*
X145401428Y-121463571D01*
X145615714Y-121463571D01*
X145758571Y-121392142D01*
X145830000Y-121249285D01*
X145830000Y-121177857D01*
X145758571Y-121035000D01*
X145615714Y-120963571D01*
X145401428Y-120963571D01*
X145258571Y-121035000D01*
X144330000Y-121963571D02*
X144472857Y-121892142D01*
X144544285Y-121820714D01*
X144615714Y-121677857D01*
X144615714Y-121249285D01*
X144544285Y-121106428D01*
X144472857Y-121035000D01*
X144330000Y-120963571D01*
X144115714Y-120963571D01*
X143972857Y-121035000D01*
X143901428Y-121106428D01*
X143830000Y-121249285D01*
X143830000Y-121677857D01*
X143901428Y-121820714D01*
X143972857Y-121892142D01*
X144115714Y-121963571D01*
X144330000Y-121963571D01*
X142972857Y-121963571D02*
X143115714Y-121892142D01*
X143187142Y-121749285D01*
X143187142Y-120463571D01*
X141830000Y-121892142D02*
X141972857Y-121963571D01*
X142258571Y-121963571D01*
X142401428Y-121892142D01*
X142472857Y-121749285D01*
X142472857Y-121177857D01*
X142401428Y-121035000D01*
X142258571Y-120963571D01*
X141972857Y-120963571D01*
X141830000Y-121035000D01*
X141758571Y-121177857D01*
X141758571Y-121320714D01*
X142472857Y-121463571D01*
X139972857Y-121963571D02*
X139972857Y-120463571D01*
X139401428Y-120463571D01*
X139258571Y-120535000D01*
X139187142Y-120606428D01*
X139115714Y-120749285D01*
X139115714Y-120963571D01*
X139187142Y-121106428D01*
X139258571Y-121177857D01*
X139401428Y-121249285D01*
X139972857Y-121249285D01*
X137901428Y-121892142D02*
X138044285Y-121963571D01*
X138330000Y-121963571D01*
X138472857Y-121892142D01*
X138544285Y-121749285D01*
X138544285Y-121177857D01*
X138472857Y-121035000D01*
X138330000Y-120963571D01*
X138044285Y-120963571D01*
X137901428Y-121035000D01*
X137830000Y-121177857D01*
X137830000Y-121320714D01*
X138544285Y-121463571D01*
X136544285Y-121963571D02*
X136544285Y-120463571D01*
X136544285Y-121892142D02*
X136687142Y-121963571D01*
X136972857Y-121963571D01*
X137115714Y-121892142D01*
X137187142Y-121820714D01*
X137258571Y-121677857D01*
X137258571Y-121249285D01*
X137187142Y-121106428D01*
X137115714Y-121035000D01*
X136972857Y-120963571D01*
X136687142Y-120963571D01*
X136544285Y-121035000D01*
X135187142Y-121963571D02*
X135187142Y-121177857D01*
X135258571Y-121035000D01*
X135401428Y-120963571D01*
X135687142Y-120963571D01*
X135830000Y-121035000D01*
X135187142Y-121892142D02*
X135330000Y-121963571D01*
X135687142Y-121963571D01*
X135830000Y-121892142D01*
X135901428Y-121749285D01*
X135901428Y-121606428D01*
X135830000Y-121463571D01*
X135687142Y-121392142D01*
X135330000Y-121392142D01*
X135187142Y-121320714D01*
X134258571Y-121963571D02*
X134401428Y-121892142D01*
X134472857Y-121749285D01*
X134472857Y-120463571D01*
X132544285Y-121963571D02*
X132544285Y-120463571D01*
X131972857Y-120463571D01*
X131830000Y-120535000D01*
X131758571Y-120606428D01*
X131687142Y-120749285D01*
X131687142Y-120963571D01*
X131758571Y-121106428D01*
X131830000Y-121177857D01*
X131972857Y-121249285D01*
X132544285Y-121249285D01*
X131044285Y-121963571D02*
X131044285Y-120463571D01*
X130401428Y-121963571D02*
X130401428Y-121177857D01*
X130472857Y-121035000D01*
X130615714Y-120963571D01*
X130830000Y-120963571D01*
X130972857Y-121035000D01*
X131044285Y-121106428D01*
X129044285Y-121963571D02*
X129044285Y-121177857D01*
X129115714Y-121035000D01*
X129258571Y-120963571D01*
X129544285Y-120963571D01*
X129687142Y-121035000D01*
X129044285Y-121892142D02*
X129187142Y-121963571D01*
X129544285Y-121963571D01*
X129687142Y-121892142D01*
X129758571Y-121749285D01*
X129758571Y-121606428D01*
X129687142Y-121463571D01*
X129544285Y-121392142D01*
X129187142Y-121392142D01*
X129044285Y-121320714D01*
X128401428Y-121892142D02*
X128258571Y-121963571D01*
X127972857Y-121963571D01*
X127830000Y-121892142D01*
X127758571Y-121749285D01*
X127758571Y-121677857D01*
X127830000Y-121535000D01*
X127972857Y-121463571D01*
X128187142Y-121463571D01*
X128330000Y-121392142D01*
X128401428Y-121249285D01*
X128401428Y-121177857D01*
X128330000Y-121035000D01*
X128187142Y-120963571D01*
X127972857Y-120963571D01*
X127830000Y-121035000D01*
X126544285Y-121892142D02*
X126687142Y-121963571D01*
X126972857Y-121963571D01*
X127115714Y-121892142D01*
X127187142Y-121749285D01*
X127187142Y-121177857D01*
X127115714Y-121035000D01*
X126972857Y-120963571D01*
X126687142Y-120963571D01*
X126544285Y-121035000D01*
X126472857Y-121177857D01*
X126472857Y-121320714D01*
X127187142Y-121463571D01*
X125830000Y-121963571D02*
X125830000Y-120963571D01*
X125830000Y-121249285D02*
X125758571Y-121106428D01*
X125687142Y-121035000D01*
X125544285Y-120963571D01*
X125401428Y-120963571D01*
X123830000Y-121892142D02*
X123615714Y-121963571D01*
X123258571Y-121963571D01*
X123115714Y-121892142D01*
X123044285Y-121820714D01*
X122972857Y-121677857D01*
X122972857Y-121535000D01*
X123044285Y-121392142D01*
X123115714Y-121320714D01*
X123258571Y-121249285D01*
X123544285Y-121177857D01*
X123687142Y-121106428D01*
X123758571Y-121035000D01*
X123830000Y-120892142D01*
X123830000Y-120749285D01*
X123758571Y-120606428D01*
X123687142Y-120535000D01*
X123544285Y-120463571D01*
X123187142Y-120463571D01*
X122972857Y-120535000D01*
X122330000Y-121963571D02*
X122330000Y-120463571D01*
X121830000Y-121535000D01*
X121330000Y-120463571D01*
X121330000Y-121963571D01*
X120830000Y-120463571D02*
X119972857Y-120463571D01*
X120401428Y-121963571D02*
X120401428Y-120463571D01*
X118544285Y-120463571D02*
X118044285Y-121963571D01*
X117544285Y-120463571D01*
X116258571Y-121963571D02*
X117115714Y-121963571D01*
X116687142Y-121963571D02*
X116687142Y-120463571D01*
X116830000Y-120677857D01*
X116972857Y-120820714D01*
X117115714Y-120892142D01*
X115615714Y-121820714D02*
X115544285Y-121892142D01*
X115615714Y-121963571D01*
X115687142Y-121892142D01*
X115615714Y-121820714D01*
X115615714Y-121963571D01*
X114615714Y-120463571D02*
X114472857Y-120463571D01*
X114330000Y-120535000D01*
X114258571Y-120606428D01*
X114187142Y-120749285D01*
X114115714Y-121035000D01*
X114115714Y-121392142D01*
X114187142Y-121677857D01*
X114258571Y-121820714D01*
X114330000Y-121892142D01*
X114472857Y-121963571D01*
X114615714Y-121963571D01*
X114758571Y-121892142D01*
X114830000Y-121820714D01*
X114901428Y-121677857D01*
X114972857Y-121392142D01*
X114972857Y-121035000D01*
X114901428Y-120749285D01*
X114830000Y-120606428D01*
X114758571Y-120535000D01*
X114615714Y-120463571D01*
X146429285Y-111071761D02*
X145286428Y-111071761D01*
X145857857Y-113071761D02*
X145857857Y-111071761D01*
X144619761Y-113071761D02*
X144619761Y-111071761D01*
X143762619Y-113071761D02*
X143762619Y-112024142D01*
X143857857Y-111833666D01*
X144048333Y-111738428D01*
X144334047Y-111738428D01*
X144524523Y-111833666D01*
X144619761Y-111928904D01*
X142524523Y-113071761D02*
X142715000Y-112976523D01*
X142810238Y-112881285D01*
X142905476Y-112690809D01*
X142905476Y-112119380D01*
X142810238Y-111928904D01*
X142715000Y-111833666D01*
X142524523Y-111738428D01*
X142238809Y-111738428D01*
X142048333Y-111833666D01*
X141953095Y-111928904D01*
X141857857Y-112119380D01*
X141857857Y-112690809D01*
X141953095Y-112881285D01*
X142048333Y-112976523D01*
X142238809Y-113071761D01*
X142524523Y-113071761D01*
X141000714Y-113071761D02*
X141000714Y-111738428D01*
X141000714Y-111928904D02*
X140905476Y-111833666D01*
X140715000Y-111738428D01*
X140429285Y-111738428D01*
X140238809Y-111833666D01*
X140143571Y-112024142D01*
X140143571Y-113071761D01*
X140143571Y-112024142D02*
X140048333Y-111833666D01*
X139857857Y-111738428D01*
X139572142Y-111738428D01*
X139381666Y-111833666D01*
X139286428Y-112024142D01*
X139286428Y-113071761D01*
X137476904Y-113071761D02*
X137476904Y-112024142D01*
X137572142Y-111833666D01*
X137762619Y-111738428D01*
X138143571Y-111738428D01*
X138334047Y-111833666D01*
X137476904Y-112976523D02*
X137667380Y-113071761D01*
X138143571Y-113071761D01*
X138334047Y-112976523D01*
X138429285Y-112786047D01*
X138429285Y-112595571D01*
X138334047Y-112405095D01*
X138143571Y-112309857D01*
X137667380Y-112309857D01*
X137476904Y-112214619D01*
X136619761Y-112976523D02*
X136429285Y-113071761D01*
X136048333Y-113071761D01*
X135857857Y-112976523D01*
X135762619Y-112786047D01*
X135762619Y-112690809D01*
X135857857Y-112500333D01*
X136048333Y-112405095D01*
X136334047Y-112405095D01*
X136524523Y-112309857D01*
X136619761Y-112119380D01*
X136619761Y-112024142D01*
X136524523Y-111833666D01*
X136334047Y-111738428D01*
X136048333Y-111738428D01*
X135857857Y-111833666D01*
X133381666Y-113071761D02*
X133381666Y-111071761D01*
X132715000Y-112500333D01*
X132048333Y-111071761D01*
X132048333Y-113071761D01*
X130238809Y-112976523D02*
X130429285Y-113071761D01*
X130810238Y-113071761D01*
X131000714Y-112976523D01*
X131095952Y-112881285D01*
X131191190Y-112690809D01*
X131191190Y-112119380D01*
X131095952Y-111928904D01*
X131000714Y-111833666D01*
X130810238Y-111738428D01*
X130429285Y-111738428D01*
X130238809Y-111833666D01*
X129381666Y-113071761D02*
X129381666Y-111071761D01*
X128905476Y-111071761D01*
X128619761Y-111167000D01*
X128429285Y-111357476D01*
X128334047Y-111547952D01*
X128238809Y-111928904D01*
X128238809Y-112214619D01*
X128334047Y-112595571D01*
X128429285Y-112786047D01*
X128619761Y-112976523D01*
X128905476Y-113071761D01*
X129381666Y-113071761D01*
X127095952Y-113071761D02*
X127286428Y-112976523D01*
X127381666Y-112881285D01*
X127476904Y-112690809D01*
X127476904Y-112119380D01*
X127381666Y-111928904D01*
X127286428Y-111833666D01*
X127095952Y-111738428D01*
X126810238Y-111738428D01*
X126619761Y-111833666D01*
X126524523Y-111928904D01*
X126429285Y-112119380D01*
X126429285Y-112690809D01*
X126524523Y-112881285D01*
X126619761Y-112976523D01*
X126810238Y-113071761D01*
X127095952Y-113071761D01*
X125572142Y-111738428D02*
X125572142Y-113071761D01*
X125572142Y-111928904D02*
X125476904Y-111833666D01*
X125286428Y-111738428D01*
X125000714Y-111738428D01*
X124810238Y-111833666D01*
X124715000Y-112024142D01*
X124715000Y-113071761D01*
X122905476Y-113071761D02*
X122905476Y-112024142D01*
X123000714Y-111833666D01*
X123191190Y-111738428D01*
X123572142Y-111738428D01*
X123762619Y-111833666D01*
X122905476Y-112976523D02*
X123095952Y-113071761D01*
X123572142Y-113071761D01*
X123762619Y-112976523D01*
X123857857Y-112786047D01*
X123857857Y-112595571D01*
X123762619Y-112405095D01*
X123572142Y-112309857D01*
X123095952Y-112309857D01*
X122905476Y-112214619D01*
X121095952Y-111738428D02*
X121095952Y-113357476D01*
X121191190Y-113547952D01*
X121286428Y-113643190D01*
X121476904Y-113738428D01*
X121762619Y-113738428D01*
X121953095Y-113643190D01*
X121095952Y-112976523D02*
X121286428Y-113071761D01*
X121667380Y-113071761D01*
X121857857Y-112976523D01*
X121953095Y-112881285D01*
X122048333Y-112690809D01*
X122048333Y-112119380D01*
X121953095Y-111928904D01*
X121857857Y-111833666D01*
X121667380Y-111738428D01*
X121286428Y-111738428D01*
X121095952Y-111833666D01*
X120143571Y-113071761D02*
X120143571Y-111071761D01*
X119286428Y-113071761D02*
X119286428Y-112024142D01*
X119381666Y-111833666D01*
X119572142Y-111738428D01*
X119857857Y-111738428D01*
X120048333Y-111833666D01*
X120143571Y-111928904D01*
X145619761Y-116226523D02*
X145810238Y-116321761D01*
X146191190Y-116321761D01*
X146381666Y-116226523D01*
X146476904Y-116131285D01*
X146572142Y-115940809D01*
X146572142Y-115369380D01*
X146476904Y-115178904D01*
X146381666Y-115083666D01*
X146191190Y-114988428D01*
X145810238Y-114988428D01*
X145619761Y-115083666D01*
X144476904Y-116321761D02*
X144667380Y-116226523D01*
X144762619Y-116131285D01*
X144857857Y-115940809D01*
X144857857Y-115369380D01*
X144762619Y-115178904D01*
X144667380Y-115083666D01*
X144476904Y-114988428D01*
X144191190Y-114988428D01*
X144000714Y-115083666D01*
X143905476Y-115178904D01*
X143810238Y-115369380D01*
X143810238Y-115940809D01*
X143905476Y-116131285D01*
X144000714Y-116226523D01*
X144191190Y-116321761D01*
X144476904Y-116321761D01*
X142953095Y-114988428D02*
X142953095Y-116321761D01*
X142953095Y-115178904D02*
X142857857Y-115083666D01*
X142667380Y-114988428D01*
X142381666Y-114988428D01*
X142191190Y-115083666D01*
X142095952Y-115274142D01*
X142095952Y-116321761D01*
X141238809Y-116226523D02*
X141048333Y-116321761D01*
X140667380Y-116321761D01*
X140476904Y-116226523D01*
X140381666Y-116036047D01*
X140381666Y-115940809D01*
X140476904Y-115750333D01*
X140667380Y-115655095D01*
X140953095Y-115655095D01*
X141143571Y-115559857D01*
X141238809Y-115369380D01*
X141238809Y-115274142D01*
X141143571Y-115083666D01*
X140953095Y-114988428D01*
X140667380Y-114988428D01*
X140476904Y-115083666D01*
X139238809Y-116321761D02*
X139429285Y-116226523D01*
X139524523Y-116131285D01*
X139619761Y-115940809D01*
X139619761Y-115369380D01*
X139524523Y-115178904D01*
X139429285Y-115083666D01*
X139238809Y-114988428D01*
X138953095Y-114988428D01*
X138762619Y-115083666D01*
X138667380Y-115178904D01*
X138572142Y-115369380D01*
X138572142Y-115940809D01*
X138667380Y-116131285D01*
X138762619Y-116226523D01*
X138953095Y-116321761D01*
X139238809Y-116321761D01*
X137429285Y-116321761D02*
X137619761Y-116226523D01*
X137715000Y-116036047D01*
X137715000Y-114321761D01*
X135905476Y-116226523D02*
X136095952Y-116321761D01*
X136476904Y-116321761D01*
X136667380Y-116226523D01*
X136762619Y-116036047D01*
X136762619Y-115274142D01*
X136667380Y-115083666D01*
X136476904Y-114988428D01*
X136095952Y-114988428D01*
X135905476Y-115083666D01*
X135810238Y-115274142D01*
X135810238Y-115464619D01*
X136762619Y-115655095D01*
X134953095Y-114988428D02*
X134953095Y-116988428D01*
X134953095Y-115083666D02*
X134762619Y-114988428D01*
X134381666Y-114988428D01*
X134191190Y-115083666D01*
X134095952Y-115178904D01*
X134000714Y-115369380D01*
X134000714Y-115940809D01*
X134095952Y-116131285D01*
X134191190Y-116226523D01*
X134381666Y-116321761D01*
X134762619Y-116321761D01*
X134953095Y-116226523D01*
X132381666Y-116226523D02*
X132572142Y-116321761D01*
X132953095Y-116321761D01*
X133143571Y-116226523D01*
X133238809Y-116036047D01*
X133238809Y-115274142D01*
X133143571Y-115083666D01*
X132953095Y-114988428D01*
X132572142Y-114988428D01*
X132381666Y-115083666D01*
X132286428Y-115274142D01*
X132286428Y-115464619D01*
X133238809Y-115655095D01*
X130572142Y-116321761D02*
X130572142Y-114321761D01*
X130572142Y-116226523D02*
X130762619Y-116321761D01*
X131143571Y-116321761D01*
X131334047Y-116226523D01*
X131429285Y-116131285D01*
X131524523Y-115940809D01*
X131524523Y-115369380D01*
X131429285Y-115178904D01*
X131334047Y-115083666D01*
X131143571Y-114988428D01*
X130762619Y-114988428D01*
X130572142Y-115083666D01*
X128762619Y-116321761D02*
X128762619Y-115274142D01*
X128857857Y-115083666D01*
X129048333Y-114988428D01*
X129429285Y-114988428D01*
X129619761Y-115083666D01*
X128762619Y-116226523D02*
X128953095Y-116321761D01*
X129429285Y-116321761D01*
X129619761Y-116226523D01*
X129715000Y-116036047D01*
X129715000Y-115845571D01*
X129619761Y-115655095D01*
X129429285Y-115559857D01*
X128953095Y-115559857D01*
X128762619Y-115464619D01*
X127524523Y-116321761D02*
X127715000Y-116226523D01*
X127810238Y-116036047D01*
X127810238Y-114321761D01*
X126857857Y-116226523D02*
X126667380Y-116321761D01*
X126286428Y-116321761D01*
X126095952Y-116226523D01*
X126000714Y-116036047D01*
X126000714Y-115940809D01*
X126095952Y-115750333D01*
X126286428Y-115655095D01*
X126572142Y-115655095D01*
X126762619Y-115559857D01*
X126857857Y-115369380D01*
X126857857Y-115274142D01*
X126762619Y-115083666D01*
X126572142Y-114988428D01*
X126286428Y-114988428D01*
X126095952Y-115083666D01*
X125143571Y-116131285D02*
X125048333Y-116226523D01*
X125143571Y-116321761D01*
X125238809Y-116226523D01*
X125143571Y-116131285D01*
X125143571Y-116321761D01*
X123334047Y-116226523D02*
X123524523Y-116321761D01*
X123905476Y-116321761D01*
X124095952Y-116226523D01*
X124191190Y-116131285D01*
X124286428Y-115940809D01*
X124286428Y-115369380D01*
X124191190Y-115178904D01*
X124095952Y-115083666D01*
X123905476Y-114988428D01*
X123524523Y-114988428D01*
X123334047Y-115083666D01*
X122191190Y-116321761D02*
X122381666Y-116226523D01*
X122476904Y-116131285D01*
X122572142Y-115940809D01*
X122572142Y-115369380D01*
X122476904Y-115178904D01*
X122381666Y-115083666D01*
X122191190Y-114988428D01*
X121905476Y-114988428D01*
X121715000Y-115083666D01*
X121619761Y-115178904D01*
X121524523Y-115369380D01*
X121524523Y-115940809D01*
X121619761Y-116131285D01*
X121715000Y-116226523D01*
X121905476Y-116321761D01*
X122191190Y-116321761D01*
X120667380Y-116321761D02*
X120667380Y-114988428D01*
X120667380Y-115178904D02*
X120572142Y-115083666D01*
X120381666Y-114988428D01*
X120095952Y-114988428D01*
X119905476Y-115083666D01*
X119810238Y-115274142D01*
X119810238Y-116321761D01*
X119810238Y-115274142D02*
X119715000Y-115083666D01*
X119524523Y-114988428D01*
X119238809Y-114988428D01*
X119048333Y-115083666D01*
X118953095Y-115274142D01*
X118953095Y-116321761D01*
D11*
G04 #@! TO.C,G\u002A\u002A\u002A*
G36*
X66675000Y-119761000D02*
G01*
X198247000Y-119761000D01*
X198247000Y-95969666D01*
X162677873Y-95969666D01*
X160952476Y-95969666D01*
X152767351Y-95969666D01*
X149314397Y-95969666D01*
X142861351Y-95969666D01*
X139416799Y-95969666D01*
X139330376Y-95694500D01*
X139282275Y-95528994D01*
X139199148Y-95229899D01*
X139089218Y-94827342D01*
X138960705Y-94351454D01*
X138821830Y-93832361D01*
X138804789Y-93768333D01*
X138669009Y-93260074D01*
X138546227Y-92804605D01*
X138443683Y-92428457D01*
X138368621Y-92158161D01*
X138328280Y-92020247D01*
X138325255Y-92011500D01*
X138348589Y-91961377D01*
X138477752Y-91928014D01*
X138733485Y-91908655D01*
X139136531Y-91900545D01*
X139161775Y-91900381D01*
X140038667Y-91895095D01*
X138139207Y-91309230D01*
X137603030Y-91144910D01*
X137123809Y-91000066D01*
X136724182Y-90881375D01*
X136426786Y-90795513D01*
X136254260Y-90749156D01*
X136219897Y-90743214D01*
X136236240Y-90826657D01*
X136291897Y-91053845D01*
X136381757Y-91405122D01*
X136500710Y-91860831D01*
X136643643Y-92401315D01*
X136805447Y-93006918D01*
X136896467Y-93345198D01*
X137592885Y-95927333D01*
X135903624Y-95950292D01*
X135386578Y-95955455D01*
X134929620Y-95956466D01*
X134558895Y-95953559D01*
X134300548Y-95946969D01*
X134180727Y-95936930D01*
X134175921Y-95934809D01*
X134145612Y-95846037D01*
X134076201Y-95608605D01*
X133971721Y-95237602D01*
X133904809Y-94995911D01*
X132622494Y-94995911D01*
X132601594Y-95224848D01*
X132521363Y-95408605D01*
X132498992Y-95442172D01*
X132402546Y-95567918D01*
X132294953Y-95671177D01*
X132159386Y-95754215D01*
X131979016Y-95819299D01*
X131737018Y-95868697D01*
X131416563Y-95904675D01*
X131000826Y-95929500D01*
X130472979Y-95945438D01*
X129816195Y-95954757D01*
X129013648Y-95959723D01*
X128647622Y-95961000D01*
X127832017Y-95962112D01*
X127166614Y-95959509D01*
X126632310Y-95952494D01*
X126210002Y-95940369D01*
X125880587Y-95922437D01*
X125624960Y-95898001D01*
X125424018Y-95866364D01*
X125303289Y-95838945D01*
X124782476Y-95656012D01*
X124370888Y-95411817D01*
X124093434Y-95122534D01*
X124043735Y-95033590D01*
X122724334Y-95033590D01*
X122644732Y-95358292D01*
X122415658Y-95627012D01*
X122051708Y-95825664D01*
X121835334Y-95891521D01*
X121696039Y-95904883D01*
X121407352Y-95916595D01*
X120989208Y-95926385D01*
X120461541Y-95933984D01*
X119844287Y-95939119D01*
X119157382Y-95941520D01*
X118420759Y-95940917D01*
X118245102Y-95940319D01*
X114908870Y-95927333D01*
X113714666Y-95927333D01*
X112023776Y-95950301D01*
X111435345Y-95954242D01*
X110949548Y-95949233D01*
X110583746Y-95935860D01*
X110355304Y-95914709D01*
X110282382Y-95891550D01*
X110249445Y-95793073D01*
X110178721Y-95550256D01*
X110075557Y-95182502D01*
X109945305Y-94709219D01*
X109793312Y-94149813D01*
X109624927Y-93523688D01*
X109482576Y-92989916D01*
X109303516Y-92323379D01*
X109134293Y-91707370D01*
X108980573Y-91161466D01*
X108848023Y-90705243D01*
X108742308Y-90358280D01*
X108669096Y-90140154D01*
X108637971Y-90071806D01*
X108531172Y-90015003D01*
X108309047Y-89927260D01*
X108011052Y-89821349D01*
X107676643Y-89710042D01*
X107345276Y-89606112D01*
X107056407Y-89522330D01*
X106849492Y-89471471D01*
X106764657Y-89465393D01*
X106780194Y-89550311D01*
X106835626Y-89781117D01*
X106926413Y-90140301D01*
X107048012Y-90610353D01*
X107195880Y-91173763D01*
X107365474Y-91813020D01*
X107552253Y-92510615D01*
X107617344Y-92752333D01*
X107809523Y-93465324D01*
X107987297Y-94125516D01*
X108145971Y-94715429D01*
X108280853Y-95217583D01*
X108387247Y-95614497D01*
X108460460Y-95888691D01*
X108495798Y-96022685D01*
X108498349Y-96033166D01*
X108418484Y-96039540D01*
X108194349Y-96045145D01*
X107851009Y-96049673D01*
X107413525Y-96052817D01*
X106906962Y-96054270D01*
X106773846Y-96054333D01*
X105047358Y-96054333D01*
X104998488Y-95859622D01*
X104967816Y-95742728D01*
X104897545Y-95478017D01*
X104791880Y-95081241D01*
X104655025Y-94568152D01*
X104491185Y-93954501D01*
X104304565Y-93256041D01*
X104099370Y-92488525D01*
X103879804Y-91667703D01*
X103762705Y-91230115D01*
X103539921Y-90394192D01*
X103332256Y-89608184D01*
X103143559Y-88887132D01*
X102977681Y-88246076D01*
X102838469Y-87700057D01*
X102729775Y-87264116D01*
X102655446Y-86953293D01*
X102619332Y-86782630D01*
X102617151Y-86753960D01*
X102705547Y-86766125D01*
X102937606Y-86819598D01*
X103294115Y-86909365D01*
X103755864Y-87030413D01*
X104303641Y-87177728D01*
X104918234Y-87346296D01*
X105388922Y-87477336D01*
X106172119Y-87693757D01*
X106836577Y-87871253D01*
X107373857Y-88007768D01*
X107775524Y-88101245D01*
X108033141Y-88149631D01*
X108138270Y-88150867D01*
X108140249Y-88147702D01*
X108124612Y-88043608D01*
X108069827Y-87798717D01*
X107981491Y-87435548D01*
X107865204Y-86976617D01*
X107726562Y-86444442D01*
X107579998Y-85894333D01*
X106998832Y-83735333D01*
X106394916Y-83710457D01*
X106099886Y-83703056D01*
X105884776Y-83706719D01*
X105791932Y-83720593D01*
X105791000Y-83722616D01*
X105811829Y-83812837D01*
X105869360Y-84038048D01*
X105956162Y-84369758D01*
X106064804Y-84779476D01*
X106139777Y-85059826D01*
X106277130Y-85562314D01*
X106387614Y-85933536D01*
X106484955Y-86206621D01*
X106582878Y-86414698D01*
X106695110Y-86590897D01*
X106835376Y-86768346D01*
X106859443Y-86796837D01*
X107046031Y-87022289D01*
X107179236Y-87194096D01*
X107230333Y-87275200D01*
X107230334Y-87275297D01*
X107155275Y-87270600D01*
X106953285Y-87224221D01*
X106659148Y-87144702D01*
X106447167Y-87082925D01*
X106083406Y-86974668D01*
X105608598Y-86833981D01*
X105074189Y-86676076D01*
X104531623Y-86516166D01*
X104303928Y-86449195D01*
X102943855Y-86049461D01*
X102547094Y-84546492D01*
X102420078Y-84056149D01*
X102309906Y-83613274D01*
X102223580Y-83247464D01*
X102168105Y-82988316D01*
X102150334Y-82869641D01*
X102232327Y-82619573D01*
X102469187Y-82368607D01*
X102766742Y-82174404D01*
X102848827Y-82132553D01*
X102938288Y-82097974D01*
X103051175Y-82069975D01*
X103203533Y-82047861D01*
X103411410Y-82030941D01*
X103690854Y-82018522D01*
X104057911Y-82009909D01*
X104528629Y-82004410D01*
X105119054Y-82001332D01*
X105845235Y-81999982D01*
X106723217Y-81999667D01*
X106812628Y-81999666D01*
X110538438Y-81999666D01*
X110338223Y-82294310D01*
X110138008Y-82588953D01*
X113714666Y-95927333D01*
X114908870Y-95927333D01*
X114714220Y-95207666D01*
X114625997Y-94871725D01*
X114557640Y-94592947D01*
X114519808Y-94415580D01*
X114515619Y-94383197D01*
X114551596Y-94354587D01*
X114670325Y-94330598D01*
X114884492Y-94310719D01*
X115206777Y-94294438D01*
X115649866Y-94281244D01*
X116226440Y-94270625D01*
X116949183Y-94262070D01*
X117665500Y-94256197D01*
X120819334Y-94234000D01*
X119888140Y-93932148D01*
X118956947Y-93630297D01*
X118514492Y-91984815D01*
X118379792Y-91481229D01*
X118261396Y-91033567D01*
X118165981Y-90667483D01*
X118100221Y-90408628D01*
X118070788Y-90282655D01*
X118069853Y-90275833D01*
X118147456Y-90248770D01*
X118358046Y-90227449D01*
X118665305Y-90214697D01*
X118886112Y-90212333D01*
X119226596Y-90206332D01*
X119484686Y-90190170D01*
X119627494Y-90166605D01*
X119643127Y-90148833D01*
X119550355Y-90109685D01*
X119314737Y-90027338D01*
X118955395Y-89907994D01*
X118491448Y-89757857D01*
X117942018Y-89583127D01*
X117326225Y-89390009D01*
X116820008Y-89233030D01*
X114058318Y-88380728D01*
X113828628Y-87526177D01*
X113598937Y-86671626D01*
X113822469Y-86747283D01*
X114073035Y-86829167D01*
X114421022Y-86938888D01*
X114838471Y-87068048D01*
X115297423Y-87208248D01*
X115769918Y-87351089D01*
X116227998Y-87488172D01*
X116643702Y-87611099D01*
X116989072Y-87711471D01*
X117236148Y-87780889D01*
X117356972Y-87810954D01*
X117364324Y-87811232D01*
X117349859Y-87726695D01*
X117297265Y-87500894D01*
X117212128Y-87156158D01*
X117100032Y-86714816D01*
X116966561Y-86199196D01*
X116851778Y-85761973D01*
X116316614Y-83735333D01*
X113980091Y-83712836D01*
X113286936Y-83705407D01*
X112744396Y-83697152D01*
X112333753Y-83686738D01*
X112036289Y-83672835D01*
X111833286Y-83654110D01*
X111706026Y-83629232D01*
X111635792Y-83596871D01*
X111603865Y-83555694D01*
X111599566Y-83543503D01*
X111526131Y-83288959D01*
X111440356Y-82977864D01*
X111354042Y-82654964D01*
X111278989Y-82365007D01*
X111226995Y-82152742D01*
X111209667Y-82064868D01*
X111291689Y-82052231D01*
X111527176Y-82040401D01*
X111900262Y-82029618D01*
X112395081Y-82020120D01*
X112995764Y-82012149D01*
X113686446Y-82005942D01*
X114451259Y-82001739D01*
X115274338Y-81999780D01*
X115530719Y-81999666D01*
X119851772Y-81999666D01*
X119651486Y-82294413D01*
X119451201Y-82589159D01*
X121087767Y-88700842D01*
X121352154Y-89691087D01*
X121603304Y-90637396D01*
X121837787Y-91526496D01*
X122052171Y-92345112D01*
X122243028Y-93079972D01*
X122406926Y-93717803D01*
X122540436Y-94245330D01*
X122640128Y-94649280D01*
X122702570Y-94916380D01*
X122724333Y-95033356D01*
X122724334Y-95033590D01*
X124043735Y-95033590D01*
X124032837Y-95014087D01*
X123985907Y-94878789D01*
X123903487Y-94605102D01*
X123790614Y-94211941D01*
X123652327Y-93718224D01*
X123493664Y-93142868D01*
X123319662Y-92504789D01*
X123135360Y-91822906D01*
X122945797Y-91116133D01*
X122756010Y-90403390D01*
X122571037Y-89703592D01*
X122395916Y-89035656D01*
X122235686Y-88418500D01*
X122095384Y-87871041D01*
X121980050Y-87412195D01*
X121894720Y-87060879D01*
X121844433Y-86836011D01*
X121833683Y-86756761D01*
X121919778Y-86773053D01*
X122151302Y-86834606D01*
X122511915Y-86936629D01*
X122985276Y-87074333D01*
X123555048Y-87242930D01*
X124204890Y-87437629D01*
X124918463Y-87653641D01*
X125522080Y-87837920D01*
X126274532Y-88067600D01*
X126976042Y-88280042D01*
X127610305Y-88470429D01*
X128161014Y-88633947D01*
X128611865Y-88765779D01*
X128946550Y-88861111D01*
X129148766Y-88915125D01*
X129204190Y-88925365D01*
X129146558Y-88875092D01*
X128966783Y-88759394D01*
X128691148Y-88594353D01*
X128345938Y-88396054D01*
X128262811Y-88349308D01*
X127836046Y-88103405D01*
X127540714Y-87914922D01*
X127355542Y-87768109D01*
X127259254Y-87647216D01*
X127237460Y-87590230D01*
X127200850Y-87447526D01*
X127127949Y-87168161D01*
X127025854Y-86779154D01*
X126901661Y-86307526D01*
X126762468Y-85780295D01*
X126703064Y-85555666D01*
X126221430Y-83735333D01*
X125312912Y-83711234D01*
X124912027Y-83702686D01*
X124652465Y-83705277D01*
X124506364Y-83723095D01*
X124445859Y-83760231D01*
X124443089Y-83820774D01*
X124447629Y-83838234D01*
X124613271Y-84432422D01*
X124730225Y-84886308D01*
X124797046Y-85193733D01*
X124812286Y-85348540D01*
X124806389Y-85364500D01*
X124715130Y-85354738D01*
X124485973Y-85300946D01*
X124142660Y-85209554D01*
X123708934Y-85086989D01*
X123208537Y-84939680D01*
X122958343Y-84864113D01*
X121158000Y-84316022D01*
X121007011Y-83856344D01*
X120910382Y-83525765D01*
X120832693Y-83196521D01*
X120807175Y-83052682D01*
X120791469Y-82815335D01*
X120848769Y-82645099D01*
X121008459Y-82458614D01*
X121021024Y-82446001D01*
X121392779Y-82193732D01*
X121711861Y-82091486D01*
X121916395Y-82067159D01*
X122282211Y-82046286D01*
X122801289Y-82029043D01*
X123465608Y-82015602D01*
X124267149Y-82006138D01*
X125197892Y-82000825D01*
X125948887Y-81999666D01*
X129757772Y-81999666D01*
X129557618Y-82294219D01*
X129357464Y-82588771D01*
X130521293Y-86929603D01*
X130742354Y-87755205D01*
X130949152Y-88529655D01*
X131137706Y-89237898D01*
X131304037Y-89864880D01*
X131444162Y-90395549D01*
X131554102Y-90814849D01*
X131629876Y-91107727D01*
X131667503Y-91259130D01*
X131670894Y-91277130D01*
X131589682Y-91254437D01*
X131363195Y-91186829D01*
X131007957Y-91079345D01*
X130540490Y-90937021D01*
X129977319Y-90764897D01*
X129334965Y-90568009D01*
X128629953Y-90351396D01*
X128143000Y-90201506D01*
X127395151Y-89971720D01*
X126689998Y-89756156D01*
X126045591Y-89560251D01*
X125479978Y-89389443D01*
X125011208Y-89249169D01*
X124657329Y-89144867D01*
X124436389Y-89081973D01*
X124375334Y-89066415D01*
X124349799Y-89085003D01*
X124455178Y-89172904D01*
X124673936Y-89317967D01*
X124988538Y-89508041D01*
X125133556Y-89591822D01*
X126145778Y-90170000D01*
X126692521Y-92223166D01*
X127239264Y-94276333D01*
X128114466Y-94276333D01*
X128535060Y-94270462D01*
X128807294Y-94251161D01*
X128951791Y-94215896D01*
X128989667Y-94168798D01*
X128968333Y-94045228D01*
X128911722Y-93802089D01*
X128830923Y-93482671D01*
X128737025Y-93130268D01*
X128641115Y-92788171D01*
X128601495Y-92653271D01*
X128604877Y-92598252D01*
X128674958Y-92582579D01*
X128835806Y-92610140D01*
X129111494Y-92684826D01*
X129472944Y-92794082D01*
X129959599Y-92944317D01*
X130522305Y-93117922D01*
X131075277Y-93288436D01*
X131361924Y-93376779D01*
X132337181Y-93677270D01*
X132484468Y-94251968D01*
X132583606Y-94684162D01*
X132622494Y-94995911D01*
X133904809Y-94995911D01*
X133836205Y-94748115D01*
X133673686Y-94155231D01*
X133488199Y-93474039D01*
X133283776Y-92719625D01*
X133064451Y-91907078D01*
X132834257Y-91051486D01*
X132597227Y-90167935D01*
X132357396Y-89271513D01*
X132118796Y-88377309D01*
X131885460Y-87500409D01*
X131661422Y-86655902D01*
X131450716Y-85858875D01*
X131257375Y-85124415D01*
X131085431Y-84467611D01*
X130938919Y-83903550D01*
X130821872Y-83447320D01*
X130738324Y-83114008D01*
X130692306Y-82918702D01*
X130684389Y-82874012D01*
X130759647Y-82643075D01*
X130963059Y-82414782D01*
X131256067Y-82221456D01*
X131600112Y-82095420D01*
X131617861Y-82091486D01*
X131822395Y-82067159D01*
X132188211Y-82046286D01*
X132707289Y-82029043D01*
X133371608Y-82015602D01*
X134173149Y-82006138D01*
X135103892Y-82000825D01*
X135854887Y-81999666D01*
X139663772Y-81999666D01*
X139463717Y-82294074D01*
X139263661Y-82588482D01*
X140973355Y-88961574D01*
X141245554Y-89976038D01*
X141506646Y-90948749D01*
X141753074Y-91866469D01*
X141981276Y-92715957D01*
X142187695Y-93483975D01*
X142368770Y-94157283D01*
X142520941Y-94722641D01*
X142640650Y-95166811D01*
X142724336Y-95476554D01*
X142768441Y-95638629D01*
X142772200Y-95652166D01*
X142861351Y-95969666D01*
X149314397Y-95969666D01*
X149188545Y-95525166D01*
X149107032Y-95231877D01*
X148998453Y-94833286D01*
X148869017Y-94352914D01*
X148724929Y-93814286D01*
X148572398Y-93240924D01*
X148417629Y-92656349D01*
X148266831Y-92084086D01*
X148126209Y-91547656D01*
X148001972Y-91070583D01*
X147900325Y-90676388D01*
X147827476Y-90388595D01*
X147789632Y-90230727D01*
X147785667Y-90208655D01*
X147864258Y-90174435D01*
X148075742Y-90143051D01*
X148383685Y-90118908D01*
X148605116Y-90109565D01*
X149424566Y-90085333D01*
X147568446Y-89520392D01*
X147037648Y-89360575D01*
X146563264Y-89221071D01*
X146168422Y-89108406D01*
X145876250Y-89029110D01*
X145709876Y-88989709D01*
X145680319Y-88987458D01*
X145694711Y-89073344D01*
X145748974Y-89305642D01*
X145838737Y-89667315D01*
X145959633Y-90141322D01*
X146107293Y-90710623D01*
X146277347Y-91358181D01*
X146465428Y-92066955D01*
X146574088Y-92473399D01*
X147499865Y-95927333D01*
X145810114Y-95950292D01*
X145293003Y-95955462D01*
X144835990Y-95956496D01*
X144465212Y-95953625D01*
X144206807Y-95947080D01*
X144086915Y-95937094D01*
X144082085Y-95934973D01*
X144055569Y-95850359D01*
X143989161Y-95616745D01*
X143886794Y-95248694D01*
X143752399Y-94760770D01*
X143589910Y-94167536D01*
X143403260Y-93483555D01*
X143196380Y-92723392D01*
X142973204Y-91901609D01*
X142737664Y-91032771D01*
X142493693Y-90131440D01*
X142245223Y-89212180D01*
X141996187Y-88289555D01*
X141750518Y-87378128D01*
X141512148Y-86492463D01*
X141285010Y-85647124D01*
X141073036Y-84856673D01*
X140880160Y-84135674D01*
X140710313Y-83498691D01*
X140567428Y-82960288D01*
X140455439Y-82535027D01*
X140378277Y-82237473D01*
X140339875Y-82082188D01*
X140336248Y-82063166D01*
X140416324Y-82043992D01*
X140640564Y-82027165D01*
X140983804Y-82013613D01*
X141420880Y-82004266D01*
X141926629Y-82000052D01*
X142049500Y-81999907D01*
X143764000Y-82000147D01*
X144337920Y-84137740D01*
X144494762Y-84722091D01*
X144639047Y-85260010D01*
X144764350Y-85727514D01*
X144864244Y-86100619D01*
X144932305Y-86355340D01*
X144960798Y-86462658D01*
X144975834Y-86548346D01*
X144947483Y-86604085D01*
X144846535Y-86637746D01*
X144643783Y-86657198D01*
X144310018Y-86670311D01*
X144175212Y-86674324D01*
X143340667Y-86698666D01*
X145201504Y-87264940D01*
X145732397Y-87425306D01*
X146206197Y-87566148D01*
X146599954Y-87680832D01*
X146890719Y-87762724D01*
X147055543Y-87805188D01*
X147084310Y-87809246D01*
X147068301Y-87725346D01*
X147012902Y-87496782D01*
X146922975Y-87142340D01*
X146803381Y-86680803D01*
X146658981Y-86130957D01*
X146494635Y-85511587D01*
X146346241Y-84956972D01*
X146168071Y-84291806D01*
X146004689Y-83678626D01*
X145861135Y-83136590D01*
X145742445Y-82684857D01*
X145653659Y-82342587D01*
X145599814Y-82128938D01*
X145585269Y-82063166D01*
X145665768Y-82045303D01*
X145892247Y-82029384D01*
X146241356Y-82016152D01*
X146689746Y-82006352D01*
X147214068Y-82000729D01*
X147577053Y-81999666D01*
X149569772Y-81999666D01*
X149369717Y-82294074D01*
X149169661Y-82588482D01*
X150879355Y-88961574D01*
X151151554Y-89976038D01*
X151412646Y-90948749D01*
X151659074Y-91866469D01*
X151887276Y-92715957D01*
X152093695Y-93483975D01*
X152274770Y-94157283D01*
X152426941Y-94722641D01*
X152546650Y-95166811D01*
X152630336Y-95476554D01*
X152674441Y-95638629D01*
X152678200Y-95652166D01*
X152767351Y-95969666D01*
X160952476Y-95969666D01*
X160367221Y-95968555D01*
X159929346Y-95963999D01*
X159616906Y-95954161D01*
X159407956Y-95937205D01*
X159280550Y-95911296D01*
X159212743Y-95874597D01*
X159182589Y-95825274D01*
X159181382Y-95821500D01*
X159144468Y-95690972D01*
X159071872Y-95425084D01*
X158969405Y-95045678D01*
X158842876Y-94574598D01*
X158698094Y-94033686D01*
X158540870Y-93444786D01*
X158377014Y-92829741D01*
X158212333Y-92210393D01*
X158052640Y-91608586D01*
X157903742Y-91046162D01*
X157771451Y-90544966D01*
X157661575Y-90126839D01*
X157579924Y-89813625D01*
X157532308Y-89627166D01*
X157522334Y-89583876D01*
X157600896Y-89563273D01*
X157812221Y-89542612D01*
X158119766Y-89524899D01*
X158336575Y-89516899D01*
X159150815Y-89492666D01*
X155405634Y-88349666D01*
X154502255Y-88072942D01*
X153748686Y-87839568D01*
X153132265Y-87645181D01*
X152640329Y-87485419D01*
X152260215Y-87355920D01*
X151979261Y-87252323D01*
X151784804Y-87170265D01*
X151664182Y-87105385D01*
X151604731Y-87053320D01*
X151596038Y-87037333D01*
X151560293Y-86919389D01*
X151486409Y-86656860D01*
X151379584Y-86268851D01*
X151245016Y-85774472D01*
X151087904Y-85192828D01*
X150913446Y-84543028D01*
X150726841Y-83844179D01*
X150705255Y-83763097D01*
X149878885Y-80658195D01*
X150047034Y-80334097D01*
X150227621Y-80080616D01*
X150458069Y-79869784D01*
X150503258Y-79840666D01*
X150576135Y-79801557D01*
X150660188Y-79768826D01*
X150770587Y-79741798D01*
X150922499Y-79719794D01*
X151131095Y-79702138D01*
X151411543Y-79688153D01*
X151779011Y-79677161D01*
X152248668Y-79668486D01*
X152835684Y-79661449D01*
X153555227Y-79655375D01*
X154422465Y-79649586D01*
X154840862Y-79647038D01*
X158890390Y-79622743D01*
X158443168Y-80209081D01*
X160443261Y-87687207D01*
X160737938Y-88788578D01*
X161022068Y-89849770D01*
X161292349Y-90858495D01*
X161545480Y-91802462D01*
X161778159Y-92669384D01*
X161987083Y-93446971D01*
X162168951Y-94122935D01*
X162320461Y-94684986D01*
X162438311Y-95120835D01*
X162519199Y-95418194D01*
X162559823Y-95564773D01*
X162560614Y-95567500D01*
X162677873Y-95969666D01*
X198247000Y-95969666D01*
X198247000Y-51689000D01*
X66675000Y-51689000D01*
X66675000Y-119761000D01*
G37*
X66675000Y-119761000D02*
X198247000Y-119761000D01*
X198247000Y-95969666D01*
X162677873Y-95969666D01*
X160952476Y-95969666D01*
X152767351Y-95969666D01*
X149314397Y-95969666D01*
X142861351Y-95969666D01*
X139416799Y-95969666D01*
X139330376Y-95694500D01*
X139282275Y-95528994D01*
X139199148Y-95229899D01*
X139089218Y-94827342D01*
X138960705Y-94351454D01*
X138821830Y-93832361D01*
X138804789Y-93768333D01*
X138669009Y-93260074D01*
X138546227Y-92804605D01*
X138443683Y-92428457D01*
X138368621Y-92158161D01*
X138328280Y-92020247D01*
X138325255Y-92011500D01*
X138348589Y-91961377D01*
X138477752Y-91928014D01*
X138733485Y-91908655D01*
X139136531Y-91900545D01*
X139161775Y-91900381D01*
X140038667Y-91895095D01*
X138139207Y-91309230D01*
X137603030Y-91144910D01*
X137123809Y-91000066D01*
X136724182Y-90881375D01*
X136426786Y-90795513D01*
X136254260Y-90749156D01*
X136219897Y-90743214D01*
X136236240Y-90826657D01*
X136291897Y-91053845D01*
X136381757Y-91405122D01*
X136500710Y-91860831D01*
X136643643Y-92401315D01*
X136805447Y-93006918D01*
X136896467Y-93345198D01*
X137592885Y-95927333D01*
X135903624Y-95950292D01*
X135386578Y-95955455D01*
X134929620Y-95956466D01*
X134558895Y-95953559D01*
X134300548Y-95946969D01*
X134180727Y-95936930D01*
X134175921Y-95934809D01*
X134145612Y-95846037D01*
X134076201Y-95608605D01*
X133971721Y-95237602D01*
X133904809Y-94995911D01*
X132622494Y-94995911D01*
X132601594Y-95224848D01*
X132521363Y-95408605D01*
X132498992Y-95442172D01*
X132402546Y-95567918D01*
X132294953Y-95671177D01*
X132159386Y-95754215D01*
X131979016Y-95819299D01*
X131737018Y-95868697D01*
X131416563Y-95904675D01*
X131000826Y-95929500D01*
X130472979Y-95945438D01*
X129816195Y-95954757D01*
X129013648Y-95959723D01*
X128647622Y-95961000D01*
X127832017Y-95962112D01*
X127166614Y-95959509D01*
X126632310Y-95952494D01*
X126210002Y-95940369D01*
X125880587Y-95922437D01*
X125624960Y-95898001D01*
X125424018Y-95866364D01*
X125303289Y-95838945D01*
X124782476Y-95656012D01*
X124370888Y-95411817D01*
X124093434Y-95122534D01*
X124043735Y-95033590D01*
X122724334Y-95033590D01*
X122644732Y-95358292D01*
X122415658Y-95627012D01*
X122051708Y-95825664D01*
X121835334Y-95891521D01*
X121696039Y-95904883D01*
X121407352Y-95916595D01*
X120989208Y-95926385D01*
X120461541Y-95933984D01*
X119844287Y-95939119D01*
X119157382Y-95941520D01*
X118420759Y-95940917D01*
X118245102Y-95940319D01*
X114908870Y-95927333D01*
X113714666Y-95927333D01*
X112023776Y-95950301D01*
X111435345Y-95954242D01*
X110949548Y-95949233D01*
X110583746Y-95935860D01*
X110355304Y-95914709D01*
X110282382Y-95891550D01*
X110249445Y-95793073D01*
X110178721Y-95550256D01*
X110075557Y-95182502D01*
X109945305Y-94709219D01*
X109793312Y-94149813D01*
X109624927Y-93523688D01*
X109482576Y-92989916D01*
X109303516Y-92323379D01*
X109134293Y-91707370D01*
X108980573Y-91161466D01*
X108848023Y-90705243D01*
X108742308Y-90358280D01*
X108669096Y-90140154D01*
X108637971Y-90071806D01*
X108531172Y-90015003D01*
X108309047Y-89927260D01*
X108011052Y-89821349D01*
X107676643Y-89710042D01*
X107345276Y-89606112D01*
X107056407Y-89522330D01*
X106849492Y-89471471D01*
X106764657Y-89465393D01*
X106780194Y-89550311D01*
X106835626Y-89781117D01*
X106926413Y-90140301D01*
X107048012Y-90610353D01*
X107195880Y-91173763D01*
X107365474Y-91813020D01*
X107552253Y-92510615D01*
X107617344Y-92752333D01*
X107809523Y-93465324D01*
X107987297Y-94125516D01*
X108145971Y-94715429D01*
X108280853Y-95217583D01*
X108387247Y-95614497D01*
X108460460Y-95888691D01*
X108495798Y-96022685D01*
X108498349Y-96033166D01*
X108418484Y-96039540D01*
X108194349Y-96045145D01*
X107851009Y-96049673D01*
X107413525Y-96052817D01*
X106906962Y-96054270D01*
X106773846Y-96054333D01*
X105047358Y-96054333D01*
X104998488Y-95859622D01*
X104967816Y-95742728D01*
X104897545Y-95478017D01*
X104791880Y-95081241D01*
X104655025Y-94568152D01*
X104491185Y-93954501D01*
X104304565Y-93256041D01*
X104099370Y-92488525D01*
X103879804Y-91667703D01*
X103762705Y-91230115D01*
X103539921Y-90394192D01*
X103332256Y-89608184D01*
X103143559Y-88887132D01*
X102977681Y-88246076D01*
X102838469Y-87700057D01*
X102729775Y-87264116D01*
X102655446Y-86953293D01*
X102619332Y-86782630D01*
X102617151Y-86753960D01*
X102705547Y-86766125D01*
X102937606Y-86819598D01*
X103294115Y-86909365D01*
X103755864Y-87030413D01*
X104303641Y-87177728D01*
X104918234Y-87346296D01*
X105388922Y-87477336D01*
X106172119Y-87693757D01*
X106836577Y-87871253D01*
X107373857Y-88007768D01*
X107775524Y-88101245D01*
X108033141Y-88149631D01*
X108138270Y-88150867D01*
X108140249Y-88147702D01*
X108124612Y-88043608D01*
X108069827Y-87798717D01*
X107981491Y-87435548D01*
X107865204Y-86976617D01*
X107726562Y-86444442D01*
X107579998Y-85894333D01*
X106998832Y-83735333D01*
X106394916Y-83710457D01*
X106099886Y-83703056D01*
X105884776Y-83706719D01*
X105791932Y-83720593D01*
X105791000Y-83722616D01*
X105811829Y-83812837D01*
X105869360Y-84038048D01*
X105956162Y-84369758D01*
X106064804Y-84779476D01*
X106139777Y-85059826D01*
X106277130Y-85562314D01*
X106387614Y-85933536D01*
X106484955Y-86206621D01*
X106582878Y-86414698D01*
X106695110Y-86590897D01*
X106835376Y-86768346D01*
X106859443Y-86796837D01*
X107046031Y-87022289D01*
X107179236Y-87194096D01*
X107230333Y-87275200D01*
X107230334Y-87275297D01*
X107155275Y-87270600D01*
X106953285Y-87224221D01*
X106659148Y-87144702D01*
X106447167Y-87082925D01*
X106083406Y-86974668D01*
X105608598Y-86833981D01*
X105074189Y-86676076D01*
X104531623Y-86516166D01*
X104303928Y-86449195D01*
X102943855Y-86049461D01*
X102547094Y-84546492D01*
X102420078Y-84056149D01*
X102309906Y-83613274D01*
X102223580Y-83247464D01*
X102168105Y-82988316D01*
X102150334Y-82869641D01*
X102232327Y-82619573D01*
X102469187Y-82368607D01*
X102766742Y-82174404D01*
X102848827Y-82132553D01*
X102938288Y-82097974D01*
X103051175Y-82069975D01*
X103203533Y-82047861D01*
X103411410Y-82030941D01*
X103690854Y-82018522D01*
X104057911Y-82009909D01*
X104528629Y-82004410D01*
X105119054Y-82001332D01*
X105845235Y-81999982D01*
X106723217Y-81999667D01*
X106812628Y-81999666D01*
X110538438Y-81999666D01*
X110338223Y-82294310D01*
X110138008Y-82588953D01*
X113714666Y-95927333D01*
X114908870Y-95927333D01*
X114714220Y-95207666D01*
X114625997Y-94871725D01*
X114557640Y-94592947D01*
X114519808Y-94415580D01*
X114515619Y-94383197D01*
X114551596Y-94354587D01*
X114670325Y-94330598D01*
X114884492Y-94310719D01*
X115206777Y-94294438D01*
X115649866Y-94281244D01*
X116226440Y-94270625D01*
X116949183Y-94262070D01*
X117665500Y-94256197D01*
X120819334Y-94234000D01*
X119888140Y-93932148D01*
X118956947Y-93630297D01*
X118514492Y-91984815D01*
X118379792Y-91481229D01*
X118261396Y-91033567D01*
X118165981Y-90667483D01*
X118100221Y-90408628D01*
X118070788Y-90282655D01*
X118069853Y-90275833D01*
X118147456Y-90248770D01*
X118358046Y-90227449D01*
X118665305Y-90214697D01*
X118886112Y-90212333D01*
X119226596Y-90206332D01*
X119484686Y-90190170D01*
X119627494Y-90166605D01*
X119643127Y-90148833D01*
X119550355Y-90109685D01*
X119314737Y-90027338D01*
X118955395Y-89907994D01*
X118491448Y-89757857D01*
X117942018Y-89583127D01*
X117326225Y-89390009D01*
X116820008Y-89233030D01*
X114058318Y-88380728D01*
X113828628Y-87526177D01*
X113598937Y-86671626D01*
X113822469Y-86747283D01*
X114073035Y-86829167D01*
X114421022Y-86938888D01*
X114838471Y-87068048D01*
X115297423Y-87208248D01*
X115769918Y-87351089D01*
X116227998Y-87488172D01*
X116643702Y-87611099D01*
X116989072Y-87711471D01*
X117236148Y-87780889D01*
X117356972Y-87810954D01*
X117364324Y-87811232D01*
X117349859Y-87726695D01*
X117297265Y-87500894D01*
X117212128Y-87156158D01*
X117100032Y-86714816D01*
X116966561Y-86199196D01*
X116851778Y-85761973D01*
X116316614Y-83735333D01*
X113980091Y-83712836D01*
X113286936Y-83705407D01*
X112744396Y-83697152D01*
X112333753Y-83686738D01*
X112036289Y-83672835D01*
X111833286Y-83654110D01*
X111706026Y-83629232D01*
X111635792Y-83596871D01*
X111603865Y-83555694D01*
X111599566Y-83543503D01*
X111526131Y-83288959D01*
X111440356Y-82977864D01*
X111354042Y-82654964D01*
X111278989Y-82365007D01*
X111226995Y-82152742D01*
X111209667Y-82064868D01*
X111291689Y-82052231D01*
X111527176Y-82040401D01*
X111900262Y-82029618D01*
X112395081Y-82020120D01*
X112995764Y-82012149D01*
X113686446Y-82005942D01*
X114451259Y-82001739D01*
X115274338Y-81999780D01*
X115530719Y-81999666D01*
X119851772Y-81999666D01*
X119651486Y-82294413D01*
X119451201Y-82589159D01*
X121087767Y-88700842D01*
X121352154Y-89691087D01*
X121603304Y-90637396D01*
X121837787Y-91526496D01*
X122052171Y-92345112D01*
X122243028Y-93079972D01*
X122406926Y-93717803D01*
X122540436Y-94245330D01*
X122640128Y-94649280D01*
X122702570Y-94916380D01*
X122724333Y-95033356D01*
X122724334Y-95033590D01*
X124043735Y-95033590D01*
X124032837Y-95014087D01*
X123985907Y-94878789D01*
X123903487Y-94605102D01*
X123790614Y-94211941D01*
X123652327Y-93718224D01*
X123493664Y-93142868D01*
X123319662Y-92504789D01*
X123135360Y-91822906D01*
X122945797Y-91116133D01*
X122756010Y-90403390D01*
X122571037Y-89703592D01*
X122395916Y-89035656D01*
X122235686Y-88418500D01*
X122095384Y-87871041D01*
X121980050Y-87412195D01*
X121894720Y-87060879D01*
X121844433Y-86836011D01*
X121833683Y-86756761D01*
X121919778Y-86773053D01*
X122151302Y-86834606D01*
X122511915Y-86936629D01*
X122985276Y-87074333D01*
X123555048Y-87242930D01*
X124204890Y-87437629D01*
X124918463Y-87653641D01*
X125522080Y-87837920D01*
X126274532Y-88067600D01*
X126976042Y-88280042D01*
X127610305Y-88470429D01*
X128161014Y-88633947D01*
X128611865Y-88765779D01*
X128946550Y-88861111D01*
X129148766Y-88915125D01*
X129204190Y-88925365D01*
X129146558Y-88875092D01*
X128966783Y-88759394D01*
X128691148Y-88594353D01*
X128345938Y-88396054D01*
X128262811Y-88349308D01*
X127836046Y-88103405D01*
X127540714Y-87914922D01*
X127355542Y-87768109D01*
X127259254Y-87647216D01*
X127237460Y-87590230D01*
X127200850Y-87447526D01*
X127127949Y-87168161D01*
X127025854Y-86779154D01*
X126901661Y-86307526D01*
X126762468Y-85780295D01*
X126703064Y-85555666D01*
X126221430Y-83735333D01*
X125312912Y-83711234D01*
X124912027Y-83702686D01*
X124652465Y-83705277D01*
X124506364Y-83723095D01*
X124445859Y-83760231D01*
X124443089Y-83820774D01*
X124447629Y-83838234D01*
X124613271Y-84432422D01*
X124730225Y-84886308D01*
X124797046Y-85193733D01*
X124812286Y-85348540D01*
X124806389Y-85364500D01*
X124715130Y-85354738D01*
X124485973Y-85300946D01*
X124142660Y-85209554D01*
X123708934Y-85086989D01*
X123208537Y-84939680D01*
X122958343Y-84864113D01*
X121158000Y-84316022D01*
X121007011Y-83856344D01*
X120910382Y-83525765D01*
X120832693Y-83196521D01*
X120807175Y-83052682D01*
X120791469Y-82815335D01*
X120848769Y-82645099D01*
X121008459Y-82458614D01*
X121021024Y-82446001D01*
X121392779Y-82193732D01*
X121711861Y-82091486D01*
X121916395Y-82067159D01*
X122282211Y-82046286D01*
X122801289Y-82029043D01*
X123465608Y-82015602D01*
X124267149Y-82006138D01*
X125197892Y-82000825D01*
X125948887Y-81999666D01*
X129757772Y-81999666D01*
X129557618Y-82294219D01*
X129357464Y-82588771D01*
X130521293Y-86929603D01*
X130742354Y-87755205D01*
X130949152Y-88529655D01*
X131137706Y-89237898D01*
X131304037Y-89864880D01*
X131444162Y-90395549D01*
X131554102Y-90814849D01*
X131629876Y-91107727D01*
X131667503Y-91259130D01*
X131670894Y-91277130D01*
X131589682Y-91254437D01*
X131363195Y-91186829D01*
X131007957Y-91079345D01*
X130540490Y-90937021D01*
X129977319Y-90764897D01*
X129334965Y-90568009D01*
X128629953Y-90351396D01*
X128143000Y-90201506D01*
X127395151Y-89971720D01*
X126689998Y-89756156D01*
X126045591Y-89560251D01*
X125479978Y-89389443D01*
X125011208Y-89249169D01*
X124657329Y-89144867D01*
X124436389Y-89081973D01*
X124375334Y-89066415D01*
X124349799Y-89085003D01*
X124455178Y-89172904D01*
X124673936Y-89317967D01*
X124988538Y-89508041D01*
X125133556Y-89591822D01*
X126145778Y-90170000D01*
X126692521Y-92223166D01*
X127239264Y-94276333D01*
X128114466Y-94276333D01*
X128535060Y-94270462D01*
X128807294Y-94251161D01*
X128951791Y-94215896D01*
X128989667Y-94168798D01*
X128968333Y-94045228D01*
X128911722Y-93802089D01*
X128830923Y-93482671D01*
X128737025Y-93130268D01*
X128641115Y-92788171D01*
X128601495Y-92653271D01*
X128604877Y-92598252D01*
X128674958Y-92582579D01*
X128835806Y-92610140D01*
X129111494Y-92684826D01*
X129472944Y-92794082D01*
X129959599Y-92944317D01*
X130522305Y-93117922D01*
X131075277Y-93288436D01*
X131361924Y-93376779D01*
X132337181Y-93677270D01*
X132484468Y-94251968D01*
X132583606Y-94684162D01*
X132622494Y-94995911D01*
X133904809Y-94995911D01*
X133836205Y-94748115D01*
X133673686Y-94155231D01*
X133488199Y-93474039D01*
X133283776Y-92719625D01*
X133064451Y-91907078D01*
X132834257Y-91051486D01*
X132597227Y-90167935D01*
X132357396Y-89271513D01*
X132118796Y-88377309D01*
X131885460Y-87500409D01*
X131661422Y-86655902D01*
X131450716Y-85858875D01*
X131257375Y-85124415D01*
X131085431Y-84467611D01*
X130938919Y-83903550D01*
X130821872Y-83447320D01*
X130738324Y-83114008D01*
X130692306Y-82918702D01*
X130684389Y-82874012D01*
X130759647Y-82643075D01*
X130963059Y-82414782D01*
X131256067Y-82221456D01*
X131600112Y-82095420D01*
X131617861Y-82091486D01*
X131822395Y-82067159D01*
X132188211Y-82046286D01*
X132707289Y-82029043D01*
X133371608Y-82015602D01*
X134173149Y-82006138D01*
X135103892Y-82000825D01*
X135854887Y-81999666D01*
X139663772Y-81999666D01*
X139463717Y-82294074D01*
X139263661Y-82588482D01*
X140973355Y-88961574D01*
X141245554Y-89976038D01*
X141506646Y-90948749D01*
X141753074Y-91866469D01*
X141981276Y-92715957D01*
X142187695Y-93483975D01*
X142368770Y-94157283D01*
X142520941Y-94722641D01*
X142640650Y-95166811D01*
X142724336Y-95476554D01*
X142768441Y-95638629D01*
X142772200Y-95652166D01*
X142861351Y-95969666D01*
X149314397Y-95969666D01*
X149188545Y-95525166D01*
X149107032Y-95231877D01*
X148998453Y-94833286D01*
X148869017Y-94352914D01*
X148724929Y-93814286D01*
X148572398Y-93240924D01*
X148417629Y-92656349D01*
X148266831Y-92084086D01*
X148126209Y-91547656D01*
X148001972Y-91070583D01*
X147900325Y-90676388D01*
X147827476Y-90388595D01*
X147789632Y-90230727D01*
X147785667Y-90208655D01*
X147864258Y-90174435D01*
X148075742Y-90143051D01*
X148383685Y-90118908D01*
X148605116Y-90109565D01*
X149424566Y-90085333D01*
X147568446Y-89520392D01*
X147037648Y-89360575D01*
X146563264Y-89221071D01*
X146168422Y-89108406D01*
X145876250Y-89029110D01*
X145709876Y-88989709D01*
X145680319Y-88987458D01*
X145694711Y-89073344D01*
X145748974Y-89305642D01*
X145838737Y-89667315D01*
X145959633Y-90141322D01*
X146107293Y-90710623D01*
X146277347Y-91358181D01*
X146465428Y-92066955D01*
X146574088Y-92473399D01*
X147499865Y-95927333D01*
X145810114Y-95950292D01*
X145293003Y-95955462D01*
X144835990Y-95956496D01*
X144465212Y-95953625D01*
X144206807Y-95947080D01*
X144086915Y-95937094D01*
X144082085Y-95934973D01*
X144055569Y-95850359D01*
X143989161Y-95616745D01*
X143886794Y-95248694D01*
X143752399Y-94760770D01*
X143589910Y-94167536D01*
X143403260Y-93483555D01*
X143196380Y-92723392D01*
X142973204Y-91901609D01*
X142737664Y-91032771D01*
X142493693Y-90131440D01*
X142245223Y-89212180D01*
X141996187Y-88289555D01*
X141750518Y-87378128D01*
X141512148Y-86492463D01*
X141285010Y-85647124D01*
X141073036Y-84856673D01*
X140880160Y-84135674D01*
X140710313Y-83498691D01*
X140567428Y-82960288D01*
X140455439Y-82535027D01*
X140378277Y-82237473D01*
X140339875Y-82082188D01*
X140336248Y-82063166D01*
X140416324Y-82043992D01*
X140640564Y-82027165D01*
X140983804Y-82013613D01*
X141420880Y-82004266D01*
X141926629Y-82000052D01*
X142049500Y-81999907D01*
X143764000Y-82000147D01*
X144337920Y-84137740D01*
X144494762Y-84722091D01*
X144639047Y-85260010D01*
X144764350Y-85727514D01*
X144864244Y-86100619D01*
X144932305Y-86355340D01*
X144960798Y-86462658D01*
X144975834Y-86548346D01*
X144947483Y-86604085D01*
X144846535Y-86637746D01*
X144643783Y-86657198D01*
X144310018Y-86670311D01*
X144175212Y-86674324D01*
X143340667Y-86698666D01*
X145201504Y-87264940D01*
X145732397Y-87425306D01*
X146206197Y-87566148D01*
X146599954Y-87680832D01*
X146890719Y-87762724D01*
X147055543Y-87805188D01*
X147084310Y-87809246D01*
X147068301Y-87725346D01*
X147012902Y-87496782D01*
X146922975Y-87142340D01*
X146803381Y-86680803D01*
X146658981Y-86130957D01*
X146494635Y-85511587D01*
X146346241Y-84956972D01*
X146168071Y-84291806D01*
X146004689Y-83678626D01*
X145861135Y-83136590D01*
X145742445Y-82684857D01*
X145653659Y-82342587D01*
X145599814Y-82128938D01*
X145585269Y-82063166D01*
X145665768Y-82045303D01*
X145892247Y-82029384D01*
X146241356Y-82016152D01*
X146689746Y-82006352D01*
X147214068Y-82000729D01*
X147577053Y-81999666D01*
X149569772Y-81999666D01*
X149369717Y-82294074D01*
X149169661Y-82588482D01*
X150879355Y-88961574D01*
X151151554Y-89976038D01*
X151412646Y-90948749D01*
X151659074Y-91866469D01*
X151887276Y-92715957D01*
X152093695Y-93483975D01*
X152274770Y-94157283D01*
X152426941Y-94722641D01*
X152546650Y-95166811D01*
X152630336Y-95476554D01*
X152674441Y-95638629D01*
X152678200Y-95652166D01*
X152767351Y-95969666D01*
X160952476Y-95969666D01*
X160367221Y-95968555D01*
X159929346Y-95963999D01*
X159616906Y-95954161D01*
X159407956Y-95937205D01*
X159280550Y-95911296D01*
X159212743Y-95874597D01*
X159182589Y-95825274D01*
X159181382Y-95821500D01*
X159144468Y-95690972D01*
X159071872Y-95425084D01*
X158969405Y-95045678D01*
X158842876Y-94574598D01*
X158698094Y-94033686D01*
X158540870Y-93444786D01*
X158377014Y-92829741D01*
X158212333Y-92210393D01*
X158052640Y-91608586D01*
X157903742Y-91046162D01*
X157771451Y-90544966D01*
X157661575Y-90126839D01*
X157579924Y-89813625D01*
X157532308Y-89627166D01*
X157522334Y-89583876D01*
X157600896Y-89563273D01*
X157812221Y-89542612D01*
X158119766Y-89524899D01*
X158336575Y-89516899D01*
X159150815Y-89492666D01*
X155405634Y-88349666D01*
X154502255Y-88072942D01*
X153748686Y-87839568D01*
X153132265Y-87645181D01*
X152640329Y-87485419D01*
X152260215Y-87355920D01*
X151979261Y-87252323D01*
X151784804Y-87170265D01*
X151664182Y-87105385D01*
X151604731Y-87053320D01*
X151596038Y-87037333D01*
X151560293Y-86919389D01*
X151486409Y-86656860D01*
X151379584Y-86268851D01*
X151245016Y-85774472D01*
X151087904Y-85192828D01*
X150913446Y-84543028D01*
X150726841Y-83844179D01*
X150705255Y-83763097D01*
X149878885Y-80658195D01*
X150047034Y-80334097D01*
X150227621Y-80080616D01*
X150458069Y-79869784D01*
X150503258Y-79840666D01*
X150576135Y-79801557D01*
X150660188Y-79768826D01*
X150770587Y-79741798D01*
X150922499Y-79719794D01*
X151131095Y-79702138D01*
X151411543Y-79688153D01*
X151779011Y-79677161D01*
X152248668Y-79668486D01*
X152835684Y-79661449D01*
X153555227Y-79655375D01*
X154422465Y-79649586D01*
X154840862Y-79647038D01*
X158890390Y-79622743D01*
X158443168Y-80209081D01*
X160443261Y-87687207D01*
X160737938Y-88788578D01*
X161022068Y-89849770D01*
X161292349Y-90858495D01*
X161545480Y-91802462D01*
X161778159Y-92669384D01*
X161987083Y-93446971D01*
X162168951Y-94122935D01*
X162320461Y-94684986D01*
X162438311Y-95120835D01*
X162519199Y-95418194D01*
X162559823Y-95564773D01*
X162560614Y-95567500D01*
X162677873Y-95969666D01*
X198247000Y-95969666D01*
X198247000Y-51689000D01*
X66675000Y-51689000D01*
X66675000Y-119761000D01*
G36*
X154067073Y-81329281D02*
G01*
X153774739Y-81348072D01*
X153589970Y-81375622D01*
X153543000Y-81400704D01*
X153563783Y-81493695D01*
X153621910Y-81725237D01*
X153711050Y-82071449D01*
X153824873Y-82508455D01*
X153957048Y-83012376D01*
X154101246Y-83559334D01*
X154251134Y-84125450D01*
X154400382Y-84686847D01*
X154542660Y-85219647D01*
X154671637Y-85699971D01*
X154780983Y-86103941D01*
X154864366Y-86407679D01*
X154915456Y-86587307D01*
X154928430Y-86626299D01*
X155008751Y-86654745D01*
X155218881Y-86723101D01*
X155526898Y-86821114D01*
X155900314Y-86938361D01*
X156860628Y-87238124D01*
X156805943Y-87010728D01*
X156771367Y-86875574D01*
X156698771Y-86598148D01*
X156593795Y-86199787D01*
X156462078Y-85701826D01*
X156309261Y-85125600D01*
X156140983Y-84492448D01*
X156036129Y-84098564D01*
X155864247Y-83451934D01*
X155707206Y-82858549D01*
X155570125Y-82337957D01*
X155458124Y-81909708D01*
X155376325Y-81593354D01*
X155329846Y-81408444D01*
X155321000Y-81368064D01*
X155242169Y-81349291D01*
X155028993Y-81334252D01*
X154716451Y-81324748D01*
X154432000Y-81322333D01*
X154067073Y-81329281D01*
G37*
X154067073Y-81329281D02*
X153774739Y-81348072D01*
X153589970Y-81375622D01*
X153543000Y-81400704D01*
X153563783Y-81493695D01*
X153621910Y-81725237D01*
X153711050Y-82071449D01*
X153824873Y-82508455D01*
X153957048Y-83012376D01*
X154101246Y-83559334D01*
X154251134Y-84125450D01*
X154400382Y-84686847D01*
X154542660Y-85219647D01*
X154671637Y-85699971D01*
X154780983Y-86103941D01*
X154864366Y-86407679D01*
X154915456Y-86587307D01*
X154928430Y-86626299D01*
X155008751Y-86654745D01*
X155218881Y-86723101D01*
X155526898Y-86821114D01*
X155900314Y-86938361D01*
X156860628Y-87238124D01*
X156805943Y-87010728D01*
X156771367Y-86875574D01*
X156698771Y-86598148D01*
X156593795Y-86199787D01*
X156462078Y-85701826D01*
X156309261Y-85125600D01*
X156140983Y-84492448D01*
X156036129Y-84098564D01*
X155864247Y-83451934D01*
X155707206Y-82858549D01*
X155570125Y-82337957D01*
X155458124Y-81909708D01*
X155376325Y-81593354D01*
X155329846Y-81408444D01*
X155321000Y-81368064D01*
X155242169Y-81349291D01*
X155028993Y-81334252D01*
X154716451Y-81324748D01*
X154432000Y-81322333D01*
X154067073Y-81329281D01*
G36*
X134367910Y-83880611D02*
G01*
X134401576Y-84009289D01*
X134473066Y-84279419D01*
X134576491Y-84668862D01*
X134705963Y-85155475D01*
X134855595Y-85717119D01*
X135019500Y-86331651D01*
X135072261Y-86529333D01*
X135727693Y-88984666D01*
X136426603Y-89211634D01*
X136898342Y-89361369D01*
X137232261Y-89457464D01*
X137449760Y-89503924D01*
X137572239Y-89504755D01*
X137621097Y-89463962D01*
X137624816Y-89435893D01*
X137603354Y-89329989D01*
X137542779Y-89080356D01*
X137448181Y-88706728D01*
X137324651Y-88228837D01*
X137177280Y-87666418D01*
X137011158Y-87039202D01*
X136874964Y-86529333D01*
X136125964Y-83735333D01*
X135222478Y-83711278D01*
X134318991Y-83687223D01*
X134367910Y-83880611D01*
G37*
X134367910Y-83880611D02*
X134401576Y-84009289D01*
X134473066Y-84279419D01*
X134576491Y-84668862D01*
X134705963Y-85155475D01*
X134855595Y-85717119D01*
X135019500Y-86331651D01*
X135072261Y-86529333D01*
X135727693Y-88984666D01*
X136426603Y-89211634D01*
X136898342Y-89361369D01*
X137232261Y-89457464D01*
X137449760Y-89503924D01*
X137572239Y-89504755D01*
X137621097Y-89463962D01*
X137624816Y-89435893D01*
X137603354Y-89329989D01*
X137542779Y-89080356D01*
X137448181Y-88706728D01*
X137324651Y-88228837D01*
X137177280Y-87666418D01*
X137011158Y-87039202D01*
X136874964Y-86529333D01*
X136125964Y-83735333D01*
X135222478Y-83711278D01*
X134318991Y-83687223D01*
X134367910Y-83880611D01*
G04 #@! TD*
M02*
