G04 #@! TF.GenerationSoftware,KiCad,Pcbnew,(5.1.10)-1*
G04 #@! TF.CreationDate,2021-08-18T21:07:06-05:00*
G04 #@! TF.ProjectId,ConsolePedalPhaserSMT,436f6e73-6f6c-4655-9065-64616c506861,rev?*
G04 #@! TF.SameCoordinates,Original*
G04 #@! TF.FileFunction,Soldermask,Bot*
G04 #@! TF.FilePolarity,Negative*
%FSLAX46Y46*%
G04 Gerber Fmt 4.6, Leading zero omitted, Abs format (unit mm)*
G04 Created by KiCad (PCBNEW (5.1.10)-1) date 2021-08-18 21:07:06*
%MOMM*%
%LPD*%
G01*
G04 APERTURE LIST*
%ADD10R,1.800000X1.800000*%
%ADD11C,1.800000*%
%ADD12R,1.500000X7.000000*%
%ADD13C,5.000000*%
%ADD14C,1.600000*%
%ADD15O,1.600000X1.600000*%
%ADD16R,1.050000X1.500000*%
%ADD17O,1.050000X1.500000*%
%ADD18C,4.000000*%
%ADD19C,1.440000*%
%ADD20C,0.254000*%
%ADD21C,0.100000*%
G04 APERTURE END LIST*
D10*
G04 #@! TO.C,D3*
X115250000Y-95000000D03*
D11*
X115250000Y-97540000D03*
G04 #@! TD*
G04 #@! TO.C,D4*
X150250000Y-97540000D03*
D10*
X150250000Y-95000000D03*
G04 #@! TD*
D12*
G04 #@! TO.C,J1*
X102715000Y-126000000D03*
X105215000Y-126000000D03*
X107715000Y-126000000D03*
X110215000Y-126000000D03*
X112715000Y-126000000D03*
X115215000Y-126000000D03*
X117715000Y-126000000D03*
X120215000Y-126000000D03*
X122715000Y-126000000D03*
X125215000Y-126000000D03*
X127715000Y-126000000D03*
X130215000Y-126000000D03*
X132715000Y-126000000D03*
X135215000Y-126000000D03*
X137715000Y-126000000D03*
X140215000Y-126000000D03*
X142715000Y-126000000D03*
X145215000Y-126000000D03*
X147715000Y-126000000D03*
X150215000Y-126000000D03*
X152715000Y-126000000D03*
X155215000Y-126000000D03*
X157715000Y-126000000D03*
X160215000Y-126000000D03*
X162715000Y-126000000D03*
G04 #@! TD*
D13*
G04 #@! TO.C,H1*
X85350000Y-122600000D03*
G04 #@! TD*
G04 #@! TO.C,H2*
X180150000Y-122600000D03*
G04 #@! TD*
D14*
G04 #@! TO.C,R29*
X137668000Y-90932000D03*
D15*
X127508000Y-90932000D03*
G04 #@! TD*
D16*
G04 #@! TO.C,Q1*
X122000000Y-96270000D03*
D17*
X124540000Y-96270000D03*
X123270000Y-96270000D03*
G04 #@! TD*
G04 #@! TO.C,Q2*
X142230000Y-96270000D03*
X143500000Y-96270000D03*
D16*
X140960000Y-96270000D03*
G04 #@! TD*
D17*
G04 #@! TO.C,Q3*
X162715000Y-96270000D03*
X163985000Y-96270000D03*
D16*
X161445000Y-96270000D03*
G04 #@! TD*
D17*
G04 #@! TO.C,Q4*
X162715000Y-85598000D03*
X163985000Y-85598000D03*
D16*
X161445000Y-85598000D03*
G04 #@! TD*
G04 #@! TO.C,Q5*
X101445000Y-85852000D03*
D17*
X103985000Y-85852000D03*
X102715000Y-85852000D03*
G04 #@! TD*
D11*
G04 #@! TO.C,RV1*
X130215000Y-87500000D03*
X132715000Y-87500000D03*
X135215000Y-87500000D03*
D18*
X128315000Y-80500000D03*
X137115000Y-80500000D03*
G04 #@! TD*
D19*
G04 #@! TO.C,RV2*
X135255000Y-95504000D03*
X132715000Y-100584000D03*
X130175000Y-95504000D03*
G04 #@! TD*
D20*
X165000000Y-129000000D02*
X164000000Y-130000000D01*
X101500000Y-130000000D01*
X100500000Y-129000000D01*
X100500000Y-123063000D01*
X165000000Y-123063000D01*
X165000000Y-129000000D01*
D21*
G36*
X165000000Y-129000000D02*
G01*
X164000000Y-130000000D01*
X101500000Y-130000000D01*
X100500000Y-129000000D01*
X100500000Y-123063000D01*
X165000000Y-123063000D01*
X165000000Y-129000000D01*
G37*
D20*
X86487000Y-119380000D02*
X86489440Y-119404776D01*
X86496667Y-119428601D01*
X86508403Y-119450557D01*
X86524197Y-119469803D01*
X86543443Y-119485597D01*
X86565399Y-119497333D01*
X86589224Y-119504560D01*
X86614000Y-119507000D01*
X89000000Y-119507000D01*
X89000000Y-126000000D01*
X82500000Y-126000000D01*
X82500000Y-97917000D01*
X86487000Y-97917000D01*
X86487000Y-119380000D01*
D21*
G36*
X86487000Y-119380000D02*
G01*
X86489440Y-119404776D01*
X86496667Y-119428601D01*
X86508403Y-119450557D01*
X86524197Y-119469803D01*
X86543443Y-119485597D01*
X86565399Y-119497333D01*
X86589224Y-119504560D01*
X86614000Y-119507000D01*
X89000000Y-119507000D01*
X89000000Y-126000000D01*
X82500000Y-126000000D01*
X82500000Y-97917000D01*
X86487000Y-97917000D01*
X86487000Y-119380000D01*
G37*
D20*
X182499000Y-126000000D02*
X176500000Y-126000000D01*
X176500000Y-119761000D01*
X179578000Y-119761000D01*
X179602776Y-119758560D01*
X179626601Y-119751333D01*
X179648557Y-119739597D01*
X179667803Y-119723803D01*
X179683597Y-119704557D01*
X179695333Y-119682601D01*
X179702560Y-119658776D01*
X179705000Y-119634000D01*
X179705000Y-99441000D01*
X182499000Y-99441000D01*
X182499000Y-126000000D01*
D21*
G36*
X182499000Y-126000000D02*
G01*
X176500000Y-126000000D01*
X176500000Y-119761000D01*
X179578000Y-119761000D01*
X179602776Y-119758560D01*
X179626601Y-119751333D01*
X179648557Y-119739597D01*
X179667803Y-119723803D01*
X179683597Y-119704557D01*
X179695333Y-119682601D01*
X179702560Y-119658776D01*
X179705000Y-119634000D01*
X179705000Y-99441000D01*
X182499000Y-99441000D01*
X182499000Y-126000000D01*
G37*
M02*
