G04 #@! TF.GenerationSoftware,KiCad,Pcbnew,(5.1.7)-1*
G04 #@! TF.CreationDate,2021-11-30T18:20:46-06:00*
G04 #@! TF.ProjectId,InternalAmpLM386,496e7465-726e-4616-9c41-6d704c4d3338,rev?*
G04 #@! TF.SameCoordinates,Original*
G04 #@! TF.FileFunction,Soldermask,Top*
G04 #@! TF.FilePolarity,Negative*
%FSLAX46Y46*%
G04 Gerber Fmt 4.6, Leading zero omitted, Abs format (unit mm)*
G04 Created by KiCad (PCBNEW (5.1.7)-1) date 2021-11-30 18:20:46*
%MOMM*%
%LPD*%
G01*
G04 APERTURE LIST*
%ADD10R,1.600000X1.600000*%
%ADD11C,1.600000*%
%ADD12R,2.000000X2.000000*%
%ADD13C,2.000000*%
%ADD14R,2.200000X2.200000*%
%ADD15O,2.200000X2.200000*%
%ADD16R,1.800000X1.800000*%
%ADD17C,1.800000*%
%ADD18C,5.400000*%
%ADD19R,1.700000X1.700000*%
%ADD20O,1.700000X1.700000*%
%ADD21O,1.050000X1.500000*%
%ADD22R,1.050000X1.500000*%
%ADD23O,1.600000X1.600000*%
%ADD24C,1.440000*%
G04 APERTURE END LIST*
D10*
G04 #@! TO.C,C1*
X139700000Y-113792000D03*
D11*
X139700000Y-117292000D03*
G04 #@! TD*
D12*
G04 #@! TO.C,C5*
X119380000Y-117348000D03*
D13*
X119380000Y-112348000D03*
G04 #@! TD*
D14*
G04 #@! TO.C,D1*
X97028000Y-99822000D03*
D15*
X97028000Y-89662000D03*
G04 #@! TD*
D16*
G04 #@! TO.C,D2*
X97282000Y-83566000D03*
D17*
X94742000Y-83566000D03*
G04 #@! TD*
D18*
G04 #@! TO.C,H1*
X103250000Y-125750000D03*
G04 #@! TD*
G04 #@! TO.C,H2*
X156750000Y-125750000D03*
G04 #@! TD*
D19*
G04 #@! TO.C,J1*
X166878000Y-93472000D03*
D20*
X166878000Y-90932000D03*
X166878000Y-88392000D03*
X166878000Y-85852000D03*
G04 #@! TD*
D19*
G04 #@! TO.C,J2*
X101092000Y-84500000D03*
D20*
X101092000Y-81960000D03*
G04 #@! TD*
G04 #@! TO.C,J3*
X154940000Y-82042000D03*
D19*
X157480000Y-82042000D03*
G04 #@! TD*
D21*
G04 #@! TO.C,Q1*
X161290000Y-106426000D03*
X162560000Y-106426000D03*
D22*
X160020000Y-106426000D03*
G04 #@! TD*
D23*
G04 #@! TO.C,R1*
X166370000Y-111252000D03*
D11*
X156210000Y-111252000D03*
G04 #@! TD*
G04 #@! TO.C,R2*
X156210000Y-114554000D03*
D23*
X166370000Y-114554000D03*
G04 #@! TD*
G04 #@! TO.C,R3*
X134874000Y-107696000D03*
D11*
X124714000Y-107696000D03*
G04 #@! TD*
G04 #@! TO.C,R4*
X105664000Y-114808000D03*
D23*
X105664000Y-104648000D03*
G04 #@! TD*
D19*
G04 #@! TO.C,RV1*
X93218000Y-90170000D03*
D20*
X93218000Y-92710000D03*
X93218000Y-95250000D03*
G04 #@! TD*
D24*
G04 #@! TO.C,RV2*
X127460000Y-112268000D03*
X130000000Y-117348000D03*
X132540000Y-112268000D03*
G04 #@! TD*
D19*
G04 #@! TO.C,SW1*
X104902000Y-84500000D03*
D20*
X104902000Y-81960000D03*
G04 #@! TD*
D10*
G04 #@! TO.C,U1*
X100330000Y-93726000D03*
D23*
X107950000Y-101346000D03*
X100330000Y-96266000D03*
X107950000Y-98806000D03*
X100330000Y-98806000D03*
X107950000Y-96266000D03*
X100330000Y-101346000D03*
X107950000Y-93726000D03*
G04 #@! TD*
D11*
G04 #@! TO.C,C2*
X99314000Y-111106000D03*
X94314000Y-111106000D03*
G04 #@! TD*
G04 #@! TO.C,C3*
X152480000Y-93326000D03*
X157480000Y-93326000D03*
G04 #@! TD*
G04 #@! TO.C,C4*
X158750000Y-117748000D03*
X163750000Y-117748000D03*
G04 #@! TD*
M02*
