M48
; DRILL file {KiCad (5.1.7)-1} date 11/30/21 18:20:47
; FORMAT={-:-/ absolute / inch / decimal}
; #@! TF.CreationDate,2021-11-30T18:20:47-06:00
; #@! TF.GenerationSoftware,Kicad,Pcbnew,(5.1.7)-1
; #@! TF.FileFunction,Plated,1,2,PTH
FMAT,2
INCH
T1C0.0157
T2C0.0295
T3C0.0315
T4C0.0354
T5C0.0394
T6C0.0433
T7C0.1063
%
G90
G05
T1
X3.75Y-3.75
X3.885Y-4.195
X4.445Y-3.895
X5.09Y-4.17
T2
X6.3Y-4.19
X6.35Y-4.19
X6.4Y-4.19
T3
X5.0181Y-4.42
X5.1181Y-4.62
X5.2181Y-4.42
X6.15Y-4.38
X6.55Y-4.38
X4.16Y-4.12
X4.16Y-4.52
X6.0031Y-3.6743
X6.2Y-3.6743
X6.15Y-4.51
X6.55Y-4.51
X5.5Y-4.48
X5.5Y-4.6178
X3.95Y-3.69
X3.95Y-3.79
X3.95Y-3.89
X3.95Y-3.99
X4.25Y-3.69
X4.25Y-3.79
X4.25Y-3.89
X4.25Y-3.99
X3.7131Y-4.3743
X3.91Y-4.3743
X6.25Y-4.6357
X6.4469Y-4.6357
X4.91Y-4.24
X5.31Y-4.24
T4
X3.73Y-3.29
X3.83Y-3.29
T5
X6.57Y-3.38
X6.57Y-3.48
X6.57Y-3.58
X6.57Y-3.68
X6.1Y-3.23
X6.2Y-3.23
X4.13Y-3.2268
X4.13Y-3.3268
X3.98Y-3.2268
X3.98Y-3.3268
X4.7Y-4.4231
X4.7Y-4.62
X3.67Y-3.55
X3.67Y-3.65
X3.67Y-3.75
T6
X3.82Y-3.53
X3.82Y-3.93
T7
X6.1713Y-4.9508
X4.065Y-4.9508
T0
M30
