G04 #@! TF.GenerationSoftware,KiCad,Pcbnew,(5.1.7)-1*
G04 #@! TF.CreationDate,2021-11-30T18:20:46-06:00*
G04 #@! TF.ProjectId,InternalAmpLM386,496e7465-726e-4616-9c41-6d704c4d3338,rev?*
G04 #@! TF.SameCoordinates,Original*
G04 #@! TF.FileFunction,Legend,Top*
G04 #@! TF.FilePolarity,Positive*
%FSLAX46Y46*%
G04 Gerber Fmt 4.6, Leading zero omitted, Abs format (unit mm)*
G04 Created by KiCad (PCBNEW (5.1.7)-1) date 2021-11-30 18:20:46*
%MOMM*%
%LPD*%
G01*
G04 APERTURE LIST*
%ADD10C,0.200000*%
%ADD11C,0.150000*%
%ADD12C,0.120000*%
G04 APERTURE END LIST*
D10*
X119714285Y-121728571D02*
X120571428Y-121728571D01*
X120142857Y-123228571D02*
X120142857Y-121728571D01*
X121071428Y-123228571D02*
X121071428Y-121728571D01*
X121714285Y-123228571D02*
X121714285Y-122442857D01*
X121642857Y-122300000D01*
X121500000Y-122228571D01*
X121285714Y-122228571D01*
X121142857Y-122300000D01*
X121071428Y-122371428D01*
X122642857Y-123228571D02*
X122500000Y-123157142D01*
X122428571Y-123085714D01*
X122357142Y-122942857D01*
X122357142Y-122514285D01*
X122428571Y-122371428D01*
X122500000Y-122300000D01*
X122642857Y-122228571D01*
X122857142Y-122228571D01*
X123000000Y-122300000D01*
X123071428Y-122371428D01*
X123142857Y-122514285D01*
X123142857Y-122942857D01*
X123071428Y-123085714D01*
X123000000Y-123157142D01*
X122857142Y-123228571D01*
X122642857Y-123228571D01*
X123785714Y-123228571D02*
X123785714Y-122228571D01*
X123785714Y-122371428D02*
X123857142Y-122300000D01*
X124000000Y-122228571D01*
X124214285Y-122228571D01*
X124357142Y-122300000D01*
X124428571Y-122442857D01*
X124428571Y-123228571D01*
X124428571Y-122442857D02*
X124500000Y-122300000D01*
X124642857Y-122228571D01*
X124857142Y-122228571D01*
X125000000Y-122300000D01*
X125071428Y-122442857D01*
X125071428Y-123228571D01*
X126428571Y-123228571D02*
X126428571Y-122442857D01*
X126357142Y-122300000D01*
X126214285Y-122228571D01*
X125928571Y-122228571D01*
X125785714Y-122300000D01*
X126428571Y-123157142D02*
X126285714Y-123228571D01*
X125928571Y-123228571D01*
X125785714Y-123157142D01*
X125714285Y-123014285D01*
X125714285Y-122871428D01*
X125785714Y-122728571D01*
X125928571Y-122657142D01*
X126285714Y-122657142D01*
X126428571Y-122585714D01*
X127071428Y-123157142D02*
X127214285Y-123228571D01*
X127500000Y-123228571D01*
X127642857Y-123157142D01*
X127714285Y-123014285D01*
X127714285Y-122942857D01*
X127642857Y-122800000D01*
X127500000Y-122728571D01*
X127285714Y-122728571D01*
X127142857Y-122657142D01*
X127071428Y-122514285D01*
X127071428Y-122442857D01*
X127142857Y-122300000D01*
X127285714Y-122228571D01*
X127500000Y-122228571D01*
X127642857Y-122300000D01*
X129500000Y-123228571D02*
X129500000Y-121728571D01*
X130000000Y-122800000D01*
X130500000Y-121728571D01*
X130500000Y-123228571D01*
X131857142Y-123157142D02*
X131714285Y-123228571D01*
X131428571Y-123228571D01*
X131285714Y-123157142D01*
X131214285Y-123085714D01*
X131142857Y-122942857D01*
X131142857Y-122514285D01*
X131214285Y-122371428D01*
X131285714Y-122300000D01*
X131428571Y-122228571D01*
X131714285Y-122228571D01*
X131857142Y-122300000D01*
X132500000Y-123228571D02*
X132500000Y-121728571D01*
X132857142Y-121728571D01*
X133071428Y-121800000D01*
X133214285Y-121942857D01*
X133285714Y-122085714D01*
X133357142Y-122371428D01*
X133357142Y-122585714D01*
X133285714Y-122871428D01*
X133214285Y-123014285D01*
X133071428Y-123157142D01*
X132857142Y-123228571D01*
X132500000Y-123228571D01*
X134214285Y-123228571D02*
X134071428Y-123157142D01*
X134000000Y-123085714D01*
X133928571Y-122942857D01*
X133928571Y-122514285D01*
X134000000Y-122371428D01*
X134071428Y-122300000D01*
X134214285Y-122228571D01*
X134428571Y-122228571D01*
X134571428Y-122300000D01*
X134642857Y-122371428D01*
X134714285Y-122514285D01*
X134714285Y-122942857D01*
X134642857Y-123085714D01*
X134571428Y-123157142D01*
X134428571Y-123228571D01*
X134214285Y-123228571D01*
X135357142Y-122228571D02*
X135357142Y-123228571D01*
X135357142Y-122371428D02*
X135428571Y-122300000D01*
X135571428Y-122228571D01*
X135785714Y-122228571D01*
X135928571Y-122300000D01*
X136000000Y-122442857D01*
X136000000Y-123228571D01*
X137357142Y-123228571D02*
X137357142Y-122442857D01*
X137285714Y-122300000D01*
X137142857Y-122228571D01*
X136857142Y-122228571D01*
X136714285Y-122300000D01*
X137357142Y-123157142D02*
X137214285Y-123228571D01*
X136857142Y-123228571D01*
X136714285Y-123157142D01*
X136642857Y-123014285D01*
X136642857Y-122871428D01*
X136714285Y-122728571D01*
X136857142Y-122657142D01*
X137214285Y-122657142D01*
X137357142Y-122585714D01*
X138714285Y-122228571D02*
X138714285Y-123442857D01*
X138642857Y-123585714D01*
X138571428Y-123657142D01*
X138428571Y-123728571D01*
X138214285Y-123728571D01*
X138071428Y-123657142D01*
X138714285Y-123157142D02*
X138571428Y-123228571D01*
X138285714Y-123228571D01*
X138142857Y-123157142D01*
X138071428Y-123085714D01*
X138000000Y-122942857D01*
X138000000Y-122514285D01*
X138071428Y-122371428D01*
X138142857Y-122300000D01*
X138285714Y-122228571D01*
X138571428Y-122228571D01*
X138714285Y-122300000D01*
X139428571Y-123228571D02*
X139428571Y-121728571D01*
X140071428Y-123228571D02*
X140071428Y-122442857D01*
X140000000Y-122300000D01*
X139857142Y-122228571D01*
X139642857Y-122228571D01*
X139500000Y-122300000D01*
X139428571Y-122371428D01*
X120321428Y-125607142D02*
X120178571Y-125678571D01*
X119892857Y-125678571D01*
X119750000Y-125607142D01*
X119678571Y-125535714D01*
X119607142Y-125392857D01*
X119607142Y-124964285D01*
X119678571Y-124821428D01*
X119750000Y-124750000D01*
X119892857Y-124678571D01*
X120178571Y-124678571D01*
X120321428Y-124750000D01*
X121178571Y-125678571D02*
X121035714Y-125607142D01*
X120964285Y-125535714D01*
X120892857Y-125392857D01*
X120892857Y-124964285D01*
X120964285Y-124821428D01*
X121035714Y-124750000D01*
X121178571Y-124678571D01*
X121392857Y-124678571D01*
X121535714Y-124750000D01*
X121607142Y-124821428D01*
X121678571Y-124964285D01*
X121678571Y-125392857D01*
X121607142Y-125535714D01*
X121535714Y-125607142D01*
X121392857Y-125678571D01*
X121178571Y-125678571D01*
X122321428Y-124678571D02*
X122321428Y-125678571D01*
X122321428Y-124821428D02*
X122392857Y-124750000D01*
X122535714Y-124678571D01*
X122750000Y-124678571D01*
X122892857Y-124750000D01*
X122964285Y-124892857D01*
X122964285Y-125678571D01*
X123607142Y-125607142D02*
X123750000Y-125678571D01*
X124035714Y-125678571D01*
X124178571Y-125607142D01*
X124250000Y-125464285D01*
X124250000Y-125392857D01*
X124178571Y-125250000D01*
X124035714Y-125178571D01*
X123821428Y-125178571D01*
X123678571Y-125107142D01*
X123607142Y-124964285D01*
X123607142Y-124892857D01*
X123678571Y-124750000D01*
X123821428Y-124678571D01*
X124035714Y-124678571D01*
X124178571Y-124750000D01*
X125107142Y-125678571D02*
X124964285Y-125607142D01*
X124892857Y-125535714D01*
X124821428Y-125392857D01*
X124821428Y-124964285D01*
X124892857Y-124821428D01*
X124964285Y-124750000D01*
X125107142Y-124678571D01*
X125321428Y-124678571D01*
X125464285Y-124750000D01*
X125535714Y-124821428D01*
X125607142Y-124964285D01*
X125607142Y-125392857D01*
X125535714Y-125535714D01*
X125464285Y-125607142D01*
X125321428Y-125678571D01*
X125107142Y-125678571D01*
X126464285Y-125678571D02*
X126321428Y-125607142D01*
X126250000Y-125464285D01*
X126250000Y-124178571D01*
X127607142Y-125607142D02*
X127464285Y-125678571D01*
X127178571Y-125678571D01*
X127035714Y-125607142D01*
X126964285Y-125464285D01*
X126964285Y-124892857D01*
X127035714Y-124750000D01*
X127178571Y-124678571D01*
X127464285Y-124678571D01*
X127607142Y-124750000D01*
X127678571Y-124892857D01*
X127678571Y-125035714D01*
X126964285Y-125178571D01*
X128321428Y-124678571D02*
X128321428Y-126178571D01*
X128321428Y-124750000D02*
X128464285Y-124678571D01*
X128750000Y-124678571D01*
X128892857Y-124750000D01*
X128964285Y-124821428D01*
X129035714Y-124964285D01*
X129035714Y-125392857D01*
X128964285Y-125535714D01*
X128892857Y-125607142D01*
X128750000Y-125678571D01*
X128464285Y-125678571D01*
X128321428Y-125607142D01*
X130250000Y-125607142D02*
X130107142Y-125678571D01*
X129821428Y-125678571D01*
X129678571Y-125607142D01*
X129607142Y-125464285D01*
X129607142Y-124892857D01*
X129678571Y-124750000D01*
X129821428Y-124678571D01*
X130107142Y-124678571D01*
X130250000Y-124750000D01*
X130321428Y-124892857D01*
X130321428Y-125035714D01*
X129607142Y-125178571D01*
X131607142Y-125678571D02*
X131607142Y-124178571D01*
X131607142Y-125607142D02*
X131464285Y-125678571D01*
X131178571Y-125678571D01*
X131035714Y-125607142D01*
X130964285Y-125535714D01*
X130892857Y-125392857D01*
X130892857Y-124964285D01*
X130964285Y-124821428D01*
X131035714Y-124750000D01*
X131178571Y-124678571D01*
X131464285Y-124678571D01*
X131607142Y-124750000D01*
X132964285Y-125678571D02*
X132964285Y-124892857D01*
X132892857Y-124750000D01*
X132750000Y-124678571D01*
X132464285Y-124678571D01*
X132321428Y-124750000D01*
X132964285Y-125607142D02*
X132821428Y-125678571D01*
X132464285Y-125678571D01*
X132321428Y-125607142D01*
X132250000Y-125464285D01*
X132250000Y-125321428D01*
X132321428Y-125178571D01*
X132464285Y-125107142D01*
X132821428Y-125107142D01*
X132964285Y-125035714D01*
X133892857Y-125678571D02*
X133750000Y-125607142D01*
X133678571Y-125464285D01*
X133678571Y-124178571D01*
X134392857Y-125607142D02*
X134535714Y-125678571D01*
X134821428Y-125678571D01*
X134964285Y-125607142D01*
X135035714Y-125464285D01*
X135035714Y-125392857D01*
X134964285Y-125250000D01*
X134821428Y-125178571D01*
X134607142Y-125178571D01*
X134464285Y-125107142D01*
X134392857Y-124964285D01*
X134392857Y-124892857D01*
X134464285Y-124750000D01*
X134607142Y-124678571D01*
X134821428Y-124678571D01*
X134964285Y-124750000D01*
X135678571Y-125535714D02*
X135750000Y-125607142D01*
X135678571Y-125678571D01*
X135607142Y-125607142D01*
X135678571Y-125535714D01*
X135678571Y-125678571D01*
X137035714Y-125607142D02*
X136892857Y-125678571D01*
X136607142Y-125678571D01*
X136464285Y-125607142D01*
X136392857Y-125535714D01*
X136321428Y-125392857D01*
X136321428Y-124964285D01*
X136392857Y-124821428D01*
X136464285Y-124750000D01*
X136607142Y-124678571D01*
X136892857Y-124678571D01*
X137035714Y-124750000D01*
X137892857Y-125678571D02*
X137750000Y-125607142D01*
X137678571Y-125535714D01*
X137607142Y-125392857D01*
X137607142Y-124964285D01*
X137678571Y-124821428D01*
X137750000Y-124750000D01*
X137892857Y-124678571D01*
X138107142Y-124678571D01*
X138250000Y-124750000D01*
X138321428Y-124821428D01*
X138392857Y-124964285D01*
X138392857Y-125392857D01*
X138321428Y-125535714D01*
X138250000Y-125607142D01*
X138107142Y-125678571D01*
X137892857Y-125678571D01*
X139035714Y-125678571D02*
X139035714Y-124678571D01*
X139035714Y-124821428D02*
X139107142Y-124750000D01*
X139250000Y-124678571D01*
X139464285Y-124678571D01*
X139607142Y-124750000D01*
X139678571Y-124892857D01*
X139678571Y-125678571D01*
X139678571Y-124892857D02*
X139750000Y-124750000D01*
X139892857Y-124678571D01*
X140107142Y-124678571D01*
X140250000Y-124750000D01*
X140321428Y-124892857D01*
X140321428Y-125678571D01*
X115964285Y-128128571D02*
X115964285Y-126628571D01*
X116678571Y-127128571D02*
X116678571Y-128128571D01*
X116678571Y-127271428D02*
X116750000Y-127200000D01*
X116892857Y-127128571D01*
X117107142Y-127128571D01*
X117250000Y-127200000D01*
X117321428Y-127342857D01*
X117321428Y-128128571D01*
X117821428Y-127128571D02*
X118392857Y-127128571D01*
X118035714Y-126628571D02*
X118035714Y-127914285D01*
X118107142Y-128057142D01*
X118250000Y-128128571D01*
X118392857Y-128128571D01*
X119464285Y-128057142D02*
X119321428Y-128128571D01*
X119035714Y-128128571D01*
X118892857Y-128057142D01*
X118821428Y-127914285D01*
X118821428Y-127342857D01*
X118892857Y-127200000D01*
X119035714Y-127128571D01*
X119321428Y-127128571D01*
X119464285Y-127200000D01*
X119535714Y-127342857D01*
X119535714Y-127485714D01*
X118821428Y-127628571D01*
X120178571Y-128128571D02*
X120178571Y-127128571D01*
X120178571Y-127414285D02*
X120250000Y-127271428D01*
X120321428Y-127200000D01*
X120464285Y-127128571D01*
X120607142Y-127128571D01*
X121107142Y-127128571D02*
X121107142Y-128128571D01*
X121107142Y-127271428D02*
X121178571Y-127200000D01*
X121321428Y-127128571D01*
X121535714Y-127128571D01*
X121678571Y-127200000D01*
X121750000Y-127342857D01*
X121750000Y-128128571D01*
X123107142Y-128128571D02*
X123107142Y-127342857D01*
X123035714Y-127200000D01*
X122892857Y-127128571D01*
X122607142Y-127128571D01*
X122464285Y-127200000D01*
X123107142Y-128057142D02*
X122964285Y-128128571D01*
X122607142Y-128128571D01*
X122464285Y-128057142D01*
X122392857Y-127914285D01*
X122392857Y-127771428D01*
X122464285Y-127628571D01*
X122607142Y-127557142D01*
X122964285Y-127557142D01*
X123107142Y-127485714D01*
X124035714Y-128128571D02*
X123892857Y-128057142D01*
X123821428Y-127914285D01*
X123821428Y-126628571D01*
X126464285Y-128128571D02*
X125750000Y-128128571D01*
X125750000Y-126628571D01*
X126964285Y-128128571D02*
X126964285Y-126628571D01*
X127464285Y-127700000D01*
X127964285Y-126628571D01*
X127964285Y-128128571D01*
X128535714Y-126628571D02*
X129464285Y-126628571D01*
X128964285Y-127200000D01*
X129178571Y-127200000D01*
X129321428Y-127271428D01*
X129392857Y-127342857D01*
X129464285Y-127485714D01*
X129464285Y-127842857D01*
X129392857Y-127985714D01*
X129321428Y-128057142D01*
X129178571Y-128128571D01*
X128750000Y-128128571D01*
X128607142Y-128057142D01*
X128535714Y-127985714D01*
X130321428Y-127271428D02*
X130178571Y-127200000D01*
X130107142Y-127128571D01*
X130035714Y-126985714D01*
X130035714Y-126914285D01*
X130107142Y-126771428D01*
X130178571Y-126700000D01*
X130321428Y-126628571D01*
X130607142Y-126628571D01*
X130750000Y-126700000D01*
X130821428Y-126771428D01*
X130892857Y-126914285D01*
X130892857Y-126985714D01*
X130821428Y-127128571D01*
X130750000Y-127200000D01*
X130607142Y-127271428D01*
X130321428Y-127271428D01*
X130178571Y-127342857D01*
X130107142Y-127414285D01*
X130035714Y-127557142D01*
X130035714Y-127842857D01*
X130107142Y-127985714D01*
X130178571Y-128057142D01*
X130321428Y-128128571D01*
X130607142Y-128128571D01*
X130750000Y-128057142D01*
X130821428Y-127985714D01*
X130892857Y-127842857D01*
X130892857Y-127557142D01*
X130821428Y-127414285D01*
X130750000Y-127342857D01*
X130607142Y-127271428D01*
X132178571Y-126628571D02*
X131892857Y-126628571D01*
X131750000Y-126700000D01*
X131678571Y-126771428D01*
X131535714Y-126985714D01*
X131464285Y-127271428D01*
X131464285Y-127842857D01*
X131535714Y-127985714D01*
X131607142Y-128057142D01*
X131750000Y-128128571D01*
X132035714Y-128128571D01*
X132178571Y-128057142D01*
X132250000Y-127985714D01*
X132321428Y-127842857D01*
X132321428Y-127485714D01*
X132250000Y-127342857D01*
X132178571Y-127271428D01*
X132035714Y-127200000D01*
X131750000Y-127200000D01*
X131607142Y-127271428D01*
X131535714Y-127342857D01*
X131464285Y-127485714D01*
X134035714Y-127700000D02*
X134750000Y-127700000D01*
X133892857Y-128128571D02*
X134392857Y-126628571D01*
X134892857Y-128128571D01*
X135392857Y-128128571D02*
X135392857Y-127128571D01*
X135392857Y-127271428D02*
X135464285Y-127200000D01*
X135607142Y-127128571D01*
X135821428Y-127128571D01*
X135964285Y-127200000D01*
X136035714Y-127342857D01*
X136035714Y-128128571D01*
X136035714Y-127342857D02*
X136107142Y-127200000D01*
X136250000Y-127128571D01*
X136464285Y-127128571D01*
X136607142Y-127200000D01*
X136678571Y-127342857D01*
X136678571Y-128128571D01*
X137392857Y-127128571D02*
X137392857Y-128628571D01*
X137392857Y-127200000D02*
X137535714Y-127128571D01*
X137821428Y-127128571D01*
X137964285Y-127200000D01*
X138035714Y-127271428D01*
X138107142Y-127414285D01*
X138107142Y-127842857D01*
X138035714Y-127985714D01*
X137964285Y-128057142D01*
X137821428Y-128128571D01*
X137535714Y-128128571D01*
X137392857Y-128057142D01*
X139678571Y-126628571D02*
X140178571Y-128128571D01*
X140678571Y-126628571D01*
X141964285Y-128128571D02*
X141107142Y-128128571D01*
X141535714Y-128128571D02*
X141535714Y-126628571D01*
X141392857Y-126842857D01*
X141250000Y-126985714D01*
X141107142Y-127057142D01*
X142607142Y-127985714D02*
X142678571Y-128057142D01*
X142607142Y-128128571D01*
X142535714Y-128057142D01*
X142607142Y-127985714D01*
X142607142Y-128128571D01*
X143607142Y-126628571D02*
X143750000Y-126628571D01*
X143892857Y-126700000D01*
X143964285Y-126771428D01*
X144035714Y-126914285D01*
X144107142Y-127200000D01*
X144107142Y-127557142D01*
X144035714Y-127842857D01*
X143964285Y-127985714D01*
X143892857Y-128057142D01*
X143750000Y-128128571D01*
X143607142Y-128128571D01*
X143464285Y-128057142D01*
X143392857Y-127985714D01*
X143321428Y-127842857D01*
X143250000Y-127557142D01*
X143250000Y-127200000D01*
X143321428Y-126914285D01*
X143392857Y-126771428D01*
X143464285Y-126700000D01*
X143607142Y-126628571D01*
D11*
X163210952Y-86304380D02*
X163401428Y-86304380D01*
X163496666Y-86256761D01*
X163544285Y-86209142D01*
X163639523Y-86066285D01*
X163687142Y-85875809D01*
X163687142Y-85494857D01*
X163639523Y-85399619D01*
X163591904Y-85352000D01*
X163496666Y-85304380D01*
X163306190Y-85304380D01*
X163210952Y-85352000D01*
X163163333Y-85399619D01*
X163115714Y-85494857D01*
X163115714Y-85732952D01*
X163163333Y-85828190D01*
X163210952Y-85875809D01*
X163306190Y-85923428D01*
X163496666Y-85923428D01*
X163591904Y-85875809D01*
X163639523Y-85828190D01*
X163687142Y-85732952D01*
X163972857Y-85304380D02*
X164306190Y-86304380D01*
X164639523Y-85304380D01*
X163377619Y-88844380D02*
X163377619Y-87844380D01*
X163853809Y-88177714D02*
X163853809Y-88844380D01*
X163853809Y-88272952D02*
X163901428Y-88225333D01*
X163996666Y-88177714D01*
X164139523Y-88177714D01*
X164234761Y-88225333D01*
X164282380Y-88320571D01*
X164282380Y-88844380D01*
X163068095Y-90432000D02*
X162972857Y-90384380D01*
X162830000Y-90384380D01*
X162687142Y-90432000D01*
X162591904Y-90527238D01*
X162544285Y-90622476D01*
X162496666Y-90812952D01*
X162496666Y-90955809D01*
X162544285Y-91146285D01*
X162591904Y-91241523D01*
X162687142Y-91336761D01*
X162830000Y-91384380D01*
X162925238Y-91384380D01*
X163068095Y-91336761D01*
X163115714Y-91289142D01*
X163115714Y-90955809D01*
X162925238Y-90955809D01*
X163544285Y-91384380D02*
X163544285Y-90384380D01*
X164115714Y-91384380D01*
X164115714Y-90384380D01*
X164591904Y-91384380D02*
X164591904Y-90384380D01*
X164830000Y-90384380D01*
X164972857Y-90432000D01*
X165068095Y-90527238D01*
X165115714Y-90622476D01*
X165163333Y-90812952D01*
X165163333Y-90955809D01*
X165115714Y-91146285D01*
X165068095Y-91241523D01*
X164972857Y-91336761D01*
X164830000Y-91384380D01*
X164591904Y-91384380D01*
X163068095Y-92972000D02*
X162972857Y-92924380D01*
X162830000Y-92924380D01*
X162687142Y-92972000D01*
X162591904Y-93067238D01*
X162544285Y-93162476D01*
X162496666Y-93352952D01*
X162496666Y-93495809D01*
X162544285Y-93686285D01*
X162591904Y-93781523D01*
X162687142Y-93876761D01*
X162830000Y-93924380D01*
X162925238Y-93924380D01*
X163068095Y-93876761D01*
X163115714Y-93829142D01*
X163115714Y-93495809D01*
X162925238Y-93495809D01*
X163544285Y-93924380D02*
X163544285Y-92924380D01*
X164115714Y-93924380D01*
X164115714Y-92924380D01*
X164591904Y-93924380D02*
X164591904Y-92924380D01*
X164830000Y-92924380D01*
X164972857Y-92972000D01*
X165068095Y-93067238D01*
X165115714Y-93162476D01*
X165163333Y-93352952D01*
X165163333Y-93495809D01*
X165115714Y-93686285D01*
X165068095Y-93781523D01*
X164972857Y-93876761D01*
X164830000Y-93924380D01*
X164591904Y-93924380D01*
X156980000Y-85851904D02*
X156932380Y-85947142D01*
X156932380Y-86090000D01*
X156980000Y-86232857D01*
X157075238Y-86328095D01*
X157170476Y-86375714D01*
X157360952Y-86423333D01*
X157503809Y-86423333D01*
X157694285Y-86375714D01*
X157789523Y-86328095D01*
X157884761Y-86232857D01*
X157932380Y-86090000D01*
X157932380Y-85994761D01*
X157884761Y-85851904D01*
X157837142Y-85804285D01*
X157503809Y-85804285D01*
X157503809Y-85994761D01*
X157932380Y-85375714D02*
X156932380Y-85375714D01*
X157932380Y-84804285D01*
X156932380Y-84804285D01*
X157932380Y-84328095D02*
X156932380Y-84328095D01*
X156932380Y-84090000D01*
X156980000Y-83947142D01*
X157075238Y-83851904D01*
X157170476Y-83804285D01*
X157360952Y-83756666D01*
X157503809Y-83756666D01*
X157694285Y-83804285D01*
X157789523Y-83851904D01*
X157884761Y-83947142D01*
X157932380Y-84090000D01*
X157932380Y-84328095D01*
X155392380Y-85709047D02*
X155392380Y-85518571D01*
X155344761Y-85423333D01*
X155297142Y-85375714D01*
X155154285Y-85280476D01*
X154963809Y-85232857D01*
X154582857Y-85232857D01*
X154487619Y-85280476D01*
X154440000Y-85328095D01*
X154392380Y-85423333D01*
X154392380Y-85613809D01*
X154440000Y-85709047D01*
X154487619Y-85756666D01*
X154582857Y-85804285D01*
X154820952Y-85804285D01*
X154916190Y-85756666D01*
X154963809Y-85709047D01*
X155011428Y-85613809D01*
X155011428Y-85423333D01*
X154963809Y-85328095D01*
X154916190Y-85280476D01*
X154820952Y-85232857D01*
X154392380Y-84947142D02*
X155392380Y-84613809D01*
X154392380Y-84280476D01*
D12*
G04 #@! TO.C,C1*
X142415000Y-111532302D02*
X141615000Y-111532302D01*
X142015000Y-111132302D02*
X142015000Y-111932302D01*
X140233000Y-119623000D02*
X139167000Y-119623000D01*
X140468000Y-119583000D02*
X138932000Y-119583000D01*
X140648000Y-119543000D02*
X138752000Y-119543000D01*
X140798000Y-119503000D02*
X138602000Y-119503000D01*
X140929000Y-119463000D02*
X138471000Y-119463000D01*
X141046000Y-119423000D02*
X138354000Y-119423000D01*
X141153000Y-119383000D02*
X138247000Y-119383000D01*
X141252000Y-119343000D02*
X138148000Y-119343000D01*
X141345000Y-119303000D02*
X138055000Y-119303000D01*
X141431000Y-119263000D02*
X137969000Y-119263000D01*
X141513000Y-119223000D02*
X137887000Y-119223000D01*
X141590000Y-119183000D02*
X137810000Y-119183000D01*
X141664000Y-119143000D02*
X137736000Y-119143000D01*
X141734000Y-119103000D02*
X137666000Y-119103000D01*
X141802000Y-119063000D02*
X137598000Y-119063000D01*
X141866000Y-119023000D02*
X137534000Y-119023000D01*
X141928000Y-118983000D02*
X137472000Y-118983000D01*
X141987000Y-118943000D02*
X137413000Y-118943000D01*
X142045000Y-118903000D02*
X137355000Y-118903000D01*
X142100000Y-118863000D02*
X137300000Y-118863000D01*
X142154000Y-118823000D02*
X137246000Y-118823000D01*
X142205000Y-118783000D02*
X137195000Y-118783000D01*
X142256000Y-118743000D02*
X137144000Y-118743000D01*
X142304000Y-118703000D02*
X137096000Y-118703000D01*
X142351000Y-118663000D02*
X137049000Y-118663000D01*
X142397000Y-118623000D02*
X137003000Y-118623000D01*
X142441000Y-118583000D02*
X136959000Y-118583000D01*
X142484000Y-118543000D02*
X136916000Y-118543000D01*
X142526000Y-118503000D02*
X136874000Y-118503000D01*
X142567000Y-118463000D02*
X136833000Y-118463000D01*
X142607000Y-118423000D02*
X136793000Y-118423000D01*
X142645000Y-118383000D02*
X136755000Y-118383000D01*
X142683000Y-118343000D02*
X136717000Y-118343000D01*
X138660000Y-118303000D02*
X136681000Y-118303000D01*
X142719000Y-118303000D02*
X140740000Y-118303000D01*
X138660000Y-118263000D02*
X136645000Y-118263000D01*
X142755000Y-118263000D02*
X140740000Y-118263000D01*
X138660000Y-118223000D02*
X136610000Y-118223000D01*
X142790000Y-118223000D02*
X140740000Y-118223000D01*
X138660000Y-118183000D02*
X136576000Y-118183000D01*
X142824000Y-118183000D02*
X140740000Y-118183000D01*
X138660000Y-118143000D02*
X136544000Y-118143000D01*
X142856000Y-118143000D02*
X140740000Y-118143000D01*
X138660000Y-118103000D02*
X136511000Y-118103000D01*
X142889000Y-118103000D02*
X140740000Y-118103000D01*
X138660000Y-118063000D02*
X136480000Y-118063000D01*
X142920000Y-118063000D02*
X140740000Y-118063000D01*
X138660000Y-118023000D02*
X136450000Y-118023000D01*
X142950000Y-118023000D02*
X140740000Y-118023000D01*
X138660000Y-117983000D02*
X136420000Y-117983000D01*
X142980000Y-117983000D02*
X140740000Y-117983000D01*
X138660000Y-117943000D02*
X136391000Y-117943000D01*
X143009000Y-117943000D02*
X140740000Y-117943000D01*
X138660000Y-117903000D02*
X136362000Y-117903000D01*
X143038000Y-117903000D02*
X140740000Y-117903000D01*
X138660000Y-117863000D02*
X136335000Y-117863000D01*
X143065000Y-117863000D02*
X140740000Y-117863000D01*
X138660000Y-117823000D02*
X136308000Y-117823000D01*
X143092000Y-117823000D02*
X140740000Y-117823000D01*
X138660000Y-117783000D02*
X136282000Y-117783000D01*
X143118000Y-117783000D02*
X140740000Y-117783000D01*
X138660000Y-117743000D02*
X136256000Y-117743000D01*
X143144000Y-117743000D02*
X140740000Y-117743000D01*
X138660000Y-117703000D02*
X136231000Y-117703000D01*
X143169000Y-117703000D02*
X140740000Y-117703000D01*
X138660000Y-117663000D02*
X136207000Y-117663000D01*
X143193000Y-117663000D02*
X140740000Y-117663000D01*
X138660000Y-117623000D02*
X136183000Y-117623000D01*
X143217000Y-117623000D02*
X140740000Y-117623000D01*
X138660000Y-117583000D02*
X136160000Y-117583000D01*
X143240000Y-117583000D02*
X140740000Y-117583000D01*
X138660000Y-117543000D02*
X136138000Y-117543000D01*
X143262000Y-117543000D02*
X140740000Y-117543000D01*
X138660000Y-117503000D02*
X136116000Y-117503000D01*
X143284000Y-117503000D02*
X140740000Y-117503000D01*
X138660000Y-117463000D02*
X136094000Y-117463000D01*
X143306000Y-117463000D02*
X140740000Y-117463000D01*
X138660000Y-117423000D02*
X136073000Y-117423000D01*
X143327000Y-117423000D02*
X140740000Y-117423000D01*
X138660000Y-117383000D02*
X136053000Y-117383000D01*
X143347000Y-117383000D02*
X140740000Y-117383000D01*
X138660000Y-117343000D02*
X136034000Y-117343000D01*
X143366000Y-117343000D02*
X140740000Y-117343000D01*
X138660000Y-117303000D02*
X136014000Y-117303000D01*
X143386000Y-117303000D02*
X140740000Y-117303000D01*
X138660000Y-117263000D02*
X135996000Y-117263000D01*
X143404000Y-117263000D02*
X140740000Y-117263000D01*
X138660000Y-117223000D02*
X135978000Y-117223000D01*
X143422000Y-117223000D02*
X140740000Y-117223000D01*
X138660000Y-117183000D02*
X135960000Y-117183000D01*
X143440000Y-117183000D02*
X140740000Y-117183000D01*
X138660000Y-117143000D02*
X135943000Y-117143000D01*
X143457000Y-117143000D02*
X140740000Y-117143000D01*
X138660000Y-117103000D02*
X135926000Y-117103000D01*
X143474000Y-117103000D02*
X140740000Y-117103000D01*
X138660000Y-117063000D02*
X135910000Y-117063000D01*
X143490000Y-117063000D02*
X140740000Y-117063000D01*
X138660000Y-117023000D02*
X135895000Y-117023000D01*
X143505000Y-117023000D02*
X140740000Y-117023000D01*
X138660000Y-116983000D02*
X135879000Y-116983000D01*
X143521000Y-116983000D02*
X140740000Y-116983000D01*
X138660000Y-116943000D02*
X135865000Y-116943000D01*
X143535000Y-116943000D02*
X140740000Y-116943000D01*
X138660000Y-116903000D02*
X135850000Y-116903000D01*
X143550000Y-116903000D02*
X140740000Y-116903000D01*
X138660000Y-116863000D02*
X135837000Y-116863000D01*
X143563000Y-116863000D02*
X140740000Y-116863000D01*
X138660000Y-116823000D02*
X135823000Y-116823000D01*
X143577000Y-116823000D02*
X140740000Y-116823000D01*
X138660000Y-116783000D02*
X135811000Y-116783000D01*
X143589000Y-116783000D02*
X140740000Y-116783000D01*
X138660000Y-116743000D02*
X135798000Y-116743000D01*
X143602000Y-116743000D02*
X140740000Y-116743000D01*
X138660000Y-116703000D02*
X135786000Y-116703000D01*
X143614000Y-116703000D02*
X140740000Y-116703000D01*
X138660000Y-116663000D02*
X135775000Y-116663000D01*
X143625000Y-116663000D02*
X140740000Y-116663000D01*
X138660000Y-116623000D02*
X135764000Y-116623000D01*
X143636000Y-116623000D02*
X140740000Y-116623000D01*
X138660000Y-116583000D02*
X135753000Y-116583000D01*
X143647000Y-116583000D02*
X140740000Y-116583000D01*
X138660000Y-116543000D02*
X135743000Y-116543000D01*
X143657000Y-116543000D02*
X140740000Y-116543000D01*
X138660000Y-116503000D02*
X135733000Y-116503000D01*
X143667000Y-116503000D02*
X140740000Y-116503000D01*
X138660000Y-116463000D02*
X135724000Y-116463000D01*
X143676000Y-116463000D02*
X140740000Y-116463000D01*
X138660000Y-116423000D02*
X135715000Y-116423000D01*
X143685000Y-116423000D02*
X140740000Y-116423000D01*
X138660000Y-116383000D02*
X135706000Y-116383000D01*
X143694000Y-116383000D02*
X140740000Y-116383000D01*
X138660000Y-116343000D02*
X135698000Y-116343000D01*
X143702000Y-116343000D02*
X140740000Y-116343000D01*
X138660000Y-116303000D02*
X135690000Y-116303000D01*
X143710000Y-116303000D02*
X140740000Y-116303000D01*
X138660000Y-116263000D02*
X135683000Y-116263000D01*
X143717000Y-116263000D02*
X140740000Y-116263000D01*
X143724000Y-116222000D02*
X135676000Y-116222000D01*
X143730000Y-116182000D02*
X135670000Y-116182000D01*
X143737000Y-116142000D02*
X135663000Y-116142000D01*
X143742000Y-116102000D02*
X135658000Y-116102000D01*
X143748000Y-116062000D02*
X135652000Y-116062000D01*
X143752000Y-116022000D02*
X135648000Y-116022000D01*
X143757000Y-115982000D02*
X135643000Y-115982000D01*
X143761000Y-115942000D02*
X135639000Y-115942000D01*
X143765000Y-115902000D02*
X135635000Y-115902000D01*
X143768000Y-115862000D02*
X135632000Y-115862000D01*
X143771000Y-115822000D02*
X135629000Y-115822000D01*
X143774000Y-115782000D02*
X135626000Y-115782000D01*
X143776000Y-115742000D02*
X135624000Y-115742000D01*
X143777000Y-115702000D02*
X135623000Y-115702000D01*
X143779000Y-115662000D02*
X135621000Y-115662000D01*
X143780000Y-115622000D02*
X135620000Y-115622000D01*
X143780000Y-115582000D02*
X135620000Y-115582000D01*
X143780000Y-115542000D02*
X135620000Y-115542000D01*
X143820000Y-115542000D02*
G75*
G03*
X143820000Y-115542000I-4120000J0D01*
G01*
G04 #@! TO.C,C5*
X116005000Y-119827646D02*
X117005000Y-119827646D01*
X116505000Y-120327646D02*
X116505000Y-119327646D01*
X118781000Y-109767000D02*
X119979000Y-109767000D01*
X118518000Y-109807000D02*
X120242000Y-109807000D01*
X118318000Y-109847000D02*
X120442000Y-109847000D01*
X118150000Y-109887000D02*
X120610000Y-109887000D01*
X118002000Y-109927000D02*
X120758000Y-109927000D01*
X117870000Y-109967000D02*
X120890000Y-109967000D01*
X117750000Y-110007000D02*
X121010000Y-110007000D01*
X117638000Y-110047000D02*
X121122000Y-110047000D01*
X117534000Y-110087000D02*
X121226000Y-110087000D01*
X117436000Y-110127000D02*
X121324000Y-110127000D01*
X117343000Y-110167000D02*
X121417000Y-110167000D01*
X117255000Y-110207000D02*
X121505000Y-110207000D01*
X117171000Y-110247000D02*
X121589000Y-110247000D01*
X117091000Y-110287000D02*
X121669000Y-110287000D01*
X117015000Y-110327000D02*
X121745000Y-110327000D01*
X116941000Y-110367000D02*
X121819000Y-110367000D01*
X116870000Y-110407000D02*
X121890000Y-110407000D01*
X116801000Y-110447000D02*
X121959000Y-110447000D01*
X116735000Y-110487000D02*
X122025000Y-110487000D01*
X116671000Y-110527000D02*
X122089000Y-110527000D01*
X116610000Y-110567000D02*
X122150000Y-110567000D01*
X116550000Y-110607000D02*
X122210000Y-110607000D01*
X116491000Y-110647000D02*
X122269000Y-110647000D01*
X116435000Y-110687000D02*
X122325000Y-110687000D01*
X116380000Y-110727000D02*
X122380000Y-110727000D01*
X116326000Y-110767000D02*
X122434000Y-110767000D01*
X116274000Y-110807000D02*
X122486000Y-110807000D01*
X116224000Y-110847000D02*
X122536000Y-110847000D01*
X116174000Y-110887000D02*
X122586000Y-110887000D01*
X116126000Y-110927000D02*
X122634000Y-110927000D01*
X116079000Y-110967000D02*
X122681000Y-110967000D01*
X116033000Y-111007000D02*
X122727000Y-111007000D01*
X115988000Y-111047000D02*
X122772000Y-111047000D01*
X115944000Y-111087000D02*
X122816000Y-111087000D01*
X120621000Y-111127000D02*
X122858000Y-111127000D01*
X115902000Y-111127000D02*
X118139000Y-111127000D01*
X120621000Y-111167000D02*
X122900000Y-111167000D01*
X115860000Y-111167000D02*
X118139000Y-111167000D01*
X120621000Y-111207000D02*
X122941000Y-111207000D01*
X115819000Y-111207000D02*
X118139000Y-111207000D01*
X120621000Y-111247000D02*
X122981000Y-111247000D01*
X115779000Y-111247000D02*
X118139000Y-111247000D01*
X120621000Y-111287000D02*
X123020000Y-111287000D01*
X115740000Y-111287000D02*
X118139000Y-111287000D01*
X120621000Y-111327000D02*
X123059000Y-111327000D01*
X115701000Y-111327000D02*
X118139000Y-111327000D01*
X120621000Y-111367000D02*
X123096000Y-111367000D01*
X115664000Y-111367000D02*
X118139000Y-111367000D01*
X120621000Y-111407000D02*
X123133000Y-111407000D01*
X115627000Y-111407000D02*
X118139000Y-111407000D01*
X120621000Y-111447000D02*
X123169000Y-111447000D01*
X115591000Y-111447000D02*
X118139000Y-111447000D01*
X120621000Y-111487000D02*
X123204000Y-111487000D01*
X115556000Y-111487000D02*
X118139000Y-111487000D01*
X120621000Y-111527000D02*
X123238000Y-111527000D01*
X115522000Y-111527000D02*
X118139000Y-111527000D01*
X120621000Y-111567000D02*
X123272000Y-111567000D01*
X115488000Y-111567000D02*
X118139000Y-111567000D01*
X120621000Y-111607000D02*
X123305000Y-111607000D01*
X115455000Y-111607000D02*
X118139000Y-111607000D01*
X120621000Y-111647000D02*
X123337000Y-111647000D01*
X115423000Y-111647000D02*
X118139000Y-111647000D01*
X120621000Y-111687000D02*
X123369000Y-111687000D01*
X115391000Y-111687000D02*
X118139000Y-111687000D01*
X120621000Y-111727000D02*
X123400000Y-111727000D01*
X115360000Y-111727000D02*
X118139000Y-111727000D01*
X120621000Y-111767000D02*
X123430000Y-111767000D01*
X115330000Y-111767000D02*
X118139000Y-111767000D01*
X120621000Y-111807000D02*
X123460000Y-111807000D01*
X115300000Y-111807000D02*
X118139000Y-111807000D01*
X120621000Y-111847000D02*
X123490000Y-111847000D01*
X115270000Y-111847000D02*
X118139000Y-111847000D01*
X120621000Y-111887000D02*
X123518000Y-111887000D01*
X115242000Y-111887000D02*
X118139000Y-111887000D01*
X120621000Y-111927000D02*
X123546000Y-111927000D01*
X115214000Y-111927000D02*
X118139000Y-111927000D01*
X120621000Y-111967000D02*
X123574000Y-111967000D01*
X115186000Y-111967000D02*
X118139000Y-111967000D01*
X120621000Y-112007000D02*
X123601000Y-112007000D01*
X115159000Y-112007000D02*
X118139000Y-112007000D01*
X120621000Y-112047000D02*
X123627000Y-112047000D01*
X115133000Y-112047000D02*
X118139000Y-112047000D01*
X120621000Y-112087000D02*
X123653000Y-112087000D01*
X115107000Y-112087000D02*
X118139000Y-112087000D01*
X120621000Y-112127000D02*
X123678000Y-112127000D01*
X115082000Y-112127000D02*
X118139000Y-112127000D01*
X120621000Y-112167000D02*
X123703000Y-112167000D01*
X115057000Y-112167000D02*
X118139000Y-112167000D01*
X120621000Y-112207000D02*
X123727000Y-112207000D01*
X115033000Y-112207000D02*
X118139000Y-112207000D01*
X120621000Y-112247000D02*
X123751000Y-112247000D01*
X115009000Y-112247000D02*
X118139000Y-112247000D01*
X120621000Y-112287000D02*
X123775000Y-112287000D01*
X114985000Y-112287000D02*
X118139000Y-112287000D01*
X120621000Y-112327000D02*
X123797000Y-112327000D01*
X114963000Y-112327000D02*
X118139000Y-112327000D01*
X120621000Y-112367000D02*
X123820000Y-112367000D01*
X114940000Y-112367000D02*
X118139000Y-112367000D01*
X120621000Y-112407000D02*
X123842000Y-112407000D01*
X114918000Y-112407000D02*
X118139000Y-112407000D01*
X120621000Y-112447000D02*
X123863000Y-112447000D01*
X114897000Y-112447000D02*
X118139000Y-112447000D01*
X120621000Y-112487000D02*
X123884000Y-112487000D01*
X114876000Y-112487000D02*
X118139000Y-112487000D01*
X120621000Y-112527000D02*
X123905000Y-112527000D01*
X114855000Y-112527000D02*
X118139000Y-112527000D01*
X120621000Y-112567000D02*
X123925000Y-112567000D01*
X114835000Y-112567000D02*
X118139000Y-112567000D01*
X120621000Y-112607000D02*
X123944000Y-112607000D01*
X114816000Y-112607000D02*
X118139000Y-112607000D01*
X120621000Y-112647000D02*
X123964000Y-112647000D01*
X114796000Y-112647000D02*
X118139000Y-112647000D01*
X120621000Y-112687000D02*
X123983000Y-112687000D01*
X114777000Y-112687000D02*
X118139000Y-112687000D01*
X120621000Y-112727000D02*
X124001000Y-112727000D01*
X114759000Y-112727000D02*
X118139000Y-112727000D01*
X120621000Y-112767000D02*
X124019000Y-112767000D01*
X114741000Y-112767000D02*
X118139000Y-112767000D01*
X120621000Y-112807000D02*
X124037000Y-112807000D01*
X114723000Y-112807000D02*
X118139000Y-112807000D01*
X120621000Y-112847000D02*
X124054000Y-112847000D01*
X114706000Y-112847000D02*
X118139000Y-112847000D01*
X120621000Y-112887000D02*
X124070000Y-112887000D01*
X114690000Y-112887000D02*
X118139000Y-112887000D01*
X120621000Y-112927000D02*
X124087000Y-112927000D01*
X114673000Y-112927000D02*
X118139000Y-112927000D01*
X120621000Y-112967000D02*
X124103000Y-112967000D01*
X114657000Y-112967000D02*
X118139000Y-112967000D01*
X120621000Y-113007000D02*
X124118000Y-113007000D01*
X114642000Y-113007000D02*
X118139000Y-113007000D01*
X120621000Y-113047000D02*
X124134000Y-113047000D01*
X114626000Y-113047000D02*
X118139000Y-113047000D01*
X120621000Y-113087000D02*
X124148000Y-113087000D01*
X114612000Y-113087000D02*
X118139000Y-113087000D01*
X120621000Y-113127000D02*
X124163000Y-113127000D01*
X114597000Y-113127000D02*
X118139000Y-113127000D01*
X120621000Y-113167000D02*
X124177000Y-113167000D01*
X114583000Y-113167000D02*
X118139000Y-113167000D01*
X120621000Y-113207000D02*
X124191000Y-113207000D01*
X114569000Y-113207000D02*
X118139000Y-113207000D01*
X120621000Y-113247000D02*
X124204000Y-113247000D01*
X114556000Y-113247000D02*
X118139000Y-113247000D01*
X120621000Y-113287000D02*
X124217000Y-113287000D01*
X114543000Y-113287000D02*
X118139000Y-113287000D01*
X120621000Y-113327000D02*
X124230000Y-113327000D01*
X114530000Y-113327000D02*
X118139000Y-113327000D01*
X120621000Y-113367000D02*
X124242000Y-113367000D01*
X114518000Y-113367000D02*
X118139000Y-113367000D01*
X120621000Y-113407000D02*
X124254000Y-113407000D01*
X114506000Y-113407000D02*
X118139000Y-113407000D01*
X120621000Y-113447000D02*
X124265000Y-113447000D01*
X114495000Y-113447000D02*
X118139000Y-113447000D01*
X120621000Y-113487000D02*
X124277000Y-113487000D01*
X114483000Y-113487000D02*
X118139000Y-113487000D01*
X120621000Y-113527000D02*
X124287000Y-113527000D01*
X114473000Y-113527000D02*
X118139000Y-113527000D01*
X120621000Y-113567000D02*
X124298000Y-113567000D01*
X114462000Y-113567000D02*
X118139000Y-113567000D01*
X114452000Y-113607000D02*
X124308000Y-113607000D01*
X114442000Y-113647000D02*
X124318000Y-113647000D01*
X114433000Y-113687000D02*
X124327000Y-113687000D01*
X114424000Y-113727000D02*
X124336000Y-113727000D01*
X114415000Y-113767000D02*
X124345000Y-113767000D01*
X114406000Y-113807000D02*
X124354000Y-113807000D01*
X114398000Y-113847000D02*
X124362000Y-113847000D01*
X114390000Y-113887000D02*
X124370000Y-113887000D01*
X114383000Y-113927000D02*
X124377000Y-113927000D01*
X114376000Y-113967000D02*
X124384000Y-113967000D01*
X114369000Y-114007000D02*
X124391000Y-114007000D01*
X114362000Y-114047000D02*
X124398000Y-114047000D01*
X114356000Y-114087000D02*
X124404000Y-114087000D01*
X114350000Y-114127000D02*
X124410000Y-114127000D01*
X114345000Y-114168000D02*
X124415000Y-114168000D01*
X114340000Y-114208000D02*
X124420000Y-114208000D01*
X114335000Y-114248000D02*
X124425000Y-114248000D01*
X114330000Y-114288000D02*
X124430000Y-114288000D01*
X114326000Y-114328000D02*
X124434000Y-114328000D01*
X114322000Y-114368000D02*
X124438000Y-114368000D01*
X114318000Y-114408000D02*
X124442000Y-114408000D01*
X114315000Y-114448000D02*
X124445000Y-114448000D01*
X114312000Y-114488000D02*
X124448000Y-114488000D01*
X114310000Y-114528000D02*
X124450000Y-114528000D01*
X114307000Y-114568000D02*
X124453000Y-114568000D01*
X114305000Y-114608000D02*
X124455000Y-114608000D01*
X114303000Y-114648000D02*
X124457000Y-114648000D01*
X114302000Y-114688000D02*
X124458000Y-114688000D01*
X114301000Y-114728000D02*
X124459000Y-114728000D01*
X114300000Y-114768000D02*
X124460000Y-114768000D01*
X114300000Y-114808000D02*
X124460000Y-114808000D01*
X114300000Y-114848000D02*
X124460000Y-114848000D01*
X124500000Y-114848000D02*
G75*
G03*
X124500000Y-114848000I-5120000J0D01*
G01*
G04 #@! TO.C,D1*
X95558000Y-96682000D02*
X98498000Y-96682000D01*
X95558000Y-96442000D02*
X98498000Y-96442000D01*
X95558000Y-96562000D02*
X98498000Y-96562000D01*
X97028000Y-91002000D02*
X97028000Y-92022000D01*
X97028000Y-98482000D02*
X97028000Y-97462000D01*
X95558000Y-92022000D02*
X95558000Y-97462000D01*
X98498000Y-92022000D02*
X95558000Y-92022000D01*
X98498000Y-97462000D02*
X98498000Y-92022000D01*
X95558000Y-97462000D02*
X98498000Y-97462000D01*
G04 #@! TO.C,D2*
X98572000Y-85111000D02*
X98572000Y-82021000D01*
X98512000Y-83566000D02*
G75*
G03*
X98512000Y-83566000I-2500000J0D01*
G01*
X93022000Y-83565538D02*
G75*
G03*
X98572000Y-85110830I2990000J-462D01*
G01*
X93022000Y-83566462D02*
G75*
G02*
X98572000Y-82021170I2990000J462D01*
G01*
G04 #@! TO.C,J1*
X166878000Y-94802000D02*
X165548000Y-94802000D01*
X165548000Y-94802000D02*
X165548000Y-93472000D01*
X165548000Y-92202000D02*
X165548000Y-84522000D01*
X168208000Y-84522000D02*
X165548000Y-84522000D01*
X168208000Y-92202000D02*
X168208000Y-84522000D01*
X168208000Y-92202000D02*
X165548000Y-92202000D01*
G04 #@! TO.C,J2*
X101092000Y-85830000D02*
X99762000Y-85830000D01*
X99762000Y-85830000D02*
X99762000Y-84500000D01*
X99762000Y-83230000D02*
X99762000Y-80630000D01*
X102422000Y-80630000D02*
X99762000Y-80630000D01*
X102422000Y-83230000D02*
X102422000Y-80630000D01*
X102422000Y-83230000D02*
X99762000Y-83230000D01*
G04 #@! TO.C,J3*
X156210000Y-80712000D02*
X156210000Y-83372000D01*
X156210000Y-80712000D02*
X153610000Y-80712000D01*
X153610000Y-80712000D02*
X153610000Y-83372000D01*
X156210000Y-83372000D02*
X153610000Y-83372000D01*
X158810000Y-83372000D02*
X157480000Y-83372000D01*
X158810000Y-82042000D02*
X158810000Y-83372000D01*
G04 #@! TO.C,Q1*
X159270000Y-108126000D02*
X163120000Y-108126000D01*
X163158611Y-108116122D02*
G75*
G03*
X159270000Y-108126000I-1948611J1690122D01*
G01*
G04 #@! TO.C,R1*
X158020000Y-109882000D02*
X158020000Y-112622000D01*
X158020000Y-112622000D02*
X164560000Y-112622000D01*
X164560000Y-112622000D02*
X164560000Y-109882000D01*
X164560000Y-109882000D02*
X158020000Y-109882000D01*
X157250000Y-111252000D02*
X158020000Y-111252000D01*
X165330000Y-111252000D02*
X164560000Y-111252000D01*
G04 #@! TO.C,R2*
X165330000Y-114554000D02*
X164560000Y-114554000D01*
X157250000Y-114554000D02*
X158020000Y-114554000D01*
X164560000Y-113184000D02*
X158020000Y-113184000D01*
X164560000Y-115924000D02*
X164560000Y-113184000D01*
X158020000Y-115924000D02*
X164560000Y-115924000D01*
X158020000Y-113184000D02*
X158020000Y-115924000D01*
G04 #@! TO.C,R3*
X126524000Y-106326000D02*
X126524000Y-109066000D01*
X126524000Y-109066000D02*
X133064000Y-109066000D01*
X133064000Y-109066000D02*
X133064000Y-106326000D01*
X133064000Y-106326000D02*
X126524000Y-106326000D01*
X125754000Y-107696000D02*
X126524000Y-107696000D01*
X133834000Y-107696000D02*
X133064000Y-107696000D01*
G04 #@! TO.C,R4*
X105664000Y-105688000D02*
X105664000Y-106458000D01*
X105664000Y-113768000D02*
X105664000Y-112998000D01*
X104294000Y-106458000D02*
X104294000Y-112998000D01*
X107034000Y-106458000D02*
X104294000Y-106458000D01*
X107034000Y-112998000D02*
X107034000Y-106458000D01*
X104294000Y-112998000D02*
X107034000Y-112998000D01*
G04 #@! TO.C,RV1*
X91888000Y-88840000D02*
X93218000Y-88840000D01*
X91888000Y-90170000D02*
X91888000Y-88840000D01*
X91888000Y-91440000D02*
X94548000Y-91440000D01*
X94548000Y-91440000D02*
X94548000Y-96580000D01*
X91888000Y-91440000D02*
X91888000Y-96580000D01*
X91888000Y-96580000D02*
X94548000Y-96580000D01*
G04 #@! TO.C,SW1*
X106232000Y-85830000D02*
X104902000Y-85830000D01*
X106232000Y-84500000D02*
X106232000Y-85830000D01*
X106232000Y-83230000D02*
X103572000Y-83230000D01*
X103572000Y-83230000D02*
X103572000Y-80630000D01*
X106232000Y-83230000D02*
X106232000Y-80630000D01*
X106232000Y-80630000D02*
X103572000Y-80630000D01*
G04 #@! TO.C,U1*
X106790000Y-92396000D02*
X105140000Y-92396000D01*
X106790000Y-102676000D02*
X106790000Y-92396000D01*
X101490000Y-102676000D02*
X106790000Y-102676000D01*
X101490000Y-92396000D02*
X101490000Y-102676000D01*
X103140000Y-92396000D02*
X101490000Y-92396000D01*
X105140000Y-92396000D02*
G75*
G02*
X103140000Y-92396000I-1000000J0D01*
G01*
G04 #@! TO.C,C1*
D11*
X145307142Y-115708666D02*
X145354761Y-115756285D01*
X145402380Y-115899142D01*
X145402380Y-115994380D01*
X145354761Y-116137238D01*
X145259523Y-116232476D01*
X145164285Y-116280095D01*
X144973809Y-116327714D01*
X144830952Y-116327714D01*
X144640476Y-116280095D01*
X144545238Y-116232476D01*
X144450000Y-116137238D01*
X144402380Y-115994380D01*
X144402380Y-115899142D01*
X144450000Y-115756285D01*
X144497619Y-115708666D01*
X145402380Y-114756285D02*
X145402380Y-115327714D01*
X145402380Y-115042000D02*
X144402380Y-115042000D01*
X144545238Y-115137238D01*
X144640476Y-115232476D01*
X144688095Y-115327714D01*
G04 #@! TO.C,C5*
X113487142Y-115014666D02*
X113534761Y-115062285D01*
X113582380Y-115205142D01*
X113582380Y-115300380D01*
X113534761Y-115443238D01*
X113439523Y-115538476D01*
X113344285Y-115586095D01*
X113153809Y-115633714D01*
X113010952Y-115633714D01*
X112820476Y-115586095D01*
X112725238Y-115538476D01*
X112630000Y-115443238D01*
X112582380Y-115300380D01*
X112582380Y-115205142D01*
X112630000Y-115062285D01*
X112677619Y-115014666D01*
X112582380Y-114109904D02*
X112582380Y-114586095D01*
X113058571Y-114633714D01*
X113010952Y-114586095D01*
X112963333Y-114490857D01*
X112963333Y-114252761D01*
X113010952Y-114157523D01*
X113058571Y-114109904D01*
X113153809Y-114062285D01*
X113391904Y-114062285D01*
X113487142Y-114109904D01*
X113534761Y-114157523D01*
X113582380Y-114252761D01*
X113582380Y-114490857D01*
X113534761Y-114586095D01*
X113487142Y-114633714D01*
G04 #@! TO.C,D1*
X97506379Y-95204096D02*
X96506379Y-95204096D01*
X96506379Y-94966001D01*
X96553999Y-94823143D01*
X96649237Y-94727905D01*
X96744475Y-94680286D01*
X96934951Y-94632667D01*
X97077808Y-94632667D01*
X97268284Y-94680286D01*
X97363522Y-94727905D01*
X97458760Y-94823143D01*
X97506379Y-94966001D01*
X97506379Y-95204096D01*
X97506379Y-93680286D02*
X97506379Y-94251715D01*
X97506379Y-93966001D02*
X96506379Y-93966001D01*
X96649237Y-94061239D01*
X96744475Y-94156477D01*
X96792094Y-94251715D01*
G04 #@! TO.C,J1*
X166544666Y-95694380D02*
X166544666Y-96408666D01*
X166497047Y-96551523D01*
X166401809Y-96646761D01*
X166258952Y-96694380D01*
X166163714Y-96694380D01*
X167544666Y-96694380D02*
X166973238Y-96694380D01*
X167258952Y-96694380D02*
X167258952Y-95694380D01*
X167163714Y-95837238D01*
X167068476Y-95932476D01*
X166973238Y-95980095D01*
G04 #@! TO.C,J2*
X100758666Y-86722380D02*
X100758666Y-87436666D01*
X100711047Y-87579523D01*
X100615809Y-87674761D01*
X100472952Y-87722380D01*
X100377714Y-87722380D01*
X101187238Y-86817619D02*
X101234857Y-86770000D01*
X101330095Y-86722380D01*
X101568190Y-86722380D01*
X101663428Y-86770000D01*
X101711047Y-86817619D01*
X101758666Y-86912857D01*
X101758666Y-87008095D01*
X101711047Y-87150952D01*
X101139619Y-87722380D01*
X101758666Y-87722380D01*
G04 #@! TO.C,J3*
X159916666Y-81494380D02*
X159916666Y-82208666D01*
X159869047Y-82351523D01*
X159773809Y-82446761D01*
X159630952Y-82494380D01*
X159535714Y-82494380D01*
X160297619Y-81494380D02*
X160916666Y-81494380D01*
X160583333Y-81875333D01*
X160726190Y-81875333D01*
X160821428Y-81922952D01*
X160869047Y-81970571D01*
X160916666Y-82065809D01*
X160916666Y-82303904D01*
X160869047Y-82399142D01*
X160821428Y-82446761D01*
X160726190Y-82494380D01*
X160440476Y-82494380D01*
X160345238Y-82446761D01*
X160297619Y-82399142D01*
G04 #@! TO.C,Q1*
X161114761Y-103413619D02*
X161019523Y-103366000D01*
X160924285Y-103270761D01*
X160781428Y-103127904D01*
X160686190Y-103080285D01*
X160590952Y-103080285D01*
X160638571Y-103318380D02*
X160543333Y-103270761D01*
X160448095Y-103175523D01*
X160400476Y-102985047D01*
X160400476Y-102651714D01*
X160448095Y-102461238D01*
X160543333Y-102366000D01*
X160638571Y-102318380D01*
X160829047Y-102318380D01*
X160924285Y-102366000D01*
X161019523Y-102461238D01*
X161067142Y-102651714D01*
X161067142Y-102985047D01*
X161019523Y-103175523D01*
X160924285Y-103270761D01*
X160829047Y-103318380D01*
X160638571Y-103318380D01*
X162019523Y-103318380D02*
X161448095Y-103318380D01*
X161733809Y-103318380D02*
X161733809Y-102318380D01*
X161638571Y-102461238D01*
X161543333Y-102556476D01*
X161448095Y-102604095D01*
G04 #@! TO.C,R1*
X161123333Y-111644379D02*
X160790000Y-111168189D01*
X160551904Y-111644379D02*
X160551904Y-110644379D01*
X160932857Y-110644379D01*
X161028095Y-110691999D01*
X161075714Y-110739618D01*
X161123333Y-110834856D01*
X161123333Y-110977713D01*
X161075714Y-111072951D01*
X161028095Y-111120570D01*
X160932857Y-111168189D01*
X160551904Y-111168189D01*
X162075714Y-111644379D02*
X161504285Y-111644379D01*
X161790000Y-111644379D02*
X161790000Y-110644379D01*
X161694761Y-110787237D01*
X161599523Y-110882475D01*
X161504285Y-110930094D01*
G04 #@! TO.C,R2*
X161123333Y-114946379D02*
X160790000Y-114470189D01*
X160551904Y-114946379D02*
X160551904Y-113946379D01*
X160932857Y-113946379D01*
X161028095Y-113993999D01*
X161075714Y-114041618D01*
X161123333Y-114136856D01*
X161123333Y-114279713D01*
X161075714Y-114374951D01*
X161028095Y-114422570D01*
X160932857Y-114470189D01*
X160551904Y-114470189D01*
X161504285Y-114041618D02*
X161551904Y-113993999D01*
X161647142Y-113946379D01*
X161885238Y-113946379D01*
X161980476Y-113993999D01*
X162028095Y-114041618D01*
X162075714Y-114136856D01*
X162075714Y-114232094D01*
X162028095Y-114374951D01*
X161456666Y-114946379D01*
X162075714Y-114946379D01*
G04 #@! TO.C,R3*
X129627333Y-108102379D02*
X129294000Y-107626189D01*
X129055904Y-108102379D02*
X129055904Y-107102379D01*
X129436857Y-107102379D01*
X129532095Y-107149999D01*
X129579714Y-107197618D01*
X129627333Y-107292856D01*
X129627333Y-107435713D01*
X129579714Y-107530951D01*
X129532095Y-107578570D01*
X129436857Y-107626189D01*
X129055904Y-107626189D01*
X129960666Y-107102379D02*
X130579714Y-107102379D01*
X130246380Y-107483332D01*
X130389238Y-107483332D01*
X130484476Y-107530951D01*
X130532095Y-107578570D01*
X130579714Y-107673808D01*
X130579714Y-107911903D01*
X130532095Y-108007141D01*
X130484476Y-108054760D01*
X130389238Y-108102379D01*
X130103523Y-108102379D01*
X130008285Y-108054760D01*
X129960666Y-108007141D01*
G04 #@! TO.C,R4*
X106115379Y-109894666D02*
X105639189Y-110228000D01*
X106115379Y-110466095D02*
X105115379Y-110466095D01*
X105115379Y-110085142D01*
X105162999Y-109989904D01*
X105210618Y-109942285D01*
X105305856Y-109894666D01*
X105448713Y-109894666D01*
X105543951Y-109942285D01*
X105591570Y-109989904D01*
X105639189Y-110085142D01*
X105639189Y-110466095D01*
X105448713Y-109037523D02*
X106115379Y-109037523D01*
X105067760Y-109275619D02*
X105782046Y-109513714D01*
X105782046Y-108894666D01*
G04 #@! TO.C,RV1*
X92622761Y-88292380D02*
X92289428Y-87816190D01*
X92051333Y-88292380D02*
X92051333Y-87292380D01*
X92432285Y-87292380D01*
X92527523Y-87340000D01*
X92575142Y-87387619D01*
X92622761Y-87482857D01*
X92622761Y-87625714D01*
X92575142Y-87720952D01*
X92527523Y-87768571D01*
X92432285Y-87816190D01*
X92051333Y-87816190D01*
X92908476Y-87292380D02*
X93241809Y-88292380D01*
X93575142Y-87292380D01*
X94432285Y-88292380D02*
X93860857Y-88292380D01*
X94146571Y-88292380D02*
X94146571Y-87292380D01*
X94051333Y-87435238D01*
X93956095Y-87530476D01*
X93860857Y-87578095D01*
G04 #@! TO.C,SW1*
X103568666Y-87674761D02*
X103711523Y-87722380D01*
X103949619Y-87722380D01*
X104044857Y-87674761D01*
X104092476Y-87627142D01*
X104140095Y-87531904D01*
X104140095Y-87436666D01*
X104092476Y-87341428D01*
X104044857Y-87293809D01*
X103949619Y-87246190D01*
X103759142Y-87198571D01*
X103663904Y-87150952D01*
X103616285Y-87103333D01*
X103568666Y-87008095D01*
X103568666Y-86912857D01*
X103616285Y-86817619D01*
X103663904Y-86770000D01*
X103759142Y-86722380D01*
X103997238Y-86722380D01*
X104140095Y-86770000D01*
X104473428Y-86722380D02*
X104711523Y-87722380D01*
X104902000Y-87008095D01*
X105092476Y-87722380D01*
X105330571Y-86722380D01*
X106235333Y-87722380D02*
X105663904Y-87722380D01*
X105949619Y-87722380D02*
X105949619Y-86722380D01*
X105854380Y-86865238D01*
X105759142Y-86960476D01*
X105663904Y-87008095D01*
G04 #@! TO.C,U1*
X103378095Y-90848380D02*
X103378095Y-91657904D01*
X103425714Y-91753142D01*
X103473333Y-91800761D01*
X103568571Y-91848380D01*
X103759047Y-91848380D01*
X103854285Y-91800761D01*
X103901904Y-91753142D01*
X103949523Y-91657904D01*
X103949523Y-90848380D01*
X104949523Y-91848380D02*
X104378095Y-91848380D01*
X104663809Y-91848380D02*
X104663809Y-90848380D01*
X104568571Y-90991238D01*
X104473333Y-91086476D01*
X104378095Y-91134095D01*
G04 #@! TD*
M02*
